<?xml version="1.0" encoding="UTF-8" standalone="no"?>
<!-- Created with Inkscape (http://www.inkscape.org/) -->

<svg
   version="1.1"
   id="svg2"
   width="690.14398"
   height="888.47998"
   viewBox="0 0 690.14398 888.47998"
   sodipodi:docname="4PmrqTPDrJV6cyWn.pdf"
   xmlns:inkscape="http://www.inkscape.org/namespaces/inkscape"
   xmlns:sodipodi="http://sodipodi.sourceforge.net/DTD/sodipodi-0.dtd"
   xmlns="http://www.w3.org/2000/svg"
   xmlns:svg="http://www.w3.org/2000/svg">
  <defs
     id="defs6">
    <clipPath
       clipPathUnits="userSpaceOnUse"
       id="clipPath178">
      <path
         d="M 0,665.858 H 519.84 V 0 H 0 Z"
         id="path176" />
    </clipPath>
  </defs>
  <sodipodi:namedview
     id="namedview4"
     pagecolor="#ffffff"
     bordercolor="#000000"
     borderopacity="0.25"
     inkscape:showpageshadow="2"
     inkscape:pageopacity="0.0"
     inkscape:pagecheckerboard="0"
     inkscape:deskcolor="#d1d1d1" />
  <g
     id="g8"
     inkscape:groupmode="layer"
     inkscape:label="4PmrqTPDrJV6cyWn"
     transform="matrix(1.3333333,0,0,-1.3333333,-1.46,887.61333)">
    <g
       id="g10">
      <g
         id="g12">
        <text
           xml:space="preserve"
           transform="matrix(1,0,0,-1,432.142,622.111)"
           style="font-variant:normal;font-weight:normal;font-size:10px;font-family:'Times New Roman';-inkscape-font-specification:TimesNewRomanPS;writing-mode:lr-tb;fill:#231f20;fill-opacity:1;fill-rule:nonzero;stroke:none"
           id="text16"><tspan
             x="0 2.78"
             y="0"
             sodipodi:role="line"
             id="tspan14">ix</tspan></text>
        <text
           xml:space="preserve"
           transform="matrix(1,0,0,-1,79.92,622.111)"
           style="font-variant:normal;font-weight:bold;font-size:10px;font-family:'Times New Roman';-inkscape-font-specification:TimesNewRomanPS-Bold;writing-mode:lr-tb;fill:#231f20;fill-opacity:1;fill-rule:nonzero;stroke:none"
           id="text20"><tspan
             x="0 7.2199998 12.22 17.780001 21.110001 25.549999 31.110001 34.439999"
             y="0"
             sodipodi:role="line"
             id="tspan18">Contents</tspan></text>
        <text
           xml:space="preserve"
           transform="matrix(1,0,0,-1,94.32,584.778)"
           style="font-variant:normal;font-weight:bold;font-size:12px;font-family:'Times New Roman';-inkscape-font-specification:TimesNewRomanPS-Bold;writing-mode:lr-tb;fill:#231f20;fill-opacity:1;fill-rule:nonzero;stroke:none"
           id="text24"><tspan
             x="0 7.3319998 12.3036 17.631599 21.6276 26.955601 32.2836 35.2836 43.287601 49.287601 54.615601 59.9436 66.615601 70.611603 73.947601 79.947601 86.619598 91.287598 94.287598 98.2836 104.2836 107.2836 115.9476 121.2756 125.2716 131.9436 137.0928 143.7648 147.1008 153.7728 159.7728 162.7728 170.77679 176.1048 181.0764 187.0764 192.4044 195.4044 204.06841 210.06841 216.7404 222.06841"
             y="0"
             sodipodi:role="line"
             id="tspan22">Prefer Exceptions to Returning Error Codes</tspan></text>
        <text
           xml:space="preserve"
           transform="matrix(1,0,0,-1,322.7148,584.778)"
           style="font-variant:normal;font-weight:normal;font-size:12px;font-family:'Times New Roman';-inkscape-font-specification:TimesNewRomanPS;writing-mode:lr-tb;fill:#231f20;fill-opacity:1;fill-rule:nonzero;stroke:none"
           id="text34"><tspan
             x="0 3 6 9 12 15 18 21 24 27 30 33 36 39 42 45 48 51 54 57 60 63 66 69 72 75 78 81 84 87 90 93 96 99 102 105.2808 111.2808"
             y="0"
             sodipodi:role="line"
             id="tspan26">...................................46</tspan><tspan
             x="-213.9948 -206.6628 -200.6628 -197.3268 -193.3308 -188.00281 -182.6748 -179.33881 -176.9364 -170.02319 -165.7896 -159.7896 -156.4536 -148.4496 -143.1216 -139.7856 -134.4576 -128.4576 -125.4576 -117.4536 -114.1176 -108.1176 -102.7896 -96.789597 -89.830803 -86.830803 -83.830803 -80.830803 -77.830803 -74.830803 -71.830803 -68.830803 -65.830803 -62.830799 -59.830799 -56.830799 -53.830799 -50.830799 -47.830799 -44.830799 -41.830799 -38.830799 -35.830799 -32.830799 -29.830799 -26.830799 -23.830799 -20.830799 -17.830799 -14.8308 -11.8308 -8.8308001 -5.8308001 -2.8308001 0.1692 3.1691999 6.1691999 9.1691999 12.1692 15.1692 18.169201 21.169201 24.169201 27.169201 30.169201 33.169201 36.169201 39.169201 42.169201 45.169201 48.169201 51.169201 54.169201 57.169201 60.169201 63.169201 66.169197 69.169197 72.169197 75.169197 78.169197 81.169197 84.169197 87.169197 90.169197 93.169197 96.169197 99.169197 102.1692 105.45 111.45"
             y="14.0004"
             sodipodi:role="line"
             id="tspan28">Extract Try/Catch Blocks.................................................................46</tspan><tspan
             x="-213.9948 -206.6628 -202.3092 -198.3132 -192.3132 -188.3172 -185.3172 -176.6532 -171.3252 -165.3252 -159.3252 -155.9892 -152.6532 -146.6532 -140.6532 -137.6532 -133.6572 -128.9892 -125.9892 -117.3252 -111.3252 -105.9972 -103.5948 -96.262802 -90.262802 -86.926804 -80.926804 -74.832001 -71.832001 -68.832001 -65.832001 -62.832001 -59.832001 -56.832001 -53.832001 -50.832001 -47.832001 -44.832001 -41.832001 -38.832001 -35.832001 -32.832001 -29.832001 -26.832001 -23.832001 -20.832001 -17.832001 -14.832 -11.832 -8.8319998 -5.8319998 -2.832 0.168 3.168 6.1680002 9.1680002 12.168 15.168 18.167999 21.167999 24.167999 27.167999 30.167999 33.167999 36.167999 39.167999 42.167999 45.167999 48.167999 51.167999 54.167999 57.167999 60.167999 63.167999 66.167999 69.167999 72.167999 75.167999 78.167999 81.167999 84.167999 87.167999 90.167999 93.167999 96.167999 99.167999 102.168 105.4488 111.4488"
             y="28.000799"
             sodipodi:role="line"
             id="tspan30">Error Handling Is One Thing............................................................47</tspan><tspan
             x="-213.9948 -206.6628 -200.6628"
             y="42.001202"
             sodipodi:role="line"
             id="tspan32">The</tspan></text>
        <text
           xml:space="preserve"
           transform="matrix(0.8,0,0,-1,130.362,542.778)"
           style="font-variant:normal;font-weight:normal;font-size:12px;font-family:'Courier New';-inkscape-font-specification:Courier;writing-mode:lr-tb;fill:#231f20;fill-opacity:1;fill-rule:nonzero;stroke:none"
           id="text38"><tspan
             x="0 7.1999998 14.4 21.6 28.799999 36 43.200001 50.400002 57.599998 64.800003"
             y="0"
             sodipodi:role="line"
             id="tspan36">Error.java</tspan></text>
        <text
           xml:space="preserve"
           transform="matrix(1,0,0,-1,191.004,542.778)"
           style="font-variant:normal;font-weight:normal;font-size:12px;font-family:'Times New Roman';-inkscape-font-specification:TimesNewRomanPS;writing-mode:lr-tb;fill:#231f20;fill-opacity:1;fill-rule:nonzero;stroke:none"
           id="text42"><tspan
             x="0 8.6639996 13.992 19.992001 25.32 31.32 37.32 42.647999 48.647999 53.797199 59.797199 62.797199 73.465202 78.793198 84.793198 90.793198 96.121201 101.8128 104.8128 107.8128 110.8128 113.8128 116.8128 119.8128 122.8128 125.8128 128.81281 131.81281 134.81281 137.81281 140.81281 143.81281 146.81281 149.81281 152.81281 155.81281 158.81281 161.81281 164.81281 167.81281 170.81281 173.81281 176.81281 179.81281 182.81281 185.81281 188.81281 191.81281 194.81281 197.81281 200.81281 203.81281 206.81281 209.81281 212.81281 215.81281 218.81281 221.81281 224.81281 227.81281 230.81281 233.81281 237.0936 243.0936"
             y="0"
             sodipodi:role="line"
             id="tspan40">Dependency Magnet.............................................47</tspan></text>
        <text
           xml:space="preserve"
           transform="matrix(1,0,0,-1,94.32,528.7776)"
           style="font-variant:normal;font-weight:bold;font-size:12px;font-family:'Times New Roman';-inkscape-font-specification:TimesNewRomanPS-Bold;writing-mode:lr-tb;fill:#231f20;fill-opacity:1;fill-rule:nonzero;stroke:none"
           id="text46"><tspan
             x="0 8.6639996 14.664 21.336 25.033199 29.0292 32.029202 40.693199 46.021198 52.693199 58.021198 64.021202 68.017197 69.819603 76.804802 82.804802 89.476799 94.6884 99.3564 104.6844 108.0204"
             y="0"
             sodipodi:role="line"
             id="tspan44">Don’t Repeat Yourself</tspan></text>
        <text
           xml:space="preserve"
           transform="matrix(1,0,0,-1,208.7892,528.7776)"
           style="font-variant:normal;font-weight:normal;font-size:12px;font-family:'Times New Roman';-inkscape-font-specification:TimesNewRomanPS;writing-mode:lr-tb;fill:#231f20;fill-opacity:1;fill-rule:nonzero;stroke:none"
           id="text50"><tspan
             x="0 3 6 9 12 15 18 21 24 27 30 33 36 39 42 45 48 51 54 57 60 63 66 69 72 75 78 81 84 87 90 93 96 99 102 105 108 111 114 117 120 123 126 129 132 135 138 141 144 147 150 153 156 159 162 165 168 171 174 177 180 183 186 189 192 195 198 201 204 207 210 213 216 219.28081 225.28081"
             y="0"
             sodipodi:role="line"
             id="tspan48">.........................................................................48</tspan></text>
        <text
           xml:space="preserve"
           transform="matrix(1,0,0,-1,94.32,514.7772)"
           style="font-variant:normal;font-weight:bold;font-size:12px;font-family:'Times New Roman';-inkscape-font-specification:TimesNewRomanPS-Bold;writing-mode:lr-tb;fill:#231f20;fill-opacity:1;fill-rule:nonzero;stroke:none"
           id="text54"><tspan
             x="0 6.6719999 10.668 15.996 22.667999 27.996 31.992001 38.664001 43.635601 48.9636 55.635601 58.635601 65.967598 70.939201 76.8228 82.8228 88.034401 94.034401 104.0304 114.0264 117.3624 124.0344"
             y="0"
             sodipodi:role="line"
             id="tspan52">Structured Programming</tspan></text>
        <text
           xml:space="preserve"
           transform="matrix(1,0,0,-1,226.7772,514.7772)"
           style="font-variant:normal;font-weight:normal;font-size:12px;font-family:'Times New Roman';-inkscape-font-specification:TimesNewRomanPS;writing-mode:lr-tb;fill:#231f20;fill-opacity:1;fill-rule:nonzero;stroke:none"
           id="text58"><tspan
             x="0 3 6 9 12 15 18 21 24 27 30 33 36 39 42 45 48 51 54 57 60 63 66 69 72 75 78 81 84 87 90 93 96 99 102 105 108 111 114 117 120 123 126 129 132 135 138 141 144 147 150 153 156 159 162 165 168 171 174 177 180 183 186 189 192 195 198 201.28081 207.28081"
             y="0"
             sodipodi:role="line"
             id="tspan56">...................................................................48</tspan></text>
        <text
           xml:space="preserve"
           transform="matrix(1,0,0,-1,94.32,500.7768)"
           style="font-variant:normal;font-weight:bold;font-size:12px;font-family:'Times New Roman';-inkscape-font-specification:TimesNewRomanPS-Bold;writing-mode:lr-tb;fill:#231f20;fill-opacity:1;fill-rule:nonzero;stroke:none"
           id="text62"><tspan
             x="0 9.3360004 14.7384 23.402399 26.402399 35.066399 41.066399 42.868801 49.854 55.854 62.526001 64.6884 76.6884 82.016403 85.352402 89.348396 94.676399 97.676399 105.0084 111.6804 118.3524 123.6804 127.6764 131.01241 137.01241 143.6844 148.3524 151.3524 159.3564 162.6924 169.248 174.576 176.8584 184.8624 191.53439 194.87041 199.53841"
             y="0"
             sodipodi:role="line"
             id="tspan60">How Do You Write Functions Like This?</tspan></text>
        <text
           xml:space="preserve"
           transform="matrix(1,0,0,-1,301.7292,500.7768)"
           style="font-variant:normal;font-weight:normal;font-size:12px;font-family:'Times New Roman';-inkscape-font-specification:TimesNewRomanPS;writing-mode:lr-tb;fill:#231f20;fill-opacity:1;fill-rule:nonzero;stroke:none"
           id="text66"><tspan
             x="0 3 6 9 12 15 18 21 24 27 30 33 36 39 42 45 48 51 54 57 60 63 66 69 72 75 78 81 84 87 90 93 96 99 102 105 108 111 114 117 120 123 126.2808 132.28081"
             y="0"
             sodipodi:role="line"
             id="tspan64">..........................................49</tspan></text>
        <text
           xml:space="preserve"
           transform="matrix(1,0,0,-1,94.32,486.7764)"
           style="font-variant:normal;font-weight:bold;font-size:12px;font-family:'Times New Roman';-inkscape-font-specification:TimesNewRomanPS-Bold;writing-mode:lr-tb;fill:#231f20;fill-opacity:1;fill-rule:nonzero;stroke:none"
           id="text70"><tspan
             x="0 8.6639996 14.664 21.336 26.664 30 36.672001 41.34 44.675999 50.675999"
             y="0"
             sodipodi:role="line"
             id="tspan68">Conclusion</tspan></text>
        <text
           xml:space="preserve"
           transform="matrix(1,0,0,-1,151.8264,486.7764)"
           style="font-variant:normal;font-weight:normal;font-size:12px;font-family:'Times New Roman';-inkscape-font-specification:TimesNewRomanPS;writing-mode:lr-tb;fill:#231f20;fill-opacity:1;fill-rule:nonzero;stroke:none"
           id="text74"><tspan
             x="0 3 6 9 12 15 18 21 24 27 30 33 36 39 42 45 48 51 54 57 60 63 66 69 72 75 78 81 84 87 90 93 96 99 102 105 108 111 114 117 120 123 126 129 132 135 138 141 144 147 150 153 156 159 162 165 168 171 174 177 180 183 186 189 192 195 198 201 204 207 210 213 216 219 222 225 228 231 234 237 240 243 246 249 252 255 258 261 264 267 270 273 276.28079 282.28079"
             y="0"
             sodipodi:role="line"
             id="tspan72">............................................................................................49</tspan></text>
        <text
           xml:space="preserve"
           transform="matrix(0.8,0,0,-1,94.32,472.7781)"
           style="font-variant:normal;font-weight:bold;font-size:12px;font-family:'Courier New';-inkscape-font-specification:Courier-Bold;writing-mode:lr-tb;fill:#231f20;fill-opacity:1;fill-rule:nonzero;stroke:none"
           id="text78"><tspan
             x="0 7.1999998 14.4 21.6 28.799999 36 43.200001 50.400002 57.599998 64.800003 72 79.199997 86.400002 93.599998 100.8 108 115.2 122.4 129.60001 136.8 144"
             y="0"
             sodipodi:role="line"
             id="tspan76">SetupTeardownIncluder</tspan></text>
        <text
           xml:space="preserve"
           transform="matrix(1,0,0,-1,220.781,472.7781)"
           style="font-variant:normal;font-weight:normal;font-size:12px;font-family:'Times New Roman';-inkscape-font-specification:TimesNewRomanPS;writing-mode:lr-tb;fill:#231f20;fill-opacity:1;fill-rule:nonzero;stroke:none"
           id="text82"><tspan
             x="0 3 6 9 12 15 18 21 24 27 30 33 36 39 42 45 48 51 54 57 60 63 66 69 72 75 78 81 84 87 90 93 96 99 102 105 108 111 114 117 120 123 126 129 132 135 138 141 144 147 150 153 156 159 162 165 168 171 174 177 180 183 186 189 192 195 198 201 204 207.28081 213.28081"
             y="0"
             sodipodi:role="line"
             id="tspan80">.....................................................................50</tspan></text>
        <text
           xml:space="preserve"
           transform="matrix(1,0,0,-1,94.3202,458.7777)"
           style="font-variant:normal;font-weight:bold;font-size:12px;font-family:'Times New Roman';-inkscape-font-specification:TimesNewRomanPS-Bold;writing-mode:lr-tb;fill:#231f20;fill-opacity:1;fill-rule:nonzero;stroke:none"
           id="text86"><tspan
             x="0 8.0039997 11.34 17.7756 21.111601 24.447599 30.3312 36.3312 41.542801 47.542801 54.214802 60.348"
             y="0"
             sodipodi:role="line"
             id="tspan84">Bibliography</tspan></text>
        <text
           xml:space="preserve"
           transform="matrix(1,0,0,-1,160.8206,458.7777)"
           style="font-variant:normal;font-weight:normal;font-size:12px;font-family:'Times New Roman';-inkscape-font-specification:TimesNewRomanPS;writing-mode:lr-tb;fill:#231f20;fill-opacity:1;fill-rule:nonzero;stroke:none"
           id="text90"><tspan
             x="0 3 6 9 12 15 18 21 24 27 30 33 36 39 42 45 48 51 54 57 60 63 66 69 72 75 78 81 84 87 90 93 96 99 102 105 108 111 114 117 120 123 126 129 132 135 138 141 144 147 150 153 156 159 162 165 168 171 174 177 180 183 186 189 192 195 198 201 204 207 210 213 216 219 222 225 228 231 234 237 240 243 246 249 252 255 258 261 264 267.28079 273.28079"
             y="0"
             sodipodi:role="line"
             id="tspan88">.........................................................................................52</tspan></text>
        <text
           xml:space="preserve"
           transform="matrix(1,0,0,-1,79.919,432.446)"
           style="font-variant:normal;font-weight:bold;font-size:14px;font-family:'Times New Roman';-inkscape-font-specification:TimesNewRomanPS-Bold;writing-mode:lr-tb;fill:#231f20;fill-opacity:1;fill-rule:nonzero;stroke:none"
           id="text94"><tspan
             x="0 10.108 17.892 24.892 32.675999 37.338001 43.554001 49.77 53.27 60.27 64.514801 68.014801 78.122803 85.122803 96.784798 108.4468 114.6628 122.4468 127.1088"
             y="0"
             sodipodi:role="line"
             id="tspan92">Chapter 4: Comments</tspan></text>
        <text
           xml:space="preserve"
           transform="matrix(1,0,0,-1,214.784,432.445)"
           style="font-variant:normal;font-weight:normal;font-size:12px;font-family:'Times New Roman';-inkscape-font-specification:TimesNewRomanPS;writing-mode:lr-tb;fill:#231f20;fill-opacity:1;fill-rule:nonzero;stroke:none"
           id="text98"><tspan
             x="0 3 6 9 12 15 18 21 24 27 30 33 36 39 42 45 48 51 54 57 60 63 66 69 72 75 78 81 84 87 90 93 96 99 102 105 108 111 114 117 120 123 126 129 132 135 138 141 144 147 150 153 156 159 162 165 168 171 174 177 180 183 186 189 192 195 198 201 204 207 210 213.28081 219.28081"
             y="0"
             sodipodi:role="line"
             id="tspan96">.......................................................................53</tspan></text>
        <text
           xml:space="preserve"
           transform="matrix(1,0,0,-1,94.3196,416.7778)"
           style="font-variant:normal;font-weight:bold;font-size:12px;font-family:'Times New Roman';-inkscape-font-specification:TimesNewRomanPS-Bold;writing-mode:lr-tb;fill:#231f20;fill-opacity:1;fill-rule:nonzero;stroke:none"
           id="text102"><tspan
             x="0 8.6639996 14.664 24.66 34.655998 39.984001 46.655998 50.652 55.32 58.32 66.984001 72.984001 75.984001 84.648003 90.648003 94.643997 97.643997 108.972 114.972 121.5276 126.8556 129.85561 138.51961 145.1916 148.1916 151.88879 157.88879 163.2168 166.2168 174.22079 180.22079 186.89281 189.89281 198.55679 204.55679 211.22881"
             y="0"
             sodipodi:role="line"
             id="tspan100">Comments Do Not Make Up for Bad Code</tspan></text>
        <text
           xml:space="preserve"
           transform="matrix(1,0,0,-1,310.7228,416.7778)"
           style="font-variant:normal;font-weight:normal;font-size:12px;font-family:'Times New Roman';-inkscape-font-specification:TimesNewRomanPS;writing-mode:lr-tb;fill:#231f20;fill-opacity:1;fill-rule:nonzero;stroke:none"
           id="text106"><tspan
             x="0 3 6 9 12 15 18 21 24 27 30 33 36 39 42 45 48 51 54 57 60 63 66 69 72 75 78 81 84 87 90 93 96 99 102 105 108 111 114 117.2808 123.2808"
             y="0"
             sodipodi:role="line"
             id="tspan104">.......................................55</tspan></text>
        <text
           xml:space="preserve"
           transform="matrix(1,0,0,-1,94.3196,402.7774)"
           style="font-variant:normal;font-weight:bold;font-size:12px;font-family:'Times New Roman';-inkscape-font-specification:TimesNewRomanPS-Bold;writing-mode:lr-tb;fill:#231f20;fill-opacity:1;fill-rule:nonzero;stroke:none"
           id="text110"><tspan
             x="0 8.0039997 14.004 20.676001 24.011999 30.011999 33.348 40.02 41.822399 48.807598 54.807598 61.479599 66.6912 71.3592 76.687202 80.023201 84.019203 87.019203 90.355202 97.027199 100.0272 108.6912 114.6912 121.3632"
             y="0"
             sodipodi:role="line"
             id="tspan108">Explain Yourself in Code</tspan></text>
        <text
           xml:space="preserve"
           transform="matrix(1,0,0,-1,223.7792,402.7774)"
           style="font-variant:normal;font-weight:normal;font-size:12px;font-family:'Times New Roman';-inkscape-font-specification:TimesNewRomanPS;writing-mode:lr-tb;fill:#231f20;fill-opacity:1;fill-rule:nonzero;stroke:none"
           id="text114"><tspan
             x="0 3 6 9 12 15 18 21 24 27 30 33 36 39 42 45 48 51 54 57 60 63 66 69 72 75 78 81 84 87 90 93 96 99 102 105 108 111 114 117 120 123 126 129 132 135 138 141 144 147 150 153 156 159 162 165 168 171 174 177 180 183 186 189 192 195 198 201 204.28081 210.28081"
             y="0"
             sodipodi:role="line"
             id="tspan112">....................................................................55</tspan></text>
        <text
           xml:space="preserve"
           transform="matrix(1,0,0,-1,94.3196,388.777)"
           style="font-variant:normal;font-weight:bold;font-size:12px;font-family:'Times New Roman';-inkscape-font-specification:TimesNewRomanPS-Bold;writing-mode:lr-tb;fill:#231f20;fill-opacity:1;fill-rule:nonzero;stroke:none"
           id="text118"><tspan
             x="0 9.3360004 15.336 21.336 28.007999 31.007999 39.672001 45.672001 55.667999 65.664001 70.991997 77.664001 81.660004"
             y="0"
             sodipodi:role="line"
             id="tspan116">Good Comments</tspan></text>
        <text
           xml:space="preserve"
           transform="matrix(1,0,0,-1,181.8068,388.777)"
           style="font-variant:normal;font-weight:normal;font-size:12px;font-family:'Times New Roman';-inkscape-font-specification:TimesNewRomanPS;writing-mode:lr-tb;fill:#231f20;fill-opacity:1;fill-rule:nonzero;stroke:none"
           id="text138"><tspan
             x="0 3 6 9 12 15 18 21 24 27 30 33 36 39 42 45 48 51 54 57 60 63 66 69 72 75 78 81 84 87 90 93 96 99 102 105 108 111 114 117 120 123 126 129 132 135 138 141 144 147 150 153 156 159 162 165 168 171 174 177 180 183 186 189 192 195 198 201 204 207 210 213 216 219 222 225 228 231 234 237 240 243 246.28081 252.28081"
             y="0"
             sodipodi:role="line"
             id="tspan120">..................................................................................55</tspan><tspan
             x="-73.087196 -65.755203 -60.605999 -54.605999 -49.278 -45.942001 -42.942001 -34.938 -28.938 -19.601999 -10.266 -4.9380002 1.062 4.3979998 9.066 12.066 15.066 18.066 21.066 24.066 27.066 30.066 33.066002 36.066002 39.066002 42.066002 45.066002 48.066002 51.066002 54.066002 57.066002 60.066002 63.066002 66.066002 69.066002 72.066002 75.066002 78.066002 81.066002 84.066002 87.066002 90.066002 93.066002 96.066002 99.066002 102.066 105.066 108.066 111.066 114.066 117.066 120.066 123.066 126.066 129.06599 132.06599 135.06599 138.06599 141.06599 144.06599 147.06599 150.06599 153.06599 156.06599 159.06599 162.06599 165.06599 168.06599 171.06599 174.06599 177.06599 180.06599 183.06599 186.06599 189.06599 192.06599 195.06599 198.06599 201.06599 204.06599 207.06599 210.06599 213.06599 216.06599 219.06599 222.06599 225.06599 228.06599 231.06599 234.06599 237.06599 240.06599 243.06599 246.3468 252.3468"
             y="14.0004"
             sodipodi:role="line"
             id="tspan122">Legal Comments...............................................................................55</tspan><tspan
             x="-73.087196 -69.091202 -63.091202 -59.0952 -53.0952 -48.861599 -39.5256 -34.197601 -30.861601 -27.8244 -22.003201 -16.6752 -13.6752 -5.6711998 0.32879999 9.6647997 19.000799 24.3288 30.3288 33.664799 39.0756 42.0756 45.0756 48.0756 51.0756 54.0756 57.0756 60.0756 63.0756 66.0756 69.0756 72.0756 75.0756 78.0756 81.0756 84.0756 87.0756 90.0756 93.0756 96.0756 99.0756 102.0756 105.0756 108.0756 111.0756 114.0756 117.0756 120.0756 123.0756 126.0756 129.07561 132.07561 135.07561 138.07561 141.07561 144.07561 147.07561 150.07561 153.07561 156.07561 159.07561 162.07561 165.07561 168.07561 171.07561 174.07561 177.07561 180.07561 183.07561 186.07561 189.07561 192.07561 195.07561 198.07561 201.07561 204.07561 207.07561 210.07561 213.07561 216.07561 219.07561 222.07561 225.07561 228.07561 231.07561 234.07561 237.07561 240.07561 243.07561 246.3564 252.3564"
             y="28.000799"
             sodipodi:role="line"
             id="tspan124">Informative Comments.....................................................................56</tspan><tspan
             x="-73.087196 -65.755203 -59.755199 -53.755199 -50.419201 -45.091202 -39.091202 -33.763199 -30.4272 -27.0912 -21.0912 -15.0912 -12.0912 -6.0911999 -2.0952001 0.9048 4.9008002 10.9008 14.2368 19.5648 25.5648 30.069599 33.069599 36.069599 39.069599 42.069599 45.069599 48.069599 51.069599 54.069599 57.069599 60.069599 63.069599 66.069603 69.069603 72.069603 75.069603 78.069603 81.069603 84.069603 87.069603 90.069603 93.069603 96.069603 99.069603 102.0696 105.0696 108.0696 111.0696 114.0696 117.0696 120.0696 123.0696 126.0696 129.0696 132.0696 135.0696 138.0696 141.0696 144.0696 147.0696 150.0696 153.0696 156.0696 159.0696 162.0696 165.0696 168.0696 171.0696 174.0696 177.0696 180.0696 183.0696 186.0696 189.0696 192.0696 195.0696 198.0696 201.0696 204.0696 207.0696 210.0696 213.0696 216.0696 219.0696 222.0696 225.0696 228.0696 231.0696 234.0696 237.0696 240.0696 243.0696 246.3504 252.3504"
             y="42.001202"
             sodipodi:role="line"
             id="tspan126">Explanation of Intent........................................................................56</tspan><tspan
             x="-73.087196 -65.083199 -61.7472 -56.419201 -52.423199 -49.0872 -42.415199 -37.0872 -31.759199 -28.423201 -25.0872 -19.0872 -11.9352 -8.9351997 -5.9352002 -2.9352 0.064800002 3.0648 6.0647998 9.0648003 12.0648 15.0648 18.0648 21.0648 24.0648 27.0648 30.0648 33.0648 36.0648 39.0648 42.0648 45.0648 48.0648 51.0648 54.0648 57.0648 60.0648 63.0648 66.064796 69.064796 72.064796 75.064796 78.064796 81.064796 84.064796 87.064796 90.064796 93.064796 96.064796 99.064796 102.0648 105.0648 108.0648 111.0648 114.0648 117.0648 120.0648 123.0648 126.0648 129.0648 132.0648 135.0648 138.0648 141.0648 144.0648 147.0648 150.0648 153.0648 156.0648 159.0648 162.0648 165.0648 168.0648 171.0648 174.0648 177.0648 180.0648 183.0648 186.0648 189.0648 192.0648 195.0648 198.0648 201.0648 204.0648 207.0648 210.0648 213.0648 216.0648 219.0648 222.0648 225.0648 228.0648 231.0648 234.0648 237.0648 240.0648 243.0648 246.3456 252.3456"
             y="56.001598"
             sodipodi:role="line"
             id="tspan128">Clariﬁcation......................................................................................57</tspan><tspan
             x="-73.087196 -62.716801 -57.3876 -53.155201 -47.155201 -43.819199 -37.819199 -31.819201 -28.819201 -22.819201 -18.8232 -15.8232 -7.8192 -1.8192 4.1808 8.8487997 14.1768 20.1768 26.1768 31.504801 37.504799 42.832802 48.160801 54.069599 57.069599 60.069599 63.069599 66.069603 69.069603 72.069603 75.069603 78.069603 81.069603 84.069603 87.069603 90.069603 93.069603 96.069603 99.069603 102.0696 105.0696 108.0696 111.0696 114.0696 117.0696 120.0696 123.0696 126.0696 129.0696 132.0696 135.0696 138.0696 141.0696 144.0696 147.0696 150.0696 153.0696 156.0696 159.0696 162.0696 165.0696 168.0696 171.0696 174.0696 177.0696 180.0696 183.0696 186.0696 189.0696 192.0696 195.0696 198.0696 201.0696 204.0696 207.0696 210.0696 213.0696 216.0696 219.0696 222.0696 225.0696 228.0696 231.0696 234.0696 237.0696 240.0696 243.0696 246.3504 252.3504"
             y="70.001999"
             sodipodi:role="line"
             id="tspan130">Warning of Consequences................................................................58</tspan><tspan
             x="-73.087196 -66.232803 -57.568802 -48.9048 -40.240799 -37.240799 -29.236799 -23.236799 -13.9008 -4.5647998 0.76319999 6.7631998 10.0992 15.0612 18.061199 21.061199 24.061199 27.061199 30.061199 33.061199 36.061199 39.061199 42.061199 45.061199 48.061199 51.061199 54.061199 57.061199 60.061199 63.061199 66.061203 69.061203 72.061203 75.061203 78.061203 81.061203 84.061203 87.061203 90.061203 93.061203 96.061203 99.061203 102.0612 105.0612 108.0612 111.0612 114.0612 117.0612 120.0612 123.0612 126.0612 129.0612 132.0612 135.0612 138.0612 141.0612 144.0612 147.0612 150.0612 153.0612 156.0612 159.0612 162.0612 165.0612 168.0612 171.0612 174.0612 177.0612 180.0612 183.0612 186.0612 189.0612 192.0612 195.0612 198.0612 201.0612 204.0612 207.0612 210.0612 213.0612 216.0612 219.0612 222.0612 225.0612 228.0612 231.0612 234.0612 237.0612 240.0612 243.0612 246.342 252.342"
             y="84.002403"
             sodipodi:role="line"
             id="tspan132">TODO Comments.............................................................................58</tspan><tspan
             x="-73.087196 -64.423203 -55.0872 -49.0872 -45.751202 -42.415199 -35.743198 -30.415199 -25.0872 -21.7512 -18.415199 -12.4152 -5.9363999 -2.9363999 0.063600004 3.0636001 6.0636001 9.0635996 12.0636 15.0636 18.063601 21.063601 24.063601 27.063601 30.063601 33.063599 36.063599 39.063599 42.063599 45.063599 48.063599 51.063599 54.063599 57.063599 60.063599 63.063599 66.063599 69.063599 72.063599 75.063599 78.063599 81.063599 84.063599 87.063599 90.063599 93.063599 96.063599 99.063599 102.0636 105.0636 108.0636 111.0636 114.0636 117.0636 120.0636 123.0636 126.0636 129.0636 132.0636 135.0636 138.0636 141.0636 144.0636 147.0636 150.0636 153.0636 156.0636 159.0636 162.0636 165.0636 168.0636 171.0636 174.0636 177.0636 180.0636 183.0636 186.0636 189.0636 192.0636 195.0636 198.0636 201.0636 204.0636 207.0636 210.0636 213.0636 216.0636 219.0636 222.0636 225.0636 228.0636 231.0636 234.0636 237.0636 240.0636 243.0636 246.34441 252.34441"
             y="98.0028"
             sodipodi:role="line"
             id="tspan134">Ampliﬁcation....................................................................................59</tspan><tspan
             x="-73.087196 -68.419197 -63.509998 -57.8088 -52.480801 -46.480801 -40.480801 -35.152802 -30.4848 -27.4848 -24.1488 -18.1488 -15.1488 -8.4768 -2.4768 3.2867999 6.6227999 9.9588003 15.2868 17.628 26.292 32.964001 36.959999 42.071999 45.071999 48.071999 51.071999 54.071999 57.071999 60.071999 63.071999 66.071999 69.071999 72.071999 75.071999 78.071999 81.071999 84.071999 87.071999 90.071999 93.071999 96.071999 99.071999 102.072 105.072 108.072 111.072 114.072 117.072 120.072 123.072 126.072 129.07201 132.07201 135.07201 138.07201 141.07201 144.07201 147.07201 150.07201 153.07201 156.07201 159.07201 162.07201 165.07201 168.07201 171.07201 174.07201 177.07201 180.07201 183.07201 186.07201 189.07201 192.07201 195.07201 198.07201 201.07201 204.07201 207.07201 210.07201 213.07201 216.07201 219.07201 222.07201 225.07201 228.07201 231.07201 234.07201 237.07201 240.07201 243.07201 246.3528 252.3528"
             y="112.0032"
             sodipodi:role="line"
             id="tspan136">Javadocs in Public APIs....................................................................59</tspan></text>
        <text
           xml:space="preserve"
           transform="matrix(1,0,0,-1,94.3196,262.7734)"
           style="font-variant:normal;font-weight:bold;font-size:12px;font-family:'Times New Roman';-inkscape-font-specification:TimesNewRomanPS-Bold;writing-mode:lr-tb;fill:#231f20;fill-opacity:1;fill-rule:nonzero;stroke:none"
           id="text142"><tspan
             x="0 8.0039997 14.004 20.676001 23.676001 32.34 38.34 48.335999 58.332001 63.66 70.332001 74.328003"
             y="0"
             sodipodi:role="line"
             id="tspan140">Bad Comments</tspan></text>
        <text
           xml:space="preserve"
           transform="matrix(1,0,0,-1,175.8104,262.7734)"
           style="font-variant:normal;font-weight:normal;font-size:12px;font-family:'Times New Roman';-inkscape-font-specification:TimesNewRomanPS;writing-mode:lr-tb;fill:#231f20;fill-opacity:1;fill-rule:nonzero;stroke:none"
           id="text170"><tspan
             x="0 3 6 9 12 15 18 21 24 27 30 33 36 39 42 45 48 51 54 57 60 63 66 69 72 75 78 81 84 87 90 93 96 99 102 105 108 111 114 117 120 123 126 129 132 135 138 141 144 147 150 153 156 159 162 165 168 171 174 177 180 183 186 189 192 195 198 201 204 207 210 213 216 219 222 225 228 231 234 237 240 243 246 249 252.28081 258.28079"
             y="0"
             sodipodi:role="line"
             id="tspan144">....................................................................................59</tspan><tspan
             x="-67.090797 -56.422798 -50.422798 -41.0868 -35.3232 -31.9872 -28.651199 -22.651199 -14.9484 -11.9484 -8.9483995 -5.9484 -2.9484 0.051600002 3.0516 6.0516 9.0516005 12.0516 15.0516 18.0516 21.0516 24.0516 27.0516 30.0516 33.051601 36.051601 39.051601 42.051601 45.051601 48.051601 51.051601 54.051601 57.051601 60.051601 63.051601 66.051598 69.051598 72.051598 75.051598 78.051598 81.051598 84.051598 87.051598 90.051598 93.051598 96.051598 99.051598 102.0516 105.0516 108.0516 111.0516 114.0516 117.0516 120.0516 123.0516 126.0516 129.05161 132.05161 135.05161 138.05161 141.05161 144.05161 147.05161 150.05161 153.05161 156.05161 159.05161 162.05161 165.05161 168.05161 171.05161 174.05161 177.05161 180.05161 183.05161 186.05161 189.05161 192.05161 195.05161 198.05161 201.05161 204.05161 207.05161 210.05161 213.05161 216.05161 219.05161 222.05161 225.05161 228.05161 231.05161 234.05161 237.05161 240.05161 243.05161 246.05161 249.05161 252.3324 258.3324"
             y="14.0004"
             sodipodi:role="line"
             id="tspan146">Mumbling.........................................................................................59</tspan><tspan
             x="-67.090797 -59.0868 -53.758801 -47.758801 -41.758801 -35.758801 -29.758801 -24.430799 -18.430799 -15.0948 -12.0948 -4.0907998 1.9092 11.2452 20.5812 25.909201 31.909201 35.245201 42.057598 45.057598 48.057598 51.057598 54.057598 57.057598 60.057598 63.057598 66.057602 69.057602 72.057602 75.057602 78.057602 81.057602 84.057602 87.057602 90.057602 93.057602 96.057602 99.057602 102.0576 105.0576 108.0576 111.0576 114.0576 117.0576 120.0576 123.0576 126.0576 129.0576 132.0576 135.0576 138.0576 141.0576 144.0576 147.0576 150.0576 153.0576 156.0576 159.0576 162.0576 165.0576 168.0576 171.0576 174.0576 177.0576 180.0576 183.0576 186.0576 189.0576 192.0576 195.0576 198.0576 201.0576 204.0576 207.0576 210.0576 213.0576 216.0576 219.0576 222.0576 225.0576 228.0576 231.0576 234.0576 237.0576 240.0576 243.0576 246.0576 249.0576 252.33839 258.33841"
             y="28.000799"
             sodipodi:role="line"
             id="tspan148">Redundant Comments......................................................................60</tspan><tspan
             x="-67.090797 -56.422798 -53.0868 -48.4188 -45.082802 -39.754799 -34.4268 -28.4268 -25.090799 -19.090799 -13.0908 -10.0908 -2.0868001 3.9131999 13.2492 22.585199 27.9132 33.9132 37.249199 42.0648 45.0648 48.0648 51.0648 54.0648 57.0648 60.0648 63.0648 66.064796 69.064796 72.064796 75.064796 78.064796 81.064796 84.064796 87.064796 90.064796 93.064796 96.064796 99.064796 102.0648 105.0648 108.0648 111.0648 114.0648 117.0648 120.0648 123.0648 126.0648 129.0648 132.0648 135.0648 138.0648 141.0648 144.0648 147.0648 150.0648 153.0648 156.0648 159.0648 162.0648 165.0648 168.0648 171.0648 174.0648 177.0648 180.0648 183.0648 186.0648 189.0648 192.0648 195.0648 198.0648 201.0648 204.0648 207.0648 210.0648 213.0648 216.0648 219.0648 222.0648 225.0648 228.0648 231.0648 234.0648 237.0648 240.0648 243.0648 246.0648 249.0648 252.3456 258.34561"
             y="42.001202"
             sodipodi:role="line"
             id="tspan150">Misleading Comments......................................................................63</tspan><tspan
             x="-67.090797 -56.422798 -51.094799 -45.094799 -39.094799 -33.7668 -30.430799 -25.1028 -19.1028 -16.1028 -8.0987997 -2.0987999 7.2371998 16.5732 21.901199 27.901199 31.2372 36.061199 39.061199 42.061199 45.061199 48.061199 51.061199 54.061199 57.061199 60.061199 63.061199 66.061203 69.061203 72.061203 75.061203 78.061203 81.061203 84.061203 87.061203 90.061203 93.061203 96.061203 99.061203 102.0612 105.0612 108.0612 111.0612 114.0612 117.0612 120.0612 123.0612 126.0612 129.0612 132.0612 135.0612 138.0612 141.0612 144.0612 147.0612 150.0612 153.0612 156.0612 159.0612 162.0612 165.0612 168.0612 171.0612 174.0612 177.0612 180.0612 183.0612 186.0612 189.0612 192.0612 195.0612 198.0612 201.0612 204.0612 207.0612 210.0612 213.0612 216.0612 219.0612 222.0612 225.0612 228.0612 231.0612 234.0612 237.0612 240.0612 243.0612 246.0612 249.0612 252.342 258.34201"
             y="56.001598"
             sodipodi:role="line"
             id="tspan152">Mandated Comments........................................................................63</tspan><tspan
             x="-67.090797 -62.422798 -56.422798 -50.422798 -46.189201 -40.189201 -34.861198 -31.5252 -28.5252 -20.5212 -14.5212 -5.1852002 4.1508002 9.4787998 15.4788 18.8148 24.059999 27.059999 30.059999 33.060001 36.060001 39.060001 42.060001 45.060001 48.060001 51.060001 54.060001 57.060001 60.060001 63.060001 66.059998 69.059998 72.059998 75.059998 78.059998 81.059998 84.059998 87.059998 90.059998 93.059998 96.059998 99.059998 102.06 105.06 108.06 111.06 114.06 117.06 120.06 123.06 126.06 129.06 132.06 135.06 138.06 141.06 144.06 147.06 150.06 153.06 156.06 159.06 162.06 165.06 168.06 171.06 174.06 177.06 180.06 183.06 186.06 189.06 192.06 195.06 198.06 201.06 204.06 207.06 210.06 213.06 216.06 219.06 222.06 225.06 228.06 231.06 234.06 237.06 240.06 243.06 246.06 249.06 252.34081 258.34079"
             y="70.001999"
             sodipodi:role="line"
             id="tspan154">Journal Comments............................................................................63</tspan><tspan
             x="-67.090797 -58.4268 -52.4268 -49.090801 -44.422798 -39.094799 -36.094799 -28.090799 -22.090799 -12.7548 -3.4188001 1.9092 7.9092002 11.2452 18.0576 21.0576 24.0576 27.0576 30.0576 33.057598 36.057598 39.057598 42.057598 45.057598 48.057598 51.057598 54.057598 57.057598 60.057598 63.057598 66.057602 69.057602 72.057602 75.057602 78.057602 81.057602 84.057602 87.057602 90.057602 93.057602 96.057602 99.057602 102.0576 105.0576 108.0576 111.0576 114.0576 117.0576 120.0576 123.0576 126.0576 129.0576 132.0576 135.0576 138.0576 141.0576 144.0576 147.0576 150.0576 153.0576 156.0576 159.0576 162.0576 165.0576 168.0576 171.0576 174.0576 177.0576 180.0576 183.0576 186.0576 189.0576 192.0576 195.0576 198.0576 201.0576 204.0576 207.0576 210.0576 213.0576 216.0576 219.0576 222.0576 225.0576 228.0576 231.0576 234.0576 237.0576 240.0576 243.0576 246.0576 249.0576 252.33839 258.33841"
             y="84.002403"
             sodipodi:role="line"
             id="tspan156">Noise Comments..............................................................................64</tspan><tspan
             x="-67.090797 -60.4188 -55.090801 -49.762798 -45.529202 -39.529202 -36.529202 -27.8652 -21.8652 -18.5292 -13.8612 -5.9436002 -2.9435999 0.056400001 3.0564001 6.0563998 9.0564003 12.0564 15.0564 18.0564 21.0564 24.0564 27.0564 30.0564 33.0564 36.0564 39.0564 42.0564 45.0564 48.0564 51.0564 54.0564 57.0564 60.0564 63.0564 66.056396 69.056396 72.056396 75.056396 78.056396 81.056396 84.056396 87.056396 90.056396 93.056396 96.056396 99.056396 102.0564 105.0564 108.0564 111.0564 114.0564 117.0564 120.0564 123.0564 126.0564 129.0564 132.0564 135.0564 138.0564 141.0564 144.0564 147.0564 150.0564 153.0564 156.0564 159.0564 162.0564 165.0564 168.0564 171.0564 174.0564 177.0564 180.0564 183.0564 186.0564 189.0564 192.0564 195.0564 198.0564 201.0564 204.0564 207.0564 210.0564 213.0564 216.0564 219.0564 222.0564 225.0564 228.0564 231.0564 234.0564 237.0564 240.0564 243.0564 246.0564 249.0564 252.3372 258.33719"
             y="98.0028"
             sodipodi:role="line"
             id="tspan158">Scary Noise......................................................................................66</tspan><tspan
             x="-67.090797 -58.4268 -52.4268 -46.4268 -43.0284 -39.692402 -36.692402 -28.0284 -23.360399 -18.0324 -15.0324 -9.7044001 -6.7044001 1.2996 7.2996001 16.635599 25.9716 31.299601 37.299599 40.635601 43.279202 54.607201 60.607201 65.935204 71.935204 73.857597 80.602798 86.602798 92.602798 95.602798 103.6068 108.9348 114.9348 117.9348 126.5988 131.2668 136.5948 139.5948 144.92281"
             y="112.0032"
             sodipodi:role="line"
             id="tspan160">Don’t Use a Comment When You Can Use a </tspan><tspan
             x="-67.090797 -60.4188 -54.4188 -48.4188 -43.090801 -39.754799 -36.4188 -30.4188 -24.4188 -21.4188 -15.4188 -11.4228 -8.4228001 -3.0948 -0.69239998 6.6420002 11.97 15.966 19.302 24.629999 30.3936 33.729599 39.057598 42.057598 45.057598 48.057598 51.057598 54.057598 57.057598 60.057598 63.057598 66.057602 69.057602 72.057602 75.057602 78.057602 81.057602 84.057602 87.057602 90.057602 93.057602 96.057602 99.057602 102.0576 105.0576 108.0576 111.0576 114.0576 117.0576 120.0576 123.0576 126.0576 129.0576 132.0576 135.0576 138.0576 141.0576 144.0576 147.0576 150.0576 153.0576 156.0576 159.0576 162.0576 165.0576 168.0576 171.0576 174.0576 177.0576 180.0576 183.0576 186.0576 189.0576 192.0576 195.0576 198.0576 201.0576 204.0576 207.0576 210.0576 213.0576 216.0576 219.0576 222.0576 225.0576 228.0576 231.0576 234.0576 237.0576 240.0576 243.0576 246.0576 249.0576 252.33839 258.33841"
             y="126.0036"
             sodipodi:role="line"
             id="tspan162">Function or a Variable.......................................................................67</tspan><tspan
             x="-67.090797 -60.8964 -54.8964 -50.228401 -46.892399 -43.5564 -40.220402 -34.220402 -28.2204 -25.2204 -14.5524 -9.2243996 -5.2284002 0.6552 5.9832001 9.9792004 15.0648 18.0648 21.0648 24.0648 27.0648 30.0648 33.0648 36.0648 39.0648 42.0648 45.0648 48.0648 51.0648 54.0648 57.0648 60.0648 63.0648 66.064796 69.064796 72.064796 75.064796 78.064796 81.064796 84.064796 87.064796 90.064796 93.064796 96.064796 99.064796 102.0648 105.0648 108.0648 111.0648 114.0648 117.0648 120.0648 123.0648 126.0648 129.0648 132.0648 135.0648 138.0648 141.0648 144.0648 147.0648 150.0648 153.0648 156.0648 159.0648 162.0648 165.0648 168.0648 171.0648 174.0648 177.0648 180.0648 183.0648 186.0648 189.0648 192.0648 195.0648 198.0648 201.0648 204.0648 207.0648 210.0648 213.0648 216.0648 219.0648 222.0648 225.0648 228.0648 231.0648 234.0648 237.0648 240.0648 243.0648 246.0648 249.0648 252.3456 258.34561"
             y="140.004"
             sodipodi:role="line"
             id="tspan164">Position Markers...............................................................................67</tspan><tspan
             x="-67.090797 -59.0868 -55.750801 -49.750801 -45.082802 -41.746799 -35.746799 -29.746799 -26.746799 -18.7428 -14.7468 -9.4188004 -4.0907998 1.2372 4.2371998 12.2412 18.241199 27.5772 36.9132 42.241199 48.241199 51.577202 57.066002 60.066002 63.066002 66.066002 69.066002 72.066002 75.066002 78.066002 81.066002 84.066002 87.066002 90.066002 93.066002 96.066002 99.066002 102.066 105.066 108.066 111.066 114.066 117.066 120.066 123.066 126.066 129.06599 132.06599 135.06599 138.06599 141.06599 144.06599 147.06599 150.06599 153.06599 156.06599 159.06599 162.06599 165.06599 168.06599 171.06599 174.06599 177.06599 180.06599 183.06599 186.06599 189.06599 192.06599 195.06599 198.06599 201.06599 204.06599 207.06599 210.06599 213.06599 216.06599 219.06599 222.06599 225.06599 228.06599 231.06599 234.06599 237.06599 240.06599 243.06599 246.06599 249.06599 252.3468 258.3468"
             y="154.00439"
             sodipodi:role="line"
             id="tspan166">Closing Brace Comments.................................................................67</tspan><tspan
             x="-67.090797 -58.425598 -55.088402 -51.751202 -47.754002 -44.416801 -38.4156 -32.414398 -29.0772 -25.74 -19.7388 -13.7376 -9.0684004 -6.0683999 -0.7392 5.2620001 11.2632 14.2632 22.2684 28.2696 31.6068 34.944 40.945202 46.274399 51.0336 54.034801 57.035999 60.037201 63.038399 66.039597 69.040802 72.042 75.043198 78.044403 81.045601 84.046799 87.047997 90.049202 93.0504 96.051598 99.052803 102.054 105.0552 108.0564 111.0576 114.0588 117.06 120.0612 123.0624 126.0636 129.0648 132.06599 135.0672 138.06841 141.0696 144.0708 147.07201 150.0732 153.0744 156.07561 159.0768 162.078 165.07919 168.0804 171.0816 174.08279 177.084 180.08521 183.0864 186.0876 189.08881 192.09 195.0912 198.09241 201.0936 204.0948 207.09599 210.0972 213.0984 216.09959 219.1008 222.10201 225.1032 228.1044 231.10561 234.1068 237.108 240.10921 243.1104 246.1116 249.11279 252.3936 258.39481"
             y="168.00481"
             sodipodi:role="line"
             id="tspan168">Attributions and Bylines...................................................................68</tspan></text>
        <g
           id="g172">
          <g
             id="g174"
             clip-path="url(#clipPath178)">
            <path
               d="m -37.08,664.778 h 36 m -36,-666 h 36 m 522,0 h 36 m -36,666 h 36 m -549,45 v -36 m 504,36 v -36 m 0,-684 v -36 m -504,36 v -36"
               style="fill:none;stroke:#ffffff;stroke-width:0.75;stroke-linecap:butt;stroke-linejoin:miter;stroke-miterlimit:10;stroke-dasharray:none;stroke-opacity:1"
               id="path180" />
            <path
               d="m -37.08,664.778 h 36 m -36,-666 h 36 m 522,0 h 36 m -36,666 h 36 m -549,45 v -36 m 504,36 v -36 m 0,-684 v -36 m -504,36 v -36 m -12,378 c 0,3.312 -2.688,6 -6,6 -3.312,0 -6,-2.688 -6,-6 0,-3.312 2.688,-6 6,-6 3.312,0 6,2.688 6,6 z m -24,0 h 27 m -9,24 v -48 m 545.94,24 c 0,3.312 -2.688,6 -6,6 -3.312,0 -6,-2.688 -6,-6 0,-3.312 2.688,-6 6,-6 3.312,0 6,2.688 6,6 z m -14.94,0 h 27 m -18,24 v -48 m -534,345 c 0,3.312 -2.688,6 -6,6 -3.312,0 -6,-2.688 -6,-6 0,-3.312 2.688,-6 6,-6 3.312,0 6,2.688 6,6 z m -24,0 h 27 m -9,9 v -33 m 6,-618 c 0,3.312 -2.688,6 -6,6 -3.312,0 -6,-2.688 -6,-6 0,-3.312 2.688,-6 6,-6 3.312,0 6,2.688 6,6 z m -24,0 h 27 m -9,24 v -33 m 545.94,651 c 0,3.312 -2.688,6 -6,6 -3.312,0 -6,-2.688 -6,-6 0,-3.312 2.688,-6 6,-6 3.312,0 6,2.688 6,6 z m -14.94,0 h 27 m -18,9 v -33 m 5.94,-618 c 0,3.312 -2.688,6 -6,6 -3.312,0 -6,-2.688 -6,-6 0,-3.312 2.688,-6 6,-6 3.312,0 6,2.688 6,6 z m -14.94,0 h 27 m -18,24 v -33"
               style="fill:none;stroke:#000000;stroke-width:0.25;stroke-linecap:butt;stroke-linejoin:miter;stroke-miterlimit:10;stroke-dasharray:none;stroke-opacity:1"
               id="path182" />
          </g>
        </g>
      </g>
    </g>
    <g
       id="g184">
      <g
         id="g186"
         transform="translate(218,6.56)">
        <text
           xml:space="preserve"
           transform="scale(1,-1)"
           style="font-variant:normal;font-weight:normal;font-size:10px;font-family:Helvetica;-inkscape-font-specification:Helvetica;writing-mode:lr-tb;fill:#0000ff;fill-opacity:1;fill-rule:nonzero;stroke:none"
           id="text190"><tspan
             x="0 7.2199998 14.44 21.66 24.440001 26.66 29.440001 32.77 38.330002 43.889999 49.450001 55.009998 60.009998 65.010002 67.790001 70.010002 75.57 78.349998"
             y="0"
             sodipodi:role="line"
             id="tspan188">www.it-ebooks.info</tspan></text>
        <g
           id="g192"
           transform="translate(-218,-6.56)" />
      </g>
    </g>
  </g>
</svg>
