<?xml version="1.0" encoding="UTF-8" standalone="no"?>
<!-- Created with Inkscape (http://www.inkscape.org/) -->

<svg
   version="1.1"
   id="svg2"
   width="690.14398"
   height="888.47998"
   viewBox="0 0 690.14398 888.47998"
   sodipodi:docname="4PmrqTPDrJV6cyWn.pdf"
   xmlns:inkscape="http://www.inkscape.org/namespaces/inkscape"
   xmlns:sodipodi="http://sodipodi.sourceforge.net/DTD/sodipodi-0.dtd"
   xmlns="http://www.w3.org/2000/svg"
   xmlns:svg="http://www.w3.org/2000/svg">
  <defs
     id="defs6">
    <clipPath
       clipPathUnits="userSpaceOnUse"
       id="clipPath184">
      <path
         d="M 0,665.858 H 519.84 V 0 H 0 Z"
         id="path182" />
    </clipPath>
  </defs>
  <sodipodi:namedview
     id="namedview4"
     pagecolor="#ffffff"
     bordercolor="#000000"
     borderopacity="0.25"
     inkscape:showpageshadow="2"
     inkscape:pageopacity="0.0"
     inkscape:pagecheckerboard="0"
     inkscape:deskcolor="#d1d1d1" />
  <g
     id="g8"
     inkscape:groupmode="layer"
     inkscape:label="4PmrqTPDrJV6cyWn"
     transform="matrix(1.3333333,0,0,-1.3333333,-1.46,887.61333)">
    <g
       id="g10">
      <g
         id="g12">
        <text
           xml:space="preserve"
           transform="matrix(1,0,0,-1,79.92,622.111)"
           style="font-variant:normal;font-weight:normal;font-size:10px;font-family:'Times New Roman';-inkscape-font-specification:TimesNewRomanPS;writing-mode:lr-tb;fill:#231f20;fill-opacity:1;fill-rule:nonzero;stroke:none"
           id="text16"><tspan
             x="0"
             y="0"
             id="tspan14">x</tspan></text>
        <text
           xml:space="preserve"
           transform="matrix(1,0,0,-1,400.6,622.111)"
           style="font-variant:normal;font-weight:bold;font-size:10px;font-family:'Times New Roman';-inkscape-font-specification:TimesNewRomanPS-Bold;writing-mode:lr-tb;fill:#231f20;fill-opacity:1;fill-rule:nonzero;stroke:none"
           id="text20"><tspan
             x="0 7.2199998 12.22 17.780001 21.110001 25.549999 31.110001 34.439999"
             y="0"
             sodipodi:role="line"
             id="tspan18">Contents</tspan></text>
        <text
           xml:space="preserve"
           transform="matrix(1,0,0,-1,108.72,584.778)"
           style="font-variant:normal;font-weight:normal;font-size:12px;font-family:'Times New Roman';-inkscape-font-specification:TimesNewRomanPS;writing-mode:lr-tb;fill:#231f20;fill-opacity:1;fill-rule:nonzero;stroke:none"
           id="text38"><tspan
             x="0 8.0039997 14.004 23.34 32.675999 38.004002 44.004002 47.34 52.667999 58.667999 62.664001 71.328003 77.328003 80.664001 83.664001 91.667999 97.667999 103.668 109.152 112.152 115.152 118.152 121.152 124.152 127.152 130.15199 133.15199 136.15199 139.15199 142.15199 145.15199 148.15199 151.15199 154.15199 157.15199 160.15199 163.15199 166.15199 169.15199 172.15199 175.15199 178.15199 181.15199 184.15199 187.15199 190.15199 193.15199 196.15199 199.15199 202.15199 205.15199 208.15199 211.15199 214.15199 217.15199 220.15199 223.15199 226.15199 229.15199 232.15199 235.15199 238.15199 241.15199 244.15199 247.15199 250.15199 253.15199 256.15201 259.15201 262.15201 265.15201 268.15201 271.15201 274.15201 277.15201 280.15201 283.15201 286.15201 289.15201 292.15201 295.15201 298.15201 301.15201 304.15201 307.15201 310.15201 313.15201 316.15201 319.4328 325.4328"
             y="0"
             sodipodi:role="line"
             id="tspan22">Commented-Out Code......................................................................68</tspan><tspan
             x="0 8.6639996 15.996 26.664 33.995998 36.995998 45 51 60.335999 69.671997 75 81 84.335999 91.148399 94.148399 97.148399 100.1484 103.1484 106.1484 109.1484 112.1484 115.1484 118.1484 121.1484 124.1484 127.1484 130.14841 133.14841 136.14841 139.14841 142.14841 145.14841 148.14841 151.14841 154.14841 157.14841 160.14841 163.14841 166.14841 169.14841 172.14841 175.14841 178.14841 181.14841 184.14841 187.14841 190.14841 193.14841 196.14841 199.14841 202.14841 205.14841 208.14841 211.14841 214.14841 217.14841 220.14841 223.14841 226.14841 229.14841 232.14841 235.14841 238.14841 241.14841 244.14841 247.14841 250.14841 253.14841 256.14841 259.14841 262.14841 265.14841 268.14841 271.14841 274.14841 277.14841 280.14841 283.14841 286.14841 289.14841 292.14841 295.14841 298.14841 301.14841 304.14841 307.14841 310.14841 313.14841 316.14841 319.4292 325.4292"
             y="14.0004"
             sodipodi:role="line"
             id="tspan24">HTML Comments............................................................................69</tspan><tspan
             x="0 8.6639996 14.664 20.664 24 30 35.327999 40.655998 43.992001 46.992001 50.987999 56.987999 60.984001 66.984001 71.217598 80.553596 85.881599 89.217598 92.553596 98.553596 106.1592 109.1592 112.1592 115.1592 118.1592 121.1592 124.1592 127.1592 130.15919 133.15919 136.15919 139.15919 142.15919 145.15919 148.15919 151.15919 154.15919 157.15919 160.15919 163.15919 166.15919 169.15919 172.15919 175.15919 178.15919 181.15919 184.15919 187.15919 190.15919 193.15919 196.15919 199.15919 202.15919 205.15919 208.15919 211.15919 214.15919 217.15919 220.15919 223.15919 226.15919 229.15919 232.15919 235.15919 238.15919 241.15919 244.15919 247.15919 250.15919 253.15919 256.15921 259.15921 262.15921 265.15921 268.15921 271.15921 274.15921 277.15921 280.15921 283.15921 286.15921 289.15921 292.15921 295.15921 298.15921 301.15921 304.15921 307.15921 310.15921 313.15921 316.15921 319.44 325.44"
             y="28.000799"
             sodipodi:role="line"
             id="tspan26">Nonlocal Information.......................................................................69</tspan><tspan
             x="0 6.3744001 12.3744 18.374399 21.374399 32.0424 38.0424 43.370399 49.370399 52.370399 56.366402 62.366402 66.362396 72.362396 76.596001 85.931999 91.260002 94.596001 97.931999 103.932 112.1556 115.1556 118.1556 121.1556 124.1556 127.1556 130.15559 133.15559 136.15559 139.15559 142.15559 145.15559 148.15559 151.15559 154.15559 157.15559 160.15559 163.15559 166.15559 169.15559 172.15559 175.15559 178.15559 181.15559 184.15559 187.15559 190.15559 193.15559 196.15559 199.15559 202.15559 205.15559 208.15559 211.15559 214.15559 217.15559 220.15559 223.15559 226.15559 229.15559 232.15559 235.15559 238.15559 241.15559 244.15559 247.15559 250.15559 253.15559 256.15561 259.15561 262.15561 265.15561 268.15561 271.15561 274.15561 277.15561 280.15561 283.15561 286.15561 289.15561 292.15561 295.15561 298.15561 301.15561 304.15561 307.15561 310.15561 313.15561 316.15561 319.4364 325.4364"
             y="42.001202"
             sodipodi:role="line"
             id="tspan28">Too Much Information.....................................................................70</tspan><tspan
             x="0 3.9960001 9.9960003 15.996 21.639601 27.639601 30.975599 36.975601 42.975601 47.6436 50.6436 58.647598 64.647598 70.647598 76.647598 81.975601 87.303596 90.639603 93.975601 99.975601 106.1496 109.1496 112.1496 115.1496 118.1496 121.1496 124.1496 127.1496 130.1496 133.1496 136.1496 139.1496 142.1496 145.1496 148.1496 151.1496 154.1496 157.1496 160.1496 163.1496 166.1496 169.1496 172.1496 175.1496 178.1496 181.1496 184.1496 187.1496 190.1496 193.1496 196.1496 199.1496 202.1496 205.1496 208.1496 211.1496 214.1496 217.1496 220.1496 223.1496 226.1496 229.1496 232.1496 235.1496 238.1496 241.1496 244.1496 247.1496 250.1496 253.1496 256.1496 259.1496 262.1496 265.1496 268.1496 271.1496 274.1496 277.1496 280.1496 283.1496 286.1496 289.1496 292.1496 295.1496 298.1496 301.1496 304.1496 307.1496 310.1496 313.1496 316.1496 319.43039 325.43039"
             y="56.001598"
             sodipodi:role="line"
             id="tspan30">Inobvious Connection.......................................................................70</tspan><tspan
             x="0 6.6719999 12.672 18.672001 24 27.336 30.672001 36.672001 42.672001 45.672001 54.335999 59.664001 64.991997 70.991997 76.32 80.316002 85.152 88.152 91.152 94.152 97.152 100.152 103.152 106.152 109.152 112.152 115.152 118.152 121.152 124.152 127.152 130.15199 133.15199 136.15199 139.15199 142.15199 145.15199 148.15199 151.15199 154.15199 157.15199 160.15199 163.15199 166.15199 169.15199 172.15199 175.15199 178.15199 181.15199 184.15199 187.15199 190.15199 193.15199 196.15199 199.15199 202.15199 205.15199 208.15199 211.15199 214.15199 217.15199 220.15199 223.15199 226.15199 229.15199 232.15199 235.15199 238.15199 241.15199 244.15199 247.15199 250.15199 253.15199 256.15201 259.15201 262.15201 265.15201 268.15201 271.15201 274.15201 277.15201 280.15201 283.15201 286.15201 289.15201 292.15201 295.15201 298.15201 301.15201 304.15201 307.15201 310.15201 313.15201 316.15201 319.4328 325.4328"
             y="70.001999"
             sodipodi:role="line"
             id="tspan32">Function Headers..............................................................................70</tspan><tspan
             x="0 4.6680002 9.5771999 15.2784 20.6064 26.6064 32.6064 37.934399 42.602402 45.602402 48.9384 54.9384 57.9384 66.602402 72.602402 78.602402 84.602402 90.602402 96.365997 99.702003 103.038 108.366 111.366 119.37 125.37 131.37 139.1532 142.1532 145.1532 148.1532 151.1532 154.1532 157.1532 160.1532 163.1532 166.1532 169.1532 172.1532 175.1532 178.1532 181.1532 184.1532 187.1532 190.1532 193.1532 196.1532 199.1532 202.1532 205.1532 208.1532 211.1532 214.1532 217.1532 220.1532 223.1532 226.1532 229.1532 232.1532 235.1532 238.1532 241.1532 244.1532 247.1532 250.1532 253.1532 256.1532 259.1532 262.1532 265.1532 268.1532 271.1532 274.1532 277.1532 280.1532 283.1532 286.1532 289.1532 292.1532 295.1532 298.1532 301.1532 304.1532 307.1532 310.1532 313.1532 316.1532 319.43399 325.43399"
             y="84.002403"
             sodipodi:role="line"
             id="tspan34">Javadocs in Nonpublic Code............................................................71</tspan><tspan
             x="0 7.3319998 13.332 18.66 27.996 33.995998 37.332001 43.144798 46.144798 49.144798 52.144798 55.144798 58.144798 61.144798 64.144798 67.144798 70.144798 73.144798 76.144798 79.144798 82.144798 85.144798 88.144798 91.144798 94.144798 97.144798 100.1448 103.1448 106.1448 109.1448 112.1448 115.1448 118.1448 121.1448 124.1448 127.1448 130.14481 133.14481 136.14481 139.14481 142.14481 145.14481 148.14481 151.14481 154.14481 157.14481 160.14481 163.14481 166.14481 169.14481 172.14481 175.14481 178.14481 181.14481 184.14481 187.14481 190.14481 193.14481 196.14481 199.14481 202.14481 205.14481 208.14481 211.14481 214.14481 217.14481 220.14481 223.14481 226.14481 229.14481 232.14481 235.14481 238.14481 241.14481 244.14481 247.14481 250.14481 253.14481 256.14481 259.14481 262.14481 265.14481 268.14481 271.14481 274.14481 277.14481 280.14481 283.14481 286.14481 289.14481 292.14481 295.14481 298.14481 301.14481 304.14481 307.14481 310.14481 313.14481 316.14481 319.4256 325.4256"
             y="98.0028"
             sodipodi:role="line"
             id="tspan36">Example............................................................................................71</tspan></text>
        <text
           xml:space="preserve"
           transform="matrix(1,0,0,-1,94.32,472.7736)"
           style="font-variant:normal;font-weight:bold;font-size:12px;font-family:'Times New Roman';-inkscape-font-specification:TimesNewRomanPS-Bold;writing-mode:lr-tb;fill:#231f20;fill-opacity:1;fill-rule:nonzero;stroke:none"
           id="text42"><tspan
             x="0 8.0039997 11.34 17.7756 21.111601 24.447599 30.3312 36.3312 41.542801 47.542801 54.214802 60.348"
             y="0"
             sodipodi:role="line"
             id="tspan40">Bibliography</tspan></text>
        <text
           xml:space="preserve"
           transform="matrix(1,0,0,-1,160.8204,472.7736)"
           style="font-variant:normal;font-weight:normal;font-size:12px;font-family:'Times New Roman';-inkscape-font-specification:TimesNewRomanPS;writing-mode:lr-tb;fill:#231f20;fill-opacity:1;fill-rule:nonzero;stroke:none"
           id="text46"><tspan
             x="0 3 6 9 12 15 18 21 24 27 30 33 36 39 42 45 48 51 54 57 60 63 66 69 72 75 78 81 84 87 90 93 96 99 102 105 108 111 114 117 120 123 126 129 132 135 138 141 144 147 150 153 156 159 162 165 168 171 174 177 180 183 186 189 192 195 198 201 204 207 210 213 216 219 222 225 228 231 234 237 240 243 246 249 252 255 258 261 264 267.28079 273.28079"
             y="0"
             sodipodi:role="line"
             id="tspan44">.........................................................................................74</tspan></text>
        <text
           xml:space="preserve"
           transform="matrix(1,0,0,-1,79.92,446.446)"
           style="font-variant:normal;font-weight:bold;font-size:14px;font-family:'Times New Roman';-inkscape-font-specification:TimesNewRomanPS-Bold;writing-mode:lr-tb;fill:#231f20;fill-opacity:1;fill-rule:nonzero;stroke:none"
           id="text50"><tspan
             x="0 10.108 17.892 24.892 32.675999 37.338001 43.554001 49.77 53.27 60.27 64.514801 68.014801 75.731598 82.731598 88.947601 100.6096 107.6096 112.2716 116.9336 120.8256 128.6096"
             y="0"
             sodipodi:role="line"
             id="tspan48">Chapter 5: Formatting</tspan></text>
        <text
           xml:space="preserve"
           transform="matrix(1,0,0,-1,217.784,446.445)"
           style="font-variant:normal;font-weight:normal;font-size:12px;font-family:'Times New Roman';-inkscape-font-specification:TimesNewRomanPS;writing-mode:lr-tb;fill:#231f20;fill-opacity:1;fill-rule:nonzero;stroke:none"
           id="text54"><tspan
             x="0 3 6 9 12 15 18 21 24 27 30 33 36 39 42 45 48 51 54 57 60 63 66 69 72 75 78 81 84 87 90 93 96 99 102 105 108 111 114 117 120 123 126 129 132 135 138 141 144 147 150 153 156 159 162 165 168 171 174 177 180 183 186 189 192 195 198 201 204 207 210.28081 216.28081"
             y="0"
             sodipodi:role="line"
             id="tspan52">......................................................................75</tspan></text>
        <text
           xml:space="preserve"
           transform="matrix(1,0,0,-1,94.3196,430.7778)"
           style="font-variant:normal;font-weight:bold;font-size:12px;font-family:'Times New Roman';-inkscape-font-specification:TimesNewRomanPS-Bold;writing-mode:lr-tb;fill:#231f20;fill-opacity:1;fill-rule:nonzero;stroke:none"
           id="text58"><tspan
             x="0 8.0039997 14.676 20.004 23.004 30.336 37.007999 42.219601 48.891602 54.891602 59.559601 64.887604 67.887604 73.887604 77.883598 80.883598 87.498001 93.498001 98.825996 108.822 114.822 118.818 122.814 126.15 132.82201"
             y="0"
             sodipodi:role="line"
             id="tspan56">The Purpose of Formatting</tspan></text>
        <text
           xml:space="preserve"
           transform="matrix(1,0,0,-1,235.772,430.7778)"
           style="font-variant:normal;font-weight:normal;font-size:12px;font-family:'Times New Roman';-inkscape-font-specification:TimesNewRomanPS;writing-mode:lr-tb;fill:#231f20;fill-opacity:1;fill-rule:nonzero;stroke:none"
           id="text62"><tspan
             x="0 3 6 9 12 15 18 21 24 27 30 33 36 39 42 45 48 51 54 57 60 63 66 69 72 75 78 81 84 87 90 93 96 99 102 105 108 111 114 117 120 123 126 129 132 135 138 141 144 147 150 153 156 159 162 165 168 171 174 177 180 183 186 189 192.28081 198.28081"
             y="0"
             sodipodi:role="line"
             id="tspan60">................................................................76</tspan></text>
        <text
           xml:space="preserve"
           transform="matrix(1,0,0,-1,94.3196,416.7774)"
           style="font-variant:normal;font-weight:bold;font-size:12px;font-family:'Times New Roman';-inkscape-font-specification:TimesNewRomanPS-Bold;writing-mode:lr-tb;fill:#231f20;fill-opacity:1;fill-rule:nonzero;stroke:none"
           id="text66"><tspan
             x="0 7.1051998 12.4356 17.881201 21.877199 25.2132 30.541201 36.541199 39.877201 42.877201 49.4916 55.4916 60.819599 70.815598 76.815598 80.8116 84.807602 88.1436 94.815598"
             y="0"
             sodipodi:role="line"
             id="tspan64">Vertical Formatting</tspan></text>
        <text
           xml:space="preserve"
           transform="matrix(1,0,0,-1,196.7972,416.7774)"
           style="font-variant:normal;font-weight:normal;font-size:12px;font-family:'Times New Roman';-inkscape-font-specification:TimesNewRomanPS;writing-mode:lr-tb;fill:#231f20;fill-opacity:1;fill-rule:nonzero;stroke:none"
           id="text80"><tspan
             x="0 3 6 9 12 15 18 21 24 27 30 33 36 39 42 45 48 51 54 57 60 63 66 69 72 75 78 81 84 87 90 93 96 99 102 105 108 111 114 117 120 123 126 129 132 135 138 141 144 147 150 153 156 159 162 165 168 171 174 177 180 183 186 189 192 195 198 201 204 207 210 213 216 219 222 225 228 231.28081 237.28081"
             y="0"
             sodipodi:role="line"
             id="tspan68">.............................................................................76</tspan><tspan
             x="-88.077599 -80.745598 -74.745598 -69.417603 -66.417603 -57.753601 -52.7244 -44.060398 -39.392399 -33.392399 -28.0644 -22.0644 -16.736401 -12.7404 -9.7404003 0.92760003 6.2556 9.5916004 14.9196 20.9196 26.9196 32.919601 39.080399 42.080399 45.080399 48.080399 51.080399 54.080399 57.080399 60.080399 63.080399 66.080399 69.080399 72.080399 75.080399 78.080399 81.080399 84.080399 87.080399 90.080399 93.080399 96.080399 99.080399 102.0804 105.0804 108.0804 111.0804 114.0804 117.0804 120.0804 123.0804 126.0804 129.0804 132.0804 135.0804 138.0804 141.0804 144.0804 147.0804 150.0804 153.0804 156.0804 159.0804 162.0804 165.0804 168.0804 171.0804 174.0804 177.0804 180.0804 183.0804 186.0804 189.0804 192.0804 195.0804 198.0804 201.0804 204.0804 207.0804 210.0804 213.0804 216.0804 219.0804 222.0804 225.0804 228.0804 231.36121 237.36121"
             y="14.0016"
             sodipodi:role="line"
             id="tspan70">The Newspaper Metaphor................................................................77</tspan><tspan
             x="-88.077599 -80.743202 -75.415199 -71.181602 -67.845596 -64.509598 -59.181599 -53.8536 -50.517601 -47.517601 -38.8536 -32.8536 -27.5256 -21.5256 -15.5256 -10.1976 -5.5296001 -0.86159998 2.1384001 10.1424 15.4704 18.8064 27.0516 32.379601 37.7076 43.7076 46.7076 54.711601 60.711601 66.711601 72.039597 77.367599 83.367599 86.703598 93.094803 96.094803 99.094803 102.0948 105.0948 108.0948 111.0948 114.0948 117.0948 120.0948 123.0948 126.0948 129.0948 132.0948 135.0948 138.0948 141.0948 144.0948 147.0948 150.0948 153.0948 156.0948 159.0948 162.0948 165.0948 168.0948 171.0948 174.0948 177.0948 180.0948 183.0948 186.0948 189.0948 192.0948 195.0948 198.0948 201.0948 204.0948 207.0948 210.0948 213.0948 216.0948 219.0948 222.0948 225.0948 228.0948 231.3756 237.3756"
             y="28.003201"
             sodipodi:role="line"
             id="tspan72">Vertical Openness Between Concepts..............................................78</tspan><tspan
             x="-88.077599 -80.743202 -75.415199 -71.181602 -67.845596 -64.509598 -59.181599 -53.8536 -50.517601 -47.517601 -38.8536 -33.5256 -27.5256 -22.857599 -19.521601 -16.1856 -8.9195995 -5.9196 -2.9196 0.080399998 3.0804 6.0804 9.0804005 12.0804 15.0804 18.0804 21.0804 24.0804 27.0804 30.0804 33.080399 36.080399 39.080399 42.080399 45.080399 48.080399 51.080399 54.080399 57.080399 60.080399 63.080399 66.080399 69.080399 72.080399 75.080399 78.080399 81.080399 84.080399 87.080399 90.080399 93.080399 96.080399 99.080399 102.0804 105.0804 108.0804 111.0804 114.0804 117.0804 120.0804 123.0804 126.0804 129.0804 132.0804 135.0804 138.0804 141.0804 144.0804 147.0804 150.0804 153.0804 156.0804 159.0804 162.0804 165.0804 168.0804 171.0804 174.0804 177.0804 180.0804 183.0804 186.0804 189.0804 192.0804 195.0804 198.0804 201.0804 204.0804 207.0804 210.0804 213.0804 216.0804 219.0804 222.0804 225.0804 228.0804 231.36121 237.36121"
             y="42.004799"
             sodipodi:role="line"
             id="tspan74">Vertical Density................................................................................79</tspan><tspan
             x="-88.077599 -80.743202 -75.415199 -71.181602 -67.845596 -64.509598 -59.181599 -53.8536 -50.517601 -47.517601 -38.8536 -35.517601 -30.8496 -27.513599 -22.1856 -16.1856 -10.8576 -2.9159999 0.083999999 3.0840001 6.0840001 9.0839996 12.084 15.084 18.084 21.084 24.084 27.084 30.084 33.084 36.084 39.084 42.084 45.084 48.084 51.084 54.084 57.084 60.084 63.084 66.084 69.084 72.084 75.084 78.084 81.084 84.084 87.084 90.084 93.084 96.084 99.084 102.084 105.084 108.084 111.084 114.084 117.084 120.084 123.084 126.084 129.084 132.084 135.084 138.084 141.084 144.084 147.084 150.084 153.084 156.084 159.084 162.084 165.084 168.084 171.084 174.084 177.084 180.084 183.084 186.084 189.084 192.084 195.084 198.084 201.084 204.084 207.084 210.084 213.084 216.084 219.084 222.084 225.084 228.084 231.36481 237.36481"
             y="56.006401"
             sodipodi:role="line"
             id="tspan76">Vertical Distance..............................................................................80</tspan><tspan
             x="-88.077599 -80.743202 -75.415199 -71.181602 -67.845596 -64.509598 -59.181599 -53.8536 -50.517601 -47.517601 -38.8536 -34.857601 -28.857599 -23.5296 -19.5336 -16.197599 -10.1976 -2.9159999 0.083999999 3.0840001 6.0840001 9.0839996 12.084 15.084 18.084 21.084 24.084 27.084 30.084 33.084 36.084 39.084 42.084 45.084 48.084 51.084 54.084 57.084 60.084 63.084 66.084 69.084 72.084 75.084 78.084 81.084 84.084 87.084 90.084 93.084 96.084 99.084 102.084 105.084 108.084 111.084 114.084 117.084 120.084 123.084 126.084 129.084 132.084 135.084 138.084 141.084 144.084 147.084 150.084 153.084 156.084 159.084 162.084 165.084 168.084 171.084 174.084 177.084 180.084 183.084 186.084 189.084 192.084 195.084 198.084 201.084 204.084 207.084 210.084 213.084 216.084 219.084 222.084 225.084 228.084 231.36481 237.36481"
             y="70.008003"
             sodipodi:role="line"
             id="tspan78">Vertical Ordering..............................................................................84</tspan></text>
        <text
           xml:space="preserve"
           transform="matrix(1,0,0,-1,94.3196,332.769)"
           style="font-variant:normal;font-weight:bold;font-size:12px;font-family:'Times New Roman';-inkscape-font-specification:TimesNewRomanPS-Bold;writing-mode:lr-tb;fill:#231f20;fill-opacity:1;fill-rule:nonzero;stroke:none"
           id="text84"><tspan
             x="0 9.3360004 15.336 20.664 24 29.327999 35.327999 42 45.995998 51.995998 55.332001 58.332001 64.946404 70.946404 76.274399 86.270401 92.270401 96.266403 100.2624 103.5984 110.2704"
             y="0"
             sodipodi:role="line"
             id="tspan82">Horizontal Formatting</tspan></text>
        <text
           xml:space="preserve"
           transform="matrix(1,0,0,-1,211.7864,332.769)"
           style="font-variant:normal;font-weight:normal;font-size:12px;font-family:'Times New Roman';-inkscape-font-specification:TimesNewRomanPS;writing-mode:lr-tb;fill:#231f20;fill-opacity:1;fill-rule:nonzero;stroke:none"
           id="text96"><tspan
             x="0 3 6 9 12 15 18 21 24 27 30 33 36 39 42 45 48 51 54 57 60 63 66 69 72 75 78 81 84 87 90 93 96 99 102 105 108 111 114 117 120 123 126 129 132 135 138 141 144 147 150 153 156 159 162 165 168 171 174 177 180 183 186 189 192 195 198 201 204 207 210 213 216.28081 222.28081"
             y="0"
             sodipodi:role="line"
             id="tspan86">........................................................................85</tspan><tspan
             x="-103.0668 -94.402802 -88.402802 -84.406799 -81.070801 -75.742798 -69.742798 -63.742802 -60.406799 -55.0788 -51.742802 -48.742802 -40.0788 -34.0788 -28.750799 -22.750799 -16.750799 -11.4228 -6.7547998 -2.0868001 0.91320002 6.2412 12.2412 18.241199 21.241199 29.905199 35.2332 41.2332 45.901199 49.237202 52.5732 60.096001 63.096001 66.096001 69.096001 72.096001 75.096001 78.096001 81.096001 84.096001 87.096001 90.096001 93.096001 96.096001 99.096001 102.096 105.096 108.096 111.096 114.096 117.096 120.096 123.096 126.096 129.09599 132.09599 135.09599 138.09599 141.09599 144.09599 147.09599 150.09599 153.09599 156.09599 159.09599 162.09599 165.09599 168.09599 171.09599 174.09599 177.09599 180.09599 183.09599 186.09599 189.09599 192.09599 195.09599 198.09599 201.09599 204.09599 207.09599 210.09599 213.09599 216.3768 222.3768"
             y="14.0004"
             sodipodi:role="line"
             id="tspan88">Horizontal Openness and Density....................................................86</tspan><tspan
             x="-103.0668 -94.402802 -88.402802 -84.406799 -81.070801 -75.742798 -69.742798 -63.742802 -60.406799 -55.0788 -51.742802 -49.4016 -40.737598 -37.4016 -34.065601 -28.065599 -22.065599 -12.7296 -7.4015999 -1.4016 3.0924001 6.0924001 9.0923996 12.0924 15.0924 18.0924 21.0924 24.0924 27.0924 30.0924 33.0924 36.0924 39.0924 42.0924 45.0924 48.0924 51.0924 54.0924 57.0924 60.0924 63.0924 66.0924 69.0924 72.0924 75.0924 78.0924 81.0924 84.0924 87.0924 90.0924 93.0924 96.0924 99.0924 102.0924 105.0924 108.0924 111.0924 114.0924 117.0924 120.0924 123.0924 126.0924 129.09241 132.09241 135.09241 138.09241 141.09241 144.09241 147.09241 150.09241 153.09241 156.09241 159.09241 162.09241 165.09241 168.09241 171.09241 174.09241 177.09241 180.09241 183.09241 186.09241 189.09241 192.09241 195.09241 198.09241 201.09241 204.09241 207.09241 210.09241 213.09241 216.3732 222.3732"
             y="28.000799"
             sodipodi:role="line"
             id="tspan90">Horizontal Alignment.......................................................................87</tspan><tspan
             x="-103.0668 -99.070801 -93.070801 -87.070801 -81.742798 -75.742798 -72.406799 -67.078796 -63.742802 -60.406799 -54.406799 -47.919601 -44.919601 -41.919601 -38.919601 -35.919601 -32.919601 -29.9196 -26.9196 -23.9196 -20.9196 -17.9196 -14.9196 -11.9196 -8.9195995 -5.9196 -2.9196 0.080399998 3.0804 6.0804 9.0804005 12.0804 15.0804 18.0804 21.0804 24.0804 27.0804 30.0804 33.080399 36.080399 39.080399 42.080399 45.080399 48.080399 51.080399 54.080399 57.080399 60.080399 63.080399 66.080399 69.080399 72.080399 75.080399 78.080399 81.080399 84.080399 87.080399 90.080399 93.080399 96.080399 99.080399 102.0804 105.0804 108.0804 111.0804 114.0804 117.0804 120.0804 123.0804 126.0804 129.0804 132.0804 135.0804 138.0804 141.0804 144.0804 147.0804 150.0804 153.0804 156.0804 159.0804 162.0804 165.0804 168.0804 171.0804 174.0804 177.0804 180.0804 183.0804 186.0804 189.0804 192.0804 195.0804 198.0804 201.0804 204.0804 207.0804 210.0804 213.0804 216.36121 222.36121"
             y="42.001202"
             sodipodi:role="line"
             id="tspan92">Indentation........................................................................................88</tspan><tspan
             x="-103.0668 -94.402802 -88.402802 -79.066803 -70.208397 -64.208397 -61.208401 -54.5364 -49.208401 -43.208401 -37.208401 -31.8804 -26.920799 -23.920799 -20.920799 -17.920799 -14.9208 -11.9208 -8.9208002 -5.9208002 -2.9208 0.0792 3.0792 6.0791998 9.0791998 12.0792 15.0792 18.079201 21.079201 24.079201 27.079201 30.079201 33.079201 36.079201 39.079201 42.079201 45.079201 48.079201 51.079201 54.079201 57.079201 60.079201 63.079201 66.079201 69.079201 72.079201 75.079201 78.079201 81.079201 84.079201 87.079201 90.079201 93.079201 96.079201 99.079201 102.0792 105.0792 108.0792 111.0792 114.0792 117.0792 120.0792 123.0792 126.0792 129.07919 132.07919 135.07919 138.07919 141.07919 144.07919 147.07919 150.07919 153.07919 156.07919 159.07919 162.07919 165.07919 168.07919 171.07919 174.07919 177.07919 180.07919 183.07919 186.07919 189.07919 192.07919 195.07919 198.07919 201.07919 204.07919 207.07919 210.07919 213.07919 216.36 222.36"
             y="56.001598"
             sodipodi:role="line"
             id="tspan94">Dummy Scopes.................................................................................90</tspan></text>
        <text
           xml:space="preserve"
           transform="matrix(1,0,0,-1,94.3196,262.767)"
           style="font-variant:normal;font-weight:bold;font-size:12px;font-family:'Times New Roman';-inkscape-font-specification:TimesNewRomanPS-Bold;writing-mode:lr-tb;fill:#231f20;fill-opacity:1;fill-rule:nonzero;stroke:none"
           id="text100"><tspan
             x="0 6.9024 12.2304 18.2304 28.2264 31.2264 39.8904 46.562401 49.898399 55.226398"
             y="0"
             sodipodi:role="line"
             id="tspan98">Team Rules</tspan></text>
        <text
           xml:space="preserve"
           transform="matrix(1,0,0,-1,154.8236,262.767)"
           style="font-variant:normal;font-weight:normal;font-size:12px;font-family:'Times New Roman';-inkscape-font-specification:TimesNewRomanPS;writing-mode:lr-tb;fill:#231f20;fill-opacity:1;fill-rule:nonzero;stroke:none"
           id="text104"><tspan
             x="0 3 6 9 12 15 18 21 24 27 30 33 36 39 42 45 48 51 54 57 60 63 66 69 72 75 78 81 84 87 90 93 96 99 102 105 108 111 114 117 120 123 126 129 132 135 138 141 144 147 150 153 156 159 162 165 168 171 174 177 180 183 186 189 192 195 198 201 204 207 210 213 216 219 222 225 228 231 234 237 240 243 246 249 252 255 258 261 264 267 270 273.28079 279.28079"
             y="0"
             sodipodi:role="line"
             id="tspan102">...........................................................................................90</tspan></text>
        <text
           xml:space="preserve"
           transform="matrix(1,0,0,-1,94.3196,248.7666)"
           style="font-variant:normal;font-weight:bold;font-size:12px;font-family:'Times New Roman';-inkscape-font-specification:TimesNewRomanPS-Bold;writing-mode:lr-tb;fill:#231f20;fill-opacity:1;fill-rule:nonzero;stroke:none"
           id="text108"><tspan
             x="0 8.6639996 15.336 20.664 24 29.327999 32.327999 40.332001 46.332001 53.004002 56.162399 60.830399 63.830399 70.444801 76.444801 81.772797 91.768799 97.768799 101.7648 105.7608 109.0968 115.7688 121.7688 124.7688 133.4328 140.1048 143.4408 148.7688"
             y="0"
             sodipodi:role="line"
             id="tspan106">Uncle Bob’s Formatting Rules</tspan></text>
        <text
           xml:space="preserve"
           transform="matrix(1,0,0,-1,247.7636,248.7666)"
           style="font-variant:normal;font-weight:normal;font-size:12px;font-family:'Times New Roman';-inkscape-font-specification:TimesNewRomanPS;writing-mode:lr-tb;fill:#231f20;fill-opacity:1;fill-rule:nonzero;stroke:none"
           id="text112"><tspan
             x="0 3 6 9 12 15 18 21 24 27 30 33 36 39 42 45 48 51 54 57 60 63 66 69 72 75 78 81 84 87 90 93 96 99 102 105 108 111 114 117 120 123 126 129 132 135 138 141 144 147 150 153 156 159 162 165 168 171 174 177 180.28081 186.28081"
             y="0"
             sodipodi:role="line"
             id="tspan110">............................................................90</tspan></text>
        <text
           xml:space="preserve"
           transform="matrix(1,0,0,-1,79.92,222.446)"
           style="font-variant:normal;font-weight:bold;font-size:14px;font-family:'Times New Roman';-inkscape-font-specification:TimesNewRomanPS-Bold;writing-mode:lr-tb;fill:#231f20;fill-opacity:1;fill-rule:nonzero;stroke:none"
           id="text116"><tspan
             x="0 10.108 17.892 24.892 32.675999 37.338001 43.554001 49.77 53.27 60.27 64.514801 68.014801 78.906799 86.690804 91.352798 97.568802 103.7848 108.4468 113.8928 117.3928 124.3928 132.1768 139.9608 143.4608 153.5688 160.5688 165.2308 172.2308 175.7308 183.5148 188.1768 194.39281 202.1768 208.39281 213.05479 220.83881 226.6376 232.85361"
             y="0"
             sodipodi:role="line"
             id="tspan114">Chapter 6: Objects and Data Structures</tspan></text>
        <text
           xml:space="preserve"
           transform="matrix(1,0,0,-1,319.717,222.445)"
           style="font-variant:normal;font-weight:normal;font-size:12px;font-family:'Times New Roman';-inkscape-font-specification:TimesNewRomanPS;writing-mode:lr-tb;fill:#231f20;fill-opacity:1;fill-rule:nonzero;stroke:none"
           id="text120"><tspan
             x="0 3 6 9 12 15 18 21 24 27 30 33 36 39 42 45 48 51 54 57 60 63 66 69 72 75 78 81 84 87 90 93 96 99 102 105 108.2808 114.2808"
             y="0"
             sodipodi:role="line"
             id="tspan118">....................................93</tspan></text>
        <text
           xml:space="preserve"
           transform="matrix(1,0,0,-1,94.3198,206.7778)"
           style="font-variant:normal;font-weight:bold;font-size:12px;font-family:'Times New Roman';-inkscape-font-specification:TimesNewRomanPS-Bold;writing-mode:lr-tb;fill:#231f20;fill-opacity:1;fill-rule:nonzero;stroke:none"
           id="text124"><tspan
             x="0 8.6639996 14.664 18.66 24.66 26.639999 35.304001 41.976002 46.644001 50.639999 55.851601 61.851601 67.179604 71.175598 74.511597 80.511597"
             y="0"
             sodipodi:role="line"
             id="tspan122">Data Abstraction</tspan></text>
        <text
           xml:space="preserve"
           transform="matrix(1,0,0,-1,181.807,206.7778)"
           style="font-variant:normal;font-weight:normal;font-size:12px;font-family:'Times New Roman';-inkscape-font-specification:TimesNewRomanPS;writing-mode:lr-tb;fill:#231f20;fill-opacity:1;fill-rule:nonzero;stroke:none"
           id="text128"><tspan
             x="0 3 6 9 12 15 18 21 24 27 30 33 36 39 42 45 48 51 54 57 60 63 66 69 72 75 78 81 84 87 90 93 96 99 102 105 108 111 114 117 120 123 126 129 132 135 138 141 144 147 150 153 156 159 162 165 168 171 174 177 180 183 186 189 192 195 198 201 204 207 210 213 216 219 222 225 228 231 234 237 240 243 246.28081 252.28081"
             y="0"
             sodipodi:role="line"
             id="tspan126">..................................................................................93</tspan></text>
        <text
           xml:space="preserve"
           transform="matrix(1,0,0,-1,94.3198,192.7774)"
           style="font-variant:normal;font-weight:bold;font-size:12px;font-family:'Times New Roman';-inkscape-font-specification:TimesNewRomanPS-Bold;writing-mode:lr-tb;fill:#231f20;fill-opacity:1;fill-rule:nonzero;stroke:none"
           id="text132"><tspan
             x="0 8.6639996 14.664 18.66 24.66 27.996 37.332001 44.004002 48 53.327999 58.655998 62.652 64.632004 73.295998 79.968002 83.963997 87.300003 91.295998 97.968002 103.968 113.964 123.96 129.28799 133.284 138.612"
             y="0"
             sodipodi:role="line"
             id="tspan130">Data/Object Anti-Symmetry</tspan></text>
        <text
           xml:space="preserve"
           transform="matrix(1,0,0,-1,241.7674,192.7774)"
           style="font-variant:normal;font-weight:normal;font-size:12px;font-family:'Times New Roman';-inkscape-font-specification:TimesNewRomanPS;writing-mode:lr-tb;fill:#231f20;fill-opacity:1;fill-rule:nonzero;stroke:none"
           id="text136"><tspan
             x="0 3 6 9 12 15 18 21 24 27 30 33 36 39 42 45 48 51 54 57 60 63 66 69 72 75 78 81 84 87 90 93 96 99 102 105 108 111 114 117 120 123 126 129 132 135 138 141 144 147 150 153 156 159 162 165 168 171 174 177 180 183 186.28081 192.28081"
             y="0"
             sodipodi:role="line"
             id="tspan134">..............................................................95</tspan></text>
        <text
           xml:space="preserve"
           transform="matrix(1,0,0,-1,94.3198,178.777)"
           style="font-variant:normal;font-weight:bold;font-size:12px;font-family:'Times New Roman';-inkscape-font-specification:TimesNewRomanPS-Bold;writing-mode:lr-tb;fill:#231f20;fill-opacity:1;fill-rule:nonzero;stroke:none"
           id="text140"><tspan
             x="0 8.0039997 14.676 20.004 23.004 31.007999 36.4104 45.074402 48.074402 54.074402 58.0704 61.0704 69.734398 75.062401 85.058403 90.386398 94.382401 99.710403"
             y="0"
             sodipodi:role="line"
             id="tspan138">The Law of Demeter</tspan></text>
        <text
           xml:space="preserve"
           transform="matrix(1,0,0,-1,199.795,178.777)"
           style="font-variant:normal;font-weight:normal;font-size:12px;font-family:'Times New Roman';-inkscape-font-specification:TimesNewRomanPS;writing-mode:lr-tb;fill:#231f20;fill-opacity:1;fill-rule:nonzero;stroke:none"
           id="text150"><tspan
             x="0 3 6 9 12 15 18 21 24 27 30 33 36 39 42 45 48 51 54 57 60 63 66 69 72 75 78 81 84 87 90 93 96 99 102 105 108 111 114 117 120 123 126 129 132 135 138 141 144 147 150 153 156 159 162 165 168 171 174 177 180 183 186 189 192 195 198 201 204 207 210 213 216 219 222 225 228.28081 234.28081"
             y="0"
             sodipodi:role="line"
             id="tspan142">............................................................................97</tspan><tspan
             x="-91.075203 -84.162003 -80.166 -74.837997 -71.501999 -65.501999 -62.858398 -51.530399 -47.534401 -42.206402 -36.878399 -30.878401 -23.922001 -20.922001 -17.922001 -14.922 -11.922 -8.9219999 -5.9219999 -2.9219999 0.078000002 3.0780001 6.0780001 9.0780001 12.078 15.078 18.077999 21.077999 24.077999 27.077999 30.077999 33.077999 36.077999 39.077999 42.077999 45.077999 48.077999 51.077999 54.077999 57.077999 60.077999 63.077999 66.078003 69.078003 72.078003 75.078003 78.078003 81.078003 84.078003 87.078003 90.078003 93.078003 96.078003 99.078003 102.078 105.078 108.078 111.078 114.078 117.078 120.078 123.078 126.078 129.078 132.078 135.078 138.078 141.078 144.078 147.078 150.078 153.078 156.078 159.078 162.078 165.078 168.078 171.078 174.078 177.078 180.078 183.078 186.078 189.078 192.078 195.078 198.078 201.078 204.078 207.078 210.078 213.078 216.078 219.078 222.078 225.078 228.3588 234.3588"
             y="14.0004"
             sodipodi:role="line"
             id="tspan144">Train Wrecks....................................................................................98</tspan><tspan
             x="-91.075203 -82.411201 -76.411201 -70.411201 -66.415199 -63.079201 -57.079201 -50.9352 -47.9352 -44.9352 -41.9352 -38.9352 -35.9352 -32.9352 -29.9352 -26.9352 -23.9352 -20.9352 -17.9352 -14.9352 -11.9352 -8.9351997 -5.9352002 -2.9352 0.064800002 3.0648 6.0647998 9.0648003 12.0648 15.0648 18.0648 21.0648 24.0648 27.0648 30.0648 33.0648 36.0648 39.0648 42.0648 45.0648 48.0648 51.0648 54.0648 57.0648 60.0648 63.0648 66.064796 69.064796 72.064796 75.064796 78.064796 81.064796 84.064796 87.064796 90.064796 93.064796 96.064796 99.064796 102.0648 105.0648 108.0648 111.0648 114.0648 117.0648 120.0648 123.0648 126.0648 129.0648 132.0648 135.0648 138.0648 141.0648 144.0648 147.0648 150.0648 153.0648 156.0648 159.0648 162.0648 165.0648 168.0648 171.0648 174.0648 177.0648 180.0648 183.0648 186.0648 189.0648 192.0648 195.0648 198.0648 201.0648 204.0648 207.0648 210.0648 213.0648 216.0648 219.0648 222.0648 225.0648 228.3456 234.3456"
             y="28.000799"
             sodipodi:role="line"
             id="tspan146">Hybrids.............................................................................................99</tspan><tspan
             x="-91.075203 -82.411201 -79.075203 -73.075203 -69.739197 -63.739201 -57.739201 -54.739201 -48.0672 -44.731201 -40.497601 -34.497601 -29.1696 -25.833599 -19.833599 -15.8376 -8.9219999 -5.9219999 -2.9219999 0.078000002 3.0780001 6.0780001 9.0780001 12.078 15.078 18.077999 21.077999 24.077999 27.077999 30.077999 33.077999 36.077999 39.077999 42.077999 45.077999 48.077999 51.077999 54.077999 57.077999 60.077999 63.077999 66.078003 69.078003 72.078003 75.078003 78.078003 81.078003 84.078003 87.078003 90.078003 93.078003 96.078003 99.078003 102.078 105.078 108.078 111.078 114.078 117.078 120.078 123.078 126.078 129.078 132.078 135.078 138.078 141.078 144.078 147.078 150.078 153.078 156.078 159.078 162.078 165.078 168.078 171.078 174.078 177.078 180.078 183.078 186.078 189.078 192.078 195.078 198.078 201.078 204.078 207.078 210.078 213.078 216.078 219.078 222.078 225.078 228.3588 234.3588"
             y="42.001202"
             sodipodi:role="line"
             id="tspan148">Hiding Structure...............................................................................99</tspan></text>
        <text
           xml:space="preserve"
           transform="matrix(1,0,0,-1,94.3198,122.7754)"
           style="font-variant:normal;font-weight:bold;font-size:12px;font-family:'Times New Roman';-inkscape-font-specification:TimesNewRomanPS-Bold;writing-mode:lr-tb;fill:#231f20;fill-opacity:1;fill-rule:nonzero;stroke:none"
           id="text154"><tspan
             x="0 8.6639996 14.664 18.66 24.66 26.9424 34.058399 39.27 45.27 51.942001 56.610001 60.605999 65.933998 71.262001 74.262001 83.598 90.269997 94.265999 99.594002 104.922 108.918"
             y="0"
             sodipodi:role="line"
             id="tspan152">Data Transfer Objects</tspan></text>
        <text
           xml:space="preserve"
           transform="matrix(1,0,0,-1,208.789,122.7754)"
           style="font-variant:normal;font-weight:normal;font-size:12px;font-family:'Times New Roman';-inkscape-font-specification:TimesNewRomanPS;writing-mode:lr-tb;fill:#231f20;fill-opacity:1;fill-rule:nonzero;stroke:none"
           id="text160"><tspan
             x="0 3 6 9 12 15 18 21 24 27 30 33 36 39 42 45 48 51 54 57 60 63 66 69 72 75 78 81 84 87 90 93 96 99 102 105 108 111 114 117 120 123 126 129 132 135 138 141 144 147 150 153 156 159 162 165 168 171 174 177 180 183 186 189 192 195 198 201 204 207 210 213.28081 219.28081 225.28081"
             y="0"
             sodipodi:role="line"
             id="tspan156">.......................................................................100</tspan><tspan
             x="-100.0692 -91.405197 -86.077202 -82.741203 -79.704002 -73.882797 -68.554802 -65.554802 -57.5508 -52.222801 -46.894798 -40.894798 -36.8988 -29.9196 -26.9196 -23.9196 -20.9196 -17.9196 -14.9196 -11.9196 -8.9195995 -5.9196 -2.9196 0.080399998 3.0804 6.0804 9.0804005 12.0804 15.0804 18.0804 21.0804 24.0804 27.0804 30.0804 33.080399 36.080399 39.080399 42.080399 45.080399 48.080399 51.080399 54.080399 57.080399 60.080399 63.080399 66.080399 69.080399 72.080399 75.080399 78.080399 81.080399 84.080399 87.080399 90.080399 93.080399 96.080399 99.080399 102.0804 105.0804 108.0804 111.0804 114.0804 117.0804 120.0804 123.0804 126.0804 129.0804 132.0804 135.0804 138.0804 141.0804 144.0804 147.0804 150.0804 153.0804 156.0804 159.0804 162.0804 165.0804 168.0804 171.0804 174.0804 177.0804 180.0804 183.0804 186.0804 189.0804 192.0804 195.0804 198.0804 201.0804 204.0804 207.0804 210.0804 213.36121 219.36121 225.36121"
             y="14.0004"
             sodipodi:role="line"
             id="tspan158">Active Record.................................................................................101</tspan></text>
        <text
           xml:space="preserve"
           transform="matrix(1,0,0,-1,94.3198,94.7746)"
           style="font-variant:normal;font-weight:bold;font-size:12px;font-family:'Times New Roman';-inkscape-font-specification:TimesNewRomanPS-Bold;writing-mode:lr-tb;fill:#231f20;fill-opacity:1;fill-rule:nonzero;stroke:none"
           id="text164"><tspan
             x="0 8.6639996 14.664 21.336 26.664 30 36.672001 41.34 44.675999 50.675999"
             y="0"
             sodipodi:role="line"
             id="tspan162">Conclusion</tspan></text>
        <text
           xml:space="preserve"
           transform="matrix(1,0,0,-1,151.8262,94.7746)"
           style="font-variant:normal;font-weight:normal;font-size:12px;font-family:'Times New Roman';-inkscape-font-specification:TimesNewRomanPS;writing-mode:lr-tb;fill:#231f20;fill-opacity:1;fill-rule:nonzero;stroke:none"
           id="text168"><tspan
             x="0 3 6 9 12 15 18 21 24 27 30 33 36 39 42 45 48 51 54 57 60 63 66 69 72 75 78 81 84 87 90 93 96 99 102 105 108 111 114 117 120 123 126 129 132 135 138 141 144 147 150 153 156 159 162 165 168 171 174 177 180 183 186 189 192 195 198 201 204 207 210 213 216 219 222 225 228 231 234 237 240 243 246 249 252 255 258 261 264 267 270.28079 276.28079 282.28079"
             y="0"
             sodipodi:role="line"
             id="tspan166">..........................................................................................101</tspan></text>
        <text
           xml:space="preserve"
           transform="matrix(1,0,0,-1,94.3198,80.773)"
           style="font-variant:normal;font-weight:bold;font-size:12px;font-family:'Times New Roman';-inkscape-font-specification:TimesNewRomanPS-Bold;writing-mode:lr-tb;fill:#231f20;fill-opacity:1;fill-rule:nonzero;stroke:none"
           id="text172"><tspan
             x="0 8.0039997 11.34 17.7756 21.111601 24.447599 30.3312 36.3312 41.542801 47.542801 54.214802 60.348"
             y="0"
             sodipodi:role="line"
             id="tspan170">Bibliography</tspan></text>
        <text
           xml:space="preserve"
           transform="matrix(1,0,0,-1,160.8202,80.773)"
           style="font-variant:normal;font-weight:normal;font-size:12px;font-family:'Times New Roman';-inkscape-font-specification:TimesNewRomanPS;writing-mode:lr-tb;fill:#231f20;fill-opacity:1;fill-rule:nonzero;stroke:none"
           id="text176"><tspan
             x="0 3 6 9 12 15 18 21 24 27 30 33 36 39 42 45 48 51 54 57 60 63 66 69 72 75 78 81 84 87 90 93 96 99 102 105 108 111 114 117 120 123 126 129 132 135 138 141 144 147 150 153 156 159 162 165 168 171 174 177 180 183 186 189 192 195 198 201 204 207 210 213 216 219 222 225 228 231 234 237 240 243 246 249 252 255 258 261.28079 267.28079 273.28079"
             y="0"
             sodipodi:role="line"
             id="tspan174">.......................................................................................101</tspan></text>
        <g
           id="g178">
          <g
             id="g180"
             clip-path="url(#clipPath184)">
            <path
               d="m -37.08,664.778 h 36 m -36,-666 h 36 m 522,0 h 36 m -36,666 h 36 m -549,45 v -36 m 504,36 v -36 m 0,-684 v -36 m -504,36 v -36"
               style="fill:none;stroke:#ffffff;stroke-width:0.75;stroke-linecap:butt;stroke-linejoin:miter;stroke-miterlimit:10;stroke-dasharray:none;stroke-opacity:1"
               id="path186" />
            <path
               d="m -37.08,664.778 h 36 m -36,-666 h 36 m 522,0 h 36 m -36,666 h 36 m -549,45 v -36 m 504,36 v -36 m 0,-684 v -36 m -504,36 v -36 m -12,378 c 0,3.312 -2.688,6 -6,6 -3.312,0 -6,-2.688 -6,-6 0,-3.312 2.688,-6 6,-6 3.312,0 6,2.688 6,6 z m -24,0 h 27 m -9,24 v -48 m 545.94,24 c 0,3.312 -2.688,6 -6,6 -3.312,0 -6,-2.688 -6,-6 0,-3.312 2.688,-6 6,-6 3.312,0 6,2.688 6,6 z m -14.94,0 h 27 m -18,24 v -48 m -534,345 c 0,3.312 -2.688,6 -6,6 -3.312,0 -6,-2.688 -6,-6 0,-3.312 2.688,-6 6,-6 3.312,0 6,2.688 6,6 z m -24,0 h 27 m -9,9 v -33 m 6,-618 c 0,3.312 -2.688,6 -6,6 -3.312,0 -6,-2.688 -6,-6 0,-3.312 2.688,-6 6,-6 3.312,0 6,2.688 6,6 z m -24,0 h 27 m -9,24 v -33 m 545.94,651 c 0,3.312 -2.688,6 -6,6 -3.312,0 -6,-2.688 -6,-6 0,-3.312 2.688,-6 6,-6 3.312,0 6,2.688 6,6 z m -14.94,0 h 27 m -18,9 v -33 m 5.94,-618 c 0,3.312 -2.688,6 -6,6 -3.312,0 -6,-2.688 -6,-6 0,-3.312 2.688,-6 6,-6 3.312,0 6,2.688 6,6 z m -14.94,0 h 27 m -18,24 v -33"
               style="fill:none;stroke:#000000;stroke-width:0.25;stroke-linecap:butt;stroke-linejoin:miter;stroke-miterlimit:10;stroke-dasharray:none;stroke-opacity:1"
               id="path188" />
          </g>
        </g>
      </g>
    </g>
    <g
       id="g190">
      <g
         id="g192"
         transform="translate(218,6.56)">
        <text
           xml:space="preserve"
           transform="scale(1,-1)"
           style="font-variant:normal;font-weight:normal;font-size:10px;font-family:Helvetica;-inkscape-font-specification:Helvetica;writing-mode:lr-tb;fill:#0000ff;fill-opacity:1;fill-rule:nonzero;stroke:none"
           id="text196"><tspan
             x="0 7.2199998 14.44 21.66 24.440001 26.66 29.440001 32.77 38.330002 43.889999 49.450001 55.009998 60.009998 65.010002 67.790001 70.010002 75.57 78.349998"
             y="0"
             sodipodi:role="line"
             id="tspan194">www.it-ebooks.info</tspan></text>
        <g
           id="g198"
           transform="translate(-218,-6.56)" />
      </g>
    </g>
  </g>
</svg>
