<?xml version="1.0" encoding="UTF-8" standalone="no"?>
<!-- Created with Inkscape (http://www.inkscape.org/) -->

<svg
   version="1.1"
   id="svg2"
   width="690.14398"
   height="888.47998"
   viewBox="0 0 690.14398 888.47998"
   sodipodi:docname="4PmrqTPDrJV6cyWn.pdf"
   xmlns:inkscape="http://www.inkscape.org/namespaces/inkscape"
   xmlns:sodipodi="http://sodipodi.sourceforge.net/DTD/sodipodi-0.dtd"
   xmlns="http://www.w3.org/2000/svg"
   xmlns:svg="http://www.w3.org/2000/svg">
  <defs
     id="defs6">
    <clipPath
       clipPathUnits="userSpaceOnUse"
       id="clipPath188">
      <path
         d="M 0,665.858 H 519.84 V 0 H 0 Z"
         id="path186" />
    </clipPath>
  </defs>
  <sodipodi:namedview
     id="namedview4"
     pagecolor="#ffffff"
     bordercolor="#000000"
     borderopacity="0.25"
     inkscape:showpageshadow="2"
     inkscape:pageopacity="0.0"
     inkscape:pagecheckerboard="0"
     inkscape:deskcolor="#d1d1d1" />
  <g
     id="g8"
     inkscape:groupmode="layer"
     inkscape:label="4PmrqTPDrJV6cyWn"
     transform="matrix(1.3333333,0,0,-1.3333333,-1.46,887.61333)">
    <g
       id="g10">
      <g
         id="g12">
        <text
           xml:space="preserve"
           transform="matrix(1,0,0,-1,426.585,622.111)"
           style="font-variant:normal;font-weight:normal;font-size:10px;font-family:'Times New Roman';-inkscape-font-specification:TimesNewRomanPS;writing-mode:lr-tb;fill:#231f20;fill-opacity:1;fill-rule:nonzero;stroke:none"
           id="text16"><tspan
             x="0 5 7.7800002 10.56"
             y="0"
             sodipodi:role="line"
             id="tspan14">xiii</tspan></text>
        <text
           xml:space="preserve"
           transform="matrix(1,0,0,-1,79.92,622.111)"
           style="font-variant:normal;font-weight:bold;font-size:10px;font-family:'Times New Roman';-inkscape-font-specification:TimesNewRomanPS-Bold;writing-mode:lr-tb;fill:#231f20;fill-opacity:1;fill-rule:nonzero;stroke:none"
           id="text20"><tspan
             x="0 7.2199998 12.22 17.780001 21.110001 25.549999 31.110001 34.439999"
             y="0"
             sodipodi:role="line"
             id="tspan18">Contents</tspan></text>
        <text
           xml:space="preserve"
           transform="matrix(1,0,0,-1,94.32,584.778)"
           style="font-variant:normal;font-weight:bold;font-size:12px;font-family:'Times New Roman';-inkscape-font-specification:TimesNewRomanPS-Bold;writing-mode:lr-tb;fill:#231f20;fill-opacity:1;fill-rule:nonzero;stroke:none"
           id="text24"><tspan
             x="0 8.6639996 15.336 21.336 24.672001 28.007999 33.335999 40.007999 45.771599 51.099602"
             y="0"
             sodipodi:role="line"
             id="tspan22">Challenges</tspan></text>
        <text
           xml:space="preserve"
           transform="matrix(1,0,0,-1,151.8264,584.778)"
           style="font-variant:normal;font-weight:normal;font-size:12px;font-family:'Times New Roman';-inkscape-font-specification:TimesNewRomanPS;writing-mode:lr-tb;fill:#231f20;fill-opacity:1;fill-rule:nonzero;stroke:none"
           id="text28"><tspan
             x="0 3 6 9 12 15 18 21 24 27 30 33 36 39 42 45 48 51 54 57 60 63 66 69 72 75 78 81 84 87 90 93 96 99 102 105 108 111 114 117 120 123 126 129 132 135 138 141 144 147 150 153 156 159 162 165 168 171 174 177 180 183 186 189 192 195 198 201 204 207 210 213 216 219 222 225 228 231 234 237 240 243 246 249 252 255 258 261 264 267 270.28079 276.28079 282.28079"
             y="0"
             sodipodi:role="line"
             id="tspan26">..........................................................................................180</tspan></text>
        <text
           xml:space="preserve"
           transform="matrix(1,0,0,-1,94.32,570.7776)"
           style="font-variant:normal;font-weight:bold;font-size:12px;font-family:'Times New Roman';-inkscape-font-specification:TimesNewRomanPS-Bold;writing-mode:lr-tb;fill:#231f20;fill-opacity:1;fill-rule:nonzero;stroke:none"
           id="text32"><tspan
             x="0 8.6639996 14.664 21.336 26.664 33.335999 38.664001 43.635601 48.9636 55.635601 60.9636 66.9636 69.9636 78.627602 83.955597 87.951599 93.279602 99.951599 104.6196 109.9476 112.9476 120.2796 125.6076 128.9436 135.6156 140.9436 144.2796 150.9516 154.2876 159.6156"
             y="0"
             sodipodi:role="line"
             id="tspan30">Concurrency Defense Principles</tspan></text>
        <text
           xml:space="preserve"
           transform="matrix(1,0,0,-1,259.7556,570.7776)"
           style="font-variant:normal;font-weight:normal;font-size:12px;font-family:'Times New Roman';-inkscape-font-specification:TimesNewRomanPS;writing-mode:lr-tb;fill:#231f20;fill-opacity:1;fill-rule:nonzero;stroke:none"
           id="text44"><tspan
             x="0 3 6 9 12 15 18 21 24 27 30 33 36 39 42 45 48 51 54 57 60 63 66 69 72 75 78 81 84 87 90 93 96 99 102 105 108 111 114 117 120 123 126 129 132 135 138 141 144 147 150 153 156 159 162.28081 168.28081 174.28081"
             y="0"
             sodipodi:role="line"
             id="tspan34">......................................................180</tspan><tspan
             x="-151.0356 -144.3636 -141.0276 -135.0276 -129.0276 -125.6916 -120.3636 -117.3636 -109.3596 -104.0316 -99.363602 -93.363602 -87.363602 -81.363602 -76.695602 -73.359596 -67.359596 -64.023598 -60.687599 -57.351601 -54.015598 -48.015598 -45.015598 -38.343601 -34.347599 -31.0116 -25.0116 -19.683599 -16.347601 -10.3476 -7.0116 0.1332 3.1331999 6.1332002 9.1331997 12.1332 15.1332 18.1332 21.1332 24.1332 27.1332 30.1332 33.133202 36.133202 39.133202 42.133202 45.133202 48.133202 51.133202 54.133202 57.133202 60.133202 63.133202 66.133202 69.133202 72.133202 75.133202 78.133202 81.133202 84.133202 87.133202 90.133202 93.133202 96.133202 99.133202 102.1332 105.1332 108.1332 111.1332 114.1332 117.1332 120.1332 123.1332 126.1332 129.13319 132.13319 135.13319 138.13319 141.13319 144.13319 147.13319 150.13319 153.13319 156.13319 159.13319 162.414 168.414 174.414"
             y="14.0004"
             sodipodi:role="line"
             id="tspan36">Single Responsibility Principle......................................................181</tspan><tspan
             x="-151.0356 -143.0316 -137.0316 -133.0356 -127.0356 -123.6996 -120.3636 -115.0356 -110.802 -104.802 -101.466 -98.466003 -91.134003 -87.797997 -78.461998 -75.125999 -71.790001 -68.790001 -65.454002 -59.453999 -54.125999 -51.125999 -44.453999 -39.125999 -33.125999 -27.125999 -21.798 -18.798 -12.798 -8.802 -5.802 2.862 8.1899996 11.526 18.1404 21.1404 24.1404 27.1404 30.1404 33.1404 36.1404 39.1404 42.1404 45.1404 48.1404 51.1404 54.1404 57.1404 60.1404 63.1404 66.140404 69.140404 72.140404 75.140404 78.140404 81.140404 84.140404 87.140404 90.140404 93.140404 96.140404 99.140404 102.1404 105.1404 108.1404 111.1404 114.1404 117.1404 120.1404 123.1404 126.1404 129.1404 132.1404 135.1404 138.1404 141.1404 144.1404 147.1404 150.1404 153.1404 156.1404 159.1404 162.4212 168.4212 174.4212"
             y="28.000799"
             sodipodi:role="line"
             id="tspan38">Corollary: Limit the Scope of Data................................................181</tspan><tspan
             x="-151.0356 -143.0316 -137.0316 -133.0356 -127.0356 -123.6996 -120.3636 -115.0356 -110.802 -104.802 -101.466 -98.466003 -89.802002 -85.134003 -79.806 -76.806 -68.802002 -62.801998 -56.801998 -53.466 -48.138 -43.470001 -40.470001 -34.470001 -30.474001 -27.474001 -18.809999 -13.482 -10.146 -2.8692 0.13079999 3.1308 6.1307998 9.1308002 12.1308 15.1308 18.1308 21.1308 24.1308 27.1308 30.1308 33.130798 36.130798 39.130798 42.130798 45.130798 48.130798 51.130798 54.130798 57.130798 60.130798 63.130798 66.130798 69.130798 72.130798 75.130798 78.130798 81.130798 84.130798 87.130798 90.130798 93.130798 96.130798 99.130798 102.1308 105.1308 108.1308 111.1308 114.1308 117.1308 120.1308 123.1308 126.1308 129.1308 132.1308 135.1308 138.1308 141.1308 144.1308 147.1308 150.1308 153.1308 156.1308 159.1308 162.41161 168.41161 174.41161"
             y="42.001202"
             sodipodi:role="line"
             id="tspan40">Corollary: Use Copies of Data.......................................................181</tspan><tspan
             x="-151.0356 -143.0316 -137.0316 -133.0356 -127.0356 -123.6996 -120.3636 -115.0356 -110.802 -104.802 -101.466 -99.063599 -91.731598 -85.731598 -81.735603 -76.4076 -71.079597 -65.079597 -60.411598 -57.411598 -50.739601 -44.739601 -38.739601 -32.739601 -29.403601 -23.403601 -20.403601 -12.3996 -7.0716 -4.0716 1.2564 5.9243999 8.9244003 12.9204 18.920401 24.920401 30.2484 36.248402 41.576401 47.576401 53.576401 58.9044 64.904404 68.240402 71.240402 76.568398 81.236397 84.236397 90.430801 96.430801 101.0988 105.7668 109.1028 114.8664 118.2024 126.1524 129.1524 132.1524 135.1524 138.1524 141.1524 144.1524 147.1524 150.1524 153.1524 156.1524 159.1524 162.4332 168.4332 174.4332"
             y="56.001598"
             sodipodi:role="line"
             id="tspan42">Corollary: Threads Should Be as Independent as Possible............182</tspan></text>
        <text
           xml:space="preserve"
           transform="matrix(1,0,0,-1,94.32,500.7756)"
           style="font-variant:normal;font-weight:bold;font-size:12px;font-family:'Times New Roman';-inkscape-font-specification:TimesNewRomanPS-Bold;writing-mode:lr-tb;fill:#231f20;fill-opacity:1;fill-rule:nonzero;stroke:none"
           id="text48"><tspan
             x="0 9.3360004 16.007999 21.4104 30.0744 31.876801 38.862 44.862 51.534 56.862 59.862 67.865997 71.202003 77.874001 83.085602 89.085602 94.413597"
             y="0"
             sodipodi:role="line"
             id="tspan46">Know Your Library</tspan></text>
        <text
           xml:space="preserve"
           transform="matrix(1,0,0,-1,196.7976,500.7756)"
           style="font-variant:normal;font-weight:normal;font-size:12px;font-family:'Times New Roman';-inkscape-font-specification:TimesNewRomanPS;writing-mode:lr-tb;fill:#231f20;fill-opacity:1;fill-rule:nonzero;stroke:none"
           id="text54"><tspan
             x="0 3 6 9 12 15 18 21 24 27 30 33 36 39 42 45 48 51 54 57 60 63 66 69 72 75 78 81 84 87 90 93 96 99 102 105 108 111 114 117 120 123 126 129 132 135 138 141 144 147 150 153 156 159 162 165 168 171 174 177 180 183 186 189 192 195 198 201 204 207 210 213 216 219 222 225.28081 231.28081 237.28081"
             y="0"
             sodipodi:role="line"
             id="tspan50">...........................................................................182</tspan><tspan
             x="-88.077599 -80.745598 -74.745598 -70.749603 -65.4216 -60.093601 -54.093601 -50.097599 -43.425598 -38.097599 -34.101601 -28.7736 -25.7736 -17.7696 -11.7696 -8.4336004 -5.0976 0.2304 5.5584002 8.8943996 12.2304 18.2304 24.2304 30.087601 33.087601 36.087601 39.087601 42.087601 45.087601 48.087601 51.087601 54.087601 57.087601 60.087601 63.087601 66.087601 69.087601 72.087601 75.087601 78.087601 81.087601 84.087601 87.087601 90.087601 93.087601 96.087601 99.087601 102.0876 105.0876 108.0876 111.0876 114.0876 117.0876 120.0876 123.0876 126.0876 129.0876 132.0876 135.0876 138.0876 141.0876 144.0876 147.0876 150.0876 153.0876 156.0876 159.0876 162.0876 165.0876 168.0876 171.0876 174.0876 177.0876 180.0876 183.0876 186.0876 189.0876 192.0876 195.0876 198.0876 201.0876 204.0876 207.0876 210.0876 213.0876 216.0876 219.0876 222.0876 225.36839 231.36839 237.36839"
             y="14.0004"
             sodipodi:role="line"
             id="tspan52">Thread-Safe Collections.................................................................182</tspan></text>
        <text
           xml:space="preserve"
           transform="matrix(1,0,0,-1,94.32,472.7748)"
           style="font-variant:normal;font-weight:bold;font-size:12px;font-family:'Times New Roman';-inkscape-font-specification:TimesNewRomanPS-Bold;writing-mode:lr-tb;fill:#231f20;fill-opacity:1;fill-rule:nonzero;stroke:none"
           id="text58"><tspan
             x="0 9.3360004 16.007999 21.4104 30.0744 31.876801 38.862 44.862 51.534 56.862 59.862 67.865997 73.629601 78.957603 84.285599 90.957603 94.953598 98.289597 104.2896 110.9616 113.9616 125.2896 131.2896 137.96159 143.2896 146.6256"
             y="0"
             sodipodi:role="line"
             id="tspan56">Know Your Execution Models</tspan></text>
        <text
           xml:space="preserve"
           transform="matrix(1,0,0,-1,247.764,472.7748)"
           style="font-variant:normal;font-weight:normal;font-size:12px;font-family:'Times New Roman';-inkscape-font-specification:TimesNewRomanPS;writing-mode:lr-tb;fill:#231f20;fill-opacity:1;fill-rule:nonzero;stroke:none"
           id="text68"><tspan
             x="0 3 6 9 12 15 18 21 24 27 30 33 36 39 42 45 48 51 54 57 60 63 66 69 72 75 78 81 84 87 90 93 96 99 102 105 108 111 114 117 120 123 126 129 132 135 138 141 144 147 150 153 156 159 162 165 168 171 174.28081 180.28081 186.28081"
             y="0"
             sodipodi:role="line"
             id="tspan60">..........................................................183</tspan><tspan
             x="-139.04401 -132.37199 -128.37601 -122.376 -116.376 -110.376 -105.048 -99.720001 -95.960403 -91.964401 -83.960403 -77.960403 -71.960403 -67.292397 -61.2924 -51.956402 -46.628399 -41.888401 -38.888401 -35.888401 -32.888401 -29.888399 -26.888399 -23.888399 -20.888399 -17.888399 -14.8884 -11.8884 -8.8884001 -5.8884001 -2.8884001 0.1116 3.1115999 6.1115999 9.1115999 12.1116 15.1116 18.111601 21.111601 24.111601 27.111601 30.111601 33.111599 36.111599 39.111599 42.111599 45.111599 48.111599 51.111599 54.111599 57.111599 60.111599 63.111599 66.111603 69.111603 72.111603 75.111603 78.111603 81.111603 84.111603 87.111603 90.111603 93.111603 96.111603 99.111603 102.1116 105.1116 108.1116 111.1116 114.1116 117.1116 120.1116 123.1116 126.1116 129.1116 132.1116 135.1116 138.1116 141.1116 144.1116 147.1116 150.1116 153.1116 156.1116 159.1116 162.1116 165.1116 168.1116 171.1116 174.3924 180.3924 186.3924"
             y="14.0016"
             sodipodi:role="line"
             id="tspan62">Producer-Consumer........................................................................184</tspan><tspan
             x="-139.04401 -131.03999 -125.712 -120.384 -114.384 -109.056 -105.06 -100.392 -96.396004 -85.068001 -81.071999 -77.736 -74.400002 -69.071999 -65.075996 -59.882401 -56.882401 -53.882401 -50.882401 -47.882401 -44.882401 -41.882401 -38.882401 -35.882401 -32.882401 -29.882401 -26.882401 -23.882401 -20.882401 -17.882401 -14.8824 -11.8824 -8.8823996 -5.8824 -2.8824 0.1176 3.1176 6.1176 9.1176004 12.1176 15.1176 18.117599 21.117599 24.117599 27.117599 30.117599 33.117599 36.117599 39.117599 42.117599 45.117599 48.117599 51.117599 54.117599 57.117599 60.117599 63.117599 66.117599 69.117599 72.117599 75.117599 78.117599 81.117599 84.117599 87.117599 90.117599 93.117599 96.117599 99.117599 102.1176 105.1176 108.1176 111.1176 114.1176 117.1176 120.1176 123.1176 126.1176 129.1176 132.1176 135.1176 138.1176 141.1176 144.1176 147.1176 150.1176 153.1176 156.1176 159.1176 162.1176 165.1176 168.1176 171.1176 174.39841 180.39841 186.39841"
             y="28.003201"
             sodipodi:role="line"
             id="tspan64">Readers-Writers..............................................................................184</tspan><tspan
             x="-139.04401 -130.38 -127.044 -121.044 -117.708 -111.708 -105.708 -102.708 -96.036003 -90.036003 -86.699997 -83.363998 -77.363998 -72.695999 -66.695999 -60.695999 -54.695999 -49.368 -45.372002 -38.8932 -35.8932 -32.8932 -29.8932 -26.8932 -23.8932 -20.8932 -17.8932 -14.8932 -11.8932 -8.8931999 -5.8931999 -2.8931999 0.1068 3.1068001 6.1068001 9.1068001 12.1068 15.1068 18.1068 21.1068 24.1068 27.1068 30.1068 33.1068 36.1068 39.1068 42.1068 45.1068 48.1068 51.1068 54.1068 57.1068 60.1068 63.1068 66.106796 69.106796 72.106796 75.106796 78.106796 81.106796 84.106796 87.106796 90.106796 93.106796 96.106796 99.106796 102.1068 105.1068 108.1068 111.1068 114.1068 117.1068 120.1068 123.1068 126.1068 129.1068 132.1068 135.1068 138.1068 141.1068 144.1068 147.1068 150.1068 153.1068 156.1068 159.1068 162.1068 165.1068 168.1068 171.1068 174.3876 180.3876 186.3876"
             y="42.004799"
             sodipodi:role="line"
             id="tspan66">Dining Philosophers.......................................................................184</tspan></text>
        <text
           xml:space="preserve"
           transform="matrix(1,0,0,-1,94.32,416.7696)"
           style="font-variant:normal;font-weight:bold;font-size:12px;font-family:'Times New Roman';-inkscape-font-specification:TimesNewRomanPS-Bold;writing-mode:lr-tb;fill:#231f20;fill-opacity:1;fill-rule:nonzero;stroke:none"
           id="text72"><tspan
             x="0 8.0039997 13.0332 21.398399 27.398399 32.369999 37.698002 40.698002 49.362 54.689999 61.362 66.690002 73.362 80.033997 85.362 92.033997 97.362 100.698 106.026 110.694 113.694 121.698 127.026 131.022 139.38721 144.71519 150.0432 156.71519 159.71519 166.38721 172.38721 179.0592 184.38721 191.0592 196.03081 202.03081 208.7028 212.0388 217.36681 222.69479 229.36681 232.36681 243.69479 249.0228 253.0188 259.6908 265.6908 272.36279"
             y="0"
             sodipodi:role="line"
             id="tspan70">Beware Dependencies Between Synchronized Methods</tspan></text>
        <text
           xml:space="preserve"
           transform="matrix(1,0,0,-1,373.6824,416.7696)"
           style="font-variant:normal;font-weight:normal;font-size:12px;font-family:'Times New Roman';-inkscape-font-specification:TimesNewRomanPS;writing-mode:lr-tb;fill:#231f20;fill-opacity:1;fill-rule:nonzero;stroke:none"
           id="text76"><tspan
             x="0 3 6 9 12 15 18 21 24 27 30 33 36 39 42 45 48.2808 54.2808 60.2808"
             y="0"
             sodipodi:role="line"
             id="tspan74">................185</tspan></text>
        <text
           xml:space="preserve"
           transform="matrix(1,0,0,-1,94.32,402.7692)"
           style="font-variant:normal;font-weight:bold;font-size:12px;font-family:'Times New Roman';-inkscape-font-specification:TimesNewRomanPS-Bold;writing-mode:lr-tb;fill:#231f20;fill-opacity:1;fill-rule:nonzero;stroke:none"
           id="text80"><tspan
             x="0 9.0372 14.3652 19.693199 26.3652 29.3652 36.037201 42.037201 48.709202 54.037201 60.709202 65.680801 71.680801 78.352798 81.688797 87.0168 92.344803 99.0168 102.0168 108.6888 114.0168 119.3448 123.3408 126.6768 132.6768 139.3488 144.0168 147.0168 153.6888 163.6848 169.6848 173.0208"
             y="0"
             sodipodi:role="line"
             id="tspan78">Keep Synchronized Sections Small</tspan></text>
        <text
           xml:space="preserve"
           transform="matrix(1,0,0,-1,271.7472,402.7692)"
           style="font-variant:normal;font-weight:normal;font-size:12px;font-family:'Times New Roman';-inkscape-font-specification:TimesNewRomanPS;writing-mode:lr-tb;fill:#231f20;fill-opacity:1;fill-rule:nonzero;stroke:none"
           id="text84"><tspan
             x="0 3 6 9 12 15 18 21 24 27 30 33 36 39 42 45 48 51 54 57 60 63 66 69 72 75 78 81 84 87 90 93 96 99 102 105 108 111 114 117 120 123 126 129 132 135 138 141 144 147 150.28081 156.28081 162.28081"
             y="0"
             sodipodi:role="line"
             id="tspan82">..................................................185</tspan></text>
        <text
           xml:space="preserve"
           transform="matrix(1,0,0,-1,94.3188,388.7688)"
           style="font-variant:normal;font-weight:bold;font-size:12px;font-family:'Times New Roman';-inkscape-font-specification:TimesNewRomanPS-Bold;writing-mode:lr-tb;fill:#231f20;fill-opacity:1;fill-rule:nonzero;stroke:none"
           id="text88"><tspan
             x="0 12 17.327999 20.664 24.66 27.996 34.667999 40.667999 43.667999 52.332001 58.332001 63.66 68.631599 73.959602 79.287598 83.2836 86.2836 92.955597 99.627602 106.2996 110.2956 114.2916 122.9556 128.358 137.022 143.694 146.694 155.358 161.358 168.03 173.358 176.358 181.026 185.694 188.694 198.03 204.03 209.1792"
             y="0"
             sodipodi:role="line"
             id="tspan86">Writing Correct Shut-Down Code Is Hard</tspan></text>
        <text
           xml:space="preserve"
           transform="matrix(1,0,0,-1,310.722,388.7688)"
           style="font-variant:normal;font-weight:normal;font-size:12px;font-family:'Times New Roman';-inkscape-font-specification:TimesNewRomanPS;writing-mode:lr-tb;fill:#231f20;fill-opacity:1;fill-rule:nonzero;stroke:none"
           id="text92"><tspan
             x="0 3 6 9 12 15 18 21 24 27 30 33 36 39 42 45 48 51 54 57 60 63 66 69 72 75 78 81 84 87 90 93 96 99 102 105 108 111.2808 117.2808 123.2808"
             y="0"
             sodipodi:role="line"
             id="tspan90">.....................................186</tspan></text>
        <text
           xml:space="preserve"
           transform="matrix(1,0,0,-1,94.3188,374.7684)"
           style="font-variant:normal;font-weight:bold;font-size:12px;font-family:'Times New Roman';-inkscape-font-specification:TimesNewRomanPS-Bold;writing-mode:lr-tb;fill:#231f20;fill-opacity:1;fill-rule:nonzero;stroke:none"
           id="text96"><tspan
             x="0 6.9024 12.2304 16.898399 20.8944 24.2304 30.902399 36.902401 39.184799 47.188801 53.860802 58.832401 64.1604 70.1604 76.832397 82.1604 88.832397 91.832397 100.4964 106.4964 113.1684"
             y="0"
             sodipodi:role="line"
             id="tspan94">Testing Threaded Code</tspan></text>
        <text
           xml:space="preserve"
           transform="matrix(1,0,0,-1,214.7832,374.7684)"
           style="font-variant:normal;font-weight:normal;font-size:12px;font-family:'Times New Roman';-inkscape-font-specification:TimesNewRomanPS;writing-mode:lr-tb;fill:#231f20;fill-opacity:1;fill-rule:nonzero;stroke:none"
           id="text118"><tspan
             x="0 3 6 9 12 15 18 21 24 27 30 33 36 39 42 45 48 51 54 57 60 63 66 69 72 75 78 81 84 87 90 93 96 99 102 105 108 111 114 117 120 123 126 129 132 135 138 141 144 147 150 153 156 159 162 165 168 171 174 177 180 183 186 189 192 195 198 201 204 207.28081 213.28081 219.28081"
             y="0"
             sodipodi:role="line"
             id="tspan98">.....................................................................186</tspan><tspan
             x="-106.0644 -99.151199 -95.155197 -89.827202 -84.499199 -81.1632 -78.1632 -71.491203 -65.491203 -59.491199 -55.495201 -52.159199 -46.159199 -40.159199 -35.491199 -32.491199 -26.5368 -21.208799 -17.872801 -14.5368 -8.5368004 -4.5408001 0.78719997 5.4552002 8.4552002 13.7832 18.4512 21.4512 29.4552 34.783199 40.783199 46.783199 50.119202 56.119202 61.447201 64.783203 70.111198 72.513603 79.845596 85.845596 89.841599 95.169601 100.4976 106.4976 109.8336 115.8336 121.8336 124.8336 128.82961 133.4976 138.1656 144.1656 149.49361 156.132 159.132 162.132 165.132 168.132 171.132 174.132 177.132 180.132 183.132 186.132 189.132 192.132 195.132 198.132 201.132 204.132 207.4128 213.4128 219.4128"
             y="14.0004"
             sodipodi:role="line"
             id="tspan100">Treat Spurious Failures as Candidate Threading Issues.................187</tspan><tspan
             x="-106.0644 -97.400398 -92.072403 -88.736397 -86.814003 -80.068802 -74.068802 -68.068802 -64.0728 -61.0728 -52.408798 -46.408798 -40.408798 -37.0728 -31.0728 -27.076799 -21.7488 -16.420799 -10.4208 -5.0928001 0.90719998 3.9072001 11.9112 17.9112 23.9112 29.239201 31.882799 42.013199 48.013199 52.009201 58.009201 61.3452 67.3452 73.3452 76.3452 82.7808 86.116798 90.112801 94.7808 99.112801 102.1128 105.1128 108.1128 111.1128 114.1128 117.1128 120.1128 123.1128 126.1128 129.11279 132.11279 135.11279 138.11279 141.11279 144.11279 147.11279 150.11279 153.11279 156.11279 159.11279 162.11279 165.11279 168.11279 171.11279 174.11279 177.11279 180.11279 183.11279 186.11279 189.11279 192.11279 195.11279 198.11279 201.11279 204.11279 207.3936 213.3936 219.3936"
             y="28.000799"
             sodipodi:role="line"
             id="tspan102">Get Your Nonthreaded Code Working First....................................187</tspan><tspan
             x="-106.0644 -95.397598 -90.070801 -84.187202 -78.860397 -76.938004 -70.192802 -64.194 -58.195202 -54.200401 -51.798 -44.467201 -38.468399 -34.473598 -29.146799 -23.82 -17.821199 -12.4944 -6.4956002 -3.4956 4.5071998 10.506 16.504801 21.8316 24.8316 31.502399 34.8372 40.835999 46.834801 52.833599 58.1604 63.924 67.258797 75.132004 78.130798 81.129601 84.128403 87.127197 90.125999 93.124802 96.123596 99.122398 102.1212 105.12 108.1188 111.1176 114.1164 117.1152 120.114 123.1128 126.1116 129.1104 132.10921 135.108 138.1068 141.10561 144.1044 147.1032 150.10201 153.1008 156.09959 159.0984 162.0972 165.09599 168.0948 171.0936 174.09241 177.0912 180.09 183.08881 186.0876 189.0864 192.08521 195.084 198.08279 201.0816 204.0804 207.36121 213.36 219.3588"
             y="42.001202"
             sodipodi:role="line"
             id="tspan104">Make Your Threaded Code Pluggable............................................187</tspan><tspan
             x="-106.0644 -95.3964 -90.068398 -84.184799 -78.856796 -76.934402 -70.189201 -64.189201 -58.189201 -54.193199 -51.790798 -44.458801 -38.458801 -34.462799 -29.1348 -23.806801 -17.806801 -12.4788 -6.4787998 -3.4788001 4.5251999 10.5252 16.5252 21.853201 24.2556 30.5676 36.5676 42.5676 47.895599 53.659199 56.995201 63.103199 66.103203 69.103203 72.103203 75.103203 78.103203 81.103203 84.103203 87.103203 90.103203 93.103203 96.103203 99.103203 102.1032 105.1032 108.1032 111.1032 114.1032 117.1032 120.1032 123.1032 126.1032 129.1032 132.1032 135.1032 138.1032 141.1032 144.1032 147.1032 150.1032 153.1032 156.1032 159.1032 162.1032 165.1032 168.1032 171.1032 174.1032 177.1032 180.1032 183.1032 186.1032 189.1032 192.1032 195.1032 198.1032 201.1032 204.1032 207.384 213.384 219.384"
             y="56.001598"
             sodipodi:role="line"
             id="tspan106">Make Your Threaded Code Tunable................................................187</tspan><tspan
             x="-106.0644 -98.060402 -92.060402 -86.060402 -83.060402 -74.3964 -71.060402 -67.724403 -61.7244 -58.7244 -48.0564 -42.0564 -38.060398 -32.732399 -30.33 -22.997999 -16.997999 -13.002 -7.6739998 -2.346 3.654 8.3219995 10.7244 18.0564 24.0564 29.384399 35.384399 38.384399 45.0564 49.052399 55.052399 60.380402 65.708397 70.376404 75.044403 81.044403 85.040398 90.1092 93.1092 96.1092 99.1092 102.1092 105.1092 108.1092 111.1092 114.1092 117.1092 120.1092 123.1092 126.1092 129.10921 132.10921 135.10921 138.10921 141.10921 144.10921 147.10921 150.10921 153.10921 156.10921 159.10921 162.10921 165.10921 168.10921 171.10921 174.10921 177.10921 180.10921 183.10921 186.10921 189.10921 192.10921 195.10921 198.10921 201.10921 204.10921 207.39 213.39 219.39"
             y="70.001999"
             sodipodi:role="line"
             id="tspan108">Run with More Threads Than Processors.......................................188</tspan><tspan
             x="-106.0644 -98.060402 -92.060402 -86.060402 -83.060402 -77.060402 -71.060402 -68.060402 -59.3964 -56.060398 -52.363201 -48.367199 -43.0392 -39.043201 -33.715199 -27.7152 -24.3792 -21.3792 -14.7072 -11.3712 -6.0432 -2.7072001 1.2888 7.2887998 11.5224 20.8584 27.103201 30.103201 33.103199 36.103199 39.103199 42.103199 45.103199 48.103199 51.103199 54.103199 57.103199 60.103199 63.103199 66.103203 69.103203 72.103203 75.103203 78.103203 81.103203 84.103203 87.103203 90.103203 93.103203 96.103203 99.103203 102.1032 105.1032 108.1032 111.1032 114.1032 117.1032 120.1032 123.1032 126.1032 129.1032 132.1032 135.1032 138.1032 141.1032 144.1032 147.1032 150.1032 153.1032 156.1032 159.1032 162.1032 165.1032 168.1032 171.1032 174.1032 177.1032 180.1032 183.1032 186.1032 189.1032 192.1032 195.1032 198.1032 201.1032 204.1032 207.384 213.384 219.384"
             y="84.002403"
             sodipodi:role="line"
             id="tspan110">Run on Different Platforms............................................................188</tspan><tspan
             x="-106.0644 -102.0684 -96.068398 -91.400398 -88.0644 -83.830803 -77.830803 -68.494797 -63.166801 -57.166801 -53.830799 -51.908401 -45.1632 -39.1632 -33.1632 -29.1672 -26.1672 -18.1632 -12.1632 -6.1631999 -0.83520001 2.1647999 5.5008001 11.5008 13.9032 20.816401 25.049999 31.049999 34.049999 39.377998 45.377998 51.377998 54.377998 60.4524 66.4524 70.448402 75.776398 81.104401 84.104401 90.0588 95.386803 98.722801 102.0588 108.0588 112.0548 117.3828 123.1236 126.1236 129.1236 132.1236 135.1236 138.1236 141.1236 144.1236 147.1236 150.1236 153.1236 156.1236 159.1236 162.1236 165.1236 168.1236 171.1236 174.1236 177.1236 180.1236 183.1236 186.1236 189.1236 192.1236 195.1236 198.1236 201.1236 204.1236 207.4044 213.4044 219.4044"
             y="98.0028"
             sodipodi:role="line"
             id="tspan112">Instrument Your Code to Try and Force Failures............................188</tspan><tspan
             x="-106.0644 -97.400398 -92.072403 -86.072403 -80.072403 -76.076401 -68.072403 -62.072399 -56.072399 -50.7444 -41.9244 -38.9244 -35.9244 -32.9244 -29.9244 -26.9244 -23.9244 -20.9244 -17.9244 -14.9244 -11.9244 -8.9244003 -5.9243999 -2.9244001 0.075599998 3.0755999 6.0756001 9.0755997 12.0756 15.0756 18.0756 21.0756 24.0756 27.0756 30.0756 33.0756 36.0756 39.0756 42.0756 45.0756 48.0756 51.0756 54.0756 57.0756 60.0756 63.0756 66.0756 69.0756 72.0756 75.0756 78.0756 81.0756 84.0756 87.0756 90.0756 93.0756 96.0756 99.0756 102.0756 105.0756 108.0756 111.0756 114.0756 117.0756 120.0756 123.0756 126.0756 129.07561 132.07561 135.07561 138.07561 141.07561 144.07561 147.07561 150.07561 153.07561 156.07561 159.07561 162.07561 165.07561 168.07561 171.07561 174.07561 177.07561 180.07561 183.07561 186.07561 189.07561 192.07561 195.07561 198.07561 201.07561 204.07561 207.3564 213.3564 219.3564"
             y="112.0032"
             sodipodi:role="line"
             id="tspan114">Hand-Coded...................................................................................189</tspan><tspan
             x="-106.0644 -97.400398 -91.400398 -88.0644 -82.0644 -72.728401 -67.400398 -64.0644 -58.736401 -50.919601 -47.919601 -44.919601 -41.919601 -38.919601 -35.919601 -32.919601 -29.9196 -26.9196 -23.9196 -20.9196 -17.9196 -14.9196 -11.9196 -8.9195995 -5.9196 -2.9196 0.080399998 3.0804 6.0804 9.0804005 12.0804 15.0804 18.0804 21.0804 24.0804 27.0804 30.0804 33.080399 36.080399 39.080399 42.080399 45.080399 48.080399 51.080399 54.080399 57.080399 60.080399 63.080399 66.080399 69.080399 72.080399 75.080399 78.080399 81.080399 84.080399 87.080399 90.080399 93.080399 96.080399 99.080399 102.0804 105.0804 108.0804 111.0804 114.0804 117.0804 120.0804 123.0804 126.0804 129.0804 132.0804 135.0804 138.0804 141.0804 144.0804 147.0804 150.0804 153.0804 156.0804 159.0804 162.0804 165.0804 168.0804 171.0804 174.0804 177.0804 180.0804 183.0804 186.0804 189.0804 192.0804 195.0804 198.0804 201.0804 204.0804 207.36121 213.36121 219.36121"
             y="126.0036"
             sodipodi:role="line"
             id="tspan116">Automated......................................................................................189</tspan></text>
        <text
           xml:space="preserve"
           transform="matrix(1,0,0,-1,94.3188,234.7644)"
           style="font-variant:normal;font-weight:bold;font-size:12px;font-family:'Times New Roman';-inkscape-font-specification:TimesNewRomanPS-Bold;writing-mode:lr-tb;fill:#231f20;fill-opacity:1;fill-rule:nonzero;stroke:none"
           id="text122"><tspan
             x="0 8.6639996 14.664 21.336 26.664 30 36.672001 41.34 44.675999 50.675999"
             y="0"
             sodipodi:role="line"
             id="tspan120">Conclusion</tspan></text>
        <text
           xml:space="preserve"
           transform="matrix(1,0,0,-1,151.8252,234.7644)"
           style="font-variant:normal;font-weight:normal;font-size:12px;font-family:'Times New Roman';-inkscape-font-specification:TimesNewRomanPS;writing-mode:lr-tb;fill:#231f20;fill-opacity:1;fill-rule:nonzero;stroke:none"
           id="text126"><tspan
             x="0 3 6 9 12 15 18 21 24 27 30 33 36 39 42 45 48 51 54 57 60 63 66 69 72 75 78 81 84 87 90 93 96 99 102 105 108 111 114 117 120 123 126 129 132 135 138 141 144 147 150 153 156 159 162 165 168 171 174 177 180 183 186 189 192 195 198 201 204 207 210 213 216 219 222 225 228 231 234 237 240 243 246 249 252 255 258 261 264 267 270.28079 276.28079 282.28079"
             y="0"
             sodipodi:role="line"
             id="tspan124">..........................................................................................190</tspan></text>
        <text
           xml:space="preserve"
           transform="matrix(1,0,0,-1,94.3188,220.764)"
           style="font-variant:normal;font-weight:bold;font-size:12px;font-family:'Times New Roman';-inkscape-font-specification:TimesNewRomanPS-Bold;writing-mode:lr-tb;fill:#231f20;fill-opacity:1;fill-rule:nonzero;stroke:none"
           id="text130"><tspan
             x="0 8.0039997 11.34 17.7756 21.111601 24.447599 30.3312 36.3312 41.542801 47.542801 54.214802 60.348"
             y="0"
             sodipodi:role="line"
             id="tspan128">Bibliography</tspan></text>
        <text
           xml:space="preserve"
           transform="matrix(1,0,0,-1,160.8192,220.764)"
           style="font-variant:normal;font-weight:normal;font-size:12px;font-family:'Times New Roman';-inkscape-font-specification:TimesNewRomanPS;writing-mode:lr-tb;fill:#231f20;fill-opacity:1;fill-rule:nonzero;stroke:none"
           id="text134"><tspan
             x="0 3 6 9 12 15 18 21 24 27 30 33 36 39 42 45 48 51 54 57 60 63 66 69 72 75 78 81 84 87 90 93 96 99 102 105 108 111 114 117 120 123 126 129 132 135 138 141 144 147 150 153 156 159 162 165 168 171 174 177 180 183 186 189 192 195 198 201 204 207 210 213 216 219 222 225 228 231 234 237 240 243 246 249 252 255 258 261.28079 267.28079 273.28079"
             y="0"
             sodipodi:role="line"
             id="tspan132">.......................................................................................191</tspan></text>
        <text
           xml:space="preserve"
           transform="matrix(1,0,0,-1,79.92,194.445)"
           style="font-variant:normal;font-weight:bold;font-size:14px;font-family:'Times New Roman';-inkscape-font-specification:TimesNewRomanPS-Bold;writing-mode:lr-tb;fill:#231f20;fill-opacity:1;fill-rule:nonzero;stroke:none"
           id="text138"><tspan
             x="0 10.108 17.892 24.892 32.675999 37.338001 43.554001 49.77 53.27 60.27 67.269997 71.514801 75.014801 82.798798 90.582802 96.798798 103.0148 109.2308 114.6768 120.1228 123.8776 130.4604 136.67641 140.17641 150.28439 156.5004 164.28439 172.06841 178.28439 189.9464 196.1624 203.9464"
             y="0"
             sodipodi:role="line"
             id="tspan136">Chapter 14: Successive Reﬁnement</tspan></text>
        <text
           xml:space="preserve"
           transform="matrix(1,0,0,-1,289.736,194.445)"
           style="font-variant:normal;font-weight:normal;font-size:12px;font-family:'Times New Roman';-inkscape-font-specification:TimesNewRomanPS;writing-mode:lr-tb;fill:#231f20;fill-opacity:1;fill-rule:nonzero;stroke:none"
           id="text142"><tspan
             x="0 3 6 9 12 15 18 21 24 27 30 33 36 39 42 45 48 51 54 57 60 63 66 69 72 75 78 81 84 87 90 93 96 99 102 105 108 111 114 117 120 123 126 129 132.28081 138.28081 144.28081"
             y="0"
             sodipodi:role="line"
             id="tspan140">............................................193</tspan></text>
        <text
           xml:space="preserve"
           transform="matrix(1,0,0,-1,94.3196,178.7778)"
           style="font-variant:normal;font-weight:bold;font-size:12px;font-family:'Times New Roman';-inkscape-font-specification:TimesNewRomanPS-Bold;writing-mode:lr-tb;fill:#231f20;fill-opacity:1;fill-rule:nonzero;stroke:none"
           id="text146"><tspan
             x="0 8.6639996 13.8756 19.875601 24.5436 27.5436 32.211601 42.2076 48.879601 52.215599 57.543598 67.539597 72.867599 79.539597 83.535599 89.535599 93.531601 96.867599 102.8676"
             y="0"
             sodipodi:role="line"
             id="tspan144">Args Implementation</tspan></text>
        <text
           xml:space="preserve"
           transform="matrix(1,0,0,-1,205.79,178.7778)"
           style="font-variant:normal;font-weight:normal;font-size:12px;font-family:'Times New Roman';-inkscape-font-specification:TimesNewRomanPS;writing-mode:lr-tb;fill:#231f20;fill-opacity:1;fill-rule:nonzero;stroke:none"
           id="text152"><tspan
             x="0 3 6 9 12 15 18 21 24 27 30 33 36 39 42 45 48 51 54 57 60 63 66 69 72 75 78 81 84 87 90 93 96 99 102 105 108 111 114 117 120 123 126 129 132 135 138 141 144 147 150 153 156 159 162 165 168 171 174 177 180 183 186 189 192 195 198 201 204 207 210 213 216.28081 222.28081 228.28081"
             y="0"
             sodipodi:role="line"
             id="tspan148">........................................................................194</tspan><tspan
             x="-97.071602 -88.4076 -82.885201 -74.221199 -71.221199 -62.557201 -59.221199 -53.221199 -50.221199 -46.225201 -43.225201 -34.561199 -28.561199 -26.1588 -18.826799 -12.8268 -9.4907999 -4.8228002 3.0780001 6.0780001 9.0780001 12.078 15.078 18.077999 21.077999 24.077999 27.077999 30.077999 33.077999 36.077999 39.077999 42.077999 45.077999 48.077999 51.077999 54.077999 57.077999 60.077999 63.077999 66.078003 69.078003 72.078003 75.078003 78.078003 81.078003 84.078003 87.078003 90.078003 93.078003 96.078003 99.078003 102.078 105.078 108.078 111.078 114.078 117.078 120.078 123.078 126.078 129.078 132.078 135.078 138.078 141.078 144.078 147.078 150.078 153.078 156.078 159.078 162.078 165.078 168.078 171.078 174.078 177.078 180.078 183.078 186.078 189.078 192.078 195.078 198.078 201.078 204.078 207.078 210.078 213.078 216.3588 222.3588 228.3588"
             y="14.0016"
             sodipodi:role="line"
             id="tspan150">How Did I Do This?.......................................................................200</tspan></text>
        <text
           xml:space="preserve"
           transform="matrix(1,0,0,-1,94.3184,150.7758)"
           style="font-variant:normal;font-weight:bold;font-size:12px;font-family:'Times New Roman';-inkscape-font-specification:TimesNewRomanPS-Bold;writing-mode:lr-tb;fill:#231f20;fill-opacity:1;fill-rule:nonzero;stroke:none"
           id="text156"><tspan
             x="0 8.6639996 13.8756 19.875601 24.5436 28.183201 30.465599 38.469601 45.141602 50.469601 53.469601 62.133598 68.133598 74.805603 80.805603 87.4776 90.4776 99.141602 104.3532 110.3532 114.3492"
             y="0"
             sodipodi:role="line"
             id="tspan154">Args: The Rough Draft</tspan></text>
        <text
           xml:space="preserve"
           transform="matrix(1,0,0,-1,214.784,150.7758)"
           style="font-variant:normal;font-weight:normal;font-size:12px;font-family:'Times New Roman';-inkscape-font-specification:TimesNewRomanPS;writing-mode:lr-tb;fill:#231f20;fill-opacity:1;fill-rule:nonzero;stroke:none"
           id="text164"><tspan
             x="0 3 6 9 12 15 18 21 24 27 30 33 36 39 42 45 48 51 54 57 60 63 66 69 72 75 78 81 84 87 90 93 96 99 102 105 108 111 114 117 120 123 126 129 132 135 138 141 144 147 150 153 156 159 162 165 168 171 174 177 180 183 186 189 192 195 198 201 204 207.28081 213.28081 219.28081"
             y="0"
             sodipodi:role="line"
             id="tspan158">.....................................................................201</tspan><tspan
             x="-106.0656 -99.3936 -93.3936 -90.3936 -86.397598 -83.397598 -76.725601 -73.389603 -67.389603 -61.389599 -55.389599 -50.0616 -41.923199 -38.923199 -35.923199 -32.923199 -29.923201 -26.923201 -23.923201 -20.923201 -17.923201 -14.9232 -11.9232 -8.9231997 -5.9232001 -2.9231999 0.076800004 3.0768001 6.0767999 9.0768003 12.0768 15.0768 18.076799 21.076799 24.076799 27.076799 30.076799 33.076801 36.076801 39.076801 42.076801 45.076801 48.076801 51.076801 54.076801 57.076801 60.076801 63.076801 66.076797 69.076797 72.076797 75.076797 78.076797 81.076797 84.076797 87.076797 90.076797 93.076797 96.076797 99.076797 102.0768 105.0768 108.0768 111.0768 114.0768 117.0768 120.0768 123.0768 126.0768 129.0768 132.0768 135.0768 138.0768 141.0768 144.0768 147.0768 150.0768 153.0768 156.0768 159.0768 162.0768 165.0768 168.0768 171.0768 174.0768 177.0768 180.0768 183.0768 186.0768 189.0768 192.0768 195.0768 198.0768 201.0768 204.0768 207.3576 213.3576 219.3576"
             y="14.0004"
             sodipodi:role="line"
             id="tspan160">So I Stopped...................................................................................212</tspan><tspan
             x="-106.0656 -97.401604 -91.401604 -88.401604 -84.405602 -78.405602 -73.077599 -69.081596 -63.753601 -54.417599 -49.0896 -43.0896 -39.753601 -34.425598 -31.0896 -27.753599 -23.0856 -11.9076 -8.9076004 -5.9075999 -2.9075999 0.092399999 3.0924001 6.0924001 9.0923996 12.0924 15.0924 18.0924 21.0924 24.0924 27.0924 30.0924 33.0924 36.0924 39.0924 42.0924 45.0924 48.0924 51.0924 54.0924 57.0924 60.0924 63.0924 66.0924 69.0924 72.0924 75.0924 78.0924 81.0924 84.0924 87.0924 90.0924 93.0924 96.0924 99.0924 102.0924 105.0924 108.0924 111.0924 114.0924 117.0924 120.0924 123.0924 126.0924 129.09241 132.09241 135.09241 138.09241 141.09241 144.09241 147.09241 150.09241 153.09241 156.09241 159.09241 162.09241 165.09241 168.09241 171.09241 174.09241 177.09241 180.09241 183.09241 186.09241 189.09241 192.09241 195.09241 198.09241 201.09241 204.09241 207.3732 213.3732 219.3732"
             y="28.000799"
             sodipodi:role="line"
             id="tspan162">On Incrementalism.........................................................................212</tspan></text>
        <text
           xml:space="preserve"
           transform="matrix(1,0,0,-1,94.3184,108.7746)"
           style="font-variant:normal;font-weight:bold;font-size:12px;font-family:'Times New Roman';-inkscape-font-specification:TimesNewRomanPS-Bold;writing-mode:lr-tb;fill:#231f20;fill-opacity:1;fill-rule:nonzero;stroke:none"
           id="text168"><tspan
             x="0 6.6719999 10.668 15.996 19.332001 26.004 32.004002 33.984001 42.647999 47.8596 53.8596 60.531601 70.527603 75.855598 82.527603 86.523598"
             y="0"
             sodipodi:role="line"
             id="tspan166">String Arguments</tspan></text>
        <text
           xml:space="preserve"
           transform="matrix(1,0,0,-1,187.802,108.7746)"
           style="font-variant:normal;font-weight:normal;font-size:12px;font-family:'Times New Roman';-inkscape-font-specification:TimesNewRomanPS;writing-mode:lr-tb;fill:#231f20;fill-opacity:1;fill-rule:nonzero;stroke:none"
           id="text172"><tspan
             x="0 3 6 9 12 15 18 21 24 27 30 33 36 39 42 45 48 51 54 57 60 63 66 69 72 75 78 81 84 87 90 93 96 99 102 105 108 111 114 117 120 123 126 129 132 135 138 141 144 147 150 153 156 159 162 165 168 171 174 177 180 183 186 189 192 195 198 201 204 207 210 213 216 219 222 225 228 231 234.28081 240.28081 246.28081"
             y="0"
             sodipodi:role="line"
             id="tspan170">..............................................................................214</tspan></text>
        <text
           xml:space="preserve"
           transform="matrix(1,0,0,-1,97.3184,94.773)"
           style="font-variant:normal;font-weight:bold;font-size:12px;font-family:'Times New Roman';-inkscape-font-specification:TimesNewRomanPS-Bold;writing-mode:lr-tb;fill:#231f20;fill-opacity:1;fill-rule:nonzero;stroke:none"
           id="text176"><tspan
             x="0 8.6639996 14.664 21.336 26.664 30 36.672001 41.34 44.675999 50.675999"
             y="0"
             sodipodi:role="line"
             id="tspan174">Conclusion</tspan></text>
        <text
           xml:space="preserve"
           transform="matrix(1,0,0,-1,154.8224,94.773)"
           style="font-variant:normal;font-weight:normal;font-size:12px;font-family:'Times New Roman';-inkscape-font-specification:TimesNewRomanPS;writing-mode:lr-tb;fill:#231f20;fill-opacity:1;fill-rule:nonzero;stroke:none"
           id="text180"><tspan
             x="0 3 6 9 12 15 18 21 24 27 30 33 36 39 42 45 48 51 54 57 60 63 66 69 72 75 78 81 84 87 90 93 96 99 102 105 108 111 114 117 120 123 126 129 132 135 138 141 144 147 150 153 156 159 162 165 168 171 174 177 180 183 186 189 192 195 198 201 204 207 210 213 216 219 222 225 228 231 234 237 240 243 246 249 252 255 258 261 264 267.28079 273.28079 279.28079"
             y="0"
             sodipodi:role="line"
             id="tspan178">.........................................................................................250</tspan></text>
        <g
           id="g182">
          <g
             id="g184"
             clip-path="url(#clipPath188)">
            <path
               d="m -37.08,664.778 h 36 m -36,-666 h 36 m 522,0 h 36 m -36,666 h 36 m -549,45 v -36 m 504,36 v -36 m 0,-684 v -36 m -504,36 v -36"
               style="fill:none;stroke:#ffffff;stroke-width:0.75;stroke-linecap:butt;stroke-linejoin:miter;stroke-miterlimit:10;stroke-dasharray:none;stroke-opacity:1"
               id="path190" />
            <path
               d="m -37.08,664.778 h 36 m -36,-666 h 36 m 522,0 h 36 m -36,666 h 36 m -549,45 v -36 m 504,36 v -36 m 0,-684 v -36 m -504,36 v -36 m -12,378 c 0,3.312 -2.688,6 -6,6 -3.312,0 -6,-2.688 -6,-6 0,-3.312 2.688,-6 6,-6 3.312,0 6,2.688 6,6 z m -24,0 h 27 m -9,24 v -48 m 545.94,24 c 0,3.312 -2.688,6 -6,6 -3.312,0 -6,-2.688 -6,-6 0,-3.312 2.688,-6 6,-6 3.312,0 6,2.688 6,6 z m -14.94,0 h 27 m -18,24 v -48 m -534,345 c 0,3.312 -2.688,6 -6,6 -3.312,0 -6,-2.688 -6,-6 0,-3.312 2.688,-6 6,-6 3.312,0 6,2.688 6,6 z m -24,0 h 27 m -9,9 v -33 m 6,-618 c 0,3.312 -2.688,6 -6,6 -3.312,0 -6,-2.688 -6,-6 0,-3.312 2.688,-6 6,-6 3.312,0 6,2.688 6,6 z m -24,0 h 27 m -9,24 v -33 m 545.94,651 c 0,3.312 -2.688,6 -6,6 -3.312,0 -6,-2.688 -6,-6 0,-3.312 2.688,-6 6,-6 3.312,0 6,2.688 6,6 z m -14.94,0 h 27 m -18,9 v -33 m 5.94,-618 c 0,3.312 -2.688,6 -6,6 -3.312,0 -6,-2.688 -6,-6 0,-3.312 2.688,-6 6,-6 3.312,0 6,2.688 6,6 z m -14.94,0 h 27 m -18,24 v -33"
               style="fill:none;stroke:#000000;stroke-width:0.25;stroke-linecap:butt;stroke-linejoin:miter;stroke-miterlimit:10;stroke-dasharray:none;stroke-opacity:1"
               id="path192" />
          </g>
        </g>
      </g>
    </g>
    <g
       id="g194">
      <g
         id="g196"
         transform="translate(218,6.56)">
        <text
           xml:space="preserve"
           transform="scale(1,-1)"
           style="font-variant:normal;font-weight:normal;font-size:10px;font-family:Helvetica;-inkscape-font-specification:Helvetica;writing-mode:lr-tb;fill:#0000ff;fill-opacity:1;fill-rule:nonzero;stroke:none"
           id="text200"><tspan
             x="0 7.2199998 14.44 21.66 24.440001 26.66 29.440001 32.77 38.330002 43.889999 49.450001 55.009998 60.009998 65.010002 67.790001 70.010002 75.57 78.349998"
             y="0"
             sodipodi:role="line"
             id="tspan198">www.it-ebooks.info</tspan></text>
        <g
           id="g202"
           transform="translate(-218,-6.56)" />
      </g>
    </g>
  </g>
</svg>
