<?xml version="1.0" encoding="UTF-8" standalone="no"?>
<!-- Created with Inkscape (http://www.inkscape.org/) -->

<svg
   version="1.1"
   id="svg2"
   width="690.14398"
   height="888.47998"
   viewBox="0 0 690.14398 888.47998"
   sodipodi:docname="4PmrqTPDrJV6cyWn.pdf"
   xmlns:inkscape="http://www.inkscape.org/namespaces/inkscape"
   xmlns:sodipodi="http://sodipodi.sourceforge.net/DTD/sodipodi-0.dtd"
   xmlns="http://www.w3.org/2000/svg"
   xmlns:svg="http://www.w3.org/2000/svg">
  <defs
     id="defs6">
    <clipPath
       clipPathUnits="userSpaceOnUse"
       id="clipPath26">
      <path
         d="m 80.17,592.778 h 359.625 v -34 H 80.17 Z"
         id="path24" />
    </clipPath>
    <clipPath
       clipPathUnits="userSpaceOnUse"
       id="clipPath38">
      <path
         d="M 80.17,522.778 H 439.795 V 482.835 H 80.17 Z"
         id="path36" />
    </clipPath>
    <clipPath
       clipPathUnits="userSpaceOnUse"
       id="clipPath172">
      <path
         d="M 0,665.858 H 519.84 V 0 H 0 Z"
         id="path170" />
    </clipPath>
  </defs>
  <sodipodi:namedview
     id="namedview4"
     pagecolor="#ffffff"
     bordercolor="#000000"
     borderopacity="0.25"
     inkscape:showpageshadow="2"
     inkscape:pageopacity="0.0"
     inkscape:pagecheckerboard="0"
     inkscape:deskcolor="#d1d1d1" />
  <g
     id="g8"
     inkscape:groupmode="layer"
     inkscape:label="4PmrqTPDrJV6cyWn"
     transform="matrix(1.3333333,0,0,-1.3333333,-1.46,887.61333)">
    <g
       id="g10">
      <g
         id="g12">
        <text
           xml:space="preserve"
           transform="matrix(1,0,0,-1,427.141,35.862)"
           style="font-variant:normal;font-weight:normal;font-size:10px;font-family:'Times New Roman';-inkscape-font-specification:TimesNewRomanPS;writing-mode:lr-tb;fill:#231f20;fill-opacity:1;fill-rule:nonzero;stroke:none"
           id="text16"><tspan
             x="0 5 7.7800002"
             y="0"
             sodipodi:role="line"
             id="tspan14">xix</tspan></text>
        <path
           d="M 439.795,558.778 H 80.17 v 34 h 359.625 z"
           style="fill:#ffffff;fill-opacity:1;fill-rule:nonzero;stroke:none"
           id="path18" />
        <g
           id="g20">
          <g
             id="g22"
             clip-path="url(#clipPath26)">
            <path
               d="m 51.67,574.278 h 388.5"
               style="fill:none;stroke:#231f20;stroke-width:1.25;stroke-linecap:butt;stroke-linejoin:miter;stroke-miterlimit:10;stroke-dasharray:none;stroke-opacity:1"
               id="path28" />
          </g>
        </g>
        <path
           d="M 439.795,482.835 H 80.17 v 39.943 h 359.625 z"
           style="fill:#ffffff;fill-opacity:1;fill-rule:nonzero;stroke:none"
           id="path30" />
        <g
           id="g32">
          <g
             id="g34"
             clip-path="url(#clipPath38)">
            <path
               d="m 64.17,516.21 h 376"
               style="fill:none;stroke:#231f20;stroke-width:1.25;stroke-linecap:butt;stroke-linejoin:miter;stroke-miterlimit:10;stroke-dasharray:none;stroke-opacity:1"
               id="path40" />
          </g>
        </g>
        <text
           xml:space="preserve"
           transform="matrix(1,0,0,-1,293.532,534.7781)"
           style="font-variant:normal;font-weight:bold;font-size:36px;font-family:'Times New Roman';-inkscape-font-specification:TimesNewRomanPS-Bold;writing-mode:lr-tb;fill:#231f20;fill-opacity:1;fill-rule:nonzero;stroke:none"
           id="text44"><tspan
             x="0 19.843201 37.843201 52.7976 67.751999 92.714401 110.7144 126.162"
             y="0"
             sodipodi:role="line"
             id="tspan42">Foreword</tspan></text>
        <text
           xml:space="preserve"
           transform="matrix(1,0,0,-1,80.17,462.1681)"
           style="font-variant:normal;font-weight:normal;font-size:10px;font-family:'Times New Roman';-inkscape-font-specification:TimesNewRomanPS;writing-mode:lr-tb;fill:#231f20;fill-opacity:1;fill-rule:nonzero;stroke:none"
           id="text54"><tspan
             x="0 7.2199998 12.22 16.66 19.281 24.281 27.611 30.232 35.231998 40.231998 43.562 46.182999 49.611 53.702 58.504002 63.504002 66.834 69.613998 72.393997 76.834 79.455002 83.894997 88.334999 93.334999 98.334999 101.115 105.555 109.445 112.066 117.066 121.506 124.836 129.276 131.897 134.677 139.677 142.298 149.51801 153.95799 158.95799 166.73801 171.17799 174.508 179.508 182.129 184.909 188.799 191.42 198.64 203.08 206.41 210.3 215.3 218.08 220.58 223.201 230.22301 235.22301 240.22301 244.11301 248.55299 251.174 255.064 257.84399 261.17401 266.17401 271.17401 276.17401 278.79501 281.57501 284.35501 288.79501 293.79501 297.125 299.905 304.345 308.785 311.40601 316.15701 320.59698 325.59698 330.59698 333.927 337.81699 340.43799 344.87799 348.20801 352.64801 355.26901"
             y="0"
             sodipodi:role="line"
             id="tspan46">One of our favorite candies here in Denmark is Ga-Jol, whose strong licorice vapors are a</tspan><tspan
             x="0 5 9.4399996 12.77 16.1 20.540001 24.98 27.76 30.676001 35.116001 40.116001 47.896 52.896 55.675999 60.116001 67.896004 72.335999 77.335999 80.115997 83.031998 85.811996 90.811996 93.727997 98.727997 103.728 107.058 109.974 114.974 119.414 127.194 132.194 135.11 139.55 144.55 149.55 152.466 157.466 160.79601 163.576 168.01601 173.01601 175.93201 180.37199 185.37199 188.15199 190.93201 193.463 198.463 201.379 208.25 212.69 217.13 219.91 224.91 229.35001 232.131 234.631 237.547 242.95799 247.39799 250.92599 253.70599 256.62201 261.62201 264.952 267.86801 270.64801 275.64801 280.08801 283.004 287.444 292.444 296.884 300.41199 308.19199 311.108 316.108 319.43799 322.354 329.57401 334.01401 337.34399 341.23401 346.23401 349.01401 351.92999 354.70999"
             y="12"
             sodipodi:role="line"
             id="tspan48">perfect complement to our damp and often chilly weather. Part of the charm of Ga-Jol to</tspan><tspan
             x="0 5 8.8900003 11.553 18.773001 23.212999 28.212999 32.653 36.542999 39.206001 41.986 45.875999 48.539001 51.319 56.319 60.758999 63.422001 70.641998 73.421997 77.311996 81.751999 84.415001 89.415001 92.745003 95.407997 102.628 105.408 108.188 110.968 115.968 118.631 122.521 126.612 131.612 134.392 139.392 144.392 148.282 150.94501 155.94501 159.27499 162.05499 167.05499 169.83501 174.27499 179.27499 181.938 186.938 191.938 194.601 197.381 202.381 206.821 209.48399 215.04401 219.48399 224.48399 227.147 232.147 235.47701 238.14 242.33099 247.18201 251.62199 255.14999 260.14999 262.81299 267.81299 272.61499 277.61499 280.27802 283.05801 288.05801 293.05801 295.55801 298.22101 301.55099 304.21399 309.21399 314.21399 319.21399 324.21399 329.21399 331.99399 334.65701 339.09698 341.76001 344.54001 351.362 356.362"
             y="24"
             sodipodi:role="line"
             id="tspan50">us Danes is the wise or witty sayings printed on the ﬂap of every box top. I bought a two-</tspan><tspan
             x="0 5 9.4399996 13.88 18.879999 21.379999 26.379999 29.709999 32.209999 34.990002 39.990002 44.43 46.93 51.93 56.369999 59.150002 61.93 66.370003 70.809998 75.100998 80.100998 82.600998 85.380997 90.380997 93.161003 97.051003 99.551003 107.331 112.331 115.859 120.859 123.639 128.63901 133.63901 136.13901 140.57899 145.57899 150.57899 153.07899 156.409 161.409 166.409 171.409 176.409 178.909 181.689 186.689 191.129 193.909 196.409 199.189 201.96899 204.46899 209.46899 214.46899 217.799 222.239 224.739 227.519 232.519 235.299 239.189 241.689 246.689 249.46899 254.46899 256.96899 264.189 268.629 273.629 276.409 280.29901 285.29901 287.79901 291.689 295.73099 302.95099"
             y="36"
             sodipodi:role="line"
             id="tspan52">pack of the delicacy this morning and found that it bore this old Danish saw:</tspan></text>
        <text
           xml:space="preserve"
           transform="matrix(1,0,0,-1,98.17,411.1681)"
           style="font-style:italic;font-variant:normal;font-size:10px;font-family:'Times New Roman';-inkscape-font-specification:TimesNewRomanPS-Italic;writing-mode:lr-tb;fill:#231f20;fill-opacity:1;fill-rule:nonzero;stroke:none"
           id="text58"><tspan
             x="0 8.8900003 12.431 15.211 17.990999 22.990999 27.990999 32.431 37.431 39.931 42.710999 45.210999 49.101002 56.320999 61.320999 63.820999 66.600998 69.380997 74.380997 79.380997 81.880997 86.320999 90.210999 92.710999 95.490997 99.931 104.371 108.811 111.311 116.311 121.062 125.964 130.40401 135.40401 137.90401 140.68401 143.464 146.244 149.024 153.464 155.964 158.744 161.524 166.524"
             y="0"
             sodipodi:role="line"
             id="tspan56">Ærlighed i små ting er ikke nogen lille ting</tspan></text>
        <text
           xml:space="preserve"
           transform="matrix(1,0,0,-1,269.659,411.1681)"
           style="font-variant:normal;font-weight:normal;font-size:10px;font-family:'Times New Roman';-inkscape-font-specification:TimesNewRomanPS;writing-mode:lr-tb;fill:#231f20;fill-opacity:1;fill-rule:nonzero;stroke:none"
           id="text68"><tspan
             x="0"
             y="0"
             id="tspan60">.</tspan><tspan
             x="-189.489 -185.049 -177.82899 -172.82899 -167.82899 -163.38901 -159.49899 -156.71899 -151.71899 -148.94 -146.16 -141.16 -138.381 -134.491 -126.711 -122.271 -119.491 -116.711 -113.932 -111.152 -106.152 -103.372 -98.372002 -93.372002 -89.482002 -86.703003 -83.922997 -80.032997 -77.253998 -72.253998 -67.253998 -64.473999 -61.695 -57.255001 -54.476002 -50.585999 -42.806 -38.366001 -35.585999 -32.806 -30.027 -27.247 -22.247 -19.466999 -14.467 -9.467 -7.665 -3.2249999 -0.44600001 2.8840001 5.664 8.4429998 15.414 19.854 23.743999 26.523001 30.962999 33.742001 38.742001 43.742001 48.742001 53.742001 56.521 61.521 69.301003 73.740997 78.740997 81.519997 85.959999 90.959999 95.959999 99.849998 102.63 106.52 109.3 113.74 118.74 121.52 124.299 131.519 134.299 137.07899 142.07899 144.858 151.88 156.88 161.32001 164.10001 166.879"
             y="15"
             sodipodi:role="line"
             id="tspan62">“Honesty in small things is not a small thing.” It was a good omen consistent with what I</tspan><tspan
             x="-189.489 -185.049 -182.269 -178.939 -174.49899 -170.05901 -165.05901 -160.05901 -156.508 -149.537 -145.097 -140.097 -137.317 -132.877 -127.877 -124.326 -121.546 -116.546 -112.995 -109.105 -105.014 -100.014 -96.462997 -91.462997 -87.023003 -83.693001 -79.252998 -76.752998 -73.202003 -67.641998 -59.862 -55.422001 -52.641998 -49.862 -46.311001 -43.530998 -38.530998 -35.750999 -30.750999 -25.750999 -21.861 -18.309999 -10.53 -6.0900002 -3.3099999 -0.52999997 3.9100001 6.691 9.191 12.244 18.354 23.354 26.134001 30.024 33.575001 36.355 40.244999 43.796001 48.236 51.786999 56.786999 61.786999 66.787003 71.787003 75.337997 79.778 84.778 89.778 94.778 97.557999 101.109 106.109 111.109 118.889 123.691 126.471 130.911 134.46201 138.90199 143.90199 148.90199 153.342 157.782 161.31 166.31"
             y="27"
             sodipodi:role="line"
             id="tspan64">already wanted to say here. Small things matter. This is a book about humble concerns</tspan><tspan
             x="-189.489 -182.467 -177.467 -172.467 -168.577 -164.13699 -161.63699 -156.886 -152.446 -149.666 -144.666 -140.226 -137.726 -134.946 -131.056 -128.556 -123.556 -118.556 -113.556 -109.116 -106.336 -101.336 -96.896004 -94.115997 -89.676003 -85.786003 -81.896004 -79.396004 -75.968002 -71.528 -68.197998 -65.697998 -62.368 -59.037998 -54.037998 -46.257999 -43.757999 -39.868 -32.088001 -27.648001 -24.868 -22.087999"
             y="39"
             sodipodi:role="line"
             id="tspan66">whose value is nonetheless far from small.</tspan></text>
        <text
           xml:space="preserve"
           transform="matrix(1,0,0,-1,98.17,357.1681)"
           style="font-style:italic;font-variant:normal;font-size:10px;font-family:'Times New Roman';-inkscape-font-specification:TimesNewRomanPS-Italic;writing-mode:lr-tb;fill:#231f20;fill-opacity:1;fill-rule:nonzero;stroke:none"
           id="text72"><tspan
             x="0 7.2199998 12.22 17.219999 19.867001 22.646999 26.537001 29.184 31.964001 36.964001 39.611 42.390999 47.390999 51.831001 54.478001 59.478001 63.917999 66.697998 71.697998 74.477997 77.258003"
             y="0"
             sodipodi:role="line"
             id="tspan70">God is in the details</tspan></text>
        <text
           xml:space="preserve"
           transform="matrix(1,0,0,-1,179.302,357.1681)"
           style="font-variant:normal;font-weight:normal;font-size:10px;font-family:'Times New Roman';-inkscape-font-specification:TimesNewRomanPS;writing-mode:lr-tb;fill:#231f20;fill-opacity:1;fill-rule:nonzero;stroke:none"
           id="text94"><tspan
             x="0 2.5 5.1469998 9.0369997 13.477 16.257 21.257 23.903999 26.684 31.684 36.124001 38.771 43.210999 46.541 50.980999 55.980999 58.761002 61.541 65.981003 70.420998 73.200996 75.848 81.958 86.958 91.958 99.178001 101.958 106.958 109.605 117.385 120.165 124.605 128.495 131.142 135.89301 140.33299 145.33299 147.98 152.98 157.42 160.75 163.397 170.067 175.067 180.067 184.507 187.007 189.15601 195.26601 200.26601 203.04601 206.936 209.58299 214.58299 219.58299 224.58299 227.36301 231.80299 234.45 237.78 242.22 246.66 251.10001 253.88 256.66"
             y="0"
             sodipodi:role="line"
             id="tspan74">, said the architect Ludwig mies van der Rohe. This quote recalls</tspan><tspan
             x="-99.132004 -94.692001 -89.692001 -84.692001 -81.912003 -77.472 -69.692001 -64.692001 -59.692001 -56.362 -51.922001 -48.394001 -43.394001 -40.584999 -36.145 -32.993 -27.993 -22.993 -15.213 -10.773 -5.7729998 -2.993 0.89700001 3.7060001 8.1459999 13.146 18.146 23.146 25.926001 28.735001 31.514999 36.514999 40.955002 43.764 47.094002 52.094002 54.874001 59.313999 62.123001 67.123001 70.453003 73.262001 77.702003 81.031998 85.472 90.472 93.251999 96.031998 100.472 104.912 107.692 112.692 116.022 120.462 123.271 126.051 131.05099 133.86 137.75 142.75 146.08 148.86 155.83099 160.271 163.601 168.041 170.85001 175.85001 180.041 184.892 189.332 192.112 197.112 202.112 209.892 214.332 219.332 222.112 224.612 227.42101 231.86099 236.86099 241.86099 244.67 249.67 254.11 257.242"
             y="12"
             sodipodi:role="line"
             id="tspan76">contemporary arguments about the role of architecture in software development, and par-</tspan><tspan
             x="-99.132004 -96.352997 -93.573997 -89.135002 -84.136002 -81.357002 -76.917999 -73.588997 -71.057999 -66.058998 -63.605 -60.826 -55.827 -53.373001 -50.594002 -45.595001 -41.155998 -39.250999 -32.032001 -27.033001 -24.254 -21.475 -17.035999 -14.582 -7.7600002 -2.7609999 0.56800002 3.3469999 8.3459997 10.845 13.299 19.968 24.966999 29.966 32.419998 36.859001 41.858002 46.856998 49.311001 52.639999 55.094002 60.092999 64.531998 68.971001 73.410004 77.299004 80.078003 85.077003 90.075996 94.514999 97.293999 99.824997 104.824 107.278 112.837 117.836 122.835 125.289 130.28799 135.287 138.616 142.505 146.944 149.72301 154.57401 159.013 162.90199 165.356 170.355 174.79401 178.683 182.57201 185.351 190.35001 195.349 199.78799 202.567 207.006 209.537 214.536 216.99001 221.429 226.42799 231.427 235.866 240.86501 245.304 250.30299 252.757 255.536"
             y="24"
             sodipodi:role="line"
             id="tspan78">ticularly in the Agile world. Bob and I occasionally ﬁnd ourselves passionately engaged in</tspan><tspan
             x="-99.132004 -96.351997 -91.351997 -88.571999 -84.681999 -82.336998 -77.336998 -74.556999 -70.116997 -67.336998 -62.585999 -57.585999 -52.585999 -48.146 -45.646 -43.849998 -36.630001 -31.629999 -26.629999 -24.285 -19.483 -15.043 -11.153 -8.6529999 -6.3080001 1.472 4.2519999 8.6920004 12.582 14.927 19.677999 24.118 29.118 31.462999 36.463001 40.903 44.233002 46.577999 53.248001 58.248001 63.248001 67.688004 70.032997 77.003998 81.444 85.334 87.679001 92.119003 94.899002 97.679001 102.119 107.119 109.899 112.43 117.281 121.721 124.066 126.846 131.84599 134.19099 139.19099 141.97099 144.75101 147.53101 150.311 153.091 158.091 160.436 164.87601 169.87601 174.87601 177.22099 180.00101 185.00101 187.34599 190.12601 195.12601 199.56599 201.911 204.69099 207.47099 215.25101 219.69099 222.47099 226.911 230.80099 234.69099 237.036 240.366 245.366 248.894 256.67401"
             y="36"
             sodipodi:role="line"
             id="tspan80">this dialogue. And yes, mies van der Rohe was attentive to utility and to the timeless forms</tspan><tspan
             x="-99.132004 -94.130997 -90.800003 -88.121002 -83.120003 -78.119003 -75.337997 -72.556999 -67.556 -64.775002 -59.773998 -54.772999 -52.094002 -49.313 -44.312 -39.870998 -37.09 -34.410999 -29.41 -24.409 -19.408001 -14.967 -11.636 -8.8549995 -6.0739999 -1.633 1.046 6.244 9.5749998 14.016 18.457001 21.238001 23.917 28.358 31.688999 36.130001 41.131001 43.911999 46.693001 51.133999 55.575001 58.355999 63.356998 66.688004 71.128998 73.629997 76.308998 83.529999 88.530998 91.209999 93.990997 98.991997 103.433 106.112 111.113 113.894 118.895 123.336 126.667 129.34599 134.347 138.78799 143.789 148.19099 150.692 153.371 158.37199 162.813 165.492 169.933 172.714 176.605 181.606 184.285 189.286 193.72701 197.058 200.94901 205.95 210.951 215.392 218.173 220.70399 225.705 228.384 232.27499 236.716 239.49699 243.938 248.379 251.16 255.601"
             y="48"
             sodipodi:role="line"
             id="tspan82">of building that underlie great architecture. On the other hand, he also personally selected</tspan><tspan
             x="-99.132004 -94.941002 -90.091003 -85.651001 -82.123001 -77.123001 -74.623001 -69.623001 -64.623001 -59.623001 -56.292999 -51.292999 -46.292999 -41.292999 -36.292999 -33.792999 -30.462999 -25.462999 -22.132999 -19.632999 -15.442 -10.591 -6.151 -2.6229999 2.3770001 4.8769999 9.8769999 14.877 19.877001 23.767 28.207001 30.707001 35.707001 40.146999 42.646999 47.646999 52.087002 55.977001 58.757 63.757 68.757004 73.196999 78.196999 80.696999 82.899002 92.338997 97.041 102.041 106.481 108.981 115.651 120.091 124.531 128.97099 133.97099 137.86099 142.30099 144.80099 148.69099 156.47099 160.911 163.69099 166.47099 168.97099 171.75101 176.75101 179.53101 184.53101 189.53101 193.42101 195.92101 203.701 208.14101 210.92101 213.701 218.14101 220.922"
             y="60"
             sodipodi:role="line"
             id="tspan84">every doorknob for every house he designed. Why? Because small things matter.</tspan><tspan
             x="-81.132004 -77.802002 -72.802002 -69.917 -64.917 -59.917 -56.587002 -53.702 -48.702 -43.702 -38.702 -33.702 -30.922001 -25.922001 -20.922001 -18.037001 -13.597 -8.5970001 -4.1570001 0.84299999 5.283 8.0629997 12.503 16.943001 19.827999 24.827999 29.827999 32.215 38.325001 45.544998 52.167 54.667 57.551998 64.222 69.222 74.222 77.107002 81.546997 86.546997 91.546997 94.431999 97.762001 100.647 105.647 109.738 114.589 119.029 121.914 126.914 129.694 133.584 138.024 142.575 147.42599 151.866 155.196 159.636 164.636 167.521 170.30099 175.30099 179.741 182.521 185.40601 192.27699 196.717 199.60201 204.04201 209.24001 212.57001 217.00999 221.45 224.33501 227.11501 232.11501 236.55499 239.33501 242.22 246.11 251.11 254.44 257.22"
             y="75"
             sodipodi:role="line"
             id="tspan86">In our ongoing “debate” on TDD, Bob and I have discovered that we agree that soft-</tspan><tspan
             x="-99.132004 -92.161003 -87.721001 -84.390999 -79.950996 -77.056 -72.615997 -69.286003 -64.846001 -59.846001 -57.066002 -54.285999 -49.846001 -45.405998 -42.625999 -37.625999 -34.296001 -29.856001 -26.961 -21.961 -17.521 -13.631 -10.736 -6.296 -1.296 1.599 4.3790002 12.159 17.159 22.159 25.687 28.466999 32.907001 37.907001 40.687 43.582001 48.582001 51.362 55.801998 60.242001 64.681999 67.577003 70.357002 75.357002 78.251999 83.251999 87.443001 92.293999 96.734001 99.514 104.514 109.514 117.294 121.734 126.734 129.51401 132.01401 134.909 137.689 142.689 147.689 152.689 157.689 162.689 165.584 172.455 176.895 179.78999 182.57001 185.35001 190.252 194.692 197.22301 202.22301 205.118 210.118 214.209 219.06 223.5 226.395 231.395 234.175 237.256 240.586 245.026 248.356 252.79601 257.79599"
             y="87"
             sodipodi:role="line"
             id="tspan88">ware architecture has an important place in development, though we likely have different</tspan><tspan
             x="-99.132004 -94.132004 -91.351997 -87.461998 -84.681999 -79.681999 -74.681999 -70.792 -66.950996 -61.951 -58.620998 -54.779999 -50.488998 -45.488998 -41.049 -36.609001 -33.828999 -31.298 -26.298 -22.457001 -15.435 -10.435 -5.9949999 -3.2149999 0.62599999 3.4059999 8.4060001 12.846 15.626 19.466999 27.247 31.687 36.126999 41.126999 45.016998 47.516998 51.358002 56.917999 61.917999 66.358002 71.358002 75.198997 80.198997 85.198997 87.978996 92.978996 97.780998 100.561 105.001 108.891 112.732 117.172 120.502 124.942 128.783 132.11301 136.55299 139.33299 143.77299 146.55299 149.084 153.935 158.375 160.90601 165.90601 169.74699 174.74699 179.74699 182.52699 190.30701 195.30701 200.30701 203.83501 206.61501 211.05499 216.05499 218.83501 221.33501 225.17599 230.17599 234.778 241.649 245.84 250.69099 255.131 258.06299"
             y="99"
             sodipodi:role="line"
             id="tspan90">visions of exactly what that means. Such quibbles are relatively unimportant, however,</tspan><tspan
             x="-99.132004 -94.132004 -89.692001 -85.251999 -80.811996 -75.811996 -71.921997 -67.482002 -64.749001 -57.877998 -53.438 -50.705002 -46.264999 -41.825001 -36.825001 -34.091999 -29.652 -25.212 -20.771999 -16.332001 -11.332 -8.552 -5.8189998 -2.4890001 2.5109999 5.8410001 8.5740004 13.772 17.101999 21.542 26.542 29.322001 33.762001 38.762001 41.494999 44.275002 49.275002 53.715 56.494999 59.228001 62.557999 66.998001 70.888 75.888 80.888 85.888 89.778 92.557999 97.360001 100.14 104.58 107.313 112.313 115.643 120.643 123.973 128.41299 132.30299 136.19299 138.97301 143.97301 148.97301 153.41299 156.19299 160.08299 162.81599 167.81599 170.347 175.198 179.638"
             y="111"
             sodipodi:role="line"
             id="tspan92">because we can accept for granted that responsible professionals give </tspan></text>
        <text
           xml:space="preserve"
           transform="matrix(1,0,0,-1,361.612,246.1681)"
           style="font-style:italic;font-variant:normal;font-size:10px;font-family:'Times New Roman';-inkscape-font-specification:TimesNewRomanPS-Italic;writing-mode:lr-tb;fill:#231f20;fill-opacity:1;fill-rule:nonzero;stroke:none"
           id="text98"><tspan
             x="0 3.8900001 8.8900003 16.110001"
             y="0"
             sodipodi:role="line"
             id="tspan96">some</tspan></text>
        <text
           xml:space="preserve"
           transform="matrix(1,0,0,-1,384.892,246.1681)"
           style="font-variant:normal;font-weight:normal;font-size:10px;font-family:'Times New Roman';-inkscape-font-specification:TimesNewRomanPS;writing-mode:lr-tb;fill:#231f20;fill-opacity:1;fill-rule:nonzero;stroke:none"
           id="text104"><tspan
             x="0 2.78 5.5599999 13.34 17.780001 20.513 23.292999 28.292999 31.025999 33.806 38.806 41.585999 46.585999 51.585999"
             y="0"
             sodipodi:role="line"
             id="tspan100">time to think-</tspan><tspan
             x="-304.72198 -301.94199 -296.94199 -291.94199 -289.53699 -285.09698 -280.09698 -275.09698 -272.69199 -267.69199 -264.91199 -260.47198 -255.472 -250.472 -247.692 -242.692 -237.692 -235.287 -230.847 -228.067 -225.662 -222.882 -217.882 -213.442 -211.037 -206.037 -201.037 -198.257 -194.367 -189.927 -187.147 -184.742 -179.742 -176.412 -174.007 -169.567 -167.162 -162.162 -158.832 -153.832 -151.052 -146.612 -142.172 -139.392 -136.892 -134.985 -128.875 -123.875 -119.435 -117.03 -114.25 -109.81 -107.03 -102.59 -99.260002 -94.260002 -89.260002 -84.260002 -79.260002 -75.370003 -72.964996 -67.964996 -62.965 -60.185001 -57.404999 -52.404999 -47.404999 -43.514999 -41.110001 -36.110001 -32.779999 -30.375 -25.375 -20.934999 -17.045 -14.265 -9.2650003 -4.2649999 -1.86 3.1400001 6.4699998 9.0010004 13.852 18.292 23.292"
             y="12"
             sodipodi:role="line"
             id="tspan102">ing and planning at the outset of a project. The late-1990s notions of design driven </tspan></text>
        <text
           xml:space="preserve"
           transform="matrix(1,0,0,-1,410.52,234.1681)"
           style="font-style:italic;font-variant:normal;font-size:10px;font-family:'Times New Roman';-inkscape-font-specification:TimesNewRomanPS-Italic;writing-mode:lr-tb;fill:#231f20;fill-opacity:1;fill-rule:nonzero;stroke:none"
           id="text108"><tspan
             x="0 5 10 12.682"
             y="0"
             sodipodi:role="line"
             id="tspan106">only</tspan></text>
        <text
           xml:space="preserve"
           transform="matrix(1,0,0,-1,430.044,234.1681)"
           style="font-variant:normal;font-weight:normal;font-size:10px;font-family:'Times New Roman';-inkscape-font-specification:TimesNewRomanPS;writing-mode:lr-tb;fill:#231f20;fill-opacity:1;fill-rule:nonzero;stroke:none"
           id="text128"><tspan
             x="0 4.7509999"
             y="0"
             sodipodi:role="line"
             id="tspan110">by</tspan><tspan
             x="-349.87399 -347.09399 -342.09399 -337.65399 -334.147 -331.367 -326.927 -323.03699 -320.25699 -316.367 -312.85999 -308.42001 -303.42001 -298.42001 -294.91299 -292.133 -287.133 -282.69299 -279.186 -274.746 -269.746 -264.746 -260.306 -256.79901 -252.35899 -249.02901 -244.589 -241.082 -238.302 -233.302 -228.302 -223.302 -219.795 -214.795 -209.795 -204.795 -200.355 -197.855 -195.246 -189.625 -185.185 -182.405 -178.89799 -174.45799 -171.67799 -168.89799 -164.45799 -159.45799 -156.67799 -154.147 -149.29601 -144.856 -139.856 -135.416 -131.526 -127.636 -124.129 -121.349 -116.349 -112.842 -107.842 -103.402 -100.622 -96.181999 -93.402 -90.622002 -87.114998 -84.334999 -80.445 -76.938004 -72.498001 -67.498001 -63.991001 -59.799999 -54.949001 -50.508999 -45.508999 -42.001999 -34.222 -29.222 -25.892 -21.452 -17.945 -13.505 -10.175 -7.395 -4.6149998 -1.835 2.605 7.0450001"
             y="12"
             sodipodi:role="line"
             id="tspan112">the tests and the code are long gone. Yet attentiveness to detail is an even more critical</tspan><tspan
             x="-349.87399 -346.54401 -341.54401 -336.54401 -331.54401 -326.54401 -322.104 -319.32401 -316.54401 -311.54401 -306.54401 -303.60999 -298.60999 -295.28 -292.34601 -287.34601 -284.01599 -279.01599 -275.686 -271.246 -267.35599 -263.466 -260.686 -255.686 -250.686 -246.246 -243.466 -240.686 -236.79601 -229.01601 -226.082 -223.302 -218.302 -213.862 -208.862 -205.92799 -203.14799 -199.258 -196.32401 -191.884 -187.133 -182.133 -179.19901 -174.00101 -170.67101 -166.231 -161.231 -156.231 -153.297 -148.297 -145.517 -141.627 -138.847 -133.847 -128.847 -126.347 -123.413 -118.051 -115.271 -111.941 -108.051 -105.271 -102.771 -99.836998 -97.056999 -94.277 -91.343002 -88.563004 -84.672997 -81.738998 -78.959 -73.959 -70.628998 -65.628998 -60.629002 -55.629002 -50.629002 -47.695 -42.695 -39.365002 -34.924999 -30.485001 -27.705 -24.924999 -20.485001 -16.045 -13.111 -10.331 -5.3309999 -2.3970001 0.38299999 5.3829999"
             y="24"
             sodipodi:role="line"
             id="tspan114">foundation of professionalism than is any grand vision. First, it is through practice in the</tspan><tspan
             x="-349.87399 -345.98499 -338.20599 -333.767 -330.98801 -328.20901 -324.62 -321.841 -316.84201 -312.40302 -309.62399 -306.035 -301.03601 -297.707 -292.70801 -289.379 -284.94 -281.05099 -277.16199 -274.383 -269.384 -264.38501 -259.94601 -257.16699 -253.278 -249.689 -244.69 -240.25101 -237.472 -232.47301 -228.884 -223.88499 -220.556 -215.55701 -209.998 -205.55901 -202.78 -198.341 -193.342 -189.05099 -184.052 -180.463 -176.024 -171.02499 -166.026 -162.437 -159.658 -156.13 -151.131 -147.242 -144.463 -140.87399 -137.545 -132.54601 -129.217 -125.628 -120.629 -117.3 -112.861 -108.422 -105.643 -102.864 -98.425003 -93.986 -90.397003 -87.617996 -82.619003 -79.029999 -76.250999 -71.251999 -66.813004 -63.223999 -60.445 -56.006001 -52.854 -47.855 -43.416 -40.917 -37.327999 -31.768999 -27.33 -22.891001 -17.892 -12.893 -8.4910002 -5.9920001 -2.4030001 0.37599999 5.375"
             y="36"
             sodipodi:role="line"
             id="tspan116">small that professionals gain proﬁciency and trust for practice in the large. Second, the</tspan><tspan
             x="-349.87399 -345.98401 -338.20401 -333.76401 -330.98401 -328.20401 -323.76401 -319.87399 -317.09399 -313.90799 -308.90799 -306.12799 -303.34799 -300.16199 -295.16199 -291.832 -288.646 -284.75601 -281.97601 -276.97601 -271.97601 -267.27399 -262.27399 -259.08801 -254.64799 -249.64799 -244.64799 -240.758 -237.978 -234.45 -229.45 -225.00999 -222.23 -219.45 -214.45 -209.45 -206.95 -203.76401 -198.76401 -195.43401 -192.248 -189.468 -184.468 -180.028 -176.842 -171.842 -166.842 -161.842 -158.51199 -155.326 -152.54601 -147.54601 -143.106 -140.326 -137.14 -132.14 -127.14 -122.7 -118.81 -115.624 -110.624 -105.624 -102.844 -99.657997 -95.218002 -92.438004 -87.438004 -83.547997 -79.108002 -75.921997 -73.141998 -70.362 -65.362 -60.362 -57.582001 -55.050999 -50.050999 -46.865002 -41.865002 -38.535 -35.348999 -32.569 -27.569 -23.129 -19.943001 -16.052999 -13.273 -10.493 -5.493 -0.493 2.2869999 4.8179998"
             y="48"
             sodipodi:role="line"
             id="tspan118">smallest bit of sloppy construction, of the door that does not close tightly or the slightly</tspan><tspan
             x="-349.87399 -345.43399 -342.104 -337.104 -332.104 -327.202 -322.76199 -317.76199 -313.97501 -311.19501 -308.41501 -305.63501 -301.19501 -297.40799 -292.40799 -287.40799 -283.621 -280.841 -275.841 -271.401 -267.61401 -262.05399 -257.05399 -252.054 -249.12199 -246.62199 -242.83501 -237.83501 -234.505 -230.718 -226.52699 -221.67599 -217.23599 -212.23599 -208.44901 -205.66901 -200.66901 -196.229 -192.442 -184.662 -180.222 -176.332 -172.442 -167.442 -163.655 -158.655 -154.215 -150.325 -145.325 -142.825 -139.03799 -134.59801 -129.59801 -121.818 -116.818 -114.038 -109.598 -106.818 -102.378 -99.847 -94.847 -91.059998 -86.059998 -83.279999 -79.389999 -74.389999 -69.949997 -67.169998 -63.279999 -59.493 -56.713001 -51.713001 -47.272999 -43.486 -39.046001 -34.046001 -29.606001 -26.077999 -18.298 -14.511 -9.5109997 -6.1810002 -2.3940001 0.38600001 5.3860002"
             y="60"
             sodipodi:role="line"
             id="tspan120">crooked tile on the ﬂoor, or even the messy desk, completely dispels the charm of the</tspan><tspan
             x="-349.87399 -347.09399 -342.65399 -339.50201 -334.50201 -330.06201 -326.73199 -324.23199 -317.20999 -312.20999 -307.20999 -304.42999 -299.98999 -297.48999 -295.48801 -289.37799 -284.37799 -279.93799 -277.15799 -274.65799 -271.87799 -267.98801 -265.48801 -258.466 -253.466 -249.026 -246.246 -243.746 -239.306 -236.526 -232.086 -227.646 -222.646 -220.146 -215.70599 -210.70599 -205.70599 -201.26601 -198.76601 -195.98599 -192.09599 -189.59599 -185.15601 -180.15601 -175.15601 -170.15601 -167.37601"
             y="72"
             sodipodi:role="line"
             id="tspan122">larger whole. That is what clean code is about.</tspan><tspan
             x="-331.87399 -326.314 -323.534 -320.754 -317.974 -315.194 -312.694 -310.194 -305.754 -302.42401 -297.98401 -292.98401 -290.20401 -287.42401 -282.98401 -278.54401 -275.76401 -270.76401 -267.43399 -262.99399 -260.49399 -257.71399 -253.82401 -251.32401 -248.54401 -243.54401 -239.65401 -236.87399 -234.37399 -229.37399 -224.37399 -219.93401 -217.43401 -209.65401 -205.214 -202.43401 -197.994 -192.994 -187.994 -182.994 -179.664 -177.164 -173.834 -168.834 -165.504 -163.004 -159.114 -154.114 -150.784 -148.004 -141.033 -136.593 -133.263 -128.823 -126.323 -121.323 -117.132 -112.281 -107.841 -105.061 -100.061 -95.060997 -87.280998 -82.841003 -77.841003 -75.060997 -72.560997 -70.060997 -65.621002 -60.620998 -55.620998 -53.120998 -50.341 -45.341 -42.841 -37.841 -33.401001 -29.872999 -27.093 -24.313 -19.872999 -14.873 -12.093 -7.6529999 -4.323 -1.823 1.507 6.507"
             y="87"
             sodipodi:role="line"
             id="tspan124">Still, architecture is just one metaphor for software development, and in particular for</tspan><tspan
             x="-349.87399 -347.09399 -342.09399 -337.65399 -334.87399 -331.34799 -326.34799 -321.90799 -318.38 -315.60001 -312.07401 -307.07401 -303.74399 -300.21799 -296.328 -291.328 -287.99799 -285.21799 -278.24701 -273.80701 -270.47699 -266.03699 -262.51099 -259.73099 -254.731 -250.291 -247.511 -243.985 -238.985 -234.545 -231.765 -229.23399 -224.383 -219.94299 -216.61301 -212.72301 -209.19701 -206.41701 -201.41701 -196.97701 -193.451 -190.67101 -185.67101 -182.89101 -180.11099 -177.33099 -172.89101 -170.11099"
             y="99"
             sodipodi:role="line"
             id="tspan126">that part of software that delivers the initial </tspan></text>
        <text
           xml:space="preserve"
           transform="matrix(1,0,0,-1,263.409,135.1681)"
           style="font-style:italic;font-variant:normal;font-size:10px;font-family:'Times New Roman';-inkscape-font-specification:TimesNewRomanPS-Italic;writing-mode:lr-tb;fill:#231f20;fill-opacity:1;fill-rule:nonzero;stroke:none"
           id="text132"><tspan
             x="0 5 8.441 13.441 18.441 23.441 27.881001"
             y="0"
             sodipodi:role="line"
             id="tspan130">product</tspan></text>
        <text
           xml:space="preserve"
           transform="matrix(1,0,0,-1,297.592,135.1681)"
           style="font-variant:normal;font-weight:normal;font-size:10px;font-family:'Times New Roman';-inkscape-font-specification:TimesNewRomanPS;writing-mode:lr-tb;fill:#231f20;fill-opacity:1;fill-rule:nonzero;stroke:none"
           id="text140"><tspan
             x="0 2.78 7.7800002 11.306 14.086 19.086 23.525999 27.052 30.941999 35.382 43.161999 47.602001 51.127998 55.018002 59.458 64.458 68.348 72.788002 76.314003 79.094002 84.094002 88.533997 91.314003 94.839996 99.279999 104.28 107.806 112.246 115.576 120.016 125.016 127.796 130.576 135.01601 139.45599"
             y="0"
             sodipodi:role="line"
             id="tspan134">in the same sense that an architect</tspan><tspan
             x="-217.422 -212.42101 -207.98 -205.19901 -202.668 -197.817 -193.37601 -190.045 -186.15401 -182.308 -177.867 -174.021 -169.02 -165.689 -162.908 -159.017 -156.23599 -153.455 -148.45399 -144.013 -140.16701 -135.166 -130.16499 -127.384 -124.603 -119.602 -116.821 -111.82 -106.819 -104.318 -100.472 -97.140999 -92.139999 -88.293999 -85.513 -80.512001 -76.070999 -72.18 -67.738998 -63.893002 -58.891998 -54.800999 -49.799999 -45.909 -42.063 -37.062 -33.730999 -29.885 -24.323999 -19.882999 -16.355 -11.354 -3.573 0.273 4.7140002 9.7150002 14.716 18.013 25.233999 30.235001 33.015999 35.797001 40.237999 42.738998 46.584999 49.366001 54.367001 58.807999 62.653999 65.985001 70.986 75.427002 80.428001 84.319 88.165001 90.945999 94.836998 98.682999 103.684 108.685 112.531 117.532 122.533 125.314 129.755 134.756 137.287"
             y="12"
             sodipodi:role="line"
             id="tspan136">delivers a pristine building. In these days of Scrum and Agile, the focus is on quickly</tspan><tspan
             x="-217.422 -212.422 -209.092 -206.312 -201.312 -196.312 -193.532 -188.532"
             y="24"
             sodipodi:role="line"
             id="tspan138">bringing</tspan></text>
        <text
           xml:space="preserve"
           transform="matrix(1,0,0,-1,116.471,111.1681)"
           style="font-style:italic;font-variant:normal;font-size:10px;font-family:'Times New Roman';-inkscape-font-specification:TimesNewRomanPS-Italic;writing-mode:lr-tb;fill:#231f20;fill-opacity:1;fill-rule:nonzero;stroke:none"
           id="text144"><tspan
             x="0 5 8.441 13.441 18.441 23.441 27.881001"
             y="0"
             sodipodi:role="line"
             id="tspan142">product</tspan></text>
        <text
           xml:space="preserve"
           transform="matrix(1,0,0,-1,149.545,111.1681)"
           style="font-variant:normal;font-weight:normal;font-size:10px;font-family:'Times New Roman';-inkscape-font-specification:TimesNewRomanPS;writing-mode:lr-tb;fill:#231f20;fill-opacity:1;fill-rule:nonzero;stroke:none"
           id="text152"><tspan
             x="0 2.78 7.7800002 10.197 17.976999 22.417 25.747 30.649 35.089001 37.868999 40.368999 42.487999 50.928001 55.368 57.785 64.755997 69.195999 74.195999 76.975998 79.392998 82.172997 87.172997 91.612999 94.029999 97.458 101.898 106.338 109.118 114.118 117.646 122.646 125.063 128.591 133.591 138.591 143.591 146.371 151.371 156.371 158.78799 163.228 166.008 168.425 171.205 176.205 181.205 183.62199 187.51199 192.51199 196.952 201.392 206.392 208.80901 211.589 216.589 219.006 224.006 227.336 232.336 237.336 242.336 246.776 251.216 253.633 257.52301 262.52301 265.853 268.633 275.604 280.04401 283.37399 287.814"
             y="0"
             sodipodi:role="line"
             id="tspan146">to market. We want the factory running at top speed to produce software.</tspan><tspan
             x="-69.375 -63.264999 -58.264999 -53.825001 -49.935001 -45.494999 -43.143002 -38.702999 -35.373001 -30.933001 -28.580999 -23.580999 -18.580999 -10.801 -6.3610001 -1.3609999 0.991 4.4190001 8.8590002 13.299 16.079 21.079 24.409 27.188999 31.629 35.519001 38.299 40.651001 43.431 48.431 51.210999 56.210999 61.210999 63.991001 68.990997 73.990997 76.490997 78.843002 82.172997 86.612999 91.053001 93.833 96.612999 101.613 106.613 108.965 113.405 118.405 123.405 127.845 131.175 135.065 137.41701 144.439 149.439 154.439 156.791 161.231 164.561 169.00101 171.353 178.175 183.175 186.505 191.505 194.285 199.285 204.285 206.63699 209.967 213.297 218.297 226.077 228.429 232.869 235.22099 240.22099 243.55099 248.55099 253.55099 258.55099 262.991 265.771 268.12299 273.12299 277.56299 282.00299 287.00299"
             y="12"
             sodipodi:role="line"
             id="tspan148">These are human factories: thinking, feeling coders who are working from a product back-</tspan><tspan
             x="-69.375 -66.595001 -61.844002 -56.844002 -54.446999 -49.446999 -46.117001 -43.720001 -38.720001 -34.830002 -30.389999 -27.059999 -24.663 -20.773001 -17.993 -12.993 -9.4650002 -4.4650002 -2.0680001 0.71200001 5.7119999 8.1090002 12.549 15.879 20.319 24.759001 27.539 31.979"
             y="24"
             sodipodi:role="line"
             id="tspan150">log or user story to create </tspan></text>
        <text
           xml:space="preserve"
           transform="matrix(1,0,0,-1,183.895,87.1681)"
           style="font-style:italic;font-variant:normal;font-size:10px;font-family:'Times New Roman';-inkscape-font-specification:TimesNewRomanPS-Italic;writing-mode:lr-tb;fill:#231f20;fill-opacity:1;fill-rule:nonzero;stroke:none"
           id="text156"><tspan
             x="0 5 8.441 13.441 18.441 23.441 27.881001"
             y="0"
             sodipodi:role="line"
             id="tspan154">product</tspan></text>
        <text
           xml:space="preserve"
           transform="matrix(1,0,0,-1,214.552,87.1681)"
           style="font-variant:normal;font-weight:normal;font-size:10px;font-family:'Times New Roman';-inkscape-font-specification:TimesNewRomanPS;writing-mode:lr-tb;fill:#231f20;fill-opacity:1;fill-rule:nonzero;stroke:none"
           id="text164"><tspan
             x="0 2.5 4.3990002 10.509 15.509 19.948999 22.346001 30.125999 34.566002 39.566002 44.566002 47.993999 52.433998 56.874001 59.653999 64.653999 67.984001 70.764 75.764 80.764 83.161003 90.941002 95.380997 98.161003 102.601 107.601 112.601 117.601 120.931 123.328 126.108 131.108 136.108 143.888 147.778 150.175 154.366 159.217 163.657 166.987 169.384 173.274 176.054 179.384 184.384 189.384 194.384 196.78101 199.561 204.561 206.95799 210.84801 215.84801 220.28799"
             y="0"
             sodipodi:role="line"
             id="tspan158">. The manufacturing metaphor looms ever strong in such</tspan><tspan
             x="-134.382 -131.60201 -126.602 -123.822 -118.822 -113.822 -111.042 -106.042 -101.042 -98.542 -94.869003 -88.759003 -83.759003 -79.319 -75.148003 -70.148003 -66.818001 -61.818001 -56.818001 -51.818001 -47.377998 -44.598 -41.818001 -36.818001 -31.818001 -27.646999 -23.207001 -19.316999 -14.317 -9.8769999 -5.4369998 -2.6570001 1.233 5.4039998 10.404 13.734 17.905001 21.795 26.235001 31.235001 35.674999 40.674999 45.115002 49.005001 53.445 57.616001 62.056 67.056 69.835999 74.835999 79.007004 86.787003 91.226997 96.226997 101.227 104.655 109.095 113.535 116.315 121.315 124.645 127.425 132.425 137.425 139.925 144.09599 149.09599 152.42599 156.597 161.037 166.037 170.20799 174.64799 178.53799 182.42799 186.868 194.64799 199.45 201.981 206.981 210.311 213.091 215.871 220.871"
             y="12"
             sodipodi:role="line"
             id="tspan160">thinking. The production aspects of Japanese auto manufacturing, of an assembly-line</tspan><tspan
             x="-134.382 -127.56 -122.56 -119.23 -116.45 -112.048 -109.548 -107.048 -104.268 -99.267998 -95.377998 -90.377998 -87.598 -84.267998 -79.828003 -77.328003 -69.547997 -64.547997 -60.108002 -55.108002 -52.608002 -47.608002 -44.278 -41.778 -36.217999 -31.778 -28.25 -23.25 -15.47"
             y="24"
             sodipodi:role="line"
             id="tspan162">world, inspire much of Scrum.</tspan></text>
        <g
           id="g166">
          <g
             id="g168"
             clip-path="url(#clipPath172)">
            <path
               d="m -37.08,664.778 h 36 m -36,-666 h 36 m 522,0 h 36 m -36,666 h 36 m -549,45 v -36 m 504,36 v -36 m 0,-684 v -36 m -504,36 v -36"
               style="fill:none;stroke:#ffffff;stroke-width:0.75;stroke-linecap:butt;stroke-linejoin:miter;stroke-miterlimit:10;stroke-dasharray:none;stroke-opacity:1"
               id="path174" />
            <path
               d="m -37.08,664.778 h 36 m -36,-666 h 36 m 522,0 h 36 m -36,666 h 36 m -549,45 v -36 m 504,36 v -36 m 0,-684 v -36 m -504,36 v -36 m -12,378 c 0,3.312 -2.688,6 -6,6 -3.312,0 -6,-2.688 -6,-6 0,-3.312 2.688,-6 6,-6 3.312,0 6,2.688 6,6 z m -24,0 h 27 m -9,24 v -48 m 545.94,24 c 0,3.312 -2.688,6 -6,6 -3.312,0 -6,-2.688 -6,-6 0,-3.312 2.688,-6 6,-6 3.312,0 6,2.688 6,6 z m -14.94,0 h 27 m -18,24 v -48 m -534,345 c 0,3.312 -2.688,6 -6,6 -3.312,0 -6,-2.688 -6,-6 0,-3.312 2.688,-6 6,-6 3.312,0 6,2.688 6,6 z m -24,0 h 27 m -9,9 v -33 m 6,-618 c 0,3.312 -2.688,6 -6,6 -3.312,0 -6,-2.688 -6,-6 0,-3.312 2.688,-6 6,-6 3.312,0 6,2.688 6,6 z m -24,0 h 27 m -9,24 v -33 m 545.94,651 c 0,3.312 -2.688,6 -6,6 -3.312,0 -6,-2.688 -6,-6 0,-3.312 2.688,-6 6,-6 3.312,0 6,2.688 6,6 z m -14.94,0 h 27 m -18,9 v -33 m 5.94,-618 c 0,3.312 -2.688,6 -6,6 -3.312,0 -6,-2.688 -6,-6 0,-3.312 2.688,-6 6,-6 3.312,0 6,2.688 6,6 z m -14.94,0 h 27 m -18,24 v -33"
               style="fill:none;stroke:#000000;stroke-width:0.25;stroke-linecap:butt;stroke-linejoin:miter;stroke-miterlimit:10;stroke-dasharray:none;stroke-opacity:1"
               id="path176" />
          </g>
        </g>
      </g>
    </g>
    <g
       id="g178">
      <g
         id="g180"
         transform="translate(218,6.56)">
        <text
           xml:space="preserve"
           transform="scale(1,-1)"
           style="font-variant:normal;font-weight:normal;font-size:10px;font-family:Helvetica;-inkscape-font-specification:Helvetica;writing-mode:lr-tb;fill:#0000ff;fill-opacity:1;fill-rule:nonzero;stroke:none"
           id="text184"><tspan
             x="0 7.2199998 14.44 21.66 24.440001 26.66 29.440001 32.77 38.330002 43.889999 49.450001 55.009998 60.009998 65.010002 67.790001 70.010002 75.57 78.349998"
             y="0"
             sodipodi:role="line"
             id="tspan182">www.it-ebooks.info</tspan></text>
        <g
           id="g186"
           transform="translate(-218,-6.56)" />
      </g>
    </g>
  </g>
</svg>
