<?xml version="1.0" encoding="UTF-8" standalone="no"?>
<!-- Created with Inkscape (http://www.inkscape.org/) -->

<svg
   version="1.1"
   id="svg2"
   width="690.14398"
   height="888.47998"
   viewBox="0 0 690.14398 888.47998"
   sodipodi:docname="4PmrqTPDrJV6cyWn.pdf"
   xmlns:inkscape="http://www.inkscape.org/namespaces/inkscape"
   xmlns:sodipodi="http://sodipodi.sourceforge.net/DTD/sodipodi-0.dtd"
   xmlns="http://www.w3.org/2000/svg"
   xmlns:svg="http://www.w3.org/2000/svg">
  <defs
     id="defs6">
    <clipPath
       clipPathUnits="userSpaceOnUse"
       id="clipPath192">
      <path
         d="M 0,665.858 H 519.84 V 0 H 0 Z"
         id="path190" />
    </clipPath>
  </defs>
  <sodipodi:namedview
     id="namedview4"
     pagecolor="#ffffff"
     bordercolor="#000000"
     borderopacity="0.25"
     inkscape:showpageshadow="2"
     inkscape:pageopacity="0.0"
     inkscape:pagecheckerboard="0"
     inkscape:deskcolor="#d1d1d1" />
  <g
     id="g8"
     inkscape:groupmode="layer"
     inkscape:label="4PmrqTPDrJV6cyWn"
     transform="matrix(1.3333333,0,0,-1.3333333,-1.46,887.61333)">
    <g
       id="g10">
      <g
         id="g12">
        <text
           xml:space="preserve"
           transform="matrix(1,0,0,-1,79.92,622.111)"
           style="font-variant:normal;font-weight:normal;font-size:10px;font-family:'Times New Roman';-inkscape-font-specification:TimesNewRomanPS;writing-mode:lr-tb;fill:#231f20;fill-opacity:1;fill-rule:nonzero;stroke:none"
           id="text16"><tspan
             x="0 5"
             y="0"
             sodipodi:role="line"
             id="tspan14">xx</tspan></text>
        <text
           xml:space="preserve"
           transform="matrix(1,0,0,-1,398.31,622.111)"
           style="font-variant:normal;font-weight:bold;font-size:10px;font-family:'Times New Roman';-inkscape-font-specification:TimesNewRomanPS-Bold;writing-mode:lr-tb;fill:#231f20;fill-opacity:1;fill-rule:nonzero;stroke:none"
           id="text20"><tspan
             x="0 5.5120001 10.512 14.666 18.82 25.754 30.754 35.044998"
             y="0"
             sodipodi:role="line"
             id="tspan18">Foreword</tspan></text>
        <text
           xml:space="preserve"
           transform="matrix(1,0,0,-1,97.92,586.111)"
           style="font-variant:normal;font-weight:normal;font-size:10px;font-family:'Times New Roman';-inkscape-font-specification:TimesNewRomanPS;writing-mode:lr-tb;fill:#231f20;fill-opacity:1;fill-rule:nonzero;stroke:none"
           id="text28"><tspan
             x="0 5.6209998 10.062 12.843 16.259001 20.450001 25.301001 29.742001 34.743 38.159 40.939999 45.941002 49.356998 52.138 57.139 61.580002 64.996002 69.436996 74.438004 77.219002 82.220001 85.636002 88.417 93.417999 98.418999 103.42 107.311 110.092 113.62 117.77 120.27 123.686 126.467 131.468 135.909 139.325 144.326 149.327 152.108 157.10899 160.52499 165.526 168.85699 172.27299 175.054 180.05499 184.496 187.912 194.73399 199.735 203.06599 208.067 211.483 214.26401 217.045 221.48599 225.377 228.793 233.79401 238.795 241.576 244.992 247.77299 252.774 256.19 263.97101 268.41199 273.41299 278.414 281.84201 286.28299 290.724 293.505 298.50601 301.83701 304.61801 309.61899 314.62 318.03601 323.03699 328.03799 330.819 334.23499 337.01599"
             y="0"
             sodipodi:role="line"
             id="tspan22">Yet even in the auto industry, the bulk of the work lies not in manufacturing but in</tspan><tspan
             x="-18 -10.22 -5.7800002 -3 2 4.7800002 9.2200003 14.22 18.66 23.66 28.1 32.540001 42.540001 47.540001 50.869999 53.375999 56.155998 58.936001 62.826 65.332001 69.422997 74.224998 79.224998 82.004997 87.004997 91.445 96.445 100.885 105.325 107.825 110.331 113.661 118.661 121.167 125.057 130.05701 133.38699 136.16701 143.138 147.578 150.908 155.34801 157.84801 160.354 165.354 170.354 178.68401 181.19 186.19 189.52 192.026 199.806 204.806 208.136 212.576 215.082 220.082 223.412 225.918 232.94 237.94 242.38 245.16 247.666 254.537 258.97699 261.483 266.483 271.483 273.98901 276.76901 280.659 283.16501 288.16501 293.16501 297.60501 300.38501 305.38501 308.16501 310.69601 315.69601 318.202 322.642 327.082 329.862 332.642 337.082"
             y="12"
             sodipodi:role="line"
             id="tspan24">maintenance—or its avoidance. In software, 80% or more of what we do is quaintly called</tspan><tspan
             x="-18 -13.56 -5.7800002 -1.34 1.4400001 6.4400001 9.2200003 13.66 18.66 23.1 28.1 32.540001 36.98 41.419998 44.200001 46.833 49.612999 54.612999 59.053001 61.686001 66.125999 70.566002 73.346001 75.978996 80.978996 84.308998 86.942001 90.272003 94.711998 99.711998 104.152 106.932 109.713 112.213 114.846 121.516 125.956 128.73599 133.73599 138.17599 141.506 144.13901 146.91901 151.91901 156.35899 161.35899 163.992 168.43201 176.21201 181.21201 184.54201 188.98199 193.422 196.202 201.202 206.202 208.83501 211.61501 216.61501 221.05499 223.688 226.468 231.468 236.468 239.248 243.688 248.12801 250.908 253.243 261.68301 266.12299 270.013 272.793 277.233 280.76099 285.76099 288.39401 291.724 296.724 301.164 306.164 310.05399 312.68701 317.68701 322.68701"
             y="24"
             sodipodi:role="line"
             id="tspan26">“maintenance”: the act of repair. Rather than embracing the typical Western focus on </tspan></text>
        <text
           xml:space="preserve"
           transform="matrix(1,0,0,-1,423.152,562.111)"
           style="font-style:italic;font-variant:normal;font-size:10px;font-family:'Times New Roman';-inkscape-font-specification:TimesNewRomanPS-Italic;writing-mode:lr-tb;fill:#231f20;fill-opacity:1;fill-rule:nonzero;stroke:none"
           id="text34"><tspan
             x="0 5 8.441 13.441"
             y="0"
             sodipodi:role="line"
             id="tspan30">pro-</tspan><tspan
             x="-343.23199 -338.23199 -333.23199 -328.79199 -326.01199 -321.01199"
             y="12"
             sodipodi:role="line"
             id="tspan32">ducing</tspan></text>
        <text
           xml:space="preserve"
           transform="matrix(1,0,0,-1,110.491,550.111)"
           style="font-variant:normal;font-weight:normal;font-size:10px;font-family:'Times New Roman';-inkscape-font-specification:TimesNewRomanPS;writing-mode:lr-tb;fill:#231f20;fill-opacity:1;fill-rule:nonzero;stroke:none"
           id="text42"><tspan
             x="0 5.0009999 10.002 15.003 20.004 23.358 27.249001 32.25 35.581001 38.362 45.333 49.773998 53.105 57.546001 60.047001 63.401001 70.272003 74.711998 78.066002 81.957001 86.958 91.959 96.959999 99.740997 104.742 108.096 113.097 117.538 120.892 123.673 128.674 131.455 136.45599 141.457 144.23801 149.239 154.24001 157.59399 165.375 170.37601 173.707 178.14799 181.502 184.283 187.064 191.966 196.407 199.761 204.76199 209.763 217.54401 221.985 225.339 228.67 233.11099 238.112 242.55299 245.334 248.862 256.64301 261.08401 266.08499 269.439 272.22 277.22101 280.57501 283.35599 288.35699 292.798 296.15201 301.15302 306.15399 308.935 311.716 316.71701 319.49799 324.49899"
             y="0"
             sodipodi:role="line"
             id="tspan36">good software, we should be thinking more like home repairmen in the building</tspan><tspan
             x="-30.570999 -27.791 -22.791 -17.791 -12.791 -8.901 -6.1209998 -2.5929999 1.557 4.0570002 6.3969998 11.397 14.727 17.066999 21.507 26.507 29.287001 34.286999 36.626999 44.407001 48.847 53.286999 58.286999 62.727001 67.726997 70.507004 74.946999 78.836998 81.177002 83.957001 88.957001 91.296997 94.077003 99.077003 103.517 105.857 110.297 115.297 118.077 123.077 130.85699 135.85699 138.63699 141.168 146.019 150.459 152.799 158.35899 162.799 165.57899 170.57899 173.07899 175.121 184.561 189.561 194.00101 196.78101 199.121 204.121 209.121 213.561 217.451 219.791 223.681 228.121 233.121 237.561 242.561 247.00101 250.89101 255.33099 257.67099 265.45099 269.89099 274.89099 279.33099 284.33099 288.771 296.55099 300.991 305.991 308.771 311.11099 316.11099 320.202 325.05301"
             y="12"
             sodipodi:role="line"
             id="tspan38">industry, or auto mechanics in the automotive ﬁeld. What does Japanese management have</tspan><tspan
             x="-30.570999 -27.791 -22.791 -20.291 -16.400999 -12.31 -7.3099999 -4.8099999 -0.37 4.6300001 9.6300001 14.63 17.41"
             y="24"
             sodipodi:role="line"
             id="tspan40">to say about </tspan></text>
        <text
           xml:space="preserve"
           transform="matrix(1,0,0,-1,130.394,526.111)"
           style="font-style:italic;font-variant:normal;font-size:10px;font-family:'Times New Roman';-inkscape-font-specification:TimesNewRomanPS-Italic;writing-mode:lr-tb;fill:#231f20;fill-opacity:1;fill-rule:nonzero;stroke:none"
           id="text46"><tspan
             x="0 2.78 7.7800002 12.78"
             y="0"
             sodipodi:role="line"
             id="tspan44">that</tspan></text>
        <text
           xml:space="preserve"
           transform="matrix(1,0,0,-1,145.95,526.111)"
           style="font-variant:normal;font-weight:normal;font-size:10px;font-family:'Times New Roman';-inkscape-font-specification:TimesNewRomanPS;writing-mode:lr-tb;fill:#231f20;fill-opacity:1;fill-rule:nonzero;stroke:none"
           id="text68"><tspan
             x="0"
             y="0"
             id="tspan48">?</tspan><tspan
             x="-48.029999 -44.700001 -39.700001 -36.650002 -32.209999 -27.209999 -22.209999 -17.209999 -14.43 -11.38 -6.3800001 -1.38 3.6199999 8.6199999 11.12 14.17 18.610001 21.66 26.66 31.66 36.099998 38.880001 41.66 44.439999 49.439999 52.490002 56.93 61.93 66.93 70.260002 75.260002 79.699997 84.139999 89.139999 92.190002 96.629997 101.07 103.85 106.63 111.07 116.07 118.622 123.934 128.93401 131.714 136.15401 138.93401 141.98399 147.54401 150.87399 155.87399 160.87399 165.87399 170.314 173.09399 175.625 180.476 184.916 187.966 196.856 201.29601 204.076 209.076 211.856 216.29601 221.29601 225.73599 230.73599 235.17599 239.616 242.666 245.996 252.106 257.66599 266.556 269.88599 272.936 277.37601 281.81601 289.59601"
             y="15"
             sodipodi:role="line"
             id="tspan50">In about 1951, a quality approach called Total Productive Maintenance (TPM) came</tspan><tspan
             x="-66.029999 -61.029999 -56.029999 -53.02 -50.240002 -45.240002 -40.799999 -37.790001 -33.900002 -29.459999 -24.459999 -20.02 -15.02 -10.58 -6.6900001 -2.25 0.75999999 4.6500001 9.0900002 13.53 18.530001 22.969999 25.469999 28.48 31.809999 34.59 38.48 41.490002 44.82 49.82 54.259998 59.259998 63.150002 66.160004 68.940002 72.830002 75.839996 80.839996 85.839996 88.849998 96.629997 101.07 103.85 108.85 111.63 116.07 121.07 125.51 130.50999 134.95 139.39 142.39999 145.73 150.17 152.95 157.95 162.39 165.72 168.73 171.50999 176.50999 180.95 185.95 188.96001 193.96001 198.96001 201.97 206.97 210.3 215.3 220.3 225.3 229.74001 232.52 235.3 240.3 245.3 247.8 250.81 258.03 263.03 267.47 270.48001 275.48001 278.81 281.82001 284.60001 289.60001"
             y="27"
             sodipodi:role="line"
             id="tspan52">on the Japanese scene. Its focus is on maintenance rather than on production. One of the</tspan><tspan
             x="-66.029999 -58.25 -53.810001 -51.029999 -46.029999 -42.700001 -39.694 -34.694 -31.914 -29.134001 -26.354 -21.914 -18.584 -14.694 -11.688 -6.6880002 -3.358 -0.85000002 5.2600002 10.82 19.709999 22.716 25.496 29.386 32.391998 35.172001 40.172001 44.612 47.618 51.507999 55.948002 58.728001 61.734001 66.734001 70.064003 73.07 76.959999 81.959999 85.290001 89.730003 94.169998 96.949997 99.730003 104.17 109.17 112.176 117.176 122.736 125.742 130.742 134.07201 136.85201 141.85201 146.29201 149.07201 154.07201 156.85201 161.29201 165.18201 167.68201 170.688 175.688 181.248 184.254 187.034 190.924 193.92999 198.37 201.37601 205.26601 209.70599 212.48599 215.492 220.492 223.82201 226.828 231.828 234.608 238.498 242.938 245.718 250.718 253.498 256.27802 261.27802 265.71799 269.608 279.608 284.048 289.048"
             y="39"
             sodipodi:role="line"
             id="tspan54">major pillars of TPM is the set of so-called 5S principles. 5S is a set of disciplines—and</tspan><tspan
             x="-66.029999 -61.029999 -56.59 -53.259998 -48.82 -46.32 -42.990002 -40.490002 -35.490002 -31.6 -27.16 -24.66 -21.879999 -16.879999 -12.44 -9.9399996 -7.1599998 -2.72 0.80800003 8.5880003 11.088 15.528 20.528 23.308001 27.198 31.638 34.417999 39.417999 42.198002 44.978001 49.978001 54.417999 58.858002 61.358002 64.138 69.138 73.028 75.807999 79.335999 84.335999 88.776001 91.556 94.086998 98.938004 103.378 105.909 110.059 112.559 114.561 120.671 125.671 130.11099 134.00101 138.44099 140.94099 145.94099 151.50101 154.00101 159.00101 162.33099 165.11099 170.11099 174.55099 177.33099 182.33099 185.11099 189.55099 193.44099 195.94099 200.381 203.711 208.151 210.651 213.431 218.431 220.931 224.35899 228.799 233.239 236.019 238.519 242.959 245.739 248.239 251.019 256.01901 260.45901 262.95901 266.289 271.289 276.289 281.289 286.289 290.729"
             y="51"
             sodipodi:role="line"
             id="tspan56">here I use the term “discipline” instructively. These 5S principles are in fact at the founda-</tspan><tspan
             x="-66.029999 -63.249001 -60.467999 -55.466999 -50.466 -46.575001 -42.896999 -37.896 -34.564999 -30.886999 -24.775999 -20.334999 -15.894 -10.893 -0.89200002 3.549 8.5500002 13.551 16.332001 21.333 25.774 29.105 32.783001 37.784 42.785 47.226002 51.667 58.488998 63.490002 66.820999 71.821999 75.5 80.500999 85.501999 89.18 91.960999 96.961998 101.403 104.783 113.223 117.664 121.555 124.336 128.77699 132.30499 137.306 140.98399 144.875 149.31599 153.757 158.758 163.19901 165.7 169.37801 173.819 178.82001 183.821 187.49899 191.94 196.94099 200.619 203.39999 208.401 212.842 216.173 220.614 225.05499 228.946 231.72701 236.728 241.729 244.25999 249.261 252.939 257.94 261.271 266.272 274.05301 276.83401 281.83499 286.276 291.27701"
             y="63"
             sodipodi:role="line"
             id="tspan58">tions of Lean—another buzzword on the Western scene, and an increasingly prominent</tspan><tspan
             x="-66.029999 -61.028999 -56.028 -51.587002 -47.146 -40.324001 -35.323002 -31.992001 -26.990999 -24.124001 -21.343 -16.341999 -13.475 -9.5839996 -4.5830002 -1.252 1.529 8.5 12.941 16.271999 20.712999 23.58 28.021 30.802 34.132999 38.574001 41.355 45.796001 49.687 52.188 54.556999 60.667999 65.668999 70.110001 74.000999 78.442001 81.308998 86.309998 89.640999 92.421997 97.422997 101.864 104.645 109.646 112.427 116.868 120.759 123.626 128.067 131.39799 135.839 138.70599 143.707 148.70799 151.489 154.356 158.797 163.798 166.66499 171.666 176.66701 179.448 182.229 187.23 192.231 194.73199 197.05 204.271 208.162 211.02901 218.25 223.25101 227.692 230.47301 234.914 237.78101 244.452 249.453 254.45399 257.32101 260.65201 265.09299 267.87399 272.315 275.09601 279.53699 283.42801 286.29501 289.07599"
             y="75"
             sodipodi:role="line"
             id="tspan60">buzzword in software circles. These principles are not an option. As Uncle Bob relates in</tspan><tspan
             x="-66.029999 -61.029999 -58.25 -54.360001 -51.581001 -48.250999 -44.921001 -39.921001 -34.921001 -32.140999 -29.362 -21.582001 -17.142 -14.362 -11.582 -7.1420002 -4.21 -1.71 1.069 6.0689998 11.069 16.069 21.069 23.848 27.738001 32.737999 36.068001 38.848 45.819 50.258999 53.589001 58.028999 60.807999 65.807999 69.138 73.578003 78.017998 80.797997 83.578003 88.017998 92.458 95.237 98.567001 103.007 108.007 113.007 115.787 119.117 123.557 127.447 130.226 134.116 139.116 143.556 148.556 151.33501 156.33501 159.11501 163.005 167.44501 170.22501 175.22501 178.005 180.785 185.785 190.22501 193.005 195.784 199.114 204.114 208.554 213.554 217.444 219.944 222.72301 227.72301 231.05299 235.493 239.383 243.823 248.823 253.263 257.703 260.48199 265.48199 268.81201 271.591 279.371 282.151 287.151 291.55301"
             y="87"
             sodipodi:role="line"
             id="tspan62">his front matter, good software practice requires such discipline: focus, presence of mind,</tspan><tspan
             x="-66.029999 -61.59 -56.59 -51.59 -49.319 -46.539001 -41.539001 -38.758999 -33.758999 -28.759001 -25.979 -20.979 -15.979 -13.479 -11.208 -7.8779998 -5.098 -2.8269999 -0.046999998 3.8429999 6.1139998 11.114 16.114 18.893999 21.165001 25.605 28.035999 35.007 39.098 44.098 47.987999 50.258999 53.039001 58.039001 61.929001 64.709 66.980003 71.419998 76.419998 81.419998 86.419998 89.199997 91.471001 96.471001 101.471 104.251 109.251 114.251 116.751 119.022 123.462 128.46201 133.46201 138.46201 141.242 143.513 148.513 153.513 157.403 162.403 165.183 170.183 175.183 177.45399 180.23399 185.23399 189.674 191.94501 195.373 199.813 204.25301 207.033 212.033 215.561 220.561 222.832 227.272 232.272 237.272 240.052 245.052 252.832 257.272 262.272 265.052 267.323 270.103 275.103 277.37399 282.37399 285.70401 290.70401"
             y="99"
             sodipodi:role="line"
             id="tspan64">and thinking. It is not always just about doing, about pushing the factory equipment to pro-</tspan><tspan
             x="-66.029999 -61.029999 -56.029999 -51.59 -47.150002 -44.650002 -40.209999 -37.43 -34.93 -32.150002 -27.15 -22.709999 -20.209999 -15.21 -10.21 -7.4299998 -4.6500001 3.1300001 7.5700002 10.35 12.85 17.701 22.141001 24.921 29.921 34.361 37.140999 39.921001 44.070999 46.570999 48.573002 54.682999 59.682999 64.123001 66.623001 71.623001 77.182999 79.682999 84.682999 89.682999 92.462997 95.242996 100.243 104.133 109.133 114.133 118.835 123.835 126.335 130.77499 135.77499 143.55499 148.55499 151.88499 154.66499 158.55499 162.995 166.88499 169.38499 172.16499 177.16499 181.605 185.495 189.935 192.435 196.875 201.875 206.875 211.315 215.755 220.755 223.535 227.425"
             y="111"
             sodipodi:role="line"
             id="tspan66">duce at the optimal velocity. The 5S philosophy comprises these concepts:</tspan></text>
        <text
           xml:space="preserve"
           transform="matrix(1,0,0,-1,87.12,396.445)"
           style="font-variant:normal;font-weight:bold;font-size:11px;font-family:'Times New Roman';-inkscape-font-specification:TimesNewRomanPS-Bold;writing-mode:lr-tb;fill:#231f20;fill-opacity:1;fill-rule:nonzero;stroke:none"
           id="text72"><tspan
             x="0"
             y="0"
             id="tspan70">•</tspan></text>
        <text
           xml:space="preserve"
           transform="matrix(1,0,0,-1,97.92,396.445)"
           style="font-style:italic;font-variant:normal;font-size:10px;font-family:'Times New Roman';-inkscape-font-specification:TimesNewRomanPS-Italic;writing-mode:lr-tb;fill:#231f20;fill-opacity:1;fill-rule:nonzero;stroke:none"
           id="text76"><tspan
             x="0 5 9.4399996 12.22 16.110001"
             y="0"
             sodipodi:role="line"
             id="tspan74">Seiri</tspan></text>
        <text
           xml:space="preserve"
           transform="matrix(1,0,0,-1,116.804,396.445)"
           style="font-variant:normal;font-weight:normal;font-size:10px;font-family:'Times New Roman';-inkscape-font-specification:TimesNewRomanPS;writing-mode:lr-tb;fill:#231f20;fill-opacity:1;fill-rule:nonzero;stroke:none"
           id="text84"><tspan
             x="0 2.4990001 4.9990001 9.9980001 13.327 15.827 20.826 23.978001 28.976999 33.416 38.415001 41.194 45.632999 50.071999 52.851002 55.630001 60.629002 65.627998 68.127998 71.457001 74.236 79.235001 82.014 87.013 92.012001 94.512001 98.950996 102.84 107.839 111.367 114.146 118.585 121.085 123.864 128.86301 131.36301 137.472 142.47099 147.47 150.24899 153.028 156.91701 161.916 165.245 167.744 170.244 177.463 182.46201 187.064 194.283 197.062 202.061 207.06 209.56 216.582 221.58099 226.02 229.349 233.78799 236.28799 239.067 244.06599 246.845 251.84399 256.84299 260.73199 263.23199 267.67099 271 275.439 285.43799 290.43701 294.32599 297.10501 302.104 307.103"
             y="0"
             sodipodi:role="line"
             id="tspan78">, or organization (think “sort” in English). Knowing where things are—using </tspan><tspan
             x="-18.884001 -14.444 -9.4440002 -4.4439998 -1.114 3.8859999 8.3260002 12.766 17.766001 22.205999 26.096001 28.596001 32.486 37.486 41.925999 46.925999 49.425999 53.866001 57.756001 60.256001 64.146004 69.146004 71.926003 74.706001 79.146004 83.947998 86.727997 91.167999 93.667999 98.667999 103.108 110.888 113.668 118.668 123.668 133.668 136.448 140.338 142.838 147.278 150.806 155.806 160.246 163.026 167.466 170.246 172.746 174.34801 179.96899 184.96899 189.96899 192.46899 195.24899 200.24899 203.02901 208.02901 213.02901 215.52901 220.52901 224.96899 232.74899 235.52901 240.52901 245.52901 248.02901 250.80901 255.80901 260.24899 265.24899 268.02899 270.80899 276.36899 280.80899 284.13901 288.02899 290.52899 293.30899 297.19901 302.19901 305.03101 307.811"
             y="12.333"
             sodipodi:role="line"
             id="tspan80">approaches such as suitable naming—is crucial. You think naming identiﬁers isn’t </tspan><tspan
             x="-18.884001 -16.104 -8.3240004 -3.3239999 1.676 5.204 7.9840002 12.424 17.424 20.204 24.643999 27.143999 33.813999 38.254002 42.694 47.694 50.194 55.194 60.194 62.694 65.473999 70.473999 72.973999 75.753998 80.753998 85.194 87.694 91.024002 96.024002 98.804001 101.584 106.186 113.406 116.186 121.186 126.186 128.686 133.12601 138.12601 142.56599 147.56599 150.34599 154.786 158.116 162.006"
             y="24.333"
             sodipodi:role="line"
             id="tspan82">important? Read on in the following chapters.</tspan></text>
        <text
           xml:space="preserve"
           transform="matrix(1,0,0,-1,87.12,357.445)"
           style="font-variant:normal;font-weight:bold;font-size:11px;font-family:'Times New Roman';-inkscape-font-specification:TimesNewRomanPS-Bold;writing-mode:lr-tb;fill:#231f20;fill-opacity:1;fill-rule:nonzero;stroke:none"
           id="text88"><tspan
             x="0"
             y="0"
             id="tspan86">•</tspan></text>
        <text
           xml:space="preserve"
           transform="matrix(1,0,0,-1,97.92,357.445)"
           style="font-style:italic;font-variant:normal;font-size:10px;font-family:'Times New Roman';-inkscape-font-specification:TimesNewRomanPS-Italic;writing-mode:lr-tb;fill:#231f20;fill-opacity:1;fill-rule:nonzero;stroke:none"
           id="text92"><tspan
             x="0 5 9.4399996 12.22 15 20"
             y="0"
             sodipodi:role="line"
             id="tspan90">Seiton</tspan></text>
        <text
           xml:space="preserve"
           transform="matrix(1,0,0,-1,122.915,357.445)"
           style="font-variant:normal;font-weight:normal;font-size:10px;font-family:'Times New Roman';-inkscape-font-specification:TimesNewRomanPS;writing-mode:lr-tb;fill:#231f20;fill-opacity:1;fill-rule:nonzero;stroke:none"
           id="text96"><tspan
             x="0 2.5 5 10 13.33 15.83 18.610001 21.389999 26.389999 29.17 34.169998 38.610001 42.5 46.389999 48.889999 52.220001 55 60 62.779999 67.779999 72.779999 75.279999 79.720001 83.610001 88.610001 92.5 95.279999 99.720001 107.5 111.94 114.72 117.5 121.94 126.38 130.82001 133.32001 136.10001 141.10001 143.60001 149.71001 154.71001 159.71001 162.49001 165.27 169.16 174.16 177.49001 179.99001 181.992 188.10201 193.10201 197.54201 200.87199 205.312 207.812 210.592 214.48199 216.98199 221.422 226.422 228.922 233.922 236.702 241.702 243.653 250.873 258.65302 263.09299 266.423 269.203 273.64301 278.08301 283.08301 285.58301 289.47299 293.564 298.564 301.34399 306.34399 311.34399 314.12399"
             y="0"
             sodipodi:role="line"
             id="tspan94">, or tidiness (think “systematize” in English). There is an old American saying: </tspan></text>
        <text
           xml:space="preserve"
           transform="matrix(1,0,0,-1,97.92,345.112)"
           style="font-style:italic;font-variant:normal;font-size:10px;font-family:'Times New Roman';-inkscape-font-specification:TimesNewRomanPS-Italic;writing-mode:lr-tb;fill:#231f20;fill-opacity:1;fill-rule:nonzero;stroke:none"
           id="text100"><tspan
             x="0 6.1100001 8.6099997 13.61 16.389999 21.389999 25.83 30.27 32.77 35.352001 40.352001 44.242001 46.742001 51.033001 55.473 59.912998 63.803001 68.242996 71.023003 76.023003 78.803001 83.803001 88.705002 91.205002 93.705002 98.705002 103.705 108.705 111.205 115.496 119.936 124.376 128.26601 132.70599 135.48599 140.48599 143.26601 148.26601 153.26601 155.76601 158.54601 163.54601 166.04601 168.826 171.606 175.496 177.996 182.996 185.776 190.776 195.216"
             y="0"
             sodipodi:role="line"
             id="tspan98">A place for everything, and everything in its place</tspan></text>
        <text
           xml:space="preserve"
           transform="matrix(1,0,0,-1,297.537,345.112)"
           style="font-variant:normal;font-weight:normal;font-size:10px;font-family:'Times New Roman';-inkscape-font-specification:TimesNewRomanPS;writing-mode:lr-tb;fill:#231f20;fill-opacity:1;fill-rule:nonzero;stroke:none"
           id="text106"><tspan
             x="0 2.5 4.4510002 11.671 14.171 19.171 21.951 26.391001 30.830999 35.271 37.771 42.771 46.101002 48.601002 53.041 58.041 63.041 67.481003 69.981003 73.871002 78.871002 83.871002 88.871002 91.651001 96.651001 99.151001 104.151 108.591 111.091 118.113 123.113 127.553 130.883 135.323"
             y="0"
             sodipodi:role="line"
             id="tspan102">. A piece of code should be where </tspan><tspan
             x="-199.617 -194.815 -189.815 -184.815 -182.315 -178.024 -173.024 -168.024 -163.584 -159.144 -156.364 -153.864 -151.084 -146.084 -143.584 -138.024 -133.024 -128.024 -125.524 -122.744 -119.964 -109.964 -105.524 -100.524 -96.122002 -93.622002 -91.122002 -88.342003 -85.012001 -82.512001 -77.512001 -72.512001 -69.732002 -67.232002 -64.732002 -59.93 -54.93 -49.93 -47.43 -43.540001 -38.540001 -33.540001 -28.540001 -25.76 -20.76 -18.26 -14.93 -10.49 -7.1599998 -3.7320001 0.708 5.1479998 7.928 12.928 16.257999 18.757999 21.538 26.538 29.038 34.037998 38.478001 41.257999 43.757999 46.537998 49.318001 51.818001 54.598 59.598 64.038002 67.367996 71.807999"
             y="12"
             sodipodi:role="line"
             id="tspan104">you expect to ﬁnd it—and, if not, you should re-factor to get it there.</tspan></text>
        <text
           xml:space="preserve"
           transform="matrix(1,0,0,-1,87.12,318.445)"
           style="font-variant:normal;font-weight:bold;font-size:11px;font-family:'Times New Roman';-inkscape-font-specification:TimesNewRomanPS-Bold;writing-mode:lr-tb;fill:#231f20;fill-opacity:1;fill-rule:nonzero;stroke:none"
           id="text110"><tspan
             x="0"
             y="0"
             id="tspan108">•</tspan></text>
        <text
           xml:space="preserve"
           transform="matrix(1,0,0,-1,97.92,318.445)"
           style="font-style:italic;font-variant:normal;font-size:10px;font-family:'Times New Roman';-inkscape-font-specification:TimesNewRomanPS-Italic;writing-mode:lr-tb;fill:#231f20;fill-opacity:1;fill-rule:nonzero;stroke:none"
           id="text114"><tspan
             x="0 5 9.4399996 12.22 16.110001"
             y="0"
             sodipodi:role="line"
             id="tspan112">Seiso</tspan></text>
        <text
           xml:space="preserve"
           transform="matrix(1,0,0,-1,119.026,318.445)"
           style="font-variant:normal;font-weight:normal;font-size:10px;font-family:'Times New Roman';-inkscape-font-specification:TimesNewRomanPS;writing-mode:lr-tb;fill:#231f20;fill-opacity:1;fill-rule:nonzero;stroke:none"
           id="text124"><tspan
             x="0 2.5 5 10 13.33 15.83 20.27 23.049999 27.49 31.93 36.93 39.709999 44.709999 49.709999 52.209999 55.540001 58.32 63.32 66.099998 71.099998 76.099998 78.599998 83.040001 86.93 91.93 94.709999 99.709999 104.15 108.59 111.09 113.87 118.87 121.37 127.48 132.48 137.48 140.25999 143.03999 146.92999 151.92999 155.25999 158.03999 160.53999 167.511 171.951 176.39101 181.39101 183.89101 186.67101 191.67101 196.11099 198.61099 205.433 210.433 213.763 218.763 223.763 226.543 230.983 235.423 239.86301 242.36301 245.69299 249.02299 253.463 257.90302 260.40302 265.40302 268.733 271.233 276.233 280.673 285.673 290.673 293.453 298.453 303.453"
             y="0"
             sodipodi:role="line"
             id="tspan116">, or cleaning (think “shine” in English): Keep the workplace free of hanging </tspan><tspan
             x="-21.106001 -13.886 -11.106 -7.776 -3.336 0.55400002 3.0539999 5.5539999 10.752 14.082 18.521999 22.962 26.851999 31.292 33.792 36.292 40.181999 44.622002 47.952 52.391998 57.391998 61.282001 63.782001 66.281998 70.722 75.722 80.722 83.222 90.193001 94.633003 98.523003 101.303 105.743 108.243 110.445 119.885 124.885 129.325 132.105 134.605 139.605 144.605 147.105 149.88499 154.88499 159.325 161.825 166.265 171.265 174.045 179.045 184.045 187.375 191.265 193.765 198.765 203.205 206.535 210.97501 213.47501 217.36501 221.45599 226.45599 228.95599 233.396 238.396 243.396 248.396 251.17599 253.67599 256.45599 259.23599 262.01599 264.79599 269.23599 272.56601 275.34601 280.34601 285.34601 287.84601 292.64801 297.64801 302.64801 305.978"
             y="12.333"
             sodipodi:role="line"
             id="tspan118">wires, grease, scraps, and waste. What do the authors here say about littering your </tspan><tspan
             x="-21.106001 -16.666 -11.666 -6.6659999 -2.2260001 0.059 7.2789998 10.059 12.839 17.839001 20.124001 24.563999 29.563999 37.344002 45.124001 49.563999 54.563999 57.344002 61.234001 63.519001 67.959 72.959 77.959 80.244003 84.683998 89.683998 97.463997 105.244 109.684 114.684 117.464 121.904 126.904 130.23399 135.23399 140.23399 143.01401 145.299 149.739 154.739 159.739 164.179 166.464 169.244 172.024 177.024 181.464 185.354 187.63901 190.41901 195.41901 199.85899 202.63901 204.924 209.364 213.804 218.804 221.584 226.584 229.914 234.354 236.63901 241.63901 244.41901 248.30901 251.089 256.08899 259.617 264.617 266.90201 271.90201 275.23199 277.517 284.737 287.517 291.40701 296.40701 300.84698 304.737 307.022 310.35199 315.35199 318.68201"
             y="24.333"
             sodipodi:role="line"
             id="tspan120">code with comments and commented-out code lines that capture history or wishes for </tspan><tspan
             x="-21.106001 -18.326 -13.326 -8.8859997 -6.3860002 -3.056 1.944 4.724 9.724 13.054 17.493999 21.934 24.434 31.653999 36.094002 38.874001 41.374001 44.703999 47.484001 52.484001 54.984001 59.984001 63.313999 65.814003 68.594002 73.594002 78.033997 85.814003"
             y="36.333"
             sodipodi:role="line"
             id="tspan122">the future? Get rid of them.</tspan></text>
        <text
           xml:space="preserve"
           transform="matrix(1,0,0,-1,87.12,267.445)"
           style="font-variant:normal;font-weight:bold;font-size:11px;font-family:'Times New Roman';-inkscape-font-specification:TimesNewRomanPS-Bold;writing-mode:lr-tb;fill:#231f20;fill-opacity:1;fill-rule:nonzero;stroke:none"
           id="text128"><tspan
             x="0"
             y="0"
             id="tspan126">•</tspan></text>
        <text
           xml:space="preserve"
           transform="matrix(1,0,0,-1,97.92,267.445)"
           style="font-style:italic;font-variant:normal;font-size:10px;font-family:'Times New Roman';-inkscape-font-specification:TimesNewRomanPS-Italic;writing-mode:lr-tb;fill:#231f20;fill-opacity:1;fill-rule:nonzero;stroke:none"
           id="text132"><tspan
             x="0 5 9.4399996 12.22 16.66 21.1 23.879999 27.77"
             y="0"
             sodipodi:role="line"
             id="tspan130">Seiketsu</tspan></text>
        <text
           xml:space="preserve"
           transform="matrix(1,0,0,-1,130.681,267.445)"
           style="font-variant:normal;font-weight:normal;font-size:10px;font-family:'Times New Roman';-inkscape-font-specification:TimesNewRomanPS;writing-mode:lr-tb;fill:#231f20;fill-opacity:1;fill-rule:nonzero;stroke:none"
           id="text140"><tspan
             x="0 2.5 4.6230001 9.6230001 12.953 15.076 18.966 21.746 26.186001 31.186001 36.186001 40.625999 43.956001 48.956001 51.736 56.175999 60.616001 63.396 66.176003 71.176003 76.176003 78.956001 80.581001 86.691002 91.691002 96.130997 98.253998 103.452 106.782 111.782 116.782 121.782 123.905 128.345 133.543 136.873 141.313 145.75301 149.64301 151.76601 156.20599 161.20599 166.20599 171.20599 173.98599 176.10899 181.10899 185.711 192.931 195.054 197.834 202.834 204.957 209.85899 214.299 218.739 223.739 225.862 228.642 233.642 238.082 240.205 247.02699 252.02699 255.35699 260.35699 265.35699 268.13699 272.577 277.017 281.457 283.57999 288.01999 290.79999 295.23999 299.67999 304.67999 307.17999"
             y="0"
             sodipodi:role="line"
             id="tspan134">, or standardization: The group agrees about how to keep the workplace clean. </tspan><tspan
             x="-32.761002 -25.541 -20.541 -18.361 -13.559 -8.559 -3.559 -1.3789999 1.401 6.401 9.1809998 14.181 19.181 21.361 24.141001 29.141001 31.921 35.811001 37.991001 42.991001 47.991001 52.991001 57.991001 60.171001 64.060997 68.152 73.152 77.042 79.222 83.662003 88.413002 93.413002 96.193001 101.193 103.973 108.973 113.973 116.153 120.593 125.593 130.593 135.593 138.373 140.55299 145.55299 149.644 154.644 157.424 162.424 167.424 169.604 174.04401 176.224 180.664 185.664 190.664 194.554 197.334 201.224 204.004 208.444 213.444 216.224 218.40401 222.84399 227.84399 232.84399 235.62399 240.62399 245.62399 247.804 251.694 254.474 259.474 262.254 266.694 268.87399 273.314 278.314 283.314 285.49399 289.384 293.82401 296.604 298.784 303.784 307.11401"
             y="12.333"
             sodipodi:role="line"
             id="tspan136">Do you think this book says anything about having a consistent coding style and set of </tspan><tspan
             x="-32.761002 -27.761 -24.431 -19.990999 -15.551 -12.771 -9.9910002 -5.5510001 -1.1109999 2.779 5.2789998 12.499 15.279 18.059 23.059 25.839001 30.839001 33.339001 36.118999 41.118999 45.558998 48.058998 53.257 56.587002 61.587002 66.586998 71.586998 76.027 78.228996 87.668999 92.668999 97.109001 100.439 104.879 107.379 112.379 117.379 119.879 122.659 127.659 132.659 136.549 140.989 143.489 147.379 150.159 154.599 159.599 164.599 169.039 172.369 177.369 181.259 183.759 188.19901 193.19901 200.979 205.41901 207.91901 211.24899 214.57899 219.57899 227.35899 231.799 234.299 240.96899 245.409 249.849 254.849 257.349 262.349 267.349"
             y="24.333"
             sodipodi:role="line"
             id="tspan138">practices within the group? Where do those standards come from? Read on.</tspan></text>
        <text
           xml:space="preserve"
           transform="matrix(1,0,0,-1,87.12,228.445)"
           style="font-variant:normal;font-weight:bold;font-size:11px;font-family:'Times New Roman';-inkscape-font-specification:TimesNewRomanPS-Bold;writing-mode:lr-tb;fill:#231f20;fill-opacity:1;fill-rule:nonzero;stroke:none"
           id="text144"><tspan
             x="0"
             y="0"
             id="tspan142">•</tspan></text>
        <text
           xml:space="preserve"
           transform="matrix(1,0,0,-1,97.92,228.445)"
           style="font-style:italic;font-variant:normal;font-size:10px;font-family:'Times New Roman';-inkscape-font-specification:TimesNewRomanPS-Italic;writing-mode:lr-tb;fill:#231f20;fill-opacity:1;fill-rule:nonzero;stroke:none"
           id="text148"><tspan
             x="0 5 10 15 17.780001 21.67 26.67 31.110001"
             y="0"
             sodipodi:role="line"
             id="tspan146">Shutsuke</tspan></text>
        <text
           xml:space="preserve"
           transform="matrix(1,0,0,-1,133.464,228.445)"
           style="font-variant:normal;font-weight:normal;font-size:10px;font-family:'Times New Roman';-inkscape-font-specification:TimesNewRomanPS;writing-mode:lr-tb;fill:#231f20;fill-opacity:1;fill-rule:nonzero;stroke:none"
           id="text152"><tspan
             x="0 2.5 4.585 9.585 12.915 15 20 22.780001 26.67 31.110001 33.889999 38.889999 41.669998 44.450001 49.450001 53.889999 55.974998"
             y="0"
             sodipodi:role="line"
             id="tspan150">, or discipline (</tspan></text>
        <text
           xml:space="preserve"
           transform="matrix(1,0,0,-1,192.753,228.445)"
           style="font-style:italic;font-variant:normal;font-size:10px;font-family:'Times New Roman';-inkscape-font-specification:TimesNewRomanPS-Italic;writing-mode:lr-tb;fill:#231f20;fill-opacity:1;fill-rule:nonzero;stroke:none"
           id="text156"><tspan
             x="0 3.8900001 8.3299999 11.11"
             y="0"
             sodipodi:role="line"
             id="tspan154">self</tspan></text>
        <text
           xml:space="preserve"
           transform="matrix(1,0,0,-1,206.637,228.445)"
           style="font-variant:normal;font-weight:normal;font-size:10px;font-family:'Times New Roman';-inkscape-font-specification:TimesNewRomanPS;writing-mode:lr-tb;fill:#231f20;fill-opacity:1;fill-rule:nonzero;stroke:none"
           id="text184"><tspan
             x="0 3.3299999 8.3299999 11.11 15 19.440001 22.219999 27.219999 30 32.779999 37.779999 42.220001 45.549999 48.049999 49.637001 55.747002 60.747002 63.527 67.417 69.501999 77.281998 81.722 86.162003 91.162003 95.052002 97.137001 102.137 106.228 111.228 114.008 119.008 124.008 126.093 128.873 133.873 138.313 140.39799 145.39799 148.17799 152.06799 156.508 159.28799 164.28799 167.06799 169.84801 174.84801 179.28799 181.373 184.153 189.153 191.23801 194.56799 199.56799 202.34801 205.12801 209.73 216.95 219.035 221.815 226.815 231.255"
             y="0"
             sodipodi:role="line"
             id="tspan158">-discipline). This means having the discipline to follow the </tspan><tspan
             x="-108.717 -103.717 -100.387 -95.946999 -91.507004 -88.726997 -85.946999 -81.507004 -77.067001 -73.177002 -70.677002 -66.237 -61.237 -56.237 -53.737 -50.957001 -45.957001 -43.457001 -40.126999 -36.797001 -32.356998 -27.357 -22.357 -17.917 -12.917 -10.137 -7.6059999 -2.6059999 -0.106 3.224 7.664 13.224 17.664 22.104 24.884001 27.384001 32.383999 37.383999 39.883999 44.883999 49.883999 54.324001 56.255001 60.145 62.645 69.467003 74.467003 77.796997 82.796997 85.296997 89.737 94.737 99.737 102.237 107.237 111.677 114.177 121.397 124.177 126.957 129.737 132.517 137.517 142.517 145.017 147.797 152.797 155.297 159.737 164.737 169.177 174.177 179.177 183.617"
             y="12.333"
             sodipodi:role="line"
             id="tspan160">practices and to frequently reﬂect on one’s work and be willing to change.</tspan><tspan
             x="-108.717 -105.387 -102.057 -99.319 -94.516998 -89.516998 -84.516998 -81.778999 -78.999001 -74.558998 -69.656998 -65.217003 -62.479 -57.479 -52.479 -49.741001 -46.960999 -41.960999 -37.521 -34.783001 -30.343 -25.343 -20.903 -18.122999 -15.343 -10.903 -5.9029999 -0.903 3.5369999 13.537 18.339001 22.778999 26.669001 29.169001 31.907 34.687 39.687 44.126999 46.865002 51.305 56.305 60.744999 63.525002 66.305 70.745003 75.745003 80.745003 85.184998 95.184998 100.185 103.515 106.253 109.583 114.023 118.463 123.463 126.243 131.243 136.243 138.981 143.42101 148.42101 153.42101 156.159 160.599 165.599 170.599 173.13 178.13 180.91 185.91 190.91 193.64799 196.42799 201.42799 204.20799 208.09801 210.836 215.836 220.836 225.836 230.836"
             y="30.333"
             sodipodi:role="line"
             id="tspan162">If you take up the challenge—yes, the challenge—of reading and applying this book,</tspan><tspan
             x="-126.717 -121.915 -116.915 -111.915 -108.983 -106.203 -103.423 -100.799 -96.359001 -91.359001 -83.579002 -79.139 -76.514999 -73.735001 -68.735001 -66.111 -61.111 -56.111 -51.111 -46.671001 -43.341 -39.451 -36.671001 -32.230999 -27.231001 -22.231001 -19.607 -15.167 -10.167 -5.1669998 -2.543 1.897 6.8969998 11.897 15.227 19.667 24.107 26.886999 31.327 34.106998 38.547001 41.171001 43.951 48.951 53.390999 56.014999 58.794998 63.235001 67.125 69.904999 72.528999 77.528999 82.528999 85.308998 90.308998 93.088997 95.588997 98.212997 105.433 109.873 113.203 117.643 120.143 122.767 129.638 134.078 136.702 141.142 144.472 148.912 151.536 157.09599 162.09599 166.536 169.31599 171.847 176.847 179.47099 184.47099 187.80099 190.332 195.332 198.112 203.112 208.112 210.73599 213.51601 218.51601 221.14 223.92 228.92"
             y="42.333"
             sodipodi:role="line"
             id="tspan164">you’ll come to understand and appreciate the last point. Here, we are ﬁnally driving to the</tspan><tspan
             x="-126.717 -123.387 -118.387 -113.387 -110.607 -106.717 -104.143 -99.142998 -95.813004 -93.238998 -89.908997 -85.469002 -81.579002 -76.579002 -71.579002 -66.579002 -62.688999 -59.909 -55.106998 -52.327 -47.887001 -45.313 -40.313 -36.983002 -31.983 -28.653 -24.212999 -20.323 -16.433001 -13.653 -8.6529999 -3.6530001 0.787 3.5669999 6.3470001 10.237 18.017 20.591 23.371 28.371 30.945 35.384998 37.959 42.959 46.289001 51.289001 54.618999 59.058998 62.949001 66.838997 69.619003 74.619003 79.619003 82.193001 84.973 89.973 94.413002 97.193001 99.766998 103.657 108.657 113.657 118.657 121.437 126.437 129.011 134.011 138.451 141.02499 145.465 150.465 155.465 159.905 164.345 167.873 172.873 177.313 182.313 184.88699 192.10699 194.88699 197.66701 202.66701 205.241 208.021 213.021 217.461 220.035 222.815 225.595 228.925"
             y="54.333"
             sodipodi:role="line"
             id="tspan166">roots of responsible professionalism in a profession that should be concerned with the life</tspan><tspan
             x="-126.717 -122.426 -117.426 -112.986 -110.206 -105.766 -102.389 -97.389 -94.058998 -90.681999 -86.241997 -82.864998 -77.864998 -74.535004 -69.535004 -64.535004 -59.535 -55.095001 -52.314999 -49.814999 -46.987 -39.766998 -35.876999 -32.5 -25.629 -21.188999 -17.812 -10.032 -5.592 -2.812 2.188 4.9679999 9.408 12.188 17.188 20.565001 25.004999 30.004999 32.785 37.785 45.564999 50.564999 55.564999 58.345001 61.125 65.565002 69.455002 72.832001 77.272003 82.272003 87.272003 90.649002 95.649002 98.429001 103.429 107.869 111.199 114.576 122.356 126.796 131.23599 136.23599 139.01601 144.01601 148.45599 152.34599 155.72301 160.72301 165.72301 170.72301 175.16299 178.493 181.37199 187.48199 193.04201 201.93201 204.43201 207.80901 212.80901 216.13901 220.57899 225.019 230.019"
             y="66.333"
             sodipodi:role="line"
             id="tspan168">cycle of a product. As we maintain automobiles and other machines under TPM, break-</tspan><tspan
             x="-126.717 -121.716 -117.114 -109.893 -104.892 -101.23 -93.448997 -89.008003 -86.226997 -81.225998 -78.445 -74.003998 -69.002998 -64.561996 -59.561001 -55.119999 -50.679001 -40.678001 -33.707001 -29.266001 -26.485001 -23.704 -20.923 -15.922 -10.921 -7.2589998 -3.928 1.073 4.4039998 8.066 13.067 18.068001 23.069 26.959999 30.622 33.403 38.403999 42.066002 45.957001 50.958 54.289001 57.716999 62.158001 66.598999 71.040001 81.041 83.821999 87.712997 91.375 94.155998 99.156998 103.598 107.26 111.551 116.552 120.993 125.434 130.435 133.216 135.99699 140.998 145.99899 148.5 152.162 155.493 160.494 164.38499 167.166 171.60699 176.048 180.45 182.951 186.61301 193.48399 197.924 201.586 206.58701 211.588 215.25 220.25101 225.252 228.914"
             y="78.333"
             sodipodi:role="line"
             id="tspan170">down maintenance—waiting for bugs to surface—is the exception. Instead, we go up a</tspan><tspan
             x="-126.717 -123.937 -119.746 -114.895 -110.455 -107.675 -104.895 -101.598 -98.818001 -93.818001 -89.928001 -84.928001 -80.487999 -76.047997 -73.267998 -69.971001 -67.191002 -62.191002 -57.750999 -54.453999 -46.674 -42.234001 -37.793999 -32.793999 -30.014 -25.014 -20.573999 -16.684 -13.387 -9.1960001 -4.3449998 0.094999999 3.6229999 8.6230001 11.92 16.92 21.011 26.011 29.308001 33.748001 38.748001 43.748001 47.044998 52.605 57.605 60.902 67.773003 72.212997 76.653 79.983002 82.763 87.763 92.763 96.059998 101.06 105.5 109.028 111.808 115.698 118.995 123.995 128.435 131.765 136.765 140.095 144.535 147.832 150.612 155.612 159.903 164.903 168.2 173.2 176.53 180.97 185.41 190.41 192.91 196.207 201.207 204.537 207.834 212.834 217.834 221.131 223.911 228.911"
             y="90.333"
             sodipodi:role="line"
             id="tspan172">level: inspect the machines every day and ﬁx wearing parts before they break, or do the</tspan><tspan
             x="-126.717 -122.277 -117.277 -112.277 -109.746 -104.995 -100.555 -97.775002 -93.334999 -88.334999 -85.555 -81.736 -76.736 -73.405998 -69.586998 -66.806999 -61.806999 -57.367001 -53.548 -48.548 -45.217999 -40.667 -35.816002 -31.375999 -28.046 -23.046 -20.266001 -15.826 -13.046 -9.2270002 -4.2270002 0.773 3.273 8.2729998 13.273 18.273001 21.603001 29.382999 32.162998 34.943001 39.382999 43.202 48.202 50.981998 53.762001 57.581001 62.021 67.021004 71.460999 76.460999 81.460999 85.901001 89.720001 92.5 97.5 101.319 104.649 109.649 112.979 117.419 121.309 124.089 128.52901 131.30901 134.089 137.908 144.77901 149.21899 153.659 156.989 160.808 165.248 170.248 175.248 179.067 181.847 186.287 190.72701 193.508 196.008 199.827 203.157 208.157 211.976 216.416 221.416 226.416 230.856"
             y="102.333"
             sodipodi:role="line"
             id="tspan174">equivalent of the proverbial 10,000-mile oil change to forestall wear and tear. In code,</tspan><tspan
             x="-126.717 -123.387 -118.947 -115.519 -111.079 -106.639 -103.859 -98.859001 -95.528999 -92.278999 -84.499001 -80.058998 -76.728996 -72.289001 -69.509003 -66.728996 -62.289001 -58.398998 -54.508999 -51.978001 -47.827999 -45.327999 -42.976002 -37.355 -32.355 -27.355 -24.105 -19.665001 -15.225 -10.225 -6.9749999 -4.1950002 3.585 8.585 11.915 16.466 21.316999 25.757 29.007 33.808998 38.249001 41.028999 44.278999 49.278999 54.278999 58.719002 61.969002 64.749001 68.940002 73.791 78.231003 81.011002 84.261002 87.591003 92.591003 96.119003 98.899002 103.899 108.339 111.271 113.771 117.021 121.461 125.351 128.601 131.381 136.381 140.821 143.573 149.683 155.243 164.133 167.383 175.16299 179.714 184.565 189.005 196.785 201.22501 206.22501 209.005 212.255 215.035 220.035 225.035 230.035"
             y="114.333"
             sodipodi:role="line"
             id="tspan176">refactor mercilessly. You can improve yet one level further, as the TPM movement inno-</tspan><tspan
             x="-126.717 -121.966 -117.525 -114.744 -110.303 -105.302 -102.972 -98.420998 -93.57 -89.128998 -85.797997 -83.468002 -78.467003 -73.466003 -71.136002 -66.334 -61.893002 -57.452 -54.120998 -50.23 -47.900002 -43.459 -38.458 -33.457001 -30.676001 -28.346001 -23.344999 -18.344 -15.563 -12.782 -7.7810001 -5.4510002 2.3299999 6.7709999 11.212 16.212999 18.993999 23.995001 28.436001 32.327 34.657001 37.438 42.438999 46.880001 49.660999 51.991001 56.431999 59.763 64.204002 66.533997 74.315002 79.316002 82.647003 87.087997 89.417999 97.198997 101.64 104.421 109.422 112.203 116.644 119.425 124.426 128.867 133.66901 136.45 140.89101 143.22099 146.002 151.00301 153.33299 156.114 161.11501 165.556 167.886 173.44701 176.778 180.66901 183.45 185.78 190.78101 193.562 198.00301 202.444 206.88499 209.386 211.716 220.60699 225.048 230.049"
             y="126.333"
             sodipodi:role="line"
             id="tspan178">vated over 50 years ago: build machines that are more maintainable in the ﬁrst place. Mak-</tspan><tspan
             x="-126.717 -123.937 -118.937 -113.937 -109.934 -105.132 -100.132 -95.132004 -91.802002 -87.799004 -83.359001 -78.359001 -73.359001 -68.918999 -64.916 -61.585999 -57.146 -52.706001 -47.706001 -43.265999 -38.464001 -35.683998 -31.243999 -27.240999 -24.461 -20.570999 -16.568001 -12.128 -8.2379999 -4.2350001 -1.455 6.3249998 11.325 16.325001 19.853001 22.632999 27.073 32.073002 34.853001 38.855999 43.296001 47.186001 51.188999 58.969002 63.409 68.408997 71.189003 76.189003 81.189003 85.192001 87.972 90.751999 94.754997 99.045998 103.748 108.188 112.628 117.628 120.408 124.848 129.64999 132.42999 136.87 139.37 142.875 148.985 153.985 158.425 162.42799 167.42799 170.20799 172.98801 175.76801 183.548 187.98801 190.76801 195.20799 199.211 204.211 207.541 211.981 216.42101 219.201 221.981 226.42101 230.86099"
             y="138.33299"
             sodipodi:role="line"
             id="tspan180">ing your code readable is as important as making it executable. The ultimate practice,</tspan><tspan
             x="-126.717 -123.937 -118.937 -116.157 -112.827 -107.827 -102.827 -97.827003 -93.387001 -88.946999 -83.946999 -81.404999 -78.625 -73.625 -71.581001 -65.471001 -59.910999 -51.021 -48.479 -44.039001 -41.258999 -37.929001 -33.488998 -30.709 -26.268999 -22.379 -19.837 -15.397 -12.067 -7.0669999 -2.0669999 2.9330001 7.9330001 10.475 15.475 20.475 25.475 30.475 32.974998 35.516998 38.297001 42.187 44.729 47.508999 52.508999 55.050999 58.381001 63.381001 67.820999 72.820999 76.710999 79.252998 84.252998 89.252998 91.794998 94.574997 99.574997 102.355 105.685 110.685 115.685 120.685 125.125 127.905 132.905 137.905 140.44701 144.88699 149.88699 152.66701 155.44701 158.77699 163.217 165.759 170.759 174.95 182.17 184.71201 192.492 196.93201 201.37199 206.37199 209.15199 214.15199 218.592 222.48199 225.024 230.024"
             y="150.33299"
             sodipodi:role="line"
             id="tspan182">introduced in TPM circles around 1960, is to focus on introducing entire new machines or</tspan></text>
        <g
           id="g186">
          <g
             id="g188"
             clip-path="url(#clipPath192)">
            <path
               d="m -37.08,664.778 h 36 m -36,-666 h 36 m 522,0 h 36 m -36,666 h 36 m -549,45 v -36 m 504,36 v -36 m 0,-684 v -36 m -504,36 v -36"
               style="fill:none;stroke:#ffffff;stroke-width:0.75;stroke-linecap:butt;stroke-linejoin:miter;stroke-miterlimit:10;stroke-dasharray:none;stroke-opacity:1"
               id="path194" />
            <path
               d="m -37.08,664.778 h 36 m -36,-666 h 36 m 522,0 h 36 m -36,666 h 36 m -549,45 v -36 m 504,36 v -36 m 0,-684 v -36 m -504,36 v -36 m -12,378 c 0,3.312 -2.688,6 -6,6 -3.312,0 -6,-2.688 -6,-6 0,-3.312 2.688,-6 6,-6 3.312,0 6,2.688 6,6 z m -24,0 h 27 m -9,24 v -48 m 545.94,24 c 0,3.312 -2.688,6 -6,6 -3.312,0 -6,-2.688 -6,-6 0,-3.312 2.688,-6 6,-6 3.312,0 6,2.688 6,6 z m -14.94,0 h 27 m -18,24 v -48 m -534,345 c 0,3.312 -2.688,6 -6,6 -3.312,0 -6,-2.688 -6,-6 0,-3.312 2.688,-6 6,-6 3.312,0 6,2.688 6,6 z m -24,0 h 27 m -9,9 v -33 m 6,-618 c 0,3.312 -2.688,6 -6,6 -3.312,0 -6,-2.688 -6,-6 0,-3.312 2.688,-6 6,-6 3.312,0 6,2.688 6,6 z m -24,0 h 27 m -9,24 v -33 m 545.94,651 c 0,3.312 -2.688,6 -6,6 -3.312,0 -6,-2.688 -6,-6 0,-3.312 2.688,-6 6,-6 3.312,0 6,2.688 6,6 z m -14.94,0 h 27 m -18,9 v -33 m 5.94,-618 c 0,3.312 -2.688,6 -6,6 -3.312,0 -6,-2.688 -6,-6 0,-3.312 2.688,-6 6,-6 3.312,0 6,2.688 6,6 z m -14.94,0 h 27 m -18,24 v -33"
               style="fill:none;stroke:#000000;stroke-width:0.25;stroke-linecap:butt;stroke-linejoin:miter;stroke-miterlimit:10;stroke-dasharray:none;stroke-opacity:1"
               id="path196" />
          </g>
        </g>
      </g>
    </g>
    <g
       id="g198">
      <g
         id="g200"
         transform="translate(218,6.56)">
        <text
           xml:space="preserve"
           transform="scale(1,-1)"
           style="font-variant:normal;font-weight:normal;font-size:10px;font-family:Helvetica;-inkscape-font-specification:Helvetica;writing-mode:lr-tb;fill:#0000ff;fill-opacity:1;fill-rule:nonzero;stroke:none"
           id="text204"><tspan
             x="0 7.2199998 14.44 21.66 24.440001 26.66 29.440001 32.77 38.330002 43.889999 49.450001 55.009998 60.009998 65.010002 67.790001 70.010002 75.57 78.349998"
             y="0"
             sodipodi:role="line"
             id="tspan202">www.it-ebooks.info</tspan></text>
        <g
           id="g206"
           transform="translate(-218,-6.56)" />
      </g>
    </g>
  </g>
</svg>
