<?xml version="1.0" encoding="UTF-8" standalone="no"?>
<!-- Created with Inkscape (http://www.inkscape.org/) -->

<svg
   version="1.1"
   id="svg2"
   width="690.14398"
   height="888.47998"
   viewBox="0 0 690.14398 888.47998"
   sodipodi:docname="4PmrqTPDrJV6cyWn.pdf"
   xmlns:inkscape="http://www.inkscape.org/namespaces/inkscape"
   xmlns:sodipodi="http://sodipodi.sourceforge.net/DTD/sodipodi-0.dtd"
   xmlns="http://www.w3.org/2000/svg"
   xmlns:svg="http://www.w3.org/2000/svg">
  <defs
     id="defs6">
    <clipPath
       clipPathUnits="userSpaceOnUse"
       id="clipPath146">
      <path
         d="M 0,665.858 H 519.84 V 0 H 0 Z"
         id="path144" />
    </clipPath>
  </defs>
  <sodipodi:namedview
     id="namedview4"
     pagecolor="#ffffff"
     bordercolor="#000000"
     borderopacity="0.25"
     inkscape:showpageshadow="2"
     inkscape:pageopacity="0.0"
     inkscape:pagecheckerboard="0"
     inkscape:deskcolor="#d1d1d1" />
  <g
     id="g8"
     inkscape:groupmode="layer"
     inkscape:label="4PmrqTPDrJV6cyWn"
     transform="matrix(1.3333333,0,0,-1.3333333,-1.46,887.61333)">
    <g
       id="g10">
      <g
         id="g12">
        <text
           xml:space="preserve"
           transform="matrix(1,0,0,-1,79.92,622.111)"
           style="font-variant:normal;font-weight:normal;font-size:10px;font-family:'Times New Roman';-inkscape-font-specification:TimesNewRomanPS;writing-mode:lr-tb;fill:#231f20;fill-opacity:1;fill-rule:nonzero;stroke:none"
           id="text16"><tspan
             x="0 5 10 12.78"
             y="0"
             sodipodi:role="line"
             id="tspan14">xxii</tspan></text>
        <text
           xml:space="preserve"
           transform="matrix(1,0,0,-1,398.31,622.111)"
           style="font-variant:normal;font-weight:bold;font-size:10px;font-family:'Times New Roman';-inkscape-font-specification:TimesNewRomanPS-Bold;writing-mode:lr-tb;fill:#231f20;fill-opacity:1;fill-rule:nonzero;stroke:none"
           id="text20"><tspan
             x="0 5.5120001 10.512 14.666 18.82 25.754 30.754 35.044998"
             y="0"
             sodipodi:role="line"
             id="tspan18">Foreword</tspan></text>
        <text
           xml:space="preserve"
           transform="matrix(1,0,0,-1,79.92,586.111)"
           style="font-variant:normal;font-weight:normal;font-size:10px;font-family:'Times New Roman';-inkscape-font-specification:TimesNewRomanPS;writing-mode:lr-tb;fill:#231f20;fill-opacity:1;fill-rule:nonzero;stroke:none"
           id="text24"><tspan
             x="0 6.1100001 11.11 13.89 17.780001 20.037001 22.816999 27.816999 32.257 35.036999 37.817001 42.257 47.257 50.036999 52.568001 57.418999 61.859001 66.859001 71.299004 75.189003 79.079002 81.335999 85.776001 90.776001 94.666 97.445999 101.336 103.593 108.593 112.483 114.74 117.52 122.52 124.777 127.557 132.55701 136.99699 139.254 143.694 148.694 153.694 156.474"
             y="0"
             sodipodi:role="line"
             id="tspan22">This inattentiveness costs us in the end: </tspan></text>
        <text
           xml:space="preserve"
           transform="matrix(1,0,0,-1,238.017,586.111)"
           style="font-style:italic;font-variant:normal;font-size:10px;font-family:'Times New Roman';-inkscape-font-specification:TimesNewRomanPS-Italic;writing-mode:lr-tb;fill:#231f20;fill-opacity:1;fill-rule:nonzero;stroke:none"
           id="text28"><tspan
             x="0 6.1100001 8.3669996 13.367 18.367001 23.367001 25.624001 30.624001 35.063999 40.063999 44.966 49.405998 51.662998 56.662998 59.345001 65.865997 70.865997 75.306 79.195999 81.453003 85.343002 90.343002 95.144997 101.815 105.705 107.962 112.962"
             y="0"
             sodipodi:role="line"
             id="tspan26">A bad penny always shows up</tspan></text>
        <text
           xml:space="preserve"
           transform="matrix(1,0,0,-1,355.969,586.111)"
           style="font-variant:normal;font-weight:normal;font-size:10px;font-family:'Times New Roman';-inkscape-font-specification:TimesNewRomanPS;writing-mode:lr-tb;fill:#231f20;fill-opacity:1;fill-rule:nonzero;stroke:none"
           id="text36"><tspan
             x="0 2.5 4.757 11.427 15.867 19.757 24.197001 28.636999 31.966999 36.407001 41.407001 43.907001 46.164001 51.164001 55.604 58.383999 61.164001 66.164001 70.603996 73.933998 76.191002 78.971001"
             y="0"
             sodipodi:role="line"
             id="tspan30">. Research, neither in</tspan><tspan
             x="-276.04901 -273.26901 -268.26901 -263.26901 -258.26901 -254.379 -251.599 -248.071 -243.071 -240.192 -235.192 -230.192 -226.862 -223.983 -221.203 -216.203 -213.32401 -208.884 -204.444 -200.004 -195.004 -190.564 -182.784 -180.004 -175.564 -173.064 -170.185 -165.185 -160.185 -152.405 -147.603 -144.823 -140.383 -136.493 -133.614 -130.834 -128.054 -124.164 -119.724 -116.944 -113.614 -110.735 -107.955 -102.955 -100.076 -97.295998 -92.295998 -87.856003 -84.976997 -82.196999 -77.595001 -70.375 -67.844002 -62.844002 -59.965 -56.075001 -53.294998 -48.855 -46.075001 -43.294998 -38.294998 -33.294998 -30.416 -25.416 -22.086 -19.207001 -14.305 -9.8649998 -5.4250002 -0.42500001 2.355 7.355 12.355 15.234 19.674 24.674 29.674 34.113998 36.993 41.432999 44.213001 48.653 53.092999 58.092999 60.592999 63.472 70.141998 74.582001 79.022003"
             y="12"
             sodipodi:role="line"
             id="tspan32">industry nor in academia, humbles itself to the lowly station of keeping code clean. Back</tspan><tspan
             x="-276.04901 -273.26999 -268.271 -265.681 -258.29901 -253.299 -250.709 -245.71001 -241.619 -236.62 -232.731 -230.14101 -223.319 -218.32001 -214.991 -209.992 -207.213 -202.214 -197.215 -194.625 -191.84599 -186.847 -184.257 -181.478 -176.479 -172.03999 -169.45 -162.78101 -158.342 -155.563 -152.784 -150.194 -144.08501 -139.646 -134.647 -130.758 -128.168 -122.609 -117.61 -114.281 -111.502 -104.531 -100.092 -96.763 -92.323997 -89.734001 -84.175003 -80.846001 -75.847 -70.848 -65.848999 -61.41 -58.631001 -55.852001 -50.853001 -45.854 -43.264 -36.595001 -32.155998 -28.267 -23.827999 -19.389 -16.059999 -11.621 -6.6220002 -4.0320001 0.96700001 4.119 9.118 13.557 18.556 21.334999 25.774 30.212999 32.992001 35.771 40.77 45.769001 48.359001"
             y="24"
             sodipodi:role="line"
             id="tspan34">in my days working in the Bell Labs Software Production Research organization (</tspan></text>
        <text
           xml:space="preserve"
           transform="matrix(1,0,0,-1,407.606,562.111)"
           style="font-style:italic;font-variant:normal;font-size:10px;font-family:'Times New Roman';-inkscape-font-specification:TimesNewRomanPS-Italic;writing-mode:lr-tb;fill:#231f20;fill-opacity:1;fill-rule:nonzero;stroke:none"
           id="text42"><tspan
             x="0 6.1100001 9.5509996 14.551 19.551001 24.551001 28.990999"
             y="0"
             sodipodi:role="line"
             id="tspan38">Produc-</tspan><tspan
             x="-327.686 -324.90601 -322.12601 -317.12601"
             y="12"
             sodipodi:role="line"
             id="tspan40">tion</tspan></text>
        <text
           xml:space="preserve"
           transform="matrix(1,0,0,-1,95.477,550.111)"
           style="font-variant:normal;font-weight:normal;font-size:10px;font-family:'Times New Roman';-inkscape-font-specification:TimesNewRomanPS;writing-mode:lr-tb;fill:#231f20;fill-opacity:1;fill-rule:nonzero;stroke:none"
           id="text106"><tspan
             x="0 2.5 6.0190001 8.7989998 13.799 18.799 23.239 27.679001 32.679001 36.008999 39.339001 42.858002 49.729 54.168999 57.688 62.688 67.127998 72.127998 75.647003 79.537003 84.537003 92.317001 96.757004 100.276 105.276 109.716 114.156 119.156 122.486 127.486 130.81599 134.146 136.92599 141.92599 146.366 149.696 154.136 158.73801 163.589 168.02901 170.80901 175.80901 180.80901 185.24899 188.76801 194.328 199.328 204.328 207.108 212.108 217.108 220.998 224.517 227.297 232.297 236.737 239.517 243.036 246.92599 251.92599 256.92599 261.92599 266.366 270.25601 273.03601 277.47601 282.47601 285.995 288.77499 293.77499 298.215 300.995 304.51401 308.95401 313.95401 318.95401 322.84399 325.62399 329.51401 332.29401 336.73401 341.73401"
             y="0"
             sodipodi:role="line"
             id="tspan44">, indeed!) we had some back-of-the-envelope ﬁndings that suggested that consistent</tspan><tspan
             x="-15.557 -12.776 -7.7750001 -2.7739999 1.6670001 6.6680002 9.4490004 13.89 16.671 19.452 24.452999 29.454 31.878 35.769001 38.549999 43.550999 46.332001 50.772999 53.196999 60.167999 64.609001 68.5 70.924004 75.925003 80.926003 85.366997 87.791 92.792 96.123001 98.546997 101.328 106.329 110.77 113.194 120.975 125.976 129.867 132.64799 135.07201 138.963 141.744 146.185 148.966 151.74699 155.638 158.41901 161.2 165.64101 170.082 172.86301 175.394 180.395 182.819 186.71001 189.491 194.492 199.493 202.274 207.83501 212.276 216.717 221.718 224.49899 226.923 229.70399 234.705 239.70599 242.487 246.92799 251.369 254.14999 259.151 262.48199 266.37299 268.797 273.798 277.129 279.55301 282.33401 286.936 294.15701 296.58099 301.582 306.58301 311.58401 314.008 319.009 323.45001 328.45099 332.34201 335.12299 337.90399 342.05399"
             y="12"
             sodipodi:role="line"
             id="tspan46">indentation style was one of the most statistically signiﬁcant indicators of low bug density.</tspan><tspan
             x="-15.557 -7.1170001 0.95700002 7.928 12.368 17.368 20.148001 23.782 26.562 29.341999 32.976002 35.756001 40.756001 44.389999 49.389999 53.830002 57.464001 60.243999 65.244003 69.683998 72.463997 76.098 80.538002 83.867996 88.307999 93.307999 96.087997 98.867996 103.308 107.748 110.528 115.528 118.858 123.298 126.932 131.93201 135.26199 138.896 143.896 147.226 151.97701 157.175 160.505 164.94501 172.72501 180.505 183.285 188.285 193.285 196.91901 199.69901 204.13901 209.13901 214.13901 219.13901 223.57899 228.57899 233.019 236.653 241.653 244.983 248.617 252.507 257.50699 265.28699 269.72699 273.36099 278.36099 281.14099 286.14099 290.58099 293.91101 297.54501 302.54501 305.32501 310.32501 315.32501 318.95901 323.95901 328.95901 331.73901 334.51901 339.51901"
             y="24"
             sodipodi:role="line"
             id="tspan48">Wewant it to be that architecture or programming language or some other high notion</tspan><tspan
             x="-15.557 -11.667 -6.6669998 -1.6670001 3.3329999 6.1129999 11.113 14.954 19.954 24.393999 28.235001 31.014999 36.014999 40.455002 44.296001 48.736 53.175999 58.175999 62.066002 66.505997 70.347 75.347 78.677002 82.517998 87.517998 92.517998 96.958 99.737999 102.518 105.298 110.298 113.078 116.919 121.359 125.249 129.09 134.09 138.53 143.53 148.53 151.31 155.75 159.591 166.61301 171.61301 176.61301 180.50301 184.94299 188.784 192.674 197.674 202.674 207.674 212.674 216.564 221.004 226.004 229.845 234.845 238.175 243.175 246.505 250.94501 254.83501 258.72501 261.505 266.505 271.505 275.94501 278.72501 281.505 285.39499 293.17499 297.01599 301.61801 308.48901 312.92899 316.819 320.66 323.44 328.44 332.28101 335.061 340.061"
             y="36"
             sodipodi:role="line"
             id="tspan50">should be the cause of quality; as people whose supposed professionalism owes to the</tspan><tspan
             x="-15.557 -7.777 -3.3369999 0.55299997 3.3329999 7.7729998 11.301 16.301001 18.648001 23.648001 26.978001 29.325001 32.105 37.105 42.105 44.884998 48.775002 51.122002 55.562 60.562 65.561996 67.908997 70.689003 75.689003 79.018997 81.799004 86.799004 89.146004 94.146004 98.585999 102.476 105.256 110.256 115.256 117.603 125.383 129.823 132.603 137.603 142.603 147.603 151.493 153.993 156.34 163.211 167.651 169.998 173.328 177.76801 182.20799 184.98801 187.33501 190.11501 195.11501 199.005 204.005 206.785 209.565 214.005 219.005 221.35201 226.103 231.103 233.45 236.23 241.23 245.67 248.017 252.76801 257.20801 259.98801 264.98801 269.42801 271.77499 274.55499 279.55499 283.995 286.77499 289.12201 291.90201 296.90201 301.90201 305.79199 310.23199 312.57901 316.00699 320.44699 324.88699 327.66699 332.66699 336.19501 341.19501"
             y="48"
             sodipodi:role="line"
             id="tspan52">mastery of tools and lofty design methods, we feel insulted by the value that those factory-</tspan><tspan
             x="-15.557 -9.9969997 -4.9970002 0.003 3.3329999 5.7030001 13.483 17.923 22.363001 27.363001 30.143 35.143002 39.583 43.473 45.973 48.342999 51.123001 56.123001 60.563 62.932999 67.373001 72.373001 77.373001 81.813004 85.142998 89.032997 91.532997 93.903 98.343002 103.343 108.343 110.713 113.493 118.493 121.823 126.823 131.823 136.823 141.823 144.19299 146.97301 151.97301 156.41299 158.783 162.673 165.453 173.233 178.233 181.013 185.453 187.823 192.263 197.263 202.263 206.153 208.933 212.823 215.603 220.043 225.043 227.823 230.19299 234.633 239.633 244.633 247.41299 250.19299 254.633 259.073 261.853 264.633 269.633 274.633 277.00299 282.00299 285.33301 287.703 292.14301 297.14301 299.513 302.293 307.293 312.293 316.733 321.733 324.513 328.953 331.733 334.513 339.513"
             y="60"
             sodipodi:role="line"
             id="tspan54">ﬂoor machines, the coders, add through the simple consistent application of an indentation</tspan><tspan
             x="-15.557 -11.667 -8.8870001 -3.8870001 -1.107 3.3329999 5.8330002 8.9289999 14.241 19.240999 22.834999 27.834999 32.834999 37.834999 40.615002 45.055 48.648998 56.030998 61.030998 64.625 69.226997 76.446999 81.446999 85.041 90.041 95.041 100.041 105.041 108.635 113.635 116.965 120.559 125.559 130.55901 134.153 138.955 143.395 147.83501 151.16499 155.05499 158.649 163.089 168.089 173.089 175.589 179.183 183.073 188.073 192.513 197.513 201.10699 204.99699 207.77699 212.77699 215.55701 219.99699 223.591 228.591 231.371 235.261 238.041 240.821 245.821 250.821 255.821 258.60101 262.491 267.491 271.931 275.82101 279.41501 283.70599 288.70599 293.146 297.586 300.366 303.146 307.586 312.586 317.026 321.466 325.06 328.39001 331.72 336.72"
             y="72"
             sodipodi:role="line"
             id="tspan56">style. To quote my own book of 17 years ago, such style distinguishes excellence from</tspan><tspan
             x="-15.557 -7.777 -3.3369999 -0.0070000002 4.4330001 7.3109999 11.751 16.750999 24.531 29.531 33.971001 36.750999 41.191002 46.191002 50.631001 55.070999 57.570999 59.951 66.060997 71.060997 75.500999 78.378998 82.268997 86.709 91.709 96.149002 101.149 105.589 109.479 113.919 116.797 123.619 128.619 131.94901 134.729 139.729 144.729 147.509 151.7 158.92 161.798 166.798 171.798 176.798 181.23801 184.56799 188.45799 191.23801 195.67799 200.67799 205.67799 209.56799 212.446 215.226 220.226 224.666 227.54401 231.98399 235.51199 240.51199 244.952 247.73199 252.172 254.952 257.82999 262.58099 267.021 269.80099 274.80099 279.241 282.11899 287.11899 290.44901 293.327 296.10699 301.10699 305.547 308.42499 312.616 317.46701 321.90701 325.435 330.435 335.435 339.526"
             y="84"
             sodipodi:role="line"
             id="tspan58">mere competence. The Japanese worldview understands the crucial value of the everyday</tspan><tspan
             x="-15.557 -8.7349997 -3.7349999 -0.405 4.4970002 8.9370003 12.267 16.264 20.704 25.704 30.106001 32.605999 36.603001 44.382999 49.382999 52.713001 57.153 61.150002 65.040001 70.040001 72.540001 76.537003 81.537003 84.866997 88.863998 91.643997 96.643997 101.084 105.081 108.971 113.971 117.861 120.641 125.081 132.86099 136.75101 140.748 145.748 149.078 153.075 158.075 162.26601 167.117 171.55701 174.33701 179.33701 184.33701 192.117 196.55701 201.55701 204.33701 208.334 211.114 216.114 220.554 223.334 227.33099 231.933 238.804 243.244 247.241 250.021 255.021 259.01801 261.798 266.798 271.23801 275.23499 279.125 281.905 289.685 294.685 297.465 301.905 304.405 308.40201 312.59299 317.444 321.884 325.41199 330.41199 335.41199 339.50299"
             y="96"
             sodipodi:role="line"
             id="tspan60">worker and, more so, of the systems of development that owe to the simple, everyday</tspan><tspan
             x="-15.557 -11.117 -6.677 -3.8970001 -1.117 3.8829999 8.8830004 12.773 15.294 20.294001 23.624001 26.145 28.924999 33.924999 38.924999 42.814999 47.255001 49.776001 56.598 61.598 64.928001 69.830002 74.269997 77.599998 81.489998 83.989998 86.511002 93.731003 98.731003 103.171 105.951 108.731 111.511 116.511 119.032 121.812 125.702 128.22301 131.00301 136.00301 140.44299 142.964 146.29401 150.73399 154.62399 159.62399 162.40401 165.18401 167.705 172.705 176.035 178.556 182.996 185.517 193.297 196.077 198.85699 201.63699 204.41701 209.41701 214.41701 216.938 220.828 225.26801 228.048 233.608 238.048 241.938 245.828 248.349 252.789 257.229 260.009 263.89899 266.42001 271.42001 274.75 277.271 281.711 286.151 289.48099 293.92099 303.92099 308.92099 313.92099 316.70099 319.22198 322.00201 327.00201 330.892 333.672 336.19299 341.19299"
             y="108"
             sodipodi:role="line"
             id="tspan62">actions of those workers. Quality is the result of a million selﬂess acts of care—not just of</tspan><tspan
             x="-15.557 -11.117 -6.3660002 -1.3660001 1.156 6.3540001 9.684 14.124 18.563999 21.344 23.865999 31.646 36.085999 38.866001 43.866001 48.866001 53.866001 56.388 59.167999 64.167999 68.608002 71.388 73.910004 78.910004 83.349998 87.239998 91.68 96.120003 101.12 106.12 110.01 112.532 115.862 119.192 124.192 131.972 134.494 137.274 142.274 146.714 149.23599 154.23599 158.67599 162.767 167.618 172.058 177.058 180.948 183.448 185.472 191.582 196.582 201.022 203.802 206.32401 209.104 214.104 218.54401 222.43401 226.87399 229.396 233.836 238.276 241.056 244.946 247.468 251.908 255.23801 259.67801 262.20001 266.09 268.87 276.64999 281.64999 284.42999 288.87 291.392 296.392 301.392 305.832 309.72198 314.72198 317.55399 320.33401 322.85599 330.63599 335.07599 339.51599"
             y="120"
             sodipodi:role="line"
             id="tspan64">any great method that descends from the heavens. That these acts are simple doesn’t mean</tspan><tspan
             x="-15.557 -12.777 -7.777 -3.3369999 -0.55699998 2.7 5.48 10.48 14.771 19.771 23.028 27.468 30.798 35.237999 38.494999 42.384998 45.165001 52.945 57.945 60.724998 63.505001 67.394997 70.175003 72.955002 77.394997 79.894997 83.152 87.592003 92.592003 97.592003 100.849 103.629 106.409 109.666 114.666 119.106 122.436 127.436 129.967 134.967 138.224 146.004 150.444 154.884 159.884 163.774 167.03101 169.811 174.811 179.25101 182.03101 185.28799 188.06799 193.06799 197.35899 202.35899 205.616 210.056 213.386 217.826 221.08299 225.52299 229.963 233.853 238.00301 240.50301 243.26199 249.37199 254.37199 258.66299 263.66299 266.92001 271.35999 274.69 279.13 282.38699 287.38699 292.38699 297.38699 301.827 304.60699 309.60699 314.047 316.827 321.267 325.15701 329.047 332.30399 335.08401 340.08401"
             y="132"
             sodipodi:role="line"
             id="tspan66">that they are simplistic, and it hardly means that they are easy. They are nonetheless the</tspan><tspan
             x="-15.557 -12.129 -7.6890001 -2.6889999 0.64099997 3.421 7.8610001 10.607 15.607 18.937 21.683001 26.881001 30.211 34.651001 39.091 41.870998 46.870998 51.311001 55.201 59.091 61.837002 66.277 71.277 75.679001 78.179001 80.925003 88.705002 93.705002 97.035004 101.475 104.221 108.111 113.111 115.611 118.357 123.357 126.687 129.433 134.433 138.873 143.313 148.313 151.093 155.243 157.743 160.489 163.269 168.269 171.015 175.455 180.20599 185.20599 187.952 192.952 197.952 205.73199 210.172 215.172 217.918 222.358 227.358 232.358 236.798 240.88901 245.69099 250.69099 253.472 255.972 258.22 263.53201 268.53201 271.27802 274.05801 279.05801 284.05801 289.05801 292.388 296.828 299.57401 302.354 307.354 311.79401 319.57401 322.32001 325.10001 328.98999 331.73599 336.73599 341.73599"
             y="144"
             sodipodi:role="line"
             id="tspan68">fabric of greatness and, more so, of beauty, in any human endeavor. To ignore them is not</tspan><tspan
             x="-15.557 -10.755 -6.3150001 -3.5350001 -1.035 1.745 6.7449999 9.2449999 14.245 18.684999 21.184999 24.514999 29.514999 32.294998 34.826 39.826 42.326 47.326 52.326 60.105999 64.545998 69.545998"
             y="156"
             sodipodi:role="line"
             id="tspan70">yet to be fully human.</tspan><tspan
             x="2.4430001 9.6630001 12.993 15.783 20.223 25.223 30.223 33.553001 37.443001 41.882999 44.382999 47.173 50.502998 53.292999 57.733002 65.513 68.303001 72.193001 74.973 77.752998 80.532997 83.313004 86.102997 90.542999 95.542999 98.333 102.773 107.773 112.575 117.575 122.015 126.455 129.235 133.675 136.465 141.465 144.795 147.58501 150.36501 155.36501 158.145 163.145 168.145 170.925 175.925 180.925 183.715 188.155 190.935 193.72501 198.72501 202.05499 207.05499 211.495 216.495 220.935 224.265 227.05499 230.94501 235.38499 240.38499 245.38499 249.825 252.325 255.11501 259.55499 264.55499 269.55499 272.345 277.345 281.785 285.31299 288.09299 290.87299 295.31299 300.31299 303.09299 307.53299 310.86301 313.39401 318.39401 321.18399 326.18399 329.51401 332.30399 335.08401 340.08401"
             y="171"
             sodipodi:role="line"
             id="tspan72">Of course, I am still an advocate of thinking at broader scope, and particularly of the</tspan><tspan
             x="-15.557 -10.806 -6.3660002 -3.586 1.414 5.8540001 8.1230001 13.123 16.452999 18.722 23.162001 26.492001 30.931999 35.931999 38.712002 41.492001 45.931999 50.372002 53.152 58.152 61.481998 65.921997 68.702003 70.971001 75.411003 80.411003 85.411003 88.740997 93.740997 98.181 102.621 107.621 112.061 115.951 118.22 121.55 126.55 131.55 134.33 138.77 143.77 146.039 148.819 153.819 156.088 161.088 165.528 169.968 174.968 177.237 182.237 187.237 195.017 199.457 202.237 207.237 209.506 214.506 219.506 224.108 231.328 234.108 238.548 243.548 248.548 252.98801 255.257 259.69699 264.69699 269.69699 271.966 275.85599 280.85599 284.186 286.966 293.93701 298.37701 301.707 306.147 308.41599 313.41599 317.306 321.746 326.746 329.526 332.306 335.086 337.866 342.01599"
             y="183"
             sodipodi:role="line"
             id="tspan74">value of architectural approaches rooted in deep domain knowledge and software usability.</tspan><tspan
             x="-15.557 -9.4469995 -4.447 -0.0070000002 2.355 7.355 12.355 17.355 22.355 24.716999 27.497 31.386999 36.387001 39.219002 41.999001 44.361 48.800999 53.800999 58.800999 63.800999 66.581001 68.943001 71.723 76.723 81.163002 83.943001 93.943001 98.943001 101.875 104.375 106.737 111.177 113.957 116.319 119.099 123.539 127.979 131.869 134.649 137.149 139.511 142.291 145.071 147.433 150.213 154.103 159.103 161.935 164.715 167.077 172.077 176.77901 181.77901 184.55901 189.55901 194.55901 198.44901 200.98 205.98 208.342 212.782 217.782 222.782 227.782 230.562 232.924 235.70399 240.70399 245.144 247.924 250.424 252.28799 258.39801 263.39801 266.17801 270.06799 272.42999 277.42999 282.42999 287.42999 292.42999 294.79199 299.79199 304.23199 308.12201 310.48401 314.92401 317.28601 321.17599 326.17599 331.17599 333.95599 336.73599 341.17599"
             y="195"
             sodipodi:role="line"
             id="tspan76">The book isn’t about that—or, at least, it isn’t obviously about that. This book has a subtler</tspan><tspan
             x="-15.557 -7.777 -3.3369999 0.55299997 4.4429998 8.8830004 13.883 18.323 21.205999 28.228001 33.228001 38.228001 42.118 46.557999 49.441002 54.441002 57.771 62.771 66.100998 71.100998 76.100998 81.100998 86.100998 91.100998 95.541 99.431 103.321 106.204 110.094 115.094 120.094 125.094 127.874 132.87399 135.757 140.757 145.757 148.537 151.42 156.42 160.86 163.743 168.743 173.743 178.743 183.183 186.513 190.953 195.953 200.953 204.283 208.72301 213.16299 215.94299 220.383 223.16299 227.603 232.603 235.103 237.98599 241.31599 244.09599 246.979 252.539 255.319 259.20901 262.09201 269.31201 272.09201 274.87201 279.87201 282.755 285.535 290.535 294.97501 297.858 302.298 307.298 310.92599 314.25601 318.69601 323.69601 326.47601 329.35901 333.24899 337.29099"
             y="207"
             sodipodi:role="line"
             id="tspan78">message whose profoundness should not be underappreciated. It ﬁts with the current saw</tspan><tspan
             x="-15.557 -10.557 -7.2270002 -2.349 0.43099999 5.4310002 9.8710003 14.749 18.079 22.518999 26.959 29.739 32.27 37.27 42.147999 46.588001 51.588001 56.588001 61.028 64.358002 69.358002 73.797997 77.688004 82.127998 87.127998 92.005997 97.005997 101.446 106.446 111.446 114.226 118.666 123.544 126.324 129.104 134.006 138.446 143.32401 148.48599 152.92599 155.70599 160.146 163.476 168.354 173.914 178.914 186.694 194.474 198.914 202.244 205.024 209.464 213.866 216.366 221.244 228.215 232.40601 237.40601 240.186 242.966 247.966 252.84399 260.064 264.504 269.504 274.504 278.79501 283.79501 288.673 293.11301 298.11301 303.11301 307.991 315.211 317.991 322.54199 327.293 331.733 336.733 341.733"
             y="219"
             sodipodi:role="line"
             id="tspan80">of the really code-based people like Peter Sommerlad, Kevlin Henney and Giovanni</tspan><tspan
             x="-15.557 -8.3369999 -4.447 0.55299997 3.8829999 8.8830004 13.883 16.663 19.163 22.513 26.952999 33.063 38.063 42.502998 45.853001 50.292999 55.292999 60.292999 64.733002 68.083 70.862999 74.752998 78.102997 80.883003 85.883003 90.322998 93.672997 98.672997 103.113 107.003 109.783 114.783 119.783 124.223 127.573 132.013 137.013 142.013 145.36301 149.80299 155.36301 158.14301 165.923 170.923 173.703 178.14301 181.493 185.933 190.933 195.933 200.373 204.813 208.16299 212.603 215.933 220.373 223.72301 226.50301 231.50301 235.94299 238.72301 242.05299 245.403 253.183 257.62299 262.62299 265.40302 268.733 273.173 277.06299 279.56299 282.61499 292.05499 297.05499 299.83499 302.61499 307.05499 310.405 317.276 321.716 325.06601 332.84601 337.84601 341.73599"
             y="231"
             sodipodi:role="line"
             id="tspan82">Asproni. “The code is the design” and “Simple code” are their mantras. While we must</tspan><tspan
             x="-15.557 -12.777 -8.3369999 -3.4349999 1.005 3.8369999 8.2770004 12.717 16.047001 20.487 23.319 26.099001 31.099001 33.931 37.261002 41.701 49.480999 53.921001 61.701 66.700996 71.140999 74.471001 77.303001 80.083 85.083 89.523003 92.303001 95.135002 97.915001 102.915 107.355 110.187 112.967 117.967 120.747 125.187 128.517 131.94501 136.38499 140.825 145.265 148.097 150.877 154.767 157.599 160.379 165.379 169.819 172.651 177.651 180.981 185.73199 190.92999 194.25999 198.7 206.48 208.98 211.812 216.252 221.252 226.252 229.084 231.864 236.864 241.304 244.084 246.916 249.696 252.476 256.366 259.198 263.08801 265.86801 269.396 274.396 278.836 281.616 286.616 289.94601 294.38599 298.276 301.108 306.108 310.19901 315.04999 319.48999 322.32199 330.10199 335.10199 339.54199"
             y="243"
             sodipodi:role="line"
             id="tspan84">take care to remember that the interface is the program, and that its structures have much</tspan><tspan
             x="-15.557 -12.777 -7.777 -4.6220002 -0.73199999 3.359 8.3590002 11.514 15.954 20.954 25.954 30.954 33.734001 36.889 41.889 46.889 50.219002 53.374001 58.374001 61.703999 66.455002 71.653 74.983002 79.422997 87.203003 90.358002 94.248001 97.028 100.556 105.556 109.996 112.776 117.776 121.106 125.546 128.04601 131.201 133.981 136.761 139.916 142.696 146.586 149.741 154.181 157.709 162.709 167.149 169.929 174.369 177.149 180.304 183.084 188.084 191.239 195.679 200.679 205.679 208.459 211.239 216.239 221.239 226.239 231.239 235.129 237.66 242.66 245.815 250.255 255.255 260.255 265.255 268.035 271.19 273.97 278.97 283.41 286.565 291.565 296.565 304.345 309.147 311.927 316.367 319.522 323.41199 326.19199 330.63199 335.63199 340.07199"
             y="255"
             sodipodi:role="line"
             id="tspan86">to say about our program structure, it is crucial to continuously adopt the humble stance</tspan><tspan
             x="-15.557 -12.777 -7.777 -3.3369999 -0.55699998 1.842 4.6220002 9.6219997 14.062 16.461 21.461 25.900999 29.791 32.570999 37.570999 42.570999 44.970001 47.75 50.280998 55.132 59.571999 63.462002 65.861 68.640999 73.640999 76.040001 78.82 83.82 88.260002 90.658997 95.098999 100.099 105.099 109.539 112.039 113.889 121.109 126.109 131.10899 133.508 140.53 145.53 148.31 151.09 155.53 157.929 161.259 165.45 172.272 177.272 180.60201 185.60201 188.00101 190.78101 195.78101 198.17999 200.96001 205.96001 210.39999 212.799 220.57899 225.019 230.019 235.019 238.44701 242.88699 247.327 250.10699 255.10699 258.43701 261.21701 266.21701 271.21701 273.616 281.396 285.836 288.616 293.056 298.056 303.056 308.056 311.38599 313.785 316.565 321.005 325.44501 330.44501 334.33499 336.73401 339.51401"
             y="267"
             sodipodi:role="line"
             id="tspan88">that the design lives in the code. And while rework in the manufacturing metaphor leads to</tspan><tspan
             x="-15.557 -11.117 -6.1170001 -2.227 0.55299997 3.053 5.3969998 8.7270002 12.918 19.74 24.74 28.07 33.07 35.414001 38.194 43.194 45.537998 50.537998 54.978001 58.868 61.647999 66.648003 71.648003 73.991997 76.772003 81.211998 85.652 90.652 94.542 96.886002 99.666 104.666 107.01 111.761 116.201 118.981 123.981 128.42101 130.92101 132.967 141.407 145.847 148.19099 152.08099 157.08099 162.08099 167.08099 169.86099 174.86099 177.205 182.205 184.985 189.17599 196.396 198.74001 203.74001 208.74001 212.07001 214.414 218.854 223.854 228.854 233.29401 235.638 240.078 243.968 246.312 249.092 254.092 258.53201 260.87601 265.87601 270.31601 274.75601 279.75601 282.53601 285.31601 288.646 293.646 296.42599 298.76999 303.20999 306.73801 309.51801 312.298 316.73801 321.73801 324.51801 328.95801 331.73801 334.51801 339.51801"
             y="279"
             sodipodi:role="line"
             id="tspan90">cost, rework in design leads to value. We should view our code as the beautiful articulation</tspan><tspan
             x="-15.557 -10.557 -7.2270002 -4.3379998 0.662 5.6620002 10.464 13.244 17.684 20.573 25.013 28.094 31.424 36.424 39.952 42.731998 46.622002 49.511002 54.511002 57.841 60.73 65.730003 70.169998 74.059998 76.839996 81.839996 86.839996 96.839996 101.84 106.28 110.17 112.95 117.95 122.95 125.839 130.27901 134.16901 137.058 141.498 144.38699 149.38699 152.717 157.717 162.157 166.597 170.487 174.377 176.877 179.76601 184.76601 189.76601 192.54601 195.435 199.875 202.76401 206.65401 209.43401 213.87399 216.65401 219.43401 223.87399 226.763 231.203 236.203 241.203 246.203 251.203 253.983 258.983 261.763 264.263 267.15201 270.48199 273.26199 275.19299 279.08301 281.97198 284.75201 289.75201 292.64099 295.42099 300.42099 304.86099 307.75 312.19 317.19 322.19 326.63 329.51901 332.29901 337.29901 341.73901"
             y="291"
             sodipodi:role="line"
             id="tspan92">of noble efforts of design—design as a process, not a static endpoint. It’s in the code that</tspan><tspan
             x="-15.557 -12.777 -7.777 -3.3369999 -0.963 3.477 6.8070002 11.247 16.247 19.027 21.806999 26.247 30.687 33.466999 38.466999 41.797001 46.237 49.016998 51.390999 59.171001 63.611 66.390999 69.721001 72.500999 76.941002 80.831001 83.205002 88.205002 91.535004 93.908997 98.348999 103.349 108.349 113.349 116.129 118.909 123.909 128.909 131.283 135.72301 140.72301 145.72301 148.097 152.537 157.537 162.537 166.97701 170.867 173.647 178.647 183.647 186.021 191.021 193.80099 197.892 202.892 205.26601 210.26601 215.26601 218.04601 220.54601 222.92 226.25 229.58 231.95399 236.756 241.756 246.756 249.13 251.91 254.69 258.57999 261.35999 265.79999 270.79999 273.17401 275.95401 280.95401 283.328 289.43799 293.87799 297.50601 301.034 306.034 308.40799 315.078 320.078 325.078 328.96799 331.74799 336.18799 341.18799"
             y="303"
             sodipodi:role="line"
             id="tspan94">the architectural metrics of coupling and cohesion play out. If you listen to Larry Constan-</tspan><tspan
             x="-15.557 -12.777 -9.9969997 -4.9970002 -0.55699998 2.536 7.5359998 11.976 15.866 20.306 23.636 26.416 31.416 35.855999 38.949001 43.389 48.389 53.389 58.389 61.168999 63.949001 68.948997 73.948997 77.042 81.482002 86.482002 91.482002 94.574997 99.014999 104.015 109.015 113.455 117.345 120.125 125.125 130.125 132.625 135.718 140.718 145.158 148.25101 152.14101 157.14101 161.58099 166.021 171.021 174.911 178.004 180.784 185.784 188.877 191.657 196.097 199.625 207.405 211.295 214.388 219.388 222.718 225.811 230.25101 235.25101 240.25101 244.69099 254.69099 259.69101 264.69101 267.47101 270.564 273.34399 278.34399 281.67401 284.45401 289.45401 292.547 296.987 301.987 305.87701 308.65701 311.987 316.427 320.867 323.647 326.73999 331.17999 336.17999 341.17999"
             y="315"
             sodipodi:role="line"
             id="tspan96">tine describe coupling and cohesion, he speaks in terms of code—not lofty abstract con-</tspan><tspan
             x="-15.557 -11.117 -6.677 -1.677 1.103 4.993 8.2779999 11.058 16.058001 20.497999 23.278 26.563 31.563 36.563 41.002998 44.287998 52.068001 54.848 59.848 64.848 67.627998 70.913002 76.473 81.473 86.473 89.758003 92.538002 97.538002 100.823 108.043 116.933 123.043 125.543 128.828 135.498 138.278 142.718 147.718 152.158 155.48801 160.48801 163.77299 170.993 175.433 180.433 183.763 186.543 190.983 193.763 197.048 201.48801 206.48801 211.48801 214.26801 218.158 222.59801 226.48801 229.77299 234.77299 238.66299 241.948 244.728 249.728 253.013 258.013 260.793 264.68301 267.96799 272.40799 276.298 280.18799 284.27899 288.42899 290.92899 294.21399 297.85599 305.07599 310.07599 313.966 316.746 320.07599 324.51599 328.95599 331.73599 334.51599 339.51599"
             y="327"
             sodipodi:role="line"
             id="tspan98">cepts that one might ﬁnd in UML. Richard Gabriel advises us in his essay, “Abstraction</tspan><tspan
             x="-15.557 -8.3369999 -3.8970001 -0.0070000002 4.4330001 8.8730001 13.873 16.653 21.093 23.593 26.372999 31.372999 35.813 38.592999 41.092999 45.533001 50.533001 54.423 57.202999 60.533001 64.973 69.413002 72.193001 74.973 79.973 84.973 87.473 90.252998 94.142998 96.642998 100.834 105.834 108.614 111.394 113.894 116.394 123.064 128.064 133.064 137.504 140.004 142.784 146.674 149.174 153.614 158.614 161.394 164.174 167.504 171.69501 176.69501 179.47501 182.255 184.755 187.255 191.69501 196.69501 201.69501 204.19501 208.63499 211.41499 215.855 220.295 225.295 227.795 232.235 237.235 242.235 246.675 249.175 251.955 255.845 258.345 263.345 267.785 271.11499 276.11499 280.55499 285.55499 289.44501 291.94501 296.94501 299.47601 304.47601 307.25601 312.25601 316.69601"
             y="339"
             sodipodi:role="line"
             id="tspan100">Descant” that abstraction is evil. Code is anti-evil, and clean code is perhaps divine.</tspan><tspan
             x="2.4430001 9.6630001 14.663 17.443001 22.443001 27.443001 30.723 35.723 40.162998 44.603001 49.603001 52.882999 55.662998 60.662998 63.943001 71.324997 76.324997 79.605003 82.385002 85.165001 87.945 90.724998 93.504997 97.945 101.225 106.225 111.027 116.027 119.307 124.307 127.637 130.91701 138.13699 142.577 145.907 149.797 154.797 157.577 160.077 163.35699 166.687 169.967 172.74699 177.74699 180.52699 185.52699 190.52699 193.80701 196.58701 199.367 201.298 205.188 208.468 211.248 219.028 224.028 229.028 232.556 235.336 239.776 244.776 247.556 250.836 253.616 258.616 261.896 266.896 271.896 274.67599 279.116 282.396 285.17599 290.17599 294.616 297.396 300.67599 303.45599 308.45599 312.896 316.17599 323.396 327.836 332.836 335.616 339.50601"
             y="354"
             sodipodi:role="line"
             id="tspan102">Going back to my little box of Ga-Jol, I think it’s important to note that the Danish</tspan><tspan
             x="-15.557 -8.3360004 -5.5549998 -1.664 3.3369999 8.3380003 16.118999 18.933001 23.374001 28.375 33.375999 36.157001 40.048 44.488998 48.380001 51.194 56.195 60.085999 62.900002 67.901001 72.902 75.682999 78.497002 81.278 86.278999 90.169998 92.950996 95.764999 98.545998 103.547 106.361 111.362 115.453 120.454 123.268 127.709 130.49001 133.271 137.71201 142.713 145.494 148.27499 153.276 158.27699 161.091 163.87199 168.873 171.687 175.578 183.35899 187.8 190.58099 193.362 196.17599 198.957 203.95799 206.739 211.74001 216.741 220.632 223.133 225.94701 230.948 235.94901 238.73 241.54401 245.985 248.76601 252.657 257.65799 260.47198 263.25299 268.254 271.06799 276.069 280.51001"
             y="366"
             sodipodi:role="line"
             id="tspan104">wisdom advises us not just to pay attention to small things, but also to be </tspan></text>
        <text
           xml:space="preserve"
           transform="matrix(1,0,0,-1,378.744,184.111)"
           style="font-style:italic;font-variant:normal;font-size:10px;font-family:'Times New Roman';-inkscape-font-specification:TimesNewRomanPS-Italic;writing-mode:lr-tb;fill:#231f20;fill-opacity:1;fill-rule:nonzero;stroke:none"
           id="text110"><tspan
             x="0 5 10 15 19.440001 23.33"
             y="0"
             sodipodi:role="line"
             id="tspan108">honest</tspan></text>
        <text
           xml:space="preserve"
           transform="matrix(1,0,0,-1,407.664,184.111)"
           style="font-variant:normal;font-weight:normal;font-size:10px;font-family:'Times New Roman';-inkscape-font-specification:TimesNewRomanPS;writing-mode:lr-tb;fill:#231f20;fill-opacity:1;fill-rule:nonzero;stroke:none"
           id="text128"><tspan
             x="0 2.78 7.7800002 10.594 14.484 22.264 26.704 29.483999"
             y="0"
             sodipodi:role="line"
             id="tspan112">in small</tspan><tspan
             x="-327.74399 -324.96399 -319.96399 -317.18399 -312.18399 -307.18399 -303.29401 -300.79401 -298.99701 -292.88699 -287.88699 -285.10699 -281.21701 -278.922 -271.142 -266.702 -262.26199 -257.26199 -253.37199 -251.077 -246.077 -241.63699 -238.85699 -233.85699 -228.85699 -226.562 -221.562 -216.562 -211.562 -207.12199 -203.23199 -200.452 -198.157 -195.377 -190.377 -188.082 -185.302 -180.302 -175.862 -173.567 -169.127 -164.127 -159.127 -154.687 -152.187 -149.892 -144.892 -139.892 -134.892 -130.452 -126.562 -123.782 -121.487 -118.707 -113.707 -111.412 -106.412 -101.412 -98.082001 -95.787003 -91.347 -86.347 -83.567001 -80.787003 -76.347 -71.906998 -66.906998 -61.907001 -57.466999 -53.577 -51.282001 -46.841999 -41.841999 -36.841999 -31.841999 -29.062 -26.767 -23.987 -18.987 -14.547 -12.252 -8.3620005 -5.5819998 -1.142 1.638 6.0780001 8.3730001 13.373 16.702999 18.997999 23.997999 28.997999"
             y="12"
             sodipodi:role="line"
             id="tspan114">things. This means being honest to the code, honest to our colleagues about the state of our</tspan><tspan
             x="-327.74399 -323.30399 -318.30399 -313.30399 -308.86401 -306.13 -301.69 -296.69 -292.28799 -289.78799 -287.05399 -279.27399 -274.27399 -270.384 -267.604 -264.87 -259.87 -256.54001 -253.806 -249.366 -246.586 -243.806 -241.306 -238.57201 -233.57201 -229.132 -226.35201 -221.35201 -216.35201 -213.618 -208.618 -203.618 -198.618 -194.17799 -190.28799 -187.508 -184.774 -177.554 -174.774 -171.994 -166.994 -164.25999 -159.25999 -154.25999 -150.92999 -147.03999 -142.60001 -139.82001 -134.96899 -130.52901 -126.639 -123.905 -119.465 -114.465 -109.465 -104.465 -101.685 -98.950996 -93.950996 -88.950996 -85.621002 -82.887001 -78.446999 -73.446999 -68.446999 -64.007004 -61.507 -58.772999 -51.553001 -48.772999 -43.772999 -41.039001 -34.167999 -29.728001 -26.993999 -19.774 -14.774 -12.04 -7.04 -2.04 1.29 4.0240002 10.694 15.134 19.024 21.804001 24.538 27.318001"
             y="24"
             sodipodi:role="line"
             id="tspan116">code and, most of all, being honest with ourselves about our code. Did we Do our Best to</tspan><tspan
             x="-327.74399 -323.30399 -320.52399 -316.08401 -311.99301 -307.142 -302.702 -300.39999 -297.62 -292.62 -288.17999 -285.87799 -281.43799 -276.99799 -269.21799 -264.21799 -259.01999 -255.69 -250.69 -245.69 -240.69 -235.69 -233.388 -228.948 -226.168 -221.728 -217.28799 -212.28799 -207.84801 -204.51801 -202.216 -199.436 -194.436 -189.996 -184.996 -182.694 -175.823 -171.383 -169.08099 -165.75101 -160.75101 -155.75101 -150.75101 -145.75101 -143.44901 -140.66901 -137.88901 -133.44901 -129.009 -126.707 -119.487 -116.707 -111.707 -109.405 -102.534 -98.094002 -95.792 -92.461998 -88.022003 -84.692001 -81.264 -76.823997 -72.384003 -69.603996 -64.603996 -61.273998 -58.972 -53.972 -48.972 -45.641998 -43.34 -38.900002 -33.900002 -28.9 -24.459999 -22.158001 -17.158001 -12.718 -9.3879995 -4.388 -1.058 3.382 5.684 10.124 15.124 19.563999 24.004 29.004"
             y="36"
             sodipodi:role="line"
             id="tspan118">“leave the campground cleaner than we found it”? Did we re-factor our code before check-</tspan><tspan
             x="-327.74399 -324.96301 -319.96201 -314.961 -311.59601 -308.815 -303.814 -299.37299 -296.50601 -290.39499 -285.39401 -280.953 -277.06201 -272.621 -269.25601 -264.815 -261.48401 -257.043 -253.67799 -248.677 -243.67599 -240.895 -237.53 -232.52901 -228.088 -224.757 -221.976 -216.97501 -211.974 -207.533 -204.202 -199.761 -196.98 -193.61501 -189.174 -184.173 -179.172 -174.731 -170.28999 -166.76199 -161.761 -157.87 -154.505 -149.504 -144.50301 -141.722 -138.35699 -133.916 -128.91499 -123.914 -119.473 -115.032 -111.504 -106.503 -102.612 -99.247002 -96.466003 -91.464996 -87.024002 -84.242996 -80.877998 -78.097 -75.316002 -70.875 -67.510002 -63.618999 -58.618 -53.617001 -49.175999 -45.845001 -41.403999 -38.873001 -33.872002 -30.507 -27.726 -22.725 -19.360001 -16.579 -11.578 -7.1370001 -3.7720001 0.66900003 5.1100001 10.111 12.892 17.333 20.664 24.028999 29.030001"
             y="48"
             sodipodi:role="line"
             id="tspan120">ing in? These are not peripheral concerns but concerns that lie squarely in the center of</tspan><tspan
             x="-327.74399 -320.52399 -315.52399 -312.74399 -309.96399 -305.52399 -302.547 -297.79599 -293.35599 -290.57599 -285.57599 -281.13599 -277.246 -274.746 -271.76901 -268.439 -265.659 -262.68201 -259.90201 -256.01199 -253.035 -248.595 -245.618 -242.28799 -237.84801 -233.408 -228.408 -220.62801 -212.84801 -208.408 -203.408 -198.408 -193.968 -188.968 -185.991 -180.991 -177.661 -173.22099 -168.78101 -166.00101 -163.22099 -158.78101 -154.341 -151.364 -148.584 -143.584 -140.60699 -135.047 -130.60699 -127.079 -122.079 -114.299 -111.322 -108.542 -103.542 -99.101997 -96.321999 -93.345001 -90.014999 -85.574997 -82.245003 -78.817001 -74.376999 -69.936996 -67.156998 -62.157001 -58.827 -56.047001 -51.047001 -46.047001 -43.07 -38.07 -33.630001 -30.653 -25.653 -21.212999 -17.684999 -14.905 -11.928 -6.928 -3.598 -0.62099999 2.1589999 7.1589999 11.599 14.576 19.016001 24.016001 29.016001"
             y="60"
             sodipodi:role="line"
             id="tspan122">Agile values. It is a recommended practice in Scrum that re-factoring be part of the con-</tspan><tspan
             x="-327.74399 -323.30399 -318.86401 -313.86401 -311.08401 -308.04999 -303.04999 -299.72 -296.686 -292.246 -285.026 -280.026 -275.026 -270.586 -268.784 -264.34399 -261.31 -254.09 -249.64999 -246.87 -244.09 -239.09 -234.64999 -231.32001 -228.286 -223.84599 -220.51601 -216.076 -211.076 -208.29601 -205.51601 -201.076 -196.636 -193.856 -188.856 -185.526 -181.086 -178.052 -173.052 -168.052 -164.722 -161.688 -157.248 -154.468 -150.028 -145.588 -140.588 -137.554 -133.114 -128.114 -123.114 -118.674 -115.64 -112.86 -107.86 -103.97 -101.19 -97.300003 -94.519997 -91.486 -86.486 -81.486 -78.452003 -73.452003 -69.012001 -65.681999 -62.352001 -57.911999 -53.472 -50.692001 -47.911999 -42.911999 -37.911999 -35.411999 -32.377998 -27.378 -22.378 -19.847 -14.847 -11.813 -6.8130002 -1.813 1.221 6.2210002 11.221 16.221001 20.660999 24.551001 27.330999"
             y="72"
             sodipodi:role="line"
             id="tspan124">cept of “Done.” Neither architecture nor clean code insist on perfection, only on honesty</tspan><tspan
             x="-327.74399 -323.30399 -318.30399 -313.30399 -310.47299 -305.47299 -300.47299 -297.69299 -292.69299 -287.69299 -284.862 -282.082 -277.082 -272.642 -269.811 -264.811 -260.371 -256.48099 -253.701 -250.87 -243.99899 -239.55901 -236.728 -232.28799 -227.84801 -222.84801 -220.34801"
             y="84"
             sodipodi:role="line"
             id="tspan126">and doing the best we can. </tspan></text>
        <text
           xml:space="preserve"
           transform="matrix(1,0,0,-1,189.535,100.111)"
           style="font-style:italic;font-variant:normal;font-size:10px;font-family:'Times New Roman';-inkscape-font-specification:TimesNewRomanPS-Italic;writing-mode:lr-tb;fill:#231f20;fill-opacity:1;fill-rule:nonzero;stroke:none"
           id="text132"><tspan
             x="0 4.6420002 12.472 16.912001 20.802 24.691999 27.523001 30.302999 34.193001 37.023998 42.023998 47.023998 54.243999 59.243999 64.244003 67.573997 70.404999 73.184998 78.184998 81.015999 83.598 88.598 92.238998 97.238998 100.019 104.459 108.801 111.301 114.132 119.132 121.912 126.352 129.132 134.132 138.423"
             y="0"
             sodipodi:role="line"
             id="tspan130">Toerr is human; to forgive, divine.</tspan></text>
        <text
           xml:space="preserve"
           transform="matrix(1,0,0,-1,333.267,100.111)"
           style="font-variant:normal;font-weight:normal;font-size:10px;font-family:'Times New Roman';-inkscape-font-specification:TimesNewRomanPS;writing-mode:lr-tb;fill:#231f20;fill-opacity:1;fill-rule:nonzero;stroke:none"
           id="text138"><tspan
             x="0 3.3299999 8.3299999 11.161 16.721001 21.160999 24.688999 29.688999 37.469002 39.969002 42.799999 49.671001 54.111 56.942001 64.722 69.162003 74.064003 78.503998 81.334999 85.526001 90.376999 94.817001 98.345001 103.345"
             y="0"
             sodipodi:role="line"
             id="tspan134">In Scrum, we make every-</tspan><tspan
             x="-253.347 -250.567 -245.567 -242.787 -237.787 -232.787 -229.866 -224.866 -222.086 -218.196 -215.416 -210.614 -207.834 -203.394 -200.894 -198.271 -189.83099 -185.39101 -182.47 -178.03 -175.25 -171.92 -168.99899 -163.99899 -158.99899 -155.66901 -152.748 -147.748 -144.968 -141.44 -138.66 -133.66 -130.739 -127.959 -123.519 -118.519 -113.519 -108.519 -104.991 -100.841 -98.341003 -95.718002 -87.278 -82.837997 -79.917 -75.476997 -72.147003 -67.707001 -64.786003 -59.785999 -54.785999 -49.785999 -45.346001 -41.456001 -38.675999 -35.755001 -31.315001 -26.315001 -21.315001 -16.315001 -13.535 -10.614 -7.8340001 -2.8340001 1.6059999 4.527 8.4169998 11.197 15.637 18.417 22.857 25.778 30.778 34.108002 37.028999 42.028999 47.028999 50.359001 53.279999 57.720001 62.720001 67.720001 72.160004 75.081001 80.081001 84.521004 88.960999 93.401001 98.401001 102.291"
             y="12"
             sodipodi:role="line"
             id="tspan136">thing visible. We air our dirty laundry. We are honest about the state of our code because</tspan></text>
        <g
           id="g140">
          <g
             id="g142"
             clip-path="url(#clipPath146)">
            <path
               d="m -37.08,664.778 h 36 m -36,-666 h 36 m 522,0 h 36 m -36,666 h 36 m -549,45 v -36 m 504,36 v -36 m 0,-684 v -36 m -504,36 v -36"
               style="fill:none;stroke:#ffffff;stroke-width:0.75;stroke-linecap:butt;stroke-linejoin:miter;stroke-miterlimit:10;stroke-dasharray:none;stroke-opacity:1"
               id="path148" />
            <path
               d="m -37.08,664.778 h 36 m -36,-666 h 36 m 522,0 h 36 m -36,666 h 36 m -549,45 v -36 m 504,36 v -36 m 0,-684 v -36 m -504,36 v -36 m -12,378 c 0,3.312 -2.688,6 -6,6 -3.312,0 -6,-2.688 -6,-6 0,-3.312 2.688,-6 6,-6 3.312,0 6,2.688 6,6 z m -24,0 h 27 m -9,24 v -48 m 545.94,24 c 0,3.312 -2.688,6 -6,6 -3.312,0 -6,-2.688 -6,-6 0,-3.312 2.688,-6 6,-6 3.312,0 6,2.688 6,6 z m -14.94,0 h 27 m -18,24 v -48 m -534,345 c 0,3.312 -2.688,6 -6,6 -3.312,0 -6,-2.688 -6,-6 0,-3.312 2.688,-6 6,-6 3.312,0 6,2.688 6,6 z m -24,0 h 27 m -9,9 v -33 m 6,-618 c 0,3.312 -2.688,6 -6,6 -3.312,0 -6,-2.688 -6,-6 0,-3.312 2.688,-6 6,-6 3.312,0 6,2.688 6,6 z m -24,0 h 27 m -9,24 v -33 m 545.94,651 c 0,3.312 -2.688,6 -6,6 -3.312,0 -6,-2.688 -6,-6 0,-3.312 2.688,-6 6,-6 3.312,0 6,2.688 6,6 z m -14.94,0 h 27 m -18,9 v -33 m 5.94,-618 c 0,3.312 -2.688,6 -6,6 -3.312,0 -6,-2.688 -6,-6 0,-3.312 2.688,-6 6,-6 3.312,0 6,2.688 6,6 z m -14.94,0 h 27 m -18,24 v -33"
               style="fill:none;stroke:#000000;stroke-width:0.25;stroke-linecap:butt;stroke-linejoin:miter;stroke-miterlimit:10;stroke-dasharray:none;stroke-opacity:1"
               id="path150" />
          </g>
        </g>
      </g>
    </g>
    <g
       id="g152">
      <g
         id="g154"
         transform="translate(218,6.56)">
        <text
           xml:space="preserve"
           transform="scale(1,-1)"
           style="font-variant:normal;font-weight:normal;font-size:10px;font-family:Helvetica;-inkscape-font-specification:Helvetica;writing-mode:lr-tb;fill:#0000ff;fill-opacity:1;fill-rule:nonzero;stroke:none"
           id="text158"><tspan
             x="0 7.2199998 14.44 21.66 24.440001 26.66 29.440001 32.77 38.330002 43.889999 49.450001 55.009998 60.009998 65.010002 67.790001 70.010002 75.57 78.349998"
             y="0"
             sodipodi:role="line"
             id="tspan156">www.it-ebooks.info</tspan></text>
        <g
           id="g160"
           transform="translate(-218,-6.56)" />
      </g>
    </g>
  </g>
</svg>
