<?xml version="1.0" encoding="UTF-8" standalone="no"?>
<!-- Created with Inkscape (http://www.inkscape.org/) -->

<svg
   version="1.1"
   id="svg2"
   width="690.14398"
   height="888.47998"
   viewBox="0 0 690.14398 888.47998"
   sodipodi:docname="4PmrqTPDrJV6cyWn.pdf"
   xmlns:inkscape="http://www.inkscape.org/namespaces/inkscape"
   xmlns:sodipodi="http://sodipodi.sourceforge.net/DTD/sodipodi-0.dtd"
   xmlns="http://www.w3.org/2000/svg"
   xmlns:svg="http://www.w3.org/2000/svg">
  <defs
     id="defs6">
    <clipPath
       clipPathUnits="userSpaceOnUse"
       id="clipPath126">
      <path
         d="M 0,665.858 H 519.84 V 0 H 0 Z"
         id="path124" />
    </clipPath>
  </defs>
  <sodipodi:namedview
     id="namedview4"
     pagecolor="#ffffff"
     bordercolor="#000000"
     borderopacity="0.25"
     inkscape:showpageshadow="2"
     inkscape:pageopacity="0.0"
     inkscape:pagecheckerboard="0"
     inkscape:deskcolor="#d1d1d1" />
  <g
     id="g8"
     inkscape:groupmode="layer"
     inkscape:label="4PmrqTPDrJV6cyWn"
     transform="matrix(1.3333333,0,0,-1.3333333,-1.46,887.61333)">
    <g
       id="g10">
      <g
         id="g12">
        <text
           xml:space="preserve"
           transform="matrix(1,0,0,-1,434.92,622.111)"
           style="font-variant:normal;font-weight:normal;font-size:10px;font-family:'Times New Roman';-inkscape-font-specification:TimesNewRomanPS;writing-mode:lr-tb;fill:#231f20;fill-opacity:1;fill-rule:nonzero;stroke:none"
           id="text16"><tspan
             x="0"
             y="0"
             id="tspan14">5</tspan></text>
        <text
           xml:space="preserve"
           transform="matrix(1,0,0,-1,79.92,622.111)"
           style="font-variant:normal;font-weight:bold;font-size:10px;font-family:'Times New Roman';-inkscape-font-specification:TimesNewRomanPS-Bold;writing-mode:lr-tb;fill:#231f20;fill-opacity:1;fill-rule:nonzero;stroke:none"
           id="text20"><tspan
             x="0 6.6700001 12.23 16.67 18.572001 24.323999 29.323999 32.653999 37.653999 40.433998 42.933998 50.153999 55.153999 59.043999 62.374001 64.874001 69.874001 73.204002 75.704002 83.484001 90.704002 96.264 99.043999 104.604 109.604 112.104 117.104 119.604 129.04401 133.48399 137.37399"
             y="0"
             sodipodi:role="line"
             id="tspan18">The Total Cost of Owning a Mess</tspan></text>
        <text
           xml:space="preserve"
           transform="matrix(1,0,0,-1,79.92,584.778)"
           style="font-variant:normal;font-weight:bold;font-size:12px;font-family:'Times New Roman';-inkscape-font-specification:TimesNewRomanPS-Bold;writing-mode:lr-tb;fill:#231f20;fill-opacity:1;fill-rule:nonzero;stroke:none"
           id="text24"><tspan
             x="0 8.0039997 14.676 20.004 23.004 32.34 37.551601 43.551601 50.223598 56.895599 59.895599 68.559601 73.887604 80.559601 85.887604 90.555603 93.891602 99.891602 106.5636 109.5636 112.8996 119.5716 122.5716 126.5676 133.23959 138.5676 141.5676 148.23959 154.7328"
             y="0"
             sodipodi:role="line"
             id="tspan22">The Grand Redesign in the Sky</tspan></text>
        <text
           xml:space="preserve"
           transform="matrix(1,0,0,-1,79.92,564.1111)"
           style="font-variant:normal;font-weight:normal;font-size:10px;font-family:'Times New Roman';-inkscape-font-specification:TimesNewRomanPS;writing-mode:lr-tb;fill:#231f20;fill-opacity:1;fill-rule:nonzero;stroke:none"
           id="text64"><tspan
             x="0 6.1100001 10.961 15.401 20.400999 23.181 28.181 32.620998 35.401001 37.931999 42.931999 45.304001 48.084 53.084 57.523998 59.896 62.675999 67.115997 71.556 79.335999 81.708 85.038002 89.477997 94.477997 98.917999 101.698 105.588 108.088 109.962 116.072 121.072 125.363 130.36301 132.735 135.515 140.515 143.845 148.845 152.373 160.153 162.52499 170.30499 174.745 179.745 184.185 189.185 193.625 201.405 205.845 210.845 213.625 215.99699 218.77699 223.77699 228.217 230.99699 233.369 236.149 241.149 245.44 250.44 252.812 257.25201 261.69199 266.69199 271.69199 276.69199 279.47198 281.84399 286.284 291.284 296.284 299.064 301.84399 306.84399 311.84399 316.284 318.65601 321.436 326.436 328.80801 333.80801 337.99899 342.85001 347.29001 350.07001 355.07001"
             y="0"
             sodipodi:role="line"
             id="tspan26">Eventually the team rebels. They inform management that they cannot continue to develop</tspan><tspan
             x="0 2.78 7.7800002 10.68 13.46 18.459999 21.24 25.129999 28.030001 33.029999 38.029999 40.810001 45.810001 50.810001 54.700001 57.599998 62.040001 67.040001 72.040001 76.480003 79.379997 84.379997 88.82 92.709999 97.150002 99.650002 102.052 108.162 113.162 117.453 122.453 125.353 130.353 134.793 142.573 147.013 152.013 157.013 159.91299 164.353 167.25301 170.58299 175.02299 180.02299 184.463 188.353 191.133 196.133 201.133 203.633 206.533 215.423 219.86301 224.86301 229.30299 234.30299 238.743 246.52299 250.963 255.963 258.74301 261.64301 266.64301 271.64301 276.08301 279.97299 282.87299 287.87299 292.87299 295.65302 298.55301 305.52399 309.96399 314.96399 317.74399 320.64401 323.42401 328.42401 331.32401 335.61499 340.61499 345.61499 350.05499 355.05499"
             y="12"
             sodipodi:role="line"
             id="tspan28">in this odious code base. They demand a redesign. Management does not want to expend</tspan><tspan
             x="0 2.7809999 7.7820001 12.223 14.765 18.096001 22.537001 26.427999 31.429001 36.43 39.761002 44.202 48.643002 52.534 55.076 60.077 65.078003 67.620003 72.060997 74.602997 81.625 86.625999 91.626999 94.407997 98.848999 101.391 106.392 110.583 117.804 120.346 123.677 128.118 133.119 137.56 141.451 144.23199 149.233 154.23399 156.776 161.77699 165.108 167.64999 170.431 175.43201 179.873 182.41499 187.416 190.74699 195.748 198.52901 202.97 207.411 210.192 212.69299 215.235 220.23599 225.237 228.01801 230.56 233.341 238.342 242.633 247.634 250.17599 254.617 259.05801 264.05899 269.06 274.061 276.84201 279.384 284.38501 288.82599 293.577 298.578 301.12 303.901 308.90201 313.34299 316.12399 318.66599 323.66699 326.99799 331.99899 337 342.00101 346.44199 349.22299 351.754 356.755"
             y="24"
             sodipodi:role="line"
             id="tspan30">the resources on a whole new redesign of the project, but they cannot deny that productiv-</tspan><tspan
             x="0 2.78 5.5599999 10.56 14.062 16.841999 20.732 24.233999 27.014 31.454 35.082001 38.411999 41.192001 45.993999 48.773998 53.214001 55.714001 59.216 65.325996 70.177002 74.616997 79.616997 82.397003 87.397003 91.836998 94.616997 97.148003 102.148 105.65 108.43 113.43 117.721 122.721 126.223 131.22301 135.66299 140.66299 145.66299 149.16499 151.94501 156.94501 160.44701 163.22701 168.22701 172.66701 176.16901 181.16901 185.60899 193.38901 197.82899 202.82899 207.82899 211.71899 215.22099 220.22099 223.55099 227.05299 229.83299 234.83299 239.27299 242.77499 247.77499 251.966 256.81699 261.25699 264.03699 269.03699 274.03699 278.47699 281.80701 285.69699 289.19901 293.63901 298.63901 303.63901 307.14099 311.58099 316.58099 319.36099 324.36099 329.36099 332.69101 335.47101 339.91101 344.35101 347.853 350.633 355.633"
             y="36"
             sodipodi:role="line"
             id="tspan32">ity is terrible. Eventually they bend to the demands of the developers and authorize the</tspan><tspan
             x="0 5.198 8.5279999 12.968 17.968 22.968 25.468 28.798 33.237999 38.237999 42.678001 46.568001 49.348 54.348 59.348 61.848 64.627998 69.627998 72.127998 74.907997 79.907997 84.348 86.848 90.737999 95.588997 99.738998"
             y="48"
             sodipodi:role="line"
             id="tspan34">grand redesign in the sky.</tspan><tspan
             x="18 25.219999 27.952999 32.952999 37.144001 44.363998 47.097 49.876999 52.657001 57.657001 62.097 65.427002 68.160004 70.940002 75.379997 79.82 87.599998 90.333 93.112999 97.002998 99.736 103.626 108.066 110.846 115.286 119.726 122.506 126.946 131.946 134.446 137.179 143.289 148.14 152.58 156.108 160.91 165.91 170.91 175.35001 178.08299 185.054 189.494 194.494 197.274 201.164 203.897 206.677 211.677 214.41 219.41 223.85001 226.58299 231.58299 236.58299 239.31599 242.09599 247.09599 249.87601 253.76601 256.49899 259.27899 263.71899 268.159 275.939 278.672 283.672 288.112 292.552 296.992 301.992 305.88199 310.32199 313.05499 315.83499 318.61499 320.54599 324.436 327.16901 331.60901 334.34201 339.54001 342.87 347.31 351.75 356.75"
             y="63"
             sodipodi:role="line"
             id="tspan36">A new tiger team is selected. Everyone wants to be on this team because it’s a green-</tspan><tspan
             x="0 5.5599999 10 12.78 17.780001 20.469999 25.469999 28.799999 33.799999 36.580002 41.02 45.459999 48.240002 50.740002 52.931999 59.042 64.042 68.333 73.333 76.023003 81.023003 85.462997 88.242996 90.932999 93.712997 98.712997 101.403 105.293 108.073 112.513 116.041 118.821 121.511 126.062 130.91299 135.353 138.683 141.373 145.813 150.813 155.813 158.50301 162.94299 166.27299 170.713 175.153 177.933 182.373 185.063 188.953 193.953 201.733 206.173 208.953 213.953 216.733 221.733 226.733 229.423 232.203 235.731 240.731 243.26199 248.26199 250.952 255.952 260.392 264.832 269.832 272.612 275.392 278.72198 283.72198 286.50201 289.00201 291.69199 298.362 303.362 306.142 308.832 313.832 318.832 321.36301 326.36301 329.05301 331.83301 336.83301 341.27301 343.96301 348.96301 353.40302 357.293"
             y="75"
             sodipodi:role="line"
             id="tspan38">ﬁeld project. They get to start over and create something truly beautiful. But only the best</tspan><tspan
             x="0 4.4400001 9.4399996 14.44 17.576 22.576 25.906 28.686001 33.686001 38.686001 41.466 45.905998 49.796001 52.576 55.712002 60.152 63.481998 67.921997 71.057999 75.498001 80.498001 85.498001 89.388 93.828003 98.828003 101.964 105.294 110.294 113.624 116.76 119.54 124.54 128.98 132.116 134.896 137.67599 142.67599 147.116 150.446 153.582 156.362 160.802 165.242 173.022 175.522 178.658 184.76801 189.619 194.05901 197.58701 202.38901 207.38901 212.38901 216.82899 219.965 224.405 227.185 231.075 235.515 238.651 246.431 251.431 255.321 258.10101 261.237 265.677 270.677 275.677 278.457 281.237 286.237 291.237 295.677 298.81299 301.59299 306.59299 309.729 317.509 321.94901 324.729 329.729 332.509 336.94901 339.729 344.729 347.86499 350.64499 355.64499"
             y="87"
             sodipodi:role="line"
             id="tspan40">and brightest are chosen for the tiger team. Everyone else must continue to maintain the</tspan><tspan
             x="0 4.4400001 9.4399996 13.068 16.398001 20.837999 25.837999 28.618 31.118 35.007999 40.007999 43.897999 46.678001 51.118 58.897999"
             y="99"
             sodipodi:role="line"
             id="tspan42">current system.</tspan><tspan
             x="18 25.221001 29.823 37.043999 40.247002 43.028 48.028999 52.470001 55.673 58.453999 65.276001 70.277 73.480003 76.261002 80.702003 85.142998 92.924004 96.815002 100.018 104.459 107.79 112.231 115.434 118.215 123.216 126.419 130.86 134.063 137.394 141.83501 146.276 150.717 153.218 155.923 162.034 167.035 171.476 174.679 177.46001 180.241 185.242 189.683 193.01401 196.217 198.998 203.439 207.88 215.661 218.864 226.645 231.646 235.537 238.31799 241.521 246.522 251.52299 254.304 257.08499 262.086 265.289 269.73001 272.93301 277.93399 282.125 289.34601 292.54901 296.44 301.44101 305.332 308.11301 312.55399 320.33499 323.53799 326.319 331.32001 335.76099 338.54199 341.745 346.746 351.74701 356.18799"
             y="114"
             sodipodi:role="line"
             id="tspan44">Now the two teams are in a race. The tiger team must build a new system that does</tspan><tspan
             x="0 4.191 9.0410004 13.481 17.009001 22.009001 24.789 29.789 32.569 37.569 42.569 45.358002 48.138 53.138 57.577999 60.358002 63.146999 65.927002 70.927002 75.366997 78.155998 83.155998 85.935997 90.935997 93.724998 97.614998 102.615 106.505 109.285 113.725 121.505 124.294 129.29401 134.29401 138.73399 142.62399 145.12399 147.91299 155.133 160.133 162.91299 165.702 170.702 175.702 178.233 183.233 186.022 188.802 193.802 198.242 201.022 203.522 206.311 209.091 214.091 218.382 223.382 226.17101 231.17101 235.26199 240.11301 244.55299 247.342 250.12199 255.12199 257.91101 262.81299 267.25299 271.69299 276.69299 279.48199 284.48199 289.48199 292.271 299.491 302.271 305.05099 310.05099 312.84 315.62 320.62 325.06 327.849 332.289 337.289 341.729 346.729 351.729 356.16901"
             y="126"
             sodipodi:role="line"
             id="tspan46">everything that the old system does. Not only that, they have to keep up with the changes</tspan><tspan
             x="0 2.78 7.7800002 12.22 15 17.863001 22.302999 25.632999 30.073 32.936001 37.375999 42.375999 47.375999 50.155998 52.936001 57.936001 62.936001 67.935997 72.935997 76.825996 79.357002 84.357002 87.220001 92.220001 96.660004 99.440002 104.44 109.44 112.303 120.083 124.523 129.52299 133.963 136.826 139.606 144.606 147.46899 150.24899 155.24899 159.689 162.552 167.552 170.332 175.332 178.19501 182.08501 187.08501 190.97501 193.755 198.19501 205.97501 208.47501 211.338 220.228 224.668 229.668 234.108 239.108 243.548 251.328 255.76801 260.76801 263.548 266.41101 273.63101 276.41101 279.19101 281.97101 284.83401 289.83401 294.83401 297.61401 300.47699 303.80701 308.24701 313.24701 316.02701 320.46701 324.90701 329.34698 332.20999 334.98999 339.98999 344.42999 347.293 352.293 355.073"
             y="138"
             sodipodi:role="line"
             id="tspan48">that are continuously being made to the old system. Management will not replace the old</tspan><tspan
             x="0 3.8900001 8.8900003 12.78 15.56 20 27.780001 30.280001 35.279999 40.279999 43.060001 45.84 48.619999 51.119999 53.900002 58.900002 63.34 65.839996 70.839996 75.030998 82.250999 84.750999 88.640999 93.640999 97.530998 100.311 104.751 112.531 115.031 119.471 123.911 128.911 131.411 136.411 141.411 143.911 148.10201 152.953 157.39301 160.92101 165.92101 168.701 173.701 176.481 181.481 186.481 188.981 191.761 196.761 201.201 203.981 206.481 209.261 214.261 218.701 221.201 226.201 228.981 233.981 236.481 240.371 245.371 249.261 252.041 256.48099 264.26099 266.76099 271.76099 276.76099 281.20099 285.091"
             y="150"
             sodipodi:role="line"
             id="tspan50">system until the new system can do everything that the old system does.</tspan><tspan
             x="18 24.110001 29.110001 31.889999 35.779999 38.042 41.372002 45.812 50.251999 54.692001 56.953999 61.394001 65.834 70.834 73.096001 78.096001 83.096001 85.358002 90.358002 95.358002 97.620003 100.95 105.95 109.28 111.542 115.982 118.244 123.095 127.535 131.063 136.063 138.325 141.105 146.105 151.105 156.105 158.367 161.147 163.927 171.707 176.147 178.647 180.909 184.239 187.071 191.922 196.362 198.62399 202.51401 206.95399 211.394 216.394 218.65601 221.436 224.216 226.478 229.258 233.698 238.60001 243.03999 245.302 250.302 255.302 257.564 262.366 266.806 271.246 274.57599 278.466 280.966 282.67899 289.89899 294.89899 299.89899 302.16101 306.91199 311.91199 314.17401 316.95401 321.95401 326.39401 328.65601 331.436 334.216 341.996 346.436 348.698 351.478 354.258 356.189"
             y="165"
             sodipodi:role="line"
             id="tspan52">This race can go on for a very long time. I’ve seen it take 10 years. And by the time it’s</tspan><tspan
             x="0 5 10 15 19.440001 21.940001 24.857 27.636999 32.637001 37.077 39.993999 44.993999 48.324001 51.104 56.104 58.883999 63.883999 68.323997 71.103996 74.021004 81.801003 86.240997 94.021004 99.021004 103.461 106.791 110.681 113.598 118.598 121.928 124.845 127.625 132.625 137.065 139.98199 142.76199 145.54201 150.54201 154.98199 158.312 161.229 164.009 168.44901 172.88901 180.66901 183.586 188.026 191.356 195.79601 198.713 201.493 206.493 211.493 216.493 219.41 224.41 229.41 234.41 238.85001 241.35001 244.267 248.707 253.707 258.707 261.62399 264.40399 269.40399 273.84399 276.76099 281.20099 286.20099 289.82901 293.159 297.599 302.599 305.379 308.29599 316.07599 320.51599 328.29599 333.29599 337.73599 341.06601 344.95599 347.87299 352.31299 355.64301"
             y="177"
             sodipodi:role="line"
             id="tspan54">done, the original members of the tiger team are long gone, and the current members are</tspan><tspan
             x="0 5 9.4399996 17.219999 21.66 26.66 31.66 34.439999 39.439999 44.439999 46.939999 49.720001 54.720001 59.16 61.939999 64.440002 67.220001 72.220001 76.660004 79.160004 84.160004 88.350998 95.570999 98.070999 101.961 106.961 110.851 113.631 118.071 125.851 128.351 133.351 137.791 140.291 143.621 148.061 153.061 157.50101 161.39101 164.17101 169.17101 174.17101 178.61099 183.61099 186.11099 191.11099 195.55099 199.991 204.431 209.431 213.321 217.761 220.261 223.041 225.821 227.752 231.642 234.142 238.032 243.032 247.472 252.472 254.972 259.41199 261.91199 269.69199 274.13199 278.022 281.91199"
             y="189"
             sodipodi:role="line"
             id="tspan56">demanding that the new system be redesigned because it’s such a mess.</tspan><tspan
             x="18 21.33 24.66 27.552999 32.355 37.355 42.355 45.248001 50.248001 54.339001 59.189999 63.630001 66.523003 70.814003 75.814003 80.814003 85.253998 88.584 91.363998 95.804001 100.804 105.244 109.684 114.684 117.577 121.768 126.619 131.05901 136.05901 138.952 143.952 148.952 153.392 156.285 160.175 167.955 172.395 175.175 177.955 180.84801 185.84801 190.28799 193.81599 196.59599 199.489 204.489 207.819 210.71201 213.492 218.492 222.93201 225.825 229.715 232.495 237.495 241.02299 246.02299 248.916 252.246 255.13901 257.91901 262.91901 266.80899 269.58899 272.48199 275.26199 280.26199 283.04199 287.444 289.944 292.83701 295.617 300.617 305.05701 310.05701 312.95001 317.75201 322.75201 327.75201 330.64499 335.08499 337.86499 341.19501 345.63501 350.07501 355.07501"
             y="204"
             sodipodi:role="line"
             id="tspan58">If you have experienced even one small part of the story I just told, then you already</tspan><tspan
             x="0 5 10 14.602 21.822001 24.500999 27.281 32.280998 36.721001 39.500999 42.18 46.07 51.07 55.509998 60.509998 65.510002 68.290001 73.290001 78.290001 80.969002 83.749001 86.528999 94.308998 98.749001 101.428 106.33 110.77 115.21 120.21 122.99 127.99 132.99001 135.66901 140.47099 145.47099 150.47099 153.80099 156.48 160.92 165.92 170.92 175.36 178.039 182.479 185.259 189.69901 194.13901 199.13901 201.81799 204.59801 208.48801 211.16701 216.16701 221.16701 223.94701 226.62601 229.40601 234.40601 238.29601 241.076 243.755 248.19501 253.19501 257.08499 259.86499 262.54401 266.98401 270.065 273.39499 277.83499 282.27499 285.05499 287.586 292.43701 296.87701 299.65701 302.336 305.116 307.896 309.827 313.71701 316.396 320.836 323.51501 331.29501 335.73499 338.51501 341.29501 345.73499 349.065 351.74399 356.74399"
             y="216"
             sodipodi:role="line"
             id="tspan60">know that spending time keeping your code clean is not just cost effective; it’s a matter of</tspan><tspan
             x="0 5 8.3299999 13.33 16.66 21.1 24.99 28.879999 31.66 36.66 41.66 46.099998 48.880001 51.380001 55.27 60.27 63.798 68.797997 71.329002 76.080002 80.519997 83.300003"
             y="228"
             sodipodi:role="line"
             id="tspan62">professional survival.</tspan></text>
        <text
           xml:space="preserve"
           transform="matrix(1,0,0,-1,79.92,310.778)"
           style="font-variant:normal;font-weight:bold;font-size:12px;font-family:'Times New Roman';-inkscape-font-specification:TimesNewRomanPS-Bold;writing-mode:lr-tb;fill:#231f20;fill-opacity:1;fill-rule:nonzero;stroke:none"
           id="text68"><tspan
             x="0 8.6639996 12.66 16.656 19.992001 23.988001 30.66 37.332001"
             y="0"
             sodipodi:role="line"
             id="tspan66">Attitude</tspan></text>
        <text
           xml:space="preserve"
           transform="matrix(1,0,0,-1,79.92,290.1121)"
           style="font-variant:normal;font-weight:normal;font-size:10px;font-family:'Times New Roman';-inkscape-font-specification:TimesNewRomanPS;writing-mode:lr-tb;fill:#231f20;fill-opacity:1;fill-rule:nonzero;stroke:none"
           id="text90"><tspan
             x="0 7.2199998 11.311 16.162001 20.601999 23.577 28.379 33.379002 38.379002 41.354 45.544998 50.396 54.835999 58.166 61.140999 68.112 72.552002 77.552002 81.991997 86.991997 89.967003 92.747002 97.747002 101.077 106.077 111.077 116.077 121.077 124.052 128.492 131.467 139.24699 143.687 147.577 151.467 154.442 158.332 163.332 166.30701 171.505 174.83501 178.92599 183.77699 188.217 191.192 193.972 198.972 203.412 206.192 209.16701 211.94701 214.72701 217.702 220.48199 225.48199 230.48199 235.48199 238.457 245.328 249.76801 254.20799 259.20801 263.09799 266.073 268.853 273.853 276.828 281.828 286.828 289.80301 296.82501 301.82501 306.26501 309.04501 312.01999 315.91 320.91 325.91 330.91 333.69 338.69 341.66501 346.66501 350.75601 355.60699"
             y="0"
             sodipodi:role="line"
             id="tspan70">Have you ever waded through a mess so grave that it took weeks to do what should have</tspan><tspan
             x="0 2.78 7.2199998 12.122 16.562 21.562 25.111 30.111 35.111 40.111 43.441002 47.331001 51.771 55.32 62.540001 66.630997 71.482002 75.921997 79.471001 84.273003 89.273003 94.273003 97.821999 101.712 106.152 110.592 115.592 119.141 126.163 131.16299 135.603 138.383 141.93201 145.82201 150.82201 155.82201 160.82201 163.60201 168.60201 172.151 177.151 181.242 186.093 190.533 194.082 199.082 203.522 207.96201 212.96201 216.511 220.951 224.5 229.5 234.5 238.94 242.27 245.05 247.83 252.83 257.26999 260.819 265.259 270.259 274.69901 279.69901 284.69901 289.13901 291.63901 295.18799 302.96799 307.40799 312.40799 316.84799 320.397 323.177 328.177 332.06699 334.84698 339.28699 343.72699 348.72699 352.276 355.056"
             y="12"
             sodipodi:role="line"
             id="tspan72">taken hours? Have you seen what should have been a one-line change, made instead in</tspan><tspan
             x="0 5 10 15 20 23.33 27.77 32.77 36.66 39.16 44.16 47.490002 49.990002 54.990002 57.77 60.851002 64.181 68.621002 71.950996 76.390999 81.390999 84.170998 86.670998 94.450996 99.450996 104.451 109.451 112.231 116.671 120.561 125.001 127.003 133.11301 138.11301 142.55299 146.44299 150.883 153.383 157.27299 162.27299 170.05299 175.05299 177.83299 182.83299 190.61301 194.50301 197.00301 201.44299 204.77299 209.213 211.713 216.153 218.933 221.713 224.213 226.993 231.993 236.993 239.493 243.933 248.933 256.71301 264.49301 269.49301 274.49301 276.99301"
             y="24"
             sodipodi:role="line"
             id="tspan74">hundreds of different modules? These symptoms are all too common. </tspan><tspan
             x="18 27.440001 32.141998 37.141998 39.543999 44.543999 49.543999 53.984001 57.874001 60.276001 63.056 68.056 70.835999 74.725998 77.127998 82.127998 86.568001 91.568001 96.568001 101.008 106.008 108.41 111.19 116.19 118.592 123.032 128.032 133.032 137.472 141.912 144.01601 153.45599 158.158 163.158 165.56 170.56 175.56 180 183.89 186.29201 191.29201 196.29201 201.29201 206.29201 208.694 213.134 218.134 223.134 227.57401 229.976 233.306 238.306 241.086 243.48801 247.37801 252.37801 254.78 259.78 264.78 267.56 272 277 279.53101 284.53101 286.93301 289.71301 294.71301 297.49301 302.49301 304.89499 309.89499 314.33499 319.33499 321.737 326.177 331.177 336.177 340.617 345.05701 347.16101 355.60101"
             y="39"
             sodipodi:role="line"
             id="tspan76">Why does this happen to code? Why does good code rot so quickly into bad code? We</tspan><tspan
             x="0 5 9.0909996 13.942 18.382 21.49 24.27 29.27 32.049999 35.939999 39.048 44.048 47.377998 50.486 54.777 59.777 64.777 67.556999 71.997002 76.997002 81.436996 84.217003 86.997002 91.997002 96.997002 100.887 103.995 107.325 112.325 115.655 118.763 121.543 124.323 126.823 129.633 138.073 142.513 145.621 150.061 155.061 162.841 167.841 170.621 175.061 177.841 182.841 185.94901 188.729 193.729 198.16901 200.94901 204.05701 206.83701 211.83701 216.27699 219.38499 222.715 227.155 232.155 237.155 239.935 243.265 247.705 255.485 259.92499 264.92499 267.70499 271.595 274.703 279.14301 284.14301 288.58301 293.58301 298.58301 303.02301 308.02301 311.13101 313.91101 318.91101 322.01901 328.98999 333.08099 338.08099 341.97101 345.07901 347.85901 352.85901 357.29901"
             y="51"
             sodipodi:role="line"
             id="tspan78">have lots of explanations for it. We complain that the requirements changed in ways that</tspan><tspan
             x="0 2.78 7.7800002 14.751 19.191 22.719 25.499001 28.063999 30.844 35.844002 40.284 42.848999 47.848999 51.179001 53.959 58.959 61.738998 66.738998 71.179001 73.959 76.524002 81.524002 85.963997 89.853996 92.634003 97.634003 102.634 105.134 107.401 115.841 120.281 122.846 127.846 132.286 140.06599 145.06599 149.506 154.506 157.071 159.851 164.851 169.291 171.856 175.746 180.186 185.186 189.62601 194.62601 199.62601 202.40601 206.84599 210.73599 213.30099 216.08099 221.08099 225.521 228.30099 230.866 237.737 242.177 245.507 249.94701 252.51199 255.29201 260.29199 265.29199 267.85699 270.63699 273.41699 278.41699 283.41699 286.19699 288.76199 291.54199 296.54199 299.10699 304.10699 309.10699 311.672 314.452 319.452 322.23199 327.23199 332.23199 336.12201 338.68701 342.017 344.797 349.797 354.797 357.577"
             y="63"
             sodipodi:role="line"
             id="tspan80">thwart the original design. We bemoan the schedules that were too tight to do things right.</tspan><tspan
             x="0 8.4399996 16.242001 21.044001 23.823999 28.264 31.044001 36.043999 40.484001 43.813999 47.175999 51.616001 56.616001 61.616001 66.615997 69.396004 72.758003 76.648003 79.428001 84.428001 89.428001 92.208 97.208 100.57 108.35 112.79 117.79 122.23 127.23 131.67 135 138.89 142.252 146.692 151.692 156.692 160.054 162.834 167.834 170.614 175.614 178.394 182.834 186.164 190.604 195.604 198.384 201.746 206.186 211.186 215.076 217.856 222.856 230.636 235.076 238.40601 242.29601 245.658 250.09801 255.09801 260.09799 263.45999 268.45999 272.35001 276.79001 279.57001 284.01001 287.89999 291.79001 295.15201 302.93201 307.37201 310.702 315.604 320.04401 322.82401 325.604 330.604 335.604 338.966 341.746 346.746 351.746 356.186"
             y="75"
             sodipodi:role="line"
             id="tspan82">Weblather about stupid managers and intolerant customers and useless marketing types</tspan><tspan
             x="0 4.441 9.4420004 14.443 17.679001 20.459999 24.900999 27.681999 32.123001 37.124001 42.125 47.125999 52.126999 56.568001 59.804001 63.695 68.136002 73.137001 75.917999 78.698997 81.480003 85.920998 90.362 93.693001 97.584 100.085 103.321 109.992 114.993 117.774 121.01 123.791 128.79201 133.233 136.46899 139.897 144.338 149.339 152.12 154.901 157.40199 160.638 165.63901 170.08 174.521 177.85201 181.088 188.30901 191.09 193.871 198.87199 203.313 206.841 209.62199 212.123 215.35899 218.14 222.03101 225.267 230.26801 235.269 238.05 241.286 244.067 249.06799 252.304 257.30499 262.306 265.63699 268.87299 272.76401 275.54501 279.98599 283.31699 287.20801 289.70901 292.94501 297.94601 302.94699 305.728 308.96399 311.745 316.746 319.98199 324.983 329.98401 333.315 337.20599 341.647 344.42801 349.27899 353.72 357.61099"
             y="87"
             sodipodi:role="line"
             id="tspan84">and telephone sanitizers. But the fault, dear Dilbert, is not in our stars, but in ourselves.</tspan><tspan
             x="0 8.4399996 12.88 15.38 19.82 23.15 27.59 30.09 35.09 40.09 45.09 48.419998 53.419998 56.75 61.189999 65.080002 68.970001 71.75 76.75 81.75 86.190002 88.970001"
             y="99"
             sodipodi:role="line"
             id="tspan86">We are unprofessional.</tspan><tspan
             x="18 24.110001 29.110001 31.889999 35.779999 38.104 45.883999 49.974998 54.974998 57.299 62.299 66.738998 69.063004 73.502998 75.827003 80.827003 83.607002 86.387001 89.167 93.607002 96.936996 99.261002 104.261 107.041 109.821 112.601 114.925 117.705 122.705 125.029 128.72099 135.692 140.132 142.912 145.692 150.29401 156.616 159.116 161.44 168.66 173.26199 180.48199 182.806 187.246 192.246 197.246 200.026 205.026 207.35001 210.13 215.13 217.91 221.8 224.12399 231.90401 236.34399 240.23399 244.12399 246.448 251.448 255.888"
             y="114"
             sodipodi:role="line"
             id="tspan88">This may be a bitter pill to swallow. How could this mess be </tspan></text>
        <text
           xml:space="preserve"
           transform="matrix(1,0,0,-1,338.084,176.1121)"
           style="font-style:italic;font-variant:normal;font-size:10px;font-family:'Times New Roman';-inkscape-font-specification:TimesNewRomanPS-Italic;writing-mode:lr-tb;fill:#231f20;fill-opacity:1;fill-rule:nonzero;stroke:none"
           id="text94"><tspan
             x="0 5 10"
             y="0"
             sodipodi:role="line"
             id="tspan92">our</tspan></text>
        <text
           xml:space="preserve"
           transform="matrix(1,0,0,-1,354.297,176.1121)"
           style="font-variant:normal;font-weight:normal;font-size:10px;font-family:'Times New Roman';-inkscape-font-specification:TimesNewRomanPS;writing-mode:lr-tb;fill:#231f20;fill-opacity:1;fill-rule:nonzero;stroke:none"
           id="text104"><tspan
             x="0 3.428 7.868 12.868 15.648 18.427999 22.868 24.893999 34.334 39.334 43.773998 46.554001 48.877998 53.318001 58.318001 63.318001 68.318001 71.098 73.421997 76.202003 81.202003"
             y="0"
             sodipodi:role="line"
             id="tspan96">fault? What about the</tspan><tspan
             x="-274.37701 -271.047 -266.60699 -261.60699 -256.60699 -253.827 -250.49699 -246.05701 -238.27699 -233.83701 -228.83701 -226.05701 -222.16701 -217.72701 -215.13901 -205.69901 -200.69901 -196.259 -193.479 -190.593 -186.153 -181.153 -176.153 -171.153 -168.373 -165.487 -162.707 -157.707 -153.267 -150.381 -146.491 -142.05099 -137.05099 -132.61099 -127.611 -122.611 -119.831 -115.391 -110.951 -108.363 -98.922997 -93.922997 -89.483002 -86.703003 -83.817001 -79.376999 -74.376999 -69.376999 -64.376999 -61.597 -58.710999 -55.931 -50.931 -46.491001 -43.605 -39.715 -36.935001 -31.934999 -26.934999 -24.155001 -19.155001 -16.268999 -8.4890003 -4.0489998 0.95099998 5.3909998 10.391 14.831 18.160999 22.051001 24.937 29.377001 34.376999 39.376999 42.263 45.042999 50.042999 54.483002 57.368999 62.368999 66.259003 70.698997 73.478996 77.918999 81.808998"
             y="12"
             sodipodi:role="line"
             id="tspan98">requirements? What about the schedule? What about the stupid managers and the useless</tspan><tspan
             x="-274.37701 -266.59698 -262.15701 -258.827 -253.925 -249.485 -246.705 -243.925 -238.925 -233.925 -231.425 -228.645 -223.645 -218.645 -214.205 -210.315 -205.875 -203.375 -196.155 -191.155 -186.155 -183.323 -180.543 -178.043 -175.263 -170.263 -165.972 -160.972 -158.472 -153.472 -149.032 -144.592 -141.26199 -138.76199 -134.87199 -129.87199 -122.092 -117.652 -115.152 -110.152 -106.822 -104.322 -101.542 -96.542 -92.101997 -89.601997 -84.800003 -82.019997 -77.580002 -69.800003 -65.360001"
             y="24"
             sodipodi:role="line"
             id="tspan100">marketing types? Don’t they bear some of the blame?</tspan><tspan
             x="-256.37701 -249.157 -244.157 -241.657 -238.644 -232.534 -227.534 -223.09399 -219.58299 -211.80299 -207.36301 -202.36301 -197.923 -192.923 -188.483 -185.153 -181.263 -177.752 -173.312 -168.312 -163.312 -159.80099 -152.021 -147.58099 -144.25101 -139.349 -134.909 -132.129 -127.689 -124.359 -120.469 -116.958 -114.178 -109.178 -104.178 -99.178001 -95.667 -92.887001 -87.887001"
             y="39"
             sodipodi:role="line"
             id="tspan102">No. The managers and marketers look to </tspan></text>
        <text
           xml:space="preserve"
           transform="matrix(1,0,0,-1,269.893,137.1121)"
           style="font-style:italic;font-variant:normal;font-size:10px;font-family:'Times New Roman';-inkscape-font-specification:TimesNewRomanPS-Italic;writing-mode:lr-tb;fill:#231f20;fill-opacity:1;fill-rule:nonzero;stroke:none"
           id="text108"><tspan
             x="0 5"
             y="0"
             sodipodi:role="line"
             id="tspan106">us</tspan></text>
        <text
           xml:space="preserve"
           transform="matrix(1,0,0,-1,282.293,137.1121)"
           style="font-variant:normal;font-weight:normal;font-size:10px;font-family:'Times New Roman';-inkscape-font-specification:TimesNewRomanPS;writing-mode:lr-tb;fill:#231f20;fill-opacity:1;fill-rule:nonzero;stroke:none"
           id="text118"><tspan
             x="0 3.3299999 8.3299999 11.66 15.171 17.951 22.951 27.391001 30.902 33.681999 38.681999 42.012001 47.012001 50.540001 58.32 62.759998 65.540001 68.32 73.32 78.32 81.831001 84.611 89.611 93.902 98.902 102.413 107.413 111.853 116.293 121.293 124.804 127.584 132.584 136.095 143.875 148.315 153.217"
             y="0"
             sodipodi:role="line"
             id="tspan110">for the information they need to make</tspan><tspan
             x="-202.373 -197.373 -194.043 -189.043 -181.263 -178.483 -174.593 -170.153 -166.263 -162.965 -158.52499 -153.52499 -148.52499 -145.22701 -140.787 -135.787 -128.007 -120.227 -117.447 -114.667 -106.887 -102.447 -97.446999 -94.667 -90.777 -87.997002 -84.698997 -80.259003 -75.259003 -70.259003 -66.960999 -62.77 -57.918999 -53.479 -48.479 -45.181 -38.159 -33.159 -28.719 -23.719 -20.421 -17.641001 -12.641 -8.3500004 -3.3499999 -0.052000001 4.948 9.948 14.948 17.780001 20.559999 23.858 26.638 31.638 36.638 41.638 44.936001 47.716 52.716 56.014 61.014 64.903999 67.403999 70.702003 77.572998 82.013 85.310997 89.200996 94.200996 99.200996 104.201 106.981 111.981 115.279 120.279 125.279 128.05901 131.35699 136.35699 140.797 144.095 147.985 152.687"
             y="12"
             sodipodi:role="line"
             id="tspan112">promises and commitments; and even when they don’t look to us, we should not be shy</tspan><tspan
             x="-202.373 -197.933 -192.933 -187.933 -182.933 -180.153 -177.858 -175.078 -170.638 -167.858 -165.078 -162.298 -157.298 -152.298 -150.00301 -147.22301 -142.22301 -137.783 -130.00301 -127.708 -120.686 -115.686 -111.246 -108.466 -106.171 -99.300003 -94.860001 -92.565002 -89.785004 -84.785004 -82.004997 -77.004997 -72.004997 -69.504997 -67.708 -61.598 -56.598 -52.158001 -49.862999 -44.862999 -40.973 -36.533001 -33.202999 -29.313 -27.018 -24.238001 -19.238001 -14.238 -9.2379999 -6.9429998 -4.1630001 0.83700001 3.132 8.132 12.022 14.317 17.097 22.097 24.392 29.143 33.583 36.362999 39.143002 44.143002 48.583 51.362999 55.803001 58.098 60.877998 65.877998 70.318001 72.612999 79.584 83.675003 88.675003 90.970001 93.75 98.75 103.19 105.485 108.815 113.255 118.255 123.255 126.035 129.36501 133.80499 141.58501 146.02499 151.02499 153.80499"
             y="24"
             sodipodi:role="line"
             id="tspan114">about telling them what we think. The users look to us to validate the way the requirements</tspan><tspan
             x="-202.373 -195.153 -192.373 -189.593 -186.813 -184.325 -178.765 -175.985 -173.49699 -170.717 -165.717 -162.937 -157.937 -155.44901 -152.66901 -147.66901 -143.229 -140.741 -136.851 -131.851 -127.961 -125.181 -120.741 -112.961 -110.461 -108.471 -102.361 -97.361 -92.920998 -90.432999 -85.432999 -82.102997 -77.102997 -74.322998 -69.883003 -65.443001 -62.662998 -60.174999 -52.395 -47.955002 -42.955002 -38.514999 -33.514999 -29.075001 -25.745001 -21.855 -19.367001 -16.587 -11.587 -6.5869999 -1.587 0.90100002 3.681 8.6809998 11.169 16.169001 20.059 22.547001 25.327 30.327 32.814999 37.814999 42.255001 45.035 50.035 52.522999 59.345001 64.345001 67.675003 72.675003 75.163002 80.163002 85.163002 87.943001 90.431 93.210999 98.210999 102.651 105.139 109.029 113.469 118.469 122.909 127.909 132.909 135.689 140.129 142.629 144.819 153.259"
             y="36"
             sodipodi:role="line"
             id="tspan116">will ﬁt into the system. The project managers look to us to help work out the schedule. We</tspan></text>
        <g
           id="g120">
          <g
             id="g122"
             clip-path="url(#clipPath126)">
            <path
               d="m -37.08,664.778 h 36 m -36,-666 h 36 m 522,0 h 36 m -36,666 h 36 m -549,45 v -36 m 504,36 v -36 m 0,-684 v -36 m -504,36 v -36"
               style="fill:none;stroke:#ffffff;stroke-width:0.75;stroke-linecap:butt;stroke-linejoin:miter;stroke-miterlimit:10;stroke-dasharray:none;stroke-opacity:1"
               id="path128" />
            <path
               d="m -37.08,664.778 h 36 m -36,-666 h 36 m 522,0 h 36 m -36,666 h 36 m -549,45 v -36 m 504,36 v -36 m 0,-684 v -36 m -504,36 v -36 m -12,378 c 0,3.312 -2.688,6 -6,6 -3.312,0 -6,-2.688 -6,-6 0,-3.312 2.688,-6 6,-6 3.312,0 6,2.688 6,6 z m -24,0 h 27 m -9,24 v -48 m 545.94,24 c 0,3.312 -2.688,6 -6,6 -3.312,0 -6,-2.688 -6,-6 0,-3.312 2.688,-6 6,-6 3.312,0 6,2.688 6,6 z m -14.94,0 h 27 m -18,24 v -48 m -534,345 c 0,3.312 -2.688,6 -6,6 -3.312,0 -6,-2.688 -6,-6 0,-3.312 2.688,-6 6,-6 3.312,0 6,2.688 6,6 z m -24,0 h 27 m -9,9 v -33 m 6,-618 c 0,3.312 -2.688,6 -6,6 -3.312,0 -6,-2.688 -6,-6 0,-3.312 2.688,-6 6,-6 3.312,0 6,2.688 6,6 z m -24,0 h 27 m -9,24 v -33 m 545.94,651 c 0,3.312 -2.688,6 -6,6 -3.312,0 -6,-2.688 -6,-6 0,-3.312 2.688,-6 6,-6 3.312,0 6,2.688 6,6 z m -14.94,0 h 27 m -18,9 v -33 m 5.94,-618 c 0,3.312 -2.688,6 -6,6 -3.312,0 -6,-2.688 -6,-6 0,-3.312 2.688,-6 6,-6 3.312,0 6,2.688 6,6 z m -14.94,0 h 27 m -18,24 v -33"
               style="fill:none;stroke:#000000;stroke-width:0.25;stroke-linecap:butt;stroke-linejoin:miter;stroke-miterlimit:10;stroke-dasharray:none;stroke-opacity:1"
               id="path130" />
          </g>
        </g>
      </g>
    </g>
    <g
       id="g132">
      <g
         id="g134"
         transform="translate(218,6.56)">
        <text
           xml:space="preserve"
           transform="scale(1,-1)"
           style="font-variant:normal;font-weight:normal;font-size:10px;font-family:Helvetica;-inkscape-font-specification:Helvetica;writing-mode:lr-tb;fill:#0000ff;fill-opacity:1;fill-rule:nonzero;stroke:none"
           id="text138"><tspan
             x="0 7.2199998 14.44 21.66 24.440001 26.66 29.440001 32.77 38.330002 43.889999 49.450001 55.009998 60.009998 65.010002 67.790001 70.010002 75.57 78.349998"
             y="0"
             sodipodi:role="line"
             id="tspan136">www.it-ebooks.info</tspan></text>
        <g
           id="g140"
           transform="translate(-218,-6.56)" />
      </g>
    </g>
  </g>
</svg>
