<?xml version="1.0" encoding="UTF-8" standalone="no"?>
<!-- Created with Inkscape (http://www.inkscape.org/) -->

<svg
   version="1.1"
   id="svg2"
   width="690.14398"
   height="888.47998"
   viewBox="0 0 690.14398 888.47998"
   sodipodi:docname="4PmrqTPDrJV6cyWn.pdf"
   xmlns:inkscape="http://www.inkscape.org/namespaces/inkscape"
   xmlns:sodipodi="http://sodipodi.sourceforge.net/DTD/sodipodi-0.dtd"
   xmlns="http://www.w3.org/2000/svg"
   xmlns:svg="http://www.w3.org/2000/svg">
  <defs
     id="defs6">
    <clipPath
       clipPathUnits="userSpaceOnUse"
       id="clipPath142">
      <path
         d="M 0,665.858 H 519.84 V 0 H 0 Z"
         id="path140" />
    </clipPath>
  </defs>
  <sodipodi:namedview
     id="namedview4"
     pagecolor="#ffffff"
     bordercolor="#000000"
     borderopacity="0.25"
     inkscape:showpageshadow="2"
     inkscape:pageopacity="0.0"
     inkscape:pagecheckerboard="0"
     inkscape:deskcolor="#d1d1d1" />
  <g
     id="g8"
     inkscape:groupmode="layer"
     inkscape:label="4PmrqTPDrJV6cyWn"
     transform="matrix(1.3333333,0,0,-1.3333333,-1.46,887.61333)">
    <g
       id="g10">
      <g
         id="g12">
        <text
           xml:space="preserve"
           transform="matrix(1,0,0,-1,79.92,622.111)"
           style="font-variant:normal;font-weight:normal;font-size:10px;font-family:'Times New Roman';-inkscape-font-specification:TimesNewRomanPS;writing-mode:lr-tb;fill:#231f20;fill-opacity:1;fill-rule:nonzero;stroke:none"
           id="text16"><tspan
             x="0"
             y="0"
             id="tspan14">6</tspan></text>
        <text
           xml:space="preserve"
           transform="matrix(1,0,0,-1,341.338,622.111)"
           style="font-variant:normal;font-weight:bold;font-size:10px;font-family:'Times New Roman';-inkscape-font-specification:TimesNewRomanPS-Bold;writing-mode:lr-tb;fill:#231f20;fill-opacity:1;fill-rule:nonzero;stroke:none"
           id="text20"><tspan
             x="0 7.2199998 12.78 17.780001 23.34 26.67 31.110001 35.549999 38.148998 43.148998 46.181 48.779999 56 58.779999 63.220001 68.220001 73.779999 76.378998 83.598999 88.598999 94.158997"
             y="0"
             sodipodi:role="line"
             id="tspan18">Chapter 1: Clean Code</tspan></text>
        <text
           xml:space="preserve"
           transform="matrix(1,0,0,-1,79.92,586.111)"
           style="font-variant:normal;font-weight:normal;font-size:10px;font-family:'Times New Roman';-inkscape-font-specification:TimesNewRomanPS;writing-mode:lr-tb;fill:#231f20;fill-opacity:1;fill-rule:nonzero;stroke:none"
           id="text34"><tspan
             x="0 4.4400001 7.77 12.21 15.105 20.105 24.545 28.985001 33.985001 36.515999 41.515999 44.410999 48.851002 53.851002 61.631001 66.630997 69.411003 72.191002 76.630997 79.411003 82.191002 85.085999 87.865997 92.865997 95.761002 98.541 103.541 107.981 110.876 115.876 118.656 123.096 128.09599 133.09599 135.87601 140.87601 145.87601 148.771 153.771 157.101 159.996 162.776 167.776 172.216 175.11099 180.11099 183.44099 188.44099 191.22099 195.661 200.101 202.881 205.776 210.216 215.216 220.216 223.11099 227.00101 232.00101 236.44099 239.771 244.211 247.106 251.54601 254.44099 259.63901 262.96899 267.409 271.849 274.629 277.52399 282.52399 286.96399 291.40399 294.18399 297.07901 302.07901 305.409 308.30399 311.08401 316.08401 320.52399 323.41901 326.74899 331.189 335.07901 340.07901 345.07901 350.07901 353.96899 356.74899"
             y="0"
             sodipodi:role="line"
             id="tspan22">are deeply complicit in the planning of the project and share a great deal of the responsi-</tspan><tspan
             x="0 5 7.7800002 10.56 13.34 16.120001 21.120001 23.620001 26.950001 31.950001 35.279999 37.779999 42.220001 46.971001 51.971001 54.471001 57.898998 62.339001 65.119003 67.899002 72.899002 76.228996 80.668999 84.558998 87.338997 89.838997 94.278999 98.168999 103.169 107.609 112.049 114.829 119.269 122.049 124.58 129.58 132.08 134.86 138.19 140.69 143.47 148.47 153.47 157.36 161.8 164.3 167.728 172.168 174.948 177.728 182.728 186.058 190.498 194.388 196.888 201.888 205.979 210.83 215.27 217.77 220.55 225.55 228.05 233.05 238.05 240.55 247.77 250.55 253.33 258.32999 260.82999 265.82999 270.26999 275.26999 277.76999 282.20999 287.20999 292.20999 296.64999"
             y="12"
             sodipodi:role="line"
             id="tspan24">bility for any failures; especially if those failures have to do with bad code!</tspan><tspan
             x="18 22.440001 29.110001 34.110001 36.889999 39.5 46.471001 50.910999 53.691002 56.471001 59.800999 64.240997 66.850998 71.653 76.653 81.653 84.263 88.153 92.244003 96.393997 98.893997 101.504 105.944 109.274 112.604 115.214 118.544 121.154 126.154 131.15401 136.15401 138.98599 141.76601 144.37601 149.37601 154.37601 156.98599 164.008 169.008 173.448 176.228 178.838 186.22 191.22 193.83 201.61 206.05 211.05 215.49001 220.49001 224.92999 228.25999 230.87 234.75999 238.851 243.851 247.741 250.241 252.851 256.181 259.11301 261.89301 264.673 267.28299 272.28299 276.72299 279.33301 284.89301 288.22299 292.66299 297.66299 299.465 303.905 306.51501 312.07501 315.405 320.405 325.405 329.845 334.647 337.17801 342.17801 344.78799 349.78799 354.78799 357.56799"
             y="27"
             sodipodi:role="line"
             id="tspan26">“But wait!” you say. “If I don’t do what my manager says, I’ll be ﬁred.” Probably not.</tspan><tspan
             x="0 8.8900003 13.89 17.780001 20.559999 23.084999 30.865 35.305 40.305 44.744999 49.744999 54.185001 57.514999 61.404999 63.93 70.901001 75.341003 80.341003 83.121002 85.646004 88.426003 93.426003 97.865997 100.391 103.171 106.699 111.699 114.479 119.479 121.979 124.504 128.69501 133.54601 137.98599 142.98599 145.511 152.533 157.533 161.97301 166.97301 169.498 172.278 177.278 181.569 186.569 189.09399 194.09399 199.09399 204.09399 206.92599 209.70599 212.231 216.67101 221.11099 223.89101 226.416 229.196 231.976 236.87801 241.31799 243.843 246.623 249.403 251.903 254.42799 263.31799 268.31799 272.20801 274.98801 277.513 285.293 289.733 294.733 299.173 304.173 308.61301 311.94299 315.83301 318.358 325.32901 329.76901 334.76901 337.54901 340.07401 345.07401 350.07401 355.07401"
             y="39"
             sodipodi:role="line"
             id="tspan28">Most managers want the truth, even when they don’t act like it. Most managers want good</tspan><tspan
             x="0 4.4400001 9.4399996 14.44 18.879999 21.379999 23.737 27.927999 32.778999 37.219002 42.219002 44.576 51.598 56.598 61.037998 66.038002 68.394997 71.175003 76.175003 80.466003 85.466003 87.822998 92.263 95.593002 100.033 102.39 107.39 112.39 116.28 120.72 124.61 128.5 131.28 136.28 141.28 143.63699 148.077 153.077 158.077 163.077 165.85699 168.214 170.994 175.994 180.43401 182.791 186.681 191.121 196.121 200.561 205.561 210.561 213.341 217.78101 220.28101 222.14 228.25 233.25 237.541 242.541 244.89799 252.67799 256.76901 261.76901 264.12601 269.12601 273.56601 276.896 281.336 286.336 291.336 293.69299 296.47299 301.47299 305.91299 308.26999 312.16 316.60001 321.60001 326.04001 331.04001 336.04001 338.82001 343.26001 345.617 350.05701 355.05701"
             y="51"
             sodipodi:role="line"
             id="tspan30">code, even when they are obsessing about the schedule. They may defend the schedule and</tspan><tspan
             x="0 3.3310001 7.7719998 12.773 17.774 20.555 23.886 28.327 36.108002 40.549 45.549999 48.331001 52.222 55.014 62.235001 65.015999 67.796997 72.797997 75.589996 80.591003 85.031998 88.922997 92.814003 95.595001 100.596 105.597 108.378 111.17 116.171 121.172 123.953 126.745 129.526 134.52699 138.968 141.74899 143.67999 147.571 150.36301 153.144 158.145 162.586 165.367 168.698 171.49001 174.271 179.272 183.87399 186.375 189.16701 192.498 195.27901 197.21001 201.101"
             y="63"
             sodipodi:role="line"
             id="tspan32">requirements with passion; but that’s their job. It’s </tspan></text>
        <text
           xml:space="preserve"
           transform="matrix(1,0,0,-1,283.764,523.111)"
           style="font-style:italic;font-variant:normal;font-size:10px;font-family:'Times New Roman';-inkscape-font-specification:TimesNewRomanPS-Italic;writing-mode:lr-tb;fill:#231f20;fill-opacity:1;fill-rule:nonzero;stroke:none"
           id="text38"><tspan
             x="0 4.4400001 9.4399996 14.44"
             y="0"
             sodipodi:role="line"
             id="tspan36">your</tspan></text>
        <text
           xml:space="preserve"
           transform="matrix(1,0,0,-1,304.884,523.111)"
           style="font-variant:normal;font-weight:normal;font-size:10px;font-family:'Times New Roman';-inkscape-font-specification:TimesNewRomanPS;writing-mode:lr-tb;fill:#231f20;fill-opacity:1;fill-rule:nonzero;stroke:none"
           id="text50"><tspan
             x="0 2.78 7.7800002 12.78 15.572 18.351999 23.351999 26.143999 31.143999 35.584 38.914001 43.354 48.354 53.354 56.146 58.925999 63.925999 68.365997 71.157997 75.598 80.598 85.598 90.038002 92.830002 100.05 102.83 105.61 110.61 113.402 117.842 122.842 127.842 132.282"
             y="0"
             sodipodi:role="line"
             id="tspan40">job to defend the code with equal</tspan><tspan
             x="-224.964 -219.964 -215.524 -211.634 -207.744 -204.964 -199.964 -194.964"
             y="12"
             sodipodi:role="line"
             id="tspan42">passion.</tspan><tspan
             x="-206.964 -201.65199 -193.90401 -188.90401 -185.57401 -183.043 -178.192 -173.752 -171.00301 -168.22301 -163.22301 -160.44299 -156.55299 -153.804 -148.804 -143.804 -141.024 -136.024 -133.244 -130.495 -125.495 -120.495 -112.715 -108.275 -105.775 -103.026 -96.003998 -91.003998 -86.564003 -83.783997 -81.035004 -78.254997 -74.925003 -72.176003 -67.374001 -62.374001 -57.374001 -54.625 -47.754002 -43.313999 -39.984001 -35.543999 -32.794998 -28.355 -25.606001 -20.606001 -15.606 -11.166 -8.3859997 -3.3859999 -0.056000002 2.6930001 7.1329999 12.133 17.132999 19.882 24.882 29.322001 34.321999 37.070999 41.511002 44.259998 49.259998 53.700001 56.48 59.259998 63.700001 68.699997 71.480003 74.228996 81.250999 86.250999 91.250999 94 99 103.44 111.22 115.66 120.66 125.66 130.10001"
             y="27"
             sodipodi:role="line"
             id="tspan44">Todrive this point home, what if you were a doctor and had a patient who demanded</tspan><tspan
             x="-224.964 -222.18401 -217.18401 -212.744 -209.964 -206.675 -201.873 -196.873 -191.873 -188.584 -184.694 -181.914 -176.914 -171.914 -168.625 -164.185 -161.405 -158.625 -155.336 -152.556 -147.556 -143.116 -139.827 -135.937 -133.157 -130.377 -127.846 -122.846 -119.557 -114.557 -110.117 -105.117 -100.117 -96.787003 -89.816002 -85.375999 -81.486 -76.486 -73.706001 -68.706001 -63.706001 -60.417 -57.637001 -52.637001 -49.348 -44.348 -41.018002 -36.577999 -31.577999 -27.138 -23.808001 -19.368 -16.587999 -13.808 -8.8079996 -3.8080001 -0.51899999 2.8110001 7.8109999 11.141 14.43 18.32 23.32 26.472 31.472 35.911999 39.439999 44.439999 47.729 52.729 57.168999 61.609001 66.049004 71.049004 74.939003 79.378998 82.667999 85.447998 88.227997 91.516998 98.487999 102.928 106.818 110.107 112.887 117.327 122.327 125.107 130.10699"
             y="39"
             sodipodi:role="line"
             id="tspan46">that you stop all the silly hand-washing in preparation for surgery because it was taking</tspan><tspan
             x="-224.964 -222.18401 -217.18401 -212.18401 -209.79601 -202.01601 -197.01601 -192.576 -187.576 -185.188 -182.408 -179.62801 -171.84801 -167.408"
             y="51"
             sodipodi:role="line"
             id="tspan48">too much time?</tspan></text>
        <text
           xml:space="preserve"
           transform="matrix(1,0,0,-1,141.904,476.1111)"
           style="font-variant:normal;font-weight:normal;font-size:5.5px;font-family:'Times New Roman';-inkscape-font-specification:TimesNewRomanPS;writing-mode:lr-tb;fill:#231f20;fill-opacity:1;fill-rule:nonzero;stroke:none"
           id="text54"><tspan
             x="0"
             y="0"
             id="tspan52">2</tspan></text>
        <text
           xml:space="preserve"
           transform="matrix(1,0,0,-1,147.046,472.111)"
           style="font-variant:normal;font-weight:normal;font-size:10px;font-family:'Times New Roman';-inkscape-font-specification:TimesNewRomanPS;writing-mode:lr-tb;fill:#231f20;fill-opacity:1;fill-rule:nonzero;stroke:none"
           id="text68"><tspan
             x="0 6.6700001 9.4499998 13.89 18.33 21.66 24.191 29.191 31.579 34.359001 39.359001 43.799 46.187 51.187 55.626999 58.407001 61.187 65.626999 70.626999 73.406998 75.794998 78.574997 82.464996 84.852997 87.633003 92.633003 97.072998 99.460999 104.461 109.461 113.351 117.241 120.021 122.409 126.849 131.849 136.849 139.237 144.039 148.479 151.259 153.647 156.427 161.427 165.867 168.255 173.255 178.255 182.69501 185.47501 190.47501 193.80499 196.19299 200.08299 205.08299 210.08299 215.08299 217.86301 222.86301 225.25101 229.69099 234.69099 238.58099 243.58099 246.36099 251.36099 254.14101 258.58099 261.112 266.112 268.5 271.82999 276.26999 279.60001 284.60001 288.48999"
             y="0"
             sodipodi:role="line"
             id="tspan56">Clearly the patient is the boss; and yet the doctor should absolutely refuse</tspan><tspan
             x="-67.125999 -64.346001 -59.346001 -56.216999 -51.777 -46.777 -38.997002 -33.997002 -31.466 -27.316 -24.816 -21.985001 -12.545 -7.8429999 -2.8429999 1.597 4.7259998 11.396 15.836 20.275999 24.716 29.716 33.605999 38.046001 41.174999 43.955002 48.955002 53.395 56.523998 61.523998 66.524002 70.963997 73.744003 78.744003 82.073997 85.203003 90.203003 95.203003 99.805 107.025 110.915 114.044 121.824 126.824 130.15401 134.59399 137.72301 140.50301 145.50301 149.94299 154.94299 158.07201 160.85201 165.85201 170.29201 173.42101 178.42101 182.86099 185.64101 188.42101 192.86099 197.86099 200.64101 203.77 208.21001 213.21001 218.21001 223.21001 225.99001 229.119 231.899 236.899 241.339 244.468 247.798 250.578 254.468 259.46799 263.358 266.487 271.487 274.81699 277.94601 282.94601 285.72601 289.616"
             y="12"
             sodipodi:role="line"
             id="tspan58">to comply. Why? Because the doctor knows more than the patient about the risks of dis-</tspan><tspan
             x="-67.125999 -62.686001 -58.245998 -54.355999 -49.916 -45.932999 -41.493 -36.493 -31.493 -27.51 -24.73 -19.73 -16.4 -11.96 -7.52 -4.7399998 -1.96 3.04 8.04 10.54 14.523 17.853001 20.632999 24.615999 31.438 36.438 41.438 44.217999 49.217999 53.201 58.201 62.640999 66.624001 71.624001 76.624001 81.624001 84.954002 89.954002 93.283997 97.723999 101.614 105.504 108.284 113.284 118.284 122.724 125.504 129.487 132.817 137.817 142.008 146.85899 151.299 154.629 158.612 166.392 169.172 174.172 179.172 183.155 187.595 190.925 193.705 201.485 204.265 209.265 213.705 216.485 219.815 223.798 227.12801 232.12801 235.45799 239.44099 242.22099 247.22099 251.661 255.644 260.64401 265.64401 270.08401 272.86401 277.86401 281.194 285.177 287.957"
             y="24"
             sodipodi:role="line"
             id="tspan60">ease and infection. It would be unprofessional (never mind criminal) for the doctor to</tspan><tspan
             x="-67.125999 -62.686001 -57.686001 -49.905998 -44.905998 -42.375 -37.375 -34.875 -27.655001 -24.875 -22.094999 -17.094999 -14.595 -11.815 -6.8150001 -2.375 0.125 5.125 9.5649996 12.345 15.125 19.565001 24.565001 27.344999"
             y="36"
             sodipodi:role="line"
             id="tspan62">comply with the patient.</tspan><tspan
             x="-49.125999 -43.566002 -38.566002 -36.191002 -33.410999 -28.410999 -23.410999 -21.035999 -18.256001 -15.476 -13.101 -10.321 -6.4310002 -4.0560002 0.94400001 5.9439998 10.944 14.274 19.274 22.604 27.044001 30.934 34.824001 37.604 42.604 47.604 52.043999 54.824001 57.199001 60.528999 65.528999 68.859001 71.234001 76.234001 79.564003 84.315002 89.513 92.843002 97.282997 105.063 112.843 117.283 120.613 124.503 126.878 129.658 134.658 137.033 142.033 146.47301 151.47301 156.47301 158.84801 161.62801 166.62801 169.00301 171.783 176.783 181.22301 183.59801 190.81799 193.59801 196.37801 199.158 201.533 206.533 209.86301 212.23801 220.01801 224.45799 229.45799 233.89799 238.89799 243.338 246.668 250.558 252.933 259.95499 264.95499 269.95499 272.32999 277.32999 282.32999 287.32999 290.16199"
             y="51"
             sodipodi:role="line"
             id="tspan64">So too it is unprofessional for programmers to bend to the will of managers who don’t</tspan><tspan
             x="-67.125999 -62.125999 -57.125999 -52.125999 -47.686001 -44.355999 -40.466 -37.686001 -33.245998 -28.246 -23.246 -20.746 -17.966 -12.966 -8.526 -6.026 -2.6960001 0.083999999 3.974 8.974 12.864 15.364 20.364 23.694 26.194 33.973999 38.414001 43.414001 46.194 51.194 56.194 58.694 66.473999 70.914001 74.804001 78.694 83.134003 87.024002"
             y="63"
             sodipodi:role="line"
             id="tspan66">understand the risks of making messes.</tspan></text>
        <text
           xml:space="preserve"
           transform="matrix(1,0,0,-1,79.92,383.778)"
           style="font-variant:normal;font-weight:bold;font-size:12px;font-family:'Times New Roman';-inkscape-font-specification:TimesNewRomanPS-Bold;writing-mode:lr-tb;fill:#231f20;fill-opacity:1;fill-rule:nonzero;stroke:none"
           id="text72"><tspan
             x="0 8.0039997 14.676 20.004 23.004 30.336 35.664001 39 48.995998 54.995998 58.332001 61.332001 69.996002 75.996002 82.431602 89.1036 95.775597 102.4476 107.7756 114.4476"
             y="0"
             sodipodi:role="line"
             id="tspan70">The Primal Conundrum</tspan></text>
        <text
           xml:space="preserve"
           transform="matrix(1,0,0,-1,79.92,363.1121)"
           style="font-variant:normal;font-weight:normal;font-size:10px;font-family:'Times New Roman';-inkscape-font-specification:TimesNewRomanPS;writing-mode:lr-tb;fill:#231f20;fill-opacity:1;fill-rule:nonzero;stroke:none"
           id="text84"><tspan
             x="0 5.5599999 8.8900003 13.641 18.839001 22.169001 26.608999 34.389 42.168999 46.609001 49.938999 53.828999 56.104 59.532001 63.972 68.412003 72.851997 75.126999 79.567001 81.842003 86.281998 91.281998 96.281998 101.282 106.282 111.282 114.81 119.81 127.59 129.86501 134.86501 138.19501 140.47 145.47 149.91 153.8 156.58 161.02 163.295 168.04601 172.48599 175.26601 180.26601 184.70599 188.59599 191.09599 192.82201 200.04201 202.82201 205.60201 207.877 212.877 217.06799 221.91901 226.35899 229.13901 234.13901 239.13901 243.57899 246.909 250.799 253.07401 260.29401 263.07401 265.854 270.854 273.129 280.909 285.909 289.23901 293.67899 295.95401 298.73401 303.73401 308.17401 313.17401 315.44901 319.88901 322.164 325.49399 329.685 336.905 339.17999 343.98199 348.422 352.862 356.19199"
             y="0"
             sodipodi:role="line"
             id="tspan74">Programmers face a conundrum of basic values. All developers with more than a few years</tspan><tspan
             x="0 4.2909999 9.2910004 14.291 18.731001 22.061001 24.841 29.281 34.280998 38.721001 43.160999 48.006001 53.006001 58.006001 62.608002 69.828003 74.672997 77.453003 82.453003 86.892998 89.672997 94.517998 99.517998 102.848 107.039 112.039 114.819 119.819 124.819 128.709 133.554 141.334 145.774 149.664 153.554 157.994 161.884 166.729 170.619 173.399 178.00101 185.22099 190.06599 192.84599 197.84599 202.286 210.06599 214.911 219.911 224.513 231.733 236.733 239.233 243.52901 250.74899 255.74899 260.74899 265.59399 270.396 274.836 277.616 282.461 286.901 289.681 292.461 297.306 302.306 306.49701 311.34799 315.78799 318.56799 323.56799 328.56799 333.008 336.33801 340.228 345.073 348.40302 352.84299 357.28299"
             y="12"
             sodipodi:role="line"
             id="tspan76">experience know that previous messes slow them down. And yet all developers feel</tspan><tspan
             x="0 2.78 7.7800002 12.22 14.72 19.719999 23.049999 27.49 31.379999 35.27 40.27 43.599998 48.040001 50.888 53.667999 58.667999 61.515999 69.295998 73.736 78.638 83.078003 85.926003 93.706001 98.146004 102.036 105.926 110.366 114.256 117.104 119.884 124.884 127.732 132.73199 136.062 141.062 145.502 148.832 151.67999 154.46001 159.46001 162.308 170.088 174.528 178.968 181.748 184.59599 189.59599 194.036 198.476 203.476 206.256 209.036 214.036 218.476 222.366 224.866 227.714 231.04401 236.04401 238.892 242.782 247.782 252.782 256.31 259.09 261.59 264.43799 267.21799 272.21799 276.509 281.509 284.35699 289.35699 294.35699 299.35699 302.189 304.96899 307.81699 310.59698 315.03699 319.939 324.379 327.22699 330.00699 335.00699 339.44699 342.29501 345.07501 347.85501 355.63501"
             y="24"
             sodipodi:role="line"
             id="tspan78">the pressure to make messes in order to meet deadlines. In short, they don’t take the time</tspan><tspan
             x="0 2.78 7.7800002 10.28 15.28 20.280001 22.780001 26.208 30.648001 34.537998 37.318001"
             y="36"
             sodipodi:role="line"
             id="tspan80">to go fast!</tspan><tspan
             x="18 23.761 27.288 32.287998 36.728001 39.151001 44.151001 47.480999 52.480999 55.811001 60.250999 64.140999 68.030998 70.810997 75.810997 80.810997 85.250999 88.030998 91.920998 94.344002 99.344002 104.344 108.946 116.166 118.589 121.369 126.369 130.80901 133.589 136.01199 138.79201 143.79201 148.23199 150.655 154.545 158.985 163.425 168.425 173.425 178.425 180.84801 185.84801 190.28799 193.81599 196.59599 199.019 204.019 207.349 209.772 212.552 217.552 221.992 224.41499 228.855 233.855 238.855 243.855 248.855 253.855 257.383 262.383 270.16299 272.586 275.366 279.25601 281.67899 288.89899 292.229 297.229 302.229 307.229 309.729 311.254 316.875 321.875 326.875 329.298 336.51801 339.298 342.078 344.858"
             y="51"
             sodipodi:role="line"
             id="tspan82">True professionals know that the second part of the conundrum is wrong. You will </tspan></text>
        <text
           xml:space="preserve"
           transform="matrix(1,0,0,-1,427.141,312.1121)"
           style="font-style:italic;font-variant:normal;font-size:10px;font-family:'Times New Roman';-inkscape-font-specification:TimesNewRomanPS-Italic;writing-mode:lr-tb;fill:#231f20;fill-opacity:1;fill-rule:nonzero;stroke:none"
           id="text88"><tspan
             x="0 5 10"
             y="0"
             sodipodi:role="line"
             id="tspan86">not</tspan></text>
        <text
           xml:space="preserve"
           transform="matrix(1,0,0,-1,79.92,300.1121)"
           style="font-variant:normal;font-weight:normal;font-size:10px;font-family:'Times New Roman';-inkscape-font-specification:TimesNewRomanPS;writing-mode:lr-tb;fill:#231f20;fill-opacity:1;fill-rule:nonzero;stroke:none"
           id="text94"><tspan
             x="0 7.7800002 12.22 17.122 21.562 23.937 26.716999 31.716999 36.157001 38.532001 43.532001 47.972 52.411999 57.411999 60.192001 62.972 67.972 72.412003 74.787003 79.538002 84.538002 86.913002 94.693001 99.133003 104.133 106.913 111.913 116.913 119.288 122.068 127.068 131.508 133.883 141.66299 146.103 149.993 153.883 156.383 158.758 162.088 167.088 172.088 176.528 180.968 185.37 187.87 190.245 193.02499 198.02499 202.465 204.84 212.62 217.06 220.95 224.84 227.215 234.435 237.215 239.995 242.77499 245.14999 249.03999 251.82001 256.422 263.642 266.017 270.819 275.819 280.819 283.194 288.194 292.79599 300.01599 305.01599 307.39099 310.17099 315.17099 319.061 321.841 326.28101 331.28101 334.061 336.59201 340.742 343.242 345.617 350.05701 355.05701"
             y="0"
             sodipodi:role="line"
             id="tspan90">make the deadline by making the mess. Indeed, the mess will slow you down instantly, and</tspan><tspan
             x="0 7.2199998 10 12.78 15.56 18.507999 21.837999 26.837999 30.167999 34.608002 39.048 41.995998 46.798 51.798 56.798 59.745998 62.526001 67.526001 70.473999 78.253998 81.033997 84.924004 88.814003 91.762001 94.542 99.542 103.982 106.93 111.93 116.37 120.81 125.81 128.59 131.37 136.37 140.81 143.31 145.75999 151.87 156.87 161.31"
             y="12"
             sodipodi:role="line"
             id="tspan92">will force you to miss the deadline. The </tspan></text>
        <text
           xml:space="preserve"
           transform="matrix(1,0,0,-1,244.146,288.1121)"
           style="font-style:italic;font-variant:normal;font-size:10px;font-family:'Times New Roman';-inkscape-font-specification:TimesNewRomanPS-Italic;writing-mode:lr-tb;fill:#231f20;fill-opacity:1;fill-rule:nonzero;stroke:none"
           id="text98"><tspan
             x="0 5 10 12.682"
             y="0"
             sodipodi:role="line"
             id="tspan96">only</tspan></text>
        <text
           xml:space="preserve"
           transform="matrix(1,0,0,-1,264.213,288.1121)"
           style="font-variant:normal;font-weight:normal;font-size:10px;font-family:'Times New Roman';-inkscape-font-specification:TimesNewRomanPS;writing-mode:lr-tb;fill:#231f20;fill-opacity:1;fill-rule:nonzero;stroke:none"
           id="text104"><tspan
             x="0 6.9710002 11.061 16.061001 19.009001 21.789 26.789 29.737 37.516998 41.957001 46.859001 51.299 54.247002 57.027 62.027 66.467003 69.415001 74.415001 78.855003 83.294998 88.294998 91.074997 93.855003 98.855003 103.295 113.295 116.075 121.075 125.515 128.463 133.463 138.463 140.994 145.994 148.942 155.91299 160.004 165.004 167.952 170.73199"
             y="0"
             sodipodi:role="line"
             id="tspan100">way to make the deadline—the only way to</tspan><tspan
             x="-184.293 -179.293 -174.293 -171.793 -168.36501 -163.925 -160.035 -157.255 -147.255 -144.47501 -140.58501 -138.08501 -135.30499 -130.30499 -127.805 -122.903 -118.463 -114.023 -109.023 -106.523 -103.743 -98.742996 -94.303001 -91.803001 -87.362999 -82.362999 -77.362999 -72.922997 -70.422997 -65.983002 -62.092999 -59.592999 -55.153 -52.373001 -47.932999 -43.493 -38.493 -35.993 -31.552999 -27.663 -25.163 -20.163 -15.163 -11.273 -7.3829999 -4.6030002 0.199 2.9790001 7.4190001 9.9189997 14.359 17.139 19.639 24.079 26.858999 29.639 32.139 34.918999 37.699001 45.479 49.918999 53.808998"
             y="12"
             sodipodi:role="line"
             id="tspan102">go fast—is to keep the code as clean as possible at all times.</tspan></text>
        <text
           xml:space="preserve"
           transform="matrix(1,0,0,-1,79.92,250.778)"
           style="font-variant:normal;font-weight:bold;font-size:12px;font-family:'Times New Roman';-inkscape-font-specification:TimesNewRomanPS-Bold;writing-mode:lr-tb;fill:#231f20;fill-opacity:1;fill-rule:nonzero;stroke:none"
           id="text108"><tspan
             x="0 8.0039997 14.676 20.004 21.983999 30.648001 36.093601 40.0896 43.0896 49.0896 53.085602 56.085602 64.749603 68.085602 73.413597 79.413597 86.085602 89.085602 97.749603 103.7496 110.4216 115.7496"
             y="0"
             sodipodi:role="line"
             id="tspan106">The Art of Clean Code?</tspan></text>
        <text
           xml:space="preserve"
           transform="matrix(1,0,0,-1,79.92,230.1121)"
           style="font-variant:normal;font-weight:normal;font-size:10px;font-family:'Times New Roman';-inkscape-font-specification:TimesNewRomanPS;writing-mode:lr-tb;fill:#231f20;fill-opacity:1;fill-rule:nonzero;stroke:none"
           id="text126"><tspan
             x="0 6.1100001 10.55 13.33 15.261 19.150999 21.500999 25.391001 29.482 34.481998 36.832001 41.633999 46.633999 51.633999 53.984001 58.984001 63.424 66.204002 68.984001 73.175003 78.026001 82.466003 84.816002 87.596001 92.596001 97.036003 99.816002 102.166 109.946 114.386 118.276 122.166 127.166 129.51601 133.95599 138.95599 143.95599 148.396 150.746 153.526 157.416 159.76601 164.20599 166.556 170.446 173.226 178.226 183.226 186.006 191.56599 196.006 200.446 205.446 208.226 210.576 213.356 221.136 226.136 230.576 235.576 238.356 246.136 250.576 255.576 258.35599 260.85599 263.20599 269.31601 273.75601 276.53601 278.46701 282.35699 284.707 288.59698 292.68799 297.68799 300.03799 302.81799 307.81799 312.258 315.03799 317.388 322.19 327.19 332.19 334.54001 338.98001 343.42001 347.85999 352.29999 357.29999"
             y="0"
             sodipodi:role="line"
             id="tspan110">Let’s say you believe that messy code is a signiﬁcant impediment. Let’s say that you accept</tspan><tspan
             x="0 2.78 7.7800002 12.22 15 17.59 20.370001 25.370001 29.809999 32.400002 37.400002 42.400002 44.931 49.931 52.521 59.492001 63.583 68.583 71.172997 73.953003 78.953003 81.542999 86.542999 91.542999 94.133003 97.560997 102.001 105.891 108.671 111.261 114.041 117.931 120.521 123.301 128.30099 130.89101 135.793 140.233 144.673 149.673 152.263 157.065 162.065 167.065 170.395 172.985 177.425 182.425 187.425 191.86501 194.455 198.895 201.675 206.11501 210.55499 215.55499 218.05499 220.147 226.257 231.257 235.69701 240.69701 243.287 248.089 253.089 258.08899 260.67899 268.45901 273.45901 277.349 280.129 282.71899 287.159 291.04901 296.04901 298.63901 303.44101 308.44101 313.44101 316.771 320.66101 325.10101 327.88101 331.211 333.991 336.58099 341.021 348.241 352.84299"
             y="12"
             sodipodi:role="line"
             id="tspan112">that the only way to go fast is to keep your code clean. Then you must ask yourself: “How</tspan><tspan
             x="0 5 10 13.047 16.377001 19.424 26.643999 29.974001 32.754002 35.534 39.973999 43.021 47.460999 50.241001 54.681 59.120998 64.121002 67.167999 71.608002 76.608002 81.608002 86.047997 90.487999 94.928001 97.974998 101.305 104.085 106.016 109.906 112.953 117.953 122.953 126 131 136 141 146 149.047 151.827 155.355 160.355 163.13499 168.13499 173.13499 176.18201 178.96201 183.96201 187.009 194.229 197.55901 200.339 203.119 207.55901 210.606 215.04601 217.826 222.26601 226.70599 231.70599 234.75301 239.19299 244.19299 249.19299 253.633 256.67999 259.45999 262.79001 265.83701 270.63901 275.63901 280.63901 283.686 288.686 293.686 298.686 301.51801 304.298 307.345 312.345 317.345 321.94699 329.16699 332.21399 339.23599 344.23599 348.67599 351.45599 354.50299 357.28299"
             y="24"
             sodipodi:role="line"
             id="tspan114">do I write clean code?” It’s no good trying to write clean code if you don’t know what it</tspan><tspan
             x="0 7.7800002 12.22 16.66 21.66 25.549999 28.049999 31.379999 36.380001 39.709999 42.209999 46.650002 51.650002 56.650002 61.09 63.59 66.370003 71.370003 73.870003 78.870003 83.309998 85.809998 90.25 93.029999 97.470001 101.91 106.91 110.24"
             y="36"
             sodipodi:role="line"
             id="tspan116">means for code to be clean! </tspan><tspan
             x="18 24.110001 29.110001 33.549999 37.043999 42.043999 46.484001 51.484001 54.978001 59.978001 64.168999 71.389 75.278999 78.773003 81.553001 85.443001 88.936996 91.717003 96.717003 101.157 103.937 107.431 114.651 117.981 120.761 123.541 126.321 131.321 136.321 139.815 144.255 147.035 151.47501 155.91499 160.91499 164.409 168.849 173.849 178.849 183.289 186.783 189.563 193.453 196.94701 201.38699 204.881 207.661 212.661 215.44099 218.935 221.715 224.495 229.397 233.83701 237.33099 242.33099 246.771 249.55099 254.55099 257.33099 260.11099 265.11099 270.11099 273.60501 278.04501 281.539 286.539 289.319 293.759 296.539 301.539 304.86899 309.30899 311.80899 315.30301 324.19299 329.19299 333.08301 335.86301 339.35699 344.35699 347.68701 351.181 356.181"
             y="51"
             sodipodi:role="line"
             id="tspan118">The bad news is that writing clean code is a lot like painting a picture. Most of us</tspan><tspan
             x="0 5 10 14.602 21.822001 24.941999 31.964001 36.964001 41.403999 46.403999 49.523998 53.964001 57.084 62.084 64.863998 69.304001 72.084 77.084 80.414001 84.853996 87.973999 90.753998 94.643997 97.764 102.764 107.204 109.984 114.984 117.764 122.204 127.204 130.32401 137.19501 141.63499 144.41499 147.19501 150.315 155.315 158.645 161.765 166.765 171.205 176.205 178.73599 182.886 185.386 188.506 195.17599 200.17599 202.95599 206.076 211.076 215.51601 218.29601 223.29601 228.29601 231.416 235.856 240.658 243.438 247.87801 250.998 253.778 258.77802 261.89801 265.228 269.668 274.108 278.85901 283.85901 288.85901 291.63901 296.07901 300.51901 303.63901 308.63901 313.63901 318.63901 323.63901 326.759 331.19901 334.72699 337.50699 340.62701 343.957 347.28699 352.28699"
             y="63"
             sodipodi:role="line"
             id="tspan120">know when a picture is painted well or badly. But being able to recognize good art from</tspan><tspan
             x="0 5 9.4399996 14.44 17.334999 22.334999 27.334999 31.775 35.665001 38.560001 43.560001 48.560001 51.34 54.235001 62.014999 66.455002 70.894997 75.894997 78.790001 81.57 86.57 91.010002 93.790001 96.684998 103.556 107.996 110.891 115.891 120.891 125.493 132.713 135.608 140.608 145.21001 152.42999 155.325 158.105 163.105 166 171 175.44 178.22 183.22 186 188.5 191.395 196.955 201.955 204.85001 207.63 212.63 217.63 220.52499 225.52499 229.965 232.745 237.745 242.745 245.64 250.08 254.882 257.66199 262.10199 264.99701 267.77701 272.77701 275.672 279.00201 283.44199 287.88199 292.633 297.633 302.633 305.41299 309.853 314.293 317.18799 321.62799 324.40799 328.84799 333.28799 338.28799 341.18301 345.62299 350.62299 355.62299"
             y="75"
             sodipodi:role="line"
             id="tspan122">bad does not mean that we know how to paint. So too being able to recognize clean code</tspan><tspan
             x="0 3.3299999 6.6599998 11.66 19.440001 21.940001 26.940001 29.719999 33.248001 36.028 41.028 43.528 47.967999 52.967999 57.967999 62.408001 64.907997 69.907997 74.907997 79.348 83.237999 85.737999 90.737999 95.737999 98.517998 101.018 108.798 113.238 117.678 122.678 125.178 127.958 132.95799 137.39799 140.17799 142.67799 149.549 153.989 156.489 161.489 166.489 171.091 178.311 180.811 185.811 190.41299 197.633 200.133 202.91299 207.91299 210.41299 217.633 220.963 223.743 226.52299 230.963 233.463 237.903 240.683 245.123 249.563 254.563 257.06299 261.50299 266.50299 271.50299 275.94299"
             y="87"
             sodipodi:role="line"
             id="tspan124">from dirty code does not mean that we know how to write clean code!</tspan></text>
        <path
           d="m 88.92,114.085 h 144 m -144,0 h 144"
           style="fill:none;stroke:#231f20;stroke-width:0.5;stroke-linecap:square;stroke-linejoin:miter;stroke-miterlimit:10;stroke-dasharray:none;stroke-opacity:1"
           id="path128" />
        <text
           xml:space="preserve"
           transform="matrix(1,0,0,-1,79.92,95.111)"
           style="font-variant:normal;font-weight:normal;font-size:7px;font-family:'Times New Roman';-inkscape-font-specification:TimesNewRomanPS;writing-mode:lr-tb;fill:#231f20;fill-opacity:1;fill-rule:nonzero;stroke:none"
           id="text134"><tspan
             x="0 3.5 12.0057 18.613701 22.113701 25.221701 28.721701 30.471701 33.971699 37.0797 40.5797 44.0797 46.410702 51.2911 54.399101 57.122101 60.622101 62.5681 66.0681 69.5681 71.3181 76.198502 79.306503 82.029503 83.779503 87.671501 90.002502 92.725502 94.671501 96.421501 98.752502 101.8605 104.9685 108.4685 113.9145 119.3605 122.4685 125.9685 129.46851 132.57651 136.07651 137.82651 139.77251 143.27251 145.02251 148.52251 151.81461 155.31461 158.0376 159.9836 163.0916 165.0376 168.1456 171.6456 174.36861 176.11861 179.44501 182.94501 184.69501 187.026 190.526 194.026 197.134 200.242 201.992 205.884 208.992 214.438 219.884 222.992 224.6937 229.5041 232.61211 234.55811 237.2811 239.0311 240.9771 244.4771 246.2271 249.7271 253.2271 256.72711 260.22711 261.97711 263.72711 265.6731 267.61911 269.36911 274.24951 277.35751 280.08051 281.83051 284.1615 287.2695 289.21552 292.32349 295.43149 297.3775 300.4855 303.9855 305.7355 309.2355 312.7355 314.4855 316.43149 319.93149 323.03949 324.78949 328.28949 331.39749 334.12051 336.0665 338.78949 340.53949 342.4855 345.9855 349.09351 351.03949"
             y="0"
             sodipodi:role="line"
             id="tspan130">2.When hand-washing was ﬁrst recommended to physicians by Ignaz Semmelweis in 1847, it was rejected on the basis that </tspan><tspan
             x="12.0001 15.5008 19.001499 22.110201 24.0569 27.5576 29.889299 32.612999 34.362999 39.173401 42.282101 44.6138 47.7225 49.4725 51.419201 54.919899 58.420601 60.170601 63.671299 67.171997 69.895699 73.3964 75.1464 78.255096 81.755798 85.2565 87.0065 91.781898 95.2826 98.783302 100.73 104.2307 107.7314 109.7138 111.6605 113.4105 116.9112 119.7749 123.1713 126.2793 128.0293 129.976 131.9227 137.3694 140.4781 142.2281 144.1748 147.67551 149.42551 154.30589 157.4146 160.13831 163.63901 165.38901 167.33569 170.8364 173.9451 175.8918 178.2235 179.9735 183.4742 186.5829 190.0836 193.5843 196.308 198.058 201.5587 204.6674 206.61411 211.4238 214.5325 217.6412 221.14191 222.89191 226.39259 229.5013 231.448 233.3947 236.5034 240.0041 241.95081 243.70081 247.20151 249.14819 251.8719 253.8186 255.7653 258.48901"
             y="8.0003004"
             sodipodi:role="line"
             id="tspan132">doctors were too busy and wouldn’t have time to wash their hands between patient visits.</tspan></text>
        <g
           id="g136">
          <g
             id="g138"
             clip-path="url(#clipPath142)">
            <path
               d="m -37.08,664.778 h 36 m -36,-666 h 36 m 522,0 h 36 m -36,666 h 36 m -549,45 v -36 m 504,36 v -36 m 0,-684 v -36 m -504,36 v -36"
               style="fill:none;stroke:#ffffff;stroke-width:0.75;stroke-linecap:butt;stroke-linejoin:miter;stroke-miterlimit:10;stroke-dasharray:none;stroke-opacity:1"
               id="path144" />
            <path
               d="m -37.08,664.778 h 36 m -36,-666 h 36 m 522,0 h 36 m -36,666 h 36 m -549,45 v -36 m 504,36 v -36 m 0,-684 v -36 m -504,36 v -36 m -12,378 c 0,3.312 -2.688,6 -6,6 -3.312,0 -6,-2.688 -6,-6 0,-3.312 2.688,-6 6,-6 3.312,0 6,2.688 6,6 z m -24,0 h 27 m -9,24 v -48 m 545.94,24 c 0,3.312 -2.688,6 -6,6 -3.312,0 -6,-2.688 -6,-6 0,-3.312 2.688,-6 6,-6 3.312,0 6,2.688 6,6 z m -14.94,0 h 27 m -18,24 v -48 m -534,345 c 0,3.312 -2.688,6 -6,6 -3.312,0 -6,-2.688 -6,-6 0,-3.312 2.688,-6 6,-6 3.312,0 6,2.688 6,6 z m -24,0 h 27 m -9,9 v -33 m 6,-618 c 0,3.312 -2.688,6 -6,6 -3.312,0 -6,-2.688 -6,-6 0,-3.312 2.688,-6 6,-6 3.312,0 6,2.688 6,6 z m -24,0 h 27 m -9,24 v -33 m 545.94,651 c 0,3.312 -2.688,6 -6,6 -3.312,0 -6,-2.688 -6,-6 0,-3.312 2.688,-6 6,-6 3.312,0 6,2.688 6,6 z m -14.94,0 h 27 m -18,9 v -33 m 5.94,-618 c 0,3.312 -2.688,6 -6,6 -3.312,0 -6,-2.688 -6,-6 0,-3.312 2.688,-6 6,-6 3.312,0 6,2.688 6,6 z m -14.94,0 h 27 m -18,24 v -33"
               style="fill:none;stroke:#000000;stroke-width:0.25;stroke-linecap:butt;stroke-linejoin:miter;stroke-miterlimit:10;stroke-dasharray:none;stroke-opacity:1"
               id="path146" />
          </g>
        </g>
      </g>
    </g>
    <g
       id="g148">
      <g
         id="g150"
         transform="translate(218,6.56)">
        <text
           xml:space="preserve"
           transform="scale(1,-1)"
           style="font-variant:normal;font-weight:normal;font-size:10px;font-family:Helvetica;-inkscape-font-specification:Helvetica;writing-mode:lr-tb;fill:#0000ff;fill-opacity:1;fill-rule:nonzero;stroke:none"
           id="text154"><tspan
             x="0 7.2199998 14.44 21.66 24.440001 26.66 29.440001 32.77 38.330002 43.889999 49.450001 55.009998 60.009998 65.010002 67.790001 70.010002 75.57 78.349998"
             y="0"
             sodipodi:role="line"
             id="tspan152">www.it-ebooks.info</tspan></text>
        <g
           id="g156"
           transform="translate(-218,-6.56)" />
      </g>
    </g>
  </g>
</svg>
