<?xml version="1.0" encoding="UTF-8" standalone="no"?>
<!-- Created with Inkscape (http://www.inkscape.org/) -->

<svg
   version="1.1"
   id="svg2"
   width="690.14398"
   height="888.47998"
   viewBox="0 0 690.14398 888.47998"
   sodipodi:docname="4PmrqTPDrJV6cyWn.pdf"
   xmlns:inkscape="http://www.inkscape.org/namespaces/inkscape"
   xmlns:sodipodi="http://sodipodi.sourceforge.net/DTD/sodipodi-0.dtd"
   xmlns="http://www.w3.org/2000/svg"
   xmlns:svg="http://www.w3.org/2000/svg">
  <defs
     id="defs6">
    <clipPath
       clipPathUnits="userSpaceOnUse"
       id="clipPath160">
      <path
         d="M 0,665.858 H 519.84 V 0 H 0 Z"
         id="path158" />
    </clipPath>
  </defs>
  <sodipodi:namedview
     id="namedview4"
     pagecolor="#ffffff"
     bordercolor="#000000"
     borderopacity="0.25"
     inkscape:showpageshadow="2"
     inkscape:pageopacity="0.0"
     inkscape:pagecheckerboard="0"
     inkscape:deskcolor="#d1d1d1" />
  <g
     id="g8"
     inkscape:groupmode="layer"
     inkscape:label="4PmrqTPDrJV6cyWn"
     transform="matrix(1.3333333,0,0,-1.3333333,-1.46,887.61333)">
    <g
       id="g10">
      <g
         id="g12">
        <text
           xml:space="preserve"
           transform="matrix(1,0,0,-1,79.92,622.111)"
           style="font-variant:normal;font-weight:normal;font-size:10px;font-family:'Times New Roman';-inkscape-font-specification:TimesNewRomanPS;writing-mode:lr-tb;fill:#231f20;fill-opacity:1;fill-rule:nonzero;stroke:none"
           id="text16"><tspan
             x="0 5"
             y="0"
             sodipodi:role="line"
             id="tspan14">14</tspan></text>
        <text
           xml:space="preserve"
           transform="matrix(1,0,0,-1,341.338,622.111)"
           style="font-variant:normal;font-weight:bold;font-size:10px;font-family:'Times New Roman';-inkscape-font-specification:TimesNewRomanPS-Bold;writing-mode:lr-tb;fill:#231f20;fill-opacity:1;fill-rule:nonzero;stroke:none"
           id="text20"><tspan
             x="0 7.2199998 12.78 17.780001 23.34 26.67 31.110001 35.549999 38.148998 43.148998 46.181 48.779999 56 58.779999 63.220001 68.220001 73.779999 76.378998 83.598999 88.598999 94.158997"
             y="0"
             sodipodi:role="line"
             id="tspan18">Chapter 1: Clean Code</tspan></text>
        <text
           xml:space="preserve"
           transform="matrix(1,0,0,-1,97.92,586.7781)"
           style="font-style:italic;font-variant:normal;font-size:9px;font-family:'Times New Roman';-inkscape-font-specification:TimesNewRomanPS-Italic;writing-mode:lr-tb;fill:#231f20;fill-opacity:1;fill-rule:nonzero;stroke:none"
           id="text42"><tspan
             x="0 6.4980001 10.998 15.498 19.997999 23.499001 25.749001 27.999001 32.499001 36.494999 38.322899 41.823898 44.073898 48.069901 51.166801 55.666801 59.167801 61.6698 66.1698 70.6698 72.9198 78.744598 83.244598 87.744598 90.246597 92.496597 96.996597 100.9926 103.2426 105.7446 109.7406 114.2406 118.2366 122.7366"
             y="0"
             sodipodi:role="line"
             id="tspan22">Ooops, he’s erasing what he typed!</tspan><tspan
             x="0 6.4980001 10.494 12.744 15.246 19.242001 23.742001 27.738001 31.239 33.488998 35.991001 38.493 40.743 45.0648 49.430698 53.930698 56.432701 60.932701"
             y="10.9998"
             sodipodi:role="line"
             id="tspan24">He types it again.</tspan><tspan
             x="0 6.4980001 10.494 12.744 16.74 19.836901 24.336901 27.8379 31.8339 35.3349 37.5849 40.086899 42.588902 44.838902 49.160702 53.5266 58.0266 60.528599 65.028603"
             y="21.999599"
             sodipodi:role="line"
             id="tspan26">He erases it again!</tspan><tspan
             x="0 6.4970999 10.4922 12.7422 15.2433 19.2384 23.737499 27.732599 31.2327 33.4827 37.9818 42.4809 44.981998 47.483101 49.733101 54.232201 56.733299 58.983299 62.483398 66.982498 73.479599 77.474701 79.9758 84.474899 86.975998 91.475098 95.974197 98.224197 102.2193 104.7204 108.2205 112.2156 114.4656 118.9647 123.4638 125.9649 128.2149 130.716 135.2151 139.21021 143.7093 145.9593 149.95441 153.0513 157.5504 161.05051 165.04559 168.5457 170.7957 173.2968 177.7959 182.295 184.7961"
             y="32.998501"
             sodipodi:role="line"
             id="tspan28">He types half of something else but then erases that!</tspan><tspan
             x="0 6.4980001 10.494 13.2228 16.723801 20.719801 23.8167 28.3167 30.818701 33.320702 36.821701 39.550499 44.050499 48.372299 54.375301 58.875301 61.604099 64.106102 68.606102 71.3349 75.8349 80.3349 84.8349 87.336899 91.836899 95.832901 99.3339 102.0627 104.5647 109.0647 113.5647 117.5607 120.0627 122.5647 127.0647 131.5647 134.2935 136.7955 141.2955 145.7955 148.2975 151.02631 155.02229 159.52229 162.02431 164.52631 168.0273 170.7561 173.2581 177.7581 181.7541 184.48289 186.98489 191.48489 195.98489 199.9809 202.48289 204.98489 209.48489 213.98489 216.7137 221.2137 225.2097 227.0376 230.5386 233.2674 237.1293 241.6293 246.1293 250.6293 255.1293 257.63129 262.13129 266.63129 269.36011 271.86209 276.36209 279.09091 282.59189 286.58789 290.58389 293.31271 297.81271 302.13449 308.13751 310.8663 313.36829 315.8703 318.59909 321.1011"
             y="43.997398"
             sodipodi:role="line"
             id="tspan30">He scrolls down to another function that calls the function he’s changing to see how it is</tspan><tspan
             x="0 3.9960001 8.4960003 10.998 13.5 17.496 21.996"
             y="54.9963"
             sodipodi:role="line"
             id="tspan32">called.</tspan><tspan
             x="0 6.4980001 10.494 12.744 16.245001 20.240999 23.3379 27.8379 30.339899 32.8419 36.342899 38.592899 43.092899 47.592899 51.410702 55.4067 57.6567 62.1567 66.6567 68.9067 73.4067 77.9067 82.4067 84.6567 87.158699 91.154701 95.654701 99.650703 103.1517 105.4017 107.9037 112.4037 116.3997 118.6497 122.1507 126.6507 133.1487 137.1447 139.3947 143.3907 147.8907 152.3907 156.3867 158.6367 163.1367 167.13271 169.38271 171.8847 176.3847 179.8857 182.3877 184.6377 188.6337 191.73061 196.23061 199.7316 203.7276 208.2276"
             y="65.996101"
             sodipodi:role="line"
             id="tspan34">He scrolls back up and types the same code he just erased.</tspan><tspan
             x="0 6.4980001 10.494 12.744 17.243999 21.743999 26.243999 29.745001 33.741001 37.242001"
             y="76.995903"
             sodipodi:role="line"
             id="tspan36">He pauses.</tspan><tspan
             x="0 6.4980001 10.494 12.744 16.74 19.836901 24.336901 27.8379 31.8339 35.3349 37.5849 40.086899 44.586899 49.086899 51.588902 53.838902 57.8349 62.3349 66.8349 70.830902 73.080902 77.402702 81.7686 86.2686 88.770599 93.270599"
             y="87.995697"
             sodipodi:role="line"
             id="tspan38">He erases that code again!</tspan><tspan
             x="0 6.4980001 10.494 12.744 17.243999 21.743999 26.243999 29.745001 31.995001 36.494999 40.994999 43.244999 47.744999 52.244999 56.744999 59.247002 63.747002 67.742996 71.244003 73.494003 79.497002 81.999001 86.499001 90.999001 95.320801 101.3238 103.5738 108.0738 112.5738 117.0738 119.3238 121.8258 126.3258 130.82581 134.82179 138.3228 140.5728 145.0728 147.5748 149.8248 154.3248 156.5748 160.07581 164.57581 169.07581 172.8936 175.3956 179.8956 183.39661 186.8976 189.1476 191.3976 194.39461 197.8956 200.1456 202.6476 207.1476 211.6476 214.1496 216.3996 218.9016 223.4016 227.9016 231.8976 234.3996 236.9016 241.4016 245.9016 248.1516 252.38341 256.37939 260.3754 263.8764 267.37741 269.87939 274.37939 278.87939 282.8754 287.3754"
             y="98.994598"
             sodipodi:role="line"
             id="tspan40">He pops up another window and looks at a subclass. Is that function overridden?</tspan></text>
        <text
           xml:space="preserve"
           transform="matrix(1,0,0,-1,97.92,467.1111)"
           style="font-variant:normal;font-weight:normal;font-size:10px;font-family:'Times New Roman';-inkscape-font-specification:TimesNewRomanPS;writing-mode:lr-tb;fill:#231f20;fill-opacity:1;fill-rule:nonzero;stroke:none"
           id="text50"><tspan
             x="0 2.5 5 7.5 10"
             y="0"
             sodipodi:role="line"
             id="tspan44">. . .</tspan><tspan
             x="0 5.6209998 10.621 15.621 18.379999 23.379999 27.82 30.6 33.359001 36.139 41.139 45.578999 48.338001 53.338001 56.667999 59.448002 62.778 65.557999 68.057999 70.817001 74.147003 79.147003 84.147003 88.586998 93.027 97.429001 99.929001 102.688 105.468 110.468 114.908 117.667 120.997 125.437 128.217 130.99699 135.99699 138.756 143.756 147.086 149.845 152.625 155.405 163.185 167.625 170.384 174.274 179.274 183.714 188.714 191.494 194.25301 197.58299 202.02299 206.463 211.463 214.243 219.243 224.243 227.002 232.002 235.892 238.392 241.151 248.371 251.701 254.481 257.26099 260.04099 265.04099 270.04099 272.79999 275.57999 279.47 282.229 289.10001 293.54001 296.32001 299.10001 301.85901 306.41 311.26099 315.70099 319.03101 321.79001 326.79001 331.79001 334.57001 339.57001"
             y="15"
             sodipodi:role="line"
             id="tspan46">You get the drift. Indeed, the ratio of time spent reading vs. writing is well over 10:1.</tspan><tspan
             x="-18 -9.5600004 -5.1199999 -2.6199999 1.8200001 5.1500001 9.5900002"
             y="27"
             sodipodi:role="line"
             id="tspan48">We are </tspan></text>
        <text
           xml:space="preserve"
           transform="matrix(1,0,0,-1,110.003,440.1111)"
           style="font-style:italic;font-variant:normal;font-size:10px;font-family:'Times New Roman';-inkscape-font-specification:TimesNewRomanPS-Italic;writing-mode:lr-tb;fill:#231f20;fill-opacity:1;fill-rule:nonzero;stroke:none"
           id="text54"><tspan
             x="0 4.4400001 9.4399996 14.44 18.33 21.110001 26.110001 31.110001 33.889999 36.571999"
             y="0"
             sodipodi:role="line"
             id="tspan52">constantly</tspan></text>
        <text
           xml:space="preserve"
           transform="matrix(1,0,0,-1,153.506,440.1111)"
           style="font-variant:normal;font-weight:normal;font-size:10px;font-family:'Times New Roman';-inkscape-font-specification:TimesNewRomanPS;writing-mode:lr-tb;fill:#231f20;fill-opacity:1;fill-rule:nonzero;stroke:none"
           id="text62"><tspan
             x="0 3.3299999 7.77 12.21 17.209999 19.99 24.99 29.99 32.490002 37.490002 40.27 45.27 47.77 52.209999 57.209999 62.209999 66.650002 69.150002 73.589996 77.480003 79.980003 84.980003 89.419998 92.947998 95.727997 98.227997 103.228 106.558 109.058 111.838 116.838 121.278 123.778 128.218 131.299 134.629 139.629 143.157 145.937 148.437 151.217 156.217 158.717 165.937 169.267 172.047 174.827 179.267 181.767 186.767 190.95799 198.17799 200.67799 205.118 210.118 215.118 219.558"
             y="0"
             sodipodi:role="line"
             id="tspan56">reading old code as part of the effort to write new code.</tspan><tspan
             x="-55.585999 -48.916 -44.476002 -40.035999 -35.596001 -30.596001 -26.705999 -22.266001 -19.601 -16.820999 -11.821 -9.0410004 -5.151 -2.4860001 0.84399998 5.2839999 8.0640001 10.844 15.844 18.509001 21.289 25.179001 27.844 31.733999 36.734001 39.398998 44.398998 47.179001 52.179001 57.179001 59.679001 62.344002 69.214996 73.654999 76.32 83.291 87.731003 92.731003 95.511002 98.176003 100.956 105.956 110.396 113.061 116.391 120.831 125.271 130.271 133.05099 138.05099 143.05099 145.716 150.716 154.04601 156.711 161.151 166.151 171.151 175.591 178.256 181.036 186.036 188.701 193.701 198.14101 200.806 205.246 209.686 213.576 217.726 220.226 222.89101 227.082 231.933 236.373 241.373 244.03799 246.81799 250.14799 252.813 255.593 258.37299 261.03799 268.81799 273.258 278.16 282.60001"
             y="15"
             sodipodi:role="line"
             id="tspan58">Because this ratio is so high, we want the reading of code to be easy, even if it makes</tspan><tspan
             x="-73.585999 -70.806 -65.806 -61.366001 -58.662998 -51.443001 -48.112999 -45.333 -42.553001 -39.772999 -34.772999 -29.773001 -27.07 -22.07 -17.629999 -14.3 -9.3000002 -4.8600001 -2.079 0.421 3.1240001 10.344 13.674 16.377001 20.816999 25.816999 30.816999 34.146999 38.036999 42.477001 45.18 47.959999 52.959999 57.400002 60.73 65.169998 67.100998 70.990997 73.694 78.694 83.694 86.397003 93.367996 97.459 102.459 105.162 107.942 112.942 115.645 122.865 126.195 128.97501 131.755 136.19501 138.89799 143.338 148.338 153.338 157.778 160.481 167.701 170.481 173.261 178.261 183.261 188.261 191.041 193.744 197.07401 201.51401 205.95399 210.95399 213.73399 218.73399 223.73399 226.437 229.217 231.99699 234.49699 237.2 241.09 246.09"
             y="27"
             sodipodi:role="line"
             id="tspan60">the writing harder. Of course there’s no way to write code without reading it, so </tspan></text>
        <text
           xml:space="preserve"
           transform="matrix(1,0,0,-1,402.225,413.1111)"
           style="font-style:italic;font-variant:normal;font-size:10px;font-family:'Times New Roman';-inkscape-font-specification:TimesNewRomanPS-Italic;writing-mode:lr-tb;fill:#231f20;fill-opacity:1;fill-rule:nonzero;stroke:none"
           id="text68"><tspan
             x="0 7.2199998 12.22 16.66 19.440001 24.440001 29.440001 32.143002 34.923"
             y="0"
             sodipodi:role="line"
             id="tspan64">making it</tspan><tspan
             x="-322.30499 -317.86499 -312.86499 -308.97501 -304.535 -302.035 -299.255 -294.255 -291.755 -288.23401 -283.79401 -278.79401 -273.79401 -271.29401 -266.29401 -261.854 -259.07401 -254.07401 -249.07401 -246.29401 -243.612 -239.172 -236.672 -229.452 -224.452 -220.01199 -215.57201 -211.68201 -209.18201 -206.40199 -203.62199 -201.12199 -196.68201 -191.68201 -187.79201 -185.01199 -180.57201 -176.68201 -174.18201 -171.40199 -166.40199 -163.90199 -157.23199 -153.342 -150.562 -147.782"
             y="12"
             sodipodi:role="line"
             id="tspan66">easy to read actually makes it easier to write</tspan></text>
        <text
           xml:space="preserve"
           transform="matrix(1,0,0,-1,258.846,401.1111)"
           style="font-variant:normal;font-weight:normal;font-size:10px;font-family:'Times New Roman';-inkscape-font-specification:TimesNewRomanPS;writing-mode:lr-tb;fill:#231f20;fill-opacity:1;fill-rule:nonzero;stroke:none"
           id="text82"><tspan
             x="0"
             y="0"
             id="tspan70">.</tspan><tspan
             x="-160.92599 -154.81599 -149.81599 -145.37601 -142.04601 -137.606 -134.72301 -131.94299 -128.05299 -125.17 -120.17 -115.17 -112.287 -107.847 -103.957 -99.516998 -95.077003 -90.077003 -85.637001 -82.753998 -79.424004 -76.094002 -71.094002 -63.313999 -60.431 -57.651001 -52.651001 -49.870998 -45.980999 -43.098 -40.318001 -35.567001 -30.566999 -27.787001 -23.347 -20.847 -18.862 -13.241 -8.2410002 -3.2409999 -0.35800001 4.0819998 8.5220003 13.522 18.521999 23.521999 26.302 29.184999 36.404999 39.735001 42.514999 45.294998 49.735001 52.618 57.057999 62.057999 67.057999 71.498001 74.380997 77.161003 80.490997 83.374001 88.176003 93.176003 98.176003 101.059 105.499 109.939 114.939 119.939 124.939 127.719 130.60201 133.93201 138.37199 142.812 147.812 150.69501 153.47501 158.47501 162.91499 165.798 169.688 174.688 177.82001"
             y="15"
             sodipodi:role="line"
             id="tspan72">There is no escape from this logic. You cannot write code if you cannot read the sur-</tspan><tspan
             x="-178.92599 -175.59599 -170.59599 -165.59599 -160.59599 -155.59599 -152.81599 -147.81599 -142.81599 -138.43201 -133.992 -128.992 -123.992 -119.552 -117.052 -113.166 -107.056 -102.056 -97.615997 -93.232002 -88.792 -83.792 -78.792 -74.351997 -69.968002 -65.166 -60.166 -55.166 -50.782001 -46.341999 -43.012001 -38.571999 -34.188 -31.408001 -27.879999 -22.879999 -20.1 -15.1 -10.1 -5.7160001 -2.9360001 2.0639999 6.448 13.668 16.997999 19.778 22.558001 26.997999 31.382 34.161999 39.161999 44.161999 48.252998 53.252998 57.637001 64.857002 67.637001 70.417 73.196999 77.581001 82.581001 87.021004 91.404999 96.404999 100.845 104.175 109.175 113.559 118.559 121.889 126.273 130.713 135.153 139.043 144.043 148.427 151.207 156.207 160.591 167.811 171.14101 173.92101 176.701"
             y="27"
             sodipodi:role="line"
             id="tspan74">rounding code. The code you are trying to write today will be hard or easy to write</tspan><tspan
             x="-178.92599 -173.92599 -169.48599 -164.48599 -160.04601 -155.04601 -150.04601 -147.26601 -142.26601 -137.26601 -134.58099 -129.58099 -124.581 -121.896 -116.896 -112.294 -105.074 -102.389 -97.389 -92.948997 -89.619003 -84.619003 -81.933998 -76.933998 -73.603996 -70.918999 -66.478996 -62.039001 -58.148998 -53.148998 -50.464001 -47.683998 -42.683998 -38.243999 -35.558998 -31.669001 -26.669001 -23.041 -19.711 -14.711 -9.7110004 -4.711 0.289 3.069 8.0690002 13.069 15.754 20.194 25.194 30.194 34.633999 37.319 40.098999 43.988998 46.674 49.453999 54.453999 57.139 60.469002 64.908997 69.348999 74.348999 76.848999 79.533997 85.094002 90.094002 92.778999 95.558998 98.889 101.574 106.376 111.376 116.376 119.061 126.032 130.472 135.472 138.252 140.937 143.717 148.717 151.40199 156.40199 161.40199 164.08701 167.515 171.955 175.845 178.625"
             y="39"
             sodipodi:role="line"
             id="tspan76">depending on how hard or easy the surrounding code is to read. So if you want to go fast,</tspan><tspan
             x="-178.92599 -176.146 -172.81599 -170.14 -165.338 -160.338 -155.338 -152.662 -145.69099 -141.25101 -136.25101 -133.47099 -130.795 -128.015 -123.015 -120.339 -115.339 -110.899 -108.119 -105.443 -100.443 -95.443001 -90.443001 -86.002998 -83.327003 -78.327003 -73.327003 -70.546997 -66.107002 -61.106998 -58.576 -54.425999 -51.925999 -49.25 -46.470001 -43.139999 -40.464001 -35.661999 -30.662001 -25.662001 -22.986 -16.014999 -11.575 -6.5749998 -3.7950001 -1.119 3.6830001 8.6829996 13.683 17.013 19.688999 24.129 29.129 34.129002 38.569 41.244999 44.025002 49.025002 51.701 56.701 61.140999 63.817001 68.257004 72.696999 76.586998 81.586998 84.263 87.042999 92.042999 94.719002 101.939 105.269 108.049 110.829 115.269 117.769 120.445 128.22501 132.66499 137.567 142.007 144.683 147.463 150.243 152.91901 157.35899 161.799 165.689 170.689 173.36501 176.145"
             y="51"
             sodipodi:role="line"
             id="tspan78">if you want to get done quickly, if you want your code to be easy to write, make it easy to</tspan><tspan
             x="-178.92599 -175.59599 -171.15601 -166.716 -161.716"
             y="63"
             sodipodi:role="line"
             id="tspan80">read.</tspan></text>
        <text
           xml:space="preserve"
           transform="matrix(1,0,0,-1,79.919,305.445)"
           style="font-variant:normal;font-weight:bold;font-size:14px;font-family:'Times New Roman';-inkscape-font-specification:TimesNewRomanPS-Bold;writing-mode:lr-tb;fill:#231f20;fill-opacity:1;fill-rule:nonzero;stroke:none"
           id="text86"><tspan
             x="0 9.3380003 17.122 23.337999 26.837999 36.175999 42.618801 49.618801 53.118801 60.902802 67.118797 74.118797 81.902802 86.564796 90.064796 100.1728 107.9568 111.8488"
             y="0"
             sodipodi:role="line"
             id="tspan84">The Boy Scout Rule</tspan></text>
        <text
           xml:space="preserve"
           transform="matrix(1,0,0,-1,79.92,282.1121)"
           style="font-variant:normal;font-weight:normal;font-size:10px;font-family:'Times New Roman';-inkscape-font-specification:TimesNewRomanPS;writing-mode:lr-tb;fill:#231f20;fill-opacity:1;fill-rule:nonzero;stroke:none"
           id="text90"><tspan
             x="0 3.3299999 6.1100001 8.0410004 11.931 14.84 19.84 24.84 27.620001 30.528999 34.969002 39.969002 44.969002 49.969002 54.969002 59.969002 62.877998 65.657997 70.657997 73.567001 80.787003 84.116997 86.897003 89.677002 94.116997 97.026001 99.806 104.806 109.246 112.155 116.595 121.595 126.595 131.035 133.944 140.815 145.255 148.035 150.815 153.315 155.726 161.836 166.836 171.276 174.185 178.625 183.625 188.625 193.065 195.974 200.974 205.414 209.304 212.213 214.993 219.993 222.90199 227.90199 232.342"
             y="0"
             sodipodi:role="line"
             id="tspan88">It’s not enough to write the code well. The code has to be </tspan></text>
        <text
           xml:space="preserve"
           transform="matrix(1,0,0,-1,315.126,282.1121)"
           style="font-style:italic;font-variant:normal;font-size:10px;font-family:'Times New Roman';-inkscape-font-specification:TimesNewRomanPS-Italic;writing-mode:lr-tb;fill:#231f20;fill-opacity:1;fill-rule:nonzero;stroke:none"
           id="text94"><tspan
             x="0 4.4400001 8.8800001 13.88 16.66 19.569 23.811001 26.591 31.031 36.030998"
             y="0"
             sodipodi:role="line"
             id="tspan92">kept clean</tspan></text>
        <text
           xml:space="preserve"
           transform="matrix(1,0,0,-1,359.057,282.1121)"
           style="font-variant:normal;font-weight:normal;font-size:10px;font-family:'Times New Roman';-inkscape-font-specification:TimesNewRomanPS;writing-mode:lr-tb;fill:#231f20;fill-opacity:1;fill-rule:nonzero;stroke:none"
           id="text104"><tspan
             x="0 4.5510001 9.401 13.841 17.171 20.08 22.860001 25.639999 33.419998 37.860001 40.360001 42.971001 51.410999 55.851002 58.682999 63.534 67.973999 70.883003 75.322998 78.102997"
             y="0"
             sodipodi:role="line"
             id="tspan96">over time. We’ve all</tspan><tspan
             x="-279.13699 -275.24701 -270.80701 -266.367 -261.367 -258.952 -254.51199 -249.51199 -244.51199 -240.07201 -237.657 -234.327 -229.327 -226.547 -224.132 -219.692 -214.692 -209.692 -207.27699 -202.27699 -197.98599 -192.78799 -189.45799 -185.01801 -180.01801 -175.578 -173.16299 -168.72301 -164.83299 -162.418 -159.638 -156.858 -149.078 -144.638 -142.22301 -137.22301 -132.783 -128.89301 -125.003 -120.563 -116.673 -114.173 -111.758 -106.198 -101.198 -98.782997 -91.912003 -87.472 -85.056999 -77.277 -72.277 -68.387001 -65.607002 -63.192001 -60.411999 -55.972 -51.07 -46.630001 -44.215 -39.775002 -34.775002 -32.360001 -27.92 -23.48 -20.700001 -18.169001 -13.318 -8.8780003 -6.4629998 -3.1329999 1.867 4.6469998 9.0869999 11.502 14.282 19.282 21.697001 26.697001 30.027 34.217999 39.069 43.508999 48.508999 51.289001 54.069 59.069 64.069 66.484001 69.264 74.264 77.043999"
             y="12"
             sodipodi:role="line"
             id="tspan98">seen code rot and degrade as time passes. So we must take an active role in preventing this</tspan><tspan
             x="-279.13699 -274.13699 -269.84601 -264.64801 -261.31799 -256.87799 -251.87801 -247.438 -244.658 -241.87801 -236.87801 -231.87801"
             y="24"
             sodipodi:role="line"
             id="tspan100">degradation.</tspan><tspan
             x="-261.13699 -255.02699 -250.02699 -245.58701 -243.08701 -236.41701 -231.866 -226.866 -224.366 -218.806 -214.366 -209.366 -204.366 -201.586 -197.696 -195.196 -190.196 -186.866 -184.91499 -177.69501 -169.91499 -165.47501 -162.145 -159.36501 -154.925 -150.485 -147.985 -142.985 -138.894 -134.043 -129.603 -127.103 -122.663 -120.163 -116.273 -113.493 -105.713 -100.713 -97.932999 -93.492996 -90.992996 -87.464996 -82.464996 -79.684998 -75.245003 -72.745003 -69.964996 -64.964996 -60.525002 -57.744999 -55.244999 -48.374001 -43.933998 -41.433998 -36.993999 -32.554001 -27.554001 -25.054001 -20.614 -15.614 -10.614 -8.0830002 -3.0829999 -0.583 2.197 7.197 9.6969995 14.697 19.697001 23.027 25.527 30.527 33.856998 38.856998 42.187 46.626999 50.516998 54.407001 57.187 62.187 67.186996 69.686996"
             y="39"
             sodipodi:role="line"
             id="tspan102">The Boy Scouts of America have a simple rule that we can apply to our profession. </tspan></text>
        <text
           xml:space="preserve"
           transform="matrix(1,0,0,-1,97.92,222.778)"
           style="font-style:italic;font-variant:normal;font-size:9px;font-family:'Times New Roman';-inkscape-font-specification:TimesNewRomanPS-Italic;writing-mode:lr-tb;fill:#231f20;fill-opacity:1;fill-rule:nonzero;stroke:none"
           id="text108"><tspan
             x="0 5.0040002 9 13.5 17.496 21.492001 23.742001 26.243999 30.743999 34.740002 36.990002 40.986 45.486 51.984001 56.484001 60.984001 64.080902 68.580902 73.080902 77.580902 82.080902 84.330902 88.148697 90.650703 94.646698 99.146698 103.6467 107.6427 111.1437 113.3937 115.8957 120.3957 124.8957 129.39571 131.64571 135.64169 140.14169 144.64169 146.89169 149.2155 153.7155 158.2155 162.7155 167.2155 169.4655 171.9675 174.4695"
             y="0"
             sodipodi:role="line"
             id="tspan106">Leave the campground cleaner than you found it.</tspan></text>
        <text
           xml:space="preserve"
           transform="matrix(1,0,0,-1,274.307,226.378)"
           style="font-style:italic;font-variant:normal;font-size:4.95px;font-family:'Times New Roman';-inkscape-font-specification:TimesNewRomanPS-Italic;writing-mode:lr-tb;fill:#231f20;fill-opacity:1;fill-rule:nonzero;stroke:none"
           id="text112"><tspan
             x="0"
             y="0"
             id="tspan110">5</tspan></text>
        <text
           xml:space="preserve"
           transform="matrix(1,0,0,-1,97.92,202.112)"
           style="font-variant:normal;font-weight:normal;font-size:10px;font-family:'Times New Roman';-inkscape-font-specification:TimesNewRomanPS;writing-mode:lr-tb;fill:#231f20;fill-opacity:1;fill-rule:nonzero;stroke:none"
           id="text122"><tspan
             x="0 3.3299999 6.6599998 9.9020004 16.773001 21.212999 24.455 28.895 31.674999 34.455002 37.696999 42.137001 47.137001 51.577 56.016998 60.918999 65.359001 70.359001 73.689003 76.469002 81.469002 84.710999 89.710999 94.710999 98.041 101.283 105.723 110.723 115.723 120.163 123.405 127.845 131.08701 133.867 136.647 139.427 142.207 144.987 149.427 152.66901 157.10899 159.88901 164.32899 168.769 173.769 178.209 181.539 184.78101 187.561 192.561 197.00101 202.00101 205.243 212.265 217.265 221.705 226.705 229.94701 236.81799 241.258 244.5 248.94 253.94 258.38 262.82001 267.72198 272.16199 277.16199 280.40399 283.18399 285.96399 289.20599 294.20599 299.20599 301.98599 304.48599 307.728 310.508 315.508 319.948 323.19 327.63 332.63 337.63"
             y="0"
             sodipodi:role="line"
             id="tspan114">If we all checked-in our code a little cleaner than when we checked it out, the code</tspan><tspan
             x="-18 -14.11 -11.33 -3.55 1.45 3.9809999 8.9809999 11.843 16.283001 21.283001 26.283001 29.063 34.063 36.924999 41.924999 46.924999 49.705002 52.567001 55.896999 60.896999 63.676998 66.177002 68.541 74.651001 79.651001 84.091003 86.953003 91.392998 94.172997 98.612999 103.053 108.053 113.053 118.053 120.915 125.915 130.91499 135.355 139.245 144.245 147.077 149.85699 152.71899 157.71899 161.81 166.661 171.101 173.963 176.743 181.743 184.605 189.605 194.045 196.907 200.797 205.797 213.577 218.017 220.797 225.797 228.577 233.577 238.577 241.439 246.439 249.21899 254.21899 256.71899 259.58099 266.25101 271.25101 275.69101 280.69101 285.69101 290.13101 292.99301 297.99301 302.99301 307.43301 310.29501 315.04599 319.48599 322.81601 325.59601 330.03601 334.83801 337.61801"
             y="12"
             sodipodi:role="line"
             id="tspan116">simply could not rot. The cleanup doesn’t have to be something big. Change one variable</tspan><tspan
             x="-18 -13 -8.5600004 -0.77999997 3.6600001 5.9419999 9.2720003 14.272 17.601999 19.884001 22.664 27.664 32.104 34.386002 39.386002 43.826 46.605999 49.386002 53.826 56.757999 59.257999 61.540001 66.540001 69.870003 74.309998 78.75 83.75 86.031998 91.031998 96.031998 98.314003 103.314 108.314 112.754 115.036 118.366 123.366 128.366 132.806 135.586 138.366 143.366 148.366 150.64799 153.42799 158.42799 162.868 165.64799 167.57899 171.46899 173.75101 178.19099 180.47301 183.25301 186.033 188.813 191.593 194.373 198.813 201.095 203.875 208.875 213.875 216.157 218.937 223.377 226.52901 231.52901 235.96899 238.46899 240.75101 245.19099 247.97099 250.75101 258.53101 261.311 266.311 270.75101 273.53101 277.97101 280.25299 285.25299 290.25299 294.69299 296.97501 300.86499 308.64499 313.08499 315.86499 318.64499 320.927 325.927 328.707 331.487 333.76901 338.76901"
             y="24"
             sodipodi:role="line"
             id="tspan118">name for the better, break up one function that’s a little too large, eliminate one small bit of</tspan><tspan
             x="-18 -13 -8 -3 -0.22 2.5599999 7 11.44 14.22 17 22 27 29.5 32 36.439999 39.220001 43.66 48.099998 53.099998 55.599998 60.599998 65.599998 68.099998 73.099998 78.099998 82.540001 85.040001 89.480003 94.480003 102.26 107.26 112.26 116.15 118.93 121.71 126.15"
             y="36"
             sodipodi:role="line"
             id="tspan120">duplication, clean up one composite </tspan></text>
        <text
           xml:space="preserve"
           transform="matrix(0.80015552,0,0,-1,226.544,166.112)"
           style="font-variant:normal;font-weight:normal;font-size:9.002px;font-family:'Courier New';-inkscape-font-specification:Courier;writing-mode:lr-tb;fill:#231f20;fill-opacity:1;fill-rule:nonzero;stroke:none"
           id="text126"><tspan
             x="0 5.4011998"
             y="0"
             sodipodi:role="line"
             id="tspan124">if</tspan></text>
        <text
           xml:space="preserve"
           transform="matrix(1,0,0,-1,237.666,166.112)"
           style="font-variant:normal;font-weight:normal;font-size:10px;font-family:'Times New Roman';-inkscape-font-specification:TimesNewRomanPS;writing-mode:lr-tb;fill:#231f20;fill-opacity:1;fill-rule:nonzero;stroke:none"
           id="text132"><tspan
             x="0 3.8900001 6.6700001 11.11 13.89 18.33 26.110001 30.549999 35.549999 38.330002 40.830002"
             y="0"
             sodipodi:role="line"
             id="tspan128">statement. </tspan><tspan
             x="-139.746 -133.076 -128.636 -123.636 -119.317 -114.515 -109.515 -104.515 -100.196 -97.416 -89.636002 -85.195999 -80.195999 -77.416 -72.416 -67.975998 -63.657001 -56.834999 -51.834999 -48.505001 -43.505001 -40.724998 -35.724998 -30.725 -26.406 -21.406 -16.406 -12.087 -7.6469998 -3.3280001 1.6720001 5.0019999 10.002 12.782 17.222 21.662001 24.441999 28.761 35.783001 40.783001 45.223 48.553001 52.993 57.312 60.091999 65.092003 69.531998 73.850998 78.291 83.291 88.291 92.731003"
             y="15"
             sodipodi:role="line"
             id="tspan130">Can you imagine working on a project where the code </tspan></text>
        <text
           xml:space="preserve"
           transform="matrix(1,0,0,-1,334.683,151.112)"
           style="font-style:italic;font-variant:normal;font-size:10px;font-family:'Times New Roman';-inkscape-font-specification:TimesNewRomanPS-Italic;writing-mode:lr-tb;fill:#231f20;fill-opacity:1;fill-rule:nonzero;stroke:none"
           id="text136"><tspan
             x="0 3.8900001 6.6700001 13.89 18.889999 21.572001 26.011999 30.330999 35.082001 40.082001 42.862 47.181 52.181 56.620998 59.401001 62.181 66.621002"
             y="0"
             sodipodi:role="line"
             id="tspan134">simply got better</tspan></text>
        <text
           xml:space="preserve"
           transform="matrix(1,0,0,-1,409.499,151.112)"
           style="font-variant:normal;font-weight:normal;font-size:10px;font-family:'Times New Roman';-inkscape-font-specification:TimesNewRomanPS;writing-mode:lr-tb;fill:#231f20;fill-opacity:1;fill-rule:nonzero;stroke:none"
           id="text144"><tspan
             x="0 4.4400001 8.3299999 12.649 15.429 18.209 25.989"
             y="0"
             sodipodi:role="line"
             id="tspan138">as time</tspan><tspan
             x="-329.57901 -324.57901 -320.13901 -316.24899 -312.35901 -307.91901 -302.91901 -298.479 -294.48901 -287.26901 -282.26901 -278.27899 -273.47699 -268.47699 -263.47699 -259.487 -254.487 -250.047 -247.267 -244.487 -240.29601 -235.44501 -231.005 -227.015 -224.235 -219.235 -214.795 -212.015 -208.02499 -203.58501 -198.834 -193.834 -189.84399 -184.84399 -182.064 -177.064 -172.62399 -169.29401 -165.304 -160.304 -155.304 -152.524 -149.744 -144.744 -139.744 -135.754 -132.974 -129.084 -125.094 -120.094 -116.764 -111.764 -108.434 -103.994 -100.104 -96.213997 -93.433998 -88.433998 -83.433998 -78.994003 -76.213997 -71.774002 -67.783997 -64.454002 -59.453999 -54.453999 -50.014 -45.574001 -41.172001 -38.672001 -34.681999 -31.902 -28.011999 -23.011999 -20.18 -17.4 -13.41 -8.9700003 -3.97 1.03 3.8099999 6.5900002 11.59 16.59 21.59 26.59"
             y="12"
             sodipodi:role="line"
             id="tspan140">passed? Do you believe that any other option is professional? Indeed, isn’t continuous</tspan><tspan
             x="-329.57901 -326.79901 -319.01901 -314.01901 -310.689 -306.138 -301.28699 -296.84698 -289.06699 -284.62701 -279.62701 -276.84698 -274.34698 -269.90701 -264.90701 -262.40701 -259.62701 -254.627 -251.847 -248.517 -245.737 -240.737 -236.847 -234.067 -229.627 -227.127 -222.127 -217.687 -214.159 -211.379 -208.879 -203.879 -200.549 -198.049 -193.049 -189.71899 -184.71899 -181.38901 -176.94901 -173.05901 -169.16901 -166.38901 -161.38901 -156.38901 -151.94901 -149.16901 -146.38901 -142.49899 -134.71899"
             y="24"
             sodipodi:role="line"
             id="tspan142">improvement an intrinsic part of professionalism?</tspan></text>
        <path
           d="m 88.92,95.085 h 144 m -144,0 h 144"
           style="fill:none;stroke:#231f20;stroke-width:0.5;stroke-linecap:square;stroke-linejoin:miter;stroke-miterlimit:10;stroke-dasharray:none;stroke-opacity:1"
           id="path146" />
        <text
           xml:space="preserve"
           transform="matrix(1,0,0,-1,79.92,76.111)"
           style="font-variant:normal;font-weight:normal;font-size:7px;font-family:'Times New Roman';-inkscape-font-specification:TimesNewRomanPS;writing-mode:lr-tb;fill:#231f20;fill-opacity:1;fill-rule:nonzero;stroke:none"
           id="text152"><tspan
             x="0 3.5 12.0057 16.2827 19.7827 21.728701 24.4517 26.014799 30.895201 34.003201 36.7262 38.289299 41.397301 44.897301 48.005299 51.505299 53.451302 56.559299 60.059299 61.622398 63.9534 66.284401 69.784401 75.2304 76.793503 81.462502 84.962502 88.462502 91.570503 94.039398 95.985397 97.5485 101.4405 103.3865 106.4945 109.9945 113.4945 116.6025 120.1025 122.8255 126.3255 129.8255 131.3886 135.28059 140.448 143.948 145.894 149.394 150.95711 155.6261 158.7341 162.2341 165.3421 168.8421 171.1731 174.7865 178.0072 182.8176 185.9256 187.8716 189.8176 191.1693 193.8923 195.4554 197.85429 200.9623 203.2933 206.22771 211.0381 214.1461 216.0921 218.0381 219.6012 225.0472 228.1552 230.8782 233.6012 236.7092 240.2092 243.3172 244.88029 246.82629 250.32629 251.8894 253.8354 257.33539 260.44339 262.0065 265.8985 269.0065 272.5065 276.0065 277.95251 280.67551 282.62149 284.1846 287.2926 291.32599 293.79489 297.29489 298.858 301.966 305.466 308.966 310.52911 312.4751 315.5831 318.44681 321.8425 324.9505 326.51361 328.45959 331.95959 333.90561 336.6286 338.19171 342.9671 346.4671 348.7981 350.74411 354.24411 355.80719 358.91519"
             y="0"
             sodipodi:role="line"
             id="tspan148">5.This was adapted from Robert Stephenson Smyth Baden-Powell’s farewell message to the Scouts: “Try and leave this world a </tspan><tspan
             x="12.0001 13.9461 15.8921 17.8381 19.7841 21.730101 24.8381 26.5881 30.0881 33.196098 35.142101 37.0881 40.196098 42.5271 44.2771 46.223099 49.723099 52.8311 56.3311 58.0811 61.443199 64.943199 68.443199 70.193199 72.5242 76.0242 79.5242 83.0242 86.5242 88.2742 90.2202 92.166199 93.916199 95.666199 97.416199 99.166199 100.9162 102.1769"
             y="8.0003004"
             sodipodi:role="line"
             id="tspan150">little better than you found it . . .”</tspan></text>
        <g
           id="g154">
          <g
             id="g156"
             clip-path="url(#clipPath160)">
            <path
               d="m -37.08,664.778 h 36 m -36,-666 h 36 m 522,0 h 36 m -36,666 h 36 m -549,45 v -36 m 504,36 v -36 m 0,-684 v -36 m -504,36 v -36"
               style="fill:none;stroke:#ffffff;stroke-width:0.75;stroke-linecap:butt;stroke-linejoin:miter;stroke-miterlimit:10;stroke-dasharray:none;stroke-opacity:1"
               id="path162" />
            <path
               d="m -37.08,664.778 h 36 m -36,-666 h 36 m 522,0 h 36 m -36,666 h 36 m -549,45 v -36 m 504,36 v -36 m 0,-684 v -36 m -504,36 v -36 m -12,378 c 0,3.312 -2.688,6 -6,6 -3.312,0 -6,-2.688 -6,-6 0,-3.312 2.688,-6 6,-6 3.312,0 6,2.688 6,6 z m -24,0 h 27 m -9,24 v -48 m 545.94,24 c 0,3.312 -2.688,6 -6,6 -3.312,0 -6,-2.688 -6,-6 0,-3.312 2.688,-6 6,-6 3.312,0 6,2.688 6,6 z m -14.94,0 h 27 m -18,24 v -48 m -534,345 c 0,3.312 -2.688,6 -6,6 -3.312,0 -6,-2.688 -6,-6 0,-3.312 2.688,-6 6,-6 3.312,0 6,2.688 6,6 z m -24,0 h 27 m -9,9 v -33 m 6,-618 c 0,3.312 -2.688,6 -6,6 -3.312,0 -6,-2.688 -6,-6 0,-3.312 2.688,-6 6,-6 3.312,0 6,2.688 6,6 z m -24,0 h 27 m -9,24 v -33 m 545.94,651 c 0,3.312 -2.688,6 -6,6 -3.312,0 -6,-2.688 -6,-6 0,-3.312 2.688,-6 6,-6 3.312,0 6,2.688 6,6 z m -14.94,0 h 27 m -18,9 v -33 m 5.94,-618 c 0,3.312 -2.688,6 -6,6 -3.312,0 -6,-2.688 -6,-6 0,-3.312 2.688,-6 6,-6 3.312,0 6,2.688 6,6 z m -14.94,0 h 27 m -18,24 v -33"
               style="fill:none;stroke:#000000;stroke-width:0.25;stroke-linecap:butt;stroke-linejoin:miter;stroke-miterlimit:10;stroke-dasharray:none;stroke-opacity:1"
               id="path164" />
          </g>
        </g>
      </g>
    </g>
    <g
       id="g166">
      <g
         id="g168"
         transform="translate(218,6.56)">
        <text
           xml:space="preserve"
           transform="scale(1,-1)"
           style="font-variant:normal;font-weight:normal;font-size:10px;font-family:Helvetica;-inkscape-font-specification:Helvetica;writing-mode:lr-tb;fill:#0000ff;fill-opacity:1;fill-rule:nonzero;stroke:none"
           id="text172"><tspan
             x="0 7.2199998 14.44 21.66 24.440001 26.66 29.440001 32.77 38.330002 43.889999 49.450001 55.009998 60.009998 65.010002 67.790001 70.010002 75.57 78.349998"
             y="0"
             sodipodi:role="line"
             id="tspan170">www.it-ebooks.info</tspan></text>
        <g
           id="g174"
           transform="translate(-218,-6.56)" />
      </g>
    </g>
  </g>
</svg>
