<?xml version="1.0" encoding="UTF-8" standalone="no"?>
<!-- Created with Inkscape (http://www.inkscape.org/) -->

<svg
   version="1.1"
   id="svg2"
   width="690.14398"
   height="888.47998"
   viewBox="0 0 690.14398 888.47998"
   sodipodi:docname="4PmrqTPDrJV6cyWn.pdf"
   xmlns:inkscape="http://www.inkscape.org/namespaces/inkscape"
   xmlns:sodipodi="http://sodipodi.sourceforge.net/DTD/sodipodi-0.dtd"
   xmlns="http://www.w3.org/2000/svg"
   xmlns:svg="http://www.w3.org/2000/svg">
  <defs
     id="defs6">
    <clipPath
       clipPathUnits="userSpaceOnUse"
       id="clipPath124">
      <path
         d="M 0,665.858 H 519.84 V 0 H 0 Z"
         id="path122" />
    </clipPath>
  </defs>
  <sodipodi:namedview
     id="namedview4"
     pagecolor="#ffffff"
     bordercolor="#000000"
     borderopacity="0.25"
     inkscape:showpageshadow="2"
     inkscape:pageopacity="0.0"
     inkscape:pagecheckerboard="0"
     inkscape:deskcolor="#d1d1d1" />
  <g
     id="g8"
     inkscape:groupmode="layer"
     inkscape:label="4PmrqTPDrJV6cyWn"
     transform="matrix(1.3333333,0,0,-1.3333333,-1.46,887.61333)">
    <g
       id="g10">
      <g
         id="g12">
        <text
           xml:space="preserve"
           transform="matrix(1,0,0,-1,429.92,622.111)"
           style="font-variant:normal;font-weight:normal;font-size:10px;font-family:'Times New Roman';-inkscape-font-specification:TimesNewRomanPS;writing-mode:lr-tb;fill:#231f20;fill-opacity:1;fill-rule:nonzero;stroke:none"
           id="text16"><tspan
             x="0 5"
             y="0"
             sodipodi:role="line"
             id="tspan14">15</tspan></text>
        <text
           xml:space="preserve"
           transform="matrix(1,0,0,-1,79.92,622.111)"
           style="font-variant:normal;font-weight:bold;font-size:10px;font-family:'Times New Roman';-inkscape-font-specification:TimesNewRomanPS-Bold;writing-mode:lr-tb;fill:#231f20;fill-opacity:1;fill-rule:nonzero;stroke:none"
           id="text20"><tspan
             x="0 6.6700001 9.4499998 14.812 17.591999 20.372 25.274 30.274 34.616001 39.616001 45.175999 50.286999"
             y="0"
             sodipodi:role="line"
             id="tspan18">Bibliography</tspan></text>
        <text
           xml:space="preserve"
           transform="matrix(1,0,0,-1,79.919,583.445)"
           style="font-variant:normal;font-weight:bold;font-size:14px;font-family:'Times New Roman';-inkscape-font-specification:TimesNewRomanPS-Bold;writing-mode:lr-tb;fill:#231f20;fill-opacity:1;fill-rule:nonzero;stroke:none"
           id="text24"><tspan
             x="0 8.5539999 14.3528 20.5688 28.3528 36.136799 42.352798 46.244801 49.744801 56.744801 64.528801 72.312798 75.812798 84.366798 90.582802 94.4748 102.2588 108.4748 112.3668 120.1508 124.0428 130.2588"
             y="0"
             sodipodi:role="line"
             id="tspan22">Prequel and Principles</tspan></text>
        <text
           xml:space="preserve"
           transform="matrix(1,0,0,-1,79.92,560.1111)"
           style="font-variant:normal;font-weight:normal;font-size:10px;font-family:'Times New Roman';-inkscape-font-specification:TimesNewRomanPS;writing-mode:lr-tb;fill:#231f20;fill-opacity:1;fill-rule:nonzero;stroke:none"
           id="text28"><tspan
             x="0 3.3299999 8.3299999 11.49 19.27 23.709999 28.461 33.460999 36.620998 43.591999 47.682999 52.682999 56.573002 59.733002 62.513 67.513 70.292999 74.182999 77.343002 82.343002 87.343002 92.343002 97.343002 100.503 103.283 107.173 110.333 114.773 117.933 122.373 127.373 130.703 135.14301 140.14301 145.14301 149.58299 152.36301 156.80299 159.963 162.743 167.743 170.903 175.343 178.50301 183.50301 188.50301 193.50301 198.50301 201.66299 204.993 208.153 215.373 218.703 223.703 226.483 230.923 234.08299 236.86301 241.86301 245.02299 250.02299 255.02299 260.02301 265.02301 268.18301 272.62299 277.62299 280.40302 283.18301 285.96301 288.74301 293.18301 298.18301"
             y="0"
             sodipodi:role="line"
             id="tspan26">In many ways this book is a “prequel” to a book I wrote in 2002 entitled </tspan></text>
        <text
           xml:space="preserve"
           transform="matrix(1,0,0,-1,380.619,560.1111)"
           style="font-style:italic;font-variant:normal;font-size:10px;font-family:'Times New Roman';-inkscape-font-specification:TimesNewRomanPS-Italic;writing-mode:lr-tb;fill:#231f20;fill-opacity:1;fill-rule:nonzero;stroke:none"
           id="text34"><tspan
             x="0 6.1100001 11.11 13.89 16.67 21.110001 24.27 29.27 34.27 37.049999 39.830002 46.351002 51.351002 54.872002"
             y="0"
             sodipodi:role="line"
             id="tspan30">Agile Software</tspan><tspan
             x="-300.69901 -293.479 -289.18799 -284.74799 -280.30801 -277.52802 -272.52802 -267.52802 -260.30801 -255.868 -250.868 -248.088 -244.758 -240.828 -234.718 -230.828 -228.048 -223.048 -218.608 -215.828 -210.828 -208.048 -203.608 -199.718 -197.218 -193.28799 -187.976 -182.976 -180.196 -177.416 -172.976 -169.086 -164.086 -160.196 -157.696 -153.76601 -148.76601 -143.76601 -138.76601 -134.836 -128.726 -125.285 -120.285 -115.845 -113.065 -110.285 -105.845 -101.405"
             y="12"
             sodipodi:role="line"
             id="tspan32">Development: Principles, Patterns, and Practices</tspan></text>
        <text
           xml:space="preserve"
           transform="matrix(1,0,0,-1,286.99,548.1111)"
           style="font-variant:normal;font-weight:normal;font-size:10px;font-family:'Times New Roman';-inkscape-font-specification:TimesNewRomanPS;writing-mode:lr-tb;fill:#231f20;fill-opacity:1;fill-rule:nonzero;stroke:none"
           id="text54"><tspan
             x="0 3.3299999 8.8900003 14.45 20.01 23.34 25.84 29.271999 35.382 40.382 44.821999 48.751999 54.312 59.872002 65.431999 69.362 74.362 79.362 84.362 89.362 93.292 97.732002 102.732 107.732 112.172 116.612 120.14 125.14 129.03 132.96001 135.74001 138.52 142.41 146.85001 149.63"
             y="0"
             sodipodi:role="line"
             id="tspan36">(PPP). The PPP book concerns itself</tspan><tspan
             x="-207.07001 -199.85001 -197.07001 -194.28999 -189.28999 -185.886 -183.106 -178.106 -173.666 -170.26199 -165.26199 -161.93201 -159.15199 -154.15199 -149.71201 -146.93201 -141.93201 -139.15199 -134.71201 -130.82201 -127.418 -122.418 -119.088 -115.684 -110.684 -105.684 -102.904 -98.463997 -94.024002 -91.244003 -87.914001 -82.914001 -79.584 -76.804001 -72.363998 -67.363998 -64.584 -60.144001 -55.144001 -51.740002 -46.740002 -42.299999 -38.41 -35.630001 -30.629999 -25.629999 -23.129999 -19.726 -15.286 -10.286 -5.2859998 -1.882 5.8979998 10.338 15.089 20.089001 23.493 28.493 31.823 35.227001 38.007 43.007 47.446999 50.851002 55.851002 59.181 63.620998 68.060997 70.841003 73.621002 78.060997 82.500999 86.390999 89.794998 94.794998 98.684998 103.125 108.125 111.529 116.28 121.28 124.684 129.68401 133.01401 138.01401 141.34399 145.784 149.674"
             y="12"
             sodipodi:role="line"
             id="tspan38">with the principles of object-oriented design, and many of the practices used by profes-</tspan><tspan
             x="-207.07001 -203.17999 -200.39999 -195.39999 -190.39999 -185.96001 -183.17999 -180.207 -175.207 -171.01601 -166.16499 -161.72501 -158.94501 -153.94501 -148.94501 -144.505 -141.175 -137.285 -134.785 -131.812 -128.48199 -125.152 -122.179 -117.377 -112.377 -107.377 -104.404 -99.403999 -95.313004 -90.461998 -86.022003 -83.049004 -78.049004 -73.049004 -70.268997 -67.295998 -63.966 -59.526001 -55.085999 -50.085999 -47.112999 -41.553001 -35.993 -32.032001 -29.532 -26.559 -23.778999 -18.778999 -14.339 -9.3389997 -6.3660002 -1.564 3.4360001 8.4359999 11.409 19.188999 23.280001 28.280001 31.253 36.813 41.813 46.813 49.785999 52.566002 57.566002 62.006001 64.786003 67.759003 70.539001 73.319 76.292 80.732002 85.732002 90.732002 93.512001 96.292 101.292 106.292 110.732 114.622 117.595 120.375 125.375 129.815 132.78799 136.67799 139.45799 144.45799 147.98599"
             y="24"
             sodipodi:role="line"
             id="tspan40">sional developers. If you have not read PPP, then you may ﬁnd that it continues the story</tspan><tspan
             x="-207.07001 -204.28999 -199.28999 -196.50999 -191.50999 -188.36 -183.60899 -178.60899 -175.459 -172.679 -167.679 -164.899 -161.009 -157.85899 -152.85899 -147.85899 -142.85899 -137.85899 -135.35899 -132.209 -128.879 -125.549 -122.399 -117.597 -112.597 -107.597 -104.447 -99.446999 -95.356003 -90.504997 -86.065002 -82.915001 -78.474998 -75.695 -72.364998 -67.925003 -63.485001 -58.485001 -53.485001 -50.334999 -47.005001 -42.564999 -38.125 -33.125 -29.975 -27.195 -24.415001 -21.915001 -18.764999 -15.985 -10.985 -6.5450001 -1.545 1.605 6.4070001 11.407 16.407 19.339001 22.118999 24.899 28.049 33.609001 38.609001 43.609001 46.758999 54.539001 58.979 63.73 68.730003 71.879997 76.879997 80.209999 83.360001 86.139999 91.139999 95.580002 98.730003 102.62 107.06 112.06 114.84 117.62 125.4 129.84 134.84 137.62 141.50999 144.66 149.66"
             y="36"
             sodipodi:role="line"
             id="tspan42">told by this book. If you have already read it, then you’ll ﬁnd many of the sentiments of</tspan><tspan
             x="-207.07001 -204.28999 -199.28999 -194.85001 -192.07001 -189.57001 -184.57001 -179.57001 -174.57001 -169.57001 -167.07001 -162.63 -158.19 -153.19 -148.19 -143.75 -138.75 -136.25 -133.47 -128.47 -125.97 -123.19 -118.19 -115.41 -111.52 -109.02 -104.02 -99.019997 -94.580002 -92.080002 -87.639999 -84.860001 -82.360001 -79.580002 -74.580002 -70.139999 -67.639999 -64.860001 -60.668999 -55.818001 -51.377998 -48.598 -46.098 -41.098 -37.768002 -35.268002 -30.827999 -25.827999 -20.827999 -16.388"
             y="48"
             sodipodi:role="line"
             id="tspan44">that book echoed in this one at the level of code.</tspan><tspan
             x="-189.07001 -185.74001 -180.74001 -177.534 -174.754 -169.754 -166.974 -163.084 -159.87801 -154.87801 -149.87801 -144.87801 -139.87801 -136.672 -131.87 -126.87 -121.87 -118.664 -111.444 -108.664 -105.884 -103.104 -99.898003 -94.337997 -89.337997 -84.337997 -81.132004 -77.241997 -72.241997 -67.241997 -63.911999 -59.472 -54.472 -51.692001 -47.251999 -44.046001 -40.716 -36.276001 -32.945999 -28.506001 -25.176001 -20.736 -15.736 -11.296 -6.8559999 -2.9660001 0.23999999 3.02 8.0200005 11.226 15.977 20.417 23.747 26.527 31.527 36.527 40.417 43.623001 48.623001 51.952999 54.733002 59.733002 64.172997 66.953003 71.953003 74.733002 79.172997 83.063004 86.268997 91.268997 94.598999 97.805 102.805 107.245 111.135 113.915 118.915 123.915 126.415 129.123 135.233 140.233 144.673 148.563"
             y="63"
             sodipodi:role="line"
             id="tspan46">In this book you will ﬁnd sporadic references to various principles of design. These</tspan><tspan
             x="-207.07001 -204.28999 -199.28999 -194.85001 -192.07001 -187.07001 -182.07001 -177.63 -174.795 -172.015 -167.015 -162.575 -159.74001 -154.17999 -151.39999 -146.39999 -141.39999 -138.62 -134.17999 -131.345 -124.675 -120.235 -116.345 -111.345 -106.345 -101.345 -97.455002 -94.675003 -89.675003 -86.894997 -84.114998 -81.334999 -78.555 -73.555 -70.720001 -65.160004 -61.830002 -59.049999 -54.049999 -49.610001 -46.830002 -41.830002 -39.049999 -34.610001 -31.775 -28.445 -22.885 -16.215 -10.655 -7.3249998 -4.8249998 -1.99 0.79000002 5.79 10.23 13.065 20.285 25.285 29.725 34.724998 37.560001 44.23 47.009998 52.009998 55.900002 60.34 65.339996 68.175003 73.735001 77.065002 79.845001 84.845001 89.285004 92.065002 97.065002 99.845001 104.285 107.12 110.45 117.67 124.34 129.89999 133.23 135.73 138.565 143.005 148.005"
             y="75"
             sodipodi:role="line"
             id="tspan48">include the Single Responsibility Principle (SRP), the Open Closed Principle (OCP), and</tspan><tspan
             x="-207.07001 -204.28999 -199.28999 -194.85001 -192.429 -185.209 -180.769 -175.769 -171.32899 -166.32899 -161.32899 -156.88901 -151.88901 -147.59801 -142.59801 -140.177 -136.847 -132.245 -127.394 -122.954 -119.624 -115.734 -112.954 -107.954 -102.954 -100.533 -94.973 -91.642998 -88.862999 -83.862999 -79.422997 -76.642998 -71.642998 -68.862999 -64.422997 -62.001999 -58.672001 -51.452 -48.122002 -42.562 -39.231998 -36.811001 -32.370998 -24.591 -19.591 -14.591 -9.5909996 -7.1700001 -2.1700001 0.61000001 5.6100001 10.05 13.38 17.27 19.77 21.693001 27.802999 32.803001 37.243 41.132999 45.573002 47.993999 52.993999 56.324001 59.104 64.103996 68.543999 71.323997 76.323997 79.103996 83.543999 87.433998 89.855003 94.294998 97.625 102.065 104.486 109.486 113.926 117.816 122.256 125.586 128.366 133.366 137.806 142.806 145.22701 148.007"
             y="87"
             sodipodi:role="line"
             id="tspan50">the Dependency Inversion Principle (DIP) among others. These principles are described in</tspan><tspan
             x="-207.07001 -202.07001 -197.63 -192.63 -189.85001 -184.85001 -182.35001 -179.57001 -174.57001 -172.07001 -166.50999 -160.95 -156.989 -154.489"
             y="99"
             sodipodi:role="line"
             id="tspan52">depth in PPP. </tspan></text>
        <text
           xml:space="preserve"
           transform="matrix(1,0,0,-1,79.92,416.445)"
           style="font-variant:normal;font-weight:bold;font-size:14px;font-family:'Times New Roman';-inkscape-font-specification:TimesNewRomanPS-Bold;writing-mode:lr-tb;fill:#231f20;fill-opacity:1;fill-rule:nonzero;stroke:none"
           id="text58"><tspan
             x="0 10.108 17.108 24.892 31.108 35 42.784 48.23 52.122002 59.122002"
             y="0"
             sodipodi:role="line"
             id="tspan56">Conclusion</tspan></text>
        <text
           xml:space="preserve"
           transform="matrix(1,0,0,-1,79.92,393.1121)"
           style="font-variant:normal;font-weight:normal;font-size:10px;font-family:'Times New Roman';-inkscape-font-specification:TimesNewRomanPS;writing-mode:lr-tb;fill:#231f20;fill-opacity:1;fill-rule:nonzero;stroke:none"
           id="text86"><tspan
             x="0 6.6700001 11.67 16.67 21.67 25.559999 28.271 33.271 38.271 40.981998 45.422001 48.950001 51.73 54.441002 59.441002 64.441002 69.441002 72.273003 75.053001 77.764 82.764 86.094002 91.094002 98.874001 101.654 105.544 109.984 112.695 115.475 120.475 123.186 130.966 135.40601 140.308 144.748 147.459 152.261 157.261 162.261 164.972 169.412 174.412 177.123 181.563 185.091 187.871 190.651 194.541 197.321 199.821 201.983 209.203 211.983 214.763 217.474 220.254 225.254 229.545 234.545 237.256 241.696 246.136 251.136 253.847 258.84698 263.84698 266.55801 269.33801 273.228 275.939 280.939 283.47 288.32101 292.76099 295.47198 300.27399 305.27399 310.27399 312.98499 316.875 321.875 329.655 334.095 336.806 341.806 345.13599 347.84698 350.62701 355.62701"
             y="0"
             sodipodi:role="line"
             id="tspan60">Books on art don’t promise to make you an artist. All they can do is give you some of the</tspan><tspan
             x="0 2.7820001 7.7839999 12.786 15.568 19.459999 21.962 24.51 27.292 31.733999 36.175999 41.178001 46.18 48.962002 53.964001 58.966 63.408001 67.300003 69.802002 72.349998 76.792 81.793999 86.795998 89.344002 92.125999 97.127998 102.13 107.132 112.134 117.136 119.918 122.466 127.468 130.8 135.802 140.244 144.686 148.578 152.47 156.912 160.804 163.35201 166.134 171.136 175.578 178.36 180.908 185.91 188.692 193.694 198.136 201.468 204.01601 208.45799 211.98599 214.76801 217.55 221.442 224.224 228.116 230.664 235.666 239.757 244.608 249.048 251.59599 256.59799 260.48999 264.93201 269.93399 272.436 274.98401 280.54599 285.548 288.09601 290.87799 295.88 300.88199 303.42999 306.21201 311.21399 313.996 317.888 320.436 325.43799 330.44 335.44199 340.444 342.992 347.43399 351.87601 356.87799"
             y="12"
             sodipodi:role="line"
             id="tspan62">tools, techniques, and thought processes that other artists have used. So too this book can-</tspan><tspan
             x="0 5 10 12.78 15.366 20.365999 23.695999 28.695999 36.476002 39.256001 43.146 47.585999 50.172001 52.952 57.952 60.537998 68.318001 72.758003 77.660004 82.099998 84.685997 89.487999 94.487999 99.487999 102.074 106.514 109.1 114.1 119.1 124.1 129.10001 131.686 136.686 140.01601 144.767 149.965 153.295 157.735 165.515 173.295 177.735 180.51601 183.01601 185.60201 188.93201 191.71201 194.298 198.73801 203.17799 208.17799 213.17799 218.17799 220.95799 223.54401 228.54401 231.87399 236.87399 244.65401 247.43401 251.32401 255.76401 258.35001 261.13 266.13 268.716 273.716 276.24701 281.09799 285.53799 288.12399 292.92599 297.92599 302.92599 305.51199 309.952 314.392 319.392 324.392 328.832 332.16199 336.052 340.492 345.492 349.38199 353.82199 355.62399"
             y="24"
             sodipodi:role="line"
             id="tspan64">not promise to make you a good programmer. It cannot promise to give you “code-sense.”</tspan><tspan
             x="0 7.2199998 10 12.78 15.38 18.16 20.940001 23.540001 27.98 32.419998 37.419998 40.02 45.02 50.02 52.619999 55.400002 59.290001 61.889999 65.779999 70.779999 75.382004 82.601997 85.202003 90.003998 95.003998 100.004 102.604 105.384 110.384 114.824 117.424 120.204 125.204 130.20399 135.20399 140.20399 145.20399 147.98399 150.584 155.584 158.914 163.914 168.354 172.79401 176.68401 180.57401 185.01401 188.90401 191.504 196.504 199.834 202.43401 207.43401 212.43401 217.43401 222.43401 225.034 230.034 233.364 238.11501 243.313 246.64301 251.08299 258.86301 266.64301 271.08301 274.41299 278.30301 280.90302 285.34299 290.34299 295.34299 297.94299 300.72299 305.72299 310.16299 312.763 315.543 318.87299 321.65302 326.09299 331.09299 334.983 337.483 340.08301 342.86301 347.30301 351.74301 356.74301"
             y="36"
             sodipodi:role="line"
             id="tspan66">All it can do is show you the thought processes of good programmers and the tricks, tech-</tspan><tspan
             x="0 5 7.7800002 12.78 17.780001 22.219999 26.110001 28.610001 31.110001 35.549999 40.549999 45.549999 48.049999 50.830002 55.830002 60.830002 63.610001 67.5 70 72.779999 77.779999 82.220001 85 87.5 90.279999 95.279999 99.570999 104.571 107.071 112.071 115.961 120.401 122.901"
             y="48"
             sodipodi:role="line"
             id="tspan68">niques, and tools that they use. </tspan><tspan
             x="18 21.889999 26.889999 30.780001 33.560001 36.985001 39.764999 42.544998 47.446999 51.887001 55.312 59.751999 63.176998 68.177002 73.177002 78.177002 83.177002 86.601997 91.601997 96.601997 100.027 104.467 107.995 110.775 113.275 116.7 119.48 124.48 127.26 131.14999 134.575 139.575 144.575 149.575 154.575 158 165.22 168 170.78 173.56 176.985 181.985 186.425 189.85001 193.17999 198.17999 200.96001 203.74001 207.16499 212.16499 215.495 218.92 223.92 228.36 231.14 235.58 238.36 241.14 245.03 247.53 250.457 256.56699 261.56699 266.00699 269.33701 273.77701 277.202 284.422 287.202 289.98199 292.76199 296.18701 301.18701 305.62701 309.052 311.832 316.832 319.612 323.50201 326.927 331.927 335.25699 338.68201 343.12201 348.12201 353.12201 357.56201"
             y="63"
             sodipodi:role="line"
             id="tspan70">Just like a book on art, this book will be full of details. There will be lots of code.</tspan><tspan
             x="0 5.6209998 10.621 15.621 18.552999 21.333 24.113001 27.086 30.976 35.416 39.855999 42.828999 47.828999 52.828999 57.828999 62.828999 65.802002 70.241997 75.241997 80.241997 84.681999 87.654999 92.095001 97.095001 102.095 105.068 109.87 114.87 119.87 122.802 125.582 128.362 131.33501 135.22501 139.66499 144.105 147.078 152.078 156.51801 161.51801 164.491 168.931 173.931 178.931 183.371 185.871 187.946 193.567 198.567 203.567 206.49899 209.27901 212.05901 215.032 218.922 223.362 227.802 230.77499 235.77499 240.215 245.215 248.188 252.62801 257.62799 262.62799 267.06799 270.04099 272.82101 276.151 280.591 285.591 289.48099 292.811 297.811 301.33899 309.11899 313.55899 318.55899 321.53201 324.31201 329.31201 332.09201 337.09201 340.065 345.065 350.065 355.065"
             y="75"
             sodipodi:role="line"
             id="tspan72">You’ll see good code and you’ll see bad code. You’ll see bad code transformed into good</tspan><tspan
             x="0 4.4400001 9.4399996 14.44 18.879999 21.379999 24.183001 29.804001 34.804001 39.804001 42.736 45.515999 48.296001 51.997002 55.887001 60.327 64.766998 68.468002 71.248001 74.028 77.917999 80.697998 84.587997 88.289001 93.289001 96.619003 100.32 105.32 109.76 114.76 118.09 120.87 124.76 127.54 130.32001 134.75999 138.64999 141.14999 144.851 149.851 152.631 156.521 160.961 163.741 168.741 171.521 174.30099 179.30099 183.741 187.631 190.131 193.832 198.272 203.272 208.272 211.97301 214.75301 219.19299 223.633 228.633 233.633 236.41299 241.41299 246.41299 250.853 254.743 257.24301 260.04599 265.66699 270.66699 275.66699 278.599 281.379 284.159 287.85999 291.75 296.19 300.63 304.33099 308.62201 313.62201 318.06201 325.84201 330.84201 333.62201 338.06201 341.763 346.203 349.53299 352.31299 356.75299"
             y="87"
             sodipodi:role="line"
             id="tspan74">code. You’ll see lists of heuristics, disciplines, and techniques. You’ll see example after</tspan><tspan
             x="0 4.2909999 9.2910004 13.731 21.511 26.511 29.291 33.730999 36.230999 38.181999 45.402 48.731998 51.512001 55.952 59.282001 61.782001 64.561996 69.561996 74.001999 76.781998 79.281998 81.781998 84.561996 87.342003 89.273003 93.163002 95.663002 100.663 105.663 108.163 110.943 115.943 118.443 123.245 128.245 133.245 135.745"
             y="99"
             sodipodi:role="line"
             id="tspan76">example. After that, it’s up to you. </tspan><tspan
             x="18 24.67 29.110001 36.889999 41.330002 49.110001 54.110001 58.549999 61.880001 64.220001 67 72 76.440002 78.779999 83.779999 86.559998 91.559998 93.900002 96.68 101.68 106.582 111.022 113.362 117.802 122.802 127.802 132.802 135.582 137.922 140.702 145.702 150.142 152.48199 156.922 161.922 166.922 171.362 175.802 179.33 182.11 184.45 189.45 192.23 197.23 200.00999 202.78999 207.78999 210.57001 214.46001 217.24001 219.58 226.60201 231.60201 236.60201 238.942 243.942 248.942 251.722 254.062 256.84201 261.84201 265.73199 268.51199 270.85199 275.85199 280.85199 283.19199 288.19199 290.97198 294.862 297.202 304.173 308.26401 313.26401 315.604 318.384 323.384 325.724 330.164 332.504 337.504 341.944 345.27399 348.604 353.604 356.73599"
             y="114"
             sodipodi:role="line"
             id="tspan78">Remember the old joke about the concert violinist who got lost on his way to a perfor-</tspan><tspan
             x="0 7.7800002 12.22 17.219999 21.66 26.1 30.540001 33.257999 40.478001 44.917999 47.636002 51.526001 54.306 59.306 64.306 69.306 73.746002 78.746002 81.463997 85.903999 90.903999 93.622002 98.622002 101.402 106.402 109.12 116.9 121.34 126.34 129.058 134.058 139.058 141.776 144.556 149.556 153.996 156.714 161.15401 166.15401 169.68201 174.68201 179.12199 182.452 185.17 189.61 194.61 199.61 202.328 206.76801 210.658 215.56 220 225 227.718 232.718 235.498 243.278 245.996 250.996 255.59801 262.81799 265.53601 268.31601 273.31601 276.034 281.034 285.474 288.254 290.97198 293.75201 298.75201 301.47 308.14001 312.57999 316.108 321.108 325.39899 330.39899 333.17899 337.61899 340.33701 347.55701 351.99701 354.77701 357.55701"
             y="126"
             sodipodi:role="line"
             id="tspan80">mance? He stopped an old man on the corner and asked him how to get to Carnegie Hall.</tspan><tspan
             x="0 6.1100001 11.11 15.55 18.490999 23.490999 26.271 31.271 34.212002 41.992001 46.431999 51.431999 54.373001 57.153 62.153 67.153 72.055 76.495003 81.495003 84.435997 88.875999 91.655998 94.597 97.376999 102.377 106.817 109.758 114.758 117.538 122.538 125.318 128.09801 133.09801 135.87801 139.76801 142.548 145.489 149.929 154.929 159.929 162.87 165.64999 170.64999 175.09 178.03101 183.03101 185.811 190.811 193.591 196.371 201.371 204.312 207.092 212.092 216.532 221.43401 225.87399 230.87399 233.815 238.815 243.815 248.815 253.255 256.58499 259.526 264.526 267.306 271.19601 274.13699 278.577 282.10501 289.88501 292.38501 295.32599 299.76599 304.76599 309.76599 312.707 316.59698 321.03699 323.81699 328.81699 331.59698 334.53799 338.978 344.53799 347.86801 352.30801 356.74799"
             y="138"
             sodipodi:role="line"
             id="tspan82">The old man looked at the violinist and the violin tucked under his arm, and said: “Prac-</tspan><tspan
             x="0 2.78 5.5599999 10 14.44 16.940001 19.440001 23.33 28.33 33.330002 35.830002 38.330002 43.889999 47.220001 51.66 56.099998 58.880001 61.66 66.099998 70.540001 73.870003"
             y="150"
             sodipodi:role="line"
             id="tspan84">tice, son. Practice!”</tspan></text>
        <text
           xml:space="preserve"
           transform="matrix(1,0,0,-1,79.921,210.445)"
           style="font-variant:normal;font-weight:bold;font-size:14px;font-family:'Times New Roman';-inkscape-font-specification:TimesNewRomanPS-Bold;writing-mode:lr-tb;fill:#231f20;fill-opacity:1;fill-rule:nonzero;stroke:none"
           id="text90"><tspan
             x="0 9.3380003 13.23 20.736799 24.628799 28.5208 35.383598 42.383598 48.462399 55.462399 63.246399 70.401802"
             y="0"
             sodipodi:role="line"
             id="tspan88">Bibliography</tspan></text>
        <text
           xml:space="preserve"
           transform="matrix(1,0,0,-1,79.92,185.112)"
           style="font-variant:normal;font-weight:bold;font-size:10px;font-family:'Times New Roman';-inkscape-font-specification:TimesNewRomanPS-Bold;writing-mode:lr-tb;fill:#231f20;fill-opacity:1;fill-rule:nonzero;stroke:none"
           id="text94"><tspan
             x="0 3.3299999 10 14.44 18.879999 24.440001 29.440001 34.439999 37.77 40.801998"
             y="0"
             sodipodi:role="line"
             id="tspan92">[Beck07]: </tspan></text>
        <text
           xml:space="preserve"
           transform="matrix(1,0,0,-1,126.009,185.112)"
           style="font-style:italic;font-variant:normal;font-size:10px;font-family:'Times New Roman';-inkscape-font-specification:TimesNewRomanPS-Italic;writing-mode:lr-tb;fill:#231f20;fill-opacity:1;fill-rule:nonzero;stroke:none"
           id="text98"><tspan
             x="0 3.3299999 10.55 15.55 18.33 22.77 29.99 34.43 39.43 42.209999 47.209999 49.990002 52.77 57.77 62.77 65.269997 70.582001 75.582001 78.362 81.141998 85.582001 89.472 94.472"
             y="0"
             sodipodi:role="line"
             id="tspan96">Implementation Patterns</tspan></text>
        <text
           xml:space="preserve"
           transform="matrix(1,0,0,-1,224.349,185.112)"
           style="font-variant:normal;font-weight:normal;font-size:10px;font-family:'Times New Roman';-inkscape-font-specification:TimesNewRomanPS;writing-mode:lr-tb;fill:#231f20;fill-opacity:1;fill-rule:nonzero;stroke:none"
           id="text102"><tspan
             x="0 2.5 5 11.971 16.410999 21.410999 24.191 26.691 33.361 37.800999 42.241001 47.241001 49.741001 51.692001 58.911999 63.911999 68.912003 71.692001 75.582001 80.582001 85.582001 88.912003 97.351997 101.792 105.682 108.462 112.753 116.903 119.403 121.903 126.903 131.903 136.903 141.903"
             y="0"
             sodipodi:role="line"
             id="tspan100">, Kent Beck, Addison-Wesley, 2007.</tspan></text>
        <text
           xml:space="preserve"
           transform="matrix(1,0,0,-1,79.92,161.112)"
           style="font-variant:normal;font-weight:bold;font-size:10px;font-family:'Times New Roman';-inkscape-font-specification:TimesNewRomanPS-Bold;writing-mode:lr-tb;fill:#231f20;fill-opacity:1;fill-rule:nonzero;stroke:none"
           id="text106"><tspan
             x="0 3.3299999 11.11 16.472 22.032 25.362 30.922001 35.922001 40.922001 44.251999 47.284"
             y="0"
             sodipodi:role="line"
             id="tspan104">[Knuth92]: </tspan></text>
        <text
           xml:space="preserve"
           transform="matrix(1,0,0,-1,132.488,161.112)"
           style="font-style:italic;font-variant:normal;font-size:10px;font-family:'Times New Roman';-inkscape-font-specification:TimesNewRomanPS-Italic;writing-mode:lr-tb;fill:#231f20;fill-opacity:1;fill-rule:nonzero;stroke:none"
           id="text110"><tspan
             x="0 5.5599999 8.3400002 11.12 15.56 19.000999 24.000999 26.781 31.221001 34.382 40.492001 43.932999 48.683998 53.683998 57.125 62.125 69.345001 76.565002 79.345001 84.345001"
             y="0"
             sodipodi:role="line"
             id="tspan108">Literate Programming</tspan></text>
        <text
           xml:space="preserve"
           transform="matrix(1,0,0,-1,221.816,161.112)"
           style="font-variant:normal;font-weight:normal;font-size:10px;font-family:'Times New Roman';-inkscape-font-specification:TimesNewRomanPS;writing-mode:lr-tb;fill:#231f20;fill-opacity:1;fill-rule:nonzero;stroke:none"
           id="text116"><tspan
             x="0 2.5 5.6609998 12.881 17.881001 22.881001 27.320999 30.101 35.101002 38.262001 44.372002 46.872002 50.033001 57.252998 62.252998 67.252998 70.032997 75.032997 77.532997 80.694 87.363998 91.804001 96.804001 99.584 104.024 107.354 110.515 113.845 118.845 122.175 125.336 128.116 133.116 137.556 140.717 146.27699 149.05701 154.05701 159.05701 164.05701 167.218 172.218 175.548 178.709 184.819 189.259 194.259 199.259 204.259 208.69901 213.69901"
             y="0"
             sodipodi:role="line"
             id="tspan112">, Donald E. Knuth, Center for the Study of Language</tspan><tspan
             x="-141.896 -137.45599 -132.45599 -127.456 -124.956 -121.626 -116.626 -113.296 -108.296 -104.768 -96.987999 -92.547997 -89.767998 -86.987999 -81.987999 -76.987999 -74.487999 -71.987999 -65.877998 -61.438 -58.658001 -54.217999 -49.217999 -44.217999 -41.717999 -36.158001 -33.377998 -28.938 -23.938 -20.608 -15.608 -12.278 -7.2779999 -4.7779999 -0.88800001 4.112 9.1120005 11.892 16.892 20.222 22.722 29.941999 34.942001 37.473 42.324001 46.764 50.094002 53.984001 56.764 59.543999 63.694 66.194 68.694 73.694 78.694 83.694 88.694"
             y="12"
             sodipodi:role="line"
             id="tspan114">and Information, Leland Stanford Junior University, 1992.</tspan></text>
        <g
           id="g118">
          <g
             id="g120"
             clip-path="url(#clipPath124)">
            <path
               d="m -37.08,664.778 h 36 m -36,-666 h 36 m 522,0 h 36 m -36,666 h 36 m -549,45 v -36 m 504,36 v -36 m 0,-684 v -36 m -504,36 v -36"
               style="fill:none;stroke:#ffffff;stroke-width:0.75;stroke-linecap:butt;stroke-linejoin:miter;stroke-miterlimit:10;stroke-dasharray:none;stroke-opacity:1"
               id="path126" />
            <path
               d="m -37.08,664.778 h 36 m -36,-666 h 36 m 522,0 h 36 m -36,666 h 36 m -549,45 v -36 m 504,36 v -36 m 0,-684 v -36 m -504,36 v -36 m -12,378 c 0,3.312 -2.688,6 -6,6 -3.312,0 -6,-2.688 -6,-6 0,-3.312 2.688,-6 6,-6 3.312,0 6,2.688 6,6 z m -24,0 h 27 m -9,24 v -48 m 545.94,24 c 0,3.312 -2.688,6 -6,6 -3.312,0 -6,-2.688 -6,-6 0,-3.312 2.688,-6 6,-6 3.312,0 6,2.688 6,6 z m -14.94,0 h 27 m -18,24 v -48 m -534,345 c 0,3.312 -2.688,6 -6,6 -3.312,0 -6,-2.688 -6,-6 0,-3.312 2.688,-6 6,-6 3.312,0 6,2.688 6,6 z m -24,0 h 27 m -9,9 v -33 m 6,-618 c 0,3.312 -2.688,6 -6,6 -3.312,0 -6,-2.688 -6,-6 0,-3.312 2.688,-6 6,-6 3.312,0 6,2.688 6,6 z m -24,0 h 27 m -9,24 v -33 m 545.94,651 c 0,3.312 -2.688,6 -6,6 -3.312,0 -6,-2.688 -6,-6 0,-3.312 2.688,-6 6,-6 3.312,0 6,2.688 6,6 z m -14.94,0 h 27 m -18,9 v -33 m 5.94,-618 c 0,3.312 -2.688,6 -6,6 -3.312,0 -6,-2.688 -6,-6 0,-3.312 2.688,-6 6,-6 3.312,0 6,2.688 6,6 z m -14.94,0 h 27 m -18,24 v -33"
               style="fill:none;stroke:#000000;stroke-width:0.25;stroke-linecap:butt;stroke-linejoin:miter;stroke-miterlimit:10;stroke-dasharray:none;stroke-opacity:1"
               id="path128" />
          </g>
        </g>
      </g>
    </g>
    <g
       id="g130">
      <g
         id="g132"
         transform="translate(218,6.56)">
        <text
           xml:space="preserve"
           transform="scale(1,-1)"
           style="font-variant:normal;font-weight:normal;font-size:10px;font-family:Helvetica;-inkscape-font-specification:Helvetica;writing-mode:lr-tb;fill:#0000ff;fill-opacity:1;fill-rule:nonzero;stroke:none"
           id="text136"><tspan
             x="0 7.2199998 14.44 21.66 24.440001 26.66 29.440001 32.77 38.330002 43.889999 49.450001 55.009998 60.009998 65.010002 67.790001 70.010002 75.57 78.349998"
             y="0"
             sodipodi:role="line"
             id="tspan134">www.it-ebooks.info</tspan></text>
        <g
           id="g138"
           transform="translate(-218,-6.56)" />
      </g>
    </g>
  </g>
</svg>
