<?xml version="1.0" encoding="UTF-8" standalone="no"?>
<!-- Created with Inkscape (http://www.inkscape.org/) -->

<svg
   version="1.1"
   id="svg2"
   width="690.14398"
   height="888.47998"
   viewBox="0 0 690.14398 888.47998"
   sodipodi:docname="4PmrqTPDrJV6cyWn.pdf"
   xmlns:inkscape="http://www.inkscape.org/namespaces/inkscape"
   xmlns:sodipodi="http://sodipodi.sourceforge.net/DTD/sodipodi-0.dtd"
   xmlns="http://www.w3.org/2000/svg"
   xmlns:svg="http://www.w3.org/2000/svg">
  <defs
     id="defs6">
    <clipPath
       clipPathUnits="userSpaceOnUse"
       id="clipPath102">
      <path
         d="M 0,665.858 H 519.84 V 0 H 0 Z"
         id="path100" />
    </clipPath>
  </defs>
  <sodipodi:namedview
     id="namedview4"
     pagecolor="#ffffff"
     bordercolor="#000000"
     borderopacity="0.25"
     inkscape:showpageshadow="2"
     inkscape:pageopacity="0.0"
     inkscape:pagecheckerboard="0"
     inkscape:deskcolor="#d1d1d1" />
  <g
     id="g8"
     inkscape:groupmode="layer"
     inkscape:label="4PmrqTPDrJV6cyWn"
     transform="matrix(1.3333333,0,0,-1.3333333,-1.46,887.61333)">
    <g
       id="g10">
      <text
         xml:space="preserve"
         transform="matrix(1,0,0,-1,36.92,623.1111)"
         style="font-variant:normal;font-weight:normal;font-size:8.496px;font-family:'Times New Roman';-inkscape-font-specification:TimesNewRomanPS;writing-mode:lr-tb;fill:#231f20;fill-opacity:1;fill-rule:nonzero;stroke:none"
         id="text42"><tspan
           x="0 7.5529442 11.325168 15.394752 19.642752 21.766752 26.014751 28.84392 30.96792 33.329807 37.577808 41.350033 43.474033 47.722031 51.494255 54.799198 57.161087 61.409088 65.657089 69.429314 71.791199 74.153091 78.401085 82.649086 85.954033 88.078033 92.326035 95.630974 99.403198 103.6512 105.7752 110.0232 114.2712 116.3952 123.00509 126.77731 131.02531 135.27332 138.24692 142.01913 145.79137 148.15324 152.40125 155.23042 159.00264 161.8318 165.13675 167.26076 171.03297 175.28098 179.52898 181.65297 184.95792 188.73015 191.09203 193.45392 197.22615 200.05531 203.36026 205.48425 207.84615 212.09415 214.21814 218.46614 220.82803 224.13298 226.49486 228.85675 233.10475 237.35275 241.60075 243.96265 247.26758 251.51558 253.63959 256.00146 260.24948 264.0217 266.38358 269.21274 271.33676 275.58475 278.41391 282.66193 286.90991 291.15793 294.93015 297.29202 300.59698 302.72098 306.49319 309.32236 313.0946 315.2186 318.99081 321.35269 325.12494 327.48682 334.09671 337.86893 342.11691 344.65723 348.302 351.47952"
           y="0"
           sodipodi:role="line"
           id="tspan12">Many of the designations used by manufacturers and sellers to distinguish their products are claimed as </tspan><tspan
           x="0 2.234448 4.9361758 8.5809603 12.70152 16.346304 22.828753 26.473536 29.175264 33.295822 36.473328 38.469887 40.262543 48.155327 52.275887 55.920673 58.622398 62.267185 64.229759 66.464211 70.58477 74.70533 77.882835 81.527618 83.490189 87.610748 91.255539 94.433037 96.667488 100.78805 104.90861 108.55339 110.78784 113.02229 117.14285 121.2634 124.44091 126.40349 130.04828 134.16884 138.2894 141.93417 145.57896 148.28069 150.24327 152.47771 156.59827 158.56085 160.7953 164.91586 167.1503 170.3278 172.29039 176.41095 180.53151 184.65207 188.77263 190.76918 192.73177 196.37654 200.4971 204.61766 206.58025 208.81468 212.93524 216.58003 218.5426 222.66316 226.78372 231.15067 233.38512 235.61957 238.79707 242.91763 246.56241 249.26414 251.22672 257.07196 260.71677 263.89426 265.85684 269.18726 274.99854 278.64331 281.34503 284.98984 286.95239 291.07297 293.77469 295.73727 299.38205 301.34464 303.57907 306.28079 309.9256 314.04614 317.69092 324.17337 327.81815 330.5199 334.7594 336.85791 340.63013 342.992 346.76425 349.12613 355.73602"
           y="8.9972639"
           sodipodi:role="line"
           id="tspan14">trademarks. Where those designations appear in this book, and the publisher was aware of a trademark claim,</tspan><tspan
           x="0 2.3618879 6.6098881 10.382112 12.506112 16.754112 20.526337 23.83128 26.193169 30.441168 34.689167 38.461391 40.82328 43.185169 47.433167 51.681168 54.986111 57.110111 61.358112 64.96891 69.097969 72.870193 74.994194 79.242195 83.01442 86.786636 91.034637 93.158638 97.406639 100.23581 102.59769 106.8457 109.20758 112.9798 117.22781 119.35181 125.48592 127.84781 130.2097 134.4577 136.5817 138.94359 143.19159 145.55347 147.91536 150.27725 154.04947 156.41136 158.53535 162.30759 166.0798 170.3278 172.6897 175.05159 178.82381 181.1857 183.30969 185.67159 189.4438 191.80569 194.16759 197.9398 200.76898 204.07391 206.19792 210.44592 213.27509 215.39909 217.76097 222.00897 224.13298 227.9052 230.26709 232.62898 234.75298 238.52521 242.29742 246.54543 248.90732 251.2692 255.04143 257.40332 260.70825"
           y="17.994528"
           sodipodi:role="line"
           id="tspan16">the designations have been printed with initial capital letters or in all capitals.</tspan><tspan
           x="0 5.1902065 9.4373569 13.208732 15.332731 19.104105 23.351255 25.712294 29.959444 34.206596 37.034912 40.339008 42.463009 46.234383 50.481533 54.728683 56.852684 61.099834 65.346985 69.594131 71.95517 74.316208 77.620308 81.867455 85.638832 88.467148 90.591148 94.838303 98.371788 102.49999 106.27137 108.39536 110.7564 114.52778 118.72395 122.49533 126.74248 128.86649 132.63785 136.40923 139.23755 143.00893 145.13292 147.49396 151.7411 153.86511 156.22615 160.4733 164.24467 166.36867 170.61583 173.44414 177.21552 181.46266 185.23404 188.06236 191.83374 194.19478 196.55582 200.80296 205.05011 207.1741 211.42126 214.24957 216.37358 218.73462 222.98177 225.3428 228.6469 230.7709 235.01805 239.2652 243.51236 247.75951 249.88266 252.00665 256.58514 260.83231 263.19333 265.31732 271.92636 275.69775 279.94489 283.71628 285.84027 290.08743 294.33456 296.45859 300.14499 304.39215 308.63928 311.46762 315.23898 318.54309 321.84717 325.61856 329.86569 331.98969 336.23685 339.06516"
           y="30.993408"
           sodipodi:role="line"
           id="tspan18">The authors and publisher have taken care in the preparation of this book, but make no expressed or </tspan><tspan
           x="0 2.3618879 8.971776 13.219776 15.581664 17.943552 21.715776 25.963776 27.837994 33.827675 37.599899 40.69244 43.52161 47.293835 51.541832 53.903721 58.151722 60.02594 64.273941 67.103104 68.977325 72.74955 76.86161 81.109612 82.983833 87.231827 89.593719 93.841721 98.089722 99.963936 103.73616 107.98416 112.23216 114.10638 117.8786 121.18355 124.48849 128.7365 135.34637 139.11861 140.99281 145.24081 149.48882 151.36304 154.1922 157.96443 161.26938 165.51738 169.76537 174.01337 177.31831 179.68021 183.92821 186.2901 188.65198 191.01387 193.37576 197.62376 199.49797 202.32715 206.57515 209.40431 211.27853 215.05075 218.43216 221.26132 225.50932 228.3385 231.64343 233.51765 237.76566 240.59482 242.46904 246.71704 253.32693 255.68881 258.99377 262.29871 264.66058 268.9086 273.15659 276.46155 278.58554 280.45975 286.59387 290.84186 292.71609 295.07797 297.43985 301.2121 305.46008 307.82196 310.18387 312.54575 314.90762 319.15564 321.02985 323.39175 326.69669 328.57089 332.34314 335.64807 338.953 343.20102 349.81091 353.58313 357.83112"
           y="39.990673"
           sodipodi:role="line"
           id="tspan20">implied warranty of any kind and assume no responsibility for errors or omissions. No liability is assumed </tspan><tspan
           x="0 2.8291681 7.077168 9.9063358 12.030336 14.392224 18.640224 22.412449 24.774336 29.022335 32.794559 37.042561 39.404449 43.176674 45.538559 47.66256 51.910561 54.739727 56.863728 60.635952 64.883949 69.13195 72.436897 76.209122 80.457123 84.705116 88.477341 92.725342 95.087234 97.44912 101.22134 103.58323 105.70723 109.95523 113.72746 120.33734 124.10957 128.35757 132.12979 135.43474 137.55873 139.92062 144.16862 146.29262 150.06485 154.31285 158.56085 162.80885 166.58107 170.3533 172.71518 175.07707 179.32507 183.57307 185.69707 191.83118 194.19307 196.55496 200.80296 202.92696 207.17496 210.00414 212.12813 215.90034 218.72952 221.09142 224.39635 226.75824 231.00624 235.25424 237.37823 241.62624 245.87424 248.23613 250.36012 254.60812 257.43729 259.56131 261.92319 266.17117 269.94342 272.06741 276.3154 279.62036 283.39258 285.51657 289.76459 292.59375 294.71774 297.07962 301.32764 305.09985 307.22385 309.58575 313.83374 316.6629 320.91092 324.58118 331.19107 334.96329 337.3252 339.68707 343.93506 348.18307 350.30707 354.55508 357.38425"
           y="48.987934"
           sodipodi:role="line"
           id="tspan22">for incidental or consequential damages in connection with or arising out of the use of the information or </tspan><tspan
           x="0 4.2480001 7.077168 11.138256 15.564672 18.393841 22.166063 28.775951 32.080894 34.204895 37.977119 42.225121 46.473122 48.835007 52.607231 54.96912 59.217121 62.989346 67.237343 69.361343 73.609344 77.381569 80.210739 83.982964 86.344849 90.59285"
           y="57.985199"
           sodipodi:role="line"
           id="tspan24">programs contained herein.</tspan><tspan
           x="0 5.1910558 9.4390564 13.21128 15.33528 19.583281 23.83128 27.968832 30.330721 32.692608 35.997551 40.245552 44.017776 46.846943 48.970943 53.218945 55.895184 58.724354 62.496574 65.325745 68.630692 70.754684 74.433456 78.681458 82.453682 86.225906 88.587791 90.949677 94.721901 98.969902 101.33179 103.4558 107.70379 110.06568 113.37062 117.14285 121.39085 125.63885 129.88684 132.24873 135.55368 137.67767 141.92567 146.17368 148.29768 150.65956 154.90756 157.26945 160.5744 162.69839 166.9464 171.1944 175.4424 179.6904 181.81441 188.02498 192.27298 196.0452 200.2932 202.41721 206.66521 209.49437 213.74237 217.51459 220.34377 224.11598 228.36398 230.48799 232.84987 237.09787 239.22188 243.46988 247.71786 251.4901 255.7381 258.09998 260.46188 262.82376 267.07175 269.19577 272.02493 276.27292 279.10208 281.2261 285.72049 289.96848 292.33035 296.57837 298.70236 302.95038 307.19836 310.02753 313.79977 318.04776 321.81998 325.12494 328.89716 332.20209 334.32611 338.5741 341.40326"
           y="70.984077"
           sodipodi:role="line"
           id="tspan26">The publisher offers excellent discounts on this book when ordered in quantity for bulk purchases or </tspan><tspan
           x="0 3.304944 7.5529442 11.325168 15.097392 17.45928 21.231504 23.593391 25.717392 29.022335 32.794559 35.156448 38.928673 42.233616 44.357616 46.481617 52.556255 56.804256 59.166145 62.93837 67.186371 69.310371 75.920258 79.45459 83.702591 85.826591 88.188477 92.436478 96.208702 98.570595 102.81859 107.06659 110.83881 112.96281 116.73504 119.09693 122.86915 126.64137 129.00327 131.83243 136.08043 140.32843 142.69032 146.46254 148.58655 152.83455 156.60677 159.43594 162.74088 165.10277 169.35077 173.59877 176.90372 179.02771 182.79994 187.04794 191.29593 193.65782 197.90582 200.73499 202.85899 206.63121 210.87921 214.18416 216.54605 220.79405 227.40393 229.52794 233.30016 237.34425 241.47331 245.24553 248.07471 251.37965 253.50365 257.27588 261.52386 265.77188 267.89587 271.66809 275.91611 280.16409 282.52597 286.29822 290.5462 292.90808 295.0321 299.28009 303.05231 306.17883 308.54074 310.90262 314.67484 318.92285 321.28473 325.05695 327.88614 330.01013 332.37201 336.62003 338.74402 342.89856 347.14655 351.39456 354.22372"
           y="79.981346"
           sodipodi:role="line"
           id="tspan28">special sales, which may include electronic versions and/or custom covers and content particular to your </tspan><tspan
           x="0 4.2989759 8.5469761 11.85192 14.213808 18.461807 22.234032 25.538977 28.84392 30.96792 33.091919 35.453808 38.282974 42.055199 44.417088 48.665089 51.026978 55.274975 59.522976 61.646976 65.894974 70.142975 73.915199 76.277084 79.582031 81.706032 83.830032 90.439919 94.212143 97.041313 101.40826 105.18048 107.54237 109.90426 114.15225 118.40025 120.52425 123.35342 127.60143 131.37364 135.62164 138.92659 141.0506 143.17459 146.94682 151.19481 155.44281 157.56682 161.81482 164.64398 168.41621 172.66422 176.9122 179.27409 183.52209 187.7701 189.89409 192.25598 196.50398 198.86588 202.63809 205.46727 209.23949 212.54443 214.90633 218.21126 220.33527 222.45926 227.02162 231.26962 234.09879 236.22278 242.83267 247.08067 249.90984 253.68207 255.80606 258.16794 262.41595 265.24512 269.49313 272.58566 279.19556 282.96777 285.32965 287.69156 291.93954 296.18756 298.31155 300.43555 304.68356 307.04544 310.81766 314.58987 317.89484 321.66705 323.79105 327.56329 331.81128 336.05927 338.42117 342.19339 345.96561 348.32751"
           y="88.978607"
           sodipodi:role="line"
           id="tspan30">business, training goals, marketing focus, and branding interests. For more information, please contact:</tspan><tspan
           x="35.997551 41.468975 43.592976 48.316753 50.44075 52.564751 58.231583 62.479584 65.614609 69.86261 74.110611 76.939774 80.711998 83.073891 86.846115 88.970116 92.742332 96.990334 101.23833 103.36234 109.49644 113.46408 117.59314 121.36536 124.37295 128.62094 135.23083 139.00305 143.25105 145.61295 147.73694 152.46072 156.23294 158.59483 162.36705"
           y="101.97749"
           sodipodi:role="line"
           id="tspan32">U.S. Corporate and Government Sales</tspan><tspan
           x="35.997551 38.826721 43.074718 47.32272 51.570721 54.399887 56.523888 60.771889 65.01989 69.267891 72.097054 76.345055 80.593056 84.841057"
           y="110.97475"
           sodipodi:role="line"
           id="tspan34">(800) 382-3419</tspan><tspan
           x="35.997551 39.769775 44.017776 47.118816 51.366817 54.671761 58.443985 60.805874 64.578094 67.883041 75.707855 79.955856 83.728081 87.500305 90.329475 93.634415 97.882416 102.13042 104.4923 108.26453 112.03675 116.28475 120.8556 123.68477 127.93277 132.18077 136.42877 138.55276 142.325 146.573"
           y="119.97202"
           sodipodi:role="line"
           id="tspan36">corpsales@pearsontechgroup.com</tspan><tspan
           x="0 4.3074722 8.5554724 11.38464 13.50864 16.813583 20.585808 22.947697 26.719919 30.024864 32.148865 36.396866 40.644863 43.006752 46.311695 48.673584 52.921585 56.69381 58.817806 61.179695 65.427696 69.199921 71.323921 77.458031 81.706032 84.067917 86.42981 90.202034 94.450035 96.574036 101.29781 103.6597 107.43192 109.79381 113.56603 116.87098 118.99497 123.24297 125.60487 129.37709 133.14931 136.45425 140.22649 142.35048 146.12271 150.3707 154.6187 156.98059 160.75282 164.52504 166.88693"
           y="132.9709"
           sodipodi:role="line"
           id="tspan38">For sales outside the United States please contact:</tspan><tspan
           x="35.997551 38.826721 43.074718 45.436607 49.208832 52.23341 56.481407 60.253632 62.61552 64.977409 69.22541 73.473412 77.245628 79.607521 81.731522 86.455299 90.227524 92.589409 96.361633"
           y="145.96979"
           sodipodi:role="line"
           id="tspan40">International Sales</tspan></text>
      <text
         xml:space="preserve"
         transform="matrix(1,0,0,-1,72.9201,468.1177)"
         style="font-variant:normal;font-weight:normal;font-size:8.496px;font-family:'Times New Roman';-inkscape-font-specification:TimesNewRomanPS;writing-mode:lr-tb;fill:#231f20;fill-opacity:1;fill-rule:nonzero;stroke:none"
         id="text52"><tspan
           x="0 2.3618879 6.6098881 8.971776 12.744 15.768576 20.016577 23.788799 26.150688 28.512575 32.760574 37.008575 40.7808 43.142689 50.967503 55.215504 58.987728 62.759953 65.589119 68.894066 73.142067 77.39006 81.162285 85.410286 87.534286 91.306511 95.554512"
           y="0"
           sodipodi:role="line"
           id="tspan44">international@pearsoned.com</tspan><tspan
           x="-35.997551 -31.749552 -28.920383 -24.672384 -20.90016 -18.538273 -14.290272 -10.042272 -6.2700481 -2.9651041 -0.84110397 3.4068961 5.768784 9.9488163 12.310704 14.672592 18.725183 23.1516 25.980768 29.752993 34.000992 38.248993 40.610882 44.383102 48.155327 50.517216 52.641216 55.470383 59.242607 62.071777 65.844002 68.673164 72.445389 76.69339 80.465614 84.237839 87.542786 89.666786 93.439011 97.687012 101.93501 104.05901 106.4209 110.6689 114.91689 118.75709 123.00509"
           y="232.00027"
           sodipodi:role="line"
           id="tspan46"> Includes bibliographical references and index.</tspan><tspan
           x="-35.997551 -31.749552 -28.920383 -24.196608 -18.529776 -12.395664 -10.271664 -6.023664 -3.1944959 1.053504 5.3015041 8.1306725 12.378672 16.626673 20.874672 25.122671 29.370672 33.618671 36.447842 40.695839 42.819839 45.64901 49.897007 54.145008 58.393009 60.51701 62.641006 65.002899 67.1269 70.899117 73.261009 77.50901 79.633011 81.757011 86.005005 89.777229 94.02523 97.797455 100.62663"
           y="240.99754"
           sodipodi:role="line"
           id="tspan48"> ISBN 0-13-235088-2 (pbk. : alk. paper)</tspan><tspan
           x="-35.997551 -31.747852 -27.499853 -25.375853 -21.567945 -15.433834 -11.185834 -8.823946 -6.4620576 -2.6898336 -0.56498402 2.73996 6.9879599 9.8171282 12.179016 18.185688 21.957912 24.787081 28.559303 30.684155 34.932152 38.534458 42.663513 46.435738 48.797626 53.045624 57.293625 63.903515 67.675735 71.923737 74.285629 76.409622 78.534477 82.782478 84.906479 89.156174 94.823006 99.071007 105.68089 109.92889 114.1769 116.53878 120.311 123.14017 125.26502 128.56996 132.81796 135.64714 138.00902 144.14314 147.91536 150.74452 154.51675 163.01276 168.67958 172.45181 174.81369 177.17558 180.94781 185.1958 187.55769 189.91959 192.28148 194.64336 198.27965 200.40364 204.65335 207.48251 209.60652 211.33205 216.23424 218.59613 220.95802 223.31992 227.09213"
           y="249.9948"
           sodipodi:role="line"
           id="tspan50"> 1. Agile software development. 2. Computer software—Reliability. I. Title.</tspan></text>
      <text
         xml:space="preserve"
         transform="matrix(1,0,0,-1,41.171912,209.11668)"
         style="font-variant:normal;font-weight:normal;font-size:8.496px;font-family:'Times New Roman';-inkscape-font-specification:TimesNewRomanPS;writing-mode:lr-tb;fill:#231f20;fill-opacity:1;fill-rule:nonzero;stroke:none"
         id="text86"><tspan
           x="0 6.1341119 12.268224 16.516224 20.764223 22.888224 27.136225 31.384224 33.508224 39.642338 43.890335 48.138336 55.69128 59.939281 64.187279 68.43528 72.683281 74.807281 79.055283 83.303284 87.551277"
           y="0"
           sodipodi:role="line"
           id="tspan54">QA76.76.D47M3652 2008</tspan><tspan
           x="-4.2480001 0 4.2480001 8.4960003 12.744 14.868 19.115999 27.612 31.860001 35.632225 39.880222 217.0728 221.3208 225.5688 229.8168 234.0648 238.31281 242.56081 246.80881 251.05679 255.30479"
           y="8.9972639"
           sodipodi:role="line"
           id="tspan56"> 005.1—dc222008024750</tspan><tspan
           x="-4.2480001 1.4188319 5.666832 9.6939363 13.941936 16.771105 19.132992 23.380993 27.628992 29.990879 32.11488 38.571838 40.695839 44.94384 49.191841 53.439838 57.68784 59.81184 64.31472 68.086945 71.859169 74.688339 77.993279 82.24128 86.489281 88.613281 93.804337 98.052338 102.30034 106.07256 109.84479 112.20667 114.56856 118.81656 123.06456 125.18856 127.31256 130.14172 134.38972 138.16196"
           y="21.996143"
           sodipodi:role="line"
           id="tspan58">Copyright © 2009 Pearson Education, Inc.</tspan><tspan
           x="-4.2480001 1.886112 4.2480001 6.6098881 8.7338877 11.563056 13.924944 18.172943 22.420944 24.782831 28.087776 30.211777 33.040943 36.813168 40.118111 43.890335 46.991375 51.120434 54.892654 59.140656 61.264656 63.388657 68.112434 70.941597 73.30349 77.551491 79.913376 83.6856 87.933601 90.057602 92.419487 96.667488 98.791489 101.15337 105.40137 109.1736 111.2976 117.43171 121.67971 124.0416 126.40349 130.1757 134.42371 136.54771 141.27148 143.63338 147.40559 149.76749 153.53972 156.84465 158.96866 163.21666 166.04582 167.94893 174.08304 180.69293 184.46515 187.29433 189.6562 193.42844 197.20065 199.32466 201.09183 206.28288 210.53088 212.89276 216.19771 218.32172 222.56972 226.81772 230.96376 233.32565 235.68753 239.45976 243.23198 245.59387 247.95576 252.20377 256.45175 258.57578 260.93765 264.24258 266.36658 270.61459 273.44376 277.69177 280.05365 283.82587 287.59808 289.95999 293.73221 297.98019 300.10422 304.29272 308.54074 310.66473 314.43695 318.68497 322.72055 326.96857 329.79773 332.15961 336.40762 340.65561 343.01752 345.14151"
           y="34.995026"
           sodipodi:role="line"
           id="tspan60">All rights reserved. Printed in the United States of America. This publication is protected by copyright, </tspan><tspan
           x="-4.2480001 -0.47577599 3.7722239 8.0202236 10.144224 14.392224 18.164448 21.214512 27.8244 30.186289 33.491234 36.796177 39.158066 43.406063 47.654064 49.778065 56.387951 60.635952 63.940895 66.302788 68.426781 72.674782 76.447006 78.571007 82.819008 87.067009 89.428894 93.201118 95.563011 99.811005 103.58323 107.83123 109.95523 112.7844 115.61357 119.86156 126.47146 128.59546 130.95734 135.20534 138.97757 141.10156 145.34956 149.59756 153.95601 156.3179 158.67979 161.98474 166.23274 170.00496 172.83412 174.95813 179.20613 182.03529 184.39719 188.64519 191.47435 193.59836 195.96024 200.20824 202.33224 206.10446 210.259 214.507 216.63101 220.87901 223.70818 227.95618 232.20418 234.56607 238.81406 241.17595 243.53784 247.31006 251.55806 253.68207 256.51123 260.28345 264.53146 267.36063 271.60861 275.85663 280.10461 283.87686 286.23874 288.60062 292.84863 297.09662 299.22061 301.34464 304.64957 307.01144 311.25946 314.08862 317.86084 322.10886 325.88107 328.00507 330.36697 334.61496 336.73895 340.51117"
           y="43.992287"
           sodipodi:role="line"
           id="tspan62">and permission must be obtained from the publisher prior to any prohibited reproduction, storage in a </tspan><tspan
           x="-4.2480001 -1.4188319 2.3533919 4.7152801 7.5444479 9.9063358 13.500144 17.544241 21.316463 23.678352 25.802353 29.107296 33.355297 36.66024 39.022129 42.794353 49.40424 51.52824 53.652241 57.900242 60.729408 62.853409 65.215294 68.044464 71.816689 76.06469 79.369629 85.979523 88.341408 91.646355 94.951294 97.313187 101.56119 105.80918 107.93318 110.29507 114.54308 116.66707 120.43929 124.68729 128.9353 131.0593 133.88846 138.13646 141.16954 147.77942 149.90343 154.15143 156.98059 159.1046 163.19116 167.43916 169.56317 173.33539 177.40498 181.65297 183.77698 190.38687 194.15909 197.9313 202.17931 205.48425 207.60826 209.73225 213.50449 215.86636 219.6386 223.41081 225.77271 228.60187 232.84987 237.09787 239.45976 243.23198 245.35599 247.47998 254.08987 257.86209 261.63431 265.88232 269.65454 273.90256 276.26443 280.03665 283.80887 286.17078 288.29477 290.41876 294.66678 298.91476 303.16278 305.52466 309.77264 313.54489 317.79288 322.09186 326.33984 328.70175 332.94974 337.19775 339.32175"
           y="52.989552"
           sodipodi:role="line"
           id="tspan64">retrieval system, or transmission in any form or by any means, electronic, mechanical, photocopying, </tspan><tspan
           x="-4.2480001 -1.4188319 2.3533919 6.1256161 10.373616 13.202784 17.450785 19.812672 24.060673 28.308672 30.432673 32.556671 36.804672 39.633839 41.757839 44.119728 46.481617 50.729614 54.297935 60.432049 62.793938 66.098877 69.871101 71.995102 74.119102 78.469055 82.717056 85.546227 87.670227 90.032112 94.280113 97.109283 101.35728 104.40734 111.01723 114.78946 117.15134 119.51323 123.76123 128.00923 130.13322 132.9624 136.67516 140.92316 144.69537 147.52455 151.77254 154.13443 158.38243 162.63043 164.75443 169.00243 172.77466 175.84171 182.4516 184.81349 188.11844 191.42337 193.78526 198.03326 202.28127 205.58621 207.71021 209.83421 215.96832 218.79749 221.15938 223.52127 227.29349 229.41748 231.77937 236.02737"
           y="61.986816"
           sodipodi:role="line"
           id="tspan66">recording, or likewise. For information regarding permissions, write to:</tspan><tspan
           x="26.753904 31.146336 34.91856 38.690784 41.519951 44.824898 49.072895 53.320896 55.444897 60.635952 64.883949 69.13195 72.904175 76.676399 79.038284 81.400177 85.648178 89.896179 92.02018 94.144173 96.973343 101.22134"
           y="74.985695"
           sodipodi:role="line"
           id="tspan68">Pearson Education, Inc</tspan><tspan
           x="26.753904 32.420734 34.782623 39.030624 43.278625 45.640511 48.945457 51.069454 54.841679 59.08968 63.337681 65.461678 71.12851 75.376511 79.624512 81.986397 84.815567 88.587791 92.360016 94.721901 98.026848 100.15085 106.28496 110.05718 114.30518 118.07741 121.2719 123.63379 130.24368 134.0159 138.2639"
           y="83.982964"
           sodipodi:role="line"
           id="tspan70">Rights and Contracts Department</tspan><tspan
           x="26.753904 31.001904 35.249905 39.497906 41.621902 47.288734 51.213886 55.461887 57.823776 61.128719 63.490608 67.738609 71.98661 74.110611 78.834381 81.196274 84.025436 87.797661 91.569885 93.931778 96.055779 98.179779 102.90355 107.15155 109.51344 111.87533 115.64755 117.77155 122.01955 126.26756"
           y="92.980225"
           sodipodi:role="line"
           id="tspan72">501 Boylston Street, Suite 900</tspan><tspan
           x="26.753904 32.420734 36.668736 39.973679 42.335567 46.583569 50.83157 52.955566 55.079567 62.632511 68.766624 70.890625 75.138626 79.386627 83.634621 87.882622"
           y="101.97749"
           sodipodi:role="line"
           id="tspan74">Boston, MA 02116</tspan><tspan
           x="26.753904 30.976416 34.748638 38.996639 41.358528 43.482529 46.311695 50.559696 54.807697 59.055695 61.884865 64.008865 68.256866 72.504868 76.752861 79.582031 83.830032 88.078033 92.326035"
           y="110.97475"
           sodipodi:role="line"
           id="tspan76">Fax: (617) 671-3447</tspan><tspan
           x="-4.2480001 -1.4188319 3.304944 8.971776 15.105888 17.935057 22.183056 26.431055 33.108913 37.356911 41.604912 45.852913 48.682079 52.93008 55.759247 60.007248 64.255249 67.084419 71.332413 75.580414 79.828415 84.076416 88.324417 92.572418 95.401581"
           y="123.97363"
           sodipodi:role="line"
           id="tspan78">ISBN-13:978-0-13-235088-4</tspan><tspan
           x="-4.2480001 -1.4171329 3.3083425 8.9768734 15.112685 17.943552 22.193251 26.442951 33.122505 48.731358 52.981056 55.811924 60.061623 64.311325 67.142189 71.391891 75.641586 79.891289 84.140984 88.390686 92.640381 95.471252"
           y="132.9709"
           sodipodi:role="line"
           id="tspan80">ISBN-10: 0-13-235088-2</tspan><tspan
           x="-4.2480001 0.101952 3.7552321 8.003232 10.36512 12.48912 16.73712 19.566288 21.928177 26.176176 28.538063 32.310287 36.558289 38.682289 41.044174 45.292175 47.416176 49.778065 54.026066 57.798286 59.922287 66.056396 70.304398 72.66629 75.028175 78.8004 83.048401 85.172401 89.896179 92.258064 96.030289 98.392174 102.1644 105.46935 107.59335 111.84135 116.08934 118.21334 121.04251 124.81474 128.7144 132.9624 136.73462 139.09651 142.86873 147.11673 149.24074 153.48874 157.26096 161.50896 165.28119 168.11035 170.23434 174.00658 176.36847 178.49246 184.1593 188.4073 192.65529 195.48447 197.84636 201.61858 204.44774 206.57175 208.93364 213.18163 215.30563 220.0294 222.3913 226.6393 230.8873 235.1353 239.3833 241.74518 245.99318 250.24118 252.36519 254.48918 262.04211 265.81436 269.11929 272.42422 276.19647 279.96869 284.21667 288.46469 291.76962 295.54187 297.90375 300.26562 303.57059"
           y="141.96815"
           sodipodi:role="line"
           id="tspan82">Text printed in the United States on recycled paper at Courier in Stoughton, Massachusetts.</tspan><tspan
           x="-4.2480001 0.31435201 2.67624 5.5054078 8.8103523 11.17224 13.29624 17.544241 20.373407 22.735296 26.983295 29.345184 31.707071 35.95507 40.203072 42.327072 45.632015 49.880016 52.131454 55.665791 57.789791 59.913792 64.161789 68.40979 72.657791"
           y="150.96542"
           sodipodi:role="line"
           id="tspan84">First printing July, 2008</tspan></text>
      <g
         id="g88"
         transform="translate(-43)">
        <path
           d="m 79.92,459.112 h 443"
           style="fill:none;stroke:#231f20;stroke-width:1;stroke-linecap:butt;stroke-linejoin:miter;stroke-miterlimit:10;stroke-dasharray:none;stroke-opacity:1"
           id="path90" />
      </g>
      <g
         id="g92"
         transform="translate(-43)">
        <path
           d="m 79.92,306.112 h 443"
           style="fill:none;stroke:#231f20;stroke-width:1;stroke-linecap:butt;stroke-linejoin:miter;stroke-miterlimit:10;stroke-dasharray:none;stroke-opacity:1"
           id="path94" />
      </g>
      <g
         id="g96"
         transform="translate(-43)">
        <g
           id="g98"
           clip-path="url(#clipPath102)">
          <path
             d="m -37.08,664.778 h 36 m -36,-666 h 36 m 522,0 h 36 m -36,666 h 36 m -549,45 v -36 m 504,36 v -36 m 0,-684 v -36 m -504,36 v -36"
             style="fill:none;stroke:#ffffff;stroke-width:0.75;stroke-linecap:butt;stroke-linejoin:miter;stroke-miterlimit:10;stroke-dasharray:none;stroke-opacity:1"
             id="path104" />
          <path
             d="m -37.08,664.778 h 36 m -36,-666 h 36 m 522,0 h 36 m -36,666 h 36 m -549,45 v -36 m 504,36 v -36 m 0,-684 v -36 m -504,36 v -36 m -12,378 c 0,3.312 -2.688,6 -6,6 -3.312,0 -6,-2.688 -6,-6 0,-3.312 2.688,-6 6,-6 3.312,0 6,2.688 6,6 z m -24,0 h 27 m -9,24 v -48 m 545.94,24 c 0,3.312 -2.688,6 -6,6 -3.312,0 -6,-2.688 -6,-6 0,-3.312 2.688,-6 6,-6 3.312,0 6,2.688 6,6 z m -14.94,0 h 27 m -18,24 v -48 m -534,345 c 0,3.312 -2.688,6 -6,6 -3.312,0 -6,-2.688 -6,-6 0,-3.312 2.688,-6 6,-6 3.312,0 6,2.688 6,6 z m -24,0 h 27 m -9,9 v -33 m 6,-618 c 0,3.312 -2.688,6 -6,6 -3.312,0 -6,-2.688 -6,-6 0,-3.312 2.688,-6 6,-6 3.312,0 6,2.688 6,6 z m -24,0 h 27 m -9,24 v -33 m 545.94,651 c 0,3.312 -2.688,6 -6,6 -3.312,0 -6,-2.688 -6,-6 0,-3.312 2.688,-6 6,-6 3.312,0 6,2.688 6,6 z m -14.94,0 h 27 m -18,9 v -33 m 5.94,-618 c 0,3.312 -2.688,6 -6,6 -3.312,0 -6,-2.688 -6,-6 0,-3.312 2.688,-6 6,-6 3.312,0 6,2.688 6,6 z m -14.94,0 h 27 m -18,24 v -33"
             style="fill:none;stroke:#000000;stroke-width:0.25;stroke-linecap:butt;stroke-linejoin:miter;stroke-miterlimit:10;stroke-dasharray:none;stroke-opacity:1"
             id="path106" />
        </g>
      </g>
    </g>
    <g
       id="g108">
      <g
         id="g110"
         transform="translate(218,6.56)">
        <text
           xml:space="preserve"
           transform="scale(1,-1)"
           style="font-variant:normal;font-weight:normal;font-size:10px;font-family:Helvetica;-inkscape-font-specification:Helvetica;writing-mode:lr-tb;fill:#0000ff;fill-opacity:1;fill-rule:nonzero;stroke:none"
           id="text114"><tspan
             x="0 7.2199998 14.44 21.66 24.440001 26.66 29.440001 32.77 38.330002 43.889999 49.450001 55.009998 60.009998 65.010002 67.790001 70.010002 75.57 78.349998"
             y="0"
             sodipodi:role="line"
             id="tspan112">www.it-ebooks.info</tspan></text>
        <g
           id="g116"
           transform="translate(-218,-6.56)" />
      </g>
    </g>
  </g>
</svg>
