<?xml version="1.0" encoding="UTF-8" standalone="no"?>
<!-- Created with Inkscape (http://www.inkscape.org/) -->

<svg
   version="1.1"
   id="svg2"
   width="690.14398"
   height="888.47998"
   viewBox="0 0 690.14398 888.47998"
   sodipodi:docname="4PmrqTPDrJV6cyWn.pdf"
   xmlns:inkscape="http://www.inkscape.org/namespaces/inkscape"
   xmlns:sodipodi="http://sodipodi.sourceforge.net/DTD/sodipodi-0.dtd"
   xmlns="http://www.w3.org/2000/svg"
   xmlns:svg="http://www.w3.org/2000/svg">
  <defs
     id="defs6">
    <clipPath
       clipPathUnits="userSpaceOnUse"
       id="clipPath152">
      <path
         d="M 0,665.858 H 519.84 V 0 H 0 Z"
         id="path150" />
    </clipPath>
  </defs>
  <sodipodi:namedview
     id="namedview4"
     pagecolor="#ffffff"
     bordercolor="#000000"
     borderopacity="0.25"
     inkscape:showpageshadow="2"
     inkscape:pageopacity="0.0"
     inkscape:pagecheckerboard="0"
     inkscape:deskcolor="#d1d1d1" />
  <g
     id="g8"
     inkscape:groupmode="layer"
     inkscape:label="4PmrqTPDrJV6cyWn"
     transform="matrix(1.3333333,0,0,-1.3333333,-1.46,887.61333)">
    <g
       id="g10">
      <g
         id="g12">
        <text
           xml:space="preserve"
           transform="matrix(1,0,0,-1,79.92,622.111)"
           style="font-variant:normal;font-weight:normal;font-size:10px;font-family:'Times New Roman';-inkscape-font-specification:TimesNewRomanPS;writing-mode:lr-tb;fill:#231f20;fill-opacity:1;fill-rule:nonzero;stroke:none"
           id="text16"><tspan
             x="0 5"
             y="0"
             sodipodi:role="line"
             id="tspan14">22</tspan></text>
        <text
           xml:space="preserve"
           transform="matrix(1,0,0,-1,310.237,622.111)"
           style="font-variant:normal;font-weight:bold;font-size:10px;font-family:'Times New Roman';-inkscape-font-specification:TimesNewRomanPS-Bold;writing-mode:lr-tb;fill:#231f20;fill-opacity:1;fill-rule:nonzero;stroke:none"
           id="text20"><tspan
             x="0 7.2199998 12.78 17.780001 23.34 26.67 31.110001 35.549999 38.148998 43.148998 46.181 48.779999 58.220001 62.66 67.660004 73.220001 76 81.559998 86.559998 89.889999 95.449997 98.230003 100.829 108.049 113.049 121.379 125.819"
             y="0"
             sodipodi:role="line"
             id="tspan18">Chapter 2: Meaningful Names</tspan></text>
        <text
           xml:space="preserve"
           transform="matrix(1,0,0,-1,79.92,586.111)"
           style="font-variant:normal;font-weight:normal;font-size:10px;font-family:'Times New Roman';-inkscape-font-specification:TimesNewRomanPS;writing-mode:lr-tb;fill:#231f20;fill-opacity:1;fill-rule:nonzero;stroke:none"
           id="text34"><tspan
             x="0 4.4400001 9.4399996 14.191 18.631001 23.631001 26.410999 30.851 35.851002 40.291 44.051998 49.051998 52.382 56.143002 58.923 63.923 68.362999 71.142998 74.903999 79.903999 84.903999 89.903999 94.344002 98.105003 103.105 108.105 111.633 114.413 117.193 122.193 127.193 130.95399 135.95399 139.284 143.045 148.045 153.045 156.375 160.136 165.136 168.466 172.90601 175.686 180.686 184.576 188.33701 191.117 196.117 200.55701 203.33701 207.09801 212.09801 216.53799 220.42799 224.189 228.38 233.18201 238.18201 240.96201 245.813 250.25301 255.25301 259.01401 261.79401 266.79401 270.55499 275.55499 279.995 284.435 287.215 290.97601 298.19601 300.97601 303.75601 308.75601 312.517 316.40701 321.40701 326.40701 331.30899 335.74899 340.74899 344.51001 347.29001 351.73001 356.73001"
             y="0"
             sodipodi:role="line"
             id="tspan22">advantage of that huge portion of our brains that has evolved to deal with spoken lan-</tspan><tspan
             x="0 5 10 14.44 19.440001 23.879999 26.379999 28.879999 34.439999 39.439999 41.939999 49.720001 54.16 59.062 63.501999 66.001999 70.804001 75.804001 80.804001 84.134003 86.634003 91.634003 96.073997 103.854 108.294 112.184 114.684 119.684 123.014 128.01401 133.01401 138.01401 143.01401 148.01401 152.45399 156.894 161.334 166.136 168.916 173.356"
             y="12"
             sodipodi:role="line"
             id="tspan24">guage. So make your names pronounceable.</tspan><tspan
             x="18 21.33 24.66 27.823999 32.625999 37.625999 42.625999 45.790001 50.23 54.669998 59.669998 62.501999 65.281998 68.445999 73.445999 76.776001 81.776001 86.776001 91.776001 96.776001 101.776 106.216 110.656 113.82 116.6 119.38 121.88 125.044 129.84599 134.84599 139.84599 143.00999 147.45 151.89 156.89 159.722 162.502 165.666 170.666 173.446 177.336 181.776 186.776 190.666 194.556 197.72 200.5 203.28 206.444 213.664 216.444 219.224 224.224 229.224 234.224 237.004 240.168 244.058 249.058 254.058 259.05801 264.05801 266.83801 271.83801 276.83801 280.00201 282.78201 285.56201 290.46399 294.90399 298.06799 302.508 307.508 310.672 313.452 318.452 321.23199 326.23199 329.01199 331.51199 334.67599 339.116 347.556 351.996 354.776 357.556"
             y="27"
             sodipodi:role="line"
             id="tspan26">If you can’t pronounce it, you can’t discuss it without sounding like an idiot. “Well,</tspan><tspan
             x="0 4.5510001 9.401 13.841 17.171 20.114 25.114 29.554001 32.883999 37.324001 40.266998 45.266998 50.266998 53.209999 55.990002 60.990002 65.43 68.373001 73.373001 77.813004 82.252998 85.195999 89.636002 94.075996 98.515999 101.459 105.899 109.527 112.857 115.8 118.58 123.58 126.91 131.35001 135.78999 138.733 143.173 147.61301 152.05299 154.996 159.436 164.436 169.436 172.379 175.159 179.599 184.039 186.98199 193.853 198.293 201.23599 206.23599 210.327 215.17799 219.618 222.561 227.00101 229.944 234.944 239.384 243.82401 246.767 251.207 255.097 258.987 261.92999 266.37 270.81 275.25 278.19299 283.04401 287.84601 292.03699 299.25699 302.20001 304.98001 309.98001 312.76001 315.26001 318.203 322.09299 326.53299 330.97299 335.41299 339.853 342.298 348.40799 353.40799 356.18799"
             y="39"
             sodipodi:role="line"
             id="tspan28">over here on the bee cee arr three cee enn tee we have a pee ess zee kyew int, see?” This</tspan><tspan
             x="0 7.7800002 12.22 15 17.780001 22.219999 25.549999 29.440001 31.940001 36.939999 41.380001 45.82 50.259998 55.259998 59.150002 63.59 66.089996 71.089996 74.419998 79.170998 84.369003 87.698997 92.139 99.918999 107.699 110.479 115.479 120.479 122.979 125.759 129.649 132.149 136.589 139.089 142.979 147.979 152.41901 155.19901 159.63901 162.41901 164.91901 169.35899 173.799 176.57899 179.11 184.11 186.89 189.67 193.82001"
             y="51"
             sodipodi:role="line"
             id="tspan30">matters because programming is a social activity.</tspan><tspan
             x="18 25.219999 28.787001 33.227001 38.227001 46.007 51.007 55.446999 60.198002 65.197998 68.764999 72.095001 75.662003 80.662003 85.662003 90.264 97.484001 101.051 106.051 110.491 114.381"
             y="66"
             sodipodi:role="line"
             id="tspan32">A company I know has </tspan></text>
        <text
           xml:space="preserve"
           transform="matrix(0.80015552,0,0,-1,197.857,520.111)"
           style="font-variant:normal;font-weight:normal;font-size:9.002px;font-family:'Courier New';-inkscape-font-specification:Courier;writing-mode:lr-tb;fill:#231f20;fill-opacity:1;fill-rule:nonzero;stroke:none"
           id="text38"><tspan
             x="0 5.4011998 10.8024 16.2036 21.604799 27.006001 32.4072 37.808399 43.209599"
             y="0"
             sodipodi:role="line"
             id="tspan36">genymdhms</tspan></text>
        <text
           xml:space="preserve"
           transform="matrix(1,0,0,-1,240.227,520.111)"
           style="font-variant:normal;font-weight:normal;font-size:10px;font-family:'Times New Roman';-inkscape-font-specification:TimesNewRomanPS;writing-mode:lr-tb;fill:#231f20;fill-opacity:1;fill-rule:nonzero;stroke:none"
           id="text54"><tspan
             x="0 3.3299999 8.3299999 12.77 17.77 22.209999 25.540001 29.98 32.759998 35.540001 40.540001 45.540001 49.106998 54.106998 58.547001 61.327 65.766998 68.266998 71.834 76.636002 81.075996 85.515999 88.447998 90.947998 94.514999 102.295 107.295 112.295 115.075 120.075 122.575 126.142 131.142 135.233 139.383 141.883 145.45 150.45 155.45 160.45 163.382 165.882 169.44901 177.229 180.009 185.009 190.009 192.789 197.229"
             y="0"
             sodipodi:role="line"
             id="tspan40">(generation date, year, month, day, hour, minute,</tspan><tspan
             x="-160.30701 -155.867 -150.867 -145.867 -142.74001 -138.85001 -134.41 -129.97 -124.97 -119.97 -114.97 -111.64 -108.513 -104.623 -99.623001 -96.496002 -93.716003 -88.716003 -84.425003 -79.425003 -76.297997 -69.327003 -64.887001 -62.106998 -57.205002 -52.764999 -47.764999 -44.638 -40.198002 -36.868 -31.868 -26.868 -21.868 -16.868 -13.741 -9.8509998 -5.7600002 -0.75999999 2.02 7.02 12.02 15.147 19.587 24.587 29.027 34.027 37.153999 44.175999 48.877998 53.877998 57.005001 61.445 69.224998 77.004997 80.132004 85.132004 89.571999 94.012001 97.139 101.579 104.359 108.799 113.799 116.926 121.366 129.146 136.92599 140.05299 144.493 148.383 152.27299 156.713 159.213 162.34 165.67 168.797 173.797 177.888 182.739 187.179 190.306 194.746"
             y="12"
             sodipodi:role="line"
             id="tspan42">and second) so they walked around saying “gen why emm dee aich emm ess”. I have an</tspan><tspan
             x="-160.30701 -155.867 -150.867 -145.867 -141.31599 -136.31599 -133.536 -128.536 -123.536 -121.052 -116.052 -111.612 -106.612 -103.832 -101.052 -98.568001 -93.568001 -90.237999 -87.753998 -82.753998 -79.424004 -74.424004 -69.424004 -64.424004 -59.424 -54.424 -49.984001 -47.203999 -42.203999 -37.203999 -34.720001 -30.528999 -25.677999 -21.238001 -17.709999 -12.71 -9.9300003 -4.9299998 -2.1500001 2.8499999 7.8499999 10.334 14.774 18.664 21.148001 28.368 31.698 34.478001 37.257999 40.037998 44.478001 49.478001 51.978001 54.462002 58.352001 63.352001 65.835999 69.166 71.650002 75.540001 78.32 82.760002 86.288002 89.068001 93.508003 98.508003 100.992 104.882 108.973 113.973 116.753 121.753 126.753 129.237 133.677 138.677 143.117 148.117 151.44701 156.44701 160.88699 165.88699 169.217 176.99699 181.99699 186.99699 191.99699 196.437"
             y="24"
             sodipodi:role="line"
             id="tspan44">annoying habit of pronouncing everything as written, so I started saying “gen-yah-mudda-</tspan><tspan
             x="-160.30701 -155.30701 -152.52699 -144.74699 -140.85699 -139.05499 -134.61501 -130.364 -127.034 -124.254 -120.003 -117.223 -112.783 -110.003 -105.563 -102.233 -97.982002 -91.011002 -86.570999 -82.681 -78.43 -73.43 -68.989998 -66.209999 -61.209999 -56.209999 -51.959 -47.519001 -43.078999 -40.299 -37.519001 -33.078999 -28.079 -23.827999 -21.048 -16.048 -13.268 -9.3780003 -5.1269999 -0.37599999 4.6240001 8.875 13.315 17.566 22.566 27.566 31.455999 34.236 38.487 43.487 46.817001 51.068001 56.068001 60.507999 64.398003 67.178001 72.178001 77.178001 81.617996 84.947998 88.837997 93.088997 97.528999 102.529 107.529 111.78 116.22 121.22 125.66 128.19099 133.19099 137.08099 139.86099 143.75101 146.25101 150.502 154.942 159.942 164.942 169.19299 176.064 180.504 184.755 188.645 191.425 194.205 196.985"
             y="36"
             sodipodi:role="line"
             id="tspan46">hims.” It later was being called this by a host of designers and analysts, and we still</tspan><tspan
             x="-160.30701 -156.41701 -151.41701 -146.41701 -141.41701 -136.41701 -131.97701 -126.977 -123.635 -119.745 -116.965 -114.185 -111.654 -107.504 -105.004 -101.662 -94.991997 -89.991997 -87.211998 -83.870003 -76.999001 -72.558998 -69.217003 -62.346001 -57.905998 -54.576 -50.136002 -46.793999 -44.014 -39.014 -35.672001 -30.672001 -25.672001 -22.33 -19.549999 -14.55 -10.11 -6.7680001 -3.9879999 1.012 5.914 10.354 12.854 16.195999 20.086 25.086 28.427999 31.208 33.987999 37.330002 44.300999 48.741001 52.631001 55.973 59.303001 64.303001 69.303001 71.803001 75.144997 80.705002 85.705002 90.705002 94.046997 99.046997 102.377 105.719 110.719 115.719 118.499 120.999 124.341 131.21201 135.65199 138.994 145.86501 150.30499 153.63499 158.075 161.41701 164.19701 169.19701 171.97701 176.41701 179.74699 184.187 186.967 189.74699 194.74699"
             y="48"
             sodipodi:role="line"
             id="tspan48">sounded silly. But we were in on the joke, so it was fun. Fun or not, we were tolerating</tspan><tspan
             x="-160.30701 -155.30701 -150.30701 -145.30701 -141.97701 -139.015 -134.015 -129.575 -121.795 -119.015 -114.015 -109.015 -106.515 -103.553 -96.333 -92.141998 -84.921997 -81.959999 -76.959999 -72.768997 -67.917999 -63.478001 -60.698002 -55.698002 -50.698002 -46.257999 -42.928001 -39.037998 -36.076 -31.076 -26.636 -21.636 -18.674 -15.894 -10.894 -7.9320002 -2.9319999 1.159 6.0100002 10.45 13.412 16.191999 21.191999 25.632 28.594 33.345001 37.785 41.115002 43.895 48.334999 53.137001 55.917 60.356998 64.247002 67.209 71.5 76.5 81.5 84.279999 88.720001 91.5 96.5 100.94 105.94 108.902 111.682 116.682 119.644 122.424 127.424 131.864 139.644 142.144 145.106 149.54601 154.54601 159.54601 162.508 165.28799 170.28799 174.728 179.728 182.69 185.47 190.47 194.761"
             y="60"
             sodipodi:role="line"
             id="tspan50">poor naming. New developers had to have the variables explained to them, and then they</tspan><tspan
             x="-160.30701 -156.41701 -151.41701 -146.41701 -141.515 -137.075 -134.575 -130.13499 -125.135 -120.135 -115.135 -112.355 -109.855 -107.075 -104.295 -101.795 -99.014999 -94.014999 -91.514999 -87.625 -84.845001 -82.065002 -79.533997 -74.533997 -72.033997 -64.253998 -59.813999 -54.813999 -50.374001 -47.043999 -42.043999 -37.043999 -34.543999 -27.722 -22.722 -19.392 -14.392 -10.502 -8.0019999 -5.2220001 -0.222 3.668 6.448 10.888 15.328 20.327999 22.827999 27.827999 31.158001 33.658001 38.658001 42.548 45.327999 50.327999 55.327999 57.827999 62.827999 66.157997 71.157997 76.157997 80.598 83.928001 86.428001 92.538002 97.538002 102.538 105.318 108.098 111.988 116.988 119.488 122.268 126.708 130.23599 138.01601 141.90601 144.40601 146.90601 153.576 158.576 166.356 171.356 175.79601 179.12601"
             y="72"
             sodipodi:role="line"
             id="tspan52">spoke about it in silly made-up words instead of using proper English terms. Compare</tspan></text>
        <text
           xml:space="preserve"
           transform="matrix(0.80015552,0,0,-1,97.92,430.778)"
           style="font-variant:normal;font-weight:normal;font-size:9.002px;font-family:'Courier New';-inkscape-font-specification:Courier;writing-mode:lr-tb;fill:#231f20;fill-opacity:1;fill-rule:nonzero;stroke:none"
           id="text68"><tspan
             x="0 5.4011998 10.8024 16.2036 21.604799 27.006001 32.4072 37.808399 43.209599 48.610802 54.012001 59.4132 64.8144 70.215599 75.616798 81.017998 86.419197 91.820396"
             y="0"
             sodipodi:role="line"
             id="tspan56">class DtaRcrd102 {</tspan><tspan
             x="12.597399 17.998598 23.399799 28.800999 34.202198 39.603397 45.004601 50.4058 55.806999 61.208199 66.609398 72.010597 77.411797 82.812996 88.214195 93.615402 99.016602 104.4178 109.819 115.2202 120.6214 126.0226 131.4238 136.825"
             y="9.0001993"
             sodipodi:role="line"
             id="tspan58">private Date genymdhms; </tspan><tspan
             x="12.597399 17.998598 23.399799 28.800999 34.202198 39.603397 45.004601 50.4058 55.806999 61.208199 66.609398 72.010597 77.411797 82.812996 88.214195 93.615402 99.016602 104.4178 109.819 115.2202 120.6214 126.0226 131.4238"
             y="18.000399"
             sodipodi:role="line"
             id="tspan60">private Date modymdhms;</tspan><tspan
             x="12.597399 17.998598 23.399799 28.800999 34.202198 39.603397 45.004601 50.4058 55.806999 61.208199 66.609398 72.010597 77.411797 82.812996 88.214195 93.615402 99.016602 104.4178 109.819 115.2202 120.6214 126.0226 131.4238 136.825 142.2262 147.6274 153.02859 158.42979 163.83099 169.23219 174.63339 180.03459 185.43581 190.83701 196.2382 201.6394 207.0406"
             y="27.001499"
             sodipodi:role="line"
             id="tspan62">private final String pszqint = &quot;102&quot;;</tspan><tspan
             x="12.597399 17.998598 23.399799 28.800999 34.202198 39.603397 45.004601 50.4058 55.806999"
             y="36.001698"
             sodipodi:role="line"
             id="tspan64">/* ... */</tspan><tspan
             x="0 5.4011998"
             y="45.0019"
             sodipodi:role="line"
             id="tspan66">};</tspan></text>
        <text
           xml:space="preserve"
           transform="matrix(1,0,0,-1,79.92,370.1121)"
           style="font-variant:normal;font-weight:normal;font-size:10px;font-family:'Times New Roman';-inkscape-font-specification:TimesNewRomanPS;writing-mode:lr-tb;fill:#231f20;fill-opacity:1;fill-rule:nonzero;stroke:none"
           id="text72"><tspan
             x="0 2.78"
             y="0"
             sodipodi:role="line"
             id="tspan70">to</tspan></text>
        <text
           xml:space="preserve"
           transform="matrix(0.80015552,0,0,-1,97.92,352.778)"
           style="font-variant:normal;font-weight:normal;font-size:9.002px;font-family:'Courier New';-inkscape-font-specification:Courier;writing-mode:lr-tb;fill:#231f20;fill-opacity:1;fill-rule:nonzero;stroke:none"
           id="text86"><tspan
             x="0 5.4011998 10.8024 16.2036 21.604799 27.006001 32.4072 37.808399 43.209599 48.610802 54.012001 59.4132 64.8144 70.215599 75.616798 81.017998"
             y="0"
             sodipodi:role="line"
             id="tspan74">class Customer {</tspan><tspan
             x="12.597399 17.998598 23.399799 28.800999 34.202198 39.603397 45.004601 50.4058 55.806999 61.208199 66.609398 72.010597 77.411797 82.812996 88.214195 93.615402 99.016602 104.4178 109.819 115.2202 120.6214 126.0226 131.4238 136.825 142.2262 147.6274 153.02859 158.42979 163.83099 169.23219 174.63339 180.03459 185.43581 190.83701"
             y="9.0001993"
             sodipodi:role="line"
             id="tspan76">private Date generationTimestamp; </tspan><tspan
             x="12.597399 17.998598 23.399799 28.800999 34.202198 39.603397 45.004601 50.4058 55.806999 61.208199 66.609398 72.010597 77.411797 82.812996 88.214195 93.615402 99.016602 104.4178 109.819 115.2202 120.6214 126.0226 131.4238 136.825 142.2262 147.6274 153.02859 158.42979 163.83099 169.23219 174.63339 180.03459 185.43581 190.83701 196.2382 201.6394"
             y="18.000399"
             sodipodi:role="line"
             id="tspan78">private Date modificationTimestamp;;</tspan><tspan
             x="12.597399 17.998598 23.399799 28.800999 34.202198 39.603397 45.004601 50.4058 55.806999 61.208199 66.609398 72.010597 77.411797 82.812996 88.214195 93.615402 99.016602 104.4178 109.819 115.2202 120.6214 126.0226 131.4238 136.825 142.2262 147.6274 153.02859 158.42979 163.83099 169.23219 174.63339 180.03459 185.43581 190.83701 196.2382 201.6394 207.0406 212.4418"
             y="27.001499"
             sodipodi:role="line"
             id="tspan80">private final String recordId = &quot;102&quot;;</tspan><tspan
             x="12.597399 17.998598 23.399799 28.800999 34.202198 39.603397 45.004601 50.4058 55.806999"
             y="36.001698"
             sodipodi:role="line"
             id="tspan82">/* ... */</tspan><tspan
             x="0 5.4011998"
             y="45.0019"
             sodipodi:role="line"
             id="tspan84">};</tspan></text>
        <text
           xml:space="preserve"
           transform="matrix(1,0,0,-1,79.92,292.1121)"
           style="font-variant:normal;font-weight:normal;font-size:10px;font-family:'Times New Roman';-inkscape-font-specification:TimesNewRomanPS;writing-mode:lr-tb;fill:#231f20;fill-opacity:1;fill-rule:nonzero;stroke:none"
           id="text92"><tspan
             x="0 3.3299999 8.3299999 11.11 15.55 18.33 21.110001 23.889999 28.889999 33.330002 38.330002 41.110001 43.773998 48.214001 53.214001 57.816002 62.667 67.107002 70.436996 74.327003 78.766998 81.546997 84.327003 89.327003 94.327003 96.990997 99.771004 103.661 106.325 111.325 115.927 123.147 125.811 130.811 135.811 139.701 143.591 146.371 151.173 153.953 158.39301 161.173 163.83701 168.27699 175.49699 179.78799 183.938 186.438 189.10201 197.992 200.772 205.674 209.965 214.11501 216.61501 219.27901 222.05901 226.49899 231.401 235.841 238.505 242.94501 245.60899 248.38901 253.38901 258.38901 263.38901 266.05301 270.49301 273.27301 275.93701 278.71701 283.71701 286.49701 290.38699 293.05099 296.38101 300.82101 305.26099 310.26099 313.591 318.591 321.92099 324.08701 330.19699 335.19699 339.63699 342.30099 347.30099 351.741 356.741"
             y="0"
             sodipodi:role="line"
             id="tspan88">Intelligent conversation is now possible: “Hey, Mikey, take a look at this record! The gen-</tspan><tspan
             x="0 4.4400001 7.77 12.21 14.99 17.77 22.77 27.77 30.27 33.049999 35.830002 43.610001 48.049999 51.939999 54.720001 59.16 66.940002 71.940002 74.440002 77.220001 81.110001 83.610001 87.5 91.940002 94.720001 97.220001 100 105 107.5 110.28 115.28 123.06 128.06 131.688 135.01801 139.62 146.84 148.771 152.661 155.161 160.161 164.601 167.381 171.821 175.151 177.651 184.871 189.47301 196.69299 199.19299 203.633 208.073 213.073 215.573 218.353 223.353 227.793 230.573 233.073 238.073 242.513 246.953"
             y="12"
             sodipodi:role="line"
             id="tspan90">eration timestamp is set to tomorrow’s date! How can that be?”</tspan></text>
        <text
           xml:space="preserve"
           transform="matrix(1,0,0,-1,79.92,247.445)"
           style="font-variant:normal;font-weight:bold;font-size:14px;font-family:'Times New Roman';-inkscape-font-specification:TimesNewRomanPS-Bold;writing-mode:lr-tb;fill:#231f20;fill-opacity:1;fill-rule:nonzero;stroke:none"
           id="text96"><tspan
             x="0 10.108 15.554 21.77 25.27 33.054001 39.27 46.27 52.068802 58.284801 66.068802 72.931602 80.4384 84.330399 90.546402 94.046402 104.1544 111.1544 122.8164 129.03239"
             y="0"
             sodipodi:role="line"
             id="tspan94">Use Searchable Names</tspan></text>
        <text
           xml:space="preserve"
           transform="matrix(1,0,0,-1,79.92,224.1121)"
           style="font-variant:normal;font-weight:normal;font-size:10px;font-family:'Times New Roman';-inkscape-font-specification:TimesNewRomanPS;writing-mode:lr-tb;fill:#231f20;fill-opacity:1;fill-rule:nonzero;stroke:none"
           id="text104"><tspan
             x="0 5.5599999 8.3400002 13.34 18.34 21.120001 25.559999 28.889999 31.67 36.110001 38.889999 41.669998 46.110001 49.439999 52.620998 57.620998 62.061001 69.841003 74.280998 78.170998 81.351997 85.792 90.792 95.792 98.973 103.973 108.973 116.753 121.193 124.523 127.303 131.743 134.924 139.364 144.364 149.364 153.254 156.034 160.474 165.474 168.254 172.144 175.325 180.325 184.416 189.267 193.707 196.888 201.328 204.509 209.509 213.94901 217.47701 220.257 223.037 227.47701 232.47701 235.257 239.69701 243.02699 246.20799 251.20799 254.53799 259.53799 264.34 267.12 271.56 279.34 282.521 285.30099 290.30099 293.48199 296.26199 301.26199 305.702 308.48199 311.66299 314.44299 319.44299 323.73401 328.73401 331.91501 336.35501 339.685 344.125 347.306 352.306 357.306"
             y="0"
             sodipodi:role="line"
             id="tspan98">Single-letter names and numeric constants have a particular problem in that they are not</tspan><tspan
             x="0 4.4400001 8.8800001 12.77 17.77 20.27 23.049999 28.049999 30.549999 33.330002 38.330002 42.77 47.209999 49.990002 54.43 56.93 61.369999 65.809998 69.139999 74.139999 78.029999 81.919998 84.419998 88.860001 91.360001 96.360001 101.36 106.36 111.36 113.86 118.86 122.19 124.69 127.47 131.761 136.761 139.541"
             y="12"
             sodipodi:role="line"
             id="tspan100">easy to locate across a body of text.</tspan><tspan
             x="18 25.219999 30.219999 34.66 37.564999 45.345001 48.125 53.125 58.125 60.904999 63.810001 68.25 72.690002 76.580002 79.360001 81.890999 86.890999 89.795998 94.994003 98.323997 102.764 107.764 110.669 113.999 118.999 122.329"
             y="27"
             sodipodi:role="line"
             id="tspan102">One might easily grep for </tspan></text>
        <text
           xml:space="preserve"
           transform="matrix(0.80015552,0,0,-1,205.132,197.1121)"
           style="font-variant:normal;font-weight:normal;font-size:9.002px;font-family:'Courier New';-inkscape-font-specification:Courier;writing-mode:lr-tb;fill:#231f20;fill-opacity:1;fill-rule:nonzero;stroke:none"
           id="text108"><tspan
             x="0 5.4011998 10.8024 16.2036 21.604799 27.006001 32.4072 37.808399 43.209599 48.610802 54.012001 59.4132 64.8144 70.215599 75.616798 81.017998 86.419197 91.820396 97.221603 102.6228 108.024 113.4252 118.8264"
             y="0"
             sodipodi:role="line"
             id="tspan106">MAX_CLASSES_PER_STUDENT</tspan></text>
        <text
           xml:space="preserve"
           transform="matrix(1,0,0,-1,304.295,197.1121)"
           style="font-variant:normal;font-weight:normal;font-size:10px;font-family:'Times New Roman';-inkscape-font-specification:TimesNewRomanPS;writing-mode:lr-tb;fill:#231f20;fill-opacity:1;fill-rule:nonzero;stroke:none"
           id="text122"><tspan
             x="0 2.5020001 5.4070001 10.409 15.411 18.193001 21.098 23.879999 28.882 33.324001 36.229 41.230999 46.233002 54.014999 59.016998 63.459 66.791 69.695999 74.697998 77.602997 82.044998 87.046997 92.049004 94.831001 99.833 102.738 107.74 112.182 115.087 122.869 127.871 131.203"
             y="0"
             sodipodi:role="line"
             id="tspan110">, but the number 7 could be more</tspan><tspan
             x="-224.375 -221.595 -218.265 -213.265 -208.265 -203.463 -200.683 -196.243 -192.353 -187.353 -179.573 -175.133 -172.633 -169.36 -163.8 -159.36 -154.92 -151.59 -147.14999 -142.14999 -137.71001 -133.82001 -130.547 -122.767 -118.676 -113.676 -110.403 -107.623 -102.623 -99.095001 -94.095001 -90.821999 -85.821999 -80.821999 -77.549004 -74.768997 -69.768997 -65.329002 -62.056 -57.056 -54.276001 -49.276001 -46.495998 -43.716 -40.443001 -36.002998 -32.112999 -28.84 -23.84 -19.4 -15.872 -13.092 -9.8190002 -4.8189998 -1.489 1.784 7.3439999 10.124 14.564 17.837 22.837 27.277 35.056999 39.497002 43.387001 45.887001 49.16 54.16 56.939999 61.939999 66.379997 69.709999 72.983002 77.422997 82.422997 87.422997 91.313004 94.093002 98.532997 103.533 106.313 109.586 114.586 119.026 124.586 129.586 132.366"
             y="12"
             sodipodi:role="line"
             id="tspan112">troublesome. Searches may turn up the digit as part of ﬁle names, other constant deﬁni-</tspan><tspan
             x="-224.375 -221.595 -218.815 -213.815 -208.815 -204.925 -202.425 -199.16901 -194.729 -189.729 -184.729 -181.47301 -178.69299 -173.69299 -170.437 -165.686 -161.246 -157.916 -155.136 -150.136 -145.136 -141.246 -137.99001 -133.69901 -128.69901 -123.699 -120.369 -115.929 -112.039 -108.149 -105.369 -100.369 -95.369003 -91.478996 -88.223 -81.200996 -76.200996 -71.761002 -68.431 -63.991001 -60.735001 -57.955002 -52.955002 -48.514999 -45.258999 -40.507999 -36.068001 -33.287998 -28.288 -23.848 -20.591999 -17.812 -13.922 -10.666 -5.6659999 -1.776 2.664 7.664 10.92 18.139999 20.92 23.700001 28.700001 31.955999 36.956001 39.736 42.817001 46.146999 50.587002 53.917 58.356998 63.356998 66.137001 69.392998 72.172997 77.172997 79.953003 84.392998 89.392998 92.172997 94.672997 97.929001 101.259 104.039 107.295 110.075 113.965 117.221 121.412 126.263 130.703"
             y="24"
             sodipodi:role="line"
             id="tspan114">tions, and in various expressions where the value is used with different intent. It is even</tspan><tspan
             x="-224.375 -217.55299 -212.55299 -209.22301 -205.33299 -200.89301 -196.37801 -189.356 -184.356 -179.916 -174.916 -170.401 -165.961 -161.446 -157.006 -152.006 -147.006 -143.116 -140.336 -135.896 -130.896 -128.116 -123.601 -120.821 -116.931 -112.416 -107.976 -103.461 -100.681 -95.681 -90.681 -85.681 -81.166 -76.166 -71.166 -63.386002 -58.386002 -53.945999 -50.616001 -46.101002 -41.660999 -36.660999 -31.660999 -27.146 -23.256001 -18.256001 -10.476 -6.0359998 -1.036 3.964 8.4040003 12.919 20.698999 23.479 28.479 33.479 36.258999 40.773998 45.773998 49.865002 54.716 59.155998 63.671001 66.450996 69.780998 74.221001 79.221001 83.111 88.111 93.111 97.000999 101.441 106.441 110.956 115.956 118.736 123.736 126.516 129.29601 133.186"
             y="36"
             sodipodi:role="line"
             id="tspan116">worse when a constant is a long number and someone might have transposed digits,</tspan><tspan
             x="-224.375 -221.59399 -216.593 -212.15199 -208.821 -204.38 -199.629 -194.62801 -192.12801 -187.687 -184.356 -179.91499 -175.474 -172.69299 -169.912 -164.911 -159.91 -157.41 -152.96899 -150.46899 -145.468 -140.467 -135.466 -132.966 -125.944 -120.943 -118.162 -115.381 -110.94 -108.44 -104.549 -101.768 -93.987 -88.986 -86.205002 -83.424004 -78.983002 -73.982002 -69.541 -64.540001 -59.539001 -55.647999 -53.117001 -48.116001 -45.616001 -41.424999 -36.674 -32.233002 -27.232 -24.451 -19.450001 -14.449 -11.949 -9.1680002 -4.1669998 0.27399999 2.7739999 7.7750001 11.106 15.857 21.055 24.386 28.827 36.608002 44.389 48.830002 52.160999 54.091999 57.983002 60.483002 64.374001 68.815002 73.255997 76.586998 81.028 86.028999"
             y="48"
             sodipodi:role="line"
             id="tspan118">thereby creating a bug while simultaneously evading the programmer’s search.</tspan><tspan
             x="-206.375 -200.265 -197.485 -192.58299 -188.392 -181.172 -178.392 -174.502 -170.062 -167.562 -164.972 -162.192 -157.192 -152.752 -150.162 -145.162 -140.722 -132.942 -128.502"
             y="63"
             sodipodi:role="line"
             id="tspan120">Likewise, the name </tspan></text>
        <text
           xml:space="preserve"
           transform="matrix(0.80015552,0,0,-1,178.367,134.112)"
           style="font-variant:normal;font-weight:normal;font-size:9.002px;font-family:'Courier New';-inkscape-font-specification:Courier;writing-mode:lr-tb;fill:#231f20;fill-opacity:1;fill-rule:nonzero;stroke:none"
           id="text126"><tspan
             x="0"
             y="0"
             id="tspan124">e</tspan></text>
        <text
           xml:space="preserve"
           transform="matrix(1,0,0,-1,185.268,134.112)"
           style="font-variant:normal;font-weight:normal;font-size:10px;font-family:'Times New Roman';-inkscape-font-specification:TimesNewRomanPS;writing-mode:lr-tb;fill:#231f20;fill-opacity:1;fill-rule:nonzero;stroke:none"
           id="text140"><tspan
             x="0 2.78 6.6700001 9.2600002 13.7 16.290001 21.290001 26.290001 31.290001 34.619999 37.209999 41.650002 46.650002 51.650002 54.43 58.869999 63.310001 65.900002 69.230003 74.230003 77.559998 80.150002 84.589996 89.341003 94.341003 96.931 101.682 106.122 109.452 112.232 116.672 121.474 124.254 128.694 131.284 134.614 139.614 142.944 145.534 152.556 157.556 160.336 164.776 169.776 172.366 176.806 179.396 184.396 187.726 192.47701 197.675 201.005 205.44501 213.22501 221.005 225.44501 228.77499 231.36501 239.145 241.925 246.925 251.925"
             y="0"
             sodipodi:role="line"
             id="tspan128">is a poor choice for any variable for which a programmer might</tspan><tspan
             x="-105.348 -100.348 -95.907997 -91.468002 -86.468002 -83.917999 -81.138 -76.138 -73.587997 -69.697998 -65.258003 -60.818001 -57.487999 -53.048 -48.048 -45.548 -42.998001 -39.667999 -36.888 -34.338001 -31.558001 -27.667999 -25.118 -22.337999 -17.337999 -12.898 -10.348 -2.5680001 2.4319999 6.322 9.1020002 11.652 16.091999 21.091999 28.872 36.652 41.652 46.652 49.202 51.981998 56.422001 59.202 61.981998 66.421997 69.751999 72.302002 75.082001 80.082001 82.632004 85.412003 90.412003 94.851997 97.402 103.512 108.512 113.512 116.292 119.072 122.962 127.962 130.51199 133.29201 137.73199 142.73199 147.73199 152.73199 157.172 162.172 166.612 169.162 173.60201 178.60201 183.60201 186.15199 188.93201 191.71201 196.614 201.054 203.58501 208.58501 211.13499 213.91499 218.91499 221.465 225.355 230.355 234.957 242.177 244.72701 249.72701"
             y="12"
             sodipodi:role="line"
             id="tspan130">need to search. It is the most common letter in the English language and likely to show up</tspan><tspan
             x="-105.348 -102.569 -97.57 -93.519997 -89.329002 -84.477997 -80.039001 -76.511002 -71.512001 -67.461998 -62.463001 -58.023998 -54.134998 -50.245998 -45.806999 -40.807999 -36.368999 -32.319 -27.32 -23.990999 -19.941 -17.162001 -12.871 -7.8720002 -5.0929999 -1.043 1.7359999 6.7350001 10.785 14.976 19.827 24.266001 27.794001 32.792999 36.842999 41.841999 45.171001 49.922001 55.119999 58.449001 62.888 70.667 73.166 77.216003 80.544998 85.543999 89.594002 92.373001 97.372002 100.151 104.04 108.09 111.419 115.71 120.709 125.148 128.47701 132.879 135.37801 139.42799 142.207 147.20599 152.205 157.20399 161.64301 164.972 169.022 174.021 178.46001 186.239 190.67799 194.567 198.617 201.396 204.924 209.923 217.702 222.701 226.75101 230.64 235.63901 240.638 244.166 246.94501 251.384"
             y="24"
             sodipodi:role="line"
             id="tspan132">in every passage of text in every program. In this regard, longer names trump shorter</tspan><tspan
             x="-105.348 -100.348 -95.907997 -88.127998 -83.688004 -79.797997 -77.297997 -74.797997 -70.358002 -65.358002 -60.358002 -57.858002 -53.417999 -48.667 -43.667 -41.167 -37.277 -32.837002 -28.396999 -25.066999 -20.627001 -15.627 -11.187 -6.3850002 -3.605 0.83499998 3.335 8.335 12.775 20.555 24.995001 27.495001 30.275 33.803001 38.803001 46.583 51.583 55.473 57.973 62.412998 64.913002 69.352997 74.352997 79.352997 83.242996 86.023003 90.462997 95.462997 98.242996 100.743 103.523 108.523 111.023 115.463 120.463 125.463 129.903"
             y="36"
             sodipodi:role="line"
             id="tspan134">names, and any searchable name trumps a constant in code.</tspan><tspan
             x="-87.348 -78.458 -73.458 -70.172997 -65.172997 -60.733002 -57.403 -53.513 -48.513 -43.513 -39.073002 -36.292999 -33.007999 -28.007999 -24.677999 -20.238001 -16.908001 -12.468 -9.1379995 -4.698 0.30199999 4.7420001 9.1820002 12.467 15.247 19.136999 22.422001 25.202 30.202 34.641998 37.422001 40.707001 44.597 47.376999 52.376999 57.376999 60.157001 64.597 67.927002 70.707001 75.147003 77.927002 80.707001 85.147003 88.476997 91.762001 96.762001 101.202 108.982 113.422 117.312 120.597 125.037 129.47701 134.47701 137.76199 144.98199 152.202 156.91299 164.133 167.418 172.418 176.858 180.14301 185.14301 189.033 193.47301 198.47301 201.758 206.198 210.088 213.373 216.153 221.153 225.593 230.033 232.813 236.09801 240.849 245.289 248.619 251.399"
             y="51"
             sodipodi:role="line"
             id="tspan136">My personal preference is that single-letter names can ONLY be used as local vari-</tspan><tspan
             x="-105.348 -100.908 -96.106003 -93.325996 -88.886002 -84.996002 -82.586998 -79.806999 -74.806999 -70.917 -68.137001 -63.137001 -58.696999 -56.287998 -52.397999 -47.397999 -42.397999 -38.869999 -36.09 -33.681 -25.900999 -21.461 -18.681 -13.681 -8.6809998 -3.681 0.20900001 2.7090001"
             y="63"
             sodipodi:role="line"
             id="tspan138">ables inside short methods. </tspan></text>
        <text
           xml:space="preserve"
           transform="matrix(1,0,0,-1,189.764,71.112)"
           style="font-style:italic;font-variant:normal;font-size:10px;font-family:'Times New Roman';-inkscape-font-specification:TimesNewRomanPS-Italic;writing-mode:lr-tb;fill:#231f20;fill-opacity:1;fill-rule:nonzero;stroke:none"
           id="text144"><tspan
             x="0 5.5599999 10.56 15 17.409 20.188999 24.629 29.629 34.629002 37.409 42.409 44.818001 49.818001 52.598 55.007 60.007 62.416 67.416 72.416 79.636002 84.075996 86.485001 90.375 95.375 100.375 105.375 108.155 113.155 115.564 120.004 125.004 128.894 132.41499 136.855 140.745 145.745 150.745 155.745 160.745 163.15401 165.93401 170.93401 173.343 176.123 181.123 185.563 187.972 191.862 194.642 198.532 202.972 205.381 210.381 213.161 215.57001 218.35001 221.13 225.02 227.429 231.319 235.759 240.759 245.759"
             y="0"
             sodipodi:role="line"
             id="tspan142">The length of a name should correspond to the size of its scope</tspan></text>
        <g
           id="g146">
          <g
             id="g148"
             clip-path="url(#clipPath152)">
            <path
               d="m -37.08,664.778 h 36 m -36,-666 h 36 m 522,0 h 36 m -36,666 h 36 m -549,45 v -36 m 504,36 v -36 m 0,-684 v -36 m -504,36 v -36"
               style="fill:none;stroke:#ffffff;stroke-width:0.75;stroke-linecap:butt;stroke-linejoin:miter;stroke-miterlimit:10;stroke-dasharray:none;stroke-opacity:1"
               id="path154" />
            <path
               d="m -37.08,664.778 h 36 m -36,-666 h 36 m 522,0 h 36 m -36,666 h 36 m -549,45 v -36 m 504,36 v -36 m 0,-684 v -36 m -504,36 v -36 m -12,378 c 0,3.312 -2.688,6 -6,6 -3.312,0 -6,-2.688 -6,-6 0,-3.312 2.688,-6 6,-6 3.312,0 6,2.688 6,6 z m -24,0 h 27 m -9,24 v -48 m 545.94,24 c 0,3.312 -2.688,6 -6,6 -3.312,0 -6,-2.688 -6,-6 0,-3.312 2.688,-6 6,-6 3.312,0 6,2.688 6,6 z m -14.94,0 h 27 m -18,24 v -48 m -534,345 c 0,3.312 -2.688,6 -6,6 -3.312,0 -6,-2.688 -6,-6 0,-3.312 2.688,-6 6,-6 3.312,0 6,2.688 6,6 z m -24,0 h 27 m -9,9 v -33 m 6,-618 c 0,3.312 -2.688,6 -6,6 -3.312,0 -6,-2.688 -6,-6 0,-3.312 2.688,-6 6,-6 3.312,0 6,2.688 6,6 z m -24,0 h 27 m -9,24 v -33 m 545.94,651 c 0,3.312 -2.688,6 -6,6 -3.312,0 -6,-2.688 -6,-6 0,-3.312 2.688,-6 6,-6 3.312,0 6,2.688 6,6 z m -14.94,0 h 27 m -18,9 v -33 m 5.94,-618 c 0,3.312 -2.688,6 -6,6 -3.312,0 -6,-2.688 -6,-6 0,-3.312 2.688,-6 6,-6 3.312,0 6,2.688 6,6 z m -14.94,0 h 27 m -18,24 v -33"
               style="fill:none;stroke:#000000;stroke-width:0.25;stroke-linecap:butt;stroke-linejoin:miter;stroke-miterlimit:10;stroke-dasharray:none;stroke-opacity:1"
               id="path156" />
          </g>
        </g>
      </g>
    </g>
    <g
       id="g158">
      <g
         id="g160"
         transform="translate(218,6.56)">
        <text
           xml:space="preserve"
           transform="scale(1,-1)"
           style="font-variant:normal;font-weight:normal;font-size:10px;font-family:Helvetica;-inkscape-font-specification:Helvetica;writing-mode:lr-tb;fill:#0000ff;fill-opacity:1;fill-rule:nonzero;stroke:none"
           id="text164"><tspan
             x="0 7.2199998 14.44 21.66 24.440001 26.66 29.440001 32.77 38.330002 43.889999 49.450001 55.009998 60.009998 65.010002 67.790001 70.010002 75.57 78.349998"
             y="0"
             sodipodi:role="line"
             id="tspan162">www.it-ebooks.info</tspan></text>
        <g
           id="g166"
           transform="translate(-218,-6.56)" />
      </g>
    </g>
  </g>
</svg>
