<?xml version="1.0" encoding="UTF-8" standalone="no"?>
<!-- Created with Inkscape (http://www.inkscape.org/) -->

<svg
   version="1.1"
   id="svg2"
   width="690.14398"
   height="888.47998"
   viewBox="0 0 690.14398 888.47998"
   sodipodi:docname="4PmrqTPDrJV6cyWn.pdf"
   xmlns:inkscape="http://www.inkscape.org/namespaces/inkscape"
   xmlns:sodipodi="http://sodipodi.sourceforge.net/DTD/sodipodi-0.dtd"
   xmlns="http://www.w3.org/2000/svg"
   xmlns:svg="http://www.w3.org/2000/svg">
  <defs
     id="defs6">
    <clipPath
       clipPathUnits="userSpaceOnUse"
       id="clipPath146">
      <path
         d="M 0,665.858 H 519.84 V 0 H 0 Z"
         id="path144" />
    </clipPath>
  </defs>
  <sodipodi:namedview
     id="namedview4"
     pagecolor="#ffffff"
     bordercolor="#000000"
     borderopacity="0.25"
     inkscape:showpageshadow="2"
     inkscape:pageopacity="0.0"
     inkscape:pagecheckerboard="0"
     inkscape:deskcolor="#d1d1d1" />
  <g
     id="g8"
     inkscape:groupmode="layer"
     inkscape:label="4PmrqTPDrJV6cyWn"
     transform="matrix(1.3333333,0,0,-1.3333333,-1.46,887.61333)">
    <g
       id="g10">
      <g
         id="g12">
        <text
           xml:space="preserve"
           transform="matrix(1,0,0,-1,429.92,622.111)"
           style="font-variant:normal;font-weight:normal;font-size:10px;font-family:'Times New Roman';-inkscape-font-specification:TimesNewRomanPS;writing-mode:lr-tb;fill:#231f20;fill-opacity:1;fill-rule:nonzero;stroke:none"
           id="text16"><tspan
             x="0 5"
             y="0"
             sodipodi:role="line"
             id="tspan14">23</tspan></text>
        <text
           xml:space="preserve"
           transform="matrix(1,0,0,-1,79.92,622.111)"
           style="font-variant:normal;font-weight:bold;font-size:10px;font-family:'Times New Roman';-inkscape-font-specification:TimesNewRomanPS-Bold;writing-mode:lr-tb;fill:#231f20;fill-opacity:1;fill-rule:nonzero;stroke:none"
           id="text20"><tspan
             x="0 6.2210002 10.922 15.922 18.702 24.261999 26.761999 33.431999 38.992001 43.431999 48.431999 53.992001 56.771999 62.332001 67.332001"
             y="0"
             sodipodi:role="line"
             id="tspan18">Avoid Encodings</tspan></text>
        <text
           xml:space="preserve"
           transform="matrix(1,0,0,-1,79.92,586.111)"
           style="font-variant:normal;font-weight:normal;font-size:10px;font-family:'Times New Roman';-inkscape-font-specification:TimesNewRomanPS;writing-mode:lr-tb;fill:#231f20;fill-opacity:1;fill-rule:nonzero;stroke:none"
           id="text26"><tspan
             x="0 3.3299999 10.55 15.55 18.879999 24.091999 27.422001 30.752001 33.470001 37.91 40.627998 45.379002 49.819 53.148998 55.929001 60.368999 65.170998 67.950996 72.390999 75.109001 80.109001 83.439003 86.156998 90.597 95.597 100.597 104.487 107.267 111.707 116.707 119.487 122.205 129.985 132.765 137.765 142.765 145.545 148.263 153.263 157.703 160.42101 164.311 168.75101 173.19099 178.19099 180.909 185.909 189.239 191.957 196.957 200.847 205.287 210.287 213.005 215.785 220.785 223.50301 231.283 236.283 239.063 241.843 244.623 249.623 252.403 256.84299 259.561 264.561 267.341 271.78101 276.22101 280.66101 284.55099 287.26901 290.04901 295.04901 297.767 302.207 304.92499 309.92499 314.92499 319.92499 324.92499 327.64301 332.64301 335.97299 338.69101 343.13101 348.13101 353.13101 357.57101"
             y="0"
             sodipodi:role="line"
             id="tspan22">[N5].If a variable or constant might be seen or used in multiple places in a body of code,</tspan><tspan
             x="0 2.779 5.5580001 8.0579996 10.837 14.726 17.226 20.004999 27.784 32.783001 37.222 40.550999 44.990002 47.769001 50.299999 55.151001 59.591 62.091 64.870003 69.869003 72.369003 77.367996 79.899002 84.75 89.190002 91.690002 94.469002 97.248001 99.748001 104.187 106.687 110.576 115.015 119.454 122.783 127.222 132.22099 135.55 138.879 142.20799 144.987 149.42599 154.425 159.424 161.955 166.95399 169.45399 174.453 178.892 186.67101 191.11 193.60899 196.10899 203.328 208.327 212.76601 217.205 219.705 224.144 229.14301 233.582 236.36099 241.36 243.86 248.299 253.298 261.077 266.07599 270.51501 273.84399"
             y="12"
             sodipodi:role="line"
             id="tspan24">it is imperative to give it a search-friendly name. Once again compare</tspan></text>
        <text
           xml:space="preserve"
           transform="matrix(0.80015552,0,0,-1,97.92,556.7781)"
           style="font-variant:normal;font-weight:normal;font-size:9.002px;font-family:'Courier New';-inkscape-font-specification:Courier;writing-mode:lr-tb;fill:#231f20;fill-opacity:1;fill-rule:nonzero;stroke:none"
           id="text34"><tspan
             x="0 5.4011998 10.8024 16.2036 21.604799 27.006001 32.4072 37.808399 43.209599 48.610802 54.012001 59.4132 64.8144 70.215599 75.616798 81.017998 86.419197 91.820396 97.221603 102.6228 108.024 113.4252 118.8264 124.2276 129.6288 135.03"
             y="0"
             sodipodi:role="line"
             id="tspan28">for (int j=0; j&lt;34; j++) {</tspan><tspan
             x="12.597399 17.998598 23.399799 28.800999 34.202198 39.603397 45.004601 50.4058 55.806999 61.208199 66.609398 72.010597 77.411797 82.812996 88.214195 93.615402"
             y="9.0001993"
             sodipodi:role="line"
             id="tspan30">s += (t[j]*4)/5;</tspan><tspan
             x="0"
             y="18.000399"
             id="tspan32">}</tspan></text>
        <text
           xml:space="preserve"
           transform="matrix(1,0,0,-1,79.92,523.111)"
           style="font-variant:normal;font-weight:normal;font-size:10px;font-family:'Times New Roman';-inkscape-font-specification:TimesNewRomanPS;writing-mode:lr-tb;fill:#231f20;fill-opacity:1;fill-rule:nonzero;stroke:none"
           id="text38"><tspan
             x="0 2.78"
             y="0"
             sodipodi:role="line"
             id="tspan36">to</tspan></text>
        <text
           xml:space="preserve"
           transform="matrix(0.80015552,0,0,-1,97.92,505.7781)"
           style="font-variant:normal;font-weight:normal;font-size:9.002px;font-family:'Courier New';-inkscape-font-specification:Courier;writing-mode:lr-tb;fill:#231f20;fill-opacity:1;fill-rule:nonzero;stroke:none"
           id="text56"><tspan
             x="0 5.4011998 10.8024 16.2036 21.604799 27.006001 32.4072 37.808399 43.209599 48.610802 54.012001 59.4132 64.8144 70.215599 75.616798 81.017998 86.419197 91.820396 97.221603 102.6228 108.024 113.4252 118.8264 124.2276 129.6288 135.03 140.4312 145.8324"
             y="0"
             sodipodi:role="line"
             id="tspan40">int realDaysPerIdealDay = 4;</tspan><tspan
             x="0 5.4011998 10.8024 16.2036 21.604799 27.006001 32.4072 37.808399 43.209599 48.610802 54.012001 59.4132 64.8144 70.215599 75.616798 81.017998 86.419197 91.820396 97.221603 102.6228 108.024 113.4252 118.8264 124.2276 129.6288 135.03 140.4312 145.8324 151.2336 156.6348 162.036 167.43719 172.83839"
             y="9.0001993"
             sodipodi:role="line"
             id="tspan42">const int WORK_DAYS_PER_WEEK = 5;</tspan><tspan
             x="0 5.4011998 10.8024 16.2036 21.604799 27.006001 32.4072 37.808399 43.209599 48.610802 54.012001 59.4132"
             y="18.000399"
             sodipodi:role="line"
             id="tspan44">int sum = 0;</tspan><tspan
             x="0 5.4011998 10.8024 16.2036 21.604799 27.006001 32.4072 37.808399 43.209599 48.610802 54.012001 59.4132 64.8144 70.215599 75.616798 81.017998 86.419197 91.820396 97.221603 102.6228 108.024 113.4252 118.8264 124.2276 129.6288 135.03 140.4312 145.8324 151.2336 156.6348 162.036 167.43719 172.83839 178.23959 183.64079 189.04201 194.44321 199.84441 205.24561 210.6468 216.048"
             y="27.001499"
             sodipodi:role="line"
             id="tspan46">for (int j=0; j &lt; NUMBER_OF_TASKS; j++) {</tspan><tspan
             x="12.597399 17.998598 23.399799 28.800999 34.202198 39.603397 45.004601 50.4058 55.806999 61.208199 66.609398 72.010597 77.411797 82.812996 88.214195 93.615402 99.016602 104.4178 109.819 115.2202 120.6214 126.0226 131.4238 136.825 142.2262 147.6274 153.02859 158.42979 163.83099 169.23219 174.63339 180.03459 185.43581 190.83701 196.2382 201.6394 207.0406 212.4418 217.843 223.2442 228.6454 234.0466 239.4478 244.849 250.2502 255.6514 261.05261 266.4538 271.85501 277.2562 282.65741 288.05859 293.45981 298.86099 304.26221 309.66339 315.06461"
             y="36.001698"
             sodipodi:role="line"
             id="tspan48">int realTaskDays = taskEstimate[j] * realDaysPerIdealDay;</tspan><tspan
             x="12.597399 17.998598 23.399799 28.800999 34.202198 39.603397 45.004601 50.4058 55.806999 61.208199 66.609398 72.010597 77.411797 82.812996 88.214195 93.615402 99.016602 104.4178 109.819 115.2202 120.6214 126.0226 131.4238 136.825 142.2262 147.6274 153.02859 158.42979 163.83099 169.23219 174.63339 180.03459 185.43581 190.83701 196.2382 201.6394 207.0406 212.4418 217.843 223.2442 228.6454 234.0466 239.4478 244.849 250.2502 255.6514 261.05261 266.4538 271.85501 277.2562 282.65741 288.05859"
             y="45.0019"
             sodipodi:role="line"
             id="tspan50">int realTaskWeeks = (realdays / WORK_DAYS_PER_WEEK);</tspan><tspan
             x="12.597399 17.998598 23.399799 28.800999 34.202198 39.603397 45.004601 50.4058 55.806999 61.208199 66.609398 72.010597 77.411797 82.812996 88.214195 93.615402 99.016602 104.4178 109.819 115.2202 120.6214"
             y="54.002098"
             sodipodi:role="line"
             id="tspan52">sum += realTaskWeeks;</tspan><tspan
             x="0"
             y="63.002296"
             id="tspan54">}</tspan></text>
        <text
           xml:space="preserve"
           transform="matrix(1,0,0,-1,97.92,427.1111)"
           style="font-variant:normal;font-weight:normal;font-size:10px;font-family:'Times New Roman';-inkscape-font-specification:TimesNewRomanPSMT;writing-mode:lr-tb;fill:#231f20;fill-opacity:1;fill-rule:nonzero;stroke:none"
           id="text60"><tspan
             x="0 7.2199998 12.22 15 19.440001 22.450001 25.23 30.23 34.669998 37.450001"
             y="0"
             sodipodi:role="line"
             id="tspan58">Note that </tspan></text>
        <text
           xml:space="preserve"
           transform="matrix(0.80015552,0,0,-1,138.372,427.1111)"
           style="font-variant:normal;font-weight:normal;font-size:9.002px;font-family:'Courier New';-inkscape-font-specification:Courier;writing-mode:lr-tb;fill:#231f20;fill-opacity:1;fill-rule:nonzero;stroke:none"
           id="text64"><tspan
             x="0 5.4011998 10.8024"
             y="0"
             sodipodi:role="line"
             id="tspan62">sum</tspan></text>
        <text
           xml:space="preserve"
           transform="matrix(1,0,0,-1,151.306,427.1111)"
           style="font-variant:normal;font-weight:normal;font-size:10px;font-family:'Times New Roman';-inkscape-font-specification:TimesNewRomanPSMT;writing-mode:lr-tb;fill:#231f20;fill-opacity:1;fill-rule:nonzero;stroke:none"
           id="text72"><tspan
             x="0 2.5 5.5100002 9.9499998 14.95 19.801001 24.652 29.091999 31.591999 34.602001 37.382 41.271999 44.282001 49.282001 54.282001 57.062 60.071999 64.512001 67.522003 72.522003 76.961998 80.292 83.071999 85.851997 90.292 95.292 98.071999 102.512 105.842 108.622 113.622 116.632 121.632 125.522 129.96201 133.29201 138.29201 141.07201 144.082 149.082 153.522 161.302 165.742 168.752 173.554 178.554 181.334 184.34399 188.784 191.564 194.57401 197.354 201.79401 206.23399 210.12399 212.90401 215.914 218.694 222.584 225.59399 229.48399 233.924 238.364 241.694 246.134 251.134 255.57401 260.57401 263.354 267.79401 270.29401 273.12601 279.23599 284.23599"
             y="0"
             sodipodi:role="line"
             id="tspan66">, above, is not a particularly useful name but at least is searchable. The</tspan><tspan
             x="-71.386002 -68.606003 -63.605999 -60.826 -56.386002 -51.386002 -48.605999 -45.826 -40.826 -35.826 -31.386 -28.606001 -25.826 -20.826 -17.249001 -12.249 -7.809 -0.028999999 4.4109998 9.4110003 12.988 17.427999 22.427999 27.427999 31.868 35.445 43.224998 47.665001 52.567001 57.007 60.896999 64.473999 67.804001 72.804001 76.134003 79.710999 84.151001 87.727997 90.508003 95.508003 100.508 105.508 109.948 113.278 116.855 120.185 125.185 130.185 134.625 137.405 140.185 145.185 150.185 152.685 156.26199 161.064 166.064 168.84399 172.42101 176.86099 181.86099 186.86099 190.75101 193.53101 198.53101 202.97099 206.30099 209.87801 214.87801 219.629 226.849 230.42599 238.20599 243.20599 247.646 252.646 256.22299 260.66299 265.103 268.99301 271.77301 276.21301 279.543 283.12 285.89999"
             y="12"
             sodipodi:role="line"
             id="tspan68">intentionally named code makes for a longer function, but consider how much easier it</tspan><tspan
             x="-71.386002 -64.166 -61.386002 -58.605999 -55.826 -52.714001 -47.714001 -43.273998 -40.161999 -37.382 -32.382 -29.27 -23.709999 -18.709999 -13.71"
             y="24"
             sodipodi:role="line"
             id="tspan70">will be to ﬁnd </tspan></text>
        <text
           xml:space="preserve"
           transform="matrix(0.80015552,0,0,-1,140.699,403.1111)"
           style="font-variant:normal;font-weight:normal;font-size:9.002px;font-family:'Courier New';-inkscape-font-specification:Courier;writing-mode:lr-tb;fill:#231f20;fill-opacity:1;fill-rule:nonzero;stroke:none"
           id="text76"><tspan
             x="0 5.4011998 10.8024 16.2036 21.604799 27.006001 32.4072 37.808399 43.209599 48.610802 54.012001 59.4132 64.8144 70.215599 75.616798 81.017998 86.419197 91.820396"
             y="0"
             sodipodi:role="line"
             id="tspan74">WORK_DAYS_PER_WEEK</tspan></text>
        <text
           xml:space="preserve"
           transform="matrix(1,0,0,-1,221.417,403.1111)"
           style="font-variant:normal;font-weight:normal;font-size:10px;font-family:'Times New Roman';-inkscape-font-specification:TimesNewRomanPSMT;writing-mode:lr-tb;fill:#231f20;fill-opacity:1;fill-rule:nonzero;stroke:none"
           id="text82"><tspan
             x="0 2.78 7.7800002 12.22 17.219999 20.332001 23.112 28.112 31.224001 36.784 41.784 46.784 49.896 54.335999 57.116001 59.896 63.007999 65.788002 70.788002 75.227997 78.339996 83.339996 86.120003 90.559998 95 99.440002 103.33 106.442 113.662 118.662 123.102 126.432 130.87199 133.98399 138.98399 142.09599 149.218 153.658 157.548 160.66 165.66 169.55 173.99001 178.99001 182.10201 186.54201 191.54201 196.54201 199.65401 205.214 207.994 210.774 215.214"
             y="0"
             sodipodi:role="line"
             id="tspan78">than to ﬁnd all the places where 5 was used and ﬁlter</tspan><tspan
             x="-141.49699 -138.717 -133.717 -129.27699 -126.777 -123.997 -121.217 -117.327 -114.547 -112.047 -107.047 -102.296 -95.075996 -90.075996 -87.575996 -84.795998 -79.795998 -77.295998 -74.515999 -69.515999 -65.625999 -62.846001 -60.346001 -57.566002 -52.566002 -48.125999 -45.625999 -42.846001 -37.846001 -33.956001 -31.176001 -26.736 -21.736 -17.296 -12.856 -8.9659996 -6.4660001 0.75400001 3.5339999 6.3140001 11.314 13.814 16.594 21.594 26.034 28.534 31.313999 36.313999 39.094002 43.534 48.534 53.534 57.973999 62.973999 65.473999 73.253998 77.694 82.134003 87.134003 89.914001 94.914001 99.914001"
             y="12"
             sodipodi:role="line"
             id="tspan80">the list down to just the instances with the intended meaning.</tspan></text>
        <text
           xml:space="preserve"
           transform="matrix(1,0,0,-1,79.92,358.445)"
           style="font-variant:normal;font-weight:bold;font-size:14px;font-family:'Times New Roman';-inkscape-font-specification:TimesNewRomanPS-Bold;writing-mode:lr-tb;fill:#231f20;fill-opacity:1;fill-rule:nonzero;stroke:none"
           id="text86"><tspan
             x="0 8.7108002 15.2936 22.2936 26.1856 33.969601 37.469601 46.807598 54.591599 60.807598 67.807602 75.591599 79.483597 87.267601 94.267601"
             y="0"
             sodipodi:role="line"
             id="tspan84">Avoid Encodings</tspan></text>
        <text
           xml:space="preserve"
           transform="matrix(1,0,0,-1,79.92,335.1111)"
           style="font-variant:normal;font-weight:normal;font-size:10px;font-family:'Times New Roman';-inkscape-font-specification:TimesNewRomanPS;writing-mode:lr-tb;fill:#231f20;fill-opacity:1;fill-rule:nonzero;stroke:none"
           id="text100"><tspan
             x="0 8.4399996 16.610001 21.611 25.702 30.552999 34.993 38.723 43.164001 48.165001 53.166 58.167 63.167999 68.168999 71.899002 76.339996 81.341003 85.781998 90.782997 95.783997 98.565002 103.566 108.567 112.458 116.188 118.969 123.97 127.7 132.701 137.142 141.58299 144.364 148.09399 155.315 158.09599 160.877 165.87801 169.608 176.82899 179.61 182.39101 187.392 192.39301 197.394 200.175 203.905 208.34599 213.347 218.34801 221.129 226.13 231.131 234.86099 242.642 247.64301 250.974 255.41499 259.14499 261.92599 266.927 270.65701 275.65799 280.659 283.98999 287.72 292.72101 297.72198 301.05301 306.05399 310.495 315.496 317.99701 321.72699 327.83801 332.83899 337.28 342.28101 347.28201 350.06299 355.064"
             y="0"
             sodipodi:role="line"
             id="tspan88">Wehave enough encodings to deal with without adding more to our burden. Encoding</tspan><tspan
             x="0 2.7809999 7.7820001 12.783 17.224001 21.582001 26.583 29.914 34.271999 38.162998 42.604 47.605 52.605999 57.047001 61.404999 64.185997 69.186996 72.517998 77.518997 81.046997 88.828003 93.268997 96.050003 98.831001 103.832 108.833 113.191 115.972 120.973 123.754 128.755 133.11301 138.114 142.55499 150.336 154.77699 158.668 163.026 166.91701 169.698 177.479 182.48 185.011 190.01199 194.37 198.811 203.812 208.813 212.70399 217.062 221.50301 226.504 230.862 235.153 240.15401 242.935 246.26601 250.707 255.065 260.06601 265.06699 268.39801 273.39899 277.84 282.841 287.19901 292.20001 295.53101 299.88901 304.89001 309.33099 313.772 316.55301 321.55399 326.55499 330.996 334.327 337.108 342.10901 347.10999 349.61099 353.96899 357.29999"
             y="12"
             sodipodi:role="line"
             id="tspan90">type or scope information into names simply adds an extra burden of deciphering. It</tspan><tspan
             x="0 5 9.4399996 12.77 17.77 20.301001 25.301001 27.768999 31.659 36.098999 40.539001 48.319 52.209 54.676998 58.007 62.446999 66.887001 70.777 75.777 80.777 85.217003 90.018997 92.799004 97.238998 99.707001 102.487 107.487 109.955 113.285 117.725 122.725 127.725 130.505 133.83501 138.27499 140.743 145.183 149.623 154.063 159.063 161.53101 166.53101 170.722 177.942 180.41 184.85001 192.63 197.63 200.41 204.961 209.763 214.203 218.64301 221.11099 223.89101 228.89101 231.35899 234.13901 238.57899 243.019 246.547 251.547 254.015 258.81699 263.25699 266.03699 268.505 272.94501 277.94501 282.94501 285.72501 290.72501 295.16501 298.495 300.96301 305.40302 310.40302 314.84299 319.84299 324.84299 327.62299 332.62299 337.62299 340.091 344.53101 347.311 351.75101 356.75101"
             y="23.999001"
             sodipodi:role="line"
             id="tspan92">hardly seems reasonable to require each new employee to learn yet another encoding “lan-</tspan><tspan
             x="0 5 10 14.44 19.440001 23.879999 28.32 30.598 33.377998 38.377998 40.655998 45.096001 50.096001 55.096001 57.875999 60.655998 63.436001 68.435997 73.435997 75.713997 78.494003 83.494003 85.772003 88.552002 92.991997 97.431999 100.96 105.96 108.74 113.74 118.74 121.018 123.798 128.798 133.23801 135.51601 138.84599 143.84599 147.73599 152.73599 157.17599 159.95599 162.487 167.487 169.765 174.205 179.205 184.205 188.095 190.875 195.875 200.315 203.645 208.08501 212.88699 215.66701 220.10699 223.437 225.715 230.715 235.715 240.715 245.715 247.993 252.993 256.323 258.60101 263.04099 268.04099 273.04099 277.48099 279.759 282.539 287.539 291.979 294.759 297.03699 299.81699 304.81699 309.108 314.108 317.04001 319.82001 322.60001 324.87799 329.87799 334.31799 336.59601 343.418 348.418 351.74799 356.74799"
             y="35.998001"
             sodipodi:role="line"
             id="tspan94">guage” in addition to learning the (usually considerable) body of code that they’ll be work-</tspan><tspan
             x="0 2.7809999 7.7820001 12.783 15.168 17.948999 22.950001 25.451 27.836 31.167 33.948002 36.333 39.113998 43.005001 45.389999 49.831001 54.832001 57.216999 62.217999 67.219002 72.220001 76.661003 81.101997 85.542999 89.433998 93.324997 97.765999 101.294 106.295 108.68 116.461 120.902 125.903 128.68401 133.125 135.90601 138.291 143.29201 148.293 151.62399 156.625 161.06599 166.067 168.452 175.474 180.47501 184.916 189.91701 192.302 195.08299 198.61099 203.612 206.39301 211.394 216.395 218.78 221.561 226.562 228.94701 232.838 237.839 240.62 245.47099 249.912 252.297 256.73801 259.12299 264.12399 267.45499 272.45599 277.258 280.039 284.48001 292.26099 294.76199 297.147 303.258 308.259 312.70001 317.70099 322.702 327.14301 332.14401 334.52899 339.53 343.97101 351.75201 356.19299"
             y="47.998001"
             sodipodi:role="line"
             id="tspan96">ing in. It is an unnecessary mental burden when trying to solve a problem. Encoded names</tspan><tspan
             x="0 4.4400001 7.77 12.21 14.71 18.6 23.040001 25.82 30.82 35.82 43.599998 46.099998 51.099998 54.43 59.43 64.43 69.43 74.43 79.43 83.870003 88.309998 92.75 97.552002 100.332 104.772 107.272 111.712 116.712 121.712 124.212 128.65199 131.98199 136.422 138.922 143.362 147.802 151.692 156.692 159.192 161.972 166.972 169.472 177.252 180.032 183.922 187.252 190.032 195.032 200.032 204.472"
             y="59.998001"
             sodipodi:role="line"
             id="tspan98">are seldom pronounceable and are easy to mis-type.</tspan></text>
        <text
           xml:space="preserve"
           transform="matrix(1,0,0,-1,79.92,249.778)"
           style="font-variant:normal;font-weight:bold;font-size:12px;font-family:'Times New Roman';-inkscape-font-specification:TimesNewRomanPS-Bold;writing-mode:lr-tb;fill:#231f20;fill-opacity:1;fill-rule:nonzero;stroke:none"
           id="text104"><tspan
             x="0 9.3360004 16.007999 22.68 28.5012 34.501202 39.829201 43.165199 49.165199 55.8372 58.8372 67.501198 73.501198 77.4972 83.4972 87.493202 90.829201 96.829201"
             y="0"
             sodipodi:role="line"
             id="tspan102">Hungarian Notation</tspan></text>
        <text
           xml:space="preserve"
           transform="matrix(1,0,0,-1,79.92,229.112)"
           style="font-variant:normal;font-weight:normal;font-size:10px;font-family:'Times New Roman';-inkscape-font-specification:TimesNewRomanPS;writing-mode:lr-tb;fill:#231f20;fill-opacity:1;fill-rule:nonzero;stroke:none"
           id="text118"><tspan
             x="0 3.3299999 8.3299999 11.962 16.962 21.052999 26.052999 29.943001 33.575001 38.575001 41.904999 45.536999 50.536999 53.317001 57.719002 60.219002 63.851002 70.873001 75.873001 80.313004 85.313004 88.945 95.816002 100.256 103.888 110.71 115.71 119.04 123.942 128.382 133.382 137.01401 139.79401 144.79401 148.42599 153.42599 157.866 165.646 170.086 173.416 176.196 180.636 185.636 190.636 193.416 198.416 201.746 206.186 211.186 215.62601 218.40601 221.186 225.62601 230.62601 235.62601 240.06599 245.06599 248.698 251.478 255.918 260.918 265.918 270.918 275.358 280.358 284.798 288.68799 291.18799 294.82001 301.69101 306.13101 309.763 314.763 317.543 322.543 325.323 329.763 332.543 336.983 341.983 345.61499 348.39499 353.39499 356.17499"
             y="0"
             sodipodi:role="line"
             id="tspan106">In days of old, when we worked in name-length-challenged languages, we violated this</tspan><tspan
             x="0 3.5280001 8.5279999 11.308 15.748 18.353001 23.353001 28.353001 31.132999 33.737999 38.737999 42.068001 44.673 49.673 54.112999 58.553001 62.993 66.883003 70.773003 73.553001 76.333 80.483002 82.983002 85.587997 90.028 95.028 100.028 102.633 109.853 112.633 115.413 120.413 123.018 126.348 130.63901 135.83701 139.16701 143.60699 146.38699 148.88699 151.492 156.554 161.554 165.082 167.862 171.192 175.632 180.632 183.237 186.567 191.567 194.897 199.33701 203.77699 208.77699 211.382 215.82201 220.82201 225.26199 230.26199 235.26199 238.04201 243.04201 248.04201 251.93201 254.537 259.28799 264.28799 266.89301 274.673 279.11301 284.11301 286.89301 291.89301 296.89301 299.49799 302.27802 307.27802 311.71799 314.323 319.883 323.21301 327.103 329.883 332.48801 335.26801 339.70801 342.48801 345.26801 349.70801 353.03799 355.64301"
             y="12"
             sodipodi:role="line"
             id="tspan108">rule out of necessity, and with regret. Fortran forced encodings by making the ﬁrst letter a</tspan><tspan
             x="0 4.4390001 9.4379997 14.437 18.875999 21.410999 24.74 29.739 33.068001 35.603001 38.382 43.381001 47.82 50.355 53.133999 58.132999 63.132 67.570999 70.07 72.605003 78.713997 83.153 86.482002 89.013 94.012001 96.546997 101.398 105.837 109.166 113.055 115.834 120.833 125.832 129.72099 132.256 137.255 140.584 143.119 149.44 156.659 162.218 165.547 172.216 174.75101 179.19 181.96899 184.748 189.35001 196.22099 200.66 205.659 208.194 213.19299 218.192 220.72301 225.722 228.257 232.696 235.231 238.00999 242.44901 245.228 248.007 252.446 255.77499 258.31 263.30899 266.08801 271.08701 274.97601 277.51099 282.51001 287.509 291.948 294.483 299.48199 302.26099 307.26001 310.039 312.81799 315.31699 317.85199 325.07101 330.07001 335.069 340.06799 344.50699 347.836 350.61499 355.05399"
             y="24"
             sodipodi:role="line"
             id="tspan110">code for the type. Early versions of BASIC allowed only a letter plus one digit. Hungarian</tspan><tspan
             x="0 7.2199998 12.22 15 19.440001 22.219999 25 30 35 37.5 40.830002 48.049999 55.27 58.599998 61.099998 63.880001 68.879997 73.879997 78.879997 81.379997 84.160004 89.160004 91.940002 95.830002 98.330002 101.11 106.11 108.61 113.05 115.55 122.572 127.572 132.57201 135.35201 139.79201 142.29201 147.29201 151.483 158.703 161.203 163.983 168.174 173.02499 177.465 180.245"
             y="36"
             sodipodi:role="line"
             id="tspan112">Notation (HN) took this to a whole new level.</tspan><tspan
             x="18 25.219999 32.439999 35.419998 42.390999 46.831001 50.721001 53.701 58.140999 63.140999 68.140999 72.030998 74.810997 79.810997 84.250999 87.581001 92.021004 97.021004 100.001 102.781 107.781 110.761 115.761 120.201 123.181 128.181 131.511 135.951 138.731 141.511 146.511 149.491 152.271 160.05099 165.05099 170.05099 173.57899 176.35899 180.799 185.799 188.57899 191.55901 196.55901 200.99899 205.439 210.439 213.41901 216.19901 221.19901 224.179 226.959 231.959 236.399 239.08099 248.12199 250.90199 255.90199 260.90201 265.504 272.724 276.61401 279.59399 286.26401 288.69501 295.91501 301.47501 304.80499 307.30499 310.285 317.30701 322.30701 326.74701 331.74701 334.72699 338.918 343.76901 348.20901 351.737 356.737"
             y="51"
             sodipodi:role="line"
             id="tspan114">HN was considered to be pretty important back in the Windows C API, when every-</tspan><tspan
             x="0 2.78 7.7800002 10.56 15.56 20.559999 22.843 29.813999 34.254002 38.144001 40.426998 44.867001 49.867001 52.150002 54.93 59.93 62.709999 67.000999 72.000999 76.441002 79.771004 82.054001 87.054001 91.494003 96.494003 101.494 104.274 108.714 110.997 115.997 119.327 121.61 126.05 128.33299 131.11301 136.11301 141.11301 146.11301 148.396 153.396 158.396 161.17599 166.17599 168.95599 173.396 176.726 179.009 184.009 187.339 189.62199 194.062"
             y="63"
             sodipodi:role="line"
             id="tspan116">thing was an integer handle or a long pointer or a </tspan></text>
        <text
           xml:space="preserve"
           transform="matrix(0.80015552,0,0,-1,276.227,166.112)"
           style="font-variant:normal;font-weight:normal;font-size:9.002px;font-family:'Courier New';-inkscape-font-specification:Courier;writing-mode:lr-tb;fill:#231f20;fill-opacity:1;fill-rule:nonzero;stroke:none"
           id="text122"><tspan
             x="0 5.4011998 10.8024 16.2036"
             y="0"
             sodipodi:role="line"
             id="tspan120">void</tspan></text>
        <text
           xml:space="preserve"
           transform="matrix(1,0,0,-1,295.756,166.112)"
           style="font-variant:normal;font-weight:normal;font-size:10px;font-family:'Times New Roman';-inkscape-font-specification:TimesNewRomanPS;writing-mode:lr-tb;fill:#231f20;fill-opacity:1;fill-rule:nonzero;stroke:none"
           id="text138"><tspan
             x="0 5 10 12.78 17.780001 20.559999 25 27.931999 30.431999 32.715 37.715 41.044998 43.327999 48.327999 53.327999 57.768002 60.050999 65.051003 68.380997 70.664001 74.554001 78.745003 83.596001 88.036003 91.365997 95.806 98.585999 100.869 103.649 111.429 116.429 119.209 123.649 131.429 135.869 140.869"
             y="0"
             sodipodi:role="line"
             id="tspan124">pointer, or one of several implemen-</tspan><tspan
             x="-215.836 -213.05499 -208.614 -205.83299 -203.052 -198.05099 -193.05 -189.159 -186.659 -181.658 -178.327 -175.827 -171.386 -167.495 -164.714 -161.383 -158.60201 -153.601 -148.60001 -144.159 -141.659 -138.328 -131.10699 -128.326 -125.545 -120.544 -118.044 -113.043 -110.262 -107.181 -103.85 -99.408997 -96.078003 -91.637001 -86.636002 -83.855003 -81.355003 -76.353996 -72.462997 -68.022003 -64.130997 -61.631001 -57.189999 -52.188999 -47.188 -44.688 -40.247002 -37.466 -34.685001 -31.354 -28.573 -23.572001 -18.570999 -15.79 -11.349 -7.4580002 -4.1269999 -1.626 0.37599999 6.487 11.488 15.929 18.429001 22.870001 27.871 35.652 40.653 43.433998 46.215 50.655998 53.987 56.487 61.487999 64.268997 69.269997 71.769997 76.771004 81.772003 84.553001 87.053001 91.494003 96.495003 100.936 105.377 110.378 112.878 115.659 120.66 125.661 130.10201 133.993 136.493 139.274"
             y="12"
             sodipodi:role="line"
             id="tspan126">tations of “string” (with different uses and attributes). The compiler did not check types in</tspan><tspan
             x="-215.836 -213.056 -208.056 -203.056 -199.166 -194.726 -192.226 -187.226 -183.13499 -178.13499 -174.245 -171.745 -169.245 -165.355 -160.355 -157.855 -155.075 -150.075 -145.63499 -143.13499 -138.13499 -134.80499 -130.054 -124.856 -121.526 -117.086 -109.306 -101.526 -97.085999 -93.755997 -89.865997 -87.365997 -82.365997 -77.926003 -73.486 -68.486 -64.045998 -59.046001 -56.546001 -52.105999 -49.605999 -45.166 -41.638 -36.638 -33.858002 -29.417999 -24.417999 -21.917999 -19.138 -14.138 -11.638 -6.638 -2.198 0.58200002 5.5819998 8.0819998 10.862 15.862 20.302 28.082001 30.582001 33.911999 38.352001 46.132 50.571999 58.352001 63.352001 67.792 71.122002 73.622002 76.402 81.402 85.842003 88.342003 91.122002 96.122002 101.122 105.562 109.452 111.952"
             y="24"
             sodipodi:role="line"
             id="tspan128">those days, so the programmers needed a crutch to help them remember the types. </tspan><tspan
             x="-197.836 -194.508 -189.50999 -187.032 -179.254 -174.256 -169.258 -164.82001 -161.29201 -156.29401 -153.81599 -151.03799 -146.60001 -141.60201 -136.604 -131.606 -127.168 -122.17 -117.732 -113.844 -111.366 -104.495 -100.055 -97.577003 -92.579002 -88.487999 -83.637001 -79.196999 -76.719002 -68.941002 -63.943001 -59.505001 -54.507 -52.028999 -48.701 -45.923 -41.485001 -36.487 -32.049 -28.721001 -26.243 -23.465 -18.466999 -13.469 -9.0310001 -6.553 -2.665 2.3329999 6.2210002 8.9989996 13.437 21.215 25.103001 27.601 30.079 34.516998 39.514999 44.513 46.991001 49.769001 54.766998 59.205002 61.682999 66.121002 71.119003 78.897003 83.894997 86.672997 89.450996 93.889 97.217003 101.105 103.583 106.911 111.349 119.127 123.565 131.343 136.341 140.77901"
             y="39"
             sodipodi:role="line"
             id="tspan130">In modern languages we have much richer type systems, and the compilers remember</tspan><tspan
             x="-215.836 -211.396 -206.396 -201.396 -197.73801 -193.298 -188.298 -184.968 -179.968 -176.638 -172.198 -167.758 -164.10001 -161.32001 -156.32001 -151.88 -148.222 -145.442 -140.442 -135.442 -131.002 -127.112 -124.612 -121.252 -111.812 -106.812 -102.372 -99.592003 -97.661003 -93.771004 -90.112999 -82.333 -77.333 -74.002998 -69.563004 -67.063004 -63.404999 -60.625 -55.625 -51.185001 -47.855 -43.415001 -39.757 -36.977001 -33.087002 -29.429001 -24.989 -21.330999 -18.551001 -15.221 -10.781 -5.7810001 -0.78100002 2.8770001 5.6570001 10.259 17.23 21.67 25 30 33.658001 37.548 45.327999 49.768002 52.548 55.327999 59.768002 63.098 66.755997 71.195999 73.975998 78.416 82.306 86.195999 90.636002 94.526001 98.183998 102.624 107.624 112.624 116.282 120.172 125.172 130.172 133.7 136.48 140.92"
             y="51"
             sodipodi:role="line"
             id="tspan132">and enforce the types. What’s more, there is a trend toward smaller classes and shorter</tspan><tspan
             x="-215.836 -212.506 -207.506 -202.506 -198.06599 -195.286 -192.506 -187.506 -182.506 -178.616 -175.35201 -171.46201 -166.46201 -163.198 -160.418 -155.418 -150.978 -148.198 -144.93401 -139.93401 -135.494 -130.494 -125.494 -122.714 -118.274 -115.01 -110.57 -106.13 -101.13 -97.865997 -92.865997 -88.975998 -83.975998 -79.536003 -76.755997 -74.224998 -69.224998 -65.960999 -62.070999 -57.631001 -53.191002 -49.926998 -47.146999 -42.146999 -37.707001 -34.443001 -29.443001 -24.443001 -21.663 -16.663 -13.883 -10.619 -5.619 -2.289 0.97500002 5.9749999 10.415 14.855 17.635 22.075001 25.405001 29.844999 32.625 35.404999 40.404999 45.404999 48.668999 53.668999 56.999001 60.263 64.703003 69.142998 73.583 78.583 81.847 86.598 91.038002 94.367996 97.148003 101.588 106.39 109.17 113.61 116.874 119.654 124.654 128.94501 133.94501 136.47701 139.80701"
             y="63"
             sodipodi:role="line"
             id="tspan134">functions so that people can usually see the point of declaration of each variable they’re</tspan><tspan
             x="-215.836 -210.836 -206.946 -204.166 -199.166 -194.166"
             y="75"
             sodipodi:role="line"
             id="tspan136">using.</tspan></text>
        <g
           id="g140">
          <g
             id="g142"
             clip-path="url(#clipPath146)">
            <path
               d="m -37.08,664.778 h 36 m -36,-666 h 36 m 522,0 h 36 m -36,666 h 36 m -549,45 v -36 m 504,36 v -36 m 0,-684 v -36 m -504,36 v -36"
               style="fill:none;stroke:#ffffff;stroke-width:0.75;stroke-linecap:butt;stroke-linejoin:miter;stroke-miterlimit:10;stroke-dasharray:none;stroke-opacity:1"
               id="path148" />
            <path
               d="m -37.08,664.778 h 36 m -36,-666 h 36 m 522,0 h 36 m -36,666 h 36 m -549,45 v -36 m 504,36 v -36 m 0,-684 v -36 m -504,36 v -36 m -12,378 c 0,3.312 -2.688,6 -6,6 -3.312,0 -6,-2.688 -6,-6 0,-3.312 2.688,-6 6,-6 3.312,0 6,2.688 6,6 z m -24,0 h 27 m -9,24 v -48 m 545.94,24 c 0,3.312 -2.688,6 -6,6 -3.312,0 -6,-2.688 -6,-6 0,-3.312 2.688,-6 6,-6 3.312,0 6,2.688 6,6 z m -14.94,0 h 27 m -18,24 v -48 m -534,345 c 0,3.312 -2.688,6 -6,6 -3.312,0 -6,-2.688 -6,-6 0,-3.312 2.688,-6 6,-6 3.312,0 6,2.688 6,6 z m -24,0 h 27 m -9,9 v -33 m 6,-618 c 0,3.312 -2.688,6 -6,6 -3.312,0 -6,-2.688 -6,-6 0,-3.312 2.688,-6 6,-6 3.312,0 6,2.688 6,6 z m -24,0 h 27 m -9,24 v -33 m 545.94,651 c 0,3.312 -2.688,6 -6,6 -3.312,0 -6,-2.688 -6,-6 0,-3.312 2.688,-6 6,-6 3.312,0 6,2.688 6,6 z m -14.94,0 h 27 m -18,9 v -33 m 5.94,-618 c 0,3.312 -2.688,6 -6,6 -3.312,0 -6,-2.688 -6,-6 0,-3.312 2.688,-6 6,-6 3.312,0 6,2.688 6,6 z m -14.94,0 h 27 m -18,24 v -33"
               style="fill:none;stroke:#000000;stroke-width:0.25;stroke-linecap:butt;stroke-linejoin:miter;stroke-miterlimit:10;stroke-dasharray:none;stroke-opacity:1"
               id="path150" />
          </g>
        </g>
      </g>
    </g>
    <g
       id="g152">
      <g
         id="g154"
         transform="translate(218,6.56)">
        <text
           xml:space="preserve"
           transform="scale(1,-1)"
           style="font-variant:normal;font-weight:normal;font-size:10px;font-family:Helvetica;-inkscape-font-specification:Helvetica;writing-mode:lr-tb;fill:#0000ff;fill-opacity:1;fill-rule:nonzero;stroke:none"
           id="text158"><tspan
             x="0 7.2199998 14.44 21.66 24.440001 26.66 29.440001 32.77 38.330002 43.889999 49.450001 55.009998 60.009998 65.010002 67.790001 70.010002 75.57 78.349998"
             y="0"
             sodipodi:role="line"
             id="tspan156">www.it-ebooks.info</tspan></text>
        <g
           id="g160"
           transform="translate(-218,-6.56)" />
      </g>
    </g>
  </g>
</svg>
