<?xml version="1.0" encoding="UTF-8" standalone="no"?>
<!-- Created with Inkscape (http://www.inkscape.org/) -->

<svg
   version="1.1"
   id="svg2"
   width="690.14398"
   height="888.47998"
   viewBox="0 0 690.14398 888.47998"
   sodipodi:docname="4PmrqTPDrJV6cyWn.pdf"
   xmlns:inkscape="http://www.inkscape.org/namespaces/inkscape"
   xmlns:sodipodi="http://sodipodi.sourceforge.net/DTD/sodipodi-0.dtd"
   xmlns="http://www.w3.org/2000/svg"
   xmlns:svg="http://www.w3.org/2000/svg">
  <defs
     id="defs6">
    <clipPath
       clipPathUnits="userSpaceOnUse"
       id="clipPath190">
      <path
         d="M 0,665.858 H 519.84 V 0 H 0 Z"
         id="path188" />
    </clipPath>
  </defs>
  <sodipodi:namedview
     id="namedview4"
     pagecolor="#ffffff"
     bordercolor="#000000"
     borderopacity="0.25"
     inkscape:showpageshadow="2"
     inkscape:pageopacity="0.0"
     inkscape:pagecheckerboard="0"
     inkscape:deskcolor="#d1d1d1" />
  <g
     id="g8"
     inkscape:groupmode="layer"
     inkscape:label="4PmrqTPDrJV6cyWn"
     transform="matrix(1.3333333,0,0,-1.3333333,-1.46,887.61333)">
    <g
       id="g10">
      <g
         id="g12">
        <text
           xml:space="preserve"
           transform="matrix(1,0,0,-1,79.92,622.111)"
           style="font-variant:normal;font-weight:normal;font-size:10px;font-family:'Times New Roman';-inkscape-font-specification:TimesNewRomanPS;writing-mode:lr-tb;fill:#231f20;fill-opacity:1;fill-rule:nonzero;stroke:none"
           id="text16"><tspan
             x="0 5"
             y="0"
             sodipodi:role="line"
             id="tspan14">24</tspan></text>
        <text
           xml:space="preserve"
           transform="matrix(1,0,0,-1,310.237,622.111)"
           style="font-variant:normal;font-weight:bold;font-size:10px;font-family:'Times New Roman';-inkscape-font-specification:TimesNewRomanPS-Bold;writing-mode:lr-tb;fill:#231f20;fill-opacity:1;fill-rule:nonzero;stroke:none"
           id="text20"><tspan
             x="0 7.2199998 12.78 17.780001 23.34 26.67 31.110001 35.549999 38.148998 43.148998 46.181 48.779999 58.220001 62.66 67.660004 73.220001 76 81.559998 86.559998 89.889999 95.449997 98.230003 100.829 108.049 113.049 121.379 125.819"
             y="0"
             sodipodi:role="line"
             id="tspan18">Chapter 2: Meaningful Names</tspan></text>
        <text
           xml:space="preserve"
           transform="matrix(1,0,0,-1,97.92,586.111)"
           style="font-variant:normal;font-weight:normal;font-size:10px;font-family:'Times New Roman';-inkscape-font-specification:TimesNewRomanPS;writing-mode:lr-tb;fill:#231f20;fill-opacity:1;fill-rule:nonzero;stroke:none"
           id="text34"><tspan
             x="0 3.8900001 7.9809999 12.732 17.172001 20.274 25.274 28.604 33.355 38.553001 41.882999 46.323002 54.103001 61.882999 66.322998 69.653 73.542999 76.644997 81.644997 86.644997 91.644997 94.476997 97.257004 100.359 105.359 109.799 114.239 119.239 122.341 125.121 130.121 135.121 139.561 142.66299 147.103 152.103 156.543 161.543 166.543 169.323 174.323 179.323 181.823 184.925 192.145 197.145 199.925 204.36501 208.80499 211.58501 215.47501 218.577 223.017 226.347 230.787 233.88901 237.77901 240.55901 243.88901 248.88901 253.88901 258.88901 261.42001 266.42001 269.522 272.302 277.302 282.302 286.742 291.14401 293.64401 296.746 301.186 306.186 311.186 314.28799 318.728 323.728 326.508 329.28799 332.06799 337.06799"
             y="0"
             sodipodi:role="line"
             id="tspan22">Java programmers don’t need type encoding. Objects are strongly typed, and editing</tspan><tspan
             x="-18 -13.56 -8.9580002 -3.9579999 -1.178 2.152 7.152 12.152 19.931999 24.372 29.372 32.152 36.042 39.007999 44.007999 48.098999 52.950001 57.389999 60.355999 64.795998 69.795998 74.546997 78.987 83.987 88.427002 92.866997 97.866997 100.833 104.723 109.723 114.163 119.163 122.129 124.909 129.909 134.349 137.129 140.095 142.875 147.875 152.166 157.166 160.132 165.132 169.57201 172.35201 176.79201 181.23199 184.01199 186.978 191.418 194.384 197.164 202.164 207.164 211.604 214.57001 219.00999 222.638 225.968 230.968 234.298 237.26401 240.04401 245.04401 250.04401 255.04401 258.01001 263.01001 267.45001 270.78 275.78 279.10999 283.54999 286.51599 291.31799 296.31799 301.31799 304.284 308.724 313.164 318.164 321.13 324.65799 329.65799 334.65799 337.62399"
             y="12"
             sodipodi:role="line"
             id="tspan24">environments have advanced such that they detect a type error long before you can run a</tspan><tspan
             x="-18 -13.56 -8.5600004 -0.77999997 4.2199998 7 9.7799997 14.22 17.549999 21.419001 26.979 31.979 35.848 40.848 45.450001 52.421001 56.861 61.861 65.952003 70.952003 74.842003 78.710999 85.931 93.151001 97.019997 101.46 106.46 111.46 115.329 120.329 123.109 128.10899 132.549 135.879 139.748 143.078 148.078 151.606 159.386 163.276 167.145 172.145 175.47501 179.34399 182.12399 187.12399 192.12399 196.564 200.433 204.873 209.873 214.313 219.313 224.313 227.093 232.093 237.093 240.96201 245.40199 248.73199 253.172 257.04099 260.931 263.711 271.491 276.491 279.022 284.022 287.89099 290.67099 298.45099 303.45099 307.89099 312.89099 315.67099 323.45099 327.89099 332.89099 335.67099 339.561"
             y="24"
             sodipodi:role="line"
             id="tspan26">compile! So nowadays HN and other forms of type encoding are simply impediments.</tspan><tspan
             x="-18 -11.89 -6.8899999 -2.599 2.401 6.0539999 13.834 18.274 23.176001 27.615999 31.268999 34.049 36.828999 40.481998 45.481998 49.922001 53.251999 58.251999 62.692001 66.022003 69.675003 72.455002 77.455002 81.108002 85.547997 90.547997 94.987999 99.987999 104.988 109.428 113.081 115.861 120.861 125.301 128.95399 133.95399 138.394 146.174 150.614 154.267 159.267 162.597 166.25 169.03 174.03 179.03 183.47 187.123 192.123 195.453 199.106 203.54601 207.19901 211.95 216.39 219.72 222.5 226.94 231.742 234.522 238.96201 241.46201 245.11501 248.44501 253.44501 258.44501 262.88501 265.66501 268.44501 273.44501 278.44501 280.94501 284.59799 289.59799 292.92801 296.58099 301.021 303.80099 308.241 312.13101 316.021 318.521 321.67599 327.78601 332.78601 337.077"
             y="36"
             sodipodi:role="line"
             id="tspan28">They make it harder to change the name or type of a variable, function, or class. They</tspan><tspan
             x="-18 -10.22 -5.7800002 -0.87800002 3.562 6.605 9.3850002 12.165 15.208 20.208 24.648001 27.978001 32.978001 37.417999 40.748001 43.791 46.570999 51.570999 54.613998 57.944 62.383999 66.823997 71.823997 74.866997 77.647003 82.647003 87.086998 90.129997 94.57 99.57 104.57 109.01 111.51 114.004 121.224 126.224 131.224 134.267 137.047 142.047 146.338 151.338 154.381 158.821 162.151 166.591 171.03101 173.811 178.25101 181.29401 184.07401 189.07401 193.51401 196.55701 201.55701 206.55701 210.44701 214.33701 217.117 222.117 224.897 227.677 230.457 233.237 238.237 241.28 244.06 249.06 253.5 256.28 259.323 262.103 267.103 271.543 274.586 279.026 284.026 288.466 293.466 298.466 301.246 306.246 311.246 314.289 318.17899 323.17899 327.069 329.849 334.289"
             y="48"
             sodipodi:role="line"
             id="tspan30">make it harder to read the code. And they create the possibility that the encoding system</tspan><tspan
             x="-18 -10.78 -8 -5.2199998 -2.4400001 0.059999999 7.8400002 10.62 14.51 17.290001 21.73 26.17 31.17 33.669998 36.450001 41.450001 45.889999 48.389999 51.720001 56.16 60.599998 65.599998 70.040001 72.820999"
             y="60"
             sodipodi:role="line"
             id="tspan32">will mislead the reader.</tspan></text>
        <text
           xml:space="preserve"
           transform="matrix(0.80015552,0,0,-1,97.92,508.7781)"
           style="font-variant:normal;font-weight:normal;font-size:9.002px;font-family:'Courier New';-inkscape-font-specification:Courier;writing-mode:lr-tb;fill:#231f20;fill-opacity:1;fill-rule:nonzero;stroke:none"
           id="text40"><tspan
             x="0 5.4011998 10.8024 16.2036 21.604799 27.006001 32.4072 37.808399 43.209599 48.610802 54.012001 59.4132 64.8144 70.215599 75.616798 81.017998 86.419197 91.820396 97.221603 102.6228 108.024 113.4252 118.8264 124.2276 129.6288"
             y="0"
             sodipodi:role="line"
             id="tspan36">PhoneNumber phoneString; </tspan><tspan
             x="0 5.4011998 10.8024 16.2036 21.604799 27.006001 32.4072 37.808399 43.209599 48.610802 54.012001 59.4132 64.8144 70.215599 75.616798 81.017998 86.419197 91.820396 97.221603 102.6228 108.024 113.4252 118.8264 124.2276 129.6288 135.03 140.4312 145.8324 151.2336 156.6348 162.036 167.43719 172.83839 178.23959 183.64079 189.04201 194.44321 199.84441"
             y="9.0001993"
             sodipodi:role="line"
             id="tspan38">// name not changed when type changed!</tspan></text>
        <text
           xml:space="preserve"
           transform="matrix(1,0,0,-1,79.92,476.778)"
           style="font-variant:normal;font-weight:bold;font-size:12px;font-family:'Times New Roman';-inkscape-font-specification:TimesNewRomanPS-Bold;writing-mode:lr-tb;fill:#231f20;fill-opacity:1;fill-rule:nonzero;stroke:none"
           id="text44"><tspan
             x="0 11.328 16.656 26.652 33.324001 38.652 43.98 46.98 54.312 59.2836 64.611603 71.2836 77.047203 82.375198"
             y="0"
             sodipodi:role="line"
             id="tspan42">Member Preﬁxes</tspan></text>
        <text
           xml:space="preserve"
           transform="matrix(1,0,0,-1,79.92,456.1111)"
           style="font-variant:normal;font-weight:normal;font-size:10px;font-family:'Times New Roman';-inkscape-font-specification:TimesNewRomanPS;writing-mode:lr-tb;fill:#231f20;fill-opacity:1;fill-rule:nonzero;stroke:none"
           id="text48"><tspan
             x="0 5.6209998 10.621 15.621 18.785999 23.226 26.006001 29.896 34.896 38.061001 43.061001 48.061001 53.061001 55.893002 58.673 61.838001 66.837997 71.278 75.718002 80.718002 83.883003 86.663002 91.663002 94.828003 99.828003 103.158 107.598 113.158 118.158 121.323 129.103 133.543 141.323 146.323 150.763 154.093 157.258 162.009 166.44901 169.77901 172.55901 176.99899 181.80099 184.58099 189.021 192.911 196.076 203.29601 206.076 208.856 213.856"
             y="0"
             sodipodi:role="line"
             id="tspan46">You also don’t need to preﬁx member variables with </tspan></text>
        <text
           xml:space="preserve"
           transform="matrix(0.80015552,0,0,-1,296.896,456.1111)"
           style="font-variant:normal;font-weight:normal;font-size:9.002px;font-family:'Courier New';-inkscape-font-specification:Courier;writing-mode:lr-tb;fill:#231f20;fill-opacity:1;fill-rule:nonzero;stroke:none"
           id="text52"><tspan
             x="0 5.4011998"
             y="0"
             sodipodi:role="line"
             id="tspan50">m_</tspan></text>
        <text
           xml:space="preserve"
           transform="matrix(1,0,0,-1,308.684,456.1111)"
           style="font-variant:normal;font-weight:normal;font-size:10px;font-family:'Times New Roman';-inkscape-font-specification:TimesNewRomanPS;writing-mode:lr-tb;fill:#231f20;fill-opacity:1;fill-rule:nonzero;stroke:none"
           id="text60"><tspan
             x="0 4.4400001 9.191 14.191 21.971001 26.971001 30.301001 34.741001 37.241001 39.507999 45.129002 50.129002 55.129002 58.459 61.624001 66.064003 68.844002 73.283997 77.174004 81.064003 85.503998 89.393997 92.558998 96.999001 101.999 106.999 110.164 113.494 118.494 123.494 127.934"
             y="0"
             sodipodi:role="line"
             id="tspan54">anymore. Your classes and func-</tspan><tspan
             x="-228.76401 -225.98399 -223.20399 -218.20399 -213.20399 -209.314 -206.52901 -202.63901 -197.63901 -192.63901 -187.63901 -184.85899 -179.85899 -177.07401 -172.07401 -167.634 -164.849 -160.959 -153.179 -148.739 -145.959 -143.179 -140.394 -135.95399 -130.95399 -125.954 -120.954 -115.954 -110.954 -108.169 -105.389 -100.389 -95.948997 -93.168999 -90.384003 -85.582001 -80.582001 -75.582001 -72.796997 -67.796997 -62.797001 -57.797001 -54.965 -52.185001 -49.400002 -44.400002 -39.959999 -35.52 -30.52 -27.735001 -24.955 -19.955 -15.515 -7.7350001 -5.2350001 -2.9990001 4.2210002 9.2209997 14.221 17.006001 21.808001 26.808001 31.808001 34.592999 38.483002 43.483002 48.483002 53.483002 56.263 61.263 64.047997 69.047997 73.487999 76.273003 81.273003 85.163002 87.943001 92.943001 97.943001 100.728 105.168 110.168 112.953 117.393 122.393 125.173 127.953"
             y="12"
             sodipodi:role="line"
             id="tspan56">tions should be small enough that you don’t need them. And you should be using an edit-</tspan><tspan
             x="-228.76401 -225.98399 -220.98399 -215.98399 -213.48399 -209.04401 -204.442 -199.442 -196.662 -193.332 -188.332 -183.332 -175.552 -171.112 -166.112 -163.332 -160.832 -158.052 -153.052 -148.612 -145.832 -143.332 -138.332 -135.552 -130.552 -125.552 -122.772 -119.992 -114.992 -109.992 -107.212 -103.322 -100.822 -95.821999 -92.491997 -89.991997 -85.552002 -80.552002 -77.772003 -72.772003 -69.442001 -66.662003 -62.222 -57.782001 -53.891998 -51.391998 -43.612 -39.172001 -31.392 -26.392 -21.952 -18.622 -14.732 -12.232 -9.4519997 -4.4520001 -1.952 5.8280001 10.268 15.17 19.610001 22.110001 24.889999 29.889999 34.330002 42.110001 44.610001 49.610001 52.389999 56.279999 59.060001 61.84 66.839996 71.279999 74.059998"
             y="24"
             sodipodi:role="line"
             id="tspan58">ing environment that highlights or colorizes members to make them distinct.</tspan></text>
        <text
           xml:space="preserve"
           transform="matrix(0.80015552,0,0,-1,97.92,414.778)"
           style="font-variant:normal;font-weight:normal;font-size:9.002px;font-family:'Courier New';-inkscape-font-specification:Courier;writing-mode:lr-tb;fill:#231f20;fill-opacity:1;fill-rule:nonzero;stroke:none"
           id="text88"><tspan
             x="0 5.4011998 10.8024 16.2036 21.604799 27.006001 32.4072 37.808399 43.209599 48.610802 54.012001 59.4132 64.8144 70.215599 75.616798 81.017998 86.419197 91.820396 97.221603 102.6228"
             y="0"
             sodipodi:role="line"
             id="tspan62">public class Part { </tspan><tspan
             x="12.597399 17.998598 23.399799 28.800999 34.202198 39.603397 45.004601 50.4058 55.806999 61.208199 66.609398 72.010597 77.411797 82.812996 88.214195 93.615402 99.016602 104.4178 109.819 115.2202 120.6214 126.0226 131.4238 136.825 142.2262 147.6274 153.02859 158.42979 163.83099 169.23219 174.63339 180.03459 185.43581 190.83701 196.2382 201.6394 207.0406 212.4418 217.843 223.2442 228.6454 234.0466 239.4478 244.849 250.2502 255.6514 261.05261 266.4538"
             y="9.0001993"
             sodipodi:role="line"
             id="tspan64">private String m_dsc; // The textual description</tspan><tspan
             x="12.597399 17.998598 23.399799 28.800999 34.202198 39.603397 45.004601 50.4058 55.806999 61.208199 66.609398 72.010597 77.411797 82.812996 88.214195 93.615402 99.016602 104.4178 109.819 115.2202 120.6214 126.0226 131.4238 136.825 142.2262 147.6274 153.02859"
             y="18.000399"
             sodipodi:role="line"
             id="tspan66">void setName(String name) {</tspan><tspan
             x="25.194798 30.595997 35.997196 41.398399 46.799599 52.200798 57.601997 63.003197 68.404396 73.805595 79.206795 84.607994 90.009201"
             y="27.001499"
             sodipodi:role="line"
             id="tspan68">m_dsc = name;</tspan><tspan
             x="12.597399"
             y="36.001698"
             id="tspan70">}</tspan><tspan
             x="0"
             y="45.0019"
             id="tspan72">}</tspan><tspan
             x="0 5.4011998 10.8024 16.2036 21.604799 27.006001 32.4072 37.808399 43.209599 48.610802 54.012001 59.4132 64.8144 70.215599 75.616798 81.017998 86.419197 91.820396 97.221603 102.6228 108.024 113.4252 118.8264 124.2276 129.6288 135.03 140.4312 145.8324 151.2336 156.6348 162.036 167.43719 172.83839 178.23959 183.64079 189.04201 194.44321 199.84441 205.24561 210.6468 216.048 221.4492 226.8504 232.2516 237.6528 243.054 248.4552 253.8564 259.2576"
             y="54.002098"
             sodipodi:role="line"
             id="tspan74">_________________________________________________</tspan><tspan
             x="0 5.4011998 10.8024 16.2036 21.604799 27.006001 32.4072 37.808399 43.209599 48.610802 54.012001 59.4132 64.8144 70.215599 75.616798 81.017998 86.419197 91.820396 97.221603 102.6228"
             y="72.003395"
             sodipodi:role="line"
             id="tspan76">public class Part { </tspan><tspan
             x="12.597399 17.998598 23.399799 28.800999 34.202198 39.603397 45.004601 50.4058 55.806999 61.208199 66.609398 72.010597 77.411797 82.812996 88.214195 93.615402 99.016602 104.4178 109.819"
             y="81.003593"
             sodipodi:role="line"
             id="tspan78">String description;</tspan><tspan
             x="12.597399 17.998598 23.399799 28.800999 34.202198 39.603397 45.004601 50.4058 55.806999 61.208199 66.609398 72.010597 77.411797 82.812996 88.214195 93.615402 99.016602 104.4178 109.819 115.2202 120.6214 126.0226 131.4238 136.825 142.2262 147.6274 153.02859 158.42979 163.83099 169.23219 174.63339 180.03459 185.43581 190.83701 196.2382 201.6394 207.0406 212.4418 217.843 223.2442 228.6454 234.0466"
             y="90.003799"
             sodipodi:role="line"
             id="tspan80">void setDescription(String description) { </tspan><tspan
             x="25.194798 30.595997 35.997196 41.398399 46.799599 52.200798 57.601997 63.003197 68.404396 73.805595 79.206795 84.607994 90.009201 95.4104 100.8116 106.2128 111.614 117.0152 122.4164 127.8176 133.2188 138.62 144.02119 149.42239 154.82359 160.22479 165.62599 171.02719 176.42839 181.82961 187.2308"
             y="99.003998"
             sodipodi:role="line"
             id="tspan82">this.description = description;</tspan><tspan
             x="12.597399"
             y="108.0051"
             id="tspan84">}</tspan><tspan
             x="0"
             y="117.0053"
             id="tspan86">}</tspan></text>
        <text
           xml:space="preserve"
           transform="matrix(1,0,0,-1,97.92,282.1111)"
           style="font-variant:normal;font-weight:normal;font-size:10px;font-family:'Times New Roman';-inkscape-font-specification:TimesNewRomanPS;writing-mode:lr-tb;fill:#231f20;fill-opacity:1;fill-rule:nonzero;stroke:none"
           id="text96"><tspan
             x="0 6.6700001 11.11 15 17.780001 22.780001 27.219999 31.110001 33.610001 37.236 42.236 46.675999 51.675999 56.675999 59.456001 63.896 67.522003 72.522003 77.522003 80.302002 84.741997 89.741997 92.273003 97.273003 100.899 103.679 108.119 112.559 116.087 121.087 124.713 127.493 132.493 136.119 138.899 143.899 148.899 153.899 157.229 161.66901 165.295 168.075 173.075 177.515 181.14101 186.14101 189.47099 193.911 199.47099 204.47099 208.097 211.427 216.427 219.757 223.383 227.27299 232.27299 235.354 240.914 245.914 249.244 252.87 255.64999 260.64999 264.276 268.16599 272.60599 277.04599 280.672 283.452 288.452 292.892 296.51801 304.298 308.73801 313.17801 318.17801 320.95801 325.95801 330.95801 334.28799 339.28799"
             y="0"
             sodipodi:role="line"
             id="tspan90">Besides, people quickly learn to ignore the preﬁx (or sufﬁx) to see the meaningful</tspan><tspan
             x="-18 -13 -8.5600004 -5.0320001 -2.2520001 0.65200001 5.652 8.9820004 11.886 14.666 19.666 24.106001 27.01 32.009998 36.450001 44.23 48.669998 51.169998 53.576 59.686001 64.685997 69.125999 72.029999 79.809998 84.809998 88.139999 92.580002 95.484001 102.355 106.795 109.699 113.029 117.469 121.909 126.909 129.813 132.593 137.593 142.033 144.937 149.377 154.377 159.377 163.817 166.317 169.22099 172.00101 177.00101 181.44099 184.345 187.125 191.565 195.455 199.345 202.24899 209.12 213.56 216.464 220.354 224.79401 229.23399 232.138 234.918 239.918 244.358 247.26199 252.26199 255.592 260.03201 265.59201 270.29401 274.73401 278.62399 281.12399 284.02802 290.138 294.98901 299.42899 304.42899 307.20901 312.20901 316.64899 319.42899 321.95999 326.95999 329.86401 332.64401 337.64401"
             y="12"
             sodipodi:role="line"
             id="tspan92">part of the name. The more we read the code, the less we see the preﬁxes. Eventually the</tspan><tspan
             x="-18 -13 -9.6700001 -5.23 0.33000001 5.0320001 9.4720001 13.362 15.862 20.862 25.302 29.742001 34.742001 42.521999 46.962002 49.462002 54.462002 59.462002 63.352001 67.792 72.232002 77.232002 79.732002 84.171997 86.952003 91.952003 94.732002 97.512001 101.952 105.282 107.782 112.222 117.222 122.222 124.722 129.162 131.662 139.442 143.882 147.21201 152.114 156.554 159.884 162.384 167.384 170.714 173.214 178.214 180.994 185.994 190.43401 193.76401 196.26401 200.70399 205.70399 210.70399 215.144"
             y="24"
             sodipodi:role="line"
             id="tspan94">preﬁxes become unseen clutter and a marker of older code.</tspan></text>
        <text
           xml:space="preserve"
           transform="matrix(1,0,0,-1,79.92,232.778)"
           style="font-variant:normal;font-weight:bold;font-size:12px;font-family:'Times New Roman';-inkscape-font-specification:TimesNewRomanPS-Bold;writing-mode:lr-tb;fill:#231f20;fill-opacity:1;fill-rule:nonzero;stroke:none"
           id="text100"><tspan
             x="0 4.6680002 11.34 15.336 20.664 25.992001 29.988001 35.987999 41.316002 46.644001 51.312 54.312 60.312 66.984001 73.655998 76.655998 81.323997 91.32 97.991997 101.328 106.656 116.652 121.98 128.65199 132.64799 138.64799 142.644 145.98 151.98 158.65199"
             y="0"
             sodipodi:role="line"
             id="tspan98">Interfaces and Implementations</tspan></text>
        <text
           xml:space="preserve"
           transform="matrix(1,0,0,-1,79.92,212.1121)"
           style="font-variant:normal;font-weight:normal;font-size:10px;font-family:'Times New Roman';-inkscape-font-specification:TimesNewRomanPS;writing-mode:lr-tb;fill:#231f20;fill-opacity:1;fill-rule:nonzero;stroke:none"
           id="text106"><tspan
             x="0 6.1110001 11.112 15.553 19.444 23.885 27.073 31.514 34.845001 39.285999 42.473999 46.365002 51.366001 59.146999 63.588001 66.369003 69.150002 76.931 81.372002 85.263 88.450996 92.891998 96.080002 99.971001 104.972 109.413 113.854 116.635 121.076 123.857 127.045 131.48599 135.927 139.81799 144.259 147.44701 150.778 155.77901 159.11 162.298 166.739 171.74001 176.181 181.18201 186.183 188.964 193.965 198.966 202.85699 205.358 208.54601 213.608 218.60899 221.94 225.12801 229.41901 234.42 238.86099 246.642 251.64301 254.424 258.86499 261.366 264.55399 268.44501 272.53601 277.53699 280.72501 285.52701 290.52802 295.52899 298.71701 303.15799 306.48901 310.92999 314.11801 319.11899 324.12 326.901 329.68201 334.68301 337.46399 342.465 347.466 350.65399 355.095"
             y="0"
             sodipodi:role="line"
             id="tspan102">These are sometimes a special case for encodings. For example, say you are building an</tspan><tspan
             x="0"
             y="12"
             id="tspan104">A</tspan></text>
        <text
           xml:space="preserve"
           transform="matrix(1,0,0,-1,87.139,200.1121)"
           style="font-variant:normal;font-weight:normal;font-size:8px;font-family:'Times New Roman';-inkscape-font-specification:TimesNewRomanPS;writing-mode:lr-tb;fill:#231f20;fill-opacity:1;fill-rule:nonzero;stroke:none"
           id="text110"><tspan
             x="0 5.336 9.7840004 14.672 20.007999 25.784 31.120001"
             y="0"
             sodipodi:role="line"
             id="tspan108">BSTRACT</tspan></text>
        <text
           xml:space="preserve"
           transform="matrix(1,0,0,-1,125.988,200.1121)"
           style="font-variant:normal;font-weight:normal;font-size:10px;font-family:'Times New Roman';-inkscape-font-specification:TimesNewRomanPS;writing-mode:lr-tb;fill:#231f20;fill-opacity:1;fill-rule:nonzero;stroke:none"
           id="text114"><tspan
             x="0"
             y="0"
             id="tspan112">F</tspan></text>
        <text
           xml:space="preserve"
           transform="matrix(1,0,0,-1,131.547,200.1121)"
           style="font-variant:normal;font-weight:normal;font-size:8px;font-family:'Times New Roman';-inkscape-font-specification:TimesNewRomanPS;writing-mode:lr-tb;fill:#231f20;fill-opacity:1;fill-rule:nonzero;stroke:none"
           id="text118"><tspan
             x="0 5.776 11.112 16 21.775999 27.112"
             y="0"
             sodipodi:role="line"
             id="tspan116">ACTORY</tspan></text>
        <text
           xml:space="preserve"
           transform="matrix(1,0,0,-1,167.274,200.1121)"
           style="font-variant:normal;font-weight:normal;font-size:10px;font-family:'Times New Roman';-inkscape-font-specification:TimesNewRomanPS;writing-mode:lr-tb;fill:#231f20;fill-opacity:1;fill-rule:nonzero;stroke:none"
           id="text124"><tspan
             x="0 3.3299999 8.3299999 11.66 14.47 17.25 22.25 26.690001 29.5 33.939999 37.27 41.709999 46.150002 48.93 51.709999 56.709999 61.709999 64.519997 69.519997 72.849998 75.660004 79.550003 84.550003 88.989998 93.989998 98.43 102.32 104.82 107.132 113.242 118.242 121.022 124.912 127.722 131.14999 135.59 140.03 142.81 147.81 151.338 156.338 159.14799 166.368 169.14799 171.92799 174.70799 177.51801 182.51801 186.95799 189.76801 194.20799 199.20799 202.01801 204.798 209.798 212.578 217.01801 220.34801 223.776 228.216 232.65601 237.09599 239.90601 244.34599 249.34599 254.34599 257.15601 264.37601 267.15601 269.936"
             y="0"
             sodipodi:role="line"
             id="tspan120">for the creation of shapes. This factory will be an interface and will</tspan><tspan
             x="-87.353996 -82.353996 -77.914001 -73.833 -71.053001 -63.272999 -58.272999 -55.493 -51.053001 -43.272999 -38.833 -33.833 -31.052999 -26.613001 -21.613001 -17.532 -12.781 -7.7810001 -3.7 0.74000001 4.8210001 9.2609997 14.261 19.261 23.701 27.031 31.471001 34.250999 38.691002 42.771999 47.212002 49.992001 54.431999 58.321999 62.212002 64.711998 68.495003 77.934998 82.934998 87.375 90.154999 94.236 98.125999 103.126 108.126 113.126 115.906 120.906 124.987 129.789 134.789 139.789 143.87 148.87 153.31 161.09 165.53 169.61099 172.39101 177.39101 181.83099 189.61099 194.05099"
             y="12"
             sodipodi:role="line"
             id="tspan122">be implemented by a concrete class. What should you name them? </tspan></text>
        <text
           xml:space="preserve"
           transform="matrix(0.80015552,0,0,-1,365.352,188.112)"
           style="font-variant:normal;font-weight:normal;font-size:9.002px;font-family:'Courier New';-inkscape-font-specification:Courier;writing-mode:lr-tb;fill:#231f20;fill-opacity:1;fill-rule:nonzero;stroke:none"
           id="text128"><tspan
             x="0 5.4011998 10.8024 16.2036 21.604799 27.006001 32.4072 37.808399 43.209599 48.610802 54.012001 59.4132 64.8144"
             y="0"
             sodipodi:role="line"
             id="tspan126">IShapeFactory</tspan></text>
        <text
           xml:space="preserve"
           transform="matrix(1,0,0,-1,425.481,188.112)"
           style="font-variant:normal;font-weight:normal;font-size:10px;font-family:'Times New Roman';-inkscape-font-specification:TimesNewRomanPS;writing-mode:lr-tb;fill:#231f20;fill-opacity:1;fill-rule:nonzero;stroke:none"
           id="text132"><tspan
             x="0 4.4400001 9.4399996"
             y="0"
             sodipodi:role="line"
             id="tspan130">and</tspan></text>
        <text
           xml:space="preserve"
           transform="matrix(0.80015552,0,0,-1,79.92,176.112)"
           style="font-variant:normal;font-weight:normal;font-size:9.002px;font-family:'Courier New';-inkscape-font-specification:Courier;writing-mode:lr-tb;fill:#231f20;fill-opacity:1;fill-rule:nonzero;stroke:none"
           id="text136"><tspan
             x="0 5.4011998 10.8024 16.2036 21.604799 27.006001 32.4072 37.808399 43.209599 48.610802 54.012001 59.4132"
             y="0"
             sodipodi:role="line"
             id="tspan134">ShapeFactory</tspan></text>
        <text
           xml:space="preserve"
           transform="matrix(1,0,0,-1,131.657,176.112)"
           style="font-variant:normal;font-weight:normal;font-size:10px;font-family:'Times New Roman';-inkscape-font-specification:TimesNewRomanPS;writing-mode:lr-tb;fill:#231f20;fill-opacity:1;fill-rule:nonzero;stroke:none"
           id="text140"><tspan
             x="0 4.4400001 8.7290001 12.059 16.348 21.348 24.677999 29.118 32.448002 36.888 40.217999 44.507 47.286999 52.286999 56.576 59.355999 63.796001 67.887001 72.737999 77.178001 81.467003 84.247002 89.247002 92.027 96.467003 99.796997 103.225 107.665 112.105 116.545 120.435 124.724 129.724 134.724 139.164 144.164 149.164 152.692 157.692 162.132 167.132 169.632 173.423 179.533 184.533 188.97301 193.26199 198.26199 201.592 206.032 210.472 214.912 219.912 222.692 227.692 232.692"
             y="0"
             sodipodi:role="line"
             id="tspan138">? I prefer to leave interfaces unadorned. The preceding </tspan></text>
        <text
           xml:space="preserve"
           transform="matrix(0.80015552,0,0,-1,368.58,176.112)"
           style="font-variant:normal;font-weight:normal;font-size:9.002px;font-family:'Courier New';-inkscape-font-specification:Courier;writing-mode:lr-tb;fill:#231f20;fill-opacity:1;fill-rule:nonzero;stroke:none"
           id="text144"><tspan
             x="0"
             y="0"
             id="tspan142">I</tspan></text>
        <text
           xml:space="preserve"
           transform="matrix(1,0,0,-1,372.891,176.112)"
           style="font-variant:normal;font-weight:normal;font-size:10px;font-family:'Times New Roman';-inkscape-font-specification:TimesNewRomanPS;writing-mode:lr-tb;fill:#231f20;fill-opacity:1;fill-rule:nonzero;stroke:none"
           id="text154"><tspan
             x="0 2.5 6.789 10.679 15.679 19.968 24.408001 29.408001 37.188 44.967999 49.967999 54.967999 59.257 62.036999"
             y="0"
             sodipodi:role="line"
             id="tspan146">, so common in</tspan><tspan
             x="-292.97101 -290.19199 -285.19299 -280.194 -276.103 -271.104 -269.173 -265.284 -261.629 -258.85001 -254.55901 -249.56 -245.121 -240.83 -235.83099 -232.17599 -225.205 -220.76601 -215.767 -211.87801 -209.379 -205.724 -202.94501 -199.056 -195.401 -190.96201 -187.30701 -182.308 -179.52901 -175.64 -172.86099 -169.532 -165.093 -160.65401 -157.875 -155.09599 -150.097 -145.09801 -141.44299 -137.004 -134.22501 -130.57001 -125.571 -121.132 -117.243 -114.464 -110.809 -106.37 -101.371 -96.372002 -92.717003 -89.938004 -84.939003 -79.940002 -76.285004 -68.505997 -63.507 -59.068001 -54.069 -50.414001 -47.634998 -42.636002 -39.306999 -34.307999 -30.780001 -23.000999 -18.562 -15.783 -13.004 -8.0050001 -3.006 0.64899999 5.0879998 7.8670001 11.522 18.344 23.343 26.672001 30.561001 33.34 35.839001 39.493999 42.823002 46.478001 51.477001 56.476002 61.474998 64.306999"
             y="12"
             sodipodi:role="line"
             id="tspan148">today’s legacy wads, is a distraction at best and too much information at worst. I don’t</tspan><tspan
             x="-292.97101 -286 -281.56 -276.56 -273.78 -271.08701 -263.70499 -258.70499 -256.01199 -251.01199 -247.12199 -242.68201 -239.35201 -235.46201 -232.769 -227.769 -222.769 -218.16701 -210.94701 -208.16701 -203.16701 -198.16701 -195.474 -192.694 -187.694 -183.254 -180.474 -177.78101 -174.451 -171.121 -163.341 -160.64799 -155.64799 -151.20799 -146.20799 -141.20799 -138.42799 -133.42799 -128.42799 -125.735 -122.955 -117.955 -113.515 -105.735 -103.042 -98.601997 -93.601997 -90.908997 -88.128998 -83.128998 -80.348999 -75.908997 -72.579002 -69.151001 -64.710999 -60.271 -55.831001 -53.331001 -50.638 -47.307999 -44.615002 -41.834999 -36.834999 -32.945 -30.165001 -27.472 -20.500999 -16.061001 -11.061 -8.2810001 -5.5879998 -2.8080001 2.1919999 6.632 14.412 17.105 19.885 24.885 27.577999 32.577999 37.577999 42.18 49.400002 52.092999 54.873001 59.873001 64.313004"
             y="24"
             sodipodi:role="line"
             id="tspan150">want my users knowing that I’m handing them an interface. I just want them to know that</tspan><tspan
             x="-292.97101 -290.19101 -287.41101 -285.48001 -281.59 -279.23999 -274.79999"
             y="36"
             sodipodi:role="line"
             id="tspan152">it’s a </tspan></text>
        <text
           xml:space="preserve"
           transform="matrix(0.80015552,0,0,-1,100.433,140.112)"
           style="font-variant:normal;font-weight:normal;font-size:9.002px;font-family:'Courier New';-inkscape-font-specification:Courier;writing-mode:lr-tb;fill:#231f20;fill-opacity:1;fill-rule:nonzero;stroke:none"
           id="text158"><tspan
             x="0 5.4011998 10.8024 16.2036 21.604799 27.006001 32.4072 37.808399 43.209599 48.610802 54.012001 59.4132"
             y="0"
             sodipodi:role="line"
             id="tspan156">ShapeFactory</tspan></text>
        <text
           xml:space="preserve"
           transform="matrix(1,0,0,-1,152.171,140.112)"
           style="font-variant:normal;font-weight:normal;font-size:10px;font-family:'Times New Roman';-inkscape-font-specification:TimesNewRomanPS;writing-mode:lr-tb;fill:#231f20;fill-opacity:1;fill-rule:nonzero;stroke:none"
           id="text164"><tspan
             x="0 2.5 4.8499999 10.41 15.41 17.76 20.540001 23.870001 26.219999 29.549999 31.9 39.68 44.68 48.57 51.349998 53.700001 58.139999 63.139999 67.580002 72.580002 77.580002 82.019997 84.370003 88.809998 91.589996 94.370003 99.370003 103.81 107.14 109.49 112.27 117.27 121.71 124.06 126.84 131.84 134.62 139.06 142.39 145.81799 150.258 154.698 159.138 161.48801 166.48801 169.81799 172.168 174.948 179.948 184.388 186.73801 189.51801 197.298 202.298 205.078 209.51801 217.298 221.73801 226.73801 229.51801 233.95799 236.73801 239.51801 244.51801 249.51801 252.01801 254.368 257.698 260.048 264.48801 269.48801 274.48801 279.48801 283.37799"
             y="0"
             sodipodi:role="line"
             id="tspan160">. So if I must encode either the interface or the implementation, I choose</tspan><tspan
             x="-72.250999 -69.471001 -64.471001 -60.030998 -57.705002 -54.924999 -47.145 -42.145 -39.365002 -34.924999 -27.145 -22.705 -17.705 -14.925 -10.485 -7.7049999 -4.9250002 0.075000003 5.0749998 7.5749998 9.901 16.570999 21.011 23.791 26.570999 29.351 34.351002 39.351002 41.676998 44.457001 47.237"
             y="12"
             sodipodi:role="line"
             id="tspan162">the implementation. Calling it </tspan></text>
        <text
           xml:space="preserve"
           transform="matrix(0.80015552,0,0,-1,201.703,128.112)"
           style="font-variant:normal;font-weight:normal;font-size:9.002px;font-family:'Courier New';-inkscape-font-specification:Courier;writing-mode:lr-tb;fill:#231f20;fill-opacity:1;fill-rule:nonzero;stroke:none"
           id="text168"><tspan
             x="0 5.4011998 10.8024 16.2036 21.604799 27.006001 32.4072 37.808399 43.209599 48.610802 54.012001 59.4132 64.8144 70.215599 75.616798"
             y="0"
             sodipodi:role="line"
             id="tspan166">ShapeFactoryImp</tspan></text>
        <text
           xml:space="preserve"
           transform="matrix(1,0,0,-1,266.374,128.112)"
           style="font-variant:normal;font-weight:normal;font-size:10px;font-family:'Times New Roman';-inkscape-font-specification:TimesNewRomanPS;writing-mode:lr-tb;fill:#231f20;fill-opacity:1;fill-rule:nonzero;stroke:none"
           id="text172"><tspan
             x="0 2.5 4.8260002 9.8260002 13.156 15.482 19.673 24.524 28.964001 33.964001 36.290001 39.07 44.07 48.509998 50.835999 55.835999 58.616001 63.616001 68.056 73.056 78.056 81.945999"
             y="0"
             sodipodi:role="line"
             id="tspan170">, or even the hideous </tspan></text>
        <text
           xml:space="preserve"
           transform="matrix(0.80015552,0,0,-1,350.631,128.112)"
           style="font-variant:normal;font-weight:normal;font-size:9.002px;font-family:'Courier New';-inkscape-font-specification:Courier;writing-mode:lr-tb;fill:#231f20;fill-opacity:1;fill-rule:nonzero;stroke:none"
           id="text176"><tspan
             x="0 5.4011998 10.8024 16.2036 21.604799 27.006001 32.4072 37.808399 43.209599 48.610802 54.012001 59.4132 64.8144"
             y="0"
             sodipodi:role="line"
             id="tspan174">CShapeFactory</tspan></text>
        <text
           xml:space="preserve"
           transform="matrix(1,0,0,-1,406.68,128.112)"
           style="font-variant:normal;font-weight:normal;font-size:10px;font-family:'Times New Roman';-inkscape-font-specification:TimesNewRomanPS;writing-mode:lr-tb;fill:#231f20;fill-opacity:1;fill-rule:nonzero;stroke:none"
           id="text182"><tspan
             x="0 2.5 4.8260002 7.6059999 11.496 13.822 18.822001 22.152 26.591999 29.922001"
             y="0"
             sodipodi:role="line"
             id="tspan178">, is pref-</tspan><tspan
             x="-326.76001 -322.32001 -318.98999 -314.54999 -309.74799 -306.96799 -302.52802 -300.02802 -297.24799 -292.24799 -289.74799 -285.30801 -280.30801 -275.86801 -270.86801 -265.86801 -263.08801 -258.08801 -253.088 -250.588 -247.808 -242.808 -238.368 -235.868 -233.088 -228.088 -225.308 -220.868 -217.53799 -214.11 -209.67 -205.23 -200.78999"
             y="12"
             sodipodi:role="line"
             id="tspan180">erable to encoding the interface.</tspan></text>
        <g
           id="g184">
          <g
             id="g186"
             clip-path="url(#clipPath190)">
            <path
               d="m -37.08,664.778 h 36 m -36,-666 h 36 m 522,0 h 36 m -36,666 h 36 m -549,45 v -36 m 504,36 v -36 m 0,-684 v -36 m -504,36 v -36"
               style="fill:none;stroke:#ffffff;stroke-width:0.75;stroke-linecap:butt;stroke-linejoin:miter;stroke-miterlimit:10;stroke-dasharray:none;stroke-opacity:1"
               id="path192" />
            <path
               d="m -37.08,664.778 h 36 m -36,-666 h 36 m 522,0 h 36 m -36,666 h 36 m -549,45 v -36 m 504,36 v -36 m 0,-684 v -36 m -504,36 v -36 m -12,378 c 0,3.312 -2.688,6 -6,6 -3.312,0 -6,-2.688 -6,-6 0,-3.312 2.688,-6 6,-6 3.312,0 6,2.688 6,6 z m -24,0 h 27 m -9,24 v -48 m 545.94,24 c 0,3.312 -2.688,6 -6,6 -3.312,0 -6,-2.688 -6,-6 0,-3.312 2.688,-6 6,-6 3.312,0 6,2.688 6,6 z m -14.94,0 h 27 m -18,24 v -48 m -534,345 c 0,3.312 -2.688,6 -6,6 -3.312,0 -6,-2.688 -6,-6 0,-3.312 2.688,-6 6,-6 3.312,0 6,2.688 6,6 z m -24,0 h 27 m -9,9 v -33 m 6,-618 c 0,3.312 -2.688,6 -6,6 -3.312,0 -6,-2.688 -6,-6 0,-3.312 2.688,-6 6,-6 3.312,0 6,2.688 6,6 z m -24,0 h 27 m -9,24 v -33 m 545.94,651 c 0,3.312 -2.688,6 -6,6 -3.312,0 -6,-2.688 -6,-6 0,-3.312 2.688,-6 6,-6 3.312,0 6,2.688 6,6 z m -14.94,0 h 27 m -18,9 v -33 m 5.94,-618 c 0,3.312 -2.688,6 -6,6 -3.312,0 -6,-2.688 -6,-6 0,-3.312 2.688,-6 6,-6 3.312,0 6,2.688 6,6 z m -14.94,0 h 27 m -18,24 v -33"
               style="fill:none;stroke:#000000;stroke-width:0.25;stroke-linecap:butt;stroke-linejoin:miter;stroke-miterlimit:10;stroke-dasharray:none;stroke-opacity:1"
               id="path194" />
          </g>
        </g>
      </g>
    </g>
    <g
       id="g196">
      <g
         id="g198"
         transform="translate(218,6.56)">
        <text
           xml:space="preserve"
           transform="scale(1,-1)"
           style="font-variant:normal;font-weight:normal;font-size:10px;font-family:Helvetica;-inkscape-font-specification:Helvetica;writing-mode:lr-tb;fill:#0000ff;fill-opacity:1;fill-rule:nonzero;stroke:none"
           id="text202"><tspan
             x="0 7.2199998 14.44 21.66 24.440001 26.66 29.440001 32.77 38.330002 43.889999 49.450001 55.009998 60.009998 65.010002 67.790001 70.010002 75.57 78.349998"
             y="0"
             sodipodi:role="line"
             id="tspan200">www.it-ebooks.info</tspan></text>
        <g
           id="g204"
           transform="translate(-218,-6.56)" />
      </g>
    </g>
  </g>
</svg>
