<?xml version="1.0" encoding="UTF-8" standalone="no"?>
<!-- Created with Inkscape (http://www.inkscape.org/) -->

<svg
   version="1.1"
   id="svg2"
   width="690.14398"
   height="888.47998"
   viewBox="0 0 690.14398 888.47998"
   sodipodi:docname="4PmrqTPDrJV6cyWn.pdf"
   xmlns:inkscape="http://www.inkscape.org/namespaces/inkscape"
   xmlns:sodipodi="http://sodipodi.sourceforge.net/DTD/sodipodi-0.dtd"
   xmlns="http://www.w3.org/2000/svg"
   xmlns:svg="http://www.w3.org/2000/svg">
  <defs
     id="defs6">
    <clipPath
       clipPathUnits="userSpaceOnUse"
       id="clipPath262">
      <path
         d="M 0,665.858 H 519.84 V 0 H 0 Z"
         id="path260" />
    </clipPath>
  </defs>
  <sodipodi:namedview
     id="namedview4"
     pagecolor="#ffffff"
     bordercolor="#000000"
     borderopacity="0.25"
     inkscape:showpageshadow="2"
     inkscape:pageopacity="0.0"
     inkscape:pagecheckerboard="0"
     inkscape:deskcolor="#d1d1d1" />
  <g
     id="g8"
     inkscape:groupmode="layer"
     inkscape:label="4PmrqTPDrJV6cyWn"
     transform="matrix(1.3333333,0,0,-1.3333333,-1.46,887.61333)">
    <g
       id="g10">
      <g
         id="g12">
        <text
           xml:space="preserve"
           transform="matrix(1,0,0,-1,79.92,622.111)"
           style="font-variant:normal;font-weight:normal;font-size:10px;font-family:'Times New Roman';-inkscape-font-specification:TimesNewRomanPS;writing-mode:lr-tb;fill:#231f20;fill-opacity:1;fill-rule:nonzero;stroke:none"
           id="text16"><tspan
             x="0 5"
             y="0"
             sodipodi:role="line"
             id="tspan14">28</tspan></text>
        <text
           xml:space="preserve"
           transform="matrix(1,0,0,-1,310.237,622.111)"
           style="font-variant:normal;font-weight:bold;font-size:10px;font-family:'Times New Roman';-inkscape-font-specification:TimesNewRomanPS-Bold;writing-mode:lr-tb;fill:#231f20;fill-opacity:1;fill-rule:nonzero;stroke:none"
           id="text20"><tspan
             x="0 7.2199998 12.78 17.780001 23.34 26.67 31.110001 35.549999 38.148998 43.148998 46.181 48.779999 58.220001 62.66 67.660004 73.220001 76 81.559998 86.559998 89.889999 95.449997 98.230003 100.829 108.049 113.049 121.379 125.819"
             y="0"
             sodipodi:role="line"
             id="tspan18">Chapter 2: Meaningful Names</tspan></text>
        <text
           xml:space="preserve"
           transform="matrix(1,0,0,-1,97.92,586.111)"
           style="font-variant:normal;font-weight:normal;font-size:10px;font-family:'Times New Roman';-inkscape-font-specification:TimesNewRomanPS;writing-mode:lr-tb;fill:#231f20;fill-opacity:1;fill-rule:nonzero;stroke:none"
           id="text24"><tspan
             x="0 3.3299999 11.11 15.55 20.549999 23.33 28.33 32.77 35.013 37.792999 42.792999 47.233002 50.013 52.256001 57.057999 62.057999 67.057999 69.301003 74.301003 78.391998 83.242996 87.682999 89.926003 94.677002 99.116997 102.447 105.227 109.667 114.469 117.249 121.689 125.579 127.822 132.82201 137.26199 145.04201 149.48199 154.48199"
             y="0"
             sodipodi:role="line"
             id="tspan22">Imagine that you have variables named </tspan></text>
        <text
           xml:space="preserve"
           transform="matrix(0.80015552,0,0,-1,254.613,586.111)"
           style="font-variant:normal;font-weight:normal;font-size:9.002px;font-family:'Courier New';-inkscape-font-specification:Courier;writing-mode:lr-tb;fill:#231f20;fill-opacity:1;fill-rule:nonzero;stroke:none"
           id="text28"><tspan
             x="0 5.4011998 10.8024 16.2036 21.604799 27.006001 32.4072 37.808399 43.209599"
             y="0"
             sodipodi:role="line"
             id="tspan26">firstName</tspan></text>
        <text
           xml:space="preserve"
           transform="matrix(1,0,0,-1,293.416,586.111)"
           style="font-variant:normal;font-weight:normal;font-size:10px;font-family:'Times New Roman';-inkscape-font-specification:TimesNewRomanPS;writing-mode:lr-tb;fill:#231f20;fill-opacity:1;fill-rule:nonzero;stroke:none"
           id="text32"><tspan
             x="0"
             y="0"
             id="tspan30">,</tspan></text>
        <text
           xml:space="preserve"
           transform="matrix(0.80015552,0,0,-1,298.159,586.111)"
           style="font-variant:normal;font-weight:normal;font-size:9.002px;font-family:'Courier New';-inkscape-font-specification:Courier;writing-mode:lr-tb;fill:#231f20;fill-opacity:1;fill-rule:nonzero;stroke:none"
           id="text36"><tspan
             x="0 5.4011998 10.8024 16.2036 21.604799 27.006001 32.4072 37.808399"
             y="0"
             sodipodi:role="line"
             id="tspan34">lastName</tspan></text>
        <text
           xml:space="preserve"
           transform="matrix(1,0,0,-1,332.65,586.111)"
           style="font-variant:normal;font-weight:normal;font-size:10px;font-family:'Times New Roman';-inkscape-font-specification:TimesNewRomanPS;writing-mode:lr-tb;fill:#231f20;fill-opacity:1;fill-rule:nonzero;stroke:none"
           id="text40"><tspan
             x="0"
             y="0"
             id="tspan38">,</tspan></text>
        <text
           xml:space="preserve"
           transform="matrix(0.80015552,0,0,-1,337.393,586.111)"
           style="font-variant:normal;font-weight:normal;font-size:9.002px;font-family:'Courier New';-inkscape-font-specification:Courier;writing-mode:lr-tb;fill:#231f20;fill-opacity:1;fill-rule:nonzero;stroke:none"
           id="text44"><tspan
             x="0 5.4011998 10.8024 16.2036 21.604799 27.006001"
             y="0"
             sodipodi:role="line"
             id="tspan42">street</tspan></text>
        <text
           xml:space="preserve"
           transform="matrix(1,0,0,-1,363.262,586.111)"
           style="font-variant:normal;font-weight:normal;font-size:10px;font-family:'Times New Roman';-inkscape-font-specification:TimesNewRomanPS;writing-mode:lr-tb;fill:#231f20;fill-opacity:1;fill-rule:nonzero;stroke:none"
           id="text48"><tspan
             x="0"
             y="0"
             id="tspan46">,</tspan></text>
        <text
           xml:space="preserve"
           transform="matrix(0.80015552,0,0,-1,368.005,586.111)"
           style="font-variant:normal;font-weight:normal;font-size:9.002px;font-family:'Courier New';-inkscape-font-specification:Courier;writing-mode:lr-tb;fill:#231f20;fill-opacity:1;fill-rule:nonzero;stroke:none"
           id="text52"><tspan
             x="0 5.4011998 10.8024 16.2036 21.604799 27.006001 32.4072 37.808399 43.209599 48.610802 54.012001"
             y="0"
             sodipodi:role="line"
             id="tspan50">houseNumber</tspan></text>
        <text
           xml:space="preserve"
           transform="matrix(1,0,0,-1,415.431,586.111)"
           style="font-variant:normal;font-weight:normal;font-size:10px;font-family:'Times New Roman';-inkscape-font-specification:TimesNewRomanPS;writing-mode:lr-tb;fill:#231f20;fill-opacity:1;fill-rule:nonzero;stroke:none"
           id="text56"><tspan
             x="0"
             y="0"
             id="tspan54">,</tspan></text>
        <text
           xml:space="preserve"
           transform="matrix(0.80015552,0,0,-1,420.174,586.111)"
           style="font-variant:normal;font-weight:normal;font-size:9.002px;font-family:'Courier New';-inkscape-font-specification:Courier;writing-mode:lr-tb;fill:#231f20;fill-opacity:1;fill-rule:nonzero;stroke:none"
           id="text60"><tspan
             x="0 5.4011998 10.8024 16.2036"
             y="0"
             sodipodi:role="line"
             id="tspan58">city</tspan></text>
        <text
           xml:space="preserve"
           transform="matrix(1,0,0,-1,437.42,586.111)"
           style="font-variant:normal;font-weight:normal;font-size:10px;font-family:'Times New Roman';-inkscape-font-specification:TimesNewRomanPS;writing-mode:lr-tb;fill:#231f20;fill-opacity:1;fill-rule:nonzero;stroke:none"
           id="text64"><tspan
             x="0"
             y="0"
             id="tspan62">,</tspan></text>
        <text
           xml:space="preserve"
           transform="matrix(0.80015552,0,0,-1,79.92,574.111)"
           style="font-variant:normal;font-weight:normal;font-size:9.002px;font-family:'Courier New';-inkscape-font-specification:Courier;writing-mode:lr-tb;fill:#231f20;fill-opacity:1;fill-rule:nonzero;stroke:none"
           id="text68"><tspan
             x="0 5.4011998 10.8024 16.2036 21.604799"
             y="0"
             sodipodi:role="line"
             id="tspan66">state</tspan></text>
        <text
           xml:space="preserve"
           transform="matrix(1,0,0,-1,101.477,574.111)"
           style="font-variant:normal;font-weight:normal;font-size:10px;font-family:'Times New Roman';-inkscape-font-specification:TimesNewRomanPS;writing-mode:lr-tb;fill:#231f20;fill-opacity:1;fill-rule:nonzero;stroke:none"
           id="text72"><tspan
             x="0 2.5 5.513 9.9530001 14.953 19.952999"
             y="0"
             sodipodi:role="line"
             id="tspan70">, and </tspan></text>
        <text
           xml:space="preserve"
           transform="matrix(0.80015552,0,0,-1,124.441,574.111)"
           style="font-variant:normal;font-weight:normal;font-size:9.002px;font-family:'Courier New';-inkscape-font-specification:Courier;writing-mode:lr-tb;fill:#231f20;fill-opacity:1;fill-rule:nonzero;stroke:none"
           id="text76"><tspan
             x="0 5.4011998 10.8024 16.2036 21.604799 27.006001 32.4072"
             y="0"
             sodipodi:role="line"
             id="tspan74">zipcode</tspan></text>
        <text
           xml:space="preserve"
           transform="matrix(1,0,0,-1,154.622,574.111)"
           style="font-variant:normal;font-weight:normal;font-size:10px;font-family:'Times New Roman';-inkscape-font-specification:TimesNewRomanPS;writing-mode:lr-tb;fill:#231f20;fill-opacity:1;fill-rule:nonzero;stroke:none"
           id="text82"><tspan
             x="0 2.5 5.0149999 10.327 14.767 19.669001 24.108999 29.108999 32.122002 34.902 39.653 44.653 49.092999 51.873001 56.873001 61.313 64.642998 67.655998 70.435997 73.216003 75.147003 79.037003 82.050003 87.050003 90.379997 94.82 97.599998 100.38 105.38 108.393 112.833 115.613 120.053 124.493 127.823 130.836 133.616 138.616 143.056 145.836 148.849 151.629 156.629 160.92 165.92 168.933 172.263 177.263 180.791 188.571 191.584 196.024 201.024 204.037 208.47701 213.47701 218.47701 221.80701 226.24699 230.13699 234.02699 236.52699 239.53999 246.21001 251.21001 253.99001 257.00299 264.02499 269.02499 273.465 276.245 279.258 282.03799"
             y="0"
             sodipodi:role="line"
             id="tspan78">. Taken together it’s pretty clear that they form an address. But what if</tspan><tspan
             x="-74.702003 -69.900002 -64.900002 -59.900002 -56.591 -53.811001 -48.811001 -44.921001 -42.140999 -38.832001 -34.942001 -30.9 -23.68 -20.371 -17.591 -12.591 -8.151"
             y="12"
             sodipodi:role="line"
             id="tspan80">you just saw the </tspan></text>
        <text
           xml:space="preserve"
           transform="matrix(0.80015552,0,0,-1,149.77,562.111)"
           style="font-variant:normal;font-weight:normal;font-size:9.002px;font-family:'Courier New';-inkscape-font-specification:Courier;writing-mode:lr-tb;fill:#231f20;fill-opacity:1;fill-rule:nonzero;stroke:none"
           id="text86"><tspan
             x="0 5.4011998 10.8024 16.2036 21.604799"
             y="0"
             sodipodi:role="line"
             id="tspan84">state</tspan></text>
        <text
           xml:space="preserve"
           transform="matrix(1,0,0,-1,174.637,562.111)"
           style="font-variant:normal;font-weight:normal;font-size:10px;font-family:'Times New Roman';-inkscape-font-specification:TimesNewRomanPS;writing-mode:lr-tb;fill:#231f20;fill-opacity:1;fill-rule:nonzero;stroke:none"
           id="text94"><tspan
             x="0 4.7509999 9.191 12.521 15.301 19.740999 24.542999 27.323 31.763 35.071999 40.071999 44.512001 47.292 52.292 57.292 60.601002 65.600998 69.490997 73.931 78.931 82.239998 86.68 89.459999 94.459999 99.459999 103.9 107.209 109.989 114.989 118.298 122.738 126.047 133.827 138.267 141.047 146.047 151.047 156.047 160.487 163.498 171.938 176.938 181.938 184.718 189.718 193.02699 197.82899 202.82899 207.82899 211.138 215.578 220.578 223.358 228.358 236.138 240.578 243.358 246.138 250.578 255.01801 257.798 260.32901"
             y="0"
             sodipodi:role="line"
             id="tspan88">variable being used alone in a method? Would you automatically</tspan><tspan
             x="-94.717003 -91.936996 -86.936996 -83.607002 -79.167 -75.836998 -73.336998 -70.556999 -65.556999 -61.117001 -58.337002 -55.837002 -53.056999 -50.277 -47.777 -40.806 -36.366001 -32.476002 -29.976 -24.976 -20.535999 -17.007999 -14.228 -11.728 -6.7280002 -3.398 -0.898 3.5420001 8.5419998 11.042 15.482 20.482 25.482 28.812 33.251999 37.141998 41.032001"
             y="12"
             sodipodi:role="line"
             id="tspan90">infer that it was part of an address?</tspan><tspan
             x="-76.717003 -71.096001 -66.096001 -61.096001 -58.75 -54.310001 -49.869999 -44.869999 -42.523998 -38.084 -33.084 -28.084 -25.738001 -21.298 -16.298 -11.298 -8.5179996 -4.2270002 0.773 3.553 5.8990002 10.65 15.65 17.996 22.996 26.886 29.666 34.666 39.666 42.012001 47.012001 50.341999 54.782001 60.341999 65.043999 69.484001 73.374001 76.153999"
             y="27"
             sodipodi:role="line"
             id="tspan92">You can add context by using preﬁxes: </tspan></text>
        <text
           xml:space="preserve"
           transform="matrix(0.80015552,0,0,-1,253.117,535.111)"
           style="font-variant:normal;font-weight:normal;font-size:9.002px;font-family:'Courier New';-inkscape-font-specification:Courier;writing-mode:lr-tb;fill:#231f20;fill-opacity:1;fill-rule:nonzero;stroke:none"
           id="text98"><tspan
             x="0 5.4011998 10.8024 16.2036 21.604799 27.006001 32.4072 37.808399 43.209599 48.610802 54.012001 59.4132 64.8144"
             y="0"
             sodipodi:role="line"
             id="tspan96">addrFirstName</tspan></text>
        <text
           xml:space="preserve"
           transform="matrix(1,0,0,-1,309.166,535.111)"
           style="font-variant:normal;font-weight:normal;font-size:10px;font-family:'Times New Roman';-inkscape-font-specification:TimesNewRomanPS;writing-mode:lr-tb;fill:#231f20;fill-opacity:1;fill-rule:nonzero;stroke:none"
           id="text102"><tspan
             x="0"
             y="0"
             id="tspan100">,</tspan></text>
        <text
           xml:space="preserve"
           transform="matrix(0.80015552,0,0,-1,314.012,535.111)"
           style="font-variant:normal;font-weight:normal;font-size:9.002px;font-family:'Courier New';-inkscape-font-specification:Courier;writing-mode:lr-tb;fill:#231f20;fill-opacity:1;fill-rule:nonzero;stroke:none"
           id="text106"><tspan
             x="0 5.4011998 10.8024 16.2036 21.604799 27.006001 32.4072 37.808399 43.209599 48.610802 54.012001 59.4132"
             y="0"
             sodipodi:role="line"
             id="tspan104">addrLastName</tspan></text>
        <text
           xml:space="preserve"
           transform="matrix(1,0,0,-1,365.75,535.111)"
           style="font-variant:normal;font-weight:normal;font-size:10px;font-family:'Times New Roman';-inkscape-font-specification:TimesNewRomanPS;writing-mode:lr-tb;fill:#231f20;fill-opacity:1;fill-rule:nonzero;stroke:none"
           id="text110"><tspan
             x="0"
             y="0"
             id="tspan108">,</tspan></text>
        <text
           xml:space="preserve"
           transform="matrix(0.80015552,0,0,-1,370.596,535.111)"
           style="font-variant:normal;font-weight:normal;font-size:9.002px;font-family:'Courier New';-inkscape-font-specification:Courier;writing-mode:lr-tb;fill:#231f20;fill-opacity:1;fill-rule:nonzero;stroke:none"
           id="text114"><tspan
             x="0 5.4011998 10.8024 16.2036 21.604799 27.006001 32.4072 37.808399 43.209599"
             y="0"
             sodipodi:role="line"
             id="tspan112">addrState</tspan></text>
        <text
           xml:space="preserve"
           transform="matrix(1,0,0,-1,409.399,535.111)"
           style="font-variant:normal;font-weight:normal;font-size:10px;font-family:'Times New Roman';-inkscape-font-specification:TimesNewRomanPS;writing-mode:lr-tb;fill:#231f20;fill-opacity:1;fill-rule:nonzero;stroke:none"
           id="text122"><tspan
             x="0 2.5 4.8460002 9.2860003 14.286 19.285999 21.632 25.521999"
             y="0"
             sodipodi:role="line"
             id="tspan116">, and so</tspan><tspan
             x="-329.479 -324.479 -319.479 -316.979 -314.315 -307.095 -304.315 -301.10199 -298.32199 -293.88199 -289.44199 -285.552 -282.772 -279.55899 -276.229 -271.789 -267.349 -262.349 -257.909 -254.57899 -250.689 -247.476 -240.256 -237.476 -234.696 -231.916 -228.703 -223.703 -218.703 -213.703 -209.263 -205.933 -202.043 -199.263 -194.823 -189.823 -184.823 -181.61 -178.83 -173.83 -169.39 -166.61 -163.397 -160.617 -155.617 -151.177 -147.287 -142.847 -139.634 -134.883 -130.44299 -127.113 -124.333 -119.893 -115.091 -112.311 -107.871 -103.981 -100.768 -96.328003 -92.998001 -88.557999 -85.345001 -80.345001 -75.904999 -72.376999 -69.597 -66.384003 -61.383999 -58.054001 -54.841 -50.401001 -47.188 -44.408001 -39.967999 -36.816002 -31.816 -27.375999 -24.046 -20.833 -16.943001 -14.163 -10.635 -5.6350002 -1.1950001 1.585 6.585 9.915 14.355 16.855 20.068001 27.288"
             y="12"
             sodipodi:role="line"
             id="tspan118">on. At least readers will understand that these variables are part of a larger structure. Of</tspan><tspan
             x="-329.479 -325.039 -320.039 -315.039 -311.70901 -307.819 -303.379 -300.879 -298.48099 -294.04099 -291.64301 -286.64301 -282.203 -279.423 -276.64301 -272.203 -268.87299 -266.47501 -262.58499 -257.58499 -254.80499 -249.80499 -247.02499 -244.245 -239.245 -234.245 -231.847 -229.067 -225.177 -222.77901 -219.99899 -214.99899 -212.601 -208.161 -204.83099 -200.39101 -195.951 -193.17101 -188.731 -186.33299 -181.89301 -179.495 -175.05499 -172.27499 -167.83501 -163.94501 -160.05499 -157.657 -152.657 -148.217 -140.437 -135.99699 -130.99699"
             y="24"
             sodipodi:role="line"
             id="tspan120">course, a better solution is to create a class named </tspan></text>
        <text
           xml:space="preserve"
           transform="matrix(0.80015552,0,0,-1,280.754,511.111)"
           style="font-variant:normal;font-weight:normal;font-size:9.002px;font-family:'Courier New';-inkscape-font-specification:Courier;writing-mode:lr-tb;fill:#231f20;fill-opacity:1;fill-rule:nonzero;stroke:none"
           id="text126"><tspan
             x="0 5.4011998 10.8024 16.2036 21.604799 27.006001 32.4072"
             y="0"
             sodipodi:role="line"
             id="tspan124">Address</tspan></text>
        <text
           xml:space="preserve"
           transform="matrix(1,0,0,-1,310.934,511.111)"
           style="font-variant:normal;font-weight:normal;font-size:10px;font-family:'Times New Roman';-inkscape-font-specification:TimesNewRomanPS;writing-mode:lr-tb;fill:#231f20;fill-opacity:1;fill-rule:nonzero;stroke:none"
           id="text138"><tspan
             x="0 2.5 4.4000001 10.51 15.51 19.950001 24.950001 27.450001 29.848 34.039001 38.889999 43.330002 48.330002 50.728001 53.507999 58.507999 62.948002 65.346001 69.786003 74.786003 82.566002 87.566002 90.346001 93.125999 97.566002 100.896 103.294 108.294 113.294 117.896 125.116"
             y="0"
             sodipodi:role="line"
             id="tspan128">. Then, even the compiler knows</tspan><tspan
             x="-231.01401 -228.23399 -223.23399 -218.79401 -216.01401 -213.51401 -210.73399 -205.73399 -201.29401 -198.79401 -194.043 -189.603 -186.27299 -183.493 -179.05299 -174.25101 -171.47099 -167.03101 -163.14101 -160.64101 -155.64101 -151.201 -148.42101 -143.42101 -138.42101 -133.42101 -130.92101 -128.14101 -123.141 -120.641 -116.201 -113.701 -108.701 -105.921 -100.921 -95.920998 -91.481003 -88.151001 -85.651001 -81.210999 -76.210999 -71.210999 -66.771004 -62.331001 -57.331001 -54.550999"
             y="12"
             sodipodi:role="line"
             id="tspan130">that the variables belong to a bigger concept.</tspan><tspan
             x="-213.01401 -206.34399 -201.34399 -196.34399 -192.45399 -189.674 -184.674 -180.23399 -176.90401 -173.481 -170.701 -165.701 -161.261 -157.838 -150.058 -145.618 -142.838 -137.838 -132.838 -127.838 -124.415 -121.635 -116.635 -113.212 -107.102 -104.322 -100.432 -97.652 -94.872002 -89.872002 -84.872002 -81.448997 -76.448997 -73.119003 -68.119003 -65.619003 -62.195999 -54.976002 -49.976002 -46.553001 -43.772999 -38.772999 -34.333 -30.91 -26.159 -21.719 -18.389 -15.609 -11.169 -6.3670001 -3.5869999 0.85299999 4.743 8.1660004 13.166 17.606001 22.046 27.046 30.469 34.909 38.332001 46.112 51.112 54.442001 58.882 62.305 70.084999 74.525002 78.964996 83.964996 86.745003 91.745003 96.745003 100.075 105.075 107.855 111.278 115.718 120.718 125.718"
             y="27"
             sodipodi:role="line"
             id="tspan132">Consider the method in Listing 2-1. Do the variables need a more meaningful con-</tspan><tspan
             x="-231.01401 -228.23399 -223.94299 -218.94299 -216.16299 -211.72301 -209.60699 -203.49699 -198.49699 -194.05701 -191.44299 -188.11301 -183.11301 -178.11301 -173.673 -170.89301 -168.11301 -163.11301 -158.11301 -155.49899 -150.49899 -146.05901 -138.27901 -133.839 -131.22501 -126.225 -122.895 -118.344 -113.344 -110.564 -105.564 -101.124 -97.234001 -94.620003 -89.620003 -84.620003 -82.088997 -77.088997 -74.474998 -69.474998 -65.035004 -61.507 -58.727001 -56.112999 -51.112999 -47.783001 -45.168999 -42.389 -37.389 -32.949001 -30.334999 -25.895 -20.895 -15.895 -13.115 -8.8240004 -3.8239999 -1.044 1.7359999 4.3499999 7.1300001 12.13 16.57 19.184 23.624001 26.403999 31.403999 36.403999 39.734001 42.514 45.293999 50.293999 58.074001 60.688 65.688004 69.017998 73.569 78.569 81.348999 86.348999 90.789001 94.679001 97.292999 100.073 105.073 109.513 112.127 115.457 119.897 123.787 126.567"
             y="39"
             sodipodi:role="line"
             id="tspan134">text? The function name provides only part of the context; the algorithm provides the rest.</tspan><tspan
             x="-231.01401 -223.79401 -218.79401 -214.354 -209.914 -206.179 -201.377 -196.377 -191.377 -187.642 -184.312 -179.87199 -175.43201 -170.43201 -166.69701 -163.91701 -158.91701 -155.58701 -150.58701 -145.58701 -140.58701 -135.58701 -131.85201 -129.07201 -124.072 -119.632 -115.897 -112.567 -107.567 -102.567 -98.126999 -95.347 -92.567001 -87.567001 -82.567001 -80.067001 -76.332001 -71.529999 -66.529999 -61.529999 -57.794998 -53.904999 -49.465 -45.025002 -41.290001 -38.509998 -33.509998 -29.07 -26.290001 -22.555 -19.775 -14.775 -10.335 -6.5999999 -3.8199999 1.1799999 4.5100002 8.9499998 13.39 17.125 21.875999 26.316 29.646 32.425999 36.866001 41.667999 44.448002 48.888 52.778 55.278"
             y="51"
             sodipodi:role="line"
             id="tspan136">Once you read through the function, you see that the three variables, </tspan></text>
        <text
           xml:space="preserve"
           transform="matrix(0.80015552,0,0,-1,369.896,460.111)"
           style="font-variant:normal;font-weight:normal;font-size:9.002px;font-family:'Courier New';-inkscape-font-specification:Courier;writing-mode:lr-tb;fill:#231f20;fill-opacity:1;fill-rule:nonzero;stroke:none"
           id="text142"><tspan
             x="0 5.4011998 10.8024 16.2036 21.604799 27.006001"
             y="0"
             sodipodi:role="line"
             id="tspan140">number</tspan></text>
        <text
           xml:space="preserve"
           transform="matrix(1,0,0,-1,395.765,460.111)"
           style="font-variant:normal;font-weight:normal;font-size:10px;font-family:'Times New Roman';-inkscape-font-specification:TimesNewRomanPS;writing-mode:lr-tb;fill:#231f20;fill-opacity:1;fill-rule:nonzero;stroke:none"
           id="text146"><tspan
             x="0"
             y="0"
             id="tspan144">,</tspan></text>
        <text
           xml:space="preserve"
           transform="matrix(0.80015552,0,0,-1,402,460.111)"
           style="font-variant:normal;font-weight:normal;font-size:9.002px;font-family:'Courier New';-inkscape-font-specification:Courier;writing-mode:lr-tb;fill:#231f20;fill-opacity:1;fill-rule:nonzero;stroke:none"
           id="text150"><tspan
             x="0 5.4011998 10.8024 16.2036"
             y="0"
             sodipodi:role="line"
             id="tspan148">verb</tspan></text>
        <text
           xml:space="preserve"
           transform="matrix(1,0,0,-1,419.246,460.111)"
           style="font-variant:normal;font-weight:normal;font-size:10px;font-family:'Times New Roman';-inkscape-font-specification:TimesNewRomanPS;writing-mode:lr-tb;fill:#231f20;fill-opacity:1;fill-rule:nonzero;stroke:none"
           id="text154"><tspan
             x="0 2.5 6.2350001 10.675 15.675"
             y="0"
             sodipodi:role="line"
             id="tspan152">, and</tspan></text>
        <text
           xml:space="preserve"
           transform="matrix(0.80015552,0,0,-1,79.92,448.112)"
           style="font-variant:normal;font-weight:normal;font-size:9.002px;font-family:'Courier New';-inkscape-font-specification:Courier;writing-mode:lr-tb;fill:#231f20;fill-opacity:1;fill-rule:nonzero;stroke:none"
           id="text158"><tspan
             x="0 5.4011998 10.8024 16.2036 21.604799 27.006001 32.4072 37.808399 43.209599 48.610802 54.012001 59.4132 64.8144 70.215599"
             y="0"
             sodipodi:role="line"
             id="tspan156">pluralModifier</tspan></text>
        <text
           xml:space="preserve"
           transform="matrix(1,0,0,-1,140.28,448.112)"
           style="font-variant:normal;font-weight:normal;font-size:10px;font-family:'Times New Roman';-inkscape-font-specification:TimesNewRomanPS;writing-mode:lr-tb;fill:#231f20;fill-opacity:1;fill-rule:nonzero;stroke:none"
           id="text168"><tspan
             x="0 2.5 5.0560002 9.4960003 12.826 17.266001 19.822001 24.822001 29.261999 32.790001 35.57 38.125999 43.125999 46.456001 49.012001 51.792 56.792 61.231998 63.787998 68.227997 73.227997 78.227997 82.667999 86.557999 90.447998 93.003998 96.893997 99.674004 104.114 106.894 109.674 113.564 116.344 119.124 123.564 127.454 131.894 134.45 142.23 146.67 150.56 154.45 158.89 163.89 168.33 170.83 173.386 180.606 185.606 188.936 193.936 197.464 200.244 205.244 210.244 214.68401 217.464 221.90401 224.435 228.58501 231.08501 233.64101 236.42101 241.42101 245.86099 248.41701 252.85699 257.85699 262.85699 265.63699 269.92801 274.92801 277.70801 280.26401 288.04401 293.04401 296.93399"
             y="0"
             sodipodi:role="line"
             id="tspan160">, are part of the “guess statistics” message. Unfortunately, the context must</tspan><tspan
             x="-60.360001 -55.360001 -50.919998 -48.419998 -45.639999 -40.639999 -37.310001 -32.869999 -29.242001 -25.912001 -21.472 -16.472 -13.972 -11.77 -2.3299999 2.6700001 7.1100001 12.11 14.61 19.412001 24.412001 29.412001 31.912001 37.472 40.801998 44.692001 47.472 49.972 52.751999 57.751999 62.751999 67.751999 70.251999 74.692001 77.472 79.972 82.751999 87.751999 92.192001 94.692001 102.472 106.912 109.692 114.692 119.692 124.094 126.594 129.09399 131.87399 136.87399 141.314 143.814 151.59399 156.034 160.474 165.474 168.254 173.254 178.254 182.144 184.644 189.644 192.974 195.474 198.254 203.254 207.694 210.194 214.94501 219.38499 222.715 225.495 229.935 234.737 237.517 241.957 245.847 248.347 252.787 256.117 260.55701 263.05701 268.05701 273.05701 277.49701 282.49701 287.49701 291.93701"
             y="12"
             sodipodi:role="line"
             id="tspan162">be inferred. When you ﬁrst look at the method, the meanings of the variables are opaque.</tspan><tspan
             x="-42.360001 -36.25 -31.25 -26.809999 -24.226 -20.896 -15.896 -10.896 -6.4559999 -3.6760001 -0.89600003 4.1040001 9.1040001 11.688 14.468 18.358 20.941999 25.382 27.966 32.966 35.745998 38.526001 41.110001 43.889999 48.889999 53.889999 56.473999 59.254002 64.253998 69.253998 74.253998 76.837997 81.278 86.278 91.278 93.862 96.641998 101.642 106.082 108.666 113.417 117.857 121.187 123.967 128.407 133.209 135.989 140.429 144.319 146.903 151.343 154.673 159.11301 161.69701 166.69701 170.58701 175.02699 180.02699 182.61099 185.39101 190.39101 193.72099 198.72099 203.72099 208.72099 213.72099 218.72099 223.72099 226.50101 229.00101 231.08701 236.399 241.399 243.983 247.873 252.873 255.653 258.43301 261.21301 263.797 266.577 271.577 276.017 278.60101 281.931 286.931 291.931 296.371"
             y="273"
             sodipodi:role="line"
             id="tspan164">The function is a bit too long and the variables are used throughout. To split the func-</tspan><tspan
             x="-60.360001 -57.580002 -54.799999 -49.799999 -44.799999 -41.271999 -38.492001 -33.492001 -30.712 -25.712 -22.184 -18.294001 -10.514 -6.0739999 -3.2939999 -0.514 3.9260001 7.256 10.784 15.784 18.563999 23.004 27.444 31.884001 35.773998 39.301998 46.173 50.612999 54.140999 59.140999 63.581001 68.021004 73.021004 76.549004 79.329002 84.329002 87.857002 92.296997 95.626999 100.067 104.507 107.287 111.727 115.255 119.695"
             y="285"
             sodipodi:role="line"
             id="tspan166">tion into smaller pieces we need to create a </tspan></text>
        <text
           xml:space="preserve"
           transform="matrix(0.80015552,0,0,-1,263.459,163.112)"
           style="font-variant:normal;font-weight:normal;font-size:9.002px;font-family:'Courier New';-inkscape-font-specification:Courier;writing-mode:lr-tb;fill:#231f20;fill-opacity:1;fill-rule:nonzero;stroke:none"
           id="text172"><tspan
             x="0 5.4011998 10.8024 16.2036 21.604799 27.006001 32.4072 37.808399 43.209599 48.610802 54.012001 59.4132 64.8144 70.215599 75.616798 81.017998 86.419197 91.820396 97.221603 102.6228 108.024 113.4252"
             y="0"
             sodipodi:role="line"
             id="tspan170">GuessStatisticsMessage</tspan></text>
        <text
           xml:space="preserve"
           transform="matrix(1,0,0,-1,361.839,163.112)"
           style="font-variant:normal;font-weight:normal;font-size:10px;font-family:'Times New Roman';-inkscape-font-specification:TimesNewRomanPS;writing-mode:lr-tb;fill:#231f20;fill-opacity:1;fill-rule:nonzero;stroke:none"
           id="text180"><tspan
             x="0 4.4320002 7.204 11.636 15.518 19.4 22.927999 27.360001 32.352001 37.344002 40.872002 48.644001 53.076 57.978001 62.41 65.938004 68.709999 73.702003"
             y="0"
             sodipodi:role="line"
             id="tspan174">class and make the</tspan><tspan
             x="-281.91901 -279.189 -274.23901 -270.95901 -266.569 -262.17899 -259.79599 -255.095 -250.705 -247.425 -244.69501 -240.30499 -235.55299 -232.823 -228.433 -224.593 -222.21001 -216.7 -212.31 -209.58 -204.63 -200.78999 -198.407 -193.457 -190.177 -187.79401 -185.064 -180.114 -177.384 -173.54401 -171.161 -166.771 -164.041 -159.651 -155.811 -151.97099 -149.521 -147.636 -141.576 -136.62601 -133.896 -130.056 -127.673 -122.723 -119.443 -114.942 -109.992 -107.262 -102.312 -97.921997 -94.082001 -91.698997 -87.308998 -84.926003 -80.536003 -77.806 -73.416 -69.026001 -65.746002 -63.362999 -58.973 -54.022999 -49.073002 -46.342999 -42.102001 -37.152 -34.422001 -32.039001 -28.759001 -23.809 -20.528999 -18.146 -15.416 -10.466 -6.0760002 -3.6930001 -0.963 3.987 7.2670002 11.657 16.047001 18.43 23.131001 27.521 30.801001 33.530998 37.921001 42.673 45.403 49.792999 53.632999 56.083 57.967999 64.028 68.977997 73.219002"
             y="12"
             sodipodi:role="line"
             id="tspan176">three variables ﬁelds of this class. This provides a clear context for the three variables. They</tspan><tspan
             x="-281.91901 -277.52899 -274.24899"
             y="24"
             sodipodi:role="line"
             id="tspan178">are</tspan></text>
        <text
           xml:space="preserve"
           transform="matrix(1,0,0,-1,94.19,139.112)"
           style="font-style:italic;font-variant:normal;font-size:10px;font-family:'Times New Roman';-inkscape-font-specification:TimesNewRomanPS-Italic;writing-mode:lr-tb;fill:#231f20;fill-opacity:1;fill-rule:nonzero;stroke:none"
           id="text184"><tspan
             x="0 4.9499998 9.3400002 14.29 19.24 21.969999 24.700001 27.43 31.82 36.209999 38.841999"
             y="0"
             sodipodi:role="line"
             id="tspan182">deﬁnitively</tspan></text>
        <text
           xml:space="preserve"
           transform="matrix(1,0,0,-1,139.624,139.112)"
           style="font-variant:normal;font-weight:normal;font-size:10px;font-family:'Times New Roman';-inkscape-font-specification:TimesNewRomanPS;writing-mode:lr-tb;fill:#231f20;fill-opacity:1;fill-rule:nonzero;stroke:none"
           id="text188"><tspan
             x="0 4.9499998 9.3400002 12.818 15.548 17.763 22.712999 25.993 28.208 30.938 35.888 40.278"
             y="0"
             sodipodi:role="line"
             id="tspan186">part of the </tspan></text>
        <text
           xml:space="preserve"
           transform="matrix(0.80015552,0,0,-1,182.105,139.112)"
           style="font-variant:normal;font-weight:normal;font-size:9.002px;font-family:'Courier New';-inkscape-font-specification:Courier;writing-mode:lr-tb;fill:#231f20;fill-opacity:1;fill-rule:nonzero;stroke:none"
           id="text192"><tspan
             x="0 5.4011998 10.8024 16.2036 21.604799 27.006001 32.4072 37.808399 43.209599 48.610802 54.012001 59.4132 64.8144 70.215599 75.616798 81.017998 86.419197 91.820396 97.221603 102.6228 108.024 113.4252"
             y="0"
             sodipodi:role="line"
             id="tspan190">GuessStatisticsMessage</tspan></text>
        <text
           xml:space="preserve"
           transform="matrix(1,0,0,-1,276.957,139.112)"
           style="font-variant:normal;font-weight:normal;font-size:10px;font-family:'Times New Roman';-inkscape-font-specification:TimesNewRomanPS;writing-mode:lr-tb;fill:#231f20;fill-opacity:1;fill-rule:nonzero;stroke:none"
           id="text200"><tspan
             x="0 2.45 4.1669998 10.227 15.177 19.566999 21.782 24.511999 32.242001 37.192001 40.472 44.973 49.773998 54.164001 61.894001 66.283997 71.234001 73.963997 76.179001 81.128998 84.408997 86.624001 91.014 95.963997 100.914 103.644 107.885 112.835 115.565 117.818 122.358 125.238 129.228 134.328 136.67799 141.218 144.09801 146.978 151.67999 159"
             y="0"
             sodipodi:role="line"
             id="tspan194">. The improvement of context also allows</tspan><tspan
             x="-197.037 -194.157 -189.05701 -184.517 -181.83501 -177.295 -174.41499 -169.315 -164.215 -160.785 -157.905 -155.02499 -149.925 -142.045 -139.36301 -136.483 -131.383 -128.701 -123.601 -119.061 -116.379 -108.499 -103.959 -98.859001 -94.319 -91.637001 -83.757004 -78.656998 -74.116997 -69.016998 -66.334999 -61.794998 -58.915001 -54.375 -49.834999 -44.735001 -40.195 -36.764999 -34.083 -29.232 -24.132 -21.459999 -16.360001 -12.93 -8.3900003 -3.8499999 1.25 4.1300001 9.2299995 14.33 17.011999 19.892 22.771999 25.454 28.334 33.433998 36.313999 41.414001 44.096001 51.976002 56.515999 61.362 66.461998 69.143997 73.134003 81.014 85.554001 88.433998 91.314003 95.853996 99.283997 101.964 105.394 110.494 115.594 120.134 123.014 125.894 130.994 136.09399 140.084 145.25999 148.59 154.14999 158.59"
             y="12"
             sodipodi:role="line"
             id="tspan196">the algorithm to be made much cleaner by breaking it into many smaller functions.(See</tspan><tspan
             x="-197.037 -190.927 -188.147 -184.257 -181.47701 -178.69701 -173.69701 -168.69701 -166.19701 -161.19701 -157.867 -152.867 -150.367 -147.037"
             y="24"
             sodipodi:role="line"
             id="tspan198">Listing 2-2.) </tspan></text>
        <text
           xml:space="preserve"
           transform="matrix(1,0,0,-1,97.92,413.112)"
           style="font-variant:normal;font-weight:bold;font-size:10px;font-family:'Times New Roman';-inkscape-font-specification:TimesNewRomanPS-Bold;writing-mode:lr-tb;fill:#231f20;fill-opacity:1;fill-rule:nonzero;stroke:none"
           id="text204"><tspan
             x="0 6.6700001 9.4499998 13.34 16.67 19.450001 25.01 30.01 32.509998 37.509998 40.84 45.84"
             y="0"
             sodipodi:role="line"
             id="tspan202">Listing 2-1 </tspan></text>
        <text
           xml:space="preserve"
           transform="matrix(1,0,0,-1,97.92,400.112)"
           style="font-variant:normal;font-weight:bold;font-size:10px;font-family:'Courier New';-inkscape-font-specification:Courier-Bold;writing-mode:lr-tb;fill:#231f20;fill-opacity:1;fill-rule:nonzero;stroke:none"
           id="text208"><tspan
             x="0 6 12 18 24 30 36 42 48 54 60 66 72 78 84 90 96 102 108 114 120 126 132 138 144 150 156 162 168 174 180"
             y="0"
             sodipodi:role="line"
             id="tspan206">Variables with unclear context.</tspan></text>
        <text
           xml:space="preserve"
           transform="matrix(0.80015552,0,0,-1,97.92,387.778)"
           style="font-variant:normal;font-weight:normal;font-size:9.002px;font-family:'Courier New';-inkscape-font-specification:Courier;writing-mode:lr-tb;fill:#231f20;fill-opacity:1;fill-rule:nonzero;stroke:none"
           id="text254"><tspan
             x="0 5.4011998 10.8024 16.2036 21.604799 27.006001 32.4072 37.808399 43.209599 48.610802 54.012001 59.4132 64.8144 70.215599 75.616798 81.017998 86.419197 91.820396 97.221603 102.6228 108.024 113.4252 118.8264 124.2276 129.6288 135.03 140.4312 145.8324 151.2336 156.6348 162.036 167.43719 172.83839 178.23959 183.64079 189.04201 194.44321 199.84441 205.24561 210.6468 216.048 221.4492 226.8504 232.2516 237.6528 243.054 248.4552 253.8564 259.2576 264.65881 270.06 275.46121 280.8624 286.26361 291.66479 297.06601 302.46719 307.86841 313.26959 318.67081 324.07199 329.47321"
             y="0"
             sodipodi:role="line"
             id="tspan210">private void printGuessStatistics(char candidate, int count) {</tspan><tspan
             x="0 21.604799 27.006001 32.4072 37.808399 43.209599 48.610802 54.012001 59.4132 64.8144 70.215599 75.616798 81.017998 86.419197 91.820396"
             y="9.0001993"
             sodipodi:role="line"
             id="tspan212"> String number;</tspan><tspan
             x="0 21.604799 27.006001 32.4072 37.808399 43.209599 48.610802 54.012001 59.4132 64.8144 70.215599 75.616798 81.017998"
             y="18.000399"
             sodipodi:role="line"
             id="tspan214"> String verb;</tspan><tspan
             x="0 21.604799 27.006001 32.4072 37.808399 43.209599 48.610802 54.012001 59.4132 64.8144 70.215599 75.616798 81.017998 86.419197 91.820396 97.221603 102.6228 108.024 113.4252 118.8264 124.2276 129.6288 135.03"
             y="27.001499"
             sodipodi:role="line"
             id="tspan216"> String pluralModifier;</tspan><tspan
             x="0 21.604799 27.006001 32.4072 37.808399 43.209599 48.610802 54.012001 59.4132 64.8144 70.215599 75.616798 81.017998 86.419197 91.820396 97.221603 102.6228 108.024"
             y="36.001698"
             sodipodi:role="line"
             id="tspan218"> if (count == 0) {</tspan><tspan
             x="0 32.4072 37.808399 43.209599 48.610802 54.012001 59.4132 64.8144 70.215599 75.616798 81.017998 86.419197 91.820396 97.221603 102.6228"
             y="45.0019"
             sodipodi:role="line"
             id="tspan220"> number = &quot;no&quot;;</tspan><tspan
             x="0 32.4072 37.808399 43.209599 48.610802 54.012001 59.4132 64.8144 70.215599 75.616798 81.017998 86.419197 91.820396 97.221603"
             y="54.002098"
             sodipodi:role="line"
             id="tspan222"> verb = &quot;are&quot;;</tspan><tspan
             x="0 32.4072 37.808399 43.209599 48.610802 54.012001 59.4132 64.8144 70.215599 75.616798 81.017998 86.419197 91.820396 97.221603 102.6228 108.024 113.4252 118.8264 124.2276 129.6288 135.03 140.4312"
             y="63.002296"
             sodipodi:role="line"
             id="tspan224"> pluralModifier = &quot;s&quot;;</tspan><tspan
             x="0 21.604799 27.006001 32.4072 37.808399 43.209599 48.610802 54.012001 59.4132 64.8144 70.215599 75.616798 81.017998 86.419197 91.820396 97.221603 102.6228 108.024 113.4252 118.8264 124.2276 129.6288 135.03 140.4312 145.8324"
             y="72.003395"
             sodipodi:role="line"
             id="tspan226"> } else if (count == 1) {</tspan><tspan
             x="0 32.4072 37.808399 43.209599 48.610802 54.012001 59.4132 64.8144 70.215599 75.616798 81.017998 86.419197 91.820396 97.221603"
             y="81.003593"
             sodipodi:role="line"
             id="tspan228"> number = &quot;1&quot;;</tspan><tspan
             x="0 32.4072 37.808399 43.209599 48.610802 54.012001 59.4132 64.8144 70.215599 75.616798 81.017998 86.419197 91.820396"
             y="90.003799"
             sodipodi:role="line"
             id="tspan230"> verb = &quot;is&quot;;</tspan><tspan
             x="0 32.4072 37.808399 43.209599 48.610802 54.012001 59.4132 64.8144 70.215599 75.616798 81.017998 86.419197 91.820396 97.221603 102.6228 108.024 113.4252 118.8264 124.2276 129.6288 135.03"
             y="99.003998"
             sodipodi:role="line"
             id="tspan232"> pluralModifier = &quot;&quot;;</tspan><tspan
             x="0 21.604799 27.006001 32.4072 37.808399 43.209599 48.610802 54.012001 59.4132"
             y="108.0051"
             sodipodi:role="line"
             id="tspan234"> } else {</tspan><tspan
             x="0 32.4072 37.808399 43.209599 48.610802 54.012001 59.4132 64.8144 70.215599 75.616798 81.017998 86.419197 91.820396 97.221603 102.6228 108.024 113.4252 118.8264 124.2276 129.6288 135.03 140.4312 145.8324 151.2336 156.6348 162.036 167.43719 172.83839 178.23959 183.64079 189.04201 194.44321 199.84441 205.24561"
             y="117.0053"
             sodipodi:role="line"
             id="tspan236"> number = Integer.toString(count);</tspan><tspan
             x="0 32.4072 37.808399 43.209599 48.610802 54.012001 59.4132 64.8144 70.215599 75.616798 81.017998 86.419197 91.820396 97.221603"
             y="126.0055"
             sodipodi:role="line"
             id="tspan238"> verb = &quot;are&quot;;</tspan><tspan
             x="0 32.4072 37.808399 43.209599 48.610802 54.012001 59.4132 64.8144 70.215599 75.616798 81.017998 86.419197 91.820396 97.221603 102.6228 108.024 113.4252 118.8264 124.2276 129.6288 135.03 140.4312"
             y="135.00569"
             sodipodi:role="line"
             id="tspan240"> pluralModifier = &quot;s&quot;;</tspan><tspan
             x="0 21.604799"
             y="144.00589"
             sodipodi:role="line"
             id="tspan242"> }</tspan><tspan
             x="0 21.604799 27.006001 32.4072 37.808399 43.209599 48.610802 54.012001 59.4132 64.8144 70.215599 75.616798 81.017998 86.419197 91.820396 97.221603 102.6228 108.024 113.4252 118.8264 124.2276 129.6288 135.03 140.4312 145.8324 151.2336 156.6348 162.036 167.43719 172.83839 178.23959 183.64079 189.04201 194.44321 199.84441 205.24561 210.6468"
             y="153.00699"
             sodipodi:role="line"
             id="tspan244"> String guessMessage = String.format(</tspan><tspan
             x="0 32.4072 37.808399 43.209599 48.610802 54.012001 59.4132 64.8144 70.215599 75.616798 81.017998 86.419197 91.820396 97.221603 102.6228 108.024 113.4252 118.8264 124.2276 129.6288 135.03 140.4312 145.8324 151.2336 156.6348 162.036 167.43719 172.83839 178.23959 183.64079 189.04201 194.44321 199.84441 205.24561 210.6468 216.048 221.4492 226.8504 232.2516 237.6528 243.054 248.4552 253.8564 259.2576 264.65881 270.06 275.46121 280.8624 286.26361 291.66479 297.06601 302.46719 307.86841 313.26959 318.67081 324.07199 329.47321 334.87439 340.2756 345.67679"
             y="162.00719"
             sodipodi:role="line"
             id="tspan246"> &quot;There %s %s %s%s&quot;, verb, number, candidate, pluralModifier</tspan><tspan
             x="0 21.604799 27.006001"
             y="171.00739"
             sodipodi:role="line"
             id="tspan248"> );</tspan><tspan
             x="0 21.604799 27.006001 32.4072 37.808399 43.209599 48.610802 54.012001 59.4132 64.8144 70.215599 75.616798 81.017998 86.419197 91.820396 97.221603 102.6228 108.024 113.4252 118.8264 124.2276"
             y="180.00758"
             sodipodi:role="line"
             id="tspan250"> print(guessMessage);</tspan><tspan
             x="0 10.8024"
             y="189.0078"
             sodipodi:role="line"
             id="tspan252"> }</tspan></text>
        <g
           id="g256">
          <g
             id="g258"
             clip-path="url(#clipPath262)">
            <path
               d="m 79.92,422.653 v -228.75 m 361.333,228.75 V 193.903 M 79.795,422.778 h 361.583 m -361.583,-27 h 361.583 m -361.583,-202 h 361.583"
               style="fill:none;stroke:#231f20;stroke-width:0.25;stroke-linecap:butt;stroke-linejoin:miter;stroke-miterlimit:10;stroke-dasharray:none;stroke-opacity:1"
               id="path264" />
            <path
               d="m -37.08,664.778 h 36 m -36,-666 h 36 m 522,0 h 36 m -36,666 h 36 m -549,45 v -36 m 504,36 v -36 m 0,-684 v -36 m -504,36 v -36"
               style="fill:none;stroke:#ffffff;stroke-width:0.75;stroke-linecap:butt;stroke-linejoin:miter;stroke-miterlimit:10;stroke-dasharray:none;stroke-opacity:1"
               id="path266" />
            <path
               d="m -37.08,664.778 h 36 m -36,-666 h 36 m 522,0 h 36 m -36,666 h 36 m -549,45 v -36 m 504,36 v -36 m 0,-684 v -36 m -504,36 v -36 m -12,378 c 0,3.312 -2.688,6 -6,6 -3.312,0 -6,-2.688 -6,-6 0,-3.312 2.688,-6 6,-6 3.312,0 6,2.688 6,6 z m -24,0 h 27 m -9,24 v -48 m 545.94,24 c 0,3.312 -2.688,6 -6,6 -3.312,0 -6,-2.688 -6,-6 0,-3.312 2.688,-6 6,-6 3.312,0 6,2.688 6,6 z m -14.94,0 h 27 m -18,24 v -48 m -534,345 c 0,3.312 -2.688,6 -6,6 -3.312,0 -6,-2.688 -6,-6 0,-3.312 2.688,-6 6,-6 3.312,0 6,2.688 6,6 z m -24,0 h 27 m -9,9 v -33 m 6,-618 c 0,3.312 -2.688,6 -6,6 -3.312,0 -6,-2.688 -6,-6 0,-3.312 2.688,-6 6,-6 3.312,0 6,2.688 6,6 z m -24,0 h 27 m -9,24 v -33 m 545.94,651 c 0,3.312 -2.688,6 -6,6 -3.312,0 -6,-2.688 -6,-6 0,-3.312 2.688,-6 6,-6 3.312,0 6,2.688 6,6 z m -14.94,0 h 27 m -18,9 v -33 m 5.94,-618 c 0,3.312 -2.688,6 -6,6 -3.312,0 -6,-2.688 -6,-6 0,-3.312 2.688,-6 6,-6 3.312,0 6,2.688 6,6 z m -14.94,0 h 27 m -18,24 v -33"
               style="fill:none;stroke:#000000;stroke-width:0.25;stroke-linecap:butt;stroke-linejoin:miter;stroke-miterlimit:10;stroke-dasharray:none;stroke-opacity:1"
               id="path268" />
          </g>
        </g>
      </g>
    </g>
    <g
       id="g270">
      <g
         id="g272"
         transform="translate(218,6.56)">
        <text
           xml:space="preserve"
           transform="scale(1,-1)"
           style="font-variant:normal;font-weight:normal;font-size:10px;font-family:Helvetica;-inkscape-font-specification:Helvetica;writing-mode:lr-tb;fill:#0000ff;fill-opacity:1;fill-rule:nonzero;stroke:none"
           id="text276"><tspan
             x="0 7.2199998 14.44 21.66 24.440001 26.66 29.440001 32.77 38.330002 43.889999 49.450001 55.009998 60.009998 65.010002 67.790001 70.010002 75.57 78.349998"
             y="0"
             sodipodi:role="line"
             id="tspan274">www.it-ebooks.info</tspan></text>
        <g
           id="g278"
           transform="translate(-218,-6.56)" />
      </g>
    </g>
  </g>
</svg>
