<?xml version="1.0" encoding="UTF-8" standalone="no"?>
<!-- Created with Inkscape (http://www.inkscape.org/) -->

<svg
   version="1.1"
   id="svg2"
   width="690.14398"
   height="888.47998"
   viewBox="0 0 690.14398 888.47998"
   sodipodi:docname="4PmrqTPDrJV6cyWn.pdf"
   xmlns:inkscape="http://www.inkscape.org/namespaces/inkscape"
   xmlns:sodipodi="http://sodipodi.sourceforge.net/DTD/sodipodi-0.dtd"
   xmlns="http://www.w3.org/2000/svg"
   xmlns:svg="http://www.w3.org/2000/svg">
  <defs
     id="defs6">
    <clipPath
       clipPathUnits="userSpaceOnUse"
       id="clipPath178">
      <path
         d="M 0,665.858 H 519.84 V 0 H 0 Z"
         id="path176" />
    </clipPath>
  </defs>
  <sodipodi:namedview
     id="namedview4"
     pagecolor="#ffffff"
     bordercolor="#000000"
     borderopacity="0.25"
     inkscape:showpageshadow="2"
     inkscape:pageopacity="0.0"
     inkscape:pagecheckerboard="0"
     inkscape:deskcolor="#d1d1d1" />
  <g
     id="g8"
     inkscape:groupmode="layer"
     inkscape:label="4PmrqTPDrJV6cyWn"
     transform="matrix(1.3333333,0,0,-1.3333333,-1.46,887.61333)">
    <g
       id="g10">
      <g
         id="g12">
        <text
           xml:space="preserve"
           transform="matrix(1,0,0,-1,429.92,622.111)"
           style="font-variant:normal;font-weight:normal;font-size:10px;font-family:'Times New Roman';-inkscape-font-specification:TimesNewRomanPS;writing-mode:lr-tb;fill:#231f20;fill-opacity:1;fill-rule:nonzero;stroke:none"
           id="text16"><tspan
             x="0 5"
             y="0"
             sodipodi:role="line"
             id="tspan14">29</tspan></text>
        <text
           xml:space="preserve"
           transform="matrix(1,0,0,-1,79.92,622.111)"
           style="font-variant:normal;font-weight:bold;font-size:10px;font-family:'Times New Roman';-inkscape-font-specification:TimesNewRomanPS-Bold;writing-mode:lr-tb;fill:#231f20;fill-opacity:1;fill-rule:nonzero;stroke:none"
           id="text20"><tspan
             x="0 7.2199998 12.22 17.780001 20.861 24.191 25.841 33.061001 38.522999 44.083 46.583 54.362999 58.705002 63.705002 67.035004 72.595001 75.375 78.705002 83.705002 89.264999 93.154999 95.654999 102.875 107.875 113.435 116.765 121.007 126.007"
             y="0"
             sodipodi:role="line"
             id="tspan18">Don’t Add Gratuitous Context</tspan></text>
        <text
           xml:space="preserve"
           transform="matrix(1,0,0,-1,79.92,174.445)"
           style="font-variant:normal;font-weight:bold;font-size:14px;font-family:'Times New Roman';-inkscape-font-specification:TimesNewRomanPS-Bold;writing-mode:lr-tb;fill:#231f20;fill-opacity:1;fill-rule:nonzero;stroke:none"
           id="text24"><tspan
             x="0 10.108 17.108 24.892 29.2054 33.867401 36.178799 46.2868 53.933601 61.717602 65.217598 76.109596 82.1884 89.1884 93.850403 101.6344 105.5264 110.1884 117.1884 124.9724 130.4184 133.9184 144.0264 151.0264 158.81039 163.4724 169.41119 176.41119"
             y="0"
             sodipodi:role="line"
             id="tspan22">Don’t Add Gratuitous Context</tspan></text>
        <text
           xml:space="preserve"
           transform="matrix(1,0,0,-1,79.92,151.111)"
           style="font-variant:normal;font-weight:normal;font-size:10px;font-family:'Times New Roman';-inkscape-font-specification:TimesNewRomanPS;writing-mode:lr-tb;fill:#231f20;fill-opacity:1;fill-rule:nonzero;stroke:none"
           id="text30"><tspan
             x="0 3.3299999 8.3299999 11.61 16.049999 21.049999 24.33 27.110001 34.889999 39.330002 44.330002 47.110001 52.110001 56.549999 60.077999 65.078003 68.358002 72.797997 77.797997 82.797997 85.578003 88.358002 92.797997 97.237999 100.018 102.798 107.798 112.798 116.078 120.518 124.958 127.738 130.51801 134.95799 139.95799 143.23801 147.67799 154.89799 159.338 163.228 166.508 172.06799 174.84801 179.28799 182.06799 184.84801 189.84801 194.84801 198.12801 205.34801 209.78799 212.56799 217.56799 222.27 226.71001 228.51199 232.952 236.23199 239.01199 241.79201 245.07201 247.85201 251.742 255.022 259.46201 262.742 267.742 272.18201 277.18201 280.46201 283.242 288.242 292.68201 297.12201 300.40201 303.18201 308.18201 311.46201 316.46201 319.79199 324.23199 329.79199 334.79199 338.07199 342.263 347.11401 351.55399 355.082"
             y="0"
             sodipodi:role="line"
             id="tspan26">In an imaginary application called “Gas Station Deluxe,” it is a bad idea to preﬁx every</tspan><tspan
             x="0 4.4400001 7.2199998 11.66 15.55 19.440001 22.113001 29.333 32.112999 34.893002 39.893002"
             y="12"
             sodipodi:role="line"
             id="tspan28">class with </tspan></text>
        <text
           xml:space="preserve"
           transform="matrix(0.80015552,0,0,-1,122.476,139.111)"
           style="font-variant:normal;font-weight:normal;font-size:9.002px;font-family:'Courier New';-inkscape-font-specification:Courier;writing-mode:lr-tb;fill:#231f20;fill-opacity:1;fill-rule:nonzero;stroke:none"
           id="text34"><tspan
             x="0 5.4011998 10.8024"
             y="0"
             sodipodi:role="line"
             id="tspan32">GSD</tspan></text>
        <text
           xml:space="preserve"
           transform="matrix(1,0,0,-1,135.41,139.111)"
           style="font-variant:normal;font-weight:normal;font-size:10px;font-family:'Times New Roman';-inkscape-font-specification:TimesNewRomanPS;writing-mode:lr-tb;fill:#231f20;fill-opacity:1;fill-rule:nonzero;stroke:none"
           id="text38"><tspan
             x="0 2.4990001 5.1719999 10.534 13.863 18.302 23.301001 28.299999 30.830999 34.980999 37.480999 40.153999 44.956001 49.955002 54.953999 57.626999 62.066002 65.394997 69.834 72.507004 79.329002 84.328003 87.656998 92.655998 95.434998 100.434 105.433 108.106 112.545 117.544 121.983 124.762 129.761 133.64999 136.429 139.10201 143.90401 148.903 153.90199 157.231 159.90401 162.683 167.68201 172.681 175.46001 179.349 181.84801 183.623 189.244 194.243 199.242 201.91499 204.694 209.69299 214.692 219.131"
             y="0"
             sodipodi:role="line"
             id="tspan36">. Frankly, you are working against your tools. You type </tspan></text>
        <text
           xml:space="preserve"
           transform="matrix(0.80015552,0,0,-1,357.171,139.111)"
           style="font-variant:normal;font-weight:normal;font-size:9.002px;font-family:'Courier New';-inkscape-font-specification:Courier;writing-mode:lr-tb;fill:#231f20;fill-opacity:1;fill-rule:nonzero;stroke:none"
           id="text42"><tspan
             x="0"
             y="0"
             id="tspan40">G</tspan></text>
        <text
           xml:space="preserve"
           transform="matrix(1,0,0,-1,364.156,139.111)"
           style="font-variant:normal;font-weight:normal;font-size:10px;font-family:'Times New Roman';-inkscape-font-specification:TimesNewRomanPS;writing-mode:lr-tb;fill:#231f20;fill-opacity:1;fill-rule:nonzero;stroke:none"
           id="text52"><tspan
             x="0 4.4400001 9.4399996 14.44 17.113001 22.113001 25.443001 29.882999 33.772999 37.662998 40.335999 43.116001 48.116001 52.556 55.229 59.668999 64.668999 72.448997"
             y="0"
             sodipodi:role="line"
             id="tspan44">and press the com-</tspan><tspan
             x="-284.23599 -279.23599 -276.45599 -272.01599 -269.23599 -266.45599 -261.45599 -256.45599 -252.75999 -247.858 -243.567 -238.567 -234.871 -230.431 -225.431 -220.431 -216.735 -212.295 -208.965 -204.52499 -200.82899 -197.49899 -193.308 -186.33701 -181.897 -178.567 -173.567 -169.127 -164.127 -160.431 -153.211 -150.431 -147.651 -142.651 -138.955 -134.515 -130.819 -123.039 -120.259 -117.479 -113.039 -109.709 -106.929 -101.929 -96.929001 -91.929001 -88.233002 -85.453003 -82.672997 -78.782997 -76.002998 -72.306999 -67.306999 -63.977001 -60.280998 -56.09 -51.238998 -46.799 -43.271 -38.271 -34.575001 -30.135 -27.355 -22.915001 -19.025 -15.135 -11.439 -8.6590004 -3.6589999 0.037 2.8169999 7.8169999 12.257 15.953 19.843 24.843 28.733 31.513 35.952999 43.733002 46.233002 49.929001 53.258999 57.148998 60.845001 63.625 68.625 73.065002"
             y="12"
             sodipodi:role="line"
             id="tspan46">pletion key and are rewarded with a mile-long list of every class in the system. Is that</tspan><tspan
             x="-284.23599 -277.01599 -274.23599 -270.34601 -265.90601 -261.466 -259.26401 -249.82401 -245.12199 -240.12199 -237.62199 -229.842 -225.40199 -220.5 -216.06 -213.56 -210.78 -208 -205.5 -200.5 -196.06 -192.73 -187.73 -185.23 -181.89999 -176.89999 -173.57001 -171.07001 -168.28999 -163.28999 -158.85001 -156.35001 -153.02 -145.8 -139.69 -137.19 -134.41 -129.41 -126.91 -121.91 -117.47 -114.69 -109.69 -107.19 -102.388 -97.388 -92.388 -87.947998"
             y="24"
             sodipodi:role="line"
             id="tspan48">wise? Why make it hard for the IDE to help you? </tspan><tspan
             x="-266.23599 -260.12601 -257.34601 -252.444 -248.25301 -241.033 -238.25301 -234.36301 -229.923 -227.423 -223.78999 -219.89999 -215.80901 -210.80901 -207.17599 -202.37399 -197.37399 -192.37399 -188.741 -185.961 -181.35899 -176.508 -172.06799 -167.06799 -164.28799 -159.84801 -154.84801 -151.215 -146.77499"
             y="39"
             sodipodi:role="line"
             id="tspan50">Likewise, say you invented a </tspan></text>
        <text
           xml:space="preserve"
           transform="matrix(0.80015552,0,0,-1,220.993,100.111)"
           style="font-variant:normal;font-weight:normal;font-size:9.002px;font-family:'Courier New';-inkscape-font-specification:Courier;writing-mode:lr-tb;fill:#231f20;fill-opacity:1;fill-rule:nonzero;stroke:none"
           id="text56"><tspan
             x="0 5.4011998 10.8024 16.2036 21.604799 27.006001 32.4072 37.808399 43.209599 48.610802 54.012001 59.4132 64.8144 70.215599"
             y="0"
             sodipodi:role="line"
             id="tspan54">MailingAddress</tspan></text>
        <text
           xml:space="preserve"
           transform="matrix(1,0,0,-1,284.987,100.111)"
           style="font-variant:normal;font-weight:normal;font-size:10px;font-family:'Times New Roman';-inkscape-font-specification:TimesNewRomanPS;writing-mode:lr-tb;fill:#231f20;fill-opacity:1;fill-rule:nonzero;stroke:none"
           id="text60"><tspan
             x="0 4.4400001 7.2199998 11.66 15.55 19.440001 23.073 25.853001 30.853001"
             y="0"
             sodipodi:role="line"
             id="tspan58">class in </tspan></text>
        <text
           xml:space="preserve"
           transform="matrix(0.80015552,0,0,-1,319.464,100.111)"
           style="font-variant:normal;font-weight:normal;font-size:9.002px;font-family:'Courier New';-inkscape-font-specification:Courier;writing-mode:lr-tb;fill:#231f20;fill-opacity:1;fill-rule:nonzero;stroke:none"
           id="text64"><tspan
             x="0 5.4011998 10.8024"
             y="0"
             sodipodi:role="line"
             id="tspan62">GSD</tspan></text>
        <text
           xml:space="preserve"
           transform="matrix(1,0,0,-1,332.398,100.111)"
           style="font-variant:normal;font-weight:normal;font-size:10px;font-family:'Times New Roman';-inkscape-font-specification:TimesNewRomanPS;writing-mode:lr-tb;fill:#231f20;fill-opacity:1;fill-rule:nonzero;stroke:none"
           id="text70"><tspan
             x="0 1.931 9.4540005 13.894 18.334 22.774 27.774 32.773998 37.773998 40.554001 43.334 48.334 53.334 56.966999 64.747002 69.747002 74.747002 79.747002 82.527 86.967003 89.467003 93.099998 97.540001 102.54"
             y="0"
             sodipodi:role="line"
             id="tspan66">’saccounting module, and</tspan><tspan
             x="-252.47701 -247.675 -242.675 -237.675 -235.27901 -230.27901 -225.839 -218.05901 -213.619 -208.619 -206.22301 -203.44299 -200.66299"
             y="12"
             sodipodi:role="line"
             id="tspan68">you named it </tspan></text>
        <text
           xml:space="preserve"
           transform="matrix(0.80015552,0,0,-1,134.121,88.111)"
           style="font-variant:normal;font-weight:normal;font-size:9.002px;font-family:'Courier New';-inkscape-font-specification:Courier;writing-mode:lr-tb;fill:#231f20;fill-opacity:1;fill-rule:nonzero;stroke:none"
           id="text74"><tspan
             x="0 5.4011998 10.8024 16.2036 21.604799 27.006001 32.4072 37.808399 43.209599 48.610802 54.012001 59.4132 64.8144 70.215599 75.616798 81.017998 86.419197"
             y="0"
             sodipodi:role="line"
             id="tspan72">GSDAccountAddress</tspan></text>
        <text
           xml:space="preserve"
           transform="matrix(1,0,0,-1,207.416,88.111)"
           style="font-variant:normal;font-weight:normal;font-size:10px;font-family:'Times New Roman';-inkscape-font-specification:TimesNewRomanPS;writing-mode:lr-tb;fill:#231f20;fill-opacity:1;fill-rule:nonzero;stroke:none"
           id="text80"><tspan
             x="0 2.5 4.8959999 11.006 15.446 18.226 22.666 25.598 28.098 30.493999 35.296001 40.296001 45.296001 47.692001 52.692001 57.132 61.571999 66.571999 68.968002 73.407997 75.804001 83.584 88.024002 90.804001 93.584 96.363998 101.364 106.364 108.76 113.2 118.2 123.2 126.53 130.97 134.86 138.75 141.146 144.476 149.476 152.806 155.202 160.004 165.004 170.004 173.334 175.73 180.17 185.17 189.06 191.84 196.84 204.62 209.06 212.39 214.786 219.226 224.226 229.226"
             y="0"
             sodipodi:role="line"
             id="tspan76">. Later, you need a mailing address for your customer con-</tspan><tspan
             x="-127.496 -124.716 -120.276 -115.836 -113.056 -110.478 -106.038 -101.038 -96.038002 -93.258003 -90.477997 -86.038002 -81.598 -78.818001 -76.038002 -71.038002 -66.038002 -63.537998 -60.959999 -53.740002 -48.740002 -46.161999 -41.360001 -36.360001 -31.360001 -28.782 -23.782 -19.892 -15.452"
             y="12"
             sodipodi:role="line"
             id="tspan78">tact application. Do you use </tspan></text>
        <text
           xml:space="preserve"
           transform="matrix(0.80015552,0,0,-1,194.521,76.111)"
           style="font-variant:normal;font-weight:normal;font-size:9.002px;font-family:'Courier New';-inkscape-font-specification:Courier;writing-mode:lr-tb;fill:#231f20;fill-opacity:1;fill-rule:nonzero;stroke:none"
           id="text84"><tspan
             x="0 5.4011998 10.8024 16.2036 21.604799 27.006001 32.4072 37.808399 43.209599 48.610802 54.012001 59.4132 64.8144 70.215599 75.616798 81.017998 86.419197"
             y="0"
             sodipodi:role="line"
             id="tspan82">GSDAccountAddress</tspan></text>
        <text
           xml:space="preserve"
           transform="matrix(1,0,0,-1,267.816,76.111)"
           style="font-variant:normal;font-weight:normal;font-size:10px;font-family:'Times New Roman';-inkscape-font-specification:TimesNewRomanPS;writing-mode:lr-tb;fill:#231f20;fill-opacity:1;fill-rule:nonzero;stroke:none"
           id="text90"><tspan
             x="0 4.4400001 7.0180001 14.238 19.238001 23.677999 27.568001 30.146 32.925999 35.706001 38.284 42.174 47.174 52.174 57.174 62.174 64.751999 67.531998 70.311996 75.213997 79.653999 82.232002 85.012001 90.012001 94.452003 97.029999 100.36 103.14 108.14 113.14 115.92 118.498 123.498 127.938 135.718 140.158 144.59801 146.67799 151.789 156.229 161.229 163.80701 168.80701"
             y="0"
             sodipodi:role="line"
             id="tspan86">? Does it sound like the right name? Ten of</tspan><tspan
             x="-187.896 -182.896 -177.896 -175.396 -170.95599 -165.95599 -161.51601 -158.186 -153.746 -149.306 -146.526 -142.086 -138.756 -134.866 -132.366 -127.926 -124.596 -120.156 -117.656 -114.326 -109.886 -104.886 -99.886002 -94.886002 -89.886002 -85.445999 -80.445999 -77.666 -75.166 -70.166 -66.835999 -64.335999 -61.556 -57.928001 -54.598 -50.158001 -47.377998 -43.187 -38.436001 -33.995998 -28.996 -26.216"
             y="11.999"
             sodipodi:role="line"
             id="tspan88">17 characters are redundant or irrelevant.</tspan></text>
        <text
           xml:space="preserve"
           transform="matrix(1,0,0,-1,97.92,583.111)"
           style="font-variant:normal;font-weight:bold;font-size:10px;font-family:'Times New Roman';-inkscape-font-specification:TimesNewRomanPS-Bold;writing-mode:lr-tb;fill:#231f20;fill-opacity:1;fill-rule:nonzero;stroke:none"
           id="text94"><tspan
             x="0 6.6700001 9.4499998 13.34 16.67 19.450001 25.01 30.01 32.509998 37.509998 40.84 45.84"
             y="0"
             sodipodi:role="line"
             id="tspan92">Listing 2-2 </tspan></text>
        <text
           xml:space="preserve"
           transform="matrix(1,0,0,-1,97.92,570.111)"
           style="font-variant:normal;font-weight:bold;font-size:10px;font-family:'Courier New';-inkscape-font-specification:Courier-Bold;writing-mode:lr-tb;fill:#231f20;fill-opacity:1;fill-rule:nonzero;stroke:none"
           id="text98"><tspan
             x="0 6 12 18 24 30 36 42 48 54 60 66 72 78 84 90 96 102 108 114 120 126 132 138 144"
             y="0"
             sodipodi:role="line"
             id="tspan96">Variables have a context.</tspan></text>
        <text
           xml:space="preserve"
           transform="matrix(0.80015552,0,0,-1,97.92,557.778)"
           style="font-variant:normal;font-weight:normal;font-size:9.002px;font-family:'Courier New';-inkscape-font-specification:Courier;writing-mode:lr-tb;fill:#231f20;fill-opacity:1;fill-rule:nonzero;stroke:none"
           id="text170"><tspan
             x="0 5.4011998 10.8024 16.2036 21.604799 27.006001 32.4072 37.808399 43.209599 48.610802 54.012001 59.4132 64.8144 70.215599 75.616798 81.017998 86.419197 91.820396 97.221603 102.6228 108.024 113.4252 118.8264 124.2276 129.6288 135.03 140.4312 145.8324 151.2336 156.6348 162.036 167.43719 172.83839 178.23959 183.64079 189.04201 194.44321"
             y="0"
             sodipodi:role="line"
             id="tspan100">public class GuessStatisticsMessage {</tspan><tspan
             x="0 10.8024 16.2036 21.604799 27.006001 32.4072 37.808399 43.209599 48.610802 54.012001 59.4132 64.8144 70.215599 75.616798 81.017998 86.419197 91.820396 97.221603 102.6228 108.024 113.4252 118.8264 124.2276"
             y="9.0001993"
             sodipodi:role="line"
             id="tspan102"> private String number;</tspan><tspan
             x="0 10.8024 16.2036 21.604799 27.006001 32.4072 37.808399 43.209599 48.610802 54.012001 59.4132 64.8144 70.215599 75.616798 81.017998 86.419197 91.820396 97.221603 102.6228 108.024 113.4252"
             y="18.000399"
             sodipodi:role="line"
             id="tspan104"> private String verb;</tspan><tspan
             x="0 10.8024 16.2036 21.604799 27.006001 32.4072 37.808399 43.209599 48.610802 54.012001 59.4132 64.8144 70.215599 75.616798 81.017998 86.419197 91.820396 97.221603 102.6228 108.024 113.4252 118.8264 124.2276 129.6288 135.03 140.4312 145.8324 151.2336 156.6348 162.036 167.43719"
             y="27.001499"
             sodipodi:role="line"
             id="tspan106"> private String pluralModifier;</tspan><tspan
             x="0 10.8024 16.2036 21.604799 27.006001 32.4072 37.808399 43.209599 48.610802 54.012001 59.4132 64.8144 70.215599 75.616798 81.017998 86.419197 91.820396 97.221603 102.6228 108.024 113.4252 118.8264 124.2276 129.6288 135.03 140.4312 145.8324 151.2336 156.6348 162.036 167.43719 172.83839 178.23959 183.64079 189.04201 194.44321 199.84441 205.24561 210.6468 216.048 221.4492 226.8504 232.2516 237.6528 243.054 248.4552 253.8564 259.2576"
             y="45.0019"
             sodipodi:role="line"
             id="tspan108"> public String make(char candidate, int count) {</tspan><tspan
             x="0 21.604799 27.006001 32.4072 37.808399 43.209599 48.610802 54.012001 59.4132 64.8144 70.215599 75.616798 81.017998 86.419197 91.820396 97.221603 102.6228 108.024 113.4252 118.8264 124.2276 129.6288 135.03 140.4312 145.8324 151.2336 156.6348 162.036 167.43719 172.83839 178.23959 183.64079 189.04201 194.44321 199.84441 205.24561 210.6468 216.048 221.4492 226.8504 232.2516 237.6528"
             y="54.002098"
             sodipodi:role="line"
             id="tspan110"> createPluralDependentMessageParts(count);</tspan><tspan
             x="0 21.604799 27.006001 32.4072 37.808399 43.209599 48.610802 54.012001 59.4132 64.8144 70.215599 75.616798 81.017998 86.419197 91.820396 97.221603 102.6228 108.024 113.4252 118.8264 124.2276 129.6288"
             y="63.002296"
             sodipodi:role="line"
             id="tspan112"> return String.format(</tspan><tspan
             x="0 32.358589 37.756187 43.153786 48.551388 53.948986 59.346584 64.744186 70.137283 75.534882 80.93248 86.325577 91.723175 97.120781 102.51388 107.91148 113.30907 118.70667 124.10427 129.50188 134.89948"
             y="72.003395"
             sodipodi:role="line"
             id="tspan114"> &quot;There %s %s %s%s&quot;, </tspan><tspan
             x="37.751686 43.149288 48.546886 53.944485 59.342083 64.739685 70.132782 75.53038 80.927979 86.325577 91.723175 97.120781 102.51838 107.91598 113.30907 118.70667 124.10427 129.50188 134.89948 140.29707 145.69467 151.09227 156.48987 161.88747 167.28506 172.67816 178.07576 183.47336 188.87096 194.26855 199.66615 205.06377 210.46136 215.85896 221.25656 226.65416 232.05176 237.44936 242.84695 248.24455 253.63765 259.03525"
             y="81.003593"
             sodipodi:role="line"
             id="tspan116">verb, number, candidate, pluralModifier );</tspan><tspan
             x="0 10.8024"
             y="90.003799"
             sodipodi:role="line"
             id="tspan118"> }</tspan><tspan
             x="0 10.8024 16.2036 21.604799 27.006001 32.4072 37.808399 43.209599 48.610802 54.012001 59.4132 64.8144 70.215599 75.616798 81.017998 86.419197 91.820396 97.221603 102.6228 108.024 113.4252 118.8264 124.2276 129.6288 135.03 140.4312 145.8324 151.2336 156.6348 162.036 167.43719 172.83839 178.23959 183.64079 189.04201 194.44321 199.84441 205.24561 210.6468 216.048 221.4492 226.8504 232.2516 237.6528 243.054 248.4552 253.8564 259.2576 264.65881 270.06 275.46121 280.8624 286.26361 291.66479 297.06601 302.46719 307.86841 313.26959 318.67081 324.07199"
             y="108.0042"
             sodipodi:role="line"
             id="tspan120"> private void createPluralDependentMessageParts(int count) {</tspan><tspan
             x="0 21.604799 27.006001 32.4072 37.808399 43.209599 48.610802 54.012001 59.4132 64.8144 70.215599 75.616798 81.017998 86.419197 91.820396 97.221603 102.6228 108.024"
             y="117.0053"
             sodipodi:role="line"
             id="tspan122"> if (count == 0) {</tspan><tspan
             x="0 32.4072 37.808399 43.209599 48.610802 54.012001 59.4132 64.8144 70.215599 75.616798 81.017998 86.419197 91.820396 97.221603 102.6228 108.024 113.4252 118.8264 124.2276 129.6288 135.03"
             y="126.0055"
             sodipodi:role="line"
             id="tspan124"> thereAreNoLetters();</tspan><tspan
             x="0 21.604799 27.006001 32.4072 37.808399 43.209599 48.610802 54.012001 59.4132 64.8144 70.215599 75.616798 81.017998 86.419197 91.820396 97.221603 102.6228 108.024 113.4252 118.8264 124.2276 129.6288 135.03 140.4312 145.8324"
             y="135.00569"
             sodipodi:role="line"
             id="tspan126"> } else if (count == 1) {</tspan><tspan
             x="0 32.4072 37.808399 43.209599 48.610802 54.012001 59.4132 64.8144 70.215599 75.616798 81.017998 86.419197 91.820396 97.221603 102.6228 108.024 113.4252 118.8264 124.2276 129.6288"
             y="144.00589"
             sodipodi:role="line"
             id="tspan128"> thereIsOneLetter();</tspan><tspan
             x="0 21.604799 27.006001 32.4072 37.808399 43.209599 48.610802 54.012001 59.4132"
             y="153.00609"
             sodipodi:role="line"
             id="tspan130"> } else {</tspan><tspan
             x="0 32.4072 37.808399 43.209599 48.610802 54.012001 59.4132 64.8144 70.215599 75.616798 81.017998 86.419197 91.820396 97.221603 102.6228 108.024 113.4252 118.8264 124.2276 129.6288 135.03 140.4312 145.8324 151.2336 156.6348 162.036 167.43719 172.83839"
             y="162.00719"
             sodipodi:role="line"
             id="tspan132"> thereAreManyLetters(count);</tspan><tspan
             x="0 21.604799"
             y="171.00739"
             sodipodi:role="line"
             id="tspan134"> }</tspan><tspan
             x="0 10.8024"
             y="180.00758"
             sodipodi:role="line"
             id="tspan136"> }</tspan><tspan
             x="0 10.8024 16.2036 21.604799 27.006001 32.4072 37.808399 43.209599 48.610802 54.012001 59.4132 64.8144 70.215599 75.616798 81.017998 86.419197 91.820396 97.221603 102.6228 108.024 113.4252 118.8264 124.2276 129.6288 135.03 140.4312 145.8324 151.2336 156.6348 162.036 167.43719 172.83839 178.23959 183.64079 189.04201 194.44321 199.84441 205.24561 210.6468 216.048 221.4492 226.8504 232.2516 237.6528 243.054 248.4552"
             y="198.008"
             sodipodi:role="line"
             id="tspan138"> private void thereAreManyLetters(int count) {</tspan><tspan
             x="0 21.604799 27.006001 32.4072 37.808399 43.209599 48.610802 54.012001 59.4132 64.8144 70.215599 75.616798 81.017998 86.419197 91.820396 97.221603 102.6228 108.024 113.4252 118.8264 124.2276 129.6288 135.03 140.4312 145.8324 151.2336 156.6348 162.036 167.43719 172.83839 178.23959 183.64079 189.04201 194.44321"
             y="207.00909"
             sodipodi:role="line"
             id="tspan140"> number = Integer.toString(count);</tspan><tspan
             x="0 21.604799 27.006001 32.4072 37.808399 43.209599 48.610802 54.012001 59.4132 64.8144 70.215599 75.616798 81.017998 86.419197"
             y="216.00929"
             sodipodi:role="line"
             id="tspan142"> verb = &quot;are&quot;;</tspan><tspan
             x="0 21.604799 27.006001 32.4072 37.808399 43.209599 48.610802 54.012001 59.4132 64.8144 70.215599 75.616798 81.017998 86.419197 91.820396 97.221603 102.6228 108.024 113.4252 118.8264 124.2276 129.6288"
             y="225.00949"
             sodipodi:role="line"
             id="tspan144"> pluralModifier = &quot;s&quot;;</tspan><tspan
             x="0 10.8024"
             y="234.00969"
             sodipodi:role="line"
             id="tspan146"> }</tspan><tspan
             x="0 10.8024 16.2036 21.604799 27.006001 32.4072 37.808399 43.209599 48.610802 54.012001 59.4132 64.8144 70.215599 75.616798 81.017998 86.419197 91.820396 97.221603 102.6228 108.024 113.4252 118.8264 124.2276 129.6288 135.03 140.4312 145.8324 151.2336 156.6348 162.036 167.43719 172.83839 178.23959 183.64079"
             y="252.01099"
             sodipodi:role="line"
             id="tspan148"> private void thereIsOneLetter() {</tspan><tspan
             x="0 21.604799 27.006001 32.4072 37.808399 43.209599 48.610802 54.012001 59.4132 64.8144 70.215599 75.616798 81.017998 86.419197"
             y="261.0112"
             sodipodi:role="line"
             id="tspan150"> number = &quot;1&quot;;</tspan><tspan
             x="0 21.604799 27.006001 32.4072 37.808399 43.209599 48.610802 54.012001 59.4132 64.8144 70.215599 75.616798 81.017998"
             y="270.01138"
             sodipodi:role="line"
             id="tspan152"> verb = &quot;is&quot;;</tspan><tspan
             x="0 21.604799 27.006001 32.4072 37.808399 43.209599 48.610802 54.012001 59.4132 64.8144 70.215599 75.616798 81.017998 86.419197 91.820396 97.221603 102.6228 108.024 113.4252 118.8264 124.2276"
             y="279.0116"
             sodipodi:role="line"
             id="tspan154"> pluralModifier = &quot;&quot;;</tspan><tspan
             x="0 10.8024"
             y="288.0127"
             sodipodi:role="line"
             id="tspan156"> }</tspan><tspan
             x="0 10.8024 16.2036 21.604799 27.006001 32.4072 37.808399 43.209599 48.610802 54.012001 59.4132 64.8144 70.215599 75.616798 81.017998 86.419197 91.820396 97.221603 102.6228 108.024 113.4252 118.8264 124.2276 129.6288 135.03 140.4312 145.8324 151.2336 156.6348 162.036 167.43719 172.83839 178.23959 183.64079 189.04201"
             y="306.01309"
             sodipodi:role="line"
             id="tspan158"> private void thereAreNoLetters() {</tspan><tspan
             x="0 21.604799 27.006001 32.4072 37.808399 43.209599 48.610802 54.012001 59.4132 64.8144 70.215599 75.616798 81.017998 86.419197 91.820396"
             y="315.01328"
             sodipodi:role="line"
             id="tspan160"> number = &quot;no&quot;;</tspan><tspan
             x="0 21.604799 27.006001 32.4072 37.808399 43.209599 48.610802 54.012001 59.4132 64.8144 70.215599 75.616798 81.017998 86.419197"
             y="324.01349"
             sodipodi:role="line"
             id="tspan162"> verb = &quot;are&quot;;</tspan><tspan
             x="0 21.604799 27.006001 32.4072 37.808399 43.209599 48.610802 54.012001 59.4132 64.8144 70.215599 75.616798 81.017998 86.419197 91.820396 97.221603 102.6228 108.024 113.4252 118.8264 124.2276 129.6288"
             y="333.01459"
             sodipodi:role="line"
             id="tspan164"> pluralModifier = &quot;s&quot;;</tspan><tspan
             x="0 10.8024"
             y="342.0148"
             sodipodi:role="line"
             id="tspan166"> }</tspan><tspan
             x="0"
             y="351.01498"
             id="tspan168">}</tspan></text>
        <g
           id="g172">
          <g
             id="g174"
             clip-path="url(#clipPath178)">
            <path
               d="m 79.92,592.653 v -390.75 m 361.333,390.75 V 201.903 M 79.795,592.778 h 361.583 m -361.583,-27 h 361.583 m -361.583,-364 h 361.583"
               style="fill:none;stroke:#231f20;stroke-width:0.25;stroke-linecap:butt;stroke-linejoin:miter;stroke-miterlimit:10;stroke-dasharray:none;stroke-opacity:1"
               id="path180" />
            <path
               d="m -37.08,664.778 h 36 m -36,-666 h 36 m 522,0 h 36 m -36,666 h 36 m -549,45 v -36 m 504,36 v -36 m 0,-684 v -36 m -504,36 v -36"
               style="fill:none;stroke:#ffffff;stroke-width:0.75;stroke-linecap:butt;stroke-linejoin:miter;stroke-miterlimit:10;stroke-dasharray:none;stroke-opacity:1"
               id="path182" />
            <path
               d="m -37.08,664.778 h 36 m -36,-666 h 36 m 522,0 h 36 m -36,666 h 36 m -549,45 v -36 m 504,36 v -36 m 0,-684 v -36 m -504,36 v -36 m -12,378 c 0,3.312 -2.688,6 -6,6 -3.312,0 -6,-2.688 -6,-6 0,-3.312 2.688,-6 6,-6 3.312,0 6,2.688 6,6 z m -24,0 h 27 m -9,24 v -48 m 545.94,24 c 0,3.312 -2.688,6 -6,6 -3.312,0 -6,-2.688 -6,-6 0,-3.312 2.688,-6 6,-6 3.312,0 6,2.688 6,6 z m -14.94,0 h 27 m -18,24 v -48 m -534,345 c 0,3.312 -2.688,6 -6,6 -3.312,0 -6,-2.688 -6,-6 0,-3.312 2.688,-6 6,-6 3.312,0 6,2.688 6,6 z m -24,0 h 27 m -9,9 v -33 m 6,-618 c 0,3.312 -2.688,6 -6,6 -3.312,0 -6,-2.688 -6,-6 0,-3.312 2.688,-6 6,-6 3.312,0 6,2.688 6,6 z m -24,0 h 27 m -9,24 v -33 m 545.94,651 c 0,3.312 -2.688,6 -6,6 -3.312,0 -6,-2.688 -6,-6 0,-3.312 2.688,-6 6,-6 3.312,0 6,2.688 6,6 z m -14.94,0 h 27 m -18,9 v -33 m 5.94,-618 c 0,3.312 -2.688,6 -6,6 -3.312,0 -6,-2.688 -6,-6 0,-3.312 2.688,-6 6,-6 3.312,0 6,2.688 6,6 z m -14.94,0 h 27 m -18,24 v -33"
               style="fill:none;stroke:#000000;stroke-width:0.25;stroke-linecap:butt;stroke-linejoin:miter;stroke-miterlimit:10;stroke-dasharray:none;stroke-opacity:1"
               id="path184" />
          </g>
        </g>
      </g>
    </g>
    <g
       id="g186">
      <g
         id="g188"
         transform="translate(218,6.56)">
        <text
           xml:space="preserve"
           transform="scale(1,-1)"
           style="font-variant:normal;font-weight:normal;font-size:10px;font-family:Helvetica;-inkscape-font-specification:Helvetica;writing-mode:lr-tb;fill:#0000ff;fill-opacity:1;fill-rule:nonzero;stroke:none"
           id="text192"><tspan
             x="0 7.2199998 14.44 21.66 24.440001 26.66 29.440001 32.77 38.330002 43.889999 49.450001 55.009998 60.009998 65.010002 67.790001 70.010002 75.57 78.349998"
             y="0"
             sodipodi:role="line"
             id="tspan190">www.it-ebooks.info</tspan></text>
        <g
           id="g194"
           transform="translate(-218,-6.56)" />
      </g>
    </g>
  </g>
</svg>
