<?xml version="1.0" encoding="UTF-8" standalone="no"?>
<!-- Created with Inkscape (http://www.inkscape.org/) -->

<svg
   version="1.1"
   id="svg2"
   width="690.14398"
   height="888.47998"
   viewBox="0 0 690.14398 888.47998"
   sodipodi:docname="4PmrqTPDrJV6cyWn.pdf"
   xmlns:inkscape="http://www.inkscape.org/namespaces/inkscape"
   xmlns:sodipodi="http://sodipodi.sourceforge.net/DTD/sodipodi-0.dtd"
   xmlns="http://www.w3.org/2000/svg"
   xmlns:svg="http://www.w3.org/2000/svg">
  <defs
     id="defs6">
    <clipPath
       clipPathUnits="userSpaceOnUse"
       id="clipPath152">
      <path
         d="M 0,665.858 H 519.84 V 0 H 0 Z"
         id="path150" />
    </clipPath>
  </defs>
  <sodipodi:namedview
     id="namedview4"
     pagecolor="#ffffff"
     bordercolor="#000000"
     borderopacity="0.25"
     inkscape:showpageshadow="2"
     inkscape:pageopacity="0.0"
     inkscape:pagecheckerboard="0"
     inkscape:deskcolor="#d1d1d1" />
  <g
     id="g8"
     inkscape:groupmode="layer"
     inkscape:label="4PmrqTPDrJV6cyWn"
     transform="matrix(1.3333333,0,0,-1.3333333,-1.46,887.61333)">
    <g
       id="g10">
      <g
         id="g12">
        <text
           xml:space="preserve"
           transform="matrix(1,0,0,-1,79.92,622.111)"
           style="font-variant:normal;font-weight:normal;font-size:10px;font-family:'Times New Roman';-inkscape-font-specification:TimesNewRomanPS;writing-mode:lr-tb;fill:#231f20;fill-opacity:1;fill-rule:nonzero;stroke:none"
           id="text16"><tspan
             x="0 5"
             y="0"
             sodipodi:role="line"
             id="tspan14">32</tspan></text>
        <text
           xml:space="preserve"
           transform="matrix(1,0,0,-1,348.831,622.111)"
           style="font-variant:normal;font-weight:bold;font-size:10px;font-family:'Times New Roman';-inkscape-font-specification:TimesNewRomanPS-Bold;writing-mode:lr-tb;fill:#231f20;fill-opacity:1;fill-rule:nonzero;stroke:none"
           id="text20"><tspan
             x="0 7.2199998 12.78 17.780001 23.34 26.67 31.110001 35.549999 38.199001 43.199001 46.230999 48.880001 54.990002 60.549999 66.110001 70.550003 73.879997 76.660004 81.660004 87.220001"
             y="0"
             sodipodi:role="line"
             id="tspan18">Chapter 3: Functions</tspan></text>
        <text
           xml:space="preserve"
           transform="matrix(1,0,0,-1,97.92,586.111)"
           style="font-variant:normal;font-weight:normal;font-size:10px;font-family:'Times New Roman';-inkscape-font-specification:TimesNewRomanPS;writing-mode:lr-tb;fill:#231f20;fill-opacity:1;fill-rule:nonzero;stroke:none"
           id="text24"><tspan
             x="0 6.6700001 11.67 16.67 20.559999 23.34 28.34 32.779999 36.110001 39.686001 42.466 47.466 51.905998 55.481998 59.922001 64.921997 69.921997 74.362 77.938004 80.718002 85.718002 89.293999 95.403999 98.183998 102.074 104.854 107.634 112.634 117.634 121.21 126.21 129.53999 134.53999 137.03999 140.616 143.946 146.726 148.657 152.547 156.123 161.123 165.563 168.89301 173.89301 177.46899 180.24899 185.24899 188.825 194.38499 199.38499 204.38499 207.961 212.401 215.97701 218.757 223.757 228.757 233.757 237.33299 240.66299 245.66299 250.66299 255.103 257.883 260.66299 265.66299 270.66299 274.23901 277.01901 282.01901 285.595 290.957 293.737 296.517 303.737 308.177 312.06699 315.957 320.397"
             y="0"
             sodipodi:role="line"
             id="tspan22">Consider the code in Listing 3-1. It’s hard to ﬁnd a long function in FitNesse,</tspan></text>
        <text
           xml:space="preserve"
           transform="matrix(1,0,0,-1,420.762,590.1111)"
           style="font-variant:normal;font-weight:normal;font-size:5.5px;font-family:'Times New Roman';-inkscape-font-specification:TimesNewRomanPS;writing-mode:lr-tb;fill:#231f20;fill-opacity:1;fill-rule:nonzero;stroke:none"
           id="text28"><tspan
             x="0"
             y="0"
             id="tspan26">1</tspan></text>
        <text
           xml:space="preserve"
           transform="matrix(1,0,0,-1,427.092,586.111)"
           style="font-variant:normal;font-weight:normal;font-size:10px;font-family:'Times New Roman';-inkscape-font-specification:TimesNewRomanPS;writing-mode:lr-tb;fill:#231f20;fill-opacity:1;fill-rule:nonzero;stroke:none"
           id="text38"><tspan
             x="0 5.0250001 10.05"
             y="0"
             sodipodi:role="line"
             id="tspan30">but</tspan><tspan
             x="-347.172 -342.73099 -339.39999 -336.61899 -332.17801 -328.84698 -325.758 -321.31699 -318.228 -313.22699 -310.44601 -307.66501 -304.57599 -299.57501 -296.24399 -293.155 -289.26401 -284.823 -280.38199 -277.05099 -272.60999 -267.60901 -264.828 -259.827 -254.826 -251.737 -248.40601 -245.317 -240.87601 -236.435 -228.65401 -224.213 -221.12399 -216.683 -212.242 -208.911 -203.91 -200.019 -196.12801 -193.039 -190.258 -185.257 -182.476 -178.58501 -175.496 -170.495 -165.494 -161.05299 -158.552 -155.463 -148.242 -143.241 -140.46001 -137.371 -132.37 -127.369 -124.838 -119.837 -116.748 -113.967 -110.076 -106.987 -104.206 -101.425 -98.335999 -95.555 -90.554001 -85.553001 -80.552002 -78.051003 -74.961998 -69.960999 -64.959999 -62.179001 -59.09 -56.308998 -53.528 -51.597 -47.706001 -44.617001 -39.616001 -34.615002 -31.834 -28.745001 -23.743999 -18.743 -13.742 -10.961 -8.1800003 -3.7390001 0.70200002 3.483 7.9239998"
             y="12"
             sodipodi:role="line"
             id="tspan32">after a bit of searching I came across this one. Not only is it long, but it’s got duplicated</tspan><tspan
             x="-347.172 -342.73199 -337.73199 -332.73199 -328.29199 -325.79199 -322.63101 -319.85101 -314.85101 -312.07101 -308.181 -305.01999 -300.01999 -296.69 -293.52899 -288.52899 -283.52899 -278.52899 -275.36801 -271.478 -268.698 -265.36801 -262.58801 -257.58801 -252.588 -248.698 -246.198 -243.037 -238.597 -233.597 -228.597 -225.436 -217.65601 -213.216 -208.465 -203.465 -200.304 -196.414 -193.634 -190.304 -185.864 -180.864 -175.864 -171.424 -168.263 -163.823 -158.823 -153.823 -150.662 -147.882 -142.882 -137.882 -133.17999 -128.17999 -125.4 -120.4 -115.4 -111.51 -108.349 -103.349 -98.908997 -96.128998 -91.689003 -88.528 -85.748001 -80.748001 -75.748001 -71.307999 -67.417999 -64.257004 -59.817001 -54.817001 -49.817001 -47.205002 -39.985001 -34.424999 -31.094999 -27.205 -24.705 -21.544001 -15.984 -11.544 -7.1040001 -3.9430001 1.057 5.6589999"
             y="24"
             sodipodi:role="line"
             id="tspan34">code, lots of odd strings, and many strange and inobvious data types and APIs. See how</tspan><tspan
             x="-347.172 -339.392 -334.392 -329.952 -324.952 -322.452 -318.56201 -314.12201 -309.12201 -305.23199 -300.79199 -298.29199 -293.48999 -288.48999 -283.48999 -280.98999 -276.54999 -272.10999 -267.10999 -264.60999 -256.82999 -252.39 -247.48801 -243.048 -240.548 -235.548 -232.218 -229.718 -226.938 -224.158 -221.658 -218.87801 -213.87801 -211.37801 -208.59801 -203.59801 -199.158 -196.658 -191.658 -187.367 -182.367 -179.58701 -177.08701 -174.30701 -169.30701 -165.97701 -161.537 -157.097 -154.597 -146.817 -144.037 -139.037 -134.037 -131.257 -126.817 -122.927 -120.427"
             y="36"
             sodipodi:role="line"
             id="tspan36">much sense you can make of it in the next three minutes. </tspan></text>
        <path
           d="m 88.92,86.869 h 144 m -144,0 h 144"
           style="fill:none;stroke:#231f20;stroke-width:0.5;stroke-linecap:square;stroke-linejoin:miter;stroke-miterlimit:10;stroke-dasharray:none;stroke-opacity:1"
           id="path40" />
        <text
           xml:space="preserve"
           transform="matrix(1,0,0,-1,79.92,68.111)"
           style="font-variant:normal;font-weight:normal;font-size:7px;font-family:'Times New Roman';-inkscape-font-specification:TimesNewRomanPS;writing-mode:lr-tb;fill:#231f20;fill-opacity:1;fill-rule:nonzero;stroke:none"
           id="text44"><tspan
             x="0 3.5 12.0057 17.0597 20.5597 22.3097 25.8097 29.3097 32.417702 35.917702 38.248699 40.971699 44.471699 47.971699 50.3027 53.410702 56.5187 58.2687 60.214699 63.322701 66.0457 67.991699 69.937698 73.437698 76.937698 78.687698 80.633698 84.133698 87.633698 89.579697 91.329697 93.079697 98.133698 103.1877 107.6131 109.3631 113.2551 115.2011 118.7011 121.8091 124.5321 127.6401 129.39011 132.89011 135.09579"
             y="0"
             sodipodi:role="line"
             id="tspan42">1.An open-source testing tool. www.ﬁtnese.org</tspan></text>
        <text
           xml:space="preserve"
           transform="matrix(1,0,0,-1,97.92,527.1111)"
           style="font-variant:normal;font-weight:bold;font-size:10px;font-family:'Times New Roman';-inkscape-font-specification:TimesNewRomanPS-Bold;writing-mode:lr-tb;fill:#231f20;fill-opacity:1;fill-rule:nonzero;stroke:none"
           id="text48"><tspan
             x="0 6.6700001 9.4499998 13.34 16.67 19.450001 25.01 30.01 32.509998 37.509998 40.84 45.84"
             y="0"
             sodipodi:role="line"
             id="tspan46">Listing 3-1 </tspan></text>
        <text
           xml:space="preserve"
           transform="matrix(1,0,0,-1,97.92,514.1111)"
           style="font-variant:normal;font-weight:bold;font-size:10px;font-family:'Courier New';-inkscape-font-specification:Courier-Bold;writing-mode:lr-tb;fill:#231f20;fill-opacity:1;fill-rule:nonzero;stroke:none"
           id="text52"><tspan
             x="0 6 12 18 24 30 36 42 48 54 60 66 72 78 84 90 96 102 108 114 120 126 132 138 144 150 156 162 168 174 180 186 192"
             y="0"
             sodipodi:role="line"
             id="tspan50">HtmlUtil.java (FitNesse 20070619)</tspan></text>
        <text
           xml:space="preserve"
           transform="matrix(0.80015552,0,0,-1,106.5564,501.778)"
           style="font-variant:normal;font-weight:normal;font-size:9.002px;font-family:'Courier New';-inkscape-font-specification:Courier;writing-mode:lr-tb;fill:#231f20;fill-opacity:1;fill-rule:nonzero;stroke:none"
           id="text144"><tspan
             x="0 5.4003 10.8006 16.200899 21.6012 27.001499 32.401798 37.798496 43.198799 48.599098 53.999397 59.399696 64.799995 70.200294 75.596992 80.997299 86.397598 91.797897 97.198196 102.5985 107.99879 113.39549 118.79579 124.19609 129.59639 134.99669 140.39699 145.79729 151.19759 156.59789 161.99818 167.3985 172.7988 178.1991"
             y="0"
             sodipodi:role="line"
             id="tspan54">public static String testableHtml(</tspan><tspan
             x="-10.793398 10.771793 16.169392 21.566992 26.96459 32.36219 37.759789 43.157387 48.554989 53.952587 59.343884 64.741486 70.139084 75.536682 80.93428 86.331879 91.729477 97.127075 102.52468"
             y="9.0001993"
             sodipodi:role="line"
             id="tspan56"> PageData pageData,</tspan><tspan
             x="-10.793398 10.768192 16.165792 21.563391 26.960991 32.358589 37.756187 43.153786 48.551388 53.941784 59.339382 64.736984 70.134583 75.532181 80.929779 86.327377 91.724976 97.122581 102.52018 107.91778 113.31538 118.71297 124.11057 129.50818 134.90578 140.30338"
             y="18.000399"
             sodipodi:role="line"
             id="tspan58"> boolean includeSuiteSetup</tspan><tspan
             x="-10.793398 0.0090020001 5.410202 10.811402 16.212603 21.613802 27.015001 32.416203 37.817402 43.218601 48.619801 54.021004 59.422203 64.823402 70.224602 75.625801 81.027 86.4282 91.829399 97.230598 102.63181"
             y="27.001499"
             sodipodi:role="line"
             id="tspan60"> ) throws Exception {</tspan><tspan
             x="-10.793398 10.811402 16.212603 21.613802 27.015001 32.416203 37.817402 43.218601 48.619801 54.021004 59.422203 64.823402 70.224602 75.625801 81.027 86.4282 91.829399 97.230598 102.63181 108.033 113.4342 118.8354 124.2366 129.6378 135.039 140.4402 145.8414 151.2426 156.6438 162.045 167.4462 172.8474 178.2486 183.6498 189.05099 194.45221 199.85341 205.25461 210.65581 216.05701 221.45821 226.85941 232.2606 237.6618"
             y="36.001698"
             sodipodi:role="line"
             id="tspan62"> WikiPage wikiPage = pageData.getWikiPage();</tspan><tspan
             x="-10.793398 10.811402 16.212603 21.613802 27.015001 32.416203 37.817402 43.218601 48.619801 54.021004 59.422203 64.823402 70.224602 75.625801 81.027 86.4282 91.829399 97.230598 102.63181 108.033 113.4342 118.8354 124.2366 129.6378 135.039 140.4402 145.8414 151.2426 156.6438 162.045 167.4462 172.8474 178.2486 183.6498 189.05099 194.45221 199.85341 205.25461 210.65581 216.05701 221.45821 226.85941"
             y="45.0019"
             sodipodi:role="line"
             id="tspan64"> StringBuffer buffer = new StringBuffer();</tspan><tspan
             x="-10.793398 10.811402 16.212603 21.613802 27.015001 32.416203 37.817402 43.218601 48.619801 54.021004 59.422203 64.823402 70.224602 75.625801 81.027 86.4282 91.829399 97.230598 102.63181 108.033 113.4342 118.8354 124.2366 129.6378 135.039 140.4402 145.8414 151.2426 156.6438 162.045 167.4462 172.8474 178.2486 183.6498 189.05099 194.45221 199.85341"
             y="54.002098"
             sodipodi:role="line"
             id="tspan66"> if (pageData.hasAttribute(&quot;Test&quot;)) {</tspan><tspan
             x="-10.793398 21.613802 27.015001 32.416203 37.817402 43.218601 48.619801 54.021004 59.422203 64.823402 70.224602 75.625801 81.027 86.4282 91.829399 97.230598 102.63181 108.033 113.4342 118.8354 124.2366 129.6378 135.039 140.4402 145.8414"
             y="63.002296"
             sodipodi:role="line"
             id="tspan68"> if (includeSuiteSetup) {</tspan><tspan
             x="-10.793398 32.416203 37.817402 43.218601 48.619801 54.021004 59.422203 64.823402 70.224602 75.625801 81.027 86.4282 91.829399 97.230598 102.63181 108.033 113.4342 118.8354 124.2366 129.6378 135.039 140.4402"
             y="72.003395"
             sodipodi:role="line"
             id="tspan70"> WikiPage suiteSetup =</tspan><tspan
             x="-10.793398 43.218601 48.619801 54.021004 59.422203 64.823402 70.224602 75.625801 81.027 86.4282 91.829399 97.230598 102.63181 108.033 113.4342 118.8354 124.2366 129.6378 135.039 140.4402 145.8414 151.2426 156.6438 162.045 167.4462 172.8474 178.2486 183.6498 189.05099 194.45221 199.85341 205.25461 210.65581 216.05701"
             y="81.003593"
             sodipodi:role="line"
             id="tspan72"> PageCrawlerImpl.getInheritedPage(</tspan><tspan
             x="-10.793398 86.4282 91.829399 97.230598 102.63181 108.033 113.4342 118.8354 124.2366 129.6378 135.039 140.4402 145.8414 151.2426 156.6438 162.045 167.4462 172.8474 178.2486 183.6498 189.05099 194.45221 199.85341 205.25461 210.65581 216.05701 221.45821 226.85941 232.2606 237.6618 243.063 248.4642 253.8654 259.2666 264.66782 270.069 275.47021 280.8714 286.27261 291.6738 297.07501 302.4762"
             y="90.003799"
             sodipodi:role="line"
             id="tspan74"> SuiteResponder.SUITE_SETUP_NAME, wikiPage</tspan><tspan
             x="-10.793398 43.218601 48.619801"
             y="99.003998"
             sodipodi:role="line"
             id="tspan76"> );</tspan><tspan
             x="-10.793398 32.416203 37.817402 43.218601 48.619801 54.021004 59.422203 64.823402 70.224602 75.625801 81.027 86.4282 91.829399 97.230598 102.63181 108.033 113.4342 118.8354 124.2366 129.6378 135.039 140.4402 145.8414 151.2426 156.6438 162.045"
             y="108.0042"
             sodipodi:role="line"
             id="tspan78"> if (suiteSetup != null) {</tspan><tspan
             x="-10.793398 43.218601 48.619801 54.021004 59.422203 64.823402 70.224602 75.625801 81.027 86.4282 91.829399 97.230598 102.63181 108.033 113.4342 118.8354 124.2366 129.6378 135.039 140.4402 145.8414 151.2426 156.6438 162.045"
             y="117.0044"
             sodipodi:role="line"
             id="tspan80"> WikiPagePath pagePath =</tspan><tspan
             x="-10.793398 53.86977 59.248463 64.627159 70.005852 75.384552 80.763245 86.141937 91.52063 96.89933 102.27802 107.65672 113.03542 118.41411 123.7928 129.17149 134.55019 139.92889 145.30759 150.68628 156.06497 161.44366 166.82236 172.20107 177.57976 182.95845 188.33714 193.71584 199.09453 204.47322 209.85193 215.23062 220.60931 225.98801 231.3667 236.74539 242.1241 247.50279 252.88148 258.26019 263.63889 269.01758 274.39627 279.77496 285.15366 290.53235 295.91104 301.28973 306.66843 312.04712 317.42581 322.8045 328.18323"
             y="126.00459"
             sodipodi:role="line"
             id="tspan82"> suiteSetup.getPageCrawler().getFullPath(suiteSetup);</tspan><tspan
             x="-10.793398 43.218601 48.619801 54.021004 59.422203 64.823402 70.224602 75.625801 81.027 86.4282 91.829399 97.230598 102.63181 108.033 113.4342 118.8354 124.2366 129.6378 135.039 140.4402 145.8414 151.2426 156.6438 162.045 167.4462 172.8474 178.2486 183.6498 189.05099 194.45221 199.85341 205.25461 210.65581 216.05701 221.45821 226.85941 232.2606 237.6618 243.063 248.4642 253.8654 259.2666 264.66782 270.069 275.47021 280.8714 286.27261 291.6738 297.07501 302.4762 307.87741"
             y="135.00479"
             sodipodi:role="line"
             id="tspan84"> String pagePathName = PathParser.render(pagePath);</tspan><tspan
             x="-10.793398 43.218601 48.619801 54.021004 59.422203 64.823402 70.224602 75.625801 81.027 86.4282 91.829399 97.230598 102.63181 108.033 113.4342 118.8354 124.2366 129.6378 135.039 140.4402 145.8414 151.2426 156.6438 162.045 167.4462 172.8474 178.2486 183.6498 189.05099 194.45221 199.85341 205.25461 210.65581 216.05701 221.45821"
             y="144.00499"
             sodipodi:role="line"
             id="tspan86"> buffer.append(&quot;!include -setup .&quot;)</tspan><tspan
             x="-10.793398 75.625801 81.027 86.4282 91.829399 97.230598 102.63181 108.033 113.4342 118.8354 124.2366 129.6378 135.039 140.4402 145.8414 151.2426 156.6438 162.045 167.4462 172.8474 178.2486 183.6498"
             y="153.00519"
             sodipodi:role="line"
             id="tspan88"> .append(pagePathName)</tspan><tspan
             x="-10.793398 75.625801 81.027 86.4282 91.829399 97.230598 102.63181 108.033 113.4342 118.8354 124.2366 129.6378 135.039 140.4402 145.8414"
             y="162.00629"
             sodipodi:role="line"
             id="tspan90"> .append(&quot;\n&quot;);</tspan><tspan
             x="-10.793398 32.416203"
             y="171.00648"
             sodipodi:role="line"
             id="tspan92"> }</tspan><tspan
             x="-10.793398 21.613802"
             y="180.00668"
             sodipodi:role="line"
             id="tspan94"> }</tspan><tspan
             x="-10.793398 21.613802 27.015001 32.416203 37.817402 43.218601 48.619801 54.021004 59.422203 64.823402 70.224602 75.625801 81.027 86.4282 91.829399 97.230598 102.63181 108.033"
             y="189.0069"
             sodipodi:role="line"
             id="tspan96"> WikiPage setup = </tspan><tspan
             x="32.416203 37.817402 43.218601 48.619801 54.021004 59.422203 64.823402 70.224602 75.625801 81.027 86.4282 91.829399 97.230598 102.63181 108.033 113.4342 118.8354 124.2366 129.6378 135.039 140.4402 145.8414 151.2426 156.6438 162.045 167.4462 172.8474 178.2486 183.6498 189.05099 194.45221 199.85341 205.25461 210.65581 216.05701 221.45821 226.85941 232.2606 237.6618 243.063 248.4642 253.8654 259.2666 264.66782 270.069 275.47021 280.8714 286.27261 291.6738 297.07501 302.4762 307.87741"
             y="198.008"
             sodipodi:role="line"
             id="tspan98">PageCrawlerImpl.getInheritedPage(&quot;SetUp&quot;, wikiPage);</tspan><tspan
             x="-10.793398 21.613802 27.015001 32.416203 37.817402 43.218601 48.619801 54.021004 59.422203 64.823402 70.224602 75.625801 81.027 86.4282 91.829399 97.230598 102.63181 108.033 113.4342 118.8354 124.2366"
             y="207.00819"
             sodipodi:role="line"
             id="tspan100"> if (setup != null) {</tspan><tspan
             x="-10.793398 32.416203 37.817402 43.218601 48.619801 54.021004 59.422203 64.823402 70.224602 75.625801 81.027 86.4282 91.829399 97.230598 102.63181 108.033 113.4342 118.8354 124.2366 129.6378 135.039 140.4402 145.8414 151.2426 156.6438"
             y="216.00839"
             sodipodi:role="line"
             id="tspan102"> WikiPagePath setupPath =</tspan><tspan
             x="-10.793398 43.218601 48.619801 54.021004 59.422203 64.823402 70.224602 75.625801 81.027 86.4282 91.829399 97.230598 102.63181 108.033 113.4342 118.8354 124.2366 129.6378 135.039 140.4402 145.8414 151.2426 156.6438 162.045 167.4462 172.8474 178.2486 183.6498 189.05099 194.45221 199.85341 205.25461 210.65581 216.05701 221.45821 226.85941 232.2606 237.6618 243.063 248.4642 253.8654 259.2666 264.66782 270.069 275.47021 280.8714"
             y="225.00859"
             sodipodi:role="line"
             id="tspan104"> wikiPage.getPageCrawler().getFullPath(setup);</tspan><tspan
             x="-10.793398 32.416203 37.817402 43.218601 48.619801 54.021004 59.422203 64.823402 70.224602 75.625801 81.027 86.4282 91.829399 97.230598 102.63181 108.033 113.4342 118.8354 124.2366 129.6378 135.039 140.4402 145.8414 151.2426 156.6438 162.045 167.4462 172.8474 178.2486 183.6498 189.05099 194.45221 199.85341 205.25461 210.65581 216.05701 221.45821 226.85941 232.2606 237.6618 243.063 248.4642 253.8654 259.2666 264.66782 270.069 275.47021 280.8714 286.27261 291.6738 297.07501 302.4762 307.87741"
             y="234.00879"
             sodipodi:role="line"
             id="tspan106"> String setupPathName = PathParser.render(setupPath);</tspan><tspan
             x="-10.793398 32.416203 37.817402 43.218601 48.619801 54.021004 59.422203 64.823402 70.224602 75.625801 81.027 86.4282 91.829399 97.230598 102.63181 108.033 113.4342 118.8354 124.2366 129.6378 135.039 140.4402 145.8414 151.2426 156.6438 162.045 167.4462 172.8474 178.2486 183.6498 189.05099 194.45221 199.85341 205.25461 210.65581"
             y="243.00989"
             sodipodi:role="line"
             id="tspan108"> buffer.append(&quot;!include -setup .&quot;)</tspan><tspan
             x="-10.793398 64.823402 70.224602 75.625801 81.027 86.4282 91.829399 97.230598 102.63181 108.033 113.4342 118.8354 124.2366 129.6378 135.039 140.4402 145.8414 151.2426 156.6438 162.045 167.4462 172.8474 178.2486"
             y="252.01009"
             sodipodi:role="line"
             id="tspan110"> .append(setupPathName)</tspan><tspan
             x="-10.793398 64.823402 70.224602 75.625801 81.027 86.4282 91.829399 97.230598 102.63181 108.033 113.4342 118.8354 124.2366 129.6378 135.039"
             y="261.01028"
             sodipodi:role="line"
             id="tspan112"> .append(&quot;\n&quot;);</tspan><tspan
             x="-10.793398 21.613802"
             y="270.0105"
             sodipodi:role="line"
             id="tspan114"> }</tspan><tspan
             x="-10.793398 10.811402"
             y="279.01068"
             sodipodi:role="line"
             id="tspan116"> }</tspan><tspan
             x="-10.793398 10.811402 16.212603 21.613802 27.015001 32.416203 37.817402 43.218601 48.619801 54.021004 59.422203 64.823402 70.224602 75.625801 81.027 86.4282 91.829399 97.230598 102.63181 108.033 113.4342 118.8354 124.2366 129.6378 135.039 140.4402 145.8414 151.2426 156.6438 162.045 167.4462 172.8474 178.2486 183.6498 189.05099 194.45221 199.85341 205.25461"
             y="288.01178"
             sodipodi:role="line"
             id="tspan118"> buffer.append(pageData.getContent());</tspan><tspan
             x="-10.793398 10.811402 16.212603 21.613802 27.015001 32.416203 37.817402 43.218601 48.619801 54.021004 59.422203 64.823402 70.224602 75.625801 81.027 86.4282 91.829399 97.230598 102.63181 108.033 113.4342 118.8354 124.2366 129.6378 135.039 140.4402 145.8414 151.2426 156.6438 162.045 167.4462 172.8474 178.2486 183.6498 189.05099 194.45221 199.85341"
             y="297.01199"
             sodipodi:role="line"
             id="tspan120"> if (pageData.hasAttribute(&quot;Test&quot;)) {</tspan><tspan
             x="-10.793398 21.613802 27.015001 32.416203 37.817402 43.218601 48.619801 54.021004 59.422203 64.823402 70.224602 75.625801 81.027 86.4282 91.829399 97.230598 102.63181 108.033 113.4342 118.8354 124.2366"
             y="306.01218"
             sodipodi:role="line"
             id="tspan122"> WikiPage teardown = </tspan><tspan
             x="32.416203 37.817402 43.218601 48.619801 54.021004 59.422203 64.823402 70.224602 75.625801 81.027 86.4282 91.829399 97.230598 102.63181 108.033 113.4342 118.8354 124.2366 129.6378 135.039 140.4402 145.8414 151.2426 156.6438 162.045 167.4462 172.8474 178.2486 183.6498 189.05099 194.45221 199.85341 205.25461 210.65581 216.05701 221.45821 226.85941 232.2606 237.6618 243.063 248.4642 253.8654 259.2666 264.66782 270.069 275.47021 280.8714 286.27261 291.6738 297.07501 302.4762 307.87741 313.27859 318.67981 324.08099"
             y="315.01239"
             sodipodi:role="line"
             id="tspan124">PageCrawlerImpl.getInheritedPage(&quot;TearDown&quot;, wikiPage);</tspan><tspan
             x="-10.793398 21.613802 27.015001 32.416203 37.817402 43.218601 48.619801 54.021004 59.422203 64.823402 70.224602 75.625801 81.027 86.4282 91.829399 97.230598 102.63181 108.033 113.4342 118.8354 124.2366 129.6378 135.039 140.4402"
             y="324.01349"
             sodipodi:role="line"
             id="tspan126"> if (teardown != null) {</tspan><tspan
             x="-10.793398 32.416203 37.817402 43.218601 48.619801 54.021004 59.422203 64.823402 70.224602 75.625801 81.027 86.4282 91.829399 97.230598 102.63181 108.033 113.4342 118.8354 124.2366 129.6378 135.039 140.4402 145.8414 151.2426 156.6438 162.045 167.4462 172.8474"
             y="333.0137"
             sodipodi:role="line"
             id="tspan128"> WikiPagePath tearDownPath =</tspan><tspan
             x="-10.793398 43.218601 48.619801 54.021004 59.422203 64.823402 70.224602 75.625801 81.027 86.4282 91.829399 97.230598 102.63181 108.033 113.4342 118.8354 124.2366 129.6378 135.039 140.4402 145.8414 151.2426 156.6438 162.045 167.4462 172.8474 178.2486 183.6498 189.05099 194.45221 199.85341 205.25461 210.65581 216.05701 221.45821 226.85941 232.2606 237.6618 243.063 248.4642 253.8654 259.2666 264.66782 270.069 275.47021 280.8714 286.27261 291.6738 297.07501"
             y="342.01389"
             sodipodi:role="line"
             id="tspan130"> wikiPage.getPageCrawler().getFullPath(teardown);</tspan><tspan
             x="-10.793398 32.416203 37.817402 43.218601 48.619801 54.021004 59.422203 64.823402 70.224602 75.625801 81.027 86.4282 91.829399 97.230598 102.63181 108.033 113.4342 118.8354 124.2366 129.6378 135.039 140.4402 145.8414 151.2426 156.6438 162.045 167.4462 172.8474 178.2486 183.6498 189.05099 194.45221 199.85341 205.25461 210.65581 216.05701 221.45821 226.85941 232.2606 237.6618 243.063 248.4642 253.8654 259.2666 264.66782 270.069 275.47021 280.8714 286.27261 291.6738 297.07501 302.4762 307.87741 313.27859 318.67981 324.08099 329.48221 334.88339 340.28461"
             y="351.0141"
             sodipodi:role="line"
             id="tspan132"> String tearDownPathName = PathParser.render(tearDownPath);</tspan><tspan
             x="-10.793398 32.416203 37.817402 43.218601 48.619801 54.021004 59.422203 64.823402 70.224602 75.625801 81.027 86.4282 91.829399 97.230598 102.63181 108.033 113.4342 118.8354 124.2366 129.6378"
             y="360.01428"
             sodipodi:role="line"
             id="tspan134"> buffer.append(&quot;\n&quot;)</tspan><tspan
             x="-10.793398 64.823402 70.224602 75.625801 81.027 86.4282 91.829399 97.230598 102.63181 108.033 113.4342 118.8354 124.2366 129.6378 135.039 140.4402 145.8414 151.2426 156.6438 162.045 167.4462 172.8474 178.2486 183.6498 189.05099 194.45221 199.85341 205.25461 210.65581 216.05701 221.45821 226.85941"
             y="369.0145"
             sodipodi:role="line"
             id="tspan136"> .append(&quot;!include -teardown .&quot;)</tspan><tspan
             x="-10.793398 64.823402 70.224602 75.625801 81.027 86.4282 91.829399 97.230598 102.63181 108.033 113.4342 118.8354 124.2366 129.6378 135.039 140.4402 145.8414 151.2426 156.6438 162.045 167.4462 172.8474 178.2486 183.6498 189.05099 194.45221"
             y="378.01559"
             sodipodi:role="line"
             id="tspan138"> .append(tearDownPathName)</tspan><tspan
             x="-10.793398 64.823402 70.224602 75.625801 81.027 86.4282 91.829399 97.230598 102.63181 108.033 113.4342 118.8354 124.2366 129.6378 135.039"
             y="387.01578"
             sodipodi:role="line"
             id="tspan140"> .append(&quot;\n&quot;);</tspan><tspan
             x="-10.793398 21.613802"
             y="396.01599"
             sodipodi:role="line"
             id="tspan142"> }</tspan></text>
        <g
           id="g146">
          <g
             id="g148"
             clip-path="url(#clipPath152)">
            <path
               d="M 79.92,536.653 V 102.778 M 442.682,536.653 V 102.778 m -362.887,434 h 363.012 m -363.012,-27 h 363.012"
               style="fill:none;stroke:#231f20;stroke-width:0.25;stroke-linecap:butt;stroke-linejoin:miter;stroke-miterlimit:10;stroke-dasharray:none;stroke-opacity:1"
               id="path154" />
            <path
               d="m -37.08,664.778 h 36 m -36,-666 h 36 m 522,0 h 36 m -36,666 h 36 m -549,45 v -36 m 504,36 v -36 m 0,-684 v -36 m -504,36 v -36"
               style="fill:none;stroke:#ffffff;stroke-width:0.75;stroke-linecap:butt;stroke-linejoin:miter;stroke-miterlimit:10;stroke-dasharray:none;stroke-opacity:1"
               id="path156" />
            <path
               d="m -37.08,664.778 h 36 m -36,-666 h 36 m 522,0 h 36 m -36,666 h 36 m -549,45 v -36 m 504,36 v -36 m 0,-684 v -36 m -504,36 v -36 m -12,378 c 0,3.312 -2.688,6 -6,6 -3.312,0 -6,-2.688 -6,-6 0,-3.312 2.688,-6 6,-6 3.312,0 6,2.688 6,6 z m -24,0 h 27 m -9,24 v -48 m 545.94,24 c 0,3.312 -2.688,6 -6,6 -3.312,0 -6,-2.688 -6,-6 0,-3.312 2.688,-6 6,-6 3.312,0 6,2.688 6,6 z m -14.94,0 h 27 m -18,24 v -48 m -534,345 c 0,3.312 -2.688,6 -6,6 -3.312,0 -6,-2.688 -6,-6 0,-3.312 2.688,-6 6,-6 3.312,0 6,2.688 6,6 z m -24,0 h 27 m -9,9 v -33 m 6,-618 c 0,3.312 -2.688,6 -6,6 -3.312,0 -6,-2.688 -6,-6 0,-3.312 2.688,-6 6,-6 3.312,0 6,2.688 6,6 z m -24,0 h 27 m -9,24 v -33 m 545.94,651 c 0,3.312 -2.688,6 -6,6 -3.312,0 -6,-2.688 -6,-6 0,-3.312 2.688,-6 6,-6 3.312,0 6,2.688 6,6 z m -14.94,0 h 27 m -18,9 v -33 m 5.94,-618 c 0,3.312 -2.688,6 -6,6 -3.312,0 -6,-2.688 -6,-6 0,-3.312 2.688,-6 6,-6 3.312,0 6,2.688 6,6 z m -14.94,0 h 27 m -18,24 v -33"
               style="fill:none;stroke:#000000;stroke-width:0.25;stroke-linecap:butt;stroke-linejoin:miter;stroke-miterlimit:10;stroke-dasharray:none;stroke-opacity:1"
               id="path158" />
          </g>
        </g>
      </g>
    </g>
    <g
       id="g160">
      <g
         id="g162"
         transform="translate(218,6.56)">
        <text
           xml:space="preserve"
           transform="scale(1,-1)"
           style="font-variant:normal;font-weight:normal;font-size:10px;font-family:Helvetica;-inkscape-font-specification:Helvetica;writing-mode:lr-tb;fill:#0000ff;fill-opacity:1;fill-rule:nonzero;stroke:none"
           id="text166"><tspan
             x="0 7.2199998 14.44 21.66 24.440001 26.66 29.440001 32.77 38.330002 43.889999 49.450001 55.009998 60.009998 65.010002 67.790001 70.010002 75.57 78.349998"
             y="0"
             sodipodi:role="line"
             id="tspan164">www.it-ebooks.info</tspan></text>
        <g
           id="g168"
           transform="translate(-218,-6.56)" />
      </g>
    </g>
  </g>
</svg>
