<?xml version="1.0" encoding="UTF-8" standalone="no"?>
<!-- Created with Inkscape (http://www.inkscape.org/) -->

<svg
   version="1.1"
   id="svg2"
   width="690.14398"
   height="888.47998"
   viewBox="0 0 690.14398 888.47998"
   sodipodi:docname="4PmrqTPDrJV6cyWn.pdf"
   xmlns:inkscape="http://www.inkscape.org/namespaces/inkscape"
   xmlns:sodipodi="http://sodipodi.sourceforge.net/DTD/sodipodi-0.dtd"
   xmlns="http://www.w3.org/2000/svg"
   xmlns:svg="http://www.w3.org/2000/svg">
  <defs
     id="defs6">
    <clipPath
       clipPathUnits="userSpaceOnUse"
       id="clipPath146">
      <path
         d="M 0,665.858 H 519.84 V 0 H 0 Z"
         id="path144" />
    </clipPath>
  </defs>
  <sodipodi:namedview
     id="namedview4"
     pagecolor="#ffffff"
     bordercolor="#000000"
     borderopacity="0.25"
     inkscape:showpageshadow="2"
     inkscape:pageopacity="0.0"
     inkscape:pagecheckerboard="0"
     inkscape:deskcolor="#d1d1d1" />
  <g
     id="g8"
     inkscape:groupmode="layer"
     inkscape:label="4PmrqTPDrJV6cyWn"
     transform="matrix(1.3333333,0,0,-1.3333333,-1.46,887.61333)">
    <g
       id="g10">
      <g
         id="g12">
        <text
           xml:space="preserve"
           transform="matrix(1,0,0,-1,429.92,622.111)"
           style="font-variant:normal;font-weight:normal;font-size:10px;font-family:'Times New Roman';-inkscape-font-specification:TimesNewRomanPS;writing-mode:lr-tb;fill:#231f20;fill-opacity:1;fill-rule:nonzero;stroke:none"
           id="text16"><tspan
             x="0 5"
             y="0"
             sodipodi:role="line"
             id="tspan14">33</tspan></text>
        <text
           xml:space="preserve"
           transform="matrix(1,0,0,-1,79.92,622.111)"
           style="font-variant:normal;font-weight:bold;font-size:10px;font-family:'Times New Roman';-inkscape-font-specification:TimesNewRomanPS-Bold;writing-mode:lr-tb;fill:#231f20;fill-opacity:1;fill-rule:nonzero;stroke:none"
           id="text20"><tspan
             x="0 6.1100001 11.67 17.23 21.67 25 27.780001 32.779999 38.34"
             y="0"
             sodipodi:role="line"
             id="tspan18">Functions</tspan></text>
        <text
           xml:space="preserve"
           transform="matrix(1,0,0,-1,97.92,369.111)"
           style="font-variant:normal;font-weight:normal;font-size:10px;font-family:'Times New Roman';-inkscape-font-specification:TimesNewRomanPS;writing-mode:lr-tb;fill:#231f20;fill-opacity:1;fill-rule:nonzero;stroke:none"
           id="text28"><tspan
             x="0 7.2199998 12.22 15.687 20.489 25.489 30.489 33.956001 38.956001 43.956001 48.956001 53.396 56.726002 60.616001 63.396 67.835999 72.835999 77.835999 81.303001 84.083 89.083 93.523003 96.989998 100.32 105.32 110.32 114.76 117.54 120.32 125.32 130.32001 133.787 138.22701 141.55701 144.33701 148.77699 152.10699 155.57401 158.354 163.354 166.68401 171.12399 175.564 179.03101 186.811 189.591 194.591 199.591 202.371 206.811 210.701 214.168 219.168 222.498 225.965 229.855 232.63499 237.63499 242.63499 247.63499 252.075 255.54201 261.10199 264.43201 269.43201 274.43201 278.87201 283.67401 286.20499 291.20499 294.672 299.672 304.672 307.452 309.952 312.92099 319.03101 324.03101 328.47101 331.80099 336.241 338.172"
             y="0"
             sodipodi:role="line"
             id="tspan22">Do you understand the function after three minutes of study? Probably not. There’s</tspan><tspan
             x="-18 -15.22 -10.22 -5.2199998 -2.098 5.6820002 10.682 15.122 20.122 23.243999 28.243999 33.243999 36.023998 41.023998 46.023998 49.146 54.146 59.146 62.268002 65.047997 70.047997 73.169998 75.949997 80.949997 85.389999 88.720001 93.160004 96.281998 100.722 103.502 106.624 109.404 114.404 119.404 122.526 130.306 134.746 139.49699 144.49699 147.619 152.619 155.399 158.48 161.81 166.25 169.58 174.02 179.02 181.8 184.922 187.702 191.89301 196.744 201.18401 203.964 207.854 210.976 215.976 219.306 222.42799 226.868 231.868 235.758 238.53799 241.868 246.308 250.748 253.528 256.30801 261.30801 266.30801 268.80801 271.43201 277.54199 282.54199 286.98199 290.31201 294.75201 297.87399 302.314 305.64401 310.08401 313.20599 317.09601 319.87601 323.20599 327.646 332.646 337.646"
             y="12"
             sodipodi:role="line"
             id="tspan24">too much going on in there at too many different levels of abstraction. There are strange</tspan><tspan
             x="-18 -14.11 -11.33 -8 -5.2199998 -0.22 4.7800002 8.6700001 12.363 16.802999 21.802999 26.802999 30.496 35.495998 40.495998 45.495998 49.188999 52.519001 57.519001 62.519001 66.959 69.738998 72.518997 77.518997 82.518997 86.211998 90.652 95.092003 97.872002 100.652 104.542 108.235 116.015 118.795 123.497 127.937 132.937 136.63 139.41 144.41 148.103 155.323 158.103 160.883 165.883 169.576 174.576 179.576 184.576 189.37801 191.909 196.909 200.60201 205.60201 210.04201 213.93201 216.71201 221.15199 226.15199"
             y="24"
             sodipodi:role="line"
             id="tspan26">strings and odd function calls mixed in with doubly nested </tspan></text>
        <text
           xml:space="preserve"
           transform="matrix(0.80015552,0,0,-1,327.721,345.111)"
           style="font-variant:normal;font-weight:normal;font-size:9.002px;font-family:'Courier New';-inkscape-font-specification:Courier;writing-mode:lr-tb;fill:#231f20;fill-opacity:1;fill-rule:nonzero;stroke:none"
           id="text32"><tspan
             x="0 5.4011998"
             y="0"
             sodipodi:role="line"
             id="tspan30">if</tspan></text>
        <text
           xml:space="preserve"
           transform="matrix(1,0,0,-1,340.037,345.111)"
           style="font-variant:normal;font-weight:normal;font-size:10px;font-family:'Times New Roman';-inkscape-font-specification:TimesNewRomanPS;writing-mode:lr-tb;fill:#231f20;fill-opacity:1;fill-rule:nonzero;stroke:none"
           id="text44"><tspan
             x="0 3.8900001 6.6700001 11.11 13.89 18.33 26.110001 30.549999 35.549999 38.330002 42.220001 45.912998 50.353001 55.353001 60.353001 63.132999 66.462997 71.462997 74.242996 77.023003 81.462997 86.462997 90.155998 94.906998"
             y="0"
             sodipodi:role="line"
             id="tspan34">statements controlled by</tspan><tspan
             x="-260.117 -254.55701 -250.117 -245.117 -241.22701"
             y="12"
             sodipodi:role="line"
             id="tspan36">ﬂags.</tspan><tspan
             x="-242.117 -234.94701 -230.395 -223.57401 -219.433 -214.632 -210.242 -207.36 -204.91 -200.33501 -193.16499 -190.435 -187.705 -182.755 -178.17999 -175.45 -170.5 -166.66 -163.92999 -159.355 -154.965 -150.39 -147.11 -142.96899 -135.799 -131.224 -127.384 -124.654 -116.924 -111.974 -109.244 -104.854 -100.279 -92.549004 -88.158997 -85.429001 -80.478996 -75.528999 -70.579002 -66.003998 -61.763 -56.813 -54.083 -50.803001 -46.412998 -42.022999 -39.292999 -36.563 -31.613001 -26.663 -22.823 -20.372999 -15.798 -11.958 -7.0079999 0.722 5.112 9.6870003 12.967 17.357 22.306999 26.697001 34.426998 37.157001 42.106998 47.056999 49.507 54.082001 58.472 63.422001 68.372002 72.946999 77.336998 81.912003 84.641998 87.372002 90.101997 92.832001 95.561996"
             y="27"
             sodipodi:role="line"
             id="tspan38">However, with just a few simple method extractions, some renaming, and a little</tspan><tspan
             x="-260.117 -256.83701 -252.44701 -248.60699 -245.877 -242.399 -237.44901 -233.05901 -230.32899 -225.379 -222.099 -219.369 -214.41901 -209.46899 -207.019 -204.638 -201.358 -198.97701 -192.056 -187.666 -183.826 -181.44501 -177.05499 -172.30299 -169.573 -165.183 -162.802 -160.07201 -155.12199 -152.741 -148.351 -143.961 -139.011 -136.28101 -131.33099 -128.05099 -123.661 -121.28 -118.55 -113.6 -109.21 -106.829 -104.099 -99.149002 -96.418999 -92.028999 -87.079002 -84.348999 -81.968002 -77.017998 -73.737999 -71.357002 -68.626999 -63.676998 -59.286999 -56.905998 -53.625999 -48.675999 -43.726002 -39.335999 -36.605999 -33.875999 -28.926001 -23.976 -21.594999 -18.865 -13.915 -11.534 -8.8039999 -3.8540001 0.53600001 2.9170001 7.8670001 10.597 15.547 19.937 22.318001 25.048 27.778 32.728001 37.118 40.958 43.339001 48.289001 51.569 53.950001 60.009998 62.740002 66.580002 69.309998 72.040001 76.989998 81.940002 84.320999 89.271004 92.551003 97.500999"
             y="39"
             sodipodi:role="line"
             id="tspan40">restructuring, I was able to capture the intent of the function in the nine lines of Listing 3-2.</tspan><tspan
             x="-260.117 -254.55701 -250.117 -245.677 -243.177 -236.155 -231.155 -226.715 -223.935 -218.935 -214.495 -211.16499 -208.66499 -203.86301 -198.86301 -193.86301 -191.36301 -186.923 -182.483 -177.483 -174.983 -169.983 -164.983 -159.983 -155.543 -152.213 -148.323 -145.543 -141.103 -136.103 -131.103"
             y="51"
             sodipodi:role="line"
             id="tspan42">See whether you can understand </tspan></text>
        <text
           xml:space="preserve"
           transform="matrix(1,0,0,-1,211.412,294.111)"
           style="font-style:italic;font-variant:normal;font-size:10px;font-family:'Times New Roman';-inkscape-font-specification:TimesNewRomanPS-Italic;writing-mode:lr-tb;fill:#231f20;fill-opacity:1;fill-rule:nonzero;stroke:none"
           id="text48"><tspan
             x="0 2.78 7.7800002 12.78"
             y="0"
             sodipodi:role="line"
             id="tspan46">that</tspan></text>
        <text
           xml:space="preserve"
           transform="matrix(1,0,0,-1,229.468,294.111)"
           style="font-variant:normal;font-weight:normal;font-size:10px;font-family:'Times New Roman';-inkscape-font-specification:TimesNewRomanPS;writing-mode:lr-tb;fill:#231f20;fill-opacity:1;fill-rule:nonzero;stroke:none"
           id="text52"><tspan
             x="0 2.78 7.7800002 10.28 13.06 18.059999 22.5 25 30 34.291 39.291 42.070999 44.570999 49.570999 52.070999 59.851002 62.631001 67.630997 72.630997 75.411003 79.850998 83.740997"
             y="0"
             sodipodi:role="line"
             id="tspan50">in the next 3 minutes.</tspan></text>
        <text
           xml:space="preserve"
           transform="matrix(0.80015552,0,0,-1,123.8508,557.778)"
           style="font-variant:normal;font-weight:normal;font-size:9.002px;font-family:'Courier New';-inkscape-font-specification:Courier;writing-mode:lr-tb;fill:#231f20;fill-opacity:1;fill-rule:nonzero;stroke:none"
           id="text92"><tspan
             x="0 5.4011998 10.8024 16.2036 21.604799 27.006001 32.4072 37.808399 43.209599 48.610802 54.012001 59.4132 64.8144 70.215599 75.616798 81.017998 86.419197 91.820396 97.221603 102.6228 108.024 113.4252 118.8264 124.2276"
             y="0"
             sodipodi:role="line"
             id="tspan54">if (includeSuiteSetup) {</tspan><tspan
             x="-32.4072 10.8024 16.2036 21.604799 27.006001 32.4072 37.808399 43.209599 48.610802 54.012001 59.4132 64.8144 70.215599 75.616798 81.017998 86.419197 91.820396 97.221603 102.6228 108.024 113.4252 118.8264 124.2276 129.6288 135.03"
             y="9.0001993"
             sodipodi:role="line"
             id="tspan56"> WikiPage suiteTeardown =</tspan><tspan
             x="-32.4072 21.604799 27.006001 32.4072 37.808399 43.209599 48.610802 54.012001 59.4132 64.8144 70.215599 75.616798 81.017998 86.419197 91.820396 97.221603 102.6228 108.024 113.4252 118.8264 124.2276 129.6288 135.03 140.4312 145.8324 151.2336 156.6348 162.036 167.43719 172.83839 178.23959 183.64079 189.04201 194.44321"
             y="18.000399"
             sodipodi:role="line"
             id="tspan58"> PageCrawlerImpl.getInheritedPage(</tspan><tspan
             x="-32.4072 64.8144 70.215599 75.616798 81.017998 86.419197 91.820396 97.221603 102.6228 108.024 113.4252 118.8264 124.2276 129.6288 135.03 140.4312 145.8324 151.2336 156.6348 162.036 167.43719 172.83839 178.23959 183.64079 189.04201 194.44321 199.84441 205.24561 210.6468 216.048 221.4492 226.8504 232.2516 237.6528 243.054 248.4552"
             y="27.001499"
             sodipodi:role="line"
             id="tspan60"> SuiteResponder.SUITE_TEARDOWN_NAME,</tspan><tspan
             x="-32.4072 64.8144 70.215599 75.616798 81.017998 86.419197 91.820396 97.221603 102.6228"
             y="36.001698"
             sodipodi:role="line"
             id="tspan62"> wikiPage</tspan><tspan
             x="-32.4072 21.604799 27.006001"
             y="45.0019"
             sodipodi:role="line"
             id="tspan64"> );</tspan><tspan
             x="-32.4072 10.8024 16.2036 21.604799 27.006001 32.4072 37.808399 43.209599 48.610802 54.012001 59.4132 64.8144 70.215599 75.616798 81.017998 86.419197 91.820396 97.221603 102.6228 108.024 113.4252 118.8264 124.2276 129.6288 135.03 140.4312 145.8324 151.2336 156.6348"
             y="54.002098"
             sodipodi:role="line"
             id="tspan66"> if (suiteTeardown != null) {</tspan><tspan
             x="-32.4072 21.604799 27.006001 32.4072 37.808399 43.209599 48.610802 54.012001 59.4132 64.8144 70.215599 75.616798 81.017998 86.419197 91.820396 97.221603 102.6228 108.024 113.4252 118.8264 124.2276 129.6288 135.03 140.4312"
             y="63.002296"
             sodipodi:role="line"
             id="tspan68"> WikiPagePath pagePath =</tspan><tspan
             x="-32.4072 32.266769 37.664368 43.061966 48.459568 53.857166 59.254765 64.652367 70.049965 75.447563 80.845161 86.24276 91.640358 97.037956 102.43556 107.83316 113.23076 118.62836 124.02596 129.42355 134.82115 140.21875 145.61635 151.01395 156.41154 161.80914 167.20674 172.60435 178.00195 183.39955 188.79715 194.19475 199.59235 204.98994 210.38754 215.78514 221.18274 226.58034 231.97794 237.37553 242.77313 248.17073 253.56833 258.96594 264.35544 269.75302 275.15063 280.54822 285.94583 291.34341 296.74103 302.13864 307.53622 312.93384 318.33142 323.72903 329.12662 334.52423 339.92181 345.31943"
             y="72.002495"
             sodipodi:role="line"
             id="tspan70"> suiteTeardown.getPageCrawler().getFullPath (suiteTeardown);</tspan><tspan
             x="-32.4072 21.604799 27.006001 32.4072 37.808399 43.209599 48.610802 54.012001 59.4132 64.8144 70.215599 75.616798 81.017998 86.419197 91.820396 97.221603 102.6228 108.024 113.4252 118.8264 124.2276 129.6288 135.03 140.4312 145.8324 151.2336 156.6348 162.036 167.43719 172.83839 178.23959 183.64079 189.04201 194.44321 199.84441 205.24561 210.6468 216.048 221.4492 226.8504 232.2516 237.6528 243.054 248.4552 253.8564 259.2576 264.65881 270.06 275.46121 280.8624 286.26361"
             y="81.003593"
             sodipodi:role="line"
             id="tspan72"> String pagePathName = PathParser.render(pagePath);</tspan><tspan
             x="-32.4072 21.604799 27.006001 32.4072 37.808399 43.209599 48.610802 54.012001 59.4132 64.8144 70.215599 75.616798 81.017998 86.419197 91.820396 97.221603 102.6228 108.024 113.4252 118.8264 124.2276 129.6288 135.03 140.4312 145.8324 151.2336 156.6348 162.036 167.43719 172.83839 178.23959 183.64079 189.04201 194.44321 199.84441 205.24561 210.6468 216.048"
             y="90.003799"
             sodipodi:role="line"
             id="tspan74"> buffer.append(&quot;!include -teardown .&quot;)</tspan><tspan
             x="-32.4072 54.012001 59.4132 64.8144 70.215599 75.616798 81.017998 86.419197 91.820396 97.221603 102.6228 108.024 113.4252 118.8264 124.2276 129.6288 135.03 140.4312 145.8324 151.2336 156.6348 162.036"
             y="99.003998"
             sodipodi:role="line"
             id="tspan76"> .append(pagePathName)</tspan><tspan
             x="-32.4072 54.012001 59.4132 64.8144 70.215599 75.616798 81.017998 86.419197 91.820396 97.221603 102.6228 108.024 113.4252 118.8264 124.2276"
             y="108.0042"
             sodipodi:role="line"
             id="tspan78"> .append(&quot;\n&quot;);</tspan><tspan
             x="-32.4072 10.8024"
             y="117.0044"
             sodipodi:role="line"
             id="tspan80"> }</tspan><tspan
             x="-32.4072 0"
             y="126.0055"
             sodipodi:role="line"
             id="tspan82"> }</tspan><tspan
             x="-32.4072 -10.8024"
             y="135.00569"
             sodipodi:role="line"
             id="tspan84"> }</tspan><tspan
             x="-32.4072 -10.8024 -5.4011998 0 5.4011998 10.8024 16.2036 21.604799 27.006001 32.4072 37.808399 43.209599 48.610802 54.012001 59.4132 64.8144 70.215599 75.616798 81.017998 86.419197 91.820396 97.221603 102.6228 108.024 113.4252 118.8264 124.2276 129.6288 135.03 140.4312 145.8324 151.2336 156.6348 162.036 167.43719 172.83839 178.23959 183.64079 189.04201 194.44321"
             y="144.00589"
             sodipodi:role="line"
             id="tspan86"> pageData.setContent(buffer.toString());</tspan><tspan
             x="-32.4072 -10.8024 -5.4011998 0 5.4011998 10.8024 16.2036 21.604799 27.006001 32.4072 37.808399 43.209599 48.610802 54.012001 59.4132 64.8144 70.215599 75.616798 81.017998 86.419197 91.820396 97.221603 102.6228 108.024 113.4252 118.8264 124.2276"
             y="153.00609"
             sodipodi:role="line"
             id="tspan88"> return pageData.getHtml();</tspan><tspan
             x="-32.4072 -21.604799"
             y="162.00629"
             sodipodi:role="line"
             id="tspan90"> }</tspan></text>
        <text
           xml:space="preserve"
           transform="matrix(1,0,0,-1,97.92,271.1111)"
           style="font-variant:normal;font-weight:bold;font-size:10px;font-family:'Times New Roman';-inkscape-font-specification:TimesNewRomanPS-Bold;writing-mode:lr-tb;fill:#231f20;fill-opacity:1;fill-rule:nonzero;stroke:none"
           id="text96"><tspan
             x="0 6.6700001 9.4499998 13.34 16.67 19.450001 25.01 30.01 32.509998 37.509998 40.84 45.84"
             y="0"
             sodipodi:role="line"
             id="tspan94">Listing 3-2 </tspan></text>
        <text
           xml:space="preserve"
           transform="matrix(1,0,0,-1,97.92,258.1111)"
           style="font-variant:normal;font-weight:bold;font-size:10px;font-family:'Courier New';-inkscape-font-specification:Courier-Bold;writing-mode:lr-tb;fill:#231f20;fill-opacity:1;fill-rule:nonzero;stroke:none"
           id="text100"><tspan
             x="0 6 12 18 24 30 36 42 48 54 60 66 72 78 84 90 96 102 108 114 120 126 132 138 144 150"
             y="0"
             sodipodi:role="line"
             id="tspan98">HtmlUtil.java (refactored)</tspan></text>
        <text
           xml:space="preserve"
           transform="matrix(0.80015552,0,0,-1,106.5564,245.778)"
           style="font-variant:normal;font-weight:normal;font-size:9.002px;font-family:'Courier New';-inkscape-font-specification:Courier;writing-mode:lr-tb;fill:#231f20;fill-opacity:1;fill-rule:nonzero;stroke:none"
           id="text130"><tspan
             x="0 5.4003 10.8006 16.200899 21.6012 27.001499 32.401798 37.798496 43.198799 48.599098 53.999397 59.399696 64.799995 70.200294 75.596992 80.997299 86.397598 91.797897 97.198196 102.5985 107.99879 113.39549 118.79579 124.19609 129.59639 134.99669 140.39699 145.79729 151.19759 156.59789 161.99818 167.3985 172.7988 178.1991 183.5994 188.99969 194.39999 199.80029 205.20059 210.60089 216.00119 221.40149 226.80179 232.20209 237.60239 243.00269 248.40298 253.80328 259.20358 264.60388 270.00418 275.40448 280.80478 286.20508"
             y="0"
             sodipodi:role="line"
             id="tspan102">public static String renderPageWithSetupsAndTeardowns(</tspan><tspan
             x="-10.793398 10.811402 16.212603 21.613802 27.015001 32.416203 37.817402 43.218601 48.619801 54.021004 59.422203 64.823402 70.224602 75.625801 81.027 86.4282 91.829399 97.230598 102.63181 108.033 113.4342 118.8354 124.2366 129.6378 135.039 140.4402 145.8414 151.2426 156.6438 162.045 167.4462 172.8474 178.2486 183.6498 189.05099"
             y="9.0001993"
             sodipodi:role="line"
             id="tspan104"> PageData pageData, boolean isSuite</tspan><tspan
             x="-10.793398 0.0090020001 5.410202 10.811402 16.212603 21.613802 27.015001 32.416203 37.817402 43.218601 48.619801 54.021004 59.422203 64.823402 70.224602 75.625801 81.027 86.4282 91.829399 97.230598 102.63181"
             y="18.000399"
             sodipodi:role="line"
             id="tspan106"> ) throws Exception {</tspan><tspan
             x="-10.793398 10.811402 16.212603 21.613802 27.015001 32.416203 37.817402 43.218601 48.619801 54.021004 59.422203 64.823402 70.224602 75.625801 81.027 86.4282 91.829399 97.230598 102.63181 108.033 113.4342 118.8354 124.2366 129.6378 135.039 140.4402 145.8414 151.2426 156.6438 162.045 167.4462 172.8474 178.2486 183.6498 189.05099 194.45221 199.85341 205.25461 210.65581 216.05701 221.45821 226.85941 232.2606 237.6618 243.063 248.4642 253.8654 259.2666 264.66782 270.069 275.47021 280.8714"
             y="27.001499"
             sodipodi:role="line"
             id="tspan108"> boolean isTestPage = pageData.hasAttribute(&quot;Test&quot;);</tspan><tspan
             x="-10.793398 10.811402 16.212603 21.613802 27.015001 32.416203 37.817402 43.218601 48.619801 54.021004 59.422203 64.823402 70.224602 75.625801 81.027 86.4282 91.829399 97.230598"
             y="36.001698"
             sodipodi:role="line"
             id="tspan110"> if (isTestPage) {</tspan><tspan
             x="-10.793398 21.613802 27.015001 32.416203 37.817402 43.218601 48.619801 54.021004 59.422203 64.823402 70.224602 75.625801 81.027 86.4282 91.829399 97.230598 102.63181 108.033 113.4342 118.8354 124.2366 129.6378 135.039 140.4402 145.8414 151.2426 156.6438 162.045 167.4462 172.8474 178.2486 183.6498 189.05099 194.45221 199.85341 205.25461 210.65581 216.05701 221.45821 226.85941 232.2606 237.6618 243.063 248.4642"
             y="45.0019"
             sodipodi:role="line"
             id="tspan112"> WikiPage testPage = pageData.getWikiPage();</tspan><tspan
             x="-10.793398 21.613802 27.015001 32.416203 37.817402 43.218601 48.619801 54.021004 59.422203 64.823402 70.224602 75.625801 81.027 86.4282 91.829399 97.230598 102.63181 108.033 113.4342 118.8354 124.2366 129.6378 135.039 140.4402 145.8414 151.2426 156.6438 162.045 167.4462 172.8474 178.2486 183.6498 189.05099 194.45221 199.85341 205.25461 210.65581 216.05701 221.45821 226.85941 232.2606 237.6618 243.063 248.4642 253.8654 259.2666 264.66782 270.069 275.47021 280.8714"
             y="54.002098"
             sodipodi:role="line"
             id="tspan114"> StringBuffer newPageContent = new StringBuffer();</tspan><tspan
             x="-10.793398 21.613802 27.015001 32.416203 37.817402 43.218601 48.619801 54.021004 59.422203 64.823402 70.224602 75.625801 81.027 86.4282 91.829399 97.230598 102.63181 108.033 113.4342 118.8354 124.2366 129.6378 135.039 140.4402 145.8414 151.2426 156.6438 162.045 167.4462 172.8474 178.2486 183.6498 189.05099 194.45221 199.85341 205.25461 210.65581 216.05701 221.45821 226.85941 232.2606 237.6618 243.063 248.4642 253.8654 259.2666 264.66782 270.069 275.47021 280.8714 286.27261 291.6738 297.07501 302.4762"
             y="63.002296"
             sodipodi:role="line"
             id="tspan116"> includeSetupPages(testPage, newPageContent, isSuite);</tspan><tspan
             x="-10.793398 21.613802 27.015001 32.416203 37.817402 43.218601 48.619801 54.021004 59.422203 64.823402 70.224602 75.625801 81.027 86.4282 91.829399 97.230598 102.63181 108.033 113.4342 118.8354 124.2366 129.6378 135.039 140.4402 145.8414 151.2426 156.6438 162.045 167.4462 172.8474 178.2486 183.6498 189.05099 194.45221 199.85341 205.25461 210.65581 216.05701 221.45821 226.85941 232.2606 237.6618 243.063 248.4642 253.8654 259.2666"
             y="72.003395"
             sodipodi:role="line"
             id="tspan118"> newPageContent.append(pageData.getContent());</tspan><tspan
             x="-10.793398 21.613802 27.015001 32.416203 37.817402 43.218601 48.619801 54.021004 59.422203 64.823402 70.224602 75.625801 81.027 86.4282 91.829399 97.230598 102.63181 108.033 113.4342 118.8354 124.2366 129.6378 135.039 140.4402 145.8414 151.2426 156.6438 162.045 167.4462 172.8474 178.2486 183.6498 189.05099 194.45221 199.85341 205.25461 210.65581 216.05701 221.45821 226.85941 232.2606 237.6618 243.063 248.4642 253.8654 259.2666 264.66782 270.069 275.47021 280.8714 286.27261 291.6738 297.07501 302.4762 307.87741 313.27859 318.67981"
             y="81.003593"
             sodipodi:role="line"
             id="tspan120"> includeTeardownPages(testPage, newPageContent, isSuite);</tspan><tspan
             x="-10.793398 21.613802 27.015001 32.416203 37.817402 43.218601 48.619801 54.021004 59.422203 64.823402 70.224602 75.625801 81.027 86.4282 91.829399 97.230598 102.63181 108.033 113.4342 118.8354 124.2366 129.6378 135.039 140.4402 145.8414 151.2426 156.6438 162.045 167.4462 172.8474 178.2486 183.6498 189.05099 194.45221 199.85341 205.25461 210.65581 216.05701 221.45821 226.85941 232.2606 237.6618 243.063 248.4642 253.8654 259.2666 264.66782 270.069"
             y="90.003799"
             sodipodi:role="line"
             id="tspan122"> pageData.setContent(newPageContent.toString());</tspan><tspan
             x="-10.793398 10.811402"
             y="99.003998"
             sodipodi:role="line"
             id="tspan124"> }</tspan><tspan
             x="-10.793398 10.811402 16.212603 21.613802 27.015001 32.416203 37.817402 43.218601 48.619801 54.021004 59.422203 64.823402 70.224602 75.625801 81.027 86.4282 91.829399 97.230598 102.63181 108.033 113.4342 118.8354 124.2366 129.6378 135.039 140.4402 145.8414"
             y="117.0053"
             sodipodi:role="line"
             id="tspan126"> return pageData.getHtml();</tspan><tspan
             x="-10.793398 0.0090020001"
             y="126.0055"
             sodipodi:role="line"
             id="tspan128"> }</tspan></text>
        <text
           xml:space="preserve"
           transform="matrix(1,0,0,-1,97.92,583.111)"
           style="font-variant:normal;font-weight:bold;font-size:10px;font-family:'Times New Roman';-inkscape-font-specification:TimesNewRomanPS-Bold;writing-mode:lr-tb;fill:#231f20;fill-opacity:1;fill-rule:nonzero;stroke:none"
           id="text134"><tspan
             x="0 6.6700001 9.4499998 13.34 16.67 19.450001 25.01 30.01 32.509998 37.509998 40.84 45.84 48.34 51.669998 56.110001 61.110001 66.669998 70 72.779999 78.141998 83.702003 88.141998 93.702003"
             y="0"
             sodipodi:role="line"
             id="tspan132">Listing 3-1 (continued)</tspan></text>
        <text
           xml:space="preserve"
           transform="matrix(1,0,0,-1,97.92,570.111)"
           style="font-variant:normal;font-weight:bold;font-size:10px;font-family:'Courier New';-inkscape-font-specification:Courier-Bold;writing-mode:lr-tb;fill:#231f20;fill-opacity:1;fill-rule:nonzero;stroke:none"
           id="text138"><tspan
             x="0 6 12 18 24 30 36 42 48 54 60 66 72 78 84 90 96 102 108 114 120 126 132 138 144 150 156 162 168 174 180 186 192"
             y="0"
             sodipodi:role="line"
             id="tspan136">HtmlUtil.java (FitNesse 20070619)</tspan></text>
        <g
           id="g140">
          <g
             id="g142"
             clip-path="url(#clipPath146)">
            <path
               d="m 79.92,592.653 v -201.75 m 362.762,201.75 V 390.903 M 79.795,592.778 h 363.012 m -363.012,-27 h 363.012 m -363.012,-175 H 442.807 M 79.92,280.653 v -165.75 m 361.333,165.75 V 114.903 M 79.795,280.778 h 361.583 m -361.583,-27 h 361.583 m -361.583,-139 h 361.583"
               style="fill:none;stroke:#231f20;stroke-width:0.25;stroke-linecap:butt;stroke-linejoin:miter;stroke-miterlimit:10;stroke-dasharray:none;stroke-opacity:1"
               id="path148" />
            <path
               d="m -37.08,664.778 h 36 m -36,-666 h 36 m 522,0 h 36 m -36,666 h 36 m -549,45 v -36 m 504,36 v -36 m 0,-684 v -36 m -504,36 v -36"
               style="fill:none;stroke:#ffffff;stroke-width:0.75;stroke-linecap:butt;stroke-linejoin:miter;stroke-miterlimit:10;stroke-dasharray:none;stroke-opacity:1"
               id="path150" />
            <path
               d="m -37.08,664.778 h 36 m -36,-666 h 36 m 522,0 h 36 m -36,666 h 36 m -549,45 v -36 m 504,36 v -36 m 0,-684 v -36 m -504,36 v -36 m -12,378 c 0,3.312 -2.688,6 -6,6 -3.312,0 -6,-2.688 -6,-6 0,-3.312 2.688,-6 6,-6 3.312,0 6,2.688 6,6 z m -24,0 h 27 m -9,24 v -48 m 545.94,24 c 0,3.312 -2.688,6 -6,6 -3.312,0 -6,-2.688 -6,-6 0,-3.312 2.688,-6 6,-6 3.312,0 6,2.688 6,6 z m -14.94,0 h 27 m -18,24 v -48 m -534,345 c 0,3.312 -2.688,6 -6,6 -3.312,0 -6,-2.688 -6,-6 0,-3.312 2.688,-6 6,-6 3.312,0 6,2.688 6,6 z m -24,0 h 27 m -9,9 v -33 m 6,-618 c 0,3.312 -2.688,6 -6,6 -3.312,0 -6,-2.688 -6,-6 0,-3.312 2.688,-6 6,-6 3.312,0 6,2.688 6,6 z m -24,0 h 27 m -9,24 v -33 m 545.94,651 c 0,3.312 -2.688,6 -6,6 -3.312,0 -6,-2.688 -6,-6 0,-3.312 2.688,-6 6,-6 3.312,0 6,2.688 6,6 z m -14.94,0 h 27 m -18,9 v -33 m 5.94,-618 c 0,3.312 -2.688,6 -6,6 -3.312,0 -6,-2.688 -6,-6 0,-3.312 2.688,-6 6,-6 3.312,0 6,2.688 6,6 z m -14.94,0 h 27 m -18,24 v -33"
               style="fill:none;stroke:#000000;stroke-width:0.25;stroke-linecap:butt;stroke-linejoin:miter;stroke-miterlimit:10;stroke-dasharray:none;stroke-opacity:1"
               id="path152" />
          </g>
        </g>
      </g>
    </g>
    <g
       id="g154">
      <g
         id="g156"
         transform="translate(218,6.56)">
        <text
           xml:space="preserve"
           transform="scale(1,-1)"
           style="font-variant:normal;font-weight:normal;font-size:10px;font-family:Helvetica;-inkscape-font-specification:Helvetica;writing-mode:lr-tb;fill:#0000ff;fill-opacity:1;fill-rule:nonzero;stroke:none"
           id="text160"><tspan
             x="0 7.2199998 14.44 21.66 24.440001 26.66 29.440001 32.77 38.330002 43.889999 49.450001 55.009998 60.009998 65.010002 67.790001 70.010002 75.57 78.349998"
             y="0"
             sodipodi:role="line"
             id="tspan158">www.it-ebooks.info</tspan></text>
        <g
           id="g162"
           transform="translate(-218,-6.56)" />
      </g>
    </g>
  </g>
</svg>
