<?xml version="1.0" encoding="UTF-8" standalone="no"?>
<!-- Created with Inkscape (http://www.inkscape.org/) -->

<svg
   version="1.1"
   id="svg2"
   width="690.14398"
   height="888.47998"
   viewBox="0 0 690.14398 888.47998"
   sodipodi:docname="4PmrqTPDrJV6cyWn.pdf"
   xmlns:inkscape="http://www.inkscape.org/namespaces/inkscape"
   xmlns:sodipodi="http://sodipodi.sourceforge.net/DTD/sodipodi-0.dtd"
   xmlns="http://www.w3.org/2000/svg"
   xmlns:svg="http://www.w3.org/2000/svg">
  <defs
     id="defs6">
    <clipPath
       clipPathUnits="userSpaceOnUse"
       id="clipPath154">
      <path
         d="M 0,665.858 H 519.84 V 0 H 0 Z"
         id="path152" />
    </clipPath>
  </defs>
  <sodipodi:namedview
     id="namedview4"
     pagecolor="#ffffff"
     bordercolor="#000000"
     borderopacity="0.25"
     inkscape:showpageshadow="2"
     inkscape:pageopacity="0.0"
     inkscape:pagecheckerboard="0"
     inkscape:deskcolor="#d1d1d1" />
  <g
     id="g8"
     inkscape:groupmode="layer"
     inkscape:label="4PmrqTPDrJV6cyWn"
     transform="matrix(1.3333333,0,0,-1.3333333,-1.46,887.61333)">
    <g
       id="g10">
      <g
         id="g12">
        <text
           xml:space="preserve"
           transform="matrix(1,0,0,-1,79.92,622.111)"
           style="font-variant:normal;font-weight:normal;font-size:10px;font-family:'Times New Roman';-inkscape-font-specification:TimesNewRomanPS;writing-mode:lr-tb;fill:#231f20;fill-opacity:1;fill-rule:nonzero;stroke:none"
           id="text16"><tspan
             x="0 5"
             y="0"
             sodipodi:role="line"
             id="tspan14">34</tspan></text>
        <text
           xml:space="preserve"
           transform="matrix(1,0,0,-1,348.831,622.111)"
           style="font-variant:normal;font-weight:bold;font-size:10px;font-family:'Times New Roman';-inkscape-font-specification:TimesNewRomanPS-Bold;writing-mode:lr-tb;fill:#231f20;fill-opacity:1;fill-rule:nonzero;stroke:none"
           id="text20"><tspan
             x="0 7.2199998 12.78 17.780001 23.34 26.67 31.110001 35.549999 38.199001 43.199001 46.230999 48.880001 54.990002 60.549999 66.110001 70.550003 73.879997 76.660004 81.660004 87.220001"
             y="0"
             sodipodi:role="line"
             id="tspan18">Chapter 3: Functions</tspan></text>
        <text
           xml:space="preserve"
           transform="matrix(1,0,0,-1,97.92,586.111)"
           style="font-variant:normal;font-weight:normal;font-size:10px;font-family:'Times New Roman';-inkscape-font-specification:TimesNewRomanPS;writing-mode:lr-tb;fill:#231f20;fill-opacity:1;fill-rule:nonzero;stroke:none"
           id="text30"><tspan
             x="0 7.2199998 12.22 15 19.440001 23.33 27.219999 30.577 35.379002 40.379002 45.379002 48.736 53.175999 56.506001 60.945999 64.303001 68.742996 72.099998 75.989998 78.769997 83.769997 88.769997 93.209999 98.209999 100.99 104.347 109.347 112.677 116.034 121.396 124.176 126.956 134.17599 138.616 142.506 146.396 150.836 153.336 156.69299 161.495 166.495 171.495 174.85201 179.85201 183.18201 188.18201 193.18201 197.62199 202.424 204.955 209.955 213.312 218.312 223.312 228.312 231.144 233.924 237.28101 242.28101 247.28101 252.28101 256.72101 260.05099 263.94101 266.72101 271.16101 276.16101 281.16101 284.51801 288.95801 291.73801 294.51801 297.875 300.655 305.655 310.095 313.452 318.452 322.892 325.672 330.112 332.892 335.672 339.56201"
             y="0"
             sodipodi:role="line"
             id="tspan22">Unless you are a student of FitNesse, you probably don’t understand all the details.</tspan><tspan
             x="-18 -12.44 -9.6599998 -6.8800001 -4.0999999 -1.3200001 1.1799999 3.8069999 8.6090002 13.609 18.608999 21.236 26.236 29.566 34.566002 39.566002 44.006001 48.807999 51.339001 56.339001 58.966 63.966 68.966003 73.966003 78.405998 81.736 85.625999 88.405998 92.846001 97.846001 102.846 105.473 108.253 113.253 117.693 120.473 123.1 125.88 130.88 133.66 137.55 140.177 143.507 148.507 153.507 157.94701 160.72701 163.507 168.507 173.507 176.134 181.134 185.57401 188.90401 192.23399 197.23399 200.76199 208.54201 212.43201 215.05901 217.839 222.839 227.27901 229.90601 232.686 237.686 242.12601 244.90601 249.90601 253.79601 256.57599 261.57599 266.57599 269.203 274.203 277.53299 280.16 284.04999 289.04999 296.82999 301.26999 303.897 307.78699 312.22699 315.00699 320.00699 325.00699 327.634 332.07401 337.07401"
             y="12"
             sodipodi:role="line"
             id="tspan24">Still, you probably understand that this function performs the inclusion of some setup and</tspan><tspan
             x="-18 -15.22 -10.78 -6.3400002 -3.01 1.99 6.592 13.812 18.812 21.371 26.371 30.811001 35.811001 40.250999 44.140999 46.700001 49.48 54.48 57.259998 62.259998 64.819 69.259003 71.818001 74.598 79.038002 82.928001 85.708 88.266998 93.266998 97.707001 102.707 107.147 109.706 114.146 119.146 124.146 126.705 129.485 134.485 138.925 143.925 146.48399 149.814 154.254 159.254 164.254 168.694 172.024 175.914 178.47301 181.25301 186.25301 190.69299 193.47301 196.032 201.032 205.472 210.472 214.912 217.47099 220.25101 225.25101 228.03101 233.03101 235.59 242.81 248.92 257.81 263.92001 266.42001 268.979 272.30899 275.63901 278.198 283 288 293 295.55899 299.99899 303.32901 307.76901 310.328 313.75601 318.19601 325.97601 328.75601 331.53601 334.31601 338.75601"
             y="24"
             sodipodi:role="line"
             id="tspan26">teardown pages into a test page and then renders that page into HTML. If you are familiar</tspan><tspan
             x="-18 -10.78 -8 -5.2199998 -0.22 3.336 7.2259998 14.446 19.445999 22.226 25.006001"
             y="36"
             sodipodi:role="line"
             id="tspan28">with JUnit,</tspan></text>
        <text
           xml:space="preserve"
           transform="matrix(1,0,0,-1,125.417,554.1111)"
           style="font-variant:normal;font-weight:normal;font-size:5.5px;font-family:'Times New Roman';-inkscape-font-specification:TimesNewRomanPS;writing-mode:lr-tb;fill:#231f20;fill-opacity:1;fill-rule:nonzero;stroke:none"
           id="text34"><tspan
             x="0"
             y="0"
             id="tspan32">2</tspan></text>
        <text
           xml:space="preserve"
           transform="matrix(1,0,0,-1,131.727,550.111)"
           style="font-variant:normal;font-weight:normal;font-size:10px;font-family:'Times New Roman';-inkscape-font-specification:TimesNewRomanPS;writing-mode:lr-tb;fill:#231f20;fill-opacity:1;fill-rule:nonzero;stroke:none"
           id="text48"><tspan
             x="0 4.802 9.802 14.802 18.358 23.358 26.688 31.688 36.688 41.127998 45.93 48.460999 53.460999 57.016998 60.347 64.787003 69.226997 72.007004 74.787003 79.226997 83.667 87.223 90.002998 95.002998 99.443001 102.223 105.779 108.559 113.559 116.339 120.229 123.785 127.115 132.11501 137.11501 141.55499 144.33501 147.11501 152.11501 157.11501 160.67101 165.67101 170.11099 172.89101 177.89101 182.89101 187.89101 191.78101 195.33701 198.117 203.117 206.673 210.563 215.563 223.343 227.783 231.339 236.339 239.119 244.119 249.119 252.675 257.67499 261.005 264.263 272.703 277.14301 282.14301 285.47299 290.47299 294.91299 298.80301 303.24301"
             y="0"
             sodipodi:role="line"
             id="tspan36">you probably realize that this function belongs to some kind of Web-based</tspan><tspan
             x="-51.806999 -49.126999 -44.786999 -40.997002 -38.317001 -35.637001 -30.737 -25.837 -23.589001 -20.358999 -17.129 -12.789 -5.1090002 -1.018 5.704 10.604 13.834 18.733999 21.134001 22.833 29.952999 34.853001 39.154999 41.555 43.803001 48.702999 51.932999 54.181 58.521 63.421001 68.320999 71.551003 75.341003 79.681 82.081001 84.329002 87.009003 91.908997 96.249001 98.929001 101.177 103.857 107.647 109.895 114.235 119.135 122.663 125.893 130.233 134.573 137.25301 139.653 141.901 149.021 151.452 156.35201 159.032 163.93201 166.612 171.51199 176.412 178.66 181.34 186.24001 190.58 193.25999 195.508 198.188 203.088 206.31799 211.218 214.646 222.326 226.666 229.34599 232.026 236.92599 241.826 244.07401 247.304 250.534 255.43401 263.11401 265.362 271.37201 274.052 277.84201 280.522 283.202 288.10199 293.00201 295.25 300.14999 303.38"
             y="12"
             sodipodi:role="line"
             id="tspan38">testing framework. And, of course, that is correct. Divining that information from Listing 3-2</tspan><tspan
             x="-51.806999 -49.026001 -45.134998 -42.634998 -37.633999 -34.303001 -29.862 -27.080999 -24.299999 -19.299 -16.799 -12.358 -7.9169998 -4.026 0.124 2.625 5.125 10.126 15.127 17.908001 20.408001 23.188999 25.969999 27.900999 31.792 34.292 39.292999 42.624001 47.064999 49.846001 52.626999 57.627998 60.127998 66.999001 71.440002 74.221001 77.001999 79.501999 84.502998 89.503998 93.394997 97.835999 102.837 106.168 110.609 115.61 118.11 122.861 127.861 130.36099 136.472 139.25301 143.144 145.925 148.70599 153.707 158.70799 161.20799 166.209 169.53999 174.541 177.04201"
             y="24"
             sodipodi:role="line"
             id="tspan40">is pretty easy, but it’s pretty well obscured by Listing 3-1. </tspan><tspan
             x="-33.806999 -28.247 -23.247 -20.705 -13.683 -8.6829996 -4.243 -1.4630001 1.079 3.859 7.7490001 10.291 13.071 15.851 18.393 21.173 26.173 30.613001 33.393002 35.935001 43.715 48.154999 53.056999 57.497002 61.387001 63.929001 68.369003 70.911003 74.240997 79.240997 84.240997 88.681 91.460999 94.240997 99.240997 104.241 106.783 109.563 112.343 117.245 121.685 124.227 130.33701 133.117 137.007 139.787 142.567 147.567 152.567 155.10899 160.10899 163.439 168.439 170.981 175.42101 179.86099 183.75101 188.75101 191.293 194.073 199.073 201.61501 204.94501 209.38499 213.825 218.825 221.367 225.80701 230.80701 235.80701 238.349 243.349 248.349 253.349 257.789 261.11899 265.009 267.789 272.229 277.229 282.229 286.66901 289.211 296.431 301.03299"
             y="39"
             sodipodi:role="line"
             id="tspan42">So what is it that makes a function like Listing 3-2 easy to read and understand? How</tspan><tspan
             x="-51.806999 -47.366001 -42.924999 -37.924 -35.508999 -28.638 -24.198 -21.783001 -14.002 -9.5609999 -4.6589999 -0.21799999 2.197 6.638 9.0530005 12.384 17.385 22.386 26.827 29.608 32.389 37.389999 42.390999 44.806 49.247002 54.248001 62.028999 69.809998 74.810997 79.811996 82.593002 87.033997 91.474998 94.255997 98.696999 101.112 103.893 106.674 110.565 112.98 115.761 120.762 123.543 127.984 132.985 135.76601 140.207 142.32401 151.765 156.76601 161.207 163.98801 166.403 170.84399 173.625 176.40601 179.737 182.51801 187.519 192.52 195.30099 199.742 203.633 206.048 210.489 214.92999 219.931 222.34599 229.217 233.657 236.07201 241.073 243.604 248.455 252.895 255.31 260.311 265.31201 268.64301 271.05801 274.38901 279.39001 284.39099 288.832 291.61301 294.39401 299.39499 304.396"
             y="51"
             sodipodi:role="line"
             id="tspan44">can we make a function communicate its intent? What attributes can we give our functions</tspan><tspan
             x="-51.806999 -49.027 -44.027 -39.587002 -36.806999 -34.306999 -27.087 -24.306999 -21.527 -18.747 -16.247 -11.807 -9.0270004 -6.2470002 -1.645 5.5749998 8.0749998 12.515 15.015 19.455 23.895 27.785 32.785 37.224998 40.005001 42.505001 45.834999 50.275002 54.715 59.715 64.154999 67.485001 69.985001 72.764999 77.764999 80.264999 83.044998 88.044998 90.824997 95.824997 98.605003 101.385 103.885 106.665 111.665 116.105 118.605 123.605 126.385 131.38499 136.38499 138.88499 143.88499 147.215 149.715 154.715 158.045 162.79601 167.994 171.32401 175.76401 183.54401 186.04401 188.82401 193.82401 198.11501 203.11501 205.61501 208.395 210.92599 215.77699 220.217 222.717 225.49699 230.49699 234.38699 237.16701 242.16701 246.60699"
             y="63"
             sodipodi:role="line"
             id="tspan46">that will allow a casual reader to intuit the kind of program they live inside?</tspan></text>
        <text
           xml:space="preserve"
           transform="matrix(1,0,0,-1,79.92,454.445)"
           style="font-variant:normal;font-weight:bold;font-size:14px;font-family:'Times New Roman';-inkscape-font-specification:TimesNewRomanPS-Bold;writing-mode:lr-tb;fill:#231f20;fill-opacity:1;fill-rule:nonzero;stroke:none"
           id="text52"><tspan
             x="0 7.7839999 19.445999 26.445999 30.337999 34.23"
             y="0"
             sodipodi:role="line"
             id="tspan50">Small!</tspan></text>
        <text
           xml:space="preserve"
           transform="matrix(1,0,0,-1,79.92,431.112)"
           style="font-variant:normal;font-weight:normal;font-size:10px;font-family:'Times New Roman';-inkscape-font-specification:TimesNewRomanPS;writing-mode:lr-tb;fill:#231f20;fill-opacity:1;fill-rule:nonzero;stroke:none"
           id="text56"><tspan
             x="0 6.1100001 11.11 15.55 18.070999 23.631001 26.961 30.851 33.631001 36.152 39.68 44.68 47.459999 51.900002 54.421001 59.421001 62.750999 65.272003 68.601997 73.601997 78.601997 83.042 85.821999 88.601997 93.601997 98.601997 102.492 105.013 107.793 111.683 114.204 116.984 121.984 126.424 129.20399 131.72501 134.505 139.505 143.79601 148.79601 151.317 155.207 160.207 165.207 170.207 172.987 177.987 180.508 185.508 189.948 192.46899 196.35899 204.13901 208.57899 211.35899 214.13901 216.63901 218.662 224.772 229.772 234.21201 236.733 240.623 245.063 249.50301 254.50301 259.50299 264.50299 267.02399 270.552 275.552 278.332 282.772 285.293 290.293 293.62299 296.14401 299.474 304.474 309.474 313.914 316.694 319.474 324.474 329.474 333.36401 335.88501 338.66501 342.55499 345.07599 347.85599 352.85599 357.29599"
             y="0"
             sodipodi:role="line"
             id="tspan54">The ﬁrst rule of functions is that they should be small. The second rule of functions is that</tspan></text>
        <text
           xml:space="preserve"
           transform="matrix(1,0,0,-1,79.92,419.112)"
           style="font-style:italic;font-variant:normal;font-size:10px;font-family:'Times New Roman';-inkscape-font-specification:TimesNewRomanPS-Italic;writing-mode:lr-tb;fill:#231f20;fill-opacity:1;fill-rule:nonzero;stroke:none"
           id="text60"><tspan
             x="0 2.78 7.7800002 12.122 16.562 19.344 23.233999 28.233999 33.234001 38.234001 41.014 46.014 48.796001 53.796001 58.236 61.018002 64.907997 72.127998 77.127998 79.907997 82.688004 87.127998 91.017998 93.800003 96.580002 101.58 106.58 111.58 114.362 117.142 122.142 127.142"
             y="0"
             sodipodi:role="line"
             id="tspan58">they should be smaller than that</tspan></text>
        <text
           xml:space="preserve"
           transform="matrix(1,0,0,-1,209.823,419.112)"
           style="font-variant:normal;font-weight:normal;font-size:10px;font-family:'Times New Roman';-inkscape-font-specification:TimesNewRomanPS;writing-mode:lr-tb;fill:#231f20;fill-opacity:1;fill-rule:nonzero;stroke:none"
           id="text92"><tspan
             x="0 2.5 4.7839999 10.894 15.894 18.674 22.563999 25.346001 28.125999 32.015999 34.798 39.798 44.798 47.577999 50.360001 54.799999 59.799999 62.582001 67.022003 70.912003 74.802002 79.241997 82.769997 85.550003 88.330002 93.330002 98.330002 101.112 103.892 108.892 113.332 116.112 118.894 122.224 125.006 129.446 133.886 138.886 141.668 144.448 149.448 153.338 156.118 158.89799 162.228 166.37801 168.87801 171.66 174.99001 177.772 182.21201 186.65199 191.65199 194.48399 197.26401 200.04601 205.04601 208.37601 212.927 217.927 220.707 225.707"
             y="0"
             sodipodi:role="line"
             id="tspan62">. This is not an assertion that I can justify. I can’t provide</tspan><tspan
             x="-129.903 -125.463 -120.712 -115.712 -112.769 -109.439 -104.999 -101.669 -97.228996 -93.899002 -89.459 -84.459 -80.018997 -75.579002 -71.689003 -68.746002 -65.966003 -60.966 -58.022999 -54.693001 -50.252998 -46.362999 -41.923 -37.483002 -34.153 -29.712999 -24.712999 -21.77 -18.99 -13.99 -9.5500002 -6.77 -3.8269999 0.063000001 5.0630002 9.665 16.885 20.775 23.718 26.497999 31.497999 35.938 38.717999 41.660999 46.512001 50.952 54.48 59.48 62.423 66.313004 74.093002 78.532997 81.313004 84.093002 87.036003 90.365997 95.365997 100.366 104.806 107.586 110.366 115.366 120.366 124.256 127.199 131.63901 134.96899 139.409 142.35201 147.35201 151.79201 154.57201 157.35201 161.79201 164.573 167.073 169.718 179.158 184.158 188.59801 191.37801 194.321 197.651 200.59399 205.034 209.474 214.474 217.41701 220.19701 224.63699 227.41701"
             y="12"
             sodipodi:role="line"
             id="tspan64">any references to research that shows that very small functions are better. What I can tell</tspan><tspan
             x="-129.903 -125.101 -120.101 -115.101 -112.457 -109.677 -105.787 -103.143 -100.363 -95.362999 -90.922997 -88.142998 -85.499001 -82.168999 -77.168999 -73.838997 -71.195 -66.195 -61.755001 -57.314999 -53.985001 -51.453999 -46.453999 -43.810001 -40.48 -35.48 -30.48 -27.15 -24.506001 -19.506001 -15.066 -10.626 -6.1859999 -1.186 3.2539999 7.1440001 9.7880001 13.118 15.762 20.761999 24.853001 29.704 34.144001 36.787998 44.007999 47.338001 50.118 52.897999 55.678001 60.118 65.117996 67.762001 71.092003 76.092003 81.092003 85.531998 88.311996 91.092003 96.092003 101.092 104.982 107.626 112.626 115.956 118.6 123.04 125.82 128.60001 131.244 136.244 139.024 142.105 145.435 149.875 153.205 157.645 162.645 165.425 168.069 171.959 174.739 179.179 183.619 187.509 190.009 192.653 195.983 198.815 203.666 208.106 210.75 217.97 221.3 224.08 226.86"
             y="24"
             sodipodi:role="line"
             id="tspan66">you is that for nearly four decades I have written functions of all different sizes. I’ve writ-</tspan><tspan
             x="-129.903 -127.123 -122.683 -117.683 -115.338 -111.448 -107.257 -102.406 -97.966003 -94.636002 -90.195999 -87.416 -85.070999 -80.070999 -75.630997 -71.740997 -68.960999 -63.960999 -61.616001 -56.616001 -54.116001 -49.116001 -44.116001 -39.116001 -35.785999 -33.006001 -30.226 -25.226 -20.785999 -18.441 -14.001 -9.0010004 -4.0009999 3.779 6.559 11.559 15.999 18.778999 21.559 26.559 31.559 35.449001 37.949001 40.293999 43.624001 46.456001 51.306999 55.747002 58.091999 65.311996 68.641998 71.421997 74.202003 76.982002 81.421997 86.421997 88.766998 92.656998 97.097 101.537 106.537 110.427 112.772 117.772 121.102 123.447 126.777 131.77699 136.77699 141.217 143.99699 146.77699 151.77699 156.77699 160.66701 163.01199 165.79201 170.79201 173.13699 175.91701 180.91701 185.35699 187.702 192.702 197.702 202.702 205.047 207.827 212.827 215.172 220.172 225.172"
             y="36"
             sodipodi:role="line"
             id="tspan68">ten several nasty 3,000-line abominations. I’ve written scads of functions in the 100 to 300</tspan><tspan
             x="-129.903 -127.123 -124.343 -119.343 -114.903 -112.057 -108.727 -104.287 -99.287003 -94.287003 -89.847 -87.347 -85.050003 -77.830002 -72.830002 -67.830002 -64.984001 -61.653999 -58.821999 -53.971001 -49.530998 -46.685001 -39.465 -36.134998 -33.355 -30.575001 -27.795 -23.355 -18.355 -15.509 -12.179 -7.1789999 -2.1789999 2.2609999 5.0409999 7.8210001 12.821 17.820999 21.711 24.556999 27.337 32.337002 36.777 39.556999 42.403 49.273998 53.714001 57.043999 61.484001 64.330002 69.330002 74.330002 77.176003 79.956001 84.956001 87.802002 92.802002 97.802002 100.648 103.428 106.208 111.208 115.648 119.538 122.384 125.164 130.164 135.164 140.164 142.664 145.21201 154.65199 159.65199 164.092 166.87199 169.718 172.498 177.498 180.278 184.168 187.01401 191.30499 196.30499 201.30499 205.745 209.075 211.855 216.295 221.295 225.735"
             y="48"
             sodipodi:role="line"
             id="tspan70">line range. And I’ve written functions that were 20 to 30 lines long. What this experience</tspan><tspan
             x="-129.903 -124.903 -120.463 -116.573 -114.073 -111.293 -106.853 -101.853 -96.852997 -91.852997 -89.072998 -86.572998 -78.792999 -74.352997 -71.852997 -69.352997 -66.572998 -61.573002 -58.243 -53.243 -48.243 -43.243 -38.243 -35.743 -32.963001 -27.962999 -22.962999 -17.962999 -15.463 -12.683 -9.3529997 -6.573 -2.1329999 0.64700001 3.1470001 7.5869999 12.587 17.587 20.087 24.527 28.155001 31.485001 36.485001 39.417 41.917 44.417 47.196999 51.087002 53.587002 56.367001 61.367001 65.806999 68.586998 71.086998 74.417 79.417 84.417 88.857002 91.637001 94.417 99.417 104.417 108.307 110.807 114.697 119.697 124.697 129.69701 132.47701 137.47701 139.97701 144.97701 149.41701 151.91701 156.76801 161.20799 164.73599 169.73599 172.23599 176.12601 183.90601 188.34599 191.12601 193.90601"
             y="60"
             sodipodi:role="line"
             id="tspan72">has taught me, through long trial and error, is that functions should be very small.</tspan><tspan
             x="-111.903 -108.573 -103.573 -100.532 -97.751999 -92.751999 -88.311996 -85.271004 -80.831001 -78.051003 -73.051003 -68.051003 -65.271004 -62.491001 -58.050999 -54.160999 -51.119999 -44.249001 -39.808998 -36.768002 -31.768 -27.878 -23.438 -18.438 -15.397 -12.617 -7.6170001 -4.5760002 -0.68599999 3.405 8.4049997 11.446 14.226 19.226 23.666 26.445999 29.487 33.926998 36.967999 40.298 45.298 50.298 54.737999 57.518002 60.298 65.297997 70.297997 73.338997 77.228996 82.228996 87.228996 92.228996 95.009003 100.009 103.05 108.05 112.49 115.531 120.531 125.531 128.57201 133.57201 136.35201 141.35201 146.35201 150.79201 154.12199 157.16299 159.94299 164.94299 169.383 174.383 177.424 181.864 184.905 188.795 193.235 196.565 201.005 205.44501 210.44501 213.77499 217.105 222.105 224.88499 227.66499"
             y="75"
             sodipodi:role="line"
             id="tspan74">In the eighties we used to say that a function should be no bigger than a screen-full.</tspan><tspan
             x="-129.903 -122.683 -119.353 -116.19 -111.75 -106.75 -101.75 -98.419998 -94.529999 -90.089996 -86.927002 -80.056 -75.615997 -72.453003 -68.563004 -64.123001 -61.342999 -56.342999 -53.18 -50.400002 -45.400002 -40.959999 -38.18 -35.016998 -30.577 -27.797001 -24.634001 -20.194 -17.031 -14.251 -11.471 -3.691 0.74900001 3.9119999 10.934 15.934 20.374001 25.374001 28.537001 35.757 41.867001 46.867001 51.867001 56.867001 60.029999 63.919998 68.360001 71.690002 76.129997 80.57 85.57 89.459999 92.623001 99.494003 103.934 107.264 111.704 114.867 119.867 124.867 128.03 130.81 133.59 138.59 143.03 146.92 150.08299 154.834 159.834 162.99699 167.99699 172.99699 176.16 180.60001 185.60001 188.38 193.38 201.16 206.16 210.05 212.55 215.713 220.153 225.153"
             y="87"
             sodipodi:role="line"
             id="tspan76">Of course we said that at a time when VT100 screens were 24 lines by 80 columns, and</tspan><tspan
             x="-129.903 -124.903 -119.903 -116.573 -113.721 -109.281 -104.281 -101.501 -98.721001 -93.721001 -90.390999 -86.500999 -83.649002 -78.649002 -74.759003 -70.319 -65.319 -62.466999 -57.466999 -54.615002 -51.834999 -49.055 -44.055 -39.615002 -35.724998 -32.873001 -29.542999 -24.542999 -21.212999 -18.361 -13.921 -8.9209995 -1.141 1.6390001 6.6389999 9.4189997 13.309 16.089001 19.419001 23.858999 26.639 29.17 34.021 38.460999 41.313 46.313 51.313 54.941002 59.941002 64.941002 68.831001 73.271004 77.161003 79.661003 82.513 89.733002 94.334999 101.306 105.746 110.746 114.837 119.837 123.727 126.579 133.799 136.57899 139.35899 144.35899 147.211 151.651 154.50301 158.94299 162.27299 166.713 171.713 176.61501 181.05499 186.05499 189.38499 194.38499 198.987 206.207 211.207 214.05901 217.38901 222.38901 227.38901"
             y="99"
             sodipodi:role="line"
             id="tspan78">our editors used 4 lines for administrative purposes. Nowadays with a cranked-down font</tspan><tspan
             x="-129.903 -125.463 -120.463 -115.463 -112.469 -108.029 -105.035 -100.035 -97.254997 -92.815002 -88.375 -85.380997 -80.380997 -77.600998 -72.600998 -69.607002 -61.827 -56.827 -51.827 -49.047001 -46.266998 -41.266998 -38.334999 -35.834999 -32.841 -28.039 -23.039 -18.039 -15.045 -10.605 -6.165 -1.165 1.829 7.3889999 10.169 13.163 18.163 23.163 28.163 31.157 35.597 40.597 45.036999 48.367001 52.806999 57.247002 60.027 64.467003 67.796997 71.686996 74.681 79.681 84.681 87.675003 92.114998 95.109001 97.889 100.669 105.669 110.109 113.103 117.543 122.543 127.543 130.537 134.97701 137.97099 142.97099 147.97099 152.97099 155.965 158.745 161.52499 166.52499 170.965 174.855 177.849 182.849 186.179 189.173 196.953 201.953 205.283 209.72301 212.717 217.717 222.717 225.711"
             y="111"
             sodipodi:role="line"
             id="tspan80">and a nice big monitor, you can ﬁt 150 characters on a line and a 100 lines or more on a</tspan><tspan
             x="-129.903 -126.013 -121.573 -118.243 -113.803 -109.363 -104.363 -101.863 -98.820999 -92.710999 -89.931 -84.931 -80.490997 -76.600998 -73.558998 -69.668999 -64.668999 -59.668999 -54.668999 -51.889 -46.889 -43.847 -38.847 -33.847 -31.066999 -28.025 -23.025 -18.584999 -15.543 -10.543 -5.5430002 -0.54299998 2.4990001 6.9390001 11.939 16.379 19.709 24.149 28.589001 31.368999 35.808998 39.139 43.028999 46.070999 48.851002 53.851002 58.851002 63.851002 66.350998 69.392998 74.953003 79.953003 84.953003 89.392998 92.172997 94.953003 99.953003 104.953 108.843 111.885 115.775 120.775 125.775 130.77499 133.55499 138.55499 141.597 146.597 151.597 154.377 157.41901 162.41901 166.85899 169.901 174.901 179.901 184.901 187.94299 190.72301 193.50301 198.50301 202.94299 206.83299 209.875 212.655 217.655 222.655 227.655"
             y="123"
             sodipodi:role="line"
             id="tspan82">screen. Lines should not be 150 characters long. Functions should not be 100 lines long.</tspan><tspan
             x="-129.903 -124.343 -119.343 -114.343 -109.903 -107.123 -104.343 -99.343002 -94.343002 -90.453003 -87.953003 -84.063004 -79.063004 -74.063004 -69.063004 -66.282997 -61.283001 -58.783001 -53.783001 -49.342999 -46.013 -41.013 -38.481998 -33.481998 -30.982 -26.791 -21.940001 -17.5 -14.17 -11.67 -6.6700001 -2.23 0.27000001 5.27 10.27 12.77 15.55 18.33 23.33 27.77 31.66 34.16 36.939999 41.939999 46.939999 51.939999 54.439999"
             y="135"
             sodipodi:role="line"
             id="tspan84">Functions should hardly ever be 20 lines long. </tspan><tspan
             x="-111.903 -104.683 -100.081 -92.861 -90.539001 -86.649002 -81.649002 -76.649002 -73.121002 -70.341003 -68.018997 -64.128998 -59.129002 -54.129002 -49.129002 -46.348999 -41.348999 -39.027 -34.587002 -32.264999 -28.934999 -23.934999 -18.934999 -14.495 -11.715 -8.9350004 -3.9349999 1.0650001 3.3870001 8.3870001 12.827 17.267 19.589001 22.919001 27.919001 30.240999 35.241001 40.241001 45.241001 50.241001 52.563 55.893002 58.215 65.085999 69.526001 74.526001 77.306 79.627998 82.407997 87.407997 89.730003 94.730003 97.510002 101.4 104.18 106.96 109.282 116.253 120.693 125.693 128.47301 130.795 137.465 141.905 146.345 151.345 153.66701 158.10699 160.88699 163.209 168.209 170.989 174.879 177.201 182.201 187.201 194.981 199.42101 201.743 204.52299 209.52299 211.845 219.065 222.395 226.83501"
             y="150"
             sodipodi:role="line"
             id="tspan86">How short should a function be? In 1999 I went to visit Kent Beck at his home in Ore-</tspan><tspan
             x="-129.903 -124.903 -119.903 -114.903 -112.403 -110.024 -101.584 -97.143997 -94.467003 -90.577003 -86.137001 -83.357002 -80.68 -75.68 -71.078003 -63.858002 -58.858002 -56.181 -51.741001 -46.741001 -41.741001 -39.063999 -34.063999 -31.284 -26.284 -23.607 -19.716999 -14.717 -6.9369998 -2.497 0.18000001 5.1799998 8.5100002 13.261 18.459 21.789 26.229 34.008999 41.789001 44.569 49.569 54.569 57.245998 60.026001 64.777 69.777 74.217003 76.997002 81.997002 86.436996 89.218002 91.718002 93.846001 101.066 103.846 106.523 111.523 116.523 120.963 123.64 128.64 133.64 136.42 141.42 144.2 146.877 151.877 156.317 158.994 162.884 167.884 172.48599 179.35699 183.797 188.797 191.474 199.254 203.694 206.371 210.811 213.48801 217.92799 222.92799 225.70799"
             y="162"
             sodipodi:role="line"
             id="tspan88">gon. We sat down and did some programming together. At one point he showed me a cute</tspan><tspan
             x="-129.903 -127.123 -124.343 -121.563 -118.783 -116.003 -111.563 -108.744 -104.854 -100.763 -96.012001 -91.571999 -88.792 -83.232002 -76.012001 -73.232002 -68.232002 -63.231998 -60.412998 -55.412998 -52.083 -47.332001 -42.133999 -38.804001 -34.363998 -26.584 -23.764999 -20.985001 -15.985 -11.545 -8.7650003 -5.9460001 -0.94599998 3.494 6.3130002 10.753 15.193 17.973 20.753 25.193001 30.193001"
             y="174"
             sodipodi:role="line"
             id="tspan90">little Java/Swing program that he called </tspan></text>
        <text
           xml:space="preserve"
           transform="matrix(1,0,0,-1,242.792,245.112)"
           style="font-style:italic;font-variant:normal;font-size:10px;font-family:'Times New Roman';-inkscape-font-specification:TimesNewRomanPS-Italic;writing-mode:lr-tb;fill:#231f20;fill-opacity:1;fill-rule:nonzero;stroke:none"
           id="text96"><tspan
             x="0 5 10 15 18.541 22.981001 25.761"
             y="0"
             sodipodi:role="line"
             id="tspan94">Sparkle</tspan></text>
        <text
           xml:space="preserve"
           transform="matrix(1,0,0,-1,272.987,245.112)"
           style="font-variant:normal;font-weight:normal;font-size:10px;font-family:'Times New Roman';-inkscape-font-specification:TimesNewRomanPS;writing-mode:lr-tb;fill:#231f20;fill-opacity:1;fill-rule:nonzero;stroke:none"
           id="text110"><tspan
             x="0 2.5 5.3189998 8.6490002 11.429 14.248 19.247999 22.577999 27.577999 32.577999 37.577999 42.018002 46.458 51.458 54.277 58.716999 61.535999 66.536003 69.316002 73.206001 78.206001 82.646004 85.426003 88.245003 92.684998 95.765999 99.096001 103.536 107.976 110.756 113.575 118.575 123.575 126.394 129.174 134.174 138.614 141.433 145.323 149.763 153.093 157.533 161.97301"
             y="0"
             sodipodi:role="line"
             id="tspan98">. It produced a visual effect on the screen</tspan><tspan
             x="-193.067 -188.216 -183.77699 -180.24899 -171.817 -167.927 -165.147 -157.367 -154.58701 -151.80701 -147.367 -144.037 -140.604 -137.82401 -132.82401 -129.39101 -126.611 -121.611 -117.171 -113.738 -105.958 -101.518 -96.517998 -93.737999 -89.297997 -85.864998 -78.893997 -74.454002 -69.454002 -64.454002 -61.021 -56.021 -52.691002 -49.257999 -46.478001 -41.478001 -37.037998 -33.605 -30.177 -25.737 -22.957001 -19.429001 -14.429 -10.996 -5.9959998 -0.99599999 4.0040002 11.784 16.784 19.563999 24.563999 29.004 32.334 35.766998 38.547001 43.547001 46.98 49.759998 54.759998 59.200001 62.632999 70.413002 74.963997 79.963997 82.744003 87.183998 90.616997 97.287003 100.067 105.067 110.067 114.507 117.837 122.277 125.057 127.837 132.27699 134.77699 137.661 144.881 148.771 152.20399 157.006 162.006"
             y="12"
             sodipodi:role="line"
             id="tspan100">verysimilar to the magic wand of the fairy godmother in the movie Cinderella. As you</tspan><tspan
             x="-193.06799 -185.28799 -180.737 -175.886 -171.446 -166.446 -163.41299 -160.633 -155.633 -151.19299 -148.16 -140.38 -135.38 -130.38 -126.49 -122.05 -119.55 -116.517 -113.737 -108.737 -104.297 -101.264 -97.374001 -92.374001 -87.933998 -84.603996 -79.603996 -76.823997 -72.384003 -68.494003 -65.460999 -58.639 -53.639 -48.639 -45.859001 -40.859001 -37.826 -32.826 -29.496 -26.716 -21.716 -18.683001 -15.353 -12.023 -7.0229998 0.75700003 3.79 6.5700002 11.57 16.01 19.042999 23.483 28.483 31.813 35.702999 40.702999 44.033001 47.066002 54.285999 57.066002 59.846001 64.846001 67.878998 72.319 75.351997 79.241997 83.681999 86.461998 89.241997 93.132004 96.461998 101.462 104.242 109.242 114.242 117.275 121.165 125.605 128.38499 133.38499 136.16499 138.94501 141.72501 144.505 148.94501 151.72501 154.505 159.505 164.505"
             y="24"
             sodipodi:role="line"
             id="tspan102">moved the mouse, the sparkles would drip from the cursor with a satisfying scintillation,</tspan><tspan
             x="-193.06799 -189.64 -185.2 -182.42 -179.64 -176.86 -171.86 -166.86 -163.379 -160.599 -155.599 -152.118 -149.338 -144.338 -139.89799 -136.41701 -131.41701 -126.417 -123.637 -120.857 -115.857 -108.077 -104.596 -99.596001 -96.265999 -92.785004 -90.004997 -85.004997 -80.565002 -77.084 -69.863998 -67.084 -62.084 -57.084 -52.481998 -45.262001 -41.780998 -39.000999 -34.000999 -30.671 -25.671 -20.671 -15.671 -10.671 -7.1900001 -2.75 0.73100001 4.6209998 7.401 15.181 20.181 22.961 27.400999 30.181 34.620998 39.620998 43.102001 48.299999 51.630001 55.721001 60.721001 63.500999 66.280998 70.721001 73.500999 76.280998 81.280998 86.280998 90.721001 93.500999 96.982002 102.542 106.982 109.762 114.762 117.262 120.445 129.88499 134.88499 139.325 144.325 147.806 154.77699 159.217 164.217"
             y="36"
             sodipodi:role="line"
             id="tspan104">falling to the bottom of the window through a simulated gravitational ﬁeld. When Kent</tspan><tspan
             x="-193.06799 -189.17799 -184.17799 -179.576 -172.705 -168.265 -163.265 -160.705 -152.925 -148.485 -145.925 -143.145 -138.145 -133.705 -131.145 -126.705 -121.705 -116.705 -112.265 -109.765 -107.205 -103.875 -101.315 -94.344002 -89.903999 -86.014 -83.454002 -79.564003 -76.783997 -73.255997 -68.255997 -63.816002 -58.816002 -56.256001 -51.505001 -46.505001 -43.945 -38.945 -34.342999 -27.122999 -24.563 -20.673 -12.893 -8.4530001 -5.6729999 -2.8929999 -0.333 4.1069999 6.8870001 9.6669998 12.227 15.007 20.007 24.447001 27.007 30.337 35.337002 40.337002 44.777 47.556999 50.337002 55.337002 60.337002 64.226997 66.787003 73.657997 78.098 81.428001 85.867996 88.367996 90.928001 94.258003 96.818001 103.789 108.229 112.119 114.679 119.679 123.569 128.009 133.009 135.569 138.349 143.349 145.909 149.239 154.239 159.239 163.679"
             y="48"
             sodipodi:role="line"
             id="tspan106">showed me the code, I was struck by how small all the functions were. I was used to func-</tspan><tspan
             x="-193.06799 -190.28799 -187.508 -182.508 -177.508 -173.618 -170.55901 -167.77901 -162.77901 -159.72 -154.16 -146.94 -144.16 -139.16 -134.16 -131.101 -126.101 -122.771 -118.02 -112.822 -109.492 -105.052 -97.272003 -93.382004 -90.322998 -87.542999 -82.542999 -78.102997 -75.322998 -72.264 -69.484001 -64.484001 -59.484001 -54.484001 -51.424999 -46.424999 -41.424999 -38.366001 -30.586 -27.806 -25.025999 -20.586 -16.695999 -13.637 -8.6370001 -5.3070002 -2.2479999 2.6029999 7.0430002 10.571 13.351 16.131001 20.570999 25.011 27.791 30.85 34.740002 39.740002 44.18 48.619999 53.060001 55.560001 58.618999 64.728996 69.580002 74.019997 77.547997 82.547997 85.607002 88.936996 93.936996 98.936996 103.377 106.157 108.937 113.937 118.937 121.996 124.776 129.776"
             y="60"
             sodipodi:role="line"
             id="tspan108">tions in Swing programs that took up miles of vertical space. Every function in </tspan></text>
        <text
           xml:space="preserve"
           transform="matrix(1,0,0,-1,405.759,185.112)"
           style="font-style:italic;font-variant:normal;font-size:10px;font-family:'Times New Roman';-inkscape-font-specification:TimesNewRomanPS-Italic;writing-mode:lr-tb;fill:#231f20;fill-opacity:1;fill-rule:nonzero;stroke:none"
           id="text114"><tspan
             x="0 2.78 7.7800002 10.56"
             y="0"
             sodipodi:role="line"
             id="tspan112">this</tspan></text>
        <text
           xml:space="preserve"
           transform="matrix(1,0,0,-1,423.263,185.112)"
           style="font-variant:normal;font-weight:normal;font-size:10px;font-family:'Times New Roman';-inkscape-font-specification:TimesNewRomanPS;writing-mode:lr-tb;fill:#231f20;fill-opacity:1;fill-rule:nonzero;stroke:none"
           id="text122"><tspan
             x="0 5 8.3299999 13.33"
             y="0"
             sodipodi:role="line"
             id="tspan116">pro-</tspan><tspan
             x="-343.34399 -338.146 -334.81601 -330.37601 -322.59601 -319.875 -312.90399 -308.46399 -304.57401 -301.853 -299.073 -294.073 -290.18301 -287.40302 -284.68201 -281.90201 -275.07999 -270.07999 -267.57999 -264.85901 -259.85901 -256.52899 -253.808 -251.028 -246.028 -242.698 -238.258 -233.81799 -231.31799 -228.597 -223.597 -220.267 -217.54601 -214.216 -209.216 -204.216 -200.886 -198.16499 -195.38499 -192.605 -187.605 -183.16499 -179.27499 -176.554 -173.774 -168.774 -163.774 -158.774 -156.274 -153.55299 -147.44299 -143.00301 -138.563 -133.563 -130.842 -123.871 -119.431 -115.541 -112.82 -110.04 -106.71 -102.27 -97.269997 -93.379997 -88.379997 -83.940002 -80.610001 -76.169998 -71.169998 -68.389999 -65.859001 -60.859001 -58.138 -53.138 -48.436001 -43.436001 -40.655998 -35.655998 -30.656 -26.766001 -24.266001 -21.545 -15.435 -10.995 -6.5549998 -1.5549999 1.166 3.9460001 8.9460001 11.726"
             y="12"
             sodipodi:role="line"
             id="tspan118">gram was just two, or three, or four lines long. Each was transparently obvious. Each told</tspan><tspan
             x="-343.34399 -338.90399 -336.646 -332.75601 -329.97601 -324.97601 -321.448 -317.298 -314.798 -313.08899 -305.86899 -300.86899 -295.86899 -293.61099 -289.17099 -284.73099 -280.29099 -275.29099 -273.03299 -270.25299 -265.81299 -260.81299 -258.55499 -253.75301 -248.75301 -243.75301 -241.495 -238.715 -233.715 -231.457 -228.677 -223.677 -219.237 -216.979 -211.979 -207.688 -202.688 -199.908 -197.64999 -194.87 -189.87 -187.612 -183.172 -180.914 -176.474 -171.474 -163.694 -158.694 -154.254 -151.474 -148.694 -145.914 -140.914 -135.914 -133.65601 -128.65601 -125.326 -120.326 -115.886 -113.105 -110.605"
             y="24"
             sodipodi:role="line"
             id="tspan120">a story. And each led you to the next in a compelling order. </tspan></text>
        <text
           xml:space="preserve"
           transform="matrix(1,0,0,-1,314.275,161.112)"
           style="font-style:italic;font-variant:normal;font-size:10px;font-family:'Times New Roman';-inkscape-font-specification:TimesNewRomanPS-Italic;writing-mode:lr-tb;fill:#231f20;fill-opacity:1;fill-rule:nonzero;stroke:none"
           id="text126"><tspan
             x="0 5.5599999 10.56 15.56 18.34 20.371"
             y="0"
             sodipodi:role="line"
             id="tspan124">That’s</tspan></text>
        <text
           xml:space="preserve"
           transform="matrix(1,0,0,-1,340.789,161.112)"
           style="font-variant:normal;font-weight:normal;font-size:10px;font-family:'Times New Roman';-inkscape-font-specification:TimesNewRomanPS;writing-mode:lr-tb;fill:#231f20;fill-opacity:1;fill-rule:nonzero;stroke:none"
           id="text132"><tspan
             x="0 5 9.6020002 16.822001 19.08 22.969999 27.969999 32.970001 36.498001 39.278 41.535999 46.338001 51.338001 56.338001 59.667999 61.925999 65.255997 70.255997 75.255997 79.695999 82.475998 85.255997 90.255997 95.255997"
             y="0"
             sodipodi:role="line"
             id="tspan128">how short your functions</tspan><tspan
             x="-260.87 -256.98001 -251.98 -246.98 -241.98 -239.2 -234.2 -231.7 -226.7 -222.25999"
             y="12"
             sodipodi:role="line"
             id="tspan130">should be!</tspan></text>
        <text
           xml:space="preserve"
           transform="matrix(1,0,0,-1,121.854,153.112)"
           style="font-variant:normal;font-weight:normal;font-size:5.5px;font-family:'Times New Roman';-inkscape-font-specification:TimesNewRomanPS;writing-mode:lr-tb;fill:#231f20;fill-opacity:1;fill-rule:nonzero;stroke:none"
           id="text136"><tspan
             x="0"
             y="0"
             id="tspan134">3</tspan></text>
        <path
           d="m 88.92,98.869 h 144 m -144,0 h 144"
           style="fill:none;stroke:#231f20;stroke-width:0.5;stroke-linecap:square;stroke-linejoin:miter;stroke-miterlimit:10;stroke-dasharray:none;stroke-opacity:1"
           id="path138" />
        <text
           xml:space="preserve"
           transform="matrix(1,0,0,-1,79.92,80.111)"
           style="font-variant:normal;font-weight:normal;font-size:7px;font-family:'Times New Roman';-inkscape-font-specification:TimesNewRomanPS;writing-mode:lr-tb;fill:#231f20;fill-opacity:1;fill-rule:nonzero;stroke:none"
           id="text146"><tspan
             x="0 3.5 12.0057 17.0597 20.5597 22.3097 25.8097 29.3097 32.417702 35.917702 38.248699 40.971699 44.471699 47.971699 50.3027 53.410702 56.5187 58.2687 61.7687 65.2687 67.214699 69.160698 71.491699 73.437698 76.5457 79.2687 81.214699 83.160698 86.660698 90.160698 91.910698 93.856697 97.356697 100.8567 102.8027 104.5527 106.8837 110.3837 112.7147 114.4647 117.1877 120.0514 123.3778 126.4858 128.23579 129.98579 135.03979 140.0938 144.5192 146.2692 148.21519 151.71519 155.21519 157.16119 159.10719 160.85719 164.35719 166.5636"
             y="0"
             sodipodi:role="line"
             id="tspan140">2.An open-source unit-testing tool for Java. www.junit.org</tspan><tspan
             x="0 3.5007 12.0064 14.3381 16.0881 19.1968 21.9205 25.3526 28.4613 31.962 33.712002 38.5924 41.701099 45.201801 47.148499 48.898499 53.814602 57.3153 60.424 62.370701 65.871399 68.980103 71.311798 73.061798 76.5625 79.671204 81.421204 84.144897 86.091599 88.0383 89.985001 91.931702 93.681702 97.182404 100.2911 103.7918 105.5418 108.6505 110.4005 113.5092 117.0099 120.302 123.207 124.957 126.707 130.2077 133.7084 135.65511 137.40511 140.90581 144.0145 145.7645 150.6449 153.7536 156.47729 158.22729 161.728 165.2287 168.3374 171.69949 173.64619 176.7549 178.5049 180.4516 183.9523 185.7023 189.595 193.0957 196.59641 198.34641 201.84711 205.34779 208.4565 210.2072 211.9572 214.28889 216.03889 218.7626 221.87131 224.98 227.31171 230.42039 233.9211 237.0298 240.5305 242.2805 245.38921 247.33591 249.28259 251.03259 256.20001 259.70001 261.45001 264.95071 266.8974 270.3981 272.1481 275.25681 278.75751 284.20419 287.7049 291.2056 293.15231 296.26099 298.59271 301.31641 303.06641 305.01309 308.51379 312.0145 313.7652 315.5152 319.0159 322.5166 324.46329 326.21329 328.16 331.66071 333.41071 336.91141 340.41211 342.16211 345.02579 348.3522 351.46091 353.40759 355.35431"
             y="8.0003004"
             sodipodi:role="line"
             id="tspan142">3.I asked Kent whether he still had a copy, but he was unable to ﬁnd one. I searched all my old computers too, but to no avail.</tspan><tspan
             x="12.0001 17.0541 19.000099 20.9461 22.6961 24.642099 28.142099 31.250099 33.196098 34.946098 36.892101 39.615101 41.365101 43.3111 46.419102 48.750099 50.696098 52.446098 55.946098 59.1675 64.221497 65.971497 67.917503 70.640503 72.390503 77.557899 81.057899 82.807899 88.253899 91.3619 96.807899 100.3079 102.7768 106.2768 108.0268 111.5268 113.8578 115.6078 117.5538 121.0538 124.1618 126.1078 127.8578 131.3578 133.6888 137.0152 140.65311 142.9841 146.0921 151.5381"
             y="16.001301"
             sodipodi:role="line"
             id="tspan144">All that is left now is my memory of that program.</tspan></text>
        <g
           id="g148">
          <g
             id="g150"
             clip-path="url(#clipPath154)">
            <path
               d="m -37.08,664.778 h 36 m -36,-666 h 36 m 522,0 h 36 m -36,666 h 36 m -549,45 v -36 m 504,36 v -36 m 0,-684 v -36 m -504,36 v -36"
               style="fill:none;stroke:#ffffff;stroke-width:0.75;stroke-linecap:butt;stroke-linejoin:miter;stroke-miterlimit:10;stroke-dasharray:none;stroke-opacity:1"
               id="path156" />
            <path
               d="m -37.08,664.778 h 36 m -36,-666 h 36 m 522,0 h 36 m -36,666 h 36 m -549,45 v -36 m 504,36 v -36 m 0,-684 v -36 m -504,36 v -36 m -12,378 c 0,3.312 -2.688,6 -6,6 -3.312,0 -6,-2.688 -6,-6 0,-3.312 2.688,-6 6,-6 3.312,0 6,2.688 6,6 z m -24,0 h 27 m -9,24 v -48 m 545.94,24 c 0,3.312 -2.688,6 -6,6 -3.312,0 -6,-2.688 -6,-6 0,-3.312 2.688,-6 6,-6 3.312,0 6,2.688 6,6 z m -14.94,0 h 27 m -18,24 v -48 m -534,345 c 0,3.312 -2.688,6 -6,6 -3.312,0 -6,-2.688 -6,-6 0,-3.312 2.688,-6 6,-6 3.312,0 6,2.688 6,6 z m -24,0 h 27 m -9,9 v -33 m 6,-618 c 0,3.312 -2.688,6 -6,6 -3.312,0 -6,-2.688 -6,-6 0,-3.312 2.688,-6 6,-6 3.312,0 6,2.688 6,6 z m -24,0 h 27 m -9,24 v -33 m 545.94,651 c 0,3.312 -2.688,6 -6,6 -3.312,0 -6,-2.688 -6,-6 0,-3.312 2.688,-6 6,-6 3.312,0 6,2.688 6,6 z m -14.94,0 h 27 m -18,9 v -33 m 5.94,-618 c 0,3.312 -2.688,6 -6,6 -3.312,0 -6,-2.688 -6,-6 0,-3.312 2.688,-6 6,-6 3.312,0 6,2.688 6,6 z m -14.94,0 h 27 m -18,24 v -33"
               style="fill:none;stroke:#000000;stroke-width:0.25;stroke-linecap:butt;stroke-linejoin:miter;stroke-miterlimit:10;stroke-dasharray:none;stroke-opacity:1"
               id="path158" />
          </g>
        </g>
      </g>
    </g>
    <g
       id="g160">
      <g
         id="g162"
         transform="translate(218,6.56)">
        <text
           xml:space="preserve"
           transform="scale(1,-1)"
           style="font-variant:normal;font-weight:normal;font-size:10px;font-family:Helvetica;-inkscape-font-specification:Helvetica;writing-mode:lr-tb;fill:#0000ff;fill-opacity:1;fill-rule:nonzero;stroke:none"
           id="text166"><tspan
             x="0 7.2199998 14.44 21.66 24.440001 26.66 29.440001 32.77 38.330002 43.889999 49.450001 55.009998 60.009998 65.010002 67.790001 70.010002 75.57 78.349998"
             y="0"
             sodipodi:role="line"
             id="tspan164">www.it-ebooks.info</tspan></text>
        <g
           id="g168"
           transform="translate(-218,-6.56)" />
      </g>
    </g>
  </g>
</svg>
