<?xml version="1.0" encoding="UTF-8" standalone="no"?>
<!-- Created with Inkscape (http://www.inkscape.org/) -->

<svg
   version="1.1"
   id="svg2"
   width="690.14398"
   height="888.47998"
   viewBox="0 0 690.14398 888.47998"
   sodipodi:docname="4PmrqTPDrJV6cyWn.pdf"
   xmlns:inkscape="http://www.inkscape.org/namespaces/inkscape"
   xmlns:sodipodi="http://sodipodi.sourceforge.net/DTD/sodipodi-0.dtd"
   xmlns="http://www.w3.org/2000/svg"
   xmlns:svg="http://www.w3.org/2000/svg">
  <defs
     id="defs6">
    <clipPath
       clipPathUnits="userSpaceOnUse"
       id="clipPath230">
      <path
         d="M 0,665.858 H 519.84 V 0 H 0 Z"
         id="path228" />
    </clipPath>
  </defs>
  <sodipodi:namedview
     id="namedview4"
     pagecolor="#ffffff"
     bordercolor="#000000"
     borderopacity="0.25"
     inkscape:showpageshadow="2"
     inkscape:pageopacity="0.0"
     inkscape:pagecheckerboard="0"
     inkscape:deskcolor="#d1d1d1" />
  <g
     id="g8"
     inkscape:groupmode="layer"
     inkscape:label="4PmrqTPDrJV6cyWn"
     transform="matrix(1.3333333,0,0,-1.3333333,-1.46,887.61333)">
    <g
       id="g10">
      <g
         id="g12">
        <text
           xml:space="preserve"
           transform="matrix(1,0,0,-1,79.92,622.111)"
           style="font-variant:normal;font-weight:normal;font-size:10px;font-family:'Times New Roman';-inkscape-font-specification:TimesNewRomanPS;writing-mode:lr-tb;fill:#231f20;fill-opacity:1;fill-rule:nonzero;stroke:none"
           id="text16"><tspan
             x="0 5"
             y="0"
             sodipodi:role="line"
             id="tspan14">38</tspan></text>
        <text
           xml:space="preserve"
           transform="matrix(1,0,0,-1,348.831,622.111)"
           style="font-variant:normal;font-weight:bold;font-size:10px;font-family:'Times New Roman';-inkscape-font-specification:TimesNewRomanPS-Bold;writing-mode:lr-tb;fill:#231f20;fill-opacity:1;fill-rule:nonzero;stroke:none"
           id="text20"><tspan
             x="0 7.2199998 12.78 17.780001 23.34 26.67 31.110001 35.549999 38.199001 43.199001 46.230999 48.880001 54.990002 60.549999 66.110001 70.550003 73.879997 76.660004 81.660004 87.220001"
             y="0"
             sodipodi:role="line"
             id="tspan18">Chapter 3: Functions</tspan></text>
        <text
           xml:space="preserve"
           transform="matrix(1,0,0,-1,97.92,586.111)"
           style="font-variant:normal;font-weight:normal;font-size:10px;font-family:'Times New Roman';-inkscape-font-specification:TimesNewRomanPS;writing-mode:lr-tb;fill:#231f20;fill-opacity:1;fill-rule:nonzero;stroke:none"
           id="text32"><tspan
             x="0 6.6700001 11.67 16.67 20.559999 23.34 28.34 32.779999 36.110001 39.719002 45.828999 48.609001 52.499001 55.278999 58.058998 63.058998 68.058998 71.667999 76.667999 79.998001 84.998001 87.498001 91.107002 94.436996 97.217003 100.826 104.716 109.716 114.318 121.538 125.428 129.037 131.817 136.817 140.707 143.487 147.09599 152.09599 157.09599 161.536 165.145 170.145 173.47501 177.084 179.864 184.864 189.304 192.91299 197.91299 202.91299 207.353 210.683 215.123 217.903 220.683 225.683 230.683 234.573 238.18201 240.96201 245.96201 250.40199 253.18201 256.79099 264.57101 267.35101 272.35101 277.35101 280.13101 283.73999 288.73999 293.17999 298.17999 302.62 307.62 312.62 316.229 321.229 326.229 329.83801 332.61801 337.61801"
             y="0"
             sodipodi:role="line"
             id="tspan22">Consider Listing 3-4. It shows just one of the operations that might depend on the</tspan><tspan
             x="-18 -15.22 -10.22 -5.2199998 -0.77999997 1.72 6.7199998 10.05 12.55 16.99 24.77 29.77 32.549999 37.101002 41.903 46.342999 50.783001 53.283001"
             y="12"
             sodipodi:role="line"
             id="tspan24">type of employee. </tspan><tspan
             x="0 6.1100001 11.11 15.55 18.879999 23.32 28.893999 33.334 36.664001 41.104 46.678001 50.568001 54.758999 59.610001 64.050003 67.379997 71.82 74.599998 80.174004 85.174004 88.503998 93.503998 98.306 101.086 105.526 113.306 117.196 122.77 129.99001 132.77 135.55 140.55 146.12399 148.90401 153.90401 156.68401 160.57401 166.14799 169.478 174.478 179.478 183.918 186.698 189.478 194.478 199.478 201.978 207.552 212.914 215.694 219.024 222.914 225.694 228.194 233.76801 236.548 239.328 241.259 245.149 250.72301 253.50301 257.94299 261.095 266.095 270.535 273.035 278.60901 283.04901 288.04901 293.04901 298.62299 305.64499 310.64499 315.08499 320.08499 325.659 330.659 334.85001"
             y="192"
             sodipodi:role="line"
             id="tspan26">There are several problems with this function. First, it’s large, and when new</tspan><tspan
             x="-18 -13.56 -5.7800002 -0.77999997 2 6.5510001 11.353 15.793 20.233 23.191999 25.972 30.972 35.972 40.411999 44.301998 47.261002 51.701 55.030998 59.471001 62.43 66.870003 71.870003 76.870003 81.309998 85.711998 88.211998 91.170998 93.950996 96.731003 99.690002 106.91 109.69 112.47 115.25 118.209 123.407 126.737 131.339 137.661 140.161 143.12 148.67999 153.12 157.56 162.56 167.56 171.96201 174.46201 177.42101 180.201 182.981 185.94 190.791 195.231 198.759 203.759 206.718 211.158 213.938 218.37801 222.81799 226.14799 228.679 233.679 236.638 241.638 246.638 251.078 254.968 257.927 265.707 270.707 274.03699 278.47699 281.436 284.216 289.216 293.65601 298.65601 301.61499 306.61499 311.61499 316.05499 319.01401 321.79401 326.79401 329.57401 334.57401 339.57401"
             y="204"
             sodipodi:role="line"
             id="tspan28">employee types are added, it will grow. Second, it very clearly does more than one thing.</tspan><tspan
             x="-18 -11.89 -6.8899999 -4.1100001 -0.77999997 3.622 6.1220002 8.4209995 11.201 13.981 16.280001 21.280001 24.059999 29.059999 31.84 36.279999 39.060001 43.5 47.389999 49.688999 52.469002 57.469002 61.909 64.208 69.767998 72.547997 77.547997 82.547997 85.328003 89.767998 92.067001 98.737 103.177 107.067 112.067 117.067 122.067 125.957 128.737 133.737 136.517 139.297 142.077 144.85699 149.85699 152.15601 157.716 161.04601 163.826 168.826 173.26601 176.04601 181.04601 183.826"
             y="216"
             sodipodi:role="line"
             id="tspan30">Third, it violates the Single Responsibility Principle</tspan></text>
        <text
           xml:space="preserve"
           transform="matrix(1,0,0,-1,286.136,374.1111)"
           style="font-variant:normal;font-weight:normal;font-size:5.5px;font-family:'Times New Roman';-inkscape-font-specification:TimesNewRomanPS;writing-mode:lr-tb;fill:#231f20;fill-opacity:1;fill-rule:nonzero;stroke:none"
           id="text36"><tspan
             x="0"
             y="0"
             id="tspan34">7</tspan></text>
        <text
           xml:space="preserve"
           transform="matrix(1,0,0,-1,291.189,370.1111)"
           style="font-variant:normal;font-weight:normal;font-size:10px;font-family:'Times New Roman';-inkscape-font-specification:TimesNewRomanPS;writing-mode:lr-tb;fill:#231f20;fill-opacity:1;fill-rule:nonzero;stroke:none"
           id="text42"><tspan
             x="0 3.3299999 8.8900003 15.56 21.120001 24.450001 26.749001 31.749001 36.188999 40.629002 45.069 50.069 53.959 58.398998 60.698002 63.478001 68.477997 72.917999 76.248001 80.688004 82.987 85.766998 89.656998 91.956001 99.736 104.736 108.066 112.506 114.805 117.585 122.585 127.025 132.02499 134.32401 139.32401 144.32401"
             y="0"
             sodipodi:role="line"
             id="tspan38">(SRP) because there is more than one</tspan><tspan
             x="-211.269 -207.939 -203.49899 -199.05901 -195.16901 -190.16901 -185.16901 -181.685 -178.355 -173.355 -170.02499 -166.541 -163.761 -160.981 -157.49699 -154.717 -149.717 -146.233 -141.793 -136.793 -132.353 -127.353 -122.353 -117.913 -115.413 -111.929 -106.867 -101.867 -96.866997 -93.338997 -90.558998 -85.558998 -83.058998 -79.574997 -76.794998 -74.014999 -70.530998 -65.530998 -62.750999 -57.750999 -54.971001 -50.530998 -47.750999 -43.311001 -39.421001 -35.937 -33.157001 -28.157 -23.716999 -20.233 -13.013 -8.0129995 -3.573 1.427 4.9109998 11.581 14.361 19.361 23.250999 27.691 32.691002 36.174999 41.735001 45.064999 47.845001 52.845001 57.285 60.064999 65.065002 67.845001"
             y="12"
             sodipodi:role="line"
             id="tspan40">reason for it to change. Fourth, it violates the Open Closed Principle</tspan></text>
        <text
           xml:space="preserve"
           transform="matrix(1,0,0,-1,363.411,362.1111)"
           style="font-variant:normal;font-weight:normal;font-size:5.5px;font-family:'Times New Roman';-inkscape-font-specification:TimesNewRomanPS;writing-mode:lr-tb;fill:#231f20;fill-opacity:1;fill-rule:nonzero;stroke:none"
           id="text46"><tspan
             x="0"
             y="0"
             id="tspan44">8</tspan></text>
        <text
           xml:space="preserve"
           transform="matrix(1,0,0,-1,369.649,358.1111)"
           style="font-variant:normal;font-weight:normal;font-size:10px;font-family:'Times New Roman';-inkscape-font-specification:TimesNewRomanPS;writing-mode:lr-tb;fill:#231f20;fill-opacity:1;fill-rule:nonzero;stroke:none"
           id="text56"><tspan
             x="0 3.3299999 10.55 17.219999 22.780001 26.110001 29.594 34.594002 39.034 43.473999 47.914001 52.914001 56.804001 61.243999 64.727997 67.508003"
             y="0"
             sodipodi:role="line"
             id="tspan48">(OCP) because it</tspan><tspan
             x="-289.729 -281.94901 -276.94901 -273.05899 -270.27899 -266.34399 -261.90399 -256.90399 -252.464 -247.464 -242.464 -238.024 -234.089 -227.067 -222.067 -217.627 -212.627 -208.436 -203.58501 -199.145 -195.815 -191.88 -186.88 -182.689 -175.46899 -171.534 -168.754 -163.754 -158.754 -154.314 -150.424 -146.489 -142.049 -138.71899 -134.27901 -130.34399 -125.904 -120.904 -115.904 -111.464 -106.464 -103.964 -100.029 -93.359001 -88.359001 -85.579002 -81.643997 -76.643997 -71.643997 -67.753998 -63.863998 -61.084 -56.282001 -53.750999 -48.750999 -44.816002 -42.035999 -37.035999 -32.596001 -28.660999 -21.839001 -16.839001 -13.509 -9.6190004 -6.8390002 -2.904 2.096 5.4260001 10.426 15.228 18.007999 22.448 30.228001 34.162998 41.382999 44.162998 46.943001 51.943001 55.877998 58.658001 63.658001 66.438004"
             y="12"
             sodipodi:role="line"
             id="tspan50">must change whenever new types are added. But possibly the worst problem with this</tspan><tspan
             x="-289.729 -286.39899 -281.39899 -276.39899 -271.95901 -269.17899 -266.39899 -261.39899 -256.39899 -253.283 -250.50301 -246.61301 -243.49699 -240.717 -235.717 -231.27699 -228.49699 -225.381 -222.601 -217.601 -213.161 -209.83099 -205.39101 -202.27499 -197.83501 -194.505 -190.065 -186.94901 -182.509 -177.509 -174.39301 -169.39301 -164.39301 -161.61301 -158.83299 -151.05299 -148.27299 -145.493 -141.05299 -136.05299 -132.937 -127.937 -122.937 -115.157 -110.157 -105.717 -102.387 -99.271004 -94.271004 -90.941002 -87.824997 -82.824997 -80.044998 -75.044998 -70.605003 -67.275002 -64.158997 -60.828999 -55.828999 -50.828999 -46.389 -43.609001 -40.828999 -35.828999 -30.829 -26.938999 -23.823 -21.042999 -16.042999 -11.603 -8.823 -5.7069998 1.513 4.2930002 7.073 9.8529997 12.969 17.969 22.059999 26.910999 31.351 34.466999 37.247002 42.247002 46.687 49.803001 53.693001 58.132999 65.913002"
             y="24"
             sodipodi:role="line"
             id="tspan52">function is that there are an unlimited number of other functions that will have the same</tspan><tspan
             x="-289.729 -285.83899 -283.05899 -279.53101 -274.53101 -270.091 -267.311 -262.311 -258.98099 -254.541 -252.041 -249.541 -244.479 -239.479 -236.149 -233.649 -229.358 -224.358 -219.918 -212.138 -207.138 -204.358 -199.918 -197.418 -190.547 -186.10699 -183.60699 -179.16701 -174.16701 -169.16701 -166.38699 -161.38699 -158.88699 -153.88699 -149.79601 -144.94501"
             y="36"
             sodipodi:role="line"
             id="tspan54">structure. For example we could have</tspan></text>
        <text
           xml:space="preserve"
           transform="matrix(0.80015552,0,0,-1,97.92,304.778)"
           style="font-variant:normal;font-weight:normal;font-size:9.002px;font-family:'Courier New';-inkscape-font-specification:Courier;writing-mode:lr-tb;fill:#231f20;fill-opacity:1;fill-rule:nonzero;stroke:none"
           id="text60"><tspan
             x="0 5.4011998 10.8024 16.2036 21.604799 27.006001 32.4072 37.808399 43.209599 48.610802 54.012001 59.4132 64.8144 70.215599 75.616798 81.017998 86.419197 91.820396 96.983948 102.38515 107.78635 113.14794 118.54914 123.95034 129.35153 134.75273 140.08913 145.49033 150.89153 156.29272 161.69392 167.09512 172.49632"
             y="0"
             sodipodi:role="line"
             id="tspan58">isPayday(Employee e, Date date), </tspan></text>
        <text
           xml:space="preserve"
           transform="matrix(1,0,0,-1,79.92,289.1121)"
           style="font-variant:normal;font-weight:normal;font-size:10px;font-family:'Times New Roman';-inkscape-font-specification:TimesNewRomanPS;writing-mode:lr-tb;fill:#231f20;fill-opacity:1;fill-rule:nonzero;stroke:none"
           id="text64"><tspan
             x="0 5"
             y="0"
             sodipodi:role="line"
             id="tspan62">or</tspan></text>
        <text
           xml:space="preserve"
           transform="matrix(0.80015552,0,0,-1,97.92,271.778)"
           style="font-variant:normal;font-weight:normal;font-size:9.002px;font-family:'Courier New';-inkscape-font-specification:Courier;writing-mode:lr-tb;fill:#231f20;fill-opacity:1;fill-rule:nonzero;stroke:none"
           id="text68"><tspan
             x="0 5.4011998 10.8024 16.2036 21.604799 27.006001 32.4072 37.808399 43.209599 48.610802 54.012001 59.4132 64.8144 70.215599 75.616798 81.017998 86.419197 91.820396 97.221603 102.6228 107.76024 113.16144 118.56264 123.92423 129.32544 134.72664 140.12784 145.52904 150.93024 156.25311 161.65431 167.05551 172.45671 177.85791 183.25911"
             y="0"
             sodipodi:role="line"
             id="tspan66">deliverPay(Employee e, Money pay), </tspan></text>
        <text
           xml:space="preserve"
           transform="matrix(1,0,0,-1,79.92,256.1121)"
           style="font-variant:normal;font-weight:normal;font-size:10px;font-family:'Times New Roman';-inkscape-font-specification:TimesNewRomanPS;writing-mode:lr-tb;fill:#231f20;fill-opacity:1;fill-rule:nonzero;stroke:none"
           id="text74"><tspan
             x="0 5 8.3299999 10.83 15.27 17.77 22.77 27.77 31.66 34.439999 36.939999 41.939999 45.27 47.77 52.77 55.549999 60.549999 64.989998 68.32 72.209999 74.709999 76.661003 83.880997 86.661003 89.441002 91.941002 96.941002 100.271 102.771 109.793 114.793 117.573 122.013 127.013 129.513 136.33501 141.33501 146.33501 149.11501 154.11501 156.61501 161.61501 165.70599 170.55701 174.99699 177.49699 180.27699 185.27699 189.717 192.217 196.10699 200.547 208.327 212.767 215.267 220.267 224.707 227.487 231.927 234.707 239.147 242.47701 245.257 250.257 255.257 259.147 261.647 265.53699 268.31699 271.845 276.845 281.285 284.065 289.065 292.39499 296.83499"
             y="0"
             sodipodi:role="line"
             id="tspan70">or a host of others. All of which would have the same deleterious structure.</tspan><tspan
             x="18 24.111 29.112 33.553001 36.778 40.668999 45.669998 48.451 53.452 56.233002 59.014 64.014999 69.015999 72.240997 75.022003 80.023003 83.248001 86.028999 91.029999 93.810997 97.702003 100.927 105.928 109.259 114.26 119.062 121.843 126.284 134.065 137.28999 140.621 144.51199 148.953 153.394 156.619 162.73 165.511 169.40199 172.183 174.964 179.965 184.966 188.19099 193.192 196.52299 201.524 204.855 208.08 210.86099 214.752 217.97701 220.758 225.759 228.98399 233.985 238.98599 242.51401 247.515 250.74001 253.521 258.522 262.96301"
             y="15"
             sodipodi:role="line"
             id="tspan72">The solution to this problem (see Listing 3-5) is to bury the </tspan></text>
        <text
           xml:space="preserve"
           transform="matrix(0.80015552,0,0,-1,346.062,241.112)"
           style="font-variant:normal;font-weight:normal;font-size:9.002px;font-family:'Courier New';-inkscape-font-specification:Courier;writing-mode:lr-tb;fill:#231f20;fill-opacity:1;fill-rule:nonzero;stroke:none"
           id="text78"><tspan
             x="0 5.4011998 10.8024 16.2036 21.604799 27.006001"
             y="0"
             sodipodi:role="line"
             id="tspan76">switch</tspan></text>
        <text
           xml:space="preserve"
           transform="matrix(1,0,0,-1,375.156,241.112)"
           style="font-variant:normal;font-weight:normal;font-size:10px;font-family:'Times New Roman';-inkscape-font-specification:TimesNewRomanPS;writing-mode:lr-tb;fill:#231f20;fill-opacity:1;fill-rule:nonzero;stroke:none"
           id="text84"><tspan
             x="0 3.8900001 6.6700001 11.11 13.89 18.33 26.110001 30.549999 35.549999 38.330002 41.555 44.334999 49.334999 52.560001 55.34 60.34"
             y="0"
             sodipodi:role="line"
             id="tspan80">statement in the</tspan><tspan
             x="-295.23599 -290.23599 -285.79599 -281.90601 -277.466 -269.686 -265.246 -260.246 -257.466 -254.983 -249.983 -246.653 -244.17 -239.73 -234.73 -232.24699"
             y="12"
             sodipodi:role="line"
             id="tspan82">basement of an A</tspan></text>
        <text
           xml:space="preserve"
           transform="matrix(1,0,0,-1,150.114,229.112)"
           style="font-variant:normal;font-weight:normal;font-size:8px;font-family:'Times New Roman';-inkscape-font-specification:TimesNewRomanPS;writing-mode:lr-tb;fill:#231f20;fill-opacity:1;fill-rule:nonzero;stroke:none"
           id="text88"><tspan
             x="0 5.336 9.7840004 14.672 20.007999 25.784 31.120001"
             y="0"
             sodipodi:role="line"
             id="tspan86">BSTRACT</tspan></text>
        <text
           xml:space="preserve"
           transform="matrix(1,0,0,-1,188.636,229.112)"
           style="font-variant:normal;font-weight:normal;font-size:10px;font-family:'Times New Roman';-inkscape-font-specification:TimesNewRomanPS;writing-mode:lr-tb;fill:#231f20;fill-opacity:1;fill-rule:nonzero;stroke:none"
           id="text92"><tspan
             x="0"
             y="0"
             id="tspan90">F</tspan></text>
        <text
           xml:space="preserve"
           transform="matrix(1,0,0,-1,194.195,229.112)"
           style="font-variant:normal;font-weight:normal;font-size:8px;font-family:'Times New Roman';-inkscape-font-specification:TimesNewRomanPS;writing-mode:lr-tb;fill:#231f20;fill-opacity:1;fill-rule:nonzero;stroke:none"
           id="text96"><tspan
             x="0 5.776 11.112 16 21.775999 27.112"
             y="0"
             sodipodi:role="line"
             id="tspan94">ACTORY</tspan></text>
        <text
           xml:space="preserve"
           transform="matrix(1,0,0,-1,227.112,229.112)"
           style="font-variant:normal;font-weight:normal;font-size:10px;font-family:'Times New Roman';-inkscape-font-specification:TimesNewRomanPS;writing-mode:lr-tb;fill:#231f20;fill-opacity:1;fill-rule:nonzero;stroke:none"
           id="text100"><tspan
             x="0"
             y="0"
             id="tspan98">,</tspan></text>
        <text
           xml:space="preserve"
           transform="matrix(1,0,0,-1,229.612,233.111)"
           style="font-variant:normal;font-weight:normal;font-size:5.5px;font-family:'Times New Roman';-inkscape-font-specification:TimesNewRomanPS;writing-mode:lr-tb;fill:#231f20;fill-opacity:1;fill-rule:nonzero;stroke:none"
           id="text104"><tspan
             x="0"
             y="0"
             id="tspan102">9</tspan></text>
        <text
           xml:space="preserve"
           transform="matrix(1,0,0,-1,234.849,229.112)"
           style="font-variant:normal;font-weight:normal;font-size:10px;font-family:'Times New Roman';-inkscape-font-specification:TimesNewRomanPS;writing-mode:lr-tb;fill:#231f20;fill-opacity:1;fill-rule:nonzero;stroke:none"
           id="text108"><tspan
             x="0 4.4400001 9.4399996 14.44 16.923 21.923 26.114 30.965 35.404999 38.735001 41.217999 43.998001 48.438 51.217999 53.701 58.140999 62.891998 67.694 72.694 77.694 82.134003 84.616997 88.507004 92.946999 97.387001 99.870003 102.65 105.43 107.93 109.915 116.025 121.025 125.465 127.948 131.37601 135.81599 140.256 143.036 148.036 151.564 156.564 159.047 166.267 169.047 171.827 174.60699 177.09 182.09 185.98 190.42 192.903 195.683 200.683"
             y="0"
             sodipodi:role="line"
             id="tspan106">and never let anyone see it. The factory will use the</tspan></text>
        <text
           xml:space="preserve"
           transform="matrix(0.80015552,0,0,-1,79.92,217.112)"
           style="font-variant:normal;font-weight:normal;font-size:9.002px;font-family:'Courier New';-inkscape-font-specification:Courier;writing-mode:lr-tb;fill:#231f20;fill-opacity:1;fill-rule:nonzero;stroke:none"
           id="text112"><tspan
             x="0 5.4011998 10.8024 16.2036 21.604799 27.006001"
             y="0"
             sodipodi:role="line"
             id="tspan110">switch</tspan></text>
        <text
           xml:space="preserve"
           transform="matrix(1,0,0,-1,108.163,217.112)"
           style="font-variant:normal;font-weight:normal;font-size:10px;font-family:'Times New Roman';-inkscape-font-specification:TimesNewRomanPS;writing-mode:lr-tb;fill:#231f20;fill-opacity:1;fill-rule:nonzero;stroke:none"
           id="text116"><tspan
             x="0 3.8900001 6.6700001 11.11 13.89 18.33 26.110001 30.549999 35.549999 38.330002 40.703999 43.484001 48.484001 50.858002 55.298 58.627998 63.068001 67.508003 70.288002 74.727997 77.101997 81.542 86.542 91.542 94.872002 99.872002 104.872 108.202 110.982 115.422 118.202 122.642 125.016 127.796 132.79601 136.686 139.466 143.90601 148.90601 153.34599 157.786 161.67599 164.05 169.05 172.38 174.754 177.534 182.534 186.974 189.34801 194.34801 198.78799 202.118 204.649 209.39999 213.84 216.62 219.151 224.002 228.442 232.332 234.70599 239.70599 243.036"
             y="0"
             sodipodi:role="line"
             id="tspan114">statement to create appropriate instances of the derivatives of </tspan></text>
        <text
           xml:space="preserve"
           transform="matrix(0.80015552,0,0,-1,353.504,217.112)"
           style="font-variant:normal;font-weight:normal;font-size:9.002px;font-family:'Courier New';-inkscape-font-specification:Courier;writing-mode:lr-tb;fill:#231f20;fill-opacity:1;fill-rule:nonzero;stroke:none"
           id="text120"><tspan
             x="0 5.4011998 10.8024 16.2036 21.604799 27.006001 32.4072 37.808399"
             y="0"
             sodipodi:role="line"
             id="tspan118">Employee</tspan></text>
        <text
           xml:space="preserve"
           transform="matrix(1,0,0,-1,387.996,217.112)"
           style="font-variant:normal;font-weight:normal;font-size:10px;font-family:'Times New Roman';-inkscape-font-specification:TimesNewRomanPS;writing-mode:lr-tb;fill:#231f20;fill-opacity:1;fill-rule:nonzero;stroke:none"
           id="text126"><tspan
             x="0 2.5 4.8740001 9.3140001 14.314 19.313999 21.688 24.468 29.468 33.908001 36.282001 41.033001 45.473 48.605"
             y="0"
             sodipodi:role="line"
             id="tspan122">, and the var-</tspan><tspan
             x="-308.07599 -305.29599 -300.29599 -295.29599 -291.40601 -288.03601 -284.70599 -279.70599 -274.70599 -270.26599 -267.48599 -264.70599 -259.70599 -254.70599 -250.81599 -248.31599 -244.946 -241.056 -236.056 -231.616 -226.616 -223.246 -218.806 -214.916"
             y="12"
             sodipodi:role="line"
             id="tspan124">ious functions, such as </tspan></text>
        <text
           xml:space="preserve"
           transform="matrix(0.80015552,0,0,-1,176.436,205.112)"
           style="font-variant:normal;font-weight:normal;font-size:9.002px;font-family:'Courier New';-inkscape-font-specification:Courier;writing-mode:lr-tb;fill:#231f20;fill-opacity:1;fill-rule:nonzero;stroke:none"
           id="text130"><tspan
             x="0 5.4011998 10.8024 16.2036 21.604799 27.006001 32.4072 37.808399 43.209599 48.610802 54.012001 59.4132"
             y="0"
             sodipodi:role="line"
             id="tspan128">calculatePay</tspan></text>
        <text
           xml:space="preserve"
           transform="matrix(1,0,0,-1,228.173,205.112)"
           style="font-variant:normal;font-weight:normal;font-size:10px;font-family:'Times New Roman';-inkscape-font-specification:TimesNewRomanPS;writing-mode:lr-tb;fill:#231f20;fill-opacity:1;fill-rule:nonzero;stroke:none"
           id="text134"><tspan
             x="0"
             y="0"
             id="tspan132">,</tspan></text>
        <text
           xml:space="preserve"
           transform="matrix(0.80015552,0,0,-1,234.043,205.112)"
           style="font-variant:normal;font-weight:normal;font-size:9.002px;font-family:'Courier New';-inkscape-font-specification:Courier;writing-mode:lr-tb;fill:#231f20;fill-opacity:1;fill-rule:nonzero;stroke:none"
           id="text138"><tspan
             x="0 5.4011998 10.8024 16.2036 21.604799 27.006001 32.4072 37.808399"
             y="0"
             sodipodi:role="line"
             id="tspan136">isPayday</tspan></text>
        <text
           xml:space="preserve"
           transform="matrix(1,0,0,-1,268.535,205.112)"
           style="font-variant:normal;font-weight:normal;font-size:10px;font-family:'Times New Roman';-inkscape-font-specification:TimesNewRomanPS;writing-mode:lr-tb;fill:#231f20;fill-opacity:1;fill-rule:nonzero;stroke:none"
           id="text142"><tspan
             x="0 2.5 5.8699999 10.31 15.31 20.309999"
             y="0"
             sodipodi:role="line"
             id="tspan140">, and </tspan></text>
        <text
           xml:space="preserve"
           transform="matrix(0.80015552,0,0,-1,292.214,205.112)"
           style="font-variant:normal;font-weight:normal;font-size:9.002px;font-family:'Courier New';-inkscape-font-specification:Courier;writing-mode:lr-tb;fill:#231f20;fill-opacity:1;fill-rule:nonzero;stroke:none"
           id="text146"><tspan
             x="0 5.4011998 10.8024 16.2036 21.604799 27.006001 32.4072 37.808399 43.209599 48.610802"
             y="0"
             sodipodi:role="line"
             id="tspan144">deliverPay</tspan></text>
        <text
           xml:space="preserve"
           transform="matrix(1,0,0,-1,335.328,205.112)"
           style="font-variant:normal;font-weight:normal;font-size:10px;font-family:'Times New Roman';-inkscape-font-specification:TimesNewRomanPS;writing-mode:lr-tb;fill:#231f20;fill-opacity:1;fill-rule:nonzero;stroke:none"
           id="text152"><tspan
             x="0 2.5 5.8699999 13.09 15.87 18.65 21.43 24.799999 29.799999 34.240002 37.610001 42.610001 45.389999 49.279999 54.279999 58.720001 61.5 65.940002 70.940002 75.379997 80.379997 83.75 88.75 93.75 96.280998 101.281"
             y="0"
             sodipodi:role="line"
             id="tspan148">, will be dispatched poly-</tspan><tspan
             x="-255.408 -247.62801 -242.62801 -239 -234 -229 -226.22 -221.78 -217.34 -214.56 -212.02901 -207.02901 -204.52901 -201.74899 -196.74899 -193.41901 -188.41901 -183.41901 -178.41901 -173.41901 -170.91901 -168.13901 -163.13901 -158.69901"
             y="12"
             sodipodi:role="line"
             id="tspan150">morphically through the </tspan></text>
        <text
           xml:space="preserve"
           transform="matrix(0.80015552,0,0,-1,179.109,193.112)"
           style="font-variant:normal;font-weight:normal;font-size:9.002px;font-family:'Courier New';-inkscape-font-specification:Courier;writing-mode:lr-tb;fill:#231f20;fill-opacity:1;fill-rule:nonzero;stroke:none"
           id="text156"><tspan
             x="0 5.4011998 10.8024 16.2036 21.604799 27.006001 32.4072 37.808399"
             y="0"
             sodipodi:role="line"
             id="tspan154">Employee</tspan></text>
        <text
           xml:space="preserve"
           transform="matrix(1,0,0,-1,216.101,193.112)"
           style="font-variant:normal;font-weight:normal;font-size:10px;font-family:'Times New Roman';-inkscape-font-specification:TimesNewRomanPS;writing-mode:lr-tb;fill:#231f20;fill-opacity:1;fill-rule:nonzero;stroke:none"
           id="text162"><tspan
             x="0 2.78 7.7800002 10.56 15 18.33 21.757999 26.198 30.638 35.077999"
             y="0"
             sodipodi:role="line"
             id="tspan158">interface.</tspan><tspan
             x="-118.181 -109.291 -104.291 -100.264 -95.264 -90.823997 -85.823997 -81.384003 -78.054001 -73.613998 -70.834 -66.806999 -63.278999 -58.278999 -55.499001 -51.058998 -47.032001 -43.702 -38.702 -35.372002"
             y="15"
             sodipodi:role="line"
             id="tspan160">My general rule for </tspan></text>
        <text
           xml:space="preserve"
           transform="matrix(0.80015552,0,0,-1,184.735,178.112)"
           style="font-variant:normal;font-weight:normal;font-size:9.002px;font-family:'Courier New';-inkscape-font-specification:Courier;writing-mode:lr-tb;fill:#231f20;fill-opacity:1;fill-rule:nonzero;stroke:none"
           id="text166"><tspan
             x="0 5.4011998 10.8024 16.2036 21.604799 27.006001"
             y="0"
             sodipodi:role="line"
             id="tspan164">switch</tspan></text>
        <text
           xml:space="preserve"
           transform="matrix(1,0,0,-1,214.631,178.112)"
           style="font-variant:normal;font-weight:normal;font-size:10px;font-family:'Times New Roman';-inkscape-font-specification:TimesNewRomanPS;writing-mode:lr-tb;fill:#231f20;fill-opacity:1;fill-rule:nonzero;stroke:none"
           id="text172"><tspan
             x="0 3.8900001 6.6700001 11.11 13.89 18.33 26.110001 30.549999 35.549999 38.330002 42.220001 46.247002 49.027 52.917 56.944 59.723999 64.723999 69.164001 71.944 75.971001 78.750999 83.750999 88.042 93.042 97.069 101.509 105.949 110.949 114.976 119.976 124.416 128.44299 131.22301 136.22301 139.00301 143.44299 146.77299 151.213 153.993 158.433 163.433 167.46001 170.24001 173.57001 177.597 180.377 185.377 189.668 194.668 198.69501 203.13499 208.13499 213.13499 217.575 222.015"
             y="0"
             sodipodi:role="line"
             id="tspan168">statements is that they can be tolerated if they appear</tspan><tspan
             x="-134.711 -129.711 -124.711 -122.181 -114.681 -109.581 -104.481 -99.941002 -95.401001 -92.801003 -90.091003 -85.551003 -82.121002 -77.581001 -74.871002 -69.771004 -65.780998 -61.241001 -56.140999 -53.431 -50.550999 -45.451 -42.741001 -38.201 -34.771 -30.231001 -25.691 -22.811001 -18.271 -15.561 -10.461 -5.3610001 -2.73 2.3699999 10.25 15.35 19.077999 24.177999 29.278 32.158001 36.698002 39.408001 44.507999 49.608002 52.487999 57.028 61.568001 64.447998 68.438004 71.038002 73.748001 78.288002 83.388 88.487999 91.197998 95.737999 99.167999 103.708 106.418 111.518 114.398 119.498 124.598 129.138 134.23801 136.948 142.048 146.588 151.688 154.56799 159.668 164.76801 167.478 172.01801 177.118 179.828 182.70799 187.808 192.908 197.448 200.87801 203.758 206.638 211.17799 216.278 220.81799"
             y="12"
             sodipodi:role="line"
             id="tspan170">onlyonce, are used to create polymorphic objects, and are hidden behind an inheritance</tspan></text>
        <text
           xml:space="preserve"
           transform="matrix(1,0,0,-1,97.92,551.111)"
           style="font-variant:normal;font-weight:bold;font-size:10px;font-family:'Times New Roman';-inkscape-font-specification:TimesNewRomanPS-Bold;writing-mode:lr-tb;fill:#231f20;fill-opacity:1;fill-rule:nonzero;stroke:none"
           id="text176"><tspan
             x="0 6.6700001 9.4499998 13.34 16.67 19.450001 25.01 30.01 32.509998 37.509998 40.84 45.84"
             y="0"
             sodipodi:role="line"
             id="tspan174">Listing 3-4 </tspan></text>
        <text
           xml:space="preserve"
           transform="matrix(1,0,0,-1,97.92,538.111)"
           style="font-variant:normal;font-weight:bold;font-size:10px;font-family:'Courier New';-inkscape-font-specification:Courier-Bold;writing-mode:lr-tb;fill:#231f20;fill-opacity:1;fill-rule:nonzero;stroke:none"
           id="text180"><tspan
             x="0 6 12 18 24 30 36 42 48 54 60 66"
             y="0"
             sodipodi:role="line"
             id="tspan178">Payroll.java</tspan></text>
        <text
           xml:space="preserve"
           transform="matrix(0.80015552,0,0,-1,97.92,525.7781)"
           style="font-variant:normal;font-weight:normal;font-size:9.002px;font-family:'Courier New';-inkscape-font-specification:Courier;writing-mode:lr-tb;fill:#231f20;fill-opacity:1;fill-rule:nonzero;stroke:none"
           id="text208"><tspan
             x="0 5.4011998 10.8024 16.2036 21.604799 27.006001 32.4072 37.808399 43.209599 48.610802 54.012001 59.4132 64.8144 70.215599 75.616798 81.017998 86.419197 91.820396 97.221603 102.6228 108.024 113.4252 118.8264 124.2276 129.6288 135.03 140.4312 145.8324 151.2336 156.6348 162.036 167.43719 172.83839 178.23959 183.64079 189.04201 194.44321 199.84441"
             y="0"
             sodipodi:role="line"
             id="tspan182">public Money calculatePay(Employee e) </tspan><tspan
             x="0 5.4011998 10.8024 16.2036 21.604799 27.006001 32.4072 37.808399 43.209599 48.610802 54.012001 59.4132 64.8144 70.215599 75.616798 81.017998 86.419197 91.820396 97.221603 102.6228 108.024 113.4252 118.8264 124.2276 129.6288 135.03 140.4312 145.8324"
             y="9.0001993"
             sodipodi:role="line"
             id="tspan184">throws InvalidEmployeeType {</tspan><tspan
             x="0 21.604799 27.006001 32.4072 37.808399 43.209599 48.610802 54.012001 59.4132 64.8144 70.215599 75.616798 81.017998 86.419197 91.820396 97.221603 102.6228 108.024"
             y="18.000399"
             sodipodi:role="line"
             id="tspan186"> switch (e.type) {</tspan><tspan
             x="0 32.4072 37.808399 43.209599 48.610802 54.012001 59.4132 64.8144 70.215599 75.616798 81.017998 86.419197 91.820396 97.221603 102.6228 108.024 113.4252 118.8264 124.2276"
             y="27.001499"
             sodipodi:role="line"
             id="tspan188"> case COMMISSIONED:</tspan><tspan
             x="0 43.209599 48.610802 54.012001 59.4132 64.8144 70.215599 75.616798 81.017998 86.419197 91.820396 97.221603 102.6228 108.024 113.4252 118.8264 124.2276 129.6288 135.03 140.4312 145.8324 151.2336 156.6348 162.036 167.43719 172.83839 178.23959 183.64079 189.04201 194.44321 199.84441 205.24561 210.6468 216.048 221.4492 226.8504"
             y="36.001698"
             sodipodi:role="line"
             id="tspan190"> return calculateCommissionedPay(e);</tspan><tspan
             x="0 32.4072 37.808399 43.209599 48.610802 54.012001 59.4132 64.8144 70.215599 75.616798 81.017998 86.419197 91.820396"
             y="45.0019"
             sodipodi:role="line"
             id="tspan192"> case HOURLY:</tspan><tspan
             x="0 43.209599 48.610802 54.012001 59.4132 64.8144 70.215599 75.616798 81.017998 86.419197 91.820396 97.221603 102.6228 108.024 113.4252 118.8264 124.2276 129.6288 135.03 140.4312 145.8324 151.2336 156.6348 162.036 167.43719 172.83839 178.23959 183.64079 189.04201 194.44321"
             y="54.002098"
             sodipodi:role="line"
             id="tspan194"> return calculateHourlyPay(e);</tspan><tspan
             x="0 32.4072 37.808399 43.209599 48.610802 54.012001 59.4132 64.8144 70.215599 75.616798 81.017998 86.419197 91.820396 97.221603 102.6228"
             y="63.002296"
             sodipodi:role="line"
             id="tspan196"> case SALARIED:</tspan><tspan
             x="0 43.209599 48.610802 54.012001 59.4132 64.8144 70.215599 75.616798 81.017998 86.419197 91.820396 97.221603 102.6228 108.024 113.4252 118.8264 124.2276 129.6288 135.03 140.4312 145.8324 151.2336 156.6348 162.036 167.43719 172.83839 178.23959 183.64079 189.04201 194.44321 199.84441 205.24561"
             y="72.002495"
             sodipodi:role="line"
             id="tspan198"> return calculateSalariedPay(e);</tspan><tspan
             x="0 32.4072 37.808399 43.209599 48.610802 54.012001 59.4132 64.8144 70.215599"
             y="81.003593"
             sodipodi:role="line"
             id="tspan200"> default:</tspan><tspan
             x="0 43.209599 48.610802 54.012001 59.4132 64.8144 70.215599 75.616798 81.017998 86.419197 91.820396 97.221603 102.6228 108.024 113.4252 118.8264 124.2276 129.6288 135.03 140.4312 145.8324 151.2336 156.6348 162.036 167.43719 172.83839 178.23959 183.64079 189.04201 194.44321 199.84441 205.24561 210.6468 216.048 221.4492 226.8504 232.2516 237.6528 243.054"
             y="90.003799"
             sodipodi:role="line"
             id="tspan202"> throw new InvalidEmployeeType(e.type);</tspan><tspan
             x="0 21.604799"
             y="99.003998"
             sodipodi:role="line"
             id="tspan204"> }</tspan><tspan
             x="0 10.8024"
             y="108.0042"
             sodipodi:role="line"
             id="tspan206"> }</tspan></text>
        <path
           d="m 88.92,131.488 h 144 m -144,0 h 144"
           style="fill:none;stroke:#231f20;stroke-width:0.5;stroke-linecap:square;stroke-linejoin:miter;stroke-miterlimit:10;stroke-dasharray:none;stroke-opacity:1"
           id="path210" />
        <text
           xml:space="preserve"
           transform="matrix(1,0,0,-1,79.92,112.73)"
           style="font-variant:normal;font-weight:normal;font-size:7px;font-family:'Times New Roman';-inkscape-font-specification:TimesNewRomanPS;writing-mode:lr-tb;fill:#231f20;fill-opacity:1;fill-rule:nonzero;stroke:none"
           id="text222"><tspan
             x="0 3.5 12.0057 15.1137 16.863701 18.613701 22.113701 24.0597 26.005699 29.505699 31.4517 33.397701 35.3437 38.451698 41.951698 43.701698 48.755699 50.701698 54.201698 56.147701 59.647701 62.755699 66.255699 68.201698 71.3097 73.0597 76.5597 78.766098 82.266098 84.212097 89.266098 91.212097 94.712097 96.658096 98.604103 102.4961 104.4421 107.9421 111.4421 113.3881 116.4961 119.9961 122.3271 125.4351 128.1581 131.6581 135.1581 138.6581 141.3811 143.3271 146.8271 148.7731 150.7191 152.6651 154.6111 158.1111 161.6111 165.1111 167.44209 169.38811 172.88811 175.99609 177.94209 181.44209 183.38811 186.49609"
             y="0"
             sodipodi:role="line"
             id="tspan212">7.a. http://en.wikipedia.org/wiki/Single_responsibility_principle </tspan><tspan
             x="12.0001 15.2208 16.9722 18.7222 22.2222 24.1682 26.114201 29.614201 31.5602 33.506199 35.452202 40.506199 45.5602 49.9856 51.7356 55.2356 58.7356 60.681599 63.7896 66.897598 68.843597 74.289597 77.397598 80.897598 82.843597 86.343597 88.289597 90.039597 93.147598 96.647598 102.0936 104.0396 106.3706 109.4786 112.2016 115.7016 119.2016 121.5326 124.6406 127.7486 130.4716 132.4176 135.5256 137.99451 139.94051 141.88651 144.99451 146.94051 150.04849 152.7715 154.7175 157.44051 159.9794 163.4794 165.2294 168.7294 172.2294"
             y="8.0003004"
             sodipodi:role="line"
             id="tspan214">b. http://www.objectmentor.com/resources/articles/srp.pdf</tspan><tspan
             x="0.0014 3.5014 12.0071 15.1151 16.865101 18.615101 22.115101 24.0611 26.007099 29.507099 31.4531 33.399101 35.3451 38.453098 41.953098 43.703098 48.757099 50.703098 54.203098 56.149101 59.649101 62.757099 66.257103 68.203102 71.311096 73.061096 76.561096 78.767502 82.267502 84.213501 89.267502 91.213501 94.713501 96.6595 98.605499 103.6595 107.1595 110.2675 113.7675 115.7135 118.8215 120.7675 124.2675 126.9905 130.0985 133.5985 137.0985 140.5985 142.9295 144.8755 148.3755 151.48351 153.4295 156.9295 158.8755"
             y="16.000601"
             sodipodi:role="line"
             id="tspan216">8.a. http://en.wikipedia.org/wiki/Open/closed_principle</tspan><tspan
             x="12.0015 15.2222 16.9722 18.7222 22.2222 24.1682 26.114201 29.614201 31.5602 33.506199 35.452202 40.506199 45.5602 49.9856 51.7356 55.2356 58.7356 60.681599 63.7896 66.897598 68.843597 74.289597 77.397598 80.897598 82.843597 86.343597 88.289597 90.039597 93.147598 96.647598 102.0936 104.0396 106.3706 109.4786 112.2016 115.7016 119.2016 121.5326 124.6406 127.7486 130.4716 132.4176 135.5256 137.99451 139.94051 141.88651 144.99451 146.94051 150.04849 152.7715 154.7175 158.2175 161.3255 164.8255 166.5755 170.0755 173.5755"
             y="24.0016"
             sodipodi:role="line"
             id="tspan218">b. http://www.objectmentor.com/resources/articles/ocp.pdf</tspan><tspan
             x="0.0027999999 3.5028 12.0085 14.3395 19.393499 24.4475 28.3395 30.6705"
             y="32.0019"
             sodipodi:role="line"
             id="tspan220">9.[GOF].</tspan></text>
        <g
           id="g224">
          <g
             id="g226"
             clip-path="url(#clipPath230)">
            <path
               d="m 79.92,560.653 v -147.75 m 361.333,147.75 V 412.903 M 79.795,560.778 h 361.583 m -361.583,-27 h 361.583 m -361.583,-121 h 361.583"
               style="fill:none;stroke:#231f20;stroke-width:0.25;stroke-linecap:butt;stroke-linejoin:miter;stroke-miterlimit:10;stroke-dasharray:none;stroke-opacity:1"
               id="path232" />
            <path
               d="m -37.08,664.778 h 36 m -36,-666 h 36 m 522,0 h 36 m -36,666 h 36 m -549,45 v -36 m 504,36 v -36 m 0,-684 v -36 m -504,36 v -36"
               style="fill:none;stroke:#ffffff;stroke-width:0.75;stroke-linecap:butt;stroke-linejoin:miter;stroke-miterlimit:10;stroke-dasharray:none;stroke-opacity:1"
               id="path234" />
            <path
               d="m -37.08,664.778 h 36 m -36,-666 h 36 m 522,0 h 36 m -36,666 h 36 m -549,45 v -36 m 504,36 v -36 m 0,-684 v -36 m -504,36 v -36 m -12,378 c 0,3.312 -2.688,6 -6,6 -3.312,0 -6,-2.688 -6,-6 0,-3.312 2.688,-6 6,-6 3.312,0 6,2.688 6,6 z m -24,0 h 27 m -9,24 v -48 m 545.94,24 c 0,3.312 -2.688,6 -6,6 -3.312,0 -6,-2.688 -6,-6 0,-3.312 2.688,-6 6,-6 3.312,0 6,2.688 6,6 z m -14.94,0 h 27 m -18,24 v -48 m -534,345 c 0,3.312 -2.688,6 -6,6 -3.312,0 -6,-2.688 -6,-6 0,-3.312 2.688,-6 6,-6 3.312,0 6,2.688 6,6 z m -24,0 h 27 m -9,9 v -33 m 6,-618 c 0,3.312 -2.688,6 -6,6 -3.312,0 -6,-2.688 -6,-6 0,-3.312 2.688,-6 6,-6 3.312,0 6,2.688 6,6 z m -24,0 h 27 m -9,24 v -33 m 545.94,651 c 0,3.312 -2.688,6 -6,6 -3.312,0 -6,-2.688 -6,-6 0,-3.312 2.688,-6 6,-6 3.312,0 6,2.688 6,6 z m -14.94,0 h 27 m -18,9 v -33 m 5.94,-618 c 0,3.312 -2.688,6 -6,6 -3.312,0 -6,-2.688 -6,-6 0,-3.312 2.688,-6 6,-6 3.312,0 6,2.688 6,6 z m -14.94,0 h 27 m -18,24 v -33"
               style="fill:none;stroke:#000000;stroke-width:0.25;stroke-linecap:butt;stroke-linejoin:miter;stroke-miterlimit:10;stroke-dasharray:none;stroke-opacity:1"
               id="path236" />
          </g>
        </g>
      </g>
    </g>
    <g
       id="g238">
      <g
         id="g240"
         transform="translate(218,6.56)">
        <text
           xml:space="preserve"
           transform="scale(1,-1)"
           style="font-variant:normal;font-weight:normal;font-size:10px;font-family:Helvetica;-inkscape-font-specification:Helvetica;writing-mode:lr-tb;fill:#0000ff;fill-opacity:1;fill-rule:nonzero;stroke:none"
           id="text244"><tspan
             x="0 7.2199998 14.44 21.66 24.440001 26.66 29.440001 32.77 38.330002 43.889999 49.450001 55.009998 60.009998 65.010002 67.790001 70.010002 75.57 78.349998"
             y="0"
             sodipodi:role="line"
             id="tspan242">www.it-ebooks.info</tspan></text>
        <g
           id="g246"
           transform="translate(-218,-6.56)" />
      </g>
    </g>
  </g>
</svg>
