<?xml version="1.0" encoding="UTF-8" standalone="no"?>
<!-- Created with Inkscape (http://www.inkscape.org/) -->

<svg
   version="1.1"
   id="svg2"
   width="690.14398"
   height="888.47998"
   viewBox="0 0 690.14398 888.47998"
   sodipodi:docname="4PmrqTPDrJV6cyWn.pdf"
   xmlns:inkscape="http://www.inkscape.org/namespaces/inkscape"
   xmlns:sodipodi="http://sodipodi.sourceforge.net/DTD/sodipodi-0.dtd"
   xmlns="http://www.w3.org/2000/svg"
   xmlns:svg="http://www.w3.org/2000/svg">
  <defs
     id="defs6">
    <clipPath
       clipPathUnits="userSpaceOnUse"
       id="clipPath326">
      <path
         d="M 0,665.858 H 519.84 V 0 H 0 Z"
         id="path324" />
    </clipPath>
  </defs>
  <sodipodi:namedview
     id="namedview4"
     pagecolor="#ffffff"
     bordercolor="#000000"
     borderopacity="0.25"
     inkscape:showpageshadow="2"
     inkscape:pageopacity="0.0"
     inkscape:pagecheckerboard="0"
     inkscape:deskcolor="#d1d1d1" />
  <g
     id="g8"
     inkscape:groupmode="layer"
     inkscape:label="4PmrqTPDrJV6cyWn"
     transform="matrix(1.3333333,0,0,-1.3333333,-1.46,887.61333)">
    <g
       id="g10">
      <g
         id="g12">
        <text
           xml:space="preserve"
           transform="matrix(1,0,0,-1,79.92,622.111)"
           style="font-variant:normal;font-weight:normal;font-size:10px;font-family:'Times New Roman';-inkscape-font-specification:TimesNewRomanPS;writing-mode:lr-tb;fill:#231f20;fill-opacity:1;fill-rule:nonzero;stroke:none"
           id="text16"><tspan
             x="0 5"
             y="0"
             sodipodi:role="line"
             id="tspan14">42</tspan></text>
        <text
           xml:space="preserve"
           transform="matrix(1,0,0,-1,348.831,622.111)"
           style="font-variant:normal;font-weight:bold;font-size:10px;font-family:'Times New Roman';-inkscape-font-specification:TimesNewRomanPS-Bold;writing-mode:lr-tb;fill:#231f20;fill-opacity:1;fill-rule:nonzero;stroke:none"
           id="text20"><tspan
             x="0 7.2199998 12.78 17.780001 23.34 26.67 31.110001 35.549999 38.199001 43.199001 46.230999 48.880001 54.990002 60.549999 66.110001 70.550003 73.879997 76.660004 81.660004 87.220001"
             y="0"
             sodipodi:role="line"
             id="tspan18">Chapter 3: Functions</tspan></text>
        <text
           xml:space="preserve"
           transform="matrix(1,0,0,-1,79.92,584.778)"
           style="font-variant:normal;font-weight:bold;font-size:12px;font-family:'Times New Roman';-inkscape-font-specification:TimesNewRomanPS-Bold;writing-mode:lr-tb;fill:#231f20;fill-opacity:1;fill-rule:nonzero;stroke:none"
           id="text24"><tspan
             x="0 8.6639996 14.3652 20.3652 27.037201 30.373199 35.701199 38.701199 46.033199 52.7052 59.377201 64.7052 68.701202 72.037201 78.037201 84.709198"
             y="0"
             sodipodi:role="line"
             id="tspan22">Dyadic Functions</tspan></text>
        <text
           xml:space="preserve"
           transform="matrix(1,0,0,-1,79.92,564.1111)"
           style="font-variant:normal;font-weight:normal;font-size:10px;font-family:'Times New Roman';-inkscape-font-specification:TimesNewRomanPS;writing-mode:lr-tb;fill:#231f20;fill-opacity:1;fill-rule:nonzero;stroke:none"
           id="text30"><tspan
             x="0 7.2199998 9.4790001 12.809 17.809 22.809 27.249001 30.028999 32.808998 37.808998 42.808998 45.068001 52.287998 55.068001 57.848 62.848 65.107002 67.887001 74.709 79.709 81.968002 86.407997 89.559998 94.559998 99.559998 107.34 111.78 116.78 119.56 123.45 125.709 128.489 132.379 134.638 139.638 144.078 147.408 152.408 156.84801 160.17799 162.437 165.217 170.217 172.476 177.476 182.476 187.476 191.916 195.246 199.136 201.916 206.356 211.356 216.356 218.61501 221.395 226.395 230.83501 235.83501 238.09399 242.534 244.793 252.573 257.573 262.573 267.013 272.013 274.793 279.233 281.492 284.82199 289.82199 294.82199 299.26199 302.04199 304.82199 309.82199 314.82199 317.32199 319.58099 324.64301 329.64301 332.97299 335.23199 339.52301 344.52301 348.96301 356.74301"
             y="0"
             sodipodi:role="line"
             id="tspan26">A function with two arguments is harder to understand than a monadic function. For exam-</tspan><tspan
             x="0 5 7.7800002 12.22"
             y="12"
             sodipodi:role="line"
             id="tspan28">ple,</tspan></text>
        <text
           xml:space="preserve"
           transform="matrix(0.80015552,0,0,-1,99.75,552.1111)"
           style="font-variant:normal;font-weight:normal;font-size:9.002px;font-family:'Courier New';-inkscape-font-specification:Courier;writing-mode:lr-tb;fill:#231f20;fill-opacity:1;fill-rule:nonzero;stroke:none"
           id="text34"><tspan
             x="0 5.4011998 10.8024 16.2036 21.604799 27.006001 32.4072 37.808399 43.209599 48.610802 54.012001 59.4132 64.8144 70.215599 75.616798 81.017998"
             y="0"
             sodipodi:role="line"
             id="tspan32">writeField(name)</tspan></text>
        <text
           xml:space="preserve"
           transform="matrix(1,0,0,-1,173.846,552.1111)"
           style="font-variant:normal;font-weight:normal;font-size:10px;font-family:'Times New Roman';-inkscape-font-specification:TimesNewRomanPS;writing-mode:lr-tb;fill:#231f20;fill-opacity:1;fill-rule:nonzero;stroke:none"
           id="text38"><tspan
             x="0 2.78 6.6700001 11.783 16.223 20.663 24.552999 27.333 31.773001 35.103001 40.216 42.995998 47.995998 53.109001 58.109001 63.109001 68.109001 72.549004 75.878998 79.768997 82.549004 86.988998 91.988998 96.988998 102.102 104.882 109.882 114.322 119.322"
             y="0"
             sodipodi:role="line"
             id="tspan36">is easier to understand than </tspan></text>
        <text
           xml:space="preserve"
           transform="matrix(0.80015552,0,0,-1,298.257,552.1111)"
           style="font-variant:normal;font-weight:normal;font-size:9.002px;font-family:'Courier New';-inkscape-font-specification:Courier;writing-mode:lr-tb;fill:#231f20;fill-opacity:1;fill-rule:nonzero;stroke:none"
           id="text42"><tspan
             x="0 5.4011998 10.8024 16.2036 21.604799 27.006001 32.4072 37.808399 43.209599 48.610802 54.012001 59.4132 64.8144 70.215599 75.616798 81.017998 86.419197 91.820396 97.221603 102.6228 108.024 113.4252 118.8264 124.2276 129.6288 135.03 140.08823 145.48943 150.89062 156.29182 161.69302"
             y="0"
             sodipodi:role="line"
             id="tspan40">writeField(output-Stream, name)</tspan></text>
        <text
           xml:space="preserve"
           transform="matrix(1,0,0,-1,431.912,552.1111)"
           style="font-variant:normal;font-weight:normal;font-size:10px;font-family:'Times New Roman';-inkscape-font-specification:TimesNewRomanPS;writing-mode:lr-tb;fill:#231f20;fill-opacity:1;fill-rule:nonzero;stroke:none"
           id="text46"><tspan
             x="0"
             y="0"
             id="tspan44">.</tspan></text>
        <text
           xml:space="preserve"
           transform="matrix(1,0,0,-1,434.412,556.111)"
           style="font-variant:normal;font-weight:normal;font-size:5.5px;font-family:'Times New Roman';-inkscape-font-specification:TimesNewRomanPS;writing-mode:lr-tb;fill:#231f20;fill-opacity:1;fill-rule:nonzero;stroke:none"
           id="text50"><tspan
             x="0 2.75"
             y="0"
             sodipodi:role="line"
             id="tspan48">10</tspan></text>
        <text
           xml:space="preserve"
           transform="matrix(1,0,0,-1,79.92,540.1111)"
           style="font-variant:normal;font-weight:normal;font-size:10px;font-family:'Times New Roman';-inkscape-font-specification:TimesNewRomanPS;writing-mode:lr-tb;fill:#231f20;fill-opacity:1;fill-rule:nonzero;stroke:none"
           id="text58"><tspan
             x="0 6.1100001 11.11 16.110001 21.110001 26.110001 31.110001 34.959999 37.740002 42.740002 47.18 51.029999 58.810001 63.25 67.690002 72.690002 75.470001 80.470001 85.470001 89.32 94.32 97.650002 101.5 106.5 111.5 114.28 119.28 123.13 125.91 129.8 133.64999 138.09 140.87 145.31 149.75 152.68201 155.18201 159.032 161.812 166.812 171.252 175.10201 180.662 183.992 187.882 190.662 194.51199 199.51199 202.29201 205.07201 210.07201 214.51199 218.40199 222.252 227.252 231.692 235.582 238.362 242.21201 244.992 249.992 254.43201 258.28201 262.573 267.375 271.815 274.315 278.16501 282.60501 287.04501 290.935 293.715 296.246 301.246 305.09601 310.09601 314.53601 319.53601 324.53601 328.42599 331.20599 333.98599 336.76599 341.76599 346.76599 350.616 353.396 356.17599"
             y="0"
             sodipodi:role="line"
             id="tspan52">Though the meaning of both is clear, the ﬁrst glides past the eye, easily depositing its</tspan><tspan
             x="0 7.7800002 12.22 16.66 21.66 24.440001 29.440001 34.439999 36.939999 39.858002 45.967999 50.967999 55.408001 58.824001 62.714001 67.153999 71.594002 76.594002 81.594002 86.594002 90.010002 93.339996 97.779999 102.78 107.78 110.56 113.89 118.33 122.22 125.636 130.076 133.492 137.382 142.382 147.382 150.91 153.69 157.106 162.106 166.54601 171.54601 175.436 179.87601 183.29201 188.29201 193.29201 196.07201 198.85201 201.632 205.048 211.91901 216.35899 219.77499 222.55499 226.995 231.435 234.963 239.963 243.379 246.159 251.159 254.575 257.35501 262.35501 267.35501 272.35501 275.685 280.125 283.54099 286.32101 291.32101 295.76099 299.177 304.737 308.06699 311.957 314.737 318.15302 323.15302 327.59299 330.923 335.36301 343.14301 347.58301 350.36301 354.80301 357.58401"
             y="12"
             sodipodi:role="line"
             id="tspan54">meaning. The second requires a short pause until we learn to ignore the ﬁrst parameter.</tspan><tspan
             x="0 7.2199998 12.22"
             y="24"
             sodipodi:role="line"
             id="tspan56">And</tspan></text>
        <text
           xml:space="preserve"
           transform="matrix(1,0,0,-1,100.581,516.1111)"
           style="font-style:italic;font-variant:normal;font-size:10px;font-family:'Times New Roman';-inkscape-font-specification:TimesNewRomanPS-Italic;writing-mode:lr-tb;fill:#231f20;fill-opacity:1;fill-rule:nonzero;stroke:none"
           id="text62"><tspan
             x="0 2.78 7.7800002 12.78"
             y="0"
             sodipodi:role="line"
             id="tspan60">that</tspan></text>
        <text
           xml:space="preserve"
           transform="matrix(1,0,0,-1,116.138,516.1111)"
           style="font-variant:normal;font-weight:normal;font-size:10px;font-family:'Times New Roman';-inkscape-font-specification:TimesNewRomanPS;writing-mode:lr-tb;fill:#231f20;fill-opacity:1;fill-rule:nonzero;stroke:none"
           id="text70"><tspan
             x="0 2.5 5.9419999 10.942 14.272 17.714001 22.153999 27.153999 32.153999 35.484001 39.374001 43.813999 46.313999 49.756001 53.946999 58.798 63.237999 68.237999 71.017998 76.017998 80.458 83.237999 85.768997 90.768997 94.210999 97.541 101.981 105.871 110.871 113.651 116.431 120.321 123.763 126.543 131.543 134.985 139.985 143.315 148.315 153.117 155.897 160.33701 168.117 172.007 175.44901 180.44901 184.88901 189.32899 193.769 198.769 202.659 207.099 210.541 217.412 221.85201 225.29401 229.18401 234.18401 239.18401 244.18401 246.964 251.964 255.40601 260.40601 264.59698 269.448 273.888 277.21799 280.66 283.44 288.44 293.44 298.44 301.76999 306.20999 309.65201 314.09201 318.84299"
             y="0"
             sodipodi:role="line"
             id="tspan64">, of course, eventually results in problems because we should never ignore any</tspan><tspan
             x="-36.217999 -31.216999 -26.775999 -23.247999 -20.466999 -17.966999 -12.966 -9.6350002 -7.1350002 -2.694 2.3069999 7.3080001 11.749 14.25 16.252001 22.363001 27.364 31.805 34.305 39.306 43.747002 47.275002 50.056 53.946999 56.446999 63.318001 67.758003 70.258003 73.039001 78.040001 83.041 88.042 91.373001 95.814003 98.314003 102.755 106.086 110.527 113.027 120.049 125.05 129.491 132.82201 137.263 139.763 142.54401 147.545 151.98599 154.48599 159.487 164.48801 169.489 173.38 175.88 183.101 185.882 188.66299 191.444 193.944 198.94501 201.726 206.72701 211.168"
             y="12"
             sodipodi:role="line"
             id="tspan66">part of code. The parts we ignore are where the bugs will hide.</tspan><tspan
             x="-18.218 -12.108 -7.1079998 -2.668 0.662 5.1020002 10.125 14.565 17.895 22.334999 27.358 30.138 32.917999 40.698002 45.138 49.028 51.528 56.550999 61.550999 64.880997 69.903999 74.344002 79.344002 84.344002 87.674004 91.564003 96.003998 98.503998 103.527 110.549 115.549 119.989 123.319 127.759 132.782 135.562 142.384 147.384 152.407 156.847 159.99899 164.99899 169.99899 177.77901 182.21899 187.21899 189.99899 193.88901 198.912 203.35201 206.68201 211.12199 216.145 220.58501 225.58501 230.58501 233.91499 238.91499 243.91499 247.245 250.02499 254.465 257.245 261.685 264.185 269.20801 274.26999 279.26999 282.60001 287.62299 291.914 296.914 301.354 309.134 314.134 316.914 321.354"
             y="27"
             sodipodi:role="line"
             id="tspan68">There are times, of course, where two arguments are appropriate. For example,</tspan></text>
        <text
           xml:space="preserve"
           transform="matrix(0.80015552,0,0,-1,79.92,477.1111)"
           style="font-variant:normal;font-weight:normal;font-size:9.002px;font-family:'Courier New';-inkscape-font-specification:Courier;writing-mode:lr-tb;fill:#231f20;fill-opacity:1;fill-rule:nonzero;stroke:none"
           id="text74"><tspan
             x="0 5.4011998 10.8024 16.2036 21.604799 27.006001 32.36219 37.76339 43.119579 48.520779 53.876968 59.278172 64.679367 70.080566 75.43676 80.837959 86.239159 91.640358 97.041557 102.44276 107.84396 113.24516 118.64636 124.04756 129.44876"
             y="0"
             sodipodi:role="line"
             id="tspan72">Point p = new Point(0,0);</tspan></text>
        <text
           xml:space="preserve"
           transform="matrix(1,0,0,-1,192.252,477.1111)"
           style="font-variant:normal;font-weight:normal;font-size:10px;font-family:'Times New Roman';-inkscape-font-specification:TimesNewRomanPS;writing-mode:lr-tb;fill:#231f20;fill-opacity:1;fill-rule:nonzero;stroke:none"
           id="text80"><tspan
             x="0 2.78 6.6700001 11.216 16.216 20.656 23.986 27.316 31.756001 36.195999 38.976002 41.507 46.507 51.053001 54.382999 58.823002 63.263 67.153 72.153 77.153 81.593002 86.394997 89.175003 93.614998 96.114998 100.661 107.331 111.771 115.299 118.079 122.519 126.409 129.189 133.629 138.629 143.175 148.175 153.175 155.955 160.955 163.735 167.625 172.17101 177.17101 181.61099 184.39101 189.39101 192.72099 197.161 199.94099 202.472 207.472 212.01801 214.798 219.23801 224.14 228.58 233.12601 235.90601 242.728"
             y="0"
             sodipodi:role="line"
             id="tspan76">is perfectly reasonable. Cartesian points naturally take two</tspan><tspan
             x="-112.332 -107.892 -104.74 -99.739998 -94.739998 -86.959999 -82.519997 -77.519997 -74.739998 -70.849998 -68.349998 -64.643997 -61.313999 -56.313999 -51.313999 -46.874001 -42.433998 -38.032001 -35.532001 -31.826 -24.955 -20.514999 -18.684 -13.684 -9.9779997 -4.9780002 -0.53799999 3.168 8.0190001 12.459 15.987 20.987 24.693001 28.583 33.583 37.210999 42.210999 45.541 48.320999 52.210999 56.651001 61.651001 65.357002 68.137001 73.137001 76.843002 80.733002 85.172997 89.612999"
             y="12"
             sodipodi:role="line"
             id="tspan78">arguments. Indeed, we’d be very surprised to see </tspan></text>
        <text
           xml:space="preserve"
           transform="matrix(0.80015552,0,0,-1,285.528,465.1111)"
           style="font-variant:normal;font-weight:normal;font-size:9.002px;font-family:'Courier New';-inkscape-font-specification:Courier;writing-mode:lr-tb;fill:#231f20;fill-opacity:1;fill-rule:nonzero;stroke:none"
           id="text84"><tspan
             x="0 5.4011998 10.8024 16.2036 21.550789 26.951988 32.353188 37.754387 43.155586 48.556789 53.957989 59.359188"
             y="0"
             sodipodi:role="line"
             id="tspan82">new Point(0)</tspan></text>
        <text
           xml:space="preserve"
           transform="matrix(1,0,0,-1,337.265,465.1111)"
           style="font-variant:normal;font-weight:normal;font-size:10px;font-family:'Times New Roman';-inkscape-font-specification:TimesNewRomanPS;writing-mode:lr-tb;fill:#231f20;fill-opacity:1;fill-rule:nonzero;stroke:none"
           id="text90"><tspan
             x="0 2.5 6.2059999 13.426 18.028 24.899 29.09 33.941002 38.381001 41.313 43.813 47.519001 50.299 55.299 59.738998 63.445 66.224998 73.046997 78.046997 81.752998 86.193001 89.345001 94.345001 99.345001"
             y="0"
             sodipodi:role="line"
             id="tspan86">. However, the two argu-</tspan><tspan
             x="-257.345 -249.565 -245.125 -240.125 -237.345 -233.455 -230.513 -227.733 -222.733 -219.791 -217.011 -212.011 -209.231 -205.341 -202.399 -197.959 -193.519 -189.629 -185.189"
             y="12"
             sodipodi:role="line"
             id="tspan88">ments in this case </tspan></text>
        <text
           xml:space="preserve"
           transform="matrix(1,0,0,-1,154.999,453.1111)"
           style="font-style:italic;font-variant:normal;font-size:10px;font-family:'Times New Roman';-inkscape-font-specification:TimesNewRomanPS-Italic;writing-mode:lr-tb;fill:#231f20;fill-opacity:1;fill-rule:nonzero;stroke:none"
           id="text94"><tspan
             x="0 5 8.5209999 12.961 15.903 20.903 24.424 29.424 33.863998 37.384998 41.825001 46.825001 49.766998 54.207001 59.207001 66.427002 71.427002 76.427002 81.427002 85.866997 90.866997 93.647003 97.537003 100.479 105.479 108.259 111.201 116.201 119.143 123.033 125.813 130.813 135.813 138.593 143.033 145.97501 150.41499 155.41499 158.19501 163.19501 167.63499"
             y="0"
             sodipodi:role="line"
             id="tspan92">are ordered components of a single value!</tspan></text>
        <text
           xml:space="preserve"
           transform="matrix(1,0,0,-1,328.579,453.1111)"
           style="font-variant:normal;font-weight:normal;font-size:10px;font-family:'Times New Roman';-inkscape-font-specification:TimesNewRomanPS;writing-mode:lr-tb;fill:#231f20;fill-opacity:1;fill-rule:nonzero;stroke:none"
           id="text98"><tspan
             x="0 9.4399996 14.44 18.879999 22.209999 26.65 31.09"
             y="0"
             sodipodi:role="line"
             id="tspan96">Whereas</tspan></text>
        <text
           xml:space="preserve"
           transform="matrix(0.80015552,0,0,-1,366.491,453.1111)"
           style="font-variant:normal;font-weight:normal;font-size:9.002px;font-family:'Courier New';-inkscape-font-specification:Courier;writing-mode:lr-tb;fill:#231f20;fill-opacity:1;fill-rule:nonzero;stroke:none"
           id="text102"><tspan
             x="0 5.4011998 10.8024 16.2036 21.604799 27.006001 32.4072 37.808399 43.209599 48.610802 54.012001 59.4132 64.8144"
             y="0"
             sodipodi:role="line"
             id="tspan100">output-Stream</tspan></text>
        <text
           xml:space="preserve"
           transform="matrix(1,0,0,-1,425.482,453.1111)"
           style="font-variant:normal;font-weight:normal;font-size:10px;font-family:'Times New Roman';-inkscape-font-specification:TimesNewRomanPS;writing-mode:lr-tb;fill:#231f20;fill-opacity:1;fill-rule:nonzero;stroke:none"
           id="text106"><tspan
             x="0 4.4400001 9.4399996"
             y="0"
             sodipodi:role="line"
             id="tspan104">and</tspan></text>
        <text
           xml:space="preserve"
           transform="matrix(0.80015552,0,0,-1,79.92,441.1111)"
           style="font-variant:normal;font-weight:normal;font-size:9.002px;font-family:'Courier New';-inkscape-font-specification:Courier;writing-mode:lr-tb;fill:#231f20;fill-opacity:1;fill-rule:nonzero;stroke:none"
           id="text110"><tspan
             x="0 5.4011998 10.8024 16.2036"
             y="0"
             sodipodi:role="line"
             id="tspan108">name</tspan></text>
        <text
           xml:space="preserve"
           transform="matrix(1,0,0,-1,99.666,441.1111)"
           style="font-variant:normal;font-weight:normal;font-size:10px;font-family:'Times New Roman';-inkscape-font-specification:TimesNewRomanPS;writing-mode:lr-tb;fill:#231f20;fill-opacity:1;fill-rule:nonzero;stroke:none"
           id="text116"><tspan
             x="0 5 9.0909996 13.942 18.382 20.882 25.882 30.322001 33.102001 35.882 40.882 45.321999 48.652 51.152 55.591999 58.091999 63.091999 67.531998 70.311996 75.311996 78.641998 83.082001 85.862 88.362 92.802002 97.802002 102.802 107.242 111.132 113.912 118.912 123.912 126.412 128.912 133.912 138.912 142.242 144.742 149.18201 151.68201 156.68201 161.12199 163.90199 168.90199 172.23199 176.672 179.452 181.952 186.952 190.282 195.282 199.722 203.052 205.832 210.832 215.832 218.332"
             y="0"
             sodipodi:role="line"
             id="tspan112">have neither a natural cohesion, nor a natural ordering. </tspan><tspan
             x="-1.7460001 4.3639998 9.2150002 13.655 18.655001 21.492001 26.492001 31.194 36.194 38.973999 43.973999 48.973999 52.863998 55.701 60.701 65.700996 70.140999 75.140999 77.920998 82.361 85.197998 88.528 93.528 98.528 102.968 105.748 108.528 113.528 118.528 122.418 125.255 128.035 130.815 135.717 140.157"
             y="14.999"
             sodipodi:role="line"
             id="tspan114">Even obvious dyadic functions like </tspan></text>
        <text
           xml:space="preserve"
           transform="matrix(0.80015552,0,0,-1,242.639,426.1121)"
           style="font-variant:normal;font-weight:normal;font-size:9.002px;font-family:'Courier New';-inkscape-font-specification:Courier;writing-mode:lr-tb;fill:#231f20;fill-opacity:1;fill-rule:nonzero;stroke:none"
           id="text120"><tspan
             x="0 5.4011998 10.8024 16.2036 21.604799 27.006001 32.4072 37.808399 43.209599 48.610802 54.012001 59.4132 64.8144 70.215599 75.616798 81.017998 86.419197 91.820396 97.221603 102.6228 108.024 113.4252 118.8264 123.92333 129.32454 134.72574 140.12694 145.52814 150.92934 156.33054"
             y="0"
             sodipodi:role="line"
             id="tspan118">assertEquals(expected, actual)</tspan></text>
        <text
           xml:space="preserve"
           transform="matrix(1,0,0,-1,374.819,426.1121)"
           style="font-variant:normal;font-weight:normal;font-size:10px;font-family:'Times New Roman';-inkscape-font-specification:TimesNewRomanPS;writing-mode:lr-tb;fill:#231f20;fill-opacity:1;fill-rule:nonzero;stroke:none"
           id="text126"><tspan
             x="0 4.4400001 7.77 12.21 15.047 20.047001 23.377001 28.377001 33.179001 35.959 40.398998 48.179001 52.618999 55.398998 58.179001 62.618999"
             y="0"
             sodipodi:role="line"
             id="tspan122">are problematic.</tspan><tspan
             x="-294.89899 -287.67899 -283.077 -275.85699 -272.44101 -264.66101 -260.22101 -255.47 -250.47 -247.054 -244.274 -241.494 -233.714 -229.274 -225.384 -221.968 -216.968 -212.877 -208.026 -203.586 -200.17 -195.368 -190.368 -185.368 -181.952 -176.952 -171.952 -169.172 -165.756 -162.976 -157.976 -153.536"
             y="12"
             sodipodi:role="line"
             id="tspan124">How many times have you put the </tspan></text>
        <text
           xml:space="preserve"
           transform="matrix(0.80015552,0,0,-1,224.68,414.1121)"
           style="font-variant:normal;font-weight:normal;font-size:9.002px;font-family:'Courier New';-inkscape-font-specification:Courier;writing-mode:lr-tb;fill:#231f20;fill-opacity:1;fill-rule:nonzero;stroke:none"
           id="text130"><tspan
             x="0 5.4011998 10.8024 16.2036 21.604799 27.006001"
             y="0"
             sodipodi:role="line"
             id="tspan128">actual</tspan></text>
        <text
           xml:space="preserve"
           transform="matrix(1,0,0,-1,253.964,414.1121)"
           style="font-variant:normal;font-weight:normal;font-size:10px;font-family:'Times New Roman';-inkscape-font-specification:TimesNewRomanPS;writing-mode:lr-tb;fill:#231f20;fill-opacity:1;fill-rule:nonzero;stroke:none"
           id="text134"><tspan
             x="0 7.0219998 12.022 16.462 19.792 24.232 27.648001 30.427999 35.428001 39.868"
             y="0"
             sodipodi:role="line"
             id="tspan132">where the </tspan></text>
        <text
           xml:space="preserve"
           transform="matrix(0.80015552,0,0,-1,297.239,414.1121)"
           style="font-variant:normal;font-weight:normal;font-size:9.002px;font-family:'Courier New';-inkscape-font-specification:Courier;writing-mode:lr-tb;fill:#231f20;fill-opacity:1;fill-rule:nonzero;stroke:none"
           id="text138"><tspan
             x="0 5.4011998 10.8024 16.2036 21.604799 27.006001 32.4072 37.808399"
             y="0"
             sodipodi:role="line"
             id="tspan136">expected</tspan></text>
        <text
           xml:space="preserve"
           transform="matrix(1,0,0,-1,335.147,414.1121)"
           style="font-variant:normal;font-weight:normal;font-size:10px;font-family:'Times New Roman';-inkscape-font-specification:TimesNewRomanPS;writing-mode:lr-tb;fill:#231f20;fill-opacity:1;fill-rule:nonzero;stroke:none"
           id="text144"><tspan
             x="0 3.8900001 8.8900003 13.89 18.889999 21.67 26.67 30.086 35.085999 39.526001 43.966 46.883999 52.993999 57.993999 62.433998 65.849998 68.629997 75.452003 80.452003 83.867996 88.307999 91.459999 96.459999 101.46"
             y="0"
             sodipodi:role="line"
             id="tspan140">should be? The two argu-</tspan><tspan
             x="-255.22701 -247.44701 -243.007 -238.007 -235.22701 -231.33701 -226.108 -221.108 -217.017 -212.166 -207.726 -202.49699 -197.49699 -192.49699 -187.26801 -182.26801 -177.828 -175.048 -170.048 -166.718 -162.278 -159.498 -154.269 -149.269 -145.939 -140.939 -136.49899 -133.16901 -130.38901 -125.389 -120.389 -117.889 -113.158 -107.048 -102.048 -97.608002"
             y="12"
             sodipodi:role="line"
             id="tspan142">ments have no natural ordering. The </tspan></text>
        <text
           xml:space="preserve"
           transform="matrix(0.80015552,0,0,-1,242.741,402.1121)"
           style="font-variant:normal;font-weight:normal;font-size:9.002px;font-family:'Courier New';-inkscape-font-specification:Courier;writing-mode:lr-tb;fill:#231f20;fill-opacity:1;fill-rule:nonzero;stroke:none"
           id="text148"><tspan
             x="0 5.4011998 10.8024 16.2036 21.604799 27.006001 32.4072 37.808399 43.209599 51.61837 57.019569 62.420769 67.821968 73.223167 78.624367"
             y="0"
             sodipodi:role="line"
             id="tspan146">expected,actual</tspan></text>
        <text
           xml:space="preserve"
           transform="matrix(1,0,0,-1,315.142,402.1121)"
           style="font-variant:normal;font-weight:normal;font-size:10px;font-family:'Times New Roman';-inkscape-font-specification:TimesNewRomanPS;writing-mode:lr-tb;fill:#231f20;fill-opacity:1;fill-rule:nonzero;stroke:none"
           id="text160"><tspan
             x="0 5 8.3299999 13.33 17.77 21.1 23.879999 28.879999 33.880001 39.109001 41.889 45.778999 51.007999 55.448002 60.676998 65.116997 70.116997 74.719002 79.57 84.010002 89.010002 91.790001 94.57 99.57 104.57 109.799 112.579 117.579 122.019"
             y="0"
             sodipodi:role="line"
             id="tspan150">ordering is a convention that</tspan><tspan
             x="-235.222 -231.892 -227.452 -222.452 -217.452 -214.672 -211.342 -206.90199 -203.01199 -200.51199 -195.51199 -192.18201 -187.742 -183.302 -180.522 -177.742 -173.302 -168.862 -166.362 -163.582 -158.582 -156.082 -153.302 -148.862 -144.422 -140.894 -135.894"
             y="12"
             sodipodi:role="line"
             id="tspan152">requires practice to learn.</tspan><tspan
             x="-217.222 -210.002 -205.002 -200.562 -195.562 -191.672 -188.888 -184.448 -181.118 -176.67799 -171.67799 -168.84599 -166.06599 -163.282 -159.091 -154.091 -151.311 -148.53101 -146.03101 -143.24699 -138.80701 -133.80701 -128.80701 -126.023 -121.221 -116.221 -111.221 -108.437 -101.217 -98.436996 -95.656998 -92.876999 -90.093002 -85.653 -81.212997 -77.684998 -74.904999 -70.464996 -67.684998 -62.685001 -60.153999 -55.153999 -52.369999 -47.369999 -43.278999 -38.428001 -33.987999 -31.204 -28.424 -23.424 -20.639999 -13.42 -10.09 -7.3099999 -4.5300002 -0.090000004 2.694 5.474 10.474 14.914 22.694 25.194 27.978001 35.198002 39.799999 46.671001 50.862 55.713001 60.153 63.084999 65.584999 68.369003 73.170998 78.170998 83.170998 85.955002 89.845001 94.845001 99.845001 104.845 107.625 112.625 115.409 120.409"
             y="27"
             sodipodi:role="line"
             id="tspan154">Dyads aren’t evil, and you will certainly have to write them. However, you should be</tspan><tspan
             x="-235.222 -231.17999 -224.21001 -219.77 -216.44 -212 -208.13699 -205.35699 -200.35699 -195.91701 -193.13699 -189.274 -186.494 -181.494 -177.203 -172.203 -168.34 -163.89999 -158.89999 -151.12 -146.67999 -142.817 -138.377 -135.597 -131.73399 -127.294 -123.431 -118.991 -113.991 -110.101 -107.321 -103.458 -99.017998 -94.017998 -89.017998 -85.154999 -81.264999 -76.264999 -71.264999 -66.264999 -63.485001 -58.485001 -54.622002 -51.841999 -47.402 -42.5 -38.060001 -34.196999 -29.757 -24.757 -20.006001 -15.566 -10.566 -7.7859998 -3.346 1.654 6.0939999 9.9569998 14.957 18.287001 22.15 29.172001 34.172001 38.612 41.391998 45.255001 53.035 57.474998 61.915001 66.915001 71.355003 76.355003 79.135002 86.915001 90.805 94.667999 102.448 106.539 111.539 115.402 120.402"
             y="39"
             sodipodi:role="line"
             id="tspan156">aware that they come at a cost and should take advantage of what mechanims may be</tspan><tspan
             x="-235.222 -231.131 -226.381 -221.94099 -219.161 -216.381 -211.94099 -207.13901 -204.35899 -199.91901 -194.224 -191.444 -186.444 -180.74899 -175.94701 -170.94701 -165.94701 -160.252 -157.472 -152.472 -146.77699 -142.33701 -137.33701 -132.735 -127.884 -123.444 -119.916 -117.136 -111.441 -108.661 -103.661 -99.221001 -91.441002 -85.746002 -82.966003 -77.966003 -75.185997 -70.185997 -64.490997 -56.710999 -51.710999 -46.710999 -42.271 -37.271 -33.381001 -30.881001 -25.186001 -20.124001 -15.124 -11.794 -6.099 -1.808 3.1919999 7.632 15.412 20.412001 23.191999 27.632 30.132 35.827 40.629002 45.629002 50.629002 56.324001 64.103996 66.884003 71.884003 76.884003 79.664001 85.359001 93.139 97.579002 102.481 106.921 112.616 115.396 120.396"
             y="51"
             sodipodi:role="line"
             id="tspan158">available to you to convert them into monads. For example, you might make the</tspan></text>
        <text
           xml:space="preserve"
           transform="matrix(0.80015552,0,0,-1,79.92,339.1121)"
           style="font-variant:normal;font-weight:normal;font-size:9.002px;font-family:'Courier New';-inkscape-font-specification:Courier;writing-mode:lr-tb;fill:#231f20;fill-opacity:1;fill-rule:nonzero;stroke:none"
           id="text164"><tspan
             x="0 5.4011998 10.8024 16.2036 21.604799 27.006001 32.4072 37.808399 43.209599 48.610802"
             y="0"
             sodipodi:role="line"
             id="tspan162">writeField</tspan></text>
        <text
           xml:space="preserve"
           transform="matrix(1,0,0,-1,129.219,339.1121)"
           style="font-variant:normal;font-weight:normal;font-size:10px;font-family:'Times New Roman';-inkscape-font-specification:TimesNewRomanPS;writing-mode:lr-tb;fill:#231f20;fill-opacity:1;fill-rule:nonzero;stroke:none"
           id="text168"><tspan
             x="0 7.7800002 12.22 15 20 25 30 36.185001 40.625 46.810001 54.59 59.029999 66.809998 71.809998 76.25 79.580002 85.764999 90.764999 94.095001"
             y="0"
             sodipodi:role="line"
             id="tspan166">method a member of </tspan></text>
        <text
           xml:space="preserve"
           transform="matrix(0.80015552,0,0,-1,229.482,339.1121)"
           style="font-variant:normal;font-weight:normal;font-size:9.002px;font-family:'Courier New';-inkscape-font-specification:Courier;writing-mode:lr-tb;fill:#231f20;fill-opacity:1;fill-rule:nonzero;stroke:none"
           id="text172"><tspan
             x="0 5.4011998 10.8024 16.2036 21.604799 27.006001 32.4072 37.808399 43.209599 48.610802 54.012001 59.4132"
             y="0"
             sodipodi:role="line"
             id="tspan170">outputStream</tspan></text>
        <text
           xml:space="preserve"
           transform="matrix(1,0,0,-1,287.404,339.1121)"
           style="font-variant:normal;font-weight:normal;font-size:10px;font-family:'Times New Roman';-inkscape-font-specification:TimesNewRomanPS;writing-mode:lr-tb;fill:#231f20;fill-opacity:1;fill-rule:nonzero;stroke:none"
           id="text176"><tspan
             x="0 3.8900001 8.8900003 15.075 17.855 22.855 27.295 30.075001 36.259998 41.062 46.062 51.062 57.247002 61.687 66.126999 71.126999 77.311996 81.202003 85.292999 90.292999"
             y="0"
             sodipodi:role="line"
             id="tspan174">so that you can say </tspan></text>
        <text
           xml:space="preserve"
           transform="matrix(0.80015552,0,0,-1,383.871,339.1121)"
           style="font-variant:normal;font-weight:normal;font-size:9.002px;font-family:'Courier New';-inkscape-font-specification:Courier;writing-mode:lr-tb;fill:#231f20;fill-opacity:1;fill-rule:nonzero;stroke:none"
           id="text182"><tspan
             x="0 5.4011998 10.8024 16.2036 21.604799 27.006001 32.4072 37.808399 43.209599 48.610802 54.012001 59.4132 64.8144"
             y="0"
             sodipodi:role="line"
             id="tspan178">outputStream.</tspan><tspan
             x="-379.86459 -374.46341 -369.06219 -363.66101 -358.2598 -352.85858 -347.4574 -342.05618 -336.655 -331.25378 -325.8526 -320.45139 -315.0502 -309.64899 -304.2478 -298.84659"
             y="11.999666"
             sodipodi:role="line"
             id="tspan180">writeField(name)</tspan></text>
        <text
           xml:space="preserve"
           transform="matrix(1,0,0,-1,148.903,327.1121)"
           style="font-variant:normal;font-weight:normal;font-size:10px;font-family:'Times New Roman';-inkscape-font-specification:TimesNewRomanPS;writing-mode:lr-tb;fill:#231f20;fill-opacity:1;fill-rule:nonzero;stroke:none"
           id="text186"><tspan
             x="0 2.5 5.5180001 12.738 16.068001 19.086 23.888 28.888 33.888 36.905998 44.686001 47.466 52.466 57.466 60.245998 63.264 71.043999 75.484001 80.386002 84.825996 87.844002 90.624001 95.624001 100.064"
             y="0"
             sodipodi:role="line"
             id="tspan184">. Or you might make the </tspan></text>
        <text
           xml:space="preserve"
           transform="matrix(0.80015552,0,0,-1,251.969,327.1121)"
           style="font-variant:normal;font-weight:normal;font-size:9.002px;font-family:'Courier New';-inkscape-font-specification:Courier;writing-mode:lr-tb;fill:#231f20;fill-opacity:1;fill-rule:nonzero;stroke:none"
           id="text190"><tspan
             x="0 5.4011998 10.8024 16.2036 21.604799 27.006001 32.4072 37.808399 43.209599 48.610802 54.012001 59.4132"
             y="0"
             sodipodi:role="line"
             id="tspan188">outputStream</tspan></text>
        <text
           xml:space="preserve"
           transform="matrix(1,0,0,-1,306.725,327.1121)"
           style="font-variant:normal;font-weight:normal;font-size:10px;font-family:'Times New Roman';-inkscape-font-specification:TimesNewRomanPS;writing-mode:lr-tb;fill:#231f20;fill-opacity:1;fill-rule:nonzero;stroke:none"
           id="text196"><tspan
             x="0 4.4400001 7.4580002 15.238 19.677999 27.458 32.458 36.897999 40.228001 43.245998 47.997002 52.437 55.766998 58.547001 62.987 67.789001 70.569 75.009003 78.027 83.027 86.357002 89.375 92.154999 97.154999 101.595 104.613 109.053 114.053 117.681 121.011 125.451 130.451"
             y="0"
             sodipodi:role="line"
             id="tspan192">a member variable of the current</tspan><tspan
             x="-226.80499 -222.36501 -219.58501 -215.145 -211.255 -207.36501 -204.33501 -200.44501 -195.44501 -192.41499 -189.63499 -184.63499 -180.19501 -177.41499 -174.38499 -169.58299 -164.58299 -159.58299 -156.55299 -151.55299 -146.55299 -141.55299 -138.72099 -135.94099 -132.911 -127.911 -123.82 -118.969 -114.529 -111.499 -108.719 -103.719 -100.689 -95.689003 -91.249001 -87.359001 -83.469002 -80.439003 -77.658997 -74.878998 -72.378998 -69.348999 -62.129002 -58.799 -55.769001 -50.966999 -45.966999 -40.966999 -37.937 -30.157 -27.377001 -22.377001 -17.377001 -14.597 -11.567 -7.276 -2.276 0.50400001 3.8340001 8.2740002 12.714 15.494 18.524 22.964001 25.993999 30.993999 35.185001 42.404999 45.435001 49.875 52.654999 57.095001 60.985001 64.875 67.904999 70.684998 73.464996 78.366997 82.806999"
             y="12"
             sodipodi:role="line"
             id="tspan194">class so that you don’t have to pass it. Or you might extract a new class like </tspan></text>
        <text
           xml:space="preserve"
           transform="matrix(0.80015552,0,0,-1,392.493,315.1121)"
           style="font-variant:normal;font-weight:normal;font-size:9.002px;font-family:'Courier New';-inkscape-font-specification:Courier;writing-mode:lr-tb;fill:#231f20;fill-opacity:1;fill-rule:nonzero;stroke:none"
           id="text200"><tspan
             x="0 5.4011998 10.8024 16.2036 21.604799 27.006001 32.4072 37.808399 43.209599 48.610802 54.012001"
             y="0"
             sodipodi:role="line"
             id="tspan198">FieldWriter</tspan></text>
        <text
           xml:space="preserve"
           transform="matrix(1,0,0,-1,79.92,303.1121)"
           style="font-variant:normal;font-weight:normal;font-size:10px;font-family:'Times New Roman';-inkscape-font-specification:TimesNewRomanPS;writing-mode:lr-tb;fill:#231f20;fill-opacity:1;fill-rule:nonzero;stroke:none"
           id="text204"><tspan
             x="0 2.78 7.7800002 12.22 15 17.5 20.280001 24.719999 29.622 34.062 37.952 40.452 43.231998 48.231998 52.672001"
             y="0"
             sodipodi:role="line"
             id="tspan202">that takes the </tspan></text>
        <text
           xml:space="preserve"
           transform="matrix(0.80015552,0,0,-1,135.079,303.1121)"
           style="font-variant:normal;font-weight:normal;font-size:9.002px;font-family:'Courier New';-inkscape-font-specification:Courier;writing-mode:lr-tb;fill:#231f20;fill-opacity:1;fill-rule:nonzero;stroke:none"
           id="text208"><tspan
             x="0 5.4011998 10.8024 16.2036 21.604799 27.006001 32.4072 37.808399 43.209599 48.610802 54.012001 59.4132"
             y="0"
             sodipodi:role="line"
             id="tspan206">outputStream</tspan></text>
        <text
           xml:space="preserve"
           transform="matrix(1,0,0,-1,189.316,303.1121)"
           style="font-variant:normal;font-weight:normal;font-size:10px;font-family:'Times New Roman';-inkscape-font-specification:TimesNewRomanPS;writing-mode:lr-tb;fill:#231f20;fill-opacity:1;fill-rule:nonzero;stroke:none"
           id="text212"><tspan
             x="0 2.78 7.7800002 10.28 13.06 15.84 19.73 22.23 26.67 31.67 36.669998 40.560001 43.34 46.868 51.868 56.307999 59.088001 64.087997 67.417999 69.917999 74.358002 79.358002 84.358002 86.858002 91.858002 96.297997 100.188 102.688 107.128"
             y="0"
             sodipodi:role="line"
             id="tspan210">in its constructor and has a </tspan></text>
        <text
           xml:space="preserve"
           transform="matrix(0.80015552,0,0,-1,298.921,303.1121)"
           style="font-variant:normal;font-weight:normal;font-size:9.002px;font-family:'Courier New';-inkscape-font-specification:Courier;writing-mode:lr-tb;fill:#231f20;fill-opacity:1;fill-rule:nonzero;stroke:none"
           id="text216"><tspan
             x="0 5.4011998 10.8024 16.2036 21.604799"
             y="0"
             sodipodi:role="line"
             id="tspan214">write</tspan></text>
        <text
           xml:space="preserve"
           transform="matrix(1,0,0,-1,322.978,303.1121)"
           style="font-variant:normal;font-weight:normal;font-size:10px;font-family:'Times New Roman';-inkscape-font-specification:TimesNewRomanPS;writing-mode:lr-tb;fill:#231f20;fill-opacity:1;fill-rule:nonzero;stroke:none"
           id="text220"><tspan
             x="0 7.7800002 12.22 15 20 25 30"
             y="0"
             sodipodi:role="line"
             id="tspan218">method.</tspan></text>
        <text
           xml:space="preserve"
           transform="matrix(1,0,0,-1,79.92,277.778)"
           style="font-variant:normal;font-weight:bold;font-size:12px;font-family:'Times New Roman';-inkscape-font-specification:TimesNewRomanPS-Bold;writing-mode:lr-tb;fill:#231f20;fill-opacity:1;fill-rule:nonzero;stroke:none"
           id="text224"><tspan
             x="0 7.1160002 12.444 15.78 21.780001 28.452"
             y="0"
             sodipodi:role="line"
             id="tspan222">Triads</tspan></text>
        <text
           xml:space="preserve"
           transform="matrix(1,0,0,-1,79.92,257.1121)"
           style="font-variant:normal;font-weight:normal;font-size:10px;font-family:'Times New Roman';-inkscape-font-specification:TimesNewRomanPS;writing-mode:lr-tb;fill:#231f20;fill-opacity:1;fill-rule:nonzero;stroke:none"
           id="text234"><tspan
             x="0 5.5599999 10.56 15.56 20 22.780001 25.559999 30.559999 35.560001 39.450001 42.022999 44.803001 49.803001 54.243 57.022999 59.596001 62.375999 66.816002 71.718002 76.157997 78.731003 81.511002 86.511002 89.841003 94.280998 98.721001 101.294 105.734 108.886 113.886 118.886 126.666 131.106 136.106 138.886 142.776 145.349 149.789 153.119 157.55901 160.132 164.022 166.802 171.802 176.802 179.582 185.142 189.582 194.022 199.022 201.802 204.33299 209.33299 211.90601 216.90601 221.34599 224.67599 229.67599 234.116 237.446 240.019 242.799 247.799 250.37199 255.37199 260.37201 265.37201 269.81201 273.142 277.03201 279.81201 284.25201 289.25201 294.25201 296.82501 299.60501 304.60501 309.04501 314.04501 316.61801 321.61801 326.61801 331.05801 336.05801 339.948 342.448 344.52301 350.633 355.633"
             y="0"
             sodipodi:role="line"
             id="tspan226">Functions that take three arguments are signiﬁcantly harder to understand than dyads. The</tspan><tspan
             x="0 2.78 6.6700001 10.56 15.56 20 23.889999 26.639999 31.639999 34.970001 37.720001 42.720001 46.049999 51.049999 55.490002 58.82 61.599998 66.599998 71.599998 74.099998 76.849998 81.849998 86.290001 91.290001 95.18 97.959999 102.96 107.96 110.46 113.21 117.65 122.65 127.65 130.39999 133.17999 138.17999 143.17999 148.17999 151.50999 154.28999 159.28999 164.28999 167.03999 171.48 174.81 179.25 182 189.78 194.78 198.11 202.55 205.3 208.08 213.08 217.52 222.52 225.27 230.27 235.27 240.27 245.07201 247.85201 252.29201 257.29199 259.79199 262.54199 265.87201 268.62201 272.51199 277.51199 282.51199 287.51199 291.952 295.84201 298.62201 301.37201 306.17401 311.17401 316.17401 318.92401 321.70401 326.70401 329.48401 334.48401 339.48401 342.23401 347.08499 351.52499 355.05301"
             y="12"
             sodipodi:role="line"
             id="tspan228">issues of ordering, pausing, and ignoring are more than doubled. I suggest you think very</tspan><tspan
             x="0 4.4400001 8.8800001 12.21 16.65 19.98 24.98 27.76 30.291 35.291 37.791 42.791 47.230999 50.561001 55.561001 58.890999 63.331001 65.831001 70.271004 73.600998 78.041 82.481003 85.261002 88.041 93.041 98.041 100.541 104.981 107.481 110.261 113.591 116.371 120.811 125.811"
             y="24"
             sodipodi:role="line"
             id="tspan230">carefully before creating a triad.</tspan><tspan
             x="18 23.062 28.062 31.392 35.075001 39.366001 44.366001 48.806 56.585999 61.585999 64.365997 68.806 71.306 74.988998 79.429001 84.429001 89.429001 93.319 96.098999 101.099 105.539 108.869 112.552 115.332 120.332 124.772 128.455 132.895 137.895 145.675 153.455 158.455 163.455 167.138 171.689 176.53999 180.98 184.31 187.09 192.09 196.53 201.53 205.213 210.213 213.543"
             y="39"
             sodipodi:role="line"
             id="tspan232">For example, consider the common overload of </tspan></text>
        <text
           xml:space="preserve"
           transform="matrix(0.80015552,0,0,-1,297.11,218.1121)"
           style="font-variant:normal;font-weight:normal;font-size:9.002px;font-family:'Courier New';-inkscape-font-specification:Courier;writing-mode:lr-tb;fill:#231f20;fill-opacity:1;fill-rule:nonzero;stroke:none"
           id="text238"><tspan
             x="0 5.4011998 10.8024 16.2036 21.604799 27.006001 32.4072 37.808399 43.209599 48.610802 54.012001 59.4132"
             y="0"
             sodipodi:role="line"
             id="tspan236">assertEquals</tspan></text>
        <text
           xml:space="preserve"
           transform="matrix(1,0,0,-1,352.53,218.1121)"
           style="font-variant:normal;font-weight:normal;font-size:10px;font-family:'Times New Roman';-inkscape-font-specification:TimesNewRomanPS;writing-mode:lr-tb;fill:#231f20;fill-opacity:1;fill-rule:nonzero;stroke:none"
           id="text244"><tspan
             x="0 2.78 7.7800002 12.22 15 18.683001 21.462999 25.903 30.805 35.244999 39.134998 42.818001 45.598 50.598 53.928001 58.368 62.807999 66.490997 70.931 74.083 79.083 84.083"
             y="0"
             sodipodi:role="line"
             id="tspan240">that takes three argu-</tspan><tspan
             x="-272.60999 -264.82999 -260.39001 -255.39 -252.61 -248.72"
             y="12"
             sodipodi:role="line"
             id="tspan242">ments:</tspan></text>
        <text
           xml:space="preserve"
           transform="matrix(0.80015552,0,0,-1,111.26,206.1121)"
           style="font-variant:normal;font-weight:normal;font-size:9.002px;font-family:'Courier New';-inkscape-font-specification:Courier;writing-mode:lr-tb;fill:#231f20;fill-opacity:1;fill-rule:nonzero;stroke:none"
           id="text248"><tspan
             x="0 5.4011998 10.8024 16.2036 21.604799 27.006001 32.4072 37.808399 43.209599 48.610802 54.012001 59.4132 64.8144 70.215599 75.616798 81.017998 86.419197 91.820396 97.221603 102.6228 108.024 113.4252 118.53654 123.93774 129.33893 134.74014 140.14134 145.54254 150.94374 156.34494 161.74614 167.14734 172.4162 177.81741 183.21861 188.61981 194.02101 199.42221 204.82341"
             y="0"
             sodipodi:role="line"
             id="tspan246">assertEquals(message, expected, actual)</tspan></text>
        <text
           xml:space="preserve"
           transform="matrix(1,0,0,-1,279.406,206.1121)"
           style="font-variant:normal;font-weight:normal;font-size:10px;font-family:'Times New Roman';-inkscape-font-specification:TimesNewRomanPS;writing-mode:lr-tb;fill:#231f20;fill-opacity:1;fill-rule:nonzero;stroke:none"
           id="text252"><tspan
             x="0 2.5 7.177 14.397 18.999001 26.219 30.896 38.675999 43.116001 47.867001 52.867001 57.543999 60.324001 63.104 70.884003 75.323997 79.213997 83.890999 88.890999 92.982002 97.833 102.273 106.95 111.752 116.752 121.752 126.429 129.759 134.19901 138.63901 143.63901 148.31599 151.09599 156.09599"
             y="0"
             sodipodi:role="line"
             id="tspan250">. How many times have you read the</tspan></text>
        <text
           xml:space="preserve"
           transform="matrix(0.80015552,0,0,-1,79.92,194.1121)"
           style="font-variant:normal;font-weight:normal;font-size:9.002px;font-family:'Courier New';-inkscape-font-specification:Courier;writing-mode:lr-tb;fill:#231f20;fill-opacity:1;fill-rule:nonzero;stroke:none"
           id="text256"><tspan
             x="0 5.4011998 10.8024 16.2036 21.604799 27.006001 32.4072"
             y="0"
             sodipodi:role="line"
             id="tspan254">message</tspan></text>
        <text
           xml:space="preserve"
           transform="matrix(1,0,0,-1,113.084,194.1121)"
           style="font-variant:normal;font-weight:normal;font-size:10px;font-family:'Times New Roman';-inkscape-font-specification:TimesNewRomanPS;writing-mode:lr-tb;fill:#231f20;fill-opacity:1;fill-rule:nonzero;stroke:none"
           id="text260"><tspan
             x="0 4.4400001 9.4399996 14.44 17.424 20.204 25.204 30.204 35.203999 40.203999 45.203999 47.984001 50.967999 53.748001 56.528 59.512001 66.483002 70.922997 74.813004 77.796997 80.577003 85.577003 90.016998"
             y="0"
             sodipodi:role="line"
             id="tspan258">and thought it was the </tspan></text>
        <text
           xml:space="preserve"
           transform="matrix(0.80015552,0,0,-1,206.073,194.1121)"
           style="font-variant:normal;font-weight:normal;font-size:9.002px;font-family:'Courier New';-inkscape-font-specification:Courier;writing-mode:lr-tb;fill:#231f20;fill-opacity:1;fill-rule:nonzero;stroke:none"
           id="text264"><tspan
             x="0 5.4011998 10.8024 16.2036 21.604799 27.006001 32.4072 37.808399"
             y="0"
             sodipodi:role="line"
             id="tspan262">expected</tspan></text>
        <text
           xml:space="preserve"
           transform="matrix(1,0,0,-1,240.564,194.1121)"
           style="font-variant:normal;font-weight:normal;font-size:10px;font-family:'Times New Roman';-inkscape-font-specification:TimesNewRomanPS;writing-mode:lr-tb;fill:#231f20;fill-opacity:1;fill-rule:nonzero;stroke:none"
           id="text270"><tspan
             x="0 4.4400001 7.4239998 10.754 13.738 18.738001 22.829 27.68 32.119999 35.104 38.993999 41.773998 46.773998 54.554001 59.355999 62.136002 66.575996 71.575996 74.559998 79 84 89 91.984001 96.984001 101.424 106.424 110.314 114.754 119.754 122.738 127.289 132.14 136.58 139.91 142.894 145.674 150.674 155.114 157.894 160.87801 165.87801 170.31799 173.84599 176.62601 179.40601 183.84599 188.84599 191.62601 196.06599"
             y="0"
             sodipodi:role="line"
             id="tspan266">? I have stumbled and paused over that particular</tspan><tspan
             x="-160.644 -157.864 -154.534 -151.754 -147.314 -142.314 -139.96001 -132.17999 -127.74 -122.989 -117.989 -115.635 -112.855 -110.075 -102.295 -97.855003 -93.964996 -91.464996 -89.111 -85.780998 -80.780998 -78.427002 -74.999001 -70.558998 -66.119003 -63.339001 -60.839001"
             y="12"
             sodipodi:role="line"
             id="tspan268">triad many times. In fact, </tspan></text>
        <text
           xml:space="preserve"
           transform="matrix(1,0,0,-1,182.053,182.1121)"
           style="font-style:italic;font-variant:normal;font-size:10px;font-family:'Times New Roman';-inkscape-font-specification:TimesNewRomanPS-Italic;writing-mode:lr-tb;fill:#231f20;fill-opacity:1;fill-rule:nonzero;stroke:none"
           id="text274"><tspan
             x="0 4.2909999 8.7309999 13.171 17.061001 21.500999 23.855 26.635 29.415001 36.634998 41.075001 43.429001 46.758999 49.112999 53.002998 57.443001 61.882999 64.237 67.016998 69.796997"
             y="0"
             sodipodi:role="line"
             id="tspan272">every time I see it,</tspan></text>
        <text
           xml:space="preserve"
           transform="matrix(1,0,0,-1,256.684,182.1121)"
           style="font-variant:normal;font-weight:normal;font-size:10px;font-family:'Times New Roman';-inkscape-font-specification:TimesNewRomanPS;writing-mode:lr-tb;fill:#231f20;fill-opacity:1;fill-rule:nonzero;stroke:none"
           id="text282"><tspan
             x="0 3.3299999 5.684 10.684 15.684 18.038 22.478001 24.832001 29.832001 34.832001 39.832001 44.633999 47.414001 51.854 55.183998 57.964001 62.403999 67.306 71.746002 74.099998 78.540001 83.540001 88.540001 90.893997 93.674004 98.674004 103.114 108.114 110.468 113.248 117.688 122.128 125.656 130.65601 133.00999 135.78999 140.78999 143.144 145.924 150.924 155.924 160.924 164.254 168.694 171.048 173.828 178.828"
             y="0"
             sodipodi:role="line"
             id="tspan276">I do a double-take and then learn to ignore the</tspan><tspan
             x="-176.76401 -168.98399 -164.54401 -160.65401 -156.76401 -152.32401 -147.32401 -142.884"
             y="12"
             sodipodi:role="line"
             id="tspan278">message.</tspan><tspan
             x="-158.76401 -151.54401 -146.54401 -142.72 -139.94 -134.94 -130.5 -126.676 -121.676 -118.896 -113.896 -109.456 -106.126 -102.302 -97.302002 -92.862 -87.862 -83.459999 -80.959999 -77.136002 -72.136002 -67.695999 -64.365997 -59.925999 -56.102001 -53.321999 -49.431999 -45.608002 -41.167999 -37.344002 -34.563999 -31.233999 -28.454 -24.014 -19.014 -15.19 -12.41 -7.4099998 -2.97 -0.19 3.6340001 6.414 10.304 14.128 19.128 24.128 26.908001 30.732 35.731998 40.731998 43.512001 46.292 50.731998 54.556 58.445999 63.445999 67.269997 70.050003 75.050003 78.940002 81.720001 86.720001 89.5 94.5 99.5 103.39 106.17"
             y="27"
             sodipodi:role="line"
             id="tspan280">On the other hand, here is a triad that is not quite so insidious: </tspan></text>
        <text
           xml:space="preserve"
           transform="matrix(0.80015552,0,0,-1,366.625,155.112)"
           style="font-variant:normal;font-weight:normal;font-size:9.002px;font-family:'Courier New';-inkscape-font-specification:Courier;writing-mode:lr-tb;fill:#231f20;fill-opacity:1;fill-rule:nonzero;stroke:none"
           id="text288"><tspan
             x="0 5.4011998 10.8024 16.2036 21.604799 27.006001 32.4072 37.808399 43.209599 48.610802 54.012001 59.4132 64.8144 70.215599 75.616798 81.017998 86.419197"
             y="0"
             sodipodi:role="line"
             id="tspan284">assertEquals(1.0,</tspan><tspan
             x="-358.31201 -352.9108 -347.50961 -342.1084 -336.70721 -331.306 -325.90482 -320.5036 -313.59998 -308.19876 -302.79758 -297.39636 -291.99518"
             y="11.999666"
             sodipodi:role="line"
             id="tspan286">amount, .001)</tspan></text>
        <text
           xml:space="preserve"
           transform="matrix(1,0,0,-1,137.171,143.112)"
           style="font-variant:normal;font-weight:normal;font-size:10px;font-family:'Times New Roman';-inkscape-font-specification:TimesNewRomanPS;writing-mode:lr-tb;fill:#231f20;fill-opacity:1;fill-rule:nonzero;stroke:none"
           id="text294"><tspan
             x="0 2.5 5.1479998 12.368 15.148 17.927999 22.927999 27.927999 32.928001 37.928001 42.928001 46.125 48.904999 53.904999 56.685001 60.575001 63.771999 67.662003 70.442001 73.222 76.001999 78.781998 81.978996 85.308998 89.749001 94.749001 99.749001 102.529 105.859 110.299 114.189 117.386 121.826 125.023 130.02299 135.02299 140.02299 144.825 147.605 152.045 155.375 158.155 162.595 167.49699 171.937 174.437 177.634 180.414 183.194 185.125 189.015 192.21201 197.21201 202.21201 206.65199 209.849 212.629 217.629 222.069 224.849 226.78 230.67 233.867 240.689 245.689 249.217 251.99699 256.99701 260.194 262.974 267.414 272.414 275.194 280.194 285.194 287.694 290.89099 294.22101 297.00101 298.93201"
             y="0"
             sodipodi:role="line"
             id="tspan290">. Although this still requires a double-take, it’s one that’s worth taking. It’s</tspan><tspan
             x="-57.250999 -52.811001 -50.380001 -43.409 -39.318001 -34.318001 -30.427999 -27.927999 -22.927999 -17.927999 -12.928 -7.928 -5.428 -2.648 2.352 4.8520002 9.8520002 14.292 16.792 20.122 24.562 32.341999 35.122002 40.122002 45.122002 49.562 54.562 57.062 59.841999 64.842003 69.281998 72.061996 74.561996 79.001999 84.001999 89.001999 93.442001 96.222 99.001999 101.782 106.782 109.282 114.282 117.612 120.112 125.672 130.672 135.112 137.892 140.672 145.672 150.672 153.172 158.172 163.172 165.952 170.952 173.73199 176.23199 180.983 185.423 188.203 193.203 197.64301 201.533 204.033 206.813 210.703 213.203 217.64301 220.14301 223.47301 227.91299 230.69299 235.133 237.91299 240.444 245.295 249.735 252.235 255.015 260.01501 262.79501 267.79501 272.79501"
             y="12"
             sodipodi:role="line"
             id="tspan292">always good to be reminded that equality of ﬂoating point values is a relative thing.</tspan></text>
        <path
           d="m 88.92,94.869 h 144 m -144,0 h 144"
           style="fill:none;stroke:#231f20;stroke-width:0.5;stroke-linecap:square;stroke-linejoin:miter;stroke-miterlimit:10;stroke-dasharray:none;stroke-opacity:1"
           id="path296" />
        <text
           xml:space="preserve"
           transform="matrix(1,0,0,-1,79.92,76.111)"
           style="font-variant:normal;font-weight:normal;font-size:7px;font-family:'Times New Roman';-inkscape-font-specification:TimesNewRomanPS;writing-mode:lr-tb;fill:#231f20;fill-opacity:1;fill-rule:nonzero;stroke:none"
           id="text300"><tspan
             x="0 3.5 7 12.0099 14.3409 16.0909 18.0369 21.5369 24.259899 26.2059 27.9559 31.8479 35.3479 37.2939 40.016899 43.516899 46.624901 50.124901 51.874901 54.205898 57.3139 59.712799 62.820801 65.928802 67.874802 71.374802 73.705803 75.651802 79.151802 82.651802 84.401802 87.509804 89.259804 94.705803 98.205803 101.7058 105.2058 107.1518 110.2598 112.0098 113.9558 117.4558 120.5638 122.5098 124.2598 127.7598 130.4828 133.59081 137.09081 138.84081 140.7868 144.2868 147.39481 149.14481 152.64481 156.14481 159.25281 162.75281 164.69881 167.80679 169.55679 171.8878 175.3878 177.8567 183.3027 185.0527 186.8027 189.1337 190.8837 195.7641 198.8721 201.59509 203.34509 206.45309 209.8152 211.7612 214.8692 216.6192 218.5652 222.0652 223.8152 229.2612 232.3692 235.8013 238.9093 240.6593 242.6053 246.1053 249.2133"
             y="0"
             sodipodi:role="line"
             id="tspan298">10.I just ﬁnished refactoring a module that used the dyadic form. I was able to make the </tspan></text>
        <text
           xml:space="preserve"
           transform="matrix(0.79948586,0,0,-1,330.553,76.111)"
           style="font-variant:normal;font-weight:normal;font-size:7.002px;font-family:'Courier New';-inkscape-font-specification:Courier;writing-mode:lr-tb;fill:#231f20;fill-opacity:1;fill-rule:nonzero;stroke:none"
           id="text304"><tspan
             x="0 4.2012 8.4024 12.6036 16.8048 21.006001 25.207199 29.4084 33.6096 37.810799 42.012001 46.2132"
             y="0"
             sodipodi:role="line"
             id="tspan302">outputStream</tspan></text>
        <text
           xml:space="preserve"
           transform="matrix(1,0,0,-1,372.512,76.111)"
           style="font-variant:normal;font-weight:normal;font-size:7px;font-family:'Times New Roman';-inkscape-font-specification:TimesNewRomanPS;writing-mode:lr-tb;fill:#231f20;fill-opacity:1;fill-rule:nonzero;stroke:none"
           id="text310"><tspan
             x="0 3.108 4.8579998 8.75 11.858 13.804 17.304001 19.054001 22.554001 24.885 26.635 28.580999 32.081001 35.188999 36.938999 40.047001 41.993 45.101002 47.824001 50.547001 52.297001 55.404999 58.904999 62.404999"
             y="0"
             sodipodi:role="line"
             id="tspan306">a ﬁeld of the class and </tspan><tspan
             x="-280.59219 -277.48419 -273.98419 -270.76349 -267.3671 -264.25909 -261.79019 -259.84421 -258.09421 -254.98621 -253.04021 -251.09419 -249.34419 -247.39819 -243.89819 -240.79021"
             y="8.0003004"
             sodipodi:role="line"
             id="tspan308">convert all the </tspan></text>
        <text
           xml:space="preserve"
           transform="matrix(0.79948586,0,0,-1,133.415,68.111)"
           style="font-variant:normal;font-weight:normal;font-size:7.002px;font-family:'Courier New';-inkscape-font-specification:Courier;writing-mode:lr-tb;fill:#231f20;fill-opacity:1;fill-rule:nonzero;stroke:none"
           id="text314"><tspan
             x="0 4.2012 8.4024 12.6036 16.8048 21.006001 25.207199 29.4084 33.6096 37.810799"
             y="0"
             sodipodi:role="line"
             id="tspan312">writeField</tspan></text>
        <text
           xml:space="preserve"
           transform="matrix(1,0,0,-1,168.673,68.111)"
           style="font-variant:normal;font-weight:normal;font-size:7px;font-family:'Times New Roman';-inkscape-font-specification:TimesNewRomanPS;writing-mode:lr-tb;fill:#231f20;fill-opacity:1;fill-rule:nonzero;stroke:none"
           id="text318"><tspan
             x="0 3.108 6.2160001 8.1619997 10.108 12.831 14.581 16.527 20.027 21.777 23.723 27.223 30.330999 32.081001 37.527 41.027 44.527 47.634998 51.134998 53.081001 56.188999 57.938999 60.27 63.77 66.238899 71.684898 73.434898 74.835602 79.112602 82.612602 85.720596 87.470596 89.801598 92.909599 95.632599 99.132599 101.0786 103.0246 104.7746 109.655 112.763 115.486 117.236 122.682 126.182 129.28999 132.78999 134.53999 137.64799 139.59399 142.702 145.81 149.31 152.418 154.364"
             y="0"
             sodipodi:role="line"
             id="tspan316">calls to the monadic form. The result was much cleaner.</tspan></text>
        <g
           id="g320">
          <g
             id="g322"
             clip-path="url(#clipPath326)">
            <path
               d="m -37.08,664.778 h 36 m -36,-666 h 36 m 522,0 h 36 m -36,666 h 36 m -549,45 v -36 m 504,36 v -36 m 0,-684 v -36 m -504,36 v -36"
               style="fill:none;stroke:#ffffff;stroke-width:0.75;stroke-linecap:butt;stroke-linejoin:miter;stroke-miterlimit:10;stroke-dasharray:none;stroke-opacity:1"
               id="path328" />
            <path
               d="m -37.08,664.778 h 36 m -36,-666 h 36 m 522,0 h 36 m -36,666 h 36 m -549,45 v -36 m 504,36 v -36 m 0,-684 v -36 m -504,36 v -36 m -12,378 c 0,3.312 -2.688,6 -6,6 -3.312,0 -6,-2.688 -6,-6 0,-3.312 2.688,-6 6,-6 3.312,0 6,2.688 6,6 z m -24,0 h 27 m -9,24 v -48 m 545.94,24 c 0,3.312 -2.688,6 -6,6 -3.312,0 -6,-2.688 -6,-6 0,-3.312 2.688,-6 6,-6 3.312,0 6,2.688 6,6 z m -14.94,0 h 27 m -18,24 v -48 m -534,345 c 0,3.312 -2.688,6 -6,6 -3.312,0 -6,-2.688 -6,-6 0,-3.312 2.688,-6 6,-6 3.312,0 6,2.688 6,6 z m -24,0 h 27 m -9,9 v -33 m 6,-618 c 0,3.312 -2.688,6 -6,6 -3.312,0 -6,-2.688 -6,-6 0,-3.312 2.688,-6 6,-6 3.312,0 6,2.688 6,6 z m -24,0 h 27 m -9,24 v -33 m 545.94,651 c 0,3.312 -2.688,6 -6,6 -3.312,0 -6,-2.688 -6,-6 0,-3.312 2.688,-6 6,-6 3.312,0 6,2.688 6,6 z m -14.94,0 h 27 m -18,9 v -33 m 5.94,-618 c 0,3.312 -2.688,6 -6,6 -3.312,0 -6,-2.688 -6,-6 0,-3.312 2.688,-6 6,-6 3.312,0 6,2.688 6,6 z m -14.94,0 h 27 m -18,24 v -33"
               style="fill:none;stroke:#000000;stroke-width:0.25;stroke-linecap:butt;stroke-linejoin:miter;stroke-miterlimit:10;stroke-dasharray:none;stroke-opacity:1"
               id="path330" />
          </g>
        </g>
      </g>
    </g>
    <g
       id="g332">
      <g
         id="g334"
         transform="translate(218,6.56)">
        <text
           xml:space="preserve"
           transform="scale(1,-1)"
           style="font-variant:normal;font-weight:normal;font-size:10px;font-family:Helvetica;-inkscape-font-specification:Helvetica;writing-mode:lr-tb;fill:#0000ff;fill-opacity:1;fill-rule:nonzero;stroke:none"
           id="text338"><tspan
             x="0 7.2199998 14.44 21.66 24.440001 26.66 29.440001 32.77 38.330002 43.889999 49.450001 55.009998 60.009998 65.010002 67.790001 70.010002 75.57 78.349998"
             y="0"
             sodipodi:role="line"
             id="tspan336">www.it-ebooks.info</tspan></text>
        <g
           id="g340"
           transform="translate(-218,-6.56)" />
      </g>
    </g>
  </g>
</svg>
