<?xml version="1.0" encoding="UTF-8" standalone="no"?>
<!-- Created with Inkscape (http://www.inkscape.org/) -->

<svg
   version="1.1"
   id="svg2"
   width="690.14398"
   height="888.47998"
   viewBox="0 0 690.14398 888.47998"
   sodipodi:docname="4PmrqTPDrJV6cyWn.pdf"
   xmlns:inkscape="http://www.inkscape.org/namespaces/inkscape"
   xmlns:sodipodi="http://sodipodi.sourceforge.net/DTD/sodipodi-0.dtd"
   xmlns="http://www.w3.org/2000/svg"
   xmlns:svg="http://www.w3.org/2000/svg">
  <defs
     id="defs6">
    <clipPath
       clipPathUnits="userSpaceOnUse"
       id="clipPath184">
      <path
         d="M 0,665.858 H 519.84 V 0 H 0 Z"
         id="path182" />
    </clipPath>
  </defs>
  <sodipodi:namedview
     id="namedview4"
     pagecolor="#ffffff"
     bordercolor="#000000"
     borderopacity="0.25"
     inkscape:showpageshadow="2"
     inkscape:pageopacity="0.0"
     inkscape:pagecheckerboard="0"
     inkscape:deskcolor="#d1d1d1" />
  <g
     id="g8"
     inkscape:groupmode="layer"
     inkscape:label="4PmrqTPDrJV6cyWn"
     transform="matrix(1.3333333,0,0,-1.3333333,-1.46,887.61333)">
    <g
       id="g10">
      <g
         id="g12">
        <text
           xml:space="preserve"
           transform="matrix(1,0,0,-1,79.92,622.111)"
           style="font-variant:normal;font-weight:normal;font-size:10px;font-family:'Times New Roman';-inkscape-font-specification:TimesNewRomanPS;writing-mode:lr-tb;fill:#231f20;fill-opacity:1;fill-rule:nonzero;stroke:none"
           id="text16"><tspan
             x="0 5"
             y="0"
             sodipodi:role="line"
             id="tspan14">44</tspan></text>
        <text
           xml:space="preserve"
           transform="matrix(1,0,0,-1,348.831,622.111)"
           style="font-variant:normal;font-weight:bold;font-size:10px;font-family:'Times New Roman';-inkscape-font-specification:TimesNewRomanPS-Bold;writing-mode:lr-tb;fill:#231f20;fill-opacity:1;fill-rule:nonzero;stroke:none"
           id="text20"><tspan
             x="0 7.2199998 12.78 17.780001 23.34 26.67 31.110001 35.549999 38.199001 43.199001 46.230999 48.880001 54.990002 60.549999 66.110001 70.550003 73.879997 76.660004 81.660004 87.220001"
             y="0"
             sodipodi:role="line"
             id="tspan18">Chapter 3: Functions</tspan></text>
        <text
           xml:space="preserve"
           transform="matrix(1,0,0,-1,79.92,583.445)"
           style="font-variant:normal;font-weight:bold;font-size:14px;font-family:'Times New Roman';-inkscape-font-specification:TimesNewRomanPS-Bold;writing-mode:lr-tb;fill:#231f20;fill-opacity:1;fill-rule:nonzero;stroke:none"
           id="text24"><tspan
             x="0 10.892 17.194799 23.777599 29.993601 33.493599 43.601601 50.601601 54.101601 61.885601 65.777603 73.5616 79.777603 83.277603 92.615601 97.277603 101.9396 108.1556 114.3716 119.0336"
             y="0"
             sodipodi:role="line"
             id="tspan22">Have No Side Effects</tspan></text>
        <text
           xml:space="preserve"
           transform="matrix(1,0,0,-1,79.92,560.1111)"
           style="font-variant:normal;font-weight:normal;font-size:10px;font-family:'Times New Roman';-inkscape-font-specification:TimesNewRomanPS;writing-mode:lr-tb;fill:#231f20;fill-opacity:1;fill-rule:nonzero;stroke:none"
           id="text28"><tspan
             x="0 5.5609999 8.342 13.343 17.784 20.528999 24.969999 28.051001 31.382 35.823002 40.264 43.044998 46.936001 49.681 54.122002 57.452999 61.894001 64.639 67.419998 70.200996 74.641998 78.532997 81.033997 82.880997 88.501999 93.502998 98.503998 101.835 104.58 107.911 112.912 117.913 122.354 125.135 127.916 132.91701 137.918 140.66299 145.664 148.995 153.996 161.77699 164.558 168.44901 172.89 176.78101 179.526 182.30701 187.308 190.05299 195.054 200.05499 202.8 207.80099 212.802 217.243 219.98801 222.769 227.77 230.55099 235.552 240.55299 243.054 245.799 250.8 255.80099 258.582 261.327 264.108 266.88901 269.634 274.07501 276.85599 280.74701 285.74799 288.49301 293.49399 298.495 302.936 306.827 309.57199 314.573 317.354 322.35501 326.79599 330.12701"
             y="0"
             sodipodi:role="line"
             id="tspan26">Side effects are lies. Your function promises to do one thing, but it also does other </tspan></text>
        <text
           xml:space="preserve"
           transform="matrix(1,0,0,-1,412.703,560.1111)"
           style="font-style:italic;font-variant:normal;font-size:10px;font-family:'Times New Roman';-inkscape-font-specification:TimesNewRomanPS-Italic;writing-mode:lr-tb;fill:#231f20;fill-opacity:1;fill-rule:nonzero;stroke:none"
           id="text32"><tspan
             x="0 5 7.7800002 12.78 17.780001 22.219999"
             y="0"
             sodipodi:role="line"
             id="tspan30">hidden</tspan></text>
        <text
           xml:space="preserve"
           transform="matrix(1,0,0,-1,79.92,548.1111)"
           style="font-variant:normal;font-weight:normal;font-size:10px;font-family:'Times New Roman';-inkscape-font-specification:TimesNewRomanPS;writing-mode:lr-tb;fill:#231f20;fill-opacity:1;fill-rule:nonzero;stroke:none"
           id="text46"><tspan
             x="0 2.78 7.7800002 10.56 15.56 20.559999 24.450001 26.950001 31.273001 36.833 41.833 49.612999 54.053001 56.833 59.612999 67.392998 71.833 75.723 80.045998 82.825996 85.606003 89.929001 97.149002 99.929001 102.709 105.489 109.812 117.592 122.032 126.934 131.37399 135.69701 140.69701 145.69701 149.98801 154.98801 159.98801 164.42799 168.868 171.64799 176.088 181.088 185.411 189.851 194.851 199.291 204.291 209.291 213.731 217.621 221.944 224.724 229.724 234.047 236.827 241.827 246.267 250.59 255.341 259.78101 263.11099 265.89099 270.33099 275.133 277.91299 282.353 286.24301 290.56601 295.56601 298.896 303.21899 305.99899 308.77899 312.66901 316.992 321.59399 328.814 333.814 338.13699 342.577 345.35699 349.797 353.68701 357.577"
             y="0"
             sodipodi:role="line"
             id="tspan34">things. Sometimes it will make unexpected changes to the variables of its own class.</tspan><tspan
             x="0 5.5599999 10.56 18.34 22.780001 25.559999 28.34 36.119999 40.560001 44.450001 47.203999 49.984001 52.764 55.518002 62.737999 65.517998 68.297997 71.078003 73.832001 81.612 86.052002 90.954002 95.393997 98.148003 100.928 105.928 110.368 118.148 120.902 123.682 128.68201 131.436 134.216 139.216 143.65601 146.41 151.41 155.85001 159.17999 163.62 171.39999 175.84 178.62 183.06 186.39 190.28 193.034 198.034 202.474 206.364 210.254 214.694 219.694 222.448 225.228 230.228 233.008 238.008 240.76199 243.54201 248.54201 252.98199 255.73599 259.06601 264.06601 269.06601 273.50601 276.28601 279.06601 284.06601 289.06601 291.82001 296.82001 300.14999 302.90399 305.68399 310.68399 313.43799 317.328 322.328 326.21799 328.99799 333.43799 341.21799 343.97198 348.97198 351.75201 356.75201"
             y="12"
             sodipodi:role="line"
             id="tspan36">Sometimes it will make them to the parameters passed into the function or to system glo-</tspan><tspan
             x="0 5 9.4399996 12.22 16.110001 18.610001 21.987 25.316999 30.316999 33.694 38.133999 40.914001 43.694 48.694 53.133999 56.464001 59.841 64.280998 68.721001 72.611 77.051003 80.428001 83.208 88.208 92.499001 97.499001 100.876 105.316 108.646 113.086 116.463 121.463 125.654 130.65401 133.43401 138.43401 143.43401 147.32401 150.701 155.14101 160.14101 165.14101 168.51801 173.51801 177.95799 185.73801 190.17799 195.17799 197.95799 202.95799 207.95799 211.33501 219.11501 221.895 225.785 228.565 232.093 237.093 239.873 244.873 248.763 252.14 254.92 259.92001 264.35999 267.14001 270.517 275.517 278.84698 281.62701 286.06699 291.06699 294.444 297.77399 302.21399 306.104 311.104 313.884 316.664 320.04099 322.82101 327.82101 331.198 335.08801 337.86801 341.198 345.638 350.638 355.638"
             y="24"
             sodipodi:role="line"
             id="tspan38">bals. In either case they are devious and damaging mistruths that often result in strange</tspan><tspan
             x="0 2.78 7.2199998 15 20 25 28.33 32.77 35.549999 38.049999 42.490002 47.490002 52.490002 57.490002 60.27 63.049999 68.050003 73.050003 76.940002 79.440002 83.879997 88.879997 93.879997 96.379997 101.38 104.71 109.71 114.15 117.48 119.98 124.98 129.42 134.42 138.86 143.86 148.86 153.3 158.3 162.74001 165.52 169.96001 173.85001 176.35001"
             y="36"
             sodipodi:role="line"
             id="tspan40">temporal couplings and order dependencies. </tspan><tspan
             x="18 24.67 29.67 34.669998 38.560001 41.34 46.34 50.779999 53.712002 56.212002 58.564999 61.895 66.894997 70.224998 72.578003 76.869003 81.869003 86.308998 94.088997 99.088997 101.869 106.309 108.809 111.162 113.942 118.942 123.382 125.735 129.625 134.065 138.505 146.285 149.065 154.065 159.065 161.59599 166.59599 168.94901 171.729 176.729 181.729 186.729 191.16901 196.16901 201.16901 206.16901 210.05901 212.412 215.742 220.742 225.742 230.18201 232.96201 235.742 240.742 245.742 248.095 250.875 255.875 258.228 264.33801 267.11801 271.008 273.78799 276.56799 281.56799 286.56799 288.92099 293.92099 297.25101 302.25101 304.75101 306.60599 312.716 317.716 320.496 324.38599 326.73901 330.069 335.069 340.069 344.509 347.289 350.069 355.069"
             y="51"
             sodipodi:role="line"
             id="tspan42">Consider, for example, the seemingly innocuous function in Listing 3-6. This function</tspan><tspan
             x="0 5 8.8900003 13.33 17.219999 20.115 24.555 27.450001 31.34 34.119999 38.560001 43.560001 48.560001 53 56.330002 61.330002 64.224998 68.665001 71.445 76.445 81.445 84.775002 87.555 90.334999 95.334999 103.115 106.01 108.79 113.79 116.685 124.465 128.905 131.685 136.125 141.125 144.02 148.46001"
             y="63"
             sodipodi:role="line"
             id="tspan44">uses a standard algorithm to match a </tspan></text>
        <text
           xml:space="preserve"
           transform="matrix(0.80015552,0,0,-1,231.244,485.1111)"
           style="font-variant:normal;font-weight:normal;font-size:9.002px;font-family:'Courier New';-inkscape-font-specification:Courier;writing-mode:lr-tb;fill:#231f20;fill-opacity:1;fill-rule:nonzero;stroke:none"
           id="text50"><tspan
             x="0 5.4011998 10.8024 16.2036 21.604799 27.006001 32.4072 37.808399"
             y="0"
             sodipodi:role="line"
             id="tspan48">userName</tspan></text>
        <text
           xml:space="preserve"
           transform="matrix(1,0,0,-1,268.631,485.1111)"
           style="font-variant:normal;font-weight:normal;font-size:10px;font-family:'Times New Roman';-inkscape-font-specification:TimesNewRomanPS;writing-mode:lr-tb;fill:#231f20;fill-opacity:1;fill-rule:nonzero;stroke:none"
           id="text54"><tspan
             x="0 2.78 7.7800002 10.675 15.115"
             y="0"
             sodipodi:role="line"
             id="tspan52">to a </tspan></text>
        <text
           xml:space="preserve"
           transform="matrix(0.80015552,0,0,-1,286.638,485.1111)"
           style="font-variant:normal;font-weight:normal;font-size:9.002px;font-family:'Courier New';-inkscape-font-specification:Courier;writing-mode:lr-tb;fill:#231f20;fill-opacity:1;fill-rule:nonzero;stroke:none"
           id="text58"><tspan
             x="0 5.4011998 10.8024 16.2036 21.604799 27.006001 32.4072 37.808399"
             y="0"
             sodipodi:role="line"
             id="tspan56">password</tspan></text>
        <text
           xml:space="preserve"
           transform="matrix(1,0,0,-1,321.13,485.1111)"
           style="font-variant:normal;font-weight:normal;font-size:10px;font-family:'Times New Roman';-inkscape-font-specification:TimesNewRomanPS;writing-mode:lr-tb;fill:#231f20;fill-opacity:1;fill-rule:nonzero;stroke:none"
           id="text62"><tspan
             x="0 2.5 5.395 8.7250004 11.505 14.4 17.73 22.17 24.950001 29.950001 33.478001 38.478001 42.368"
             y="0"
             sodipodi:role="line"
             id="tspan60">. It returns </tspan></text>
        <text
           xml:space="preserve"
           transform="matrix(0.80015552,0,0,-1,366.381,485.1111)"
           style="font-variant:normal;font-weight:normal;font-size:9.002px;font-family:'Courier New';-inkscape-font-specification:Courier;writing-mode:lr-tb;fill:#231f20;fill-opacity:1;fill-rule:nonzero;stroke:none"
           id="text66"><tspan
             x="0 5.4011998 10.8024 16.2036"
             y="0"
             sodipodi:role="line"
             id="tspan64">true</tspan></text>
        <text
           xml:space="preserve"
           transform="matrix(1,0,0,-1,386.521,485.1111)"
           style="font-variant:normal;font-weight:normal;font-size:10px;font-family:'Times New Roman';-inkscape-font-specification:TimesNewRomanPS;writing-mode:lr-tb;fill:#231f20;fill-opacity:1;fill-rule:nonzero;stroke:none"
           id="text72"><tspan
             x="0 2.78 6.1100001 9.0050001 11.785 16.785 21.076 26.076 28.971001 36.750999 41.191002 43.971001 48.410999"
             y="0"
             sodipodi:role="line"
             id="tspan68">if they match</tspan><tspan
             x="-306.60101 -302.16101 -297.16101"
             y="12"
             sodipodi:role="line"
             id="tspan70">and</tspan></text>
        <text
           xml:space="preserve"
           transform="matrix(0.80015552,0,0,-1,96.858,473.1111)"
           style="font-variant:normal;font-weight:normal;font-size:9.002px;font-family:'Courier New';-inkscape-font-specification:Courier;writing-mode:lr-tb;fill:#231f20;fill-opacity:1;fill-rule:nonzero;stroke:none"
           id="text76"><tspan
             x="0 5.4011998 10.8024 16.2036 21.604799"
             y="0"
             sodipodi:role="line"
             id="tspan74">false</tspan></text>
        <text
           xml:space="preserve"
           transform="matrix(1,0,0,-1,120.916,473.1111)"
           style="font-variant:normal;font-weight:normal;font-size:10px;font-family:'Times New Roman';-inkscape-font-specification:TimesNewRomanPS;writing-mode:lr-tb;fill:#231f20;fill-opacity:1;fill-rule:nonzero;stroke:none"
           id="text82"><tspan
             x="0 2.78 6.1100001 8.6099997 13.05 17.801001 22.801001 25.580999 30.580999 33.361 38.361 43.361 45.861 50.861 55.861 60.300999 64.191002 66.691002 73.911003 77.240997 82.240997 87.240997 92.240997 94.740997 97.240997 103.911 108.911 111.691 114.191 116.971 119.751 122.251 126.691 129.47099 133.36099 138.36099 140.86099 145.86099 150.30099 154.19099 156.69099 161.131 163.631 167.521 170.30099 175.30099 179.741 182.241 186.681 189.76199 193.092 197.532 201.972 204.752 207.252 209.752 216.422 220.862 225.862 228.362 233.164 238.164 243.164 245.664 249.554 254.554 259.55399 262.33401 264.83401 267.61401 270.39401"
             y="0"
             sodipodi:role="line"
             id="tspan78">if anything goes wrong. But it also has a side effect. Can you spot it?</tspan><tspan
             x="-22.996 -16.886 -11.886 -7.4460001 -5.0370002 -1.147 1.633 6.6329999 11.073 13.482 17.922001 21.003 24.333 28.773001 33.213001 35.993 38.402 41.181999 45.071999 47.480999 50.261002 55.261002 59.701 62.110001 66.550003 70.989998 73.769997 76.550003 78.959 81.738998 86.738998"
             y="244.99899"
             sodipodi:role="line"
             id="tspan80">The side effect is the call to </tspan></text>
        <text
           xml:space="preserve"
           transform="matrix(0.80015552,0,0,-1,210.033,228.1121)"
           style="font-variant:normal;font-weight:normal;font-size:9.002px;font-family:'Courier New';-inkscape-font-specification:Courier;writing-mode:lr-tb;fill:#231f20;fill-opacity:1;fill-rule:nonzero;stroke:none"
           id="text86"><tspan
             x="0 5.4011998 10.8024 16.2036 21.604799 27.006001 32.4072 37.808399 43.209599 48.610802 54.012001 59.4132 64.8144 70.215599 75.616798 81.017998 86.419197 91.820396 97.221603 102.6228"
             y="0"
             sodipodi:role="line"
             id="tspan84">Session.initialize()</tspan></text>
        <text
           xml:space="preserve"
           transform="matrix(1,0,0,-1,296.262,228.1121)"
           style="font-variant:normal;font-weight:normal;font-size:10px;font-family:'Times New Roman';-inkscape-font-specification:TimesNewRomanPS;writing-mode:lr-tb;fill:#231f20;fill-opacity:1;fill-rule:nonzero;stroke:none"
           id="text90"><tspan
             x="0 2.5 4.9089999 9.9090004 13.239 15.648 20.087999 25.087999 30.087999 33.417999 37.307999 41.748001 44.248001 46.159 52.269001 57.269001 61.709"
             y="0"
             sodipodi:role="line"
             id="tspan88">, of course. The </tspan></text>
        <text
           xml:space="preserve"
           transform="matrix(0.80015552,0,0,-1,360.368,228.1121)"
           style="font-variant:normal;font-weight:normal;font-size:9.002px;font-family:'Courier New';-inkscape-font-specification:Courier;writing-mode:lr-tb;fill:#231f20;fill-opacity:1;fill-rule:nonzero;stroke:none"
           id="text94"><tspan
             x="0 5.4011998 10.8024 16.2036 21.604799 27.006001 32.4072 37.808399 43.209599 48.610802 54.012001 59.4132 64.8144"
             y="0"
             sodipodi:role="line"
             id="tspan92">checkPassword</tspan></text>
        <text
           xml:space="preserve"
           transform="matrix(1,0,0,-1,418.826,228.1121)"
           style="font-variant:normal;font-weight:normal;font-size:10px;font-family:'Times New Roman';-inkscape-font-specification:TimesNewRomanPS;writing-mode:lr-tb;fill:#231f20;fill-opacity:1;fill-rule:nonzero;stroke:none"
           id="text108"><tspan
             x="0 3.3299999 8.3299999 13.33 17.77"
             y="0"
             sodipodi:role="line"
             id="tspan96">func-</tspan><tspan
             x="-338.90601 -336.12601 -333.34601 -328.34601 -323.34601 -320.84601 -318.259 -313.508 -308.508 -305.92099 -303.14099 -300.36099 -296.47101 -293.884 -288.884 -284.444 -276.664 -272.224 -269.724 -267.13699 -263.24701 -259.15601 -254.15601 -250.26601 -247.679 -244.899 -239.899 -235.459 -232.679 -230.092 -227.312 -224.532 -221.94501 -217.505 -212.505 -208.065 -203.625 -198.625 -194.735 -192.14799 -189.368 -184.368 -179.92799 -177.341 -172.341 -167.901 -164.011 -160.319 -153.49699 -148.49699 -145.16701 -140.16701 -137.66701 -135.578 -129.468 -124.468 -120.028 -117.441 -112.441 -108.001 -100.221 -95.780998 -93.194 -88.194 -83.194 -78.753998 -74.863998 -72.277 -67.277 -62.277 -59.497002 -56.91 -54.130001 -46.349998 -41.349998 -38.819 -33.819 -31.232 -28.452 -23.452 -19.011999 -16.232 -13.645 -10.865 -8.085 -5.4980001 -2.7179999 2.2820001 5.0619998 7.842 10.622 15.062 17.841999"
             y="12"
             sodipodi:role="line"
             id="tspan98">tion, by its name, says that it checks the password. The name does not imply that it initial-</tspan><tspan
             x="-338.90601 -336.12601 -331.686 -327.246 -323.35599 -320.66199 -317.88199 -312.88199 -308.44199 -305.74799 -301.858 -297.418 -293.52802 -289.638 -286.858 -281.858 -276.858 -274.358 -271.664 -266.104 -261.104 -258.41 -253.97 -251.276 -246.836 -242.396 -239.616 -236.836 -232.396 -229.06599 -226.37199 -219.35001 -214.35001 -209.35001 -206.65601 -201.65601 -197.216 -194.436 -191.65601 -187.465 -182.614 -178.174 -174.284 -171.59 -164.56799 -159.56799 -155.12801 -152.34801 -149.65401 -146.87399 -141.87399 -137.43401 -134.74001 -129.74001 -125.3 -117.52 -113.08 -110.386 -105.386 -102.056 -99.362 -96.582001 -91.582001 -87.141998 -84.447998 -81.117996 -76.117996 -71.117996 -66.678001 -63.897999 -61.118 -56.118 -51.118 -48.424 -44.534 -40.443001 -35.443001 -31.552999 -28.858999 -25.330999 -20.330999 -15.331 -11.441 -8.7469997 -5.967 -0.96700001 3.473 6.1669998 9.4969997 12.277 16.167"
             y="24"
             sodipodi:role="line"
             id="tspan100">izes the session. So a caller who believes what the name of the function says runs the risk</tspan><tspan
             x="-338.90601 -333.90601 -330.57599 -327.02399 -322.58401 -319.254 -314.814 -310.92401 -308.14401 -303.14401 -298.14401 -294.59201 -291.81201 -286.81201 -282.37201 -278.82001 -274.52899 -269.52899 -266.74899 -262.85901 -260.07901 -257.29901 -252.299 -247.299 -243.74699 -239.85699 -235.41701 -231.52699 -227.63699 -224.85699 -219.85699 -214.85699 -211.30499 -206.30499 -201.86501 -199.08501 -194.645 -191.093 -184.071 -179.071 -174.631 -169.631 -166.07899 -161.07899 -156.63901 -153.08701 -148.08701 -144.757 -141.205 -137.315 -132.315 -127.875 -124.323 -119.323 -114.883 -110.443 -107.663 -102.663 -98.223 -94.333 -90.780998 -88.000999 -83.000999 -79.448997 -75.009003 -70.009003 -65.569 -61.129002 -56.129002 -52.577 -49.797001 -44.797001 -40.356998 -36.805 -32.054001 -27.614 -24.834 -22.054001 -17.054001 -14.274 -11.494 -6.494 -2.9419999 2.0580001 5.388 8.9399996 11.72 16.719999"
             y="36"
             sodipodi:role="line"
             id="tspan102">of erasing the existing session data when he or she decides to check the validity of the</tspan><tspan
             x="-338.90601 -333.90601 -330.01599 -325.57599 -322.79501"
             y="48"
             sodipodi:role="line"
             id="tspan104">user.</tspan><tspan
             x="-320.90601 -314.69601 -309.59601 -306.716 -302.72601 -298.47501 -294.48499 -291.60501 -286.505 -281.965 -277.71399 -273.17401 -269.99301 -266.56299 -262.02301 -257.483 -254.603 -250.35201 -245.812 -242.382 -237.842 -233.302 -230.422 -225.882 -221.892 -217.64101 -213.101 -208.85001 -205.97 -201.42999 -193.55 -188.45 -183.35001 -179.92 -175.38 -172.5 -168.24899 -163.709 -158.60899 -153.509 -148.409 -145.52901 -142.649 -137.549 -132.44901 -129.849 -126.096 -119.886 -114.786 -110.246 -107.366 -103.115 -100.235 -96.245003 -93.644997"
             y="63"
             sodipodi:role="line"
             id="tspan106">This side effect creates a temporal coupling. That is, </tspan></text>
        <text
           xml:space="preserve"
           transform="matrix(0.80015552,0,0,-1,329.374,165.112)"
           style="font-variant:normal;font-weight:normal;font-size:9.002px;font-family:'Courier New';-inkscape-font-specification:Courier;writing-mode:lr-tb;fill:#231f20;fill-opacity:1;fill-rule:nonzero;stroke:none"
           id="text112"><tspan
             x="0 5.4011998 10.8024 16.2036 21.604799 27.006001 32.4072 37.808399 43.209599 48.610802 54.012001 59.4132 64.8144"
             y="0"
             sodipodi:role="line"
             id="tspan110">checkPassword</tspan></text>
        <text
           xml:space="preserve"
           transform="matrix(1,0,0,-1,389.674,165.112)"
           style="font-variant:normal;font-weight:normal;font-size:10px;font-family:'Times New Roman';-inkscape-font-specification:TimesNewRomanPS;writing-mode:lr-tb;fill:#231f20;fill-opacity:1;fill-rule:nonzero;stroke:none"
           id="text126"><tspan
             x="0 4.54 9.0799999 14.18 18.431 23.531 28.631001 31.261999 36.362 40.612999 45.713001"
             y="0"
             sodipodi:role="line"
             id="tspan114">can only be</tspan><tspan
             x="-309.754 -305.21399 -300.67401 -297.79401 -294.914 -290.37399 -285.27399 -281.996 -277.45599 -274.57599 -271.298 -266.758 -262.21799 -258.59 -255.71001 -251.17 -248.28999 -243.19 -239.912 -237.032 -234.15199 -226.272 -221.73199 -217.742 -214.464 -211.034 -208.15401 -203.054 -199.776 -194.67599 -191.79601 -186.696 -182.15601 -178.726 -175.448 -168.526 -163.42599 -159.996 -154.896 -150.90601 -148.306 -145.028 -137.90601 -132.806 -128.26601 -123.166 -119.888 -117.008 -114.128 -110.85 -107.97 -103.98 -100.702 -96.711998 -92.171997 -88.741997 -84.202003 -80.924004 -78.043999 -72.944 -69.666 -66.786003 -61.686001 -58.806 -55.925999 -53.046001 -48.506001 -45.625999 -42.745998 -38.206001 -33.666 -30.388 -27.507999 -22.408001 -17.868 -14.59 -10.6 -6.0599999 -2.0699999 1.92 4.8000002 9.8999996 15 18.43 21.030001 24.308001 27.738001 31.167999 34.445999 37.326 40.206001 43.484001 46.363998"
             y="12"
             sodipodi:role="line"
             id="tspan116">called at certain times (in other words, when it is safe to initialize the session). If it is</tspan><tspan
             x="-309.754 -305.21399 -300.67401 -297.79401 -294.914 -290.37399 -285.27399 -282.44699 -277.34698 -272.24701 -269.367 -266.54001 -261.44 -258.01001 -255.183 -250.08299 -246.653 -241.55299 -237.013 -233.981 -231.381 -228.554 -224.564 -220.024 -216.034 -212.04401 -209.164 -204.064 -198.964 -196.13699 -191.037 -186.49699 -183.617 -179.077 -176.25 -168.37 -164.179 -159.07899 -156.252 -151.15199 -146.612 -143.785 -140.905 -135.80499 -131.265 -126.165 -121.214 -116.674 -113.046 -110.166 -105.626 -100.526 -97.646004 -95.014999 -89.915001 -87.087997 -84.208 -79.108002 -75.117996 -72.237999 -69.638 -67.308998 -62.098 -57.557999 -49.678001 -44.577999 -39.478001 -36.048 -31.507999 -28.628 -25.801001 -21.261 -16.160999 -11.061 -5.961 -3.0810001 -0.20100001 4.8990002 9.9989996 13.989 16.816 21.356001 24.785999 29.326 32.153 36.693001 41.792999 46.893002"
             y="24"
             sodipodi:role="line"
             id="tspan118">called out of order, session data may be inadvertently lost. Temporal couplings are con-</tspan><tspan
             x="-309.754 -306.32401 -301.224 -297.23401 -294.354 -289.254 -284.15399 -281.55399 -278.24899 -273.70901 -269.71899 -264.61899 -260.07901 -255.539 -252.659 -248.119 -245.239 -242.608 -237.508 -234.203 -227.08099 -221.981 -217.44099 -212.341 -209.036 -203.936 -201.056 -195.95599 -190.856 -186.31599 -181.216 -177.911 -173.371 -169.381 -166.076 -161.536 -158.231 -154.241 -151.36099 -146.261 -141.72099 -138.416 -133.87601 -130.69501 -127.265 -122.725 -118.185 -115.305 -112.705 -109.4 -105.97 -102.54 -99.235001 -94.333 -89.233002 -84.133003 -80.828003 -72.947998 -67.848 -63.858002 -60.978001 -57.673 -52.573002 -48.382 -43.431 -38.890999 -35.585999 -31.046 -27.740999 -24.861 -20.320999 -12.441 -7.3410001 -2.2409999 1.189 5.7290001 8.6090002 11.914 16.454 21.554001 26.653999 31.754 34.633999 37.514 42.613998 47.714001"
             y="36"
             sodipodi:role="line"
             id="tspan120">fusing, especially when hidden as a side effect. If you must have a temporal coupling,</tspan><tspan
             x="-309.754 -304.85199 -299.75201 -294.65201 -291.66299 -287.673 -282.573 -277.47299 -272.37299 -269.49301 -264.39301 -261.40399 -253.524 -248.98399 -243.98199 -239.442 -236.453 -233.573 -230.69299 -227.70399 -223.164 -220.284 -215.744 -211.20399 -207.774 -204.785 -201.905 -196.80499 -193.81599 -190.936 -185.836 -181.29601 -178.30701 -173.207 -168.66701 -160.787 -156.24699 -153.258 -148.158 -144.728 -141.739 -138.85899 -133.759 -129.21899 -126.23 -122.8 -117.7 -112.6 -108.06 -105.18 -102.3 -97.199997 -92.099998 -89.5 -86.511002 -83.081001 -77.981003 -74.991997 -72.112 -67.012001 -64.132004 -60.141998 -57.153 -52.612999 -48.073002 -44.083 -39.542999 -36.554001 -29.583 -25.042999 -22.054001 -14.174 -11.294 -6.1939998 -1.094 1.786 4.7750001 8.2049999 12.745 17.844999 22.385 30.264999 34.805 37.793999 40.674 45.773998"
             y="48"
             sodipodi:role="line"
             id="tspan122">you should make it clear in the name of the function. In this case we might rename the</tspan><tspan
             x="-309.754 -306.32401 -301.224 -296.12399 -291.58401 -288.70401 -285.82401 -280.724"
             y="60"
             sodipodi:role="line"
             id="tspan124">function</tspan></text>
        <text
           xml:space="preserve"
           transform="matrix(0.80015552,0,0,-1,119.443,105.112)"
           style="font-variant:normal;font-weight:normal;font-size:9.002px;font-family:'Courier New';-inkscape-font-specification:Courier;writing-mode:lr-tb;fill:#231f20;fill-opacity:1;fill-rule:nonzero;stroke:none"
           id="text130"><tspan
             x="0 5.4011998 10.8024 16.2036 21.604799 27.006001 32.4072 37.808399 43.209599 48.610802 54.012001 59.4132 64.8144 70.044563 75.445763 80.846962 86.248161 91.649361 97.05056 102.45176 107.85296 113.25417 118.65536 124.05656 129.45776 134.85896 140.26016 145.66136 151.06256 156.46376 161.86496 167.26616 172.66736"
             y="0"
             sodipodi:role="line"
             id="tspan128">checkPasswordAndInitializeSession</tspan></text>
        <text
           xml:space="preserve"
           transform="matrix(1,0,0,-1,261.721,105.112)"
           style="font-variant:normal;font-weight:normal;font-size:10px;font-family:'Times New Roman';-inkscape-font-specification:TimesNewRomanPS;writing-mode:lr-tb;fill:#231f20;fill-opacity:1;fill-rule:nonzero;stroke:none"
           id="text136"><tspan
             x="0 2.5999999 8.0010004 10.881 15.981 21.080999 26.181 31.281 36.381001 41.782001 44.661999 49.762001 54.301998 57.181999 62.583 67.123001 71.663002 75.291 78.170998 82.710999 85.591003 90.691002 93.321999 98.421997 103.823 108.923 111.803 116.903 119.783 124.323 127.203 131.743 135.733 141.134 145.674 152.994 158.09399 163.495 168.595 173.69501"
             y="0"
             sodipodi:role="line"
             id="tspan132">, though that certainly violates “Do one</tspan><tspan
             x="-181.80099 -178.92101 -173.821 -170.94099 -165.841 -160.741 -158.839"
             y="12"
             sodipodi:role="line"
             id="tspan134">thing.”</tspan></text>
        <text
           xml:space="preserve"
           transform="matrix(1,0,0,-1,97.92,445.111)"
           style="font-variant:normal;font-weight:bold;font-size:10px;font-family:'Times New Roman';-inkscape-font-specification:TimesNewRomanPS-Bold;writing-mode:lr-tb;fill:#231f20;fill-opacity:1;fill-rule:nonzero;stroke:none"
           id="text140"><tspan
             x="0 6.6700001 9.4499998 13.34 16.67 19.450001 25.01 30.01 32.509998 37.509998 40.84"
             y="0"
             sodipodi:role="line"
             id="tspan138">Listing 3-6</tspan></text>
        <text
           xml:space="preserve"
           transform="matrix(1,0,0,-1,97.92,432.112)"
           style="font-variant:normal;font-weight:bold;font-size:10px;font-family:'Courier New';-inkscape-font-specification:Courier-Bold;writing-mode:lr-tb;fill:#231f20;fill-opacity:1;fill-rule:nonzero;stroke:none"
           id="text144"><tspan
             x="0 6 12 18 24 30 36 42 48 54 60 66 72 78 84 90 96 102"
             y="0"
             sodipodi:role="line"
             id="tspan142">UserValidator.java</tspan></text>
        <text
           xml:space="preserve"
           transform="matrix(0.80015552,0,0,-1,97.92,419.778)"
           style="font-variant:normal;font-weight:normal;font-size:9.002px;font-family:'Courier New';-inkscape-font-specification:Courier;writing-mode:lr-tb;fill:#231f20;fill-opacity:1;fill-rule:nonzero;stroke:none"
           id="text176"><tspan
             x="0 5.4011998 10.8024 16.2036 21.604799 27.006001 32.4072 37.808399 43.209599 48.610802 54.012001 59.4132 64.8144 70.215599 75.616798 81.017998 86.419197 91.820396 97.221603 102.6228 108.024 113.4252 118.8264 124.2276 129.6288 135.03 140.4312 145.8324"
             y="0"
             sodipodi:role="line"
             id="tspan146">public class UserValidator {</tspan><tspan
             x="0 10.8024 16.2036 21.604799 27.006001 32.4072 37.808399 43.209599 48.610802 54.012001 59.4132 64.8144 70.215599 75.616798 81.017998 86.419197 91.820396 97.221603 102.6228 108.024 113.4252 118.8264 124.2276 129.6288 135.03 140.4312 145.8324 151.2336 156.6348 162.036 167.43719 172.83839 178.23959 183.64079 189.04201 194.44321 199.84441"
             y="9.0001993"
             sodipodi:role="line"
             id="tspan148"> private Cryptographer cryptographer;</tspan><tspan
             x="0 10.8024 16.2036 21.604799 27.006001 32.4072 37.808399 43.209599 48.610802 54.012001 59.4132 64.8144 70.215599 75.616798 81.017998 86.419197 91.820396 97.221603 102.6228 108.024 113.4252 118.8264 124.2276 129.6288 135.03 140.4312 145.8324 151.2336 156.6348 162.036 167.43719 172.83839 178.23959 183.64079 189.04201 194.44321 199.84441 205.24561 210.6468 216.048 221.4492 226.8504 232.2516 237.6528 243.054 248.4552 253.8564 259.2576 264.65881 270.06 275.46121 280.8624 286.26361 291.66479 297.06601 302.46719 307.86841 313.26959 318.67081 324.07199 329.47321 334.87439 340.2756 345.67679 351.078"
             y="31.000187"
             sodipodi:role="line"
             id="tspan150"> public boolean checkPassword(String userName, String password) {</tspan><tspan
             x="0 21.604799 27.006001 32.4072 37.808399 43.209599 48.610802 54.012001 59.4132 64.8144 70.215599 75.616798 81.017998 86.419197 91.820396 97.221603 102.6228 108.024 113.4252 118.8264 124.2276 129.6288 135.03 140.4312 145.8324 151.2336 156.6348 162.036 167.43719 172.83839 178.23959 183.64079 189.04201 194.44321 199.84441 205.24561 210.6468 216.048 221.4492 226.8504 232.2516 237.6528 243.054 248.4552 253.8564 259.2576"
             y="41.999729"
             sodipodi:role="line"
             id="tspan152"> User user = UserGateway.findByName(userName);</tspan><tspan
             x="0 21.604799 27.006001 32.4072 37.808399 43.209599 48.610802 54.012001 59.4132 64.8144 70.215599 75.616798 81.017998 86.419197 91.820396 97.221603 102.6228 108.024 113.4252 118.8264 124.2276 129.6288 135.03 140.4312 145.8324"
             y="52.998375"
             sodipodi:role="line"
             id="tspan154"> if (user != User.NULL) {</tspan><tspan
             x="0 32.4072 37.808399 43.209599 48.610802 54.012001 59.4132 64.8144 70.215599 75.616798 81.017998 86.419197 91.820396 97.221603 102.6228 108.024 113.4252 118.8264 124.2276 129.6288 135.03 140.4312 145.8324 151.2336 156.6348 162.036 167.43719 172.83839 178.23959 183.64079 189.04201 194.44321 199.84441 205.24561 210.6468 216.048 221.4492 226.8504 232.2516 237.6528 243.054 248.4552 253.8564 259.2576 264.65881 270.06 275.46121 280.8624 286.26361 291.66479 297.06601 302.46719 307.86841 313.26959 318.67081 324.07199"
             y="63.997917"
             sodipodi:role="line"
             id="tspan156"> String codedPhrase = user.getPhraseEncodedByPassword();</tspan><tspan
             x="0 32.4072 37.808399 43.209599 48.610802 54.012001 59.4132 64.8144 70.215599 75.616798 81.017998 86.419197 91.820396 97.221603 102.6228 108.024 113.4252 118.8264 124.2276 129.6288 135.03 140.4312 145.8324 151.2336 156.6348 162.036 167.43719 172.83839 178.23959 183.64079 189.04201 194.44321 199.84441 205.24561 210.6468 216.048 221.4492 226.8504 232.2516 237.6528 243.054 248.4552 253.8564 259.2576 264.65881 270.06 275.46121 280.8624 286.26361 291.66479 297.06601 302.46719 307.86841 313.26959 318.67081 324.07199 329.47321 334.87439 340.2756 345.67679 351.078 356.47919"
             y="74.996559"
             sodipodi:role="line"
             id="tspan158"> String phrase = cryptographer.decrypt(codedPhrase, password);</tspan><tspan
             x="0 32.4072 37.808399 43.209599 48.610802 54.012001 59.4132 64.8144 70.215599 75.616798 81.017998 86.419197 91.820396 97.221603 102.6228 108.024 113.4252 118.8264 124.2276 129.6288 135.03 140.4312 145.8324 151.2336 156.6348 162.036 167.43719 172.83839 178.23959 183.64079 189.04201 194.44321 199.84441 205.24561 210.6468 216.048 221.4492 226.8504 232.2516"
             y="85.997009"
             sodipodi:role="line"
             id="tspan160"> if (&quot;Valid Password&quot;.equals(phrase)) {</tspan><tspan
             x="0 43.209599 48.610802 54.012001 59.4132 64.8144 70.215599 75.616798 81.017998 86.419197 91.820396 97.221603 102.6228 108.024 113.4252 118.8264 124.2276 129.6288 135.03 140.4312 145.8324 151.2336"
             y="96.995651"
             sodipodi:role="line"
             id="tspan162"> Session.initialize();</tspan><tspan
             x="0 43.209599 48.610802 54.012001 59.4132 64.8144 70.215599 75.616798 81.017998 86.419197 91.820396 97.221603 102.6228"
             y="107.99609"
             sodipodi:role="line"
             id="tspan164"> return true;</tspan><tspan
             x="0 32.4072"
             y="118.99654"
             sodipodi:role="line"
             id="tspan166"> }</tspan><tspan
             x="0 21.604799"
             y="129.99518"
             sodipodi:role="line"
             id="tspan168"> }</tspan><tspan
             x="0 21.604799 27.006001 32.4072 37.808399 43.209599 48.610802 54.012001 59.4132 64.8144 70.215599 75.616798 81.017998 86.419197"
             y="140.99564"
             sodipodi:role="line"
             id="tspan170"> return false;</tspan><tspan
             x="0 10.8024"
             y="151.99426"
             sodipodi:role="line"
             id="tspan172"> }</tspan><tspan
             x="0"
             y="162.99471"
             id="tspan174">}</tspan></text>
        <g
           id="g178">
          <g
             id="g180"
             clip-path="url(#clipPath184)">
            <path
               d="m 79.92,454.653 v -202.75 m 361.333,202.75 V 251.903 M 79.795,454.778 h 361.583 m -361.583,-27 h 361.583 m -361.583,-176 h 361.583"
               style="fill:none;stroke:#231f20;stroke-width:0.25;stroke-linecap:butt;stroke-linejoin:miter;stroke-miterlimit:10;stroke-dasharray:none;stroke-opacity:1"
               id="path186" />
            <path
               d="m -37.08,664.778 h 36 m -36,-666 h 36 m 522,0 h 36 m -36,666 h 36 m -549,45 v -36 m 504,36 v -36 m 0,-684 v -36 m -504,36 v -36"
               style="fill:none;stroke:#ffffff;stroke-width:0.75;stroke-linecap:butt;stroke-linejoin:miter;stroke-miterlimit:10;stroke-dasharray:none;stroke-opacity:1"
               id="path188" />
            <path
               d="m -37.08,664.778 h 36 m -36,-666 h 36 m 522,0 h 36 m -36,666 h 36 m -549,45 v -36 m 504,36 v -36 m 0,-684 v -36 m -504,36 v -36 m -12,378 c 0,3.312 -2.688,6 -6,6 -3.312,0 -6,-2.688 -6,-6 0,-3.312 2.688,-6 6,-6 3.312,0 6,2.688 6,6 z m -24,0 h 27 m -9,24 v -48 m 545.94,24 c 0,3.312 -2.688,6 -6,6 -3.312,0 -6,-2.688 -6,-6 0,-3.312 2.688,-6 6,-6 3.312,0 6,2.688 6,6 z m -14.94,0 h 27 m -18,24 v -48 m -534,345 c 0,3.312 -2.688,6 -6,6 -3.312,0 -6,-2.688 -6,-6 0,-3.312 2.688,-6 6,-6 3.312,0 6,2.688 6,6 z m -24,0 h 27 m -9,9 v -33 m 6,-618 c 0,3.312 -2.688,6 -6,6 -3.312,0 -6,-2.688 -6,-6 0,-3.312 2.688,-6 6,-6 3.312,0 6,2.688 6,6 z m -24,0 h 27 m -9,24 v -33 m 545.94,651 c 0,3.312 -2.688,6 -6,6 -3.312,0 -6,-2.688 -6,-6 0,-3.312 2.688,-6 6,-6 3.312,0 6,2.688 6,6 z m -14.94,0 h 27 m -18,9 v -33 m 5.94,-618 c 0,3.312 -2.688,6 -6,6 -3.312,0 -6,-2.688 -6,-6 0,-3.312 2.688,-6 6,-6 3.312,0 6,2.688 6,6 z m -14.94,0 h 27 m -18,24 v -33"
               style="fill:none;stroke:#000000;stroke-width:0.25;stroke-linecap:butt;stroke-linejoin:miter;stroke-miterlimit:10;stroke-dasharray:none;stroke-opacity:1"
               id="path190" />
          </g>
        </g>
      </g>
    </g>
    <g
       id="g192">
      <g
         id="g194"
         transform="translate(218,6.56)">
        <text
           xml:space="preserve"
           transform="scale(1,-1)"
           style="font-variant:normal;font-weight:normal;font-size:10px;font-family:Helvetica;-inkscape-font-specification:Helvetica;writing-mode:lr-tb;fill:#0000ff;fill-opacity:1;fill-rule:nonzero;stroke:none"
           id="text198"><tspan
             x="0 7.2199998 14.44 21.66 24.440001 26.66 29.440001 32.77 38.330002 43.889999 49.450001 55.009998 60.009998 65.010002 67.790001 70.010002 75.57 78.349998"
             y="0"
             sodipodi:role="line"
             id="tspan196">www.it-ebooks.info</tspan></text>
        <g
           id="g200"
           transform="translate(-218,-6.56)" />
      </g>
    </g>
  </g>
</svg>
