<?xml version="1.0" encoding="UTF-8" standalone="no"?>
<!-- Created with Inkscape (http://www.inkscape.org/) -->

<svg
   version="1.1"
   id="svg2"
   width="690.14398"
   height="888.47998"
   viewBox="0 0 690.14398 888.47998"
   sodipodi:docname="4PmrqTPDrJV6cyWn.pdf"
   xmlns:inkscape="http://www.inkscape.org/namespaces/inkscape"
   xmlns:sodipodi="http://sodipodi.sourceforge.net/DTD/sodipodi-0.dtd"
   xmlns="http://www.w3.org/2000/svg"
   xmlns:svg="http://www.w3.org/2000/svg">
  <defs
     id="defs6">
    <clipPath
       clipPathUnits="userSpaceOnUse"
       id="clipPath298">
      <path
         d="M 0,665.858 H 519.84 V 0 H 0 Z"
         id="path296" />
    </clipPath>
  </defs>
  <sodipodi:namedview
     id="namedview4"
     pagecolor="#ffffff"
     bordercolor="#000000"
     borderopacity="0.25"
     inkscape:showpageshadow="2"
     inkscape:pageopacity="0.0"
     inkscape:pagecheckerboard="0"
     inkscape:deskcolor="#d1d1d1" />
  <g
     id="g8"
     inkscape:groupmode="layer"
     inkscape:label="4PmrqTPDrJV6cyWn"
     transform="matrix(1.3333333,0,0,-1.3333333,-1.46,887.61333)">
    <g
       id="g10">
      <g
         id="g12">
        <text
           xml:space="preserve"
           transform="matrix(1,0,0,-1,429.92,622.111)"
           style="font-variant:normal;font-weight:normal;font-size:10px;font-family:'Times New Roman';-inkscape-font-specification:TimesNewRomanPS;writing-mode:lr-tb;fill:#231f20;fill-opacity:1;fill-rule:nonzero;stroke:none"
           id="text16"><tspan
             x="0 5"
             y="0"
             sodipodi:role="line"
             id="tspan14">45</tspan></text>
        <text
           xml:space="preserve"
           transform="matrix(1,0,0,-1,79.92,622.111)"
           style="font-variant:normal;font-weight:bold;font-size:10px;font-family:'Times New Roman';-inkscape-font-specification:TimesNewRomanPS-Bold;writing-mode:lr-tb;fill:#231f20;fill-opacity:1;fill-rule:nonzero;stroke:none"
           id="text20"><tspan
             x="0 7.2199998 12.22 20.549999 28.879999 33.880001 39.439999 45 47.5 55.279999 60.84 65.279999 69.720001 74.720001 77.220001 82.779999 87.220001 92.779999 97.779999 102.122 107.122 110.452 113.232 118.232"
             y="0"
             sodipodi:role="line"
             id="tspan18">Command Query Separation</tspan></text>
        <text
           xml:space="preserve"
           transform="matrix(1,0,0,-1,79.92,584.778)"
           style="font-variant:normal;font-weight:bold;font-size:12px;font-family:'Times New Roman';-inkscape-font-specification:TimesNewRomanPS-Bold;writing-mode:lr-tb;fill:#231f20;fill-opacity:1;fill-rule:nonzero;stroke:none"
           id="text24"><tspan
             x="0 9.3360004 16.007999 20.004 26.676001 33.348 37.344002 40.344002 49.007999 54.219601 60.219601 66.891602 76.887604 82.215599 88.887604 92.883598"
             y="0"
             sodipodi:role="line"
             id="tspan22">Output Arguments</tspan></text>
        <text
           xml:space="preserve"
           transform="matrix(1,0,0,-1,79.92,564.1111)"
           style="font-variant:normal;font-weight:normal;font-size:10px;font-family:'Times New Roman';-inkscape-font-specification:TimesNewRomanPS;writing-mode:lr-tb;fill:#231f20;fill-opacity:1;fill-rule:nonzero;stroke:none"
           id="text28"><tspan
             x="0 7.2199998 10.372 15.372 20.372 28.152 32.591999 37.591999 40.372002 44.262001 47.763 52.202999 55.533001 59.973 63.473999 71.253998 76.253998 80.143997 82.924004 86.425003 91.425003 95.864998 98.644997 103.645 106.975 111.415 114.195 116.726 121.726 125.227 128.007 133.007 135.787 140.22701 143.855 148.855 152.185 156.625 159.405 163.845 168.845 172.34599 176.786 180.67599"
             y="0"
             sodipodi:role="line"
             id="tspan26">Arguments are most naturally interpreted as </tspan></text>
        <text
           xml:space="preserve"
           transform="matrix(1,0,0,-1,264.054,564.1111)"
           style="font-style:italic;font-variant:normal;font-size:10px;font-family:'Times New Roman';-inkscape-font-specification:TimesNewRomanPS-Italic;writing-mode:lr-tb;fill:#231f20;fill-opacity:1;fill-rule:nonzero;stroke:none"
           id="text32"><tspan
             x="0 2.78 7.7800002 12.78 17.780001 20.559999"
             y="0"
             sodipodi:role="line"
             id="tspan30">inputs</tspan></text>
        <text
           xml:space="preserve"
           transform="matrix(1,0,0,-1,292.001,564.1111)"
           style="font-variant:normal;font-weight:normal;font-size:10px;font-family:'Times New Roman';-inkscape-font-specification:TimesNewRomanPS;writing-mode:lr-tb;fill:#231f20;fill-opacity:1;fill-rule:nonzero;stroke:none"
           id="text40"><tspan
             x="0 2.78 7.7800002 11.281 15.721 19.222 22.552 27.552 32.551998 36.992001 39.771999 42.551998 47.551998 52.551998 55.051998 58.553001 61.882999 65.212997 68.713997 73.515999 78.515999 83.515999 87.016998 92.016998 96.108002 100.959 105.399 108.9 113.9 118.34 122.78 127.78 131.28101 136.28101 139.61099 144.61099"
             y="0"
             sodipodi:role="line"
             id="tspan34">to a function. If you have been pro-</tspan><tspan
             x="-212.08099 -206.883 -203.55299 -199.11301 -191.33299 -183.55299 -180.77299 -175.77299 -170.77299 -168.04601 -164.716 -159.716 -156.386 -153.659 -145.879 -140.879 -137.549 -133.10899 -130.382 -127.602 -122.602 -118.162 -113.162 -110.435 -105.995 -103.268 -99.938004 -95.747002 -88.527 -85.800003 -80.998001 -76.557999 -72.117996 -68.788002 -64.898003 -62.397999 -59.671001 -56.341 -53.011002 -45.230999 -42.504002 -38.613998 -33.613998 -30.284 -25.844 -23.117001 -18.315001 -13.315 -8.3149996 -5.4829998 -0.63200003 3.8080001 6.5349998 11.535 16.535 21.535 25.975 28.702 33.141998 35.868999 40.868999 45.868999 50.868999 55.671001 58.451 62.890999 66.221001 69.000999 73.441002 78.343002 82.782997 85.510002 90.510002 95.510002 98.237 102.677 107.677 110.404 114.844 117.996 122.996 127.996 135.776 140.216 145.216"
             y="12"
             sodipodi:role="line"
             id="tspan36">gramming for more than a few years, I’m sure you’ve done a double-take on an argument</tspan><tspan
             x="-212.08099 -209.30099 -204.30099 -199.86099 -197.08099 -194.58099 -187.61 -183.17 -179.28 -176.78 -172.34 -167.89999 -165.12 -160.12 -155.67999 -152.89999 -150.369 -145.369 -142.869 -138.429 -133.429"
             y="24"
             sodipodi:role="line"
             id="tspan38">that was actually an </tspan></text>
        <text
           xml:space="preserve"
           transform="matrix(1,0,0,-1,161.053,540.1111)"
           style="font-style:italic;font-variant:normal;font-size:10px;font-family:'Times New Roman';-inkscape-font-specification:TimesNewRomanPS-Italic;writing-mode:lr-tb;fill:#231f20;fill-opacity:1;fill-rule:nonzero;stroke:none"
           id="text44"><tspan
             x="0 5 10 12.78 17.780001 22.780001"
             y="0"
             sodipodi:role="line"
             id="tspan42">output</tspan></text>
        <text
           xml:space="preserve"
           transform="matrix(1,0,0,-1,189.109,540.1111)"
           style="font-variant:normal;font-weight:normal;font-size:10px;font-family:'Times New Roman';-inkscape-font-specification:TimesNewRomanPS;writing-mode:lr-tb;fill:#231f20;fill-opacity:1;fill-rule:nonzero;stroke:none"
           id="text48"><tspan
             x="0 3.3299999 7.77 10.55 15.55 19.99 23.32 25.82 28.6 33.599998 38.040001 43.040001 45.540001 49.98 54.98 57.48 60.259998 65.260002 70.260002 75.260002 78.040001 80.540001 83.040001 88.101997 93.101997 96.431999 98.931999 103.223 108.223 112.663 120.443 125.443 128.22301 132.66299"
             y="0"
             sodipodi:role="line"
             id="tspan46">rather than an input. For example:</tspan></text>
        <text
           xml:space="preserve"
           transform="matrix(0.80015552,0,0,-1,97.92,522.7781)"
           style="font-variant:normal;font-weight:normal;font-size:9.002px;font-family:'Courier New';-inkscape-font-specification:Courier;writing-mode:lr-tb;fill:#231f20;fill-opacity:1;fill-rule:nonzero;stroke:none"
           id="text52"><tspan
             x="0 5.4011998 10.8024 16.2036 21.604799 27.006001 32.4072 37.808399 43.209599 48.610802 54.012001 59.4132 64.8144 70.215599 75.616798 81.017998"
             y="0"
             sodipodi:role="line"
             id="tspan50">appendFooter(s);</tspan></text>
        <text
           xml:space="preserve"
           transform="matrix(1,0,0,-1,79.92,507.1111)"
           style="font-variant:normal;font-weight:normal;font-size:10px;font-family:'Times New Roman';-inkscape-font-specification:TimesNewRomanPS;writing-mode:lr-tb;fill:#231f20;fill-opacity:1;fill-rule:nonzero;stroke:none"
           id="text56"><tspan
             x="0 7.2199998 12.22 16.66 20.549999 24.011 26.791 31.791 34.570999 38.460999 41.922001 45.251999 50.251999 55.251999 59.692001 62.472 65.251999 70.251999 75.251999 78.712997 83.153 88.153 93.153 97.593002 102.593 107.593"
             y="0"
             sodipodi:role="line"
             id="tspan54">Does this function append </tspan></text>
        <text
           xml:space="preserve"
           transform="matrix(0.80015552,0,0,-1,190.956,507.1111)"
           style="font-variant:normal;font-weight:normal;font-size:9.002px;font-family:'Courier New';-inkscape-font-specification:Courier;writing-mode:lr-tb;fill:#231f20;fill-opacity:1;fill-rule:nonzero;stroke:none"
           id="text60"><tspan
             x="0"
             y="0"
             id="tspan58">s</tspan></text>
        <text
           xml:space="preserve"
           transform="matrix(1,0,0,-1,198.729,507.1111)"
           style="font-variant:normal;font-weight:normal;font-size:10px;font-family:'Times New Roman';-inkscape-font-specification:TimesNewRomanPS;writing-mode:lr-tb;fill:#231f20;fill-opacity:1;fill-rule:nonzero;stroke:none"
           id="text66"><tspan
             x="0 4.4400001 8.3299999 11.791 14.571 19.570999 24.011 27.472 30.802 35.801998 40.801998 43.582001 48.021999 51.352001 54.813 57.592999 62.592999 66.054001 69.944 74.944 82.723999 87.164001 89.944 94.944 97.723999 102.724 107.724 112.164 115.625 122.845 126.175 129.636 134.636 139.636 144.076 147.966 151.427 154.207 156.987 160.448 164.888 169.888 174.888 179.328 184.328 189.328 192.789 196.679 201.679 209.459 213.899 217.36 220.69 225.69 230.69 233.47 237.91"
             y="0"
             sodipodi:role="line"
             id="tspan62">as the footer to something? Or does it append some footer</tspan><tspan
             x="-118.809 -116.029"
             y="12"
             sodipodi:role="line"
             id="tspan64">to</tspan></text>
        <text
           xml:space="preserve"
           transform="matrix(0.80015552,0,0,-1,90.198,495.1111)"
           style="font-variant:normal;font-weight:normal;font-size:9.002px;font-family:'Courier New';-inkscape-font-specification:Courier;writing-mode:lr-tb;fill:#231f20;fill-opacity:1;fill-rule:nonzero;stroke:none"
           id="text70"><tspan
             x="0"
             y="0"
             id="tspan68">s</tspan></text>
        <text
           xml:space="preserve"
           transform="matrix(1,0,0,-1,94.51,495.1111)"
           style="font-variant:normal;font-weight:normal;font-size:10px;font-family:'Times New Roman';-inkscape-font-specification:TimesNewRomanPS;writing-mode:lr-tb;fill:#231f20;fill-opacity:1;fill-rule:nonzero;stroke:none"
           id="text74"><tspan
             x="0 4.4400001 8.4020004 11.732 15.622"
             y="0"
             sodipodi:role="line"
             id="tspan72">? Is </tspan></text>
        <text
           xml:space="preserve"
           transform="matrix(0.80015552,0,0,-1,114.088,495.1111)"
           style="font-variant:normal;font-weight:normal;font-size:9.002px;font-family:'Courier New';-inkscape-font-specification:Courier;writing-mode:lr-tb;fill:#231f20;fill-opacity:1;fill-rule:nonzero;stroke:none"
           id="text78"><tspan
             x="0"
             y="0"
             id="tspan76">s</tspan></text>
        <text
           xml:space="preserve"
           transform="matrix(1,0,0,-1,122.362,495.1111)"
           style="font-variant:normal;font-weight:normal;font-size:10px;font-family:'Times New Roman';-inkscape-font-specification:TimesNewRomanPS;writing-mode:lr-tb;fill:#231f20;fill-opacity:1;fill-rule:nonzero;stroke:none"
           id="text84"><tspan
             x="0 4.4400001 9.4399996 13.402 16.181999 21.181999 26.181999 31.181999 33.962002 37.924 42.924 46.254002 50.216 54.655998 59.655998 63.618 68.617996 73.617996 76.398003 81.398003 86.398003 89.178001 93.617996 97.580002 100.91 103.69 107.652 112.652 117.652 122.092 125.982 130.98199 133.814 136.59399 140.556 143.336 147.776 152.67799 157.118 161.08 163.86 168.86 173.86 178.86 182.82201 185.60201 190.60201 194.564 197.34399 202.34399 207.34399 212.34399 216.306 220.746 223.526 227.48801 230.26801 235.26801 239.70799 243.67 247 252 257 261.44 264.22 267 272 277 280.96201 284.85199 287.63199 292.63199 297.63199 302.07199 304.85199 309.85199 313.18201"
             y="0"
             sodipodi:role="line"
             id="tspan80">an input or an output? It doesn’t take long to look at the function signature</tspan><tspan
             x="-42.442001 -38.001999 -33.001999 -28.002001 -25.502001 -21.612 -17.172001 -12.732"
             y="12"
             sodipodi:role="line"
             id="tspan82">and see:</tspan></text>
        <text
           xml:space="preserve"
           transform="matrix(0.80015552,0,0,-1,97.92,465.778)"
           style="font-variant:normal;font-weight:normal;font-size:9.002px;font-family:'Courier New';-inkscape-font-specification:Courier;writing-mode:lr-tb;fill:#231f20;fill-opacity:1;fill-rule:nonzero;stroke:none"
           id="text88"><tspan
             x="0 5.4011998 10.8024 16.2036 21.604799 27.006001 32.4072 37.808399 43.209599 48.610802 54.012001 59.4132 64.8144 70.215599 75.616798 81.017998 86.419197 91.820396 97.221603 102.6228 108.024 113.4252 118.8264 124.2276 129.6288 135.03 140.4312 145.8324 151.2336 156.6348 162.036 167.43719 172.83839 178.23959 183.64079 189.04201 194.44321 199.84441 205.24561 210.6468 216.048 221.4492 226.8504 232.2516 237.6528"
             y="0"
             sodipodi:role="line"
             id="tspan86">public void appendFooter(StringBuffer report)</tspan></text>
        <text
           xml:space="preserve"
           transform="matrix(1,0,0,-1,79.92,450.1111)"
           style="font-variant:normal;font-weight:normal;font-size:10px;font-family:'Times New Roman';-inkscape-font-specification:TimesNewRomanPS;writing-mode:lr-tb;fill:#231f20;fill-opacity:1;fill-rule:nonzero;stroke:none"
           id="text102"><tspan
             x="0 6.1110001 11.112 13.893 17.784 20.224001 24.665001 27.445999 31.886999 35.217999 37.999001 43.560001 48.000999 51.891998 54.332001 57.112999 62.113998 66.555 68.995003 71.776001 75.667 79.557999 84.558998 89 91.500999 93.941002 98.942001 103.943 106.724 109.164 114.165 119.166 121.697 126.698 129.138 133.57899 136.36 138.8 141.58099 146.582 151.02299 153.463 157.754 162.755 167.756 172.19701 177.198 181.089 185.53 187.97 192.97099 196.302 198.742 203.183 208.18401 212.625 217.06599 222.067 224.84801 229.849 234.85001 237.28999 240.071 245.07201 249.513 251.953 256.95401 261.39499 265.836 268.617 273.05801 276.38901 280.82999 283.61099 286.392 291.39301 296.39401 298.83401 303.83499 307.16599 309.60599 312.38699 317.388 321.82901 324.26901 327.60001 332.60101 337.60199 342.043 344.82401 347.60501 352.60599 357.60699"
             y="0"
             sodipodi:role="line"
             id="tspan90">This clariﬁes the issue, but only at the expense of checking the declaration of the function.</tspan><tspan
             x="0 7.2199998 11.971 16.971001 19.750999 24.750999 27.531 32.530998 37.530998 39.931 42.710999 47.710999 52.151001 54.931 57.331001 60.660999 65.661003 68.990997 73.431 77.871002 81.761002 84.161003 88.962997 93.962997 98.962997 101.363 104.143 109.143 111.543 115.983 120.983 125.423 129.86301 134.86301 137.263 140.043 145.043 149.483 151.883 155.213 160.213 165.213 169.653 172.433 175.213 180.213 185.213 187.61301 191.50301 194.283 199.283 204.283 208.72301 211.50301 216.50301 219.83299 224.27299 226.673 229.453 233.343 235.743 240.183 245.183 250.183 252.714 257.465 261.905 264.685 269.125 274.125 276.905 279.30499 282.08499 287.08499 289.48499 293.92499 296.32501 301.32501 306.32501 311.32501 316.12701 318.90701 323.34698 326.677 329.457 333.897 338.79901 343.23901 345.73901 348.13901 351.46899 354.24899 356.17999"
             y="12"
             sodipodi:role="line"
             id="tspan92">Anything that forces you to check the function signature is equivalent to a double-take. It’s</tspan><tspan
             x="0 4.4400001 6.9400001 11.38 16.131001 21.131001 26.131001 28.910999 31.691 34.222 39.073002 43.513 46.013 51.013 54.342999 58.783001 63.223 68.223 70.723 75.163002 80.163002 85.163002 87.663002 91.553001 96.553001 101.553 106.553 109.333 114.333 116.833 121.833 126.273 128.77299 132.864 137.666 142.666 145.446 150.446 154.886 159.886"
             y="24"
             sodipodi:role="line"
             id="tspan94">a cognitive break and should be avoided.</tspan><tspan
             x="18 21.33 26.33 29.458 32.237999 37.237999 41.678001 44.806 49.806 53.896999 58.896999 62.786999 65.915001 70.915001 75.355003 78.684998 83.684998 87.014999 91.455002 94.583 99.583 104.583 107.363 111.803 116.243 119.023 122.151 127.151 130.481 133.261 137.701 142.701 145.481 149.92101 154.92101 158.049 163.049 166.379 171.13 176.328 179.658 184.09801 191.87801 199.658 202.438 207.438 212.438 215.56599 218.34599 221.12601 224.254 231.22501 235.66499 239.55499 242.683 246.573 251.573 259.353 263.793 266.573 269.353 277.133 281.573 285.46301 288.591 293.591 298.03101 302.47101 306.91101 310.80099 314.69101 319.13101 322.659 327.659 330.78699 333.56699 338.56699 341.69501 346.69501 350.78601 355.63699"
             y="39"
             sodipodi:role="line"
             id="tspan96">In the days before object oriented programming it was sometimes necessary to have</tspan><tspan
             x="0 5 10 12.78 17.780001 22.780001 25.559999 28.066999 32.507 35.659 40.659 45.659 53.438999 57.879002 62.879002 65.658997 69.549004 72.049004 74.556 81.776001 86.377998 93.249001 97.440002 102.291 106.731 109.663 112.163 114.67 122.45 127.45 131.89 136.89 139.397 144.397 147.72701 150.23399 153.01401 158.01401 162.45399 164.961 169.961 174.401 178.841 183.841 186.34801 189.67799 194.67799 198.008 200.515 205.515 210.515 213.295 218.295 223.295 226.075 228.582 233.022 236.174 241.174 246.174 253.95399 258.39401 263.39401 266.17401 270.064 272.57101 277.57101 280.35101 284.241 288.681 293.681 298.681 303.121 307.561 310.89099 314.78101 317.28799 320.06799 325.06799 327.57501 334.79501 342.01501 344.522 347.302 351.742 356.742"
             y="51"
             sodipodi:role="line"
             id="tspan98">output arguments. However, much of the need for output arguments disappears in OO lan-</tspan><tspan
             x="0 5 10 14.44 19.440001 23.879999 27.77 30.545 35.544998 39.985001 44.424999 48.865002 53.865002 57.755001 62.195"
             y="62.999001"
             sodipodi:role="line"
             id="tspan100">guages because </tspan></text>
        <text
           xml:space="preserve"
           transform="matrix(0.80015552,0,0,-1,144.879,387.1121)"
           style="font-variant:normal;font-weight:normal;font-size:9.002px;font-family:'Courier New';-inkscape-font-specification:Courier;writing-mode:lr-tb;fill:#231f20;fill-opacity:1;fill-rule:nonzero;stroke:none"
           id="text106"><tspan
             x="0 5.4011998 10.8024 16.2036"
             y="0"
             sodipodi:role="line"
             id="tspan104">this</tspan></text>
        <text
           xml:space="preserve"
           transform="matrix(1,0,0,-1,164.9,387.1121)"
           style="font-variant:normal;font-weight:normal;font-size:10px;font-family:'Times New Roman';-inkscape-font-specification:TimesNewRomanPS;writing-mode:lr-tb;fill:#231f20;fill-opacity:1;fill-rule:nonzero;stroke:none"
           id="text110"><tspan
             x="0 2.78"
             y="0"
             sodipodi:role="line"
             id="tspan108">is</tspan></text>
        <text
           xml:space="preserve"
           transform="matrix(1,0,0,-1,174.342,387.1121)"
           style="font-style:italic;font-variant:normal;font-size:10px;font-family:'Times New Roman';-inkscape-font-specification:TimesNewRomanPS-Italic;writing-mode:lr-tb;fill:#231f20;fill-opacity:1;fill-rule:nonzero;stroke:none"
           id="text114"><tspan
             x="0 2.78 7.7800002 10.56 15 20 25 29.440001"
             y="0"
             sodipodi:role="line"
             id="tspan112">intended</tspan></text>
        <text
           xml:space="preserve"
           transform="matrix(1,0,0,-1,211.551,387.1121)"
           style="font-variant:normal;font-weight:normal;font-size:10px;font-family:'Times New Roman';-inkscape-font-specification:TimesNewRomanPS;writing-mode:lr-tb;fill:#231f20;fill-opacity:1;fill-rule:nonzero;stroke:none"
           id="text120"><tspan
             x="0 2.78 7.7800002 10.555 14.995 19.434999 22.215 24.99 29.43 33.32 36.095001 40.535 45.535 48.310001 53.310001 58.310001 61.09 66.089996 71.089996 73.870003 76.644997 81.084999 84.237 89.237 94.237 102.017 106.457 111.457 114.237 116.737 119.512 122.842 127.842 130.617 135.617 138.397 143.397 147.83701 151.16701 153.942 160.76401 165.76401 169.09399 174.09399 177.98399 180.48399 183.259 186.039 188.819 191.59399 198.416 203.416 208.416 211.196 216.196 218.97099 223.97099"
             y="0"
             sodipodi:role="line"
             id="tspan116">to act as an output argument. In other words, it would be</tspan><tspan
             x="-131.631 -126.631 -122.191 -119.411 -116.631 -112.191 -108.861 -106.361 -103.031 -98.030998 -94.700996"
             y="12"
             sodipodi:role="line"
             id="tspan118">better for </tspan></text>
        <text
           xml:space="preserve"
           transform="matrix(0.80015552,0,0,-1,119.337,375.1121)"
           style="font-variant:normal;font-weight:normal;font-size:9.002px;font-family:'Courier New';-inkscape-font-specification:Courier;writing-mode:lr-tb;fill:#231f20;fill-opacity:1;fill-rule:nonzero;stroke:none"
           id="text124"><tspan
             x="0 5.4011998 10.8024 16.2036 21.604799 27.006001 32.4072 37.808399 43.209599 48.610802 54.012001 59.4132"
             y="0"
             sodipodi:role="line"
             id="tspan122">appendFooter</tspan></text>
        <text
           xml:space="preserve"
           transform="matrix(1,0,0,-1,173.574,375.1121)"
           style="font-variant:normal;font-weight:normal;font-size:10px;font-family:'Times New Roman';-inkscape-font-specification:TimesNewRomanPS;writing-mode:lr-tb;fill:#231f20;fill-opacity:1;fill-rule:nonzero;stroke:none"
           id="text128"><tspan
             x="0 2.78 7.7800002 10.28 15.28 19.719999 22.219999 25 29.601999 34.403999 39.403999 44.306 48.745998 53.745998 56.245998 60.686001"
             y="0"
             sodipodi:role="line"
             id="tspan126">to be invoked as</tspan></text>
        <text
           xml:space="preserve"
           transform="matrix(0.80015552,0,0,-1,97.92,357.778)"
           style="font-variant:normal;font-weight:normal;font-size:9.002px;font-family:'Courier New';-inkscape-font-specification:Courier;writing-mode:lr-tb;fill:#231f20;fill-opacity:1;fill-rule:nonzero;stroke:none"
           id="text132"><tspan
             x="0 5.4011998 10.8024 16.2036 21.604799 27.006001 32.4072 37.808399 43.209599 48.610802 54.012001 59.4132 64.8144 70.215599 75.616798 81.017998 86.419197 91.820396 97.221603 102.6228 108.024 113.4252"
             y="0"
             sodipodi:role="line"
             id="tspan130">report.appendFooter();</tspan></text>
        <text
           xml:space="preserve"
           transform="matrix(1,0,0,-1,97.92,342.1121)"
           style="font-variant:normal;font-weight:normal;font-size:10px;font-family:'Times New Roman';-inkscape-font-specification:TimesNewRomanPS;writing-mode:lr-tb;fill:#231f20;fill-opacity:1;fill-rule:nonzero;stroke:none"
           id="text138"><tspan
             x="0 3.3299999 8.3299999 10.722 15.722 20.162001 25.162001 29.601999 32.931999 37.372002 40.152 42.543999 47.543999 52.543999 55.324001 60.324001 65.323997 68.103996 70.496002 74.935997 78.087997 83.087997 88.087997 95.867996 100.308 105.308 108.088 111.978 114.37 118.26 123.26 128.25999 133.25999 136.03999 141.03999 143.43201 148.43201 152.87199 155.26401 159.355 164.157 169.157 171.937 176.937 181.377 186.377 188.877 191.269 194.599 197.929 200.321 205.123 210.123 215.123 218.453 220.845 224.175 229.175 234.175 238.61501 241.395 244.175 249.175 254.175 256.56699 264.34698 269.34698 273.237 276.017 278.409 282.849 287.849 292.289 297.289 302.289 306.729 309.121 311.901 316.901 321.341 323.733 327.62299 330.40302 334.84299 337.62299"
             y="0"
             sodipodi:role="line"
             id="tspan134">In general output arguments should be avoided. If your function must change the state</tspan><tspan
             x="-18 -13 -9.6700001 -7.1700001 -3.28 1.72 9.5 13.94 16.719999 21.719999 24.5 29.5 34.5 37 39.5 44.5 48.591 53.442001 57.882 60.382 63.161999 65.942001 68.442001 72.882004 77.882004 82.321999 87.321999 92.321999 96.762001 99.262001 102.042 107.042 111.482 113.982 117.872 120.652 125.092 127.872 132.312 134.812 139.812 143.142 145.642 148.422 151.202 155.092 157.592 162.194 169.414 174.414 177.194 182.194 187.194 189.694 194.694 199.694 202.474 206.914 211.354 214.134 216.634"
             y="12"
             sodipodi:role="line"
             id="tspan136">of something, have it change the state of its owning object. </tspan></text>
        <text
           xml:space="preserve"
           transform="matrix(1,0,0,-1,79.92,297.445)"
           style="font-variant:normal;font-weight:bold;font-size:14px;font-family:'Times New Roman';-inkscape-font-specification:TimesNewRomanPS-Bold;writing-mode:lr-tb;fill:#231f20;fill-opacity:1;fill-rule:nonzero;stroke:none"
           id="text142"><tspan
             x="0 10.108 17.108 28.77 40.431999 47.431999 55.216 63 66.5 77.391998 85.176003 91.391998 97.608002 104.608 108.108 115.892 122.108 129.892 136.892 142.97079 149.97079 154.6328 158.5248 165.5248"
             y="0"
             sodipodi:role="line"
             id="tspan140">Command Query Separation</tspan></text>
        <text
           xml:space="preserve"
           transform="matrix(1,0,0,-1,79.92,274.1121)"
           style="font-variant:normal;font-weight:normal;font-size:10px;font-family:'Times New Roman';-inkscape-font-specification:TimesNewRomanPS;writing-mode:lr-tb;fill:#231f20;fill-opacity:1;fill-rule:nonzero;stroke:none"
           id="text152"><tspan
             x="0 5.6110001 10.662 15.713 20.204 23.035 25.865999 30.917 35.967999 39.909 43.844002 47.785 52.835999 57.887001 62.938 65.768997 70.82 74.754997 79.246002 82.077003 84.907997 89.959 94.449997 97.831001 101.766 106.817 111.868 115.803 119.744 124.795 132.62601 137.117 139.948 144.99899 147.83 152.881 157.93201 161.867 166.918 170.299 174.23399 178.72501 183.776 187.51801 194.439 198.92999 202.311 206.246 210.187 215.23801 223.069 227.56 230.39101 235.442 238.27299 243.32401 248.375 250.92599 254.86099 259.91199 264.96301 267.79401 271.729 276.78 281.83099 284.66199 288.59698 293.64801 298.69901 301.53 306.58099 309.13199 313.06699 319.228 322.05899 324.89001 329.94101 334.43201 337.81299 341.74799 346.60001 351.651 356.702"
             y="0"
             sodipodi:role="line"
             id="tspan144">Functions should either do something or answer something, but not both. Either your</tspan><tspan
             x="0 3.3800001 8.4300003 13.48 17.969999 20.799999 23.629999 28.68 33.73 36.398998 40.339001 45.389 50.438999 55.488998 58.319 63.368999 66.038002 70.528 75.578003 80.068001 85.117996 90.167999 94.657997 97.327003 100.157 105.207 109.697 112.366 116.306 119.136 123.626 126.456 130.946 133.61501 138.66499 142.045 144.714 149.20399 154.254 156.923 161.97301 167.02299 169.853 174.343 178.83299 181.66299 184.213 186.882 191.93201 195.312 197.981 200.811 203.64101 206.31 210.25 215.3 220.35001 225.39999 228.23 233.28 235.94901 239.32899 243.819 246.649 251.69901 255.27699 260.327 262.996 266.936 271.98599 279.81601 284.306 286.97501 289.80499 294.85501 298.23499 303.285 306.86301 314.69299 319.18301 322.013 324.84299 329.89301 334.94299 337.612 342.10199 347.15201 352.202 357.25201"
             y="12"
             sodipodi:role="line"
             id="tspan146">function should change the state of an object, or it should return some information about</tspan><tspan
             x="0 2.8299999 7.8800001 12.37 15.2 18.868 23.917999 28.968 31.798 36.287998 40.778 43.608002 46.158001 49.826 57.096001 62.146 64.975998 70.026001 75.075996 78.744003 83.793999 88.844002 91.674004 96.723999 100.392 105.442 108.822 111.652 116.142 121.192 124.86 127.69 132.17999 136.67 141.72 145.66 149.328 152.158 157.20799 160.87601 165.366 170.416 175.466 178.84599 183.896 187.836 190.666 195.716 200.76601 203.31599 206.98399 213.70399 218.754 223.804 227.744 230.57401 235.62399 240.114 243.09599 245.646 249.314 252.694 257.74399 261.12399 264.79199 269.133 274.18301 278.673 286.50299 291.55301 294.383 298.87299 301.423 305.091 307.92099 312.97101 317.461 321.129 324.509 329.55899 332.38901 335.21899 339.871 347.14099 349.97101 355.021"
             y="24"
             sodipodi:role="line"
             id="tspan148">that object. Doing both often leads to confusion. Consider, for example, the following</tspan><tspan
             x="0 3.3800001 8.4300003 13.48 17.969999 20.799999 23.629999 28.68 33.73"
             y="36"
             sodipodi:role="line"
             id="tspan150">function:</tspan></text>
        <text
           xml:space="preserve"
           transform="matrix(0.80015552,0,0,-1,97.92,220.778)"
           style="font-variant:normal;font-weight:normal;font-size:9.002px;font-family:'Courier New';-inkscape-font-specification:Courier;writing-mode:lr-tb;fill:#231f20;fill-opacity:1;fill-rule:nonzero;stroke:none"
           id="text156"><tspan
             x="0 5.4011998 10.8024 16.2036 21.604799 27.006001 32.4072 37.808399 43.209599 48.610802 54.012001 59.4132 64.8144 70.215599 75.616798 81.017998 86.419197 91.820396 97.221603 102.6228 108.024 113.4252 118.8264 124.2276 129.6288 135.03 140.4312 145.8324 151.2336 156.6348 162.036 167.43719 172.83839 178.23959 183.64079 189.04201 194.44321 199.84441 205.24561 210.6468 216.048 221.4492 226.8504 232.2516 237.6528 243.054 248.4552 253.8564 259.2576 264.65881 270.06"
             y="0"
             sodipodi:role="line"
             id="tspan154">public boolean set(String attribute, String value);</tspan></text>
        <text
           xml:space="preserve"
           transform="matrix(1,0,0,-1,79.92,205.112)"
           style="font-variant:normal;font-weight:normal;font-size:10px;font-family:'Times New Roman';-inkscape-font-specification:TimesNewRomanPS;writing-mode:lr-tb;fill:#231f20;fill-opacity:1;fill-rule:nonzero;stroke:none"
           id="text160"><tspan
             x="0 6.1110001 11.112 13.893 17.784 21.159 24.49 29.490999 34.492001 38.932999 41.714001 44.494999 49.495998 54.497002 57.872002 61.763 66.204002 68.985001 72.875999 76.250999 79.031998 84.032997 88.473999 91.848999 96.599998 101.041 103.822 108.823 113.264 116.639 121.64 124.971 128.34599 132.787 136.162 141.16299 145.604 153.38499 157.826 162.827 166.202 170.64301 173.424 176.205 179.536 182.317 187.31799 192.319 195.10001 199.541 202.916 207.35699 212.358 217.35899 220.73399 224.065 228.506 231.287 236.28799 239.81599 244.817 248.70799"
             y="0"
             sodipodi:role="line"
             id="tspan158">This function sets the value of a named attribute and returns </tspan></text>
        <text
           xml:space="preserve"
           transform="matrix(0.80015552,0,0,-1,331.943,205.112)"
           style="font-variant:normal;font-weight:normal;font-size:9.002px;font-family:'Courier New';-inkscape-font-specification:Courier;writing-mode:lr-tb;fill:#231f20;fill-opacity:1;fill-rule:nonzero;stroke:none"
           id="text164"><tspan
             x="0 5.4011998 10.8024 16.2036"
             y="0"
             sodipodi:role="line"
             id="tspan162">true</tspan></text>
        <text
           xml:space="preserve"
           transform="matrix(1,0,0,-1,352.564,205.112)"
           style="font-variant:normal;font-weight:normal;font-size:10px;font-family:'Times New Roman';-inkscape-font-specification:TimesNewRomanPS;writing-mode:lr-tb;fill:#231f20;fill-opacity:1;fill-rule:nonzero;stroke:none"
           id="text168"><tspan
             x="0 2.78 6.1100001 9.4849997 12.265 15.045 18.42 21.200001 25.09 28.465 32.355 37.355 41.794998 46.235001 50.674999 54.564999 58.455002 61.785 66.785004 69.565002 72.940002 77.379997 82.379997"
             y="0"
             sodipodi:role="line"
             id="tspan166">if it is successful and</tspan></text>
        <text
           xml:space="preserve"
           transform="matrix(0.80015552,0,0,-1,79.92,193.112)"
           style="font-variant:normal;font-weight:normal;font-size:9.002px;font-family:'Courier New';-inkscape-font-specification:Courier;writing-mode:lr-tb;fill:#231f20;fill-opacity:1;fill-rule:nonzero;stroke:none"
           id="text172"><tspan
             x="0 5.4011998 10.8024 16.2036 21.604799"
             y="0"
             sodipodi:role="line"
             id="tspan170">false</tspan></text>
        <text
           xml:space="preserve"
           transform="matrix(1,0,0,-1,103.977,193.112)"
           style="font-variant:normal;font-weight:normal;font-size:10px;font-family:'Times New Roman';-inkscape-font-specification:TimesNewRomanPS;writing-mode:lr-tb;fill:#231f20;fill-opacity:1;fill-rule:nonzero;stroke:none"
           id="text176"><tspan
             x="0 2.7809999 6.112 8.6120005 13.613 18.614 21.114 25.004999 30.006001 34.446999 39.448002 41.948002 46.389 49.169998 51.951 55.282001 58.063 63.063999 68.065002 70.846001 75.287003 77.787003 82.078003 87.079002 89.860001 93.750999 96.531998 100.423 102.924 104.926 111.037 116.038 118.819 122.71 125.21 127.991 132.43201 136.873 141.87399 145.765 148.265 151.04601 156.047 158.547 163.548 168.549 173.55 176.05 179.94099 182.722 187.16299 189.944 194.38499 202.166 206.60699 211.608 214.38901 218.28 220.78 223.561 226.342 231.244 235.685 238.185 240.966 245.967 248.748 252.63901"
             y="0"
             sodipodi:role="line"
             id="tspan174">if no such attribute exists. This leads to odd statements like this:</tspan></text>
        <text
           xml:space="preserve"
           transform="matrix(0.80015552,0,0,-1,97.92,175.778)"
           style="font-variant:normal;font-weight:normal;font-size:9.002px;font-family:'Courier New';-inkscape-font-specification:Courier;writing-mode:lr-tb;fill:#231f20;fill-opacity:1;fill-rule:nonzero;stroke:none"
           id="text180"><tspan
             x="0 5.4011998 10.8024 16.2036 21.604799 27.006001 32.4072 37.808399 43.209599 48.610802 54.012001 59.4132 64.8144 70.215599 75.616798 81.017998 86.419197 91.820396 97.221603 102.6228 108.024 113.4252 118.8264 124.2276 129.6288 135.03 140.4312 145.8324 151.2336 156.6348 162.036 167.43719 172.83839 178.23959 183.64079"
             y="0"
             sodipodi:role="line"
             id="tspan178">if (set(&quot;username&quot;, &quot;unclebob&quot;))...</tspan></text>
        <text
           xml:space="preserve"
           transform="matrix(1,0,0,-1,79.92,160.112)"
           style="font-variant:normal;font-weight:normal;font-size:10px;font-family:'Times New Roman';-inkscape-font-specification:TimesNewRomanPS;writing-mode:lr-tb;fill:#231f20;fill-opacity:1;fill-rule:nonzero;stroke:none"
           id="text186"><tspan
             x="0 3.3299999 11.11 15.55 20.549999 23.33 28.33 32.77 35.321999 38.102001 43.102001 45.882 49.771999 52.324001 55.653999 58.984001 63.984001 71.764 74.316002 77.096001 82.096001 86.536003 89.087997 94.087997 99.087997 101.868 106.868 109.648 112.2 117.2 120.53 123.082 128.082 130.862 135.05299 142.27299 144.825 149.825 153.155 155.707 158.487 163.487 167.927 170.479 173.80901 178.24899 182.689 187.689 192.129 194.91 197.41 199.664 209.104 214.104 218.54401 221.32401 223.87601 228.87601 233.87601 238.31599 242.20599 244.758 247.53799 250.31799 252.87 260.64999 265.09 269.53 274.53 278.97 281.522 284.85199 288.742 291.29401 294.07401 296.854 299.40601 303.84601 307.73599 312.73599 315.51599 320.51599 325.51599 328.06799 335.09 340.09 344.53 347.31 352.31 356.75"
             y="0"
             sodipodi:role="line"
             id="tspan182">Imagine this from the point of view of the reader. What does it mean? Is it asking whether</tspan><tspan
             x="0 2.78 7.7800002 12.22 16.393"
             y="12"
             sodipodi:role="line"
             id="tspan184">the “</tspan></text>
        <text
           xml:space="preserve"
           transform="matrix(0.80015552,0,0,-1,100.748,148.112)"
           style="font-variant:normal;font-weight:normal;font-size:9.002px;font-family:'Courier New';-inkscape-font-specification:Courier;writing-mode:lr-tb;fill:#231f20;fill-opacity:1;fill-rule:nonzero;stroke:none"
           id="text190"><tspan
             x="0 5.4011998 10.8024 16.2036 21.604799 27.006001 32.4072 37.808399"
             y="0"
             sodipodi:role="line"
             id="tspan188">username</tspan></text>
        <text
           xml:space="preserve"
           transform="matrix(1,0,0,-1,135.24,148.112)"
           style="font-variant:normal;font-weight:normal;font-size:10px;font-family:'Times New Roman';-inkscape-font-specification:TimesNewRomanPS;writing-mode:lr-tb;fill:#231f20;fill-opacity:1;fill-rule:nonzero;stroke:none"
           id="text194"><tspan
             x="0 4.441 8.6140003 13.055 15.836 18.617001 21.948 24.729 29.73 34.730999 37.512001 41.952999 46.125999 53.097 57.537998 61.429001 65.601997 70.602997 73.933998 78.125 83.125999 85.906998 90.907997 95.908997 99.800003 102.331 107.332 111.505 115.396 119.837 122.618 126.791 129.57201 134.573 138.746"
             y="0"
             sodipodi:role="line"
             id="tspan192">” attribute was previously set to “</tspan></text>
        <text
           xml:space="preserve"
           transform="matrix(0.80015552,0,0,-1,278.416,148.112)"
           style="font-variant:normal;font-weight:normal;font-size:9.002px;font-family:'Courier New';-inkscape-font-specification:Courier;writing-mode:lr-tb;fill:#231f20;fill-opacity:1;fill-rule:nonzero;stroke:none"
           id="text198"><tspan
             x="0 5.4011998 10.8024 16.2036 21.604799 27.006001 32.4072 37.808399"
             y="0"
             sodipodi:role="line"
             id="tspan196">unclebob</tspan></text>
        <text
           xml:space="preserve"
           transform="matrix(1,0,0,-1,312.908,148.112)"
           style="font-variant:normal;font-weight:normal;font-size:10px;font-family:'Times New Roman';-inkscape-font-specification:TimesNewRomanPS;writing-mode:lr-tb;fill:#231f20;fill-opacity:1;fill-rule:nonzero;stroke:none"
           id="text204"><tspan
             x="0 4.4400001 8.8800001 13.053 20.273001 23.603001 27.775999 30.556 34.445999 38.618999 41.398998 44.179001 48.352001 52.792 56.681999 61.681999 64.461998 69.461998 74.461998 78.635002 85.656998 90.656998 95.097 97.876999 102.877 107.317 110.647 114.82 117.6 122.6"
             y="0"
             sodipodi:role="line"
             id="tspan200">”? Or is it asking whether the</tspan><tspan
             x="-232.98801"
             y="12"
             id="tspan202">“</tspan></text>
        <text
           xml:space="preserve"
           transform="matrix(0.80015552,0,0,-1,84.358,136.112)"
           style="font-variant:normal;font-weight:normal;font-size:9.002px;font-family:'Courier New';-inkscape-font-specification:Courier;writing-mode:lr-tb;fill:#231f20;fill-opacity:1;fill-rule:nonzero;stroke:none"
           id="text208"><tspan
             x="0 5.4011998 10.8024 16.2036 21.604799 27.006001 32.4072 37.808399"
             y="0"
             sodipodi:role="line"
             id="tspan206">username</tspan></text>
        <text
           xml:space="preserve"
           transform="matrix(1,0,0,-1,118.85,136.112)"
           style="font-variant:normal;font-weight:normal;font-size:10px;font-family:'Times New Roman';-inkscape-font-specification:TimesNewRomanPS;writing-mode:lr-tb;fill:#231f20;fill-opacity:1;fill-rule:nonzero;stroke:none"
           id="text212"><tspan
             x="0 4.441 6.7670002 11.208 13.989 16.77 20.101 22.882 27.882999 32.883999 35.665001 40.105999 42.431999 49.403 53.844002 57.735001 60.061001 63.952 68.953003 73.393997 77.834999 82.276001 86.167 90.057999 93.389 98.389999 101.171 103.702 108.703 111.029 114.92 119.361 122.142 124.468 127.249 132.25 134.576"
             y="0"
             sodipodi:role="line"
             id="tspan210">” attribute was successfully set to “</tspan></text>
        <text
           xml:space="preserve"
           transform="matrix(0.80015552,0,0,-1,257.848,136.112)"
           style="font-variant:normal;font-weight:normal;font-size:9.002px;font-family:'Courier New';-inkscape-font-specification:Courier;writing-mode:lr-tb;fill:#231f20;fill-opacity:1;fill-rule:nonzero;stroke:none"
           id="text216"><tspan
             x="0 5.4011998 10.8024 16.2036 21.604799 27.006001 32.4072 37.808399"
             y="0"
             sodipodi:role="line"
             id="tspan214">unclebob</tspan></text>
        <text
           xml:space="preserve"
           transform="matrix(1,0,0,-1,292.339,136.112)"
           style="font-variant:normal;font-weight:normal;font-size:10px;font-family:'Times New Roman';-inkscape-font-specification:TimesNewRomanPS;writing-mode:lr-tb;fill:#231f20;fill-opacity:1;fill-rule:nonzero;stroke:none"
           id="text222"><tspan
             x="0 4.4400001 8.8800001 11.206 14.536 17.316 19.247 23.136999 25.462999 30.462999 34.903 38.233002 43.233002 45.558998 48.339001 53.339001 55.665001 58.445 63.445 66.775002 71.214996 74.544998 76.871002 79.651001 84.651001 89.091003 91.417 99.196999 103.637 108.077 113.077 115.857 120.857 125.857 128.183 131.513 134.843 139.843"
             y="0"
             sodipodi:role="line"
             id="tspan218">”? It’s hard to infer the meaning from</tspan><tspan
             x="-212.41901 -209.63901 -204.63901 -200.19901 -197.69901 -193.259 -188.819 -186.039 -183.259 -180.759 -175.759 -171.319 -166.879 -162.439 -157.439 -153.549 -149.10899 -146.60899 -143.82899 -141.049 -139.118 -135.228 -132.728 -127.728 -122.728 -119.948 -117.448 -113.008 -110.228 -105.788 -101.348 -98.017998 -95.517998 -88.496002 -83.496002 -79.056 -76.276001 -71.276001 -66.835999 -63.506001 -61.006001 -58.226002 -53.226002 -48.785999 -46.285999 -39.464001 -34.464001 -31.134001 -26.134001 -23.634001"
             y="12"
             sodipodi:role="line"
             id="tspan220">the call because it’s not clear whether the word “</tspan></text>
        <text
           xml:space="preserve"
           transform="matrix(0.80015552,0,0,-1,273.096,124.112)"
           style="font-variant:normal;font-weight:normal;font-size:9.002px;font-family:'Courier New';-inkscape-font-specification:Courier;writing-mode:lr-tb;fill:#231f20;fill-opacity:1;fill-rule:nonzero;stroke:none"
           id="text226"><tspan
             x="0 5.4011998 10.8024"
             y="0"
             sodipodi:role="line"
             id="tspan224">set</tspan></text>
        <text
           xml:space="preserve"
           transform="matrix(1,0,0,-1,286.031,124.112)"
           style="font-variant:normal;font-weight:normal;font-size:10px;font-family:'Times New Roman';-inkscape-font-specification:TimesNewRomanPS;writing-mode:lr-tb;fill:#231f20;fill-opacity:1;fill-rule:nonzero;stroke:none"
           id="text232"><tspan
             x="0 4.4400001 6.9400001 9.7200003 13.61 16.110001 20.549999 23.049999 27.900999 32.341 35.671001 40.671001 43.171001 48.171001 51.500999 54.000999 58.441002 63.441002 65.941002 70.380997 75.380997 78.161003 82.600998 87.041 89.820999 92.351997 97.203003 101.643 104.143"
             y="0"
             sodipodi:role="line"
             id="tspan228">” is a verb or an adjective. </tspan><tspan
             x="-188.11099 -182.05099 -177.101 -172.711 -170.103 -165.713 -160.763 -158.033 -153.08299 -148.133 -144.853 -142.245 -139.515 -134.565 -131.83501 -127.445 -122.495 -117.545 -113.155 -108.205"
             y="15"
             sodipodi:role="line"
             id="tspan230">The author intended </tspan></text>
        <text
           xml:space="preserve"
           transform="matrix(0.80015552,0,0,-1,180.42,109.112)"
           style="font-variant:normal;font-weight:normal;font-size:9.002px;font-family:'Courier New';-inkscape-font-specification:Courier;writing-mode:lr-tb;fill:#231f20;fill-opacity:1;fill-rule:nonzero;stroke:none"
           id="text236"><tspan
             x="0 5.4011998 10.8024"
             y="0"
             sodipodi:role="line"
             id="tspan234">set</tspan></text>
        <text
           xml:space="preserve"
           transform="matrix(1,0,0,-1,195.962,109.112)"
           style="font-variant:normal;font-weight:normal;font-size:10px;font-family:'Times New Roman';-inkscape-font-specification:TimesNewRomanPS;writing-mode:lr-tb;fill:#231f20;fill-opacity:1;fill-rule:nonzero;stroke:none"
           id="text240"><tspan
             x="0 2.7309999 7.6820002 10.29 15.241 19.632 22.24 26.631001 29.239 34.040001 38.431 41.712002 46.662998 49.113998 51.722 56.673 61.624001 64.355003 66.962997 69.694 74.644997 77.252998 79.984001 84.934998 89.325996 91.933998 96.324997 101.276 106.227 108.958 113.199 118.15 120.881 123.489 128.44 131.72099 134.32899 137.06 142.011 146.40199"
             y="0"
             sodipodi:role="line"
             id="tspan238">to be a verb, but in the context of the </tspan></text>
        <text
           xml:space="preserve"
           transform="matrix(0.80015552,0,0,-1,344.967,109.112)"
           style="font-variant:normal;font-weight:normal;font-size:9.002px;font-family:'Courier New';-inkscape-font-specification:Courier;writing-mode:lr-tb;fill:#231f20;fill-opacity:1;fill-rule:nonzero;stroke:none"
           id="text244"><tspan
             x="0 5.4011998"
             y="0"
             sodipodi:role="line"
             id="tspan242">if</tspan></text>
        <text
           xml:space="preserve"
           transform="matrix(1,0,0,-1,356.197,109.112)"
           style="font-variant:normal;font-weight:normal;font-size:10px;font-family:'Times New Roman';-inkscape-font-specification:TimesNewRomanPS;writing-mode:lr-tb;fill:#231f20;fill-opacity:1;fill-rule:nonzero;stroke:none"
           id="text248"><tspan
             x="0 3.8399999 6.5700002 10.96 13.69 18.08 25.809999 30.200001 35.150002 37.880001 40.487999 43.217999 45.948002"
             y="0"
             sodipodi:role="line"
             id="tspan246">statement it </tspan></text>
        <text
           xml:space="preserve"
           transform="matrix(1,0,0,-1,404.738,109.112)"
           style="font-style:italic;font-variant:normal;font-size:10px;font-family:'Times New Roman';-inkscape-font-specification:TimesNewRomanPS-Italic;writing-mode:lr-tb;fill:#231f20;fill-opacity:1;fill-rule:nonzero;stroke:none"
           id="text252"><tspan
             x="0 2.5320001 6.9219999 11.312 14.042"
             y="0"
             sodipodi:role="line"
             id="tspan250">feels</tspan></text>
        <text
           xml:space="preserve"
           transform="matrix(1,0,0,-1,425.222,109.112)"
           style="font-variant:normal;font-weight:normal;font-size:10px;font-family:'Times New Roman';-inkscape-font-specification:TimesNewRomanPS;writing-mode:lr-tb;fill:#231f20;fill-opacity:1;fill-rule:nonzero;stroke:none"
           id="text258"><tspan
             x="0 2.73 5.46 10.312"
             y="0"
             sodipodi:role="line"
             id="tspan254">like</tspan><tspan
             x="-345.302 -340.91199 -335.96201 -331.81299 -327.423 -322.47299 -319.74301 -315.353 -310.96301 -308.233 -305.75201 -300.95099 -296.561 -294.11099 -289.96201 -284.452 -279.50201 -275.353 -272.62299 -267.673 -263.28299 -259.134 -255.29401 -252.564 -248.174 -245.444 -241.054 -233.32401 -228.93401 -223.98399 -221.254 -217.105 -213.825 -209.435 -205.045 -200.095 -196.255 -192.106 -187.716 -183.87601 -179.72701 -175.33701 -172.05701 -168.77699 -164.62801 -161.89799 -156.948 -152.558"
             y="12"
             sodipodi:role="line"
             id="tspan256">an adjective. So the statement reads as “If the </tspan></text>
        <text
           xml:space="preserve"
           transform="matrix(0.80015552,0,0,-1,276.768,97.112)"
           style="font-variant:normal;font-weight:normal;font-size:9.002px;font-family:'Courier New';-inkscape-font-specification:Courier;writing-mode:lr-tb;fill:#231f20;fill-opacity:1;fill-rule:nonzero;stroke:none"
           id="text262"><tspan
             x="0 5.4011998 10.8024 16.2036 21.604799 27.006001 32.4072 37.808399"
             y="0"
             sodipodi:role="line"
             id="tspan260">username</tspan></text>
        <text
           xml:space="preserve"
           transform="matrix(1,0,0,-1,315.409,97.112)"
           style="font-variant:normal;font-weight:normal;font-size:10px;font-family:'Times New Roman';-inkscape-font-specification:TimesNewRomanPS;writing-mode:lr-tb;fill:#231f20;fill-opacity:1;fill-rule:nonzero;stroke:none"
           id="text266"><tspan
             x="0 4.3920002 7.1240001 9.8559999 13.138 15.87 20.822001 25.774 28.506001 32.897999 37.047001 43.967999 48.360001 52.202 56.351002 61.303001 64.584999 68.725998 73.678001 76.410004 81.362 86.314003 90.155998 92.637001 97.588997 101.738 105.58 109.972 112.704 116.853 119.585"
             y="0"
             sodipodi:role="line"
             id="tspan264">attribute was previously set to</tspan></text>
        <text
           xml:space="preserve"
           transform="matrix(0.80015552,0,0,-1,79.92,85.112)"
           style="font-variant:normal;font-weight:normal;font-size:9.002px;font-family:'Courier New';-inkscape-font-specification:Courier;writing-mode:lr-tb;fill:#231f20;fill-opacity:1;fill-rule:nonzero;stroke:none"
           id="text270"><tspan
             x="0 5.4011998 10.8024 16.2036 21.604799 27.006001 32.4072 37.808399"
             y="0"
             sodipodi:role="line"
             id="tspan268">unclebob</tspan></text>
        <text
           xml:space="preserve"
           transform="matrix(1,0,0,-1,114.412,85.112)"
           style="font-variant:normal;font-weight:normal;font-size:10px;font-family:'Times New Roman';-inkscape-font-specification:TimesNewRomanPS;writing-mode:lr-tb;fill:#231f20;fill-opacity:1;fill-rule:nonzero;stroke:none"
           id="text274"><tspan
             x="0 4.3899999 7.4320002 11.822 16.771999 21.722 24.764 29.714001 34.664001 37.394001 40.436001 44.826 48.666 53.056 55.785999 58.827999 61.557999 66.508003 70.898003"
             y="0"
             sodipodi:role="line"
             id="tspan272">” and not “set the </tspan></text>
        <text
           xml:space="preserve"
           transform="matrix(0.80015552,0,0,-1,188.341,85.112)"
           style="font-variant:normal;font-weight:normal;font-size:9.002px;font-family:'Courier New';-inkscape-font-specification:Courier;writing-mode:lr-tb;fill:#231f20;fill-opacity:1;fill-rule:nonzero;stroke:none"
           id="text278"><tspan
             x="0 5.4011998 10.8024 16.2036 21.604799 27.006001 32.4072 37.808399"
             y="0"
             sodipodi:role="line"
             id="tspan276">username</tspan></text>
        <text
           xml:space="preserve"
           transform="matrix(1,0,0,-1,225.874,85.112)"
           style="font-variant:normal;font-weight:normal;font-size:10px;font-family:'Times New Roman';-inkscape-font-specification:TimesNewRomanPS;writing-mode:lr-tb;fill:#231f20;fill-opacity:1;fill-rule:nonzero;stroke:none"
           id="text282"><tspan
             x="0 4.3940001 7.1279998 9.8620005 13.146 15.88 20.834 25.788 28.521999 32.916 35.958 38.692001 43.646"
             y="0"
             sodipodi:role="line"
             id="tspan280">attribute to </tspan></text>
        <text
           xml:space="preserve"
           transform="matrix(0.80015552,0,0,-1,272.555,85.112)"
           style="font-variant:normal;font-weight:normal;font-size:9.002px;font-family:'Courier New';-inkscape-font-specification:Courier;writing-mode:lr-tb;fill:#231f20;fill-opacity:1;fill-rule:nonzero;stroke:none"
           id="text286"><tspan
             x="0 5.4011998 10.8024 16.2036 21.604799 27.006001 32.4072 37.808399"
             y="0"
             sodipodi:role="line"
             id="tspan284">unclebob</tspan></text>
        <text
           xml:space="preserve"
           transform="matrix(1,0,0,-1,310.088,85.112)"
           style="font-variant:normal;font-weight:normal;font-size:10px;font-family:'Times New Roman';-inkscape-font-specification:TimesNewRomanPS;writing-mode:lr-tb;fill:#231f20;fill-opacity:1;fill-rule:nonzero;stroke:none"
           id="text290"><tspan
             x="0 4.3899999 9.3400002 14.29 17.332001 20.062 23.341999 26.384001 29.114 34.063999 38.453999 41.183998 44.226002 50.998001 55.948002 59.228001 64.080002 68.470001 73.419998 76.461998 79.192001 84.141998 88.531998 93.482002 95.931999 98.382004 100.832 103.282 105.732 108.182 109.934 114.324 117.068 125.458"
             y="0"
             sodipodi:role="line"
             id="tspan288">and if that worked then. . . .” We</tspan></text>
        <g
           id="g292">
          <g
             id="g294"
             clip-path="url(#clipPath298)">
            <path
               d="m -37.08,664.778 h 36 m -36,-666 h 36 m 522,0 h 36 m -36,666 h 36 m -549,45 v -36 m 504,36 v -36 m 0,-684 v -36 m -504,36 v -36"
               style="fill:none;stroke:#ffffff;stroke-width:0.75;stroke-linecap:butt;stroke-linejoin:miter;stroke-miterlimit:10;stroke-dasharray:none;stroke-opacity:1"
               id="path300" />
            <path
               d="m -37.08,664.778 h 36 m -36,-666 h 36 m 522,0 h 36 m -36,666 h 36 m -549,45 v -36 m 504,36 v -36 m 0,-684 v -36 m -504,36 v -36 m -12,378 c 0,3.312 -2.688,6 -6,6 -3.312,0 -6,-2.688 -6,-6 0,-3.312 2.688,-6 6,-6 3.312,0 6,2.688 6,6 z m -24,0 h 27 m -9,24 v -48 m 545.94,24 c 0,3.312 -2.688,6 -6,6 -3.312,0 -6,-2.688 -6,-6 0,-3.312 2.688,-6 6,-6 3.312,0 6,2.688 6,6 z m -14.94,0 h 27 m -18,24 v -48 m -534,345 c 0,3.312 -2.688,6 -6,6 -3.312,0 -6,-2.688 -6,-6 0,-3.312 2.688,-6 6,-6 3.312,0 6,2.688 6,6 z m -24,0 h 27 m -9,9 v -33 m 6,-618 c 0,3.312 -2.688,6 -6,6 -3.312,0 -6,-2.688 -6,-6 0,-3.312 2.688,-6 6,-6 3.312,0 6,2.688 6,6 z m -24,0 h 27 m -9,24 v -33 m 545.94,651 c 0,3.312 -2.688,6 -6,6 -3.312,0 -6,-2.688 -6,-6 0,-3.312 2.688,-6 6,-6 3.312,0 6,2.688 6,6 z m -14.94,0 h 27 m -18,9 v -33 m 5.94,-618 c 0,3.312 -2.688,6 -6,6 -3.312,0 -6,-2.688 -6,-6 0,-3.312 2.688,-6 6,-6 3.312,0 6,2.688 6,6 z m -14.94,0 h 27 m -18,24 v -33"
               style="fill:none;stroke:#000000;stroke-width:0.25;stroke-linecap:butt;stroke-linejoin:miter;stroke-miterlimit:10;stroke-dasharray:none;stroke-opacity:1"
               id="path302" />
          </g>
        </g>
      </g>
    </g>
    <g
       id="g304">
      <g
         id="g306"
         transform="translate(218,6.56)">
        <text
           xml:space="preserve"
           transform="scale(1,-1)"
           style="font-variant:normal;font-weight:normal;font-size:10px;font-family:Helvetica;-inkscape-font-specification:Helvetica;writing-mode:lr-tb;fill:#0000ff;fill-opacity:1;fill-rule:nonzero;stroke:none"
           id="text310"><tspan
             x="0 7.2199998 14.44 21.66 24.440001 26.66 29.440001 32.77 38.330002 43.889999 49.450001 55.009998 60.009998 65.010002 67.790001 70.010002 75.57 78.349998"
             y="0"
             sodipodi:role="line"
             id="tspan308">www.it-ebooks.info</tspan></text>
        <g
           id="g312"
           transform="translate(-218,-6.56)" />
      </g>
    </g>
  </g>
</svg>
