<?xml version="1.0" encoding="UTF-8" standalone="no"?>
<!-- Created with Inkscape (http://www.inkscape.org/) -->

<svg
   version="1.1"
   id="svg2"
   width="690.14398"
   height="888.47998"
   viewBox="0 0 690.14398 888.47998"
   sodipodi:docname="4PmrqTPDrJV6cyWn.pdf"
   xmlns:inkscape="http://www.inkscape.org/namespaces/inkscape"
   xmlns:sodipodi="http://sodipodi.sourceforge.net/DTD/sodipodi-0.dtd"
   xmlns="http://www.w3.org/2000/svg"
   xmlns:svg="http://www.w3.org/2000/svg">
  <defs
     id="defs6">
    <clipPath
       clipPathUnits="userSpaceOnUse"
       id="clipPath26">
      <path
         d="m 79.92,592.778 h 360 v -34 h -360 z"
         id="path24" />
    </clipPath>
    <clipPath
       clipPathUnits="userSpaceOnUse"
       id="clipPath38">
      <path
         d="m 79.92,522.778 h 360 v -39.943 h -360 z"
         id="path36" />
    </clipPath>
    <clipPath
       clipPathUnits="userSpaceOnUse"
       id="clipPath222">
      <path
         d="M 0,665.858 H 519.84 V 0 H 0 Z"
         id="path220" />
    </clipPath>
  </defs>
  <sodipodi:namedview
     id="namedview4"
     pagecolor="#ffffff"
     bordercolor="#000000"
     borderopacity="0.25"
     inkscape:showpageshadow="2"
     inkscape:pageopacity="0.0"
     inkscape:pagecheckerboard="0"
     inkscape:deskcolor="#d1d1d1" />
  <g
     id="g8"
     inkscape:groupmode="layer"
     inkscape:label="4PmrqTPDrJV6cyWn"
     transform="matrix(1.3333333,0,0,-1.3333333,-1.46,887.61333)">
    <g
       id="g10">
      <g
         id="g12">
        <text
           xml:space="preserve"
           transform="matrix(1,0,0,-1,429.363,35.862)"
           style="font-variant:normal;font-weight:normal;font-size:10px;font-family:'Times New Roman';-inkscape-font-specification:TimesNewRomanPS;writing-mode:lr-tb;fill:#231f20;fill-opacity:1;fill-rule:nonzero;stroke:none"
           id="text16"><tspan
             x="0 5 7.7800002"
             y="0"
             sodipodi:role="line"
             id="tspan14">vii</tspan></text>
        <path
           d="m 439.92,558.778 h -360 v 34 h 360 z"
           style="fill:#ffffff;fill-opacity:1;fill-rule:nonzero;stroke:none"
           id="path18" />
        <g
           id="g20">
          <g
             id="g22"
             clip-path="url(#clipPath26)">
            <path
               d="m 51.42,574.278 h 388.5"
               style="fill:none;stroke:#231f20;stroke-width:1.25;stroke-linecap:butt;stroke-linejoin:miter;stroke-miterlimit:10;stroke-dasharray:none;stroke-opacity:1"
               id="path28" />
          </g>
        </g>
        <path
           d="m 439.92,482.835 h -360 v 39.943 h 360 z"
           style="fill:#ffffff;fill-opacity:1;fill-rule:nonzero;stroke:none"
           id="path30" />
        <g
           id="g32">
          <g
             id="g34"
             clip-path="url(#clipPath38)">
            <path
               d="m 63.92,516.21 h 376"
               style="fill:none;stroke:#231f20;stroke-width:1.25;stroke-linecap:butt;stroke-linejoin:miter;stroke-miterlimit:10;stroke-dasharray:none;stroke-opacity:1"
               id="path40" />
          </g>
        </g>
        <text
           xml:space="preserve"
           transform="matrix(1,0,0,-1,301.909,534.78)"
           style="font-variant:normal;font-weight:bold;font-size:36px;font-family:'Times New Roman';-inkscape-font-specification:TimesNewRomanPS-Bold;writing-mode:lr-tb;fill:#231f20;fill-opacity:1;fill-rule:nonzero;stroke:none"
           id="text44"><tspan
             x="0 25.992001 43.992001 64.008003 75.996002 91.980003 111.996 123.984"
             y="0"
             sodipodi:role="line"
             id="tspan42">Contents</tspan></text>
        <text
           xml:space="preserve"
           transform="matrix(1,0,0,-1,79.92,475.5011)"
           style="font-variant:normal;font-weight:normal;font-size:14px;font-family:'Times New Roman';-inkscape-font-specification:TimesNewRomanPS;writing-mode:lr-tb;fill:#231f20;fill-opacity:1;fill-rule:nonzero;stroke:none"
           id="text48"><tspan
             x="0 7.0854001 14.0854 18.7474 24.614799 34.1656 41.1656 45.827599"
             y="0"
             sodipodi:role="line"
             id="tspan46">Foreword</tspan></text>
        <text
           xml:space="preserve"
           transform="matrix(1,0,0,-1,133.838,475.5011)"
           style="font-variant:normal;font-weight:normal;font-size:12px;font-family:'Times New Roman';-inkscape-font-specification:TimesNewRomanPS;writing-mode:lr-tb;fill:#231f20;fill-opacity:1;fill-rule:nonzero;stroke:none"
           id="text52"><tspan
             x="0 3 6 9 12 15 18 21 24 27 30 33 36 39 42 45 48 51 54 57 60 63 66 69 72 75 78 81 84 87 90 93 96 99 102 105 108 111 114 117 120 123 126 129 132 135 138 141 144 147 150 153 156 159 162 165 168 171 174 177 180 183 186 189 192 195 198 201 204 207 210 213 216 219 222 225 228 231 234 237 240 243 246 249 252 255 258 261 264 267 270 273 276 279 282 285 290.94601 296.94601 300.28201"
             y="0"
             sodipodi:role="line"
             id="tspan50">................................................................................................xix</tspan></text>
        <text
           xml:space="preserve"
           transform="matrix(1,0,0,-1,79.921,447.501)"
           style="font-variant:normal;font-weight:normal;font-size:14px;font-family:'Times New Roman';-inkscape-font-specification:TimesNewRomanPS;writing-mode:lr-tb;fill:#231f20;fill-opacity:1;fill-rule:nonzero;stroke:none"
           id="text56"><tspan
             x="0 4.6620002 11.662 15.554 20.216 27.216 34.216 41.216 47.431999 51.324001 55.216 62.216"
             y="0"
             sodipodi:role="line"
             id="tspan54">Introduction</tspan></text>
        <text
           xml:space="preserve"
           transform="matrix(1,0,0,-1,151.826,447.501)"
           style="font-variant:normal;font-weight:normal;font-size:12px;font-family:'Times New Roman';-inkscape-font-specification:TimesNewRomanPS;writing-mode:lr-tb;fill:#231f20;fill-opacity:1;fill-rule:nonzero;stroke:none"
           id="text60"><tspan
             x="0 3 6 9 12 15 18 21 24 27 30 33 36 39 42 45 48 51 54 57 60 63 66 69 72 75 78 81 84 87 90 93 96 99 102 105 108 111 114 117 120 123 126 129 132 135 138 141 144 147 150 153 156 159 162 165 168 171 174 177 180 183 186 189 192 195 198 201 204 207 210 213 216 219 222 225 228 231 234 237 240 243 246 249 252 255 258 261 264 267 270.28079 276.28079 282.28079"
             y="0"
             sodipodi:role="line"
             id="tspan58">..........................................................................................xxv</tspan></text>
        <text
           xml:space="preserve"
           transform="matrix(1,0,0,-1,79.921,419.501)"
           style="font-variant:normal;font-weight:normal;font-size:14px;font-family:'Times New Roman';-inkscape-font-specification:TimesNewRomanPS;writing-mode:lr-tb;fill:#231f20;fill-opacity:1;fill-rule:nonzero;stroke:none"
           id="text64"><tspan
             x="0 10.108 17.108 20.608 24.5 31.5 37.716 41.216 50.554001 56.9254 63.718201 69.934196"
             y="0"
             sodipodi:role="line"
             id="tspan62">On the Cover</tspan></text>
        <text
           xml:space="preserve"
           transform="matrix(1,0,0,-1,154.824,419.5)"
           style="font-variant:normal;font-weight:normal;font-size:12px;font-family:'Times New Roman';-inkscape-font-specification:TimesNewRomanPS;writing-mode:lr-tb;fill:#231f20;fill-opacity:1;fill-rule:nonzero;stroke:none"
           id="text68"><tspan
             x="0 3 6 9 12 15 18 21 24 27 30 33 36 39 42 45 48 51 54 57 60 63 66 69 72 75 78 81 84 87 90 93 96 99 102 105 108 111 114 117 120 123 126 129 132 135 138 141 144 147 150 153 156 159 162 165 168 171 174 177 180 183 186 189 192 195 198 201 204 207 210 213 216 219 222 225 228 231 234 237 240 243 246 249 252 255 258 263.94601 269.94601 275.94601 279.28201"
             y="0"
             sodipodi:role="line"
             id="tspan66">.......................................................................................xxix</tspan></text>
        <text
           xml:space="preserve"
           transform="matrix(1,0,0,-1,79.92,391.501)"
           style="font-variant:normal;font-weight:bold;font-size:14px;font-family:'Times New Roman';-inkscape-font-specification:TimesNewRomanPS-Bold;writing-mode:lr-tb;fill:#231f20;fill-opacity:1;fill-rule:nonzero;stroke:none"
           id="text72"><tspan
             x="0 10.108 17.892 24.892 32.675999 37.338001 43.554001 49.77 53.27 60.27 64.514801 68.014801 78.122803 82.014801 88.230797 95.230797 103.0148 106.5148 116.6228 123.6228 131.4068"
             y="0"
             sodipodi:role="line"
             id="tspan70">Chapter 1: Clean Code</tspan></text>
        <text
           xml:space="preserve"
           transform="matrix(1,0,0,-1,217.784,391.501)"
           style="font-variant:normal;font-weight:normal;font-size:12px;font-family:'Times New Roman';-inkscape-font-specification:TimesNewRomanPS;writing-mode:lr-tb;fill:#231f20;fill-opacity:1;fill-rule:nonzero;stroke:none"
           id="text76"><tspan
             x="0 3 6 9 12 15 18 21 24 27 30 33 36 39 42 45 48 51 54 57 60 63 66 69 72 75 78 81 84 87 90 93 96 99 102 105 108 111 114 117 120 123 126 129 132 135 138 141 144 147 150 153 156 159 162 165 168 171 174 177 180 183 186 189 192 195 198 201 204 207 210 213 216.28081"
             y="0"
             sodipodi:role="line"
             id="tspan74">........................................................................1</tspan></text>
        <text
           xml:space="preserve"
           transform="matrix(1,0,0,-1,94.3196,375.835)"
           style="font-variant:normal;font-weight:bold;font-size:12px;font-family:'Times New Roman';-inkscape-font-specification:TimesNewRomanPS-Bold;writing-mode:lr-tb;fill:#231f20;fill-opacity:1;fill-rule:nonzero;stroke:none"
           id="text80"><tspan
             x="0 8.0039997 14.676 20.004 24.975599 30.3036 32.466 44.252399 47.588402 50.9244 54.260399 57.260399 65.264397 70.5924 73.5924 82.256401 88.256401 94.928398"
             y="0"
             sodipodi:role="line"
             id="tspan78">There Will Be Code</tspan></text>
        <text
           xml:space="preserve"
           transform="matrix(1,0,0,-1,196.7972,375.835)"
           style="font-variant:normal;font-weight:normal;font-size:12px;font-family:'Times New Roman';-inkscape-font-specification:TimesNewRomanPS;writing-mode:lr-tb;fill:#231f20;fill-opacity:1;fill-rule:nonzero;stroke:none"
           id="text84"><tspan
             x="0 3 6 9 12 15 18 21 24 27 30 33 36 39 42 45 48 51 54 57 60 63 66 69 72 75 78 81 84 87 90 93 96 99 102 105 108 111 114 117 120 123 126 129 132 135 138 141 144 147 150 153 156 159 162 165 168 171 174 177 180 183 186 189 192 195 198 201 204 207 210 213 216 219 222 225 228 231 234 237.28081"
             y="0"
             sodipodi:role="line"
             id="tspan82">...............................................................................2</tspan></text>
        <text
           xml:space="preserve"
           transform="matrix(1,0,0,-1,94.3196,361.8346)"
           style="font-variant:normal;font-weight:bold;font-size:12px;font-family:'Times New Roman';-inkscape-font-specification:TimesNewRomanPS-Bold;writing-mode:lr-tb;fill:#231f20;fill-opacity:1;fill-rule:nonzero;stroke:none"
           id="text88"><tspan
             x="0 8.0039997 14.004 20.676001 23.676001 32.34 38.34 45.012001"
             y="0"
             sodipodi:role="line"
             id="tspan86">Bad Code</tspan></text>
        <text
           xml:space="preserve"
           transform="matrix(1,0,0,-1,145.8296,361.8346)"
           style="font-variant:normal;font-weight:normal;font-size:12px;font-family:'Times New Roman';-inkscape-font-specification:TimesNewRomanPS;writing-mode:lr-tb;fill:#231f20;fill-opacity:1;fill-rule:nonzero;stroke:none"
           id="text92"><tspan
             x="0 3 6 9 12 15 18 21 24 27 30 33 36 39 42 45 48 51 54 57 60 63 66 69 72 75 78 81 84 87 90 93 96 99 102 105 108 111 114 117 120 123 126 129 132 135 138 141 144 147 150 153 156 159 162 165 168 171 174 177 180 183 186 189 192 195 198 201 204 207 210 213 216 219 222 225 228 231 234 237 240 243 246 249 252 255 258 261 264 267 270 273 276 279 282 285 288.28079"
             y="0"
             sodipodi:role="line"
             id="tspan90">................................................................................................3</tspan></text>
        <text
           xml:space="preserve"
           transform="matrix(1,0,0,-1,94.3196,347.8354)"
           style="font-variant:normal;font-weight:bold;font-size:12px;font-family:'Times New Roman';-inkscape-font-specification:TimesNewRomanPS-Bold;writing-mode:lr-tb;fill:#231f20;fill-opacity:1;fill-rule:nonzero;stroke:none"
           id="text96"><tspan
             x="0 8.0039997 14.676 20.004 22.2864 29.188801 35.188801 39.184799 45.184799 48.520802 51.520802 60.184799 66.184799 70.852798 74.848801 77.848801 83.848801 87.844803 90.844803 100.1808 108.8448 115.5168 118.8528 125.5248 131.5248 134.5248 140.5248 143.5248 154.8528 160.1808 164.8488"
             y="0"
             sodipodi:role="line"
             id="tspan94">The Total Cost of Owning a Mess</tspan></text>
        <text
           xml:space="preserve"
           transform="matrix(1,0,0,-1,265.7516,347.8354)"
           style="font-variant:normal;font-weight:normal;font-size:12px;font-family:'Times New Roman';-inkscape-font-specification:TimesNewRomanPS;writing-mode:lr-tb;fill:#231f20;fill-opacity:1;fill-rule:nonzero;stroke:none"
           id="text110"><tspan
             x="0 3 6 9 12 15 18 21 24 27 30 33 36 39 42 45 48 51 54 57 60 63 66 69 72 75 78 81 84 87 90 93 96 99 102 105 108 111 114 117 120 123 126 129 132 135 138 141 144 147 150 153 156 159 162 165 168.28081"
             y="0"
             sodipodi:role="line"
             id="tspan98">........................................................4</tspan><tspan
             x="-157.032 -149.7 -143.7 -138.37199 -135.37199 -126.708 -122.712 -117.384 -111.384 -105.384 -102.384 -94.379997 -89.052002 -83.052002 -77.723999 -73.056 -69.720001 -63.720001 -57.720001 -54.720001 -51.383999 -45.383999 -42.383999 -39.048 -33.048 -27.719999 -24.719999 -18.048 -12.2268 -5.8740001 -2.8740001 0.126 3.1259999 6.1259999 9.1260004 12.126 15.126 18.125999 21.125999 24.125999 27.125999 30.125999 33.125999 36.125999 39.125999 42.125999 45.125999 48.125999 51.125999 54.125999 57.125999 60.125999 63.125999 66.125999 69.125999 72.125999 75.125999 78.125999 81.125999 84.125999 87.125999 90.125999 93.125999 96.125999 99.125999 102.126 105.126 108.126 111.126 114.126 117.126 120.126 123.126 126.126 129.12601 132.12601 135.12601 138.12601 141.12601 144.12601 147.12601 150.12601 153.12601 156.12601 159.12601 162.12601 165.12601 168.4068"
             y="14.0004"
             sodipodi:role="line"
             id="tspan100">The Grand Redesign in the Sky..........................................................5</tspan><tspan
             x="-157.032 -148.368 -145.032 -141.696 -138.36 -135.024 -129.024 -123.024 -116.8872 -113.8872 -110.8872 -107.8872 -104.8872 -101.8872 -98.887199 -95.887199 -92.887199 -89.887199 -86.887199 -83.887199 -80.887199 -77.887199 -74.887199 -71.887199 -68.887199 -65.887199 -62.887199 -59.887199 -56.887199 -53.887199 -50.887199 -47.887199 -44.887199 -41.887199 -38.887199 -35.887199 -32.887199 -29.887199 -26.887199 -23.887199 -20.887199 -17.887199 -14.8872 -11.8872 -8.8872004 -5.8871999 -2.8872001 0.1128 3.1127999 6.1128001 9.1127996 12.1128 15.1128 18.112801 21.112801 24.112801 27.112801 30.112801 33.112801 36.112801 39.112801 42.112801 45.112801 48.112801 51.112801 54.112801 57.112801 60.112801 63.112801 66.112801 69.112801 72.112801 75.112801 78.112801 81.112801 84.112801 87.112801 90.112801 93.112801 96.112801 99.112801 102.1128 105.1128 108.1128 111.1128 114.1128 117.1128 120.1128 123.1128 126.1128 129.11279 132.11279 135.11279 138.11279 141.11279 144.11279 147.11279 150.11279 153.11279 156.11279 159.11279 162.11279 165.11279 168.3936"
             y="28.000799"
             sodipodi:role="line"
             id="tspan102">Attitude...............................................................................................5</tspan><tspan
             x="-157.032 -149.7 -143.7 -138.37199 -135.37199 -128.7 -124.704 -121.368 -112.032 -106.704 -103.368 -100.368 -92.363998 -86.363998 -80.363998 -74.363998 -68.363998 -62.363998 -58.130402 -52.130402 -41.8764 -38.8764 -35.8764 -32.8764 -29.8764 -26.8764 -23.8764 -20.8764 -17.8764 -14.8764 -11.8764 -8.8764 -5.8764 -2.8764 0.1236 3.1236 6.1236 9.1236 12.1236 15.1236 18.1236 21.1236 24.1236 27.1236 30.1236 33.1236 36.1236 39.1236 42.1236 45.1236 48.1236 51.1236 54.1236 57.1236 60.1236 63.1236 66.123596 69.123596 72.123596 75.123596 78.123596 81.123596 84.123596 87.123596 90.123596 93.123596 96.123596 99.123596 102.1236 105.1236 108.1236 111.1236 114.1236 117.1236 120.1236 123.1236 126.1236 129.1236 132.1236 135.1236 138.1236 141.1236 144.1236 147.1236 150.1236 153.1236 156.1236 159.1236 162.1236 165.1236 168.4044"
             y="42.001202"
             sodipodi:role="line"
             id="tspan104">The Primal Conundrum......................................................................6</tspan><tspan
             x="-157.032 -149.7 -143.7 -138.37199 -136.03081 -127.3668 -123.1332 -119.7972 -116.7972 -110.7972 -106.8012 -103.8012 -95.797203 -92.461197 -87.133202 -81.805199 -75.805199 -72.805199 -64.801201 -58.801201 -52.801201 -47.473202 -41.875198 -38.875198 -35.875198 -32.875198 -29.8752 -26.8752 -23.8752 -20.8752 -17.8752 -14.8752 -11.8752 -8.8752003 -5.8751998 -2.8752 0.1248 3.1248 6.1248002 9.1247997 12.1248 15.1248 18.1248 21.1248 24.1248 27.1248 30.1248 33.124802 36.124802 39.124802 42.124802 45.124802 48.124802 51.124802 54.124802 57.124802 60.124802 63.124802 66.124802 69.124802 72.124802 75.124802 78.124802 81.124802 84.124802 87.124802 90.124802 93.124802 96.124802 99.124802 102.1248 105.1248 108.1248 111.1248 114.1248 117.1248 120.1248 123.1248 126.1248 129.1248 132.1248 135.1248 138.1248 141.1248 144.1248 147.1248 150.1248 153.1248 156.1248 159.1248 162.1248 165.1248 168.40559"
             y="56.001598"
             sodipodi:role="line"
             id="tspan106">The Art of Clean Code?......................................................................6</tspan><tspan
             x="-157.032 -145.70399 -139.70399 -134.37601 -131.03999 -128.03999 -124.044 -119.376 -116.376 -108.372 -105.036 -99.708 -94.379997 -88.379997 -85.379997 -77.375999 -71.375999 -65.375999 -60.048 -53.878799 -50.878799 -47.878799 -44.878799 -41.878799 -38.878799 -35.878799 -32.878799 -29.878799 -26.878799 -23.878799 -20.878799 -17.878799 -14.8788 -11.8788 -8.8788004 -5.8787999 -2.8787999 0.1212 3.1212001 6.1212001 9.1211996 12.1212 15.1212 18.121201 21.121201 24.121201 27.121201 30.121201 33.121201 36.121201 39.121201 42.121201 45.121201 48.121201 51.121201 54.121201 57.121201 60.121201 63.121201 66.121201 69.121201 72.121201 75.121201 78.121201 81.121201 84.121201 87.121201 90.121201 93.121201 96.121201 99.121201 102.1212 105.1212 108.1212 111.1212 114.1212 117.1212 120.1212 123.1212 126.1212 129.1212 132.1212 135.1212 138.1212 141.1212 144.1212 147.1212 150.1212 153.1212 156.1212 159.1212 162.1212 165.1212 168.40199"
             y="70.001999"
             sodipodi:role="line"
             id="tspan108">What Is Clean Code?..........................................................................7</tspan></text>
        <text
           xml:space="preserve"
           transform="matrix(1,0,0,-1,94.3196,263.8342)"
           style="font-variant:normal;font-weight:bold;font-size:12px;font-family:'Times New Roman';-inkscape-font-specification:TimesNewRomanPS-Bold;writing-mode:lr-tb;fill:#231f20;fill-opacity:1;fill-rule:nonzero;stroke:none"
           id="text114"><tspan
             x="0 6.6719999 12 18.672001 24.672001 30.672001 34.007999 38.675999 41.675999 47.675999 51.672001 53.954399 61.958401 68.630402 74.630402 81.302399 87.302399 93.974403"
             y="0"
             sodipodi:role="line"
             id="tspan112">Schools of Thought</tspan></text>
        <text
           xml:space="preserve"
           transform="matrix(1,0,0,-1,193.7984,263.8342)"
           style="font-variant:normal;font-weight:normal;font-size:12px;font-family:'Times New Roman';-inkscape-font-specification:TimesNewRomanPS;writing-mode:lr-tb;fill:#231f20;fill-opacity:1;fill-rule:nonzero;stroke:none"
           id="text118"><tspan
             x="0 3 6 9 12 15 18 21 24 27 30 33 36 39 42 45 48 51 54 57 60 63 66 69 72 75 78 81 84 87 90 93 96 99 102 105 108 111 114 117 120 123 126 129 132 135 138 141 144 147 150 153 156 159 162 165 168 171 174 177 180 183 186 189 192 195 198 201 204 207 210 213 216 219 222 225 228 231 234.28081 240.28081"
             y="0"
             sodipodi:role="line"
             id="tspan116">..............................................................................12</tspan></text>
        <text
           xml:space="preserve"
           transform="matrix(1,0,0,-1,94.3196,249.8338)"
           style="font-variant:normal;font-weight:bold;font-size:12px;font-family:'Times New Roman';-inkscape-font-specification:TimesNewRomanPS-Bold;writing-mode:lr-tb;fill:#231f20;fill-opacity:1;fill-rule:nonzero;stroke:none"
           id="text122"><tspan
             x="0 10.8024 18.111601 26.7756 31.7472 37.075199 39.055199 47.121601 53.793598 57.7896 64.461601 70.461601 75.673203"
             y="0"
             sodipodi:role="line"
             id="tspan120">WeAre Authors</tspan></text>
        <text
           xml:space="preserve"
           transform="matrix(1,0,0,-1,175.8116,249.8338)"
           style="font-variant:normal;font-weight:normal;font-size:12px;font-family:'Times New Roman';-inkscape-font-specification:TimesNewRomanPS;writing-mode:lr-tb;fill:#231f20;fill-opacity:1;fill-rule:nonzero;stroke:none"
           id="text126"><tspan
             x="0 3 6 9 12 15 18 21 24 27 30 33 36 39 42 45 48 51 54 57 60 63 66 69 72 75 78 81 84 87 90 93 96 99 102 105 108 111 114 117 120 123 126 129 132 135 138 141 144 147 150 153 156 159 162 165 168 171 174 177 180 183 186 189 192 195 198 201 204 207 210 213 216 219 222 225 228 231 234 237 240 243 246 249 252.28081 258.28079"
             y="0"
             sodipodi:role="line"
             id="tspan124">....................................................................................13</tspan></text>
        <text
           xml:space="preserve"
           transform="matrix(1,0,0,-1,94.322,235.8334)"
           style="font-variant:normal;font-weight:bold;font-size:12px;font-family:'Times New Roman';-inkscape-font-specification:TimesNewRomanPS-Bold;writing-mode:lr-tb;fill:#231f20;fill-opacity:1;fill-rule:nonzero;stroke:none"
           id="text130"><tspan
             x="0 8.0039997 14.676 20.004 23.004 31.007999 36.530399 42.530399 45.530399 52.2024 57.530399 63.530399 70.2024 74.198402 77.198402 85.862396 92.534401 95.870399"
             y="0"
             sodipodi:role="line"
             id="tspan128">The Boy Scout Rule</tspan></text>
        <text
           xml:space="preserve"
           transform="matrix(1,0,0,-1,196.7984,235.8334)"
           style="font-variant:normal;font-weight:normal;font-size:12px;font-family:'Times New Roman';-inkscape-font-specification:TimesNewRomanPS;writing-mode:lr-tb;fill:#231f20;fill-opacity:1;fill-rule:nonzero;stroke:none"
           id="text134"><tspan
             x="0 3 6 9 12 15 18 21 24 27 30 33 36 39 42 45 48 51 54 57 60 63 66 69 72 75 78 81 84 87 90 93 96 99 102 105 108 111 114 117 120 123 126 129 132 135 138 141 144 147 150 153 156 159 162 165 168 171 174 177 180 183 186 189 192 195 198 201 204 207 210 213 216 219 222 225 228 231.28081 237.28081"
             y="0"
             sodipodi:role="line"
             id="tspan132">.............................................................................14</tspan></text>
        <text
           xml:space="preserve"
           transform="matrix(1,0,0,-1,94.322,221.8342)"
           style="font-variant:normal;font-weight:bold;font-size:12px;font-family:'Times New Roman';-inkscape-font-specification:TimesNewRomanPS-Bold;writing-mode:lr-tb;fill:#231f20;fill-opacity:1;fill-rule:nonzero;stroke:none"
           id="text138"><tspan
             x="0 7.3319998 12.3036 17.631599 24.3036 30.975599 36.3036 39.639599 42.639599 48.639599 55.3116 61.983601 64.983597 72.315598 77.6436 80.979599 87.651604 92.979599 96.315598 102.9876 106.3236 111.6516"
             y="0"
             sodipodi:role="line"
             id="tspan136">Prequel and Principles</tspan></text>
        <text
           xml:space="preserve"
           transform="matrix(1,0,0,-1,211.7876,221.8342)"
           style="font-variant:normal;font-weight:normal;font-size:12px;font-family:'Times New Roman';-inkscape-font-specification:TimesNewRomanPS;writing-mode:lr-tb;fill:#231f20;fill-opacity:1;fill-rule:nonzero;stroke:none"
           id="text142"><tspan
             x="0 3 6 9 12 15 18 21 24 27 30 33 36 39 42 45 48 51 54 57 60 63 66 69 72 75 78 81 84 87 90 93 96 99 102 105 108 111 114 117 120 123 126 129 132 135 138 141 144 147 150 153 156 159 162 165 168 171 174 177 180 183 186 189 192 195 198 201 204 207 210 213 216.28081 222.28081"
             y="0"
             sodipodi:role="line"
             id="tspan140">........................................................................15</tspan></text>
        <text
           xml:space="preserve"
           transform="matrix(1,0,0,-1,94.322,207.8338)"
           style="font-variant:normal;font-weight:bold;font-size:12px;font-family:'Times New Roman';-inkscape-font-specification:TimesNewRomanPS-Bold;writing-mode:lr-tb;fill:#231f20;fill-opacity:1;fill-rule:nonzero;stroke:none"
           id="text146"><tspan
             x="0 8.6639996 14.664 21.336 26.664 30 36.672001 41.34 44.675999 50.675999"
             y="0"
             sodipodi:role="line"
             id="tspan144">Conclusion</tspan></text>
        <text
           xml:space="preserve"
           transform="matrix(1,0,0,-1,151.8272,207.8338)"
           style="font-variant:normal;font-weight:normal;font-size:12px;font-family:'Times New Roman';-inkscape-font-specification:TimesNewRomanPS;writing-mode:lr-tb;fill:#231f20;fill-opacity:1;fill-rule:nonzero;stroke:none"
           id="text150"><tspan
             x="0 3 6 9 12 15 18 21 24 27 30 33 36 39 42 45 48 51 54 57 60 63 66 69 72 75 78 81 84 87 90 93 96 99 102 105 108 111 114 117 120 123 126 129 132 135 138 141 144 147 150 153 156 159 162 165 168 171 174 177 180 183 186 189 192 195 198 201 204 207 210 213 216 219 222 225 228 231 234 237 240 243 246 249 252 255 258 261 264 267 270 273 276.28079 282.28079"
             y="0"
             sodipodi:role="line"
             id="tspan148">............................................................................................15</tspan></text>
        <text
           xml:space="preserve"
           transform="matrix(1,0,0,-1,94.322,193.8334)"
           style="font-variant:normal;font-weight:bold;font-size:12px;font-family:'Times New Roman';-inkscape-font-specification:TimesNewRomanPS-Bold;writing-mode:lr-tb;fill:#231f20;fill-opacity:1;fill-rule:nonzero;stroke:none"
           id="text154"><tspan
             x="0 8.0039997 11.34 17.7756 21.111601 24.447599 30.3312 36.3312 41.542801 47.542801 54.214802 60.348"
             y="0"
             sodipodi:role="line"
             id="tspan152">Bibliography</tspan></text>
        <text
           xml:space="preserve"
           transform="matrix(1,0,0,-1,160.8212,193.8334)"
           style="font-variant:normal;font-weight:normal;font-size:12px;font-family:'Times New Roman';-inkscape-font-specification:TimesNewRomanPS;writing-mode:lr-tb;fill:#231f20;fill-opacity:1;fill-rule:nonzero;stroke:none"
           id="text158"><tspan
             x="0 3 6 9 12 15 18 21 24 27 30 33 36 39 42 45 48 51 54 57 60 63 66 69 72 75 78 81 84 87 90 93 96 99 102 105 108 111 114 117 120 123 126 129 132 135 138 141 144 147 150 153 156 159 162 165 168 171 174 177 180 183 186 189 192 195 198 201 204 207 210 213 216 219 222 225 228 231 234 237 240 243 246 249 252 255 258 261 264 267.28079 273.28079"
             y="0"
             sodipodi:role="line"
             id="tspan156">.........................................................................................15</tspan></text>
        <text
           xml:space="preserve"
           transform="matrix(1,0,0,-1,79.919,167.5011)"
           style="font-variant:normal;font-weight:bold;font-size:14px;font-family:'Times New Roman';-inkscape-font-specification:TimesNewRomanPS-Bold;writing-mode:lr-tb;fill:#231f20;fill-opacity:1;fill-rule:nonzero;stroke:none"
           id="text162"><tspan
             x="0 10.108 17.892 24.892 32.675999 37.338001 43.554001 49.77 53.27 60.27 64.514801 68.014801 81.230797 87.4468 94.4468 102.2308 106.1228 113.9068 120.9068 125.5688 133.3528 137.2448 140.7448 150.8528 157.8528 169.5148 175.7308"
             y="0"
             sodipodi:role="line"
             id="tspan160">Chapter 2: Meaningful Names</tspan></text>
        <text
           xml:space="preserve"
           transform="matrix(1,0,0,-1,262.754,167.5)"
           style="font-variant:normal;font-weight:normal;font-size:12px;font-family:'Times New Roman';-inkscape-font-specification:TimesNewRomanPS;writing-mode:lr-tb;fill:#231f20;fill-opacity:1;fill-rule:nonzero;stroke:none"
           id="text166"><tspan
             x="0 3 6 9 12 15 18 21 24 27 30 33 36 39 42 45 48 51 54 57 60 63 66 69 72 75 78 81 84 87 90 93 96 99 102 105 108 111 114 117 120 123 126 129 132 135 138 141 144 147 150 153 156 159 162 165.28081 171.28081"
             y="0"
             sodipodi:role="line"
             id="tspan164">.......................................................17</tspan></text>
        <text
           xml:space="preserve"
           transform="matrix(1,0,0,-1,94.3196,151.834)"
           style="font-variant:normal;font-weight:bold;font-size:12px;font-family:'Times New Roman';-inkscape-font-specification:TimesNewRomanPS-Bold;writing-mode:lr-tb;fill:#231f20;fill-opacity:1;fill-rule:nonzero;stroke:none"
           id="text170"><tspan
             x="0 4.6680002 11.34 15.336 20.3076 26.3076 32.979599 39.6516 44.979599 48.975601 52.3116 58.3116"
             y="0"
             sodipodi:role="line"
             id="tspan168">Introduction</tspan></text>
        <text
           xml:space="preserve"
           transform="matrix(1,0,0,-1,160.82,151.834)"
           style="font-variant:normal;font-weight:normal;font-size:12px;font-family:'Times New Roman';-inkscape-font-specification:TimesNewRomanPS;writing-mode:lr-tb;fill:#231f20;fill-opacity:1;fill-rule:nonzero;stroke:none"
           id="text174"><tspan
             x="0 3 6 9 12 15 18 21 24 27 30 33 36 39 42 45 48 51 54 57 60 63 66 69 72 75 78 81 84 87 90 93 96 99 102 105 108 111 114 117 120 123 126 129 132 135 138 141 144 147 150 153 156 159 162 165 168 171 174 177 180 183 186 189 192 195 198 201 204 207 210 213 216 219 222 225 228 231 234 237 240 243 246 249 252 255 258 261 264 267.28079 273.28079"
             y="0"
             sodipodi:role="line"
             id="tspan172">.........................................................................................17</tspan></text>
        <text
           xml:space="preserve"
           transform="matrix(1,0,0,-1,94.3196,137.8348)"
           style="font-variant:normal;font-weight:bold;font-size:12px;font-family:'Times New Roman';-inkscape-font-specification:TimesNewRomanPS-Bold;writing-mode:lr-tb;fill:#231f20;fill-opacity:1;fill-rule:nonzero;stroke:none"
           id="text178"><tspan
             x="0 8.6639996 13.332 18.66 21.66 26.327999 33 36.995998 42.324001 48.995998 52.992001 56.327999 62.327999 69 72.996002 81.660004 86.751602 92.395203 97.723198 103.7232 107.0592 110.3952 117.0672 123.0672 126.0672 134.7312 140.7312 150.7272 156.05521"
             y="0"
             sodipodi:role="line"
             id="tspan176">Use Intention-Revealing Names</tspan></text>
        <text
           xml:space="preserve"
           transform="matrix(1,0,0,-1,256.7576,137.8348)"
           style="font-variant:normal;font-weight:normal;font-size:12px;font-family:'Times New Roman';-inkscape-font-specification:TimesNewRomanPS;writing-mode:lr-tb;fill:#231f20;fill-opacity:1;fill-rule:nonzero;stroke:none"
           id="text182"><tspan
             x="0 3 6 9 12 15 18 21 24 27 30 33 36 39 42 45 48 51 54 57 60 63 66 69 72 75 78 81 84 87 90 93 96 99 102 105 108 111 114 117 120 123 126 129 132 135 138 141 144 147 150 153 156 159 162 165 168 171.28081 177.28081"
             y="0"
             sodipodi:role="line"
             id="tspan180">.........................................................18</tspan></text>
        <text
           xml:space="preserve"
           transform="matrix(1,0,0,-1,94.3196,123.8344)"
           style="font-variant:normal;font-weight:bold;font-size:12px;font-family:'Times New Roman';-inkscape-font-specification:TimesNewRomanPS-Bold;writing-mode:lr-tb;fill:#231f20;fill-opacity:1;fill-rule:nonzero;stroke:none"
           id="text186"><tspan
             x="0 7.4664001 13.11 19.110001 22.445999 29.118 32.118 40.782001 44.118 48.785999 52.122002 58.793999 62.491199 68.491203 73.819199 83.815201 89.815201 93.811203 97.147202 103.1472"
             y="0"
             sodipodi:role="line"
             id="tspan184">Avoid Disinformation</tspan></text>
        <text
           xml:space="preserve"
           transform="matrix(1,0,0,-1,205.7912,123.8344)"
           style="font-variant:normal;font-weight:normal;font-size:12px;font-family:'Times New Roman';-inkscape-font-specification:TimesNewRomanPS;writing-mode:lr-tb;fill:#231f20;fill-opacity:1;fill-rule:nonzero;stroke:none"
           id="text190"><tspan
             x="0 3 6 9 12 15 18 21 24 27 30 33 36 39 42 45 48 51 54 57 60 63 66 69 72 75 78 81 84 87 90 93 96 99 102 105 108 111 114 117 120 123 126 129 132 135 138 141 144 147 150 153 156 159 162 165 168 171 174 177 180 183 186 189 192 195 198 201 204 207 210 213 216 219 222.28081 228.28081"
             y="0"
             sodipodi:role="line"
             id="tspan188">..........................................................................19</tspan></text>
        <text
           xml:space="preserve"
           transform="matrix(1,0,0,-1,94.3196,109.8328)"
           style="font-variant:normal;font-weight:bold;font-size:12px;font-family:'Times New Roman';-inkscape-font-specification:TimesNewRomanPS-Bold;writing-mode:lr-tb;fill:#231f20;fill-opacity:1;fill-rule:nonzero;stroke:none"
           id="text194"><tspan
             x="0 11.328 17.327999 23.8836 29.211599 32.211601 43.5396 48.867599 54.867599 61.5396 64.875603 71.5476 77.5476 81.543602 88.215599 91.551598 94.551598 103.2156 106.5516 111.2196 115.2156 118.5516 125.2236 130.55161 134.54761 137.88361 143.88361 150.5556"
             y="0"
             sodipodi:role="line"
             id="tspan192">Make Meaningful Distinctions</tspan></text>
        <text
           xml:space="preserve"
           transform="matrix(1,0,0,-1,250.7612,109.8328)"
           style="font-variant:normal;font-weight:normal;font-size:12px;font-family:'Times New Roman';-inkscape-font-specification:TimesNewRomanPS;writing-mode:lr-tb;fill:#231f20;fill-opacity:1;fill-rule:nonzero;stroke:none"
           id="text198"><tspan
             x="0 3 6 9 12 15 18 21 24 27 30 33 36 39 42 45 48 51 54 57 60 63 66 69 72 75 78 81 84 87 90 93 96 99 102 105 108 111 114 117 120 123 126 129 132 135 138 141 144 147 150 153 156 159 162 165 168 171 174 177.28081 183.28081"
             y="0"
             sodipodi:role="line"
             id="tspan196">...........................................................20</tspan></text>
        <text
           xml:space="preserve"
           transform="matrix(1,0,0,-1,94.3196,95.8336)"
           style="font-variant:normal;font-weight:bold;font-size:12px;font-family:'Times New Roman';-inkscape-font-specification:TimesNewRomanPS-Bold;writing-mode:lr-tb;fill:#231f20;fill-opacity:1;fill-rule:nonzero;stroke:none"
           id="text202"><tspan
             x="0 8.6639996 13.332 18.66 21.66 28.992001 33.9636 39.9636 46.635601 52.635601 59.307598 65.979599 71.307602 76.635597 82.519203 88.954803 92.290802 97.618797 100.6188 109.2828 115.2828 125.2788 130.6068"
             y="0"
             sodipodi:role="line"
             id="tspan200">Use Pronounceable Names</tspan></text>
        <text
           xml:space="preserve"
           transform="matrix(1,0,0,-1,229.7744,95.8336)"
           style="font-variant:normal;font-weight:normal;font-size:12px;font-family:'Times New Roman';-inkscape-font-specification:TimesNewRomanPS;writing-mode:lr-tb;fill:#231f20;fill-opacity:1;fill-rule:nonzero;stroke:none"
           id="text206"><tspan
             x="0 3 6 9 12 15 18 21 24 27 30 33 36 39 42 45 48 51 54 57 60 63 66 69 72 75 78 81 84 87 90 93 96 99 102 105 108 111 114 117 120 123 126 129 132 135 138 141 144 147 150 153 156 159 162 165 168 171 174 177 180 183 186 189 192 195 198.28081 204.28081"
             y="0"
             sodipodi:role="line"
             id="tspan204">..................................................................21</tspan></text>
        <text
           xml:space="preserve"
           transform="matrix(1,0,0,-1,94.3196,81.8332)"
           style="font-variant:normal;font-weight:bold;font-size:12px;font-family:'Times New Roman';-inkscape-font-specification:TimesNewRomanPS-Bold;writing-mode:lr-tb;fill:#231f20;fill-opacity:1;fill-rule:nonzero;stroke:none"
           id="text210"><tspan
             x="0 8.6639996 13.332 18.66 21.66 28.332001 33.66 39.66 44.631599 49.959599 56.631599 62.515202 68.950798 72.286797 77.614799 80.614799 89.278801 95.278801 105.2748 110.6028"
             y="0"
             sodipodi:role="line"
             id="tspan208">Use Searchable Names</tspan></text>
        <text
           xml:space="preserve"
           transform="matrix(1,0,0,-1,211.7864,81.8332)"
           style="font-variant:normal;font-weight:normal;font-size:12px;font-family:'Times New Roman';-inkscape-font-specification:TimesNewRomanPS;writing-mode:lr-tb;fill:#231f20;fill-opacity:1;fill-rule:nonzero;stroke:none"
           id="text214"><tspan
             x="0 3 6 9 12 15 18 21 24 27 30 33 36 39 42 45 48 51 54 57 60 63 66 69 72 75 78 81 84 87 90 93 96 99 102 105 108 111 114 117 120 123 126 129 132 135 138 141 144 147 150 153 156 159 162 165 168 171 174 177 180 183 186 189 192 195 198 201 204 207 210 213 216.28081 222.28081"
             y="0"
             sodipodi:role="line"
             id="tspan212">........................................................................22</tspan></text>
        <g
           id="g216">
          <g
             id="g218"
             clip-path="url(#clipPath222)">
            <path
               d="m -37.08,664.778 h 36 m -36,-666 h 36 m 522,0 h 36 m -36,666 h 36 m -549,45 v -36 m 504,36 v -36 m 0,-684 v -36 m -504,36 v -36"
               style="fill:none;stroke:#ffffff;stroke-width:0.75;stroke-linecap:butt;stroke-linejoin:miter;stroke-miterlimit:10;stroke-dasharray:none;stroke-opacity:1"
               id="path224" />
            <path
               d="m -37.08,664.778 h 36 m -36,-666 h 36 m 522,0 h 36 m -36,666 h 36 m -549,45 v -36 m 504,36 v -36 m 0,-684 v -36 m -504,36 v -36 m -12,378 c 0,3.312 -2.688,6 -6,6 -3.312,0 -6,-2.688 -6,-6 0,-3.312 2.688,-6 6,-6 3.312,0 6,2.688 6,6 z m -24,0 h 27 m -9,24 v -48 m 545.94,24 c 0,3.312 -2.688,6 -6,6 -3.312,0 -6,-2.688 -6,-6 0,-3.312 2.688,-6 6,-6 3.312,0 6,2.688 6,6 z m -14.94,0 h 27 m -18,24 v -48 m -534,345 c 0,3.312 -2.688,6 -6,6 -3.312,0 -6,-2.688 -6,-6 0,-3.312 2.688,-6 6,-6 3.312,0 6,2.688 6,6 z m -24,0 h 27 m -9,9 v -33 m 6,-618 c 0,3.312 -2.688,6 -6,6 -3.312,0 -6,-2.688 -6,-6 0,-3.312 2.688,-6 6,-6 3.312,0 6,2.688 6,6 z m -24,0 h 27 m -9,24 v -33 m 545.94,651 c 0,3.312 -2.688,6 -6,6 -3.312,0 -6,-2.688 -6,-6 0,-3.312 2.688,-6 6,-6 3.312,0 6,2.688 6,6 z m -14.94,0 h 27 m -18,9 v -33 m 5.94,-618 c 0,3.312 -2.688,6 -6,6 -3.312,0 -6,-2.688 -6,-6 0,-3.312 2.688,-6 6,-6 3.312,0 6,2.688 6,6 z m -14.94,0 h 27 m -18,24 v -33"
               style="fill:none;stroke:#000000;stroke-width:0.25;stroke-linecap:butt;stroke-linejoin:miter;stroke-miterlimit:10;stroke-dasharray:none;stroke-opacity:1"
               id="path226" />
          </g>
        </g>
      </g>
    </g>
    <g
       id="g228">
      <g
         id="g230"
         transform="translate(218,6.56)">
        <text
           xml:space="preserve"
           transform="scale(1,-1)"
           style="font-variant:normal;font-weight:normal;font-size:10px;font-family:Helvetica;-inkscape-font-specification:Helvetica;writing-mode:lr-tb;fill:#0000ff;fill-opacity:1;fill-rule:nonzero;stroke:none"
           id="text234"><tspan
             x="0 7.2199998 14.44 21.66 24.440001 26.66 29.440001 32.77 38.330002 43.889999 49.450001 55.009998 60.009998 65.010002 67.790001 70.010002 75.57 78.349998"
             y="0"
             sodipodi:role="line"
             id="tspan232">www.it-ebooks.info</tspan></text>
        <g
           id="g236"
           transform="translate(-218,-6.56)" />
      </g>
    </g>
  </g>
</svg>
