<?xml version="1.0" encoding="UTF-8" standalone="no"?>
<!-- Created with Inkscape (http://www.inkscape.org/) -->

<svg
   version="1.1"
   id="svg2"
   width="690.14398"
   height="888.47998"
   viewBox="0 0 690.14398 888.47998"
   sodipodi:docname="4PmrqTPDrJV6cyWn.pdf"
   xmlns:inkscape="http://www.inkscape.org/namespaces/inkscape"
   xmlns:sodipodi="http://sodipodi.sourceforge.net/DTD/sodipodi-0.dtd"
   xmlns="http://www.w3.org/2000/svg"
   xmlns:svg="http://www.w3.org/2000/svg">
  <defs
     id="defs6">
    <clipPath
       clipPathUnits="userSpaceOnUse"
       id="clipPath132">
      <path
         d="M 0,665.858 H 519.84 V 0 H 0 Z"
         id="path130" />
    </clipPath>
  </defs>
  <sodipodi:namedview
     id="namedview4"
     pagecolor="#ffffff"
     bordercolor="#000000"
     borderopacity="0.25"
     inkscape:showpageshadow="2"
     inkscape:pageopacity="0.0"
     inkscape:pagecheckerboard="0"
     inkscape:deskcolor="#d1d1d1" />
  <g
     id="g8"
     inkscape:groupmode="layer"
     inkscape:label="4PmrqTPDrJV6cyWn"
     transform="matrix(1.3333333,0,0,-1.3333333,-1.46,887.61333)">
    <g
       id="g10">
      <g
         id="g12">
        <text
           xml:space="preserve"
           transform="matrix(1,0,0,-1,79.92,622.111)"
           style="font-variant:normal;font-weight:normal;font-size:10px;font-family:'Times New Roman';-inkscape-font-specification:TimesNewRomanPS;writing-mode:lr-tb;fill:#231f20;fill-opacity:1;fill-rule:nonzero;stroke:none"
           id="text16"><tspan
             x="0 5"
             y="0"
             sodipodi:role="line"
             id="tspan14">52</tspan></text>
        <text
           xml:space="preserve"
           transform="matrix(1,0,0,-1,348.831,622.111)"
           style="font-variant:normal;font-weight:bold;font-size:10px;font-family:'Times New Roman';-inkscape-font-specification:TimesNewRomanPS-Bold;writing-mode:lr-tb;fill:#231f20;fill-opacity:1;fill-rule:nonzero;stroke:none"
           id="text20"><tspan
             x="0 7.2199998 12.78 17.780001 23.34 26.67 31.110001 35.549999 38.199001 43.199001 46.229 48.877998 54.987999 60.548 66.108002 70.547997 73.877998 76.657997 81.657997 87.218002"
             y="0"
             sodipodi:role="line"
             id="tspan18">Chapter 3: Functions</tspan></text>
        <text
           xml:space="preserve"
           transform="matrix(1,0,0,-1,79.919,480.4451)"
           style="font-variant:normal;font-weight:bold;font-size:14px;font-family:'Times New Roman';-inkscape-font-specification:TimesNewRomanPS-Bold;writing-mode:lr-tb;fill:#231f20;fill-opacity:1;fill-rule:nonzero;stroke:none"
           id="text24"><tspan
             x="0 9.3380003 13.23 20.733999 24.625999 28.518 35.377998 42.377998 48.453999 55.453999 63.237999 70.391998"
             y="0"
             sodipodi:role="line"
             id="tspan22">Bibliography</tspan></text>
        <text
           xml:space="preserve"
           transform="matrix(1,0,0,-1,79.92,455.1111)"
           style="font-variant:normal;font-weight:bold;font-size:10px;font-family:'Times New Roman';-inkscape-font-specification:TimesNewRomanPS-Bold;writing-mode:lr-tb;fill:#231f20;fill-opacity:1;fill-rule:nonzero;stroke:none"
           id="text28"><tspan
             x="0 3.3299999 11.11 17.219999 22.219999 27.219999 30.549999 33.580002"
             y="0"
             sodipodi:role="line"
             id="tspan26">[KP78]: </tspan></text>
        <text
           xml:space="preserve"
           transform="matrix(1,0,0,-1,118.79,455.1111)"
           style="font-variant:normal;font-weight:normal;font-size:10px;font-family:'Times New Roman';-inkscape-font-specification:TimesNewRomanPS;writing-mode:lr-tb;fill:#231f20;fill-opacity:1;fill-rule:nonzero;stroke:none"
           id="text32"><tspan
             x="0 6.9710002 11.41 14.938 19.938 22.718 27.718 32.717999 37.158001 42.158001 44.736 49.175999 54.175999 59.175999 61.754002 67.314003 70.094002 74.533997 79.533997 84.533997 89.533997 93.973999 96.903999 99.403999"
             y="0"
             sodipodi:role="line"
             id="tspan30">Kernighan and Plaugher, </tspan></text>
        <text
           xml:space="preserve"
           transform="matrix(1,0,0,-1,220.158,455.1111)"
           style="font-style:italic;font-variant:normal;font-size:10px;font-family:'Times New Roman';-inkscape-font-specification:TimesNewRomanPS-Italic;writing-mode:lr-tb;fill:#231f20;fill-opacity:1;fill-rule:nonzero;stroke:none"
           id="text36"><tspan
             x="0 5.5599999 10.56 15 17.577999 23.688 26.468 30.908001 38.127998 42.568001 47.568001 50.348 54.237999 56.816002 61.816002 64.596001 67.174004 73.283997 76.723999 81.473999 86.473999 89.914001 94.914001 102.134 109.354 112.134 117.134 122.134 124.712 129.71201 132.492 136.93201 139.71201"
             y="0"
             sodipodi:role="line"
             id="tspan34">The Elements of Programming Style</tspan></text>
        <text
           xml:space="preserve"
           transform="matrix(1,0,0,-1,364.286,455.1111)"
           style="font-variant:normal;font-weight:normal;font-size:10px;font-family:'Times New Roman';-inkscape-font-specification:TimesNewRomanPS;writing-mode:lr-tb;fill:#231f20;fill-opacity:1;fill-rule:nonzero;stroke:none"
           id="text42"><tspan
             x="0 2.5 5.0780001 10.078 15.078 17.577999 20.156 24.596001 29.596001 32.096001 34.596001 37.174 46.063999 50.504002 57.723999 61.054001 65.094002 72.314003"
             y="0"
             sodipodi:role="line"
             id="tspan38">, 2d. ed., McGraw-</tspan><tspan
             x="-284.366 -277.146 -274.366 -271.586 -268.806 -266.306 -263.806 -258.806 -253.806 -248.806 -243.806"
             y="12"
             sodipodi:role="line"
             id="tspan40">Hill, 1978.</tspan></text>
        <text
           xml:space="preserve"
           transform="matrix(1,0,0,-1,79.92,419.1111)"
           style="font-variant:normal;font-weight:bold;font-size:10px;font-family:'Times New Roman';-inkscape-font-specification:TimesNewRomanPS-Bold;writing-mode:lr-tb;fill:#231f20;fill-opacity:1;fill-rule:nonzero;stroke:none"
           id="text46"><tspan
             x="0 3.3299999 9.4399996 15.55 21.66 26.66 31.66 34.990002 38.02"
             y="0"
             sodipodi:role="line"
             id="tspan44">[PPP02]: </tspan></text>
        <text
           xml:space="preserve"
           transform="matrix(1,0,0,-1,123.228,419.1111)"
           style="font-variant:normal;font-weight:normal;font-size:10px;font-family:'Times New Roman';-inkscape-font-specification:TimesNewRomanPS;writing-mode:lr-tb;fill:#231f20;fill-opacity:1;fill-rule:nonzero;stroke:none"
           id="text50"><tspan
             x="0 6.6700001 11.67 16.67 21.110001 24.639999 27.42 29.889999 36.560001 39.060001 41.529999 50.419998 54.860001 58.389999 61.169998 63.950001 68.949997 71.449997"
             y="0"
             sodipodi:role="line"
             id="tspan48">Robert C. Martin, </tspan></text>
        <text
           xml:space="preserve"
           transform="matrix(1,0,0,-1,196.533,419.1111)"
           style="font-style:italic;font-variant:normal;font-size:10px;font-family:'Times New Roman';-inkscape-font-specification:TimesNewRomanPS-Italic;writing-mode:lr-tb;fill:#231f20;fill-opacity:1;fill-rule:nonzero;stroke:none"
           id="text56"><tspan
             x="0 6.1100001 11.11 13.89 16.67 21.110001 23.58 28.58 33.580002 36.360001 39.139999 45.66 50.66 54.18 58.619999 61.09 68.309998 72.599998 77.040001 81.480003 84.260002 89.260002 94.260002 101.48 105.92 110.92 113.7 117.03 119.5 125.61 129.5 132.28 137.28 141.72 144.5 149.5 152.28 156.72 160.61 163.11 165.58 170.89 175.89 178.67 181.45 185.89 189.78 194.78 198.67 201.17 203.64 208.64 213.64 218.64 221.11 227.22 230.66 235.66 240.10001"
             y="0"
             sodipodi:role="line"
             id="tspan52">Agile Software Development: Principles, Patterns, and Prac-</tspan><tspan
             x="-116.613 -113.833 -111.053 -106.613 -102.173"
             y="12"
             sodipodi:role="line"
             id="tspan54">tices</tspan></text>
        <text
           xml:space="preserve"
           transform="matrix(1,0,0,-1,98.243,407.1111)"
           style="font-variant:normal;font-weight:normal;font-size:10px;font-family:'Times New Roman';-inkscape-font-specification:TimesNewRomanPS;writing-mode:lr-tb;fill:#231f20;fill-opacity:1;fill-rule:nonzero;stroke:none"
           id="text60"><tspan
             x="0 2.5 5 10.56 13.89 18.33 23.33 26.110001 28.889999 33.330002 37.77 40.27 47.490002 51.93 54.709999 57.490002 59.990002 62.490002 67.489998 72.489998 77.489998 82.489998"
             y="0"
             sodipodi:role="line"
             id="tspan58">, Prentice Hall, 2002.</tspan></text>
        <text
           xml:space="preserve"
           transform="matrix(1,0,0,-1,79.92,383.1111)"
           style="font-variant:normal;font-weight:bold;font-size:10px;font-family:'Times New Roman';-inkscape-font-specification:TimesNewRomanPS-Bold;writing-mode:lr-tb;fill:#231f20;fill-opacity:1;fill-rule:nonzero;stroke:none"
           id="text64"><tspan
             x="0 3.3299999 11.11 18.889999 25 28.33 31.360001"
             y="0"
             sodipodi:role="line"
             id="tspan62">[GOF]: </tspan></text>
        <text
           xml:space="preserve"
           transform="matrix(1,0,0,-1,116.568,383.1111)"
           style="font-style:italic;font-variant:normal;font-size:10px;font-family:'Times New Roman';-inkscape-font-specification:TimesNewRomanPS-Italic;writing-mode:lr-tb;fill:#231f20;fill-opacity:1;fill-rule:nonzero;stroke:none"
           id="text68"><tspan
             x="0 7.2199998 11.66 15.55 18.33 23.33 28.33 31.046 36.355999 41.355999 44.136002 46.916 51.355999 55.245998 60.245998 64.136002 67.466003 70.181999 76.292 79.071999 83.512001 90.732002 95.171997 100.172 102.952 106.842 109.558 114.558 117.338 120.054 126.164 130.604 135.604 139.494 144.29401 149.04401 151.82401 156.26401 158.98 166.2 171.2 173.98 178.42 182.86 185.64 188.356 195.576 199.466 202.246 206.686 211.686 214.466 218.90601 223.90601 226.62199 231.62199 236.62199 239.40199 242.18201 248.702 253.702 257.22198"
             y="0"
             sodipodi:role="line"
             id="tspan66">Design Patterns: Elements of Reusable Object Oriented Software</tspan></text>
        <text
           xml:space="preserve"
           transform="matrix(1,0,0,-1,378.185,383.1111)"
           style="font-variant:normal;font-weight:normal;font-size:10px;font-family:'Times New Roman';-inkscape-font-specification:TimesNewRomanPS;writing-mode:lr-tb;fill:#231f20;fill-opacity:1;fill-rule:nonzero;stroke:none"
           id="text74"><tspan
             x="0 2.5 5.2160001 12.436 16.875999 24.656 32.436001 36.875999 39.591999 44.032001 46.812 49.528 53.967999 56.748001 59.248001"
             y="0"
             sodipodi:role="line"
             id="tspan70">, Gamma et al.,</tspan><tspan
             x="-298.26501 -291.04501 -286.04501 -281.04501 -278.26501 -274.375 -269.375 -264.375 -261.04501 -252.605 -248.16499 -244.27499 -241.495 -237.205 -233.05499 -230.55499 -228.05499 -223.05499 -218.05499 -213.05499 -208.05499"
             y="12"
             sodipodi:role="line"
             id="tspan72">Addison-Wesley, 1996.</tspan></text>
        <text
           xml:space="preserve"
           transform="matrix(1,0,0,-1,79.92,347.1111)"
           style="font-variant:normal;font-weight:bold;font-size:10px;font-family:'Times New Roman';-inkscape-font-specification:TimesNewRomanPS-Bold;writing-mode:lr-tb;fill:#231f20;fill-opacity:1;fill-rule:nonzero;stroke:none"
           id="text78"><tspan
             x="0 3.3299999 9.4399996 16.66 23.33 31.110001 34.439999 37.470001"
             y="0"
             sodipodi:role="line"
             id="tspan76">[PRAG]: </tspan></text>
        <text
           xml:space="preserve"
           transform="matrix(1,0,0,-1,122.679,347.1111)"
           style="font-style:italic;font-variant:normal;font-size:10px;font-family:'Times New Roman';-inkscape-font-specification:TimesNewRomanPS-Italic;writing-mode:lr-tb;fill:#231f20;fill-opacity:1;fill-rule:nonzero;stroke:none"
           id="text82"><tspan
             x="0 5.5599999 10.56 15 19.6 25.709999 29.15 33.950001 38.950001 46.169998 51.169998 53.950001 56.73 61.169998 65.769997 71.879997 75.32 80.07 85.07 88.510002 93.510002 100.73 107.95 112.39"
             y="0"
             sodipodi:role="line"
             id="tspan80">The Pragmatic Programmer</tspan></text>
        <text
           xml:space="preserve"
           transform="matrix(1,0,0,-1,238.549,347.1111)"
           style="font-variant:normal;font-weight:normal;font-size:10px;font-family:'Times New Roman';-inkscape-font-specification:TimesNewRomanPS;writing-mode:lr-tb;fill:#231f20;fill-opacity:1;fill-rule:nonzero;stroke:none"
           id="text88"><tspan
             x="0 2.5 6.5500002 13.77 18.77 23.77 27.1 31.290001 38.509998 43.110001 50.330002 55.330002 60.330002 63.110001 65.610001 70.209999 77.43 81.519997 86.370003 90.809998 94.910004 101.02 106.02 111.02 118.8 123.24 127.13 129.63 133.67999 140.89999 145.89999 150.89999 153.67999 157.57001 162.57001 167.57001 170.89999 179.34 183.78 187.67 190.45 194.74001 198.89"
             y="0"
             sodipodi:role="line"
             id="tspan84">, Andrew Hunt, Dave Thomas, Addison-Wesley,</tspan><tspan
             x="-158.629 -153.629 -148.629 -143.629 -138.629"
             y="11.999"
             sodipodi:role="line"
             id="tspan86">2000.</tspan></text>
        <text
           xml:space="preserve"
           transform="matrix(1,0,0,-1,79.92,311.1121)"
           style="font-variant:normal;font-weight:bold;font-size:10px;font-family:'Times New Roman';-inkscape-font-specification:TimesNewRomanPS-Bold;writing-mode:lr-tb;fill:#231f20;fill-opacity:1;fill-rule:nonzero;stroke:none"
           id="text92"><tspan
             x="0 3.3299999 8.8900003 15 20 25 28.33 31.360001"
             y="0"
             sodipodi:role="line"
             id="tspan90">[SP72]: </tspan></text>
        <text
           xml:space="preserve"
           transform="matrix(1,0,0,-1,116.57,311.1121)"
           style="font-style:italic;font-variant:normal;font-size:10px;font-family:'Times New Roman';-inkscape-font-specification:TimesNewRomanPS-Italic;writing-mode:lr-tb;fill:#231f20;fill-opacity:1;fill-rule:nonzero;stroke:none"
           id="text96"><tspan
             x="0 5 7.7800002 11.67 16.67 21.110001 23.889999 28.889999 32.41 36.849998 41.849998 45.105 51.215 54.654999 59.404999 64.404999 67.845001 72.845001 80.065002 87.285004 90.065002 95.065002"
             y="0"
             sodipodi:role="line"
             id="tspan94">Structured Programming</tspan></text>
        <text
           xml:space="preserve"
           transform="matrix(1,0,0,-1,216.624,311.1121)"
           style="font-variant:normal;font-weight:normal;font-size:10px;font-family:'Times New Roman';-inkscape-font-specification:TimesNewRomanPS;writing-mode:lr-tb;fill:#231f20;fill-opacity:1;fill-rule:nonzero;stroke:none"
           id="text102"><tspan
             x="0 2.5 5.7550001 12.575 15.075 18.405001 21.695 24.195 27.450001 34.669998 39.110001 44.110001 46.889999 49.389999 52.645 58.755001 61.255001 64.209999 72.150002 74.650002 77.904999 85.125 87.904999 90.684998 95.684998 99.574997 102.355 105.685 110.125 112.625 115.88 122.55 125.05 127.755 134.97501 137.47501 140.73 147.39999 149.89999 153.155 160.375 165.375 169.815 173.145 177.58501 180.08501 182.78999 190.00999 194.45 198.89 203.89 208.33 216.11 218.89"
             y="0"
             sodipodi:role="line"
             id="tspan98">, O.-J. Dahl, E. W. Dijkstra, C. A. R. Hoare, Academic</tspan><tspan
             x="-136.70399 -131.144 -127.814 -123.374 -119.484 -115.594 -113.094 -110.594 -104.484 -99.484001 -94.484001 -89.484001 -84.484001 -79.484001 -76.984001 -74.484001 -69.484001 -64.484001 -59.484001 -54.484001"
             y="12"
             sodipodi:role="line"
             id="tspan100">Press, London, 1972.</tspan></text>
        <text
           xml:space="preserve"
           transform="matrix(0.80015552,0,0,-1,123.8508,557.778)"
           style="font-variant:normal;font-weight:normal;font-size:9.002px;font-family:'Courier New';-inkscape-font-specification:Courier;writing-mode:lr-tb;fill:#231f20;fill-opacity:1;fill-rule:nonzero;stroke:none"
           id="text116"><tspan
             x="0 5.4011998 10.8024 16.2036 21.604799 27.006001 32.4072 37.808399 43.209599 48.610802 54.012001 59.4132"
             y="0"
             sodipodi:role="line"
             id="tspan104">.append(arg)</tspan><tspan
             x="-32.4072 0 5.4011998 10.8024 16.2036 21.604799 27.006001 32.4072 37.808399 43.209599 48.610802 54.012001 59.4132 64.8144"
             y="9.0001993"
             sodipodi:role="line"
             id="tspan106"> .append(&quot; .&quot;)</tspan><tspan
             x="-32.4072 0 5.4011998 10.8024 16.2036 21.604799 27.006001 32.4072 37.808399 43.209599 48.610802 54.012001 59.4132 64.8144 70.215599 75.616798 81.017998 86.419197 91.820396 97.221603 102.6228 108.024"
             y="18.000399"
             sodipodi:role="line"
             id="tspan108"> .append(pagePathName)</tspan><tspan
             x="-32.4072 0 5.4011998 10.8024 16.2036 21.604799 27.006001 32.4072 37.808399 43.209599 48.610802 54.012001 59.4132 64.8144 70.215599"
             y="27.001499"
             sodipodi:role="line"
             id="tspan110"> .append(&quot;\n&quot;);</tspan><tspan
             x="-32.4072 -21.604799"
             y="36.001698"
             sodipodi:role="line"
             id="tspan112"> }</tspan><tspan
             x="-32.4072"
             y="45.0019"
             id="tspan114">}</tspan></text>
        <text
           xml:space="preserve"
           transform="matrix(1,0,0,-1,97.92,583.111)"
           style="font-variant:normal;font-weight:bold;font-size:10px;font-family:'Times New Roman';-inkscape-font-specification:TimesNewRomanPS-Bold;writing-mode:lr-tb;fill:#231f20;fill-opacity:1;fill-rule:nonzero;stroke:none"
           id="text120"><tspan
             x="0 6.6700001 9.4499998 13.34 16.67 19.450001 25.01 30.01 32.509998 37.509998 40.84 45.84 48.34 51.669998 56.110001 61.110001 66.669998 70 72.779999 78.139999 83.699997 88.139999 93.699997"
             y="0"
             sodipodi:role="line"
             id="tspan118">Listing 3-7 (continued)</tspan></text>
        <text
           xml:space="preserve"
           transform="matrix(1,0,0,-1,97.92,570.111)"
           style="font-variant:normal;font-weight:bold;font-size:10px;font-family:'Courier New';-inkscape-font-specification:Courier-Bold;writing-mode:lr-tb;fill:#231f20;fill-opacity:1;fill-rule:nonzero;stroke:none"
           id="text124"><tspan
             x="0 6 12 18 24 30 36 42 48 54 60 66 72 78 84 90 96 102 108 114 120 126 132 138 144 150"
             y="0"
             sodipodi:role="line"
             id="tspan122">SetupTeardownIncluder.java</tspan></text>
        <g
           id="g126">
          <g
             id="g128"
             clip-path="url(#clipPath132)">
            <path
               d="m 79.92,592.653 v -84.75 m 361.333,84.75 v -84.75 M 79.795,592.778 h 361.583 m -361.583,-27 h 361.583 m -361.583,-58 h 361.583"
               style="fill:none;stroke:#231f20;stroke-width:0.25;stroke-linecap:butt;stroke-linejoin:miter;stroke-miterlimit:10;stroke-dasharray:none;stroke-opacity:1"
               id="path134" />
            <path
               d="m -37.08,664.778 h 36 m -36,-666 h 36 m 522,0 h 36 m -36,666 h 36 m -549,45 v -36 m 504,36 v -36 m 0,-684 v -36 m -504,36 v -36"
               style="fill:none;stroke:#ffffff;stroke-width:0.75;stroke-linecap:butt;stroke-linejoin:miter;stroke-miterlimit:10;stroke-dasharray:none;stroke-opacity:1"
               id="path136" />
            <path
               d="m -37.08,664.778 h 36 m -36,-666 h 36 m 522,0 h 36 m -36,666 h 36 m -549,45 v -36 m 504,36 v -36 m 0,-684 v -36 m -504,36 v -36 m -12,378 c 0,3.312 -2.688,6 -6,6 -3.312,0 -6,-2.688 -6,-6 0,-3.312 2.688,-6 6,-6 3.312,0 6,2.688 6,6 z m -24,0 h 27 m -9,24 v -48 m 545.94,24 c 0,3.312 -2.688,6 -6,6 -3.312,0 -6,-2.688 -6,-6 0,-3.312 2.688,-6 6,-6 3.312,0 6,2.688 6,6 z m -14.94,0 h 27 m -18,24 v -48 m -534,345 c 0,3.312 -2.688,6 -6,6 -3.312,0 -6,-2.688 -6,-6 0,-3.312 2.688,-6 6,-6 3.312,0 6,2.688 6,6 z m -24,0 h 27 m -9,9 v -33 m 6,-618 c 0,3.312 -2.688,6 -6,6 -3.312,0 -6,-2.688 -6,-6 0,-3.312 2.688,-6 6,-6 3.312,0 6,2.688 6,6 z m -24,0 h 27 m -9,24 v -33 m 545.94,651 c 0,3.312 -2.688,6 -6,6 -3.312,0 -6,-2.688 -6,-6 0,-3.312 2.688,-6 6,-6 3.312,0 6,2.688 6,6 z m -14.94,0 h 27 m -18,9 v -33 m 5.94,-618 c 0,3.312 -2.688,6 -6,6 -3.312,0 -6,-2.688 -6,-6 0,-3.312 2.688,-6 6,-6 3.312,0 6,2.688 6,6 z m -14.94,0 h 27 m -18,24 v -33"
               style="fill:none;stroke:#000000;stroke-width:0.25;stroke-linecap:butt;stroke-linejoin:miter;stroke-miterlimit:10;stroke-dasharray:none;stroke-opacity:1"
               id="path138" />
          </g>
        </g>
      </g>
    </g>
    <g
       id="g140">
      <g
         id="g142"
         transform="translate(218,6.56)">
        <text
           xml:space="preserve"
           transform="scale(1,-1)"
           style="font-variant:normal;font-weight:normal;font-size:10px;font-family:Helvetica;-inkscape-font-specification:Helvetica;writing-mode:lr-tb;fill:#0000ff;fill-opacity:1;fill-rule:nonzero;stroke:none"
           id="text146"><tspan
             x="0 7.2199998 14.44 21.66 24.440001 26.66 29.440001 32.77 38.330002 43.889999 49.450001 55.009998 60.009998 65.010002 67.790001 70.010002 75.57 78.349998"
             y="0"
             sodipodi:role="line"
             id="tspan144">www.it-ebooks.info</tspan></text>
        <g
           id="g148"
           transform="translate(-218,-6.56)" />
      </g>
    </g>
  </g>
</svg>
