<?xml version="1.0" encoding="UTF-8" standalone="no"?>
<!-- Created with Inkscape (http://www.inkscape.org/) -->

<svg
   version="1.1"
   id="svg2"
   width="816"
   height="1056"
   viewBox="0 0 816 1056"
   sodipodi:docname="clean_arch.pdf"
   xmlns:inkscape="http://www.inkscape.org/namespaces/inkscape"
   xmlns:sodipodi="http://sodipodi.sourceforge.net/DTD/sodipodi-0.dtd"
   xmlns="http://www.w3.org/2000/svg"
   xmlns:svg="http://www.w3.org/2000/svg">
  <defs
     id="defs6">
    <clipPath
       clipPathUnits="userSpaceOnUse"
       id="clipPath18">
      <path
         d="m 3480,0 h 696 V 1056 H 3480 V 0"
         clip-rule="evenodd"
         id="path16" />
    </clipPath>
    <clipPath
       clipPathUnits="userSpaceOnUse"
       id="clipPath28">
      <path
         d="m 3480,66 h 696 V 996 H 3480 V 66"
         clip-rule="evenodd"
         id="path26" />
    </clipPath>
  </defs>
  <sodipodi:namedview
     id="namedview4"
     pagecolor="#ffffff"
     bordercolor="#000000"
     borderopacity="0.25"
     inkscape:showpageshadow="2"
     inkscape:pageopacity="0.0"
     inkscape:pagecheckerboard="0"
     inkscape:deskcolor="#d1d1d1" />
  <g
     id="g8"
     inkscape:groupmode="layer"
     inkscape:label="clean_arch"
     transform="translate(59.999999,2.64e-5)">
    <g
       id="g10" />
    <g
       id="g12"
       transform="translate(-3480)">
      <g
         id="g14"
         clip-path="url(#clipPath18)">
        <g
           id="g20" />
      </g>
    </g>
    <g
       id="g22"
       transform="translate(-3480)">
      <g
         id="g24"
         clip-path="url(#clipPath28)">
        <text
           xml:space="preserve"
           transform="translate(3480,83.34375)"
           style="font-variant:normal;font-weight:normal;font-size:20px;font-family:'Times New Roman';-inkscape-font-specification:TimesNewRomanPSMT;writing-mode:lr-tb;fill:#000000;fill-opacity:1;fill-rule:nonzero;stroke:none"
           id="text32"><tspan
             x="0 9 18 28 37 46 56 66 72 77 82 91 101 110 119 124 129 138 148 157 166 175 180 186 191 196 204 213 222 236 244 249 254 264 269 283 292 301 307 317 326 332 341 346 355 360 374 383 388 397 406 420 429 434 440 449 458 464 469 478 488 497 505 510 517 526 535 540 548 553 558 571 580 585 594 603 609 614 619 627 637 643 648 663 672 679"
             y="0"
             sodipodi:role="line"
             id="tspan30">endeavor, even though it seems to manipulate mathematical constructs. Rather, software</tspan></text>
        <text
           xml:space="preserve"
           transform="translate(3480,106)"
           style="font-variant:normal;font-weight:normal;font-size:20px;font-family:'Times New Roman';-inkscape-font-specification:TimesNewRomanPSMT;writing-mode:lr-tb;fill:#000000;fill-opacity:1;fill-rule:nonzero;stroke:none"
           id="text36"><tspan
             x="0 6 14 19 25 31 40 49 54 63 68 76 85 91 100 109 118 127 132 137 153 162 167 175 184 194 209 214 223 233 240 247 256 265 270 279 288 296 304 309 319 328 333 339 348 354 360 366 375 384 389 394 404 409 419 426 436 446 455 460 466 475 484 494 501 508 517 526 531 540 549 557 565 570 575 585 594 602 612 618 623 632 637 647 656"
             y="0"
             sodipodi:role="line"
             id="tspan34">is like a science. We show correctness by failing to prove incorrectness, despite our</tspan></text>
        <text
           xml:space="preserve"
           transform="translate(3480,129)"
           style="font-variant:normal;font-weight:normal;font-size:20px;font-family:'Times New Roman';-inkscape-font-specification:TimesNewRomanPSMT;writing-mode:lr-tb;fill:#000000;fill-opacity:1;fill-rule:nonzero;stroke:none"
           id="text40"><tspan
             x="0 10 19 27 32 37 46 52 58 68 75 80 88"
             y="0"
             sodipodi:role="line"
             id="tspan38">best efforts.</tspan></text>
        <text
           xml:space="preserve"
           transform="translate(3480,172)"
           style="font-variant:normal;font-weight:normal;font-size:20px;font-family:'Times New Roman';-inkscape-font-specification:TimesNewRomanPSMT;writing-mode:lr-tb;fill:#000000;fill-opacity:1;fill-rule:nonzero;stroke:none"
           id="text44"><tspan
             x="0 11 20 29 38 43 53 60 70 80 86 94 99 109 115 120 126 135 144 154 161 168 177 186 191 200 209 217 225 230 239 248 257 262 272 281 286 295 305 315 321 327 336 346 351 361 370 376 385 390 395 405"
             y="0"
             sodipodi:role="line"
             id="tspan42">Such proofs of incorrectness can be applied only to </tspan></text>
        <text
           xml:space="preserve"
           transform="translate(3890,172)"
           style="font-variant:normal;font-weight:normal;font-size:20px;font-family:'Times New Roman';-inkscape-font-specification:TimesNewRomanPSMT;writing-mode:lr-tb;fill:#000000;fill-opacity:1;fill-rule:nonzero;stroke:none"
           id="text48"><tspan
             x="0 10 17 27 37 46 56 62"
             y="0"
             sodipodi:role="line"
             id="tspan46">provable</tspan></text>
        <text
           xml:space="preserve"
           transform="translate(3966,172)"
           style="font-variant:normal;font-weight:normal;font-size:20px;font-family:'Times New Roman';-inkscape-font-specification:TimesNewRomanPSMT;writing-mode:lr-tb;fill:#000000;fill-opacity:1;fill-rule:nonzero;stroke:none"
           id="text52"><tspan
             x="0 10 17 27 36 43 52 66 74 79 84 97 102 112 119 129 138 145 154 168 173 178 187 196"
             y="0"
             sodipodi:role="line"
             id="tspan50">programs. A program that</tspan></text>
        <text
           xml:space="preserve"
           transform="translate(3480,195)"
           style="font-variant:normal;font-weight:normal;font-size:20px;font-family:'Times New Roman';-inkscape-font-specification:TimesNewRomanPSMT;writing-mode:lr-tb;fill:#000000;fill-opacity:1;fill-rule:nonzero;stroke:none"
           id="text56"><tspan
             x="0 6 14 19 28 38 43 48 58 65 75 85 94 104 110 119 139 149 158 167 172 177 187 192 201 210 217 226 234 239 246 255 261 270 279 289 294 303 311 320 325 335 341"
             y="0"
             sodipodi:role="line"
             id="tspan54">is not provable—due to unrestrained use of </tspan></text>
        <text
           xml:space="preserve"
           transform="translate(3826,195)"
           style="font-variant:normal;font-weight:normal;font-size:16px;font-family:'Courier New';-inkscape-font-specification:CourierNewPSMT;writing-mode:lr-tb;fill:#000000;fill-opacity:1;fill-rule:nonzero;stroke:none"
           id="text60"><tspan
             x="0 10 20 30"
             y="0"
             sodipodi:role="line"
             id="tspan58">goto</tspan></text>
        <text
           xml:space="preserve"
           transform="translate(3866,195)"
           style="font-variant:normal;font-weight:normal;font-size:20px;font-family:'Times New Roman';-inkscape-font-specification:TimesNewRomanPSMT;writing-mode:lr-tb;fill:#000000;fill-opacity:1;fill-rule:nonzero;stroke:none"
           id="text64"><tspan
             x="0 5 10 16 26 33 38 47 56 65 79 89 95 104 124 133 142 151 160 170 175 180 190 199 204 214 223 232 246 255"
             y="0"
             sodipodi:role="line"
             id="tspan62">, for example—cannot be deemed</tspan></text>
        <text
           xml:space="preserve"
           transform="translate(3480,218)"
           style="font-variant:normal;font-weight:normal;font-size:20px;font-family:'Times New Roman';-inkscape-font-specification:TimesNewRomanPSMT;writing-mode:lr-tb;fill:#000000;fill-opacity:1;fill-rule:nonzero;stroke:none"
           id="text68"><tspan
             x="0 9 19 26 33 42 51 56 61 70 80 85 99 108 113 118 127 134 139 148 158 173 178 192 201 210 219 224 229 238 246 251 259 264 273 280 289 294 303 313 323 329 335 344 354 359 364 374 379 385 390"
             y="0"
             sodipodi:role="line"
             id="tspan66">correct no matter how many tests are applied to it.</tspan></text>
        <text
           xml:space="preserve"
           transform="translate(3480,261)"
           style="font-variant:normal;font-weight:normal;font-size:20px;font-family:'Times New Roman';-inkscape-font-specification:TimesNewRomanPSMT;writing-mode:lr-tb;fill:#000000;fill-opacity:1;fill-rule:nonzero;stroke:none"
           id="text72"><tspan
             x="0 11 16 23 32 41 46 55 62 71 81 86 96 103 113 122 129 138 152 166 172 181 190 195 201 211 218 227 236 244 249 258 266 271 276 286 291 298 307 316 325 332 340 346 356 365 371 380 385 395 404 413 423 437 447 457 465 474 479 488 493 503 510 520 529 536 545 559 564 570 579 584 594 599 608 613 621 630 635 640 650"
             y="0"
             sodipodi:role="line"
             id="tspan70">Structured programming forces us to recursively decompose a program into a set of</tspan></text>
        <text
           xml:space="preserve"
           transform="translate(3480,284)"
           style="font-variant:normal;font-weight:normal;font-size:20px;font-family:'Times New Roman';-inkscape-font-specification:TimesNewRomanPSMT;writing-mode:lr-tb;fill:#000000;fill-opacity:1;fill-rule:nonzero;stroke:none"
           id="text76"><tspan
             x="0 8 22 31 37 43 48 58 65 75 85 94 104 110 119 124 130 139 148 157 162 168 178 187 195 200 205 221 230 235 244 253 262 267 272 281 290 299 304 313 321 330 335 340 349 357 362 370 375 380 390 395 400 407 416 421 426 436 441 451 458 468 478 487 492 497 506 516 524 533 538 546 560 569 575 581 586 596 603 613 623 632 642 648"
             y="0"
             sodipodi:role="line"
             id="tspan74">small provable functions. We can then use tests to try to prove those small provable</tspan></text>
        <text
           xml:space="preserve"
           transform="translate(3480,307)"
           style="font-variant:normal;font-weight:normal;font-size:20px;font-family:'Times New Roman';-inkscape-font-specification:TimesNewRomanPSMT;writing-mode:lr-tb;fill:#000000;fill-opacity:1;fill-rule:nonzero;stroke:none"
           id="text80"><tspan
             x="0 6 15 24 33 38 44 54 63 71 76 82 91 100 110 117 124 133 142 147 152 157 163 169 174 182 191 200 209 214 219 228 236 241 249 254 260 269 275 281 286 291 301 306 316 323 333 343 352 357 363 372 381 391 398 405 414 423 428 437 446 454 462 467 472 477 486 495 504 509 524 533 538 548 557 566 580 585 590 599 608 613 619 628 637 646 651 657 667 676"
             y="0"
             sodipodi:role="line"
             id="tspan78">functions incorrect. If such tests fail to prove incorrectness, then we deem the functions</tspan></text>
        <text
           xml:space="preserve"
           transform="translate(3480,330)"
           style="font-variant:normal;font-weight:normal;font-size:20px;font-family:'Times New Roman';-inkscape-font-specification:TimesNewRomanPSMT;writing-mode:lr-tb;fill:#000000;fill-opacity:1;fill-rule:nonzero;stroke:none"
           id="text84"><tspan
             x="0 5 15 20 30 39 44 53 63 70 77 86 95 100 105 114 123 133 142 151 160 165 171 181 188 193 203 212 219 224 234 243 250 260 270 278 287 295"
             y="0"
             sodipodi:role="line"
             id="tspan82">to be correct enough for our purposes.</tspan></text>
        <text
           xml:space="preserve"
           transform="translate(3480,400)"
           style="font-variant:normal;font-weight:bold;font-size:33px;font-family:'Times New Roman';-inkscape-font-specification:TimesNewRomanPS-BoldMT;writing-mode:lr-tb;fill:#000000;fill-opacity:1;fill-rule:nonzero;stroke:none"
           id="text88"><tspan
             x="0"
             y="0"
             id="tspan86">C</tspan></text>
        <text
           xml:space="preserve"
           transform="translate(3504,400)"
           style="font-variant:normal;font-weight:bold;font-size:33px;font-family:'Times New Roman';-inkscape-font-specification:TimesNewRomanPS-BoldMT;writing-mode:lr-tb;fill:#000000;fill-opacity:1;fill-rule:nonzero;stroke:none"
           id="text92"><tspan
             x="0 26 50 74 96 120 138 151 177"
             y="0"
             sodipodi:role="line"
             id="tspan90">ONCLUSION</tspan></text>
        <text
           xml:space="preserve"
           transform="translate(3480,445)"
           style="font-variant:normal;font-weight:normal;font-size:20px;font-family:'Times New Roman';-inkscape-font-specification:TimesNewRomanPSMT;writing-mode:lr-tb;fill:#000000;fill-opacity:1;fill-rule:nonzero;stroke:none"
           id="text96"><tspan
             x="0 6 11 16 22 30 35 40 49 55 63 68 77 87 93 99 105 110 119 124 129 139 144 153 160 169 178 183 192 197 203 212 218 226 232 238 244 253 263 269 278 283 292 301 307 312 320 325 335 341 346 356 363 373 382 389 398 412 426 432 441 450 455 460 469 478 483 488 502 511 520 529 537 542 550 555 562 571 580 585 594 601 610"
             y="0"
             sodipodi:role="line"
             id="tspan94">It is this ability to create falsifiable units of programming that makes structured</tspan></text>
        <text
           xml:space="preserve"
           transform="translate(3480,468)"
           style="font-variant:normal;font-weight:normal;font-size:20px;font-family:'Times New Roman';-inkscape-font-specification:TimesNewRomanPSMT;writing-mode:lr-tb;fill:#000000;fill-opacity:1;fill-rule:nonzero;stroke:none"
           id="text100"><tspan
             x="0 10 17 27 36 43 52 66 80 86 95 104 109 119 128 134 143 152 162 168 177 182 187 197 207 216 224 229 234 246 255 261 269 274 280 288 293 298 307 316 321 328 337 346 354 364 373 378 383 392 401 406 411 425 435 445 454 461 470 475 481 490 499 508 517 526 535 544 552 557 567 577 582 591 601 606 611 616 625 635 641 650 659 665 671"
             y="0"
             sodipodi:role="line"
             id="tspan98">programming valuable today. This is the reason that modern languages do not typically</tspan></text>
        <text
           xml:space="preserve"
           transform="translate(3480,491)"
           style="font-variant:normal;font-weight:normal;font-size:20px;font-family:'Times New Roman';-inkscape-font-specification:TimesNewRomanPSMT;writing-mode:lr-tb;fill:#000000;fill-opacity:1;fill-rule:nonzero;stroke:none"
           id="text104"><tspan
             x="0 8 17 27 37 47 54 59 64 73 82 89 98 106 111 118 127 133 142 151 161"
             y="0"
             sodipodi:role="line"
             id="tspan102">support unrestrained </tspan></text>
        <text
           xml:space="preserve"
           transform="translate(3646,491)"
           style="font-variant:normal;font-weight:normal;font-size:16px;font-family:'Courier New';-inkscape-font-specification:CourierNewPSMT;writing-mode:lr-tb;fill:#000000;fill-opacity:1;fill-rule:nonzero;stroke:none"
           id="text108"><tspan
             x="0 10 20 30"
             y="0"
             sodipodi:role="line"
             id="tspan106">goto</tspan></text>
        <text
           xml:space="preserve"
           transform="translate(3691,491)"
           style="font-variant:normal;font-weight:normal;font-size:20px;font-family:'Times New Roman';-inkscape-font-specification:TimesNewRomanPSMT;writing-mode:lr-tb;fill:#000000;fill-opacity:1;fill-rule:nonzero;stroke:none"
           id="text112"><tspan
             x="0 8 13 22 27 36 50 59 68 73 81 86 91 108 118 125 134 144 154 163 169 174"
             y="0"
             sodipodi:role="line"
             id="tspan110">statements. Moreover, </tspan></text>
        <text
           xml:space="preserve"
           transform="translate(3870,491)"
           style="font-variant:normal;font-weight:normal;font-size:20px;font-family:'Times New Roman';-inkscape-font-specification:TimesNewRomanPSMT;writing-mode:lr-tb;fill:#000000;fill-opacity:1;fill-rule:nonzero;stroke:none"
           id="text116"><tspan
             x="0 9 14 19 24 33 42 47 56 63 72 81 87 92 101 110 115 124 131 140 146 151 157 166 176 185 191 196 201 206 215 221 229 234 240 248 253 268 277"
             y="0"
             sodipodi:role="line"
             id="tspan114">at the architectural level, this is why</tspan></text>
        <text
           xml:space="preserve"
           transform="translate(3480,514)"
           style="font-variant:normal;font-weight:normal;font-size:20px;font-family:'Times New Roman';-inkscape-font-specification:TimesNewRomanPSMT;writing-mode:lr-tb;fill:#000000;fill-opacity:1;fill-rule:nonzero;stroke:none"
           id="text120"><tspan
             x="0 15 24 29 37 42 48 54 60 65 74 84 93 101 107 117 126 133"
             y="0"
             sodipodi:role="line"
             id="tspan118">we still consider </tspan></text>
        <text
           xml:space="preserve"
           transform="translate(3618,514)"
           style="font-variant:normal;font-weight:normal;font-size:20px;font-family:'Times New Roman';-inkscape-font-specification:TimesNewRomanPSMT;writing-mode:lr-tb;fill:#000000;fill-opacity:1;fill-rule:nonzero;stroke:none"
           id="text124"><tspan
             x="0 6 15 24 33 38 44 54 63 72 78 83 93 102 111 121 135 145 155 163 169 174 180 190"
             y="0"
             sodipodi:role="line"
             id="tspan122">functional decomposition</tspan></text>
        <text
           xml:space="preserve"
           transform="translate(3822,514)"
           style="font-variant:normal;font-weight:normal;font-size:20px;font-family:'Times New Roman';-inkscape-font-specification:TimesNewRomanPSMT;writing-mode:lr-tb;fill:#000000;fill-opacity:1;fill-rule:nonzero;stroke:none"
           id="text128"><tspan
             x="0 5 15 20 30 39 44 54 63 72 77 87 93 98 108 117 124 129 139 148 156 161 166 176 183 192 201 206 212 221 230 238"
             y="0"
             sodipodi:role="line"
             id="tspan126">to be one of our best practices.</tspan></text>
        <text
           xml:space="preserve"
           transform="translate(3480,557)"
           style="font-variant:normal;font-weight:normal;font-size:20px;font-family:'Times New Roman';-inkscape-font-specification:TimesNewRomanPSMT;writing-mode:lr-tb;fill:#000000;fill-opacity:1;fill-rule:nonzero;stroke:none"
           id="text132"><tspan
             x="0 14 19 24 33 43 52 59 68 73 79 88 98 107 113 118 123 129 136 146 160 165 170 179 188 193 201 215 224 230 236 245 253 258 263 269 278 287 296 301 307 317 326 331 336 346 351 356 365 374 379 385 394 401 410 419 427 432 437 446 456 470 480 490 499 508 517 522 527 532 540 550 556 561 576 585 592 601 606 612 620 625 631 637 646 655 660"
             y="0"
             sodipodi:role="line"
             id="tspan130">At every level, from the smallest function to the largest component, software is like a</tspan></text>
        <text
           xml:space="preserve"
           transform="translate(3480,580)"
           style="font-variant:normal;font-weight:normal;font-size:20px;font-family:'Times New Roman';-inkscape-font-specification:TimesNewRomanPSMT;writing-mode:lr-tb;fill:#000000;fill-opacity:1;fill-rule:nonzero;stroke:none"
           id="text136"><tspan
             x="0 8 17 23 32 41 50 59 64 73 82 92 97 102 107 116 125 132 141 147 157 164 173 178 183 189 197 202 212 219 225 235 244 253 258 268 277 282 288 297 303 311 317 323 329 338 348 354 360 366 371 379 384 389 400 410 416 421 436 445 452 461 466 475 482 491 500 506 511 520 529 534 542 547 555 560 567 573 583 592 597 602 612 617 627 636 642 648 657"
             y="0"
             sodipodi:role="line"
             id="tspan134">science and, therefore, is driven by falsifiability. Software architects strive to define</tspan></text>
        <text
           xml:space="preserve"
           transform="translate(3480,603)"
           style="font-variant:normal;font-weight:normal;font-size:20px;font-family:'Times New Roman';-inkscape-font-specification:TimesNewRomanPSMT;writing-mode:lr-tb;fill:#000000;fill-opacity:1;fill-rule:nonzero;stroke:none"
           id="text140"><tspan
             x="0 14 24 34 43 49 58 66 71 76 85 95 109 119 129 138 147 156 161 169 174 179 188 197 207 212 220 229 236 246 252 261 270 278 283 288 297 306 311 316 325 332 341 346 355 364 372 378 384 393 398 404 413 419 427 433 439 445 454 464 470 479 484 491 496 505 513 518 527 537 543 552 559 564 569 579 589 594 604 614 619 627 637 642 647 652 661 670"
             y="0"
             sodipodi:role="line"
             id="tspan138">modules, components, and services that are easily falsifiable (testable). To do so, they</tspan></text>
        <text
           xml:space="preserve"
           transform="translate(3480,626)"
           style="font-variant:normal;font-weight:normal;font-size:20px;font-family:'Times New Roman';-inkscape-font-specification:TimesNewRomanPSMT;writing-mode:lr-tb;fill:#000000;fill-opacity:1;fill-rule:nonzero;stroke:none"
           id="text144"><tspan
             x="0 9 23 33 39 49 58 63 70 79 87 92 99 105 114 119 125 135 144 149 159 165 173 182 188 198 204 210 219 228 236 241 249 255 269 275 281 290 297 302 307 317 322 330 335 342 351 360 365 374 381 390 400 405 415 422 432 441 448 457 471 485 491 500 509 514 519 528 534 544 553 559 564 569 578 583 588 597 602 616 625 634"
             y="0"
             sodipodi:role="line"
             id="tspan142">employ restrictive disciplines similar to structured programming, albeit at a much</tspan></text>
        <text
           xml:space="preserve"
           transform="translate(3480,649)"
           style="font-variant:normal;font-weight:normal;font-size:20px;font-family:'Times New Roman';-inkscape-font-specification:TimesNewRomanPSMT;writing-mode:lr-tb;fill:#000000;fill-opacity:1;fill-rule:nonzero;stroke:none"
           id="text148"><tspan
             x="0 9 15 24 33 42 49 54 60 69 79 88 94"
             y="0"
             sodipodi:role="line"
             id="tspan146">higher level.</tspan></text>
        <text
           xml:space="preserve"
           transform="translate(3480,692)"
           style="font-variant:normal;font-weight:normal;font-size:20px;font-family:'Times New Roman';-inkscape-font-specification:TimesNewRomanPSMT;writing-mode:lr-tb;fill:#000000;fill-opacity:1;fill-rule:nonzero;stroke:none"
           id="text152"><tspan
             x="0 6 11 16 22 30 35 40 49 59 67 76 81 88 97 105 110 117 123 132 137 143 153 162 167 177 183 191 200 206 216 222 228 237 246 254 259 264 273 282 287 292 307 316 321 336 342 348 354 359 367 372 381 391 400 405 411 420 425 433 443 457 466 471 481 490 495 504 510 516 521 527 536 541 546 555 564 569 578 587 596 606 611 620 627 635 640 645"
             y="0"
             sodipodi:role="line"
             id="tspan150">It is those restrictive disciplines that we will study in some detail in the chapters to</tspan></text>
        <text
           xml:space="preserve"
           transform="translate(3480,715)"
           style="font-variant:normal;font-weight:normal;font-size:20px;font-family:'Times New Roman';-inkscape-font-specification:TimesNewRomanPSMT;writing-mode:lr-tb;fill:#000000;fill-opacity:1;fill-rule:nonzero;stroke:none"
           id="text156"><tspan
             x="0 9 19 33 42"
             y="0"
             sodipodi:role="line"
             id="tspan154">come.</tspan></text>
      </g>
    </g>
  </g>
</svg>
