<?xml version="1.0" encoding="UTF-8" standalone="no"?>
<!-- Created with Inkscape (http://www.inkscape.org/) -->

<svg
   version="1.1"
   id="svg2"
   width="816"
   height="1056"
   viewBox="0 0 816 1056"
   sodipodi:docname="clean_arch.pdf"
   xmlns:inkscape="http://www.inkscape.org/namespaces/inkscape"
   xmlns:sodipodi="http://sodipodi.sourceforge.net/DTD/sodipodi-0.dtd"
   xmlns="http://www.w3.org/2000/svg"
   xmlns:svg="http://www.w3.org/2000/svg">
  <defs
     id="defs6">
    <clipPath
       clipPathUnits="userSpaceOnUse"
       id="clipPath18">
      <path
         d="m 19488,0 h 696 v 1056 h -696 V 0"
         clip-rule="evenodd"
         id="path16" />
    </clipPath>
    <clipPath
       clipPathUnits="userSpaceOnUse"
       id="clipPath28">
      <path
         d="m 19488,66 h 696 v 930 h -696 V 66"
         clip-rule="evenodd"
         id="path26" />
    </clipPath>
  </defs>
  <sodipodi:namedview
     id="namedview4"
     pagecolor="#ffffff"
     bordercolor="#000000"
     borderopacity="0.25"
     inkscape:showpageshadow="2"
     inkscape:pageopacity="0.0"
     inkscape:pagecheckerboard="0"
     inkscape:deskcolor="#d1d1d1" />
  <g
     id="g8"
     inkscape:groupmode="layer"
     inkscape:label="clean_arch"
     transform="translate(59.999999,2.64e-5)">
    <g
       id="g10" />
    <g
       id="g12"
       transform="translate(-19488)">
      <g
         id="g14"
         clip-path="url(#clipPath18)">
        <g
           id="g20" />
      </g>
    </g>
    <g
       id="g22"
       transform="translate(-19488)">
      <g
         id="g24"
         clip-path="url(#clipPath28)">
        <text
           xml:space="preserve"
           transform="translate(19488,83)"
           style="font-variant:normal;font-weight:normal;font-size:20px;font-family:'Times New Roman';-inkscape-font-specification:TimesNewRomanPSMT;writing-mode:lr-tb;fill:#000000;fill-opacity:1;fill-rule:nonzero;stroke:none"
           id="text32"><tspan
             x="0 16 25 30 40 49 55 61 66 71 80 86 92 97 102 111 120 125 134 143 150 160 175 184 191 200 205 211 221 228 233 238 247 253 261 266 274 283 291 296 305 319 339 344 353 362 367 376 386 400 410 419 424 433 440 445 455 465 474 481 491 496 501 506 515 524 529 543 552 566 576 583 592 597 607 617 626 633 643 648 653 658 667"
             y="0"
             sodipodi:role="line"
             id="tspan30">We built all the hardware for this system—the computer board, the memory board, the</tspan></text>
        <text
           xml:space="preserve"
           transform="translate(19488,106)"
           style="font-variant:normal;font-weight:normal;font-size:20px;font-family:'Times New Roman';-inkscape-font-specification:TimesNewRomanPSMT;writing-mode:lr-tb;fill:#000000;fill-opacity:1;fill-rule:nonzero;stroke:none"
           id="text36"><tspan
             x="0 10 20 26 35 44 50 55 64 70 79 88 98 112 117 127 137 146 153 163 171 176 181 190 200 209 216 225 230 239 245 254 263 268 273 285 294 303 308 322 331 337 346 351 360 370 384 394 403 408 417 424 429 439 449 458 465 475 480 495 504 512"
             y="0"
             sodipodi:role="line"
             id="tspan34">voice/telecom boards, everything. The main computer board was </tspan></text>
        <text
           xml:space="preserve"
           transform="translate(20005,106)"
           style="font-variant:normal;font-weight:normal;font-size:20px;font-family:'Times New Roman';-inkscape-font-specification:TimesNewRomanPSMT;writing-mode:lr-tb;fill:#000000;fill-opacity:1;fill-rule:nonzero;stroke:none"
           id="text40"><tspan
             x="0 14 23 32 42 47 59 68 78 87 96 105"
             y="0"
             sodipodi:role="line"
             id="tspan38">Deep Thought</tspan></text>
        <text
           xml:space="preserve"
           transform="translate(20115,106)"
           style="font-variant:normal;font-weight:normal;font-size:20px;font-family:'Times New Roman';-inkscape-font-specification:TimesNewRomanPSMT;writing-mode:lr-tb;fill:#000000;fill-opacity:1;fill-rule:nonzero;stroke:none"
           id="text44"><tspan
             x="0 5 10 15 24"
             y="0"
             sodipodi:role="line"
             id="tspan42">, the</tspan></text>
        <text
           xml:space="preserve"
           transform="translate(19488,129)"
           style="font-variant:normal;font-weight:normal;font-size:20px;font-family:'Times New Roman';-inkscape-font-specification:TimesNewRomanPSMT;writing-mode:lr-tb;fill:#000000;fill-opacity:1;fill-rule:nonzero;stroke:none"
           id="text48"><tspan
             x="0 6 15 20 29 35 40 50 60 70 80 90 95 105 112 122 131 140 148 156 166 173 178 183 192 201 206 211 217 222 236 245 254 259 265 275 284 293 303 308 317 326 333 339 345 354 360"
             y="0"
             sodipodi:role="line"
             id="tspan46">Intel 80286 processor that I mentioned earlier.</tspan></text>
        <text
           xml:space="preserve"
           transform="translate(19488,172)"
           style="font-variant:normal;font-weight:normal;font-size:20px;font-family:'Times New Roman';-inkscape-font-specification:TimesNewRomanPSMT;writing-mode:lr-tb;fill:#000000;fill-opacity:1;fill-rule:nonzero;stroke:none"
           id="text52"><tspan
             x="0 12 21 30 35 45 55 61 70 79 84 94 104 113 120 130 138 143 152 161 170 179 184 192 201 211 221 231 238 243 252 262 267 277 286 295 300 305 314 320 329 339 348 358 367 376 381 387 393 402 411 416 421 433 442 451 460 465 474 484 493 501 507 515 520 529 539 544 554 560 565 574 579 584 593 599 608 618 627 637 646"
             y="0"
             sodipodi:role="line"
             id="tspan50">The voice boards each supported one telephone line. They consisted of a telephone</tspan></text>
        <text
           xml:space="preserve"
           transform="translate(19488,195)"
           style="font-variant:normal;font-weight:normal;font-size:20px;font-family:'Times New Roman';-inkscape-font-specification:TimesNewRomanPSMT;writing-mode:lr-tb;fill:#000000;fill-opacity:1;fill-rule:nonzero;stroke:none"
           id="text56"><tspan
             x="0 6 15 20 29 36 42 51 60 69 74 79 88 93 103 113 119 128 137 142 151 160 169 179 189 198 205 211 221 230 239 249 259 268 274 279 284 292 302 316 325 330 344 353 367 377 384 392 397 402 411 420 430 435 444 453 458 464 473 478 487 493 498 508 518 528 538 548 553 567 573 582 589 599 608 618 632 642 651 656 665 671"
             y="0"
             sodipodi:role="line"
             id="tspan54">interface, a voice encoder/decoder, some memory, and an Intel 80186 microcomputer.</tspan></text>
        <text
           xml:space="preserve"
           transform="translate(19488,238)"
           style="font-variant:normal;font-weight:normal;font-size:20px;font-family:'Times New Roman';-inkscape-font-specification:TimesNewRomanPSMT;writing-mode:lr-tb;fill:#000000;fill-opacity:1;fill-rule:nonzero;stroke:none"
           id="text60"><tspan
             x="0 12 21 30 35 43 53 59 64 79 88 95 104 109 115 125 132 137 142 151 160 165 179 188 194 203 208 217 227 241 251 260 265 274 281 286 296 306 315 322 332 337 352 361 369 374 389 396 402 407 412 421 430 435 441 450 455 468 473 478 490 499 508 513 523 533 542 549 558 563 569 578 587 592 600 609 617 622 631 645 650 665 674"
             y="0"
             sodipodi:role="line"
             id="tspan58">The software for the main computer board was written in C. The operating system was</tspan></text>
        <text
           xml:space="preserve"
           transform="translate(19488,261)"
           style="font-variant:normal;font-weight:normal;font-size:20px;font-family:'Times New Roman';-inkscape-font-specification:TimesNewRomanPSMT;writing-mode:lr-tb;fill:#000000;fill-opacity:1;fill-rule:nonzero;stroke:none"
           id="text64"><tspan
             x="0 17 28 34 51 58 68 78 83 88 97 106 111 120 129 136 142 151 156 165 175 189 203 212 221 231 238 244 250 259 268 278 288 295 301 311 320 329 334 339 353 362 368 373 379 389 396 406 415 424 432 440 446 455 464 469 474 484 490 498 507 512 522 532 541 548 557 562 568 577 586 591 599 608 616 621 630 644"
             y="0"
             sodipodi:role="line"
             id="tspan62">MP/M-86, an early command-line–driven, multiprocessing, disk operating system.</tspan></text>
        <text
           xml:space="preserve"
           transform="translate(19488,284)"
           style="font-variant:normal;font-weight:normal;font-size:20px;font-family:'Times New Roman';-inkscape-font-specification:TimesNewRomanPSMT;writing-mode:lr-tb;fill:#000000;fill-opacity:1;fill-rule:nonzero;stroke:none"
           id="text68"><tspan
             x="0 17 28 34 51 56 71 80 88 93 98 107 116 121 131 141 151 158 163 177 186 195 201 209 214 227 241 247 261"
             y="0"
             sodipodi:role="line"
             id="tspan66">MP/M was the poor man’s UNIX.</tspan></text>
        <text
           xml:space="preserve"
           transform="translate(19488,327)"
           style="font-variant:normal;font-weight:normal;font-size:20px;font-family:'Times New Roman';-inkscape-font-specification:TimesNewRomanPSMT;writing-mode:lr-tb;fill:#000000;fill-opacity:1;fill-rule:nonzero;stroke:none"
           id="text72"><tspan
             x="0 12 21 30 35 43 53 59 64 79 88 95 104 109 115 125 132 137 142 151 160 165 175 185 191 200 209 214 224 234 243 250 260 268 273 288 297 305 310 325 332 338 343 348 357 366 371 377 386 391 400 408 416 425 439 449 455 464 470 475 480 489 498 508 513 522 531 541 546 555 565 570 580 590 599 606 615 620 626 635"
             y="0"
             sodipodi:role="line"
             id="tspan70">The software for the voice boards was written in assembler, and had no operating</tspan></text>
        <text
           xml:space="preserve"
           transform="translate(19488,350)"
           style="font-variant:normal;font-weight:normal;font-size:20px;font-family:'Times New Roman';-inkscape-font-specification:TimesNewRomanPSMT;writing-mode:lr-tb;fill:#000000;fill-opacity:1;fill-rule:nonzero;stroke:none"
           id="text76"><tspan
             x="0 8 17 25 30 39 53 58 63 76 86 100 114 123 132 138 147 156 161 167 177 186 191 201 210 215 230 239 248 257 262 276 285 294 304 309 321 330 340 349 358 367 372 377 386 395 405 410 415 424 433 438 448 458 464 473 482 487 497 507 516 523 533 541 546 556 565 574 583 590 597 606 616 621 626 635 642 652 661 670"
             y="0"
             sodipodi:role="line"
             id="tspan74">system. Communication between Deep Thought and the voice boards occurred through</tspan></text>
        <text
           xml:space="preserve"
           transform="translate(19488,373)"
           style="font-variant:normal;font-weight:normal;font-size:20px;font-family:'Times New Roman';-inkscape-font-specification:TimesNewRomanPSMT;writing-mode:lr-tb;fill:#000000;fill-opacity:1;fill-rule:nonzero;stroke:none"
           id="text80"><tspan
             x="0 8 17 26 33 42 52 57 71 80 94 104 111 119"
             y="0"
             sodipodi:role="line"
             id="tspan78">shared memory.</tspan></text>
        <text
           xml:space="preserve"
           transform="translate(19488,416)"
           style="font-variant:normal;font-weight:normal;font-size:20px;font-family:'Times New Roman';-inkscape-font-specification:TimesNewRomanPSMT;writing-mode:lr-tb;fill:#000000;fill-opacity:1;fill-rule:nonzero;stroke:none"
           id="text84"><tspan
             x="0 12 21 30 35 44 51 60 69 75 80 89 98 103 112 119 128 133 143 149 154 159 168 174 182 187 195 204 212 217 226 240 245 260 270 279 285 295 300 305 315 325 334 343 348 358 367 372 381 390 396 402 411 421"
             y="0"
             sodipodi:role="line"
             id="tspan82">The architecture of this system would today be called </tspan></text>
        <text
           xml:space="preserve"
           transform="translate(19914,416)"
           style="font-variant:normal;font-weight:normal;font-size:20px;font-family:'Times New Roman';-inkscape-font-specification:TimesNewRomanPSMT;writing-mode:lr-tb;fill:#000000;fill-opacity:1;fill-rule:nonzero;stroke:none"
           id="text88"><tspan
             x="0 8 17 24 34 40 49 58 63 73 80 86 95 104 109 118"
             y="0"
             sodipodi:role="line"
             id="tspan86">service oriented</tspan></text>
        <text
           xml:space="preserve"
           transform="translate(20042,416)"
           style="font-variant:normal;font-weight:normal;font-size:20px;font-family:'Times New Roman';-inkscape-font-specification:TimesNewRomanPSMT;writing-mode:lr-tb;fill:#000000;fill-opacity:1;fill-rule:nonzero;stroke:none"
           id="text92"><tspan
             x="0 5 10 22 31 40 49 54 59 68 74 83 93 102 112 121"
             y="0"
             sodipodi:role="line"
             id="tspan90">. Each telephone</tspan></text>
        <text
           xml:space="preserve"
           transform="translate(19488,439)"
           style="font-variant:normal;font-weight:normal;font-size:20px;font-family:'Times New Roman';-inkscape-font-specification:TimesNewRomanPSMT;writing-mode:lr-tb;fill:#000000;fill-opacity:1;fill-rule:nonzero;stroke:none"
           id="text96"><tspan
             x="0 6 12 21 30 35 50 59 67 72 86 96 105 111 116 126 133 142 152 157 167 176 181 190 195 201 207 215 220 229 238 247 254 259 269 276 286 295 304 312 320 325 332 341 350 359 365 374 383 388 397 406 416 425 432 437 454 465 471 488 493"
             y="0"
             sodipodi:role="line"
             id="tspan94">line was monitored by a listener process running under MP/M. </tspan></text>
        <text
           xml:space="preserve"
           transform="translate(19986,439)"
           style="font-variant:normal;font-weight:normal;font-size:20px;font-family:'Times New Roman';-inkscape-font-specification:TimesNewRomanPSMT;writing-mode:lr-tb;fill:#000000;fill-opacity:1;fill-rule:nonzero;stroke:none"
           id="text100"><tspan
             x="0 18 27 36 45 50 59 64 73 82 88 94 99 108 117 131 140 145 151 160 165 170 179"
             y="0"
             sodipodi:role="line"
             id="tspan98">When a call came in, an</tspan></text>
        <text
           xml:space="preserve"
           transform="translate(19488,462)"
           style="font-variant:normal;font-weight:normal;font-size:20px;font-family:'Times New Roman';-inkscape-font-specification:TimesNewRomanPSMT;writing-mode:lr-tb;fill:#000000;fill-opacity:1;fill-rule:nonzero;stroke:none"
           id="text104"><tspan
             x="0 6 15 21 26 32 41 47 52 61 70 79 89 95 104 111 116 126 133 143 152 161 169 177 182 197 206 214 219 227 232 241 248 253 262 272 277 286 295 305 310 315 324 333 338 347 356 362 368 373 388 397 405 410 420 429 437 445 454 464 469 474 484 489 495 500 505 510 524 532 537 542 551 560 565 574 583 589 595 600 610 617 627 636 645 654 664 673"
             y="0"
             sodipodi:role="line"
             id="tspan102">initial handler process was started and the call was passed to it. As the call proceeded</tspan></text>
        <text
           xml:space="preserve"
           transform="translate(19488,485)"
           style="font-variant:normal;font-weight:normal;font-size:20px;font-family:'Times New Roman';-inkscape-font-specification:TimesNewRomanPSMT;writing-mode:lr-tb;fill:#000000;fill-opacity:1;fill-rule:nonzero;stroke:none"
           id="text108"><tspan
             x="0 6 13 23 37 42 50 55 64 69 78 83 88 98 103 111 116 125 130 139 144 149 154 163 172 177 186 196 206 213 223 233 240 246 255 260 269 274 283 292 301 311 317 326 333 338 348 355 365 374 383 391 399 404 419 429 438 444 454 459 469 478 483 491 496 505 512 517 526 536 541 550 559 569 574 579 588 597 606 611 620 630 639 644 651 661 667"
             y="0"
             sodipodi:role="line"
             id="tspan106">from state to state, the appropriate handler process would be started and take control.</tspan></text>
        <text
           xml:space="preserve"
           transform="translate(19488,528)"
           style="font-variant:normal;font-weight:normal;font-size:20px;font-family:'Times New Roman';-inkscape-font-specification:TimesNewRomanPSMT;writing-mode:lr-tb;fill:#000000;fill-opacity:1;fill-rule:nonzero;stroke:none"
           id="text112"><tspan
             x="0 17 26 34 42 51 60 69 77 82 97 106 113 122 127 137 146 154 162 171 181 186 196 205 210 225 234 243 252 257 262 271 280 288 297 302 310 319 326 336 342 351 360 368 373 378 387 394 404 413 422 431 436 446 452 460 469 474 480 486 492 501 509 514 519 531 540 549 554 563 572 579 586 595 604 609 615 624 629 636 645 654 663 669 678"
             y="0"
             sodipodi:role="line"
             id="tspan110">Messages were passed between these services through disk files. The currently running</tspan></text>
        <text
           xml:space="preserve"
           transform="translate(19488,551)"
           style="font-variant:normal;font-weight:normal;font-size:20px;font-family:'Times New Roman';-inkscape-font-specification:TimesNewRomanPSMT;writing-mode:lr-tb;fill:#000000;fill-opacity:1;fill-rule:nonzero;stroke:none"
           id="text116"><tspan
             x="0 8 17 24 34 40 49 58 63 78 88 97 103 113 118 128 137 142 151 158 172 178 187 196 201 216 225 234 239 244 249 258 267 272 281 290 299 304 309 317 326 333 343 349 358 367 372 380 389 399 408 414 424 429 439 448 453 458 473 483 492 498 508 513 528 535 541 546 555 560 565 574 583 588 597 606 615 624 632 640 649 656"
             y="0"
             sodipodi:role="line"
             id="tspan114">service would determine what the next service should be; would write the necessary</tspan></text>
        <text
           xml:space="preserve"
           transform="translate(19488,574)"
           style="font-variant:normal;font-weight:normal;font-size:20px;font-family:'Times New Roman';-inkscape-font-specification:TimesNewRomanPSMT;writing-mode:lr-tb;fill:#000000;fill-opacity:1;fill-rule:nonzero;stroke:none"
           id="text120"><tspan
             x="0 8 13 22 27 36 41 47 56 62 72 79 93 102 107 113 123 132 137 143 152 157 167 172 181 186 196 202 210 219 224 230 236 242 251 256 261 276 286 295 301 311 316 322 330 338 347 356 361 366 375 384 389 398 408 422 436 445 454 464 469 475 481 490 499 504 509 519 524 532 537 546 553 558 563 568 577 586 591 596 604 613 620 630 636 645 654 659 664 673 682"
             y="0"
             sodipodi:role="line"
             id="tspan118">state information into a disk file; would issue the command line to start that service; and</tspan></text>
        <text
           xml:space="preserve"
           transform="translate(19488,597)"
           style="font-variant:normal;font-weight:normal;font-size:20px;font-family:'Times New Roman';-inkscape-font-specification:TimesNewRomanPSMT;writing-mode:lr-tb;fill:#000000;fill-opacity:1;fill-rule:nonzero;stroke:none"
           id="text124"><tspan
             x="0 5 14 23 32 37 52 62 71 77 87 92 101 110 116 121"
             y="0"
             sodipodi:role="line"
             id="tspan122">then would exit.</tspan></text>
        <text
           xml:space="preserve"
           transform="translate(19488,640)"
           style="font-variant:normal;font-weight:normal;font-size:20px;font-family:'Times New Roman';-inkscape-font-specification:TimesNewRomanPSMT;writing-mode:lr-tb;fill:#000000;fill-opacity:1;fill-rule:nonzero;stroke:none"
           id="text128"><tspan
             x="0 12 21 27 35 40 55 64 72 77 82 91 100 105 111 117 124 132 137 142 147 153 167 176 181 187 192 201 210 220 225 235 244 250 256 261 266 275 280 288 297 305 310 319 333 338 344 350 359 368 373 378 387 393 401 406 411 417 426 436 445 454 464 469 474 479 488 494 502 507 522 531 539 544 549 558 567 572 578 584 591 599 604 609 614 620 634 643 648 654 659 668 677"
             y="0"
             sodipodi:role="line"
             id="tspan126">This was the first time I had built a system like this. Indeed, this was the first time I had</tspan></text>
        <text
           xml:space="preserve"
           transform="translate(19488,663)"
           style="font-variant:normal;font-weight:normal;font-size:20px;font-family:'Times New Roman';-inkscape-font-specification:TimesNewRomanPSMT;writing-mode:lr-tb;fill:#000000;fill-opacity:1;fill-rule:nonzero;stroke:none"
           id="text132"><tspan
             x="0 10 19 28 37 42 47 56 65 70 80 87 93 102 111 117 127 136 142 147 156 163 172 181 187 192 201 210 215 220 230 236 241 250 259 264 273 282 287 293 300 309 314 324 331 341 351 360 369 374 379 384 396 406 415 422 431 436 445 451 460 469 474 483 492 502 508 517 526 531 536 546 551 561 571 576 591 597 602 611 616 624 634 640 645 660 669 676"
             y="0"
             sodipodi:role="line"
             id="tspan130">been the principal architect of an entire product. Everything having to do with software</tspan></text>
        <text
           xml:space="preserve"
           transform="translate(19488,686)"
           style="font-variant:normal;font-weight:normal;font-size:20px;font-family:'Times New Roman';-inkscape-font-specification:TimesNewRomanPSMT;writing-mode:lr-tb;fill:#000000;fill-opacity:1;fill-rule:nonzero;stroke:none"
           id="text136"><tspan
             x="0 15 24 32 37 51 57 66 75 95 104 113 123 128 134 139 144 159 169 176 185 194 204 209 215 221 230 239 244 253 258 267 276 285 299 309"
             y="0"
             sodipodi:role="line"
             id="tspan134">was mine—and it worked like a champ.</tspan></text>
        <text
           xml:space="preserve"
           transform="translate(19488,729)"
           style="font-variant:normal;font-weight:normal;font-size:20px;font-family:'Times New Roman';-inkscape-font-specification:TimesNewRomanPSMT;writing-mode:lr-tb;fill:#000000;fill-opacity:1;fill-rule:nonzero;stroke:none"
           id="text140"><tspan
             x="0 6 11 26 36 45 51 61 66 75 85 90 95 103 112 121 126 131 140 149 154 159 164 173 182 187 196 203 212 221 227 232 241 250 255 264 271 280 285 295 301 306 311 320 326 334 339 347 356 364 369 378 392 397 412 421 429 434 443 452 458 467 476 485 494 499 505 514 519 524 533 542 547 555 564 573 581 590 595 605 611 616 621 630 636 644 649 659 669 679 688"
             y="0"
             sodipodi:role="line"
             id="tspan138">I would not say that the architecture of this system was “clean” in the sense of this book;</tspan></text>
        <text
           xml:space="preserve"
           transform="translate(19488,752)"
           style="font-variant:normal;font-weight:normal;font-size:20px;font-family:'Times New Roman';-inkscape-font-specification:TimesNewRomanPSMT;writing-mode:lr-tb;fill:#000000;fill-opacity:1;fill-rule:nonzero;stroke:none"
           id="text144"><tspan
             x="0 6 11 16 31 40 48 53 62 72 77 82 91 96 105 115 121 130 139 145 154 163 168 177 184 193 202 208 213 222 231 236 245 252 261 266 271 285 295 310 319 329 338 344 349 354 360 365 370 380 389 395 401 410 416 421 430 436 445 450 458 467 477 492 501 511 516 524 530 539 548 556 561 571 577 582 587 594 603"
             y="0"
             sodipodi:role="line"
             id="tspan142">it was not a “plugin” architecture. However, it definitely showed signs of true</tspan></text>
        <text
           xml:space="preserve"
           transform="translate(19488,775)"
           style="font-variant:normal;font-weight:normal;font-size:20px;font-family:'Times New Roman';-inkscape-font-specification:TimesNewRomanPSMT;writing-mode:lr-tb;fill:#000000;fill-opacity:1;fill-rule:nonzero;stroke:none"
           id="text148"><tspan
             x="0 10 20 29 38 48 57 64 70 79 87 92 97 109 118 127 132 140 149 156 166 172 181 190 198 203 218 227 234 243 248 254 263 273 282 292 301 310 320 329 338 343 349 358 363 373 382 392 398 408 417 426 436 442 451 456 461 470 479 489 494 500 506 516 525 535 540 555 561 566 575 581 590 595 600 609 618 624 631 636 646 661"
             y="0"
             sodipodi:role="line"
             id="tspan146">boundaries. The services were independently deployable, and lived within their own</tspan></text>
        <text
           xml:space="preserve"
           transform="translate(19488,798)"
           style="font-variant:normal;font-weight:normal;font-size:20px;font-family:'Times New Roman';-inkscape-font-specification:TimesNewRomanPSMT;writing-mode:lr-tb;fill:#000000;fill-opacity:1;fill-rule:nonzero;stroke:none"
           id="text152"><tspan
             x="0 10 20 34 43 49 58 63 73 79 84 91 100 108 118 128 137 145 151 161 167 173 179 184 192 197 202 214 223 232 239 248 253 268 277 284 293 298 307 313 322 331 338 344 353 363 372 378 383 393 400 410 419 428 436 444 453 461 466 475 484 494 499 505 515 530 537 543 552 562 571 577 582 592 599 609 618 627 635 643 652 660"
             y="0"
             sodipodi:role="line"
             id="tspan150">domain of responsibility. There were high-level processes and low-level processes,</tspan></text>
        <text
           xml:space="preserve"
           transform="translate(19488,821)"
           style="font-variant:normal;font-weight:normal;font-size:20px;font-family:'Times New Roman';-inkscape-font-specification:TimesNewRomanPSMT;writing-mode:lr-tb;fill:#000000;fill-opacity:1;fill-rule:nonzero;stroke:none"
           id="text156"><tspan
             x="0 9 18 28 33 47 56 65 74 79 89 95 100 105 114 123 128 138 147 157 166 175 185 194 203 212 218 227 235 240 247 256 265 270 276 285 290 295 304 313 318 325 331 340 349 354 359 369 375 382 391 400 405 411 421 430"
             y="0"
             sodipodi:role="line"
             id="tspan154">and many of the dependencies ran in the right direction.</tspan></text>
        <text
           xml:space="preserve"
           transform="translate(19488,871)"
           style="font-variant:normal;font-weight:bold;font-size:23px;font-family:'Times New Roman';-inkscape-font-specification:TimesNewRomanPS-BoldMT;writing-mode:lr-tb;fill:#000000;fill-opacity:1;fill-rule:nonzero;stroke:none"
           id="text160"><tspan
             x="0 15 32 38"
             y="0"
             sodipodi:role="line"
             id="tspan158">ER D</tspan></text>
        <text
           xml:space="preserve"
           transform="translate(19543,871)"
           style="font-variant:normal;font-weight:bold;font-size:23px;font-family:'Times New Roman';-inkscape-font-specification:TimesNewRomanPS-BoldMT;writing-mode:lr-tb;fill:#000000;fill-opacity:1;fill-rule:nonzero;stroke:none"
           id="text164"><tspan
             x="0 15 38 47 60"
             y="0"
             sodipodi:role="line"
             id="tspan162">EMISE</tspan></text>
        <text
           xml:space="preserve"
           transform="translate(19488,914)"
           style="font-variant:normal;font-weight:normal;font-size:20px;font-family:'Times New Roman';-inkscape-font-specification:TimesNewRomanPSMT;writing-mode:lr-tb;fill:#000000;fill-opacity:1;fill-rule:nonzero;stroke:none"
           id="text168"><tspan
             x="0 13 22 28 38 45 50 59 68 77 82 91 97 105 110 115 120 129 138 143 157 166 173 182 191 196 202 211 220 225 235 241 246 251 260 266 274 279 289 296 306 316 325 334 339 344 354 360 370 375 384 394 399 404 413 423 428 438 447 454 463 468 483 492 498 504 509 514 524 533 540 549 559 568 577 586 591 606 615 623 628"
             y="0"
             sodipodi:role="line"
             id="tspan166">Unfortunately, the marketing of this product did not go very well. Teradyne was a</tspan></text>
        <text
           xml:space="preserve"
           transform="translate(19488,937)"
           style="font-variant:normal;font-weight:normal;font-size:20px;font-family:'Times New Roman';-inkscape-font-specification:TimesNewRomanPSMT;writing-mode:lr-tb;fill:#000000;fill-opacity:1;fill-rule:nonzero;stroke:none"
           id="text172"><tspan
             x="0 9 19 33 43 52 61 70 75 80 89 98 103 108 116 126 132 142 147 152 161 169 174 179 188 198 207 213 223 237 246 255 260 265 270 286 295 300 310 316 326 331 340 350 355 360 369 378 388 397 404 412 417 426 435 445 450 459 469 484 489 494 504 509 519 526 535 544 553 558 564 573 578 588 593 598 607 616 621 631 637 643 649 658"
             y="0"
             sodipodi:role="line"
             id="tspan170">company that sold test equipment. We did not understand how to break into the office</tspan></text>
        <text
           xml:space="preserve"
           transform="translate(19488,960)"
           style="font-variant:normal;font-weight:normal;font-size:20px;font-family:'Times New Roman';-inkscape-font-specification:TimesNewRomanPSMT;writing-mode:lr-tb;fill:#000000;fill-opacity:1;fill-rule:nonzero;stroke:none"
           id="text176"><tspan
             x="0 9 19 28 34 44 58 67 76 81 86 100 109 116 125 134 139"
             y="0"
             sodipodi:role="line"
             id="tspan174">equipment market.</tspan></text>
      </g>
    </g>
  </g>
</svg>
