<?xml version="1.0" encoding="UTF-8" standalone="no"?>
<!-- Created with Inkscape (http://www.inkscape.org/) -->

<svg
   version="1.1"
   id="svg2"
   width="816"
   height="1056"
   viewBox="0 0 816 1056"
   sodipodi:docname="clean_arch.pdf"
   xmlns:inkscape="http://www.inkscape.org/namespaces/inkscape"
   xmlns:sodipodi="http://sodipodi.sourceforge.net/DTD/sodipodi-0.dtd"
   xmlns="http://www.w3.org/2000/svg"
   xmlns:svg="http://www.w3.org/2000/svg">
  <defs
     id="defs6">
    <clipPath
       clipPathUnits="userSpaceOnUse"
       id="clipPath18">
      <path
         d="m 1392,0 h 696 V 1056 H 1392 V 0"
         clip-rule="evenodd"
         id="path16" />
    </clipPath>
    <clipPath
       clipPathUnits="userSpaceOnUse"
       id="clipPath28">
      <path
         d="m 1392,66 h 696 V 996 H 1392 V 66"
         clip-rule="evenodd"
         id="path26" />
    </clipPath>
  </defs>
  <sodipodi:namedview
     id="namedview4"
     pagecolor="#ffffff"
     bordercolor="#000000"
     borderopacity="0.25"
     inkscape:showpageshadow="2"
     inkscape:pageopacity="0.0"
     inkscape:pagecheckerboard="0"
     inkscape:deskcolor="#d1d1d1" />
  <g
     id="g8"
     inkscape:groupmode="layer"
     inkscape:label="clean_arch"
     transform="translate(59.999999,2.64e-5)">
    <g
       id="g10" />
    <g
       id="g12"
       transform="translate(-1392)">
      <g
         id="g14"
         clip-path="url(#clipPath18)">
        <g
           id="g20" />
      </g>
    </g>
    <g
       id="g22"
       transform="translate(-1392)">
      <g
         id="g24"
         clip-path="url(#clipPath28)">
        <text
           xml:space="preserve"
           transform="translate(1392,83.17188)"
           style="font-variant:normal;font-weight:normal;font-size:20px;font-family:'Times New Roman';-inkscape-font-specification:TimesNewRomanPSMT;writing-mode:lr-tb;fill:#000000;fill-opacity:1;fill-rule:nonzero;stroke:none"
           id="text32"><tspan
             x="0 10 19 25 31 40 49 59 64 69 78 87 96 101 107 116 125 134 139 145 155 164 169 175 184 189 198 205 211 220 229 238 246 251 256 269 275 284 293 300 306 314 319 324 329 338 347 356 361 366 371 380 386 394 399 409 418 427 436 442 448 453 458 464 472 477 485 495 509 518 523 532 538 547 556 561 571 577 582 591 600 605 611 617 623 632 640 646 656 665"
             y="0"
             sodipodi:role="line"
             id="tspan30">defined than function interfaces. Clearly, then, this benefit is something of an illusion.</tspan></text>
        <text
           xml:space="preserve"
           transform="translate(1392,133)"
           style="font-variant:normal;font-weight:bold;font-size:23px;font-family:'Times New Roman';-inkscape-font-specification:TimesNewRomanPS-BoldMT;writing-mode:lr-tb;fill:#000000;fill-opacity:1;fill-rule:nonzero;stroke:none"
           id="text36"><tspan
             x="0"
             y="0"
             id="tspan34">T</tspan></text>
        <text
           xml:space="preserve"
           transform="translate(1407,133)"
           style="font-variant:normal;font-weight:bold;font-size:23px;font-family:'Times New Roman';-inkscape-font-specification:TimesNewRomanPS-BoldMT;writing-mode:lr-tb;fill:#000000;fill-opacity:1;fill-rule:nonzero;stroke:none"
           id="text40"><tspan
             x="0 18"
             y="0"
             sodipodi:role="line"
             id="tspan38">HE</tspan></text>
        <text
           xml:space="preserve"
           transform="translate(1446,133)"
           style="font-variant:normal;font-weight:bold;font-size:23px;font-family:'Times New Roman';-inkscape-font-specification:TimesNewRomanPS-BoldMT;writing-mode:lr-tb;fill:#000000;fill-opacity:1;fill-rule:nonzero;stroke:none"
           id="text44"><tspan
             x="0"
             y="0"
             id="tspan42">F</tspan></text>
        <text
           xml:space="preserve"
           transform="translate(1461,133)"
           style="font-variant:normal;font-weight:bold;font-size:23px;font-family:'Times New Roman';-inkscape-font-specification:TimesNewRomanPS-BoldMT;writing-mode:lr-tb;fill:#000000;fill-opacity:1;fill-rule:nonzero;stroke:none"
           id="text48"><tspan
             x="0 16 31 46 62 79 93 99 117"
             y="0"
             sodipodi:role="line"
             id="tspan46">ALLACY OF</tspan></text>
        <text
           xml:space="preserve"
           transform="translate(1599,133)"
           style="font-variant:normal;font-weight:bold;font-size:23px;font-family:'Times New Roman';-inkscape-font-specification:TimesNewRomanPS-BoldMT;writing-mode:lr-tb;fill:#000000;fill-opacity:1;fill-rule:nonzero;stroke:none"
           id="text52"><tspan
             x="0"
             y="0"
             id="tspan50">I</tspan></text>
        <text
           xml:space="preserve"
           transform="translate(1608,133)"
           style="font-variant:normal;font-weight:bold;font-size:23px;font-family:'Times New Roman';-inkscape-font-specification:TimesNewRomanPS-BoldMT;writing-mode:lr-tb;fill:#000000;fill-opacity:1;fill-rule:nonzero;stroke:none"
           id="text56"><tspan
             x="0 17 34 49 64 79 96 113 128 145"
             y="0"
             sodipodi:role="line"
             id="tspan54">NDEPENDENT</tspan></text>
        <text
           xml:space="preserve"
           transform="translate(1774,133)"
           style="font-variant:normal;font-weight:bold;font-size:23px;font-family:'Times New Roman';-inkscape-font-specification:TimesNewRomanPS-BoldMT;writing-mode:lr-tb;fill:#000000;fill-opacity:1;fill-rule:nonzero;stroke:none"
           id="text60"><tspan
             x="0"
             y="0"
             id="tspan58">D</tspan></text>
        <text
           xml:space="preserve"
           transform="translate(1791,133)"
           style="font-variant:normal;font-weight:bold;font-size:23px;font-family:'Times New Roman';-inkscape-font-specification:TimesNewRomanPS-BoldMT;writing-mode:lr-tb;fill:#000000;fill-opacity:1;fill-rule:nonzero;stroke:none"
           id="text64"><tspan
             x="0 15 31 46 61 79 94 117 132 149 164 170 186 203"
             y="0"
             sodipodi:role="line"
             id="tspan62">EVELOPMENT AND</tspan></text>
        <text
           xml:space="preserve"
           transform="translate(1392,160)"
           style="font-variant:normal;font-weight:bold;font-size:23px;font-family:'Times New Roman';-inkscape-font-specification:TimesNewRomanPS-BoldMT;writing-mode:lr-tb;fill:#000000;fill-opacity:1;fill-rule:nonzero;stroke:none"
           id="text68"><tspan
             x="0"
             y="0"
             id="tspan66">D</tspan></text>
        <text
           xml:space="preserve"
           transform="translate(1409,160)"
           style="font-variant:normal;font-weight:bold;font-size:23px;font-family:'Times New Roman';-inkscape-font-specification:TimesNewRomanPS-BoldMT;writing-mode:lr-tb;fill:#000000;fill-opacity:1;fill-rule:nonzero;stroke:none"
           id="text72"><tspan
             x="0 15 30 45 63 78 101 116 133"
             y="0"
             sodipodi:role="line"
             id="tspan70">EPLOYMENT</tspan></text>
        <text
           xml:space="preserve"
           transform="translate(1392,203)"
           style="font-variant:normal;font-weight:normal;font-size:20px;font-family:'Times New Roman';-inkscape-font-specification:TimesNewRomanPSMT;writing-mode:lr-tb;fill:#000000;fill-opacity:1;fill-rule:nonzero;stroke:none"
           id="text76"><tspan
             x="0 14 23 33 38 47 56 63 68 78 84 89 94 103 112 117 125 134 144 154 164 172 181 191 196 206 215 224 233 239 245 250 258 263 273 279 284 292 301 308 318 324 333 342 350 355 361 369 374 379 388 397 402 407 412 421 430 439 444 453 462 471 476 486 495 500 510 525 534 543 553 558 567 576 586 591 601 611 620 627 636 641 650 660 665 675"
             y="0"
             sodipodi:role="line"
             id="tspan74">Another of the supposed benefits of services is that they can be owned and operated by</tspan></text>
        <text
           xml:space="preserve"
           transform="translate(1392,226)"
           style="font-variant:normal;font-weight:normal;font-size:20px;font-family:'Times New Roman';-inkscape-font-specification:TimesNewRomanPSMT;writing-mode:lr-tb;fill:#000000;fill-opacity:1;fill-rule:nonzero;stroke:none"
           id="text80"><tspan
             x="0 9 14 24 33 43 49 58 67 72 81 91 96 101 110 119 133 138 143 155 164 173 178 183 188 197 206 220 225 234 243 252 257 267 276 281 288 297 305 315 325 334 342 348 358 364 373 378 384 394 401 406 421 428 434 439 445 454 463 468 473 487 496 502 511 516 525 531 540 546 555 564 569 574 583 592 602 607 617 627 636 643 652 657 663 672"
             y="0"
             sodipodi:role="line"
             id="tspan78">a dedicated team. That team can be responsible for writing, maintaining, and operating</tspan></text>
        <text
           xml:space="preserve"
           transform="translate(1392,249)"
           style="font-variant:normal;font-weight:normal;font-size:20px;font-family:'Times New Roman';-inkscape-font-specification:TimesNewRomanPSMT;writing-mode:lr-tb;fill:#000000;fill-opacity:1;fill-rule:nonzero;stroke:none"
           id="text84"><tspan
             x="0 5 14 23 28 36 45 52 62 68 77 86 91 100 108 113 123 132 139 144 149 159 165 170 179 184 194 203 213 220 230 240 248 253 261 266 273 282 287 296 305 313 318 323 335 344 350 358 363 369 378 388 397 407 416 425 435 444 453 462 471 476 486 492 497 507 516 526 535 541 551 561 575 584 593 598 603 612 621"
             y="0"
             sodipodi:role="line"
             id="tspan82">the service as part of a dev-ops strategy. This independence of development and</tspan></text>
        <text
           xml:space="preserve"
           transform="translate(1392,272)"
           style="font-variant:normal;font-weight:normal;font-size:20px;font-family:'Times New Roman';-inkscape-font-specification:TimesNewRomanPSMT;writing-mode:lr-tb;fill:#000000;fill-opacity:1;fill-rule:nonzero;stroke:none"
           id="text88"><tspan
             x="0 10 19 29 35 45 54 68 77 86 91 96 102 110 115 125 132 141 149 158 172 181 191 196 201 211 216 226 235"
             y="0"
             sodipodi:role="line"
             id="tspan86">deployment is presumed to be </tspan></text>
        <text
           xml:space="preserve"
           transform="translate(1632,272)"
           style="font-variant:normal;font-weight:normal;font-size:20px;font-family:'Times New Roman';-inkscape-font-specification:TimesNewRomanPSMT;writing-mode:lr-tb;fill:#000000;fill-opacity:1;fill-rule:nonzero;stroke:none"
           id="text92"><tspan
             x="0 8 17 26 32 41 51 57"
             y="0"
             sodipodi:role="line"
             id="tspan90">scalable</tspan></text>
        <text
           xml:space="preserve"
           transform="translate(1698,272)"
           style="font-variant:normal;font-weight:normal;font-size:20px;font-family:'Times New Roman';-inkscape-font-specification:TimesNewRomanPSMT;writing-mode:lr-tb;fill:#000000;fill-opacity:1;fill-rule:nonzero;stroke:none"
           id="text96"><tspan
             x="0 5 10 16 21 26 32 40 45 55 64 70 76 85 95 104 114 119 124 133 142 147 152 158 167 174 183 192 197 206 215 220 229 236 246 253 259 267 276 281 289 298 306 311 320 334 342 347 356 365"
             y="0"
             sodipodi:role="line"
             id="tspan94">. It is believed that large enterprise systems can</tspan></text>
        <text
           xml:space="preserve"
           transform="translate(1392,295)"
           style="font-variant:normal;font-weight:normal;font-size:20px;font-family:'Times New Roman';-inkscape-font-specification:TimesNewRomanPSMT;writing-mode:lr-tb;fill:#000000;fill-opacity:1;fill-rule:nonzero;stroke:none"
           id="text100"><tspan
             x="0 10 19 24 33 40 49 58 63 72 82 87 93 100 110 124 129 139 149 157 166 175 183 188 193 202 211 220 230 237 246 256 264 269 274 284 291 296 305 315 324 333 338 343 352 362 371 379 388 397 407 415 420 430 436 441 447 456 466 475 485 494 503 513 522 531 536 542 551 556 566 575 585 594 600 610 620 629 639 645 654 659 668 677"
             y="0"
             sodipodi:role="line"
             id="tspan98">be created from dozens, hundreds, or even thousands of independently developable and</tspan></text>
        <text
           xml:space="preserve"
           transform="translate(1392,318)"
           style="font-variant:normal;font-weight:normal;font-size:20px;font-family:'Times New Roman';-inkscape-font-specification:TimesNewRomanPSMT;writing-mode:lr-tb;fill:#000000;fill-opacity:1;fill-rule:nonzero;stroke:none"
           id="text104"><tspan
             x="0 10 19 29 35 45 54 63 73 79 88 93 101 110 117 127 133 142 151 159 164 169 183 192 202 211 217 227 237 251 260 269 274 279 284 298 307 313 322 327 336 345 354 363 372 381 386 391 400 409 419 424 434 444 453 460 469 474 480 490 499 504 514 520 525 530 539 548 553 561 570 578 583 592 606 611 620 629 638 643 653"
             y="0"
             sodipodi:role="line"
             id="tspan102">deployable services. Development, maintenance, and operation of the system can be</tspan></text>
        <text
           xml:space="preserve"
           transform="translate(1392,341)"
           style="font-variant:normal;font-weight:normal;font-size:20px;font-family:'Times New Roman';-inkscape-font-specification:TimesNewRomanPSMT;writing-mode:lr-tb;fill:#000000;fill-opacity:1;fill-rule:nonzero;stroke:none"
           id="text108"><tspan
             x="0 10 19 26 31 37 42 48 58 67 76 86 91 101 110 115 130 139 148 157 162 171 176 184 190 204 210 216 225 232 237 246 255 269 279 288 295 300 310 316 321 327 336 346 355 365 374 383 393 402 411 416 421 426 435 444 458 466"
             y="0"
             sodipodi:role="line"
             id="tspan106">partitioned between a similar number of independent teams.</tspan></text>
        <text
           xml:space="preserve"
           transform="translate(1392,384)"
           style="font-variant:normal;font-weight:normal;font-size:20px;font-family:'Times New Roman';-inkscape-font-specification:TimesNewRomanPSMT;writing-mode:lr-tb;fill:#000000;fill-opacity:1;fill-rule:nonzero;stroke:none"
           id="text112"><tspan
             x="0 12 21 30 37 46 51 57 65 70 78 88 102 111 116 121 128 137 142 151 156 161 171 176 181 190 196 204 209 219 228 234 240 249 255 275 285 294 299 304 314 323 329 338 343 351 361 375 384 389 394 405 411 418 426 431 436 441 450 456 464 469 479 486 495 500 509 518 526 531 539 548 558 573 582 587 592 601 610 615 620 626 635 642 651"
             y="0"
             sodipodi:role="line"
             id="tspan110">There is some truth to this belief—but only some. First, history has shown that large</tspan></text>
        <text
           xml:space="preserve"
           transform="translate(1392,407)"
           style="font-variant:normal;font-weight:normal;font-size:20px;font-family:'Times New Roman';-inkscape-font-specification:TimesNewRomanPSMT;writing-mode:lr-tb;fill:#000000;fill-opacity:1;fill-rule:nonzero;stroke:none"
           id="text116"><tspan
             x="0 9 18 23 32 39 49 56 62 70 79 84 92 101 109 114 123 137 145 150 159 168 177 182 192 201 206 216 225 231 237 242 247 253 260 270 284 289 303 313 322 332 338 344 349 358 366 371 380 389 399 404 413 423 437 447 457 466 475 484 489 496 506 515 523 532 542 547 555 564 572 577 586 600 608 613 622 630 635 650 659 665 671 676 685"
             y="0"
             sodipodi:role="line"
             id="tspan114">enterprise systems can be built from monoliths and component-based systems as well as</tspan></text>
        <text
           xml:space="preserve"
           transform="translate(1392,430)"
           style="font-variant:normal;font-weight:normal;font-size:20px;font-family:'Times New Roman';-inkscape-font-specification:TimesNewRomanPSMT;writing-mode:lr-tb;fill:#000000;fill-opacity:1;fill-rule:nonzero;stroke:none"
           id="text120"><tspan
             x="0 8 17 24 34 40 49 58 65 75 84 92 101 111 116 124 133 141 146 155 169 177 182 187 199 208 217 225 230 238 247 254 264 270 279 288 296 301 310 317 326 331 340 350 355 360 365 374 383 388 398 407 413 422 427 437 447 452 458 468 477 482 488 498 505 510 520 529 535 541 551 557 566 575 580 588 597 606 612 621 631 637"
             y="0"
             sodipodi:role="line"
             id="tspan118">service-based systems. Thus services are not the only option for building scalable</tspan></text>
        <text
           xml:space="preserve"
           transform="translate(1392,453)"
           style="font-variant:normal;font-weight:normal;font-size:20px;font-family:'Times New Roman';-inkscape-font-specification:TimesNewRomanPSMT;writing-mode:lr-tb;fill:#000000;fill-opacity:1;fill-rule:nonzero;stroke:none"
           id="text124"><tspan
             x="0 8 17 25 30 39 53 61"
             y="0"
             sodipodi:role="line"
             id="tspan122">systems.</tspan></text>
        <text
           xml:space="preserve"
           transform="translate(1392,496)"
           style="font-variant:normal;font-weight:normal;font-size:20px;font-family:'Times New Roman';-inkscape-font-specification:TimesNewRomanPSMT;writing-mode:lr-tb;fill:#000000;fill-opacity:1;fill-rule:nonzero;stroke:none"
           id="text128"><tspan
             x="0 11 20 29 39 48 58 63 68 73 82 91 96 106 115 124 134 143 153 159 165 174 183 188 194 203 209 215 224 233 242 247 261 270 279 288 296 301 306 315 324 329 334 342 351 358 368 374 383 392 400 405 414 423 432 441 451 456 461 470 476 491 500 509 517 522 532 541 546 552 561 571 580 590 599 608 618 627 636 641 647"
             y="0"
             sodipodi:role="line"
             id="tspan126">Second, the decoupling fallacy means that services cannot always be independently</tspan></text>
        <text
           xml:space="preserve"
           transform="translate(1392,519)"
           style="font-variant:normal;font-weight:normal;font-size:20px;font-family:'Times New Roman';-inkscape-font-specification:TimesNewRomanPSMT;writing-mode:lr-tb;fill:#000000;fill-opacity:1;fill-rule:nonzero;stroke:none"
           id="text132"><tspan
             x="0 10 19 29 38 44 54 64 73 83 88 93 103 112 122 128 138 147 156 166 171 176 185 194 204 209 219 229 238 245 254 259 268 278 283 288 298 308 313 318 327 336 341 350 359 364 373 382 387 392 397 406 415 420 425 430 439 448 457 462 471 478 487 492 501 511 520 530 536 545 555 560 570 579 584 594 603 608 617 622 632"
             y="0"
             sodipodi:role="line"
             id="tspan130">developed, deployed, and operated. To the extent that they are coupled by data or</tspan></text>
        <text
           xml:space="preserve"
           transform="translate(1392,542)"
           style="font-variant:normal;font-weight:normal;font-size:20px;font-family:'Times New Roman';-inkscape-font-specification:TimesNewRomanPSMT;writing-mode:lr-tb;fill:#000000;fill-opacity:1;fill-rule:nonzero;stroke:none"
           id="text136"><tspan
             x="0 10 19 28 37 47 53 63 69 74 79 84 93 102 107 117 126 136 145 151 161 171 185 194 203 208 213 218 228 237 247 253 263 272 286 295 304 309 314 319 328 337 347 352 362 372 381 388 397 402 408 418 427 432 446 455 463 468 473 483 492 497 506 516 526 533 543 549 558 567 572 581 591"
             y="0"
             sodipodi:role="line"
             id="tspan134">behavior, the development, deployment, and operation must be coordinated.</tspan></text>
        <text
           xml:space="preserve"
           transform="translate(1392,612)"
           style="font-variant:normal;font-weight:bold;font-size:33px;font-family:'Times New Roman';-inkscape-font-specification:TimesNewRomanPS-BoldMT;writing-mode:lr-tb;fill:#000000;fill-opacity:1;fill-rule:nonzero;stroke:none"
           id="text140"><tspan
             x="0"
             y="0"
             id="tspan138">T</tspan></text>
        <text
           xml:space="preserve"
           transform="translate(1414,612)"
           style="font-variant:normal;font-weight:bold;font-size:33px;font-family:'Times New Roman';-inkscape-font-specification:TimesNewRomanPS-BoldMT;writing-mode:lr-tb;fill:#000000;fill-opacity:1;fill-rule:nonzero;stroke:none"
           id="text144"><tspan
             x="0 26"
             y="0"
             sodipodi:role="line"
             id="tspan142">HE</tspan></text>
        <text
           xml:space="preserve"
           transform="translate(1470,612)"
           style="font-variant:normal;font-weight:bold;font-size:33px;font-family:'Times New Roman';-inkscape-font-specification:TimesNewRomanPS-BoldMT;writing-mode:lr-tb;fill:#000000;fill-opacity:1;fill-rule:nonzero;stroke:none"
           id="text148"><tspan
             x="0"
             y="0"
             id="tspan146">K</tspan></text>
        <text
           xml:space="preserve"
           transform="translate(1496,612)"
           style="font-variant:normal;font-weight:bold;font-size:33px;font-family:'Times New Roman';-inkscape-font-specification:TimesNewRomanPS-BoldMT;writing-mode:lr-tb;fill:#000000;fill-opacity:1;fill-rule:nonzero;stroke:none"
           id="text152"><tspan
             x="0 13 35 57"
             y="0"
             sodipodi:role="line"
             id="tspan150">ITTY</tspan></text>
        <text
           xml:space="preserve"
           transform="translate(1585,612)"
           style="font-variant:normal;font-weight:bold;font-size:33px;font-family:'Times New Roman';-inkscape-font-specification:TimesNewRomanPS-BoldMT;writing-mode:lr-tb;fill:#000000;fill-opacity:1;fill-rule:nonzero;stroke:none"
           id="text156"><tspan
             x="0"
             y="0"
             id="tspan154">P</tspan></text>
        <text
           xml:space="preserve"
           transform="translate(1605,612)"
           style="font-variant:normal;font-weight:bold;font-size:33px;font-family:'Times New Roman';-inkscape-font-specification:TimesNewRomanPS-BoldMT;writing-mode:lr-tb;fill:#000000;fill-opacity:1;fill-rule:nonzero;stroke:none"
           id="text160"><tspan
             x="0 24 50 72 94 116"
             y="0"
             sodipodi:role="line"
             id="tspan158">ROBLEM</tspan></text>
        <text
           xml:space="preserve"
           transform="translate(1392,657)"
           style="font-variant:normal;font-weight:normal;font-size:20px;font-family:'Times New Roman';-inkscape-font-specification:TimesNewRomanPSMT;writing-mode:lr-tb;fill:#000000;fill-opacity:1;fill-rule:nonzero;stroke:none"
           id="text164"><tspan
             x="0 14 22 27 36 45 50 59 68 77 91 101 107 116 121 131 137 142 147 156 165 173 182 187 192 207 217 222 228 237 243 249 258 267 273 282 290 295 300 306 315 320 326 334 339 345 355 365 374 379 388 393 398 408 417 424 429 434 443 452 458 463 472 481 490 497 506 515 524 529 539 546 551 559 568 576 581 590 604 609 618 627 636 642 651"
             y="0"
             sodipodi:role="line"
             id="tspan162">As an example of these two fallacies, let’s look at our taxi aggregator system again.</tspan></text>
        <text
           xml:space="preserve"
           transform="translate(1392,680)"
           style="font-variant:normal;font-weight:normal;font-size:20px;font-family:'Times New Roman';-inkscape-font-specification:TimesNewRomanPSMT;writing-mode:lr-tb;fill:#000000;fill-opacity:1;fill-rule:nonzero;stroke:none"
           id="text168"><tspan
             x="0 13 22 36 45 59 69 78 84 89 94 99 108 114 122 127 135 144 152 157 166 180 185 194 203 213 228 236 241 250 260 270 279 284 289 303 312 321 330 335 340 349 358 364 369 379 386 396 406 412 422 431 438 446 451 457 466 471 480 485 494 500 510 519 528 533 542 548 553 561 566 571 580 589 599 604 613 619 625 635 650"
             y="0"
             sodipodi:role="line"
             id="tspan166">Remember, this system knows about many taxi providers in a given city, and allows</tspan></text>
        <text
           xml:space="preserve"
           transform="translate(1392,703)"
           style="font-variant:normal;font-weight:normal;font-size:20px;font-family:'Times New Roman';-inkscape-font-specification:TimesNewRomanPSMT;writing-mode:lr-tb;fill:#000000;fill-opacity:1;fill-rule:nonzero;stroke:none"
           id="text172"><tspan
             x="0 9 18 26 31 41 55 64 71 79 84 89 99 104 114 121 131 140 147 152 159 165 175 184 192 197 202 213 222 227 233 241 246 255 263 271 280 294 303 308 313 322 331 336 341 346 355 364 369 378 387 395 400 410 424 433 440 448 453 461 470 476 485 494 499 504 509 518 527 533 541 546 556 565 573 582 592 597 607 616 621 630 635 644 653 667 677 686"
             y="0"
             sodipodi:role="line"
             id="tspan170">customers to order rides. Let’s assume that the customers select taxis based on a number</tspan></text>
        <text
           xml:space="preserve"
           transform="translate(1392,726)"
           style="font-variant:normal;font-weight:normal;font-size:20px;font-family:'Times New Roman';-inkscape-font-specification:TimesNewRomanPSMT;writing-mode:lr-tb;fill:#000000;fill-opacity:1;fill-rule:nonzero;stroke:none"
           id="text176"><tspan
             x="0 10 16 21 30 37 43 48 57 64 70 79 84 89 97 106 115 124 129 138 146 151 161 167 176 185 194 204 209 214 220 234 243 248 253 262 272 280 285 290 295 301 310 319 328 335 343 348 353 362 371 381 386 396 403 409 419 428 435 440 449 458 468 477 484 490 499 508 517 526"
             y="0"
             sodipodi:role="line"
             id="tspan174">of criteria, such as pickup time, cost, luxury, and driver experience.</tspan></text>
        <text
           xml:space="preserve"
           transform="translate(1392,769)"
           style="font-variant:normal;font-weight:normal;font-size:20px;font-family:'Times New Roman';-inkscape-font-specification:TimesNewRomanPSMT;writing-mode:lr-tb;fill:#000000;fill-opacity:1;fill-rule:nonzero;stroke:none"
           id="text180"><tspan
             x="0 16 25 30 45 54 63 68 77 87 92 102 111 118 123 131 140 148 153 162 176 181 186 196 201 211 220 225 233 242 251 257 266 276 282 291 296 301 309 319 324 339 348 353 362 371 381 389 398 403 408 418 423 433 442 448 454 464 469 475 480 485 495 504 509 514 524 530 535 541 551 556 564 569 579 585 590 596 602 607 612 618 627 632 646 652 661 668 678"
             y="0"
             sodipodi:role="line"
             id="tspan178">We wanted our system to be scalable, so we chose to build it out of lots of little micro-</tspan></text>
        <text
           xml:space="preserve"
           transform="translate(1392,792)"
           style="font-variant:normal;font-weight:normal;font-size:20px;font-family:'Times New Roman';-inkscape-font-specification:TimesNewRomanPSMT;writing-mode:lr-tb;fill:#000000;fill-opacity:1;fill-rule:nonzero;stroke:none"
           id="text184"><tspan
             x="0 8 17 24 34 40 49 58 66 71 76 92 101 106 114 123 133 143 149 159 165 175 184 194 199 209 218 225 230 240 249 259 268 274 284 294 308 317 326 331 336 344 349 358 364 370 375 381 390 395 405 410 424 433 442 451 456 464 478 487 493 499 504 509 518 527 541 549 554 559 568 577 586 595 600 610 616 621 636 645 651 660 669 674 680"
             y="0"
             sodipodi:role="line"
             id="tspan182">services. We subdivided our development staff into many small teams, each of which is</tspan></text>
        <text
           xml:space="preserve"
           transform="translate(1392,818)"
           style="font-variant:normal;font-weight:normal;font-size:20px;font-family:'Times New Roman';-inkscape-font-specification:TimesNewRomanPSMT;writing-mode:lr-tb;fill:#000000;fill-opacity:1;fill-rule:nonzero;stroke:none"
           id="text188"><tspan
             x="0 7 16 24 34 44 53 61 67 77 83 92 97 103 113 120 125 135 144 154 163 169 179 189 195 204 213 218 223 237 246 252 261 266 275 281 290 296 305 314 319 324 333 342 352 357 367 377 386 393 402 407 413 422 431 436 445 450 459 469 476 483 492 500 510 520 529 539 545 554 563 569"
             y="0"
             sodipodi:role="line"
             id="tspan186">responsible for developing, maintaining, and operating a correspondingly</tspan></text>
        <text
           xml:space="preserve"
           transform="translate(1970,811)"
           style="font-variant:normal;font-weight:normal;font-size:15px;font-family:'Times New Roman';-inkscape-font-specification:TimesNewRomanPSMT;writing-mode:lr-tb;fill:#0000ee;fill-opacity:1;fill-rule:nonzero;stroke:none"
           id="text192"><tspan
             x="0"
             y="0"
             id="tspan190">1</tspan></text>
        <path
           d="m 1970,812.5 h 6 z"
           style="fill:none;stroke:#0000ee;stroke-width:1;stroke-linecap:square;stroke-linejoin:miter;stroke-miterlimit:10;stroke-dasharray:none;stroke-opacity:1"
           id="path194" />
        <text
           xml:space="preserve"
           transform="translate(1982,818)"
           style="font-variant:normal;font-weight:normal;font-size:20px;font-family:'Times New Roman';-inkscape-font-specification:TimesNewRomanPSMT;writing-mode:lr-tb;fill:#000000;fill-opacity:1;fill-rule:nonzero;stroke:none"
           id="text198"><tspan
             x="0 8 22 31 37 43 48 57 66 80 90 99"
             y="0"
             sodipodi:role="line"
             id="tspan196">small number</tspan></text>
        <text
           xml:space="preserve"
           transform="translate(1392,841)"
           style="font-variant:normal;font-weight:normal;font-size:20px;font-family:'Times New Roman';-inkscape-font-specification:TimesNewRomanPSMT;writing-mode:lr-tb;fill:#000000;fill-opacity:1;fill-rule:nonzero;stroke:none"
           id="text202"><tspan
             x="0 10 16 21 29 38 45 55 61 70 79 87"
             y="0"
             sodipodi:role="line"
             id="tspan200">of services.</tspan></text>
        <text
           xml:space="preserve"
           transform="translate(1392,884)"
           style="font-variant:normal;font-weight:normal;font-size:20px;font-family:'Times New Roman';-inkscape-font-specification:TimesNewRomanPSMT;writing-mode:lr-tb;fill:#000000;fill-opacity:1;fill-rule:nonzero;stroke:none"
           id="text206"><tspan
             x="0 12 21 30 35 45 51 60 69 76 85 99 104 110 119"
             y="0"
             sodipodi:role="line"
             id="tspan204">The diagram in </tspan></text>
        <text
           xml:space="preserve"
           transform="translate(1516,884)"
           style="font-variant:normal;font-weight:normal;font-size:20px;font-family:'Times New Roman';-inkscape-font-specification:TimesNewRomanPSMT;writing-mode:lr-tb;fill:#0000ee;fill-opacity:1;fill-rule:nonzero;stroke:none"
           id="text210"><tspan
             x="0 11 17 26 35 42 51 56 66 76 81"
             y="0"
             sodipodi:role="line"
             id="tspan208">Figure 27.1</tspan></text>
        <path
           d="m 1516,885.5 h 90 z"
           style="fill:none;stroke:#0000ee;stroke-width:1;stroke-linecap:square;stroke-linejoin:miter;stroke-miterlimit:10;stroke-dasharray:none;stroke-opacity:1"
           id="path212" />
        <text
           xml:space="preserve"
           transform="translate(1612,884)"
           style="font-variant:normal;font-weight:normal;font-size:20px;font-family:'Times New Roman';-inkscape-font-specification:TimesNewRomanPSMT;writing-mode:lr-tb;fill:#000000;fill-opacity:1;fill-rule:nonzero;stroke:none"
           id="text216"><tspan
             x="0 8 17 27 42 50 55 64 74 89 94 104 113 120 125 131 137 146 151 157 162 168 178 187 195 200 209 216 225 234 240 245 254 263 268 276 281 290 297 304 313 322 331 340 350 355 363 372 379 389 395 404 413 421 426 431"
             y="0"
             sodipodi:role="line"
             id="tspan214">shows how our fictitious architects arranged services to</tspan></text>
        <text
           xml:space="preserve"
           transform="translate(1392,907)"
           style="font-variant:normal;font-weight:normal;font-size:20px;font-family:'Times New Roman';-inkscape-font-specification:TimesNewRomanPSMT;writing-mode:lr-tb;fill:#000000;fill-opacity:1;fill-rule:nonzero;stroke:none"
           id="text220"><tspan
             x="0 6 20 30 36 45 59 68 77 82 87 92 101 107 115 120 129 139 149 155 161 170 179 184 190 200 209 214 219 231 240 249"
             y="0"
             sodipodi:role="line"
             id="tspan218">implement this application. The </tspan></text>
        <text
           xml:space="preserve"
           transform="translate(1646,907)"
           style="font-variant:normal;font-weight:normal;font-size:16px;font-family:'Courier New';-inkscape-font-specification:CourierNewPSMT;writing-mode:lr-tb;fill:#000000;fill-opacity:1;fill-rule:nonzero;stroke:none"
           id="text224"><tspan
             x="0 10 20 30 40 50"
             y="0"
             sodipodi:role="line"
             id="tspan222">TaxiUI</tspan></text>
        <text
           xml:space="preserve"
           transform="translate(1711,907)"
           style="font-variant:normal;font-weight:normal;font-size:20px;font-family:'Times New Roman';-inkscape-font-specification:TimesNewRomanPSMT;writing-mode:lr-tb;fill:#000000;fill-opacity:1;fill-rule:nonzero;stroke:none"
           id="text228"><tspan
             x="0 8 17 24 34 40 49 58 63 73 82 91 97 105 110 125 131 136 145 150 155 164 173 178 187 196 204 209 219 233 242 249 257 262 267 282 291 301 306 315 323"
             y="0"
             sodipodi:role="line"
             id="tspan226">service deals with the customers, who use</tspan></text>
        <text
           xml:space="preserve"
           transform="translate(1392,930)"
           style="font-variant:normal;font-weight:normal;font-size:20px;font-family:'Times New Roman';-inkscape-font-specification:TimesNewRomanPSMT;writing-mode:lr-tb;fill:#000000;fill-opacity:1;fill-rule:nonzero;stroke:none"
           id="text232"><tspan
             x="0 14 24 34 40 46 55 60 70 79 89 95 104 113 121 126 131 141 146 156 163 173 182 189 194 199 208 217 223 231 236 241 253 262 271"
             y="0"
             sodipodi:role="line"
             id="tspan230">mobile devices to order taxis. The </tspan></text>
        <text
           xml:space="preserve"
           transform="translate(1668,930)"
           style="font-variant:normal;font-weight:normal;font-size:16px;font-family:'Courier New';-inkscape-font-specification:CourierNewPSMT;writing-mode:lr-tb;fill:#000000;fill-opacity:1;fill-rule:nonzero;stroke:none"
           id="text236"><tspan
             x="0 10 20 30 40 50 60 70 80 90"
             y="0"
             sodipodi:role="line"
             id="tspan234">TaxiFinder</tspan></text>
        <text
           xml:space="preserve"
           transform="translate(1773,930)"
           style="font-variant:normal;font-weight:normal;font-size:20px;font-family:'Times New Roman';-inkscape-font-specification:TimesNewRomanPSMT;writing-mode:lr-tb;fill:#000000;fill-opacity:1;fill-rule:nonzero;stroke:none"
           id="text240"><tspan
             x="0 8 17 24 34 40 49 58 63 72 81 90 104 110 119 128 136 141 146 155 164 169 175 184 194 203 212 217 227 234 240 249 257 262 272 278 283 288 297"
             y="0"
             sodipodi:role="line"
             id="tspan238">service examines the inventories of the</tspan></text>
        <text
           xml:space="preserve"
           transform="translate(1392,953)"
           style="font-variant:normal;font-weight:normal;font-size:20px;font-family:'Times New Roman';-inkscape-font-specification:TimesNewRomanPSMT;writing-mode:lr-tb;fill:#000000;fill-opacity:1;fill-rule:nonzero;stroke:none"
           id="text244"><tspan
             x="0 10 19 26 32 42 51 59"
             y="0"
             sodipodi:role="line"
             id="tspan242">various </tspan></text>
        <text
           xml:space="preserve"
           transform="translate(1456,953)"
           style="font-variant:normal;font-weight:normal;font-size:16px;font-family:'Courier New';-inkscape-font-specification:CourierNewPSMT;writing-mode:lr-tb;fill:#000000;fill-opacity:1;fill-rule:nonzero;stroke:none"
           id="text248"><tspan
             x="0 10 20 30 40 50 60 70 80 90 100 110 120"
             y="0"
             sodipodi:role="line"
             id="tspan246">TaxiSuppliers</tspan></text>
        <text
           xml:space="preserve"
           transform="translate(1591,953)"
           style="font-variant:normal;font-weight:normal;font-size:20px;font-family:'Times New Roman';-inkscape-font-specification:TimesNewRomanPSMT;writing-mode:lr-tb;fill:#000000;fill-opacity:1;fill-rule:nonzero;stroke:none"
           id="text252"><tspan
             x="0 9 18 28 33 43 52 57 66 73 87 93 102 111 119 124 139 148 154 163 172 177 182 191 200 206 215 223 228 237 244 253 258 268 278 286 294 300 310 316 325 330 339 348 357 367 373 383 392 397 406 414 419 425 435 442 447 452 461"
             y="0"
             sodipodi:role="line"
             id="tspan250">and determines which taxies are possible candidates for the</tspan></text>
        <text
           xml:space="preserve"
           transform="translate(1392,976)"
           style="font-variant:normal;font-weight:normal;font-size:20px;font-family:'Times New Roman';-inkscape-font-specification:TimesNewRomanPSMT;writing-mode:lr-tb;fill:#000000;fill-opacity:1;fill-rule:nonzero;stroke:none"
           id="text256"><tspan
             x="0 9 17 26 32 37 42 48 53 58 68 77 87 97 105 111 116 124 129 134 143 152 160 169 174 180 189 194 204 209 218 223 231 240 250 257 262 269 274 283 290 304 309 319 328 333 342 347 354 363 372 382 389 399 404 413 418 423 432 441 450 459 469 474 479 489 494 499 508 517 522 527 536 544 553 559 564 569 581 590"
             y="0"
             sodipodi:role="line"
             id="tspan254">user. It deposits these into a short-term data record attached to that user. The</tspan></text>
      </g>
    </g>
  </g>
</svg>
