<?xml version="1.0" encoding="UTF-8" standalone="no"?>
<!-- Created with Inkscape (http://www.inkscape.org/) -->

<svg
   version="1.1"
   id="svg2"
   width="816"
   height="1056"
   viewBox="0 0 816 1056"
   sodipodi:docname="clean_arch.pdf"
   xmlns:inkscape="http://www.inkscape.org/namespaces/inkscape"
   xmlns:sodipodi="http://sodipodi.sourceforge.net/DTD/sodipodi-0.dtd"
   xmlns="http://www.w3.org/2000/svg"
   xmlns:svg="http://www.w3.org/2000/svg">
  <defs
     id="defs6">
    <clipPath
       clipPathUnits="userSpaceOnUse"
       id="clipPath18">
      <path
         d="m 696,0 h 696 V 1056 H 696 V 0"
         clip-rule="evenodd"
         id="path16" />
    </clipPath>
    <clipPath
       clipPathUnits="userSpaceOnUse"
       id="clipPath28">
      <path
         d="m 696,66 h 696 V 996 H 696 V 66"
         clip-rule="evenodd"
         id="path26" />
    </clipPath>
  </defs>
  <sodipodi:namedview
     id="namedview4"
     pagecolor="#ffffff"
     bordercolor="#000000"
     borderopacity="0.25"
     inkscape:showpageshadow="2"
     inkscape:pageopacity="0.0"
     inkscape:pagecheckerboard="0"
     inkscape:deskcolor="#d1d1d1" />
  <g
     id="g8"
     inkscape:groupmode="layer"
     inkscape:label="clean_arch"
     transform="translate(59.999999,2.64e-5)">
    <g
       id="g10" />
    <g
       id="g12"
       transform="translate(-696)">
      <g
         id="g14"
         clip-path="url(#clipPath18)">
        <g
           id="g20" />
      </g>
    </g>
    <g
       id="g22"
       transform="translate(-696)">
      <g
         id="g24"
         clip-path="url(#clipPath28)">
        <text
           xml:space="preserve"
           transform="translate(696,83.35938)"
           style="font-variant:normal;font-weight:normal;font-size:20px;font-family:'Times New Roman';-inkscape-font-specification:TimesNewRomanPSMT;writing-mode:lr-tb;fill:#000000;fill-opacity:1;fill-rule:nonzero;stroke:none"
           id="text32"><tspan
             x="0 8 17 27 36 47 56 63 69 79 84 89 99 108 117 126 131 137 146 151 161 166 171 180 189 194 202 211 218 228 237 244 249 264 270 275 284 289 303 313 323 332"
             y="0"
             sodipodi:role="line"
             id="tspan30">JavaScript back into the server with Node.</tspan></text>
        <text
           xml:space="preserve"
           transform="translate(696,126)"
           style="font-variant:normal;font-weight:normal;font-size:20px;font-family:'Times New Roman';-inkscape-font-specification:TimesNewRomanPSMT;writing-mode:lr-tb;fill:#000000;fill-opacity:1;fill-rule:nonzero;stroke:none"
           id="text36"><tspan
             x="0 7 18 24 33 42 47"
             y="0"
             sodipodi:role="line"
             id="tspan34">(Sigh.)</tspan></text>
        <text
           xml:space="preserve"
           transform="translate(696,196)"
           style="font-variant:normal;font-weight:bold;font-size:33px;font-family:'Times New Roman';-inkscape-font-specification:TimesNewRomanPS-BoldMT;writing-mode:lr-tb;fill:#000000;fill-opacity:1;fill-rule:nonzero;stroke:none"
           id="text40"><tspan
             x="0"
             y="0"
             id="tspan38">T</tspan></text>
        <text
           xml:space="preserve"
           transform="translate(718,196)"
           style="font-variant:normal;font-weight:bold;font-size:33px;font-family:'Times New Roman';-inkscape-font-specification:TimesNewRomanPS-BoldMT;writing-mode:lr-tb;fill:#000000;fill-opacity:1;fill-rule:nonzero;stroke:none"
           id="text44"><tspan
             x="0 26"
             y="0"
             sodipodi:role="line"
             id="tspan42">HE</tspan></text>
        <text
           xml:space="preserve"
           transform="translate(774,196)"
           style="font-variant:normal;font-weight:bold;font-size:33px;font-family:'Times New Roman';-inkscape-font-specification:TimesNewRomanPS-BoldMT;writing-mode:lr-tb;fill:#000000;fill-opacity:1;fill-rule:nonzero;stroke:none"
           id="text48"><tspan
             x="0"
             y="0"
             id="tspan46">E</tspan></text>
        <text
           xml:space="preserve"
           transform="translate(796,196)"
           style="font-variant:normal;font-weight:bold;font-size:33px;font-family:'Times New Roman';-inkscape-font-specification:TimesNewRomanPS-BoldMT;writing-mode:lr-tb;fill:#000000;fill-opacity:1;fill-rule:nonzero;stroke:none"
           id="text52"><tspan
             x="0 24 48 70 92 110"
             y="0"
             sodipodi:role="line"
             id="tspan50">NDLESS</tspan></text>
        <text
           xml:space="preserve"
           transform="translate(932,196)"
           style="font-variant:normal;font-weight:bold;font-size:33px;font-family:'Times New Roman';-inkscape-font-specification:TimesNewRomanPS-BoldMT;writing-mode:lr-tb;fill:#000000;fill-opacity:1;fill-rule:nonzero;stroke:none"
           id="text56"><tspan
             x="0"
             y="0"
             id="tspan54">P</tspan></text>
        <text
           xml:space="preserve"
           transform="translate(952,196)"
           style="font-variant:normal;font-weight:bold;font-size:33px;font-family:'Times New Roman';-inkscape-font-specification:TimesNewRomanPS-BoldMT;writing-mode:lr-tb;fill:#000000;fill-opacity:1;fill-rule:nonzero;stroke:none"
           id="text60"><tspan
             x="0 22 46 70 94 116 140"
             y="0"
             sodipodi:role="line"
             id="tspan58">ENDULUM</tspan></text>
        <text
           xml:space="preserve"
           transform="translate(696,241)"
           style="font-variant:normal;font-weight:normal;font-size:20px;font-family:'Times New Roman';-inkscape-font-specification:TimesNewRomanPSMT;writing-mode:lr-tb;fill:#000000;fill-opacity:1;fill-rule:nonzero;stroke:none"
           id="text64"><tspan
             x="0 14 20 25 34 44 53 60 68 77 82 87 93 98 103 118 128 137 143 153 158 168 177 182 188 197 206 216 223 230 239 248 253 258 263 273 278 283 292 298 307 316 321 326 335 344 349 354 359 368 378 386 395 400 410 418 427 433 439 445 454 459 465 475 484 492 497 505 510 519 526 531 540 550 555 570 576 581 590 595 600 609 618 623 638 647 657"
             y="0"
             sodipodi:role="line"
             id="tspan62">Of course, it would be incorrect to think that those oscillations started with the web.</tspan></text>
        <text
           xml:space="preserve"
           transform="translate(696,264)"
           style="font-variant:normal;font-weight:normal;font-size:20px;font-family:'Times New Roman';-inkscape-font-specification:TimesNewRomanPSMT;writing-mode:lr-tb;fill:#000000;fill-opacity:1;fill-rule:nonzero;stroke:none"
           id="text68"><tspan
             x="0 13 22 28 38 45 54 59 64 73 82 87 102 111 121 126 131 136 145 154 161 170 175 190 199 207 212 221 227 233 242 251 256 266 274 283 290 300 309 316 321 330 337 346 355 361 366 375 384 389 398 405 414 419 424 437 446 452 462 469 478 483 488 497 506 511 516 521 526 535 544 551 560 565 580 589 596 605 610 619 628 637 642 649 658"
             y="0"
             sodipodi:role="line"
             id="tspan66">Before the web, there was client–server architecture. Before that, there were central</tspan></text>
        <text
           xml:space="preserve"
           transform="translate(696,287)"
           style="font-variant:normal;font-weight:normal;font-size:20px;font-family:'Times New Roman';-inkscape-font-specification:TimesNewRomanPSMT;writing-mode:lr-tb;fill:#000000;fill-opacity:1;fill-rule:nonzero;stroke:none"
           id="text72"><tspan
             x="0 14 20 29 35 44 54 68 78 87 92 101 108 116 121 136 142 147 156 161 170 177 184 193 202 210 215 225 231 236 246 255 269 279 284 289 298 305 319 325 334 343 349 357 362 367 380 389 395 405 412 421 426 431 440 449 454 459 464 469 478 487 494 503 508 523 532 539 548 553 567 576 582 591 597 604 613 627 636 644 649 664 670 675"
             y="0"
             sodipodi:role="line"
             id="tspan70">minicomputers with arrays of dumb terminals. Before that, there were mainframes with</tspan></text>
        <text
           xml:space="preserve"
           transform="translate(696,310)"
           style="font-variant:normal;font-weight:normal;font-size:20px;font-family:'Times New Roman';-inkscape-font-specification:TimesNewRomanPSMT;writing-mode:lr-tb;fill:#000000;fill-opacity:1;fill-rule:nonzero;stroke:none"
           id="text76"><tspan
             x="0 8 22 31 38 43 48 57 64 73 82 91 98 106 115 122 131 140 149 154 159 168 175 189 195 204 213 219 227 232 239 244 253 262 267 272 287 296 303 312 317 327 336 343 352 357 371 380 389 398 403 412 421 430 436 446 455 465 474 482 487 492 502 507 521 531 541 550 557 566 573 583 592 601 606 616 623 633 648 656 665 672 680 687"
             y="0"
             sodipodi:role="line"
             id="tspan74">smart green-screen terminals (that were very much analogous to modern-day browsers).</tspan></text>
        <text
           xml:space="preserve"
           transform="translate(696,333)"
           style="font-variant:normal;font-weight:normal;font-size:20px;font-family:'Times New Roman';-inkscape-font-specification:TimesNewRomanPSMT;writing-mode:lr-tb;fill:#000000;fill-opacity:1;fill-rule:nonzero;stroke:none"
           id="text80"><tspan
             x="0 13 22 28 38 45 54 59 64 73 82 87 92 97 102 111 120 127 136 141 156 165 172 181 186 195 205 219 229 238 243 252 259 264 271 281 291 305 313 318 327 336 346 351 361 370 379 388 397 406 416 421 430 439 446 456 464 469"
             y="0"
             sodipodi:role="line"
             id="tspan78">Before that, there were computer rooms and punched cards …</tspan></text>
        <text
           xml:space="preserve"
           transform="translate(696,376)"
           style="font-variant:normal;font-weight:normal;font-size:20px;font-family:'Times New Roman';-inkscape-font-specification:TimesNewRomanPSMT;writing-mode:lr-tb;fill:#000000;fill-opacity:1;fill-rule:nonzero;stroke:none"
           id="text84"><tspan
             x="0 14 23 33 38 46 56 61 66 75 84 89 97 102 112 119 128 133 142 152 161 169 174 179 195 204 209 218 227 236 243 248 253 261 270 279 293 298 303 313 318 324 330 339 348 355 364 369 379 388 393 398 413 422 431 438 447 452 467 476 481 496 505 514 519 524 529 538 547 552 561 571 585 595 604 609 618 625 630 640 650 665 674 680"
             y="0"
             sodipodi:role="line"
             id="tspan82">And so the story goes. We can’t seem to figure out where we want the computer power.</tspan></text>
        <text
           xml:space="preserve"
           transform="translate(696,399)"
           style="font-variant:normal;font-weight:normal;font-size:20px;font-family:'Times New Roman';-inkscape-font-specification:TimesNewRomanPSMT;writing-mode:lr-tb;fill:#000000;fill-opacity:1;fill-rule:nonzero;stroke:none"
           id="text88"><tspan
             x="0 16 25 30 39 49 54 64 73 82 91 96 105 114 124 129 135 145 152 157 166 171 181 190 195 210 219 228 237 242 251 260 269 274 281 290 296 302 310 316 325 334 339 345 350 355 364 373 383 388 398 404 412 417 424 430 440 449 454 460 469 478 483 489 494 499 504 518 527 537 542 547 553 558 564 578 587 596 602 611 620 625 630 635 644 654 662"
             y="0"
             sodipodi:role="line"
             id="tspan86">We go back and forth between centralizing it and distributing it. And, I imagine, those</tspan></text>
        <text
           xml:space="preserve"
           transform="translate(696,422)"
           style="font-variant:normal;font-weight:normal;font-size:20px;font-family:'Times New Roman';-inkscape-font-specification:TimesNewRomanPSMT;writing-mode:lr-tb;fill:#000000;fill-opacity:1;fill-rule:nonzero;stroke:none"
           id="text92"><tspan
             x="0 10 18 27 33 39 45 54 59 65 75 84 92 97 112 118 124 130 135 144 154 163 168 174 183 192 201 206 212 222 229 234 242 252 266 275 280 285 291 305 314 319 324 334 339 348 358 372 381"
             y="0"
             sodipodi:role="line"
             id="tspan90">oscillations will continue for some time to come.</tspan></text>
        <text
           xml:space="preserve"
           transform="translate(696,465)"
           style="font-variant:normal;font-weight:normal;font-size:20px;font-family:'Times New Roman';-inkscape-font-specification:TimesNewRomanPSMT;writing-mode:lr-tb;fill:#000000;fill-opacity:1;fill-rule:nonzero;stroke:none"
           id="text96"><tspan
             x="0 18 27 36 45 50 59 69 78 83 89 99 109 118 123 132 137 142 148 153 158 164 173 178 183 192 201 206 216 226 235 242 251 257 263 268 276 285 295 305 314 319 329 335 340 346 358 363 372 378 386 391 401 408 416 421 426 431 440 449 454 469 478 488 493 503 509 519 528 535 540 545 554 563 572 581 590 599 604 613 622 631 636 645 651 660 669 674 683"
             y="0"
             sodipodi:role="line"
             id="tspan94">When you look at it in the overall scope of IT history, the web didn’t change anything at</tspan></text>
        <text
           xml:space="preserve"
           transform="translate(696,488)"
           style="font-variant:normal;font-weight:normal;font-size:20px;font-family:'Times New Roman';-inkscape-font-specification:TimesNewRomanPSMT;writing-mode:lr-tb;fill:#000000;fill-opacity:1;fill-rule:nonzero;stroke:none"
           id="text100"><tspan
             x="0 9 15 21 26 31 43 52 61 66 81 90 100 105 120 129 137 142 150 156 170 180 186 195 200 210 219 228 233 243 249 254 268 277 286 295 300 310 318 327 333 339 345 354 359 365 375 384 392 397 403 412 417 426 431 439 444 451 460 469 478 484 493 498 503 512 521 526 531 541 550 559 568 577 582 592 601 607 617 624 633 638 652 662 670 675 680 690"
             y="0"
             sodipodi:role="line"
             id="tspan98">all. The web was simply one of many oscillations in a struggle that began before most of</tspan></text>
        <text
           xml:space="preserve"
           transform="translate(696,511)"
           style="font-variant:normal;font-weight:normal;font-size:20px;font-family:'Times New Roman';-inkscape-font-specification:TimesNewRomanPSMT;writing-mode:lr-tb;fill:#000000;fill-opacity:1;fill-rule:nonzero;stroke:none"
           id="text104"><tspan
             x="0 9 17 22 37 46 53 62 67 77 87 94 103 108 117 126 136 141 156 162 168 174 179 188 198 207 212 218 227 236 245 250 265 274 280 286 291 300 306 311 320 327 332 346 356 364 369 374 384 390 395 404 412 417 426 435 445 454 459 466 475 480 486 493 502 512"
             y="0"
             sodipodi:role="line"
             id="tspan102">us were born and will continue well after most of us have retired.</tspan></text>
        <text
           xml:space="preserve"
           transform="translate(696,554)"
           style="font-variant:normal;font-weight:normal;font-size:20px;font-family:'Times New Roman';-inkscape-font-specification:TimesNewRomanPSMT;writing-mode:lr-tb;fill:#000000;fill-opacity:1;fill-rule:nonzero;stroke:none"
           id="text108"><tspan
             x="0 14 22 27 36 43 52 61 67 72 81 90 95 103 108 113 118 127 137 146 155 164 169 174 189 198 203 212 221 231 240 245 250 260 265 271 281 291 300 305 314 319 324 329 338 347 352 358 368 377 386 391 396 405 412 426 431 436 448 457 467 475 484 489 499 507 516 522 528 534 543 548 554 564 573 581 586 595 602 611 616 622 631 639 644 649 657 666 676 683 688"
             y="0"
             sodipodi:role="line"
             id="tspan106">As architects, though, we have to look at the long term. Those oscillations are just short-</tspan></text>
        <text
           xml:space="preserve"
           transform="translate(696,577)"
           style="font-variant:normal;font-weight:normal;font-size:20px;font-family:'Times New Roman';-inkscape-font-specification:TimesNewRomanPSMT;writing-mode:lr-tb;fill:#000000;fill-opacity:1;fill-rule:nonzero;stroke:none"
           id="text112"><tspan
             x="0 5 14 21 35 40 46 54 62 71 80 88 93 98 107 116 121 126 141 150 155 170 179 188 193 198 203 213 218 228 237 245 254 259 268 283 292 301 306 312 319 329 343 348 353 362 371 376 385 394 403 408 415 424 430 435 444 454 461 470 475 485 491 496 506 515 522 527 537 546 554 560 569 578 586 594 599 606 615 621 630 638"
             y="0"
             sodipodi:role="line"
             id="tspan110">term issues that we want to push away from the central core of our business rules.</tspan></text>
        <text
           xml:space="preserve"
           transform="translate(696,620)"
           style="font-variant:normal;font-weight:normal;font-size:20px;font-family:'Times New Roman';-inkscape-font-specification:TimesNewRomanPSMT;writing-mode:lr-tb;fill:#000000;fill-opacity:1;fill-rule:nonzero;stroke:none"
           id="text116"><tspan
             x="0 11 20 25 30 44 53 58 63 72 78 84 89 98 108 117 122 127 136 145 150 158 163 173 180 189 194 204 210 215 224 234 248 258 267 276 285 290 304 309 314 327 337 351 361 370 379 388 393 407 412 422 431 437 443 448 453 462 467 477 486 493 502 507 517 527 537 546 552 561 568 573 583 592 599 607 617 626 635"
             y="0"
             sodipodi:role="line"
             id="tspan114">Let me tell you the story of company Q. Company Q built a very popular personal</tspan></text>
        <text
           xml:space="preserve"
           transform="translate(696,643)"
           style="font-variant:normal;font-weight:normal;font-size:20px;font-family:'Times New Roman';-inkscape-font-specification:TimesNewRomanPSMT;writing-mode:lr-tb;fill:#000000;fill-opacity:1;fill-rule:nonzero;stroke:none"
           id="text120"><tspan
             x="0 6 12 21 30 39 48 57 62 70 79 87 92 101 115 120 125 131 136 141 156 165 173 178 187 192 202 211 219 228 233 243 253 258 267 277 287 292 307 313 318 327 332 341 346 356 365 372 381 386 395 403 412 418 427 433 438 452 465 471 476 481 487 492 498 508 518 527 537 542 551 559 565 574 583 588 594 599"
             y="0"
             sodipodi:role="line"
             id="tspan118">finance system. It was a desktop app with a very useful GUI. I loved using it.</tspan></text>
        <text
           xml:space="preserve"
           transform="translate(696,686)"
           style="font-variant:normal;font-weight:normal;font-size:20px;font-family:'Times New Roman';-inkscape-font-specification:TimesNewRomanPSMT;writing-mode:lr-tb;fill:#000000;fill-opacity:1;fill-rule:nonzero;stroke:none"
           id="text124"><tspan
             x="0 12 21 30 39 44 53 62 76 85 90 95 104 113 118 133 142 152 157 162 168 177 182 188 193 201 206 215 224 233 238 243 250 259 265 274 283 291 300 305 310 319 329 343 353 362 371 380 385 399 404 413 422 431 440 449 458 468 473 478 487 496 501 515 528 534 539 544 554 559 565 575 585 594 599 604 613 622"
             y="0"
             sodipodi:role="line"
             id="tspan122">Then came the web. In its next release, company Q changed the GUI to look, and</tspan></text>
        <text
           xml:space="preserve"
           transform="translate(696,709)"
           style="font-variant:normal;font-weight:normal;font-size:20px;font-family:'Times New Roman';-inkscape-font-specification:TimesNewRomanPSMT;writing-mode:lr-tb;fill:#000000;fill-opacity:1;fill-rule:nonzero;stroke:none"
           id="text128"><tspan
             x="0 10 19 28 37 47 56 61 66 72 78 87 96 101 110 115 125 132 142 157 165 174 180 185 190 196 201 216 225 233 238 243 252 261 270 280 289 296 304 309 316 325 334 343 349 354 372 381 390 395 400 414 423 430 439 448 453 459 468 477 482 491 500 509 515 524 532 537 547 556 565 571 581 590 600 605 610 619 628"
             y="0"
             sodipodi:role="line"
             id="tspan126">behave, like a browser. I was thunderstruck! What marketing genius decided that</tspan></text>
        <text
           xml:space="preserve"
           transform="translate(696,732)"
           style="font-variant:normal;font-weight:normal;font-size:20px;font-family:'Times New Roman';-inkscape-font-specification:TimesNewRomanPSMT;writing-mode:lr-tb;fill:#000000;fill-opacity:1;fill-rule:nonzero;stroke:none"
           id="text132"><tspan
             x="0 10 19 26 34 44 53 62 68 73 79 85 94 103 112 121 130 135 143 153 159 164 179 188 195 204 209 214 221 230 239 248 254 263 272 277 287 296 301 310 315 325 334 342 351 356 366 376 381 386 394 403 413 422 428 438 443 452 461 471 480 485 490 499 508 513 519 529 539 548 553 562 571 581 586 592 601 610 616 621 631 637 642 651 656 671 680"
             y="0"
             sodipodi:role="line"
             id="tspan130">personal finance software, running on a desktop, should have the look and feel of a web</tspan></text>
        <text
           xml:space="preserve"
           transform="translate(696,755)"
           style="font-variant:normal;font-weight:normal;font-size:20px;font-family:'Times New Roman';-inkscape-font-specification:TimesNewRomanPSMT;writing-mode:lr-tb;fill:#000000;fill-opacity:1;fill-rule:nonzero;stroke:none"
           id="text136"><tspan
             x="0 10 17 27 42 50 59 66"
             y="0"
             sodipodi:role="line"
             id="tspan134">browser?</tspan></text>
        <text
           xml:space="preserve"
           transform="translate(696,798)"
           style="font-variant:normal;font-weight:normal;font-size:20px;font-family:'Times New Roman';-inkscape-font-specification:TimesNewRomanPSMT;writing-mode:lr-tb;fill:#000000;fill-opacity:1;fill-rule:nonzero;stroke:none"
           id="text140"><tspan
             x="0 14 20 25 34 44 53 60 68 77 82 87 93 98 107 116 121 130 140 145 150 159 168 173 182 191 206 211 217 226 231 240 247 253 262 271 280 285 290 304 314 324 333 340 349 358 363 369 378 383 392 402 411 418 427 437 446 455 460 469 475 483 492 497 507 513 523 528 533 538 548 558 578 588 597 606 615 624 632 641 646 655 661 666 675"
             y="0"
             sodipodi:role="line"
             id="tspan138">Of course, I hated the new interface. Apparently everyone else did, too—because after</tspan></text>
        <text
           xml:space="preserve"
           transform="translate(696,821)"
           style="font-variant:normal;font-weight:normal;font-size:20px;font-family:'Times New Roman';-inkscape-font-specification:TimesNewRomanPSMT;writing-mode:lr-tb;fill:#000000;fill-opacity:1;fill-rule:nonzero;stroke:none"
           id="text144"><tspan
             x="0 9 14 20 29 44 49 56 65 71 80 89 97 106 114 119 124 133 143 157 167 176 185 194 199 213 218 227 234 243 253 262 271 277 283 292 297 304 313 327 337 347 356 366 371 376 385 394 399 409 416 426 441 449 458 465 472 478 484 493 502 507 513 522 531 537 542 551 560 570 575 580 589 596 605 614 624 629 635 640"
             y="0"
             sodipodi:role="line"
             id="tspan142">a few releases, company Q gradually removed the browser-like feel and turned its</tspan></text>
        <text
           xml:space="preserve"
           transform="translate(696,844)"
           style="font-variant:normal;font-weight:normal;font-size:20px;font-family:'Times New Roman';-inkscape-font-specification:TimesNewRomanPSMT;writing-mode:lr-tb;fill:#000000;fill-opacity:1;fill-rule:nonzero;stroke:none"
           id="text148"><tspan
             x="0 10 19 26 34 44 53 62 68 73 79 85 94 103 112 121 130 135 143 152 160 165 174 188 193 203 212 221 230 235 241 250 255 265 270 279 284 291 300 309 318 324 333 340 345 355 364 372 381 386 396 406 411 425 438 444"
             y="0"
             sodipodi:role="line"
             id="tspan146">personal finance system back into a regular desktop GUI.</tspan></text>
        <text
           xml:space="preserve"
           transform="translate(696,887)"
           style="font-variant:normal;font-weight:normal;font-size:20px;font-family:'Times New Roman';-inkscape-font-specification:TimesNewRomanPSMT;writing-mode:lr-tb;fill:#000000;fill-opacity:1;fill-rule:nonzero;stroke:none"
           id="text152"><tspan
             x="0 14 24 39 44 50 64 73 82 88 97 106 111 120 130 139 144 159 168 175 184 189 198 203 211 221 227 232 247 256 263 272 277 286 293 302 311 317 322 331 340 345 350 359 364 369 383 388 393 399 413 422 431 437 446 455 460 465 474 483 488 493 501 511 525 534 539 553 562 569 578 587 592 598 607 616 621 630 639 648 654 663"
             y="0"
             sodipodi:role="line"
             id="tspan150">Now imagine you were a software architect at Q. Imagine that some marketing genius</tspan></text>
        <text
           xml:space="preserve"
           transform="translate(696,910)"
           style="font-variant:normal;font-weight:normal;font-size:20px;font-family:'Times New Roman';-inkscape-font-specification:TimesNewRomanPSMT;writing-mode:lr-tb;fill:#000000;fill-opacity:1;fill-rule:nonzero;stroke:none"
           id="text156"><tspan
             x="0 9 19 28 38 44 53 62 71 79 84 93 103 113 122 129 134 148 157 166 175 184 193 207 216 225 230 235 240 249 258 263 268 273 282 291 296 311 320 330 336 345 350 363 369 374 383 392 400 405 410 420 425 434 443 452 461 470 479 484 489 499 504 510 520 530 539 544 558 568 575 584 589 595 601 610 619 624 629 638 647 652 667 676 686"
             y="0"
             sodipodi:role="line"
             id="tspan154">convinces upper management that the whole UI has to change to look more like the web.</tspan></text>
        <text
           xml:space="preserve"
           transform="translate(696,933)"
           style="font-variant:normal;font-weight:normal;font-size:20px;font-family:'Times New Roman';-inkscape-font-specification:TimesNewRomanPSMT;writing-mode:lr-tb;fill:#000000;fill-opacity:1;fill-rule:nonzero;stroke:none"
           id="text160"><tspan
             x="0 18 27 36 41 46 56 66 71 80 90 99 104 114 124 133 138 152 158 163 168 175 184 189 198 207 213 218 223 238 247 256 261 266 274 283 293 302 308 318 323 332 342 351 356 365 374 384 393 398 408 418 427 436 441 451 460 466 476 483 492 497 502 511 517 525 530 540 550 556 565 570 575 580 590 595 605 612 622 627 636 645 650 655 664 674 683"
             y="0"
             sodipodi:role="line"
             id="tspan158">What do you do? Or, rather, what should you have done before this point to protect your</tspan></text>
        <text
           xml:space="preserve"
           transform="translate(696,956)"
           style="font-variant:normal;font-weight:normal;font-size:20px;font-family:'Times New Roman';-inkscape-font-specification:TimesNewRomanPSMT;writing-mode:lr-tb;fill:#000000;fill-opacity:1;fill-rule:nonzero;stroke:none"
           id="text164"><tspan
             x="0 9 19 29 35 41 50 59 64 70 80 89 94 100 107 117 131 136 141 150 159 164 169 183 192 199 208 217 222 228 237 246 251 260 269 278 284 293 301"
             y="0"
             sodipodi:role="line"
             id="tspan162">application from that marketing genius?</tspan></text>
      </g>
    </g>
  </g>
</svg>
