<?xml version="1.0" encoding="UTF-8" standalone="no"?>
<!-- Created with Inkscape (http://www.inkscape.org/) -->

<svg
   version="1.1"
   id="svg2"
   width="816"
   height="1056"
   viewBox="0 0 816 1056"
   sodipodi:docname="clean_arch.pdf"
   xmlns:inkscape="http://www.inkscape.org/namespaces/inkscape"
   xmlns:sodipodi="http://sodipodi.sourceforge.net/DTD/sodipodi-0.dtd"
   xmlns="http://www.w3.org/2000/svg"
   xmlns:svg="http://www.w3.org/2000/svg">
  <defs
     id="defs6">
    <clipPath
       clipPathUnits="userSpaceOnUse"
       id="clipPath18">
      <path
         d="m 2088,0 h 696 V 1056 H 2088 V 0"
         clip-rule="evenodd"
         id="path16" />
    </clipPath>
    <clipPath
       clipPathUnits="userSpaceOnUse"
       id="clipPath28">
      <path
         d="m 2088,66 h 696 V 996 H 2088 V 66"
         clip-rule="evenodd"
         id="path26" />
    </clipPath>
    <clipPath
       clipPathUnits="userSpaceOnUse"
       id="clipPath48">
      <path
         d="m 2088,66 h 696 V 996 H 2088 V 66"
         clip-rule="evenodd"
         id="path46" />
    </clipPath>
  </defs>
  <sodipodi:namedview
     id="namedview4"
     pagecolor="#ffffff"
     bordercolor="#000000"
     borderopacity="0.25"
     inkscape:showpageshadow="2"
     inkscape:pageopacity="0.0"
     inkscape:pagecheckerboard="0"
     inkscape:deskcolor="#d1d1d1" />
  <g
     id="g8"
     inkscape:groupmode="layer"
     inkscape:label="clean_arch"
     transform="translate(59.999999,2.64e-5)">
    <g
       id="g10" />
    <g
       id="g12"
       transform="translate(-2088)">
      <g
         id="g14"
         clip-path="url(#clipPath18)">
        <g
           id="g20" />
      </g>
    </g>
    <g
       id="g22"
       transform="translate(-2088)">
      <g
         id="g24"
         clip-path="url(#clipPath28)">
        <g
           id="g30">
          <path
             d="m 2089,-132 h 695 v 1 h -695 z"
             style="fill:#000000;fill-opacity:1;fill-rule:nonzero;stroke:none"
             id="path32" />
        </g>
        <g
           id="g34">
          <path
             d="m 2089,91 h 695 v 1 h -695 z"
             style="fill:#000000;fill-opacity:1;fill-rule:nonzero;stroke:none"
             id="path36" />
        </g>
        <g
           id="g38">
          <path
             d="m 2089,921 h 695 v 1 h -695 z"
             style="fill:#000000;fill-opacity:1;fill-rule:nonzero;stroke:none"
             id="path40" />
        </g>
      </g>
    </g>
    <g
       id="g42"
       transform="translate(-2088)">
      <g
         id="g44"
         clip-path="url(#clipPath48)">
        <text
           xml:space="preserve"
           transform="translate(2089,80)"
           style="font-variant:normal;font-weight:normal;font-size:15px;font-family:'Courier New';-inkscape-font-specification:CourierNewPSMT;writing-mode:lr-tb;fill:#000000;fill-opacity:1;fill-rule:nonzero;stroke:none"
           id="text52"><tspan
             x="0"
             y="0"
             id="tspan50">}</tspan></text>
        <text
           xml:space="preserve"
           transform="translate(2088,129)"
           style="font-variant:normal;font-weight:normal;font-size:20px;font-family:'Times New Roman';-inkscape-font-specification:TimesNewRomanPSMT;writing-mode:lr-tb;fill:#000000;fill-opacity:1;fill-rule:nonzero;stroke:none"
           id="text56"><tspan
             x="0 13 19 25 34 43 48 56 61 71 77 82 87 96 105 110 119 128 137 147 156 163 168 174 180 186 195"
             y="0"
             sodipodi:role="line"
             id="tspan54">Clients of the header file </tspan></text>
        <text
           xml:space="preserve"
           transform="translate(2288,129)"
           style="font-variant:normal;font-weight:normal;font-size:16px;font-family:'Courier New';-inkscape-font-specification:CourierNewPSMT;writing-mode:lr-tb;fill:#000000;fill-opacity:1;fill-rule:nonzero;stroke:none"
           id="text60"><tspan
             x="0 10 20 30 40 50 60"
             y="0"
             sodipodi:role="line"
             id="tspan58">point.h</tspan></text>
        <text
           xml:space="preserve"
           transform="translate(2363,129)"
           style="font-variant:normal;font-weight:normal;font-size:20px;font-family:'Times New Roman';-inkscape-font-specification:TimesNewRomanPSMT;writing-mode:lr-tb;fill:#000000;fill-opacity:1;fill-rule:nonzero;stroke:none"
           id="text64"><tspan
             x="0 9 18 28 43 48 57 67 77 86 91 96 101 110 119 124 138 147 161 171 180 187 192 202 211 218 224 233 243 249 258 266"
             y="0"
             sodipodi:role="line"
             id="tspan62">know about the member variables </tspan></text>
        <text
           xml:space="preserve"
           transform="translate(2634,129)"
           style="font-variant:normal;font-weight:normal;font-size:16px;font-family:'Courier New';-inkscape-font-specification:CourierNewPSMT;writing-mode:lr-tb;fill:#000000;fill-opacity:1;fill-rule:nonzero;stroke:none"
           id="text68"><tspan
             x="0"
             y="0"
             id="tspan66">x</tspan></text>
        <text
           xml:space="preserve"
           transform="translate(2649,129)"
           style="font-variant:normal;font-weight:normal;font-size:20px;font-family:'Times New Roman';-inkscape-font-specification:TimesNewRomanPSMT;writing-mode:lr-tb;fill:#000000;fill-opacity:1;fill-rule:nonzero;stroke:none"
           id="text72"><tspan
             x="0 9 18 28"
             y="0"
             sodipodi:role="line"
             id="tspan70">and </tspan></text>
        <text
           xml:space="preserve"
           transform="translate(2682,129)"
           style="font-variant:normal;font-weight:normal;font-size:16px;font-family:'Courier New';-inkscape-font-specification:CourierNewPSMT;writing-mode:lr-tb;fill:#000000;fill-opacity:1;fill-rule:nonzero;stroke:none"
           id="text76"><tspan
             x="0"
             y="0"
             id="tspan74">y</tspan></text>
        <text
           xml:space="preserve"
           transform="translate(2692,129)"
           style="font-variant:normal;font-weight:normal;font-size:20px;font-family:'Times New Roman';-inkscape-font-specification:TimesNewRomanPSMT;writing-mode:lr-tb;fill:#000000;fill-opacity:1;fill-rule:nonzero;stroke:none"
           id="text80"><tspan
             x="0 6 11 23 32"
             y="0"
             sodipodi:role="line"
             id="tspan78">! The</tspan></text>
        <text
           xml:space="preserve"
           transform="translate(2088,152)"
           style="font-variant:normal;font-weight:normal;font-size:20px;font-family:'Times New Roman';-inkscape-font-specification:TimesNewRomanPSMT;writing-mode:lr-tb;fill:#000000;fill-opacity:1;fill-rule:nonzero;stroke:none"
           id="text84"><tspan
             x="0 9 19 33 43 49 55 64 71 76 91 97 103 109 114 124 131 140 150 159 168 173 178 187 196 205 214 222 230 235 240 250 255 260 269 278 292 297 302 312 321 326 331 336 345 354 359 368 374 380 389 398 403 408 416 421 427 433 439 444 453 462 472 487 495 500 505 514 523 532 537 546 555 561 569 574 579 584 595 605 612 617 626 635 644 658 668 674 683"
             y="0"
             sodipodi:role="line"
             id="tspan82">compiler will prevent access to them, but the client still knows they exist. For example,</tspan></text>
        <text
           xml:space="preserve"
           transform="translate(2088,175)"
           style="font-variant:normal;font-weight:normal;font-size:20px;font-family:'Times New Roman';-inkscape-font-specification:TimesNewRomanPSMT;writing-mode:lr-tb;fill:#000000;fill-opacity:1;fill-rule:nonzero;stroke:none"
           id="text88"><tspan
             x="0 6 12 17 22 31 41 49 58 63 77 86 100 110 119 126 131 140 149 163 172 180 185 194 201 210 215 224 233 242 251 260 269 279 284 289 294 303 312"
             y="0"
             sodipodi:role="line"
             id="tspan86">if those member names are changed, the </tspan></text>
        <text
           xml:space="preserve"
           transform="translate(2405,175)"
           style="font-variant:normal;font-weight:normal;font-size:16px;font-family:'Courier New';-inkscape-font-specification:CourierNewPSMT;writing-mode:lr-tb;fill:#000000;fill-opacity:1;fill-rule:nonzero;stroke:none"
           id="text92"><tspan
             x="0 10 20 30 40 50 60 70"
             y="0"
             sodipodi:role="line"
             id="tspan90">point.cc</tspan></text>
        <text
           xml:space="preserve"
           transform="translate(2490,175)"
           style="font-variant:normal;font-weight:normal;font-size:20px;font-family:'Times New Roman';-inkscape-font-specification:TimesNewRomanPSMT;writing-mode:lr-tb;fill:#000000;fill-opacity:1;fill-rule:nonzero;stroke:none"
           id="text96"><tspan
             x="0 6 12 18 27 32 46 55 63 68 73 83 92 97 104 113 122 132 146 156 162 168 177 187"
             y="0"
             sodipodi:role="line"
             id="tspan94">file must be recompiled!</tspan></text>
        <text
           xml:space="preserve"
           transform="translate(2088,198)"
           style="font-variant:normal;font-weight:normal;font-size:20px;font-family:'Times New Roman';-inkscape-font-specification:TimesNewRomanPSMT;writing-mode:lr-tb;fill:#000000;fill-opacity:1;fill-rule:nonzero;stroke:none"
           id="text100"><tspan
             x="0 12 21 30 39 49 57 66 72 81 86 92 102 111 116 125 134 142 147 157 166 175 184 189 199 206 216 225 234 243"
             y="0"
             sodipodi:role="line"
             id="tspan98">Encapsulation has been broken.</tspan></text>
        <text
           xml:space="preserve"
           transform="translate(2088,241)"
           style="font-variant:normal;font-weight:normal;font-size:20px;font-family:'Times New Roman';-inkscape-font-specification:TimesNewRomanPSMT;writing-mode:lr-tb;fill:#000000;fill-opacity:1;fill-rule:nonzero;stroke:none"
           id="text104"><tspan
             x="0 6 15 25 34 43 53 58 63 68 77 86 91 106 115 124 129 138 147 156 165 175 183 192 198 207 212 218 228 237 242 248 256 261 271 280 287 292 298 307 313 319 328 333 340 349 359 368 374 381 390 400 405 411 419 424 434 443 448 454 463 468 475 485 495 504 513 519 528 537 542 547 556 565"
             y="0"
             sodipodi:role="line"
             id="tspan102">Indeed, the way encapsulation is partially repaired is by introducing the </tspan></text>
        <text
           xml:space="preserve"
           transform="translate(2658,241)"
           style="font-variant:normal;font-weight:normal;font-size:16px;font-family:'Courier New';-inkscape-font-specification:CourierNewPSMT;writing-mode:lr-tb;fill:#000000;fill-opacity:1;fill-rule:nonzero;stroke:none"
           id="text108"><tspan
             x="0 10 20 30 40 50"
             y="0"
             sodipodi:role="line"
             id="tspan106">public</tspan></text>
        <text
           xml:space="preserve"
           transform="translate(2718,241)"
           style="font-variant:normal;font-weight:normal;font-size:20px;font-family:'Times New Roman';-inkscape-font-specification:TimesNewRomanPSMT;writing-mode:lr-tb;fill:#000000;fill-opacity:1;fill-rule:nonzero;stroke:none"
           id="text112"><tspan
             x="0"
             y="0"
             id="tspan110">,</tspan></text>
        <text
           xml:space="preserve"
           transform="translate(2088,264)"
           style="font-variant:normal;font-weight:normal;font-size:16px;font-family:'Courier New';-inkscape-font-specification:CourierNewPSMT;writing-mode:lr-tb;fill:#000000;fill-opacity:1;fill-rule:nonzero;stroke:none"
           id="text116"><tspan
             x="0 10 20 30 40 50 60"
             y="0"
             sodipodi:role="line"
             id="tspan114">private</tspan></text>
        <text
           xml:space="preserve"
           transform="translate(2158,264)"
           style="font-variant:normal;font-weight:normal;font-size:20px;font-family:'Times New Roman';-inkscape-font-specification:TimesNewRomanPSMT;writing-mode:lr-tb;fill:#000000;fill-opacity:1;fill-rule:nonzero;stroke:none"
           id="text120"><tspan
             x="0 5 10 19 28 38"
             y="0"
             sodipodi:role="line"
             id="tspan118">, and </tspan></text>
        <text
           xml:space="preserve"
           transform="translate(2201,264)"
           style="font-variant:normal;font-weight:normal;font-size:16px;font-family:'Courier New';-inkscape-font-specification:CourierNewPSMT;writing-mode:lr-tb;fill:#000000;fill-opacity:1;fill-rule:nonzero;stroke:none"
           id="text124"><tspan
             x="0 10 20 30 40 50 60 70 80"
             y="0"
             sodipodi:role="line"
             id="tspan122">protected</tspan></text>
        <text
           xml:space="preserve"
           transform="translate(2296,264)"
           style="font-variant:normal;font-weight:normal;font-size:20px;font-family:'Times New Roman';-inkscape-font-specification:TimesNewRomanPSMT;writing-mode:lr-tb;fill:#000000;fill-opacity:1;fill-rule:nonzero;stroke:none"
           id="text128"><tspan
             x="0 9 18 27 42 52 59 69 77 82 88 97 102 112 117 122 131 140 145 151 160 169 178 187 196 205 214 219 224 236 245 251 259 264 269 278 288 303 312 322 331 337 342 347 362 371 379 384 393"
             y="0"
             sodipodi:role="line"
             id="tspan126">keywords into the language. This, however, was a </tspan></text>
        <text
           xml:space="preserve"
           transform="translate(2694,264)"
           style="font-variant:normal;font-weight:normal;font-size:20px;font-family:'Times New Roman';-inkscape-font-specification:TimesNewRomanPSMT;writing-mode:lr-tb;fill:#000000;fill-opacity:1;fill-rule:nonzero;stroke:none"
           id="text132"><tspan
             x="0 9 18 27"
             y="0"
             sodipodi:role="line"
             id="tspan130">hack</tspan></text>
        <text
           xml:space="preserve"
           transform="translate(2088,287)"
           style="font-variant:normal;font-weight:normal;font-size:20px;font-family:'Times New Roman';-inkscape-font-specification:TimesNewRomanPSMT;writing-mode:lr-tb;fill:#000000;fill-opacity:1;fill-rule:nonzero;stroke:none"
           id="text136"><tspan
             x="0 9 18 27 36 44 52 58 63 72 77 86 96 101 111 120 125 130 139 148 153 158 167 176 185 194 200 209 218 224 229 238 247 256 266 271 277 287 294 299 304 313 322 327 336 346 360 370 376 382 391 398 403 408 418 423 431 440 449 454 459 468 478 486 495 500 510 519 526 532 541 551 557 566 574 579 585 594 599 604 613 622 627 636 645 654 664 673"
             y="0"
             sodipodi:role="line"
             id="tspan134">necessitated by the technical need for the compiler to see those variables in the header</tspan></text>
        <text
           xml:space="preserve"
           transform="translate(2088,310)"
           style="font-variant:normal;font-weight:normal;font-size:20px;font-family:'Times New Roman';-inkscape-font-specification:TimesNewRomanPSMT;writing-mode:lr-tb;fill:#000000;fill-opacity:1;fill-rule:nonzero;stroke:none"
           id="text140"><tspan
             x="0 6 12 18 27"
             y="0"
             sodipodi:role="line"
             id="tspan138">file.</tspan></text>
        <text
           xml:space="preserve"
           transform="translate(2088,353)"
           style="font-variant:normal;font-weight:normal;font-size:20px;font-family:'Times New Roman';-inkscape-font-specification:TimesNewRomanPSMT;writing-mode:lr-tb;fill:#000000;fill-opacity:1;fill-rule:nonzero;stroke:none"
           id="text144"><tspan
             x="0 8 17 27 36 41 50 59 69 74 87 97 102 110 116 130 140 146 155 160 169 179 189 195 201 209 218 227 237 242 247 256 265 270 279 288 297 307 316 323 329 335 349 359 365 374 388 397 406 411 420 425 431 441 450 455 463 473 479 485 490 495 504 510 515 525 534 543 548 557 566 572 577 582 587 596 605 612 621 631"
             y="0"
             sodipodi:role="line"
             id="tspan142">Java and C# simply abolished the header/implementation split altogether, thereby</tspan></text>
        <text
           xml:space="preserve"
           transform="translate(2088,376)"
           style="font-variant:normal;font-weight:normal;font-size:20px;font-family:'Times New Roman';-inkscape-font-specification:TimesNewRomanPSMT;writing-mode:lr-tb;fill:#000000;fill-opacity:1;fill-rule:nonzero;stroke:none"
           id="text148"><tspan
             x="0 15 24 33 42 51 60 66 75 84 89 98 107 116 125 135 143 152 158 167 172 178 188 197 202 211 221 230 239 244 258 268 275 284 289 294 300 309 314 319 328 337 345 354 359 365 374 383 392 401 410 419 428 436 441 446 452 457 462 468 476 481 487 501 511 521 529 537 543 553 559 568 573 578 588 593 601 610 620 629 636 645 650 659 664 669 678"
             y="0"
             sodipodi:role="line"
             id="tspan146">weakening encapsulation even more. In these languages, it is impossible to separate the</tspan></text>
        <text
           xml:space="preserve"
           transform="translate(2088,399)"
           style="font-variant:normal;font-weight:normal;font-size:20px;font-family:'Times New Roman';-inkscape-font-specification:TimesNewRomanPSMT;writing-mode:lr-tb;fill:#000000;fill-opacity:1;fill-rule:nonzero;stroke:none"
           id="text152"><tspan
             x="0 10 19 28 34 43 50 59 64 70 80 89 94 103 112 122 127 137 146 152 158 167 173 178 184 194 203 208 218 224 229 238 243 252 258 267 275 283"
             y="0"
             sodipodi:role="line"
             id="tspan150">declaration and definition of a class.</tspan></text>
        <text
           xml:space="preserve"
           transform="translate(2088,442)"
           style="font-variant:normal;font-weight:normal;font-size:20px;font-family:'Times New Roman';-inkscape-font-specification:TimesNewRomanPSMT;writing-mode:lr-tb;fill:#000000;fill-opacity:1;fill-rule:nonzero;stroke:none"
           id="text156"><tspan
             x="0 11 21 28 33 38 47 56 64 73 78 85 94 103 111 121 130 138 143 148 154 159 164 170 178 183 193 199 205 211 217 226 235 241 246 251 256 266 271 280 289 298 307 317 322 327 332 341 350 355 360 374 388 393 403 412 422 431 440 450 458 463 473 482 487 495 500 507 517 526 535 540 549 558 567 576 586 594 603 609 618 623 629 639 648"
             y="0"
             sodipodi:role="line"
             id="tspan154">For these reasons, it is difficult to accept that OO depends on strong encapsulation.</tspan></text>
        <text
           xml:space="preserve"
           transform="translate(2088,468)"
           style="font-variant:normal;font-weight:normal;font-size:20px;font-family:'Times New Roman';-inkscape-font-specification:TimesNewRomanPSMT;writing-mode:lr-tb;fill:#000000;fill-opacity:1;fill-rule:nonzero;stroke:none"
           id="text160"><tspan
             x="0 6 15 25 34 43 53 58 63 77 86 95 104 109 123 137 142 148 157 166 175 184 193 202 211"
             y="0"
             sodipodi:role="line"
             id="tspan158">Indeed, many OO languages</tspan></text>
        <text
           xml:space="preserve"
           transform="translate(2307,461)"
           style="font-variant:normal;font-weight:normal;font-size:15px;font-family:'Times New Roman';-inkscape-font-specification:TimesNewRomanPSMT;writing-mode:lr-tb;fill:#0000ee;fill-opacity:1;fill-rule:nonzero;stroke:none"
           id="text164"><tspan
             x="0"
             y="0"
             id="tspan162">2</tspan></text>
        <path
           d="m 2307,462.5 h 6 z"
           style="fill:none;stroke:#0000ee;stroke-width:1;stroke-linecap:square;stroke-linejoin:miter;stroke-miterlimit:10;stroke-dasharray:none;stroke-opacity:1"
           id="path166" />
        <text
           xml:space="preserve"
           transform="translate(2319,468)"
           style="font-variant:normal;font-weight:normal;font-size:20px;font-family:'Times New Roman';-inkscape-font-specification:TimesNewRomanPSMT;writing-mode:lr-tb;fill:#000000;fill-opacity:1;fill-rule:nonzero;stroke:none"
           id="text170"><tspan
             x="0 9 18 28 37 42 48 54 59 64 70 79 84 94 101 106 115 125 130 139 148 154 164 171 180 189 199 204 213 222 231 240 250 258 267 273 282 287 293 303 312"
             y="0"
             sodipodi:role="line"
             id="tspan168">have little or no enforced encapsulation.</tspan></text>
        <text
           xml:space="preserve"
           transform="translate(2088,511)"
           style="font-variant:normal;font-weight:normal;font-size:20px;font-family:'Times New Roman';-inkscape-font-specification:TimesNewRomanPSMT;writing-mode:lr-tb;fill:#000000;fill-opacity:1;fill-rule:nonzero;stroke:none"
           id="text174"><tspan
             x="0 14 28 33 42 51 58 63 72 78 87 93 102 107 117 127 136 144 149 159 168 178 187 196 206 211 221 230 235 240 249 258 263 269 279 288 297 302 307 316 325 330 335 345 352 362 371 378 387 401 415 424 431 439 444 453 460 469 474 489 498 504 510 517 527 536 545 554 564 573 583 588 597 606 616 625 634 643 648 653 663 668 677 687"
             y="0"
             sodipodi:role="line"
             id="tspan172">OO certainly does depend on the idea that programmers are well-behaved enough to not</tspan></text>
        <text
           xml:space="preserve"
           transform="translate(2088,534)"
           style="font-variant:normal;font-weight:normal;font-size:20px;font-family:'Times New Roman';-inkscape-font-specification:TimesNewRomanPSMT;writing-mode:lr-tb;fill:#000000;fill-opacity:1;fill-rule:nonzero;stroke:none"
           id="text178"><tspan
             x="0 9 15 22 31 40 54 64 73 82 87 92 101 110 119 128 138 146 155 161 170 175 184 194 199 209 218 223 232 237 242 254 264 273 282 287 295 305 310 315 320 329 338 343 349 358 367 376 385 394 403 412 420 425 430 439 448 453 458 467 473 482 488 502 507 512 522 527 537 544 554 564 570 580 589 594 608 622 627 636 645 655"
             y="0"
             sodipodi:role="line"
             id="tspan176">circumvent encapsulated data. Even so, the languages that claim to provide OO have</tspan></text>
        <text
           xml:space="preserve"
           transform="translate(2088,557)"
           style="font-variant:normal;font-weight:normal;font-size:20px;font-family:'Times New Roman';-inkscape-font-specification:TimesNewRomanPSMT;writing-mode:lr-tb;fill:#000000;fill-opacity:1;fill-rule:nonzero;stroke:none"
           id="text182"><tspan
             x="0 10 19 25 34 39 54 63 72 81 90 99 108 118 123 128 137 146 151 161 170 179 188 193 203 212 219 225 234 243 248 253 262 271 280 289 299 307 316 322 331 336 342 352 361 366 381 390 395 404 413 419 429 438 447 457 462 477 483 488 497 502 515"
             y="0"
             sodipodi:role="line"
             id="tspan180">only weakened the once perfect encapsulation we enjoyed with C.</tspan></text>
        <text
           xml:space="preserve"
           transform="translate(2088,627)"
           style="font-variant:normal;font-weight:bold;font-size:33px;font-family:'Times New Roman';-inkscape-font-specification:TimesNewRomanPS-BoldMT;writing-mode:lr-tb;fill:#000000;fill-opacity:1;fill-rule:nonzero;stroke:none"
           id="text186"><tspan
             x="0"
             y="0"
             id="tspan184">I</tspan></text>
        <text
           xml:space="preserve"
           transform="translate(2101,627)"
           style="font-variant:normal;font-weight:bold;font-size:33px;font-family:'Times New Roman';-inkscape-font-specification:TimesNewRomanPS-BoldMT;writing-mode:lr-tb;fill:#000000;fill-opacity:1;fill-rule:nonzero;stroke:none"
           id="text190"><tspan
             x="0 24 50 72 96 109 128 151 175 199"
             y="0"
             sodipodi:role="line"
             id="tspan188">NHERITANCE</tspan></text>
        <text
           xml:space="preserve"
           transform="translate(2322,627)"
           style="font-variant:normal;font-weight:bold;font-size:33px;font-family:'Times New Roman';-inkscape-font-specification:TimesNewRomanPS-BoldMT;writing-mode:lr-tb;fill:#000000;fill-opacity:1;fill-rule:nonzero;stroke:none"
           id="text194"><tspan
             x="0"
             y="0"
             id="tspan192">?</tspan></text>
        <text
           xml:space="preserve"
           transform="translate(2088,672)"
           style="font-variant:normal;font-weight:normal;font-size:20px;font-family:'Times New Roman';-inkscape-font-specification:TimesNewRomanPSMT;writing-mode:lr-tb;fill:#000000;fill-opacity:1;fill-rule:nonzero;stroke:none"
           id="text198"><tspan
             x="0 6 12 17 31 45 50 56 65 74 83 92 101 110 119 127 132 142 148 158 163 172 182 187 192 201 207 217 226 231 240 248 253 263 272 277 282 291 298 303 312 321 330 339 349 357 366 372 381 386 392 402 411 416 421 426 435 444 453 458 463 472 481 490 495 504 513 520 525 534 540 549 555 564 569 578 587 597 606 611 620"
             y="0"
             sodipodi:role="line"
             id="tspan196">If OO languages did not give us better encapsulation, then they certainly gave us</tspan></text>
        <text
           xml:space="preserve"
           transform="translate(2088,695)"
           style="font-variant:normal;font-weight:normal;font-size:20px;font-family:'Times New Roman';-inkscape-font-specification:TimesNewRomanPSMT;writing-mode:lr-tb;fill:#000000;fill-opacity:1;fill-rule:nonzero;stroke:none"
           id="text202"><tspan
             x="0 6 15 24 33 40 46 51 60 69 78 87"
             y="0"
             sodipodi:role="line"
             id="tspan200">inheritance.</tspan></text>
        <text
           xml:space="preserve"
           transform="translate(2088,738)"
           style="font-variant:normal;font-weight:normal;font-size:20px;font-family:'Times New Roman';-inkscape-font-specification:TimesNewRomanPSMT;writing-mode:lr-tb;fill:#000000;fill-opacity:1;fill-rule:nonzero;stroke:none"
           id="text206"><tspan
             x="0 16 25 31 37 57 65 75 82 87 92 102 108 113 118 124 133 142 151 158 164 169 178 187 196 205 210 216 224 229 237 243 257 267 273 282 287 292 301 310 315 322 331 341 350 359 365 374 381 390 395 401 411 420 425 435 441 446 455 460 469 476 486 495 505 510 520 526 531 541 550 557 563 572 582 588 597 605 610 619 628"
             y="0"
             sodipodi:role="line"
             id="tspan204">Well—sort of. Inheritance is simply the redeclaration of a group of variables and</tspan></text>
        <text
           xml:space="preserve"
           transform="translate(2088,764)"
           style="font-variant:normal;font-weight:normal;font-size:20px;font-family:'Times New Roman';-inkscape-font-specification:TimesNewRomanPSMT;writing-mode:lr-tb;fill:#000000;fill-opacity:1;fill-rule:nonzero;stroke:none"
           id="text210"><tspan
             x="0 6 15 24 33 38 44 54 63 71 76 91 97 102 111 117 126 131 140 149 154 163 172 181 187 197 205 211 220 229 234 242 251 261 271 280 285 290 302 311 317 325 330 336 344 349 357 367 381 390 395 404 410 419 428 433 446 451 461 468 478 487 494 503 517 531 540 547"
             y="0"
             sodipodi:role="line"
             id="tspan208">functions within an enclosing scope. This is something C programmers</tspan></text>
        <text
           xml:space="preserve"
           transform="translate(2643,757)"
           style="font-variant:normal;font-weight:normal;font-size:15px;font-family:'Times New Roman';-inkscape-font-specification:TimesNewRomanPSMT;writing-mode:lr-tb;fill:#0000ee;fill-opacity:1;fill-rule:nonzero;stroke:none"
           id="text214"><tspan
             x="0"
             y="0"
             id="tspan212">3</tspan></text>
        <path
           d="m 2643,758.5 h 6 z"
           style="fill:none;stroke:#0000ee;stroke-width:1;stroke-linecap:square;stroke-linejoin:miter;stroke-miterlimit:10;stroke-dasharray:none;stroke-opacity:1"
           id="path216" />
        <text
           xml:space="preserve"
           transform="translate(2655,764)"
           style="font-variant:normal;font-weight:normal;font-size:20px;font-family:'Times New Roman';-inkscape-font-specification:TimesNewRomanPSMT;writing-mode:lr-tb;fill:#000000;fill-opacity:1;fill-rule:nonzero;stroke:none"
           id="text220"><tspan
             x="0 15 24 31 40 45 54 64 70 79 84 89 99 104 114"
             y="0"
             sodipodi:role="line"
             id="tspan218">were able to do</tspan></text>
        <text
           xml:space="preserve"
           transform="translate(2088,787)"
           style="font-variant:normal;font-weight:normal;font-size:20px;font-family:'Times New Roman';-inkscape-font-specification:TimesNewRomanPSMT;writing-mode:lr-tb;fill:#000000;fill-opacity:1;fill-rule:nonzero;stroke:none"
           id="text224"><tspan
             x="0 14 23 32 41 50 56 62 71 76 82 92 101 110 115 125 134 140 150 157 166 171 176 185 194 201 210 215 230 239 247 252 261 270 275 289 303 308 314 323 332 341 350 359 368 377"
             y="0"
             sodipodi:role="line"
             id="tspan222">manually long before there was an OO language.</tspan></text>
        <text
           xml:space="preserve"
           transform="translate(2088,830)"
           style="font-variant:normal;font-weight:normal;font-size:20px;font-family:'Times New Roman';-inkscape-font-specification:TimesNewRomanPSMT;writing-mode:lr-tb;fill:#000000;fill-opacity:1;fill-rule:nonzero;stroke:none"
           id="text228"><tspan
             x="0 13 23 32 40 46 56 65 72 77 82 91 97 105 110 119 129 139 145 150 156 166 175 180 185 195 200 210 219 226 231 241 248 254 263 269 278 287 293"
             y="0"
             sodipodi:role="line"
             id="tspan226">Consider this addition to our original </tspan></text>
        <text
           xml:space="preserve"
           transform="translate(2386,830)"
           style="font-variant:normal;font-weight:normal;font-size:16px;font-family:'Courier New';-inkscape-font-specification:CourierNewPSMT;writing-mode:lr-tb;fill:#000000;fill-opacity:1;fill-rule:nonzero;stroke:none"
           id="text232"><tspan
             x="0 10 20 30 40 50 60"
             y="0"
             sodipodi:role="line"
             id="tspan230">point.h</tspan></text>
        <text
           xml:space="preserve"
           transform="translate(2461,830)"
           style="font-variant:normal;font-weight:normal;font-size:16px;font-family:'Courier New';-inkscape-font-specification:CourierNewPSMT;writing-mode:lr-tb;fill:#000000;fill-opacity:1;fill-rule:nonzero;stroke:none"
           id="text236"><tspan
             x="0"
             y="0"
             id="tspan234">C</tspan></text>
        <text
           xml:space="preserve"
           transform="translate(2476,830)"
           style="font-variant:normal;font-weight:normal;font-size:20px;font-family:'Times New Roman';-inkscape-font-specification:TimesNewRomanPSMT;writing-mode:lr-tb;fill:#000000;fill-opacity:1;fill-rule:nonzero;stroke:none"
           id="text240"><tspan
             x="0 10 17 27 36 43 52 66"
             y="0"
             sodipodi:role="line"
             id="tspan238">program:</tspan></text>
        <text
           xml:space="preserve"
           transform="translate(2088,870)"
           style="font-variant:normal;font-weight:bold;font-size:15px;font-family:'Times New Roman';-inkscape-font-specification:TimesNewRomanPS-BoldMT;writing-mode:lr-tb;fill:#0000ee;fill-opacity:1;fill-rule:nonzero;stroke:none"
           id="text244"><tspan
             x="0 11 15 19 26 35 39 47 55 61 69 73 78 86 90 98 102 110 120 124 131 139 147 155 159 163 175 182 190"
             y="0"
             sodipodi:role="line"
             id="tspan242">Click here to view code image</tspan></text>
        <path
           d="m 2088,871.5 h 197 z"
           style="fill:none;stroke:#0000ee;stroke-width:1;stroke-linecap:square;stroke-linejoin:miter;stroke-miterlimit:10;stroke-dasharray:none;stroke-opacity:1"
           id="path246" />
        <text
           xml:space="preserve"
           transform="translate(2089,910)"
           style="font-variant:normal;font-weight:normal;font-size:15px;font-family:'Courier New';-inkscape-font-specification:CourierNewPSMT;writing-mode:lr-tb;fill:#000000;fill-opacity:1;fill-rule:nonzero;stroke:none"
           id="text250"><tspan
             x="0 9 18 27 36 45 54 63 72 81 90 99"
             y="0"
             sodipodi:role="line"
             id="tspan248">namedPoint.h</tspan></text>
        <text
           xml:space="preserve"
           transform="translate(2089,943.5)"
           style="font-variant:normal;font-weight:normal;font-size:15px;font-family:'Courier New';-inkscape-font-specification:CourierNewPSMT;writing-mode:lr-tb;fill:#000000;fill-opacity:1;fill-rule:nonzero;stroke:none"
           id="text254"><tspan
             x="0 9 18 27 36 45 54 63 72 81 90 99 108 117 126 135 144 153"
             y="0"
             sodipodi:role="line"
             id="tspan252">struct NamedPoint;</tspan></text>
        <text
           xml:space="preserve"
           transform="translate(2089,977.5)"
           style="font-variant:normal;font-weight:normal;font-size:15px;font-family:'Courier New';-inkscape-font-specification:CourierNewPSMT;writing-mode:lr-tb;fill:#000000;fill-opacity:1;fill-rule:nonzero;stroke:none"
           id="text258"><tspan
             x="0 9 18 27 36 45 54 63 72 81 90 99 108 117 126 135 144 153 162 171 180 189 198 207 216 225 234 243 252 261 270 279 288 297 306 315 324 333 342 351 360 369 378 387 396 405 414 423 432 441 450 459 468 477 486 495 504 513 522 531 540 549 558 567 576 585"
             y="0"
             sodipodi:role="line"
             id="tspan256">struct NamedPoint* makeNamedPoint(double x, double y, char* name);</tspan></text>
      </g>
    </g>
  </g>
</svg>
