<?xml version="1.0" encoding="UTF-8" standalone="no"?>
<!-- Created with Inkscape (http://www.inkscape.org/) -->

<svg
   version="1.1"
   id="svg2"
   width="816"
   height="1056"
   viewBox="0 0 816 1056"
   sodipodi:docname="clean_arch.pdf"
   xmlns:inkscape="http://www.inkscape.org/namespaces/inkscape"
   xmlns:sodipodi="http://sodipodi.sourceforge.net/DTD/sodipodi-0.dtd"
   xmlns="http://www.w3.org/2000/svg"
   xmlns:svg="http://www.w3.org/2000/svg">
  <defs
     id="defs6">
    <clipPath
       clipPathUnits="userSpaceOnUse"
       id="clipPath18">
      <path
         d="m 696,0 h 696 V 1056 H 696 V 0"
         clip-rule="evenodd"
         id="path16" />
    </clipPath>
    <clipPath
       clipPathUnits="userSpaceOnUse"
       id="clipPath28">
      <path
         d="m 696,66 h 696 V 996 H 696 V 66"
         clip-rule="evenodd"
         id="path26" />
    </clipPath>
  </defs>
  <sodipodi:namedview
     id="namedview4"
     pagecolor="#ffffff"
     bordercolor="#000000"
     borderopacity="0.25"
     inkscape:showpageshadow="2"
     inkscape:pageopacity="0.0"
     inkscape:pagecheckerboard="0"
     inkscape:deskcolor="#d1d1d1" />
  <g
     id="g8"
     inkscape:groupmode="layer"
     inkscape:label="clean_arch"
     transform="translate(59.999999,2.64e-5)">
    <g
       id="g10" />
    <g
       id="g12"
       transform="translate(-696)">
      <g
         id="g14"
         clip-path="url(#clipPath18)">
        <g
           id="g20" />
      </g>
    </g>
    <g
       id="g22"
       transform="translate(-696)">
      <g
         id="g24"
         clip-path="url(#clipPath28)">
        <text
           xml:space="preserve"
           transform="translate(696,97)"
           style="font-variant:normal;font-weight:bold;font-size:33px;font-family:'Times New Roman';-inkscape-font-specification:TimesNewRomanPS-BoldMT;writing-mode:lr-tb;fill:#000000;fill-opacity:1;fill-rule:nonzero;stroke:none"
           id="text32"><tspan
             x="0"
             y="0"
             id="tspan30">T</tspan></text>
        <text
           xml:space="preserve"
           transform="translate(718,97)"
           style="font-variant:normal;font-weight:bold;font-size:33px;font-family:'Times New Roman';-inkscape-font-specification:TimesNewRomanPS-BoldMT;writing-mode:lr-tb;fill:#000000;fill-opacity:1;fill-rule:nonzero;stroke:none"
           id="text36"><tspan
             x="0 26"
             y="0"
             sodipodi:role="line"
             id="tspan34">HE</tspan></text>
        <text
           xml:space="preserve"
           transform="translate(774,97)"
           style="font-variant:normal;font-weight:bold;font-size:33px;font-family:'Times New Roman';-inkscape-font-specification:TimesNewRomanPS-BoldMT;writing-mode:lr-tb;fill:#000000;fill-opacity:1;fill-rule:nonzero;stroke:none"
           id="text40"><tspan
             x="0"
             y="0"
             id="tspan38">D</tspan></text>
        <text
           xml:space="preserve"
           transform="translate(798,97)"
           style="font-variant:normal;font-weight:bold;font-size:33px;font-family:'Times New Roman';-inkscape-font-specification:TimesNewRomanPS-BoldMT;writing-mode:lr-tb;fill:#000000;fill-opacity:1;fill-rule:nonzero;stroke:none"
           id="text44"><tspan
             x="0 24 46 69 93 115"
             y="0"
             sodipodi:role="line"
             id="tspan42">READED</tspan></text>
        <text
           xml:space="preserve"
           transform="translate(945,97)"
           style="font-variant:normal;font-weight:bold;font-size:33px;font-family:'Times New Roman';-inkscape-font-specification:TimesNewRomanPS-BoldMT;writing-mode:lr-tb;fill:#000000;fill-opacity:1;fill-rule:nonzero;stroke:none"
           id="text48"><tspan
             x="0"
             y="0"
             id="tspan46">M</tspan></text>
        <text
           xml:space="preserve"
           transform="translate(977,97)"
           style="font-variant:normal;font-weight:bold;font-size:33px;font-family:'Times New Roman';-inkscape-font-specification:TimesNewRomanPS-BoldMT;writing-mode:lr-tb;fill:#000000;fill-opacity:1;fill-rule:nonzero;stroke:none"
           id="text52"><tspan
             x="0 26 50 76 98 111 133"
             y="0"
             sodipodi:role="line"
             id="tspan50">ONOLITH</tspan></text>
        <text
           xml:space="preserve"
           transform="translate(696,142)"
           style="font-variant:normal;font-weight:normal;font-size:20px;font-family:'Times New Roman';-inkscape-font-specification:TimesNewRomanPSMT;writing-mode:lr-tb;fill:#000000;fill-opacity:1;fill-rule:nonzero;stroke:none"
           id="text56"><tspan
             x="0 12 21 30 35 43 49 63 73 79 88 96 101 106 115 124 134 139 153 163 171 176 181 190 200 214 228 238 247 252 262 268 273 278 287 296 301 310 317 326 335 341 346 355 364 369 378 385 394 400 405 415 425 434 443 453 462 469 475 484 492 497 506 515 523 528 537 547 552 560 565 572 578 587 592 597 607 616 625 633 639 648 657"
             y="0"
             sodipodi:role="line"
             id="tspan54">The simplest and most common of the architectural boundaries has no strict physical</tspan></text>
        <text
           xml:space="preserve"
           transform="translate(696,165)"
           style="font-variant:normal;font-weight:normal;font-size:20px;font-family:'Times New Roman';-inkscape-font-specification:TimesNewRomanPSMT;writing-mode:lr-tb;fill:#000000;fill-opacity:1;fill-rule:nonzero;stroke:none"
           id="text60"><tspan
             x="0 7 16 26 33 42 50 59 68 73 82 87 93 103 112 117 122 128 133 138 144 152 157 165 171 185 195 201 210 215 224 229 239 245 253 262 268 278 284 290 299 308 318 323 331 340 349 356 365 374 383 388 394 404 413 418 428 434 439 445 454 463 472 477 483 493 502 510 515 524 533 543 548 558 567 572 581 586 601 607 612 621 627 636 641"
             y="0"
             sodipodi:role="line"
             id="tspan58">representation. It is simply a disciplined segregation of functions and data within a</tspan></text>
        <text
           xml:space="preserve"
           transform="translate(696,188)"
           style="font-variant:normal;font-weight:normal;font-size:20px;font-family:'Times New Roman';-inkscape-font-specification:TimesNewRomanPSMT;writing-mode:lr-tb;fill:#000000;fill-opacity:1;fill-rule:nonzero;stroke:none"
           id="text64"><tspan
             x="0 8 14 23 32 38 47 52 62 69 79 88 97 105 113 123 130 135 144 153 163 168 177 182 190 196 205 214 220 229 234 243 253 263 270 279 287 295 300 308 318 327 336 345 350 355 361 370 375 384 389 399 406 415 425 431 441 450 458 463 472 481 490 500 505 514 520 525 530 536 541 550 559 565 571 580 590 595 600 609 615 623 628 633 642"
             y="0"
             sodipodi:role="line"
             id="tspan62">single processor and a single address space. In a previous chapter, I called this the</tspan></text>
        <text
           xml:space="preserve"
           transform="translate(696,211)"
           style="font-variant:normal;font-weight:normal;font-size:20px;font-family:'Times New Roman';-inkscape-font-specification:TimesNewRomanPSMT;writing-mode:lr-tb;fill:#000000;fill-opacity:1;fill-rule:nonzero;stroke:none"
           id="text68"><tspan
             x="0 8 18 27 34 43 52 59 65 74 84 93 99 104 114 123 132 142 151 161 167 173 182 191 196 210 220 230 239"
             y="0"
             sodipodi:role="line"
             id="tspan66">source-level decoupling mode.</tspan></text>
        <text
           xml:space="preserve"
           transform="translate(696,254)"
           style="font-variant:normal;font-weight:normal;font-size:20px;font-family:'Times New Roman';-inkscape-font-specification:TimesNewRomanPSMT;writing-mode:lr-tb;fill:#000000;fill-opacity:1;fill-rule:nonzero;stroke:none"
           id="text72"><tspan
             x="0 11 18 28 42 47 56 61 71 80 90 96 106 115 129 138 147 152 157 167 177 183 192 197 202 212 218 223 233 239 248 262 267 272 277 286 292 300 305 314 328 338 347 356 361 369 374 379 389 394 403 413 418 427 433 442 451 456 470 480 487 496 501 506 515 524 533 538 547 552 560 566 575 584 590 599 604 613 622 631 640 649 654 663 673 679"
             y="0"
             sodipodi:role="line"
             id="tspan70">From a deployment point of view, this amounts to nothing more than a single executable</tspan></text>
        <text
           xml:space="preserve"
           transform="translate(696,277)"
           style="font-variant:normal;font-weight:normal;font-size:20px;font-family:'Times New Roman';-inkscape-font-specification:TimesNewRomanPSMT;writing-mode:lr-tb;fill:#000000;fill-opacity:1;fill-rule:nonzero;stroke:none"
           id="text76"><tspan
             x="0 6 12 18 27 47 52 61 70 75 83 93 100 109 118 124 130 139 149 154 168 178 187 197 203 209 214 223 228 233 245 254 260 268 273 279 285 291 300 305 319 325 334 343 348 353 363 372 377 386 391 399 404 413 418 424 433 442 448 454 463 468 474 480 489 498 507 517 522 535 540 550 557 562 575 586 597 602 612 619 629 635 644 653 658 663 668"
             y="0"
             sodipodi:role="line"
             id="tspan74">file—the so-called monolith. This file might be a statically linked C or C++ project, a</tspan></text>
        <text
           xml:space="preserve"
           transform="translate(696,300)"
           style="font-variant:normal;font-weight:normal;font-size:20px;font-family:'Times New Roman';-inkscape-font-specification:TimesNewRomanPSMT;writing-mode:lr-tb;fill:#000000;fill-opacity:1;fill-rule:nonzero;stroke:none"
           id="text80"><tspan
             x="0 8 17 22 27 37 43 48 56 65 75 84 89 98 104 113 121 129 134 140 146 152 161 169 174 184 194 203 212 222 227 232 242 251 260 265 274 283 290 295 301 310 315 325 330 339 348 353 362 371 380 389 398 403 412 422 428 437 442 448 457 464 469 475 481 487 496 501 506 515 520 528 537 542 547 557 563 568 573 587 599 611 616 626 632 641 650 657 663 672"
             y="0"
             sodipodi:role="line"
             id="tspan78">set of Java class files bound together into an executable jar file, a set of .NET binaries</tspan></text>
        <text
           xml:space="preserve"
           transform="translate(696,323)"
           style="font-variant:normal;font-weight:normal;font-size:20px;font-family:'Times New Roman';-inkscape-font-specification:TimesNewRomanPSMT;writing-mode:lr-tb;fill:#000000;fill-opacity:1;fill-rule:nonzero;stroke:none"
           id="text84"><tspan
             x="0 10 20 29 38 48 53 59 68 73 83 88 97 102 110 116 125 134 140 149"
             y="0"
             sodipodi:role="line"
             id="tspan82">bound into a single </tspan></text>
        <text
           xml:space="preserve"
           transform="translate(850,323)"
           style="font-variant:normal;font-weight:normal;font-size:16px;font-family:'Courier New';-inkscape-font-specification:CourierNewPSMT;writing-mode:lr-tb;fill:#000000;fill-opacity:1;fill-rule:nonzero;stroke:none"
           id="text88"><tspan
             x="0 10 20 30"
             y="0"
             sodipodi:role="line"
             id="tspan86">.EXE</tspan></text>
        <text
           xml:space="preserve"
           transform="translate(895,323)"
           style="font-variant:normal;font-weight:normal;font-size:20px;font-family:'Times New Roman';-inkscape-font-specification:TimesNewRomanPSMT;writing-mode:lr-tb;fill:#000000;fill-opacity:1;fill-rule:nonzero;stroke:none"
           id="text92"><tspan
             x="0 6 12 18 27 32 37 46 55 65 70 78 88 93 103 112"
             y="0"
             sodipodi:role="line"
             id="tspan90">file, and so on.</tspan></text>
        <text
           xml:space="preserve"
           transform="translate(696,366)"
           style="font-variant:normal;font-weight:normal;font-size:20px;font-family:'Times New Roman';-inkscape-font-specification:TimesNewRomanPSMT;writing-mode:lr-tb;fill:#000000;fill-opacity:1;fill-rule:nonzero;stroke:none"
           id="text96"><tspan
             x="0 12 21 30 35 41 50 59 64 69 74 83 92 97 102 107 116 125 130 140 150 159 168 178 187 194 200 209 217 222 231 238 247 252 261 271 276 281 291 297 305 311 321 327 336 341 351 360 367 373 382 391 396 401 410 419 424 434 443 453 459 469 478 492 501 510 515 520 530 536 541 550 555 569 579 588 598 604 610 615 624 629 639 649 658 666 671 680 690"
             y="0"
             sodipodi:role="line"
             id="tspan94">The fact that the boundaries are not visible during the deployment of a monolith does not</tspan></text>
        <text
           xml:space="preserve"
           transform="translate(696,389)"
           style="font-variant:normal;font-weight:normal;font-size:20px;font-family:'Times New Roman';-inkscape-font-specification:TimesNewRomanPSMT;writing-mode:lr-tb;fill:#000000;fill-opacity:1;fill-rule:nonzero;stroke:none"
           id="text100"><tspan
             x="0 14 23 32 41 46 51 60 69 74 79 84 93 102 111 116 125 132 141 146 155 165 170 175 185 192 201 209 218 227 232 237 246 255 265 270 284 293 302 311 317 326 335 341 350 356 361 366 378 388 397 406 411 426 435 444 453 458 466 471 480 485 491 500 509 515 521 530 535 541 547 556 565 574 584 589 595 604 609 619 624 633 638 646 652 661 670 676"
             y="0"
             sodipodi:role="line"
             id="tspan98">mean that they are not present and meaningful. Even when statically linked into a single</tspan></text>
        <text
           xml:space="preserve"
           transform="translate(696,412)"
           style="font-variant:normal;font-weight:normal;font-size:20px;font-family:'Times New Roman';-inkscape-font-specification:TimesNewRomanPSMT;writing-mode:lr-tb;fill:#000000;fill-opacity:1;fill-rule:nonzero;stroke:none"
           id="text104"><tspan
             x="0 9 18 27 36 45 50 59 69 75 84 89 94 99 108 117 122 131 141 147 153 159 164 173 178 183 193 198 204 213 223 232 242 251 260 270 279 288 293 299 308 313 323 332 342 351 357 367 377 382 391 400 410 415 429 438 445 453 462 471 477 482 487 496 505 510 520 529 536 542 552 561 569 574 583 593 607 617 627 636 645 654 659 667 672 678 688"
             y="0"
             sodipodi:role="line"
             id="tspan102">executable, the ability to independently develop and marshal the various components for</tspan></text>
        <text
           xml:space="preserve"
           transform="translate(696,435)"
           style="font-variant:normal;font-weight:normal;font-size:20px;font-family:'Times New Roman';-inkscape-font-specification:TimesNewRomanPSMT;writing-mode:lr-tb;fill:#000000;fill-opacity:1;fill-rule:nonzero;stroke:none"
           id="text108"><tspan
             x="0 6 12 21 30 36 41 50 58 66 75 89 99 105 114 119 125 133 138 144 158 172 181 190 198 207 213 222 227 237 246 252 261 270 280 286 295"
             y="0"
             sodipodi:role="line"
             id="tspan106">final assembly is immensely valuable.</tspan></text>
        <text
           xml:space="preserve"
           transform="translate(696,481)"
           style="font-variant:normal;font-weight:normal;font-size:20px;font-family:'Times New Roman';-inkscape-font-specification:TimesNewRomanPSMT;writing-mode:lr-tb;fill:#000000;fill-opacity:1;fill-rule:nonzero;stroke:none"
           id="text112"><tspan
             x="0 11 20 29 38 43 52 59 68 77 83 88 97 106 111 120 127 136 144 149 158 164 178 188 196 201 206 215 221 236 245 254 262 267 277 286 296 305 314 324 329 339 348 353 361 371 385 394 399 408 414 423 433 438 448 454 459 469 478 487 496 510 516 525 530 540 550 556 565 579 589 596 606 615 621 629"
             y="0"
             sodipodi:role="line"
             id="tspan110">Such architectures almost always depend on some kind of dynamic polymorphism</tspan></text>
        <text
           xml:space="preserve"
           transform="translate(1339,474)"
           style="font-variant:normal;font-weight:normal;font-size:15px;font-family:'Times New Roman';-inkscape-font-specification:TimesNewRomanPSMT;writing-mode:lr-tb;fill:#0000ee;fill-opacity:1;fill-rule:nonzero;stroke:none"
           id="text116"><tspan
             x="0"
             y="0"
             id="tspan114">1</tspan></text>
        <path
           d="m 1339,475.5 h 6 z"
           style="fill:none;stroke:#0000ee;stroke-width:1;stroke-linecap:square;stroke-linejoin:miter;stroke-miterlimit:10;stroke-dasharray:none;stroke-opacity:1"
           id="path118" />
        <text
           xml:space="preserve"
           transform="translate(1351,481)"
           style="font-variant:normal;font-weight:normal;font-size:20px;font-family:'Times New Roman';-inkscape-font-specification:TimesNewRomanPSMT;writing-mode:lr-tb;fill:#000000;fill-opacity:1;fill-rule:nonzero;stroke:none"
           id="text122"><tspan
             x="0 5"
             y="0"
             sodipodi:role="line"
             id="tspan120">to</tspan></text>
        <text
           xml:space="preserve"
           transform="translate(696,504)"
           style="font-variant:normal;font-weight:normal;font-size:20px;font-family:'Times New Roman';-inkscape-font-specification:TimesNewRomanPSMT;writing-mode:lr-tb;fill:#000000;fill-opacity:1;fill-rule:nonzero;stroke:none"
           id="text126"><tspan
             x="0 14 23 32 41 50 59 64 69 78 87 93 100 105 111 120 125 134 141 150 159 165 170 180 189 199 208 217 227 236 245 254 260 269 277 282 287 299 308 314 322 327 333 341 346 356 365 374 379 389 395 400 405 414 423 428 435 444 453 461 471 480 488 493 498 507 516 521 526 536 546 552 561 570 575 582 592 599 605 614 623 628 637"
             y="0"
             sodipodi:role="line"
             id="tspan124">manage their internal dependencies. This is one of the reasons that object-oriented</tspan></text>
        <text
           xml:space="preserve"
           transform="translate(696,527)"
           style="font-variant:normal;font-weight:normal;font-size:20px;font-family:'Times New Roman';-inkscape-font-specification:TimesNewRomanPSMT;writing-mode:lr-tb;fill:#000000;fill-opacity:1;fill-rule:nonzero;stroke:none"
           id="text130"><tspan
             x="0 10 19 29 38 44 54 64 78 87 96 101 106 115 124 132 137 147 156 165 175 189 198 203 211 220 229 238 243 252 261 266 272 286 296 306 313 318 327 336 341 346 356 365 372 381 391 397 406 420 425 431 440 445 452 461 470 479 488 493 498 508 517 526 535 545 554 562 567 572 589 595 600 609 619 628 633 638 652 666 671 676 686"
             y="0"
             sodipodi:role="line"
             id="tspan128">development has become such an important paradigm in recent decades. Without OO, or</tspan></text>
        <text
           xml:space="preserve"
           transform="translate(696,550)"
           style="font-variant:normal;font-weight:normal;font-size:20px;font-family:'Times New Roman';-inkscape-font-specification:TimesNewRomanPSMT;writing-mode:lr-tb;fill:#000000;fill-opacity:1;fill-rule:nonzero;stroke:none"
           id="text134"><tspan
             x="0 9 18 23 32 42 51 57 67 76 82 91 100 105 110 116 126 133 147 152 162 168 173 183 193 199 208 222 232 239 249 258 264 272 286 291 296 305 312 321 330 336 341 350 359 364 372 377 391 400 408 413 418 424 433 439 445 450 460 469 478 487 492 502 511 516 521 530 539 544 554 563 572 581 590 597 607 616 624 629 639 646 655 664 669 675 684"
             y="0"
             sodipodi:role="line"
             id="tspan132">an equivalent form of polymorphism, architects must fall back on the dangerous practice</tspan></text>
        <text
           xml:space="preserve"
           transform="translate(696,573)"
           style="font-variant:normal;font-weight:normal;font-size:20px;font-family:'Times New Roman';-inkscape-font-specification:TimesNewRomanPSMT;writing-mode:lr-tb;fill:#000000;fill-opacity:1;fill-rule:nonzero;stroke:none"
           id="text138"><tspan
             x="0 10 16 21 30 38 44 53 62 67 77 87 93 102 107 116 123 131 136 141 151 156 162 171 180 189 194 200 210 219 227 232 237 247 252 261 270 279 285 294 304 313 318 323 332 341 346 355 365 375 382 392 402 409 415 424 429 438 443 453 462 471 481 490 500 506 512 521 530 535 540 557 567 575 580 585 594 601 610 619 625 630 639 648 653"
             y="0"
             sodipodi:role="line"
             id="tspan136">of using pointers to functions to achieve the appropriate decoupling. Most architects</tspan></text>
        <text
           xml:space="preserve"
           transform="translate(696,596)"
           style="font-variant:normal;font-weight:normal;font-size:20px;font-family:'Times New Roman';-inkscape-font-specification:TimesNewRomanPSMT;writing-mode:lr-tb;fill:#000000;fill-opacity:1;fill-rule:nonzero;stroke:none"
           id="text142"><tspan
             x="0 6 12 21 31 36 46 53 63 69 75 81 87 96 101 110 118 127 132 142 148 153 163 173 179 188 193 202 209 217 222 227 237 242 248 257 266 275 280 286 296 305 313 318 323 333 338 348 357 362 367 377 387 392 399 405 413 422 430 435 440 448 458 463 468 477 486 495 500 509 516 525 530 536 546 553 562 571 581 586 591 601 606 615 625 634 643 653 663"
             y="0"
             sodipodi:role="line"
             id="tspan140">find prolific use of pointers to functions to be too risky, so they are forced to abandon</tspan></text>
        <text
           xml:space="preserve"
           transform="translate(696,619)"
           style="font-variant:normal;font-weight:normal;font-size:20px;font-family:'Times New Roman';-inkscape-font-specification:TimesNewRomanPSMT;writing-mode:lr-tb;fill:#000000;fill-opacity:1;fill-rule:nonzero;stroke:none"
           id="text146"><tspan
             x="0 9 18 27 32 41 47 56 66 71 81 87 92 101 111 125 135 145 154 163 172 177 182 192 201 208 213 219 224 230 240 249 255 264 273"
             y="0"
             sodipodi:role="line"
             id="tspan144">any kind of component partitioning.</tspan></text>
        <text
           xml:space="preserve"
           transform="translate(696,662)"
           style="font-variant:normal;font-weight:normal;font-size:20px;font-family:'Times New Roman';-inkscape-font-specification:TimesNewRomanPSMT;writing-mode:lr-tb;fill:#000000;fill-opacity:1;fill-rule:nonzero;stroke:none"
           id="text150"><tspan
             x="0 12 21 30 35 43 49 63 73 79 88 96 101 106 116 126 134 142 148 158 164 173 178 188 198 207 216 226 235 242 251 256 265 272 282 290 298 304 313 322 327 333 341 346 355 360 366 375 384 393 398 404 414 423 428 437 446 452 458 463 469 476 486 500 505 514 519 525 535 550 557 563 572 582 591 597 602 611 617 623 632 641 646 651 656 666 671"
             y="0"
             sodipodi:role="line"
             id="tspan148">The simplest possible boundary crossing is a function call from a low-level client to a</tspan></text>
        <text
           xml:space="preserve"
           transform="translate(696,685)"
           style="font-variant:normal;font-weight:normal;font-size:20px;font-family:'Times New Roman';-inkscape-font-specification:TimesNewRomanPSMT;writing-mode:lr-tb;fill:#000000;fill-opacity:1;fill-rule:nonzero;stroke:none"
           id="text154"><tspan
             x="0 9 15 24 33 42 49 56 62 71 81 90 96 101 109 118 125 135 141 150 159 164 169 182 192 197 206 211 216 225 234 239 246 255 264 269 275 289 298 303 313 322 332 341 350 360 369 378 387 396 401 410 419 429 434 439 448 457 462 471 481 495 505 511 517 526 533 538 544 558 567 572 582 591 601 610 619 629 638 647 656"
             y="0"
             sodipodi:role="line"
             id="tspan152">higher-level service. Both the runtime dependency and the compile-time dependency</tspan></text>
        <text
           xml:space="preserve"
           transform="translate(696,708)"
           style="font-variant:normal;font-weight:normal;font-size:20px;font-family:'Times New Roman';-inkscape-font-specification:TimesNewRomanPSMT;writing-mode:lr-tb;fill:#000000;fill-opacity:1;fill-rule:nonzero;stroke:none"
           id="text158"><tspan
             x="0 10 20 26 35 40 45 51 60 65 70 79 88 93 101 110 124 133 138 148 154 161 170 179 184 190 200 209 214 219 224 234 249 258 265 275 280 285 294 303 308 317 323 332 341 350 357 364 370 379 389 398 404 409 418 428 442 452 462 471 480 489 494"
             y="0"
             sodipodi:role="line"
             id="tspan156">point in the same direction, toward the higher-level component.</tspan></text>
        <text
           xml:space="preserve"
           transform="translate(696,751)"
           style="font-variant:normal;font-weight:normal;font-size:20px;font-family:'Times New Roman';-inkscape-font-specification:TimesNewRomanPSMT;writing-mode:lr-tb;fill:#000000;fill-opacity:1;fill-rule:nonzero;stroke:none"
           id="text162"><tspan
             x="0 6 15"
             y="0"
             sodipodi:role="line"
             id="tspan160">In </tspan></text>
        <text
           xml:space="preserve"
           transform="translate(716,751)"
           style="font-variant:normal;font-weight:normal;font-size:20px;font-family:'Times New Roman';-inkscape-font-specification:TimesNewRomanPSMT;writing-mode:lr-tb;fill:#0000ee;fill-opacity:1;fill-rule:nonzero;stroke:none"
           id="text166"><tspan
             x="0 11 17 26 35 42 51 56 66 76 81"
             y="0"
             sodipodi:role="line"
             id="tspan164">Figure 18.1</tspan></text>
        <path
           d="m 716,752.5 h 90 z"
           style="fill:none;stroke:#0000ee;stroke-width:1;stroke-linecap:square;stroke-linejoin:miter;stroke-miterlimit:10;stroke-dasharray:none;stroke-opacity:1"
           id="path168" />
        <text
           xml:space="preserve"
           transform="translate(807,751)"
           style="font-variant:normal;font-weight:normal;font-size:20px;font-family:'Times New Roman';-inkscape-font-specification:TimesNewRomanPSMT;writing-mode:lr-tb;fill:#000000;fill-opacity:1;fill-rule:nonzero;stroke:none"
           id="text172"><tspan
             x="0 5 10 15 24 33 38 44 50 60 75 80 90 96 101 110 120 129 134 141 151 157 162 171 178 188 196 204 213 221 226 231 240 249 254 264 274 283 292 302 311 318 327 332 338 345 355 369 374 380 389 395 400 405 410 420 425 432 438 447 456 461 466 471 483 492 501"
             y="0"
             sodipodi:role="line"
             id="tspan170">, the flow of control crosses the boundary from left to right. The </tspan></text>
        <text
           xml:space="preserve"
           transform="translate(1313,751)"
           style="font-variant:normal;font-weight:normal;font-size:16px;font-family:'Courier New';-inkscape-font-specification:CourierNewPSMT;writing-mode:lr-tb;fill:#000000;fill-opacity:1;fill-rule:nonzero;stroke:none"
           id="text176"><tspan
             x="0 10 20 30 40 50"
             y="0"
             sodipodi:role="line"
             id="tspan174">Client</tspan></text>
        <text
           xml:space="preserve"
           transform="translate(696,774)"
           style="font-variant:normal;font-weight:normal;font-size:20px;font-family:'Times New Roman';-inkscape-font-specification:TimesNewRomanPSMT;writing-mode:lr-tb;fill:#000000;fill-opacity:1;fill-rule:nonzero;stroke:none"
           id="text180"><tspan
             x="0 9 18 24 30 38 43 49 58 67 76 81 87 97 106"
             y="0"
             sodipodi:role="line"
             id="tspan178">calls function </tspan></text>
        <text
           xml:space="preserve"
           transform="translate(807,774)"
           style="font-variant:normal;font-weight:normal;font-size:16px;font-family:'Courier New';-inkscape-font-specification:CourierNewPSMT;writing-mode:lr-tb;fill:#000000;fill-opacity:1;fill-rule:nonzero;stroke:none"
           id="text184"><tspan
             x="0 10 20"
             y="0"
             sodipodi:role="line"
             id="tspan182">f()</tspan></text>
        <text
           xml:space="preserve"
           transform="translate(842,774)"
           style="font-variant:normal;font-weight:normal;font-size:20px;font-family:'Times New Roman';-inkscape-font-specification:TimesNewRomanPSMT;writing-mode:lr-tb;fill:#000000;fill-opacity:1;fill-rule:nonzero;stroke:none"
           id="text188"><tspan
             x="0 10 19 24 29 38 47"
             y="0"
             sodipodi:role="line"
             id="tspan186">on the </tspan></text>
        <text
           xml:space="preserve"
           transform="translate(894,774)"
           style="font-variant:normal;font-weight:normal;font-size:16px;font-family:'Courier New';-inkscape-font-specification:CourierNewPSMT;writing-mode:lr-tb;fill:#000000;fill-opacity:1;fill-rule:nonzero;stroke:none"
           id="text192"><tspan
             x="0 10 20 30 40 50 60"
             y="0"
             sodipodi:role="line"
             id="tspan190">Service</tspan></text>
        <text
           xml:space="preserve"
           transform="translate(964,774)"
           style="font-variant:normal;font-weight:normal;font-size:20px;font-family:'Times New Roman';-inkscape-font-specification:TimesNewRomanPSMT;writing-mode:lr-tb;fill:#000000;fill-opacity:1;fill-rule:nonzero;stroke:none"
           id="text196"><tspan
             x="0 5 10 16 21 26 36 45 53 61 70 78 83 92 98 108 117 126 131 140 149 154 160 169 177 182 191 200 209 218 223 233 239"
             y="0"
             sodipodi:role="line"
             id="tspan194">. It passes along an instance of </tspan></text>
        <text
           xml:space="preserve"
           transform="translate(1208,774)"
           style="font-variant:normal;font-weight:normal;font-size:16px;font-family:'Courier New';-inkscape-font-specification:CourierNewPSMT;writing-mode:lr-tb;fill:#000000;fill-opacity:1;fill-rule:nonzero;stroke:none"
           id="text200"><tspan
             x="0 10 20 30"
             y="0"
             sodipodi:role="line"
             id="tspan198">Data</tspan></text>
        <text
           xml:space="preserve"
           transform="translate(1248,774)"
           style="font-variant:normal;font-weight:normal;font-size:20px;font-family:'Times New Roman';-inkscape-font-specification:TimesNewRomanPSMT;writing-mode:lr-tb;fill:#000000;fill-opacity:1;fill-rule:nonzero;stroke:none"
           id="text204"><tspan
             x="0 5 10 22 31 40"
             y="0"
             sodipodi:role="line"
             id="tspan202">. The </tspan></text>
        <text
           xml:space="preserve"
           transform="translate(1293,774)"
           style="font-variant:normal;font-weight:normal;font-size:16px;font-family:'Courier New';-inkscape-font-specification:CourierNewPSMT;writing-mode:lr-tb;fill:#000000;fill-opacity:1;fill-rule:nonzero;stroke:none"
           id="text208"><tspan
             x="0 10 20 30"
             y="0"
             sodipodi:role="line"
             id="tspan206">&lt;DS&gt;</tspan></text>
        <text
           xml:space="preserve"
           transform="translate(696,797)"
           style="font-variant:normal;font-weight:normal;font-size:20px;font-family:'Times New Roman';-inkscape-font-specification:TimesNewRomanPSMT;writing-mode:lr-tb;fill:#000000;fill-opacity:1;fill-rule:nonzero;stroke:none"
           id="text212"><tspan
             x="0 14 23 30 39 48 55 60 68 74 88 98 104 113 118 124 133 143 149 158 167 172 181 189 194 203 208 218 227 232 241 246 254 259 266 275 284 289 298 305 314 319 324 336 345 354"
             y="0"
             sodipodi:role="line"
             id="tspan210">marker simply indicates a data structure. The </tspan></text>
        <text
           xml:space="preserve"
           transform="translate(1055,797)"
           style="font-variant:normal;font-weight:normal;font-size:16px;font-family:'Courier New';-inkscape-font-specification:CourierNewPSMT;writing-mode:lr-tb;fill:#000000;fill-opacity:1;fill-rule:nonzero;stroke:none"
           id="text216"><tspan
             x="0 10 20 30"
             y="0"
             sodipodi:role="line"
             id="tspan214">Data</tspan></text>
        <text
           xml:space="preserve"
           transform="translate(1100,797)"
           style="font-variant:normal;font-weight:normal;font-size:20px;font-family:'Times New Roman';-inkscape-font-specification:TimesNewRomanPSMT;writing-mode:lr-tb;fill:#000000;fill-opacity:1;fill-rule:nonzero;stroke:none"
           id="text220"><tspan
             x="0 14 23 32 37 47 56 61 71 80 88 96 105 115 120 129 137 142 151 156 162 171 180 189 194 200 210"
             y="0"
             sodipodi:role="line"
             id="tspan218">may be passed as a function</tspan></text>
        <text
           xml:space="preserve"
           transform="translate(696,820)"
           style="font-variant:normal;font-weight:normal;font-size:20px;font-family:'Times New Roman';-inkscape-font-specification:TimesNewRomanPSMT;writing-mode:lr-tb;fill:#000000;fill-opacity:1;fill-rule:nonzero;stroke:none"
           id="text224"><tspan
             x="0 9 16 25 34 48 57 66 71 76 86 93 98 108 117 122 130 140 154 163 168 178 183 192 201 208 213 227 237 244 253 258 267 273 282 292 302 309 318 323 332 337 351 360 369 378 386 391 396 410 420 425 434 439 444 453 462 467 472 477 486 495 500 510 519 525 531 540 546 551 557 567 576 581 591 597 602 607 616 625"
             y="0"
             sodipodi:role="line"
             id="tspan222">argument or by some other more elaborate means. Note that the definition of the </tspan></text>
        <text
           xml:space="preserve"
           transform="translate(1326,820)"
           style="font-variant:normal;font-weight:normal;font-size:16px;font-family:'Courier New';-inkscape-font-specification:CourierNewPSMT;writing-mode:lr-tb;fill:#000000;fill-opacity:1;fill-rule:nonzero;stroke:none"
           id="text228"><tspan
             x="0 10 20 30"
             y="0"
             sodipodi:role="line"
             id="tspan226">Data</tspan></text>
        <text
           xml:space="preserve"
           transform="translate(1371,820)"
           style="font-variant:normal;font-weight:normal;font-size:20px;font-family:'Times New Roman';-inkscape-font-specification:TimesNewRomanPSMT;writing-mode:lr-tb;fill:#000000;fill-opacity:1;fill-rule:nonzero;stroke:none"
           id="text232"><tspan
             x="0 6"
             y="0"
             sodipodi:role="line"
             id="tspan230">is</tspan></text>
        <text
           xml:space="preserve"
           transform="translate(696,843)"
           style="font-variant:normal;font-weight:normal;font-size:20px;font-family:'Times New Roman';-inkscape-font-specification:TimesNewRomanPSMT;writing-mode:lr-tb;fill:#000000;fill-opacity:1;fill-rule:nonzero;stroke:none"
           id="text236"><tspan
             x="0 10 19 24 29 38 47"
             y="0"
             sodipodi:role="line"
             id="tspan234">on the </tspan></text>
        <text
           xml:space="preserve"
           transform="translate(748,843)"
           style="font-variant:normal;font-weight:normal;font-size:20px;font-family:'Times New Roman';-inkscape-font-specification:TimesNewRomanPSMT;writing-mode:lr-tb;fill:#000000;fill-opacity:1;fill-rule:nonzero;stroke:none"
           id="text240"><tspan
             x="0 9 18 24 30 39"
             y="0"
             sodipodi:role="line"
             id="tspan238">called</tspan></text>
        <text
           xml:space="preserve"
           transform="translate(802,843)"
           style="font-variant:normal;font-weight:normal;font-size:20px;font-family:'Times New Roman';-inkscape-font-specification:TimesNewRomanPSMT;writing-mode:lr-tb;fill:#000000;fill-opacity:1;fill-rule:nonzero;stroke:none"
           id="text244"><tspan
             x="0 8 14 24 33 38 48 54 59 64 73 82 87 97 107 116 125 135 144 151 159"
             y="0"
             sodipodi:role="line"
             id="tspan242">side of the boundary.</tspan></text>
      </g>
    </g>
  </g>
</svg>
