<?xml version="1.0" encoding="UTF-8" standalone="no"?>
<!-- Created with Inkscape (http://www.inkscape.org/) -->

<svg
   version="1.1"
   id="svg2"
   width="816"
   height="1056"
   viewBox="0 0 816 1056"
   sodipodi:docname="clean_arch.pdf"
   xmlns:inkscape="http://www.inkscape.org/namespaces/inkscape"
   xmlns:sodipodi="http://sodipodi.sourceforge.net/DTD/sodipodi-0.dtd"
   xmlns="http://www.w3.org/2000/svg"
   xmlns:svg="http://www.w3.org/2000/svg">
  <defs
     id="defs6">
    <clipPath
       clipPathUnits="userSpaceOnUse"
       id="clipPath18">
      <path
         d="m 2088,0 h 696 V 1056 H 2088 V 0"
         clip-rule="evenodd"
         id="path16" />
    </clipPath>
    <clipPath
       clipPathUnits="userSpaceOnUse"
       id="clipPath28">
      <path
         d="m 2088,66 h 696 V 996 H 2088 V 66"
         clip-rule="evenodd"
         id="path26" />
    </clipPath>
  </defs>
  <sodipodi:namedview
     id="namedview4"
     pagecolor="#ffffff"
     bordercolor="#000000"
     borderopacity="0.25"
     inkscape:showpageshadow="2"
     inkscape:pageopacity="0.0"
     inkscape:pagecheckerboard="0"
     inkscape:deskcolor="#d1d1d1" />
  <g
     id="g8"
     inkscape:groupmode="layer"
     inkscape:label="clean_arch"
     transform="translate(59.999999,2.64e-5)">
    <g
       id="g10" />
    <g
       id="g12"
       transform="translate(-2088)">
      <g
         id="g14"
         clip-path="url(#clipPath18)">
        <g
           id="g20" />
      </g>
    </g>
    <g
       id="g22"
       transform="translate(-2088)">
      <g
         id="g24"
         clip-path="url(#clipPath28)">
        <text
           xml:space="preserve"
           transform="translate(2088,83)"
           style="font-variant:normal;font-weight:normal;font-size:20px;font-family:'Times New Roman';-inkscape-font-specification:TimesNewRomanPSMT;writing-mode:lr-tb;fill:#000000;fill-opacity:1;fill-rule:nonzero;stroke:none"
           id="text32"><tspan
             x="0 15 25 34 40 50 55 64 73 83 92 97 102 112 117 122 131 138 147 152 158 167 172 182 187 196 201 211 221 231 240 245 251 260 265 271 276 284 289 299 314 323 328 335 341 350 359 364"
             y="0"
             sodipodi:role="line"
             id="tspan30">would have to turn into a book in its own right.</tspan></text>
        <text
           xml:space="preserve"
           transform="translate(2088,129)"
           style="font-variant:normal;font-weight:normal;font-size:20px;font-family:'Times New Roman';-inkscape-font-specification:TimesNewRomanPSMT;writing-mode:lr-tb;fill:#000000;fill-opacity:1;fill-rule:nonzero;stroke:none"
           id="text36"><tspan
             x="0 14 24 29 38 43 48 57 66 71 81 90 98 107 116 126 131 140 148 157 162 171 180 188 197 205 210 216 225 230 235 244 253 258 267 276 285 290 299 306 311 321 327"
             y="0"
             sodipodi:role="line"
             id="tspan34">Note the dashed use cases in the center of </tspan></text>
        <text
           xml:space="preserve"
           transform="translate(2420,129)"
           style="font-variant:normal;font-weight:normal;font-size:20px;font-family:'Times New Roman';-inkscape-font-specification:TimesNewRomanPSMT;writing-mode:lr-tb;fill:#0000ee;fill-opacity:1;fill-rule:nonzero;stroke:none"
           id="text40"><tspan
             x="0 11 17 26 35 42 51 56 66 76 81"
             y="0"
             sodipodi:role="line"
             id="tspan38">Figure 33.1</tspan></text>
        <path
           d="m 2420,130.5 h 90 z"
           style="fill:none;stroke:#0000ee;stroke-width:1;stroke-linecap:square;stroke-linejoin:miter;stroke-miterlimit:10;stroke-dasharray:none;stroke-opacity:1"
           id="path42" />
        <text
           xml:space="preserve"
           transform="translate(2511,129)"
           style="font-variant:normal;font-weight:normal;font-size:20px;font-family:'Times New Roman';-inkscape-font-specification:TimesNewRomanPSMT;writing-mode:lr-tb;fill:#000000;fill-opacity:1;fill-rule:nonzero;stroke:none"
           id="text46"><tspan
             x="0 5 10 22 31 40 49 54 63 70 79"
             y="0"
             sodipodi:role="line"
             id="tspan44">. They are </tspan></text>
        <text
           xml:space="preserve"
           transform="translate(2595,129)"
           style="font-variant:normal;font-weight:normal;font-size:20px;font-family:'Times New Roman';-inkscape-font-specification:TimesNewRomanPSMT;writing-mode:lr-tb;fill:#000000;fill-opacity:1;fill-rule:nonzero;stroke:none"
           id="text50"><tspan
             x="0 9 19 27 32 39 48 57"
             y="0"
             sodipodi:role="line"
             id="tspan48">abstract</tspan></text>
        <text
           xml:space="preserve"
           transform="translate(2657,122)"
           style="font-variant:normal;font-weight:normal;font-size:15px;font-family:'Times New Roman';-inkscape-font-specification:TimesNewRomanPSMT;writing-mode:lr-tb;fill:#0000ee;fill-opacity:1;fill-rule:nonzero;stroke:none"
           id="text54"><tspan
             x="0"
             y="0"
             id="tspan52">1</tspan></text>
        <path
           d="m 2657,123.5 h 6 z"
           style="fill:none;stroke:#0000ee;stroke-width:1;stroke-linecap:square;stroke-linejoin:miter;stroke-miterlimit:10;stroke-dasharray:none;stroke-opacity:1"
           id="path56" />
        <text
           xml:space="preserve"
           transform="translate(2669,129)"
           style="font-variant:normal;font-weight:normal;font-size:20px;font-family:'Times New Roman';-inkscape-font-specification:TimesNewRomanPSMT;writing-mode:lr-tb;fill:#000000;fill-opacity:1;fill-rule:nonzero;stroke:none"
           id="text60"><tspan
             x="0 9 17 26 31 40 49 57 66 74 79 84 98"
             y="0"
             sodipodi:role="line"
             id="tspan58">use cases. An</tspan></text>
        <text
           xml:space="preserve"
           transform="translate(2088,152)"
           style="font-variant:normal;font-weight:normal;font-size:20px;font-family:'Times New Roman';-inkscape-font-specification:TimesNewRomanPSMT;writing-mode:lr-tb;fill:#000000;fill-opacity:1;fill-rule:nonzero;stroke:none"
           id="text64"><tspan
             x="0 9 19 27 32 39 48 57 62 67 76 84 93 98 107 116 124 133 138 144 152 157 167 176 185 190 195 204 213 218 223 231 240 245 253 258 267 272 281 290 299 308 315 324 330 335 345 355 361 367 376 385 390 395 404 413 418 423 432 441 451 456 465 474 481 486 495 503 512 517 526 535 543 552 557 572 578 584 590 595 601 607 616 624 633 638 648 657 662 667 672 686"
             y="0"
             sodipodi:role="line"
             id="tspan62">abstract use case is one that sets a general policy that another use case will flesh out. As</tspan></text>
        <text
           xml:space="preserve"
           transform="translate(2088,175)"
           style="font-variant:normal;font-weight:normal;font-size:20px;font-family:'Times New Roman';-inkscape-font-specification:TimesNewRomanPSMT;writing-mode:lr-tb;fill:#000000;fill-opacity:1;fill-rule:nonzero;stroke:none"
           id="text68"><tspan
             x="0 9 19 28 33 42 51 60 65 73 82 91 96 101 106 115 124"
             y="0"
             sodipodi:role="line"
             id="tspan66">you can see, the </tspan></text>
        <text
           xml:space="preserve"
           transform="translate(2217,175)"
           style="font-variant:normal;font-weight:normal;font-size:20px;font-family:'Times New Roman';-inkscape-font-specification:TimesNewRomanPSMT;writing-mode:lr-tb;fill:#000000;fill-opacity:1;fill-rule:nonzero;stroke:none"
           id="text72"><tspan
             x="0 12 18 27 42 47 60 69 74 83 89 99 108 113 122 130 135 147 153 162 177 186"
             y="0"
             sodipodi:role="line"
             id="tspan70">View Catalog as Viewer</tspan></text>
        <text
           xml:space="preserve"
           transform="translate(2415,175)"
           style="font-variant:normal;font-weight:normal;font-size:20px;font-family:'Times New Roman';-inkscape-font-specification:TimesNewRomanPSMT;writing-mode:lr-tb;fill:#000000;fill-opacity:1;fill-rule:nonzero;stroke:none"
           id="text76"><tspan
             x="0 9 18 28"
             y="0"
             sodipodi:role="line"
             id="tspan74">and </tspan></text>
        <text
           xml:space="preserve"
           transform="translate(2448,175)"
           style="font-variant:normal;font-weight:normal;font-size:20px;font-family:'Times New Roman';-inkscape-font-specification:TimesNewRomanPSMT;writing-mode:lr-tb;fill:#000000;fill-opacity:1;fill-rule:nonzero;stroke:none"
           id="text80"><tspan
             x="0 12 18 27 42 47 60 69 74 83 89 99 108 113 122 130 135 146 155 162 171 180 189 197 206"
             y="0"
             sodipodi:role="line"
             id="tspan78">View Catalog as Purchaser</tspan></text>
        <text
           xml:space="preserve"
           transform="translate(2666,175)"
           style="font-variant:normal;font-weight:normal;font-size:20px;font-family:'Times New Roman';-inkscape-font-specification:TimesNewRomanPSMT;writing-mode:lr-tb;fill:#000000;fill-opacity:1;fill-rule:nonzero;stroke:none"
           id="text84"><tspan
             x="0 9 17 26 31 40 49 57 66 74 79 89 99 104"
             y="0"
             sodipodi:role="line"
             id="tspan82">use cases both</tspan></text>
        <text
           xml:space="preserve"
           transform="translate(2088,198)"
           style="font-variant:normal;font-weight:normal;font-size:20px;font-family:'Times New Roman';-inkscape-font-specification:TimesNewRomanPSMT;writing-mode:lr-tb;fill:#000000;fill-opacity:1;fill-rule:nonzero;stroke:none"
           id="text88"><tspan
             x="0 6 15 24 33 40 46 51 56 62 69 79 93 98 103 112 121"
             y="0"
             sodipodi:role="line"
             id="tspan86">inherit from the </tspan></text>
        <text
           xml:space="preserve"
           transform="translate(2214,198)"
           style="font-variant:normal;font-weight:normal;font-size:20px;font-family:'Times New Roman';-inkscape-font-specification:TimesNewRomanPSMT;writing-mode:lr-tb;fill:#000000;fill-opacity:1;fill-rule:nonzero;stroke:none"
           id="text92"><tspan
             x="0 12 18 27 42 47 60 69 74 83 89 99"
             y="0"
             sodipodi:role="line"
             id="tspan90">View Catalog</tspan></text>
        <text
           xml:space="preserve"
           transform="translate(2327,198)"
           style="font-variant:normal;font-weight:normal;font-size:20px;font-family:'Times New Roman';-inkscape-font-specification:TimesNewRomanPSMT;writing-mode:lr-tb;fill:#000000;fill-opacity:1;fill-rule:nonzero;stroke:none"
           id="text96"><tspan
             x="0 9 19 27 32 39 48 57 62 67 76 84 93 98 107 116 124 133"
             y="0"
             sodipodi:role="line"
             id="tspan94">abstract use case.</tspan></text>
        <text
           xml:space="preserve"
           transform="translate(2088,241)"
           style="font-variant:normal;font-weight:normal;font-size:20px;font-family:'Times New Roman';-inkscape-font-specification:TimesNewRomanPSMT;writing-mode:lr-tb;fill:#000000;fill-opacity:1;fill-rule:nonzero;stroke:none"
           id="text100"><tspan
             x="0 14 23 28 33 42 51 56 66 75 84 89 98 107 116 126 131 136 142 147 152 167 176 184 189 198 208 213 218 226 231 238 244 253 258 264 273 278 287 296 305 314 322 330 339 346 355 360 366 376 383 388 402 411 416 421 431 436 445 452 461 470 475 484 489 494 503 512 517 522 531 541 549 554 561 570 579 584 590 600 609 614 619 625 630 639 649 658 664"
             y="0"
             sodipodi:role="line"
             id="tspan98">On the one hand, it was not strictly necessary for me to create that abstraction. I could</tspan></text>
        <text
           xml:space="preserve"
           transform="translate(2088,264)"
           style="font-variant:normal;font-weight:normal;font-size:20px;font-family:'Times New Roman';-inkscape-font-specification:TimesNewRomanPSMT;writing-mode:lr-tb;fill:#000000;fill-opacity:1;fill-rule:nonzero;stroke:none"
           id="text104"><tspan
             x="0 9 18 28 37 42 48 57 63 68 73 78 87 96 101 110 120 128 133 140 149 158 163 168 177 185 194 199 208 217 225 234 239 249 258 263 268 278 284 289 294 303 312 317 327 333 342 351 358 367 381 386 401 407 412 421 431 440 445 450 459 469 483 493 500 510 524 530 538 544 553 562 567 576 585 594 599 609 615 620 625 634"
             y="0"
             sodipodi:role="line"
             id="tspan102">have left the abstract use case out of the diagram without compromising any of the</tspan></text>
        <text
           xml:space="preserve"
           transform="translate(2088,287)"
           style="font-variant:normal;font-weight:normal;font-size:20px;font-family:'Times New Roman';-inkscape-font-specification:TimesNewRomanPSMT;writing-mode:lr-tb;fill:#000000;fill-opacity:1;fill-rule:nonzero;stroke:none"
           id="text108"><tspan
             x="0 6 15 24 29 38 45 54 62 67 77 83 88 93 102 111 116 126 136 145 152 161 167 173 178 188 195 205 215 224 233 238 243 248 262 271 276 281 290 299 304 314 319 328 337 344 349 358 367 376 386 391 396 401 410 419 427 436 441 446 461 471 476 485 493 502 507 516 525 533 542 550 555 564 571 580"
             y="0"
             sodipodi:role="line"
             id="tspan106">features of the overall product. On the other hand, these two use cases are </tspan></text>
        <text
           xml:space="preserve"
           transform="translate(2673,287)"
           style="font-variant:normal;font-weight:normal;font-size:20px;font-family:'Times New Roman';-inkscape-font-specification:TimesNewRomanPSMT;writing-mode:lr-tb;fill:#000000;fill-opacity:1;fill-rule:nonzero;stroke:none"
           id="text112"><tspan
             x="0 8 18 23 31 37 51 57 63 72"
             y="0"
             sodipodi:role="line"
             id="tspan110">so similar</tspan></text>
        <text
           xml:space="preserve"
           transform="translate(2088,310)"
           style="font-variant:normal;font-weight:normal;font-size:20px;font-family:'Times New Roman';-inkscape-font-specification:TimesNewRomanPSMT;writing-mode:lr-tb;fill:#000000;fill-opacity:1;fill-rule:nonzero;stroke:none"
           id="text116"><tspan
             x="0 5 14 23 28 33 39 44 49 58 68 77 86 95 100 105 111 116 121 136 142 150 159 164 169 179 184 191 200 209 219 228 237 243 251 260 265 270 279 288 293 301 307 321 327 333 342 349 355 360 369 374 383 392 402 407 413 419 428 438 443 452 457 472 481 490 495 500 510 515 524 533 539 545 554 559 565 570 575 584 593 600 606 615 620 626 635 640 645 654"
             y="0"
             sodipodi:role="line"
             id="tspan114">that I thought it wise to recognize the similarity and find a way to unify it early in the</tspan></text>
        <text
           xml:space="preserve"
           transform="translate(2088,333)"
           style="font-variant:normal;font-weight:normal;font-size:20px;font-family:'Times New Roman';-inkscape-font-specification:TimesNewRomanPSMT;writing-mode:lr-tb;fill:#000000;fill-opacity:1;fill-rule:nonzero;stroke:none"
           id="text120"><tspan
             x="0 9 18 27 33 42 50 56 64"
             y="0"
             sodipodi:role="line"
             id="tspan118">analysis.</tspan></text>
        <text
           xml:space="preserve"
           transform="translate(2088,403)"
           style="font-variant:normal;font-weight:bold;font-size:33px;font-family:'Times New Roman';-inkscape-font-specification:TimesNewRomanPS-BoldMT;writing-mode:lr-tb;fill:#000000;fill-opacity:1;fill-rule:nonzero;stroke:none"
           id="text124"><tspan
             x="0"
             y="0"
             id="tspan122">C</tspan></text>
        <text
           xml:space="preserve"
           transform="translate(2112,403)"
           style="font-variant:normal;font-weight:bold;font-size:33px;font-family:'Times New Roman';-inkscape-font-specification:TimesNewRomanPS-BoldMT;writing-mode:lr-tb;fill:#000000;fill-opacity:1;fill-rule:nonzero;stroke:none"
           id="text128"><tspan
             x="0 26 58 78 104 128 150 174"
             y="0"
             sodipodi:role="line"
             id="tspan126">OMPONENT</tspan></text>
        <text
           xml:space="preserve"
           transform="translate(2316,403)"
           style="font-variant:normal;font-weight:bold;font-size:33px;font-family:'Times New Roman';-inkscape-font-specification:TimesNewRomanPS-BoldMT;writing-mode:lr-tb;fill:#000000;fill-opacity:1;fill-rule:nonzero;stroke:none"
           id="text132"><tspan
             x="0"
             y="0"
             id="tspan130">A</tspan></text>
        <text
           xml:space="preserve"
           transform="translate(2339,403)"
           style="font-variant:normal;font-weight:bold;font-size:33px;font-family:'Times New Roman';-inkscape-font-specification:TimesNewRomanPS-BoldMT;writing-mode:lr-tb;fill:#000000;fill-opacity:1;fill-rule:nonzero;stroke:none"
           id="text136"><tspan
             x="0 24 48 74 87 109 131 155 177 201 225"
             y="0"
             sodipodi:role="line"
             id="tspan134">RCHITECTURE</tspan></text>
        <text
           xml:space="preserve"
           transform="translate(2088,448)"
           style="font-variant:normal;font-weight:normal;font-size:20px;font-family:'Times New Roman';-inkscape-font-specification:TimesNewRomanPSMT;writing-mode:lr-tb;fill:#000000;fill-opacity:1;fill-rule:nonzero;stroke:none"
           id="text140"><tspan
             x="0 14 24 39 44 49 58 67 72 77 92 101 106 115 124 134 149 154 159 168 177 182 191 200 205 215 222 230 235 244 253 263 268 277 285 294 299 308 317 325 334 342 347 352 367 376 381 390 399 408 413 422 429 438 447 452 461 466 475 480 490 497 506 512 518 532 538 547 556 563 572 577 586 596 610 620 630 639 648 657"
             y="0"
             sodipodi:role="line"
             id="tspan138">Now that we know the actors and use cases, we can create a preliminary component</tspan></text>
        <text
           xml:space="preserve"
           transform="translate(2088,471)"
           style="font-variant:normal;font-weight:normal;font-size:20px;font-family:'Times New Roman';-inkscape-font-specification:TimesNewRomanPSMT;writing-mode:lr-tb;fill:#000000;fill-opacity:1;fill-rule:nonzero;stroke:none"
           id="text144"><tspan
             x="0 9 16 25 34 40 45 54 63 68 77 84 93 98"
             y="0"
             sodipodi:role="line"
             id="tspan142">architecture (</tspan></text>
        <text
           xml:space="preserve"
           transform="translate(2193,471)"
           style="font-variant:normal;font-weight:normal;font-size:20px;font-family:'Times New Roman';-inkscape-font-specification:TimesNewRomanPSMT;writing-mode:lr-tb;fill:#0000ee;fill-opacity:1;fill-rule:nonzero;stroke:none"
           id="text148"><tspan
             x="0 11 17 26 35 42 51 56 66 76 81"
             y="0"
             sodipodi:role="line"
             id="tspan146">Figure 33.2</tspan></text>
        <path
           d="m 2193,472.5 h 90 z"
           style="fill:none;stroke:#0000ee;stroke-width:1;stroke-linecap:square;stroke-linejoin:miter;stroke-miterlimit:10;stroke-dasharray:none;stroke-opacity:1"
           id="path150" />
        <text
           xml:space="preserve"
           transform="translate(2284,471)"
           style="font-variant:normal;font-weight:normal;font-size:20px;font-family:'Times New Roman';-inkscape-font-specification:TimesNewRomanPSMT;writing-mode:lr-tb;fill:#000000;fill-opacity:1;fill-rule:nonzero;stroke:none"
           id="text154"><tspan
             x="0 7"
             y="0"
             sodipodi:role="line"
             id="tspan152">).</tspan></text>
        <text
           xml:space="preserve"
           transform="translate(2088,514)"
           style="font-variant:normal;font-weight:normal;font-size:20px;font-family:'Times New Roman';-inkscape-font-specification:TimesNewRomanPSMT;writing-mode:lr-tb;fill:#000000;fill-opacity:1;fill-rule:nonzero;stroke:none"
           id="text158"><tspan
             x="0 12 21 30 35 45 55 64 74 80 89 94 100 106 115 124 132 137 143 152 157 162 171 180 185 195 202 211 226 232 241 250 255 262 271 281 288 297 305 314 323 328 333 342 349 358 367 373 378 387 396 401 410 417 426 432 437 447 457 466 475 485 494 501 507 516 524 529 538 546 551 560 568 577 586 592 597 602 614 624 633 638 647 656"
             y="0"
             sodipodi:role="line"
             id="tspan156">The double lines in the drawing represent architectural boundaries as usual. You can</tspan></text>
        <text
           xml:space="preserve"
           transform="translate(2088,537)"
           style="font-variant:normal;font-weight:normal;font-size:20px;font-family:'Times New Roman';-inkscape-font-specification:TimesNewRomanPSMT;writing-mode:lr-tb;fill:#000000;fill-opacity:1;fill-rule:nonzero;stroke:none"
           id="text162"><tspan
             x="0 8 17 26 31 36 45 54 59 64 73 83 89 98 107 113 118 128 137 144 149 155 160 166 176 185 191 200 209 214 224 230 235 245 251 260 275 283 288 293 303 310 319 327 336 345 350 359 366 374 379 384 390 399 404 413 420 429 438 443 453 460 468 473 478 487 496 506 511 520 530 539 544 551 561 567 573 582 589 597 602 607 619 629 638 643 652 661"
             y="0"
             sodipodi:role="line"
             id="tspan160">see the typical partitioning of views, presenters, interactors, and controllers. You can</tspan></text>
        <text
           xml:space="preserve"
           transform="translate(2088,560)"
           style="font-variant:normal;font-weight:normal;font-size:20px;font-family:'Times New Roman';-inkscape-font-specification:TimesNewRomanPSMT;writing-mode:lr-tb;fill:#000000;fill-opacity:1;fill-rule:nonzero;stroke:none"
           id="text166"><tspan
             x="0 9 15 23 33 38 46 55 64 69 74 83 92 97 102 108 115 125 134 139 149 156 166 175 184 193 198 207 216 225 234 239 249 255 260 265 274 284 292 301 306 315 324 329 338 347 357 364 370 379 387 392 401 411 416 426 435 440 445 454 463 469 476 481 490 500 507 514 523 531 541 551 560 570 576 585 594 599 608 617 622 632 639 647"
             y="0"
             sodipodi:role="line"
             id="tspan164">also see that I’ve broken each of those categories up by their corresponding actors.</tspan></text>
        <text
           xml:space="preserve"
           transform="translate(2088,603)"
           style="font-variant:normal;font-weight:normal;font-size:20px;font-family:'Times New Roman';-inkscape-font-specification:TimesNewRomanPSMT;writing-mode:lr-tb;fill:#000000;fill-opacity:1;fill-rule:nonzero;stroke:none"
           id="text170"><tspan
             x="0 12 21 30 39 44 54 60 65 70 79 88 93 102 112 126 136 146 155 164 173 178 186 191 197 206"
             y="0"
             sodipodi:role="line"
             id="tspan168">Each of the components in </tspan></text>
        <text
           xml:space="preserve"
           transform="translate(2299,603)"
           style="font-variant:normal;font-weight:normal;font-size:20px;font-family:'Times New Roman';-inkscape-font-specification:TimesNewRomanPSMT;writing-mode:lr-tb;fill:#0000ee;fill-opacity:1;fill-rule:nonzero;stroke:none"
           id="text174"><tspan
             x="0 11 17 26 35 42 51 56 66 76 81"
             y="0"
             sodipodi:role="line"
             id="tspan172">Figure 33.2</tspan></text>
        <path
           d="m 2299,604.5 h 90 z"
           style="fill:none;stroke:#0000ee;stroke-width:1;stroke-linecap:square;stroke-linejoin:miter;stroke-miterlimit:10;stroke-dasharray:none;stroke-opacity:1"
           id="path176" />
        <text
           xml:space="preserve"
           transform="translate(2395,603)"
           style="font-variant:normal;font-weight:normal;font-size:20px;font-family:'Times New Roman';-inkscape-font-specification:TimesNewRomanPSMT;writing-mode:lr-tb;fill:#000000;fill-opacity:1;fill-rule:nonzero;stroke:none"
           id="text180"><tspan
             x="0 7 16 26 33 42 50 59 68 73 81 86 95 100 110 120 125 134 143 148 154 163 169"
             y="0"
             sodipodi:role="line"
             id="tspan178">represents a potential </tspan></text>
        <text
           xml:space="preserve"
           transform="translate(2569,603)"
           style="font-variant:normal;font-weight:normal;font-size:16px;font-family:'Courier New';-inkscape-font-specification:CourierNewPSMT;writing-mode:lr-tb;fill:#000000;fill-opacity:1;fill-rule:nonzero;stroke:none"
           id="text184"><tspan
             x="0 10 20 30"
             y="0"
             sodipodi:role="line"
             id="tspan182">.jar</tspan></text>
        <text
           xml:space="preserve"
           transform="translate(2614,603)"
           style="font-variant:normal;font-weight:normal;font-size:20px;font-family:'Times New Roman';-inkscape-font-specification:TimesNewRomanPSMT;writing-mode:lr-tb;fill:#000000;fill-opacity:1;fill-rule:nonzero;stroke:none"
           id="text188"><tspan
             x="0 6 12 18 27 32 42 49"
             y="0"
             sodipodi:role="line"
             id="tspan186">file or </tspan></text>
        <text
           xml:space="preserve"
           transform="translate(2668,603)"
           style="font-variant:normal;font-weight:normal;font-size:16px;font-family:'Courier New';-inkscape-font-specification:CourierNewPSMT;writing-mode:lr-tb;fill:#000000;fill-opacity:1;fill-rule:nonzero;stroke:none"
           id="text192"><tspan
             x="0 10 20 30"
             y="0"
             sodipodi:role="line"
             id="tspan190">.dll</tspan></text>
        <text
           xml:space="preserve"
           transform="translate(2713,603)"
           style="font-variant:normal;font-weight:normal;font-size:20px;font-family:'Times New Roman';-inkscape-font-specification:TimesNewRomanPSMT;writing-mode:lr-tb;fill:#000000;fill-opacity:1;fill-rule:nonzero;stroke:none"
           id="text196"><tspan
             x="0 6 12 18 27"
             y="0"
             sodipodi:role="line"
             id="tspan194">file.</tspan></text>
        <text
           xml:space="preserve"
           transform="translate(2088,626)"
           style="font-variant:normal;font-weight:normal;font-size:20px;font-family:'Times New Roman';-inkscape-font-specification:TimesNewRomanPSMT;writing-mode:lr-tb;fill:#000000;fill-opacity:1;fill-rule:nonzero;stroke:none"
           id="text200"><tspan
             x="0 12 21 30 39 44 54 60 65 70 79 89 97 106 111 120 130 144 154 164 173 182 191 196 204 209 224 230 236 242 247 256 266 275 280 289 295 304 309 314 323 332 337 347 353 362 377 385 390 395 405 412 421 429 438 447 452 461 468 476 481 486 492 501 506 515 522 531 540 545 555 562 570 575 580 589 598"
             y="0"
             sodipodi:role="line"
             id="tspan198">Each of those components will contain the views, presenters, interactors, and</tspan></text>
        <text
           xml:space="preserve"
           transform="translate(2088,649)"
           style="font-variant:normal;font-weight:normal;font-size:20px;font-family:'Times New Roman';-inkscape-font-specification:TimesNewRomanPSMT;writing-mode:lr-tb;fill:#000000;fill-opacity:1;fill-rule:nonzero;stroke:none"
           id="text204"><tspan
             x="0 9 19 28 33 40 50 56 62 71 78 86 91 96 105 114 119 124 133 142 152 161 166 176 185 194 203 208 217 223 229 239 248 257 262 271 281 286 291 301 306 312 317"
             y="0"
             sodipodi:role="line"
             id="tspan202">controllers that have been allocated to it.</tspan></text>
        <text
           xml:space="preserve"
           transform="translate(2088,692)"
           style="font-variant:normal;font-weight:normal;font-size:20px;font-family:'Times New Roman';-inkscape-font-specification:TimesNewRomanPSMT;writing-mode:lr-tb;fill:#000000;fill-opacity:1;fill-rule:nonzero;stroke:none"
           id="text208"><tspan
             x="0 14 24 29 38 43 48 57 66 71 79 89 98 107 113 122 128 133 142 152 166 176 186 195 204 213 218 226 231 237 247 254 259 264 273 282"
             y="0"
             sodipodi:role="line"
             id="tspan206">Note the special components for the </tspan></text>
        <text
           xml:space="preserve"
           transform="translate(2375,692)"
           style="font-variant:normal;font-weight:normal;font-size:16px;font-family:'Courier New';-inkscape-font-specification:CourierNewPSMT;writing-mode:lr-tb;fill:#000000;fill-opacity:1;fill-rule:nonzero;stroke:none"
           id="text212"><tspan
             x="0 10 20 30 40 50 60 70 80 90 100 110"
             y="0"
             sodipodi:role="line"
             id="tspan210">Catalog View</tspan></text>
        <text
           xml:space="preserve"
           transform="translate(2500,692)"
           style="font-variant:normal;font-weight:normal;font-size:20px;font-family:'Times New Roman';-inkscape-font-specification:TimesNewRomanPSMT;writing-mode:lr-tb;fill:#000000;fill-opacity:1;fill-rule:nonzero;stroke:none"
           id="text216"><tspan
             x="0 9 18 28 33 38 47 56"
             y="0"
             sodipodi:role="line"
             id="tspan214">and the </tspan></text>
        <text
           xml:space="preserve"
           transform="translate(2561,692)"
           style="font-variant:normal;font-weight:normal;font-size:16px;font-family:'Courier New';-inkscape-font-specification:CourierNewPSMT;writing-mode:lr-tb;fill:#000000;fill-opacity:1;fill-rule:nonzero;stroke:none"
           id="text220"><tspan
             x="0 10 20 30 40 50 60 70 80 90 100 110 120 130 140 150 160"
             y="0"
             sodipodi:role="line"
             id="tspan218">Catalog Presenter</tspan></text>
        <text
           xml:space="preserve"
           transform="translate(2731,692)"
           style="font-variant:normal;font-weight:normal;font-size:20px;font-family:'Times New Roman';-inkscape-font-specification:TimesNewRomanPSMT;writing-mode:lr-tb;fill:#000000;fill-opacity:1;fill-rule:nonzero;stroke:none"
           id="text224"><tspan
             x="0 5 10 22 31 37"
             y="0"
             sodipodi:role="line"
             id="tspan222">. This</tspan></text>
        <text
           xml:space="preserve"
           transform="translate(2088,715)"
           style="font-variant:normal;font-weight:normal;font-size:20px;font-family:'Times New Roman';-inkscape-font-specification:TimesNewRomanPSMT;writing-mode:lr-tb;fill:#000000;fill-opacity:1;fill-rule:nonzero;stroke:none"
           id="text228"><tspan
             x="0 6 14 19 28 38 53 58 64 69 79 88 97 103 108 113 128 134 139 148 153 158 167 176 181 190 200 208 213 220 229 238 243"
             y="0"
             sodipodi:role="line"
             id="tspan226">is how I dealt with the abstract </tspan></text>
        <text
           xml:space="preserve"
           transform="translate(2336,715)"
           style="font-variant:normal;font-weight:normal;font-size:20px;font-family:'Times New Roman';-inkscape-font-specification:TimesNewRomanPSMT;writing-mode:lr-tb;fill:#000000;fill-opacity:1;fill-rule:nonzero;stroke:none"
           id="text232"><tspan
             x="0 12 18 27 42 47 60 69 74 83 89 99"
             y="0"
             sodipodi:role="line"
             id="tspan230">View Catalog</tspan></text>
        <text
           xml:space="preserve"
           transform="translate(2449,715)"
           style="font-variant:normal;font-weight:normal;font-size:20px;font-family:'Times New Roman';-inkscape-font-specification:TimesNewRomanPSMT;writing-mode:lr-tb;fill:#000000;fill-opacity:1;fill-rule:nonzero;stroke:none"
           id="text236"><tspan
             x="0 9 17 26 31 40 49 57 66 71 76 82 87 96 104 112 121 135 144 149 154 163 172 177 182 187 196 206 214 223 228 238 244 253 268 276 281 290 299"
             y="0"
             sodipodi:role="line"
             id="tspan234">use case. I assume that those views and</tspan></text>
        <text
           xml:space="preserve"
           transform="translate(2088,738)"
           style="font-variant:normal;font-weight:normal;font-size:20px;font-family:'Times New Roman';-inkscape-font-specification:TimesNewRomanPSMT;writing-mode:lr-tb;fill:#000000;fill-opacity:1;fill-rule:nonzero;stroke:none"
           id="text240"><tspan
             x="0 10 17 26 34 43 52 57 66 73 81 86 101 107 113 119 124 134 143 148 157 167 177 186 196 201 207 216 221 231 236 245 255 263 268 275 284 293 298 303 312 318 327 335 343 352 360 365 380 386 391 400 406 415 420 425 434 444 452 461 466 475 485 499 509 519 528 537 546 551 559 564 569 578 587 597 602 607 616 625 630 635 640 649"
             y="0"
             sodipodi:role="line"
             id="tspan238">presenters will be coded into abstract classes within those components, and that the</tspan></text>
        <text
           xml:space="preserve"
           transform="translate(2088,761)"
           style="font-variant:normal;font-weight:normal;font-size:20px;font-family:'Times New Roman';-inkscape-font-specification:TimesNewRomanPSMT;writing-mode:lr-tb;fill:#000000;fill-opacity:1;fill-rule:nonzero;stroke:none"
           id="text244"><tspan
             x="0 6 15 24 33 40 46 51 57 66 75 80 89 99 113 123 133 142 151 160 165 173 178 193 199 205 211 216 225 235 244 249 258 264 273 278 288 294 303 318 323 332 341 351 356 366 373 382 390 399 408 413 422 429 434 443 449 458 466 474 483 491 496 501 510 519 524 529 544 550 556 562 567 573 582 591 600 607 613 618 623 629 636 646"
             y="0"
             sodipodi:role="line"
             id="tspan242">inheriting components will contain view and presenter classes that will inherit from</tspan></text>
        <text
           xml:space="preserve"
           transform="translate(2088,784)"
           style="font-variant:normal;font-weight:normal;font-size:20px;font-family:'Times New Roman';-inkscape-font-specification:TimesNewRomanPSMT;writing-mode:lr-tb;fill:#000000;fill-opacity:1;fill-rule:nonzero;stroke:none"
           id="text248"><tspan
             x="0 5 14 24 32 41 46 55 65 73 78 85 94 103 108 113 122 128 137 145 153 162 170"
             y="0"
             sodipodi:role="line"
             id="tspan246">those abstract classes.</tspan></text>
      </g>
    </g>
  </g>
</svg>
