<?xml version="1.0" encoding="UTF-8" standalone="no"?>
<!-- Created with Inkscape (http://www.inkscape.org/) -->

<svg
   version="1.1"
   id="svg2"
   width="816"
   height="1056"
   viewBox="0 0 816 1056"
   sodipodi:docname="clean_arch.pdf"
   xmlns:inkscape="http://www.inkscape.org/namespaces/inkscape"
   xmlns:sodipodi="http://sodipodi.sourceforge.net/DTD/sodipodi-0.dtd"
   xmlns="http://www.w3.org/2000/svg"
   xmlns:svg="http://www.w3.org/2000/svg">
  <defs
     id="defs6">
    <clipPath
       clipPathUnits="userSpaceOnUse"
       id="clipPath18">
      <path
         d="m 1392,0 h 696 V 1056 H 1392 V 0"
         clip-rule="evenodd"
         id="path16" />
    </clipPath>
    <clipPath
       clipPathUnits="userSpaceOnUse"
       id="clipPath28">
      <path
         d="m 1392,66 h 696 V 996 H 1392 V 66"
         clip-rule="evenodd"
         id="path26" />
    </clipPath>
  </defs>
  <sodipodi:namedview
     id="namedview4"
     pagecolor="#ffffff"
     bordercolor="#000000"
     borderopacity="0.25"
     inkscape:showpageshadow="2"
     inkscape:pageopacity="0.0"
     inkscape:pagecheckerboard="0"
     inkscape:deskcolor="#d1d1d1" />
  <g
     id="g8"
     inkscape:groupmode="layer"
     inkscape:label="clean_arch"
     transform="translate(59.999999,2.64e-5)">
    <g
       id="g10" />
    <g
       id="g12"
       transform="translate(-1392)">
      <g
         id="g14"
         clip-path="url(#clipPath18)">
        <g
           id="g20" />
      </g>
    </g>
    <g
       id="g22"
       transform="translate(-1392)">
      <g
         id="g24"
         clip-path="url(#clipPath28)">
        <text
           xml:space="preserve"
           transform="translate(1392,82.67188)"
           style="font-variant:normal;font-weight:normal;font-size:20px;font-family:'Times New Roman';-inkscape-font-specification:TimesNewRomanPSMT;writing-mode:lr-tb;fill:#000000;fill-opacity:1;fill-rule:nonzero;stroke:none"
           id="text32"><tspan
             x="0 5 14 23 37 42 51 60 70 75 84 89 103 112 119 128 137 142 148 157 166 171 176 185 194 208 213 218 227 236 241 246 253 262 272 281 290 298 303 311 316 325 330 338 344 358 368 374 383 388 397 406 415 424 433 442 447 452 462 467 472 481 490 495 505 514 523 532 537 546 555 565 571 580 589 594 600 610 619 624 632 637 644 653 662 667 676 683"
             y="0"
             sodipodi:role="line"
             id="tspan30">team and a marketing team that requests a simple change to the page navigation structure</tspan></text>
        <text
           xml:space="preserve"
           transform="translate(1392,106)"
           style="font-variant:normal;font-weight:normal;font-size:20px;font-family:'Times New Roman';-inkscape-font-specification:TimesNewRomanPSMT;writing-mode:lr-tb;fill:#000000;fill-opacity:1;fill-rule:nonzero;stroke:none"
           id="text36"><tspan
             x="0 5 14 23 28 33 48 54 60 66 71 80 89 98 106 115 120 130 140 150 160 165 170 179 187 192 200 205 210 220 225 235 242 251 260 269"
             y="0"
             sodipodi:role="line"
             id="tspan34">that will cause 1000 tests to break.</tspan></text>
        <text
           xml:space="preserve"
           transform="translate(1392,149)"
           style="font-variant:normal;font-weight:normal;font-size:20px;font-family:'Times New Roman';-inkscape-font-specification:TimesNewRomanPSMT;writing-mode:lr-tb;fill:#000000;fill-opacity:1;fill-rule:nonzero;stroke:none"
           id="text40"><tspan
             x="0 12 21 30 35 43 53 59 68 73 79 89 98 103 109 117 122 127 137 142 152 161 169 175 184 193 198 204 214 221 226 231 240 248 253 262 272 278 284 290 295 303 308 313 325 334 343 348 354 360 367 375 380 385 392 401 407 416 421 431 437 442 450 460 466 471 486 495 502 511 516 526 535 543 549 558 567 587 602 611 620 625 634 643 650 655 661 671"
             y="0"
             sodipodi:role="line"
             id="tspan38">The solution is to design for testability. The first rule of software design—whether for</tspan></text>
        <text
           xml:space="preserve"
           transform="translate(1392,172)"
           style="font-variant:normal;font-weight:normal;font-size:20px;font-family:'Times New Roman';-inkscape-font-specification:TimesNewRomanPSMT;writing-mode:lr-tb;fill:#000000;fill-opacity:1;fill-rule:nonzero;stroke:none"
           id="text44"><tspan
             x="0 5 14 22 27 36 46 52 58 64 69 78 83 93 100 105 111 121 128 133 142 151 160 165 175 180 189 198 205 210 217 226 235 243 253 262 282 288 296 301 310 316 331 340 349 357 362 367 376 385 390 398 407 421 430 436"
             y="0"
             sodipodi:role="line"
             id="tspan42">testability or for any other reason—is always the same: </tspan></text>
        <text
           xml:space="preserve"
           transform="translate(1833,172)"
           style="font-variant:normal;font-weight:normal;font-size:20px;font-family:'Times New Roman';-inkscape-font-specification:TimesNewRomanPSMT;writing-mode:lr-tb;fill:#000000;fill-opacity:1;fill-rule:nonzero;stroke:none"
           id="text48"><tspan
             x="0 14 24 33 40 45 50 60 69 79 88 97 107 112 122 131 136 146 156 162 171 176 182 188 197 202 207 216 222 231 240"
             y="0"
             sodipodi:role="line"
             id="tspan46">Don’t depend on volatile things</tspan></text>
        <text
           xml:space="preserve"
           transform="translate(2081,172)"
           style="font-variant:normal;font-weight:normal;font-size:20px;font-family:'Times New Roman';-inkscape-font-specification:TimesNewRomanPSMT;writing-mode:lr-tb;fill:#000000;fill-opacity:1;fill-rule:nonzero;stroke:none"
           id="text52"><tspan
             x="0"
             y="0"
             id="tspan50">.</tspan></text>
        <text
           xml:space="preserve"
           transform="translate(1392,195)"
           style="font-variant:normal;font-weight:normal;font-size:20px;font-family:'Times New Roman';-inkscape-font-specification:TimesNewRomanPSMT;writing-mode:lr-tb;fill:#000000;fill-opacity:1;fill-rule:nonzero;stroke:none"
           id="text56"><tspan
             x="0 14 27 33 41 46 55 62 71 76 86 96 102 111 116 122 128 137 142 147 157 166 174 179 184 192 201 207 212 221 229 234 239 248 257 262 267 277 287 296 303 312 317 326 331 336 345 354 359 367 376 384 389 398 412 417 422 431 438 448 457 466 475 480 485 494 503 508 522 535 541"
             y="0"
             sodipodi:role="line"
             id="tspan54">GUIs are volatile. Test suites that operate the system through the GUI </tspan></text>
        <text
           xml:space="preserve"
           transform="translate(1938,195)"
           style="font-variant:normal;font-weight:normal;font-size:20px;font-family:'Times New Roman';-inkscape-font-specification:TimesNewRomanPSMT;writing-mode:lr-tb;fill:#000000;fill-opacity:1;fill-rule:nonzero;stroke:none"
           id="text60"><tspan
             x="0 14 23 31 36 41 51 60 65 71 78 87 96 102 108"
             y="0"
             sodipodi:role="line"
             id="tspan58">must be fragile</tspan></text>
        <text
           xml:space="preserve"
           transform="translate(2055,195)"
           style="font-variant:normal;font-weight:normal;font-size:20px;font-family:'Times New Roman';-inkscape-font-specification:TimesNewRomanPSMT;writing-mode:lr-tb;fill:#000000;fill-opacity:1;fill-rule:nonzero;stroke:none"
           id="text64"><tspan
             x="0"
             y="0"
             id="tspan62">.</tspan></text>
        <text
           xml:space="preserve"
           transform="translate(1392,218)"
           style="font-variant:normal;font-weight:normal;font-size:20px;font-family:'Times New Roman';-inkscape-font-specification:TimesNewRomanPSMT;writing-mode:lr-tb;fill:#000000;fill-opacity:1;fill-rule:nonzero;stroke:none"
           id="text68"><tspan
             x="0 12 21 30 37 46 52 62 69 78 83 93 102 110 116 125 134 139 144 153 162 167 175 184 192 197 206 220 225 230 239 248 258 263 268 277 286 291 296 305 313 318 326 331 336 344 354 359 364 373 382 387 392 402 411 419 425 434 443 451 459 464 471 480 486 495 503 508 517 526 535 540 550 559 564 569 578 586 591 600 610 615 630 636 641 650 660 669"
             y="0"
             sodipodi:role="line"
             id="tspan66">Therefore design the system, and the tests, so that business rules can be tested without</tspan></text>
        <text
           xml:space="preserve"
           transform="translate(1392,241)"
           style="font-variant:normal;font-weight:normal;font-size:20px;font-family:'Times New Roman';-inkscape-font-specification:TimesNewRomanPSMT;writing-mode:lr-tb;fill:#000000;fill-opacity:1;fill-rule:nonzero;stroke:none"
           id="text72"><tspan
             x="0 9 17 23 32 41 46 51 60 69 74 88 101 107"
             y="0"
             sodipodi:role="line"
             id="tspan70">using the GUI.</tspan></text>
        <text
           xml:space="preserve"
           transform="translate(1392,311)"
           style="font-variant:normal;font-weight:bold;font-size:33px;font-family:'Times New Roman';-inkscape-font-specification:TimesNewRomanPS-BoldMT;writing-mode:lr-tb;fill:#000000;fill-opacity:1;fill-rule:nonzero;stroke:none"
           id="text76"><tspan
             x="0"
             y="0"
             id="tspan74">T</tspan></text>
        <text
           xml:space="preserve"
           transform="translate(1414,311)"
           style="font-variant:normal;font-weight:bold;font-size:33px;font-family:'Times New Roman';-inkscape-font-specification:TimesNewRomanPS-BoldMT;writing-mode:lr-tb;fill:#000000;fill-opacity:1;fill-rule:nonzero;stroke:none"
           id="text80"><tspan
             x="0 26"
             y="0"
             sodipodi:role="line"
             id="tspan78">HE</tspan></text>
        <text
           xml:space="preserve"
           transform="translate(1470,311)"
           style="font-variant:normal;font-weight:bold;font-size:33px;font-family:'Times New Roman';-inkscape-font-specification:TimesNewRomanPS-BoldMT;writing-mode:lr-tb;fill:#000000;fill-opacity:1;fill-rule:nonzero;stroke:none"
           id="text84"><tspan
             x="0"
             y="0"
             id="tspan82">T</tspan></text>
        <text
           xml:space="preserve"
           transform="translate(1492,311)"
           style="font-variant:normal;font-weight:bold;font-size:33px;font-family:'Times New Roman';-inkscape-font-specification:TimesNewRomanPS-BoldMT;writing-mode:lr-tb;fill:#000000;fill-opacity:1;fill-rule:nonzero;stroke:none"
           id="text88"><tspan
             x="0 22 40 62 75 99"
             y="0"
             sodipodi:role="line"
             id="tspan86">ESTING</tspan></text>
        <text
           xml:space="preserve"
           transform="translate(1624,311)"
           style="font-variant:normal;font-weight:bold;font-size:33px;font-family:'Times New Roman';-inkscape-font-specification:TimesNewRomanPS-BoldMT;writing-mode:lr-tb;fill:#000000;fill-opacity:1;fill-rule:nonzero;stroke:none"
           id="text92"><tspan
             x="0 23 43"
             y="0"
             sodipodi:role="line"
             id="tspan90">API</tspan></text>
        <text
           xml:space="preserve"
           transform="translate(1392,356)"
           style="font-variant:normal;font-weight:normal;font-size:20px;font-family:'Times New Roman';-inkscape-font-specification:TimesNewRomanPSMT;writing-mode:lr-tb;fill:#000000;fill-opacity:1;fill-rule:nonzero;stroke:none"
           id="text96"><tspan
             x="0 12 21 30 35 50 59 68 73 78 88 93 102 111 120 130 144 154 160 166 174 183 188 193 202 208 216 221 230 240 249 255 260 266 274 279 284 294 299 308 315 324 333 338 347 352 361 366 374 384 393 402 408 414 420 429 434 448 459 465 470 475 484 493 498 503 508 517 526 531 536 545 553 558 566 571 580 589 598 603 612 620 629 634 639"
             y="0"
             sodipodi:role="line"
             id="tspan94">The way to accomplish this goal is to create a specific API that the tests can use to</tspan></text>
        <text
           xml:space="preserve"
           transform="translate(1392,379)"
           style="font-variant:normal;font-weight:normal;font-size:20px;font-family:'Times New Roman';-inkscape-font-specification:TimesNewRomanPSMT;writing-mode:lr-tb;fill:#000000;fill-opacity:1;fill-rule:nonzero;stroke:none"
           id="text100"><tspan
             x="0 10 19 26 32 38 47 52 61 67 73 78 83 92 101 106 116 125 133 139 148 157 165 173 178 185 194 200 209 217 222 227 239 248 254 262 267 281 292 298 303 311 320 330 339 345 355 360 369 378 388 397 402 410 419 429 438 445 455 465 480 489 496 504 509 514 523 532 537 542 551 557 563 573 588 593 598 607 616 621 626 635 643 648 656 661 666"
             y="0"
             sodipodi:role="line"
             id="tspan98">verify all the business rules. This API should have superpowers that allow the tests to</tspan></text>
        <text
           xml:space="preserve"
           transform="translate(1392,402)"
           style="font-variant:normal;font-weight:normal;font-size:20px;font-family:'Times New Roman';-inkscape-font-specification:TimesNewRomanPSMT;writing-mode:lr-tb;fill:#000000;fill-opacity:1;fill-rule:nonzero;stroke:none"
           id="text104"><tspan
             x="0 9 19 29 35 45 50 58 67 76 85 92 98 103 112 117 126 136 145 153 158 165 174 180 189 194 202 207 212 222 231 241 250 258 266 271 280 289 299 308 317 325 331 341 350 355 362 371 379 389 398 405 414 423 431 436 443 451 460 469 478 483 492 500 505 515 524 529 538 548 557 565 574 582 589 594 599 608 617 627 632 638 648 655 664"
             y="0"
             sodipodi:role="line"
             id="tspan102">avoid security constraints, bypass expensive resources (such as databases), and force</tspan></text>
        <text
           xml:space="preserve"
           transform="translate(1392,425)"
           style="font-variant:normal;font-weight:normal;font-size:20px;font-family:'Times New Roman';-inkscape-font-specification:TimesNewRomanPSMT;writing-mode:lr-tb;fill:#000000;fill-opacity:1;fill-rule:nonzero;stroke:none"
           id="text108"><tspan
             x="0 5 14 23 28 36 45 53 58 67 81 86 92 101 106 116 121 131 140 147 152 158 167 176 182 191 198 203 208 217 225 230 239 249 255 264 269 277 282 291 296 305 313 318 323 335 344 350 358 363 377 388 394 399 414 420 426 432 437 447 456 461 470 475 483 492 502 511 518 526 535 540 545 555 561 566 571 580 589 594 602 611 617 622 631 636 646"
             y="0"
             sodipodi:role="line"
             id="tspan106">the system into particular testable states. This API will be a superset of the suite of</tspan></text>
        <text
           xml:space="preserve"
           transform="translate(1392,448)"
           style="font-variant:normal;font-weight:normal;font-size:20px;font-family:'Times New Roman';-inkscape-font-specification:TimesNewRomanPSMT;writing-mode:lr-tb;fill:#000000;fill-opacity:1;fill-rule:nonzero;stroke:none"
           id="text112"><tspan
             x="0 6 15 20 29 36 45 54 59 69 76"
             y="0"
             sodipodi:role="line"
             id="tspan110">interactors</tspan></text>
        <text
           xml:space="preserve"
           transform="translate(1481,448)"
           style="font-variant:normal;font-weight:normal;font-size:20px;font-family:'Times New Roman';-inkscape-font-specification:TimesNewRomanPSMT;writing-mode:lr-tb;fill:#000000;fill-opacity:1;fill-rule:nonzero;stroke:none"
           id="text116"><tspan
             x="0 9 18 28"
             y="0"
             sodipodi:role="line"
             id="tspan114">and </tspan></text>
        <text
           xml:space="preserve"
           transform="translate(1514,448)"
           style="font-variant:normal;font-weight:normal;font-size:20px;font-family:'Times New Roman';-inkscape-font-specification:TimesNewRomanPSMT;writing-mode:lr-tb;fill:#000000;fill-opacity:1;fill-rule:nonzero;stroke:none"
           id="text120"><tspan
             x="0 6 15 20 29 36 42 51 60 69 74 83 93 102 112 117 126 133"
             y="0"
             sodipodi:role="line"
             id="tspan118">interface adapters</tspan></text>
        <text
           xml:space="preserve"
           transform="translate(1660,448)"
           style="font-variant:normal;font-weight:normal;font-size:20px;font-family:'Times New Roman';-inkscape-font-specification:TimesNewRomanPSMT;writing-mode:lr-tb;fill:#000000;fill-opacity:1;fill-rule:nonzero;stroke:none"
           id="text124"><tspan
             x="0 5 14 23 28 33 42 49 58 63 72 80 89 99 104 114 123 128 133 142 151 156 165 173 182 189 194 200 209 214 223 230 236 245 254 263"
             y="0"
             sodipodi:role="line"
             id="tspan122">that are used by the user interface.</tspan></text>
        <text
           xml:space="preserve"
           transform="translate(1392,491)"
           style="font-variant:normal;font-weight:normal;font-size:20px;font-family:'Times New Roman';-inkscape-font-specification:TimesNewRomanPSMT;writing-mode:lr-tb;fill:#000000;fill-opacity:1;fill-rule:nonzero;stroke:none"
           id="text128"><tspan
             x="0 12 21 30 35 45 54 61 71 81 89 98 103 113 119 124 129 138 147 152 157 166 174 179 185 194 203 208 222 233 239 244 250 258 263 268 278 283 293 302 311 321 330 340 346 355 360 365 374 383 388 393 402 410 415 423 428 434 441 451 465 470 475 484 493 498 507 517 527 533 539 548 557 562 568 578 587 592 597 609 618 624"
             y="0"
             sodipodi:role="line"
             id="tspan126">The purpose of the testing API is to decouple the tests from the application. This</tspan></text>
        <text
           xml:space="preserve"
           transform="translate(1392,514)"
           style="font-variant:normal;font-weight:normal;font-size:20px;font-family:'Times New Roman';-inkscape-font-specification:TimesNewRomanPSMT;writing-mode:lr-tb;fill:#000000;fill-opacity:1;fill-rule:nonzero;stroke:none"
           id="text132"><tspan
             x="0 10 19 28 38 47 57 63 69 78 87 92 101 110 119 129 143 153 162 170 178 187 195 200 214 224 231 240 245 250 259 268 277 282 288 297 305 310 315 325 334 339 348 357 366 372 381 390 395 400 409 418 423 428 437 445 450 458 463 469 476 486 500 505 510 519 528 533 546 552 558 563 575 584 593 598 607 617 626 632 637 643 651 656 661"
             y="0"
             sodipodi:role="line"
             id="tspan130">decoupling encompasses more than just detaching the tests from the UI: The goal is to</tspan></text>
        <text
           xml:space="preserve"
           transform="translate(1392,537)"
           style="font-variant:normal;font-weight:normal;font-size:20px;font-family:'Times New Roman';-inkscape-font-specification:TimesNewRomanPSMT;writing-mode:lr-tb;fill:#000000;fill-opacity:1;fill-rule:nonzero;stroke:none"
           id="text136"><tspan
             x="0 10 19 28 38 47 57 63 72 77 82 91 100"
             y="0"
             sodipodi:role="line"
             id="tspan134">decouple the </tspan></text>
        <text
           xml:space="preserve"
           transform="translate(1497,537)"
           style="font-variant:normal;font-weight:normal;font-size:20px;font-family:'Times New Roman';-inkscape-font-specification:TimesNewRomanPSMT;writing-mode:lr-tb;fill:#000000;fill-opacity:1;fill-rule:nonzero;stroke:none"
           id="text140"><tspan
             x="0 8 13 20 29 38 43 52 59"
             y="0"
             sodipodi:role="line"
             id="tspan138">structure</tspan></text>
        <text
           xml:space="preserve"
           transform="translate(1570,537)"
           style="font-variant:normal;font-weight:normal;font-size:20px;font-family:'Times New Roman';-inkscape-font-specification:TimesNewRomanPSMT;writing-mode:lr-tb;fill:#000000;fill-opacity:1;fill-rule:nonzero;stroke:none"
           id="text144"><tspan
             x="0 10 16 21 26 35 44 49 54 63 71 76 84 89 95 102 112 126 131 136 145 154"
             y="0"
             sodipodi:role="line"
             id="tspan142">of the tests from the </tspan></text>
        <text
           xml:space="preserve"
           transform="translate(1729,537)"
           style="font-variant:normal;font-weight:normal;font-size:20px;font-family:'Times New Roman';-inkscape-font-specification:TimesNewRomanPSMT;writing-mode:lr-tb;fill:#000000;fill-opacity:1;fill-rule:nonzero;stroke:none"
           id="text148"><tspan
             x="0 8 13 20 29 38 43 52 59"
             y="0"
             sodipodi:role="line"
             id="tspan146">structure</tspan></text>
        <text
           xml:space="preserve"
           transform="translate(1802,537)"
           style="font-variant:normal;font-weight:normal;font-size:20px;font-family:'Times New Roman';-inkscape-font-specification:TimesNewRomanPSMT;writing-mode:lr-tb;fill:#000000;fill-opacity:1;fill-rule:nonzero;stroke:none"
           id="text152"><tspan
             x="0 10 16 21 26 35 44 49 58 68 78 84 90 99 108 113 119 129 138"
             y="0"
             sodipodi:role="line"
             id="tspan150">of the application.</tspan></text>
        <text
           xml:space="preserve"
           transform="translate(1392,587)"
           style="font-variant:normal;font-weight:bold;font-size:23px;font-family:'Times New Roman';-inkscape-font-specification:TimesNewRomanPS-BoldMT;writing-mode:lr-tb;fill:#000000;fill-opacity:1;fill-rule:nonzero;stroke:none"
           id="text156"><tspan
             x="0"
             y="0"
             id="tspan154">S</tspan></text>
        <text
           xml:space="preserve"
           transform="translate(1405,587)"
           style="font-variant:normal;font-weight:bold;font-size:23px;font-family:'Times New Roman';-inkscape-font-specification:TimesNewRomanPS-BoldMT;writing-mode:lr-tb;fill:#000000;fill-opacity:1;fill-rule:nonzero;stroke:none"
           id="text160"><tspan
             x="0 15 32 49 66 81 98 115 131"
             y="0"
             sodipodi:role="line"
             id="tspan158">TRUCTURAL</tspan></text>
        <text
           xml:space="preserve"
           transform="translate(1557,587)"
           style="font-variant:normal;font-weight:bold;font-size:23px;font-family:'Times New Roman';-inkscape-font-specification:TimesNewRomanPS-BoldMT;writing-mode:lr-tb;fill:#000000;fill-opacity:1;fill-rule:nonzero;stroke:none"
           id="text164"><tspan
             x="0"
             y="0"
             id="tspan162">C</tspan></text>
        <text
           xml:space="preserve"
           transform="translate(1574,587)"
           style="font-variant:normal;font-weight:bold;font-size:23px;font-family:'Times New Roman';-inkscape-font-specification:TimesNewRomanPS-BoldMT;writing-mode:lr-tb;fill:#000000;fill-opacity:1;fill-rule:nonzero;stroke:none"
           id="text168"><tspan
             x="0 18 35 50 65 74 91"
             y="0"
             sodipodi:role="line"
             id="tspan166">OUPLING</tspan></text>
        <text
           xml:space="preserve"
           transform="translate(1392,630)"
           style="font-variant:normal;font-weight:normal;font-size:20px;font-family:'Times New Roman';-inkscape-font-specification:TimesNewRomanPSMT;writing-mode:lr-tb;fill:#000000;fill-opacity:1;fill-rule:nonzero;stroke:none"
           id="text172"><tspan
             x="0 11 16 23 32 41 46 55 62 71 77 82 91 101 110 120 126 132 141 150 155 161 169 174 184 193 202 207 217 223 228 233 242 251 256 264 269 276 286 295 304 313 321 326 331 336 345 354 364 369 383 393 401 406 411 417 426 434 440 450 456 466 475 483 488 493 499 509 516 530 538 543 553 559 564 569 578 586 591 596 605 615 624 634 640 646 655 664"
             y="0"
             sodipodi:role="line"
             id="tspan170">Structural coupling is one of the strongest, and most insidious, forms of test coupling.</tspan></text>
        <text
           xml:space="preserve"
           transform="translate(1392,653)"
           style="font-variant:normal;font-weight:normal;font-size:20px;font-family:'Times New Roman';-inkscape-font-specification:TimesNewRomanPSMT;writing-mode:lr-tb;fill:#000000;fill-opacity:1;fill-rule:nonzero;stroke:none"
           id="text176"><tspan
             x="0 6 20 29 38 44 53 62 67 76 81 86 95 103 108 113 121 130 136 141 150 155 160 169 178 183 188 197 206 214 219 228 233 238 247 255 260 265 274 280 289 297 305 310 316 326 333 338 347 357 366 373 382 387 397 404 414 424 433 442 447 453 463 472 477 486 492 501 509 517 522 527 536 545 555 560 569 574 582 591 596 601 611 617 622 627 636 644"
             y="0"
             sodipodi:role="line"
             id="tspan174">Imagine a test suite that has a test class for every production class, and a set of test</tspan></text>
        <text
           xml:space="preserve"
           transform="translate(1392,676)"
           style="font-variant:normal;font-weight:normal;font-size:20px;font-family:'Times New Roman';-inkscape-font-specification:TimesNewRomanPSMT;writing-mode:lr-tb;fill:#000000;fill-opacity:1;fill-rule:nonzero;stroke:none"
           id="text180"><tspan
             x="0 14 23 28 37 47 57 65 70 76 86 93 98 107 117 126 133 142 147 157 164 174 184 193 202 207 213 223 232 237 251 260 265 274 284 294 299 304 315 324 333 342 347 356 361 366 375 383 388 393 401 410 416 421 430 435 441 449 454 464 473 482 492 498 507 512 521 531 540 550 556 565 575 580 585 595 600 605 614 623 628 636 641 648 657 666 671 680 687"
             y="0"
             sodipodi:role="line"
             id="tspan178">methods for every production method. Such a test suite is deeply coupled to the structure</tspan></text>
        <text
           xml:space="preserve"
           transform="translate(1392,699)"
           style="font-variant:normal;font-weight:normal;font-size:20px;font-family:'Times New Roman';-inkscape-font-specification:TimesNewRomanPSMT;writing-mode:lr-tb;fill:#000000;fill-opacity:1;fill-rule:nonzero;stroke:none"
           id="text184"><tspan
             x="0 10 16 21 26 35 44 49 58 68 78 84 90 99 108 113 119 129 138"
             y="0"
             sodipodi:role="line"
             id="tspan182">of the application.</tspan></text>
        <text
           xml:space="preserve"
           transform="translate(1392,742)"
           style="font-variant:normal;font-weight:normal;font-size:20px;font-family:'Times New Roman';-inkscape-font-specification:TimesNewRomanPSMT;writing-mode:lr-tb;fill:#000000;fill-opacity:1;fill-rule:nonzero;stroke:none"
           id="text188"><tspan
             x="0 18 27 36 45 50 60 69 78 83 93 99 104 109 118 128 136 145 150 160 167 177 187 196 205 210 216 226 235 240 254 263 268 277 287 297 305 310 320 327 332 341 347 356 364 372 381 389 394 403 412 421 430 439 448 456 461 466 475 480 486 495 502 511 520 525 534 543 557 567 576 583 588 598 604 609 614 623 631 636 644 649 663 672 680"
             y="0"
             sodipodi:role="line"
             id="tspan186">When one of those production methods or classes changes, a large number of tests must</tspan></text>
        <text
           xml:space="preserve"
           transform="translate(1392,765)"
           style="font-variant:normal;font-weight:normal;font-size:20px;font-family:'Times New Roman';-inkscape-font-specification:TimesNewRomanPSMT;writing-mode:lr-tb;fill:#000000;fill-opacity:1;fill-rule:nonzero;stroke:none"
           id="text192"><tspan
             x="0 9 18 27 36 45 54 59 68 76 81 96 105 111 117 122 127 140 150 159 167 176 186 195 204 213 218 224 232 237 242 247 256 265 270 275 284 292 297 305 310 319 326 335 340 346 353 362 371 377 383 392 397 402 411 420 430 435 440 449 458 467 472 486 495 504 513 518 523 532 541 546 556 563 573 583 592 601 606 612 622 631 636 645 655 665"
             y="0"
             sodipodi:role="line"
             id="tspan190">change as well. Consequently, the tests are fragile, and they make the production code</tspan></text>
        <text
           xml:space="preserve"
           transform="translate(1392,788)"
           style="font-variant:normal;font-weight:normal;font-size:20px;font-family:'Times New Roman';-inkscape-font-specification:TimesNewRomanPSMT;writing-mode:lr-tb;fill:#000000;fill-opacity:1;fill-rule:nonzero;stroke:none"
           id="text196"><tspan
             x="0 7 13 22 28 38"
             y="0"
             sodipodi:role="line"
             id="tspan194">rigid.</tspan></text>
        <text
           xml:space="preserve"
           transform="translate(1392,831)"
           style="font-variant:normal;font-weight:normal;font-size:20px;font-family:'Times New Roman';-inkscape-font-specification:TimesNewRomanPSMT;writing-mode:lr-tb;fill:#000000;fill-opacity:1;fill-rule:nonzero;stroke:none"
           id="text200"><tspan
             x="0 12 21 30 35 42 52 58 67 72 82 88 93 98 107 116 121 126 135 143 148 154 163 172 177 191 202 208 213 219 227 232 237 247 252 261 267 277 286 291 296 305 314 319 327 332 339 348 357 362 371 378 387 392 402 408 413 418 427 436 441 450 460 470 476 482 491 500 505 511 521 530 535 541 548 558 572 577 582 591 600 605 610 619 627 632 640 645 650 662 671 677"
             y="0"
             sodipodi:role="line"
             id="tspan198">The role of the testing API is to hide the structure of the application from the tests. This</tspan></text>
        <text
           xml:space="preserve"
           transform="translate(1392,854)"
           style="font-variant:normal;font-weight:normal;font-size:20px;font-family:'Times New Roman';-inkscape-font-specification:TimesNewRomanPSMT;writing-mode:lr-tb;fill:#000000;fill-opacity:1;fill-rule:nonzero;stroke:none"
           id="text204"><tspan
             x="0 9 15 21 31 46 54 59 64 73 82 87 97 104 114 124 133 142 147 153 163 172 177 186 196 206 215 220 225 235 240 250 259 264 271 280 286 295 304 309 319 326 335 345 350 359 368 378 383 392 402 412 418 428 437 447 452 458 467 472 487 496 505 513 518 523 532 541 546 551 561 571 580 587 592 597 606 612 618 627 636 641 646 651 660"
             y="0"
             sodipodi:role="line"
             id="tspan202">allows the production code to be refactored and evolved in ways that don’t affect the</tspan></text>
        <text
           xml:space="preserve"
           transform="translate(1392,877)"
           style="font-variant:normal;font-weight:normal;font-size:20px;font-family:'Times New Roman';-inkscape-font-specification:TimesNewRomanPSMT;writing-mode:lr-tb;fill:#000000;fill-opacity:1;fill-rule:nonzero;stroke:none"
           id="text208"><tspan
             x="0 5 14 22 27 35 40 45 51 56 61 70 76 84 94 99 108 114 120 130 145 153 158 163 172 181 186 191 200 208 213 221 226 231 241 246 256 265 270 277 286 292 301 310 315 325 332 341 351 356 365 374 384 389 398 408 418 424 434 443 453 458 464 473 478 493 502 511 519 524 529 538 547 552 557 567 577 586 593 598 603 612 618 624 633 642 647 652 657 666"
             y="0"
             sodipodi:role="line"
             id="tspan206">tests. It also allows the tests to be refactored and evolved in ways that don’t affect the</tspan></text>
        <text
           xml:space="preserve"
           transform="translate(1392,900)"
           style="font-variant:normal;font-weight:normal;font-size:20px;font-family:'Times New Roman';-inkscape-font-specification:TimesNewRomanPSMT;writing-mode:lr-tb;fill:#000000;fill-opacity:1;fill-rule:nonzero;stroke:none"
           id="text212"><tspan
             x="0 10 17 27 37 46 55 60 66 76 85 90 99 109 119 128"
             y="0"
             sodipodi:role="line"
             id="tspan210">production code.</tspan></text>
        <text
           xml:space="preserve"
           transform="translate(1392,943)"
           style="font-variant:normal;font-weight:normal;font-size:20px;font-family:'Times New Roman';-inkscape-font-specification:TimesNewRomanPSMT;writing-mode:lr-tb;fill:#000000;fill-opacity:1;fill-rule:nonzero;stroke:none"
           id="text216"><tspan
             x="0 12 21 27 35 40 48 57 67 76 83 92 97 103 113 122 127 137 143 148 157 167 177 183 192 197 203 213 222 227 233 241 246 255 264 273 282 290 298 307 314 323 328 338 347 356 365 374 382 391 396 405 413 418 423 429 443 452 457 467 476 484 492 501 509 514 519 524 533 542 547 552 561 569 574 582 587 592 601 610 620 625 630"
             y="0"
             sodipodi:role="line"
             id="tspan214">This separation of evolution is necessary because as time passes, the tests tend to</tspan></text>
        <text
           xml:space="preserve"
           transform="translate(1392,966)"
           style="font-variant:normal;font-weight:normal;font-size:20px;font-family:'Times New Roman';-inkscape-font-specification:TimesNewRomanPSMT;writing-mode:lr-tb;fill:#000000;fill-opacity:1;fill-rule:nonzero;stroke:none"
           id="text220"><tspan
             x="0 10 19 28 38 52 61 66 72 81 90 97 106 115 123 129 138 147 153 162 167 181 191 198 207 212 221 231 240 249 256 265 270 279 284 293 302 312 317 325 335 344 353 359 365 371 380 385 390 396 405 410 419 429 438 443 450 459 467 472 477 482 487 496 505 510 520 527 537 547 556 565 570 576 586 595 600 609 619 629 638 643 648 657 666 676"
             y="0"
             sodipodi:role="line"
             id="tspan218">become increasingly more concrete and specific. In contrast, the production code tends</tspan></text>
        <text
           xml:space="preserve"
           transform="translate(1392,989)"
           style="font-variant:normal;font-weight:normal;font-size:20px;font-family:'Times New Roman';-inkscape-font-specification:TimesNewRomanPSMT;writing-mode:lr-tb;fill:#000000;fill-opacity:1;fill-rule:nonzero;stroke:none"
           id="text224"><tspan
             x="0 5 15 20 30 39 48 58 72 81 86 92 101 110 117 126 135 143 149 158 167 173 182 187 201 211 218 227 232 241 251 259 264 271 280 289 294 299 308 317 327 332 341 350 359 368 375 384 390 395 400 411 416 423 433 442 451 456 464 469 476 485 494 499 508 515 524 530 535 544 554 563 573 579 585 594 603 608 618 625 634 644 653 662 667 675"
             y="0"
             sodipodi:role="line"
             id="tspan222">to become increasingly more abstract and general. Strong structural coupling prevents—</tspan></text>
      </g>
    </g>
  </g>
</svg>
