<?xml version="1.0" encoding="UTF-8" standalone="no"?>
<!-- Created with Inkscape (http://www.inkscape.org/) -->

<svg
   version="1.1"
   id="svg2"
   width="816"
   height="1056"
   viewBox="0 0 816 1056"
   sodipodi:docname="clean_arch.pdf"
   xmlns:inkscape="http://www.inkscape.org/namespaces/inkscape"
   xmlns:sodipodi="http://sodipodi.sourceforge.net/DTD/sodipodi-0.dtd"
   xmlns="http://www.w3.org/2000/svg"
   xmlns:svg="http://www.w3.org/2000/svg">
  <defs
     id="defs6">
    <clipPath
       clipPathUnits="userSpaceOnUse"
       id="clipPath18">
      <path
         d="m 6264,0 h 696 V 1056 H 6264 V 0"
         clip-rule="evenodd"
         id="path16" />
    </clipPath>
    <clipPath
       clipPathUnits="userSpaceOnUse"
       id="clipPath28">
      <path
         d="m 6264,66 h 696 V 996 H 6264 V 66"
         clip-rule="evenodd"
         id="path26" />
    </clipPath>
  </defs>
  <sodipodi:namedview
     id="namedview4"
     pagecolor="#ffffff"
     bordercolor="#000000"
     borderopacity="0.25"
     inkscape:showpageshadow="2"
     inkscape:pageopacity="0.0"
     inkscape:pagecheckerboard="0"
     inkscape:deskcolor="#d1d1d1" />
  <g
     id="g8"
     inkscape:groupmode="layer"
     inkscape:label="clean_arch"
     transform="translate(59.999999,2.64e-5)">
    <g
       id="g10" />
    <g
       id="g12"
       transform="translate(-6264)">
      <g
         id="g14"
         clip-path="url(#clipPath18)">
        <g
           id="g20" />
      </g>
    </g>
    <g
       id="g22"
       transform="translate(-6264)">
      <g
         id="g24"
         clip-path="url(#clipPath28)">
        <text
           xml:space="preserve"
           transform="translate(6264,82.67188)"
           style="font-variant:normal;font-weight:normal;font-size:20px;font-family:'Times New Roman';-inkscape-font-specification:TimesNewRomanPSMT;writing-mode:lr-tb;fill:#000000;fill-opacity:1;fill-rule:nonzero;stroke:none"
           id="text32"><tspan
             x="0 9 19 29 35 45 50 56 61 69 74 84 99 108 113 123 133 142 149 158 168 177 183 189 199 208 217 226 235 240 249 258 268 273 278 288 293 301 306 315 322 327 332 337 346 355 361 370 379 384 389 398 407 412 422 431 440 446 452 457 466 471 481 487 492 498 503 511 516 524 534 540 545 560 569 576 585 590 599 606 615 624 630 635 644 653 658 667 674"
             y="0"
             sodipodi:role="line"
             id="tspan30">avoid its own overconfidence and to start taking the quality of its software architecture</tspan></text>
        <text
           xml:space="preserve"
           transform="translate(6264,106)"
           style="font-variant:normal;font-weight:normal;font-size:20px;font-family:'Times New Roman';-inkscape-font-specification:TimesNewRomanPSMT;writing-mode:lr-tb;fill:#000000;fill-opacity:1;fill-rule:nonzero;stroke:none"
           id="text36"><tspan
             x="0 8 17 24 30 40 49 57 63 71"
             y="0"
             sodipodi:role="line"
             id="tspan34">seriously.</tspan></text>
        <text
           xml:space="preserve"
           transform="translate(6264,149)"
           style="font-variant:normal;font-weight:normal;font-size:20px;font-family:'Times New Roman';-inkscape-font-specification:TimesNewRomanPSMT;writing-mode:lr-tb;fill:#000000;fill-opacity:1;fill-rule:nonzero;stroke:none"
           id="text40"><tspan
             x="0 10 20 25 30 39 48 57 62 70 80 86 91 106 115 122 131 136 145 152 161 170 176 181 190 199 204 213 220 229 234 242 251 258 264 274 283 291 297 305 310 315 324 334 343 348 357 366 375 385 390 395 405 410 419 428 438 453 458 473 482 491 496 501 510 520 530 540 545 553 563 569 574 589 598 605"
             y="0"
             sodipodi:role="line"
             id="tspan38">To take software architecture seriously, you need to know what good software</tspan></text>
        <text
           xml:space="preserve"
           transform="translate(6264,172)"
           style="font-variant:normal;font-weight:normal;font-size:20px;font-family:'Times New Roman';-inkscape-font-specification:TimesNewRomanPSMT;writing-mode:lr-tb;fill:#000000;fill-opacity:1;fill-rule:nonzero;stroke:none"
           id="text44"><tspan
             x="0 9 16 25 34 40 45 54 63 68 77 84 93 98 104 112 117 122 132 142 147 157 166 172 178 188 193 202 207 215 224 232 237 246 260 265 280 286 291 300 305 314 319 329 338 346 352 361 370 375 384 393 403 408 417 426 431 440 447 456 465 471 476 485 494 499 508 515 524 529 534 543 552 557 562 576 582 591 597 611 617 625 634 639 648 654 660 670 677"
             y="0"
             sodipodi:role="line"
             id="tspan42">architecture is. To build a system with a design and an architecture that minimize effort</tspan></text>
        <text
           xml:space="preserve"
           transform="translate(6264,195)"
           style="font-variant:normal;font-weight:normal;font-size:20px;font-family:'Times New Roman';-inkscape-font-specification:TimesNewRomanPSMT;writing-mode:lr-tb;fill:#000000;fill-opacity:1;fill-rule:nonzero;stroke:none"
           id="text48"><tspan
             x="0 9 18 28 33 47 56 65 71 85 91 99 108 113 123 130 140 150 159 168 173 179 189 195 200 208 213 218 227 237 246 251 260 269 278 288 293 298 308 313 322 331 341 356 361 376 385 391 400 409 414 423 428 433 440 446 456 465 470 479 487 492 502 508 513 521 530 538 543 552 566 571 580 587 596 605 611 616 625 634 639 648 655"
             y="0"
             sodipodi:role="line"
             id="tspan46">and maximize productivity, you need to know which attributes of system architecture</tspan></text>
        <text
           xml:space="preserve"
           transform="translate(6264,218)"
           style="font-variant:normal;font-weight:normal;font-size:20px;font-family:'Times New Roman';-inkscape-font-specification:TimesNewRomanPSMT;writing-mode:lr-tb;fill:#000000;fill-opacity:1;fill-rule:nonzero;stroke:none"
           id="text52"><tspan
             x="0 6 15 24 34 39 44 54 59 64 73 82 87 92 101 110 120"
             y="0"
             sodipodi:role="line"
             id="tspan50">lead to that end.</tspan></text>
        <text
           xml:space="preserve"
           transform="translate(6264,261)"
           style="font-variant:normal;font-weight:normal;font-size:20px;font-family:'Times New Roman';-inkscape-font-specification:TimesNewRomanPSMT;writing-mode:lr-tb;fill:#000000;fill-opacity:1;fill-rule:nonzero;stroke:none"
           id="text56"><tspan
             x="0 12 21 30 35 41 49 54 69 78 87 92 97 102 111 117 125 130 140 150 160 169 174 180 188 193 202 212 222 231 236 241 246 252 257 262 272 281 289 298 305 311 321 330 338 343 358 367 376 381 386 395 405 415 425 430 439 445 454 463 472 477 486 493 502 511 517 522 531 540 545 554 561 570 578 583 592 601 611 616 626 635 643 649 658 667"
             y="0"
             sodipodi:role="line"
             id="tspan54">That’s what this book is about. It describes what good clean architectures and designs</tspan></text>
        <text
           xml:space="preserve"
           transform="translate(6264,284)"
           style="font-variant:normal;font-weight:normal;font-size:20px;font-family:'Times New Roman';-inkscape-font-specification:TimesNewRomanPSMT;writing-mode:lr-tb;fill:#000000;fill-opacity:1;fill-rule:nonzero;stroke:none"
           id="text60"><tspan
             x="0 6 16 26 35 40 46 52 61 70 75 80 88 98 103 108 117 126 131 136 144 154 160 165 180 189 196 205 210 220 229 239 248 254 264 274 283 290 298 303 312 321 330 335 345 354 360 366 376 381 389 398 406 411 420 434 442 447 452 461 470 475 480 495 501 507 513 518 527 536 546 555 560 566 576 585 594 599 609 616 626 632 638 643 652 662 668"
             y="0"
             sodipodi:role="line"
             id="tspan58">look like, so that software developers can build systems that will have long profitable</tspan></text>
        <text
           xml:space="preserve"
           transform="translate(6264,307)"
           style="font-variant:normal;font-weight:normal;font-size:20px;font-family:'Times New Roman';-inkscape-font-specification:TimesNewRomanPSMT;writing-mode:lr-tb;fill:#000000;fill-opacity:1;fill-rule:nonzero;stroke:none"
           id="text64"><tspan
             x="0 6 12 18 27 32 38 52 61 69"
             y="0"
             sodipodi:role="line"
             id="tspan62">lifetimes.</tspan></text>
      </g>
    </g>
  </g>
</svg>
