<?xml version="1.0" encoding="UTF-8" standalone="no"?>
<!-- Created with Inkscape (http://www.inkscape.org/) -->

<svg
   version="1.1"
   id="svg2"
   width="816"
   height="1056"
   viewBox="0 0 816 1056"
   sodipodi:docname="clean_arch.pdf"
   xmlns:inkscape="http://www.inkscape.org/namespaces/inkscape"
   xmlns:sodipodi="http://sodipodi.sourceforge.net/DTD/sodipodi-0.dtd"
   xmlns="http://www.w3.org/2000/svg"
   xmlns:svg="http://www.w3.org/2000/svg">
  <defs
     id="defs6">
    <clipPath
       clipPathUnits="userSpaceOnUse"
       id="clipPath18">
      <path
         d="m 2784,0 h 696 V 1056 H 2784 V 0"
         clip-rule="evenodd"
         id="path16" />
    </clipPath>
    <clipPath
       clipPathUnits="userSpaceOnUse"
       id="clipPath28">
      <path
         d="m 2784,66 h 696 V 996 H 2784 V 66"
         clip-rule="evenodd"
         id="path26" />
    </clipPath>
  </defs>
  <sodipodi:namedview
     id="namedview4"
     pagecolor="#ffffff"
     bordercolor="#000000"
     borderopacity="0.25"
     inkscape:showpageshadow="2"
     inkscape:pageopacity="0.0"
     inkscape:pagecheckerboard="0"
     inkscape:deskcolor="#d1d1d1" />
  <g
     id="g8"
     inkscape:groupmode="layer"
     inkscape:label="clean_arch"
     transform="translate(59.999999,2.64e-5)">
    <g
       id="g10" />
    <g
       id="g12"
       transform="translate(-2784)">
      <g
         id="g14"
         clip-path="url(#clipPath18)">
        <g
           id="g20" />
      </g>
    </g>
    <g
       id="g22"
       transform="translate(-2784)">
      <g
         id="g24"
         clip-path="url(#clipPath28)">
        <text
           xml:space="preserve"
           transform="translate(2784,82.67188)"
           style="font-variant:normal;font-weight:normal;font-size:20px;font-family:'Times New Roman';-inkscape-font-specification:TimesNewRomanPSMT;writing-mode:lr-tb;fill:#000000;fill-opacity:1;fill-rule:nonzero;stroke:none"
           id="text32"><tspan
             x="0 5 14 23 28 42 51 61 70 79 89 98 107 116 125 130 136 145 155 164 171 179 185 195 204 209 220 227 233 242 251 257 267 273 282 287 292 297 306 315 320 331 336 345 355 361 370 375 389 398 408 417 426 436 445 454 463 469 478 486 491 502 509 515 524 533 539 549 555 564 569 574 583 592 602 607 612 621 630 635 646 651 660 670 676"
             y="0"
             sodipodi:role="line"
             id="tspan30">the Dependency Inversion Principle, the Stable Dependencies Principle, and the Stable</tspan></text>
        <text
           xml:space="preserve"
           transform="translate(2784,105.6719)"
           style="font-variant:normal;font-weight:normal;font-size:20px;font-family:'Times New Roman';-inkscape-font-specification:TimesNewRomanPSMT;writing-mode:lr-tb;fill:#000000;fill-opacity:1;fill-rule:nonzero;stroke:none"
           id="text36"><tspan
             x="0 14 24 32 37 44 53 62 67 73 83 92 100 105 116 123 129 138 147 153 163 169 178 183 188 199 209 219 228 233 243 252 261 270 275 284 293 303 308 316 325 334 339 345 351 356 365 375 384 389 398 407 416 421 427 437 446 455 460 466 472 481 486 501 510 519 526 535 540 549 558 567 576 581 591 598 604 613 622 628 638 644 653 658 673 682"
             y="0"
             sodipodi:role="line"
             id="tspan34">Abstractions Principle. Look back and see if you can identify where each principle was</tspan></text>
        <text
           xml:space="preserve"
           transform="translate(2784,129)"
           style="font-variant:normal;font-weight:normal;font-size:20px;font-family:'Times New Roman';-inkscape-font-specification:TimesNewRomanPSMT;writing-mode:lr-tb;fill:#000000;fill-opacity:1;fill-rule:nonzero;stroke:none"
           id="text40"><tspan
             x="0 9 17 26 36 41 46 55 64 74 79 94 103 111"
             y="0"
             sodipodi:role="line"
             id="tspan38">used, and why.</tspan></text>
        <text
           xml:space="preserve"
           transform="translate(2784,168)"
           style="font-variant:normal;font-weight:normal;font-size:15px;font-family:'Times New Roman';-inkscape-font-specification:TimesNewRomanPSMT;writing-mode:lr-tb;fill:#0000ee;fill-opacity:1;fill-rule:nonzero;stroke:none"
           id="text44"><tspan
             x="0"
             y="0"
             id="tspan42">1</tspan></text>
        <path
           d="m 2784,169.5 h 6 z"
           style="fill:none;stroke:#0000ee;stroke-width:1;stroke-linecap:square;stroke-linejoin:miter;stroke-miterlimit:10;stroke-dasharray:none;stroke-opacity:1"
           id="path46" />
        <text
           xml:space="preserve"
           transform="translate(2791,168)"
           style="font-variant:normal;font-weight:normal;font-size:15px;font-family:'Times New Roman';-inkscape-font-specification:TimesNewRomanPSMT;writing-mode:lr-tb;fill:#000000;fill-opacity:1;fill-rule:nonzero;stroke:none"
           id="text50"><tspan
             x="0 4 8 21 28 31 34 37 42 46 55 62 69 76 81 87 94 101 108 114 118 125 132 135 138 145 152 156 160 167 170 176 180 187 194 205 212 219 226 233 240 244 248 252 259 266 270 276 286 293 300 304 309 316 319 323 331 336 343 350 356 361 368 373 384 391 395 398 405 409 416 419 425 429 436 443 450 457"
             y="0"
             sodipodi:role="line"
             id="tspan48">. Meilir Page-Jones called this component the “Central Transform” in his book </tspan></text>
        <text
           xml:space="preserve"
           transform="translate(3252,168)"
           style="font-variant:normal;font-weight:normal;font-size:15px;font-family:'Times New Roman';-inkscape-font-specification:TimesNewRomanPSMT;writing-mode:lr-tb;fill:#000000;fill-opacity:1;fill-rule:nonzero;stroke:none"
           id="text54"><tspan
             x="0 9 16 23 27 36 41 48 55 59 62 69 76 79 83 93 100 103 110 117 121 125 132 136 144 148 153 160 167 171 178 183 190"
             y="0"
             sodipodi:role="line"
             id="tspan52">The Practical Guide to Structured</tspan></text>
        <text
           xml:space="preserve"
           transform="translate(2799,186)"
           style="font-variant:normal;font-weight:normal;font-size:15px;font-family:'Times New Roman';-inkscape-font-specification:TimesNewRomanPSMT;writing-mode:lr-tb;fill:#000000;fill-opacity:1;fill-rule:nonzero;stroke:none"
           id="text58"><tspan
             x="0 8 15 21 25 32 43 49 53 64 71 77 80 87"
             y="0"
             sodipodi:role="line"
             id="tspan56">Systems Design</tspan></text>
        <text
           xml:space="preserve"
           transform="translate(2893,186)"
           style="font-variant:normal;font-weight:normal;font-size:15px;font-family:'Times New Roman';-inkscape-font-specification:TimesNewRomanPSMT;writing-mode:lr-tb;fill:#000000;fill-opacity:1;fill-rule:nonzero;stroke:none"
           id="text62"><tspan
             x="0 3 7 14 21 28 32 39 46 50 54 59 68 75 82 87 94 101 108 112 121 126 133 139 145 148 152 159 166 173 180 185"
             y="0"
             sodipodi:role="line"
             id="tspan60">, 2nd ed. (Yourdon Press, 1988).</tspan></text>
      </g>
    </g>
  </g>
</svg>
