<?xml version="1.0" encoding="UTF-8" standalone="no"?>
<!-- Created with Inkscape (http://www.inkscape.org/) -->

<svg
   version="1.1"
   id="svg2"
   width="816"
   height="1056"
   viewBox="0 0 816 1056"
   sodipodi:docname="clean_arch.pdf"
   xmlns:inkscape="http://www.inkscape.org/namespaces/inkscape"
   xmlns:sodipodi="http://sodipodi.sourceforge.net/DTD/sodipodi-0.dtd"
   xmlns="http://www.w3.org/2000/svg"
   xmlns:svg="http://www.w3.org/2000/svg">
  <defs
     id="defs6">
    <clipPath
       clipPathUnits="userSpaceOnUse"
       id="clipPath18">
      <path
         d="m 7656,0 h 696 V 1056 H 7656 V 0"
         clip-rule="evenodd"
         id="path16" />
    </clipPath>
    <clipPath
       clipPathUnits="userSpaceOnUse"
       id="clipPath28">
      <path
         d="m 7656,66 h 696 V 996 H 7656 V 66"
         clip-rule="evenodd"
         id="path26" />
    </clipPath>
  </defs>
  <sodipodi:namedview
     id="namedview4"
     pagecolor="#ffffff"
     bordercolor="#000000"
     borderopacity="0.25"
     inkscape:showpageshadow="2"
     inkscape:pageopacity="0.0"
     inkscape:pagecheckerboard="0"
     inkscape:deskcolor="#d1d1d1" />
  <g
     id="g8"
     inkscape:groupmode="layer"
     inkscape:label="clean_arch"
     transform="translate(59.999999,2.64e-5)">
    <g
       id="g10" />
    <g
       id="g12"
       transform="translate(-7656)">
      <g
         id="g14"
         clip-path="url(#clipPath18)">
        <g
           id="g20" />
      </g>
    </g>
    <g
       id="g22"
       transform="translate(-7656)">
      <g
         id="g24"
         clip-path="url(#clipPath28)">
        <text
           xml:space="preserve"
           transform="translate(7656,82.67188)"
           style="font-variant:normal;font-weight:normal;font-size:20px;font-family:'Times New Roman';-inkscape-font-specification:TimesNewRomanPSMT;writing-mode:lr-tb;fill:#000000;fill-opacity:1;fill-rule:nonzero;stroke:none"
           id="text32"><tspan
             x="0 10 15 24 33 40 45 54 63 70 79 85 94 99 108 118 123 133 142 149 154 162 167 177 183 188 193 202 211 216 224 233 241 246 255 269 274 279 289 294 304 311 320 329 338 343 348 364 373 378 388 398 407 414 419 424 439 448 457 462 467 477 486 493 498 506 515 523 528 537 551 559 564 569 579 584 593 602 611 617 627 633 638 643 648 657 666"
             y="0"
             sodipodi:role="line"
             id="tspan30">other unrelated parts of the system to break. We don’t want our systems to exhibit that</tspan></text>
        <text
           xml:space="preserve"
           transform="translate(7656,106)"
           style="font-variant:normal;font-weight:normal;font-size:20px;font-family:'Times New Roman';-inkscape-font-specification:TimesNewRomanPSMT;writing-mode:lr-tb;fill:#000000;fill-opacity:1;fill-rule:nonzero;stroke:none"
           id="text36"><tspan
             x="0 9 15 24 34 39 49 55 60 66 73 82 91 97 103 109 114 122"
             y="0"
             sodipodi:role="line"
             id="tspan34">kind of fragility.</tspan></text>
        <text
           xml:space="preserve"
           transform="translate(7656,149)"
           style="font-variant:normal;font-weight:normal;font-size:20px;font-family:'Times New Roman';-inkscape-font-specification:TimesNewRomanPSMT;writing-mode:lr-tb;fill:#000000;fill-opacity:1;fill-rule:nonzero;stroke:none"
           id="text40"><tspan
             x="0 14 21 28 37 46 55 61 70 79 84 94 103 110 115 123 132 140 145 154 168 176 181 187 196 201 211 216 225 230 240 246 255 264 270 279 284 293 300 309 318 324 329 338 347 352 361 368 377 382 391 398 407 416 421 430 438 443 449 455 462 471 486 495 501 507 515 520 529 538 545 555 563 571 576 591 600 606 615 624 629 638 647 656 665 674 683"
             y="0"
             sodipodi:role="line"
             id="tspan38">Arranging our systems into a plugin architecture creates firewalls across which changes</tspan></text>
        <text
           xml:space="preserve"
           transform="translate(7656,172)"
           style="font-variant:normal;font-weight:normal;font-size:20px;font-family:'Times New Roman';-inkscape-font-specification:TimesNewRomanPSMT;writing-mode:lr-tb;fill:#000000;fill-opacity:1;fill-rule:nonzero;stroke:none"
           id="text44"><tspan
             x="0 9 18 27 36 46 51 56 66 73 83 93 102 111 120 125 134 139 144 150 156 161 166 175 184 189 203 216 222 227 237 243 252 261 269 274 280 289 294 299 309 314 319 328 337 342 352 361 369 375 384 393 401 409 414 421 430 436 445 453 458 463 468 477 486 495 500 509 518 527 536 545 554 562 567 573 582 587 592 601 610 615 629 642"
             y="0"
             sodipodi:role="line"
             id="tspan42">cannot propagate. If the GUI plugs in to the business rules, then changes in the GUI</tspan></text>
        <text
           xml:space="preserve"
           transform="translate(7656,195)"
           style="font-variant:normal;font-weight:normal;font-size:20px;font-family:'Times New Roman';-inkscape-font-specification:TimesNewRomanPSMT;writing-mode:lr-tb;fill:#000000;fill-opacity:1;fill-rule:nonzero;stroke:none"
           id="text48"><tspan
             x="0 9 18 27 36 46 51 56 65 71 77 86 95 100 105 110 119 129 137 146 151 161 170 178 184 193 202 210 218 223 230 239 245 254 262"
             y="0"
             sodipodi:role="line"
             id="tspan46">cannot affect those business rules.</tspan></text>
        <text
           xml:space="preserve"
           transform="translate(7656,238)"
           style="font-variant:normal;font-weight:normal;font-size:20px;font-family:'Times New Roman';-inkscape-font-specification:TimesNewRomanPSMT;writing-mode:lr-tb;fill:#000000;fill-opacity:1;fill-rule:nonzero;stroke:none"
           id="text52"><tspan
             x="0 13 23 32 41 51 60 67 73 82 90 95 104 111 120 125 135 142 151 166 175 180 195 204 213 220 229 234 239 248 257 264 273 278 284 292 297 306 315"
             y="0"
             sodipodi:role="line"
             id="tspan50">Boundaries are drawn where there is an </tspan></text>
        <text
           xml:space="preserve"
           transform="translate(7976,238)"
           style="font-variant:normal;font-weight:normal;font-size:20px;font-family:'Times New Roman';-inkscape-font-specification:TimesNewRomanPSMT;writing-mode:lr-tb;fill:#000000;fill-opacity:1;fill-rule:nonzero;stroke:none"
           id="text56"><tspan
             x="0 9 18 24 32 37 47 53 58 67 76 85 94 103"
             y="0"
             sodipodi:role="line"
             id="tspan54">axis of change</tspan></text>
        <text
           xml:space="preserve"
           transform="translate(8088,238)"
           style="font-variant:normal;font-weight:normal;font-size:20px;font-family:'Times New Roman';-inkscape-font-specification:TimesNewRomanPSMT;writing-mode:lr-tb;fill:#000000;fill-opacity:1;fill-rule:nonzero;stroke:none"
           id="text60"><tspan
             x="0 5 10 22 31 40 45 54 64 78 88 98 107 116 125 130 138 143 153 162 167 177 186 195 200 208 214 224 233 238 248"
             y="0"
             sodipodi:role="line"
             id="tspan58">. The components on one side of</tspan></text>
        <text
           xml:space="preserve"
           transform="translate(7656,261)"
           style="font-variant:normal;font-weight:normal;font-size:20px;font-family:'Times New Roman';-inkscape-font-specification:TimesNewRomanPSMT;writing-mode:lr-tb;fill:#000000;fill-opacity:1;fill-rule:nonzero;stroke:none"
           id="text64"><tspan
             x="0 5 14 23 28 38 48 57 66 76 85 92 101 106 115 124 133 142 151 160 165 174 179 184 194 200 206 212 221 228 237 246 251 256 263 272 277 286 294 299 304 313 322 332 337 343 353 360 365 375 381 387 393 402 409 418 427 432 437 444 453 462 470 480 489 497 502 507 512 521 530 539 544 549 558 567 572 581 591 605 615 625 634 643 652 657 665 670 680"
             y="0"
             sodipodi:role="line"
             id="tspan62">the boundary change at different rates, and for different reasons, than the components on</tspan></text>
        <text
           xml:space="preserve"
           transform="translate(7656,284)"
           style="font-variant:normal;font-weight:normal;font-size:20px;font-family:'Times New Roman';-inkscape-font-specification:TimesNewRomanPSMT;writing-mode:lr-tb;fill:#000000;fill-opacity:1;fill-rule:nonzero;stroke:none"
           id="text68"><tspan
             x="0 5 14 23 28 38 43 52 61 68 73 81 87 97 106 111 121 127 132 137 146 155 160 170 180 189 198 208 217 224 232"
             y="0"
             sodipodi:role="line"
             id="tspan66">the other side of the boundary.</tspan></text>
        <text
           xml:space="preserve"
           transform="translate(7656,327)"
           style="font-variant:normal;font-weight:normal;font-size:20px;font-family:'Times New Roman';-inkscape-font-specification:TimesNewRomanPSMT;writing-mode:lr-tb;fill:#000000;fill-opacity:1;fill-rule:nonzero;stroke:none"
           id="text72"><tspan
             x="0 14 27 33 41 46 55 64 73 82 91 100 105 114 119 124 134 140 146 152 161 168 177 186 191 196 201 207 221 230 238 243 252 261 271 276 285 290 295 305 311 317 323 332 339 348 357 362 367 374 383 388 397 405 410 415 424 433 442 447 457 466 474 480 489 498 506 514 519 526 535 541 550 558 563 568 576 586 591 596 605 614 621 630 635 643 652 662 671 677"
             y="0"
             sodipodi:role="line"
             id="tspan70">GUIs change at different times and at different rates than business rules, so there should</tspan></text>
        <text
           xml:space="preserve"
           transform="translate(7656,350)"
           style="font-variant:normal;font-weight:normal;font-size:20px;font-family:'Times New Roman';-inkscape-font-specification:TimesNewRomanPSMT;writing-mode:lr-tb;fill:#000000;fill-opacity:1;fill-rule:nonzero;stroke:none"
           id="text76"><tspan
             x="0 10 19 24 33 38 48 58 67 76 86 95 102 111 116 126 135 140 155 164 173 182 187 192 201 210 224 229 234 247 256 264 270 279 288 296 304 309 316 325 331 340 348 353 362 371 380 389 398 407 412 421 426 431 441 447 453 459 468 475 484 493 498 503 508 514 528 537 545 550 559 568 578 583 589 599 606 611 621 627 633 639 648 655 664 673"
             y="0"
             sodipodi:role="line"
             id="tspan74">be a boundary between them. Business rules change at different times and for different</tspan></text>
        <text
           xml:space="preserve"
           transform="translate(7656,373)"
           style="font-variant:normal;font-weight:normal;font-size:20px;font-family:'Times New Roman';-inkscape-font-specification:TimesNewRomanPSMT;writing-mode:lr-tb;fill:#000000;fill-opacity:1;fill-rule:nonzero;stroke:none"
           id="text80"><tspan
             x="0 7 16 25 33 43 52 60 65 70 79 88 97 102 112 121 131 140 149 159 168 177 186 195 200 206 215 221 230 239 244 250 260 269 274 280 287 296 310 319 334 344 351 360 368 373 378 386 396 401 406 415 424 431 440 445 453 462 472 481 487 497 502 512 521 526 535 540 550 560 569 578 588 597 604 613 618 628 637 642 657 666 675"
             y="0"
             sodipodi:role="line"
             id="tspan78">reasons than dependency injection frameworks, so there should be a boundary between</tspan></text>
        <text
           xml:space="preserve"
           transform="translate(7656,396)"
           style="font-variant:normal;font-weight:normal;font-size:20px;font-family:'Times New Roman';-inkscape-font-specification:TimesNewRomanPSMT;writing-mode:lr-tb;fill:#000000;fill-opacity:1;fill-rule:nonzero;stroke:none"
           id="text84"><tspan
             x="0 5 14 23 37"
             y="0"
             sodipodi:role="line"
             id="tspan82">them.</tspan></text>
        <text
           xml:space="preserve"
           transform="translate(7656,439)"
           style="font-variant:normal;font-weight:normal;font-size:20px;font-family:'Times New Roman';-inkscape-font-specification:TimesNewRomanPSMT;writing-mode:lr-tb;fill:#000000;fill-opacity:1;fill-rule:nonzero;stroke:none"
           id="text88"><tspan
             x="0 12 21 27 35 40 46 54 59 67 73 87 97 103 112 117 122 131 140 145 156 162 171 180 186 195 200 213 222 230 240 250 259 267 273 283 289 295 301 306 315 320 331 338 344 353 362 368 378 384 393 398 407 416 425 431 440 445 450 462 471 480 485 496 509 519 524 529 538 544 550 558 563 572 580 585 600 609 618 625 634 639 644"
             y="0"
             sodipodi:role="line"
             id="tspan86">This is simply the Single Responsibility Principle again. The SRP tells us where to</tspan></text>
        <text
           xml:space="preserve"
           transform="translate(7656,462)"
           style="font-variant:normal;font-weight:normal;font-size:20px;font-family:'Times New Roman';-inkscape-font-specification:TimesNewRomanPSMT;writing-mode:lr-tb;fill:#000000;fill-opacity:1;fill-rule:nonzero;stroke:none"
           id="text92"><tspan
             x="0 10 17 26 41 46 56 65 72 77 87 97 106 115 125 134 141 147 156 164"
             y="0"
             sodipodi:role="line"
             id="tspan90">draw our boundaries.</tspan></text>
        <text
           xml:space="preserve"
           transform="translate(7656,532)"
           style="font-variant:normal;font-weight:bold;font-size:33px;font-family:'Times New Roman';-inkscape-font-specification:TimesNewRomanPS-BoldMT;writing-mode:lr-tb;fill:#000000;fill-opacity:1;fill-rule:nonzero;stroke:none"
           id="text96"><tspan
             x="0"
             y="0"
             id="tspan94">C</tspan></text>
        <text
           xml:space="preserve"
           transform="translate(7680,532)"
           style="font-variant:normal;font-weight:bold;font-size:33px;font-family:'Times New Roman';-inkscape-font-specification:TimesNewRomanPS-BoldMT;writing-mode:lr-tb;fill:#000000;fill-opacity:1;fill-rule:nonzero;stroke:none"
           id="text100"><tspan
             x="0 26 50 74 96 120 138 151 177"
             y="0"
             sodipodi:role="line"
             id="tspan98">ONCLUSION</tspan></text>
        <text
           xml:space="preserve"
           transform="translate(7656,577)"
           style="font-variant:normal;font-weight:normal;font-size:20px;font-family:'Times New Roman';-inkscape-font-specification:TimesNewRomanPSMT;writing-mode:lr-tb;fill:#000000;fill-opacity:1;fill-rule:nonzero;stroke:none"
           id="text104"><tspan
             x="0 10 20 25 35 42 51 66 71 81 91 100 109 119 128 135 144 149 155 161 170 179 187 192 198 207 212 221 226 234 244 250 255 270 279 286 295 300 309 316 325 334 340 345 354 363 368 377 384 393 398 403 412 422 431 436 442 448 455 463 468 473 483 492 499 504 510 515 521 531 540 545 550 559 568 573 581 590 598 603 612 626 631 637 646 651"
             y="0"
             sodipodi:role="line"
             id="tspan102">To draw boundary lines in a software architecture, you first partition the system into</tspan></text>
        <text
           xml:space="preserve"
           transform="translate(7656,600)"
           style="font-variant:normal;font-weight:normal;font-size:20px;font-family:'Times New Roman';-inkscape-font-specification:TimesNewRomanPSMT;writing-mode:lr-tb;fill:#000000;fill-opacity:1;fill-rule:nonzero;stroke:none"
           id="text108"><tspan
             x="0 9 19 33 43 53 62 71 80 85 93 98 103 114 124 138 147 152 162 168 173 178 187 197 205 214 219 228 238 252 262 272 281 290 299 304 312 317 326 333 342 347 356 366 373 382 387 397 406 414 420 429 438 446 454 459 466 475 481 490 498 503 508 518 523 532 541 548 556 561 570 577 586 591 601 607 616 625 631 640 648 653 658 667 676"
             y="0"
             sodipodi:role="line"
             id="tspan106">components. Some of those components are core business rules; others are plugins that</tspan></text>
        <text
           xml:space="preserve"
           transform="translate(7656,623)"
           style="font-variant:normal;font-weight:normal;font-size:20px;font-family:'Times New Roman';-inkscape-font-specification:TimesNewRomanPSMT;writing-mode:lr-tb;fill:#000000;fill-opacity:1;fill-rule:nonzero;stroke:none"
           id="text112"><tspan
             x="0 9 19 28 33 42 48 57 62 71 80 89 98 106 114 123 130 139 144 150 159 168 177 182 188 198 207 215 220 225 234 243 248 253 262 269 278 283 292 302 307 312 322 328 335 344 353 358 364 373 378 385 394 400 409 414 423 433 438 443 453 458 463 472 481 486 495 505 512 521 526 536 545 553 559 568 577 585 593 598 603 615 624 633 642 647 656 666"
             y="0"
             sodipodi:role="line"
             id="tspan110">contain necessary functions that are not directly related to the core business. Then you</tspan></text>
        <text
           xml:space="preserve"
           transform="translate(7656,646)"
           style="font-variant:normal;font-weight:normal;font-size:20px;font-family:'Times New Roman';-inkscape-font-specification:TimesNewRomanPSMT;writing-mode:lr-tb;fill:#000000;fill-opacity:1;fill-rule:nonzero;stroke:none"
           id="text116"><tspan
             x="0 9 16 23 32 41 50 59 64 69 78 87 92 101 111 121 130 135 141 150 155 160 169 179 187 196 201 210 220 234 244 254 263 272 281 286 294 299 307 316 325 334 339 344 353 362 367 372 377 386 395 400 409 416 423 433 448 456 461 471 480 485 500 509 518 527 532 537 546 555 569 574 584 594 600 609 614 619 625 634 639 649 658"
             y="0"
             sodipodi:role="line"
             id="tspan114">arrange the code in those components such that the arrows between them point in one</tspan></text>
        <text
           xml:space="preserve"
           transform="translate(7656,669)"
           style="font-variant:normal;font-weight:normal;font-size:20px;font-family:'Times New Roman';-inkscape-font-specification:TimesNewRomanPSMT;writing-mode:lr-tb;fill:#000000;fill-opacity:1;fill-rule:nonzero;stroke:none"
           id="text120"><tspan
             x="0 10 16 23 32 41 46 52 62 71 91 96 106 121 130 137 147 152 157 166 175 180 189 199 206 215 220 230 239 247 253 262 271 279 287"
             y="0"
             sodipodi:role="line"
             id="tspan118">direction—toward the core business.</tspan></text>
        <text
           xml:space="preserve"
           transform="translate(7656,712)"
           style="font-variant:normal;font-weight:normal;font-size:20px;font-family:'Times New Roman';-inkscape-font-specification:TimesNewRomanPSMT;writing-mode:lr-tb;fill:#000000;fill-opacity:1;fill-rule:nonzero;stroke:none"
           id="text124"><tspan
             x="0 12 22 31 36 44 53 63 72 78 88 93 100 109 118 128 137 146 152 160 169 174 179 188 194 202 207 216 224 229 238 247 252 261 271 281 287 293 302 311 316 322 332 341 346 356 362 367 372 381 390 395 409 418 428 437 446 456 465 474 483 492 497 503 512 522 531 538 546 552 562 571 576 587 594 600 609 618 624 634 640 649 654 663 672"
             y="0"
             sodipodi:role="line"
             id="tspan122">You should recognize this as an application of the Dependency Inversion Principle and</tspan></text>
        <text
           xml:space="preserve"
           transform="translate(7656,735)"
           style="font-variant:normal;font-weight:normal;font-size:20px;font-family:'Times New Roman';-inkscape-font-specification:TimesNewRomanPSMT;writing-mode:lr-tb;fill:#000000;fill-opacity:1;fill-rule:nonzero;stroke:none"
           id="text128"><tspan
             x="0 5 14 23 28 39 44 53 63 69 78 83 97 107 115 120 127 136 145 150 156 166 175 183 188 199 206 212 221 230 236 246 252 261 266 271 285 294 304 313 322 332 341 350 359 368 373 382 389 396 406 421 429 434 443 450 459 464 473 480 487 496 505 514 523 533 538 543 553 558 568 578 584 593 598 603 609 616 626"
             y="0"
             sodipodi:role="line"
             id="tspan126">the Stable Abstractions Principle. Dependency arrows are arranged to point from</tspan></text>
        <text
           xml:space="preserve"
           transform="translate(7656,758)"
           style="font-variant:normal;font-weight:normal;font-size:20px;font-family:'Times New Roman';-inkscape-font-specification:TimesNewRomanPSMT;writing-mode:lr-tb;fill:#000000;fill-opacity:1;fill-rule:nonzero;stroke:none"
           id="text132"><tspan
             x="0 6 16 31 40 47 54 60 69 79 88 94 99 109 118 123 132 138 144 152 157 162 172 177 186 192 201 210 219 226 233 239 248 258 267 273 278 287 297 305 310 317 326 335 340 346 356 365 373"
             y="0"
             sodipodi:role="line"
             id="tspan130">lower-level details to higher-level abstractions.</tspan></text>
        <text
           xml:space="preserve"
           transform="translate(7656,797)"
           style="font-variant:normal;font-weight:normal;font-size:15px;font-family:'Times New Roman';-inkscape-font-specification:TimesNewRomanPSMT;writing-mode:lr-tb;fill:#0000ee;fill-opacity:1;fill-rule:nonzero;stroke:none"
           id="text136"><tspan
             x="0"
             y="0"
             id="tspan134">1</tspan></text>
        <path
           d="m 7656,798.5 h 6 z"
           style="fill:none;stroke:#0000ee;stroke-width:1;stroke-linecap:square;stroke-linejoin:miter;stroke-miterlimit:10;stroke-dasharray:none;stroke-opacity:1"
           id="path138" />
        <text
           xml:space="preserve"
           transform="translate(7663,797)"
           style="font-variant:normal;font-weight:normal;font-size:15px;font-family:'Times New Roman';-inkscape-font-specification:TimesNewRomanPSMT;writing-mode:lr-tb;fill:#000000;fill-opacity:1;fill-rule:nonzero;stroke:none"
           id="text142"><tspan
             x="0 4 8 17 24 31 35 46 53 58 65 69 75 82 87 94 101 104 108 115 122 126 133 138 145 152 156 163 170 177 184 191 196 202 206 209 216 220 227 234 241 245 252 258 262 269 276 281 288 292 299 306 313 320 327 333 340 344 348 355 360 367 374 379 383 386 393 398 402 405 411 415 422 429 433 437 444 451 455 462 467 474 481 484 488 495 502 506 513 518 525 529 533 536 540 544 550 554 561 565 569 576 583 590 593 600 607 613 617 621 626 630 634 640 644 651 658 665 672 676 679"
             y="0"
             sodipodi:role="line"
             id="tspan140">. The word “architecture” appears in quotes here because three-tier is not an architecture; it’s a topology. It’s exactly</tspan></text>
        <text
           xml:space="preserve"
           transform="translate(7671,815)"
           style="font-variant:normal;font-weight:normal;font-size:15px;font-family:'Times New Roman';-inkscape-font-specification:TimesNewRomanPSMT;writing-mode:lr-tb;fill:#000000;fill-opacity:1;fill-rule:nonzero;stroke:none"
           id="text146"><tspan
             x="0 4 11 18 22 29 32 39 46 50 57 62 66 73 80 87 90 96 99 106 113 117 121 128 135 139 143 150 154 161 168 175 182 186 193 198 205 212 215 219 226 233 237 244 249 256 260 266 270 275 278 285 292 298 302 306 313 317 324 331 336 343 347"
             y="0"
             sodipodi:role="line"
             id="tspan144">the kind of decision that a good architecture strives to defer.</tspan></text>
        <text
           xml:space="preserve"
           transform="translate(7656,838)"
           style="font-variant:normal;font-weight:normal;font-size:15px;font-family:'Times New Roman';-inkscape-font-specification:TimesNewRomanPSMT;writing-mode:lr-tb;fill:#0000ee;fill-opacity:1;fill-rule:nonzero;stroke:none"
           id="text150"><tspan
             x="0"
             y="0"
             id="tspan148">2</tspan></text>
        <path
           d="m 7656,839.5 h 6 z"
           style="fill:none;stroke:#0000ee;stroke-width:1;stroke-linecap:square;stroke-linejoin:miter;stroke-miterlimit:10;stroke-dasharray:none;stroke-opacity:1"
           id="path152" />
        <text
           xml:space="preserve"
           transform="translate(7663,838)"
           style="font-variant:normal;font-weight:normal;font-size:15px;font-family:'Times New Roman';-inkscape-font-specification:TimesNewRomanPSMT;writing-mode:lr-tb;fill:#000000;fill-opacity:1;fill-rule:nonzero;stroke:none"
           id="text156"><tspan
             x="0 4 8 21 28 35 42 46 53 60 67 72 78 82 85 92 96 103 108 112 123 130 134 145 152 157 164 168 175 182 185 192 196 200 207 211 217 220 223 230 234 238 245 252 256 265 272 275 282 289 292 296 303 307 312 317 324 335 342 353 360 365 372 376 379 386 390 397"
             y="0"
             sodipodi:role="line"
             id="tspan154">. Many years later we were able to slip the Velocity framework into </tspan></text>
        <text
           xml:space="preserve"
           transform="translate(8064,838)"
           style="font-variant:normal;font-weight:normal;font-size:12px;font-family:'Courier New';-inkscape-font-specification:CourierNewPSMT;writing-mode:lr-tb;fill:#000000;fill-opacity:1;fill-rule:nonzero;stroke:none"
           id="text160"><tspan
             x="0 7 14 21 28 35 42 49"
             y="0"
             sodipodi:role="line"
             id="tspan158">FitNesse</tspan></text>
        <text
           xml:space="preserve"
           transform="translate(8120,838)"
           style="font-variant:normal;font-weight:normal;font-size:15px;font-family:'Times New Roman';-inkscape-font-specification:TimesNewRomanPSMT;writing-mode:lr-tb;fill:#000000;fill-opacity:1;fill-rule:nonzero;stroke:none"
           id="text164"><tspan
             x="0"
             y="0"
             id="tspan162">.</tspan></text>
      </g>
    </g>
  </g>
</svg>
