<?xml version="1.0" encoding="UTF-8" standalone="no"?>
<!-- Created with Inkscape (http://www.inkscape.org/) -->

<svg
   version="1.1"
   id="svg2"
   width="816"
   height="1056"
   viewBox="0 0 816 1056"
   sodipodi:docname="clean_arch.pdf"
   xmlns:inkscape="http://www.inkscape.org/namespaces/inkscape"
   xmlns:sodipodi="http://sodipodi.sourceforge.net/DTD/sodipodi-0.dtd"
   xmlns="http://www.w3.org/2000/svg"
   xmlns:svg="http://www.w3.org/2000/svg">
  <defs
     id="defs6">
    <clipPath
       clipPathUnits="userSpaceOnUse"
       id="clipPath18">
      <path
         d="m 2784,0 h 696 V 1056 H 2784 V 0"
         clip-rule="evenodd"
         id="path16" />
    </clipPath>
    <clipPath
       clipPathUnits="userSpaceOnUse"
       id="clipPath28">
      <path
         d="m 2784,66 h 696 V 996 H 2784 V 66"
         clip-rule="evenodd"
         id="path26" />
    </clipPath>
  </defs>
  <sodipodi:namedview
     id="namedview4"
     pagecolor="#ffffff"
     bordercolor="#000000"
     borderopacity="0.25"
     inkscape:showpageshadow="2"
     inkscape:pageopacity="0.0"
     inkscape:pagecheckerboard="0"
     inkscape:deskcolor="#d1d1d1" />
  <g
     id="g8"
     inkscape:groupmode="layer"
     inkscape:label="clean_arch"
     transform="translate(59.999999,2.64e-5)">
    <g
       id="g10" />
    <g
       id="g12"
       transform="translate(-2784)">
      <g
         id="g14"
         clip-path="url(#clipPath18)">
        <g
           id="g20" />
      </g>
    </g>
    <g
       id="g22"
       transform="translate(-2784)">
      <g
         id="g24"
         clip-path="url(#clipPath28)">
        <text
           xml:space="preserve"
           transform="translate(2784,83)"
           style="font-variant:normal;font-weight:normal;font-size:20px;font-family:'Times New Roman';-inkscape-font-specification:TimesNewRomanPSMT;writing-mode:lr-tb;fill:#000000;fill-opacity:1;fill-rule:nonzero;stroke:none"
           id="text32"><tspan
             x="0 12 21 30 37 46 52 62 69 78 83 88 97 106 111 124 137 147 152 157 166 172 178 186 191 200 208 213 227 237 244 253 258 267 277 287 296 301 306 321 330 336 345 354 359 368 374 383 391 399 408 416"
             y="0"
             sodipodi:role="line"
             id="tspan30">Therefore the CRP tells us more about which classes </tspan></text>
        <text
           xml:space="preserve"
           transform="translate(3205,83)"
           style="font-variant:normal;font-weight:normal;font-size:20px;font-family:'Times New Roman';-inkscape-font-specification:TimesNewRomanPSMT;writing-mode:lr-tb;fill:#000000;fill-opacity:1;fill-rule:nonzero;stroke:none"
           id="text36"><tspan
             x="0 8 17 27 36 42 52 61 68"
             y="0"
             sodipodi:role="line"
             id="tspan34">shouldn’t</tspan></text>
        <text
           xml:space="preserve"
           transform="translate(3283,83)"
           style="font-variant:normal;font-weight:normal;font-size:20px;font-family:'Times New Roman';-inkscape-font-specification:TimesNewRomanPSMT;writing-mode:lr-tb;fill:#000000;fill-opacity:1;fill-rule:nonzero;stroke:none"
           id="text40"><tspan
             x="0 10 19 24 29 39 48 57 62 71 80 87 92 97 106 115 124 129 138 148 158 167"
             y="0"
             sodipodi:role="line"
             id="tspan38">be together than about</tspan></text>
        <text
           xml:space="preserve"
           transform="translate(2784,106)"
           style="font-variant:normal;font-weight:normal;font-size:20px;font-family:'Times New Roman';-inkscape-font-specification:TimesNewRomanPSMT;writing-mode:lr-tb;fill:#000000;fill-opacity:1;fill-rule:nonzero;stroke:none"
           id="text44"><tspan
             x="0 15 24 30 39 48 53 62 68 77 85 93 102 110"
             y="0"
             sodipodi:role="line"
             id="tspan42">which classes </tspan></text>
        <text
           xml:space="preserve"
           transform="translate(2899,106)"
           style="font-variant:normal;font-weight:normal;font-size:20px;font-family:'Times New Roman';-inkscape-font-specification:TimesNewRomanPSMT;writing-mode:lr-tb;fill:#000000;fill-opacity:1;fill-rule:nonzero;stroke:none"
           id="text48"><tspan
             x="0 8 17 27 36 42"
             y="0"
             sodipodi:role="line"
             id="tspan46">should</tspan></text>
        <text
           xml:space="preserve"
           transform="translate(2956,106)"
           style="font-variant:normal;font-weight:normal;font-size:20px;font-family:'Times New Roman';-inkscape-font-specification:TimesNewRomanPSMT;writing-mode:lr-tb;fill:#000000;fill-opacity:1;fill-rule:nonzero;stroke:none"
           id="text52"><tspan
             x="0 10 19 24 29 39 48 57 62 71 80 86 91 96 108 117 126 131 144 157 167 172 180 189 198 206 211 216 225 234 239 244 253 259 268 276 284 293 301 306 311 320 329 334 339 348 355 364 369 378 388 393 398 403 409 418 427 432 438 447 452 462 472 481 490 500 505 510"
             y="0"
             sodipodi:role="line"
             id="tspan50">be together. The CRP says that classes that are not tightly bound to</tspan></text>
        <text
           xml:space="preserve"
           transform="translate(2784,129)"
           style="font-variant:normal;font-weight:normal;font-size:20px;font-family:'Times New Roman';-inkscape-font-specification:TimesNewRomanPSMT;writing-mode:lr-tb;fill:#000000;fill-opacity:1;fill-rule:nonzero;stroke:none"
           id="text56"><tspan
             x="0 9 18 27 36 41 51 56 65 74 81 86 94 103 113 122 128 138 143 152 162 167 172 182 191 196 202 211 216 221 230 239 244 252 261 275 284 289 298 308 322 332 342 351 360 369 374"
             y="0"
             sodipodi:role="line"
             id="tspan54">each other should not be in the same component.</tspan></text>
        <text
           xml:space="preserve"
           transform="translate(2784,179)"
           style="font-variant:normal;font-weight:bold;font-size:23px;font-family:'Times New Roman';-inkscape-font-specification:TimesNewRomanPS-BoldMT;writing-mode:lr-tb;fill:#000000;fill-opacity:1;fill-rule:nonzero;stroke:none"
           id="text60"><tspan
             x="0"
             y="0"
             id="tspan58">R</tspan></text>
        <text
           xml:space="preserve"
           transform="translate(2801,179)"
           style="font-variant:normal;font-weight:bold;font-size:23px;font-family:'Times New Roman';-inkscape-font-specification:TimesNewRomanPS-BoldMT;writing-mode:lr-tb;fill:#000000;fill-opacity:1;fill-rule:nonzero;stroke:none"
           id="text64"><tspan
             x="0 15 30 44 59 68 86 103 109 124"
             y="0"
             sodipodi:role="line"
             id="tspan62">ELATION TO</tspan></text>
        <text
           xml:space="preserve"
           transform="translate(2949,179)"
           style="font-variant:normal;font-weight:bold;font-size:23px;font-family:'Times New Roman';-inkscape-font-specification:TimesNewRomanPS-BoldMT;writing-mode:lr-tb;fill:#000000;fill-opacity:1;fill-rule:nonzero;stroke:none"
           id="text68"><tspan
             x="0 9 22"
             y="0"
             sodipodi:role="line"
             id="tspan66">ISP</tspan></text>
        <text
           xml:space="preserve"
           transform="translate(2784,222)"
           style="font-variant:normal;font-weight:normal;font-size:20px;font-family:'Times New Roman';-inkscape-font-specification:TimesNewRomanPSMT;writing-mode:lr-tb;fill:#000000;fill-opacity:1;fill-rule:nonzero;stroke:none"
           id="text72"><tspan
             x="0 12 21 30 35 48 61 71 76 82 90 95 100 109 118 123 132 141 150 159 166 172 181 186 196 205 212 220 226 236 245 250 260 266 271 276 285 294 299 305 316 325 330 335 347 356 365 370 376 387 397 402 411 421 431 437 445 454 462 467 476 484 489 498 508 513 518 523 533 538 548 557 567 576 585 595 600 610 619 624 633 639 648 656 664 673"
             y="0"
             sodipodi:role="line"
             id="tspan70">The CRP is the generic version of the ISP. The ISP advises us not to depend on classes</tspan></text>
        <text
           xml:space="preserve"
           transform="translate(2784,245)"
           style="font-variant:normal;font-weight:normal;font-size:20px;font-family:'Times New Roman';-inkscape-font-specification:TimesNewRomanPSMT;writing-mode:lr-tb;fill:#000000;fill-opacity:1;fill-rule:nonzero;stroke:none"
           id="text76"><tspan
             x="0 5 14 23 28 33 42 51 61 70 75 89 98 103 112 122 132 140 145 160 169 174 184 194 203 210 215 220 229 237 246 251 256 268 277 286 291 304 317 327 332 341 351 361 367 375 384 392 397 406 414 419 428 438 443 448 453 463 468 478 487 497 506 515 525 530 540 549 554 563 573 587 597 607 616 625 634 639 647 652 657 666 675"
             y="0"
             sodipodi:role="line"
             id="tspan74">that have methods we don’t use. The CRP advises us not to depend on components that</tspan></text>
        <text
           xml:space="preserve"
           transform="translate(2784,268)"
           style="font-variant:normal;font-weight:normal;font-size:20px;font-family:'Times New Roman';-inkscape-font-specification:TimesNewRomanPSMT;writing-mode:lr-tb;fill:#000000;fill-opacity:1;fill-rule:nonzero;stroke:none"
           id="text80"><tspan
             x="0 9 18 28 37 42 51 57 66 74 82 91 99 104 119 128 133 143 153 162 169 174 179 188 196 205"
             y="0"
             sodipodi:role="line"
             id="tspan78">have classes we don’t use.</tspan></text>
        <text
           xml:space="preserve"
           transform="translate(2784,311)"
           style="font-variant:normal;font-weight:normal;font-size:20px;font-family:'Times New Roman';-inkscape-font-specification:TimesNewRomanPSMT;writing-mode:lr-tb;fill:#000000;fill-opacity:1;fill-rule:nonzero;stroke:none"
           id="text84"><tspan
             x="0 14 20 26 31 41 47 52 57 66 72 80 85 94 104 114 120 129 138 143 152 161 170 175 185 194 199 206 215 225 234 243 252 262 267 272 282 287 296 301 309 315 324 333 339 348 353 361 371 380 389 399 404 414 420 425 434"
             y="0"
             sodipodi:role="line"
             id="tspan82">All of this advice can be reduced to a single sound bite:</tspan></text>
        <text
           xml:space="preserve"
           transform="translate(2808,350)"
           style="font-variant:normal;font-weight:normal;font-size:15px;font-family:'Times New Roman';-inkscape-font-specification:TimesNewRomanPSMT;writing-mode:lr-tb;fill:#000000;fill-opacity:1;fill-rule:nonzero;stroke:none"
           id="text88"><tspan
             x="0 11 18 25 30 34 38 45 52 59 66 73 80 84 91 98 102 106 113 116 123 130 136 140 147 154 161 165 172 179 186 191 195 199 206 213 220"
             y="0"
             sodipodi:role="line"
             id="tspan86">Don’t depend on things you don’t need</tspan></text>
        <text
           xml:space="preserve"
           transform="translate(3035,350)"
           style="font-variant:normal;font-weight:normal;font-size:15px;font-family:'Times New Roman';-inkscape-font-specification:TimesNewRomanPSMT;writing-mode:lr-tb;fill:#000000;fill-opacity:1;fill-rule:nonzero;stroke:none"
           id="text92"><tspan
             x="0"
             y="0"
             id="tspan90">.</tspan></text>
        <text
           xml:space="preserve"
           transform="translate(2784,419)"
           style="font-variant:normal;font-weight:bold;font-size:33px;font-family:'Times New Roman';-inkscape-font-specification:TimesNewRomanPS-BoldMT;writing-mode:lr-tb;fill:#000000;fill-opacity:1;fill-rule:nonzero;stroke:none"
           id="text96"><tspan
             x="0"
             y="0"
             id="tspan94">T</tspan></text>
        <text
           xml:space="preserve"
           transform="translate(2806,419)"
           style="font-variant:normal;font-weight:bold;font-size:33px;font-family:'Times New Roman';-inkscape-font-specification:TimesNewRomanPS-BoldMT;writing-mode:lr-tb;fill:#000000;fill-opacity:1;fill-rule:nonzero;stroke:none"
           id="text100"><tspan
             x="0 26"
             y="0"
             sodipodi:role="line"
             id="tspan98">HE</tspan></text>
        <text
           xml:space="preserve"
           transform="translate(2862,419)"
           style="font-variant:normal;font-weight:bold;font-size:33px;font-family:'Times New Roman';-inkscape-font-specification:TimesNewRomanPS-BoldMT;writing-mode:lr-tb;fill:#000000;fill-opacity:1;fill-rule:nonzero;stroke:none"
           id="text104"><tspan
             x="0"
             y="0"
             id="tspan102">T</tspan></text>
        <text
           xml:space="preserve"
           transform="translate(2884,419)"
           style="font-variant:normal;font-weight:bold;font-size:33px;font-family:'Times New Roman';-inkscape-font-specification:TimesNewRomanPS-BoldMT;writing-mode:lr-tb;fill:#000000;fill-opacity:1;fill-rule:nonzero;stroke:none"
           id="text108"><tspan
             x="0 22 46 64 77 103"
             y="0"
             sodipodi:role="line"
             id="tspan106">ENSION</tspan></text>
        <text
           xml:space="preserve"
           transform="translate(3019,419)"
           style="font-variant:normal;font-weight:bold;font-size:33px;font-family:'Times New Roman';-inkscape-font-specification:TimesNewRomanPS-BoldMT;writing-mode:lr-tb;fill:#000000;fill-opacity:1;fill-rule:nonzero;stroke:none"
           id="text112"><tspan
             x="0"
             y="0"
             id="tspan110">D</tspan></text>
        <text
           xml:space="preserve"
           transform="translate(3043,419)"
           style="font-variant:normal;font-weight:bold;font-size:33px;font-family:'Times New Roman';-inkscape-font-specification:TimesNewRomanPS-BoldMT;writing-mode:lr-tb;fill:#000000;fill-opacity:1;fill-rule:nonzero;stroke:none"
           id="text116"><tspan
             x="0 13 36 61 85 108 140 148 168 194"
             y="0"
             sodipodi:role="line"
             id="tspan114">IAGRAM FOR</tspan></text>
        <text
           xml:space="preserve"
           transform="translate(2784,458)"
           style="font-variant:normal;font-weight:bold;font-size:33px;font-family:'Times New Roman';-inkscape-font-specification:TimesNewRomanPS-BoldMT;writing-mode:lr-tb;fill:#000000;fill-opacity:1;fill-rule:nonzero;stroke:none"
           id="text120"><tspan
             x="0"
             y="0"
             id="tspan118">C</tspan></text>
        <text
           xml:space="preserve"
           transform="translate(2808,458)"
           style="font-variant:normal;font-weight:bold;font-size:33px;font-family:'Times New Roman';-inkscape-font-specification:TimesNewRomanPS-BoldMT;writing-mode:lr-tb;fill:#000000;fill-opacity:1;fill-rule:nonzero;stroke:none"
           id="text124"><tspan
             x="0 26 58 78 104 128 150 174"
             y="0"
             sodipodi:role="line"
             id="tspan122">OMPONENT</tspan></text>
        <text
           xml:space="preserve"
           transform="translate(3012,458)"
           style="font-variant:normal;font-weight:bold;font-size:33px;font-family:'Times New Roman';-inkscape-font-specification:TimesNewRomanPS-BoldMT;writing-mode:lr-tb;fill:#000000;fill-opacity:1;fill-rule:nonzero;stroke:none"
           id="text128"><tspan
             x="0"
             y="0"
             id="tspan126">C</tspan></text>
        <text
           xml:space="preserve"
           transform="translate(3036,458)"
           style="font-variant:normal;font-weight:bold;font-size:33px;font-family:'Times New Roman';-inkscape-font-specification:TimesNewRomanPS-BoldMT;writing-mode:lr-tb;fill:#000000;fill-opacity:1;fill-rule:nonzero;stroke:none"
           id="text132"><tspan
             x="0 26 52 74 92 105 131"
             y="0"
             sodipodi:role="line"
             id="tspan130">OHESION</tspan></text>
        <text
           xml:space="preserve"
           transform="translate(2784,503)"
           style="font-variant:normal;font-weight:normal;font-size:20px;font-family:'Times New Roman';-inkscape-font-specification:TimesNewRomanPSMT;writing-mode:lr-tb;fill:#000000;fill-opacity:1;fill-rule:nonzero;stroke:none"
           id="text136"><tspan
             x="0 12 22 31 36 50 59 68 73 82 91 101 110 115 124 130 137 146 155 165 174 179 186 195 204 210 216 224 233 243 248 253 262 271 276 281 286 295 304 309 314 323 330 339 348 353 362 372 381 390 398 404 414 423 428 438 445 451 460 469 475 485 491 500 508 513 518 527 536 546 551 556 566 571 577 583 592 601 606 611 620 629 638"
             y="0"
             sodipodi:role="line"
             id="tspan134">You may have already realized that the three cohesion principles tend to fight each</tspan></text>
        <text
           xml:space="preserve"
           transform="translate(2784,526)"
           style="font-variant:normal;font-weight:normal;font-size:20px;font-family:'Times New Roman';-inkscape-font-specification:TimesNewRomanPSMT;writing-mode:lr-tb;fill:#000000;fill-opacity:1;fill-rule:nonzero;stroke:none"
           id="text140"><tspan
             x="0 10 15 24 33 39 44 49 61 70 79 84 97 109 119 124 133 142 152 157 170 183 193 198 207 214 223"
             y="0"
             sodipodi:role="line"
             id="tspan138">other. The REP and CCP are </tspan></text>
        <text
           xml:space="preserve"
           transform="translate(3012,526)"
           style="font-variant:normal;font-weight:normal;font-size:20px;font-family:'Times New Roman';-inkscape-font-specification:TimesNewRomanPSMT;writing-mode:lr-tb;fill:#000000;fill-opacity:1;fill-rule:nonzero;stroke:none"
           id="text144"><tspan
             x="0 6 15 24 30 39 47 53 63"
             y="0"
             sodipodi:role="line"
             id="tspan142">inclusive</tspan></text>
        <text
           xml:space="preserve"
           transform="translate(3089,526)"
           style="font-variant:normal;font-weight:normal;font-size:20px;font-family:'Times New Roman';-inkscape-font-specification:TimesNewRomanPSMT;writing-mode:lr-tb;fill:#000000;fill-opacity:1;fill-rule:nonzero;stroke:none"
           id="text148"><tspan
             x="0 10 17 23 32 41 47 57 63 72 80 86 91 104 114 119 128 133 138 147 156 166 171 176 186 191 205 214 223 232"
             y="0"
             sodipodi:role="line"
             id="tspan146">principles: Both tend to make </tspan></text>
        <text
           xml:space="preserve"
           transform="translate(3326,526)"
           style="font-variant:normal;font-weight:normal;font-size:20px;font-family:'Times New Roman';-inkscape-font-specification:TimesNewRomanPSMT;writing-mode:lr-tb;fill:#000000;fill-opacity:1;fill-rule:nonzero;stroke:none"
           id="text152"><tspan
             x="0 9 19 33 43 53 62 71 80 85 93 98 104 113 120 129 138 144"
             y="0"
             sodipodi:role="line"
             id="tspan150">components larger.</tspan></text>
        <text
           xml:space="preserve"
           transform="translate(2784,549)"
           style="font-variant:normal;font-weight:normal;font-size:20px;font-family:'Times New Roman';-inkscape-font-specification:TimesNewRomanPSMT;writing-mode:lr-tb;fill:#000000;fill-opacity:1;fill-rule:nonzero;stroke:none"
           id="text156"><tspan
             x="0 12 21 30 35 48 61 71 76 82 90 95 104 113"
             y="0"
             sodipodi:role="line"
             id="tspan154">The CRP is an </tspan></text>
        <text
           xml:space="preserve"
           transform="translate(2902,549)"
           style="font-variant:normal;font-weight:normal;font-size:20px;font-family:'Times New Roman';-inkscape-font-specification:TimesNewRomanPSMT;writing-mode:lr-tb;fill:#000000;fill-opacity:1;fill-rule:nonzero;stroke:none"
           id="text160"><tspan
             x="0 9 18 27 33 42 50 56 66"
             y="0"
             sodipodi:role="line"
             id="tspan158">exclusive</tspan></text>
        <text
           xml:space="preserve"
           transform="translate(2982,549)"
           style="font-variant:normal;font-weight:normal;font-size:20px;font-family:'Times New Roman';-inkscape-font-specification:TimesNewRomanPSMT;writing-mode:lr-tb;fill:#000000;fill-opacity:1;fill-rule:nonzero;stroke:none"
           id="text164"><tspan
             x="0 10 17 23 32 41 47 57 63 72 77 82 92 99 105 115 121 130 139 144 153 163 177 187 197 206 215 224 229 237 242 247 257 262 272 281 286 294 308 317 323 329 338 344 349 354 360 365 370 376 384 389 394 403 412 417 422 431 440 448 454 464"
             y="0"
             sodipodi:role="line"
             id="tspan162">principle, driving components to be smaller. It is the tension</tspan></text>
        <text
           xml:space="preserve"
           transform="translate(2784,572)"
           style="font-variant:normal;font-weight:normal;font-size:20px;font-family:'Times New Roman';-inkscape-font-specification:TimesNewRomanPSMT;writing-mode:lr-tb;fill:#000000;fill-opacity:1;fill-rule:nonzero;stroke:none"
           id="text168"><tspan
             x="0 10 19 24 39 48 57 66 71 76 85 94 102 111 116 126 133 139 148 157 163 173 179 188 196 201 206 215 224 229 234 243 253 263 273 278 287 294 303 312 318 323 332 341 346 354 359 367 376 385 394 399 404 414 419 426 435 443 453 459 469 478"
             y="0"
             sodipodi:role="line"
             id="tspan166">between these principles that good architects seek to resolve.</tspan></text>
        <text
           xml:space="preserve"
           transform="translate(2784,618)"
           style="font-variant:normal;font-weight:normal;font-size:20px;font-family:'Times New Roman';-inkscape-font-specification:TimesNewRomanPSMT;writing-mode:lr-tb;fill:#0000ee;fill-opacity:1;fill-rule:nonzero;stroke:none"
           id="text172"><tspan
             x="0 11 17 26 35 42 51 56 66 76 81"
             y="0"
             sodipodi:role="line"
             id="tspan170">Figure 13.1</tspan></text>
        <path
           d="m 2784,619.5 h 90 z"
           style="fill:none;stroke:#0000ee;stroke-width:1;stroke-linecap:square;stroke-linejoin:miter;stroke-miterlimit:10;stroke-dasharray:none;stroke-opacity:1"
           id="path174" />
        <text
           xml:space="preserve"
           transform="translate(2880,618)"
           style="font-variant:normal;font-weight:normal;font-size:20px;font-family:'Times New Roman';-inkscape-font-specification:TimesNewRomanPSMT;writing-mode:lr-tb;fill:#000000;fill-opacity:1;fill-rule:nonzero;stroke:none"
           id="text178"><tspan
             x="0 6 14 19 28 33 38 47 56 64 70 80 89 94 104 110 119 128 135 144"
             y="0"
             sodipodi:role="line"
             id="tspan176">is a tension diagram</tspan></text>
        <text
           xml:space="preserve"
           transform="translate(3038,611)"
           style="font-variant:normal;font-weight:normal;font-size:15px;font-family:'Times New Roman';-inkscape-font-specification:TimesNewRomanPSMT;writing-mode:lr-tb;fill:#0000ee;fill-opacity:1;fill-rule:nonzero;stroke:none"
           id="text182"><tspan
             x="0"
             y="0"
             id="tspan180">2</tspan></text>
        <path
           d="m 3038,612.5 h 6 z"
           style="fill:none;stroke:#0000ee;stroke-width:1;stroke-linecap:square;stroke-linejoin:miter;stroke-miterlimit:10;stroke-dasharray:none;stroke-opacity:1"
           id="path184" />
        <text
           xml:space="preserve"
           transform="translate(3050,618)"
           style="font-variant:normal;font-weight:normal;font-size:20px;font-family:'Times New Roman';-inkscape-font-specification:TimesNewRomanPSMT;writing-mode:lr-tb;fill:#000000;fill-opacity:1;fill-rule:nonzero;stroke:none"
           id="text188"><tspan
             x="0 5 14 23 28 33 41 50 60 75 83 88 97 107 122 127 132 141 150 155 160 169 176 185 194 199 209 216 222 231 240 246 256 262 271 279 284 294 300 305 314 324 333 342 350 356 366"
             y="0"
             sodipodi:role="line"
             id="tspan186">that shows how the three principles of cohesion</tspan></text>
        <text
           xml:space="preserve"
           transform="translate(2784,641)"
           style="font-variant:normal;font-weight:normal;font-size:20px;font-family:'Times New Roman';-inkscape-font-specification:TimesNewRomanPSMT;writing-mode:lr-tb;fill:#000000;fill-opacity:1;fill-rule:nonzero;stroke:none"
           id="text192"><tspan
             x="0 6 15 20 29 36 45 54 59 64 79 85 90 99 104 113 122 131 140 145 155 160 169 178 184 189 194 206 215 224 229 238 248 257 266 274 279 289 295 300 305 314 323 328 338 344 353 362 369 378 392 397 407 416 424 433 440 446 456 465 470 475 484 493"
             y="0"
             sodipodi:role="line"
             id="tspan190">interact with each other. The edges of the diagram describe the </tspan></text>
        <text
           xml:space="preserve"
           transform="translate(3282,641)"
           style="font-variant:normal;font-weight:normal;font-size:20px;font-family:'Times New Roman';-inkscape-font-specification:TimesNewRomanPSMT;writing-mode:lr-tb;fill:#000000;fill-opacity:1;fill-rule:nonzero;stroke:none"
           id="text196"><tspan
             x="0 9 19 27"
             y="0"
             sodipodi:role="line"
             id="tspan194">cost</tspan></text>
        <text
           xml:space="preserve"
           transform="translate(3319,641)"
           style="font-variant:normal;font-weight:normal;font-size:20px;font-family:'Times New Roman';-inkscape-font-specification:TimesNewRomanPSMT;writing-mode:lr-tb;fill:#000000;fill-opacity:1;fill-rule:nonzero;stroke:none"
           id="text200"><tspan
             x="0 10 16 21 30 40 49 58 68 78 87 93 102 111 116 121 130"
             y="0"
             sodipodi:role="line"
             id="tspan198">of abandoning the</tspan></text>
        <text
           xml:space="preserve"
           transform="translate(2784,664)"
           style="font-variant:normal;font-weight:normal;font-size:20px;font-family:'Times New Roman';-inkscape-font-specification:TimesNewRomanPSMT;writing-mode:lr-tb;fill:#000000;fill-opacity:1;fill-rule:nonzero;stroke:none"
           id="text204"><tspan
             x="0 10 17 23 32 41 47 57 63 72 77 87 96 101 106 115 124 129 139 149 159 169 177 183 188 197 202 212 221 228 233 242 251"
             y="0"
             sodipodi:role="line"
             id="tspan202">principle on the opposite vertex.</tspan></text>
      </g>
    </g>
  </g>
</svg>
