<?xml version="1.0" encoding="UTF-8" standalone="no"?>
<!-- Created with Inkscape (http://www.inkscape.org/) -->

<svg
   version="1.1"
   id="svg2"
   width="816"
   height="1056"
   viewBox="0 0 816 1056"
   sodipodi:docname="clean_arch.pdf"
   xmlns:inkscape="http://www.inkscape.org/namespaces/inkscape"
   xmlns:sodipodi="http://sodipodi.sourceforge.net/DTD/sodipodi-0.dtd"
   xmlns="http://www.w3.org/2000/svg"
   xmlns:svg="http://www.w3.org/2000/svg">
  <defs
     id="defs6">
    <clipPath
       clipPathUnits="userSpaceOnUse"
       id="clipPath18">
      <path
         d="m 1392,0 h 696 V 1056 H 1392 V 0"
         clip-rule="evenodd"
         id="path16" />
    </clipPath>
    <clipPath
       clipPathUnits="userSpaceOnUse"
       id="clipPath28">
      <path
         d="m 1392,66 h 696 V 996 H 1392 V 66"
         clip-rule="evenodd"
         id="path26" />
    </clipPath>
  </defs>
  <sodipodi:namedview
     id="namedview4"
     pagecolor="#ffffff"
     bordercolor="#000000"
     borderopacity="0.25"
     inkscape:showpageshadow="2"
     inkscape:pageopacity="0.0"
     inkscape:pagecheckerboard="0"
     inkscape:deskcolor="#d1d1d1" />
  <g
     id="g8"
     inkscape:groupmode="layer"
     inkscape:label="clean_arch"
     transform="translate(59.999999,2.64e-5)">
    <g
       id="g10" />
    <g
       id="g12"
       transform="translate(-1392)">
      <g
         id="g14"
         clip-path="url(#clipPath18)">
        <g
           id="g20" />
      </g>
    </g>
    <g
       id="g22"
       transform="translate(-1392)">
      <g
         id="g24"
         clip-path="url(#clipPath28)">
        <text
           xml:space="preserve"
           transform="translate(1405,83.34375)"
           style="font-variant:normal;font-weight:normal;font-size:20px;font-family:'Times New Roman';-inkscape-font-specification:TimesNewRomanPSMT;writing-mode:lr-tb;fill:#000000;fill-opacity:1;fill-rule:nonzero;stroke:none"
           id="text32"><tspan
             x="0 5 14 23 28 33 39 46 55 69 78 93 103 110 119 124 130 138 147 154 159 164 173 183 197 203 212 221 226 236 245 254 263 268 278 287 292 297 302 314 323 332 337 352 361 371 381 387 396 405 410 417 423 432 441 446 452 460 465 475 484 489 498 508 517 524 529 535 541 550 559 568 575 580 585 594 603 613 618 624 629 635"
             y="0"
             sodipodi:role="line"
             id="tspan30">that framework isn’t coming back out. The wedding ring is on your finger; and it’s</tspan></text>
        <text
           xml:space="preserve"
           transform="translate(1405,106)"
           style="font-variant:normal;font-weight:normal;font-size:20px;font-family:'Times New Roman';-inkscape-font-specification:TimesNewRomanPSMT;writing-mode:lr-tb;fill:#000000;fill-opacity:1;fill-rule:nonzero;stroke:none"
           id="text36"><tspan
             x="0 9 19 25 34 43 48 53 63 68 76 81 90 99 104 109 118 127 134 143"
             y="0"
             sodipodi:role="line"
             id="tspan34">going to stay there.</tspan></text>
        <text
           xml:space="preserve"
           transform="translate(1393,134)"
           style="font-variant:normal;font-weight:normal;font-size:20px;font-family:'Times New Roman';-inkscape-font-specification:TimesNewRomanPSMT;writing-mode:lr-tb;fill:#000000;fill-opacity:1;fill-rule:nonzero;stroke:none"
           id="text40"><tspan
             x="0 7 12 24 33 42 47 53 60 69 83 92 107 117 124 133 138 152 161 170 175 184 193 199 209 214 223 233 242 247 262 268 273 282 287 295 305 319 328 333 342 351 358 364 373 378 384 393 402 407 416 423 432 440 445 455 461 466 475 485 494 501 506 515 525 535 541 547 556 565 570 576 586 595 600 605 619 629 644 653 663 672 678"
             y="0"
             sodipodi:role="line"
             id="tspan38">• The framework may help you with some early features of your application. However,</tspan></text>
        <text
           xml:space="preserve"
           transform="translate(1405,157)"
           style="font-variant:normal;font-weight:normal;font-size:20px;font-family:'Times New Roman';-inkscape-font-specification:TimesNewRomanPSMT;writing-mode:lr-tb;fill:#000000;fill-opacity:1;fill-rule:nonzero;stroke:none"
           id="text44"><tspan
             x="0 9 17 22 31 41 50 57 62 72 79 89 99 108 117 122 127 141 150 155 164 171 180 188 193 198 204 209 214 228 237 246 251 261 270 275 284 291 301 316 321 326 335 344 349 355 364 373 379 385 391 396 402 411 419 424 434 440 445 450 459 468 473 479 486 495 509 518 533 543 550 559 564 569 575 581 586 595 605 614 621 631 640 645 655 664"
             y="0"
             sodipodi:role="line"
             id="tspan42">as your product matures, it may outgrow the facilities of the framework. If you’ve put</tspan></text>
        <text
           xml:space="preserve"
           transform="translate(1405,180)"
           style="font-variant:normal;font-weight:normal;font-size:20px;font-family:'Times New Roman';-inkscape-font-specification:TimesNewRomanPSMT;writing-mode:lr-tb;fill:#000000;fill-opacity:1;fill-rule:nonzero;stroke:none"
           id="text48"><tspan
             x="0 10 19 24 29 38 47 52 57 72 81 91 101 107 116 125 130 137 143 152 161 166 171 180 190 199 206 212 218 223 229 235 244 254 259 264 273 282 287 293 300 309 323 332 347 357 364 373 378 384 390 399 408 413 419 428 437 442 451 461 470 475 489 499 506 515 520 529 538 548 553 567 577 584 593 598 607 615 620 625 631 645"
             y="0"
             sodipodi:role="line"
             id="tspan46">on that wedding ring, you’ll find the framework fighting you more and more as time</tspan></text>
        <text
           xml:space="preserve"
           transform="translate(1405,203)"
           style="font-variant:normal;font-weight:normal;font-size:20px;font-family:'Times New Roman';-inkscape-font-specification:TimesNewRomanPSMT;writing-mode:lr-tb;fill:#000000;fill-opacity:1;fill-rule:nonzero;stroke:none"
           id="text52"><tspan
             x="0 10 19 27 35 44 52"
             y="0"
             sodipodi:role="line"
             id="tspan50">passes.</tspan></text>
        <text
           xml:space="preserve"
           transform="translate(1393,232)"
           style="font-variant:normal;font-weight:normal;font-size:20px;font-family:'Times New Roman';-inkscape-font-specification:TimesNewRomanPSMT;writing-mode:lr-tb;fill:#000000;fill-opacity:1;fill-rule:nonzero;stroke:none"
           id="text56"><tspan
             x="0 7 12 24 33 42 47 53 60 69 83 92 107 117 124 133 138 152 161 170 175 184 194 204 210 220 229 234 240 249 254 263 268 278 284 291 300 309 314 320 330 339 344 349 358 367 372 377 386 396 405 410 420 430 439 446 451 456 462 468 477 487 492 501 510 516 526 532 541 547 552 557 569 579 588 593 607 616 625 630 640 649 654 662 667 676 685"
             y="0"
             sodipodi:role="line"
             id="tspan54">• The framework may evolve in a direction that you don’t find helpful. You may be stuck</tspan></text>
        <text
           xml:space="preserve"
           transform="translate(1405,255)"
           style="font-variant:normal;font-weight:normal;font-size:20px;font-family:'Times New Roman';-inkscape-font-specification:TimesNewRomanPSMT;writing-mode:lr-tb;fill:#000000;fill-opacity:1;fill-rule:nonzero;stroke:none"
           id="text60"><tspan
             x="0 9 19 28 35 44 54 60 69 78 83 88 98 103 112 121 136 141 151 160 167 175 181 191 200 208 213 218 227 236 241 246 256 266 275 282 287 292 301 310 316 326 331 340 350 359 364 369 381 391 400 405 419 428 437 442 451 461 470 479 484 490 496 505 515 520 530 536 546 551 557 566 575 580 589 596 605 613 618 623 638 647 653 662"
             y="0"
             sodipodi:role="line"
             id="tspan58">upgrading to new versions that don’t help you. You may even find old features, which</tspan></text>
        <text
           xml:space="preserve"
           transform="translate(1405,278)"
           style="font-variant:normal;font-weight:normal;font-size:20px;font-family:'Times New Roman';-inkscape-font-specification:TimesNewRomanPSMT;writing-mode:lr-tb;fill:#000000;fill-opacity:1;fill-rule:nonzero;stroke:none"
           id="text64"><tspan
             x="0 9 19 28 33 47 56 66 75 80 89 97 106 111 121 127 132 137 147 153 161 170 180 190 199 208 215 221 230 239 244 254 261 266 275 284 293 302 311 317 326 335 340 346 355 360 375 384 393 401 406 411 420 429 434 439 448 455 464 469 479 485 491 497 503 512 521 527 532 537 543 553 560 565 574 584 593 598 603 613 618 627 636 645 655 660 669"
             y="0"
             sodipodi:role="line"
             id="tspan62">you made use of, disappearing or changing in ways that are difficult for you to keep up</tspan></text>
        <text
           xml:space="preserve"
           transform="translate(1405,301)"
           style="font-variant:normal;font-weight:normal;font-size:20px;font-family:'Times New Roman';-inkscape-font-specification:TimesNewRomanPSMT;writing-mode:lr-tb;fill:#000000;fill-opacity:1;fill-rule:nonzero;stroke:none"
           id="text68"><tspan
             x="0 15 21 26 35"
             y="0"
             sodipodi:role="line"
             id="tspan66">with.</tspan></text>
        <text
           xml:space="preserve"
           transform="translate(1393,329)"
           style="font-variant:normal;font-weight:normal;font-size:20px;font-family:'Times New Roman';-inkscape-font-specification:TimesNewRomanPSMT;writing-mode:lr-tb;fill:#000000;fill-opacity:1;fill-rule:nonzero;stroke:none"
           id="text72"><tspan
             x="0 7 12 25 30 39 48 63 68 77 86 96 101 111 120 125 130 139 146 151 157 164 173 187 196 211 221 228 237 242 256 265 274 279 288 298 312 321 326 335 341 351 360 369 374 379 388 397 402 407 416 426 435 440 455 461 469 478 483 492 502 511 516 525 535 544 550 560 565 573 588 594 599 608 617 622 627 637"
             y="0"
             sodipodi:role="line"
             id="tspan70">• A new and better framework may come along that you wish you could switch to.</tspan></text>
        <text
           xml:space="preserve"
           transform="translate(1392,399)"
           style="font-variant:normal;font-weight:bold;font-size:33px;font-family:'Times New Roman';-inkscape-font-specification:TimesNewRomanPS-BoldMT;writing-mode:lr-tb;fill:#000000;fill-opacity:1;fill-rule:nonzero;stroke:none"
           id="text76"><tspan
             x="0"
             y="0"
             id="tspan74">T</tspan></text>
        <text
           xml:space="preserve"
           transform="translate(1414,399)"
           style="font-variant:normal;font-weight:bold;font-size:33px;font-family:'Times New Roman';-inkscape-font-specification:TimesNewRomanPS-BoldMT;writing-mode:lr-tb;fill:#000000;fill-opacity:1;fill-rule:nonzero;stroke:none"
           id="text80"><tspan
             x="0 26"
             y="0"
             sodipodi:role="line"
             id="tspan78">HE</tspan></text>
        <text
           xml:space="preserve"
           transform="translate(1470,399)"
           style="font-variant:normal;font-weight:bold;font-size:33px;font-family:'Times New Roman';-inkscape-font-specification:TimesNewRomanPS-BoldMT;writing-mode:lr-tb;fill:#000000;fill-opacity:1;fill-rule:nonzero;stroke:none"
           id="text84"><tspan
             x="0"
             y="0"
             id="tspan82">S</tspan></text>
        <text
           xml:space="preserve"
           transform="translate(1488,399)"
           style="font-variant:normal;font-weight:bold;font-size:33px;font-family:'Times New Roman';-inkscape-font-specification:TimesNewRomanPS-BoldMT;writing-mode:lr-tb;fill:#000000;fill-opacity:1;fill-rule:nonzero;stroke:none"
           id="text88"><tspan
             x="0 26 48 72 94 107 133"
             y="0"
             sodipodi:role="line"
             id="tspan86">OLUTION</tspan></text>
        <text
           xml:space="preserve"
           transform="translate(1392,444)"
           style="font-variant:normal;font-weight:normal;font-size:20px;font-family:'Times New Roman';-inkscape-font-specification:TimesNewRomanPSMT;writing-mode:lr-tb;fill:#000000;fill-opacity:1;fill-rule:nonzero;stroke:none"
           id="text92"><tspan
             x="0 18 27 36 41 46 52 60 65 70 79 88 93 101 111 117 126 131 137 147 156"
             y="0"
             sodipodi:role="line"
             id="tspan90">What is the solution?</tspan></text>
        <text
           xml:space="preserve"
           transform="translate(1416,483)"
           style="font-variant:normal;font-weight:normal;font-size:15px;font-family:'Times New Roman';-inkscape-font-specification:TimesNewRomanPSMT;writing-mode:lr-tb;fill:#000000;fill-opacity:1;fill-rule:nonzero;stroke:none"
           id="text96"><tspan
             x="0 11 18 25 30 34 38 49 56 61 66 73 77 81 88 95 99 104 109 116 127 134 145 152 157 164"
             y="0"
             sodipodi:role="line"
             id="tspan94">Don’t marry the framework!</tspan></text>
        <text
           xml:space="preserve"
           transform="translate(1392,525)"
           style="font-variant:normal;font-weight:normal;font-size:20px;font-family:'Times New Roman';-inkscape-font-specification:TimesNewRomanPSMT;writing-mode:lr-tb;fill:#000000;fill-opacity:1;fill-rule:nonzero;stroke:none"
           id="text100"><tspan
             x="0 14 23 28 33 42 52 61 66 75 84 93"
             y="0"
             sodipodi:role="line"
             id="tspan98">Oh, you can </tspan></text>
        <text
           xml:space="preserve"
           transform="translate(1490,525)"
           style="font-variant:normal;font-weight:normal;font-size:20px;font-family:'Times New Roman';-inkscape-font-specification:TimesNewRomanPSMT;writing-mode:lr-tb;fill:#000000;fill-opacity:1;fill-rule:nonzero;stroke:none"
           id="text104"><tspan
             x="0 9 17"
             y="0"
             sodipodi:role="line"
             id="tspan102">use</tspan></text>
        <text
           xml:space="preserve"
           transform="translate(1521,525)"
           style="font-variant:normal;font-weight:normal;font-size:20px;font-family:'Times New Roman';-inkscape-font-specification:TimesNewRomanPSMT;writing-mode:lr-tb;fill:#000000;fill-opacity:1;fill-rule:nonzero;stroke:none"
           id="text108"><tspan
             x="0 5 14 23 28 34 41 50 64 73 88 98 105 114 134 140 149 157 162 167 177 187 196 203 208 213 222 232 241 251 257 266 271 276 286 291 297 302 307 312 326 335 344 354 359 365 370 375 384 389 394 403 410 424 430 438 443 449 458 467 476 481 490 495 500 511 518 527 536"
             y="0"
             sodipodi:role="line"
             id="tspan106">the framework—just don’t couple to it. Keep it at arm’s length. Treat</tspan></text>
        <text
           xml:space="preserve"
           transform="translate(1392,548)"
           style="font-variant:normal;font-weight:normal;font-size:20px;font-family:'Times New Roman';-inkscape-font-specification:TimesNewRomanPSMT;writing-mode:lr-tb;fill:#000000;fill-opacity:1;fill-rule:nonzero;stroke:none"
           id="text112"><tspan
             x="0 5 14 23 28 34 41 50 64 73 88 98 105 114 119 128 136 141 150 155 165 174 179 188 194 200 205 210 219 228 233 238 248 257 263 273 282 291 299 304 310 319 324 334 343 352 357 367 373 378 383 392 401 406 416 425 430 439 446 451 460 466 473 482 488 497 505 510 520 526 531 536 545 554 559 568 575 584 593 599 604 613 622 627 636 643 652"
             y="0"
             sodipodi:role="line"
             id="tspan110">the framework as a detail that belongs in one of the outer circles of the architecture.</tspan></text>
        <text
           xml:space="preserve"
           transform="translate(1392,571)"
           style="font-variant:normal;font-weight:normal;font-size:20px;font-family:'Times New Roman';-inkscape-font-specification:TimesNewRomanPSMT;writing-mode:lr-tb;fill:#000000;fill-opacity:1;fill-rule:nonzero;stroke:none"
           id="text116"><tspan
             x="0 14 24 33 40 45 50 56 65 70 75 81 86 91 97 106 111 121 126 131 140 149 154 160 169 178 187 194 199 208 214 221 230 236 245 253"
             y="0"
             sodipodi:role="line"
             id="tspan114">Don’t let it into the inner circles.</tspan></text>
        <text
           xml:space="preserve"
           transform="translate(1392,614)"
           style="font-variant:normal;font-weight:normal;font-size:20px;font-family:'Times New Roman';-inkscape-font-specification:TimesNewRomanPSMT;writing-mode:lr-tb;fill:#000000;fill-opacity:1;fill-rule:nonzero;stroke:none"
           id="text120"><tspan
             x="0 6 12 17 22 31 40 45 51 58 67 81 90 105 115 122 131 136 151 160 169 174 182 187 196 206 215 220 225 235 240 250 259 266 272 282 291 296 305 315 324 331 336 346 355 363 369 378 387 395 403 408 418 428 434 443 452 457 465 470 476 483 493 507 512 518 523 531 536 546 555 563 572 577 586 592 601 609 617 626 634 639 644 652 661"
             y="0"
             sodipodi:role="line"
             id="tspan118">If the framework wants you to derive your business objects from its base classes, say</tspan></text>
        <text
           xml:space="preserve"
           transform="translate(1392,637)"
           style="font-variant:normal;font-weight:normal;font-size:20px;font-family:'Times New Roman';-inkscape-font-specification:TimesNewRomanPSMT;writing-mode:lr-tb;fill:#000000;fill-opacity:1;fill-rule:nonzero;stroke:none"
           id="text124"><tspan
             x="0 9 19 25 30 44 53 60 66 76 85 90 100 107 117 126 132 141 149 154 160 169 177 182 191 200 210 215 220 229 238 248 253 262 271 280 290 295 300 309 319 327 336 341 351 358 368 377 383 392 400 405 411 420 425 434 444 458 468 478 487 496 505 510 518 523 528 537 546 551 556 565 572 581"
             y="0"
             sodipodi:role="line"
             id="tspan122">no! Derive proxies instead, and keep those proxies in components that are </tspan></text>
        <text
           xml:space="preserve"
           transform="translate(1978,637)"
           style="font-variant:normal;font-weight:normal;font-size:20px;font-family:'Times New Roman';-inkscape-font-specification:TimesNewRomanPSMT;writing-mode:lr-tb;fill:#000000;fill-opacity:1;fill-rule:nonzero;stroke:none"
           id="text128"><tspan
             x="0 10 16 25 34 40 49"
             y="0"
             sodipodi:role="line"
             id="tspan126">plugins</tspan></text>
        <text
           xml:space="preserve"
           transform="translate(2040,637)"
           style="font-variant:normal;font-weight:normal;font-size:20px;font-family:'Times New Roman';-inkscape-font-specification:TimesNewRomanPSMT;writing-mode:lr-tb;fill:#000000;fill-opacity:1;fill-rule:nonzero;stroke:none"
           id="text132"><tspan
             x="0 5"
             y="0"
             sodipodi:role="line"
             id="tspan130">to</tspan></text>
        <text
           xml:space="preserve"
           transform="translate(1392,660)"
           style="font-variant:normal;font-weight:normal;font-size:20px;font-family:'Times New Roman';-inkscape-font-specification:TimesNewRomanPSMT;writing-mode:lr-tb;fill:#000000;fill-opacity:1;fill-rule:nonzero;stroke:none"
           id="text136"><tspan
             x="0 9 19 28 35 40 50 59 67 73 82 91 99 107 112 119 128 134 143 151"
             y="0"
             sodipodi:role="line"
             id="tspan134">your business rules.</tspan></text>
        <text
           xml:space="preserve"
           transform="translate(1392,703)"
           style="font-variant:normal;font-weight:normal;font-size:20px;font-family:'Times New Roman';-inkscape-font-specification:TimesNewRomanPSMT;writing-mode:lr-tb;fill:#000000;fill-opacity:1;fill-rule:nonzero;stroke:none"
           id="text140"><tspan
             x="0 14 24 33 40 45 50 56 65 70 75 81 88 97 111 120 135 145 152 161 169 174 180 189 194 204 209 218 228 237 244 249 258 268 275 284 289 298 308 318 327 332 337 343 352 360 365 374 383 393 398 403 409 418 423 432 441 448 457 462 471 476 481 490 499 513 518 524 533 538 548 553 562 572 586 596 606 615 624 633 638 646 651 656 665 674"
             y="0"
             sodipodi:role="line"
             id="tspan138">Don’t let frameworks into your core code. Instead, integrate them into components that</tspan></text>
        <text
           xml:space="preserve"
           transform="translate(1392,726)"
           style="font-variant:normal;font-weight:normal;font-size:20px;font-family:'Times New Roman';-inkscape-font-specification:TimesNewRomanPSMT;writing-mode:lr-tb;fill:#000000;fill-opacity:1;fill-rule:nonzero;stroke:none"
           id="text144"><tspan
             x="0 10 16 25 34 39 45 54 59 64 74 79 88 98 107 114 119 128 138 145 154 159 168 178 188 197 202 207 213 223 229 235 245 260 266 275 284 289 294 303 312 317 331 340 350 359 368 378 387 396 405 414 419 432 441 447 456"
             y="0"
             sodipodi:role="line"
             id="tspan142">plug in to your core code, following the Dependency Rule.</tspan></text>
        <text
           xml:space="preserve"
           transform="translate(1392,769)"
           style="font-variant:normal;font-weight:normal;font-size:20px;font-family:'Times New Roman';-inkscape-font-specification:TimesNewRomanPSMT;writing-mode:lr-tb;fill:#000000;fill-opacity:1;fill-rule:nonzero;stroke:none"
           id="text148"><tspan
             x="0 11 21 28 33 42 51 60 74 84 90 99 104 109 123 132 141 151 160 165 174 184 193 198 204 210 219 228 233 244 254 261 267 276 285 290 295 306 316 323 329 338 347 352 358 366 371 380 385 394 404 414 424 429 439 448 458 467 476 486 495 504 513 522 527 533 542 548 557 566 571 577 587 596 601 607 614 623 637 646 661 671 678 687"
             y="0"
             sodipodi:role="line"
             id="tspan146">For example, maybe you like Spring. Spring is a good dependency injection framework.</tspan></text>
        <text
           xml:space="preserve"
           transform="translate(1392,792)"
           style="font-variant:normal;font-weight:normal;font-size:20px;font-family:'Times New Roman';-inkscape-font-specification:TimesNewRomanPSMT;writing-mode:lr-tb;fill:#000000;fill-opacity:1;fill-rule:nonzero;stroke:none"
           id="text152"><tspan
             x="0 17 26 35 45 54 59 68 78 87 92 101 109 118 123 134 144 151 157 166 175 180 185 195 200 209 218 223 233 240 255 261 268 277 282 291 301 310 317 322 332 341 351 360 369 379 388 397 406 412 421 429 434 439 451 460 469 474 480 488 493 499 505 514 523 528 533 543 552 557 562 571 581 590 595 603 612 622 631 637 647 652 661 671"
             y="0"
             sodipodi:role="line"
             id="tspan150">Maybe you use Spring to auto-wire your dependencies. That’s fine, but you should not</tspan></text>
        <text
           xml:space="preserve"
           transform="translate(1392,815)"
           style="font-variant:normal;font-weight:normal;font-size:20px;font-family:'Times New Roman';-inkscape-font-specification:TimesNewRomanPSMT;writing-mode:lr-tb;fill:#000000;fill-opacity:1;fill-rule:nonzero;stroke:none"
           id="text156"><tspan
             x="0 8 18 25 31 40 49 55 64"
             y="0"
             sodipodi:role="line"
             id="tspan154">sprinkle </tspan></text>
        <text
           xml:space="preserve"
           transform="translate(1461,815)"
           style="font-variant:normal;font-weight:normal;font-size:16px;font-family:'Courier New';-inkscape-font-specification:CourierNewPSMT;writing-mode:lr-tb;fill:#000000;fill-opacity:1;fill-rule:nonzero;stroke:none"
           id="text160"><tspan
             x="0 10 20 30 40 50 60 70 80 90"
             y="0"
             sodipodi:role="line"
             id="tspan158">@autowired</tspan></text>
        <text
           xml:space="preserve"
           transform="translate(1566,815)"
           style="font-variant:normal;font-weight:normal;font-size:20px;font-family:'Times New Roman';-inkscape-font-specification:TimesNewRomanPSMT;writing-mode:lr-tb;fill:#000000;fill-opacity:1;fill-rule:nonzero;stroke:none"
           id="text164"><tspan
             x="0 9 18 27 37 42 51 56 62 72 81 89 94 103 109 115 120 125 134 141 151 160 169 178 188 197 202 207 216 226 235 242 247 257 266 274 280 289 298 306 314 319 329 339 345 354 363 368 376 381 386 398 408 417 424 429 439 448 456 462 471 480 488"
             y="0"
             sodipodi:role="line"
             id="tspan162">annotations all throughout your business objects. Your business</tspan></text>
        <text
           xml:space="preserve"
           transform="translate(1392,838)"
           style="font-variant:normal;font-weight:normal;font-size:20px;font-family:'Times New Roman';-inkscape-font-specification:TimesNewRomanPSMT;writing-mode:lr-tb;fill:#000000;fill-opacity:1;fill-rule:nonzero;stroke:none"
           id="text168"><tspan
             x="0 10 20 26 35 44 49 57 62 70 79 89 98 104 114 119 128 138 143 148 157 166 176 191 196 205 215 225 234 239 244 255 265 272 278 287 296"
             y="0"
             sodipodi:role="line"
             id="tspan166">objects should not know about Spring.</tspan></text>
        <text
           xml:space="preserve"
           transform="translate(1392,881)"
           style="font-variant:normal;font-weight:normal;font-size:20px;font-family:'Times New Roman';-inkscape-font-specification:TimesNewRomanPSMT;writing-mode:lr-tb;fill:#000000;fill-opacity:1;fill-rule:nonzero;stroke:none"
           id="text172"><tspan
             x="0 6 15 23 28 37 46 56 61 66 75 85 94 99 108 117 126 131 140 148 157 162 173 183 190 196 205 214 219 224 234 239 245 254 260 269 278 283 288 298 307 317 326 335 345 354 363 372 378 387 395 400 406 415 420 430 435 444 454 463 470"
             y="0"
             sodipodi:role="line"
             id="tspan170">Instead, you can use Spring to inject dependencies into your </tspan></text>
        <text
           xml:space="preserve"
           transform="translate(1867,881)"
           style="font-variant:normal;font-weight:normal;font-size:16px;font-family:'Courier New';-inkscape-font-specification:CourierNewPSMT;writing-mode:lr-tb;fill:#000000;fill-opacity:1;fill-rule:nonzero;stroke:none"
           id="text176"><tspan
             x="0 10 20 30"
             y="0"
             sodipodi:role="line"
             id="tspan174">Main</tspan></text>
        <text
           xml:space="preserve"
           transform="translate(1912,881)"
           style="font-variant:normal;font-weight:normal;font-size:20px;font-family:'Times New Roman';-inkscape-font-specification:TimesNewRomanPSMT;writing-mode:lr-tb;fill:#000000;fill-opacity:1;fill-rule:nonzero;stroke:none"
           id="text180"><tspan
             x="0 9 19 33 43 53 62 71 80 85 90 95 101 106 112 120 125 139"
             y="0"
             sodipodi:role="line"
             id="tspan178">component. It’s OK</tspan></text>
        <text
           xml:space="preserve"
           transform="translate(1392,904)"
           style="font-variant:normal;font-weight:normal;font-size:20px;font-family:'Times New Roman';-inkscape-font-specification:TimesNewRomanPSMT;writing-mode:lr-tb;fill:#000000;fill-opacity:1;fill-rule:nonzero;stroke:none"
           id="text184"><tspan
             x="0 6 16 23"
             y="0"
             sodipodi:role="line"
             id="tspan182">for </tspan></text>
        <text
           xml:space="preserve"
           transform="translate(1420,904)"
           style="font-variant:normal;font-weight:normal;font-size:16px;font-family:'Courier New';-inkscape-font-specification:CourierNewPSMT;writing-mode:lr-tb;fill:#000000;fill-opacity:1;fill-rule:nonzero;stroke:none"
           id="text188"><tspan
             x="0 10 20 30"
             y="0"
             sodipodi:role="line"
             id="tspan186">Main</tspan></text>
        <text
           xml:space="preserve"
           transform="translate(1465,904)"
           style="font-variant:normal;font-weight:normal;font-size:20px;font-family:'Times New Roman';-inkscape-font-specification:TimesNewRomanPSMT;writing-mode:lr-tb;fill:#000000;fill-opacity:1;fill-rule:nonzero;stroke:none"
           id="text192"><tspan
             x="0 5 15 20 29 38 48 63 68 77 87 97 106 111 116 127 137 144 150 159 168 173 181 187 196 205 214"
             y="0"
             sodipodi:role="line"
             id="tspan190">to know about Spring since </tspan></text>
        <text
           xml:space="preserve"
           transform="translate(1684,904)"
           style="font-variant:normal;font-weight:normal;font-size:16px;font-family:'Courier New';-inkscape-font-specification:CourierNewPSMT;writing-mode:lr-tb;fill:#000000;fill-opacity:1;fill-rule:nonzero;stroke:none"
           id="text196"><tspan
             x="0 10 20 30"
             y="0"
             sodipodi:role="line"
             id="tspan194">Main</tspan></text>
        <text
           xml:space="preserve"
           transform="translate(1729,904)"
           style="font-variant:normal;font-weight:normal;font-size:20px;font-family:'Times New Roman';-inkscape-font-specification:TimesNewRomanPSMT;writing-mode:lr-tb;fill:#000000;fill-opacity:1;fill-rule:nonzero;stroke:none"
           id="text200"><tspan
             x="0 6 14 19 24 33 42 47 57 63 70 75 81 90 98 103 108 113 119 129 144 153 161 166 173 179 188 198 207 213 218 227 237 251 261 271 280 289 298 303 308 314 323 328 333 342"
             y="0"
             sodipodi:role="line"
             id="tspan198">is the dirtiest, lowest-level component in the</tspan></text>
        <text
           xml:space="preserve"
           transform="translate(1392,927)"
           style="font-variant:normal;font-weight:normal;font-size:20px;font-family:'Times New Roman';-inkscape-font-specification:TimesNewRomanPSMT;writing-mode:lr-tb;fill:#000000;fill-opacity:1;fill-rule:nonzero;stroke:none"
           id="text204"><tspan
             x="0 9 16 25 34 40 45 54 63 68 77 84 93"
             y="0"
             sodipodi:role="line"
             id="tspan202">architecture.</tspan></text>
      </g>
    </g>
  </g>
</svg>
