<?xml version="1.0" encoding="UTF-8" standalone="no"?>
<!-- Created with Inkscape (http://www.inkscape.org/) -->

<svg
   version="1.1"
   id="svg2"
   width="816"
   height="1056"
   viewBox="0 0 816 1056"
   sodipodi:docname="clean_arch.pdf"
   xmlns:inkscape="http://www.inkscape.org/namespaces/inkscape"
   xmlns:sodipodi="http://sodipodi.sourceforge.net/DTD/sodipodi-0.dtd"
   xmlns="http://www.w3.org/2000/svg"
   xmlns:svg="http://www.w3.org/2000/svg">
  <defs
     id="defs6">
    <clipPath
       clipPathUnits="userSpaceOnUse"
       id="clipPath18">
      <path
         d="m 4872,0 h 696 V 1056 H 4872 V 0"
         clip-rule="evenodd"
         id="path16" />
    </clipPath>
    <clipPath
       clipPathUnits="userSpaceOnUse"
       id="clipPath28">
      <path
         d="m 4872,66 h 696 V 996 H 4872 V 66"
         clip-rule="evenodd"
         id="path26" />
    </clipPath>
  </defs>
  <sodipodi:namedview
     id="namedview4"
     pagecolor="#ffffff"
     bordercolor="#000000"
     borderopacity="0.25"
     inkscape:showpageshadow="2"
     inkscape:pageopacity="0.0"
     inkscape:pagecheckerboard="0"
     inkscape:deskcolor="#d1d1d1" />
  <g
     id="g8"
     inkscape:groupmode="layer"
     inkscape:label="clean_arch"
     transform="translate(59.999999,2.64e-5)">
    <g
       id="g10" />
    <g
       id="g12"
       transform="translate(-4872)">
      <g
         id="g14"
         clip-path="url(#clipPath18)">
        <g
           id="g20" />
      </g>
    </g>
    <g
       id="g22"
       transform="translate(-4872)">
      <g
         id="g24"
         clip-path="url(#clipPath28)">
        <text
           xml:space="preserve"
           transform="translate(4872,82.67188)"
           style="font-variant:normal;font-weight:normal;font-size:20px;font-family:'Times New Roman';-inkscape-font-specification:TimesNewRomanPSMT;writing-mode:lr-tb;fill:#000000;fill-opacity:1;fill-rule:nonzero;stroke:none"
           id="text32"><tspan
             x="0 15 24 32 37 46 51 61 67 77 83 91 97 107 116 121 131 137 142 152 161 168 177 187 196 205 214 219 225 234 243 248 253 258 273 282 288 297 306 311 326 335 343 348 357 366 375 385 395 404 413 420 425 434 441 450 460 465 471 480 485 498 508 516 521 531 540 545 550 564 573 580 585 595 602 612 622 631 640 645 650 665 674 682 687"
             y="0"
             sodipodi:role="line"
             id="tspan30">was a division of Teradyne Inc., which was headquartered in Boston. Our product was a</tspan></text>
        <text
           xml:space="preserve"
           transform="translate(4872,106)"
           style="font-variant:normal;font-weight:normal;font-size:20px;font-family:'Times New Roman';-inkscape-font-specification:TimesNewRomanPSMT;writing-mode:lr-tb;fill:#000000;fill-opacity:1;fill-rule:nonzero;stroke:none"
           id="text36"><tspan
             x="0 8 17 25 30 39 53 58 63 72 81 86 91 100 108 117 127 132 139 148 154 163 168 174 184 193 199 208 213 222 228 237 246 253 263 273 288 297 304 313 323 328 334 343 351 360 367 375 380 385 395 400 405 412 418 432 437 446 452 461 470 475 482 492 501 507 516 521 530 540 554 564 574 583 592 601 606 614 619 624 634 639 649 658 665"
             y="0"
             sodipodi:role="line"
             id="tspan34">system that used relatively high-powered lasers to trim electronic components to very</tspan></text>
        <text
           xml:space="preserve"
           transform="translate(4872,129)"
           style="font-variant:normal;font-weight:normal;font-size:20px;font-family:'Times New Roman';-inkscape-font-specification:TimesNewRomanPSMT;writing-mode:lr-tb;fill:#000000;fill-opacity:1;fill-rule:nonzero;stroke:none"
           id="text40"><tspan
             x="0 6 12 21 30 35 40 50 56 65 72 81 90 99 108 116"
             y="0"
             sodipodi:role="line"
             id="tspan38">fine tolerances.</tspan></text>
        <text
           xml:space="preserve"
           transform="translate(4872,172)"
           style="font-variant:normal;font-weight:normal;font-size:20px;font-family:'Times New Roman';-inkscape-font-specification:TimesNewRomanPSMT;writing-mode:lr-tb;fill:#000000;fill-opacity:1;fill-rule:nonzero;stroke:none"
           id="text44"><tspan
             x="0 13 22 31 40 45 51 60 65 70 79 89 97 106 111 121 130 139 147 152 157 171 180 189 198 204 213 222 227 236 243 252 259 267 272 287 297 306 312 322 327 335 341 347 356 363 371 380 387 396 405 414 419 428 434 443 452 457 464 474 483 489 498 503 512 522 536 546 556 565 574 583 588 596 601 611 620 625"
             y="0"
             sodipodi:role="line"
             id="tspan42">Back in those days, manufacturers would silk-screen electronic components onto</tspan></text>
        <text
           xml:space="preserve"
           transform="translate(4872,195)"
           style="font-variant:normal;font-weight:normal;font-size:20px;font-family:'Times New Roman';-inkscape-font-specification:TimesNewRomanPSMT;writing-mode:lr-tb;fill:#000000;fill-opacity:1;fill-rule:nonzero;stroke:none"
           id="text48"><tspan
             x="0 9 18 25 34 48 54 63 68 76 85 95 103 108 115 124 129 138 146 151 156 168 177 187 195 204 209 217 226 236 244 249 256 265 270 279 287 292 307 316 323 332 337 347 356 361 366 375 384 389 399 406 416 425 432 437 447 453 458 468 473 479 488 497 506 511 519 529 538 547 554 563 568 573 585 594"
             y="0"
             sodipodi:role="line"
             id="tspan46">ceramic substrates. Those substrates were on the order of 1 inch square. The</tspan></text>
        <text
           xml:space="preserve"
           transform="translate(4872,218)"
           style="font-variant:normal;font-weight:normal;font-size:20px;font-family:'Times New Roman';-inkscape-font-specification:TimesNewRomanPSMT;writing-mode:lr-tb;fill:#000000;fill-opacity:1;fill-rule:nonzero;stroke:none"
           id="text52"><tspan
             x="0 9 19 33 43 53 62 71 80 85 93 98 113 122 129 138 143 148 157 167 173 182 191 197 203 212 217 224 233 241 247 255 260 270 277 285 305 315 324 334 340 349 358 366 371 376 385 394 399 404 411 420 428 434 442 447 452 457 466 475 480 486 492 502 517 522 532 538 543 552 561 568 575 584 593 598"
             y="0"
             sodipodi:role="line"
             id="tspan50">components were typically resistors—devices that resist the flow of current.</tspan></text>
        <text
           xml:space="preserve"
           transform="translate(4872,261)"
           style="font-variant:normal;font-weight:normal;font-size:20px;font-family:'Times New Roman';-inkscape-font-specification:TimesNewRomanPSMT;writing-mode:lr-tb;fill:#000000;fill-opacity:1;fill-rule:nonzero;stroke:none"
           id="text56"><tspan
             x="0 12 21 30 35 42 51 59 65 73 78 87 96 105 114 119 129 135 140 149 154 161 170 178 184 192 197 207 214 219 229 238 248 257 266 276 284 289 299 308 313 322 327 336 345 359 369 378 385 390 400 406 411 417 426 435 440 450 457 465 470 475 481 490 499 505 514 524 530 539 548 553 559 564 572 577 586 596 610 620 630 638 644 649 655 665"
             y="0"
             sodipodi:role="line"
             id="tspan54">The resistance of a resistor depends on a number of factors, including its composition</tspan></text>
        <text
           xml:space="preserve"
           transform="translate(4872,284)"
           style="font-variant:normal;font-weight:normal;font-size:20px;font-family:'Times New Roman';-inkscape-font-specification:TimesNewRomanPSMT;writing-mode:lr-tb;fill:#000000;fill-opacity:1;fill-rule:nonzero;stroke:none"
           id="text60"><tspan
             x="0 9 18 28 33 39 44 52 57 66 75 85 99 108 113 120 128 133 138 150 159 168 173 188 194 204 213 220 225 230 239 248 253 260 269 277 283 291 296 306 312 317 322 327 336 345 350 356 365 373 381 386 393 402 410 416 424 429 438 447 456 465 470 476 481 486 495 504 512"
             y="0"
             sodipodi:role="line"
             id="tspan58">and its geometry. The wider the resistor, the less resistance it has.</tspan></text>
        <text
           xml:space="preserve"
           transform="translate(4872,327)"
           style="font-variant:normal;font-weight:normal;font-size:20px;font-family:'Times New Roman';-inkscape-font-specification:TimesNewRomanPSMT;writing-mode:lr-tb;fill:#000000;fill-opacity:1;fill-rule:nonzero;stroke:none"
           id="text64"><tspan
             x="0 14 23 30 35 43 52 60 65 74 88 93 108 118 127 133 143 148 158 168 176 182 187 193 203 212 217 222 231 240 245 254 263 270 279 293 299 308 313 321 330 340 348 353 360 369 374 383 388 394 403 408 417 422 431 440 447 456 465 473 481 486 491 500 509 514 519 528 537 547 552 562 569 579 589 598 606 611 616 625 634 639 644 658 667 677"
             y="0"
             sodipodi:role="line"
             id="tspan62">Our system would position the ceramic substrate in a harness that had probes that made</tspan></text>
        <text
           xml:space="preserve"
           transform="translate(4872,350)"
           style="font-variant:normal;font-weight:normal;font-size:20px;font-family:'Times New Roman';-inkscape-font-specification:TimesNewRomanPSMT;writing-mode:lr-tb;fill:#000000;fill-opacity:1;fill-rule:nonzero;stroke:none"
           id="text68"><tspan
             x="0 9 19 28 33 42 51 56 61 76 82 87 96 101 106 115 124 129 136 145 153 159 167 172 182 189 197 202 207 219 228 237 242 250 259 267 272 281 295 300 315 325 334 340 350 355 369 378 387 395 404 411 420 425 430 439 448 453 460 469 477 483 491 496 505 514 523 532 537 547 553 558 563 572 581 586 593 602 610 616 624 629 639 646 654 659 664 673 682"
             y="0"
             sodipodi:role="line"
             id="tspan66">contact with the resistors. The system would measure the resistance of the resistors, and</tspan></text>
        <text
           xml:space="preserve"
           transform="translate(4872,373)"
           style="font-variant:normal;font-weight:normal;font-size:20px;font-family:'Times New Roman';-inkscape-font-specification:TimesNewRomanPSMT;writing-mode:lr-tb;fill:#000000;fill-opacity:1;fill-rule:nonzero;stroke:none"
           id="text72"><tspan
             x="0 5 14 23 32 37 46 54 63 68 77 82 88 97 105 114 121 126 131 141 146 156 165 172 181 186 196 202 208 213 223 232 239 244 252 257 267 273 278 283 292 301 306 313 322 330 336 344 349 359 365 370 375 389 398 407 413 422 431 436 442 447 452 457 466 472 481 490 499 506 511 520 529 539 544 549 558 564 573 582 591 598 603 612 621 626 632 638 643 649"
             y="0"
             sodipodi:role="line"
             id="tspan70">then use a laser to burn off parts of the resistor, making it thinner and thinner until it</tspan></text>
        <text
           xml:space="preserve"
           transform="translate(4872,396)"
           style="font-variant:normal;font-weight:normal;font-size:20px;font-family:'Times New Roman';-inkscape-font-specification:TimesNewRomanPSMT;writing-mode:lr-tb;fill:#000000;fill-opacity:1;fill-rule:nonzero;stroke:none"
           id="text76"><tspan
             x="0 7 16 25 34 43 52 62 67 72 81 90 95 105 114 122 128 135 144 154 159 166 175 183 189 197 202 211 220 229 238 243 253 262 268 277 286 291 306 312 317 326 332 341 346 355 360 365 374 383 388 397 402 412 418 423 432 437 447 456 463 472 481 490 495 500 510 517 522 530 540"
             y="0"
             sodipodi:role="line"
             id="tspan74">reached the desired resistance value within a tenth of a percent or so.</tspan></text>
        <text
           xml:space="preserve"
           transform="translate(4872,439)"
           style="font-variant:normal;font-weight:normal;font-size:20px;font-family:'Times New Roman';-inkscape-font-specification:TimesNewRomanPSMT;writing-mode:lr-tb;fill:#000000;fill-opacity:1;fill-rule:nonzero;stroke:none"
           id="text80"><tspan
             x="0 16 25 30 38 48 54 64 69 74 83 92 100 109 114 122 131 139 144 153 167 175 180 185 195 200 214 223 232 241 247 256 265 270 279 286 295 302 310 315 320 336 345 350 359 365 373 383 388 397 405 414 424 429 437 447 461 470 475 481 490 497 506 516 525 533 542 547 555 564 572 577 586 600 608 613 618 628 633 638 645 651"
             y="0"
             sodipodi:role="line"
             id="tspan78">We sold these systems to manufacturers. We also used some in-house systems to trim</tspan></text>
        <text
           xml:space="preserve"
           transform="translate(4872,462)"
           style="font-variant:normal;font-weight:normal;font-size:20px;font-family:'Times New Roman';-inkscape-font-specification:TimesNewRomanPSMT;writing-mode:lr-tb;fill:#000000;fill-opacity:1;fill-rule:nonzero;stroke:none"
           id="text84"><tspan
             x="0 7 16 22 31 36 42 52 61 67 76 81 89 103 112 118 124 129 139 148 153 162 171 180 188 193 199 209 216 221 229 243 252 258 264 269 283 292 301 310 316 325 334 339 348 355 364 371 379"
             y="0"
             sodipodi:role="line"
             id="tspan82">relatively small batches for small manufacturers.</tspan></text>
        <text
           xml:space="preserve"
           transform="translate(4872,505)"
           style="font-variant:normal;font-weight:normal;font-size:20px;font-family:'Times New Roman';-inkscape-font-specification:TimesNewRomanPSMT;writing-mode:lr-tb;fill:#000000;fill-opacity:1;fill-rule:nonzero;stroke:none"
           id="text88"><tspan
             x="0 12 21 30 35 44 54 68 78 87 92 101 108 113 128 137 145 150 159 168 173 190 200 210 220 225 230 242 251 257 265 270 285 294 302 307 313 322 327 332 341 350 355 365 374 383 391 396 411 420 429 438 443 457 466 475 484 489 498 508 522 532 541 550 556 565 573 578 588 597 603 609 614 619 624 633 642 648 655 660 670 685"
             y="0"
             sodipodi:role="line"
             id="tspan86">The computer was an M365. This was in the days when many companies built their own</tspan></text>
        <text
           xml:space="preserve"
           transform="translate(4872,528)"
           style="font-variant:normal;font-weight:normal;font-size:20px;font-family:'Times New Roman';-inkscape-font-specification:TimesNewRomanPSMT;writing-mode:lr-tb;fill:#000000;fill-opacity:1;fill-rule:nonzero;stroke:none"
           id="text92"><tspan
             x="0 9 19 33 43 52 57 66 73 81 87 92 102 111 118 127 137 146 155 164 169 179 188 194 200 205 210 215 224 233 238 255 265 275 285 290 299 308 318 323 331 340 350 360 366 372 381 391 396 402 407 412 417 427 432 441 447 453 458 464 469 477 482 492 498 508 514 522 528 538 547 555 560 565 577 586 595 600 617 627 637 647 652 667 676"
             y="0"
             sodipodi:role="line"
             id="tspan90">computers: Teradyne built the M365 and supplied it to all its divisions. The M365 was</tspan></text>
        <text
           xml:space="preserve"
           transform="translate(4872,551)"
           style="font-variant:normal;font-weight:normal;font-size:20px;font-family:'Times New Roman';-inkscape-font-specification:TimesNewRomanPSMT;writing-mode:lr-tb;fill:#000000;fill-opacity:1;fill-rule:nonzero;stroke:none"
           id="text96"><tspan
             x="0 9 18 23 32 41 50 59 68 77 86 96 101 111 120 127 135 141 151 160 165 175 181 186 195 200 211 225 236 243 253 273 282 287 297 307 317 326 332 341 348 353 367 373 382 388 397 407 421 431 440 445 454 461 466 476 482 487 492 501 510 515 525 534 542"
             y="0"
             sodipodi:role="line"
             id="tspan94">an enhanced version of a PDP-8—a popular minicomputer of the day.</tspan></text>
        <text
           xml:space="preserve"
           transform="translate(4872,594)"
           style="font-variant:normal;font-weight:normal;font-size:20px;font-family:'Times New Roman';-inkscape-font-specification:TimesNewRomanPSMT;writing-mode:lr-tb;fill:#000000;fill-opacity:1;fill-rule:nonzero;stroke:none"
           id="text100"><tspan
             x="0 12 21 30 35 52 62 72 82 87 96 106 115 120 127 137 143 149 158 168 173 178 187 196 201 211 221 229 235 240 246 256 265 271 280 289 294 299 308 318 324 333 338 343 358 367 373 382 391 396 410 420 430 439 449 454 459 468 477 482 491 500 507 516 530 536 545 550 558 567 577 585 590 597 606 611 620 628 633 642 651 661 670"
             y="0"
             sodipodi:role="line"
             id="tspan98">The M365 controlled the positioning table, which moved the ceramic substrates under</tspan></text>
        <text
           xml:space="preserve"
           transform="translate(4872,617)"
           style="font-variant:normal;font-weight:normal;font-size:20px;font-family:'Times New Roman';-inkscape-font-specification:TimesNewRomanPSMT;writing-mode:lr-tb;fill:#000000;fill-opacity:1;fill-rule:nonzero;stroke:none"
           id="text104"><tspan
             x="0 5 14 23 28 38 45 55 65 74 82 87 92 98 103 108 117 127 136 141 148 158 164 170 179 189 194 199 208 217 222 236 245 254 262 271 278 287 301 310 319 324 329 337 346 354 359 368 382 387 396 405 415 420 425 434 443 448 454 463 471 480 486 491 496 508 517 526 531 537 546 554 563 570 575 590 599 607 612 622 632 640 646 651 657 667 676 685"
             y="0"
             sodipodi:role="line"
             id="tspan102">the probes. It controlled the measurement system and the laser. The laser was positioned</tspan></text>
        <text
           xml:space="preserve"
           transform="translate(4872,640)"
           style="font-variant:normal;font-weight:normal;font-size:20px;font-family:'Times New Roman';-inkscape-font-specification:TimesNewRomanPSMT;writing-mode:lr-tb;fill:#000000;fill-opacity:1;fill-rule:nonzero;stroke:none"
           id="text108"><tspan
             x="0 9 17 23 32 41"
             y="0"
             sodipodi:role="line"
             id="tspan106">using </tspan></text>
        <text
           xml:space="preserve"
           transform="translate(4918,640)"
           style="font-variant:normal;font-weight:normal;font-size:20px;font-family:'Times New Roman';-inkscape-font-specification:TimesNewRomanPSMT;writing-mode:lr-tb;fill:#000000;fill-opacity:1;fill-rule:nonzero;stroke:none"
           id="text112"><tspan
             x="0"
             y="0"
             id="tspan110">X</tspan></text>
        <text
           xml:space="preserve"
           transform="translate(4932,640)"
           style="font-variant:normal;font-weight:normal;font-size:20px;font-family:'Times New Roman';-inkscape-font-specification:TimesNewRomanPSMT;writing-mode:lr-tb;fill:#000000;fill-opacity:1;fill-rule:nonzero;stroke:none"
           id="text116"><tspan
             x="0"
             y="0"
             id="tspan114">-</tspan></text>
        <text
           xml:space="preserve"
           transform="translate(4939,640)"
           style="font-variant:normal;font-weight:normal;font-size:20px;font-family:'Times New Roman';-inkscape-font-specification:TimesNewRomanPSMT;writing-mode:lr-tb;fill:#000000;fill-opacity:1;fill-rule:nonzero;stroke:none"
           id="text120"><tspan
             x="0"
             y="0"
             id="tspan118">Y</tspan></text>
        <text
           xml:space="preserve"
           transform="translate(4958,640)"
           style="font-variant:normal;font-weight:normal;font-size:20px;font-family:'Times New Roman';-inkscape-font-specification:TimesNewRomanPSMT;writing-mode:lr-tb;fill:#000000;fill-opacity:1;fill-rule:nonzero;stroke:none"
           id="text124"><tspan
             x="0 14 20 27 34 44 51 59 64 69 78 87 92 97 106 116 125 131 141 146 153 163 168 177 182 191 196 205 214 224 233 240 245 255 262 272 281 288 297 311 316 325 335 344 349 356 366 372 377 382 394 403 412 417 426 436 450 460 469 474 483 490 495 504 514 523 529 539 544 553 559 567"
             y="0"
             sodipodi:role="line"
             id="tspan122">mirrors that could rotate under program control. The computer could also</tspan></text>
        <text
           xml:space="preserve"
           transform="translate(4872,663)"
           style="font-variant:normal;font-weight:normal;font-size:20px;font-family:'Times New Roman';-inkscape-font-specification:TimesNewRomanPSMT;writing-mode:lr-tb;fill:#000000;fill-opacity:1;fill-rule:nonzero;stroke:none"
           id="text128"><tspan
             x="0 9 19 28 33 40 50 56 61 66 75 84 89 99 109 124 133 140 145 153 162 167 172 178 187 196 201 211 217 222 227 236 245 250 256 265 273 282 288"
             y="0"
             sodipodi:role="line"
             id="tspan126">control the power setting of the laser.</tspan></text>
        <text
           xml:space="preserve"
           transform="translate(4872,706)"
           style="font-variant:normal;font-weight:normal;font-size:20px;font-family:'Times New Roman';-inkscape-font-specification:TimesNewRomanPSMT;writing-mode:lr-tb;fill:#000000;fill-opacity:1;fill-rule:nonzero;stroke:none"
           id="text132"><tspan
             x="0 12 21 30 35 45 54 64 73 79 89 99 113 122 131 136 141 150 159 169 175 182 192 201 215 224 233 238 243 253 259 264 269 278 287 292 309 319 329 339 344 359 368 376 381 388 397 403 412 417 423 433 442 448 457 462 472 479 485 499 505 510 516 526 535 540 545 557 566 575 582 591 596 611 620 628 633 642 652 657 667 673 681 690"
             y="0"
             sodipodi:role="line"
             id="tspan130">The development environment of the M365 was relatively primitive. There was no disk.</tspan></text>
        <text
           xml:space="preserve"
           transform="translate(4872,729)"
           style="font-variant:normal;font-weight:normal;font-size:20px;font-family:'Times New Roman';-inkscape-font-specification:TimesNewRomanPSMT;writing-mode:lr-tb;fill:#000000;fill-opacity:1;fill-rule:nonzero;stroke:none"
           id="text136"><tspan
             x="0 17 26 34 42 47 55 60 70 77 86 95 104 109 124 133 141 146 156 165 170 175 184 194 203 208 217 226 233 238 245 251 261 270 279 287 292 297 306 315 320 325 331 341 351 360 369 379 384 390 396 405 414 419 429 435 445 450 460 467 472 479 488 497 506 511 520 529 539 545 555 560 565 574 584 593 598 607 616 624 632 641 646 651 660 668"
             y="0"
             sodipodi:role="line"
             id="tspan134">Mass storage was on tape cartridges that looked like old 8-track audio tape cassettes.</tspan></text>
        <text
           xml:space="preserve"
           transform="translate(4872,752)"
           style="font-variant:normal;font-weight:normal;font-size:20px;font-family:'Times New Roman';-inkscape-font-specification:TimesNewRomanPSMT;writing-mode:lr-tb;fill:#000000;fill-opacity:1;fill-rule:nonzero;stroke:none"
           id="text140"><tspan
             x="0 12 21 30 35 40 49 59 68 76 81 90 99 109 114 124 131 137 147 156 164 169 184 193 200 209 214 228 237 247 256 261 271 280 285 296 303 309 316 330 339 344 353"
             y="0"
             sodipodi:role="line"
             id="tspan138">The tapes and drives were made by Tri-Data.</tspan></text>
        <text
           xml:space="preserve"
           transform="translate(4872,795)"
           style="font-variant:normal;font-weight:normal;font-size:20px;font-family:'Times New Roman';-inkscape-font-specification:TimesNewRomanPSMT;writing-mode:lr-tb;fill:#000000;fill-opacity:1;fill-rule:nonzero;stroke:none"
           id="text144"><tspan
             x="0 11 17 26 35 40 45 54 63 68 78 85 90 97 106 115 124 129 138 147 157 163 173 178 187 196 204 212 221 226 231 240 248 253 263 269 274 279 288 297 302 312 321 329 334 339 344 353 362 367 372 381 391 400 405 420 429 437 442 452 459 465 474 483 488 497 507 512 518 527 532 541 546 552 562 572 582 587 592 604 613 622 627 637 644 650 660"
             y="0"
             sodipodi:role="line"
             id="tspan142">Like the 8-track audio cassettes of the day, the tape was oriented in a loop. The drive</tspan></text>
        <text
           xml:space="preserve"
           transform="translate(4872,818)"
           style="font-variant:normal;font-weight:normal;font-size:20px;font-family:'Times New Roman';-inkscape-font-specification:TimesNewRomanPSMT;writing-mode:lr-tb;fill:#000000;fill-opacity:1;fill-rule:nonzero;stroke:none"
           id="text148"><tspan
             x="0 14 24 34 43 53 58 63 72 81 86 91 100 110 119 124 130 139 144 154 163 169 178 183 193 202 211 216 226 232 239 248 257 262 268 278 287 307 312 321 330 337 346 351 366 375 383 388 397 407 412 419 428 443 449 458 468 474 479 485 491 496 505 515 524 529 544 553 562 567 576 586 591 596 606 611 621 631 639 645 650 656 666"
             y="0"
             sodipodi:role="line"
             id="tspan146">moved the tape in only one direction—there was no rewind! If you wanted to position</tspan></text>
        <text
           xml:space="preserve"
           transform="translate(4872,841)"
           style="font-variant:normal;font-weight:normal;font-size:20px;font-family:'Times New Roman';-inkscape-font-specification:TimesNewRomanPSMT;writing-mode:lr-tb;fill:#000000;fill-opacity:1;fill-rule:nonzero;stroke:none"
           id="text152"><tspan
             x="0 5 14 23 28 33 42 52 61 66 75 80 85 90 99 108 113 123 132 141 147 156 165 171 180 189 194 199 208 218 227 232 241 250 260 265 270 280 285 293 302 311 321 326 332 337 342 348 358 365 380 389 396 406 411 416 426 431 437 442 450 455 464 470 480 489 499 504 514 524 530 539 544 549"
             y="0"
             sodipodi:role="line"
             id="tspan150">the tape at the beginning, you had to send it forward to its “load point.”</tspan></text>
        <text
           xml:space="preserve"
           transform="translate(4872,884)"
           style="font-variant:normal;font-weight:normal;font-size:20px;font-family:'Times New Roman';-inkscape-font-specification:TimesNewRomanPSMT;writing-mode:lr-tb;fill:#000000;fill-opacity:1;fill-rule:nonzero;stroke:none"
           id="text156"><tspan
             x="0 12 21 30 35 40 49 59 68 73 87 97 107 116 126 131 140 145 150 159 164 172 182 191 200 210 215 225 231 236 245 255 265 272 282 291 297 311 320 325 334 340 349 354 364 369 375 385 395 400 405 415 424 431 436 444 453 462 472 481 491 496 501 513 522 531 539 544 549 555 561 566 571 580 589 594 599 608 618 627 632 638 648 658"
             y="0"
             sodipodi:role="line"
             id="tspan154">The tape moved at a speed of approximately 1 foot per second. Thus, if the tape loop</tspan></text>
        <text
           xml:space="preserve"
           transform="translate(4872,907)"
           style="font-variant:normal;font-weight:normal;font-size:20px;font-family:'Times New Roman';-inkscape-font-specification:TimesNewRomanPSMT;writing-mode:lr-tb;fill:#000000;fill-opacity:1;fill-rule:nonzero;stroke:none"
           id="text160"><tspan
             x="0 15 24 32 37 47 57 62 68 77 86 91 96 102 112 121 130 135 140 146 151 156 165 175 184 190 200 205 210 219 228 237 242 251 259 264 270 280 289 298 303 312 320 325 335 345 350 358 367 376 386 395 405 413 418 423 433 438 446 455 464 474 479 485 490 495 500 510 515 520 529 538 543 549 559 568 578 583 593 603 609 618 623 628 633 644 654 661 666 671 680 686"
             y="0"
             sodipodi:role="line"
             id="tspan158">was 25 feet long, it could take as long as 25 seconds to send it to the load point. For this</tspan></text>
        <text
           xml:space="preserve"
           transform="translate(4872,930)"
           style="font-variant:normal;font-weight:normal;font-size:20px;font-family:'Times New Roman';-inkscape-font-specification:TimesNewRomanPSMT;writing-mode:lr-tb;fill:#000000;fill-opacity:1;fill-rule:nonzero;stroke:none"
           id="text164"><tspan
             x="0 7 16 25 33 43 52 57 68 75 81 91 100 105 114 119 133 142 152 161 166 175 184 191 196 203 209 219 228 237 245 250 256 265 270 278 287 297 306 313 322 328 333 339 348 357 366 371 380 388 393 398 405 414 423 432 438 447 456 461 467 474 484 498 503 513 523 528 534 543 552 557 562 567 577 582 592 602 612 617 623 632 641 646"
             y="0"
             sodipodi:role="line"
             id="tspan162">reason Tridata made cartridges in several lengths, ranging from 10 feet to 100 feet.</tspan></text>
        <text
           xml:space="preserve"
           transform="translate(4872,973)"
           style="font-variant:normal;font-weight:normal;font-size:20px;font-family:'Times New Roman';-inkscape-font-specification:TimesNewRomanPSMT;writing-mode:lr-tb;fill:#000000;fill-opacity:1;fill-rule:nonzero;stroke:none"
           id="text168"><tspan
             x="0 12 21 30 35 52 62 72 82 87 96 105 115 120 129 134 144 153 158 163 173 182 187 197 206 211 216 225 234 239 245 252 262 271 276 281 286 295 304 309 314 329 339 348 354 364 369 375 385 394 404 409 423 432 446 456 463 472 477 492 498 503 512 517 526 531 537 543 548 553 559 568 573 583 593 603 608 616 621 628 637"
             y="0"
             sodipodi:role="line"
             id="tspan166">The M365 had a button on the front that would load memory with a little bootstrap</tspan></text>
      </g>
    </g>
  </g>
</svg>
