<?xml version="1.0" encoding="UTF-8" standalone="no"?>
<!-- Created with Inkscape (http://www.inkscape.org/) -->

<svg
   version="1.1"
   id="svg2"
   width="816"
   height="1056"
   viewBox="0 0 816 1056"
   sodipodi:docname="clean_arch.pdf"
   xmlns:inkscape="http://www.inkscape.org/namespaces/inkscape"
   xmlns:sodipodi="http://sodipodi.sourceforge.net/DTD/sodipodi-0.dtd"
   xmlns="http://www.w3.org/2000/svg"
   xmlns:svg="http://www.w3.org/2000/svg">
  <defs
     id="defs6">
    <clipPath
       clipPathUnits="userSpaceOnUse"
       id="clipPath18">
      <path
         d="m 4176,0 h 696 V 1056 H 4176 V 0"
         clip-rule="evenodd"
         id="path16" />
    </clipPath>
    <clipPath
       clipPathUnits="userSpaceOnUse"
       id="clipPath28">
      <path
         d="m 4176,66 h 696 V 996 H 4176 V 66"
         clip-rule="evenodd"
         id="path26" />
    </clipPath>
  </defs>
  <sodipodi:namedview
     id="namedview4"
     pagecolor="#ffffff"
     bordercolor="#000000"
     borderopacity="0.25"
     inkscape:showpageshadow="2"
     inkscape:pageopacity="0.0"
     inkscape:pagecheckerboard="0"
     inkscape:deskcolor="#d1d1d1" />
  <g
     id="g8"
     inkscape:groupmode="layer"
     inkscape:label="clean_arch"
     transform="translate(59.999999,2.64e-5)">
    <g
       id="g10" />
    <g
       id="g12"
       transform="translate(-4176)">
      <g
         id="g14"
         clip-path="url(#clipPath18)">
        <g
           id="g20" />
      </g>
    </g>
    <g
       id="g22"
       transform="translate(-4176)">
      <g
         id="g24"
         clip-path="url(#clipPath28)">
        <text
           xml:space="preserve"
           transform="translate(4176,82.67188)"
           style="font-variant:normal;font-weight:normal;font-size:20px;font-family:'Times New Roman';-inkscape-font-specification:TimesNewRomanPSMT;writing-mode:lr-tb;fill:#000000;fill-opacity:1;fill-rule:nonzero;stroke:none"
           id="text32"><tspan
             x="0 5 14 23 28 33 39 47 52 61 71 81 88 98 108 115 121 130 135 144 149 154 164 174 183 192 197 211 217 226 235 240 245 254 264 269 274 284 293 298 307 317 327 334 344 354 361 367 376 381 390 395 404 413 422 427 432 441 450 459 465 470 475 489 497 502 511 516 525 535 544 552 561 571 580 589 598 607 616 621 626 631 640"
             y="0"
             sodipodi:role="line"
             id="tspan30">that is appropriate today might not be appropriate next year. As a consequence, the</tspan></text>
        <text
           xml:space="preserve"
           transform="translate(4176,106)"
           style="font-variant:normal;font-weight:normal;font-size:20px;font-family:'Times New Roman';-inkscape-font-specification:TimesNewRomanPSMT;writing-mode:lr-tb;fill:#000000;fill-opacity:1;fill-rule:nonzero;stroke:none"
           id="text36"><tspan
             x="0 9 19 33 43 53 61 67 72 78 88 97 102 112 118 123 128 137 146 151 160 170 184 194 204 213 222 231 236 244 249 264 270 276 282 287 293 299 308 317 323 332 337 343 349 354 359 368 375 380 389 398 408 413 422 432 442 448 458 467 472 487 493 498 507 512 517 523 537 546 551 560 568 573 578 587 596 601 607 617 626 635 643 648 658 664 669 674 683"
             y="0"
             sodipodi:role="line"
             id="tspan34">composition of the components will likely jitter and evolve with time as the focus of the</tspan></text>
        <text
           xml:space="preserve"
           transform="translate(4176,129)"
           style="font-variant:normal;font-weight:normal;font-size:20px;font-family:'Times New Roman';-inkscape-font-specification:TimesNewRomanPSMT;writing-mode:lr-tb;fill:#000000;fill-opacity:1;fill-rule:nonzero;stroke:none"
           id="text40"><tspan
             x="0 10 17 27 33 42 51 56 61 70 79 88 97 106 115 123 128 134 141 151 165 170 180 189 199 208 214 224 234 241 250 260 266 272 278 283 292 297 302 312 317 324 333 342 350 359 369 375 381 387 392 400"
             y="0"
             sodipodi:role="line"
             id="tspan38">project changes from develop-ability to reusability.</tspan></text>
        <text
           xml:space="preserve"
           transform="translate(4176,168)"
           style="font-variant:normal;font-weight:normal;font-size:15px;font-family:'Times New Roman';-inkscape-font-specification:TimesNewRomanPSMT;writing-mode:lr-tb;fill:#0000ee;fill-opacity:1;fill-rule:nonzero;stroke:none"
           id="text44"><tspan
             x="0"
             y="0"
             id="tspan42">1</tspan></text>
        <path
           d="m 4176,169.5 h 6 z"
           style="fill:none;stroke:#0000ee;stroke-width:1;stroke-linecap:square;stroke-linejoin:miter;stroke-miterlimit:10;stroke-dasharray:none;stroke-opacity:1"
           id="path46" />
        <text
           xml:space="preserve"
           transform="translate(4183,168)"
           style="font-variant:normal;font-weight:normal;font-size:15px;font-family:'Times New Roman';-inkscape-font-specification:TimesNewRomanPSMT;writing-mode:lr-tb;fill:#000000;fill-opacity:1;fill-rule:nonzero;stroke:none"
           id="text50"><tspan
             x="0 4 8 16 23 30 34 38 45 52 56 62 69 76 80 83 90 97 101 108 115 119 125 134 141 148 152 163 166 170 174 181 185 194 199 206 213 216 223 234 241 245 248 255"
             y="0"
             sodipodi:role="line"
             id="tspan48">. See the section on “The Kitty Problem” in </tspan></text>
        <text
           xml:space="preserve"
           transform="translate(4442,168)"
           style="font-variant:normal;font-weight:normal;font-size:15px;font-family:'Times New Roman';-inkscape-font-specification:TimesNewRomanPSMT;writing-mode:lr-tb;fill:#0000ee;fill-opacity:1;fill-rule:nonzero;stroke:none"
           id="text54"><tspan
             x="0 10 17 24 31 35 42 47 51 58"
             y="0"
             sodipodi:role="line"
             id="tspan52">Chapter 27</tspan></text>
        <path
           d="m 4442,169.5 h 64 z"
           style="fill:none;stroke:#0000ee;stroke-width:1;stroke-linecap:square;stroke-linejoin:miter;stroke-miterlimit:10;stroke-dasharray:none;stroke-opacity:1"
           id="path56" />
        <text
           xml:space="preserve"
           transform="translate(4507,168)"
           style="font-variant:normal;font-weight:normal;font-size:15px;font-family:'Times New Roman';-inkscape-font-specification:TimesNewRomanPSMT;writing-mode:lr-tb;fill:#000000;fill-opacity:1;fill-rule:nonzero;stroke:none"
           id="text60"><tspan
             x="0 3 7 13 21 28 33 40 43 50 57 63 66 70 80 85 92 99 103 107 114 121 128 132 140 151 158 161 164 168"
             y="0"
             sodipodi:role="line"
             id="tspan58">, “Services: Great and Small.“</tspan></text>
        <text
           xml:space="preserve"
           transform="translate(4176,191)"
           style="font-variant:normal;font-weight:normal;font-size:15px;font-family:'Times New Roman';-inkscape-font-specification:TimesNewRomanPSMT;writing-mode:lr-tb;fill:#0000ee;fill-opacity:1;fill-rule:nonzero;stroke:none"
           id="text64"><tspan
             x="0"
             y="0"
             id="tspan62">2</tspan></text>
        <path
           d="m 4176,192.5 h 6 z"
           style="fill:none;stroke:#0000ee;stroke-width:1;stroke-linecap:square;stroke-linejoin:miter;stroke-miterlimit:10;stroke-dasharray:none;stroke-opacity:1"
           id="path66" />
        <text
           xml:space="preserve"
           transform="translate(4183,191)"
           style="font-variant:normal;font-weight:normal;font-size:15px;font-family:'Times New Roman';-inkscape-font-specification:TimesNewRomanPSMT;writing-mode:lr-tb;fill:#000000;fill-opacity:1;fill-rule:nonzero;stroke:none"
           id="text70"><tspan
             x="0 4 8 17 24 31 38 45 51 55 59 66 70 78 81 92 96 107 111 115 118 125 132 139 144 148 153 160 165 169 173 180 183 189 193 196 203 210 217"
             y="0"
             sodipodi:role="line"
             id="tspan68">. Thanks to Tim Ottinger for this idea.</tspan></text>
      </g>
    </g>
  </g>
</svg>
