<?xml version="1.0" encoding="UTF-8" standalone="no"?>
<!-- Created with Inkscape (http://www.inkscape.org/) -->

<svg
   version="1.1"
   id="svg2"
   width="816"
   height="1056"
   viewBox="0 0 816 1056"
   sodipodi:docname="clean_arch.pdf"
   xmlns:inkscape="http://www.inkscape.org/namespaces/inkscape"
   xmlns:sodipodi="http://sodipodi.sourceforge.net/DTD/sodipodi-0.dtd"
   xmlns="http://www.w3.org/2000/svg"
   xmlns:svg="http://www.w3.org/2000/svg">
  <defs
     id="defs6">
    <clipPath
       clipPathUnits="userSpaceOnUse"
       id="clipPath18">
      <path
         d="m 696,0 h 696 V 1056 H 696 V 0"
         clip-rule="evenodd"
         id="path16" />
    </clipPath>
    <clipPath
       clipPathUnits="userSpaceOnUse"
       id="clipPath28">
      <path
         d="m 696,66 h 696 V 996 H 696 V 66"
         clip-rule="evenodd"
         id="path26" />
    </clipPath>
  </defs>
  <sodipodi:namedview
     id="namedview4"
     pagecolor="#ffffff"
     bordercolor="#000000"
     borderopacity="0.25"
     inkscape:showpageshadow="2"
     inkscape:pageopacity="0.0"
     inkscape:pagecheckerboard="0"
     inkscape:deskcolor="#d1d1d1" />
  <g
     id="g8"
     inkscape:groupmode="layer"
     inkscape:label="clean_arch"
     transform="translate(59.999999,2.64e-5)">
    <g
       id="g10" />
    <g
       id="g12"
       transform="translate(-696)">
      <g
         id="g14"
         clip-path="url(#clipPath18)">
        <g
           id="g20" />
      </g>
    </g>
    <g
       id="g22"
       transform="translate(-696)">
      <g
         id="g24"
         clip-path="url(#clipPath28)">
        <text
           xml:space="preserve"
           transform="translate(696,83)"
           style="font-variant:normal;font-weight:normal;font-size:20px;font-family:'Times New Roman';-inkscape-font-specification:TimesNewRomanPSMT;writing-mode:lr-tb;fill:#000000;fill-opacity:1;fill-rule:nonzero;stroke:none"
           id="text32"><tspan
             x="0 12 21 27 35 40 46 54 59 68 78 83 88 93 103 108 116 125 134 139 144 153 162 167 172 181 187 193 198 206 215 222 232 238 247 256 264"
             y="0"
             sodipodi:role="line"
             id="tspan30">This is not to say that all services </tspan></text>
        <text
           xml:space="preserve"
           transform="translate(965,83)"
           style="font-variant:normal;font-weight:normal;font-size:20px;font-family:'Times New Roman';-inkscape-font-specification:TimesNewRomanPSMT;writing-mode:lr-tb;fill:#000000;fill-opacity:1;fill-rule:nonzero;stroke:none"
           id="text36"><tspan
             x="0 8 17 27 36 42"
             y="0"
             sodipodi:role="line"
             id="tspan34">should</tspan></text>
        <text
           xml:space="preserve"
           transform="translate(1022,83)"
           style="font-variant:normal;font-weight:normal;font-size:20px;font-family:'Times New Roman';-inkscape-font-specification:TimesNewRomanPSMT;writing-mode:lr-tb;fill:#000000;fill-opacity:1;fill-rule:nonzero;stroke:none"
           id="text40"><tspan
             x="0 10 19 24 33 40 49 58 64 69 78 87 92 101 108 117 123 129 138 143 151 157 166 175 181 187 193 202 211 220 225 230 235 247 256 265 272 281 286 295 302 311 316 326 332 337 346"
             y="0"
             sodipodi:role="line"
             id="tspan38">be architecturally significant. There are often</tspan></text>
        <text
           xml:space="preserve"
           transform="translate(696,106)"
           style="font-variant:normal;font-weight:normal;font-size:20px;font-family:'Times New Roman';-inkscape-font-specification:TimesNewRomanPSMT;writing-mode:lr-tb;fill:#000000;fill-opacity:1;fill-rule:nonzero;stroke:none"
           id="text44"><tspan
             x="0 8 17 27 35 40 49 58 63 69 78 84 89 99 108 117 126 132 138 143 151 156 161 171 176 185 192 201 210 215 221 230 239 244 252 261 268 278 284 293 302 310 315 320 329 338 343 348 356 365 375 384 391 400 405 414 419 425 434 443 452 457 463 473 482 491 497 503 508 517 522 531 540 547 557 565 573 578 588 595 605 614 623 631 639 648 656 661 670 679"
             y="0"
             sodipodi:role="line"
             id="tspan42">substantial benefits to creating services that separate functionality across processes and</tspan></text>
        <text
           xml:space="preserve"
           transform="translate(696,129)"
           style="font-variant:normal;font-weight:normal;font-size:20px;font-family:'Times New Roman';-inkscape-font-specification:TimesNewRomanPSMT;writing-mode:lr-tb;fill:#000000;fill-opacity:1;fill-rule:nonzero;stroke:none"
           id="text48"><tspan
             x="0 10 16 25 30 36 46 53 67 75 95 110 119 128 133 142 151 158 163 168 177 186 195 200 210 220 229 238 243 248 257 266 271 285 294 304 313 322 332 341 350 359 368 373 386 395 401 410 415 425 432 437 446 456 461 466 471 477 482 488 496 501 507 516 524 529 534 539 548 557 562 567 575 584 591 601 607 616 625 633 638 643 649 658 663 672 681"
             y="0"
             sodipodi:role="line"
             id="tspan46">platforms—whether they obey the Dependency Rule or not. It’s just that services, in and</tspan></text>
        <text
           xml:space="preserve"
           transform="translate(696,152)"
           style="font-variant:normal;font-weight:normal;font-size:20px;font-family:'Times New Roman';-inkscape-font-specification:TimesNewRomanPSMT;writing-mode:lr-tb;fill:#000000;fill-opacity:1;fill-rule:nonzero;stroke:none"
           id="text52"><tspan
             x="0 10 16 21 26 35 44 58 66 75 81 91 100 108 113 118 128 138 143 152 162 167 172 182 191 197 203 212 221 226 235 244 249 258 265 274 283 289 294 303 312 317 326 333 342"
             y="0"
             sodipodi:role="line"
             id="tspan50">of themselves, do not define an architecture.</tspan></text>
        <text
           xml:space="preserve"
           transform="translate(696,195)"
           style="font-variant:normal;font-weight:normal;font-size:20px;font-family:'Times New Roman';-inkscape-font-specification:TimesNewRomanPSMT;writing-mode:lr-tb;fill:#000000;fill-opacity:1;fill-rule:nonzero;stroke:none"
           id="text56"><tspan
             x="0 13 18 27 36 42 52 58 67 73 78 87 96 105 111 121 130 139 144 150 158 163 168 177 186 191 201 208 217 226 235 241 249 258 263 269 279 288 293 303 309 314 320 329 338 347 352 358 368 377 385 390 395 407 416 425 430 439 446 455 464 470 475 484 493 498 507 514 523 528 538 544 549 558 563 577 587 596 606 612 618 623 632 638 647 652 662"
             y="0"
             sodipodi:role="line"
             id="tspan54">A helpful analogy is the organization of functions. The architecture of a monolithic or</tspan></text>
        <text
           xml:space="preserve"
           transform="translate(696,218)"
           style="font-variant:normal;font-weight:normal;font-size:20px;font-family:'Times New Roman';-inkscape-font-specification:TimesNewRomanPSMT;writing-mode:lr-tb;fill:#000000;fill-opacity:1;fill-rule:nonzero;stroke:none"
           id="text60"><tspan
             x="0 9 19 33 43 53 62 71 80 85 92 102 111 119 128 138 143 151 160 168 173 182 196 201 207 215 220 230 239 245 251 260 269 279 284 294 303 308 317 326 333 338 347 353 362 367 373 382 391 400 405 411 421 430 435 444 453 459 465 473 478 483 492 501 506 511 520 527 537 545 553 558 567 574 583 592 598 603 612 621 626 635 642 651"
             y="0"
             sodipodi:role="line"
             id="tspan58">component-based system is defined by certain function calls that cross architectural</tspan></text>
        <text
           xml:space="preserve"
           transform="translate(696,241)"
           style="font-variant:normal;font-weight:normal;font-size:20px;font-family:'Times New Roman';-inkscape-font-specification:TimesNewRomanPSMT;writing-mode:lr-tb;fill:#000000;fill-opacity:1;fill-rule:nonzero;stroke:none"
           id="text64"><tspan
             x="0 10 20 29 38 48 57 64 70 79 87 92 101 110 120 125 131 141 147 153 163 178 183 188 197 206 211 225 234 244 253 262 272 281 290 299 308 313 326 335 341 350 355 360 377 386 395 404 409 419 424 433 442 449 454 460 469 478 487 492 498 508 517 525 530 536 545 550 555 564 574 582 591 596 604 613 621 626 635 649 657"
             y="0"
             sodipodi:role="line"
             id="tspan62">boundaries and follow the Dependency Rule. Many other functions in those systems,</tspan></text>
        <text
           xml:space="preserve"
           transform="translate(696,264)"
           style="font-variant:normal;font-weight:normal;font-size:20px;font-family:'Times New Roman';-inkscape-font-specification:TimesNewRomanPSMT;writing-mode:lr-tb;fill:#000000;fill-opacity:1;fill-rule:nonzero;stroke:none"
           id="text68"><tspan
             x="0 9 19 34 43 53 62 68 73 78 86 92 106 116 122 131 136 144 153 163 172 179 188 193 202 207 217 226 235 240 250 259 268 277 287 293 303 310 315 321 328 338 352 357 366 375 385 390 399 408 415 420 429 438 448 453 462 469 478 483 492 502 507 512 521 528 537 546 552 557 566 575 580 589 596 605 611 617"
             y="0"
             sodipodi:role="line"
             id="tspan66">however, simply separate one behavior from another and are not architecturally</tspan></text>
        <text
           xml:space="preserve"
           transform="translate(696,287)"
           style="font-variant:normal;font-weight:normal;font-size:20px;font-family:'Times New Roman';-inkscape-font-specification:TimesNewRomanPSMT;writing-mode:lr-tb;fill:#000000;fill-opacity:1;fill-rule:nonzero;stroke:none"
           id="text72"><tspan
             x="0 8 14 23 32 38 44 50 59 68 77 82"
             y="0"
             sodipodi:role="line"
             id="tspan70">significant.</tspan></text>
        <text
           xml:space="preserve"
           transform="translate(696,330)"
           style="font-variant:normal;font-weight:normal;font-size:20px;font-family:'Times New Roman';-inkscape-font-specification:TimesNewRomanPSMT;writing-mode:lr-tb;fill:#000000;fill-opacity:1;fill-rule:nonzero;stroke:none"
           id="text76"><tspan
             x="0 11 21 26 32 37 42 48 56 61 76 82 87 96 101 109 118 125 135 141 150 159 167 172 177 188 197 204 214 220 229 238 246 251 260 267 276 281 286 295 301 306 315 322 327 336 342 348 353 358 364 373 381 386 391 397 406 415 424 429 435 445 454 459 468 477 483 489 497 502 511 520 527 537 545 553 558 568 575 585 594 603 611 619 624 633 642 652 658 668"
             y="0"
             sodipodi:role="line"
             id="tspan74">So it is with services. Services are, after all, just function calls across process and/or</tspan></text>
        <text
           xml:space="preserve"
           transform="translate(696,353)"
           style="font-variant:normal;font-weight:normal;font-size:20px;font-family:'Times New Roman';-inkscape-font-specification:TimesNewRomanPSMT;writing-mode:lr-tb;fill:#000000;fill-opacity:1;fill-rule:nonzero;stroke:none"
           id="text80"><tspan
             x="0 10 16 25 30 36 46 53 67 72 82 92 101 110 120 129 136 142 151 159 164 169 180 190 204 213 218 228 234 239 244 253 263 271 280 285 293 302 309 319 325 334 343 351 356 365 372 381 386 395 402 411 420 426 431 440 449 454 463 470 479 485 491 500 505 513 519 528 537 543 549 555 564 573 582 587 592 597 606 615 625 630 638 648 662"
             y="0"
             sodipodi:role="line"
             id="tspan78">platform boundaries. Some of those services are architecturally significant, and some</tspan></text>
        <text
           xml:space="preserve"
           transform="translate(696,376)"
           style="font-variant:normal;font-weight:normal;font-size:20px;font-family:'Times New Roman';-inkscape-font-specification:TimesNewRomanPSMT;writing-mode:lr-tb;fill:#000000;fill-opacity:1;fill-rule:nonzero;stroke:none"
           id="text84"><tspan
             x="0 9 16 25 34 41 46 51 56 70 79 86 91 97 106 111 120 127 136 144 149 154 159 165 174 179 184 193 199 207 212 221 230 239 249 254 263 269 274 279 285 293 298 313 319 324 333 338 343 352 361 366 372 382 389 403 412 418"
             y="0"
             sodipodi:role="line"
             id="tspan82">aren’t. Our interest, in this chapter, is with the former.</tspan></text>
        <text
           xml:space="preserve"
           transform="translate(696,446)"
           style="font-variant:normal;font-weight:bold;font-size:33px;font-family:'Times New Roman';-inkscape-font-specification:TimesNewRomanPS-BoldMT;writing-mode:lr-tb;fill:#000000;fill-opacity:1;fill-rule:nonzero;stroke:none"
           id="text88"><tspan
             x="0"
             y="0"
             id="tspan86">S</tspan></text>
        <text
           xml:space="preserve"
           transform="translate(714,446)"
           style="font-variant:normal;font-weight:bold;font-size:33px;font-family:'Times New Roman';-inkscape-font-specification:TimesNewRomanPS-BoldMT;writing-mode:lr-tb;fill:#000000;fill-opacity:1;fill-rule:nonzero;stroke:none"
           id="text92"><tspan
             x="0 22 45 68 81 105"
             y="0"
             sodipodi:role="line"
             id="tspan90">ERVICE</tspan></text>
        <text
           xml:space="preserve"
           transform="translate(849,446)"
           style="font-variant:normal;font-weight:bold;font-size:33px;font-family:'Times New Roman';-inkscape-font-specification:TimesNewRomanPS-BoldMT;writing-mode:lr-tb;fill:#000000;fill-opacity:1;fill-rule:nonzero;stroke:none"
           id="text96"><tspan
             x="0"
             y="0"
             id="tspan94">B</tspan></text>
        <text
           xml:space="preserve"
           transform="translate(871,446)"
           style="font-variant:normal;font-weight:bold;font-size:33px;font-family:'Times New Roman';-inkscape-font-specification:TimesNewRomanPS-BoldMT;writing-mode:lr-tb;fill:#000000;fill-opacity:1;fill-rule:nonzero;stroke:none"
           id="text100"><tspan
             x="0 22 46 68 88 101 123"
             y="0"
             sodipodi:role="line"
             id="tspan98">ENEFITS</tspan></text>
        <text
           xml:space="preserve"
           transform="translate(1012,446)"
           style="font-variant:normal;font-weight:bold;font-size:33px;font-family:'Times New Roman';-inkscape-font-specification:TimesNewRomanPS-BoldMT;writing-mode:lr-tb;fill:#000000;fill-opacity:1;fill-rule:nonzero;stroke:none"
           id="text104"><tspan
             x="0"
             y="0"
             id="tspan102">?</tspan></text>
        <text
           xml:space="preserve"
           transform="translate(696,491)"
           style="font-variant:normal;font-weight:normal;font-size:20px;font-family:'Times New Roman';-inkscape-font-specification:TimesNewRomanPSMT;writing-mode:lr-tb;fill:#000000;fill-opacity:1;fill-rule:nonzero;stroke:none"
           id="text108"><tspan
             x="0 12 21 30 35 45 54 63 71 76 82 92 101 106 120 129 136 145 150 156 165 170 175 184 193 198 208 215 224 233 242 252 258 267 276 281 290 299 308 318 324 333 342 347 353 362 372 378 387 396 401 410 418 423 428 437 446 451 456 461 470 476 484 489 497 506 515 520 526 536 545 550 556 564 569 578 588 594 603 612 617 622"
             y="0"
             sodipodi:role="line"
             id="tspan106">The question mark in the preceding heading indicates that this section is going to</tspan></text>
        <text
           xml:space="preserve"
           transform="translate(696,514)"
           style="font-variant:normal;font-weight:normal;font-size:20px;font-family:'Times New Roman';-inkscape-font-specification:TimesNewRomanPSMT;writing-mode:lr-tb;fill:#000000;fill-opacity:1;fill-rule:nonzero;stroke:none"
           id="text112"><tspan
             x="0 9 18 27 33 39 48 57 66 75 80 85 94 103 108 117 126 133 140 149 158 163 168 178 188 198 207 213 222 229 234 244 251 256 265 275 285 295 304 313 318 328 334 339 347 356 363 373 379 388 397 402 411 418 427 436 442 447 456 465 470 479 486 495 500 505 516 525 530 536 544 549 554 563 572 581 587 596 601 606 615 624 629 639 648 657 666 672 678 683"
             y="0"
             sodipodi:role="line"
             id="tspan110">challenge the current popular orthodoxy of service architecture. Let’s tackle the benefits</tspan></text>
        <text
           xml:space="preserve"
           transform="translate(696,537)"
           style="font-variant:normal;font-weight:normal;font-size:20px;font-family:'Times New Roman';-inkscape-font-specification:TimesNewRomanPSMT;writing-mode:lr-tb;fill:#000000;fill-opacity:1;fill-rule:nonzero;stroke:none"
           id="text116"><tspan
             x="0 10 19 28 33 42 47 52 61 66 71 77 91 100"
             y="0"
             sodipodi:role="line"
             id="tspan114">one at a time.</tspan></text>
        <text
           xml:space="preserve"
           transform="translate(696,587)"
           style="font-variant:normal;font-weight:bold;font-size:23px;font-family:'Times New Roman';-inkscape-font-specification:TimesNewRomanPS-BoldMT;writing-mode:lr-tb;fill:#000000;fill-opacity:1;fill-rule:nonzero;stroke:none"
           id="text120"><tspan
             x="0"
             y="0"
             id="tspan118">T</tspan></text>
        <text
           xml:space="preserve"
           transform="translate(711,587)"
           style="font-variant:normal;font-weight:bold;font-size:23px;font-family:'Times New Roman';-inkscape-font-specification:TimesNewRomanPS-BoldMT;writing-mode:lr-tb;fill:#000000;fill-opacity:1;fill-rule:nonzero;stroke:none"
           id="text124"><tspan
             x="0 18"
             y="0"
             sodipodi:role="line"
             id="tspan122">HE</tspan></text>
        <text
           xml:space="preserve"
           transform="translate(750,587)"
           style="font-variant:normal;font-weight:bold;font-size:23px;font-family:'Times New Roman';-inkscape-font-specification:TimesNewRomanPS-BoldMT;writing-mode:lr-tb;fill:#000000;fill-opacity:1;fill-rule:nonzero;stroke:none"
           id="text128"><tspan
             x="0"
             y="0"
             id="tspan126">D</tspan></text>
        <text
           xml:space="preserve"
           transform="translate(767,587)"
           style="font-variant:normal;font-weight:bold;font-size:23px;font-family:'Times New Roman';-inkscape-font-specification:TimesNewRomanPS-BoldMT;writing-mode:lr-tb;fill:#000000;fill-opacity:1;fill-rule:nonzero;stroke:none"
           id="text132"><tspan
             x="0 15 32 50 67 82 97 106 123"
             y="0"
             sodipodi:role="line"
             id="tspan130">ECOUPLING</tspan></text>
        <text
           xml:space="preserve"
           transform="translate(914,587)"
           style="font-variant:normal;font-weight:bold;font-size:23px;font-family:'Times New Roman';-inkscape-font-specification:TimesNewRomanPS-BoldMT;writing-mode:lr-tb;fill:#000000;fill-opacity:1;fill-rule:nonzero;stroke:none"
           id="text136"><tspan
             x="0"
             y="0"
             id="tspan134">F</tspan></text>
        <text
           xml:space="preserve"
           transform="translate(929,587)"
           style="font-variant:normal;font-weight:bold;font-size:23px;font-family:'Times New Roman';-inkscape-font-specification:TimesNewRomanPS-BoldMT;writing-mode:lr-tb;fill:#000000;fill-opacity:1;fill-rule:nonzero;stroke:none"
           id="text140"><tspan
             x="0 16 31 46 62 79"
             y="0"
             sodipodi:role="line"
             id="tspan138">ALLACY</tspan></text>
        <text
           xml:space="preserve"
           transform="translate(696,630)"
           style="font-variant:normal;font-weight:normal;font-size:20px;font-family:'Times New Roman';-inkscape-font-specification:TimesNewRomanPSMT;writing-mode:lr-tb;fill:#000000;fill-opacity:1;fill-rule:nonzero;stroke:none"
           id="text144"><tspan
             x="0 14 23 32 37 47 53 58 63 72 81 86 96 102 111 116 124 133 143 153 163 171 180 190 195 205 214 223 232 238 244 249 257 262 272 278 283 293 300 309 318 327 333 342 351 356 365 370 378 387 395 400 409 423 428 437 447 452 458 467 472 482 487 495 504 511 521 527 536 545 553 558 564 572 577 582 591 600 605 610 618 627 634 644 650 659 668"
             y="0"
             sodipodi:role="line"
             id="tspan142">One of the big supposed benefits of breaking a system up into services is that services</tspan></text>
        <text
           xml:space="preserve"
           transform="translate(696,653)"
           style="font-variant:normal;font-weight:normal;font-size:20px;font-family:'Times New Roman';-inkscape-font-specification:TimesNewRomanPSMT;writing-mode:lr-tb;fill:#000000;fill-opacity:1;fill-rule:nonzero;stroke:none"
           id="text148"><tspan
             x="0 9 16 25 30 38 43 50 60 69 78 84 93 98 108 117 126 136 145 155 161 170 180 185 191 198 208 222 227 236 245 254 263 268 278 283 292 301 307 312 317 331 337 342 351 358 363 372 378 384 389 394 403 412 421 430 435 443 452 459 469 475 484 493 498 505 514 523 531 536 542 551 556 565 570 580 586 592 598 607 614 623 632"
             y="0"
             sodipodi:role="line"
             id="tspan146">are strongly decoupled from each other. After all, each service runs in a different</tspan></text>
        <text
           xml:space="preserve"
           transform="translate(696,676)"
           style="font-variant:normal;font-weight:normal;font-size:20px;font-family:'Times New Roman';-inkscape-font-specification:TimesNewRomanPSMT;writing-mode:lr-tb;fill:#000000;fill-opacity:1;fill-rule:nonzero;stroke:none"
           id="text152"><tspan
             x="0 10 17 27 36 45 53 61 66 71 81 88 93 102 112 121 130 135 144 149 159 165 171 177 186 193 202 211 216 221 231 238 248 257 266 274 282 292 299 304 309 314 323 332 339 348 354 364 371 380 385 390 399 409 417 426 431 439 448 455 465 471 480 489 497 502 512 522 527 536 546 551 556 565 574 584 593 598 607 616 625 634 642 650 655 660"
             y="0"
             sodipodi:role="line"
             id="tspan150">process, or even a different processor; therefore those services do not have access to</tspan></text>
        <text
           xml:space="preserve"
           transform="translate(696,699)"
           style="font-variant:normal;font-weight:normal;font-size:20px;font-family:'Times New Roman';-inkscape-font-specification:TimesNewRomanPSMT;writing-mode:lr-tb;fill:#000000;fill-opacity:1;fill-rule:nonzero;stroke:none"
           id="text156"><tspan
             x="0 9 18 27 36 41 51 56 65 74 82 88 96 101 111 120 127 133 142 152 158 167 175 180 185 203 212 221 226 232 240 245 259 269 276 285 290 295 300 309 318 323 329 338 343 352 359 365 374 383 392 397 407 413 418 427 436 445 454 459 467 476 483 493 499 508 517 522 536 545 553 558 563 573 582 587 602 611 617 623 628 638 647 653 659 668 677 687"
             y="0"
             sodipodi:role="line"
             id="tspan154">each other’s variables. What’s more, the interface of each service must be well defined.</tspan></text>
        <text
           xml:space="preserve"
           transform="translate(696,742)"
           style="font-variant:normal;font-weight:normal;font-size:20px;font-family:'Times New Roman';-inkscape-font-specification:TimesNewRomanPSMT;writing-mode:lr-tb;fill:#000000;fill-opacity:1;fill-rule:nonzero;stroke:none"
           id="text160"><tspan
             x="0 12 21 30 37 46 51 57 65 70 79 88 95 100 109 115 124 130 139 144 152 162 176 185 190 195 202 211 216 225 230 235 245 250 255 264 270 278 298 308 317 322 327 336 346 351 356 366 375 382 391 396 410 419 428 437 442 447 454 463 468 477 482 487 499 508 516 521 526 534 543 550 560 566 575 584 592 597 606 613"
             y="0"
             sodipodi:role="line"
             id="tspan158">There is certainly some truth to this—but not very much truth. Yes, services are</tspan></text>
        <text
           xml:space="preserve"
           transform="translate(696,765)"
           style="font-variant:normal;font-weight:normal;font-size:20px;font-family:'Times New Roman';-inkscape-font-specification:TimesNewRomanPSMT;writing-mode:lr-tb;fill:#000000;fill-opacity:1;fill-rule:nonzero;stroke:none"
           id="text164"><tspan
             x="0 10 19 28 38 47 57 63 72 82 87 96 101 106 111 120 129 134 140 149 159 168 174 179 189 195 200 206 215 225 231 241 247 257 266 275 281 286 296 305 312 318 327 337 343 352 360 365 370 384 394 409 418 428 437 443 448 453 458 467 476 485 490 499 508 517 522 530 535 541 547 553 558 568 577 582 591 601 610 620 626 635 645 650 660"
             y="0"
             sodipodi:role="line"
             id="tspan162">decoupled at the level of individual variables. However, they can still be coupled by</tspan></text>
        <text
           xml:space="preserve"
           transform="translate(696,788)"
           style="font-variant:normal;font-weight:normal;font-size:20px;font-family:'Times New Roman';-inkscape-font-specification:TimesNewRomanPSMT;writing-mode:lr-tb;fill:#000000;fill-opacity:1;fill-rule:nonzero;stroke:none"
           id="text168"><tspan
             x="0 8 17 26 33 42 52 57 64 73 81 91 100 107 116 125 133 138 153 159 164 173 179 188 193 202 207 217 224 234 243 252 260 268 278 284 289 294 304 311 316 326 335 340 345 354 363 368 377 386 391 406 416 423 432 437 442 460 469 478 483 489 497 502 516 526 533 542 547 552 557 566 575 584 589 598 605 614 619 627 632 639 649 658 667 673"
             y="0"
             sodipodi:role="line"
             id="tspan166">shared resources within a processor, or on the network. What’s more, they are strongly</tspan></text>
        <text
           xml:space="preserve"
           transform="translate(696,811)"
           style="font-variant:normal;font-weight:normal;font-size:20px;font-family:'Times New Roman';-inkscape-font-specification:TimesNewRomanPSMT;writing-mode:lr-tb;fill:#000000;fill-opacity:1;fill-rule:nonzero;stroke:none"
           id="text172"><tspan
             x="0 9 19 28 38 44 53 63 68 78 87 92 97 106 115 120 130 139 144 153 158 163 172 181 190 195 203 212 221 228 237"
             y="0"
             sodipodi:role="line"
             id="tspan170">coupled by the data they share.</tspan></text>
        <text
           xml:space="preserve"
           transform="translate(696,854)"
           style="font-variant:normal;font-weight:normal;font-size:20px;font-family:'Times New Roman';-inkscape-font-specification:TimesNewRomanPSMT;writing-mode:lr-tb;fill:#000000;fill-opacity:1;fill-rule:nonzero;stroke:none"
           id="text176"><tspan
             x="0 11 21 28 33 42 51 60 74 84 90 99 104 109 115 121 126 135 140 149 158 173 178 184 190 199 205 215 220 226 234 239 248 258 268 277 287 292 297 307 312 321 326 336 345 350 359 364 371 380 389 399 406 416 421 426 435 444 449 454 460 468 473 483 492 500 508 517 527 532 542 551 556 571 580 589 598 603 611 620 627 637 643 652 661 669"
             y="0"
             sodipodi:role="line"
             id="tspan174">For example, if a new field is added to a data record that is passed between services,</tspan></text>
        <text
           xml:space="preserve"
           transform="translate(696,877)"
           style="font-variant:normal;font-weight:normal;font-size:20px;font-family:'Times New Roman';-inkscape-font-specification:TimesNewRomanPSMT;writing-mode:lr-tb;fill:#000000;fill-opacity:1;fill-rule:nonzero;stroke:none"
           id="text180"><tspan
             x="0 5 14 23 32 37 46 56 65 72 81 86 94 103 110 120 126 135 144 149 154 163 172 177 182 192 202 211 218 227 232 241 249 254 264 273 278 283 292 301 306 315 324 339 344 350 356 365 371 381 386 400 409 417 422 427 437 446 451 460 469 478 487 496 505 515 520 525 537 546 555 560 568 577 584 594 600 609 618 626 631 645 654 662"
             y="0"
             sodipodi:role="line"
             id="tspan178">then every service that operates on the new field must be changed. The services must</tspan></text>
        <text
           xml:space="preserve"
           transform="translate(696,900)"
           style="font-variant:normal;font-weight:normal;font-size:20px;font-family:'Times New Roman';-inkscape-font-specification:TimesNewRomanPSMT;writing-mode:lr-tb;fill:#000000;fill-opacity:1;fill-rule:nonzero;stroke:none"
           id="text184"><tspan
             x="0 9 15 23 33 38 46 51 58 68 77 86 92 101 106 115 124 131 140 149 154 163 173 183 192 197 202 207 216 225 230 236 245 250 259 266 276 283 292 297 306 311 317 327 336 341 351 357 362 367 376 385 390 400 409 414 423 428 434 443 448 453 462 471 476 481 487 493 502 508 518 523 528 540 549 558 566 571 576 585 595 603 612 617 625 634 641 651 657 666 675"
             y="0"
             sodipodi:role="line"
             id="tspan182">also strongly agree about the interpretation of the data in that field. Thus those services</tspan></text>
        <text
           xml:space="preserve"
           transform="translate(696,923)"
           style="font-variant:normal;font-weight:normal;font-size:20px;font-family:'Times New Roman';-inkscape-font-specification:TimesNewRomanPSMT;writing-mode:lr-tb;fill:#000000;fill-opacity:1;fill-rule:nonzero;stroke:none"
           id="text188"><tspan
             x="0 9 16 25 30 38 43 50 60 69 78 84 93 98 107 117 126 136 142 151 161 166 171 181 186 191 200 209 214 224 233 238 247 252 259 268 277 287 294 304 309 318 327 337 342 347 352 361 370 377 386 392 402 409 418 423 428 434 443 453 459 466 475 484 489 495 504 509 518 528 537 547 553 562 572 577 582 592 597 606 615 624 633 638 648 653 662 671 677"
             y="0"
             sodipodi:role="line"
             id="tspan186">are strongly coupled to the data record and, therefore, indirectly coupled to each other.</tspan></text>
        <text
           xml:space="preserve"
           transform="translate(696,966)"
           style="font-variant:normal;font-weight:normal;font-size:20px;font-family:'Times New Roman';-inkscape-font-specification:TimesNewRomanPSMT;writing-mode:lr-tb;fill:#000000;fill-opacity:1;fill-rule:nonzero;stroke:none"
           id="text192"><tspan
             x="0 14 22 27 33 43 50 55 61 70 75 84 91 97 106 115 124 132 137 147 156 162 171 180 185 200 209 215 221 226 236 245 251 257 266 275 285 290 295 300 309 318 323 329 337 342 351 360 367 372 381 387 396 402 411 416 421 428 437 446 466 476 485 490 495 501 506 511 517 525 530 539 549 554 560 569 577 585 590 595 602 611 620 625 631 641"
             y="0"
             sodipodi:role="line"
             id="tspan190">As for interfaces being well defined, that’s certainly true—but it is no less true for</tspan></text>
        <text
           xml:space="preserve"
           transform="translate(696,989)"
           style="font-variant:normal;font-weight:normal;font-size:20px;font-family:'Times New Roman';-inkscape-font-specification:TimesNewRomanPSMT;writing-mode:lr-tb;fill:#000000;fill-opacity:1;fill-rule:nonzero;stroke:none"
           id="text196"><tspan
             x="0 6 15 24 33 38 44 54 63 71 76 81 92 101 108 118 124 133 142 147 153 162 167 176 183 189 198 207 216 224 229 238 245 254 259 268 278 283 297 307 314 323 328 334 344 351 365 374 380 385 390 399 409 414 428 438 445 454 459 466 472 481 491 498 508 517 525 530 535 544 553 563 568 577 587 592 602 611 616 621 630"
             y="0"
             sodipodi:role="line"
             id="tspan194">functions. Service interfaces are no more formal, no more rigorous, and no better</tspan></text>
      </g>
    </g>
  </g>
</svg>
