<?xml version="1.0" encoding="UTF-8" standalone="no"?>
<!-- Created with Inkscape (http://www.inkscape.org/) -->

<svg
   version="1.1"
   id="svg2"
   width="816"
   height="1056"
   viewBox="0 0 816 1056"
   sodipodi:docname="clean_arch.pdf"
   xmlns:inkscape="http://www.inkscape.org/namespaces/inkscape"
   xmlns:sodipodi="http://sodipodi.sourceforge.net/DTD/sodipodi-0.dtd"
   xmlns="http://www.w3.org/2000/svg"
   xmlns:svg="http://www.w3.org/2000/svg">
  <defs
     id="defs6">
    <clipPath
       clipPathUnits="userSpaceOnUse"
       id="clipPath18">
      <path
         d="m 15312,0 h 696 v 1056 h -696 V 0"
         clip-rule="evenodd"
         id="path16" />
    </clipPath>
    <clipPath
       clipPathUnits="userSpaceOnUse"
       id="clipPath28">
      <path
         d="m 15312,66 h 696 v 930 h -696 V 66"
         clip-rule="evenodd"
         id="path26" />
    </clipPath>
  </defs>
  <sodipodi:namedview
     id="namedview4"
     pagecolor="#ffffff"
     bordercolor="#000000"
     borderopacity="0.25"
     inkscape:showpageshadow="2"
     inkscape:pageopacity="0.0"
     inkscape:pagecheckerboard="0"
     inkscape:deskcolor="#d1d1d1" />
  <g
     id="g8"
     inkscape:groupmode="layer"
     inkscape:label="clean_arch"
     transform="translate(59.999999,2.64e-5)">
    <g
       id="g10" />
    <g
       id="g12"
       transform="translate(-15312)">
      <g
         id="g14"
         clip-path="url(#clipPath18)">
        <g
           id="g20" />
      </g>
    </g>
    <g
       id="g22"
       transform="translate(-15312)">
      <g
         id="g24"
         clip-path="url(#clipPath28)">
        <text
           xml:space="preserve"
           transform="translate(15312,82.67188)"
           style="font-variant:normal;font-weight:normal;font-size:20px;font-family:'Times New Roman';-inkscape-font-specification:TimesNewRomanPSMT;writing-mode:lr-tb;fill:#000000;fill-opacity:1;fill-rule:nonzero;stroke:none"
           id="text32"><tspan
             x="0 10 19 29 35 44 53 58 63 70 86 95 100 109 119 128 134 144 149 158 167 177 186 191 199 208 218 227 237 242 252 261 268 276 285 291 301 310 318 323 332 337 343 353 360 365 374 383 392 397 406 415 425 430 445 454 459 466 475 484 494 503 512 518 526 535 545 550 555 564 573 578 583 593 603 613 619 629 638"
             y="0"
             sodipodi:role="line"
             id="tspan30">device. (We could have saved ourselves a fortune had we recognized that obvious</tspan></text>
        <text
           xml:space="preserve"
           transform="translate(15312,106)"
           style="font-variant:normal;font-weight:normal;font-size:20px;font-family:'Times New Roman';-inkscape-font-specification:TimesNewRomanPSMT;writing-mode:lr-tb;fill:#000000;fill-opacity:1;fill-rule:nonzero;stroke:none"
           id="text36"><tspan
             x="0 9 16 25 34 40 45 54 63 68 77 84 93 99 104 114 124 133 142 152 161 168 177 182 191 196 202 211 226 231 240 249 258 265 273 278 287 296 303 309 315 324 331 337"
             y="0"
             sodipodi:role="line"
             id="tspan34">architectural boundary a few years earlier!)</tspan></text>
        <text
           xml:space="preserve"
           transform="translate(15312,149)"
           style="font-variant:normal;font-weight:normal;font-size:20px;font-family:'Times New Roman';-inkscape-font-specification:TimesNewRomanPSMT;writing-mode:lr-tb;fill:#000000;fill-opacity:1;fill-rule:nonzero;stroke:none"
           id="text40"><tspan
             x="0 12 21 30 38 43 58 67 72 81 91 100 109 118 124 134 143 153 158 168 174 179 188 193 202 211 226 231 241 248 258 268 277 286 291 296 305 312 321 330 336 341 350 359 364 373 380 389 395 400 405 414 423 428 441 454 467 473 486 503 516 521 528 533 542 551 556 569 583 592 604 609 618 628 637 642 649 659"
             y="0"
             sodipodi:role="line"
             id="tspan38">Thus we conceived of a new product architecture: the CCU/CMU (the COLT control</tspan></text>
        <text
           xml:space="preserve"
           transform="translate(15312,172)"
           style="font-variant:normal;font-weight:normal;font-size:20px;font-family:'Times New Roman';-inkscape-font-specification:TimesNewRomanPSMT;writing-mode:lr-tb;fill:#000000;fill-opacity:1;fill-rule:nonzero;stroke:none"
           id="text44"><tspan
             x="0 9 18 24 29 34 43 52 62 67 72 81 90 95 108 122 131 143 148 162 171 180 188 197 204 213 227 236 245 250 255 264 273 279 284 291 296 301 313 322 331 336 349 362 375 380 395 405 414 420 430 435 445 454 459 465 475 484 493 498 507 517 522 531 536 541 546 555 564 569 578 587 596 601 608 617"
             y="0"
             sodipodi:role="line"
             id="tspan42">unit and the COLT measurement unit). The CCU would be located at the central</tspan></text>
        <text
           xml:space="preserve"
           transform="translate(15312,195)"
           style="font-variant:normal;font-weight:normal;font-size:20px;font-family:'Times New Roman';-inkscape-font-specification:TimesNewRomanPSMT;writing-mode:lr-tb;fill:#000000;fill-opacity:1;fill-rule:nonzero;stroke:none"
           id="text48"><tspan
             x="0 8 23 29 34 43 52 58 67 76 81 91 97 103 109 118 127 132 137 146 155 165 170 185 195 204 210 220 225 234 243 252 262 268 277 282 287 296 305 310 320 326 335 341 347 356 365 370 380 386 391 396 405 414 419 429 438 448 457 466 471 477 483 492 501 509 514 519 529 534 544 553 558 563 572 580 585 594 604 609 614 626 635 644 649 662 679"
             y="0"
             sodipodi:role="line"
             id="tspan46">switching office, and would handle the dialing of the phone lines to be tested. The CMU</tspan></text>
        <text
           xml:space="preserve"
           transform="translate(15312,218)"
           style="font-variant:normal;font-weight:normal;font-size:20px;font-family:'Times New Roman';-inkscape-font-specification:TimesNewRomanPSMT;writing-mode:lr-tb;fill:#000000;fill-opacity:1;fill-rule:nonzero;stroke:none"
           id="text52"><tspan
             x="0 15 25 34 40 50 55 65 74 79 85 95 104 113 118 127 137 142 151 156 161 166 175 184 189 195 205 214 223 229 234 244 250 258 263 270 276 286 295 300 306 316 325 330 340 350 356 365 370 378 383 388 397 406 416 421 436 446 455 461 471 476 490 499 508 516 525 532 541 546 551 560 569 574 583 593 603 613 622 629 634 649 655 662 671"
             y="0"
             sodipodi:role="line"
             id="tspan50">would be located at the local distribution points, and would measure the copper wires</tspan></text>
        <text
           xml:space="preserve"
           transform="translate(15312,241)"
           style="font-variant:normal;font-weight:normal;font-size:20px;font-family:'Times New Roman';-inkscape-font-specification:TimesNewRomanPSMT;writing-mode:lr-tb;fill:#000000;fill-opacity:1;fill-rule:nonzero;stroke:none"
           id="text56"><tspan
             x="0 5 14 23 28 33 39 48 58 63 68 78 83 88 97 106 111 120 129 137 142 152 166 175 183 189 197 202 212 221 231 240 249"
             y="0"
             sodipodi:role="line"
             id="tspan54">that led to the customer’s phone.</tspan></text>
        <text
           xml:space="preserve"
           transform="translate(15312,284)"
           style="font-variant:normal;font-weight:normal;font-size:20px;font-family:'Times New Roman';-inkscape-font-specification:TimesNewRomanPSMT;writing-mode:lr-tb;fill:#000000;fill-opacity:1;fill-rule:nonzero;stroke:none"
           id="text60"><tspan
             x="0 12 21 30 35 45 52 62 72 78 87 101 106 121 130 138 143 148 157 166 171 176 182 192 199 204 213 222 231 240 245 258 271 284 289 294 299 308 317 324 333 338 353 362 369 378 383 397 406 415 424 429 442 459 472 480 485 490 502 511 520 525 531 540 546 556 563 577 586 591 597 607 616 621 630 640 650 659"
             y="0"
             sodipodi:role="line"
             id="tspan58">The problem was that for each CCU, there were many CMUs. The information about</tspan></text>
        <text
           xml:space="preserve"
           transform="translate(15312,307)"
           style="font-variant:normal;font-weight:normal;font-size:20px;font-family:'Times New Roman';-inkscape-font-specification:TimesNewRomanPSMT;writing-mode:lr-tb;fill:#000000;fill-opacity:1;fill-rule:nonzero;stroke:none"
           id="text64"><tspan
             x="0 15 24 30 39 48 53 66 83 96 101 109 118 128 137 143 153 158 168 177 182 191 199 208 218 223 229 239 246 251 260 269 278 287 292 302 311 321 330 339 344 353 362 376 386 395 402 407 422 431 439 444 453 462 468 478 483 493 502 507 512 521 530 535 545 551 560 566 571 580 586 591 599 614 620 625 634 643 648 654 659 667 676 682 688"
             y="0"
             sodipodi:role="line"
             id="tspan62">which CMU should be used for each phone number was held by the digital switch itself.</tspan></text>
        <text
           xml:space="preserve"
           transform="translate(15312,330)"
           style="font-variant:normal;font-weight:normal;font-size:20px;font-family:'Times New Roman';-inkscape-font-specification:TimesNewRomanPSMT;writing-mode:lr-tb;fill:#000000;fill-opacity:1;fill-rule:nonzero;stroke:none"
           id="text68"><tspan
             x="0 12 21 30 38 43 48 57 66 71 84 97 110 115 124 133 143 148 153 163 168 174 183 188 197 204 211 221 230 239 244 253 258 263 272 281 286 296 302 311 317 322 331 337 342 350 365 371 376 385 394 399 404 414 419 429 438 443 452 459 473 479 488 497 502 517 526 532 541 550 555 568 585 598 603 608"
             y="0"
             sodipodi:role="line"
             id="tspan66">Thus the CCU had to interrogate the digital switch to determine which CMU to</tspan></text>
        <text
           xml:space="preserve"
           transform="translate(15312,353)"
           style="font-variant:normal;font-weight:normal;font-size:20px;font-family:'Times New Roman';-inkscape-font-specification:TimesNewRomanPSMT;writing-mode:lr-tb;fill:#000000;fill-opacity:1;fill-rule:nonzero;stroke:none"
           id="text72"><tspan
             x="0 9 19 33 47 56 65 71 80 89 94 103 108 123 129 134 143 148 157 166 176 181 190 200 209 214 221 231 237"
             y="0"
             sodipodi:role="line"
             id="tspan70">communicate with and control.</tspan></text>
        <text
           xml:space="preserve"
           transform="translate(15312,396)"
           style="font-variant:normal;font-weight:normal;font-size:20px;font-family:'Times New Roman';-inkscape-font-specification:TimesNewRomanPSMT;writing-mode:lr-tb;fill:#000000;fill-opacity:1;fill-rule:nonzero;stroke:none"
           id="text76"><tspan
             x="0 16 25 30 40 47 57 71 77 85 94 104 109 114 123 132 137 147 156 166 175 184 189 198 208 222 232 241 250 256 265 273 278 283 292 301 306 311 326 335 340 355 365 374 380 390 395 404 413 423 432 437 442 451 457 465 470 479 488 503 508 517 524 533 542 548 553 562 571 576 585 592 601 606 621 631 638 647 653 662 671 676 682"
             y="0"
             sodipodi:role="line"
             id="tspan74">We promised the phone companies that we would have this new architecture working in</tspan></text>
        <text
           xml:space="preserve"
           transform="translate(15312,419)"
           style="font-variant:normal;font-weight:normal;font-size:20px;font-family:'Times New Roman';-inkscape-font-specification:TimesNewRomanPSMT;writing-mode:lr-tb;fill:#000000;fill-opacity:1;fill-rule:nonzero;stroke:none"
           id="text80"><tspan
             x="0 5 11 25 34 39 45 55 62 67 72 81 90 96 103 108 113 120 129 138 146 152 157 163 173 182 187 192 208 217 222 231 240 249 264 269 274 283 292 301 306 321 330 337 346 351 365 375 384 389 398 406 411 416 422 428 433 442 452 457 462 471 480 489 496 504 509 518 533 542 550 555 560 568 578 583 598 607 612 622 628 638 643 652 662"
             y="0"
             sodipodi:role="line"
             id="tspan78">time for their transition. We knew they were months, if not years away, so we did not</tspan></text>
        <text
           xml:space="preserve"
           transform="translate(15312,442)"
           style="font-variant:normal;font-weight:normal;font-size:20px;font-family:'Times New Roman';-inkscape-font-specification:TimesNewRomanPSMT;writing-mode:lr-tb;fill:#000000;fill-opacity:1;fill-rule:nonzero;stroke:none"
           id="text84"><tspan
             x="0 6 15 24 30 35 42 51 59 68 77 87 92 97 113 122 127 136 142 150 160 165 174 183 192 207 212 217 226 235 240 245 251 256 261 276 286 295 301 311 316 321 330 339 348 353 361 370 380 389 396 405 411 416 430 439 448 455 464 473 482 489 497 502 507 517 522 532 541 551 560 566 576 586 591 596 605 611 619 624 633 642"
             y="0"
             sodipodi:role="line"
             id="tspan82">feel rushed. We also knew that it would take several man-years to develop this new</tspan></text>
        <text
           xml:space="preserve"
           transform="translate(15312,465)"
           style="font-variant:normal;font-weight:normal;font-size:20px;font-family:'Times New Roman';-inkscape-font-specification:TimesNewRomanPSMT;writing-mode:lr-tb;fill:#000000;fill-opacity:1;fill-rule:nonzero;stroke:none"
           id="text88"><tspan
             x="0 13 26 39 45 58 75 88 93 102 111 118 128 143 152 159 168 173 182 191 201 206 214 224 230 235 250 259 266 275"
             y="0"
             sodipodi:role="line"
             id="tspan86">CCU/CMU hardware and software.</tspan></text>
        <text
           xml:space="preserve"
           transform="translate(15312,515)"
           style="font-variant:normal;font-weight:bold;font-size:23px;font-family:'Times New Roman';-inkscape-font-specification:TimesNewRomanPS-BoldMT;writing-mode:lr-tb;fill:#000000;fill-opacity:1;fill-rule:nonzero;stroke:none"
           id="text92"><tspan
             x="0"
             y="0"
             id="tspan90">T</tspan></text>
        <text
           xml:space="preserve"
           transform="translate(15327,515)"
           style="font-variant:normal;font-weight:bold;font-size:23px;font-family:'Times New Roman';-inkscape-font-specification:TimesNewRomanPS-BoldMT;writing-mode:lr-tb;fill:#000000;fill-opacity:1;fill-rule:nonzero;stroke:none"
           id="text96"><tspan
             x="0 18"
             y="0"
             sodipodi:role="line"
             id="tspan94">HE</tspan></text>
        <text
           xml:space="preserve"
           transform="translate(15366,515)"
           style="font-variant:normal;font-weight:bold;font-size:23px;font-family:'Times New Roman';-inkscape-font-specification:TimesNewRomanPS-BoldMT;writing-mode:lr-tb;fill:#000000;fill-opacity:1;fill-rule:nonzero;stroke:none"
           id="text100"><tspan
             x="0"
             y="0"
             id="tspan98">S</tspan></text>
        <text
           xml:space="preserve"
           transform="translate(15379,515)"
           style="font-variant:normal;font-weight:bold;font-size:23px;font-family:'Times New Roman';-inkscape-font-specification:TimesNewRomanPS-BoldMT;writing-mode:lr-tb;fill:#000000;fill-opacity:1;fill-rule:nonzero;stroke:none"
           id="text104"><tspan
             x="0 17 35 50 67 84 99"
             y="0"
             sodipodi:role="line"
             id="tspan102">CHEDULE</tspan></text>
        <text
           xml:space="preserve"
           transform="translate(15499,515)"
           style="font-variant:normal;font-weight:bold;font-size:23px;font-family:'Times New Roman';-inkscape-font-specification:TimesNewRomanPS-BoldMT;writing-mode:lr-tb;fill:#000000;fill-opacity:1;fill-rule:nonzero;stroke:none"
           id="text108"><tspan
             x="0"
             y="0"
             id="tspan106">T</tspan></text>
        <text
           xml:space="preserve"
           transform="translate(15514,515)"
           style="font-variant:normal;font-weight:bold;font-size:23px;font-family:'Times New Roman';-inkscape-font-specification:TimesNewRomanPS-BoldMT;writing-mode:lr-tb;fill:#000000;fill-opacity:1;fill-rule:nonzero;stroke:none"
           id="text112"><tspan
             x="0 17 33"
             y="0"
             sodipodi:role="line"
             id="tspan110">RAP</tspan></text>
        <text
           xml:space="preserve"
           transform="translate(15312,558)"
           style="font-variant:normal;font-weight:normal;font-size:20px;font-family:'Times New Roman';-inkscape-font-specification:TimesNewRomanPSMT;writing-mode:lr-tb;fill:#000000;fill-opacity:1;fill-rule:nonzero;stroke:none"
           id="text116"><tspan
             x="0 14 22 27 32 38 52 61 66 81 90 99 104 109 119 128 133 138 153 162 167 173 183 192 201 211 216 221 230 239 244 249 254 263 272 279 288 293 308 317 324 333 338 347 353 368 377 386 394 399 408 415 424 433 442 447 452 466 475 480 485 494 501 509 514 519 528 537 542 547 554 563 573 582 588 595 604 614 619 628 636 641 646"
             y="0"
             sodipodi:role="line"
             id="tspan114">As time went on, we found that there were always urgent matters that required us to</tspan></text>
        <text
           xml:space="preserve"
           transform="translate(15312,581)"
           style="font-variant:normal;font-weight:normal;font-size:20px;font-family:'Times New Roman';-inkscape-font-specification:TimesNewRomanPSMT;writing-mode:lr-tb;fill:#000000;fill-opacity:1;fill-rule:nonzero;stroke:none"
           id="text120"><tspan
             x="0 10 20 28 33 43 53 62 71 76 86 95 105 114 120 130 140 154 163 172 177 182 192 198 203 208 217 226 231 244 257 270 276 289 306 319 324 333 340 349 358 364 369 378 387 392 401 408 417 422 427 443 452 457 463 472 478 483 488 496 505 511 520 525 534 544 554 563 568 573 578 587 593 601 606 616 625 634 640 648 654 664"
             y="0"
             sodipodi:role="line"
             id="tspan118">postpone development of the CCU/CMU architecture. We felt safe about this decision</tspan></text>
        <text
           xml:space="preserve"
           transform="translate(15312,604)"
           style="font-variant:normal;font-weight:normal;font-size:20px;font-family:'Times New Roman';-inkscape-font-specification:TimesNewRomanPSMT;writing-mode:lr-tb;fill:#000000;fill-opacity:1;fill-rule:nonzero;stroke:none"
           id="text124"><tspan
             x="0 10 19 28 37 46 54 63 68 73 82 91 96 106 115 125 134 143 148 157 167 181 191 200 209 215 224 232 237 252 261 268 277 282 291 301 310 318 324 332 337 346 355 360 366 375 380 390 399 405 414 423 429 438 447 452 457 466 475 480 490 499 509 515 525 534 548 557 566 571 576 586 592 597 607 613 622 628 633 642"
             y="0"
             sodipodi:role="line"
             id="tspan122">because the phone companies were consistently delaying the deployment of digital</tspan></text>
        <text
           xml:space="preserve"
           transform="translate(15312,627)"
           style="font-variant:normal;font-weight:normal;font-size:20px;font-family:'Times New Roman';-inkscape-font-specification:TimesNewRomanPSMT;writing-mode:lr-tb;fill:#000000;fill-opacity:1;fill-rule:nonzero;stroke:none"
           id="text128"><tspan
             x="0 8 23 29 34 43 52 61 69 74 79 93 101 106 121 130 135 141 151 161 170 179 189 194 203 208 213 218 227 236 242 249 254 262 271 280 289 299 308 314 323 331 336 341 356 365 370 376 385 391 396 401 410 420 429 435 441 451 460 469 474 479 484 493 502 507 512 527 536 541 550 559 569 574 584 590 599 608 613 622 627 637 643 648 653 659 673 682"
             y="0"
             sodipodi:role="line"
             id="tspan126">switches. As we looked at their schedules, we felt confident that we had plenty of time,</tspan></text>
        <text
           xml:space="preserve"
           transform="translate(15312,650)"
           style="font-variant:normal;font-weight:normal;font-size:20px;font-family:'Times New Roman';-inkscape-font-specification:TimesNewRomanPSMT;writing-mode:lr-tb;fill:#000000;fill-opacity:1;fill-rule:nonzero;stroke:none"
           id="text132"><tspan
             x="0 8 18 23 38 47 52 61 71 80 88 94 102 107 116 125 130 136 145 150 160 169 175 184 193 202 212 217 227 236 243 248 258 267 277 286 292 302 312 326 335 344 349"
             y="0"
             sodipodi:role="line"
             id="tspan130">so we consistently delayed our development.</tspan></text>
        <text
           xml:space="preserve"
           transform="translate(15312,693)"
           style="font-variant:normal;font-weight:normal;font-size:20px;font-family:'Times New Roman';-inkscape-font-specification:TimesNewRomanPSMT;writing-mode:lr-tb;fill:#000000;fill-opacity:1;fill-rule:nonzero;stroke:none"
           id="text136"><tspan
             x="0 12 21 30 39 44 53 62 76 85 90 95 104 113 118 128 137 146 151 156 165 174 179 184 198 207 212 222 232 240 248 253 262 271 277 283 292 302 307 321 330 335 341 350 355 365 370 379 385 393 398 408 414 420 426 435 444 449 458 467 477 482 490 499 505 515 521 526"
             y="0"
             sodipodi:role="line"
             id="tspan134">Then came the day that my boss called me into his office and said: “</tspan></text>
        <text
           xml:space="preserve"
           transform="translate(15847,693)"
           style="font-variant:normal;font-weight:normal;font-size:20px;font-family:'Times New Roman';-inkscape-font-specification:TimesNewRomanPSMT;writing-mode:lr-tb;fill:#000000;fill-opacity:1;fill-rule:nonzero;stroke:none"
           id="text140"><tspan
             x="0 14 23 32 37 47 53 58 68 77"
             y="0"
             sodipodi:role="line"
             id="tspan138">One of our</tspan></text>
        <text
           xml:space="preserve"
           transform="translate(15312,716)"
           style="font-variant:normal;font-weight:normal;font-size:20px;font-family:'Times New Roman';-inkscape-font-specification:TimesNewRomanPSMT;writing-mode:lr-tb;fill:#000000;fill-opacity:1;fill-rule:nonzero;stroke:none"
           id="text144"><tspan
             x="0 9 18 26 31 41 55 64 71 79 84 90 98 103 113 122 132 138 148 157 163 172 181 186 195 200 210 216 225 231 236 245 251 256 264 279 285 290 299 308 313 322 331 340 345 350 364 374 383 388 397 402 407 423 432 437 446 455 465 474 479 484 494 499 508 517 527 536 541 550 555 570 580 587 596 602 611"
             y="0"
             sodipodi:role="line"
             id="tspan142">customers is deploying a digital switch next month. We have to have a working</tspan></text>
        <text
           xml:space="preserve"
           transform="translate(15312,739)"
           style="font-variant:normal;font-weight:normal;font-size:20px;font-family:'Times New Roman';-inkscape-font-specification:TimesNewRomanPSMT;writing-mode:lr-tb;fill:#000000;fill-opacity:1;fill-rule:nonzero;stroke:none"
           id="text148"><tspan
             x="0 13 26 39 45 58 75 88 93 103 112 117 122 131 140 149"
             y="0"
             sodipodi:role="line"
             id="tspan146">CCU/CMU by then.</tspan></text>
        <text
           xml:space="preserve"
           transform="translate(15466,739)"
           style="font-variant:normal;font-weight:normal;font-size:20px;font-family:'Times New Roman';-inkscape-font-specification:TimesNewRomanPSMT;writing-mode:lr-tb;fill:#000000;fill-opacity:1;fill-rule:nonzero;stroke:none"
           id="text152"><tspan
             x="0"
             y="0"
             id="tspan150">”</tspan></text>
        <text
           xml:space="preserve"
           transform="translate(15312,782)"
           style="font-variant:normal;font-weight:normal;font-size:20px;font-family:'Times New Roman';-inkscape-font-specification:TimesNewRomanPSMT;writing-mode:lr-tb;fill:#000000;fill-opacity:1;fill-rule:nonzero;stroke:none"
           id="text156"><tspan
             x="0 6 11 26 35 43 48 57 66 75 84 92 97 103 108 122 132 147 152 161 171 180 186 196 201 216 225 230 240 250 258 266 272 282 288 297 302 312 322 327 341 350 359 366 375 384 393 400 408 413 423 429 434 444 453 463 472 478 488 498 512 521 530 535 540 546 555 560 569 574 588 598 607 612 621 630 635 648 657 662 667 681"
             y="0"
             sodipodi:role="line"
             id="tspan154">I was aghast! How could we possibly do man-years of development in a month? But my</tspan></text>
        <text
           xml:space="preserve"
           transform="translate(15312,805)"
           style="font-variant:normal;font-weight:normal;font-size:20px;font-family:'Times New Roman';-inkscape-font-specification:TimesNewRomanPSMT;writing-mode:lr-tb;fill:#000000;fill-opacity:1;fill-rule:nonzero;stroke:none"
           id="text160"><tspan
             x="0 10 20 28 36 41 50 59 69 74 83 88 98 104 113 122 127"
             y="0"
             sodipodi:role="line"
             id="tspan158">boss had a plan …</tspan></text>
        <text
           xml:space="preserve"
           transform="translate(15312,848)"
           style="font-variant:normal;font-weight:normal;font-size:20px;font-family:'Times New Roman';-inkscape-font-specification:TimesNewRomanPSMT;writing-mode:lr-tb;fill:#000000;fill-opacity:1;fill-rule:nonzero;stroke:none"
           id="text164"><tspan
             x="0 16 25 30 40 46 56 61 70 80 85 90 95 101 110 115 121 130 139 144 149 154 163 172 181 191 196 205 210 216 225 231 237 242 255 268 281 287 300 317 330 335 344 351 360 369 375 380 389 398 403 412 419 428 433 438 450 459 468 473 483 492 502 511 520 525 534 544 558 568 577 586 595 600 605 614 623 628 633 648 657"
             y="0"
             sodipodi:role="line"
             id="tspan162">We did not, in fact, need a full CCU/CMU architecture. The phone company that was</tspan></text>
        <text
           xml:space="preserve"
           transform="translate(15312,871)"
           style="font-variant:normal;font-weight:normal;font-size:20px;font-family:'Times New Roman';-inkscape-font-specification:TimesNewRomanPSMT;writing-mode:lr-tb;fill:#000000;fill-opacity:1;fill-rule:nonzero;stroke:none"
           id="text168"><tspan
             x="0 10 19 29 35 45 54 60 69 78 83 88 97 106 111 121 127 136 142 147 156 162 167 175 190 196 201 210 219 224 239 248 256 261 266 272 281 289 294 299 311 320 329 338 343 352 361 371 376 386 395 401 410 415 425 434 443 448 457 466 475 480 487 496 502 507 517 523 529 535 544 553 558 563 572 581 591 596 606 615 621 630 635 640 655"
             y="0"
             sodipodi:role="line"
             id="tspan166">deploying the digital switch was tiny. They had only one central office, and only two</tspan></text>
        <text
           xml:space="preserve"
           transform="translate(15312,894)"
           style="font-variant:normal;font-weight:normal;font-size:20px;font-family:'Times New Roman';-inkscape-font-specification:TimesNewRomanPSMT;writing-mode:lr-tb;fill:#000000;fill-opacity:1;fill-rule:nonzero;stroke:none"
           id="text172"><tspan
             x="0 6 16 25 34 40 45 55 61 69 74 81 87 97 106 111 117 127 136 141 151 161 167 176 181 189 194 199 216 226 233 242 247 253 267 277 287 294 299 308 317 322 328 336 341 346 351 360 369 374 383 389 399 408 417 423 432 437 447 453 461 466 473 479 489 498 503 509 519 528 533 543 553 559 568 573 581 586 601 610 617 626 631 640 650"
             y="0"
             sodipodi:role="line"
             id="tspan170">local distribution points. More importantly, the “local” distribution points were not</tspan></text>
        <text
           xml:space="preserve"
           transform="translate(15312,917)"
           style="font-variant:normal;font-weight:normal;font-size:20px;font-family:'Times New Roman';-inkscape-font-specification:TimesNewRomanPSMT;writing-mode:lr-tb;fill:#000000;fill-opacity:1;fill-rule:nonzero;stroke:none"
           id="text176"><tspan
             x="0 10 19 26 31 37 46 55 61 70 77 83 92 97 103 113 122 131 137 142 147 159 168 177 186 191 200 209 214 223 232 238 244 253 258 267 276 286 291 298 307 316 325 331 340 347 354 364 370 380 385 394 403 412 418 428 437 442 450 465 471 476 485 494 503 511 516 522 531 536 541 550 559 573 578 583 592 601 606 611 619 634 640 645 654 663 672"
             y="0"
             sodipodi:role="line"
             id="tspan174">particularly local. They actually had regular-old analog switches in them that switched</tspan></text>
        <text
           xml:space="preserve"
           transform="translate(15312,940)"
           style="font-variant:normal;font-weight:normal;font-size:20px;font-family:'Times New Roman';-inkscape-font-specification:TimesNewRomanPSMT;writing-mode:lr-tb;fill:#000000;fill-opacity:1;fill-rule:nonzero;stroke:none"
           id="text180"><tspan
             x="0 5 15 20 28 37 47 56 63 72 78 83 92 101 110 120 127 136 146 151 160 169 177 182 192 206 215 222 230 235 240 253 262 267 272 281 288 293 302 311 316 321 326 331 340 350 358 367 372 380 395 401 406 415 424 433 441 446 461 470 477 486 491 501 507 512 521 526 535 541 550 560 565 570 579 588 593 598 607 617 626 632 642 647 657"
             y="0"
             sodipodi:role="line"
             id="tspan178">to several hundred customers. Better yet, those switches were of a kind that could be</tspan></text>
        <text
           xml:space="preserve"
           transform="translate(15312,963)"
           style="font-variant:normal;font-weight:normal;font-size:20px;font-family:'Times New Roman';-inkscape-font-specification:TimesNewRomanPSMT;writing-mode:lr-tb;fill:#000000;fill-opacity:1;fill-rule:nonzero;stroke:none"
           id="text184"><tspan
             x="0 10 16 25 31 40 50 55 65 74 79 88 93 102 112 119 133 142 148 153 166 180 189 199 204 209 222 231 236 241 250 257 262 271 281 290 299 304 312 317 323 329 335 340 345 350 359 368 373 382 391 399 404 414 428 437 445 451 459 464 474 483 493 502 511 516 525 534 548 558 567 574 579 588 598 607 612 621 627 636 645 655 660 669 675"
             y="0"
             sodipodi:role="line"
             id="tspan182">dialed by a normal COLT. Better even still, the customer’s phone number contained all</tspan></text>
        <text
           xml:space="preserve"
           transform="translate(15312,986)"
           style="font-variant:normal;font-weight:normal;font-size:20px;font-family:'Times New Roman';-inkscape-font-specification:TimesNewRomanPSMT;writing-mode:lr-tb;fill:#000000;fill-opacity:1;fill-rule:nonzero;stroke:none"
           id="text188"><tspan
             x="0 5 14 23 28 34 43 49 59 66 80 89 94 100 110 119 124 133 142 151 160 168 176 185 192 201 206 211 221 226 236 245 254 260 270 279 284 299 308 314 323 332 337 343 353 362 371 377 382 392 398 406 411 418 424 434 443 448 454 464 473 478 488 498 504 513 518 523 528 538 543 552 560 569 574 579 585 591 596 601 610 619 624 634 643 653 662"
             y="0"
             sodipodi:role="line"
             id="tspan186">the information necessary to decide which local distribution point to use. If the phone</tspan></text>
      </g>
    </g>
  </g>
</svg>
