<?xml version="1.0" encoding="UTF-8" standalone="no"?>
<!-- Created with Inkscape (http://www.inkscape.org/) -->

<svg
   version="1.1"
   id="svg2"
   width="816"
   height="1056"
   viewBox="0 0 816 1056"
   sodipodi:docname="clean_arch.pdf"
   xmlns:inkscape="http://www.inkscape.org/namespaces/inkscape"
   xmlns:sodipodi="http://sodipodi.sourceforge.net/DTD/sodipodi-0.dtd"
   xmlns="http://www.w3.org/2000/svg"
   xmlns:svg="http://www.w3.org/2000/svg">
  <defs
     id="defs6">
    <clipPath
       clipPathUnits="userSpaceOnUse"
       id="clipPath18">
      <path
         d="m 3480,0 h 696 V 1056 H 3480 V 0"
         clip-rule="evenodd"
         id="path16" />
    </clipPath>
    <clipPath
       clipPathUnits="userSpaceOnUse"
       id="clipPath28">
      <path
         d="m 3480,66 h 696 V 996 H 3480 V 66"
         clip-rule="evenodd"
         id="path26" />
    </clipPath>
  </defs>
  <sodipodi:namedview
     id="namedview4"
     pagecolor="#ffffff"
     bordercolor="#000000"
     borderopacity="0.25"
     inkscape:showpageshadow="2"
     inkscape:pageopacity="0.0"
     inkscape:pagecheckerboard="0"
     inkscape:deskcolor="#d1d1d1" />
  <g
     id="g8"
     inkscape:groupmode="layer"
     inkscape:label="clean_arch"
     transform="translate(59.999999,2.64e-5)">
    <g
       id="g10" />
    <g
       id="g12"
       transform="translate(-3480)">
      <g
         id="g14"
         clip-path="url(#clipPath18)">
        <g
           id="g20" />
      </g>
    </g>
    <g
       id="g22"
       transform="translate(-3480)">
      <g
         id="g24"
         clip-path="url(#clipPath28)">
        <text
           xml:space="preserve"
           transform="translate(3480,83)"
           style="font-variant:normal;font-weight:normal;font-size:20px;font-family:'Times New Roman';-inkscape-font-specification:TimesNewRomanPSMT;writing-mode:lr-tb;fill:#000000;fill-opacity:1;fill-rule:nonzero;stroke:none"
           id="text32"><tspan
             x="0 9 19 24 30 40 49 54 64 70 75 84 95 104 111 121 127 136 145 152 166 173 179 188 197 202 211 221 226 240 247 256 265 271 276 285 294 299 308 315 324 333 338 347 356 366 375 380 394 403 412 421 426 440 450 457 466 471 476 486 491 501 511 516 531 537 542 551 556 570 579 586 595 604 609 615 624 633 638 643 652 661"
             y="0"
             sodipodi:role="line"
             id="tspan30">notion of “Service-Oriented Architecture” have much more to do with marketing than</tspan></text>
        <text
           xml:space="preserve"
           transform="translate(3480,106)"
           style="font-variant:normal;font-weight:normal;font-size:20px;font-family:'Times New Roman';-inkscape-font-specification:TimesNewRomanPSMT;writing-mode:lr-tb;fill:#000000;fill-opacity:1;fill-rule:nonzero;stroke:none"
           id="text36"><tspan
             x="0 15 21 26 35 40 47 56 65 71 77 82 90"
             y="0"
             sodipodi:role="line"
             id="tspan34">with reality.</tspan></text>
        <text
           xml:space="preserve"
           transform="translate(3480,149)"
           style="font-variant:normal;font-weight:normal;font-size:20px;font-family:'Times New Roman';-inkscape-font-specification:TimesNewRomanPSMT;writing-mode:lr-tb;fill:#000000;fill-opacity:1;fill-rule:nonzero;stroke:none"
           id="text40"><tspan
             x="0 18 27 36 41"
             y="0"
             sodipodi:role="line"
             id="tspan38">What </tspan></text>
        <text
           xml:space="preserve"
           transform="translate(3526,149)"
           style="font-variant:normal;font-weight:normal;font-size:20px;font-family:'Times New Roman';-inkscape-font-specification:TimesNewRomanPSMT;writing-mode:lr-tb;fill:#000000;fill-opacity:1;fill-rule:nonzero;stroke:none"
           id="text44"><tspan
             x="0 8 17 27 36 42"
             y="0"
             sodipodi:role="line"
             id="tspan42">should</tspan></text>
        <text
           xml:space="preserve"
           transform="translate(3583,149)"
           style="font-variant:normal;font-weight:normal;font-size:20px;font-family:'Times New Roman';-inkscape-font-specification:TimesNewRomanPSMT;writing-mode:lr-tb;fill:#000000;fill-opacity:1;fill-rule:nonzero;stroke:none"
           id="text48"><tspan
             x="0 6 11 20 29 39 48 53 63 73 82 91 96 102 111 116 121 130 139 144 149 155 165 174 183 190 199 208 218 223 231 240 249 258 267 274 280 290 299 304 310 315 323 332 342 351 357 367 372 381 390 400 409 414 424 434 440 445 454 464 469 478 487 492 505 519 532 549 560 565 575"
             y="0"
             sodipodi:role="line"
             id="tspan46">I have done in that long-ago scenario? I should have bolted an RDBMS on</tspan></text>
        <text
           xml:space="preserve"
           transform="translate(3480,172)"
           style="font-variant:normal;font-weight:normal;font-size:20px;font-family:'Times New Roman';-inkscape-font-specification:TimesNewRomanPSMT;writing-mode:lr-tb;fill:#000000;fill-opacity:1;fill-rule:nonzero;stroke:none"
           id="text52"><tspan
             x="0 5 14 23 28 36 42 52 61 66 76 82 87 92 101 110 115 123 132 140 145 154 168 173 182 191 201 206 216 223 233 243 249 259 268 278 283 291 301 315 324 329 338 347 354 361 371 386 391 400 409 419 424 432 441 447 456 461 471 480 485 494 499 508 517 526 535 543 551 556 565 574 583 592 601 610 616 621 626 636 641 647 652"
             y="0"
             sodipodi:role="line"
             id="tspan50">the side of the system and provided some narrow and safe data access channel to it,</tspan></text>
        <text
           xml:space="preserve"
           transform="translate(3480,195)"
           style="font-variant:normal;font-weight:normal;font-size:20px;font-family:'Times New Roman';-inkscape-font-specification:TimesNewRomanPSMT;writing-mode:lr-tb;fill:#000000;fill-opacity:1;fill-rule:nonzero;stroke:none"
           id="text56"><tspan
             x="0 15 24 30 36 45 50 64 73 79 88 93 102 108 117 123 132 141 146 151 160 169 174 181 190 199 209 219 233 238 247 256 265 274 282 290 295 301 307 313 322 330 335 341 350 355 360 369 378 383 392 402 409 418 423 433 439 444 449 458 467 472 480 489 497 502 511 525 530 535 553 562 571 576"
             y="0"
             sodipodi:role="line"
             id="tspan54">while maintaining the random access files in the core of the system. What </tspan></text>
        <text
           xml:space="preserve"
           transform="translate(4061,195)"
           style="font-variant:normal;font-weight:normal;font-size:20px;font-family:'Times New Roman';-inkscape-font-specification:TimesNewRomanPSMT;writing-mode:lr-tb;fill:#000000;fill-opacity:1;fill-rule:nonzero;stroke:none"
           id="text60"><tspan
             x="0 10 16"
             y="0"
             sodipodi:role="line"
             id="tspan58">did</tspan></text>
        <text
           xml:space="preserve"
           transform="translate(4092,195)"
           style="font-variant:normal;font-weight:normal;font-size:20px;font-family:'Times New Roman';-inkscape-font-specification:TimesNewRomanPSMT;writing-mode:lr-tb;fill:#000000;fill-opacity:1;fill-rule:nonzero;stroke:none"
           id="text64"><tspan
             x="0 6 11 21 31 40 45"
             y="0"
             sodipodi:role="line"
             id="tspan62">I do? I</tspan></text>
        <text
           xml:space="preserve"
           transform="translate(3480,218)"
           style="font-variant:normal;font-weight:normal;font-size:20px;font-family:'Times New Roman';-inkscape-font-specification:TimesNewRomanPSMT;writing-mode:lr-tb;fill:#000000;fill-opacity:1;fill-rule:nonzero;stroke:none"
           id="text68"><tspan
             x="0 10 19 25 30 35 44 53 63 68 78 87 96 105 119 128 133 142 147 156 166 175 183 192 198 203 212 221 226"
             y="0"
             sodipodi:role="line"
             id="tspan66">quit and became a consultant.</tspan></text>
        <text
           xml:space="preserve"
           transform="translate(3480,288)"
           style="font-variant:normal;font-weight:bold;font-size:33px;font-family:'Times New Roman';-inkscape-font-specification:TimesNewRomanPS-BoldMT;writing-mode:lr-tb;fill:#000000;fill-opacity:1;fill-rule:nonzero;stroke:none"
           id="text72"><tspan
             x="0"
             y="0"
             id="tspan70">C</tspan></text>
        <text
           xml:space="preserve"
           transform="translate(3504,288)"
           style="font-variant:normal;font-weight:bold;font-size:33px;font-family:'Times New Roman';-inkscape-font-specification:TimesNewRomanPS-BoldMT;writing-mode:lr-tb;fill:#000000;fill-opacity:1;fill-rule:nonzero;stroke:none"
           id="text76"><tspan
             x="0 26 50 74 96 120 138 151 177"
             y="0"
             sodipodi:role="line"
             id="tspan74">ONCLUSION</tspan></text>
        <text
           xml:space="preserve"
           transform="translate(3480,333)"
           style="font-variant:normal;font-weight:normal;font-size:20px;font-family:'Times New Roman';-inkscape-font-specification:TimesNewRomanPSMT;writing-mode:lr-tb;fill:#000000;fill-opacity:1;fill-rule:nonzero;stroke:none"
           id="text80"><tspan
             x="0 12 21 30 35 45 52 61 70 79 85 93 102 107 113 123 132 141 147 152 160 165 172 181 190 195 204 211 220 225 235 241 246 256 265 270 279 284 289 294 303 312 317 327 336 341 350 355 369 379 389 398 404 409 414 420 428 433 442 449 458 467 473 478 487 496 501 510 517 526 532 538 547 552 560 566 575 584 590 596 602 611 620 629 634 639 644 656 665"
             y="0"
             sodipodi:role="line"
             id="tspan78">The organizational structure of data, the data model, is architecturally significant. The</tspan></text>
        <text
           xml:space="preserve"
           transform="translate(3480,356)"
           style="font-variant:normal;font-weight:normal;font-size:20px;font-family:'Times New Roman';-inkscape-font-specification:TimesNewRomanPSMT;writing-mode:lr-tb;fill:#000000;fill-opacity:1;fill-rule:nonzero;stroke:none"
           id="text84"><tspan
             x="0 5 14 23 32 41 51 57 67 76 82 91 99 104 113 122 132 137 145 154 162 167 176 190 198 203 208 217 226 231 236 250 260 270 279 284 294 303 308 317 322 332 341 346 355 364 374 379 389 395 401 406 415 420 427 437 442 451 456 462 471 480 485 499 508 517 526 535 540 546 555 560 568 577 584 590 599 608 617 622 631 638 647 652 661 671 676"
             y="0"
             sodipodi:role="line"
             id="tspan82">technologies and systems that move data on and off a rotating magnetic surface are not.</tspan></text>
        <text
           xml:space="preserve"
           transform="translate(3480,379)"
           style="font-variant:normal;font-weight:normal;font-size:20px;font-family:'Times New Roman';-inkscape-font-specification:TimesNewRomanPSMT;writing-mode:lr-tb;fill:#000000;fill-opacity:1;fill-rule:nonzero;stroke:none"
           id="text88"><tspan
             x="0 13 22 28 37 42 48 58 67 76 82 87 97 106 111 120 130 139 147 156 161 169 178 186 191 200 214 222 227 232 241 250 255 260 266 276 283 292 301 306 311 320 329 334 344 353 358 367 372 377 387 392 402 411 416 426 433 442 451 460 466 474 483 493 498 504 513 518 528 533 538 547 557 563 572 580 585 594 603 613 618 627 636 645 654 662 670 679"
             y="0"
             sodipodi:role="line"
             id="tspan86">Relational database systems that force the data to be organized into tables and accessed</tspan></text>
        <text
           xml:space="preserve"
           transform="translate(3480,402)"
           style="font-variant:normal;font-weight:normal;font-size:20px;font-family:'Times New Roman';-inkscape-font-specification:TimesNewRomanPSMT;writing-mode:lr-tb;fill:#000000;fill-opacity:1;fill-rule:nonzero;stroke:none"
           id="text92"><tspan
             x="0 15 21 26 35 40 51 65 75 80 89 98 108 117 122 136 145 154 163 168 182 192 199 208 213 218 228 233 243 253 258 273 279 284 293 298 303 312 321 326 332 341 346 351 360 367 372 377 386 395 404 409 424 430 435 444 449 454 463 472 477 483 493 500 514 523 529 534 539 551 560 569 574 584 593 598 607 612 618"
             y="0"
             sodipodi:role="line"
             id="tspan90">with SQL have much more to do with the latter than with the former. The data is</tspan></text>
        <text
           xml:space="preserve"
           transform="translate(3480,425)"
           style="font-variant:normal;font-weight:normal;font-size:20px;font-family:'Times New Roman';-inkscape-font-specification:TimesNewRomanPSMT;writing-mode:lr-tb;fill:#000000;fill-opacity:1;fill-rule:nonzero;stroke:none"
           id="text96"><tspan
             x="0 8 14 23 32 38 44 50 59 68 77 82 87 92 104 113 122 127 137 146 151 160 170 179 187 196 201 207 215 220 229 234 244 253 258 267 273 279"
             y="0"
             sodipodi:role="line"
             id="tspan94">significant. The database is a detail.</tspan></text>
      </g>
    </g>
  </g>
</svg>
