<?xml version="1.0" encoding="UTF-8" standalone="no"?>
<!-- Created with Inkscape (http://www.inkscape.org/) -->

<svg
   version="1.1"
   id="svg2"
   width="816"
   height="1056"
   viewBox="0 0 816 1056"
   sodipodi:docname="clean_arch.pdf"
   xmlns:inkscape="http://www.inkscape.org/namespaces/inkscape"
   xmlns:sodipodi="http://sodipodi.sourceforge.net/DTD/sodipodi-0.dtd"
   xmlns="http://www.w3.org/2000/svg"
   xmlns:svg="http://www.w3.org/2000/svg">
  <defs
     id="defs6">
    <clipPath
       clipPathUnits="userSpaceOnUse"
       id="clipPath18">
      <path
         d="m 18792,0 h 696 v 1056 h -696 V 0"
         clip-rule="evenodd"
         id="path16" />
    </clipPath>
    <clipPath
       clipPathUnits="userSpaceOnUse"
       id="clipPath28">
      <path
         d="m 18792,66 h 696 v 930 h -696 V 66"
         clip-rule="evenodd"
         id="path26" />
    </clipPath>
  </defs>
  <sodipodi:namedview
     id="namedview4"
     pagecolor="#ffffff"
     bordercolor="#000000"
     borderopacity="0.25"
     inkscape:showpageshadow="2"
     inkscape:pageopacity="0.0"
     inkscape:pagecheckerboard="0"
     inkscape:deskcolor="#d1d1d1" />
  <g
     id="g8"
     inkscape:groupmode="layer"
     inkscape:label="clean_arch"
     transform="translate(59.999999,2.64e-5)">
    <g
       id="g10" />
    <g
       id="g12"
       transform="translate(-18792)">
      <g
         id="g14"
         clip-path="url(#clipPath18)">
        <g
           id="g20" />
      </g>
    </g>
    <g
       id="g22"
       transform="translate(-18792)">
      <g
         id="g24"
         clip-path="url(#clipPath28)">
        <text
           xml:space="preserve"
           transform="translate(18792,83)"
           style="font-variant:normal;font-weight:normal;font-size:20px;font-family:'Times New Roman';-inkscape-font-specification:TimesNewRomanPSMT;writing-mode:lr-tb;fill:#000000;fill-opacity:1;fill-rule:nonzero;stroke:none"
           id="text32"><tspan
             x="0 11 21 26 41 50 55 65 74 83 89 99 108 118 123 128 138 143 151 166 172 177 186 195 200 205 215 220 231 240 253 262 270 279 284 289 303 310 315 330 339 347 352 358 363 368 374 383 392 399 408 416 424 433 438 444 449 459 469 478 485 490 495 502 511 525 534 548 558 567 573 578 583 594 603 609 615 621 630 639 644 650 655 660 665"
             y="0"
             sodipodi:role="line"
             id="tspan30">So we decided to switch to SyBase. Or was it Ingress? I don’t remember. Suffice it to</tspan></text>
        <text
           xml:space="preserve"
           transform="translate(18792,106)"
           style="font-variant:normal;font-weight:normal;font-size:20px;font-family:'Times New Roman';-inkscape-font-specification:TimesNewRomanPSMT;writing-mode:lr-tb;fill:#000000;fill-opacity:1;fill-rule:nonzero;stroke:none"
           id="text36"><tspan
             x="0 8 17 25 30 35 50 59 64 73 82 92 97 102 112 117 125 134 143 150 159 168 173 178 187 194 204 213 222 231 236 245 251 257 262 267 276 285 290 295 308 313 322 332 342 351 356 361 367 373 382 392 397 406 412 418 423 428 437 446 451 460 474 484 493 503 513 522 532 537 548 562 572 577 586 595 605 610 618 628 637 646 652 661"
             y="0"
             sodipodi:role="line"
             id="tspan34">say, we had to search through all that C code, find all the embedded SQL and special</tspan></text>
        <text
           xml:space="preserve"
           transform="translate(18792,129)"
           style="font-variant:normal;font-weight:normal;font-size:20px;font-family:'Times New Roman';-inkscape-font-specification:TimesNewRomanPSMT;writing-mode:lr-tb;fill:#000000;fill-opacity:1;fill-rule:nonzero;stroke:none"
           id="text40"><tspan
             x="0 14 25 31 36 45 54 60 66 74 79 84 93 102 112 117 124 133 143 149 158 167 176 181 186 195 204 218 223 238 244 249 258 263 272 282 289 296 305 313 323 333 342 352 358 367 376 381 390 399 407 412 421 428 437 445 450 456 466 473 478 483 492 501 506 515 524 539 544 554 563 572 582 592 598"
             y="0"
             sodipodi:role="line"
             id="tspan38">API calls, and replace them with corresponding gestures for the new vendor.</tspan></text>
        <text
           xml:space="preserve"
           transform="translate(18792,172)"
           style="font-variant:normal;font-weight:normal;font-size:20px;font-family:'Times New Roman';-inkscape-font-specification:TimesNewRomanPSMT;writing-mode:lr-tb;fill:#000000;fill-opacity:1;fill-rule:nonzero;stroke:none"
           id="text44"><tspan
             x="0 14 20 25 34 41 46 51 60 67 76 85 90 104 114 123 128 137 145 150 160 166 171 180 186 192 202 209 214 219 229 236 241 249 259 264 269 284 293 298 307 316 326 335 340 349 359 364 369 385 394 399 408 418 427 433 443 452 459 464 469 483 492 501 510 515 521 526 531 546 556 563 572 577 582 598 607 612 627 636 643 652 657 665"
             y="0"
             sodipodi:role="line"
             id="tspan42">After three months of effort or so, we gave up. We couldn’t make it work. We were so</tspan></text>
        <text
           xml:space="preserve"
           transform="translate(18792,195)"
           style="font-variant:normal;font-weight:normal;font-size:20px;font-family:'Times New Roman';-inkscape-font-specification:TimesNewRomanPSMT;writing-mode:lr-tb;fill:#000000;fill-opacity:1;fill-rule:nonzero;stroke:none"
           id="text48"><tspan
             x="0 9 19 28 38 44 53 63 68 73 83 88 101 115 121 132 145 150 155 164 173 178 183 188 197 206 213 222 227 242 251 259 264 273 283 288 296 305 312 318 328 337 345 350 359 369 379 388 393 403 409 414 421 430 438 443 450 459 468 473 482 489 495 504 513 518 523 532 541 546 555 565 575 584 589 598 603 608 617 626"
             y="0"
             sodipodi:role="line"
             id="tspan46">coupled to UNIFY that there was no serious hope of restructuring the code at any</tspan></text>
        <text
           xml:space="preserve"
           transform="translate(18792,218)"
           style="font-variant:normal;font-weight:normal;font-size:20px;font-family:'Times New Roman';-inkscape-font-specification:TimesNewRomanPSMT;writing-mode:lr-tb;fill:#000000;fill-opacity:1;fill-rule:nonzero;stroke:none"
           id="text52"><tspan
             x="0 10 17 26 35 40 46 55 64 70 75 84 93 103 112 121 129 138"
             y="0"
             sodipodi:role="line"
             id="tspan50">practical expense.</tspan></text>
        <text
           xml:space="preserve"
           transform="translate(18792,261)"
           style="font-variant:normal;font-weight:normal;font-size:20px;font-family:'Times New Roman';-inkscape-font-specification:TimesNewRomanPSMT;writing-mode:lr-tb;fill:#000000;fill-opacity:1;fill-rule:nonzero;stroke:none"
           id="text56"><tspan
             x="0 11 21 26 31 46 55 60 69 75 82 91 101 106 115 120 125 134 140 147 157 162 172 181 188 193 202 207 212 222 227 241 250 256 265 270 279 285 294 299 312 326 332 343 356 361 367 377 384 389 398 406 411 416 426 435 443 452 462 467 477 486 491 500 505 519 528 534 543 548 557 566 575 584 593 602 607 616 626 635 640 647 656 665 670"
             y="0"
             sodipodi:role="line"
             id="tspan54">So, we hired a third party to maintain UNIFY for us, based on a maintenance contract.</tspan></text>
        <text
           xml:space="preserve"
           transform="translate(18792,284)"
           style="font-variant:normal;font-weight:normal;font-size:20px;font-family:'Times New Roman';-inkscape-font-specification:TimesNewRomanPSMT;writing-mode:lr-tb;fill:#000000;fill-opacity:1;fill-rule:nonzero;stroke:none"
           id="text60"><tspan
             x="0 14 23 33 38 43 53 59 64 73 83 92 99 107 116 121 126 131 140 149 154 168 177 183 192 197 206 215 224 233 242 251 256 263 272 277 286 294 299 314 323 332 337 342 351 361 366 375 384 393 400 405 414 420 425 434 441 446 455 464 473 480 485 494 500 505 514 521 526 535 544 553 559"
             y="0"
             sodipodi:role="line"
             id="tspan58">And, of course, the maintenance rates went up year after year after year.</tspan></text>
        <text
           xml:space="preserve"
           transform="translate(18792,334)"
           style="font-variant:normal;font-weight:bold;font-size:23px;font-family:'Times New Roman';-inkscape-font-specification:TimesNewRomanPS-BoldMT;writing-mode:lr-tb;fill:#000000;fill-opacity:1;fill-rule:nonzero;stroke:none"
           id="text64"><tspan
             x="0 16 33 46 52"
             y="0"
             sodipodi:role="line"
             id="tspan62">VRS C</tspan></text>
        <text
           xml:space="preserve"
           transform="translate(18861,334)"
           style="font-variant:normal;font-weight:bold;font-size:23px;font-family:'Times New Roman';-inkscape-font-specification:TimesNewRomanPS-BoldMT;writing-mode:lr-tb;fill:#000000;fill-opacity:1;fill-rule:nonzero;stroke:none"
           id="text68"><tspan
             x="0 18 35 52 67 84 97 106 124"
             y="0"
             sodipodi:role="line"
             id="tspan66">ONCLUSION</tspan></text>
        <text
           xml:space="preserve"
           transform="translate(18792,377)"
           style="font-variant:normal;font-weight:normal;font-size:20px;font-family:'Times New Roman';-inkscape-font-specification:TimesNewRomanPSMT;writing-mode:lr-tb;fill:#000000;fill-opacity:1;fill-rule:nonzero;stroke:none"
           id="text72"><tspan
             x="0 12 21 27 35 40 46 54 59 69 78 87 92 102 108 113 118 127 136 141 156 165 174 182 187 192 201 210 215 220 226 231 237 246 255 262 271 280 290 295 300 309 318 323 328 338 347 352 361 371 380 388 397 405 410 419 426 435 440 450 459 464 473 479 485 493 498 503 512 521 526 531 539 548 558 567 573 583 588 598 607 612 618 626 636 642 651 656 665"
             y="0"
             sodipodi:role="line"
             id="tspan70">This is one of the ways that I learned that databases are details that should be isolated</tspan></text>
        <text
           xml:space="preserve"
           transform="translate(18792,400)"
           style="font-variant:normal;font-weight:normal;font-size:20px;font-family:'Times New Roman';-inkscape-font-specification:TimesNewRomanPSMT;writing-mode:lr-tb;fill:#000000;fill-opacity:1;fill-rule:nonzero;stroke:none"
           id="text76"><tspan
             x="0 6 13 23 37 42 47 56 65 70 80 90 99 106 115 121 127 132 142 151 159 165 174 183 191 199 204 214 223 230 240 250 258 267 272 282 288 293 298 307 316 321 329 338 346 351 360 374 379 384 396 405 411 419 424 430 438 443 452 458 466 476 481 491 500 509 514 524 530 535 540 549 558 563 570 579 588 596 606 615 623 628 633 642 651 656 661"
             y="0"
             sodipodi:role="line"
             id="tspan74">from the overall business purpose of the system. This is also one of the reasons that I</tspan></text>
        <text
           xml:space="preserve"
           transform="translate(18792,423)"
           style="font-variant:normal;font-weight:normal;font-size:20px;font-family:'Times New Roman';-inkscape-font-specification:TimesNewRomanPSMT;writing-mode:lr-tb;fill:#000000;fill-opacity:1;fill-rule:nonzero;stroke:none"
           id="text80"><tspan
             x="0 10 20 29 36 41 46 52 58 67 76 81 89 94 101 111 120 129 135 144 149 158 168 177 187 193 199 208 217 222 227 237 242 247 256 262 269 279 286 296 305 312 317 326 331 339 349 355 360 375 384 391 400 405 413 422 430 435 444 458 466"
             y="0"
             sodipodi:role="line"
             id="tspan78">don’t like strongly coupling to third-party software systems.</tspan></text>
        <text
           xml:space="preserve"
           transform="translate(18792,493)"
           style="font-variant:normal;font-weight:bold;font-size:33px;font-family:'Times New Roman';-inkscape-font-specification:TimesNewRomanPS-BoldMT;writing-mode:lr-tb;fill:#000000;fill-opacity:1;fill-rule:nonzero;stroke:none"
           id="text84"><tspan
             x="0"
             y="0"
             id="tspan82">T</tspan></text>
        <text
           xml:space="preserve"
           transform="translate(18814,493)"
           style="font-variant:normal;font-weight:bold;font-size:33px;font-family:'Times New Roman';-inkscape-font-specification:TimesNewRomanPS-BoldMT;writing-mode:lr-tb;fill:#000000;fill-opacity:1;fill-rule:nonzero;stroke:none"
           id="text88"><tspan
             x="0 26"
             y="0"
             sodipodi:role="line"
             id="tspan86">HE</tspan></text>
        <text
           xml:space="preserve"
           transform="translate(18870,493)"
           style="font-variant:normal;font-weight:bold;font-size:33px;font-family:'Times New Roman';-inkscape-font-specification:TimesNewRomanPS-BoldMT;writing-mode:lr-tb;fill:#000000;fill-opacity:1;fill-rule:nonzero;stroke:none"
           id="text92"><tspan
             x="0"
             y="0"
             id="tspan90">E</tspan></text>
        <text
           xml:space="preserve"
           transform="translate(18892,493)"
           style="font-variant:normal;font-weight:bold;font-size:33px;font-family:'Times New Roman';-inkscape-font-specification:TimesNewRomanPS-BoldMT;writing-mode:lr-tb;fill:#000000;fill-opacity:1;fill-rule:nonzero;stroke:none"
           id="text96"><tspan
             x="0 22 44 68 90 114 140 164 177"
             y="0"
             sodipodi:role="line"
             id="tspan94">LECTRONIC</tspan></text>
        <text
           xml:space="preserve"
           transform="translate(19101,493)"
           style="font-variant:normal;font-weight:bold;font-size:33px;font-family:'Times New Roman';-inkscape-font-specification:TimesNewRomanPS-BoldMT;writing-mode:lr-tb;fill:#000000;fill-opacity:1;fill-rule:nonzero;stroke:none"
           id="text100"><tspan
             x="0"
             y="0"
             id="tspan98">R</tspan></text>
        <text
           xml:space="preserve"
           transform="translate(19125,493)"
           style="font-variant:normal;font-weight:bold;font-size:33px;font-family:'Times New Roman';-inkscape-font-specification:TimesNewRomanPS-BoldMT;writing-mode:lr-tb;fill:#000000;fill-opacity:1;fill-rule:nonzero;stroke:none"
           id="text104"><tspan
             x="0 22 46 68 88 110 123 149 173 186 204"
             y="0"
             sodipodi:role="line"
             id="tspan102">ECEPTIONIST</tspan></text>
        <text
           xml:space="preserve"
           transform="translate(18792,538)"
           style="font-variant:normal;font-weight:normal;font-size:20px;font-family:'Times New Roman';-inkscape-font-specification:TimesNewRomanPSMT;writing-mode:lr-tb;fill:#000000;fill-opacity:1;fill-rule:nonzero;stroke:none"
           id="text108"><tspan
             x="0 6 15 20 30 40 50 60 65 70 80 89 96 101 110 120 134 144 153 162 171 176 184 193 198 203 212 217 222 227 236 245 250 259 269 278 284 290 299 308 317 326 335 340 350 356 361 370 380 394 404 413 418 427 434 439 447 456 464 469 478 492 500 505 510 515 524 530 539 548 558 572 586 595 604 610 619 628 633 639 649 658"
             y="0"
             sodipodi:role="line"
             id="tspan106">In 1983, our company sat at the confluence of computer systems, telecommunications</tspan></text>
        <text
           xml:space="preserve"
           transform="translate(18792,561)"
           style="font-variant:normal;font-weight:normal;font-size:20px;font-family:'Times New Roman';-inkscape-font-specification:TimesNewRomanPSMT;writing-mode:lr-tb;fill:#000000;fill-opacity:1;fill-rule:nonzero;stroke:none"
           id="text112"><tspan
             x="0 8 17 25 30 39 53 61 66 71 80 89 99 104 114 124 130 139 148 153 161 170 178 183 192 206 214 219 224 238 247 254 259 272 284 298 303 308 317 327 336 345 354 359 364 369 378 384 392 397 411 417 426 435 440 445 455 464 469 478 483 489 498 505 510 516 522 531 536 546 556 564 570 575 581 591 600 605 611 618 628 642 647 662 671 677 686"
             y="0"
             sodipodi:role="line"
             id="tspan110">systems, and voice systems. Our CEO thought this might be a fertile position from which</tspan></text>
        <text
           xml:space="preserve"
           transform="translate(18792,584)"
           style="font-variant:normal;font-weight:normal;font-size:20px;font-family:'Times New Roman';-inkscape-font-specification:TimesNewRomanPSMT;writing-mode:lr-tb;fill:#000000;fill-opacity:1;fill-rule:nonzero;stroke:none"
           id="text116"><tspan
             x="0 5 15 20 30 39 49 58 64 74 84 89 98 107 122 127 137 144 154 164 173 182 187 195 200 205 215 225 230 239 249 259 266 275 283 291 296 301 310 316 324 329 338 348 357 363 368 373 382 391 396 405 415 429 443 449 457 465 471 481 490 499 509 514 523 528 533 542 551 565 570 580 586 591 596 605 612 621 630 635 642 657 666 672 681"
             y="0"
             sodipodi:role="line"
             id="tspan114">to develop new products. To address this goal, he commissioned a team of three (which</tspan></text>
        <text
           xml:space="preserve"
           transform="translate(18792,607)"
           style="font-variant:normal;font-weight:normal;font-size:20px;font-family:'Times New Roman';-inkscape-font-specification:TimesNewRomanPSMT;writing-mode:lr-tb;fill:#000000;fill-opacity:1;fill-rule:nonzero;stroke:none"
           id="text120"><tspan
             x="0 6 15 24 30 39 49 58 68 73 87 96 103 108 113 123 128 137 147 156 165 174 180 190 199 204 209 219 228 236 242 251 260 265 270 279 288 298 303 309 323 333 339 348 362 371 380 385 390 399 404 413 422 437 442 452 459 469 479 488 497 502 507 513 523 530 535 540 549 558 563 572 582 596 606 615 624 632"
             y="0"
             sodipodi:role="line"
             id="tspan118">included me) to conceive, design, and implement a new product for the company.</tspan></text>
        <text
           xml:space="preserve"
           transform="translate(18792,650)"
           style="font-variant:normal;font-weight:normal;font-size:20px;font-family:'Times New Roman';-inkscape-font-specification:TimesNewRomanPSMT;writing-mode:lr-tb;fill:#000000;fill-opacity:1;fill-rule:nonzero;stroke:none"
           id="text124"><tspan
             x="0 6 11 16 26 32 42 51 58 63 68 73 82 91 100 105 114 122 127 133 143 152 161 166 171 181 186 195 205 219 228 233 242 252 257 272 278 283 292"
             y="0"
             sodipodi:role="line"
             id="tspan122">It didn’t take us long to come up with </tspan></text>
        <text
           xml:space="preserve"
           transform="translate(19089,650)"
           style="font-variant:normal;font-weight:normal;font-size:20px;font-family:'Times New Roman';-inkscape-font-specification:TimesNewRomanPSMT;writing-mode:lr-tb;fill:#000000;fill-opacity:1;fill-rule:nonzero;stroke:none"
           id="text128"><tspan
             x="0 12 21 30 35 47 53 62 71 76 83 93 102 108 117 122 135 144 153 162 172 177 183 193 202 208 216"
             y="0"
             sodipodi:role="line"
             id="tspan126">The Electronic Receptionist</tspan></text>
        <text
           xml:space="preserve"
           transform="translate(19315,650)"
           style="font-variant:normal;font-weight:normal;font-size:20px;font-family:'Times New Roman';-inkscape-font-specification:TimesNewRomanPSMT;writing-mode:lr-tb;fill:#000000;fill-opacity:1;fill-rule:nonzero;stroke:none"
           id="text132"><tspan
             x="0 7 19 32 39"
             y="0"
             sodipodi:role="line"
             id="tspan130">(ER).</tspan></text>
        <text
           xml:space="preserve"
           transform="translate(18792,693)"
           style="font-variant:normal;font-weight:normal;font-size:20px;font-family:'Times New Roman';-inkscape-font-specification:TimesNewRomanPSMT;writing-mode:lr-tb;fill:#000000;fill-opacity:1;fill-rule:nonzero;stroke:none"
           id="text136"><tspan
             x="0 12 21 30 35 41 51 60 69 74 89 98 106 111 119 125 139 149 155 164 169 174 192 201 210 219 224 233 243 252 257 266 275 281 287 296 306 311 320 325 334 344 358 368 377 386 394 399 404 416 429 434 449 459 468 474 484 489 498 507 515 530 539 546 551 560 569 579 584 593 601 610 615 624 634 643 648 663 672"
             y="0"
             sodipodi:role="line"
             id="tspan134">The idea was simple. When you called a company, ER would answer and ask you who</tspan></text>
        <text
           xml:space="preserve"
           transform="translate(18792,716)"
           style="font-variant:normal;font-weight:normal;font-size:20px;font-family:'Times New Roman';-inkscape-font-specification:TimesNewRomanPSMT;writing-mode:lr-tb;fill:#000000;fill-opacity:1;fill-rule:nonzero;stroke:none"
           id="text140"><tspan
             x="0 9 19 28 33 48 57 66 71 80 90 95 100 110 115 123 133 142 151 160 165 180 186 191 200 205 210 222 232 241 246 261 271 280 286 296 301 310 318 327 332 337 347 356 365 374 379 384 394 403 412 420 425 430 440 445 453 463 472 478 484 489 494 503 512 517 526 535 549 558 563 573 579 584 589 598 607 612 617 627 636 643 651 661 670"
             y="0"
             sodipodi:role="line"
             id="tspan138">you wanted to speak with. You would use touch tones to spell the name of that person,</tspan></text>
        <text
           xml:space="preserve"
           transform="translate(18792,739)"
           style="font-variant:normal;font-weight:normal;font-size:20px;font-family:'Times New Roman';-inkscape-font-specification:TimesNewRomanPSMT;writing-mode:lr-tb;fill:#000000;fill-opacity:1;fill-rule:nonzero;stroke:none"
           id="text144"><tspan
             x="0 9 18 28 33 45 58 63 78 88 97 103 113 118 123 132 141 150 155 164 174 183 192 201 210 215 220 229 239 248 253 258 270 279 288 293 302 310 319 326 334 339 349 355 360 372 385 390 399 409 418 424 434"
             y="0"
             sodipodi:role="line"
             id="tspan142">and ER would then connect you. The users of ER could </tspan></text>
        <text
           xml:space="preserve"
           transform="translate(19231,739)"
           style="font-variant:normal;font-weight:normal;font-size:20px;font-family:'Times New Roman';-inkscape-font-specification:TimesNewRomanPSMT;writing-mode:lr-tb;fill:#000000;fill-opacity:1;fill-rule:nonzero;stroke:none"
           id="text148"><tspan
             x="0 10 16 25 31 36 42 51 56 65 74 84 89 94 104 113 118 127 135 141 150 159 164 172 178 192 202 208"
             y="0"
             sodipodi:role="line"
             id="tspan146">dial in and, by using simple</tspan></text>
        <text
           xml:space="preserve"
           transform="translate(18792,762)"
           style="font-variant:normal;font-weight:normal;font-size:20px;font-family:'Times New Roman';-inkscape-font-specification:TimesNewRomanPSMT;writing-mode:lr-tb;fill:#000000;fill-opacity:1;fill-rule:nonzero;stroke:none"
           id="text152"><tspan
             x="0 5 15 24 33 42 49 54 64 73 82 87 96 106 120 134 143 152 162 170 175 180 185 194 200 206 211 217 222 227 242 251 257 266 275 280 290 299 309 318 327 332 341 350 364 374 383 390 395 400 409 418 423 433 442 450 456 463 472 482 487 497 506 513 521 531 540 545 554 564 573 579 589 594 604 613 618 625 634 643 652 661 670"
             y="0"
             sodipodi:role="line"
             id="tspan150">touch-tone commands, tell it which phone number the desired person could be reached</tspan></text>
        <text
           xml:space="preserve"
           transform="translate(18792,785)"
           style="font-variant:normal;font-weight:normal;font-size:20px;font-family:'Times New Roman';-inkscape-font-specification:TimesNewRomanPSMT;writing-mode:lr-tb;fill:#000000;fill-opacity:1;fill-rule:nonzero;stroke:none"
           id="text156"><tspan
             x="0 9 14 19 24 33 42 51 66 75 84 91 100 105 111 120 125 130 139 148 153 168 178 185 191 201 206 211 217 226 231 237 246 255 260 265 270 275 284 293 298 306 315 323 328 337 351 356 365 375 384 390 400 405 411 417 425 430 435 443 452 462 471 478 487 493 498 507 513 518 527 534 543 552 557 566 571 580 589 603 613 622 629 637"
             y="0"
             sodipodi:role="line"
             id="tspan154">at, anywhere in the world. In fact, the system could list several alternate numbers.</tspan></text>
        <text
           xml:space="preserve"
           transform="translate(18792,828)"
           style="font-variant:normal;font-weight:normal;font-size:20px;font-family:'Times New Roman';-inkscape-font-specification:TimesNewRomanPSMT;writing-mode:lr-tb;fill:#000000;fill-opacity:1;fill-rule:nonzero;stroke:none"
           id="text160"><tspan
             x="0 18 27 36 45 50 59 69 78 83 92 101 107 113 122 132 137 149 162 167 176 185 195 200 210 216 225 231 240 250 255 268 285 299 311 323 328 335 349 358 363 372 382 392 401 408 413 418 430 443 448 463 473 482 488 498 503 512 521 527 533 538 543 552 561 566 572 578 585 593 598 603 612 621 635 645 654 661 666 676"
             y="0"
             sodipodi:role="line"
             id="tspan158">When you called ER and dialed RMART (my code), ER would call the first number on</tspan></text>
        <text
           xml:space="preserve"
           transform="translate(18792,851)"
           style="font-variant:normal;font-weight:normal;font-size:20px;font-family:'Times New Roman';-inkscape-font-specification:TimesNewRomanPSMT;writing-mode:lr-tb;fill:#000000;fill-opacity:1;fill-rule:nonzero;stroke:none"
           id="text164"><tspan
             x="0 14 23 28 34 40 48 53 58 63 69 75 80 86 91 97 106 112 118 127 137 142 147 157 162 171 180 188 203 212 219 224 233 242 252 257 263 273 282 291 296 302 308 317 322 336 345 353 362 368 374 379 384 390 395 400 415 425 434 440 450 455 464 473 479 485 490 495 504 513 518 527 536 545 550 555 564 573 587 597 606 612 617 622 631 640 650 655 660 669"
             y="0"
             sodipodi:role="line"
             id="tspan162">my list. If I failed to answer and identify myself, it would call the next number, and the</tspan></text>
        <text
           xml:space="preserve"
           transform="translate(18792,874)"
           style="font-variant:normal;font-weight:normal;font-size:20px;font-family:'Times New Roman';-inkscape-font-specification:TimesNewRomanPSMT;writing-mode:lr-tb;fill:#000000;fill-opacity:1;fill-rule:nonzero;stroke:none"
           id="text168"><tspan
             x="0 9 18 27 32 37 42 48 54 59 65 70 78 83 89 95 101 106 121 130 138 147 154 159 164 171 180 189 198 207 216 226 231 236 248 261 266 281 291 300 306 316 321 328 337 346 356 363 373 378 387 392 406 415 423 431 440 449 458 463 469 476 486 500 505 510 519 528 533 542 551 557 563 572 578"
             y="0"
             sodipodi:role="line"
             id="tspan166">next. If I still wasn’t reached, ER would record a message from the caller.</tspan></text>
        <text
           xml:space="preserve"
           transform="translate(18792,917)"
           style="font-variant:normal;font-weight:normal;font-size:20px;font-family:'Times New Roman';-inkscape-font-specification:TimesNewRomanPSMT;writing-mode:lr-tb;fill:#000000;fill-opacity:1;fill-rule:nonzero;stroke:none"
           id="text172"><tspan
             x="0 12 25 30 45 55 64 70 80 85 90 99 108 117 122 127 137 146 153 159 169 179 185 194 203 209 215 223 228 233 238 245 254 259 264 274 279 285 291 300 310 315 329 338 343 348 358 363 373 382 388 394 404 413 420 425 430 439 448 453 458 472 481 489 497 506 515 524 529 534 543 552 562 567 576 585 594 599 609 614 623 632"
             y="0"
             sodipodi:role="line"
             id="tspan170">ER would then, periodically, try to find me to deliver that message, and any other</tspan></text>
        <text
           xml:space="preserve"
           transform="translate(18792,940)"
           style="font-variant:normal;font-weight:normal;font-size:20px;font-family:'Times New Roman';-inkscape-font-specification:TimesNewRomanPSMT;writing-mode:lr-tb;fill:#000000;fill-opacity:1;fill-rule:nonzero;stroke:none"
           id="text176"><tspan
             x="0 14 23 31 39 48 57 66 71 77 86 92 97 102 108 118 125 130 144 153 158 168 177 182 191 200 209 219 228 237 242 251 257 265 274"
             y="0"
             sodipodi:role="line"
             id="tspan174">message left for me by anyone else.</tspan></text>
        <text
           xml:space="preserve"
           transform="translate(18792,986)"
           style="font-variant:normal;font-weight:normal;font-size:20px;font-family:'Times New Roman';-inkscape-font-specification:TimesNewRomanPSMT;writing-mode:lr-tb;fill:#000000;fill-opacity:1;fill-rule:nonzero;stroke:none"
           id="text180"><tspan
             x="0 12 21 27 35 40 55 64 72 77 82 91 100 105 111 117 124 132 137 142 152 162 168 177 186 191 205 214 220 226 231 239 248 256 261 270 284 289 298 308 317 323 328 333 342 351 361 366 381"
             y="0"
             sodipodi:role="line"
             id="tspan178">This was the first voice mail system ever, and we</tspan></text>
        <text
           xml:space="preserve"
           transform="translate(19182,979)"
           style="font-variant:normal;font-weight:normal;font-size:15px;font-family:'Times New Roman';-inkscape-font-specification:TimesNewRomanPSMT;writing-mode:lr-tb;fill:#0000ee;fill-opacity:1;fill-rule:nonzero;stroke:none"
           id="text184"><tspan
             x="0 6"
             y="0"
             sodipodi:role="line"
             id="tspan182">11</tspan></text>
        <path
           d="m 19182,980.5 h 12 z"
           style="fill:none;stroke:#0000ee;stroke-width:1;stroke-linecap:square;stroke-linejoin:miter;stroke-miterlimit:10;stroke-dasharray:none;stroke-opacity:1"
           id="path186" />
        <text
           xml:space="preserve"
           transform="translate(19200,986)"
           style="font-variant:normal;font-weight:normal;font-size:20px;font-family:'Times New Roman';-inkscape-font-specification:TimesNewRomanPSMT;writing-mode:lr-tb;fill:#000000;fill-opacity:1;fill-rule:nonzero;stroke:none"
           id="text190"><tspan
             x="0 9 18 24 34 39 44 53 62 67 77 86 91 100 109 114 119 124 134 139 145 150"
             y="0"
             sodipodi:role="line"
             id="tspan188">held the patent to it.</tspan></text>
      </g>
    </g>
  </g>
</svg>
