<?xml version="1.0" encoding="UTF-8" standalone="no"?>
<!-- Created with Inkscape (http://www.inkscape.org/) -->

<svg
   version="1.1"
   id="svg2"
   width="816"
   height="1056"
   viewBox="0 0 816 1056"
   sodipodi:docname="clean_arch.pdf"
   xmlns:inkscape="http://www.inkscape.org/namespaces/inkscape"
   xmlns:sodipodi="http://sodipodi.sourceforge.net/DTD/sodipodi-0.dtd"
   xmlns="http://www.w3.org/2000/svg"
   xmlns:svg="http://www.w3.org/2000/svg">
  <defs
     id="defs6">
    <clipPath
       clipPathUnits="userSpaceOnUse"
       id="clipPath18">
      <path
         d="m 2784,0 h 696 V 1056 H 2784 V 0"
         clip-rule="evenodd"
         id="path16" />
    </clipPath>
    <clipPath
       clipPathUnits="userSpaceOnUse"
       id="clipPath28">
      <path
         d="m 2784,66 h 696 V 996 H 2784 V 66"
         clip-rule="evenodd"
         id="path26" />
    </clipPath>
  </defs>
  <sodipodi:namedview
     id="namedview4"
     pagecolor="#ffffff"
     bordercolor="#000000"
     borderopacity="0.25"
     inkscape:showpageshadow="2"
     inkscape:pageopacity="0.0"
     inkscape:pagecheckerboard="0"
     inkscape:deskcolor="#d1d1d1" />
  <g
     id="g8"
     inkscape:groupmode="layer"
     inkscape:label="clean_arch"
     transform="translate(59.999999,2.64e-5)">
    <g
       id="g10" />
    <g
       id="g12"
       transform="translate(-2784)">
      <g
         id="g14"
         clip-path="url(#clipPath18)">
        <g
           id="g20" />
      </g>
    </g>
    <g
       id="g22"
       transform="translate(-2784)">
      <g
         id="g24"
         clip-path="url(#clipPath28)">
        <text
           xml:space="preserve"
           transform="translate(2784,83)"
           style="font-variant:normal;font-weight:normal;font-size:20px;font-family:'Times New Roman';-inkscape-font-specification:TimesNewRomanPSMT;writing-mode:lr-tb;fill:#000000;fill-opacity:1;fill-rule:nonzero;stroke:none"
           id="text32"><tspan
             x="0 12 21 30 35 43 48 55 64 69 78 87 96 101 110 118 127 137 142 152 161"
             y="0"
             sodipodi:role="line"
             id="tspan30">The strategy used by </tspan></text>
        <text
           xml:space="preserve"
           transform="translate(2950,83)"
           style="font-variant:normal;font-weight:normal;font-size:16px;font-family:'Courier New';-inkscape-font-specification:CourierNewPSMT;writing-mode:lr-tb;fill:#000000;fill-opacity:1;fill-rule:nonzero;stroke:none"
           id="text36"><tspan
             x="0 10 20 30 40"
             y="0"
             sodipodi:role="line"
             id="tspan34">swap!</tspan></text>
        <text
           xml:space="preserve"
           transform="translate(3005,83)"
           style="font-variant:normal;font-weight:normal;font-size:20px;font-family:'Times New Roman';-inkscape-font-specification:TimesNewRomanPSMT;writing-mode:lr-tb;fill:#000000;fill-opacity:1;fill-rule:nonzero;stroke:none"
           id="text40"><tspan
             x="0 6 14 19 28 33 38 45 54 64 70 75 81 91 100 109 115"
             y="0"
             sodipodi:role="line"
             id="tspan38">is a traditional </tspan></text>
        <text
           xml:space="preserve"
           transform="translate(3125,83)"
           style="font-variant:normal;font-weight:normal;font-size:20px;font-family:'Times New Roman';-inkscape-font-specification:TimesNewRomanPSMT;writing-mode:lr-tb;fill:#000000;fill-opacity:1;fill-rule:nonzero;stroke:none"
           id="text44"><tspan
             x="0 9 19 33 43 52 59 68 73 82 91 101 106 114 129 138"
             y="0"
             sodipodi:role="line"
             id="tspan42">compare and swap</tspan></text>
        <text
           xml:space="preserve"
           transform="translate(3278,83)"
           style="font-variant:normal;font-weight:normal;font-size:20px;font-family:'Times New Roman';-inkscape-font-specification:TimesNewRomanPSMT;writing-mode:lr-tb;fill:#000000;fill-opacity:1;fill-rule:nonzero;stroke:none"
           id="text48"><tspan
             x="0 9 15 24 34 41 47 52 61 75 80 85 97 106 115 120 130 139 145 154 163 168 178"
             y="0"
             sodipodi:role="line"
             id="tspan46">algorithm. The value of</tspan></text>
        <text
           xml:space="preserve"
           transform="translate(2784,106)"
           style="font-variant:normal;font-weight:normal;font-size:16px;font-family:'Courier New';-inkscape-font-specification:CourierNewPSMT;writing-mode:lr-tb;fill:#000000;fill-opacity:1;fill-rule:nonzero;stroke:none"
           id="text52"><tspan
             x="0 10 20 30 40 50 60"
             y="0"
             sodipodi:role="line"
             id="tspan50">counter</tspan></text>
        <text
           xml:space="preserve"
           transform="translate(2859,106)"
           style="font-variant:normal;font-weight:normal;font-size:20px;font-family:'Times New Roman';-inkscape-font-specification:TimesNewRomanPSMT;writing-mode:lr-tb;fill:#000000;fill-opacity:1;fill-rule:nonzero;stroke:none"
           id="text56"><tspan
             x="0 6 14 19 26 35 44 54 59 68 77 87 92 102 111 119 127 136 146 151 156 166"
             y="0"
             sodipodi:role="line"
             id="tspan54">is read and passed to </tspan></text>
        <text
           xml:space="preserve"
           transform="translate(3030,106)"
           style="font-variant:normal;font-weight:normal;font-size:16px;font-family:'Courier New';-inkscape-font-specification:CourierNewPSMT;writing-mode:lr-tb;fill:#000000;fill-opacity:1;fill-rule:nonzero;stroke:none"
           id="text60"><tspan
             x="0 10 20"
             y="0"
             sodipodi:role="line"
             id="tspan58">inc</tspan></text>
        <text
           xml:space="preserve"
           transform="translate(3060,106)"
           style="font-variant:normal;font-weight:normal;font-size:20px;font-family:'Times New Roman';-inkscape-font-specification:TimesNewRomanPSMT;writing-mode:lr-tb;fill:#000000;fill-opacity:1;fill-rule:nonzero;stroke:none"
           id="text64"><tspan
             x="0 5 10 28 37 46 55"
             y="0"
             sodipodi:role="line"
             id="tspan62">. When </tspan></text>
        <text
           xml:space="preserve"
           transform="translate(3120,106)"
           style="font-variant:normal;font-weight:normal;font-size:16px;font-family:'Courier New';-inkscape-font-specification:CourierNewPSMT;writing-mode:lr-tb;fill:#000000;fill-opacity:1;fill-rule:nonzero;stroke:none"
           id="text68"><tspan
             x="0 10 20"
             y="0"
             sodipodi:role="line"
             id="tspan66">inc</tspan></text>
        <text
           xml:space="preserve"
           transform="translate(3155,106)"
           style="font-variant:normal;font-weight:normal;font-size:20px;font-family:'Times New Roman';-inkscape-font-specification:TimesNewRomanPSMT;writing-mode:lr-tb;fill:#000000;fill-opacity:1;fill-rule:nonzero;stroke:none"
           id="text72"><tspan
             x="0 7 16 21 30 37 46 54 59 64 69 78 87 92 102 111 117 126 135 140 150 156"
             y="0"
             sodipodi:role="line"
             id="tspan70">returns, the value of </tspan></text>
        <text
           xml:space="preserve"
           transform="translate(3316,106)"
           style="font-variant:normal;font-weight:normal;font-size:16px;font-family:'Courier New';-inkscape-font-specification:CourierNewPSMT;writing-mode:lr-tb;fill:#000000;fill-opacity:1;fill-rule:nonzero;stroke:none"
           id="text76"><tspan
             x="0 10 20 30 40 50 60"
             y="0"
             sodipodi:role="line"
             id="tspan74">counter</tspan></text>
        <text
           xml:space="preserve"
           transform="translate(3391,106)"
           style="font-variant:normal;font-weight:normal;font-size:20px;font-family:'Times New Roman';-inkscape-font-specification:TimesNewRomanPSMT;writing-mode:lr-tb;fill:#000000;fill-opacity:1;fill-rule:nonzero;stroke:none"
           id="text80"><tspan
             x="0 6 14 19 25 35 44 53 62"
             y="0"
             sodipodi:role="line"
             id="tspan78">is locked</tspan></text>
        <text
           xml:space="preserve"
           transform="translate(2784,129)"
           style="font-variant:normal;font-weight:normal;font-size:20px;font-family:'Times New Roman';-inkscape-font-specification:TimesNewRomanPSMT;writing-mode:lr-tb;fill:#000000;fill-opacity:1;fill-rule:nonzero;stroke:none"
           id="text84"><tspan
             x="0 9 18 28 33 42 52 66 76 85 92 101 111 116 121 131 136 141 150 159 164 174 183 189 198 207 212 217 226 235 240 245 260 269 277 282 292 301 309 317 326 336 341 346 356"
             y="0"
             sodipodi:role="line"
             id="tspan82">and compared to the value that was passed to </tspan></text>
        <text
           xml:space="preserve"
           transform="translate(3145,129)"
           style="font-variant:normal;font-weight:normal;font-size:16px;font-family:'Courier New';-inkscape-font-specification:CourierNewPSMT;writing-mode:lr-tb;fill:#000000;fill-opacity:1;fill-rule:nonzero;stroke:none"
           id="text88"><tspan
             x="0 10 20"
             y="0"
             sodipodi:role="line"
             id="tspan86">inc</tspan></text>
        <text
           xml:space="preserve"
           transform="translate(3175,129)"
           style="font-variant:normal;font-weight:normal;font-size:20px;font-family:'Times New Roman';-inkscape-font-specification:TimesNewRomanPSMT;writing-mode:lr-tb;fill:#000000;fill-opacity:1;fill-rule:nonzero;stroke:none"
           id="text92"><tspan
             x="0 5 10 16 22 27 32 41 50 55 65 74 80 89 98 103 109 117 122 127 136 145 150 158 167 181 190 195 200 205 214 223 232 237 242 251"
             y="0"
             sodipodi:role="line"
             id="tspan90">. If the value is the same, then the</tspan></text>
        <text
           xml:space="preserve"
           transform="translate(2784,152)"
           style="font-variant:normal;font-weight:normal;font-size:20px;font-family:'Times New Roman';-inkscape-font-specification:TimesNewRomanPSMT;writing-mode:lr-tb;fill:#000000;fill-opacity:1;fill-rule:nonzero;stroke:none"
           id="text96"><tspan
             x="0 10 19 25 34 43 48 55 64 69 78 85 94 103 113 118 128 137"
             y="0"
             sodipodi:role="line"
             id="tspan94">value returned by </tspan></text>
        <text
           xml:space="preserve"
           transform="translate(2926,152)"
           style="font-variant:normal;font-weight:normal;font-size:16px;font-family:'Courier New';-inkscape-font-specification:CourierNewPSMT;writing-mode:lr-tb;fill:#000000;fill-opacity:1;fill-rule:nonzero;stroke:none"
           id="text100"><tspan
             x="0 10 20"
             y="0"
             sodipodi:role="line"
             id="tspan98">inc</tspan></text>
        <text
           xml:space="preserve"
           transform="translate(2961,152)"
           style="font-variant:normal;font-weight:normal;font-size:20px;font-family:'Times New Roman';-inkscape-font-specification:TimesNewRomanPSMT;writing-mode:lr-tb;fill:#000000;fill-opacity:1;fill-rule:nonzero;stroke:none"
           id="text104"><tspan
             x="0 6 14 19 27 32 42 49 58 68 73 79 88"
             y="0"
             sodipodi:role="line"
             id="tspan102">is stored in </tspan></text>
        <text
           xml:space="preserve"
           transform="translate(3054,152)"
           style="font-variant:normal;font-weight:normal;font-size:16px;font-family:'Courier New';-inkscape-font-specification:CourierNewPSMT;writing-mode:lr-tb;fill:#000000;fill-opacity:1;fill-rule:nonzero;stroke:none"
           id="text108"><tspan
             x="0 10 20 30 40 50 60"
             y="0"
             sodipodi:role="line"
             id="tspan106">counter</tspan></text>
        <text
           xml:space="preserve"
           transform="translate(3129,152)"
           style="font-variant:normal;font-weight:normal;font-size:20px;font-family:'Times New Roman';-inkscape-font-specification:TimesNewRomanPSMT;writing-mode:lr-tb;fill:#000000;fill-opacity:1;fill-rule:nonzero;stroke:none"
           id="text112"><tspan
             x="0 9 18 28 33 38 47 56 61 67 77 86 95 100 106 114 119 126 135 141 150 159 167 176 186 191 196 210 215 224 233 240 255 261 269 278 283 288 293 302 311 316 322 332 341"
             y="0"
             sodipodi:role="line"
             id="tspan110">and the lock is released. Otherwise, the lock</tspan></text>
        <text
           xml:space="preserve"
           transform="translate(2784,175)"
           style="font-variant:normal;font-weight:normal;font-size:20px;font-family:'Times New Roman';-inkscape-font-specification:TimesNewRomanPSMT;writing-mode:lr-tb;fill:#000000;fill-opacity:1;fill-rule:nonzero;stroke:none"
           id="text116"><tspan
             x="0 6 14 19 26 35 41 50 59 67 76 86 91 96 105 114 124 129 134 143 152 157 165 170 177 186 191 200 209 218 223 229 237 242 249 258 263 270 276 285 295 300 306 313 323 337 342 347 356 365 370 380 389 398 404 413 422 428 437 446"
             y="0"
             sodipodi:role="line"
             id="tspan114">is released, and the strategy is retried from the beginning.</tspan></text>
        <text
           xml:space="preserve"
           transform="translate(2784,218)"
           style="font-variant:normal;font-weight:normal;font-size:20px;font-family:'Times New Roman';-inkscape-font-specification:TimesNewRomanPSMT;writing-mode:lr-tb;fill:#000000;fill-opacity:1;fill-rule:nonzero;stroke:none"
           id="text120"><tspan
             x="0 12 21 30"
             y="0"
             sodipodi:role="line"
             id="tspan118">The </tspan></text>
        <text
           xml:space="preserve"
           transform="translate(2819,218)"
           style="font-variant:normal;font-weight:normal;font-size:16px;font-family:'Courier New';-inkscape-font-specification:CourierNewPSMT;writing-mode:lr-tb;fill:#000000;fill-opacity:1;fill-rule:nonzero;stroke:none"
           id="text124"><tspan
             x="0 10 20 30"
             y="0"
             sodipodi:role="line"
             id="tspan122">atom</tspan></text>
        <text
           xml:space="preserve"
           transform="translate(2864,218)"
           style="font-variant:normal;font-weight:normal;font-size:20px;font-family:'Times New Roman';-inkscape-font-specification:TimesNewRomanPSMT;writing-mode:lr-tb;fill:#000000;fill-opacity:1;fill-rule:nonzero;stroke:none"
           id="text128"><tspan
             x="0 6 15 24 30 36 42 47 56 61 67 75 80 89 99 108 118 127 136 141 150 155 161 171 178 183 191 197 211 221 227 236 241 250 260 270 276 282 291 300 305 311 321 330 338 343 348 361 370 376 386 393 398 407 416 425 430 439 445 453 458 463 469 474 479 488 497 506 515 525"
             y="0"
             sodipodi:role="line"
             id="tspan126">facility is adequate for simple applications. Unfortunately, it cannot</tspan></text>
        <text
           xml:space="preserve"
           transform="translate(2784,241)"
           style="font-variant:normal;font-weight:normal;font-size:20px;font-family:'Times New Roman';-inkscape-font-specification:TimesNewRomanPSMT;writing-mode:lr-tb;fill:#000000;fill-opacity:1;fill-rule:nonzero;stroke:none"
           id="text132"><tspan
             x="0 9 19 33 43 49 58 63 72 78 87 92 100 109 115 124 133 142 151 158 168 173 182 191 200 206 215 223 228 233 242 252 261 270 279 286 293 302 311 316 321 330 340 350 359 364 373 381 386 395 404 414 419 429 438 447 457 463 473 482 491 499 504 519 528 537 546 551 565 574 580 585 591 601 607"
             y="0"
             sodipodi:role="line"
             id="tspan130">completely safeguard against concurrent updates and deadlocks when multiple</tspan></text>
        <text
           xml:space="preserve"
           transform="translate(2784,264)"
           style="font-variant:normal;font-weight:normal;font-size:20px;font-family:'Times New Roman';-inkscape-font-specification:TimesNewRomanPSMT;writing-mode:lr-tb;fill:#000000;fill-opacity:1;fill-rule:nonzero;stroke:none"
           id="text136"><tspan
             x="0 10 19 29 38 47 57 66 75 80 85 95 104 111 117 126 136 142 151 159 164 173 183 197 206 211 217 226 231 241 246 256 262 271 279 284 289 295 304 309 314 323 333 341 350 355 361 370 378 383 392 401 410 419 427 432 437 451 461 468 477 482 491 497 506 516 526 533 542 547 556 561 567 576 585 591 597 603 608 614 623 631 636 645 654 663 668 678"
             y="0"
             sodipodi:role="line"
             id="tspan134">dependent variables come into play. In those instances, more elaborate facilities can be</tspan></text>
        <text
           xml:space="preserve"
           transform="translate(2784,287)"
           style="font-variant:normal;font-weight:normal;font-size:20px;font-family:'Times New Roman';-inkscape-font-specification:TimesNewRomanPSMT;writing-mode:lr-tb;fill:#000000;fill-opacity:1;fill-rule:nonzero;stroke:none"
           id="text140"><tspan
             x="0 9 17 26 36"
             y="0"
             sodipodi:role="line"
             id="tspan138">used.</tspan></text>
        <text
           xml:space="preserve"
           transform="translate(2784,330)"
           style="font-variant:normal;font-weight:normal;font-size:20px;font-family:'Times New Roman';-inkscape-font-specification:TimesNewRomanPSMT;writing-mode:lr-tb;fill:#000000;fill-opacity:1;fill-rule:nonzero;stroke:none"
           id="text144"><tspan
             x="0 12 21 30 35 45 55 61 70 75 80 86 94 99 104 113 122 127 132 147 156 162 168 175 183 188 195 204 213 218 227 234 243 253 258 267 277 287 293 299 308 317 322 328 338 347 355 360 375 381 387 393 398 408 417 422 430 439 448 455 464 473 482 487 496 506 511 517 526 531 541 546 551 560 570 578 587 592 601 611 625 635 645 654 663 672 677"
             y="0"
             sodipodi:role="line"
             id="tspan142">The point is that well-structured applications will be segregated into those components</tspan></text>
        <text
           xml:space="preserve"
           transform="translate(2784,353)"
           style="font-variant:normal;font-weight:normal;font-size:20px;font-family:'Times New Roman';-inkscape-font-specification:TimesNewRomanPSMT;writing-mode:lr-tb;fill:#000000;fill-opacity:1;fill-rule:nonzero;stroke:none"
           id="text148"><tspan
             x="0 5 14 23 28 33 43 53 58 67 77 82 87 101 110 115 124 129 138 143 153 162 169 175 184 194 200 209 217 222 231 240 250 255 260 269 279 287 296 301 306 315 324 329 334 344 354 359 364 376 385 391 399 404 413 419 428 438 443 453 459 464 472 481 490 497 506 515 524 529 535 545 554 559 565 573 578 586 595 605 615 625 632 637 646 656 661 671"
             y="0"
             sodipodi:role="line"
             id="tspan146">that do not mutate variables and those that do. This kind of segregation is supported by</tspan></text>
        <text
           xml:space="preserve"
           transform="translate(2784,376)"
           style="font-variant:normal;font-weight:normal;font-size:20px;font-family:'Times New Roman';-inkscape-font-specification:TimesNewRomanPSMT;writing-mode:lr-tb;fill:#000000;fill-opacity:1;fill-rule:nonzero;stroke:none"
           id="text152"><tspan
             x="0 5 14 23 28 37 45 54 59 69 75 80 89 99 109 116 126 136 143 149 158 163 172 177 187 193 201 210 216 226 232 238 247 256 264 269 274 284 289 299 306 316 321 330 339 344 349 354 363 373 381 390 395 409 418 423 432 437 446 456 461 471 480 487 493 502 512 518 527 535"
             y="0"
             sodipodi:role="line"
             id="tspan150">the use of appropriate disciplines to protect those mutated variables.</tspan></text>
        <text
           xml:space="preserve"
           transform="translate(2784,419)"
           style="font-variant:normal;font-weight:normal;font-size:20px;font-family:'Times New Roman';-inkscape-font-specification:TimesNewRomanPSMT;writing-mode:lr-tb;fill:#000000;fill-opacity:1;fill-rule:nonzero;stroke:none"
           id="text156"><tspan
             x="0 14 21 30 39 45 50 59 68 73 81 86 101 111 120 126 136 141 151 160 165 180 186 194 203 208 213 223 228 238 247 255 264 269 278 286 291 305 314 323 332 337 347 354 364 373 382 390 398 404 413 422 427 436 444 449 459 469 477 485 491 501 507 516 521 527 536 541 551 556 561 570 579 584 590 604 618 627 632 641 651 657"
             y="0"
             sodipodi:role="line"
             id="tspan154">Architects would be wise to push as much processing as possible into the immutable</tspan></text>
        <text
           xml:space="preserve"
           transform="translate(2784,442)"
           style="font-variant:normal;font-weight:normal;font-size:20px;font-family:'Times New Roman';-inkscape-font-specification:TimesNewRomanPSMT;writing-mode:lr-tb;fill:#000000;fill-opacity:1;fill-rule:nonzero;stroke:none"
           id="text160"><tspan
             x="0 9 19 33 43 53 62 71 80 85 93 98 103 112 121 131 136 141 151 156 166 173 179 189 198 203 212 220 225 239 248 257 266 271 280 290 300 309 314 323 331 336 346 356 364 372 378 388 394 403 408 418 427 432 437 447 453 458 463 472 482 490 499 504 513 523 537 547 557 566 575 584 589 597 602 607 616 625 630 635 649 658 666"
             y="0"
             sodipodi:role="line"
             id="tspan158">components, and to drive as much code as possible out of those components that must</tspan></text>
        <text
           xml:space="preserve"
           transform="translate(2784,465)"
           style="font-variant:normal;font-weight:normal;font-size:20px;font-family:'Times New Roman';-inkscape-font-specification:TimesNewRomanPSMT;writing-mode:lr-tb;fill:#000000;fill-opacity:1;fill-rule:nonzero;stroke:none"
           id="text164"><tspan
             x="0 9 15 21 31 46 51 65 74 79 88 93 99 109 118"
             y="0"
             sodipodi:role="line"
             id="tspan162">allow mutation.</tspan></text>
        <text
           xml:space="preserve"
           transform="translate(2784,535)"
           style="font-variant:normal;font-weight:bold;font-size:33px;font-family:'Times New Roman';-inkscape-font-specification:TimesNewRomanPS-BoldMT;writing-mode:lr-tb;fill:#000000;fill-opacity:1;fill-rule:nonzero;stroke:none"
           id="text168"><tspan
             x="0"
             y="0"
             id="tspan166">E</tspan></text>
        <text
           xml:space="preserve"
           transform="translate(2806,535)"
           style="font-variant:normal;font-weight:bold;font-size:33px;font-family:'Times New Roman';-inkscape-font-specification:TimesNewRomanPS-BoldMT;writing-mode:lr-tb;fill:#000000;fill-opacity:1;fill-rule:nonzero;stroke:none"
           id="text172"><tspan
             x="0 23 45 69"
             y="0"
             sodipodi:role="line"
             id="tspan170">VENT</tspan></text>
        <text
           xml:space="preserve"
           transform="translate(2905,535)"
           style="font-variant:normal;font-weight:bold;font-size:33px;font-family:'Times New Roman';-inkscape-font-specification:TimesNewRomanPS-BoldMT;writing-mode:lr-tb;fill:#000000;fill-opacity:1;fill-rule:nonzero;stroke:none"
           id="text176"><tspan
             x="0"
             y="0"
             id="tspan174">S</tspan></text>
        <text
           xml:space="preserve"
           transform="translate(2923,535)"
           style="font-variant:normal;font-weight:bold;font-size:33px;font-family:'Times New Roman';-inkscape-font-specification:TimesNewRomanPS-BoldMT;writing-mode:lr-tb;fill:#000000;fill-opacity:1;fill-rule:nonzero;stroke:none"
           id="text180"><tspan
             x="0 26 50 74 98 111 135"
             y="0"
             sodipodi:role="line"
             id="tspan178">OURCING</tspan></text>
        <text
           xml:space="preserve"
           transform="translate(2784,580)"
           style="font-variant:normal;font-weight:normal;font-size:20px;font-family:'Times New Roman';-inkscape-font-specification:TimesNewRomanPSMT;writing-mode:lr-tb;fill:#000000;fill-opacity:1;fill-rule:nonzero;stroke:none"
           id="text184"><tspan
             x="0 12 21 30 35 41 47 61 67 72 80 85 95 101 106 114 119 129 136 145 154 163 168 177 186 196 201 211 218 228 237 246 254 262 268 277 286 291 301 311 326 335 342 347 356 365 375 384 389 399 408 417 426 431 438 447 457 463 473 479 488 493 500 509 518 527 537 543 552 561 566 572 579 589 603 608 618 624 633 647"
             y="0"
             sodipodi:role="line"
             id="tspan182">The limits of storage and processing power have been rapidly receding from view.</tspan></text>
        <text
           xml:space="preserve"
           transform="translate(2784,603)"
           style="font-variant:normal;font-weight:normal;font-size:20px;font-family:'Times New Roman';-inkscape-font-specification:TimesNewRomanPSMT;writing-mode:lr-tb;fill:#000000;fill-opacity:1;fill-rule:nonzero;stroke:none"
           id="text188"><tspan
             x="0 14 24 39 48 58 67 76 84 89 95 100 105 111 119 124 133 143 157 171 181 190 195 201 211 218 223 233 240 250 259 268 276 284 294 301 309 314 319 329 334 343 352 361 370 379 384 393 398 408 414 420 426 432 442 451 459 464 474 480 485 491 500 508 513 520 529 538 543 549 559 568 576 581 591 600 607 612 620 629 638 648 657"
             y="0"
             sodipodi:role="line"
             id="tspan186">Nowadays it is common for processors to execute billions of instructions per second</tspan></text>
        <text
           xml:space="preserve"
           transform="translate(2784,626)"
           style="font-variant:normal;font-weight:normal;font-size:20px;font-family:'Times New Roman';-inkscape-font-specification:TimesNewRomanPSMT;writing-mode:lr-tb;fill:#000000;fill-opacity:1;fill-rule:nonzero;stroke:none"
           id="text192"><tspan
             x="0 9 18 28 33 38 48 53 62 71 81 90 95 105 111 117 123 129 139 148 156 161 171 177 182 192 201 206 215 223 228 238 244 249 262 276 293 298 303 315 324 333 338 352 362 369 378 383 397 406 420 430 437 446 451 466 475 480 489 498 508 517 522 527 536 545 555 560 565 574 583 588 594 603 611 616 625 632 637 647 656"
             y="0"
             sodipodi:role="line"
             id="tspan190">and to have billions of bytes of RAM. The more memory we have, and the faster our</tspan></text>
        <text
           xml:space="preserve"
           transform="translate(2784,649)"
           style="font-variant:normal;font-weight:normal;font-size:20px;font-family:'Times New Roman';-inkscape-font-specification:TimesNewRomanPSMT;writing-mode:lr-tb;fill:#000000;fill-opacity:1;fill-rule:nonzero;stroke:none"
           id="text196"><tspan
             x="0 14 23 32 41 47 56 65 73 78 87 94 103 108 113 118 127 136 141 147 156 164 172 177 192 201 206 215 224 233 243 248 262 271 276 285 295 301 310 315 323 328 337 342 351"
             y="0"
             sodipodi:role="line"
             id="tspan194">machines are, the less we need mutable state.</tspan></text>
        <text
           xml:space="preserve"
           transform="translate(2784,692)"
           style="font-variant:normal;font-weight:normal;font-size:20px;font-family:'Times New Roman';-inkscape-font-specification:TimesNewRomanPSMT;writing-mode:lr-tb;fill:#000000;fill-opacity:1;fill-rule:nonzero;stroke:none"
           id="text200"><tspan
             x="0 14 22 27 36 41 49 55 69 79 85 94 99 108 117 126 140 150 156 165 170 175 181 195 204 213 219 228 237 242 251 256 266 275 284 293 299 308 317 322 331 341 351 357 363 372 381 386 392 402 411 416 421 430 439 444 449 463 472 478 487 492 501 507 516 524 529 534 543 552 557 566 575 584 594 603 612 617 622 632 641 647 656 665 674 683"
             y="0"
             sodipodi:role="line"
             id="tspan198">As a simple example, imagine a banking application that maintains the account balances</tspan></text>
        <text
           xml:space="preserve"
           transform="translate(2784,715)"
           style="font-variant:normal;font-weight:normal;font-size:20px;font-family:'Times New Roman';-inkscape-font-specification:TimesNewRomanPSMT;writing-mode:lr-tb;fill:#000000;fill-opacity:1;fill-rule:nonzero;stroke:none"
           id="text204"><tspan
             x="0 10 16 21 27 32 40 45 54 63 71 76 86 100 109 116 124 129 134 140 145 150 164 173 178 187 192 201 209 214 219 228 238 246 255 260 270 279 285 294 303 312 321 329 334 349 358 367 376 381 391 400 410 420 428 434 439 444 453 462 472 477 492 498 503 512 522 529 538 553 562 568 573 578 585 594 603 611 620 629 634 640 650 659"
             y="0"
             sodipodi:role="line"
             id="tspan202">of its customers. It mutates those balances when deposit and withdrawal transactions</tspan></text>
        <text
           xml:space="preserve"
           transform="translate(2784,738)"
           style="font-variant:normal;font-weight:normal;font-size:20px;font-family:'Times New Roman';-inkscape-font-specification:TimesNewRomanPSMT;writing-mode:lr-tb;fill:#000000;fill-opacity:1;fill-rule:nonzero;stroke:none"
           id="text208"><tspan
             x="0 9 16 25 30 39 48 57 66 75 80 89 99"
             y="0"
             sodipodi:role="line"
             id="tspan206">are executed.</tspan></text>
        <text
           xml:space="preserve"
           transform="translate(2784,781)"
           style="font-variant:normal;font-weight:normal;font-size:20px;font-family:'Times New Roman';-inkscape-font-specification:TimesNewRomanPSMT;writing-mode:lr-tb;fill:#000000;fill-opacity:1;fill-rule:nonzero;stroke:none"
           id="text212"><tspan
             x="0 14 24 39 44 50 64 73 82 88 97 106 111 116 125 134 139 144 150 159 167 172 181 190 200 205 215 221 226 234 239 249 256 262 271 280 285 290 299 308 313 322 331 340 350 359 368 373 378 388 397 403 412 421 430 439 447 452 457 472 481 486 494 499 509 516 525 530 540 549 555 564 569 574 583"
             y="0"
             sodipodi:role="line"
             id="tspan210">Now imagine that instead of storing the account balances, we store only the</tspan></text>
        <text
           xml:space="preserve"
           transform="translate(2784,804)"
           style="font-variant:normal;font-weight:normal;font-size:20px;font-family:'Times New Roman';-inkscape-font-specification:TimesNewRomanPSMT;writing-mode:lr-tb;fill:#000000;fill-opacity:1;fill-rule:nonzero;stroke:none"
           id="text216"><tspan
             x="0 5 12 21 30 38 47 56 61 67 77 86 94 99 104 122 131 140 149 158 168 177 184 189 198 207 216 226 235 244 249 264 273 282 287 295 300 305 315 320 329 338 348 363 368 373 382 391 396 406 415 421 430 439 448 457 462 472 478 483 492 501 506 515 524 533 543 552 561 566 571 576 591 600 605 613 619 633 643 649 658 663 672 682"
             y="0"
             sodipodi:role="line"
             id="tspan214">transactions. Whenever anyone wants to know the balance of an account, we simply add</tspan></text>
        <text
           xml:space="preserve"
           transform="translate(2784,827)"
           style="font-variant:normal;font-weight:normal;font-size:20px;font-family:'Times New Roman';-inkscape-font-specification:TimesNewRomanPSMT;writing-mode:lr-tb;fill:#000000;fill-opacity:1;fill-rule:nonzero;stroke:none"
           id="text220"><tspan
             x="0 9 19 24 33 39 45 50 55 64 73 78 83 90 99 108 116 125 134 139 145 155 164 172 177 183 193 200 205 210 219 228 233 238 247 256 265 275 284 293 298 303 308 314 321 331 345 350 355 364 373 378 388 397 406 412 421 430 436 445 454 459 469 475 480 485 491 505 514 519 524 536 545 551 559 564 572 581 590 599 613 622 627 634 643 653 662 668 675 684"
             y="0"
             sodipodi:role="line"
             id="tspan218">up all the transactions for that account, from the beginning of time. This scheme requires</tspan></text>
        <text
           xml:space="preserve"
           transform="translate(2784,850)"
           style="font-variant:normal;font-weight:normal;font-size:20px;font-family:'Times New Roman';-inkscape-font-specification:TimesNewRomanPSMT;writing-mode:lr-tb;fill:#000000;fill-opacity:1;fill-rule:nonzero;stroke:none"
           id="text224"><tspan
             x="0 9 19 24 38 47 52 61 71 77 86 91 101 110 117 123 132 142 148 157 165"
             y="0"
             sodipodi:role="line"
             id="tspan222">no mutable variables.</tspan></text>
        <text
           xml:space="preserve"
           transform="translate(2784,893)"
           style="font-variant:normal;font-weight:normal;font-size:20px;font-family:'Times New Roman';-inkscape-font-specification:TimesNewRomanPSMT;writing-mode:lr-tb;fill:#000000;fill-opacity:1;fill-rule:nonzero;stroke:none"
           id="text228"><tspan
             x="0 14 24 34 40 50 59 67 73 81 86 91 96 105 111 119 124 133 143 153 160 170 179 188 197 202 210 220 229 238 248 256 261 270 280 288 297 304 314 319 324 338 348 357 364 369 374 380 394 403 408 413 418 427 436 441 450 459 473 483 492 499 504 514 520 525 530 537 546 555 563 572 581 586 592 602 611 619 624 639 649 658 664"
             y="0"
             sodipodi:role="line"
             id="tspan226">Obviously, this approach sounds absurd. Over time, the number of transactions would</tspan></text>
        <text
           xml:space="preserve"
           transform="translate(2784,916)"
           style="font-variant:normal;font-weight:normal;font-size:20px;font-family:'Times New Roman';-inkscape-font-specification:TimesNewRomanPSMT;writing-mode:lr-tb;fill:#000000;fill-opacity:1;fill-rule:nonzero;stroke:none"
           id="text232"><tspan
             x="0 9 16 26 41 46 61 67 72 81 91 100 105 110 120 130 139 148 158 163 168 177 186 196 201 206 215 224 229 239 246 256 265 274 282 290 296 305 314 319 329 339 354 363 370 375 382 391 401 410 416 423 432 442 447 452 462 467 476 486 500 510 519 524 533 538 543 552 561 566 571 581 586 595 601 609 614 629 639 648 654"
             y="0"
             sodipodi:role="line"
             id="tspan230">grow without bound, and the processing power required to compute the totals would</tspan></text>
        <text
           xml:space="preserve"
           transform="translate(2784,939)"
           style="font-variant:normal;font-weight:normal;font-size:20px;font-family:'Times New Roman';-inkscape-font-specification:TimesNewRomanPSMT;writing-mode:lr-tb;fill:#000000;fill-opacity:1;fill-rule:nonzero;stroke:none"
           id="text236"><tspan
             x="0 10 19 28 38 52 61 66 72 81 86 96 102 111 118 127 137 143 152 157 162 172 182 187 201 210 219 228 233 238 247 253 261 266 274 283 292 301 315 324 329 344 354 361 370 375 381 391 398 407 417 426 432 437 442 457 466 471 486 496 505 511 521 526 535 544 553 563 568 574 583 589 595 604 610 615 624 629 637 642 652 659 668 677"
             y="0"
             sodipodi:role="line"
             id="tspan234">become intolerable. To make this scheme work forever, we would need infinite storage</tspan></text>
        <text
           xml:space="preserve"
           transform="translate(2784,962)"
           style="font-variant:normal;font-weight:normal;font-size:20px;font-family:'Times New Roman';-inkscape-font-specification:TimesNewRomanPSMT;writing-mode:lr-tb;fill:#000000;fill-opacity:1;fill-rule:nonzero;stroke:none"
           id="text240"><tspan
             x="0 9 18 28 33 39 48 54 60 69 75 80 89 94 104 111 121 130 139 147 155 161 170 179 184 194 204 219 228 234"
             y="0"
             sodipodi:role="line"
             id="tspan238">and infinite processing power.</tspan></text>
      </g>
    </g>
  </g>
</svg>
