<?xml version="1.0" encoding="UTF-8" standalone="no"?>
<!-- Created with Inkscape (http://www.inkscape.org/) -->

<svg
   version="1.1"
   id="svg2"
   width="816"
   height="1056"
   viewBox="0 0 816 1056"
   sodipodi:docname="clean_arch.pdf"
   xmlns:inkscape="http://www.inkscape.org/namespaces/inkscape"
   xmlns:sodipodi="http://sodipodi.sourceforge.net/DTD/sodipodi-0.dtd"
   xmlns="http://www.w3.org/2000/svg"
   xmlns:svg="http://www.w3.org/2000/svg">
  <defs
     id="defs6">
    <clipPath
       clipPathUnits="userSpaceOnUse"
       id="clipPath18">
      <path
         d="m 696,0 h 696 V 1056 H 696 V 0"
         clip-rule="evenodd"
         id="path16" />
    </clipPath>
    <clipPath
       clipPathUnits="userSpaceOnUse"
       id="clipPath28">
      <path
         d="m 696,66 h 696 V 996 H 696 V 66"
         clip-rule="evenodd"
         id="path26" />
    </clipPath>
  </defs>
  <sodipodi:namedview
     id="namedview4"
     pagecolor="#ffffff"
     bordercolor="#000000"
     borderopacity="0.25"
     inkscape:showpageshadow="2"
     inkscape:pageopacity="0.0"
     inkscape:pagecheckerboard="0"
     inkscape:deskcolor="#d1d1d1" />
  <g
     id="g8"
     inkscape:groupmode="layer"
     inkscape:label="clean_arch"
     transform="translate(59.999999,2.64e-5)">
    <g
       id="g10" />
    <g
       id="g12"
       transform="translate(-696)">
      <g
         id="g14"
         clip-path="url(#clipPath18)">
        <g
           id="g20" />
      </g>
    </g>
    <g
       id="g22"
       transform="translate(-696)">
      <g
         id="g24"
         clip-path="url(#clipPath28)">
        <text
           xml:space="preserve"
           transform="translate(696,83.03125)"
           style="font-variant:normal;font-weight:normal;font-size:20px;font-family:'Times New Roman';-inkscape-font-specification:TimesNewRomanPSMT;writing-mode:lr-tb;fill:#000000;fill-opacity:1;fill-rule:nonzero;stroke:none"
           id="text32"><tspan
             x="0 8 17 26 31 36 45 54 59 67 76 83 92 101 110 115 124 133 143 148 157 166 175 184 193 198 203 212 221 226 231 236 245 254 259 268 278 288 295 305 315 322 328 337 342 351 356 365 371 380 394 403 412 417 425 430 439 446 455 460 470 476 484 494 500 509 518 527 537 542 547 556 565 572 581 586 591 605 615 630 639 649 658 664"
             y="0"
             sodipodi:role="line"
             id="tspan30">see the screen and check that the appropriate elements are displayed there. However,</tspan></text>
        <text
           xml:space="preserve"
           transform="translate(696,106)"
           style="font-variant:normal;font-weight:normal;font-size:20px;font-family:'Times New Roman';-inkscape-font-specification:TimesNewRomanPSMT;writing-mode:lr-tb;fill:#000000;fill-opacity:1;fill-rule:nonzero;stroke:none"
           id="text36"><tspan
             x="0 14 24 32 37 42 52 58 63 68 77 86 91 101 110 119 128 138 144 154 161 166 176 182 187 196 201 215 228 234 239 245 253 258 263 269 278 283 289 298 307 312 317 322 331 340 348 357 362 367 377 382 387 396 404 409 414 419 432 440 446 455 464 469 474 483 492"
             y="0"
             sodipodi:role="line"
             id="tspan34">most of the behavior of a GUI is, in fact, easy to test. Using the </tspan></text>
        <text
           xml:space="preserve"
           transform="translate(1193,106)"
           style="font-variant:normal;font-weight:normal;font-size:20px;font-family:'Times New Roman';-inkscape-font-specification:TimesNewRomanPSMT;writing-mode:lr-tb;fill:#000000;fill-opacity:1;fill-rule:nonzero;stroke:none"
           id="text40"><tspan
             x="0 14 23 37 47 53 62 67 81 91 97 106 115"
             y="0"
             sodipodi:role="line"
             id="tspan38">Humble Object</tspan></text>
        <text
           xml:space="preserve"
           transform="translate(1318,106)"
           style="font-variant:normal;font-weight:normal;font-size:20px;font-family:'Times New Roman';-inkscape-font-specification:TimesNewRomanPSMT;writing-mode:lr-tb;fill:#000000;fill-opacity:1;fill-rule:nonzero;stroke:none"
           id="text44"><tspan
             x="0 10 19 24 29 38 45 54"
             y="0"
             sodipodi:role="line"
             id="tspan42">pattern,</tspan></text>
        <text
           xml:space="preserve"
           transform="translate(696,129)"
           style="font-variant:normal;font-weight:normal;font-size:20px;font-family:'Times New Roman';-inkscape-font-specification:TimesNewRomanPSMT;writing-mode:lr-tb;fill:#000000;fill-opacity:1;fill-rule:nonzero;stroke:none"
           id="text48"><tspan
             x="0 15 24 29 38 47 56 61 69 78 88 97 104 113 118 127 132 137 146 155 163 172 177 182 197 207 212 221 227 236 246 254 259 269 275 280 290 299 308 317 327 333 343 350 358 363 369 378 383 393 398 403 418 428 433 443 449 455 461 470 477 486 495 500 505 514 520 529 537 545 554 562 567 576 585 591 597 606 616 621 626 635"
             y="0"
             sodipodi:role="line"
             id="tspan46">we can separate these two kinds of behaviors into two different classes called the</tspan></text>
        <text
           xml:space="preserve"
           transform="translate(696,152)"
           style="font-variant:normal;font-weight:normal;font-size:20px;font-family:'Times New Roman';-inkscape-font-specification:TimesNewRomanPSMT;writing-mode:lr-tb;fill:#000000;fill-opacity:1;fill-rule:nonzero;stroke:none"
           id="text52"><tspan
             x="0 11 18 27 35 44 53 58 67 74 79 88 97 107 112 117 126 135 140 152 158 167 181"
             y="0"
             sodipodi:role="line"
             id="tspan50">Presenter and the View.</tspan></text>
        <text
           xml:space="preserve"
           transform="translate(696,222)"
           style="font-variant:normal;font-weight:bold;font-size:33px;font-family:'Times New Roman';-inkscape-font-specification:TimesNewRomanPS-BoldMT;writing-mode:lr-tb;fill:#000000;fill-opacity:1;fill-rule:nonzero;stroke:none"
           id="text56"><tspan
             x="0"
             y="0"
             id="tspan54">P</tspan></text>
        <text
           xml:space="preserve"
           transform="translate(716,222)"
           style="font-variant:normal;font-weight:bold;font-size:33px;font-family:'Times New Roman';-inkscape-font-specification:TimesNewRomanPS-BoldMT;writing-mode:lr-tb;fill:#000000;fill-opacity:1;fill-rule:nonzero;stroke:none"
           id="text60"><tspan
             x="0 24 46 64 86 110 132 154 178 196 204 227 251"
             y="0"
             sodipodi:role="line"
             id="tspan58">RESENTERS AND</tspan></text>
        <text
           xml:space="preserve"
           transform="translate(999,222)"
           style="font-variant:normal;font-weight:bold;font-size:33px;font-family:'Times New Roman';-inkscape-font-specification:TimesNewRomanPS-BoldMT;writing-mode:lr-tb;fill:#000000;fill-opacity:1;fill-rule:nonzero;stroke:none"
           id="text64"><tspan
             x="0"
             y="0"
             id="tspan62">V</tspan></text>
        <text
           xml:space="preserve"
           transform="translate(1022,222)"
           style="font-variant:normal;font-weight:bold;font-size:33px;font-family:'Times New Roman';-inkscape-font-specification:TimesNewRomanPS-BoldMT;writing-mode:lr-tb;fill:#000000;fill-opacity:1;fill-rule:nonzero;stroke:none"
           id="text68"><tspan
             x="0 13 35 67"
             y="0"
             sodipodi:role="line"
             id="tspan66">IEWS</tspan></text>
        <text
           xml:space="preserve"
           transform="translate(696,267)"
           style="font-variant:normal;font-weight:normal;font-size:20px;font-family:'Times New Roman';-inkscape-font-specification:TimesNewRomanPSMT;writing-mode:lr-tb;fill:#000000;fill-opacity:1;fill-rule:nonzero;stroke:none"
           id="text72"><tspan
             x="0 12 21 30 35 47 53 62 77 82 88 96 101 106 115 124 129 138 147 161 171 177 186 191 201 211 217 226 235 240 245 250 259 268 273 278 284 292 297 306 315 322 332 337 342 352 357 362 371 379 384 389 394 406 415 424 429 438 448 458 467 472 478 487 492 497 506 512 520 525 535 545 551 560 569 574 579 585 593 598 607 616 626 631 636 645"
             y="0"
             sodipodi:role="line"
             id="tspan70">The View is the humble object that is hard to test. The code in this object is kept as</tspan></text>
        <text
           xml:space="preserve"
           transform="translate(696,290)"
           style="font-variant:normal;font-weight:normal;font-size:20px;font-family:'Times New Roman';-inkscape-font-specification:TimesNewRomanPSMT;writing-mode:lr-tb;fill:#000000;fill-opacity:1;fill-rule:nonzero;stroke:none"
           id="text76"><tspan
             x="0 8 14 28 38 44 53 58 67 75 80 90 100 108 116 122 132 138 147 152 157 163 168 173 187 197 207 216 224 229 239 248 253 262 267 273 282 287 297 302 307 316 325 330 344 357 363 368 378 387 392 397 407 417 426 434 439 448 458 463 468 478 485 495 504 513 521 529 534 539 548 557 562 567 577 586 591 600"
             y="0"
             sodipodi:role="line"
             id="tspan74">simple as possible. It moves data into the GUI but does not process that data.</tspan></text>
        <text
           xml:space="preserve"
           transform="translate(696,333)"
           style="font-variant:normal;font-weight:normal;font-size:20px;font-family:'Times New Roman';-inkscape-font-specification:TimesNewRomanPSMT;writing-mode:lr-tb;fill:#000000;fill-opacity:1;fill-rule:nonzero;stroke:none"
           id="text80"><tspan
             x="0 12 21 30 35 46 53 62 70 79 88 93 102 109 114 120 128 133 138 147 156 161 166 175 183 188 197 207 213 222 227 237 247 253 262 271 276 281 286 292 297 305 310 316 326 336 341 347 355 360 365 375 380 389 398 407 416 426 431 436 446 455 460 469 474 480 487 497 511 516 521 530 539 544 553 563 573 579 585 594 603 608 614 624 633 638 647 656"
             y="0"
             sodipodi:role="line"
             id="tspan78">The Presenter is the testable object. Its job is to accept data from the application and</tspan></text>
        <text
           xml:space="preserve"
           transform="translate(696,356)"
           style="font-variant:normal;font-weight:normal;font-size:20px;font-family:'Times New Roman';-inkscape-font-specification:TimesNewRomanPSMT;writing-mode:lr-tb;fill:#000000;fill-opacity:1;fill-rule:nonzero;stroke:none"
           id="text84"><tspan
             x="0 6 16 23 37 46 51 56 62 67 72 78 88 95 100 110 117 126 134 143 152 157 166 171 177 187 196 201 209 219 224 229 238 247 252 257 262 271 280 285 297 303 312 327 332 341 350 359 364 372 378 392 402 408 417 422 436 446 456 465 470 476 481 486 491 501 506 511 520 529 534 542 551 558 567 576 585 590 595 606 616"
             y="0"
             sodipodi:role="line"
             id="tspan82">format it for presentation so that the View can simply move it to the screen. For</tspan></text>
        <text
           xml:space="preserve"
           transform="translate(696,379)"
           style="font-variant:normal;font-weight:normal;font-size:20px;font-family:'Times New Roman';-inkscape-font-specification:TimesNewRomanPSMT;writing-mode:lr-tb;fill:#000000;fill-opacity:1;fill-rule:nonzero;stroke:none"
           id="text88"><tspan
             x="0 9 18 27 41 51 57 66 71 76 82 88 93 98 107 116 121 130 140 150 156 162 171 180 185 191 201 210 215 230 239 248 253 261 266 275 280 290 299 304 313 318 328 334 342 352 358 367 376 385 395 400 406 415 420 429 434 440 446 455 461 471 476 481 487 492 497 512 518 524 530 535 544 553 562 572 577 582 591 600 605 616 623 632 640 649 658 663 672 679 684"
             y="0"
             sodipodi:role="line"
             id="tspan86">example, if the application wants a date displayed in a field, it will hand the Presenter a</tspan></text>
        <text
           xml:space="preserve"
           transform="translate(696,402)"
           style="font-variant:normal;font-weight:normal;font-size:16px;font-family:'Courier New';-inkscape-font-specification:CourierNewPSMT;writing-mode:lr-tb;fill:#000000;fill-opacity:1;fill-rule:nonzero;stroke:none"
           id="text92"><tspan
             x="0 10 20 30"
             y="0"
             sodipodi:role="line"
             id="tspan90">Date</tspan></text>
        <text
           xml:space="preserve"
           transform="translate(741,402)"
           style="font-variant:normal;font-weight:normal;font-size:20px;font-family:'Times New Roman';-inkscape-font-specification:TimesNewRomanPSMT;writing-mode:lr-tb;fill:#000000;fill-opacity:1;fill-rule:nonzero;stroke:none"
           id="text96"><tspan
             x="0 10 20 26 35 44 49 54 59 71 80 89 94 105 112 121 129 138 147 152 161 168 173 188 194 200 206 211 216 225 234 243 248 254 264 271 285 294 299 304 309 318 327 332"
             y="0"
             sodipodi:role="line"
             id="tspan94">object. The Presenter will then format that </tspan></text>
        <text
           xml:space="preserve"
           transform="translate(1078,402)"
           style="font-variant:normal;font-weight:normal;font-size:20px;font-family:'Times New Roman';-inkscape-font-specification:TimesNewRomanPSMT;writing-mode:lr-tb;fill:#000000;fill-opacity:1;fill-rule:nonzero;stroke:none"
           id="text100"><tspan
             x="0 10 19 24 33 38 44 53 58 68 73 82 91 96 105 115 125 132 142 152 159 165 174 179 188 193 201 206 213 219 228 237 242 251 260"
             y="0"
             sodipodi:role="line"
             id="tspan98">data into an appropriate string and</tspan></text>
        <text
           xml:space="preserve"
           transform="translate(696,425)"
           style="font-variant:normal;font-weight:normal;font-size:20px;font-family:'Times New Roman';-inkscape-font-specification:TimesNewRomanPSMT;writing-mode:lr-tb;fill:#000000;fill-opacity:1;fill-rule:nonzero;stroke:none"
           id="text104"><tspan
             x="0 10 16 25 34 43 48 54 59 64 70 79 84 93 98 106 112 126 136 142 151 156 166 175 180 189 194 202 207 214 223 232 237 246 253 262 267 276 285 291 297 306 316 321 326 335 344 349 361 367 376 391 396 413 423 433 442 448 453 458 473 482 491 498 507 512 517 526 535 540 552 558 567 582 587 596 605 614 619 625 631 640 650 655 661 666"
             y="0"
             sodipodi:role="line"
             id="tspan102">place it in a simple data structure called the View Model, where the View can find it.</tspan></text>
        <text
           xml:space="preserve"
           transform="translate(696,468)"
           style="font-variant:normal;font-weight:normal;font-size:20px;font-family:'Times New Roman';-inkscape-font-specification:TimesNewRomanPSMT;writing-mode:lr-tb;fill:#000000;fill-opacity:1;fill-rule:nonzero;stroke:none"
           id="text108"><tspan
             x="0 6 12 17 22 31 40 45 54 64 74 80 86 95 104 109 115 125 134 139 154 163 172 177 185 190 195 205 210 220 226 234 244 250 259 268 273 287 297 306 315 324 329 339 348 353 358 367 376 381 389 398 405 414 423 432 437 442 448 453 458 472 478 487 496 501 506 516 525 533 541 546 555"
             y="0"
             sodipodi:role="line"
             id="tspan106">If the application wants to display money on the screen, it might pass a </tspan></text>
        <text
           xml:space="preserve"
           transform="translate(1256,468)"
           style="font-variant:normal;font-weight:normal;font-size:16px;font-family:'Courier New';-inkscape-font-specification:CourierNewPSMT;writing-mode:lr-tb;fill:#000000;fill-opacity:1;fill-rule:nonzero;stroke:none"
           id="text112"><tspan
             x="0 10 20 30 40 50 60 70"
             y="0"
             sodipodi:role="line"
             id="tspan110">Currency</tspan></text>
        <text
           xml:space="preserve"
           transform="translate(1341,468)"
           style="font-variant:normal;font-weight:normal;font-size:20px;font-family:'Times New Roman';-inkscape-font-specification:TimesNewRomanPSMT;writing-mode:lr-tb;fill:#000000;fill-opacity:1;fill-rule:nonzero;stroke:none"
           id="text116"><tspan
             x="0 10 20 26 35 44"
             y="0"
             sodipodi:role="line"
             id="tspan114">object</tspan></text>
        <text
           xml:space="preserve"
           transform="translate(696,491)"
           style="font-variant:normal;font-weight:normal;font-size:20px;font-family:'Times New Roman';-inkscape-font-specification:TimesNewRomanPSMT;writing-mode:lr-tb;fill:#000000;fill-opacity:1;fill-rule:nonzero;stroke:none"
           id="text120"><tspan
             x="0 5 15 20 25 34 43 48 59 66 75 83 92 101 106 115 121 126 131 143 152 161 166 177 184 193 201 210 219 224 233 240 245 260 266 272 278 283 289 299 306 320 329 334 339 344 353 362 367 372 382 392 398 407 416 421 426 441 447 452 461 466 471 480 489 494 503 513 523 530 540 550 557 563 572 577 586 591 601 610 619 625 639 648"
             y="0"
             sodipodi:role="line"
             id="tspan118">to the Presenter. The Presenter will format that object with the appropriate decimal</tspan></text>
        <text
           xml:space="preserve"
           transform="translate(696,514)"
           style="font-variant:normal;font-weight:normal;font-size:20px;font-family:'Times New Roman';-inkscape-font-specification:TimesNewRomanPSMT;writing-mode:lr-tb;fill:#000000;fill-opacity:1;fill-rule:nonzero;stroke:none"
           id="text124"><tspan
             x="0 10 16 25 34 43 51 56 65 74 84 89 98 107 114 121 130 139 148 157 162 176 185 192 201 210 217 225 230 235 244 251 260 269 274 280 289 298 303 312 317 325 330 337 343 352 361 366 371 380 389 394 399 405 410 415 424 433 442 447 457 463 472 481 490 495 501 510 515 520 529 538 543 555 561 570 585 590 607 617 627 636 642 647 652 658"
             y="0"
             sodipodi:role="line"
             id="tspan122">places and currency markers, creating a string that it can place in the View Model. If</tspan></text>
        <text
           xml:space="preserve"
           transform="translate(696,537)"
           style="font-variant:normal;font-weight:normal;font-size:20px;font-family:'Times New Roman';-inkscape-font-specification:TimesNewRomanPSMT;writing-mode:lr-tb;fill:#000000;fill-opacity:1;fill-rule:nonzero;stroke:none"
           id="text128"><tspan
             x="0 5 14 23 28 33 42 51 58 65 74 83 92 101 106 116 125 131 140 149 154 162 171 181 190 196 206 211 221 230 235 240 249 256 265 274 284 289 296 305 315 320 326 332 337 343 348 353 359 367 372 381 390 399 408 413 419 429 438 443 448 453 462 471 480 485 494 499 507 513 527 537 543 552 557 567 577 587 593 602 611 620 625 631 637 646 655 660 666"
             y="0"
             sodipodi:role="line"
             id="tspan126">that currency value should be turned red if it is negative, then a simple boolean flag in</tspan></text>
        <text
           xml:space="preserve"
           transform="translate(696,560)"
           style="font-variant:normal;font-weight:normal;font-size:20px;font-family:'Times New Roman';-inkscape-font-specification:TimesNewRomanPSMT;writing-mode:lr-tb;fill:#000000;fill-opacity:1;fill-rule:nonzero;stroke:none"
           id="text132"><tspan
             x="0 5 14 23 28 40 46 55 70 75 89 99 109 118 124 129 144 150 156 162 167 177 186 191 199 208 213 218 227 237 247 254 264 274 281 287 296 301 310 316 324"
             y="0"
             sodipodi:role="line"
             id="tspan130">the View model will be set appropriately.</tspan></text>
        <text
           xml:space="preserve"
           transform="translate(696,603)"
           style="font-variant:normal;font-weight:normal;font-size:20px;font-family:'Times New Roman';-inkscape-font-specification:TimesNewRomanPSMT;writing-mode:lr-tb;fill:#000000;fill-opacity:1;fill-rule:nonzero;stroke:none"
           id="text136"><tspan
             x="0 12 22 31 38 47 52 62 71 76 81 91 100 105 115 124 129 134 143 152 157 165 174 181 190 199 208 213 228 234 240 246 251 260 269 279 288 293 302 307 316 325 339 348 353 358 370 379 388 393 398 407 416 430 439 444 459 465 471 477 482 492 501 506 515 520 528 533 540 546 555 564 569 575 584 589 594 603 612 617 629 635 644"
             y="0"
             sodipodi:role="line"
             id="tspan134">Every button on the screen will have a name. That name will be a string in the View</tspan></text>
        <text
           xml:space="preserve"
           transform="translate(696,626)"
           style="font-variant:normal;font-weight:normal;font-size:20px;font-family:'Times New Roman';-inkscape-font-specification:TimesNewRomanPSMT;writing-mode:lr-tb;fill:#000000;fill-opacity:1;fill-rule:nonzero;stroke:none"
           id="text140"><tspan
             x="0 17 27 37 46 52 57 62 72 78 87 96 105 115 120 125 134 143 150 159 164 174 183 188 193 202 211 216 226 233 242 250 259 268 273 282 288 293 298 304 310 315 320 329 339 347 356 361 371 380 385 390 400 409 417 422 430 439 449 458 464 474 479 489 498 503 512 519 528 537 546 556 561 571 580 585 590 595 600 609"
             y="0"
             sodipodi:role="line"
             id="tspan138">Model, placed there by the presenter. If those buttons should be grayed out, the</tspan></text>
        <text
           xml:space="preserve"
           transform="translate(696,649)"
           style="font-variant:normal;font-weight:normal;font-size:20px;font-family:'Times New Roman';-inkscape-font-specification:TimesNewRomanPSMT;writing-mode:lr-tb;fill:#000000;fill-opacity:1;fill-rule:nonzero;stroke:none"
           id="text144"><tspan
             x="0 11 18 27 35 44 53 58 67 74 79 94 100 106 112 117 125 134 139 144 153 162 167 176 186 196 203 213 223 230 236 245 250 259 264 274 284 294 300 309 318 327 332 338 344 353 362 367 373 382 387 392 401 410 415 427 433 442 457 462 476 486 496 505 511 516 521 533 543 552 559 568 573 587 596 605 614 619 625 630 639"
             y="0"
             sodipodi:role="line"
             id="tspan142">Presenter will set an appropriate boolean flag in the View model. Every menu item</tspan></text>
        <text
           xml:space="preserve"
           transform="translate(696,672)"
           style="font-variant:normal;font-weight:normal;font-size:20px;font-family:'Times New Roman';-inkscape-font-specification:TimesNewRomanPSMT;writing-mode:lr-tb;fill:#000000;fill-opacity:1;fill-rule:nonzero;stroke:none"
           id="text148"><tspan
             x="0 9 18 32 41 46 52 60 65 74 79 87 92 99 105 114 123 128 134 143 148 153 162 171 176 188 194 203 218 223 237 247 257 266 272 277 282 288 298 307 317 326 336 341 351 360 365 370 379 388 393 404 411 420 428 437 446 451 460 466 471 476 488 497 506 511 520 529 543 552 560 565 571 581 588 593 602 612 621 628 637 642 649 658 668 674"
             y="0"
             sodipodi:role="line"
             id="tspan146">name is a string in the View model, loaded by the Presenter. The names for every radio</tspan></text>
        <text
           xml:space="preserve"
           transform="translate(696,695)"
           style="font-variant:normal;font-weight:normal;font-size:20px;font-family:'Times New Roman';-inkscape-font-specification:TimesNewRomanPSMT;writing-mode:lr-tb;fill:#000000;fill-opacity:1;fill-rule:nonzero;stroke:none"
           id="text152"><tspan
             x="0 10 19 24 29 39 48 53 58 67 76 85 94 103 108 118 128 137 142 147 156 165 175 180 185 194 203 208 213 219 225 234 240 250 255 264 271 280 285 291 301 310 320 329 339 344 349 359 368 373 378 387 396 401 412 419 428 436 445 454 459 468 474 479 484 490 499 504 514 519 528 538 548 555 565 575 582 588 597 602 611 616 624 629 636 642 651 660"
             y="0"
             sodipodi:role="line"
             id="tspan150">button, check box, and text field are loaded, by the Presenter, into appropriate strings</tspan></text>
        <text
           xml:space="preserve"
           transform="translate(696,718)"
           style="font-variant:normal;font-weight:normal;font-size:20px;font-family:'Times New Roman';-inkscape-font-specification:TimesNewRomanPSMT;writing-mode:lr-tb;fill:#000000;fill-opacity:1;fill-rule:nonzero;stroke:none"
           id="text156"><tspan
             x="0 9 18 28 33 43 53 63 69 78 87 96 104 109 115 124 129 134 143 152 157 169 175 184 199 204 218 228 238 247 253 258 263 273 282 292 298 307 315 320 330 336 341 350 359 373 383 392 399 407 412 417 426 435 440 445 453 462 472 481 487 497 502 512 521 526 536 542 550 560 566 575 584 593 603 608 618 627 632 637 646"
             y="0"
             sodipodi:role="line"
             id="tspan154">and booleans in the View model. Tables of numbers that should be displayed on the</tspan></text>
        <text
           xml:space="preserve"
           transform="translate(696,741)"
           style="font-variant:normal;font-weight:normal;font-size:20px;font-family:'Times New Roman';-inkscape-font-specification:TimesNewRomanPSMT;writing-mode:lr-tb;fill:#000000;fill-opacity:1;fill-rule:nonzero;stroke:none"
           id="text160"><tspan
             x="0 8 17 24 33 42 51 56 65 72 81 86 92 102 111 121 130 140 145 150 160 169 174 179 188 197 202 213 220 229 237 246 255 260 269 275 280 285 291 300 305 315 320 325 334 344 350 359 367 372 382 388 393 403 410 420 430 439 446 452 461 466 472 482 489 503 512 517 522 531 541 546 554 559 566 572 581 590 598 603 609 618 623 628 637 646 651 663 669 678"
             y="0"
             sodipodi:role="line"
             id="tspan158">screen are loaded, by the Presenter, into tables of properly formatted strings in the View</tspan></text>
        <text
           xml:space="preserve"
           transform="translate(696,764)"
           style="font-variant:normal;font-weight:normal;font-size:20px;font-family:'Times New Roman';-inkscape-font-specification:TimesNewRomanPSMT;writing-mode:lr-tb;fill:#000000;fill-opacity:1;fill-rule:nonzero;stroke:none"
           id="text164"><tspan
             x="0 14 24 34 43 49"
             y="0"
             sodipodi:role="line"
             id="tspan162">model.</tspan></text>
        <text
           xml:space="preserve"
           transform="translate(696,807)"
           style="font-variant:normal;font-weight:normal;font-size:20px;font-family:'Times New Roman';-inkscape-font-specification:TimesNewRomanPSMT;writing-mode:lr-tb;fill:#000000;fill-opacity:1;fill-rule:nonzero;stroke:none"
           id="text168"><tspan
             x="0 14 23 32 37 46 52 61 70 75 84 93 103 108 117 127 136 143 152 157 166 172 181 190 195 200 209 218 223 228 237 247 257 266 275 282 290 295 305 314 319 324 333 342 347 355 364 371 380 389 398 403 408 417 426 436 441 446 455 464 469 474 479 488 497 502 511 521 531 537 543 552 561 566 572 582 591 596 605 614 622 627 635 645 659"
             y="0"
             sodipodi:role="line"
             id="tspan166">Anything and everything that appears on the screen, and that the application has some</tspan></text>
        <text
           xml:space="preserve"
           transform="translate(696,830)"
           style="font-variant:normal;font-weight:normal;font-size:20px;font-family:'Times New Roman';-inkscape-font-specification:TimesNewRomanPSMT;writing-mode:lr-tb;fill:#000000;fill-opacity:1;fill-rule:nonzero;stroke:none"
           id="text172"><tspan
             x="0 9 15 24 34 39 49 55 60 69 79 88 93 100 110 116 121 131 141 150 156 161 166 172 180 185 192 201 211 218 227 235 244 253 258 267 277 282 288 297 302 307 316 325 330 342 348 357 372 377 394 404 414 423 429 434 443 451 456 465 470 478 483 490 496 505 514 519 524 534 541 546 555 560 570 580 590 596 605 614 623 628 633 643 650 655 664"
             y="0"
             sodipodi:role="line"
             id="tspan170">kind of control over, is represented in the View Model as a string, or a boolean, or an</tspan></text>
        <text
           xml:space="preserve"
           transform="translate(696,853)"
           style="font-variant:normal;font-weight:normal;font-size:20px;font-family:'Times New Roman';-inkscape-font-specification:TimesNewRomanPSMT;writing-mode:lr-tb;fill:#000000;fill-opacity:1;fill-rule:nonzero;stroke:none"
           id="text176"><tspan
             x="0 9 18 27 41 46 51 65 75 80 89 95 104 113 118 124 132 137 143 152 158 163 168 174 184 191 196 201 210 219 224 236 242 251 266 271 276 286 291 301 311 316 326 331 340 349 356 361 366 375 384 393 398 403 413 418 424 434 443 453 458 463 472 481 486 496 505 510 519 524 530 537 547 561 566 571 580 589 594 606 612 621 636 641 658 668 678 687"
             y="0"
             sodipodi:role="line"
             id="tspan174">enum. Nothing is left for the View to do other than to load the data from the View Model</tspan></text>
        <text
           xml:space="preserve"
           transform="translate(696,876)"
           style="font-variant:normal;font-weight:normal;font-size:20px;font-family:'Times New Roman';-inkscape-font-specification:TimesNewRomanPSMT;writing-mode:lr-tb;fill:#000000;fill-opacity:1;fill-rule:nonzero;stroke:none"
           id="text180"><tspan
             x="0 6 15 20 30 35 40 49 58 63 71 80 87 96 105 114 119 124 136 145 154 162 167 172 181 190 195 207 213 222 237 242 248 256 261 270 279 293 303 309 318"
             y="0"
             sodipodi:role="line"
             id="tspan178">into the screen. Thus the View is humble.</tspan></text>
        <text
           xml:space="preserve"
           transform="translate(696,947)"
           style="font-variant:normal;font-weight:bold;font-size:33px;font-family:'Times New Roman';-inkscape-font-specification:TimesNewRomanPS-BoldMT;writing-mode:lr-tb;fill:#000000;fill-opacity:1;fill-rule:nonzero;stroke:none"
           id="text184"><tspan
             x="0"
             y="0"
             id="tspan182">T</tspan></text>
        <text
           xml:space="preserve"
           transform="translate(718,947)"
           style="font-variant:normal;font-weight:bold;font-size:33px;font-family:'Times New Roman';-inkscape-font-specification:TimesNewRomanPS-BoldMT;writing-mode:lr-tb;fill:#000000;fill-opacity:1;fill-rule:nonzero;stroke:none"
           id="text188"><tspan
             x="0 22 40 62 75 99 124 132 155 179"
             y="0"
             sodipodi:role="line"
             id="tspan186">ESTING AND</tspan></text>
        <text
           xml:space="preserve"
           transform="translate(929,947)"
           style="font-variant:normal;font-weight:bold;font-size:33px;font-family:'Times New Roman';-inkscape-font-specification:TimesNewRomanPS-BoldMT;writing-mode:lr-tb;fill:#000000;fill-opacity:1;fill-rule:nonzero;stroke:none"
           id="text192"><tspan
             x="0"
             y="0"
             id="tspan190">A</tspan></text>
        <text
           xml:space="preserve"
           transform="translate(952,947)"
           style="font-variant:normal;font-weight:bold;font-size:33px;font-family:'Times New Roman';-inkscape-font-specification:TimesNewRomanPS-BoldMT;writing-mode:lr-tb;fill:#000000;fill-opacity:1;fill-rule:nonzero;stroke:none"
           id="text196"><tspan
             x="0 24 48 74 87 109 131 155 177 201 225"
             y="0"
             sodipodi:role="line"
             id="tspan194">RCHITECTURE</tspan></text>
      </g>
    </g>
  </g>
</svg>
