<?xml version="1.0" encoding="UTF-8" standalone="no"?>
<!-- Created with Inkscape (http://www.inkscape.org/) -->

<svg
   version="1.1"
   id="svg2"
   width="816"
   height="1056"
   viewBox="0 0 816 1056"
   sodipodi:docname="clean_arch.pdf"
   xmlns:inkscape="http://www.inkscape.org/namespaces/inkscape"
   xmlns:sodipodi="http://sodipodi.sourceforge.net/DTD/sodipodi-0.dtd"
   xmlns="http://www.w3.org/2000/svg"
   xmlns:svg="http://www.w3.org/2000/svg">
  <defs
     id="defs6">
    <clipPath
       clipPathUnits="userSpaceOnUse"
       id="clipPath18">
      <path
         d="M 0,0 H 696 V 1056 H 0 V 0"
         clip-rule="evenodd"
         id="path16" />
    </clipPath>
    <clipPath
       clipPathUnits="userSpaceOnUse"
       id="clipPath28">
      <path
         d="M 0,66 H 696 V 996 H 0 V 66"
         clip-rule="evenodd"
         id="path26" />
    </clipPath>
    <clipPath
       clipPathUnits="userSpaceOnUse"
       id="clipPath44">
      <path
         d="M 0,66 H 696 V 996 H 0 V 66"
         clip-rule="evenodd"
         id="path42" />
    </clipPath>
  </defs>
  <sodipodi:namedview
     id="namedview4"
     pagecolor="#ffffff"
     bordercolor="#000000"
     borderopacity="0.25"
     inkscape:showpageshadow="2"
     inkscape:pageopacity="0.0"
     inkscape:pagecheckerboard="0"
     inkscape:deskcolor="#d1d1d1" />
  <g
     id="g8"
     inkscape:groupmode="layer"
     inkscape:label="clean_arch"
     transform="translate(59.999999,2.64e-5)">
    <g
       id="g10" />
    <g
       id="g12">
      <g
         id="g14"
         clip-path="url(#clipPath18)">
        <g
           id="g20" />
      </g>
    </g>
    <g
       id="g22">
      <g
         id="g24"
         clip-path="url(#clipPath28)">
        <g
           id="g30">
          <path
             d="m 0,66 h 696 v 3 H 0 Z"
             style="fill:#a7a9ac;fill-opacity:1;fill-rule:nonzero;stroke:none"
             id="path32" />
        </g>
        <g
           id="g34">
          <path
             d="m 0,186 h 696 v 3 H 0 Z"
             style="fill:#a7a9ac;fill-opacity:1;fill-rule:nonzero;stroke:none"
             id="path36" />
        </g>
      </g>
    </g>
    <g
       id="g38">
      <g
         id="g40"
         clip-path="url(#clipPath44)">
        <text
           xml:space="preserve"
           transform="translate(163,140.6562)"
           style="font-variant:normal;font-weight:bold;font-size:37px;font-family:'Times New Roman';-inkscape-font-specification:TimesNewRomanPS-BoldMT;writing-mode:lr-tb;fill:#000000;fill-opacity:1;fill-rule:nonzero;stroke:none"
           id="text48"><tspan
             x="0"
             y="0"
             id="tspan46">A</tspan></text>
        <text
           xml:space="preserve"
           transform="translate(190,140.6562)"
           style="font-variant:normal;font-weight:bold;font-size:33px;font-family:'Times New Roman';-inkscape-font-specification:TimesNewRomanPS-BoldMT;writing-mode:lr-tb;fill:#000000;fill-opacity:1;fill-rule:nonzero;stroke:none"
           id="text52"><tspan
             x="0 24 50 74 100 132 154 176 200 225 257 279 303 325"
             y="0"
             sodipodi:role="line"
             id="tspan50">CKNOWLEDGMENTS</tspan></text>
        <text
           xml:space="preserve"
           transform="translate(0,280)"
           style="font-variant:normal;font-weight:normal;font-size:20px;font-family:'Times New Roman';-inkscape-font-specification:TimesNewRomanPSMT;writing-mode:lr-tb;fill:#000000;fill-opacity:1;fill-rule:nonzero;stroke:none"
           id="text56"><tspan
             x="0 12 21 30 35 45 54 64 74 80 89 94 109 118 128 133 143 149 158 167 176 186 191 200 205 215 224 231 236 241 247 256 261 266 275 284 289 298 305 314 323 328 334 344 353 358 368 374 379 384 393 399 407 412 422 432 442 451 471 477 486 491 500 510 515 525 534 541 546 552 561 570 576 585 592 597 607 614 624 633 640"
             y="0"
             sodipodi:role="line"
             id="tspan54">The people who played a part in the creation of this book—in no particular order:</tspan></text>
        <text
           xml:space="preserve"
           transform="translate(0,303)"
           style="font-variant:normal;font-weight:normal;font-size:20px;font-family:'Times New Roman';-inkscape-font-specification:TimesNewRomanPSMT;writing-mode:lr-tb;fill:#000000;fill-opacity:1;fill-rule:nonzero;stroke:none"
           id="text60"><tspan
             x="0 10 19 28 34 40 46"
             y="0"
             sodipodi:role="line"
             id="tspan58">{xxiii}</tspan></text>
        <text
           xml:space="preserve"
           transform="translate(0,346)"
           style="font-variant:normal;font-weight:normal;font-size:20px;font-family:'Times New Roman';-inkscape-font-specification:TimesNewRomanPSMT;writing-mode:lr-tb;fill:#000000;fill-opacity:1;fill-rule:nonzero;stroke:none"
           id="text64"><tspan
             x="0 13 22 29 35 43 48 62 71 79 85 94 104 119 127 136"
             y="0"
             sodipodi:role="line"
             id="tspan62">Chris Guzikowski</tspan></text>
        <text
           xml:space="preserve"
           transform="translate(0,379)"
           style="font-variant:normal;font-weight:normal;font-size:20px;font-family:'Times New Roman';-inkscape-font-specification:TimesNewRomanPSMT;writing-mode:lr-tb;fill:#000000;fill-opacity:1;fill-rule:nonzero;stroke:none"
           id="text68"><tspan
             x="0 13 22 29 35 43 48 59 68 77"
             y="0"
             sodipodi:role="line"
             id="tspan66">Chris Zahn</tspan></text>
        <text
           xml:space="preserve"
           transform="translate(0,412)"
           style="font-variant:normal;font-weight:normal;font-size:20px;font-family:'Times New Roman';-inkscape-font-specification:TimesNewRomanPSMT;writing-mode:lr-tb;fill:#000000;fill-opacity:1;fill-rule:nonzero;stroke:none"
           id="text72"><tspan
             x="0 17 26 31 36 41 55 64 73 81 90"
             y="0"
             sodipodi:role="line"
             id="tspan70">Matt Heuser</tspan></text>
        <text
           xml:space="preserve"
           transform="translate(0,445)"
           style="font-variant:normal;font-weight:normal;font-size:20px;font-family:'Times New Roman';-inkscape-font-specification:TimesNewRomanPSMT;writing-mode:lr-tb;fill:#000000;fill-opacity:1;fill-rule:nonzero;stroke:none"
           id="text76"><tspan
             x="0 8 17 23 29 34 48 58 67 74 84 93"
             y="0"
             sodipodi:role="line"
             id="tspan74">Jeff Overbey</tspan></text>
        <text
           xml:space="preserve"
           transform="translate(0,478)"
           style="font-variant:normal;font-weight:normal;font-size:20px;font-family:'Times New Roman';-inkscape-font-specification:TimesNewRomanPSMT;writing-mode:lr-tb;fill:#000000;fill-opacity:1;fill-rule:nonzero;stroke:none"
           id="text80"><tspan
             x="0 17 23 32 41 50 55 72 81 88 93 99"
             y="0"
             sodipodi:role="line"
             id="tspan78">Micah Martin</tspan></text>
        <text
           xml:space="preserve"
           transform="translate(0,511)"
           style="font-variant:normal;font-weight:normal;font-size:20px;font-family:'Times New Roman';-inkscape-font-specification:TimesNewRomanPSMT;writing-mode:lr-tb;fill:#000000;fill-opacity:1;fill-rule:nonzero;stroke:none"
           id="text84"><tspan
             x="0 8 17 25 30 36 45 50 67 76 83 88 94"
             y="0"
             sodipodi:role="line"
             id="tspan82">Justin Martin</tspan></text>
        <text
           xml:space="preserve"
           transform="translate(0,544)"
           style="font-variant:normal;font-weight:normal;font-size:20px;font-family:'Times New Roman';-inkscape-font-specification:TimesNewRomanPSMT;writing-mode:lr-tb;fill:#000000;fill-opacity:1;fill-rule:nonzero;stroke:none"
           id="text88"><tspan
             x="0 13 22 29 35 40 54 60 69 78 92 101"
             y="0"
             sodipodi:role="line"
             id="tspan86">Carl Hickman</tspan></text>
        <text
           xml:space="preserve"
           transform="translate(0,577)"
           style="font-variant:normal;font-weight:normal;font-size:20px;font-family:'Times New Roman';-inkscape-font-specification:TimesNewRomanPSMT;writing-mode:lr-tb;fill:#000000;fill-opacity:1;fill-rule:nonzero;stroke:none"
           id="text92"><tspan
             x="0 8 17 31 40 48 53 67 74 83 92 101 107 116"
             y="0"
             sodipodi:role="line"
             id="tspan90">James Grenning</tspan></text>
        <text
           xml:space="preserve"
           transform="translate(0,610)"
           style="font-variant:normal;font-weight:normal;font-size:20px;font-family:'Times New Roman';-inkscape-font-specification:TimesNewRomanPSMT;writing-mode:lr-tb;fill:#000000;fill-opacity:1;fill-rule:nonzero;stroke:none"
           id="text96"><tspan
             x="0 11 17 31 41 50 55 68 75 85 100"
             y="0"
             sodipodi:role="line"
             id="tspan94">Simon Brown</tspan></text>
        <text
           xml:space="preserve"
           transform="translate(0,643)"
           style="font-variant:normal;font-weight:normal;font-size:20px;font-family:'Times New Roman';-inkscape-font-specification:TimesNewRomanPSMT;writing-mode:lr-tb;fill:#000000;fill-opacity:1;fill-rule:nonzero;stroke:none"
           id="text100"><tspan
             x="0 14 23 33 39 45 54 59 73 82 91 100 109"
             y="0"
             sodipodi:role="line"
             id="tspan98">Kevlin Henney</tspan></text>
        <text
           xml:space="preserve"
           transform="translate(0,676)"
           style="font-variant:normal;font-weight:normal;font-size:20px;font-family:'Times New Roman';-inkscape-font-specification:TimesNewRomanPSMT;writing-mode:lr-tb;fill:#000000;fill-opacity:1;fill-rule:nonzero;stroke:none"
           id="text104"><tspan
             x="0 8 17 25 35 44 49 63 73 80 94 103"
             y="0"
             sodipodi:role="line"
             id="tspan102">Jason Gorman</tspan></text>
        <text
           xml:space="preserve"
           transform="translate(0,709)"
           style="font-variant:normal;font-weight:normal;font-size:20px;font-family:'Times New Roman';-inkscape-font-specification:TimesNewRomanPSMT;writing-mode:lr-tb;fill:#000000;fill-opacity:1;fill-rule:nonzero;stroke:none"
           id="text108"><tspan
             x="0 14 24 33 42 47 60 67 76 86 96 105 112"
             y="0"
             sodipodi:role="line"
             id="tspan106">Doug Bradbury</tspan></text>
        <text
           xml:space="preserve"
           transform="translate(0,742)"
           style="font-variant:normal;font-weight:normal;font-size:20px;font-family:'Times New Roman';-inkscape-font-specification:TimesNewRomanPSMT;writing-mode:lr-tb;fill:#000000;fill-opacity:1;fill-rule:nonzero;stroke:none"
           id="text112"><tspan
             x="0 13 23 29 35 44 49 57 67 76 85"
             y="0"
             sodipodi:role="line"
             id="tspan110">Colin Jones</tspan></text>
        <text
           xml:space="preserve"
           transform="translate(0,775)"
           style="font-variant:normal;font-weight:normal;font-size:20px;font-family:'Times New Roman';-inkscape-font-specification:TimesNewRomanPSMT;writing-mode:lr-tb;fill:#000000;fill-opacity:1;fill-rule:nonzero;stroke:none"
           id="text116"><tspan
             x="0 14 21 30 40 49 54 67 77 87 96"
             y="0"
             sodipodi:role="line"
             id="tspan114">Grady Booch</tspan></text>
        <text
           xml:space="preserve"
           transform="translate(0,808)"
           style="font-variant:normal;font-weight:normal;font-size:20px;font-family:'Times New Roman';-inkscape-font-specification:TimesNewRomanPSMT;writing-mode:lr-tb;fill:#000000;fill-opacity:1;fill-rule:nonzero;stroke:none"
           id="text120"><tspan
             x="0 14 23 32 37 42 55 64 73"
             y="0"
             sodipodi:role="line"
             id="tspan118">Kent Beck</tspan></text>
        <text
           xml:space="preserve"
           transform="translate(0,841)"
           style="font-variant:normal;font-weight:normal;font-size:20px;font-family:'Times New Roman';-inkscape-font-specification:TimesNewRomanPSMT;writing-mode:lr-tb;fill:#000000;fill-opacity:1;fill-rule:nonzero;stroke:none"
           id="text124"><tspan
             x="0 17 26 33 38 44 53 58 69 79 94 100 109"
             y="0"
             sodipodi:role="line"
             id="tspan122">Martin Fowler</tspan></text>
        <text
           xml:space="preserve"
           transform="translate(0,874)"
           style="font-variant:normal;font-weight:normal;font-size:20px;font-family:'Times New Roman';-inkscape-font-specification:TimesNewRomanPSMT;writing-mode:lr-tb;fill:#000000;fill-opacity:1;fill-rule:nonzero;stroke:none"
           id="text128"><tspan
             x="0 14 20 26 34 39 48 54 61 66 79 89 98 107 117 126 133"
             y="0"
             sodipodi:role="line"
             id="tspan126">Alistair Cockburn</tspan></text>
        <text
           xml:space="preserve"
           transform="translate(0,907)"
           style="font-variant:normal;font-weight:normal;font-size:20px;font-family:'Times New Roman';-inkscape-font-specification:TimesNewRomanPSMT;writing-mode:lr-tb;fill:#000000;fill-opacity:1;fill-rule:nonzero;stroke:none"
           id="text132"><tspan
             x="0 8 17 31 40 48 53 67 72 77 90 100 110 116 122 131"
             y="0"
             sodipodi:role="line"
             id="tspan130">James O. Coplien</tspan></text>
        <text
           xml:space="preserve"
           transform="translate(0,940)"
           style="font-variant:normal;font-weight:normal;font-size:20px;font-family:'Times New Roman';-inkscape-font-specification:TimesNewRomanPSMT;writing-mode:lr-tb;fill:#000000;fill-opacity:1;fill-rule:nonzero;stroke:none"
           id="text136"><tspan
             x="0 11 17 31 36 49 59 68 75 84"
             y="0"
             sodipodi:role="line"
             id="tspan134">Tim Conrad</tspan></text>
        <text
           xml:space="preserve"
           transform="translate(0,973)"
           style="font-variant:normal;font-weight:normal;font-size:20px;font-family:'Times New Roman';-inkscape-font-specification:TimesNewRomanPSMT;writing-mode:lr-tb;fill:#000000;fill-opacity:1;fill-rule:nonzero;stroke:none"
           id="text140"><tspan
             x="0 13 19 28 37 46 53 63 68 79 85 95 104"
             y="0"
             sodipodi:role="line"
             id="tspan138">Richard Lloyd</tspan></text>
      </g>
    </g>
  </g>
</svg>
