<?xml version="1.0" encoding="UTF-8" standalone="no"?>
<!-- Created with Inkscape (http://www.inkscape.org/) -->

<svg
   version="1.1"
   id="svg2"
   width="816"
   height="1056"
   viewBox="0 0 816 1056"
   sodipodi:docname="clean_arch.pdf"
   xmlns:inkscape="http://www.inkscape.org/namespaces/inkscape"
   xmlns:sodipodi="http://sodipodi.sourceforge.net/DTD/sodipodi-0.dtd"
   xmlns="http://www.w3.org/2000/svg"
   xmlns:svg="http://www.w3.org/2000/svg">
  <defs
     id="defs6">
    <clipPath
       clipPathUnits="userSpaceOnUse"
       id="clipPath18">
      <path
         d="m 696,0 h 696 V 1056 H 696 V 0"
         clip-rule="evenodd"
         id="path16" />
    </clipPath>
    <clipPath
       clipPathUnits="userSpaceOnUse"
       id="clipPath28">
      <path
         d="m 696,66 h 696 V 996 H 696 V 66"
         clip-rule="evenodd"
         id="path26" />
    </clipPath>
  </defs>
  <sodipodi:namedview
     id="namedview4"
     pagecolor="#ffffff"
     bordercolor="#000000"
     borderopacity="0.25"
     inkscape:showpageshadow="2"
     inkscape:pageopacity="0.0"
     inkscape:pagecheckerboard="0"
     inkscape:deskcolor="#d1d1d1" />
  <g
     id="g8"
     inkscape:groupmode="layer"
     inkscape:label="clean_arch"
     transform="translate(59.999999,2.64e-5)">
    <g
       id="g10" />
    <g
       id="g12"
       transform="translate(-696)">
      <g
         id="g14"
         clip-path="url(#clipPath18)">
        <g
           id="g20" />
      </g>
    </g>
    <g
       id="g22"
       transform="translate(-696)">
      <g
         id="g24"
         clip-path="url(#clipPath28)">
        <text
           xml:space="preserve"
           transform="translate(696,83.35938)"
           style="font-variant:normal;font-weight:normal;font-size:20px;font-family:'Times New Roman';-inkscape-font-specification:TimesNewRomanPSMT;writing-mode:lr-tb;fill:#000000;fill-opacity:1;fill-rule:nonzero;stroke:none"
           id="text32"><tspan
             x="0 9 19 28 37 44 53 58 67"
             y="0"
             sodipodi:role="line"
             id="tspan30">concrete </tspan></text>
        <text
           xml:space="preserve"
           transform="translate(768,83.35938)"
           style="font-variant:normal;font-weight:normal;font-size:16px;font-family:'Courier New';-inkscape-font-specification:CourierNewPSMT;writing-mode:lr-tb;fill:#000000;fill-opacity:1;fill-rule:nonzero;stroke:none"
           id="text36"><tspan
             x="0 10 20 30 40 50 60 70 80 90 100 110 120 130 140 150"
             y="0"
             sodipodi:role="line"
             id="tspan34">java.lang.string</tspan></text>
        <text
           xml:space="preserve"
           transform="translate(933,83.35938)"
           style="font-variant:normal;font-weight:normal;font-size:20px;font-family:'Times New Roman';-inkscape-font-specification:TimesNewRomanPSMT;writing-mode:lr-tb;fill:#000000;fill-opacity:1;fill-rule:nonzero;stroke:none"
           id="text40"><tspan
             x="0 9 18 27 36 46 51 56 61 70 79 89 94 102 111 121 130 136 146 151 160 170 175 180 185 195 204 209 218 228 238 244 254 263 273"
             y="0"
             sodipodi:role="line"
             id="tspan38">cannot, and should not, be avoided.</tspan></text>
        <text
           xml:space="preserve"
           transform="translate(696,126)"
           style="font-variant:normal;font-weight:normal;font-size:20px;font-family:'Times New Roman';-inkscape-font-specification:TimesNewRomanPSMT;writing-mode:lr-tb;fill:#000000;fill-opacity:1;fill-rule:nonzero;stroke:none"
           id="text44"><tspan
             x="0 13 22 27 36 46 60 70 79 86 92 100 110 119 124 129 134 143 152"
             y="0"
             sodipodi:role="line"
             id="tspan42">By comparison, the </tspan></text>
        <text
           xml:space="preserve"
           transform="translate(853,126)"
           style="font-variant:normal;font-weight:normal;font-size:16px;font-family:'Courier New';-inkscape-font-specification:CourierNewPSMT;writing-mode:lr-tb;fill:#000000;fill-opacity:1;fill-rule:nonzero;stroke:none"
           id="text48"><tspan
             x="0 10 20 30 40 50"
             y="0"
             sodipodi:role="line"
             id="tspan46">String</tspan></text>
        <text
           xml:space="preserve"
           transform="translate(918,126)"
           style="font-variant:normal;font-weight:normal;font-size:20px;font-family:'Times New Roman';-inkscape-font-specification:TimesNewRomanPSMT;writing-mode:lr-tb;fill:#000000;fill-opacity:1;fill-rule:nonzero;stroke:none"
           id="text52"><tspan
             x="0 9 15 24 32 40 45 51 59 64 74 83 90 99 104 112 117 126 136 142 151 156 161 174 183 192 201 210 219 227 232 237 247 252 257 266 275 280 285 294 300 309 317 325 330 339 346 355 360 370 379 386 395 400 407 416 423 432 437 446 455"
             y="0"
             sodipodi:role="line"
             id="tspan50">class is very stable. Changes to that class are very rare and</tspan></text>
        <text
           xml:space="preserve"
           transform="translate(696,149)"
           style="font-variant:normal;font-weight:normal;font-size:20px;font-family:'Times New Roman';-inkscape-font-specification:TimesNewRomanPSMT;writing-mode:lr-tb;fill:#000000;fill-opacity:1;fill-rule:nonzero;stroke:none"
           id="text56"><tspan
             x="0 5 11 20 29 34 40 49 54 63 73 82 87 94 104 110 116 125 135 140 145 156 163 173 182 189 198 212 226 235 242 250 255 264 273 283 288 297 304 313 322 328 333 342 351 356 364 369 379 389 394 403 413 418 423 432 441 451 460 465 470 480 485 500 510 517 524 533 538 547 557 567 576 581 586 592 599 608 618 627 636 645 650 655 664 673"
             y="0"
             sodipodi:role="line"
             id="tspan54">tightly controlled. Programmers and architects do not have to worry about frequent and</tspan></text>
        <text
           xml:space="preserve"
           transform="translate(696,172)"
           style="font-variant:normal;font-weight:normal;font-size:20px;font-family:'Times New Roman';-inkscape-font-specification:TimesNewRomanPSMT;writing-mode:lr-tb;fill:#000000;fill-opacity:1;fill-rule:nonzero;stroke:none"
           id="text60"><tspan
             x="0 9 18 28 35 41 50 56 66 75 83 88 97 106 115 124 133 142 150 155 160 170"
             y="0"
             sodipodi:role="line"
             id="tspan58">capricious changes to </tspan></text>
        <text
           xml:space="preserve"
           transform="translate(871,172)"
           style="font-variant:normal;font-weight:normal;font-size:16px;font-family:'Courier New';-inkscape-font-specification:CourierNewPSMT;writing-mode:lr-tb;fill:#000000;fill-opacity:1;fill-rule:nonzero;stroke:none"
           id="text64"><tspan
             x="0 10 20 30 40 50"
             y="0"
             sodipodi:role="line"
             id="tspan62">String</tspan></text>
        <text
           xml:space="preserve"
           transform="translate(931,172)"
           style="font-variant:normal;font-weight:normal;font-size:20px;font-family:'Times New Roman';-inkscape-font-specification:TimesNewRomanPSMT;writing-mode:lr-tb;fill:#000000;fill-opacity:1;fill-rule:nonzero;stroke:none"
           id="text68"><tspan
             x="0"
             y="0"
             id="tspan66">.</tspan></text>
        <text
           xml:space="preserve"
           transform="translate(696,215)"
           style="font-variant:normal;font-weight:normal;font-size:20px;font-family:'Times New Roman';-inkscape-font-specification:TimesNewRomanPSMT;writing-mode:lr-tb;fill:#000000;fill-opacity:1;fill-rule:nonzero;stroke:none"
           id="text72"><tspan
             x="0 11 21 28 33 38 47 56 64 73 78 85 94 103 111 121 130 138 143 148 163 172 177 182 191 200 210 215 220 230 235 241 250 259 269 276 285 290 295 304 313 318 326 331 340 350 356 365 370 380 389 398 407 416 423 433 442 451 461 466 476 482 487 497 507 516 523 532 537 543 552 561 566 574 583 591 596 605 619 624 633 642"
             y="0"
             sodipodi:role="line"
             id="tspan70">For these reasons, we tend to ignore the stable background of operating system and</tspan></text>
        <text
           xml:space="preserve"
           transform="translate(696,238)"
           style="font-variant:normal;font-weight:normal;font-size:20px;font-family:'Times New Roman';-inkscape-font-specification:TimesNewRomanPSMT;writing-mode:lr-tb;fill:#000000;fill-opacity:1;fill-rule:nonzero;stroke:none"
           id="text76"><tspan
             x="0 10 16 25 30 36 46 53 67 72 78 87 96 102 108 114 119 125 134 142 147 162 171 180 189 194 200 205 210 219 229 243 252 260 265 270 280 285 299 305 314 319 324 340 349 354 359 369 375 384 391 400 405 414 419 424 433 443 451 460 465 474 484 493 502 509 518 523 532 537 547 556 566 575 584 594 603 612 621 627 636"
             y="0"
             sodipodi:role="line"
             id="tspan74">platform facilities when it comes to DIP. We tolerate those concrete dependencies</tspan></text>
        <text
           xml:space="preserve"
           transform="translate(696,261)"
           style="font-variant:normal;font-weight:normal;font-size:20px;font-family:'Times New Roman';-inkscape-font-specification:TimesNewRomanPSMT;writing-mode:lr-tb;fill:#000000;fill-opacity:1;fill-rule:nonzero;stroke:none"
           id="text80"><tspan
             x="0 10 19 28 37 46 54 63 68 83 92 97 106 115 125 140 145 160 169 174 183 192 201 206 213 222 228 237 242 252 261 266 271 280 289 303 308 317 327 332 337 342 352 357 366 375 384 393 402 411"
             y="0"
             sodipodi:role="line"
             id="tspan78">because we know we can rely on them not to change.</tspan></text>
        <text
           xml:space="preserve"
           transform="translate(696,304)"
           style="font-variant:normal;font-weight:normal;font-size:20px;font-family:'Times New Roman';-inkscape-font-specification:TimesNewRomanPSMT;writing-mode:lr-tb;fill:#000000;fill-opacity:1;fill-rule:nonzero;stroke:none"
           id="text84"><tspan
             x="0 6 11 16 22 30 35 40 49 58"
             y="0"
             sodipodi:role="line"
             id="tspan82">It is the </tspan></text>
        <text
           xml:space="preserve"
           transform="translate(759,304)"
           style="font-variant:normal;font-weight:normal;font-size:20px;font-family:'Times New Roman';-inkscape-font-specification:TimesNewRomanPSMT;writing-mode:lr-tb;fill:#000000;fill-opacity:1;fill-rule:nonzero;stroke:none"
           id="text88"><tspan
             x="0 10 20 26 35 40 46 52"
             y="0"
             sodipodi:role="line"
             id="tspan86">volatile</tspan></text>
        <text
           xml:space="preserve"
           transform="translate(825,304)"
           style="font-variant:normal;font-weight:normal;font-size:20px;font-family:'Times New Roman';-inkscape-font-specification:TimesNewRomanPSMT;writing-mode:lr-tb;fill:#000000;fill-opacity:1;fill-rule:nonzero;stroke:none"
           id="text92"><tspan
             x="0 9 19 28 37 44 53 58 67 72 81 87 96 110 119 128 133 141 146 156 162 167 177 186 193 198 206 215 223 228 237 251 256 261 270 279 284 289 304 313 318 333 342 351 356 361 366 376 381 390 400 410 416 426 431 441 450 460 469 478 488 494 503 512 517 527 536"
             y="0"
             sodipodi:role="line"
             id="tspan90">concrete elements of our system that we want to avoid depending on.</tspan></text>
        <text
           xml:space="preserve"
           transform="translate(696,327)"
           style="font-variant:normal;font-weight:normal;font-size:20px;font-family:'Times New Roman';-inkscape-font-specification:TimesNewRomanPSMT;writing-mode:lr-tb;fill:#000000;fill-opacity:1;fill-rule:nonzero;stroke:none"
           id="text96"><tspan
             x="0 12 21 31 39 48 53 62 69 78 83 88 97 106 111 125 135 145 154 160 169 177 182 187 196 205 210 215 230 239 244 253 260 269 274 283 292 297 303 313 322 328 337 342 352 361 371 380 386 396 406 412 421 430 435 440 449 458 468 473 478 487 496 501 506 515 522 531 536 545 554 564 573 580 589 599 605 614 623 628 634 641 650 660 669 678 687"
             y="0"
             sodipodi:role="line"
             id="tspan94">Those are the modules that we are actively developing, and that are undergoing frequent</tspan></text>
        <text
           xml:space="preserve"
           transform="translate(696,350)"
           style="font-variant:normal;font-weight:normal;font-size:20px;font-family:'Times New Roman';-inkscape-font-specification:TimesNewRomanPSMT;writing-mode:lr-tb;fill:#000000;fill-opacity:1;fill-rule:nonzero;stroke:none"
           id="text100"><tspan
             x="0 9 18 27 36 45 54"
             y="0"
             sodipodi:role="line"
             id="tspan98">change.</tspan></text>
        <text
           xml:space="preserve"
           transform="translate(696,420)"
           style="font-variant:normal;font-weight:bold;font-size:33px;font-family:'Times New Roman';-inkscape-font-specification:TimesNewRomanPS-BoldMT;writing-mode:lr-tb;fill:#000000;fill-opacity:1;fill-rule:nonzero;stroke:none"
           id="text104"><tspan
             x="0"
             y="0"
             id="tspan102">S</tspan></text>
        <text
           xml:space="preserve"
           transform="translate(714,420)"
           style="font-variant:normal;font-weight:bold;font-size:33px;font-family:'Times New Roman';-inkscape-font-specification:TimesNewRomanPS-BoldMT;writing-mode:lr-tb;fill:#000000;fill-opacity:1;fill-rule:nonzero;stroke:none"
           id="text108"><tspan
             x="0 19 42 64 86"
             y="0"
             sodipodi:role="line"
             id="tspan106">TABLE</tspan></text>
        <text
           xml:space="preserve"
           transform="translate(830,420)"
           style="font-variant:normal;font-weight:bold;font-size:33px;font-family:'Times New Roman';-inkscape-font-specification:TimesNewRomanPS-BoldMT;writing-mode:lr-tb;fill:#000000;fill-opacity:1;fill-rule:nonzero;stroke:none"
           id="text112"><tspan
             x="0"
             y="0"
             id="tspan110">A</tspan></text>
        <text
           xml:space="preserve"
           transform="translate(853,420)"
           style="font-variant:normal;font-weight:bold;font-size:33px;font-family:'Times New Roman';-inkscape-font-specification:TimesNewRomanPS-BoldMT;writing-mode:lr-tb;fill:#000000;fill-opacity:1;fill-rule:nonzero;stroke:none"
           id="text116"><tspan
             x="0 22 40 62 86 109 133 155 168 194 218"
             y="0"
             sodipodi:role="line"
             id="tspan114">BSTRACTIONS</tspan></text>
        <text
           xml:space="preserve"
           transform="translate(696,465)"
           style="font-variant:normal;font-weight:normal;font-size:20px;font-family:'Times New Roman';-inkscape-font-specification:TimesNewRomanPSMT;writing-mode:lr-tb;fill:#000000;fill-opacity:1;fill-rule:nonzero;stroke:none"
           id="text120"><tspan
             x="0 12 22 31 38 47 52 61 70 79 88 97 106 111 116 126 131 140 149 154 163 173 181 186 193 202 211 216 221 227 236 241 250 257 263 272 281 290 295 304 314 321 328 337 345 355 365 374 384 392 397 402 412 417 426 431 440 449 458 467 476 485 490 495 505 510 516 521 529 534 543 553 562 571 578 587 592"
             y="0"
             sodipodi:role="line"
             id="tspan118">Every change to an abstract interface corresponds to a change to its concrete</tspan></text>
        <text
           xml:space="preserve"
           transform="translate(696,488)"
           style="font-variant:normal;font-weight:normal;font-size:20px;font-family:'Times New Roman';-inkscape-font-specification:TimesNewRomanPSMT;writing-mode:lr-tb;fill:#000000;fill-opacity:1;fill-rule:nonzero;stroke:none"
           id="text124"><tspan
             x="0 6 20 30 36 45 59 68 77 82 91 96 102 112 121 129 134 139 152 162 171 181 190 197 205 214 220 228 233 238 247 256 265 274 283 292 300 305 310 320 325 334 344 353 362 369 378 383 392 397 403 417 427 433 442 456 465 474 479 488 493 499 509 518 526 531 541 551 556 565 575 580 585 594 600 615 624 633 641 646 651 661"
             y="0"
             sodipodi:role="line"
             id="tspan122">implementations. Conversely, changes to concrete implementations do not always, or</tspan></text>
        <text
           xml:space="preserve"
           transform="translate(696,511)"
           style="font-variant:normal;font-weight:normal;font-size:20px;font-family:'Times New Roman';-inkscape-font-specification:TimesNewRomanPSMT;writing-mode:lr-tb;fill:#000000;fill-opacity:1;fill-rule:nonzero;stroke:none"
           id="text128"><tspan
             x="0 9 19 28 37 42 51 59 68 77 83 89 97 102 107 114 123 133 142 148 155 164 169 178 187 196 205 214 223 231 236 241 251 256 261 270 279 284 290 299 304 313 320 326 335 344 353 361 366 371 380 389 394 399 404 413 422 431 436 442 456 466 472 481 495 504 513 518 523 528 540 549 558 565 574 580 590 597 606 611 617 626 631 640 647 653 662 671 680"
             y="0"
             sodipodi:role="line"
             id="tspan126">even usually, require changes to the interfaces that they implement. Therefore interfaces</tspan></text>
        <text
           xml:space="preserve"
           transform="translate(696,534)"
           style="font-variant:normal;font-weight:normal;font-size:20px;font-family:'Times New Roman';-inkscape-font-specification:TimesNewRomanPSMT;writing-mode:lr-tb;fill:#000000;fill-opacity:1;fill-rule:nonzero;stroke:none"
           id="text132"><tspan
             x="0 9 16 25 30 36 45 53 61 66 76 86 92 101 106 112 118 127 132 137 146 155 164 169 175 189 199 205 214 228 237 246 251 260 265 271 281 290 298"
             y="0"
             sodipodi:role="line"
             id="tspan130">are less volatile than implementations.</tspan></text>
        <text
           xml:space="preserve"
           transform="translate(696,577)"
           style="font-variant:normal;font-weight:normal;font-size:20px;font-family:'Times New Roman';-inkscape-font-specification:TimesNewRomanPSMT;writing-mode:lr-tb;fill:#000000;fill-opacity:1;fill-rule:nonzero;stroke:none"
           id="text136"><tspan
             x="0 6 15 25 34 43 53 58 63 72 82 92 102 107 115 125 131 136 151 160 167 176 181 191 200 208 214 223 232 241 248 256 261 270 279 289 294 303 310 319 328 334 339 348 357 362 370 375 390 400 407 416 421 430 439 446 456 461 466 476 481 488 497 507 516 525 534 539 544 553 562 567 577 587 593 602 607 613 619 625 630 639 644 654"
             y="0"
             sodipodi:role="line"
             id="tspan134">Indeed, good software designers and architects work hard to reduce the volatility of</tspan></text>
        <text
           xml:space="preserve"
           transform="translate(696,600)"
           style="font-variant:normal;font-weight:normal;font-size:20px;font-family:'Times New Roman';-inkscape-font-specification:TimesNewRomanPSMT;writing-mode:lr-tb;fill:#000000;fill-opacity:1;fill-rule:nonzero;stroke:none"
           id="text140"><tspan
             x="0 6 15 20 29 36 42 51 60 69 77 82 87 99 108 117 126 131 136 143 152 157 162 172 177 183 189 198 208 213 228 237 246 254 259 264 274 279 288 298 308 313 319 328 337 346 351 357 367 376 385 391 397 402 411 416 421 431 436 442 456 466 472 481 495 504 513 518 527 532 538 548 557 565 570 585 591 596 605 615 624 629 634 648 657 666 672 681"
             y="0"
             sodipodi:role="line"
             id="tspan138">interfaces. They try to find ways to add functionality to implementations without making</tspan></text>
        <text
           xml:space="preserve"
           transform="translate(696,623)"
           style="font-variant:normal;font-weight:normal;font-size:20px;font-family:'Times New Roman';-inkscape-font-specification:TimesNewRomanPSMT;writing-mode:lr-tb;fill:#000000;fill-opacity:1;fill-rule:nonzero;stroke:none"
           id="text144"><tspan
             x="0 9 18 27 36 45 54 62 67 72 82 87 92 101 110 115 121 130 135 144 151 157 166 175 184 192 197 202 214 223 229 237 242 248 256 261 272 282 288 293 308 317 324 333 338 352 361 369 375 384 393 398 408 418 428"
             y="0"
             sodipodi:role="line"
             id="tspan142">changes to the interfaces. This is Software Design 101.</tspan></text>
        <text
           xml:space="preserve"
           transform="translate(696,666)"
           style="font-variant:normal;font-weight:normal;font-size:20px;font-family:'Times New Roman';-inkscape-font-specification:TimesNewRomanPSMT;writing-mode:lr-tb;fill:#000000;fill-opacity:1;fill-rule:nonzero;stroke:none"
           id="text148"><tspan
             x="0 12 21 30 35 41 55 65 71 77 86 95 100 106 116 125 130 135 140 149 158 167 172 177 183 191 196 201 210 219 224 229 237 242 251 261 267 276 281 289 299 305 310 325 334 341 350 355 364 371 380 389 395 400 409 418 423 432 439 448 456 461 470 477 486 491 496 505 515 523 532 537 542 551 560 565 570 579 589 599 605"
             y="0"
             sodipodi:role="line"
             id="tspan146">The implication, then, is that stable software architectures are those that avoid</tspan></text>
        <text
           xml:space="preserve"
           transform="translate(696,689)"
           style="font-variant:normal;font-weight:normal;font-size:20px;font-family:'Times New Roman';-inkscape-font-specification:TimesNewRomanPSMT;writing-mode:lr-tb;fill:#000000;fill-opacity:1;fill-rule:nonzero;stroke:none"
           id="text152"><tspan
             x="0 10 19 29 38 47 57 63 72 81 86 96 105 110 120 130 136 145 150 156 162 171 176 185 195 204 213 220 229 234 240 250 259 267 272 277 286 295 305 310 315 324 333 338 343 349 358 368 378 385 390 395 404 413 418 427 435 444 449 459 465 470 478 483 492 502 508 517 522 531 541 549 554 561 570 579 584 589 595 604 609 618 625 631 640 649 658 666"
             y="0"
             sodipodi:role="line"
             id="tspan150">depending on volatile concretions, and that favor the use of stable abstract interfaces.</tspan></text>
        <text
           xml:space="preserve"
           transform="translate(696,712)"
           style="font-variant:normal;font-weight:normal;font-size:20px;font-family:'Times New Roman';-inkscape-font-specification:TimesNewRomanPSMT;writing-mode:lr-tb;fill:#000000;fill-opacity:1;fill-rule:nonzero;stroke:none"
           id="text156"><tspan
             x="0 12 21 27 35 40 46 60 70 76 82 91 100 105 111 121 130 135 145 155 161 167 175 180 190 200 215 224 229 234 244 249 258 263 271 280 285 290 300 306 311 321 330 337 346 351 359 369 378 387 393 399 405 414 419 428 438 448 454 463 472 477 487 494 503 512 517 523 532 541 549"
             y="0"
             sodipodi:role="line"
             id="tspan154">This implication boils down to a set of very specific coding practices:</tspan></text>
        <text
           xml:space="preserve"
           transform="translate(697,756)"
           style="font-variant:normal;font-weight:normal;font-size:20px;font-family:'Times New Roman';-inkscape-font-specification:TimesNewRomanPSMT;writing-mode:lr-tb;fill:#000000;fill-opacity:1;fill-rule:nonzero;stroke:none"
           id="text160"><tspan
             x="0 7"
             y="0"
             sodipodi:role="line"
             id="tspan158">• </tspan></text>
        <text
           xml:space="preserve"
           transform="translate(709,756)"
           style="font-variant:normal;font-weight:bold;font-size:20px;font-family:'Times New Roman';-inkscape-font-specification:TimesNewRomanPS-BoldMT;writing-mode:lr-tb;fill:#000000;fill-opacity:1;fill-rule:nonzero;stroke:none"
           id="text164"><tspan
             x="0 14 24 34 41 48 53 61 71 78 88 96 101 108 118 123 133 143 148 158 165 170 175 185 190 199 209 219 228 236 246 253 263 268 277 282 292 300 308 318 326"
             y="0"
             sodipodi:role="line"
             id="tspan162">Don’t refer to volatile concrete classes.</tspan></text>
        <text
           xml:space="preserve"
           transform="translate(1045,756)"
           style="font-variant:normal;font-weight:normal;font-size:20px;font-family:'Times New Roman';-inkscape-font-specification:TimesNewRomanPSMT;writing-mode:lr-tb;fill:#000000;fill-opacity:1;fill-rule:nonzero;stroke:none"
           id="text168"><tspan
             x="0 13 22 28 37 44 49 54 64 69 78 88 96 101 108 117 126 131 136 142 151 156 165 172 178 187 196 205 213 218 224 233 241 246 255 264 274 279 284 296 305 311"
             y="0"
             sodipodi:role="line"
             id="tspan166">Refer to abstract interfaces instead. This</tspan></text>
        <text
           xml:space="preserve"
           transform="translate(709,779)"
           style="font-variant:normal;font-weight:normal;font-size:20px;font-family:'Times New Roman';-inkscape-font-specification:TimesNewRomanPSMT;writing-mode:lr-tb;fill:#000000;fill-opacity:1;fill-rule:nonzero;stroke:none"
           id="text172"><tspan
             x="0 7 16 22 31 36 45 55 65 71 77 86 94 99 105 114 119 128 134 140 145 151 160 169 178 187 196 205 214 222 227 232 247 256 265 270 279 288 295 300 308 313 322 327 333 342 351 357 363 372 377 387 394 399 409 418 427 436 450 456 465 474 480 486 495 500 505 514 524 533 543 548 553 559 564 569 578 584 592 602 607 617 626 631"
             y="0"
             sodipodi:role="line"
             id="tspan170">rule applies in all languages, whether statically or dynamically typed. It also puts</tspan></text>
        <text
           xml:space="preserve"
           transform="translate(709,802)"
           style="font-variant:normal;font-weight:normal;font-size:20px;font-family:'Times New Roman';-inkscape-font-specification:TimesNewRomanPSMT;writing-mode:lr-tb;fill:#000000;fill-opacity:1;fill-rule:nonzero;stroke:none"
           id="text176"><tspan
             x="0 8 17 27 36 43 52 57 66 76 85 93 98 105 114 120 129 134 142 147 157 166 171 176 185 194 199 208 215 224 233 238 244 254 263 268 278 284 289 299 309 315 324 333 338 346 351 360 369 379 384 393 402 411 420 427 436 442 448 457 462 471 480 486 496 503 512 521 529 534 539 548 557 562 571 579 588 593 603 609"
             y="0"
             sodipodi:role="line"
             id="tspan174">severe constraints on the creation of objects and generally enforces the use of </tspan></text>
        <text
           xml:space="preserve"
           transform="translate(1323,802)"
           style="font-variant:normal;font-weight:normal;font-size:20px;font-family:'Times New Roman';-inkscape-font-specification:TimesNewRomanPSMT;writing-mode:lr-tb;fill:#000000;fill-opacity:1;fill-rule:nonzero;stroke:none"
           id="text180"><tspan
             x="0 14 24 32 37 44 53 62"
             y="0"
             sodipodi:role="line"
             id="tspan178">Abstract</tspan></text>
        <text
           xml:space="preserve"
           transform="translate(709,825)"
           style="font-variant:normal;font-weight:normal;font-size:20px;font-family:'Times New Roman';-inkscape-font-specification:TimesNewRomanPSMT;writing-mode:lr-tb;fill:#000000;fill-opacity:1;fill-rule:nonzero;stroke:none"
           id="text184"><tspan
             x="0 11 20 29 34 44 51 57 66"
             y="0"
             sodipodi:role="line"
             id="tspan182">Factories</tspan></text>
        <text
           xml:space="preserve"
           transform="translate(783,825)"
           style="font-variant:normal;font-weight:normal;font-size:20px;font-family:'Times New Roman';-inkscape-font-specification:TimesNewRomanPSMT;writing-mode:lr-tb;fill:#000000;fill-opacity:1;fill-rule:nonzero;stroke:none"
           id="text188"><tspan
             x="0"
             y="0"
             id="tspan186">.</tspan></text>
        <text
           xml:space="preserve"
           transform="translate(697,855)"
           style="font-variant:normal;font-weight:normal;font-size:20px;font-family:'Times New Roman';-inkscape-font-specification:TimesNewRomanPSMT;writing-mode:lr-tb;fill:#000000;fill-opacity:1;fill-rule:nonzero;stroke:none"
           id="text192"><tspan
             x="0 7"
             y="0"
             sodipodi:role="line"
             id="tspan190">• </tspan></text>
        <text
           xml:space="preserve"
           transform="translate(709,855)"
           style="font-variant:normal;font-weight:bold;font-size:20px;font-family:'Times New Roman';-inkscape-font-specification:TimesNewRomanPS-BoldMT;writing-mode:lr-tb;fill:#000000;fill-opacity:1;fill-rule:nonzero;stroke:none"
           id="text196"><tspan
             x="0 14 24 34 41 48 53 63 73 81 86 96 106 111 118 126 136 151 156 166 176 181 191 198 203 208 218 223 232 242 252 261 269 279 286 296 301 310 315 325 333 341 351 359"
             y="0"
             sodipodi:role="line"
             id="tspan194">Don’t derive from volatile concrete classes.</tspan></text>
        <text
           xml:space="preserve"
           transform="translate(1078,855)"
           style="font-variant:normal;font-weight:normal;font-size:20px;font-family:'Times New Roman';-inkscape-font-specification:TimesNewRomanPSMT;writing-mode:lr-tb;fill:#000000;fill-opacity:1;fill-rule:nonzero;stroke:none"
           id="text200"><tspan
             x="0 12 21 27 35 40 46 54 59 68 73 82 92 99 109 115 121 130 137 146 151 156 166 171 176 185 194 199 209 216 225 235 241 251 260 268 273 280 289 295 304"
             y="0"
             sodipodi:role="line"
             id="tspan198">This is a corollary to the previous rule,</tspan></text>
        <text
           xml:space="preserve"
           transform="translate(709,878)"
           style="font-variant:normal;font-weight:normal;font-size:20px;font-family:'Times New Roman';-inkscape-font-specification:TimesNewRomanPSMT;writing-mode:lr-tb;fill:#000000;fill-opacity:1;fill-rule:nonzero;stroke:none"
           id="text204"><tspan
             x="0 10 19 24 29 35 40 45 55 64 73 80 88 93 101 111 120 129 135 144 150 155 169 178 187 192 198 208 217 222 227 233 242 247 255 260 269 274 280 289 298 304 310 319 324 329 338 348 357 367 372 378 387 396 405 414 423 432 441 449 454 459 465 474 483 492 499 505 510 519 528 537 546 551 557 565 570 575 584 593 598 606 611 618 628 637 646 655 663 668"
             y="0"
             sodipodi:role="line"
             id="tspan202">but it bears special mention. In statically typed languages, inheritance is the strongest,</tspan></text>
        <text
           xml:space="preserve"
           transform="translate(709,901)"
           style="font-variant:normal;font-weight:normal;font-size:20px;font-family:'Times New Roman';-inkscape-font-specification:TimesNewRomanPSMT;writing-mode:lr-tb;fill:#000000;fill-opacity:1;fill-rule:nonzero;stroke:none"
           id="text208"><tspan
             x="0 9 18 28 33 47 57 65 70 75 82 88 97 103 113 118 123 133 139 144 153 159 165 170 175 184 193 198 206 216 225 232 241 250 255 264 274 284 293 298 305 314 320 329 334 340 350 359 367 376 382 392 400 405 410 419 429 438 446 455 465 474 483 492 497 503 511 516 521 527 532 537 545 554 564 573 579 589 594 604 613 618 627 635 644"
             y="0"
             sodipodi:role="line"
             id="tspan206">and most rigid, of all the source code relationships; consequently, it should be used</tspan></text>
        <text
           xml:space="preserve"
           transform="translate(709,924)"
           style="font-variant:normal;font-weight:normal;font-size:20px;font-family:'Times New Roman';-inkscape-font-specification:TimesNewRomanPSMT;writing-mode:lr-tb;fill:#000000;fill-opacity:1;fill-rule:nonzero;stroke:none"
           id="text212"><tspan
             x="0 15 21 26 35 40 49 56 65 74 79 84 93 102 109 118 123 128 134 143 148 158 167 176 185 199 205 214 223 229 235 244 249 254 263 273 282 292 297 303 312 321 330 339 348 357 366 374 379 384 390 399 408 417 424 430 435 444 453 462 471 476 482 490 495 501 510 518 526 531 541 547 552 561 566 576 583 593 603 609 618 632 637 642 652 661 666 671 677"
             y="0"
             sodipodi:role="line"
             id="tspan210">with great care. In dynamically typed languages, inheritance is less of a problem, but it</tspan></text>
        <text
           xml:space="preserve"
           transform="translate(709,947)"
           style="font-variant:normal;font-weight:normal;font-size:20px;font-family:'Times New Roman';-inkscape-font-specification:TimesNewRomanPSMT;writing-mode:lr-tb;fill:#000000;fill-opacity:1;fill-rule:nonzero;stroke:none"
           id="text216"><tspan
             x="0 6 14 19 27 32 38 44 50 55 64 69 79 88 98 107 116 126 135 144 153 162 182 191 200 210 215 224 233 242 247 253 263 272 277 283 291 296 305 311 326 335 344 352 357 362 371 380 385 400 406 414 423 431 436 441 450 459 469 475 484 493"
             y="0"
             sodipodi:role="line"
             id="tspan214">is still a dependency—and caution is always the wisest choice.</tspan></text>
        <text
           xml:space="preserve"
           transform="translate(697,976)"
           style="font-variant:normal;font-weight:normal;font-size:20px;font-family:'Times New Roman';-inkscape-font-specification:TimesNewRomanPSMT;writing-mode:lr-tb;fill:#000000;fill-opacity:1;fill-rule:nonzero;stroke:none"
           id="text220"><tspan
             x="0 7"
             y="0"
             sodipodi:role="line"
             id="tspan218">• </tspan></text>
        <text
           xml:space="preserve"
           transform="translate(709,976)"
           style="font-variant:normal;font-weight:bold;font-size:20px;font-family:'Times New Roman';-inkscape-font-specification:TimesNewRomanPS-BoldMT;writing-mode:lr-tb;fill:#000000;fill-opacity:1;fill-rule:nonzero;stroke:none"
           id="text224"><tspan
             x="0 14 24 34 41 48 53 63 73 83 91 99 104 114 124 129 138 148 158 167 175 185 192 202 207 214 224 234 243 250 255 265 275 283"
             y="0"
             sodipodi:role="line"
             id="tspan222">Don’t override concrete functions.</tspan></text>
        <text
           xml:space="preserve"
           transform="translate(1002,976)"
           style="font-variant:normal;font-weight:normal;font-size:20px;font-family:'Times New Roman';-inkscape-font-specification:TimesNewRomanPSMT;writing-mode:lr-tb;fill:#000000;fill-opacity:1;fill-rule:nonzero;stroke:none"
           id="text228"><tspan
             x="0 13 23 32 41 48 57 62 71 76 82 91 100 109 114 120 130 139 147 152 162 168 173 182 191 196 203 212 222 231 237 244 253 258 266 276 285 292 301 310 315 324 334 344"
             y="0"
             sodipodi:role="line"
             id="tspan226">Concrete functions often require source code</tspan></text>
      </g>
    </g>
  </g>
</svg>
