<?xml version="1.0" encoding="UTF-8" standalone="no"?>
<!-- Created with Inkscape (http://www.inkscape.org/) -->

<svg
   version="1.1"
   id="svg2"
   width="816"
   height="1056"
   viewBox="0 0 816 1056"
   sodipodi:docname="clean_arch.pdf"
   xmlns:inkscape="http://www.inkscape.org/namespaces/inkscape"
   xmlns:sodipodi="http://sodipodi.sourceforge.net/DTD/sodipodi-0.dtd"
   xmlns="http://www.w3.org/2000/svg"
   xmlns:svg="http://www.w3.org/2000/svg">
  <defs
     id="defs6">
    <clipPath
       clipPathUnits="userSpaceOnUse"
       id="clipPath18">
      <path
         d="m 2088,0 h 696 V 1056 H 2088 V 0"
         clip-rule="evenodd"
         id="path16" />
    </clipPath>
    <clipPath
       clipPathUnits="userSpaceOnUse"
       id="clipPath28">
      <path
         d="m 2088,66 h 696 V 996 H 2088 V 66"
         clip-rule="evenodd"
         id="path26" />
    </clipPath>
  </defs>
  <sodipodi:namedview
     id="namedview4"
     pagecolor="#ffffff"
     bordercolor="#000000"
     borderopacity="0.25"
     inkscape:showpageshadow="2"
     inkscape:pageopacity="0.0"
     inkscape:pagecheckerboard="0"
     inkscape:deskcolor="#d1d1d1" />
  <g
     id="g8"
     inkscape:groupmode="layer"
     inkscape:label="clean_arch"
     transform="translate(59.999999,2.64e-5)">
    <g
       id="g10" />
    <g
       id="g12"
       transform="translate(-2088)">
      <g
         id="g14"
         clip-path="url(#clipPath18)">
        <g
           id="g20" />
      </g>
    </g>
    <g
       id="g22"
       transform="translate(-2088)">
      <g
         id="g24"
         clip-path="url(#clipPath28)">
        <text
           xml:space="preserve"
           transform="translate(2088,82.67188)"
           style="font-variant:normal;font-weight:normal;font-size:20px;font-family:'Times New Roman';-inkscape-font-specification:TimesNewRomanPSMT;writing-mode:lr-tb;fill:#000000;fill-opacity:1;fill-rule:nonzero;stroke:none"
           id="text32"><tspan
             x="0 6 20 30 36 45 59 68 77 82 91 101 106 116 125 130 135 144 153 158 167 177 191 201 211 220 229 238 243 251 256 265 275 285 295 304 309 319 326 331 341 350 356 366 381 386 391 400 409 423 428 433 444 454 461 466 475 484 493 507 517 523 532 537 542 547 556 565"
             y="0"
             sodipodi:role="line"
             id="tspan30">implemented by the components above or below them. For example, the </tspan></text>
        <text
           xml:space="preserve"
           transform="translate(2658,82.67188)"
           style="font-variant:normal;font-weight:normal;font-size:16px;font-family:'Courier New';-inkscape-font-specification:CourierNewPSMT;writing-mode:lr-tb;fill:#000000;fill-opacity:1;fill-rule:nonzero;stroke:none"
           id="text36"><tspan
             x="0 10 20 30 40 50 60 70"
             y="0"
             sodipodi:role="line"
             id="tspan34">Language</tspan></text>
        <text
           xml:space="preserve"
           transform="translate(2743,82.67188)"
           style="font-variant:normal;font-weight:normal;font-size:20px;font-family:'Times New Roman';-inkscape-font-specification:TimesNewRomanPSMT;writing-mode:lr-tb;fill:#000000;fill-opacity:1;fill-rule:nonzero;stroke:none"
           id="text40"><tspan
             x="0 14 25"
             y="0"
             sodipodi:role="line"
             id="tspan38">API</tspan></text>
        <text
           xml:space="preserve"
           transform="translate(2088,105.6719)"
           style="font-variant:normal;font-weight:normal;font-size:20px;font-family:'Times New Roman';-inkscape-font-specification:TimesNewRomanPSMT;writing-mode:lr-tb;fill:#000000;fill-opacity:1;fill-rule:nonzero;stroke:none"
           id="text44"><tspan
             x="0 6 14 19 25 39 49 55 64 78 87 96 101 110 120 125 135 144"
             y="0"
             sodipodi:role="line"
             id="tspan42">is implemented by </tspan></text>
        <text
           xml:space="preserve"
           transform="translate(2237,105.6719)"
           style="font-variant:normal;font-weight:normal;font-size:16px;font-family:'Courier New';-inkscape-font-specification:CourierNewPSMT;writing-mode:lr-tb;fill:#000000;fill-opacity:1;fill-rule:nonzero;stroke:none"
           id="text48"><tspan
             x="0 10 20 30 40 50 60"
             y="0"
             sodipodi:role="line"
             id="tspan46">English</tspan></text>
        <text
           xml:space="preserve"
           transform="translate(2312,105.6719)"
           style="font-variant:normal;font-weight:normal;font-size:20px;font-family:'Times New Roman';-inkscape-font-specification:TimesNewRomanPSMT;writing-mode:lr-tb;fill:#000000;fill-opacity:1;fill-rule:nonzero;stroke:none"
           id="text52"><tspan
             x="0 9 18 28"
             y="0"
             sodipodi:role="line"
             id="tspan50">and </tspan></text>
        <text
           xml:space="preserve"
           transform="translate(2345,105.6719)"
           style="font-variant:normal;font-weight:normal;font-size:16px;font-family:'Courier New';-inkscape-font-specification:CourierNewPSMT;writing-mode:lr-tb;fill:#000000;fill-opacity:1;fill-rule:nonzero;stroke:none"
           id="text56"><tspan
             x="0 10 20 30 40 50 60"
             y="0"
             sodipodi:role="line"
             id="tspan54">Spanish</tspan></text>
        <text
           xml:space="preserve"
           transform="translate(2415,105.6719)"
           style="font-variant:normal;font-weight:normal;font-size:20px;font-family:'Times New Roman';-inkscape-font-specification:TimesNewRomanPSMT;writing-mode:lr-tb;fill:#000000;fill-opacity:1;fill-rule:nonzero;stroke:none"
           id="text60"><tspan
             x="0"
             y="0"
             id="tspan58">.</tspan></text>
        <text
           xml:space="preserve"
           transform="translate(2088,149)"
           style="font-variant:normal;font-weight:normal;font-size:16px;font-family:'Courier New';-inkscape-font-specification:CourierNewPSMT;writing-mode:lr-tb;fill:#000000;fill-opacity:1;fill-rule:nonzero;stroke:none"
           id="text64"><tspan
             x="0 10 20 30 40 50 60 70 80"
             y="0"
             sodipodi:role="line"
             id="tspan62">GameRules</tspan></text>
        <text
           xml:space="preserve"
           transform="translate(2183,149)"
           style="font-variant:normal;font-weight:normal;font-size:20px;font-family:'Times New Roman';-inkscape-font-specification:TimesNewRomanPSMT;writing-mode:lr-tb;fill:#000000;fill-opacity:1;fill-rule:nonzero;stroke:none"
           id="text68"><tspan
             x="0 9 19 33 47 56 65 71 80 89 94 103 111 116 131 137 142 151"
             y="0"
             sodipodi:role="line"
             id="tspan66">communicates with </tspan></text>
        <text
           xml:space="preserve"
           transform="translate(2339,149)"
           style="font-variant:normal;font-weight:normal;font-size:16px;font-family:'Courier New';-inkscape-font-specification:CourierNewPSMT;writing-mode:lr-tb;fill:#000000;fill-opacity:1;fill-rule:nonzero;stroke:none"
           id="text72"><tspan
             x="0 10 20 30 40 50 60 70"
             y="0"
             sodipodi:role="line"
             id="tspan70">Language</tspan></text>
        <text
           xml:space="preserve"
           transform="translate(2424,149)"
           style="font-variant:normal;font-weight:normal;font-size:20px;font-family:'Times New Roman';-inkscape-font-specification:TimesNewRomanPSMT;writing-mode:lr-tb;fill:#000000;fill-opacity:1;fill-rule:nonzero;stroke:none"
           id="text76"><tspan
             x="0 5 14 21 31 40 49 58 63 72 81 86 100 111 117 122 127 136 145 150"
             y="0"
             sodipodi:role="line"
             id="tspan74">through an API that </tspan></text>
        <text
           xml:space="preserve"
           transform="translate(2579,149)"
           style="font-variant:normal;font-weight:normal;font-size:16px;font-family:'Courier New';-inkscape-font-specification:CourierNewPSMT;writing-mode:lr-tb;fill:#000000;fill-opacity:1;fill-rule:nonzero;stroke:none"
           id="text80"><tspan
             x="0 10 20 30 40 50 60 70 80"
             y="0"
             sodipodi:role="line"
             id="tspan78">GameRules</tspan></text>
        <text
           xml:space="preserve"
           transform="translate(2674,149)"
           style="font-variant:normal;font-weight:normal;font-size:20px;font-family:'Times New Roman';-inkscape-font-specification:TimesNewRomanPSMT;writing-mode:lr-tb;fill:#000000;fill-opacity:1;fill-rule:nonzero;stroke:none"
           id="text84"><tspan
             x="0 10 19 25 31 40 49 57 62 71 80"
             y="0"
             sodipodi:role="line"
             id="tspan82">defines and</tspan></text>
        <text
           xml:space="preserve"
           transform="translate(2088,172)"
           style="font-variant:normal;font-weight:normal;font-size:16px;font-family:'Courier New';-inkscape-font-specification:CourierNewPSMT;writing-mode:lr-tb;fill:#000000;fill-opacity:1;fill-rule:nonzero;stroke:none"
           id="text88"><tspan
             x="0 10 20 30 40 50 60 70"
             y="0"
             sodipodi:role="line"
             id="tspan86">Language</tspan></text>
        <text
           xml:space="preserve"
           transform="translate(2173,172)"
           style="font-variant:normal;font-weight:normal;font-size:20px;font-family:'Times New Roman';-inkscape-font-specification:TimesNewRomanPSMT;writing-mode:lr-tb;fill:#000000;fill-opacity:1;fill-rule:nonzero;stroke:none"
           id="text92"><tspan
             x="0 6 20 30 36 45 59 68 77 82 90 95"
             y="0"
             sodipodi:role="line"
             id="tspan90">implements. </tspan></text>
        <text
           xml:space="preserve"
           transform="translate(2273,172)"
           style="font-variant:normal;font-weight:normal;font-size:16px;font-family:'Courier New';-inkscape-font-specification:CourierNewPSMT;writing-mode:lr-tb;fill:#000000;fill-opacity:1;fill-rule:nonzero;stroke:none"
           id="text96"><tspan
             x="0 10 20 30 40 50 60 70"
             y="0"
             sodipodi:role="line"
             id="tspan94">Language</tspan></text>
        <text
           xml:space="preserve"
           transform="translate(2358,172)"
           style="font-variant:normal;font-weight:normal;font-size:20px;font-family:'Times New Roman';-inkscape-font-specification:TimesNewRomanPSMT;writing-mode:lr-tb;fill:#000000;fill-opacity:1;fill-rule:nonzero;stroke:none"
           id="text100"><tspan
             x="0 9 19 33 47 56 65 71 80 89 94 103 111 116 131 137 142 151"
             y="0"
             sodipodi:role="line"
             id="tspan98">communicates with </tspan></text>
        <text
           xml:space="preserve"
           transform="translate(2514,172)"
           style="font-variant:normal;font-weight:normal;font-size:16px;font-family:'Courier New';-inkscape-font-specification:CourierNewPSMT;writing-mode:lr-tb;fill:#000000;fill-opacity:1;fill-rule:nonzero;stroke:none"
           id="text104"><tspan
             x="0 10 20 30 40 50 60 70 80 90 100 110"
             y="0"
             sodipodi:role="line"
             id="tspan102">TextDelivery</tspan></text>
        <text
           xml:space="preserve"
           transform="translate(2639,172)"
           style="font-variant:normal;font-weight:normal;font-size:20px;font-family:'Times New Roman';-inkscape-font-specification:TimesNewRomanPSMT;writing-mode:lr-tb;fill:#000000;fill-opacity:1;fill-rule:nonzero;stroke:none"
           id="text108"><tspan
             x="0 9 17 23 32 41 46 55 64 69 83 94 100 105 110 119 128"
             y="0"
             sodipodi:role="line"
             id="tspan106">using an API that</tspan></text>
        <text
           xml:space="preserve"
           transform="translate(2088,195)"
           style="font-variant:normal;font-weight:normal;font-size:16px;font-family:'Courier New';-inkscape-font-specification:CourierNewPSMT;writing-mode:lr-tb;fill:#000000;fill-opacity:1;fill-rule:nonzero;stroke:none"
           id="text112"><tspan
             x="0 10 20 30 40 50 60 70"
             y="0"
             sodipodi:role="line"
             id="tspan110">Language</tspan></text>
        <text
           xml:space="preserve"
           transform="translate(2173,195)"
           style="font-variant:normal;font-weight:normal;font-size:20px;font-family:'Times New Roman';-inkscape-font-specification:TimesNewRomanPSMT;writing-mode:lr-tb;fill:#000000;fill-opacity:1;fill-rule:nonzero;stroke:none"
           id="text116"><tspan
             x="0 10 19 25 31 40 49 57 62 72 81 86"
             y="0"
             sodipodi:role="line"
             id="tspan114">defines but </tspan></text>
        <text
           xml:space="preserve"
           transform="translate(2264,195)"
           style="font-variant:normal;font-weight:normal;font-size:16px;font-family:'Courier New';-inkscape-font-specification:CourierNewPSMT;writing-mode:lr-tb;fill:#000000;fill-opacity:1;fill-rule:nonzero;stroke:none"
           id="text120"><tspan
             x="0 10 20 30 40 50 60 70 80 90 100 110"
             y="0"
             sodipodi:role="line"
             id="tspan118">TextDelivery</tspan></text>
        <text
           xml:space="preserve"
           transform="translate(2389,195)"
           style="font-variant:normal;font-weight:normal;font-size:20px;font-family:'Times New Roman';-inkscape-font-specification:TimesNewRomanPSMT;writing-mode:lr-tb;fill:#000000;fill-opacity:1;fill-rule:nonzero;stroke:none"
           id="text124"><tspan
             x="0 6 20 30 36 45 59 68 77 82 90 95 100 112 121 130 135 149 160 166 171 177 185 190 200 209 215 221 230 239 249 254 263 272 282 287 297 312 321 330 340 345 355 364 369 374 383"
             y="0"
             sodipodi:role="line"
             id="tspan122">implements. The API is defined and owned by the</tspan></text>
        <text
           xml:space="preserve"
           transform="translate(2088,218)"
           style="font-variant:normal;font-weight:normal;font-size:20px;font-family:'Times New Roman';-inkscape-font-specification:TimesNewRomanPSMT;writing-mode:lr-tb;fill:#000000;fill-opacity:1;fill-rule:nonzero;stroke:none"
           id="text128"><tspan
             x="0 9 17 26 32 37 42 49 58 63 72 81 88 93 98 107 116 125 130 140 149 154 159 168 177 182 188 202 212 218 227 241 250 259 264 273 279"
             y="0"
             sodipodi:role="line"
             id="tspan126">user, rather than by the implementer.</tspan></text>
        <text
           xml:space="preserve"
           transform="translate(2088,261)"
           style="font-variant:normal;font-weight:normal;font-size:20px;font-family:'Times New Roman';-inkscape-font-specification:TimesNewRomanPSMT;writing-mode:lr-tb;fill:#000000;fill-opacity:1;fill-rule:nonzero;stroke:none"
           id="text132"><tspan
             x="0 6 12 17 32 41 46 61 70 77 86 91 96 106 111 117 127 137 146 151 157 166 174 180 190 199"
             y="0"
             sodipodi:role="line"
             id="tspan130">If we were to look inside </tspan></text>
        <text
           xml:space="preserve"
           transform="translate(2292,261)"
           style="font-variant:normal;font-weight:normal;font-size:16px;font-family:'Courier New';-inkscape-font-specification:CourierNewPSMT;writing-mode:lr-tb;fill:#000000;fill-opacity:1;fill-rule:nonzero;stroke:none"
           id="text136"><tspan
             x="0 10 20 30 40 50 60 70 80"
             y="0"
             sodipodi:role="line"
             id="tspan134">GameRules</tspan></text>
        <text
           xml:space="preserve"
           transform="translate(2382,261)"
           style="font-variant:normal;font-weight:normal;font-size:20px;font-family:'Times New Roman';-inkscape-font-specification:TimesNewRomanPSMT;writing-mode:lr-tb;fill:#000000;fill-opacity:1;fill-rule:nonzero;stroke:none"
           id="text140"><tspan
             x="0 5 10 25 34 39 54 64 73 79 89 94 100 106 115 125 130 140 150 156 165 179 189 196 206 215 221 230"
             y="0"
             sodipodi:role="line"
             id="tspan138">, we would find polymorphic </tspan></text>
        <text
           xml:space="preserve"
           transform="translate(2617,261)"
           style="font-variant:normal;font-weight:normal;font-size:16px;font-family:'Courier New';-inkscape-font-specification:CourierNewPSMT;writing-mode:lr-tb;fill:#000000;fill-opacity:1;fill-rule:nonzero;stroke:none"
           id="text144"><tspan
             x="0 10 20 30 40 50 60 70"
             y="0"
             sodipodi:role="line"
             id="tspan142">Boundary</tspan></text>
        <text
           xml:space="preserve"
           transform="translate(2702,261)"
           style="font-variant:normal;font-weight:normal;font-size:20px;font-family:'Times New Roman';-inkscape-font-specification:TimesNewRomanPSMT;writing-mode:lr-tb;fill:#000000;fill-opacity:1;fill-rule:nonzero;stroke:none"
           id="text148"><tspan
             x="0 6 15 20 29 36 42 51 60 69"
             y="0"
             sodipodi:role="line"
             id="tspan146">interfaces</tspan></text>
        <text
           xml:space="preserve"
           transform="translate(2088,284)"
           style="font-variant:normal;font-weight:normal;font-size:20px;font-family:'Times New Roman';-inkscape-font-specification:TimesNewRomanPSMT;writing-mode:lr-tb;fill:#000000;fill-opacity:1;fill-rule:nonzero;stroke:none"
           id="text152"><tspan
             x="0 9 17 26 36 41 51 60 65 70 79 88 93 102 112 122 131 136 142 151 159 165 175 184"
             y="0"
             sodipodi:role="line"
             id="tspan150">used by the code inside </tspan></text>
        <text
           xml:space="preserve"
           transform="translate(2277,284)"
           style="font-variant:normal;font-weight:normal;font-size:16px;font-family:'Courier New';-inkscape-font-specification:CourierNewPSMT;writing-mode:lr-tb;fill:#000000;fill-opacity:1;fill-rule:nonzero;stroke:none"
           id="text156"><tspan
             x="0 10 20 30 40 50 60 70 80"
             y="0"
             sodipodi:role="line"
             id="tspan154">GameRules</tspan></text>
        <text
           xml:space="preserve"
           transform="translate(2372,284)"
           style="font-variant:normal;font-weight:normal;font-size:20px;font-family:'Times New Roman';-inkscape-font-specification:TimesNewRomanPSMT;writing-mode:lr-tb;fill:#000000;fill-opacity:1;fill-rule:nonzero;stroke:none"
           id="text160"><tspan
             x="0 9 18 28 33 39 53 63 69 78 92 101 110 115 124 134 139 149 158 163 168 177 186 191 200 210 220 229 234 240 249 257 263 273 282 287 292 301 310"
             y="0"
             sodipodi:role="line"
             id="tspan158">and implemented by the code inside the </tspan></text>
        <text
           xml:space="preserve"
           transform="translate(2687,284)"
           style="font-variant:normal;font-weight:normal;font-size:16px;font-family:'Courier New';-inkscape-font-specification:CourierNewPSMT;writing-mode:lr-tb;fill:#000000;fill-opacity:1;fill-rule:nonzero;stroke:none"
           id="text164"><tspan
             x="0 10 20 30 40 50 60 70"
             y="0"
             sodipodi:role="line"
             id="tspan162">Language</tspan></text>
        <text
           xml:space="preserve"
           transform="translate(2088,307)"
           style="font-variant:normal;font-weight:normal;font-size:20px;font-family:'Times New Roman';-inkscape-font-specification:TimesNewRomanPSMT;writing-mode:lr-tb;fill:#000000;fill-opacity:1;fill-rule:nonzero;stroke:none"
           id="text168"><tspan
             x="0 9 19 33 43 53 62 71 80 85 90 95 111 120 125 140 150 159 165 175 180 189 195 203 213 218 224 230 239 249 254 264 274 280 289 303 313 320 330 339 345 354"
             y="0"
             sodipodi:role="line"
             id="tspan166">component. We would also find polymorphic </tspan></text>
        <text
           xml:space="preserve"
           transform="translate(2447,307)"
           style="font-variant:normal;font-weight:normal;font-size:16px;font-family:'Courier New';-inkscape-font-specification:CourierNewPSMT;writing-mode:lr-tb;fill:#000000;fill-opacity:1;fill-rule:nonzero;stroke:none"
           id="text172"><tspan
             x="0 10 20 30 40 50 60 70"
             y="0"
             sodipodi:role="line"
             id="tspan170">Boundary</tspan></text>
        <text
           xml:space="preserve"
           transform="translate(2532,307)"
           style="font-variant:normal;font-weight:normal;font-size:20px;font-family:'Times New Roman';-inkscape-font-specification:TimesNewRomanPSMT;writing-mode:lr-tb;fill:#000000;fill-opacity:1;fill-rule:nonzero;stroke:none"
           id="text176"><tspan
             x="0 6 15 20 29 36 42 51 60 69 77 82 91 99 108 118 123 133 142"
             y="0"
             sodipodi:role="line"
             id="tspan174">interfaces used by </tspan></text>
        <text
           xml:space="preserve"
           transform="translate(2679,307)"
           style="font-variant:normal;font-weight:normal;font-size:16px;font-family:'Courier New';-inkscape-font-specification:CourierNewPSMT;writing-mode:lr-tb;fill:#000000;fill-opacity:1;fill-rule:nonzero;stroke:none"
           id="text180"><tspan
             x="0 10 20 30 40 50 60 70"
             y="0"
             sodipodi:role="line"
             id="tspan178">Language</tspan></text>
        <text
           xml:space="preserve"
           transform="translate(2088,330)"
           style="font-variant:normal;font-weight:normal;font-size:20px;font-family:'Times New Roman';-inkscape-font-specification:TimesNewRomanPSMT;writing-mode:lr-tb;fill:#000000;fill-opacity:1;fill-rule:nonzero;stroke:none"
           id="text184"><tspan
             x="0 9 18 28 33 39 53 63 69 78 92 101 110 115 124 134 139 149 158 163 172 182 192 201 206 212 221 229 235 245 254"
             y="0"
             sodipodi:role="line"
             id="tspan182">and implemented by code inside </tspan></text>
        <text
           xml:space="preserve"
           transform="translate(2347,330)"
           style="font-variant:normal;font-weight:normal;font-size:16px;font-family:'Courier New';-inkscape-font-specification:CourierNewPSMT;writing-mode:lr-tb;fill:#000000;fill-opacity:1;fill-rule:nonzero;stroke:none"
           id="text188"><tspan
             x="0 10 20 30 40 50 60 70 80"
             y="0"
             sodipodi:role="line"
             id="tspan186">GameRules</tspan></text>
        <text
           xml:space="preserve"
           transform="translate(2437,330)"
           style="font-variant:normal;font-weight:normal;font-size:20px;font-family:'Times New Roman';-inkscape-font-specification:TimesNewRomanPSMT;writing-mode:lr-tb;fill:#000000;fill-opacity:1;fill-rule:nonzero;stroke:none"
           id="text192"><tspan
             x="0"
             y="0"
             id="tspan190">.</tspan></text>
        <text
           xml:space="preserve"
           transform="translate(2088,373)"
           style="font-variant:normal;font-weight:normal;font-size:20px;font-family:'Times New Roman';-inkscape-font-specification:TimesNewRomanPSMT;writing-mode:lr-tb;fill:#000000;fill-opacity:1;fill-rule:nonzero;stroke:none"
           id="text196"><tspan
             x="0 6 12 17 32 41 46 61 70 77 86 91 96 106 111 117 127 137 146 151 157 166 174 180 190 199 204 214 220"
             y="0"
             sodipodi:role="line"
             id="tspan194">If we were to look inside of </tspan></text>
        <text
           xml:space="preserve"
           transform="translate(2313,373)"
           style="font-variant:normal;font-weight:normal;font-size:16px;font-family:'Courier New';-inkscape-font-specification:CourierNewPSMT;writing-mode:lr-tb;fill:#000000;fill-opacity:1;fill-rule:nonzero;stroke:none"
           id="text200"><tspan
             x="0 10 20 30 40 50 60 70"
             y="0"
             sodipodi:role="line"
             id="tspan198">Language</tspan></text>
        <text
           xml:space="preserve"
           transform="translate(2393,373)"
           style="font-variant:normal;font-weight:normal;font-size:20px;font-family:'Times New Roman';-inkscape-font-specification:TimesNewRomanPSMT;writing-mode:lr-tb;fill:#000000;fill-opacity:1;fill-rule:nonzero;stroke:none"
           id="text204"><tspan
             x="0 5 10 25 34 39 54 64 73 79 89 94 100 106 115 125 130 135 144 153 158 166 175 189 198 203 208 217 223 232 241 247 252 263 273 279 288 302 312 319 329 338 344"
             y="0"
             sodipodi:role="line"
             id="tspan202">, we would find the same thing: Polymorphic</tspan></text>
        <text
           xml:space="preserve"
           transform="translate(2088,396)"
           style="font-variant:normal;font-weight:normal;font-size:16px;font-family:'Courier New';-inkscape-font-specification:CourierNewPSMT;writing-mode:lr-tb;fill:#000000;fill-opacity:1;fill-rule:nonzero;stroke:none"
           id="text208"><tspan
             x="0 10 20 30 40 50 60 70"
             y="0"
             sodipodi:role="line"
             id="tspan206">Boundary</tspan></text>
        <text
           xml:space="preserve"
           transform="translate(2173,396)"
           style="font-variant:normal;font-weight:normal;font-size:20px;font-family:'Times New Roman';-inkscape-font-specification:TimesNewRomanPSMT;writing-mode:lr-tb;fill:#000000;fill-opacity:1;fill-rule:nonzero;stroke:none"
           id="text212"><tspan
             x="0 6 15 20 29 36 42 51 60 69 77 82 88 102 112 118 127 141 150 159 164 173 183 188 198 207 212 217 226 235 240 249 259 269 278 283 289 298 306 312 322 331"
             y="0"
             sodipodi:role="line"
             id="tspan210">interfaces implemented by the code inside </tspan></text>
        <text
           xml:space="preserve"
           transform="translate(2509,396)"
           style="font-variant:normal;font-weight:normal;font-size:16px;font-family:'Courier New';-inkscape-font-specification:CourierNewPSMT;writing-mode:lr-tb;fill:#000000;fill-opacity:1;fill-rule:nonzero;stroke:none"
           id="text216"><tspan
             x="0 10 20 30 40 50 60 70 80 90 100 110"
             y="0"
             sodipodi:role="line"
             id="tspan214">TextDelivery</tspan></text>
        <text
           xml:space="preserve"
           transform="translate(2629,396)"
           style="font-variant:normal;font-weight:normal;font-size:20px;font-family:'Times New Roman';-inkscape-font-specification:TimesNewRomanPSMT;writing-mode:lr-tb;fill:#000000;fill-opacity:1;fill-rule:nonzero;stroke:none"
           id="text220"><tspan
             x="0 5 10 19 28 38 43 53 63 69 78 92 102 109 119 128 134"
             y="0"
             sodipodi:role="line"
             id="tspan218">, and polymorphic</tspan></text>
        <text
           xml:space="preserve"
           transform="translate(2088,419)"
           style="font-variant:normal;font-weight:normal;font-size:16px;font-family:'Courier New';-inkscape-font-specification:CourierNewPSMT;writing-mode:lr-tb;fill:#000000;fill-opacity:1;fill-rule:nonzero;stroke:none"
           id="text224"><tspan
             x="0 10 20 30 40 50 60 70"
             y="0"
             sodipodi:role="line"
             id="tspan222">Boundary</tspan></text>
        <text
           xml:space="preserve"
           transform="translate(2173,419)"
           style="font-variant:normal;font-weight:normal;font-size:20px;font-family:'Times New Roman';-inkscape-font-specification:TimesNewRomanPSMT;writing-mode:lr-tb;fill:#000000;fill-opacity:1;fill-rule:nonzero;stroke:none"
           id="text228"><tspan
             x="0 6 15 20 29 36 42 51 60 69 77 82 91 99 108 118 123 133 142"
             y="0"
             sodipodi:role="line"
             id="tspan226">interfaces used by </tspan></text>
        <text
           xml:space="preserve"
           transform="translate(2320,419)"
           style="font-variant:normal;font-weight:normal;font-size:16px;font-family:'Courier New';-inkscape-font-specification:CourierNewPSMT;writing-mode:lr-tb;fill:#000000;fill-opacity:1;fill-rule:nonzero;stroke:none"
           id="text232"><tspan
             x="0 10 20 30 40 50 60 70 80 90 100 110"
             y="0"
             sodipodi:role="line"
             id="tspan230">TextDelivery</tspan></text>
        <text
           xml:space="preserve"
           transform="translate(2445,419)"
           style="font-variant:normal;font-weight:normal;font-size:20px;font-family:'Times New Roman';-inkscape-font-specification:TimesNewRomanPSMT;writing-mode:lr-tb;fill:#000000;fill-opacity:1;fill-rule:nonzero;stroke:none"
           id="text236"><tspan
             x="0 9 18 28 33 39 53 63 69 78 92 101 110 115 124 134 139 149 158"
             y="0"
             sodipodi:role="line"
             id="tspan234">and implemented by </tspan></text>
        <text
           xml:space="preserve"
           transform="translate(2608,419)"
           style="font-variant:normal;font-weight:normal;font-size:16px;font-family:'Courier New';-inkscape-font-specification:CourierNewPSMT;writing-mode:lr-tb;fill:#000000;fill-opacity:1;fill-rule:nonzero;stroke:none"
           id="text240"><tspan
             x="0 10 20 30 40 50 60 70"
             y="0"
             sodipodi:role="line"
             id="tspan238">Language</tspan></text>
        <text
           xml:space="preserve"
           transform="translate(2688,419)"
           style="font-variant:normal;font-weight:normal;font-size:20px;font-family:'Times New Roman';-inkscape-font-specification:TimesNewRomanPSMT;writing-mode:lr-tb;fill:#000000;fill-opacity:1;fill-rule:nonzero;stroke:none"
           id="text244"><tspan
             x="0"
             y="0"
             id="tspan242">.</tspan></text>
        <text
           xml:space="preserve"
           transform="translate(2088,462)"
           style="font-variant:normal;font-weight:normal;font-size:20px;font-family:'Times New Roman';-inkscape-font-specification:TimesNewRomanPSMT;writing-mode:lr-tb;fill:#000000;fill-opacity:1;fill-rule:nonzero;stroke:none"
           id="text248"><tspan
             x="0 6 15 20 29 38 47 56 61 70 79 87 96 101 106 111 120 129 134 148 159 165 170 180 189 195 201 210 219 229 234 244 253 258 263 272 282 290 299"
             y="0"
             sodipodi:role="line"
             id="tspan246">In each case, the API defined by those </tspan></text>
        <text
           xml:space="preserve"
           transform="translate(2392,462)"
           style="font-variant:normal;font-weight:normal;font-size:16px;font-family:'Courier New';-inkscape-font-specification:CourierNewPSMT;writing-mode:lr-tb;fill:#000000;fill-opacity:1;fill-rule:nonzero;stroke:none"
           id="text252"><tspan
             x="0 10 20 30 40 50 60 70"
             y="0"
             sodipodi:role="line"
             id="tspan250">Boundary</tspan></text>
        <text
           xml:space="preserve"
           transform="translate(2477,462)"
           style="font-variant:normal;font-weight:normal;font-size:20px;font-family:'Times New Roman';-inkscape-font-specification:TimesNewRomanPSMT;writing-mode:lr-tb;fill:#000000;fill-opacity:1;fill-rule:nonzero;stroke:none"
           id="text256"><tspan
             x="0 6 15 20 29 36 42 51 60 69 77 82 88 96 101 111 126 135 144 154 159 169 178 183 188 197 206 211 220 230 238 243 250 259 268"
             y="0"
             sodipodi:role="line"
             id="tspan254">interfaces is owned by the upstream</tspan></text>
        <text
           xml:space="preserve"
           transform="translate(2088,485)"
           style="font-variant:normal;font-weight:normal;font-size:20px;font-family:'Times New Roman';-inkscape-font-specification:TimesNewRomanPSMT;writing-mode:lr-tb;fill:#000000;fill-opacity:1;fill-rule:nonzero;stroke:none"
           id="text260"><tspan
             x="0 9 19 33 43 53 62 71 80 85"
             y="0"
             sodipodi:role="line"
             id="tspan258">component.</tspan></text>
        <text
           xml:space="preserve"
           transform="translate(2088,528)"
           style="font-variant:normal;font-weight:normal;font-size:20px;font-family:'Times New Roman';-inkscape-font-specification:TimesNewRomanPSMT;writing-mode:lr-tb;fill:#000000;fill-opacity:1;fill-rule:nonzero;stroke:none"
           id="text264"><tspan
             x="0 12 21 30 35 45 54 61 67 76 81 87 97 106 114 119 124 132 141 150 159 164 173 181"
             y="0"
             sodipodi:role="line"
             id="tspan262">The variations, such as </tspan></text>
        <text
           xml:space="preserve"
           transform="translate(2274,528)"
           style="font-variant:normal;font-weight:normal;font-size:16px;font-family:'Courier New';-inkscape-font-specification:CourierNewPSMT;writing-mode:lr-tb;fill:#000000;fill-opacity:1;fill-rule:nonzero;stroke:none"
           id="text268"><tspan
             x="0 10 20 30 40 50 60"
             y="0"
             sodipodi:role="line"
             id="tspan266">English</tspan></text>
        <text
           xml:space="preserve"
           transform="translate(2344,528)"
           style="font-variant:normal;font-weight:normal;font-size:20px;font-family:'Times New Roman';-inkscape-font-specification:TimesNewRomanPSMT;writing-mode:lr-tb;fill:#000000;fill-opacity:1;fill-rule:nonzero;stroke:none"
           id="text272"><tspan
             x="0 5"
             y="0"
             sodipodi:role="line"
             id="tspan270">, </tspan></text>
        <text
           xml:space="preserve"
           transform="translate(2354,528)"
           style="font-variant:normal;font-weight:normal;font-size:16px;font-family:'Courier New';-inkscape-font-specification:CourierNewPSMT;writing-mode:lr-tb;fill:#000000;fill-opacity:1;fill-rule:nonzero;stroke:none"
           id="text276"><tspan
             x="0 10 20"
             y="0"
             sodipodi:role="line"
             id="tspan274">SMS</tspan></text>
        <text
           xml:space="preserve"
           transform="translate(2384,528)"
           style="font-variant:normal;font-weight:normal;font-size:20px;font-family:'Times New Roman';-inkscape-font-specification:TimesNewRomanPSMT;writing-mode:lr-tb;fill:#000000;fill-opacity:1;fill-rule:nonzero;stroke:none"
           id="text280"><tspan
             x="0 5 10 19 28 38"
             y="0"
             sodipodi:role="line"
             id="tspan278">, and </tspan></text>
        <text
           xml:space="preserve"
           transform="translate(2427,528)"
           style="font-variant:normal;font-weight:normal;font-size:16px;font-family:'Courier New';-inkscape-font-specification:CourierNewPSMT;writing-mode:lr-tb;fill:#000000;fill-opacity:1;fill-rule:nonzero;stroke:none"
           id="text284"><tspan
             x="0 10 20 30 40 50 60 70 80"
             y="0"
             sodipodi:role="line"
             id="tspan282">CloudData</tspan></text>
        <text
           xml:space="preserve"
           transform="translate(2517,528)"
           style="font-variant:normal;font-weight:normal;font-size:20px;font-family:'Times New Roman';-inkscape-font-specification:TimesNewRomanPSMT;writing-mode:lr-tb;fill:#000000;fill-opacity:1;fill-rule:nonzero;stroke:none"
           id="text288"><tspan
             x="0 5 10 19 26 35 40 50 57 67 77 83 93 102 112 117 127 136 141 151 161 167 176 190 200 207 217 226 232"
             y="0"
             sodipodi:role="line"
             id="tspan286">, are provided by polymorphic</tspan></text>
        <text
           xml:space="preserve"
           transform="translate(2088,551)"
           style="font-variant:normal;font-weight:normal;font-size:20px;font-family:'Times New Roman';-inkscape-font-specification:TimesNewRomanPSMT;writing-mode:lr-tb;fill:#000000;fill-opacity:1;fill-rule:nonzero;stroke:none"
           id="text292"><tspan
             x="0 6 15 20 29 36 42 51 60 69 77 82 92 101 107 113 122 131 141 146 152 161 166 171 180 189 194 203 213 221 226 233 242 251 256 261 275 286 292 297 306 316 330 340 350 359 368 377 382 387 392 401 410 420 425 431 445 455 461 470 484 493 502 507 516 526 531 541 550 555 560 569 578 583 592 602 611 620 627 636 641"
             y="0"
             sodipodi:role="line"
             id="tspan290">interfaces defined in the abstract API component, and implemented by the concrete</tspan></text>
        <text
           xml:space="preserve"
           transform="translate(2088,574)"
           style="font-variant:normal;font-weight:normal;font-size:20px;font-family:'Times New Roman';-inkscape-font-specification:TimesNewRomanPSMT;writing-mode:lr-tb;fill:#000000;fill-opacity:1;fill-rule:nonzero;stroke:none"
           id="text296"><tspan
             x="0 9 19 33 43 53 62 71 80 85 93 98 103 112 121 126 131 139 148 155 165 174 179 184 193 202 216 221 226 237 247 254 259 268 277 286 300 310 316 325 330 335 350 359 364 379 389 398 404 414 419 428 437 447 456 465 470 475 485 495 501 510 524 534 541 551 560 566 575 580 586 595 600 609 616 622 631 640 649"
             y="0"
             sodipodi:role="line"
             id="tspan294">components that serve them. For example, we would expect polymorphic interfaces</tspan></text>
        <text
           xml:space="preserve"
           transform="translate(2088,597)"
           style="font-variant:normal;font-weight:normal;font-size:20px;font-family:'Times New Roman';-inkscape-font-specification:TimesNewRomanPSMT;writing-mode:lr-tb;fill:#000000;fill-opacity:1;fill-rule:nonzero;stroke:none"
           id="text300"><tspan
             x="0 10 19 25 31 40 49 59 64 70 79"
             y="0"
             sodipodi:role="line"
             id="tspan298">defined in </tspan></text>
        <text
           xml:space="preserve"
           transform="translate(2172,597)"
           style="font-variant:normal;font-weight:normal;font-size:16px;font-family:'Courier New';-inkscape-font-specification:CourierNewPSMT;writing-mode:lr-tb;fill:#000000;fill-opacity:1;fill-rule:nonzero;stroke:none"
           id="text304"><tspan
             x="0 10 20 30 40 50 60 70"
             y="0"
             sodipodi:role="line"
             id="tspan302">Language</tspan></text>
        <text
           xml:space="preserve"
           transform="translate(2257,597)"
           style="font-variant:normal;font-weight:normal;font-size:20px;font-family:'Times New Roman';-inkscape-font-specification:TimesNewRomanPSMT;writing-mode:lr-tb;fill:#000000;fill-opacity:1;fill-rule:nonzero;stroke:none"
           id="text308"><tspan
             x="0 5 15 20 30 39 44 50 64 74 80 89 103 112 121 126 135 145 150 160 169"
             y="0"
             sodipodi:role="line"
             id="tspan306">to be implemented by </tspan></text>
        <text
           xml:space="preserve"
           transform="translate(2431,597)"
           style="font-variant:normal;font-weight:normal;font-size:16px;font-family:'Courier New';-inkscape-font-specification:CourierNewPSMT;writing-mode:lr-tb;fill:#000000;fill-opacity:1;fill-rule:nonzero;stroke:none"
           id="text312"><tspan
             x="0 10 20 30 40 50 60"
             y="0"
             sodipodi:role="line"
             id="tspan310">English</tspan></text>
        <text
           xml:space="preserve"
           transform="translate(2506,597)"
           style="font-variant:normal;font-weight:normal;font-size:20px;font-family:'Times New Roman';-inkscape-font-specification:TimesNewRomanPSMT;writing-mode:lr-tb;fill:#000000;fill-opacity:1;fill-rule:nonzero;stroke:none"
           id="text316"><tspan
             x="0 9 18 28"
             y="0"
             sodipodi:role="line"
             id="tspan314">and </tspan></text>
        <text
           xml:space="preserve"
           transform="translate(2539,597)"
           style="font-variant:normal;font-weight:normal;font-size:16px;font-family:'Courier New';-inkscape-font-specification:CourierNewPSMT;writing-mode:lr-tb;fill:#000000;fill-opacity:1;fill-rule:nonzero;stroke:none"
           id="text320"><tspan
             x="0 10 20 30 40 50 60"
             y="0"
             sodipodi:role="line"
             id="tspan318">Spanish</tspan></text>
        <text
           xml:space="preserve"
           transform="translate(2609,597)"
           style="font-variant:normal;font-weight:normal;font-size:20px;font-family:'Times New Roman';-inkscape-font-specification:TimesNewRomanPSMT;writing-mode:lr-tb;fill:#000000;fill-opacity:1;fill-rule:nonzero;stroke:none"
           id="text324"><tspan
             x="0"
             y="0"
             id="tspan322">.</tspan></text>
        <text
           xml:space="preserve"
           transform="translate(2088,640)"
           style="font-variant:normal;font-weight:normal;font-size:20px;font-family:'Times New Roman';-inkscape-font-specification:TimesNewRomanPSMT;writing-mode:lr-tb;fill:#000000;fill-opacity:1;fill-rule:nonzero;stroke:none"
           id="text328"><tspan
             x="0 16 25 30 39 48 57 62 70 76 90 100 106 112 118 127 132 137 146 152 160 165 175 181 190 199 206 215 229 234 244 253 258 267 273 279 293 299 308 317 322 328 337 346 351 360 366 372 377 382 391 400 405 415 424 431 437 446 451 457 467 476 484 489 498 507 517 522 528 538 547 556 564 570 579 588 593 603 612 617 623 632 640 645 650 655 664"
             y="0"
             sodipodi:role="line"
             id="tspan326">We can simplify this diagram by eliminating all the variations and focusing on just the</tspan></text>
        <text
           xml:space="preserve"
           transform="translate(2088,663)"
           style="font-variant:normal;font-weight:normal;font-size:20px;font-family:'Times New Roman';-inkscape-font-specification:TimesNewRomanPSMT;writing-mode:lr-tb;fill:#000000;fill-opacity:1;fill-rule:nonzero;stroke:none"
           id="text332"><tspan
             x="0 14 25 31 36 45 55 69 79 89 98 107 116 121 129 134"
             y="0"
             sodipodi:role="line"
             id="tspan330">API components. </tspan></text>
        <text
           xml:space="preserve"
           transform="translate(2227,663)"
           style="font-variant:normal;font-weight:normal;font-size:20px;font-family:'Times New Roman';-inkscape-font-specification:TimesNewRomanPSMT;writing-mode:lr-tb;fill:#0000ee;fill-opacity:1;fill-rule:nonzero;stroke:none"
           id="text336"><tspan
             x="0 11 17 26 35 42 51 56 66 76 81"
             y="0"
             sodipodi:role="line"
             id="tspan334">Figure 25.4</tspan></text>
        <path
           d="m 2227,664.5 h 90 z"
           style="fill:none;stroke:#0000ee;stroke-width:1;stroke-linecap:square;stroke-linejoin:miter;stroke-miterlimit:10;stroke-dasharray:none;stroke-opacity:1"
           id="path338" />
        <text
           xml:space="preserve"
           transform="translate(2323,663)"
           style="font-variant:normal;font-weight:normal;font-size:20px;font-family:'Times New Roman';-inkscape-font-specification:TimesNewRomanPSMT;writing-mode:lr-tb;fill:#000000;fill-opacity:1;fill-rule:nonzero;stroke:none"
           id="text342"><tspan
             x="0 8 17 27 42 50 55 60 69 75 83 88 98 104 113 122 129 138 152"
             y="0"
             sodipodi:role="line"
             id="tspan340">shows this diagram.</tspan></text>
      </g>
    </g>
  </g>
</svg>
