<?xml version="1.0" encoding="UTF-8" standalone="no"?>
<!-- Created with Inkscape (http://www.inkscape.org/) -->

<svg
   version="1.1"
   id="svg2"
   width="816"
   height="1056"
   viewBox="0 0 816 1056"
   sodipodi:docname="clean_arch.pdf"
   xmlns:inkscape="http://www.inkscape.org/namespaces/inkscape"
   xmlns:sodipodi="http://sodipodi.sourceforge.net/DTD/sodipodi-0.dtd"
   xmlns="http://www.w3.org/2000/svg"
   xmlns:svg="http://www.w3.org/2000/svg">
  <defs
     id="defs6">
    <clipPath
       clipPathUnits="userSpaceOnUse"
       id="clipPath18">
      <path
         d="m 4176,0 h 696 V 1056 H 4176 V 0"
         clip-rule="evenodd"
         id="path16" />
    </clipPath>
    <clipPath
       clipPathUnits="userSpaceOnUse"
       id="clipPath28">
      <path
         d="m 4176,66 h 696 V 996 H 4176 V 66"
         clip-rule="evenodd"
         id="path26" />
    </clipPath>
  </defs>
  <sodipodi:namedview
     id="namedview4"
     pagecolor="#ffffff"
     bordercolor="#000000"
     borderopacity="0.25"
     inkscape:showpageshadow="2"
     inkscape:pageopacity="0.0"
     inkscape:pagecheckerboard="0"
     inkscape:deskcolor="#d1d1d1" />
  <g
     id="g8"
     inkscape:groupmode="layer"
     inkscape:label="clean_arch"
     transform="translate(59.999999,2.64e-5)">
    <g
       id="g10" />
    <g
       id="g12"
       transform="translate(-4176)">
      <g
         id="g14"
         clip-path="url(#clipPath18)">
        <g
           id="g20" />
      </g>
    </g>
    <g
       id="g22"
       transform="translate(-4176)">
      <g
         id="g24"
         clip-path="url(#clipPath28)">
        <text
           xml:space="preserve"
           transform="translate(4176,83.01562)"
           style="font-variant:normal;font-weight:normal;font-size:20px;font-family:'Times New Roman';-inkscape-font-specification:TimesNewRomanPSMT;writing-mode:lr-tb;fill:#000000;fill-opacity:1;fill-rule:nonzero;stroke:none"
           id="text32"><tspan
             x="0 10 16 21 30 40 49 56 64 73 78 83 97 107 122 127 136 146 155 161 171 176 191 200"
             y="0"
             sodipodi:role="line"
             id="tspan30">of course. How could we?</tspan></text>
        <text
           xml:space="preserve"
           transform="translate(4176,126)"
           style="font-variant:normal;font-weight:normal;font-size:20px;font-family:'Times New Roman';-inkscape-font-specification:TimesNewRomanPSMT;writing-mode:lr-tb;fill:#000000;fill-opacity:1;fill-rule:nonzero;stroke:none"
           id="text36"><tspan
             x="0 14 23 32 37 47 53 58 63 72 82 90 99 104 118 124 132 137 146 155 164 172 177 192 201 209 214 219 229 234 244 250 259 269 274 284 293 300 305 314 324 334 343 348 358 364 371 380 389 394 400 409 414 419 429 434 439 448 457 462 468 482 487 497 506 516 522 531 540 548 553 558 564 570 575 590 599 604 613 622 631 641 650 660 665 670"
             y="0"
             sodipodi:role="line"
             id="tspan34">One of those mistakes was to bind our code directly to the IO devices. If we needed to</tspan></text>
        <text
           xml:space="preserve"
           transform="translate(4176,149)"
           style="font-variant:normal;font-weight:normal;font-size:20px;font-family:'Times New Roman';-inkscape-font-specification:TimesNewRomanPSMT;writing-mode:lr-tb;fill:#000000;fill-opacity:1;fill-rule:nonzero;stroke:none"
           id="text40"><tspan
             x="0 10 17 23 32 37 42 50 60 74 83 88 97 103 112 121 126 136 145 150 159 164 174 181 187 196 201 210 216 221 226 241 250 255 270 277 287 292 301 306 315 325 335 344 349 354 363 372 377 382 391 399 408 418 423 428 437 446 451 457 471 476 482 491 499 504 511 520 529 534 540 550 559 567 572 577 586 595 600 605 620 630 639 645"
             y="0"
             sodipodi:role="line"
             id="tspan38">print something on a printer, we wrote code that used the IO instructions that would</tspan></text>
        <text
           xml:space="preserve"
           transform="translate(4176,172)"
           style="font-variant:normal;font-weight:normal;font-size:20px;font-family:'Times New Roman';-inkscape-font-specification:TimesNewRomanPSMT;writing-mode:lr-tb;fill:#000000;fill-opacity:1;fill-rule:nonzero;stroke:none"
           id="text44"><tspan
             x="0 9 19 28 33 40 50 56 61 66 75 84 89 99 106 112 121 126 135 141 146 151 165 174 181 186 195 205 215 224 229 244 253 261"
             y="0"
             sodipodi:role="line"
             id="tspan42">control the printer. Our code was </tspan></text>
        <text
           xml:space="preserve"
           transform="translate(4442,172)"
           style="font-variant:normal;font-weight:normal;font-size:20px;font-family:'Times New Roman';-inkscape-font-specification:TimesNewRomanPSMT;writing-mode:lr-tb;fill:#000000;fill-opacity:1;fill-rule:nonzero;stroke:none"
           id="text48"><tspan
             x="0 10 19 29 35 44 53 58 68 77 87 96 105 115 124 133"
             y="0"
             sodipodi:role="line"
             id="tspan46">device dependent</tspan></text>
        <text
           xml:space="preserve"
           transform="translate(4580,172)"
           style="font-variant:normal;font-weight:normal;font-size:20px;font-family:'Times New Roman';-inkscape-font-specification:TimesNewRomanPSMT;writing-mode:lr-tb;fill:#000000;fill-opacity:1;fill-rule:nonzero;stroke:none"
           id="text52"><tspan
             x="0"
             y="0"
             id="tspan50">.</tspan></text>
        <text
           xml:space="preserve"
           transform="translate(4176,215)"
           style="font-variant:normal;font-weight:normal;font-size:20px;font-family:'Times New Roman';-inkscape-font-specification:TimesNewRomanPSMT;writing-mode:lr-tb;fill:#000000;fill-opacity:1;fill-rule:nonzero;stroke:none"
           id="text56"><tspan
             x="0 11 21 28 33 42 51 60 74 84 90 99 104 109 124 133 142 151 156 162 167 182 189 199 204 213 218 229 243 254 261 271 276 286 293 303 312 319 328 342 350 355 360 369 378 383 388 398 405 411 420 425 434 444 449 459 468 473 478 487 496 501 506 515 521 530 540 547 553 562 567 576 582 587 592 598 603 612 620 629 639 644 653 658 666 675"
             y="0"
             sodipodi:role="line"
             id="tspan54">For example, when I wrote PDP-8 programs that printed on the teleprinter, I used a set</tspan></text>
        <text
           xml:space="preserve"
           transform="translate(4176,238)"
           style="font-variant:normal;font-weight:normal;font-size:20px;font-family:'Times New Roman';-inkscape-font-specification:TimesNewRomanPSMT;writing-mode:lr-tb;fill:#000000;fill-opacity:1;fill-rule:nonzero;stroke:none"
           id="text60"><tspan
             x="0 10 16 21 35 44 53 62 68 77 86 91 97 106 114 119 126 135 144 149 155 165 174 182 187 192 201 210 215 220 226 236 246 255 264 274 279 285 291 300 309 314 319 328 334 342"
             y="0"
             sodipodi:role="line"
             id="tspan58">of machine instructions that looked like this:</tspan></text>
        <text
           xml:space="preserve"
           transform="translate(4176,278)"
           style="font-variant:normal;font-weight:bold;font-size:15px;font-family:'Times New Roman';-inkscape-font-specification:TimesNewRomanPS-BoldMT;writing-mode:lr-tb;fill:#0000ee;fill-opacity:1;fill-rule:nonzero;stroke:none"
           id="text64"><tspan
             x="0 11 15 19 26 35 39 47 55 61 69 73 78 86 90 98 102 110 120 124 131 139 147 155 159 163 175 182 190"
             y="0"
             sodipodi:role="line"
             id="tspan62">Click here to view code image</tspan></text>
        <path
           d="m 4176,279.5 h 197 z"
           style="fill:none;stroke:#0000ee;stroke-width:1;stroke-linecap:square;stroke-linejoin:miter;stroke-miterlimit:10;stroke-dasharray:none;stroke-opacity:1"
           id="path66" />
        <text
           xml:space="preserve"
           transform="translate(4177,317.5)"
           style="font-variant:normal;font-weight:normal;font-size:15px;font-family:'Courier New';-inkscape-font-specification:CourierNewPSMT;writing-mode:lr-tb;fill:#000000;fill-opacity:1;fill-rule:nonzero;stroke:none"
           id="text70"><tspan
             x="0 9 18 27 36 45 54 63 72"
             y="0"
             sodipodi:role="line"
             id="tspan68">PRTCHR, 0</tspan></text>
        <text
           xml:space="preserve"
           transform="translate(4249,334.5)"
           style="font-variant:normal;font-weight:normal;font-size:15px;font-family:'Courier New';-inkscape-font-specification:CourierNewPSMT;writing-mode:lr-tb;fill:#000000;fill-opacity:1;fill-rule:nonzero;stroke:none"
           id="text74"><tspan
             x="0 9 18"
             y="0"
             sodipodi:role="line"
             id="tspan72">TSF</tspan></text>
        <text
           xml:space="preserve"
           transform="translate(4249,351.5)"
           style="font-variant:normal;font-weight:normal;font-size:15px;font-family:'Courier New';-inkscape-font-specification:CourierNewPSMT;writing-mode:lr-tb;fill:#000000;fill-opacity:1;fill-rule:nonzero;stroke:none"
           id="text78"><tspan
             x="0 9 18 27 36 45 54"
             y="0"
             sodipodi:role="line"
             id="tspan76">JMP .-1</tspan></text>
        <text
           xml:space="preserve"
           transform="translate(4249,368.5)"
           style="font-variant:normal;font-weight:normal;font-size:15px;font-family:'Courier New';-inkscape-font-specification:CourierNewPSMT;writing-mode:lr-tb;fill:#000000;fill-opacity:1;fill-rule:nonzero;stroke:none"
           id="text82"><tspan
             x="0 9 18"
             y="0"
             sodipodi:role="line"
             id="tspan80">TLS</tspan></text>
        <text
           xml:space="preserve"
           transform="translate(4249,386)"
           style="font-variant:normal;font-weight:normal;font-size:15px;font-family:'Courier New';-inkscape-font-specification:CourierNewPSMT;writing-mode:lr-tb;fill:#000000;fill-opacity:1;fill-rule:nonzero;stroke:none"
           id="text86"><tspan
             x="0 9 18 27 36 45 54 63 72 81 90 99"
             y="0"
             sodipodi:role="line"
             id="tspan84">JMP I PRTCHR</tspan></text>
        <text
           xml:space="preserve"
           transform="translate(4176,434)"
           style="font-variant:normal;font-weight:normal;font-size:16px;font-family:'Courier New';-inkscape-font-specification:CourierNewPSMT;writing-mode:lr-tb;fill:#000000;fill-opacity:1;fill-rule:nonzero;stroke:none"
           id="text90"><tspan
             x="0 10 20 30 40 50"
             y="0"
             sodipodi:role="line"
             id="tspan88">PRTCHR</tspan></text>
        <text
           xml:space="preserve"
           transform="translate(4241,434)"
           style="font-variant:normal;font-weight:normal;font-size:20px;font-family:'Times New Roman';-inkscape-font-specification:TimesNewRomanPSMT;writing-mode:lr-tb;fill:#000000;fill-opacity:1;fill-rule:nonzero;stroke:none"
           id="text94"><tspan
             x="0 6 14 19 28 33 41 50 60 67 77 86 91 97 106 115 120 125 134 143 148 153 163 170 176 185 190 198 203 213 222 231 236 245 254 263 270 279 288 293 302 309 314 324 333 338 343 352 361 366 371 380 386 395 405 412 418 427 432 441 447 452 457 469 478 487 492 502 511 520 526 535 544 550 559 568 573 581 590 597"
             y="0"
             sodipodi:role="line"
             id="tspan92">is a subroutine that prints one character on the teleprinter. The beginning zero</tspan></text>
        <text
           xml:space="preserve"
           transform="translate(4176,457)"
           style="font-variant:normal;font-weight:normal;font-size:20px;font-family:'Times New Roman';-inkscape-font-specification:TimesNewRomanPSMT;writing-mode:lr-tb;fill:#000000;fill-opacity:1;fill-rule:nonzero;stroke:none"
           id="text98"><tspan
             x="0 15 24 32 37 46 54 63 73 78 87 95 100 105 114 123 128 136 141 151 158 167 176 185 190 196 206 213 218 223 232 241 246 253 262 267 276 283 292 297 306 316 326 333 342 350 358 363 368 375 389 399 408 415 420 425 434 442 451 456 463 468 480 489 498"
             y="0"
             sodipodi:role="line"
             id="tspan96">was used as the storage for the return address. (Don’t ask.) The </tspan></text>
        <text
           xml:space="preserve"
           transform="translate(4679,457)"
           style="font-variant:normal;font-weight:normal;font-size:16px;font-family:'Courier New';-inkscape-font-specification:CourierNewPSMT;writing-mode:lr-tb;fill:#000000;fill-opacity:1;fill-rule:nonzero;stroke:none"
           id="text102"><tspan
             x="0 10 20"
             y="0"
             sodipodi:role="line"
             id="tspan100">TSF</tspan></text>
        <text
           xml:space="preserve"
           transform="translate(4714,457)"
           style="font-variant:normal;font-weight:normal;font-size:20px;font-family:'Times New Roman';-inkscape-font-specification:TimesNewRomanPSMT;writing-mode:lr-tb;fill:#000000;fill-opacity:1;fill-rule:nonzero;stroke:none"
           id="text106"><tspan
             x="0 6 15 23 28 35 44 53 58 64 74 83 88 96 105 111 121 131 140"
             y="0"
             sodipodi:role="line"
             id="tspan104">instruction skipped</tspan></text>
        <text
           xml:space="preserve"
           transform="translate(4176,480)"
           style="font-variant:normal;font-weight:normal;font-size:20px;font-family:'Times New Roman';-inkscape-font-specification:TimesNewRomanPSMT;writing-mode:lr-tb;fill:#000000;fill-opacity:1;fill-rule:nonzero;stroke:none"
           id="text110"><tspan
             x="0 5 14 23 28 37 46 55 60 65 71 80 88 93 100 109 118 123 129 139 148 153 159 165 170 175 184 193 198 203 212 218 227 237 244 250 259 264 273 280 285 300 309 317 322 329 338 347 357 366 371 376 386 391 401 408 414 423 428 433 442 447 456 465 474 481 490 499 504 513 519 524 529 535 541 546 551 560 569 574 579 588 594 603 613 620 626 635 640 649 656 661 676 685"
             y="0"
             sodipodi:role="line"
             id="tspan108">the next instruction if the teleprinter was ready to print a character. If the teleprinter was</tspan></text>
        <text
           xml:space="preserve"
           transform="translate(4176,503)"
           style="font-variant:normal;font-weight:normal;font-size:20px;font-family:'Times New Roman';-inkscape-font-specification:TimesNewRomanPSMT;writing-mode:lr-tb;fill:#000000;fill-opacity:1;fill-rule:nonzero;stroke:none"
           id="text114"><tspan
             x="0 10 19 27 35 40 45 50 59 68 77"
             y="0"
             sodipodi:role="line"
             id="tspan112">busy, then </tspan></text>
        <text
           xml:space="preserve"
           transform="translate(4258,503)"
           style="font-variant:normal;font-weight:normal;font-size:16px;font-family:'Courier New';-inkscape-font-specification:CourierNewPSMT;writing-mode:lr-tb;fill:#000000;fill-opacity:1;fill-rule:nonzero;stroke:none"
           id="text118"><tspan
             x="0 10 20"
             y="0"
             sodipodi:role="line"
             id="tspan116">TSF</tspan></text>
        <text
           xml:space="preserve"
           transform="translate(4293,503)"
           style="font-variant:normal;font-weight:normal;font-size:20px;font-family:'Times New Roman';-inkscape-font-specification:TimesNewRomanPSMT;writing-mode:lr-tb;fill:#000000;fill-opacity:1;fill-rule:nonzero;stroke:none"
           id="text122"><tspan
             x="0 6 15 23 28 33 39 48 54 60 65 70 79 86 96 105 114 123 128 133 143"
             y="0"
             sodipodi:role="line"
             id="tspan120">just fell through to </tspan></text>
        <text
           xml:space="preserve"
           transform="translate(4441,503)"
           style="font-variant:normal;font-weight:normal;font-size:20px;font-family:'Times New Roman';-inkscape-font-specification:TimesNewRomanPSMT;writing-mode:lr-tb;fill:#000000;fill-opacity:1;fill-rule:nonzero;stroke:none"
           id="text126"><tspan
             x="0 5 14 23"
             y="0"
             sodipodi:role="line"
             id="tspan124">the </tspan></text>
        <text
           xml:space="preserve"
           transform="translate(4469,503)"
           style="font-variant:normal;font-weight:normal;font-size:16px;font-family:'Courier New';-inkscape-font-specification:CourierNewPSMT;writing-mode:lr-tb;fill:#000000;fill-opacity:1;fill-rule:nonzero;stroke:none"
           id="text130"><tspan
             x="0 10 20 30 40 50 60"
             y="0"
             sodipodi:role="line"
             id="tspan128">JMP .-1</tspan></text>
        <text
           xml:space="preserve"
           transform="translate(4544,503)"
           style="font-variant:normal;font-weight:normal;font-size:20px;font-family:'Times New Roman';-inkscape-font-specification:TimesNewRomanPSMT;writing-mode:lr-tb;fill:#000000;fill-opacity:1;fill-rule:nonzero;stroke:none"
           id="text134"><tspan
             x="0 6 15 23 28 35 44 53 58 64 74 83 88 93 108 117 123 132 141 146 152 161 169 174 179 185 194 208 218 227 237 242 252 261 270 279 284 289 299 304 309 318"
             y="0"
             sodipodi:role="line"
             id="tspan132">instruction, which just jumped back to the</tspan></text>
        <text
           xml:space="preserve"
           transform="translate(4176,526)"
           style="font-variant:normal;font-weight:normal;font-size:16px;font-family:'Courier New';-inkscape-font-specification:CourierNewPSMT;writing-mode:lr-tb;fill:#000000;fill-opacity:1;fill-rule:nonzero;stroke:none"
           id="text138"><tspan
             x="0 10 20"
             y="0"
             sodipodi:role="line"
             id="tspan136">TSF</tspan></text>
        <text
           xml:space="preserve"
           transform="translate(4211,526)"
           style="font-variant:normal;font-weight:normal;font-size:20px;font-family:'Times New Roman';-inkscape-font-specification:TimesNewRomanPSMT;writing-mode:lr-tb;fill:#000000;fill-opacity:1;fill-rule:nonzero;stroke:none"
           id="text142"><tspan
             x="0 6 15 23 28 35 44 53 58 64 74 83 88 93 99 105 110 115 124 133 138 143 152 158 167 177 184 190 199 204 213 220 225 240 249 257 262 269 278 287 297 305 310 315 320 329 338 347"
             y="0"
             sodipodi:role="line"
             id="tspan140">instruction. If the teleprinter was ready, then </tspan></text>
        <text
           xml:space="preserve"
           transform="translate(4563,526)"
           style="font-variant:normal;font-weight:normal;font-size:16px;font-family:'Courier New';-inkscape-font-specification:CourierNewPSMT;writing-mode:lr-tb;fill:#000000;fill-opacity:1;fill-rule:nonzero;stroke:none"
           id="text146"><tspan
             x="0 10 20"
             y="0"
             sodipodi:role="line"
             id="tspan144">TSF</tspan></text>
        <text
           xml:space="preserve"
           transform="translate(4598,526)"
           style="font-variant:normal;font-weight:normal;font-size:20px;font-family:'Times New Roman';-inkscape-font-specification:TimesNewRomanPSMT;writing-mode:lr-tb;fill:#000000;fill-opacity:1;fill-rule:nonzero;stroke:none"
           id="text150"><tspan
             x="0 15 25 34 40 50 55 63 72 78 88 93 98 108 113 118 127 136"
             y="0"
             sodipodi:role="line"
             id="tspan148">would skip to the </tspan></text>
        <text
           xml:space="preserve"
           transform="translate(4739,526)"
           style="font-variant:normal;font-weight:normal;font-size:16px;font-family:'Courier New';-inkscape-font-specification:CourierNewPSMT;writing-mode:lr-tb;fill:#000000;fill-opacity:1;fill-rule:nonzero;stroke:none"
           id="text154"><tspan
             x="0 10 20"
             y="0"
             sodipodi:role="line"
             id="tspan152">TLS</tspan></text>
        <text
           xml:space="preserve"
           transform="translate(4774,526)"
           style="font-variant:normal;font-weight:normal;font-size:20px;font-family:'Times New Roman';-inkscape-font-specification:TimesNewRomanPSMT;writing-mode:lr-tb;fill:#000000;fill-opacity:1;fill-rule:nonzero;stroke:none"
           id="text158"><tspan
             x="0 6 15 23 28 35 44 53 58 64 74 83"
             y="0"
             sodipodi:role="line"
             id="tspan156">instruction,</tspan></text>
        <text
           xml:space="preserve"
           transform="translate(4176,549)"
           style="font-variant:normal;font-weight:normal;font-size:20px;font-family:'Times New Roman';-inkscape-font-specification:TimesNewRomanPSMT;writing-mode:lr-tb;fill:#000000;fill-opacity:1;fill-rule:nonzero;stroke:none"
           id="text162"><tspan
             x="0 15 24 30 39 48 53 61 70 79 84 89 94 103 112 117 126 135 144 151 160 169 174 183 190 195 201 210 215 220 229 238"
             y="0"
             sodipodi:role="line"
             id="tspan160">which sent the character in the </tspan></text>
        <text
           xml:space="preserve"
           transform="translate(4419,549)"
           style="font-variant:normal;font-weight:normal;font-size:16px;font-family:'Courier New';-inkscape-font-specification:CourierNewPSMT;writing-mode:lr-tb;fill:#000000;fill-opacity:1;fill-rule:nonzero;stroke:none"
           id="text166"><tspan
             x="0"
             y="0"
             id="tspan164">A</tspan></text>
        <text
           xml:space="preserve"
           transform="translate(4434,549)"
           style="font-variant:normal;font-weight:normal;font-size:20px;font-family:'Times New Roman';-inkscape-font-specification:TimesNewRomanPSMT;writing-mode:lr-tb;fill:#000000;fill-opacity:1;fill-rule:nonzero;stroke:none"
           id="text170"><tspan
             x="0 7 16 25 31 39 44 53 60 65 70 80 85 90 99 108 113 118 127 133 142 152 159 165 174 179 188 194 199 204 216 225 234 243 248 253 262 271"
             y="0"
             sodipodi:role="line"
             id="tspan168">register to the teleprinter. Then the </tspan></text>
        <text
           xml:space="preserve"
           transform="translate(4710,549)"
           style="font-variant:normal;font-weight:normal;font-size:16px;font-family:'Courier New';-inkscape-font-specification:CourierNewPSMT;writing-mode:lr-tb;fill:#000000;fill-opacity:1;fill-rule:nonzero;stroke:none"
           id="text174"><tspan
             x="0 10 20 30 40 50 60 70 80 90 100 110"
             y="0"
             sodipodi:role="line"
             id="tspan172">JMP I PRTCHR</tspan></text>
        <text
           xml:space="preserve"
           transform="translate(4176,572)"
           style="font-variant:normal;font-weight:normal;font-size:20px;font-family:'Times New Roman';-inkscape-font-specification:TimesNewRomanPSMT;writing-mode:lr-tb;fill:#000000;fill-opacity:1;fill-rule:nonzero;stroke:none"
           id="text178"><tspan
             x="0 6 15 23 28 35 44 53 58 64 74 83 88 95 104 109 118 125 134 143 153 158 163 173 178 183 192 201 206 215 224 230 236 245 251"
             y="0"
             sodipodi:role="line"
             id="tspan176">instruction returned to the caller.</tspan></text>
        <text
           xml:space="preserve"
           transform="translate(4176,615)"
           style="font-variant:normal;font-weight:normal;font-size:20px;font-family:'Times New Roman';-inkscape-font-specification:TimesNewRomanPSMT;writing-mode:lr-tb;fill:#000000;fill-opacity:1;fill-rule:nonzero;stroke:none"
           id="text182"><tspan
             x="0 14 19 24 30 36 43 51 56 61 66 75 81 89 94 102 107 114 123 128 137 146 155 160 175 185 192 201 210 220 225 231 237 246 255 260 265 271 277 282 297 306 311 320 329 338 348 357 367 372 377 387 392 399 408 417 427 432 441 450 457 467 475 480 486 493 503 517 522 527 536 545 550 559 568 575 585 590 597 606 615 625 634 640 645 650 665"
             y="0"
             sodipodi:role="line"
             id="tspan180">At first this strategy worked fine. If we needed to read cards from the card reader, we</tspan></text>
        <text
           xml:space="preserve"
           transform="translate(4176,638)"
           style="font-variant:normal;font-weight:normal;font-size:20px;font-family:'Times New Roman';-inkscape-font-specification:TimesNewRomanPSMT;writing-mode:lr-tb;fill:#000000;fill-opacity:1;fill-rule:nonzero;stroke:none"
           id="text186"><tspan
             x="0 9 17 26 36 41 50 60 70 79 84 89 98 107 112 117 122 131 137 146 155 165 170 180 186 193 202 211 216 222 231 236 241 251 256 261 270 279 284 293 302 309 319 324 331 340 349 359 368 374 379 384 390 396 401 416 425 430 439 448 457 467 476 486 491 496 506 511 521 530 539 548 557 562 571 580 587 597 605 610 615 630 639 644 659 666 676 681"
             y="0"
             sodipodi:role="line"
             id="tspan184">used code that talked directly to the card reader. If we needed to punch cards, we wrote</tspan></text>
        <text
           xml:space="preserve"
           transform="translate(4176,661)"
           style="font-variant:normal;font-weight:normal;font-size:20px;font-family:'Times New Roman';-inkscape-font-specification:TimesNewRomanPSMT;writing-mode:lr-tb;fill:#000000;fill-opacity:1;fill-rule:nonzero;stroke:none"
           id="text190"><tspan
             x="0 9 19 29 38 43 48 57 66 71 76 86 92 99 108 117 122 128 137 142 156 165 174 180 190 199 205 214 219 228 238 243 248 257 266 271 281 290 299 308 317 322 327 339 348 357 362 372 379 389 398 405 414 428 436 441 456 466 473 482 491 501 506 516 525 532 538 547 556 561 567 575 580 585 599 609 624 629 638 648 657 663"
             y="0"
             sodipodi:role="line"
             id="tspan188">code that directly manipulated the punch. The programs worked perfectly. How could</tspan></text>
        <text
           xml:space="preserve"
           transform="translate(4176,684)"
           style="font-variant:normal;font-weight:normal;font-size:20px;font-family:'Times New Roman';-inkscape-font-specification:TimesNewRomanPSMT;writing-mode:lr-tb;fill:#000000;fill-opacity:1;fill-rule:nonzero;stroke:none"
           id="text194"><tspan
             x="0 15 24 29 38 47 57 72 77 82 91 97 105 110 125 134 142 147 156 161 175 181 189 194 203 212 221"
             y="0"
             sodipodi:role="line"
             id="tspan192">we know this was a mistake?</tspan></text>
        <text
           xml:space="preserve"
           transform="translate(4176,727)"
           style="font-variant:normal;font-weight:normal;font-size:20px;font-family:'Times New Roman';-inkscape-font-specification:TimesNewRomanPSMT;writing-mode:lr-tb;fill:#000000;fill-opacity:1;fill-rule:nonzero;stroke:none"
           id="text198"><tspan
             x="0 13 22 27 32 42 48 57 62 72 81 86 95 104 113 121 126 136 142 147 157 166 175 184 193 202 212 217 226 235 242 252 260 265 274 281 290 295 305 311 317 323 329 338 347 353 358 363 368 378 383 397 406 415 424 433 442 447 452 464 473 482 491 496 505 514 523 528 538 547 552 558 568 576 581 586 591 605 614 619 625 631 640 645 654 664"
             y="0"
             sodipodi:role="line"
             id="tspan196">But big batches of punched cards are difficult to manage. They can be lost, mutilated,</tspan></text>
        <text
           xml:space="preserve"
           transform="translate(4176,750)"
           style="font-variant:normal;font-weight:normal;font-size:20px;font-family:'Times New Roman';-inkscape-font-specification:TimesNewRomanPSMT;writing-mode:lr-tb;fill:#000000;fill-opacity:1;fill-rule:nonzero;stroke:none"
           id="text202"><tspan
             x="0 8 18 24 33 43 49 58 68 73 78 86 95 104 110 116 122 131 141 146 151 161 168 173 183 190 200 210 220 229 239 244 249 255 264 274 280 290 296 306 315 324 330 335 344 353 360 370 378 383 392 401 410 415 425 434 439 445 455 463 468 473 482 491 501 506 515 524 529 536 545 550 559 568 575 585 593 598 607 616 625 630 640"
             y="0"
             sodipodi:role="line"
             id="tspan200">spindled, shuffled, or dropped. Individual cards can be lost and extra cards can be</tspan></text>
        <text
           xml:space="preserve"
           transform="translate(4176,773)"
           style="font-variant:normal;font-weight:normal;font-size:20px;font-family:'Times New Roman';-inkscape-font-specification:TimesNewRomanPSMT;writing-mode:lr-tb;fill:#000000;fill-opacity:1;fill-rule:nonzero;stroke:none"
           id="text206"><tspan
             x="0 6 15 23 32 39 44 53 63 68 73 84 94 99 109 118 123 132 137 143 152 157 166 175 182 188 193 202 207 217 226 235 244 258 267 272 281 286 294 300 309 318 324 330 336 345 354 363 368 373 383 390 400 410 416 425 439"
             y="0"
             sodipodi:role="line"
             id="tspan204">inserted. So data integrity became a significant problem.</tspan></text>
        <text
           xml:space="preserve"
           transform="translate(4176,816)"
           style="font-variant:normal;font-weight:normal;font-size:20px;font-family:'Times New Roman';-inkscape-font-specification:TimesNewRomanPSMT;writing-mode:lr-tb;fill:#000000;fill-opacity:1;fill-rule:nonzero;stroke:none"
           id="text210"><tspan
             x="0 17 26 35 44 53 58 64 73 78 83 92 102 111 116 131 140 148 153 158 167 176 181 189 199 205 214 219 225 235 244 249 254 270 279 284 293 303 312 318 328 333 347 357 367 376 381 386 395 404 409 418 427 434 444 449 455 469 478 487 496 504 509 514 524 529 534 543 553 562 567 572 578 584 589 598 608 617 622 632 639 649 659 664"
             y="0"
             sodipodi:role="line"
             id="tspan208">Magnetic tape was the solution. We could move the card images to tape. If you drop a</tspan></text>
        <text
           xml:space="preserve"
           transform="translate(4176,839)"
           style="font-variant:normal;font-weight:normal;font-size:20px;font-family:'Times New Roman';-inkscape-font-specification:TimesNewRomanPSMT;writing-mode:lr-tb;fill:#000000;fill-opacity:1;fill-rule:nonzero;stroke:none"
           id="text214"><tspan
             x="0 14 23 32 41 50 55 61 70 75 80 89 99 108 113 118 123 132 141 146 153 162 171 181 188 198 206 211 221 231 240 247 252 257 266 275 280 285 293 302 311 317 323 329 338 348 353 358 370 380 389 394 403 412 421 428 433 438 447 456 465 471 481 490 499 504 513 519 525 534 539 545 555 563 572 577 586 591 598 607 616 626 633 643 648 653 663"
             y="0"
             sodipodi:role="line"
             id="tspan212">magnetic tape, the records don’t get shuffled. You can’t accidentally lose a record, or</tspan></text>
        <text
           xml:space="preserve"
           transform="translate(4176,862)"
           style="font-variant:normal;font-weight:normal;font-size:20px;font-family:'Times New Roman';-inkscape-font-specification:TimesNewRomanPSMT;writing-mode:lr-tb;fill:#000000;fill-opacity:1;fill-rule:nonzero;stroke:none"
           id="text218"><tspan
             x="0 6 15 23 32 39 44 49 58 63 73 79 88 97 106 111 118 127 136 146 153 163 168 176 182 196 206 212 221 226 236 245 250 259 268 277 287 293 302 311 316 321 330 339 344 349 358 368 377 382 387 399 408 417 422 427 436 446 455 460 466 474 479 493 502 511 520 525 539 549 556 565 570 578 587 596 605 612 621 626 631 637 642 648 656 661 670 676 684"
             y="0"
             sodipodi:role="line"
             id="tspan216">insert a blank record simply by handing the tape. The tape is much more secure. It’s also</tspan></text>
        <text
           xml:space="preserve"
           transform="translate(4176,885)"
           style="font-variant:normal;font-weight:normal;font-size:20px;font-family:'Times New Roman';-inkscape-font-specification:TimesNewRomanPSMT;writing-mode:lr-tb;fill:#000000;fill-opacity:1;fill-rule:nonzero;stroke:none"
           id="text222"><tspan
             x="0 6 15 23 28 37 44 49 54 64 69 76 85 94 104 109 118 127 137 142 157 164 170 175 184 189 194 203 212 222 227 233 238 243 249 257 262 272 281 288 297 302 311 320 328 337 342 347 357 362 376 385 394 403 408 418 427 436 445 454 464 469 478 488 498 504 513 521"
             y="0"
             sodipodi:role="line"
             id="tspan220">faster to read and write, and it is very easy to make backup copies.</tspan></text>
        <text
           xml:space="preserve"
           transform="translate(4176,928)"
           style="font-variant:normal;font-weight:normal;font-size:20px;font-family:'Times New Roman';-inkscape-font-specification:TimesNewRomanPSMT;writing-mode:lr-tb;fill:#000000;fill-opacity:1;fill-rule:nonzero;stroke:none"
           id="text226"><tspan
             x="0 13 22 28 38 45 50 59 68 77 82 91 97 105 110 115 124 130 136 141 151 160 167 172 180 190 196 201 216 225 232 241 246 261 270 278 283 298 305 311 316 321 330 339 344 349 359 364 378 387 396 402 412 421 427 436 441 450 455 464 473 480 490 495 502 511 520 530 539 546 554 559 568 577 587 592 601 610 617"
             y="0"
             sodipodi:role="line"
             id="tspan224">Unfortunately, all our software was written to manipulate card readers and card</tspan></text>
        <text
           xml:space="preserve"
           transform="translate(4176,951)"
           style="font-variant:normal;font-weight:normal;font-size:20px;font-family:'Times New Roman';-inkscape-font-specification:TimesNewRomanPSMT;writing-mode:lr-tb;fill:#000000;fill-opacity:1;fill-rule:nonzero;stroke:none"
           id="text230"><tspan
             x="0 10 19 28 37 46 55 63 68 73 85 94 104 112 121 126 136 143 153 162 169 178 192 200 205 214 223 233 238 243 253 258 268 277 282 289 298 313 320 326 331 336 345 354 359 364 374 379 388 396 405 410 424 433 442 451 460 465 471 480 485 490 499 509 518 523 528 540 549 558 563 568 583 592 600 605 614 619 629 635 644 649 655 665 675"
             y="0"
             sodipodi:role="line"
             id="tspan228">punches. Those programs had to be rewritten to use magnetic tape. That was a big job.</tspan></text>
      </g>
    </g>
  </g>
</svg>
