<?xml version="1.0" encoding="UTF-8" standalone="no"?>
<!-- Created with Inkscape (http://www.inkscape.org/) -->

<svg
   version="1.1"
   id="svg2"
   width="816"
   height="1056"
   viewBox="0 0 816 1056"
   sodipodi:docname="clean_arch.pdf"
   xmlns:inkscape="http://www.inkscape.org/namespaces/inkscape"
   xmlns:sodipodi="http://sodipodi.sourceforge.net/DTD/sodipodi-0.dtd"
   xmlns="http://www.w3.org/2000/svg"
   xmlns:svg="http://www.w3.org/2000/svg">
  <defs
     id="defs6">
    <clipPath
       clipPathUnits="userSpaceOnUse"
       id="clipPath18">
      <path
         d="m 696,0 h 696 V 1056 H 696 V 0"
         clip-rule="evenodd"
         id="path16" />
    </clipPath>
    <clipPath
       clipPathUnits="userSpaceOnUse"
       id="clipPath28">
      <path
         d="m 696,66 h 696 V 996 H 696 V 66"
         clip-rule="evenodd"
         id="path26" />
    </clipPath>
  </defs>
  <sodipodi:namedview
     id="namedview4"
     pagecolor="#ffffff"
     bordercolor="#000000"
     borderopacity="0.25"
     inkscape:showpageshadow="2"
     inkscape:pageopacity="0.0"
     inkscape:pagecheckerboard="0"
     inkscape:deskcolor="#d1d1d1" />
  <g
     id="g8"
     inkscape:groupmode="layer"
     inkscape:label="clean_arch"
     transform="translate(59.999999,2.64e-5)">
    <g
       id="g10" />
    <g
       id="g12"
       transform="translate(-696)">
      <g
         id="g14"
         clip-path="url(#clipPath18)">
        <g
           id="g20" />
      </g>
    </g>
    <g
       id="g22"
       transform="translate(-696)">
      <g
         id="g24"
         clip-path="url(#clipPath28)">
        <text
           xml:space="preserve"
           transform="translate(696,83)"
           style="font-variant:normal;font-weight:normal;font-size:20px;font-family:'Times New Roman';-inkscape-font-specification:TimesNewRomanPSMT;writing-mode:lr-tb;fill:#000000;fill-opacity:1;fill-rule:nonzero;stroke:none"
           id="text32"><tspan
             x="0 12 22 31 40 47 52 65 75 85 95 100 110 119 125 131 140 149 159 164 169 178 187 192 202 209 215 224 233 239 249 255 264 272 277 287 293 298 305 314 320 329 334 340 350 359 368 374 379 389 398 403 412 422 431 439 448 456 461 467 476 481 491 501 511 521 526 531 544 553 558 563 572 581 586 600 606 616 623 633 643 653 663 671"
             y="0"
             sodipodi:role="line"
             id="tspan30">Edgar Codd defined the principles of relational databases in 1970. By the mid-1980s,</tspan></text>
        <text
           xml:space="preserve"
           transform="translate(696,106)"
           style="font-variant:normal;font-weight:normal;font-size:20px;font-family:'Times New Roman';-inkscape-font-specification:TimesNewRomanPSMT;writing-mode:lr-tb;fill:#000000;fill-opacity:1;fill-rule:nonzero;stroke:none"
           id="text36"><tspan
             x="0 5 14 23 28 35 44 50 59 64 70 80 89 98 104 109 123 133 143 152 158 163 172 181 191 196 205 212 222 237 246 251 256 266 271 281 290 299 309 323 332 337 342 351 360 365 375 385 399 405 414 423 432 437 442 448 458 465 479 484 494 500 505 515 524 529 538 543 551 556 566 573 582 591 600 605 610 622 631 640 647 656 661 676 685"
             y="0"
             sodipodi:role="line"
             id="tspan34">the relational model had grown to become the dominant form of data storage. There was</tspan></text>
        <text
           xml:space="preserve"
           transform="translate(696,129)"
           style="font-variant:normal;font-weight:normal;font-size:20px;font-family:'Times New Roman';-inkscape-font-specification:TimesNewRomanPSMT;writing-mode:lr-tb;fill:#000000;fill-opacity:1;fill-rule:nonzero;stroke:none"
           id="text40"><tspan
             x="0 9 14 23 33 43 53 58 65 74 83 91 101 110 115 121 131 138 143 148 157 163 171 176 186 196 206 215 221 230 237 243 248 257 263 268 280 289 298 303 310 319 325 334 339 345 355 364 373 379 384 398 408 418 427 433 438 444 452 457 466 472 481 490 499 508 513 518 523 533 539 547 556 562 572 578 584 593 602 612 617 622 631 640"
             y="0"
             sodipodi:role="line"
             id="tspan38">a good reason for this popularity: The relational model is elegant, disciplined, and</tspan></text>
        <text
           xml:space="preserve"
           transform="translate(696,152)"
           style="font-variant:normal;font-weight:normal;font-size:20px;font-family:'Times New Roman';-inkscape-font-specification:TimesNewRomanPSMT;writing-mode:lr-tb;fill:#000000;fill-opacity:1;fill-rule:nonzero;stroke:none"
           id="text44"><tspan
             x="0 7 17 27 36 44 49 54 59 65 70 75 81 89 94 103 112 117 126 135 144 153 159 165 174 183 188 193 203 212 217 226 231 239 244 254 261 270 279 288 293 302 311 321 326 335 344 353 362 370 378 383 388 397 406 415 424 434 440 450 459 467"
             y="0"
             sodipodi:role="line"
             id="tspan42">robust. It is an excellent data storage and access technology.</tspan></text>
        <text
           xml:space="preserve"
           transform="translate(696,195)"
           style="font-variant:normal;font-weight:normal;font-size:20px;font-family:'Times New Roman';-inkscape-font-specification:TimesNewRomanPSMT;writing-mode:lr-tb;fill:#000000;fill-opacity:1;fill-rule:nonzero;stroke:none"
           id="text48"><tspan
             x="0 13 22 27 32 41 51 56 70 79 84 89 98 105 110 119 129 144 149 159 166 172 178 184 190 199 208 213 218 223 232 240 249 255 264 270 275 280 289 298 308 313 327 336 341 350 359 373 382 387 393 402 411 417 423 432 437 445 455 464 473 483 488 497 502 507 516 525 534 543 553 559 569 578 587 592 598 603 608 614 622 627 632 638 643 648 654"
             y="0"
             sodipodi:role="line"
             id="tspan46">But no matter how brilliant, useful, and mathematically sound a technology it is, it is</tspan></text>
        <text
           xml:space="preserve"
           transform="translate(696,218)"
           style="font-variant:normal;font-weight:normal;font-size:20px;font-family:'Times New Roman';-inkscape-font-specification:TimesNewRomanPSMT;writing-mode:lr-tb;fill:#000000;fill-opacity:1;fill-rule:nonzero;stroke:none"
           id="text52"><tspan
             x="0 8 13 19 25 31 36 42 51 59 64 69 78 83 88 97 106 115 124 134 140 150 159 167 172 177 191 200 210 215 220 229 238 243 248 262 271 280 289 297 302 308 313 319 327 332 341 346 356 365 370 379 385 391"
             y="0"
             sodipodi:role="line"
             id="tspan50">still just a technology. And that means it’s a detail.</tspan></text>
        <text
           xml:space="preserve"
           transform="translate(696,261)"
           style="font-variant:normal;font-weight:normal;font-size:20px;font-family:'Times New Roman';-inkscape-font-specification:TimesNewRomanPSMT;writing-mode:lr-tb;fill:#000000;fill-opacity:1;fill-rule:nonzero;stroke:none"
           id="text56"><tspan
             x="0 18 27 33 39 48 53 60 69 75 84 89 95 105 114 123 129 134 139 148 158 164 173 181 186 200 209 218 223 233 242 247 256 266 275 285 294 303 309 318 327 332 337 343 353 360 365 374 383 390 395 404 410 419 424 430 440 447 461 469 474 484 490 495 505 514 519 528 533 542 551 560 569 577 585 590 595 600 609 618 625 634 639 645"
             y="0"
             sodipodi:role="line"
             id="tspan54">While relational tables may be convenient for certain forms of data access, there is</tspan></text>
        <text
           xml:space="preserve"
           transform="translate(696,284)"
           style="font-variant:normal;font-weight:normal;font-size:20px;font-family:'Times New Roman';-inkscape-font-specification:TimesNewRomanPSMT;writing-mode:lr-tb;fill:#000000;fill-opacity:1;fill-rule:nonzero;stroke:none"
           id="text60"><tspan
             x="0 9 19 24 33 39 48 57 62 71 78 87 96 102 107 116 125 130 139 146 155 161 167 176 181 189 195 204 213 219 225 231 240 249 258 263 268 277 287 297 306 311 316 325 332 339 348 357 366 372 381 390 395 405 414 419 428 433 439 448 453 463 468 475 485 500 508 513 528 534 539 548 554 563 568 573 582 592 598 607 615 620 625 637 646 655 660 669 677"
             y="0"
             sodipodi:role="line"
             id="tspan58">nothing architecturally significant about arranging data into rows within tables. The use</tspan></text>
        <text
           xml:space="preserve"
           transform="translate(696,307)"
           style="font-variant:normal;font-weight:normal;font-size:20px;font-family:'Times New Roman';-inkscape-font-specification:TimesNewRomanPSMT;writing-mode:lr-tb;fill:#000000;fill-opacity:1;fill-rule:nonzero;stroke:none"
           id="text64"><tspan
             x="0 9 18 26 35 43 48 58 64 69 78 88 97 104 109 118 128 138 144 150 159 168 173 179 189 198 203 211 220 230 239 245 255 260 269 278 284 289 298 307 314 319 328 337 347 362 367 376 386 393 398 407 416 423 432 437 446 456 466 475 480 485 493 502 511 520 525 539 548 553 558 567 574 582 587 592 598 607 617 626 635 645"
             y="0"
             sodipodi:role="line"
             id="tspan62">cases of your application should neither know nor care about such matters. Indeed,</tspan></text>
        <text
           xml:space="preserve"
           transform="translate(696,330)"
           style="font-variant:normal;font-weight:normal;font-size:20px;font-family:'Times New Roman';-inkscape-font-specification:TimesNewRomanPSMT;writing-mode:lr-tb;fill:#000000;fill-opacity:1;fill-rule:nonzero;stroke:none"
           id="text68"><tspan
             x="0 9 18 28 43 49 58 68 77 86 91 101 107 112 117 126 135 140 145 154 164 173 179 188 195 200 208 213 220 229 238 243 252 259 268 273 283 289 294 299 308 317 322 332 341 346 355 360 368 377 387 396 402 412 417 427 436 441 448 457 465 470 477 483 492 497 506 516 521 526 536 541 546 555 564 569 575 585 600 609 617 622 629 635 644 654 663"
             y="0"
             sodipodi:role="line"
             id="tspan66">knowledge of the tabular structure of the data should be restricted to the lowest-level</tspan></text>
        <text
           xml:space="preserve"
           transform="translate(696,353)"
           style="font-variant:normal;font-weight:normal;font-size:20px;font-family:'Times New Roman';-inkscape-font-specification:TimesNewRomanPSMT;writing-mode:lr-tb;fill:#000000;fill-opacity:1;fill-rule:nonzero;stroke:none"
           id="text72"><tspan
             x="0 9 14 20 26 32 37 46 51 57 66 75 84 89 95 105 114 122 127 133 142 147 152 161 170 175 185 194 199 208 215 220 229 235 242 251 257 266 274 279 289 295 300 305 314 323 328 337 344 353 362 368 373 382 391 396 405 412 421"
             y="0"
             sodipodi:role="line"
             id="tspan70">utility functions in the outer circles of the architecture.</tspan></text>
        <text
           xml:space="preserve"
           transform="translate(696,396)"
           style="font-variant:normal;font-weight:normal;font-size:20px;font-family:'Times New Roman';-inkscape-font-specification:TimesNewRomanPSMT;writing-mode:lr-tb;fill:#000000;fill-opacity:1;fill-rule:nonzero;stroke:none"
           id="text76"><tspan
             x="0 17 26 35 44 49 59 68 73 82 87 96 105 114 123 131 139 144 150 157 166 180 189 204 214 221 230 238 243 252 258 264 274 289 294 304 313 318 327 337 346 354 363 368 375 385 400 408 413 422 431 441 446 451 460 470 476 485 493 498 503 513 518 528 537 542 552 561 569 577 586 596 601 610 617 627 636 645 655 660 665 674"
             y="0"
             sodipodi:role="line"
             id="tspan74">Many data access frameworks allow database rows and tables to be passed around the</tspan></text>
        <text
           xml:space="preserve"
           transform="translate(696,419)"
           style="font-variant:normal;font-weight:normal;font-size:20px;font-family:'Times New Roman';-inkscape-font-specification:TimesNewRomanPSMT;writing-mode:lr-tb;fill:#000000;fill-opacity:1;fill-rule:nonzero;stroke:none"
           id="text80"><tspan
             x="0 8 17 25 30 39 53 58 67 75 80 90 100 106 115 124 129 137 142 147 161 167 173 183 198 204 213 222 227 232 241 247 255 260 266 274 279 288 297 302 311 318 327 336 342 347 356 365 370 379 386 395 401 406 415 422 429 439 445 450 455 461 466 471 480 490 499 509 515 524 532 537 542 551 560 565 574 582 591 596 605 614 622 631 639"
             y="0"
             sodipodi:role="line"
             id="tspan78">system as objects. Allowing this is an architectural error. It couples the use cases,</tspan></text>
        <text
           xml:space="preserve"
           transform="translate(696,442)"
           style="font-variant:normal;font-weight:normal;font-size:20px;font-family:'Times New Roman';-inkscape-font-specification:TimesNewRomanPSMT;writing-mode:lr-tb;fill:#000000;fill-opacity:1;fill-rule:nonzero;stroke:none"
           id="text84"><tspan
             x="0 10 19 27 33 42 51 59 67 72 79 88 94 103 111 116 121 130 139 149 154 160 169 174 182 192 206 215 220 229 238 246 255 263 268 277 287 296 305 310 315 324 333 338 351 357 362 367 377 382 387 396 405 410 417 426 432 441 446 452 462 471 480 486 491 499 504 511 520 529 534 543 550 559 564 574 580 585 590 599 608 613 623 632 637 646"
             y="0"
             sodipodi:role="line"
             id="tspan82">business rules, and in some cases even the UI to the relational structure of the data.</tspan></text>
        <text
           xml:space="preserve"
           transform="translate(696,512)"
           style="font-variant:normal;font-weight:bold;font-size:33px;font-family:'Times New Roman';-inkscape-font-specification:TimesNewRomanPS-BoldMT;writing-mode:lr-tb;fill:#000000;fill-opacity:1;fill-rule:nonzero;stroke:none"
           id="text88"><tspan
             x="0"
             y="0"
             id="tspan86">W</tspan></text>
        <text
           xml:space="preserve"
           transform="translate(728,512)"
           style="font-variant:normal;font-weight:bold;font-size:33px;font-family:'Times New Roman';-inkscape-font-specification:TimesNewRomanPS-BoldMT;writing-mode:lr-tb;fill:#000000;fill-opacity:1;fill-rule:nonzero;stroke:none"
           id="text92"><tspan
             x="0 26"
             y="0"
             sodipodi:role="line"
             id="tspan90">HY</tspan></text>
        <text
           xml:space="preserve"
           transform="translate(786,512)"
           style="font-variant:normal;font-weight:bold;font-size:33px;font-family:'Times New Roman';-inkscape-font-specification:TimesNewRomanPS-BoldMT;writing-mode:lr-tb;fill:#000000;fill-opacity:1;fill-rule:nonzero;stroke:none"
           id="text96"><tspan
             x="0"
             y="0"
             id="tspan94">A</tspan></text>
        <text
           xml:space="preserve"
           transform="translate(809,512)"
           style="font-variant:normal;font-weight:bold;font-size:33px;font-family:'Times New Roman';-inkscape-font-specification:TimesNewRomanPS-BoldMT;writing-mode:lr-tb;fill:#000000;fill-opacity:1;fill-rule:nonzero;stroke:none"
           id="text100"><tspan
             x="0 24"
             y="0"
             sodipodi:role="line"
             id="tspan98">RE</tspan></text>
        <text
           xml:space="preserve"
           transform="translate(863,512)"
           style="font-variant:normal;font-weight:bold;font-size:33px;font-family:'Times New Roman';-inkscape-font-specification:TimesNewRomanPS-BoldMT;writing-mode:lr-tb;fill:#000000;fill-opacity:1;fill-rule:nonzero;stroke:none"
           id="text104"><tspan
             x="0"
             y="0"
             id="tspan102">D</tspan></text>
        <text
           xml:space="preserve"
           transform="translate(887,512)"
           style="font-variant:normal;font-weight:bold;font-size:33px;font-family:'Times New Roman';-inkscape-font-specification:TimesNewRomanPS-BoldMT;writing-mode:lr-tb;fill:#000000;fill-opacity:1;fill-rule:nonzero;stroke:none"
           id="text108"><tspan
             x="0 20 39 62 84 107 125"
             y="0"
             sodipodi:role="line"
             id="tspan106">ATABASE</tspan></text>
        <text
           xml:space="preserve"
           transform="translate(1042,512)"
           style="font-variant:normal;font-weight:bold;font-size:33px;font-family:'Times New Roman';-inkscape-font-specification:TimesNewRomanPS-BoldMT;writing-mode:lr-tb;fill:#000000;fill-opacity:1;fill-rule:nonzero;stroke:none"
           id="text112"><tspan
             x="0"
             y="0"
             id="tspan110">S</tspan></text>
        <text
           xml:space="preserve"
           transform="translate(1060,512)"
           style="font-variant:normal;font-weight:bold;font-size:33px;font-family:'Times New Roman';-inkscape-font-specification:TimesNewRomanPS-BoldMT;writing-mode:lr-tb;fill:#000000;fill-opacity:1;fill-rule:nonzero;stroke:none"
           id="text116"><tspan
             x="0 24 42 64 86 118"
             y="0"
             sodipodi:role="line"
             id="tspan114">YSTEMS</tspan></text>
        <text
           xml:space="preserve"
           transform="translate(1204,512)"
           style="font-variant:normal;font-weight:bold;font-size:33px;font-family:'Times New Roman';-inkscape-font-specification:TimesNewRomanPS-BoldMT;writing-mode:lr-tb;fill:#000000;fill-opacity:1;fill-rule:nonzero;stroke:none"
           id="text120"><tspan
             x="0"
             y="0"
             id="tspan118">S</tspan></text>
        <text
           xml:space="preserve"
           transform="translate(1222,512)"
           style="font-variant:normal;font-weight:bold;font-size:33px;font-family:'Times New Roman';-inkscape-font-specification:TimesNewRomanPS-BoldMT;writing-mode:lr-tb;fill:#000000;fill-opacity:1;fill-rule:nonzero;stroke:none"
           id="text124"><tspan
             x="0"
             y="0"
             id="tspan122">O</tspan></text>
        <text
           xml:space="preserve"
           transform="translate(696,551)"
           style="font-variant:normal;font-weight:bold;font-size:33px;font-family:'Times New Roman';-inkscape-font-specification:TimesNewRomanPS-BoldMT;writing-mode:lr-tb;fill:#000000;fill-opacity:1;fill-rule:nonzero;stroke:none"
           id="text128"><tspan
             x="0"
             y="0"
             id="tspan126">P</tspan></text>
        <text
           xml:space="preserve"
           transform="translate(716,551)"
           style="font-variant:normal;font-weight:bold;font-size:33px;font-family:'Times New Roman';-inkscape-font-specification:TimesNewRomanPS-BoldMT;writing-mode:lr-tb;fill:#000000;fill-opacity:1;fill-rule:nonzero;stroke:none"
           id="text132"><tspan
             x="0 24 46 64 87 109 131 155"
             y="0"
             sodipodi:role="line"
             id="tspan130">REVALENT</tspan></text>
        <text
           xml:space="preserve"
           transform="translate(893,551)"
           style="font-variant:normal;font-weight:bold;font-size:33px;font-family:'Times New Roman';-inkscape-font-specification:TimesNewRomanPS-BoldMT;writing-mode:lr-tb;fill:#000000;fill-opacity:1;fill-rule:nonzero;stroke:none"
           id="text136"><tspan
             x="0"
             y="0"
             id="tspan134">?</tspan></text>
        <text
           xml:space="preserve"
           transform="translate(696,596)"
           style="font-variant:normal;font-weight:normal;font-size:20px;font-family:'Times New Roman';-inkscape-font-specification:TimesNewRomanPSMT;writing-mode:lr-tb;fill:#000000;fill-opacity:1;fill-rule:nonzero;stroke:none"
           id="text140"><tspan
             x="0 18 27 36 41 50 57 66 71 79 89 95 100 115 124 131 140 145 153 162 170 175 184 198 206 211 220 229 239 244 252 262 268 273 288 297 304 313 318 327 336 341 350 357 367 374 380 388 397 405 410 420 430 444 450 459 468 473 482 492 497 507 516 521 531 540 545 554 564 573 581 590 595 603 612 620 625 634 648 656"
             y="0"
             sodipodi:role="line"
             id="tspan138">Why are software systems and software enterprises dominated by database systems?</tspan></text>
        <text
           xml:space="preserve"
           transform="translate(696,619)"
           style="font-variant:normal;font-weight:normal;font-size:20px;font-family:'Times New Roman';-inkscape-font-specification:TimesNewRomanPSMT;writing-mode:lr-tb;fill:#000000;fill-opacity:1;fill-rule:nonzero;stroke:none"
           id="text144"><tspan
             x="0 18 27 36 41 46 55 64 73 83 92 101 106 114 119 125 135 142 147 152 161 170 175 185 192 201 210 224 230 239 248 257 266 275 280 290 296 301 315 322 331 340 346 355 360 365 382 391 402 416 427 432 437 446 455 465 470 481 495 505 510 521 530 537 547 556 563 572 577 583 592 597 606 611 626 636 643 653"
             y="0"
             sodipodi:role="line"
             id="tspan142">What accounts for the preeminence of Oracle, MySQL, and SQL Server? In a word:</tspan></text>
        <text
           xml:space="preserve"
           transform="translate(696,642)"
           style="font-variant:normal;font-weight:normal;font-size:20px;font-family:'Times New Roman';-inkscape-font-specification:TimesNewRomanPSMT;writing-mode:lr-tb;fill:#000000;fill-opacity:1;fill-rule:nonzero;stroke:none"
           id="text148"><tspan
             x="0 10 16 24 33 41"
             y="0"
             sodipodi:role="line"
             id="tspan146">disks.</tspan></text>
        <text
           xml:space="preserve"
           transform="translate(696,685)"
           style="font-variant:normal;font-weight:normal;font-size:20px;font-family:'Times New Roman';-inkscape-font-specification:TimesNewRomanPSMT;writing-mode:lr-tb;fill:#000000;fill-opacity:1;fill-rule:nonzero;stroke:none"
           id="text152"><tspan
             x="0 12 21 30 35 42 52 57 66 71 77 86 95 100 114 123 132 141 150 155 161 170 175 185 191 199 208 213 228 237 245 250 255 264 273 278 292 301 307 316 324 329 338 347 352 362 368 373 383 392 397 406 411 419 424 434 441 450 459 468 473 479 489 496 501 507 513 523 532 537 547 556 565 574 584 593 601 606 611 622 631 641 650 657 666"
             y="0"
             sodipodi:role="line"
             id="tspan150">The rotating magnetic disk was the mainstay of data storage for five decades. Several</tspan></text>
        <text
           xml:space="preserve"
           transform="translate(696,708)"
           style="font-variant:normal;font-weight:normal;font-size:20px;font-family:'Times New Roman';-inkscape-font-specification:TimesNewRomanPSMT;writing-mode:lr-tb;fill:#000000;fill-opacity:1;fill-rule:nonzero;stroke:none"
           id="text156"><tspan
             x="0 9 18 27 36 43 52 57 63 73 82 90 95 105 111 116 126 133 143 152 159 168 182 196 205 212 220 225 234 243 253 262 267 276 285 295 310 319 324 333 343 348 358 363 372 381 388 393 399 409 416 430 435 445 451 456 466 475 480 489 494 502 507 517 524 533 542 551 556 561 575 581 589 598 603 608 617 626 635 644 654 660 670 679"
             y="0"
             sodipodi:role="line"
             id="tspan154">generations of programmers have known no other form of data storage. Disk technology</tspan></text>
        <text
           xml:space="preserve"
           transform="translate(696,731)"
           style="font-variant:normal;font-weight:normal;font-size:20px;font-family:'Times New Roman';-inkscape-font-specification:TimesNewRomanPSMT;writing-mode:lr-tb;fill:#000000;fill-opacity:1;fill-rule:nonzero;stroke:none"
           id="text160"><tspan
             x="0 9 18 26 31 40 47 57 72 81 86 92 99 109 123 128 137 146 155 164 169 177 182 191 200 209 217 222 232 238 243 257 266 274 282 288 298 307 312 322 328 337 342 347 356 363 371 376 386 396 401 407 416 425 434 443 451 456 462 471 476 486 492 501 515 524 529 538 545 550 555 564 573 578 583 598 607 613 622 631 640"
             y="0"
             sodipodi:role="line"
             id="tspan158">has grown from huge stacks of massive platters 48 inches in diameter that weighed</tspan></text>
        <text
           xml:space="preserve"
           transform="translate(696,754)"
           style="font-variant:normal;font-weight:normal;font-size:20px;font-family:'Times New Roman';-inkscape-font-specification:TimesNewRomanPSMT;writing-mode:lr-tb;fill:#000000;fill-opacity:1;fill-rule:nonzero;stroke:none"
           id="text164"><tspan
             x="0 5 14 24 33 41 50 59 69 77 82 92 98 103 113 123 132 141 151 159 164 173 182 192 197 206 215 221 231 236 246 256 261 275 284 293 302 312 321 326 335 343 348 353 358 368 373 381 387 396 405 411 420 425 430 439 445 454 459 468 474 481 490 496 505 513 518 523 533 538 544 553 562 571 580 588 593 599 608 613 623 629 638 652 661 666 675 681"
             y="0"
             sodipodi:role="line"
             id="tspan162">thousands of pounds and held 20 megabytes, to single thin circles, 3 inches in diameter,</tspan></text>
        <text
           xml:space="preserve"
           transform="translate(696,777)"
           style="font-variant:normal;font-weight:normal;font-size:20px;font-family:'Times New Roman';-inkscape-font-specification:TimesNewRomanPSMT;writing-mode:lr-tb;fill:#000000;fill-opacity:1;fill-rule:nonzero;stroke:none"
           id="text168"><tspan
             x="0 5 14 23 28 33 48 57 63 72 81 86 92 101 109 114 119 128 133 139 148 163 168 177 184 193 207 215 220 229 238 248 253 262 272 278 288 293 302 307 312 321 328 337 347 356 361 370 375 385 392 397 411 421 428 437 442"
             y="0"
             sodipodi:role="line"
             id="tspan166">that weigh just a few grams and hold a terabyte or more. </tspan></text>
        <text
           xml:space="preserve"
           transform="translate(1143,777)"
           style="font-variant:normal;font-weight:normal;font-size:20px;font-family:'Times New Roman';-inkscape-font-specification:TimesNewRomanPSMT;writing-mode:lr-tb;fill:#000000;fill-opacity:1;fill-rule:nonzero;stroke:none"
           id="text172"><tspan
             x="0 6 11 17 25 30 40 49 58 67 72 81 86 101 107 113 123 128 135 141 151 160"
             y="0"
             sodipodi:role="line"
             id="tspan170">It’s been a wild ride.</tspan></text>
        <text
           xml:space="preserve"
           transform="translate(1313,777)"
           style="font-variant:normal;font-weight:normal;font-size:20px;font-family:'Times New Roman';-inkscape-font-specification:TimesNewRomanPSMT;writing-mode:lr-tb;fill:#000000;fill-opacity:1;fill-rule:nonzero;stroke:none"
           id="text176"><tspan
             x="0 14 23"
             y="0"
             sodipodi:role="line"
             id="tspan174">And</tspan></text>
        <text
           xml:space="preserve"
           transform="translate(696,800)"
           style="font-variant:normal;font-weight:normal;font-size:20px;font-family:'Times New Roman';-inkscape-font-specification:TimesNewRomanPSMT;writing-mode:lr-tb;fill:#000000;fill-opacity:1;fill-rule:nonzero;stroke:none"
           id="text180"><tspan
             x="0 5 14 21 31 40 49 58 68 77 82 87 92 101 110 115 120 127 133 143 152 157 167 174 184 193 200 209 223 237 246 253 261 266 275 284 294 303 308 318 327 336 345 350 360 366 375 384 393 402 412 417 427 436 441 451 460 469 474 480 489 494 503 509 514 519 526 535 541 546 551 561 567 572 582 588 596"
             y="0"
             sodipodi:role="line"
             id="tspan178">throughout that ride programmers have been plagued by one fatal trait of disk</tspan></text>
        <text
           xml:space="preserve"
           transform="translate(696,823)"
           style="font-variant:normal;font-weight:normal;font-size:20px;font-family:'Times New Roman';-inkscape-font-specification:TimesNewRomanPSMT;writing-mode:lr-tb;fill:#000000;fill-opacity:1;fill-rule:nonzero;stroke:none"
           id="text184"><tspan
             x="0 5 14 23 32 41 51 57 67 76 85 91 96 110 116 124 133 141 146 155 162 171"
             y="0"
             sodipodi:role="line"
             id="tspan182">technology: Disks are </tspan></text>
        <text
           xml:space="preserve"
           transform="translate(872,823)"
           style="font-variant:normal;font-weight:normal;font-size:20px;font-family:'Times New Roman';-inkscape-font-specification:TimesNewRomanPSMT;writing-mode:lr-tb;fill:#000000;fill-opacity:1;fill-rule:nonzero;stroke:none"
           id="text188"><tspan
             x="0 8 14 24"
             y="0"
             sodipodi:role="line"
             id="tspan186">slow</tspan></text>
        <text
           xml:space="preserve"
           transform="translate(911,823)"
           style="font-variant:normal;font-weight:normal;font-size:20px;font-family:'Times New Roman';-inkscape-font-specification:TimesNewRomanPSMT;writing-mode:lr-tb;fill:#000000;fill-opacity:1;fill-rule:nonzero;stroke:none"
           id="text192"><tspan
             x="0"
             y="0"
             id="tspan190">.</tspan></text>
        <text
           xml:space="preserve"
           transform="translate(696,866)"
           style="font-variant:normal;font-weight:normal;font-size:20px;font-family:'Times New Roman';-inkscape-font-specification:TimesNewRomanPSMT;writing-mode:lr-tb;fill:#000000;fill-opacity:1;fill-rule:nonzero;stroke:none"
           id="text196"><tspan
             x="0 14 23 28 37 42 52 58 66 75 80 85 95 104 109 118 123 129 137 142 150 155 165 172 181 191 196 211 217 222 231 237 246 251 260 266 273 282 291 297 306 313 318 323 330 339 348 357 365 370 375 387 396 406 414 423 428 433 440 449 458 467 475 480 489 496 505 510 520 526 536 542 552 561 571 576 582 591 596 606 611 619 628 637 642 652 659"
             y="0"
             sodipodi:role="line"
             id="tspan194">On a disk, data is stored within circular tracks. Those tracks are divided into sectors</tspan></text>
        <text
           xml:space="preserve"
           transform="translate(696,889)"
           style="font-variant:normal;font-weight:normal;font-size:20px;font-family:'Times New Roman';-inkscape-font-specification:TimesNewRomanPSMT;writing-mode:lr-tb;fill:#000000;fill-opacity:1;fill-rule:nonzero;stroke:none"
           id="text200"><tspan
             x="0 5 14 23 28 33 42 52 58 68 73 82 87 96 106 115 125 134 143 149 158 167 172 177 186 195 209 219 228 235 240 250 256 261 271 280 285 294 302 307 312 322 328 333 342 351 356 366 380 385 390 402 411 420 429 434 444 450 459 464 469 478 485 490 504 513 522 527 536 545 555 564 569 578 587 596 606 613 622 632 640 645 655"
             y="0"
             sodipodi:role="line"
             id="tspan198">that hold a convenient number of bytes, often 4K. Each platter may have hundreds of</tspan></text>
        <text
           xml:space="preserve"
           transform="translate(696,912)"
           style="font-variant:normal;font-weight:normal;font-size:20px;font-family:'Times New Roman';-inkscape-font-specification:TimesNewRomanPSMT;writing-mode:lr-tb;fill:#000000;fill-opacity:1;fill-rule:nonzero;stroke:none"
           id="text204"><tspan
             x="0 5 12 21 30 39 47 52 57 66 75 85 90 95 104 113 120 129 134 143 152 161 166 176 185 190 199 204 214 224 232 241 250 255 265 272 277 285 295 300 310 316 325 330 335 344 351 359 364 369 375 381 386 395 405 414 419 434 443 452 457 462 467 477 482 489 498 507 517 522 531 536 546 555 562 567 573 582 591 597 606 613 618 628 637 642 651 656 666 672"
             y="0"
             sodipodi:role="line"
             id="tspan202">tracks, and there can be a dozen or so platters. If you want to read a particular byte off</tspan></text>
        <text
           xml:space="preserve"
           transform="translate(696,935)"
           style="font-variant:normal;font-weight:normal;font-size:20px;font-family:'Times New Roman';-inkscape-font-specification:TimesNewRomanPSMT;writing-mode:lr-tb;fill:#000000;fill-opacity:1;fill-rule:nonzero;stroke:none"
           id="text208"><tspan
             x="0 5 14 23 28 38 44 52 61 66 71 80 90 99 104 113 122 132 141 146 151 161 166 180 190 200 209 214 219 228 237 242 251 260 269 279 284 289 299 304 309 318 327 332 342 349 359 369 378 385 390 395 402 411 420 429 434 439 454 463 469 474 479 485 495 502 507 512 521 530 535 545 551 559 568 573 578 588 593 600 610 615 624 629 638 643 648 658 663 668 677"
             y="0"
             sodipodi:role="line"
             id="tspan206">the disk, you have to move the head to the proper track, wait for the disk to rotate to the</tspan></text>
        <text
           xml:space="preserve"
           transform="translate(696,958)"
           style="font-variant:normal;font-weight:normal;font-size:20px;font-family:'Times New Roman';-inkscape-font-specification:TimesNewRomanPSMT;writing-mode:lr-tb;fill:#000000;fill-opacity:1;fill-rule:nonzero;stroke:none"
           id="text212"><tspan
             x="0 10 17 27 37 46 53 58 66 75 84 89 99 105 110 115 122 131 140 150 155 164 170 176 181 191 205 210 220 226 231 236 245 254 259 264 272 281 290 295 305 312 317 323 332 337 347 352 365 379 396 401 406 415 424 434 439 444 453 462 471 476 482 491 501 510 519 524 530 539 544 554 559 564 573 582 587 592 605 619 636 641 651 660 666 672 681"
             y="0"
             sodipodi:role="line"
             id="tspan210">proper sector, read all 4K of that sector into RAM, and then index into that RAM buffer</tspan></text>
        <text
           xml:space="preserve"
           transform="translate(696,981)"
           style="font-variant:normal;font-weight:normal;font-size:20px;font-family:'Times New Roman';-inkscape-font-specification:TimesNewRomanPSMT;writing-mode:lr-tb;fill:#000000;fill-opacity:1;fill-rule:nonzero;stroke:none"
           id="text216"><tspan
             x="0 5 15 20 29 38 43 48 53 62 71 76 86 95 100 109 114 123 133 142 147 162 171 180 185 190 195 209 218 228 233 242 248 254 259 264 273 282 287 292 297 306 315 324 332 337 342 348 362 371 391 405 411 417 423 429 437 446 455 465 474 484 492 497 507 513 518 523 529 543 552 560"
             y="0"
             sodipodi:role="line"
             id="tspan214">to get the byte you want. And all that takes time—milliseconds of times.</tspan></text>
      </g>
    </g>
  </g>
</svg>
