<?xml version="1.0" encoding="UTF-8" standalone="no"?>
<!-- Created with Inkscape (http://www.inkscape.org/) -->

<svg
   version="1.1"
   id="svg2"
   width="816"
   height="1056"
   viewBox="0 0 816 1056"
   sodipodi:docname="clean_arch.pdf"
   xmlns:inkscape="http://www.inkscape.org/namespaces/inkscape"
   xmlns:sodipodi="http://sodipodi.sourceforge.net/DTD/sodipodi-0.dtd"
   xmlns="http://www.w3.org/2000/svg"
   xmlns:svg="http://www.w3.org/2000/svg">
  <defs
     id="defs6">
    <clipPath
       clipPathUnits="userSpaceOnUse"
       id="clipPath18">
      <path
         d="m 696,0 h 696 V 1056 H 696 V 0"
         clip-rule="evenodd"
         id="path16" />
    </clipPath>
    <clipPath
       clipPathUnits="userSpaceOnUse"
       id="clipPath28">
      <path
         d="m 696,66 h 696 V 996 H 696 V 66"
         clip-rule="evenodd"
         id="path26" />
    </clipPath>
  </defs>
  <sodipodi:namedview
     id="namedview4"
     pagecolor="#ffffff"
     bordercolor="#000000"
     borderopacity="0.25"
     inkscape:showpageshadow="2"
     inkscape:pageopacity="0.0"
     inkscape:pagecheckerboard="0"
     inkscape:deskcolor="#d1d1d1" />
  <g
     id="g8"
     inkscape:groupmode="layer"
     inkscape:label="clean_arch"
     transform="translate(59.999999,2.64e-5)">
    <g
       id="g10" />
    <g
       id="g12"
       transform="translate(-696)">
      <g
         id="g14"
         clip-path="url(#clipPath18)">
        <g
           id="g20" />
      </g>
    </g>
    <g
       id="g22"
       transform="translate(-696)">
      <g
         id="g24"
         clip-path="url(#clipPath28)">
        <text
           xml:space="preserve"
           transform="translate(696,83)"
           style="font-variant:normal;font-weight:normal;font-size:20px;font-family:'Times New Roman';-inkscape-font-specification:TimesNewRomanPSMT;writing-mode:lr-tb;fill:#000000;fill-opacity:1;fill-rule:nonzero;stroke:none"
           id="text32"><tspan
             x="0 6 15 20 25 34 43 48 57 66 73 79 88 93 102 111 120 127 135 140 150 156 161 169 179 185 190 205 214 221 230 235 245 254 264 273 279 289 299 313 322 331 336 341 346 356 363 373 382 389 398 412 426 435 442 450 455 464 474 483 488 495 505 511 517 526 536 541 546 555 564 569 583 592 606 616 623"
             y="0"
             sodipodi:role="line"
             id="tspan30">In the early years of software development, programmers controlled the memory</tspan></text>
        <text
           xml:space="preserve"
           transform="translate(696,106)"
           style="font-variant:normal;font-weight:normal;font-size:20px;font-family:'Times New Roman';-inkscape-font-specification:TimesNewRomanPSMT;writing-mode:lr-tb;fill:#000000;fill-opacity:1;fill-rule:nonzero;stroke:none"
           id="text36"><tspan
             x="0 6 16 25 34 39 45 55 64 69 78 87 97 102 108 117 126 136 145 150 155 165 171 176 181 190 199 205 212 217 227 234 244 253 260 269 283 291 296 301 315 324 333 338 348 354 359 364 373 382 387 393 399 406 414 419 424 430 436 445 454 462 467 477 483 488 497 507 517 526 531 537 546 551 560 565 575 582 592 601 608 617 631 636 651 661 670 676"
             y="0"
             sodipodi:role="line"
             id="tspan34">location and layout of their programs. One of the first lines of code in a program would</tspan></text>
        <text
           xml:space="preserve"
           transform="translate(696,129)"
           style="font-variant:normal;font-weight:normal;font-size:20px;font-family:'Times New Roman';-inkscape-font-specification:TimesNewRomanPSMT;writing-mode:lr-tb;fill:#000000;fill-opacity:1;fill-rule:nonzero;stroke:none"
           id="text40"><tspan
             x="0 10 19 24 29 38 47"
             y="0"
             sodipodi:role="line"
             id="tspan38">be the </tspan></text>
        <text
           xml:space="preserve"
           transform="translate(748,129)"
           style="font-variant:normal;font-weight:normal;font-size:20px;font-family:'Times New Roman';-inkscape-font-specification:TimesNewRomanPSMT;writing-mode:lr-tb;fill:#000000;fill-opacity:1;fill-rule:nonzero;stroke:none"
           id="text44"><tspan
             x="0 10 17 23 32 38"
             y="0"
             sodipodi:role="line"
             id="tspan42">origin</tspan></text>
        <text
           xml:space="preserve"
           transform="translate(800,129)"
           style="font-variant:normal;font-weight:normal;font-size:20px;font-family:'Times New Roman';-inkscape-font-specification:TimesNewRomanPSMT;writing-mode:lr-tb;fill:#000000;fill-opacity:1;fill-rule:nonzero;stroke:none"
           id="text48"><tspan
             x="0 8 13 22 27 36 50 59 68 73 78 83 98 107 113 122 131 136 146 155 164 170 179 186 195 205 210 215 224 233 238 247 257 267 274 283 291 299 304 313 318 323 338 347 353 362 371 376 381 390 399 404 414 421 431 440 447 456 470 475 490 499 507 512 517 527 532 542"
             y="0"
             sodipodi:role="line"
             id="tspan46">statement, which declared the address at which the program was to be</tspan></text>
        <text
           xml:space="preserve"
           transform="translate(696,152)"
           style="font-variant:normal;font-weight:normal;font-size:20px;font-family:'Times New Roman';-inkscape-font-specification:TimesNewRomanPSMT;writing-mode:lr-tb;fill:#000000;fill-opacity:1;fill-rule:nonzero;stroke:none"
           id="text52"><tspan
             x="0 6 16 25 35 44 54"
             y="0"
             sodipodi:role="line"
             id="tspan50">loaded.</tspan></text>
        <text
           xml:space="preserve"
           transform="translate(696,195)"
           style="font-variant:normal;font-weight:normal;font-size:20px;font-family:'Times New Roman';-inkscape-font-specification:TimesNewRomanPSMT;writing-mode:lr-tb;fill:#000000;fill-opacity:1;fill-rule:nonzero;stroke:none"
           id="text56"><tspan
             x="0 13 23 32 40 46 56 65 72 77 82 91 100 105 111 121 127 133 143 158 164 173 182 187 195 201 215 225 231 240 245 256 270 281 288 298 303 313 320 330 339 346 355 369 374 379 385 390 395 404 414 423 431 437 445 450 458 463 473 479 484 493 498 506 515 525 532 542 551 556 562 571 580 585 594 603 617 626"
             y="0"
             sodipodi:role="line"
             id="tspan54">Consider the following simple PDP-8 program. It consists of a subroutine named</tspan></text>
        <text
           xml:space="preserve"
           transform="translate(696,218)"
           style="font-variant:normal;font-weight:normal;font-size:16px;font-family:'Courier New';-inkscape-font-specification:CourierNewPSMT;writing-mode:lr-tb;fill:#000000;fill-opacity:1;fill-rule:nonzero;stroke:none"
           id="text60"><tspan
             x="0 10 20 30 40 50"
             y="0"
             sodipodi:role="line"
             id="tspan58">GETSTR</tspan></text>
        <text
           xml:space="preserve"
           transform="translate(761,218)"
           style="font-variant:normal;font-weight:normal;font-size:20px;font-family:'Times New Roman';-inkscape-font-specification:TimesNewRomanPSMT;writing-mode:lr-tb;fill:#000000;fill-opacity:1;fill-rule:nonzero;stroke:none"
           id="text64"><tspan
             x="0 5 14 23 28 33 39 48 58 67 72 80 85 94 99 107 112 119 125 134 143 148 154 161 171 185 190 195 204 213 218 227 236 245 255 265 274 281 291 296 305 314 324 329 337 346 356 365 373 378 384 389 394 400 409 414 423 428 438 447 453 459 468 474 479 484 490 495 500 509 515 523 533 538 547 556 564 569 578 583 589 595 600 605 611"
             y="0"
             sodipodi:role="line"
             id="tspan62">that inputs a string from the keyboard and saves it in a buffer. It also has a little</tspan></text>
        <text
           xml:space="preserve"
           transform="translate(696,241)"
           style="font-variant:normal;font-weight:normal;font-size:20px;font-family:'Times New Roman';-inkscape-font-specification:TimesNewRomanPSMT;writing-mode:lr-tb;fill:#000000;fill-opacity:1;fill-rule:nonzero;stroke:none"
           id="text68"><tspan
             x="0 9 18 24 29 34 39 48 56 61 66 76 83 93 102 109 118 132 137 142 152 157 166 175 184 191 200 206 214 223"
             y="0"
             sodipodi:role="line"
             id="tspan66">unit test program to exercise </tspan></text>
        <text
           xml:space="preserve"
           transform="translate(924,241)"
           style="font-variant:normal;font-weight:normal;font-size:16px;font-family:'Courier New';-inkscape-font-specification:CourierNewPSMT;writing-mode:lr-tb;fill:#000000;fill-opacity:1;fill-rule:nonzero;stroke:none"
           id="text72"><tspan
             x="0 10 20 30 40 50"
             y="0"
             sodipodi:role="line"
             id="tspan70">GETSTR</tspan></text>
        <text
           xml:space="preserve"
           transform="translate(984,241)"
           style="font-variant:normal;font-weight:normal;font-size:20px;font-family:'Times New Roman';-inkscape-font-specification:TimesNewRomanPSMT;writing-mode:lr-tb;fill:#000000;fill-opacity:1;fill-rule:nonzero;stroke:none"
           id="text76"><tspan
             x="0"
             y="0"
             id="tspan74">.</tspan></text>
        <text
           xml:space="preserve"
           transform="translate(696,281)"
           style="font-variant:normal;font-weight:bold;font-size:15px;font-family:'Times New Roman';-inkscape-font-specification:TimesNewRomanPS-BoldMT;writing-mode:lr-tb;fill:#0000ee;fill-opacity:1;fill-rule:nonzero;stroke:none"
           id="text80"><tspan
             x="0 11 15 19 26 35 39 47 55 61 69 73 78 86 90 98 102 110 120 124 131 139 147 155 159 163 175 182 190"
             y="0"
             sodipodi:role="line"
             id="tspan78">Click here to view code image</tspan></text>
        <path
           d="M 696,282.5 H 893 Z"
           style="fill:none;stroke:#0000ee;stroke-width:1;stroke-linecap:square;stroke-linejoin:miter;stroke-miterlimit:10;stroke-dasharray:none;stroke-opacity:1"
           id="path82" />
        <text
           xml:space="preserve"
           transform="translate(841,320.5)"
           style="font-variant:normal;font-weight:normal;font-size:15px;font-family:'Courier New';-inkscape-font-specification:CourierNewPSMT;writing-mode:lr-tb;fill:#000000;fill-opacity:1;fill-rule:nonzero;stroke:none"
           id="text86"><tspan
             x="0 9 18 27"
             y="0"
             sodipodi:role="line"
             id="tspan84">*200</tspan></text>
        <text
           xml:space="preserve"
           transform="translate(841,337.5)"
           style="font-variant:normal;font-weight:normal;font-size:15px;font-family:'Courier New';-inkscape-font-specification:CourierNewPSMT;writing-mode:lr-tb;fill:#000000;fill-opacity:1;fill-rule:nonzero;stroke:none"
           id="text90"><tspan
             x="0 9 18"
             y="0"
             sodipodi:role="line"
             id="tspan88">TLS</tspan></text>
        <text
           xml:space="preserve"
           transform="translate(742,354.5)"
           style="font-variant:normal;font-weight:normal;font-size:15px;font-family:'Courier New';-inkscape-font-specification:CourierNewPSMT;writing-mode:lr-tb;fill:#000000;fill-opacity:1;fill-rule:nonzero;stroke:none"
           id="text94"><tspan
             x="0 9 18 27 36 45 54 99 108 117"
             y="0"
             sodipodi:role="line"
             id="tspan92">START, CLA</tspan></text>
        <text
           xml:space="preserve"
           transform="translate(841,371.5)"
           style="font-variant:normal;font-weight:normal;font-size:15px;font-family:'Courier New';-inkscape-font-specification:CourierNewPSMT;writing-mode:lr-tb;fill:#000000;fill-opacity:1;fill-rule:nonzero;stroke:none"
           id="text98"><tspan
             x="0 9 18 27 36 45 54 63"
             y="0"
             sodipodi:role="line"
             id="tspan96">TAD BUFR</tspan></text>
        <text
           xml:space="preserve"
           transform="translate(841,388.5)"
           style="font-variant:normal;font-weight:normal;font-size:15px;font-family:'Courier New';-inkscape-font-specification:CourierNewPSMT;writing-mode:lr-tb;fill:#000000;fill-opacity:1;fill-rule:nonzero;stroke:none"
           id="text102"><tspan
             x="0 9 18 27 36 45 54 63 72 81"
             y="0"
             sodipodi:role="line"
             id="tspan100">JMS GETSTR</tspan></text>
        <text
           xml:space="preserve"
           transform="translate(841,405.5)"
           style="font-variant:normal;font-weight:normal;font-size:15px;font-family:'Courier New';-inkscape-font-specification:CourierNewPSMT;writing-mode:lr-tb;fill:#000000;fill-opacity:1;fill-rule:nonzero;stroke:none"
           id="text106"><tspan
             x="0 9 18"
             y="0"
             sodipodi:role="line"
             id="tspan104">CLA</tspan></text>
        <text
           xml:space="preserve"
           transform="translate(841,422.5)"
           style="font-variant:normal;font-weight:normal;font-size:15px;font-family:'Courier New';-inkscape-font-specification:CourierNewPSMT;writing-mode:lr-tb;fill:#000000;fill-opacity:1;fill-rule:nonzero;stroke:none"
           id="text110"><tspan
             x="0 9 18 27 36 45 54 63"
             y="0"
             sodipodi:role="line"
             id="tspan108">TAD BUFR</tspan></text>
        <text
           xml:space="preserve"
           transform="translate(841,439.5)"
           style="font-variant:normal;font-weight:normal;font-size:15px;font-family:'Courier New';-inkscape-font-specification:CourierNewPSMT;writing-mode:lr-tb;fill:#000000;fill-opacity:1;fill-rule:nonzero;stroke:none"
           id="text114"><tspan
             x="0 9 18 27 36 45 54 63 72 81"
             y="0"
             sodipodi:role="line"
             id="tspan112">JMS PUTSTR</tspan></text>
        <text
           xml:space="preserve"
           transform="translate(841,456.5)"
           style="font-variant:normal;font-weight:normal;font-size:15px;font-family:'Courier New';-inkscape-font-specification:CourierNewPSMT;writing-mode:lr-tb;fill:#000000;fill-opacity:1;fill-rule:nonzero;stroke:none"
           id="text118"><tspan
             x="0 9 18 27 36 45 54 63 72"
             y="0"
             sodipodi:role="line"
             id="tspan116">JMP START</tspan></text>
        <text
           xml:space="preserve"
           transform="translate(742,473.5)"
           style="font-variant:normal;font-weight:normal;font-size:15px;font-family:'Courier New';-inkscape-font-specification:CourierNewPSMT;writing-mode:lr-tb;fill:#000000;fill-opacity:1;fill-rule:nonzero;stroke:none"
           id="text122"><tspan
             x="0 9 18 27 36 45 99 108 117 126"
             y="0"
             sodipodi:role="line"
             id="tspan120">BUFR, 3000</tspan></text>
        <text
           xml:space="preserve"
           transform="translate(742,507.5)"
           style="font-variant:normal;font-weight:normal;font-size:15px;font-family:'Courier New';-inkscape-font-specification:CourierNewPSMT;writing-mode:lr-tb;fill:#000000;fill-opacity:1;fill-rule:nonzero;stroke:none"
           id="text126"><tspan
             x="0 9 18 27 36 45 54 63 99"
             y="0"
             sodipodi:role="line"
             id="tspan124">GETSTR, 0</tspan></text>
        <text
           xml:space="preserve"
           transform="translate(841,524.5)"
           style="font-variant:normal;font-weight:normal;font-size:15px;font-family:'Courier New';-inkscape-font-specification:CourierNewPSMT;writing-mode:lr-tb;fill:#000000;fill-opacity:1;fill-rule:nonzero;stroke:none"
           id="text130"><tspan
             x="0 9 18 27 36 45 54"
             y="0"
             sodipodi:role="line"
             id="tspan128">DCA PTR</tspan></text>
        <text
           xml:space="preserve"
           transform="translate(742,541.5)"
           style="font-variant:normal;font-weight:normal;font-size:15px;font-family:'Courier New';-inkscape-font-specification:CourierNewPSMT;writing-mode:lr-tb;fill:#000000;fill-opacity:1;fill-rule:nonzero;stroke:none"
           id="text134"><tspan
             x="0 9 18 27 36 45 54 99 108 117"
             y="0"
             sodipodi:role="line"
             id="tspan132">NXTCH, KSF</tspan></text>
        <text
           xml:space="preserve"
           transform="translate(841,558.5)"
           style="font-variant:normal;font-weight:normal;font-size:15px;font-family:'Courier New';-inkscape-font-specification:CourierNewPSMT;writing-mode:lr-tb;fill:#000000;fill-opacity:1;fill-rule:nonzero;stroke:none"
           id="text138"><tspan
             x="0 9 18 27 36 45"
             y="0"
             sodipodi:role="line"
             id="tspan136">JMP -1</tspan></text>
        <text
           xml:space="preserve"
           transform="translate(841,575.5)"
           style="font-variant:normal;font-weight:normal;font-size:15px;font-family:'Courier New';-inkscape-font-specification:CourierNewPSMT;writing-mode:lr-tb;fill:#000000;fill-opacity:1;fill-rule:nonzero;stroke:none"
           id="text142"><tspan
             x="0 9 18"
             y="0"
             sodipodi:role="line"
             id="tspan140">KRB</tspan></text>
        <text
           xml:space="preserve"
           transform="translate(841,592.5)"
           style="font-variant:normal;font-weight:normal;font-size:15px;font-family:'Courier New';-inkscape-font-specification:CourierNewPSMT;writing-mode:lr-tb;fill:#000000;fill-opacity:1;fill-rule:nonzero;stroke:none"
           id="text146"><tspan
             x="0 9 18 27 36 45 54 63 72"
             y="0"
             sodipodi:role="line"
             id="tspan144">DCA I PTR</tspan></text>
        <text
           xml:space="preserve"
           transform="translate(841,609.5)"
           style="font-variant:normal;font-weight:normal;font-size:15px;font-family:'Courier New';-inkscape-font-specification:CourierNewPSMT;writing-mode:lr-tb;fill:#000000;fill-opacity:1;fill-rule:nonzero;stroke:none"
           id="text150"><tspan
             x="0 9 18 27 36 45 54 63 72"
             y="0"
             sodipodi:role="line"
             id="tspan148">TAD I PTR</tspan></text>
        <text
           xml:space="preserve"
           transform="translate(841,626.5)"
           style="font-variant:normal;font-weight:normal;font-size:15px;font-family:'Courier New';-inkscape-font-specification:CourierNewPSMT;writing-mode:lr-tb;fill:#000000;fill-opacity:1;fill-rule:nonzero;stroke:none"
           id="text154"><tspan
             x="0 9 18 27 36 45 54 63"
             y="0"
             sodipodi:role="line"
             id="tspan152">AND K177</tspan></text>
        <text
           xml:space="preserve"
           transform="translate(841,643.5)"
           style="font-variant:normal;font-weight:normal;font-size:15px;font-family:'Courier New';-inkscape-font-specification:CourierNewPSMT;writing-mode:lr-tb;fill:#000000;fill-opacity:1;fill-rule:nonzero;stroke:none"
           id="text158"><tspan
             x="0 9 18 27 36 45 54"
             y="0"
             sodipodi:role="line"
             id="tspan156">ISZ PTR</tspan></text>
        <text
           xml:space="preserve"
           transform="translate(841,660.5)"
           style="font-variant:normal;font-weight:normal;font-size:15px;font-family:'Courier New';-inkscape-font-specification:CourierNewPSMT;writing-mode:lr-tb;fill:#000000;fill-opacity:1;fill-rule:nonzero;stroke:none"
           id="text162"><tspan
             x="0 9 18 27 36 45 54"
             y="0"
             sodipodi:role="line"
             id="tspan160">TAD MCR</tspan></text>
        <text
           xml:space="preserve"
           transform="translate(841,677.5)"
           style="font-variant:normal;font-weight:normal;font-size:15px;font-family:'Courier New';-inkscape-font-specification:CourierNewPSMT;writing-mode:lr-tb;fill:#000000;fill-opacity:1;fill-rule:nonzero;stroke:none"
           id="text166"><tspan
             x="0 9 18"
             y="0"
             sodipodi:role="line"
             id="tspan164">SZA</tspan></text>
        <text
           xml:space="preserve"
           transform="translate(841,694.5)"
           style="font-variant:normal;font-weight:normal;font-size:15px;font-family:'Courier New';-inkscape-font-specification:CourierNewPSMT;writing-mode:lr-tb;fill:#000000;fill-opacity:1;fill-rule:nonzero;stroke:none"
           id="text170"><tspan
             x="0 9 18 27 36 45 54 63 72"
             y="0"
             sodipodi:role="line"
             id="tspan168">JMP NXTCH</tspan></text>
        <text
           xml:space="preserve"
           transform="translate(742,728.5)"
           style="font-variant:normal;font-weight:normal;font-size:15px;font-family:'Courier New';-inkscape-font-specification:CourierNewPSMT;writing-mode:lr-tb;fill:#000000;fill-opacity:1;fill-rule:nonzero;stroke:none"
           id="text174"><tspan
             x="0 9 18 27 36 45 99 108 117"
             y="0"
             sodipodi:role="line"
             id="tspan172">K177, 177</tspan></text>
        <text
           xml:space="preserve"
           transform="translate(742,746)"
           style="font-variant:normal;font-weight:normal;font-size:15px;font-family:'Courier New';-inkscape-font-specification:CourierNewPSMT;writing-mode:lr-tb;fill:#000000;fill-opacity:1;fill-rule:nonzero;stroke:none"
           id="text178"><tspan
             x="0 9 18 27 36 99 108 117"
             y="0"
             sodipodi:role="line"
             id="tspan176">MCR, -15</tspan></text>
        <text
           xml:space="preserve"
           transform="translate(696,794)"
           style="font-variant:normal;font-weight:normal;font-size:20px;font-family:'Times New Roman';-inkscape-font-specification:TimesNewRomanPSMT;writing-mode:lr-tb;fill:#000000;fill-opacity:1;fill-rule:nonzero;stroke:none"
           id="text182"><tspan
             x="0 14 24 29 38 43 48 57 66"
             y="0"
             sodipodi:role="line"
             id="tspan180">Note the </tspan></text>
        <text
           xml:space="preserve"
           transform="translate(767,794)"
           style="font-variant:normal;font-weight:normal;font-size:16px;font-family:'Courier New';-inkscape-font-specification:CourierNewPSMT;writing-mode:lr-tb;fill:#000000;fill-opacity:1;fill-rule:nonzero;stroke:none"
           id="text186"><tspan
             x="0 10 20 30"
             y="0"
             sodipodi:role="line"
             id="tspan184">*200</tspan></text>
        <text
           xml:space="preserve"
           transform="translate(812,794)"
           style="font-variant:normal;font-weight:normal;font-size:20px;font-family:'Times New Roman';-inkscape-font-specification:TimesNewRomanPSMT;writing-mode:lr-tb;fill:#000000;fill-opacity:1;fill-rule:nonzero;stroke:none"
           id="text190"><tspan
             x="0 9 19 33 47 56 65 75 80 89 94 99 104 113 122 127 135 140 149 156 161 166 176 182 187 192 201 207 215 220 230 237 247 256 263 272 286 291 296 302 307 312 317 326 332 338 346 351 356 365 374 379 388 398 412 422 428 434 443 450 455 460 470 475 484 493 502 511 518 527 532"
             y="0"
             sodipodi:role="line"
             id="tspan188">command at the start of this program. It tells the compiler to generate</tspan></text>
        <text
           xml:space="preserve"
           transform="translate(696,817)"
           style="font-variant:normal;font-weight:normal;font-size:20px;font-family:'Times New Roman';-inkscape-font-specification:TimesNewRomanPSMT;writing-mode:lr-tb;fill:#000000;fill-opacity:1;fill-rule:nonzero;stroke:none"
           id="text194"><tspan
             x="0 9 19 29 38 43 48 57 66 71 76 91 97 103 109 114 124 133 138 144 154 163 173 182 192 197 206 211 216 225 235 245 252 261 269 277 282 292 302"
             y="0"
             sodipodi:role="line"
             id="tspan192">code that will be loaded at address 200</tspan></text>
        <text
           xml:space="preserve"
           transform="translate(1008,822)"
           style="font-variant:normal;font-weight:normal;font-size:15px;font-family:'Times New Roman';-inkscape-font-specification:TimesNewRomanPSMT;writing-mode:lr-tb;fill:#000000;fill-opacity:1;fill-rule:nonzero;stroke:none"
           id="text198"><tspan
             x="0"
             y="0"
             id="tspan196">8</tspan></text>
        <text
           xml:space="preserve"
           transform="translate(1015,817)"
           style="font-variant:normal;font-weight:normal;font-size:20px;font-family:'Times New Roman';-inkscape-font-specification:TimesNewRomanPSMT;writing-mode:lr-tb;fill:#000000;fill-opacity:1;fill-rule:nonzero;stroke:none"
           id="text202"><tspan
             x="0"
             y="0"
             id="tspan200">.</tspan></text>
        <text
           xml:space="preserve"
           transform="translate(696,864)"
           style="font-variant:normal;font-weight:normal;font-size:20px;font-family:'Times New Roman';-inkscape-font-specification:TimesNewRomanPSMT;writing-mode:lr-tb;fill:#000000;fill-opacity:1;fill-rule:nonzero;stroke:none"
           id="text206"><tspan
             x="0 12 21 27 35 40 49 55 64 74 79 89 95 100 110 117 127 136 143 152 166 180 186 195 204 209 215 223 228 237 242 248 258 265 274 280 289 298 303 312 322 331 340 349 359 364 369 375 385 392 397 411 421 429 434 439 449 456 466 475 482 491 505 519 528 535 543 548 553 563 573 582 590 595 600 612 621 630 639 644 651 660 667 676 682"
             y="0"
             sodipodi:role="line"
             id="tspan204">This kind of programming is a foreign concept for most programmers today. They rarely</tspan></text>
        <text
           xml:space="preserve"
           transform="translate(696,887)"
           style="font-variant:normal;font-weight:normal;font-size:20px;font-family:'Times New Roman';-inkscape-font-specification:TimesNewRomanPSMT;writing-mode:lr-tb;fill:#000000;fill-opacity:1;fill-rule:nonzero;stroke:none"
           id="text210"><tspan
             x="0 9 18 28 37 42 47 57 62 67 76 82 91 100 105 114 124 134 143 148 153 168 177 186 193 202 207 216 221 231 238 248 257 264 273 287 292 298 306 311 317 327 336 346 355 365 370 376 385 390 395 404 413 418 432 441 455 465 472 481 486 496 502 507 512 521 530 535 544 554 568 578 587 592 601 607 612 617 630 639 644 649 655 664 669 674 683"
             y="0"
             sodipodi:role="line"
             id="tspan208">have to think about where a program is loaded in the memory of the computer. But in the</tspan></text>
        <text
           xml:space="preserve"
           transform="translate(696,910)"
           style="font-variant:normal;font-weight:normal;font-size:20px;font-family:'Times New Roman';-inkscape-font-specification:TimesNewRomanPSMT;writing-mode:lr-tb;fill:#000000;fill-opacity:1;fill-rule:nonzero;stroke:none"
           id="text214"><tspan
             x="0 9 18 25 31 40 45 55 64 73 81 86 91 96 105 111 119 124 139 148 156 161 171 180 189 194 204 210 215 220 229 238 243 249 255 262 270 275 280 290 299 308 314 322 328 338 347 355 360 369 374 384 391 401 410 417 426 440 454 463 470 475 484 493 502 512 521 531 536 541 551 556 570 579 588 597 602 607 613 622 627 632 641 651 659"
             y="0"
             sodipodi:role="line"
             id="tspan212">early days, this was one of the first decisions a programmer needed to make. In those</tspan></text>
        <text
           xml:space="preserve"
           transform="translate(696,933)"
           style="font-variant:normal;font-weight:normal;font-size:20px;font-family:'Times New Roman';-inkscape-font-specification:TimesNewRomanPSMT;writing-mode:lr-tb;fill:#000000;fill-opacity:1;fill-rule:nonzero;stroke:none"
           id="text218"><tspan
             x="0 10 19 28 36 41 46 56 63 73 82 89 98 112 120 125 140 149 156 165 170 179 189 194 199 206 215 221 231 240 249 254 263 273 279 288"
             y="0"
             sodipodi:role="line"
             id="tspan216">days, programs were not relocatable.</tspan></text>
        <text
           xml:space="preserve"
           transform="translate(696,976)"
           style="font-variant:normal;font-weight:normal;font-size:20px;font-family:'Times New Roman';-inkscape-font-specification:TimesNewRomanPSMT;writing-mode:lr-tb;fill:#000000;fill-opacity:1;fill-rule:nonzero;stroke:none"
           id="text222"><tspan
             x="0 14 24 39 44 54 60 70 75 84 94 103 108 117 126 135 144 152 160 165 174 179 185 191 201 208 217 224 233 238 244 253 262 271 276 282 292 301 306 312 321 326 331 340 350 358 367 372 382 388 398 407 416 421 431 440 449 457 466 471 483 492 501 506 516 523 532 541 550 560 566 575 584 589 598 608 618"
             y="0"
             sodipodi:role="line"
             id="tspan220">How did you access a library function in those olden days? The preceding code</tspan></text>
      </g>
    </g>
  </g>
</svg>
