<?xml version="1.0" encoding="UTF-8" standalone="no"?>
<!-- Created with Inkscape (http://www.inkscape.org/) -->

<svg
   version="1.1"
   id="svg2"
   width="816"
   height="1056"
   viewBox="0 0 816 1056"
   sodipodi:docname="clean_arch.pdf"
   xmlns:inkscape="http://www.inkscape.org/namespaces/inkscape"
   xmlns:sodipodi="http://sodipodi.sourceforge.net/DTD/sodipodi-0.dtd"
   xmlns="http://www.w3.org/2000/svg"
   xmlns:svg="http://www.w3.org/2000/svg">
  <defs
     id="defs6">
    <clipPath
       clipPathUnits="userSpaceOnUse"
       id="clipPath18">
      <path
         d="m 2784,0 h 696 V 1056 H 2784 V 0"
         clip-rule="evenodd"
         id="path16" />
    </clipPath>
    <clipPath
       clipPathUnits="userSpaceOnUse"
       id="clipPath28">
      <path
         d="m 2784,66 h 696 V 996 H 2784 V 66"
         clip-rule="evenodd"
         id="path26" />
    </clipPath>
  </defs>
  <sodipodi:namedview
     id="namedview4"
     pagecolor="#ffffff"
     bordercolor="#000000"
     borderopacity="0.25"
     inkscape:showpageshadow="2"
     inkscape:pageopacity="0.0"
     inkscape:pagecheckerboard="0"
     inkscape:deskcolor="#d1d1d1" />
  <g
     id="g8"
     inkscape:groupmode="layer"
     inkscape:label="clean_arch"
     transform="translate(59.999999,2.64e-5)">
    <g
       id="g10" />
    <g
       id="g12"
       transform="translate(-2784)">
      <g
         id="g14"
         clip-path="url(#clipPath18)">
        <g
           id="g20" />
      </g>
    </g>
    <g
       id="g22"
       transform="translate(-2784)">
      <g
         id="g24"
         clip-path="url(#clipPath28)">
        <text
           xml:space="preserve"
           transform="translate(2784,83)"
           style="font-variant:normal;font-weight:normal;font-size:20px;font-family:'Times New Roman';-inkscape-font-specification:TimesNewRomanPSMT;writing-mode:lr-tb;fill:#000000;fill-opacity:1;fill-rule:nonzero;stroke:none"
           id="text32"><tspan
             x="0 14 19 24 29 38 47 52 58 68 83 92 99 104 111 117 126 135 140 145 155 161 166 171 180 189 194 204 210 219 228 235 244 258 263 269 278"
             y="0"
             sodipodi:role="line"
             id="tspan30">At the lower right of the diagram in </tspan></text>
        <text
           xml:space="preserve"
           transform="translate(3067,83)"
           style="font-variant:normal;font-weight:normal;font-size:20px;font-family:'Times New Roman';-inkscape-font-specification:TimesNewRomanPSMT;writing-mode:lr-tb;fill:#0000ee;fill-opacity:1;fill-rule:nonzero;stroke:none"
           id="text36"><tspan
             x="0 11 17 26 35 42 51 56 66 76 81"
             y="0"
             sodipodi:role="line"
             id="tspan34">Figure 22.1</tspan></text>
        <path
           d="m 3067,84.5 h 90 z"
           style="fill:none;stroke:#0000ee;stroke-width:1;stroke-linecap:square;stroke-linejoin:miter;stroke-miterlimit:10;stroke-dasharray:none;stroke-opacity:1"
           id="path38" />
        <text
           xml:space="preserve"
           transform="translate(3163,83)"
           style="font-variant:normal;font-weight:normal;font-size:20px;font-family:'Times New Roman';-inkscape-font-specification:TimesNewRomanPSMT;writing-mode:lr-tb;fill:#000000;fill-opacity:1;fill-rule:nonzero;stroke:none"
           id="text42"><tspan
             x="0 6 14 19 28 37 42 51 60 69 83 93 99 108 113 123 129 134 143 153 168 173 188 197 202 211 218 228 236 244 249 254 263"
             y="0"
             sodipodi:role="line"
             id="tspan40">is an example of how we cross the</tspan></text>
        <text
           xml:space="preserve"
           transform="translate(2784,106)"
           style="font-variant:normal;font-weight:normal;font-size:20px;font-family:'Times New Roman';-inkscape-font-specification:TimesNewRomanPSMT;writing-mode:lr-tb;fill:#000000;fill-opacity:1;fill-rule:nonzero;stroke:none"
           id="text46"><tspan
             x="0 9 15 22 31 37 46 51 61 71 80 89 99 108 115 121 130 138 143 148 154 159 164 172 181 191 206 214 219 224 233 242 247 256 266 275 280 287 297 303 309 318 325 333 338 347 356 366 371 381 388 397 405 414 423 428 437 444 452 457 466 476 490 504 513 522 528 537 546 551 557 566 575 580 595 601 606 615 620 625 634 643 648 657 665"
             y="0"
             sodipodi:role="line"
             id="tspan44">circle boundaries. It shows the controllers and presenters communicating with the use</tspan></text>
        <text
           xml:space="preserve"
           transform="translate(2784,129)"
           style="font-variant:normal;font-weight:normal;font-size:20px;font-family:'Times New Roman';-inkscape-font-specification:TimesNewRomanPSMT;writing-mode:lr-tb;fill:#000000;fill-opacity:1;fill-rule:nonzero;stroke:none"
           id="text50"><tspan
             x="0 9 18 26 35 43 48 54 63 68 73 82 91 96 105 114 123 128 133 139 148 157 166 172 177 182 196 206 211 220 225 230 239 248 253 259 265 275 290 295 305 311 316 325 335 344 349 356 366 372 378 383 389 394 399 409 418 427 433 442 450 455 461 470 475 480 489 498 503 512 522 531 536 543 553 559 565 574 580 585 590 604 614 624 633"
             y="0"
             sodipodi:role="line"
             id="tspan48">cases in the next layer. Note the flow of control: It begins in the controller, moves</tspan></text>
        <text
           xml:space="preserve"
           transform="translate(2784,152)"
           style="font-variant:normal;font-weight:normal;font-size:20px;font-family:'Times New Roman';-inkscape-font-specification:TimesNewRomanPSMT;writing-mode:lr-tb;fill:#000000;fill-opacity:1;fill-rule:nonzero;stroke:none"
           id="text54"><tspan
             x="0 5 14 21 31 40 49 58 63 68 77 86 91 100 108 117 122 131 140 148 157 162 167 176 185 195 200 205 214 223 232 237 252 258 267 277 285 290 299 309 314 323 332 341 350 359 364 370 379 388 393 399 408 413 418 427 436 441 451 458 467 475 484 493 498 507 513 518 523 537 547 552 561 566 575 581 589 599 604 609 618 627 632 640 650 659 666 675"
             y="0"
             sodipodi:role="line"
             id="tspan52">through the use case, and then winds up executing in the presenter. Note also the source</tspan></text>
        <text
           xml:space="preserve"
           transform="translate(2784,175)"
           style="font-variant:normal;font-weight:normal;font-size:20px;font-family:'Times New Roman';-inkscape-font-specification:TimesNewRomanPSMT;writing-mode:lr-tb;fill:#000000;fill-opacity:1;fill-rule:nonzero;stroke:none"
           id="text58"><tspan
             x="0 9 19 29 38 43 53 62 72 81 90 100 109 118 127 133 142 150 156 161 173 182 191 200 205 215 225 231 240 245 253 258 264 273 288 297 304 314 319 324 334 349 358 365 375 380 385 394 403 408 417 425 434 439 448 457 465 474 482"
             y="0"
             sodipodi:role="line"
             id="tspan56">code dependencies: Each points inward toward the use cases.</tspan></text>
        <text
           xml:space="preserve"
           transform="translate(2784,218)"
           style="font-variant:normal;font-weight:normal;font-size:20px;font-family:'Times New Roman';-inkscape-font-specification:TimesNewRomanPSMT;writing-mode:lr-tb;fill:#000000;fill-opacity:1;fill-rule:nonzero;stroke:none"
           id="text62"><tspan
             x="0 16 25 30 39 47 56 65 71 77 86 91 98 107 115 125 131 141 150 155 160 169 175 183 188 197 207 217 226 233 242 251 256 261 270 280 289 294 301 310 320 326 335 340 346 356 365 370 380 389 394 403 411 417 426 435 440 445 454 463 468 482 491 501 510 519 529 538 547 556 565 570 576 585 595 604 611 619 625 635"
             y="0"
             sodipodi:role="line"
             id="tspan60">We usually resolve this apparent contradiction by using the Dependency Inversion</tspan></text>
        <text
           xml:space="preserve"
           transform="translate(2784,241)"
           style="font-variant:normal;font-weight:normal;font-size:20px;font-family:'Times New Roman';-inkscape-font-specification:TimesNewRomanPSMT;writing-mode:lr-tb;fill:#000000;fill-opacity:1;fill-rule:nonzero;stroke:none"
           id="text66"><tspan
             x="0 11 18 24 33 42 48 58 64 73 78 83 89 98 103 112 117 123 132 141 150 159 168 177 186 191 197 203 212 221 226 234 243 253 262 267 272 278 288 295 300 309 318 327 341 351 357 366 371 376 391 400 405 420 430 439 445 455 460 469 476 483 492 501 510 519 524 530 539 544 553 560 566 575 584 593 601 606 615 624"
             y="0"
             sodipodi:role="line"
             id="tspan64">Principle. In a language like Java, for example, we would arrange interfaces and</tspan></text>
        <text
           xml:space="preserve"
           transform="translate(2784,264)"
           style="font-variant:normal;font-weight:normal;font-size:20px;font-family:'Times New Roman';-inkscape-font-specification:TimesNewRomanPSMT;writing-mode:lr-tb;fill:#000000;fill-opacity:1;fill-rule:nonzero;stroke:none"
           id="text70"><tspan
             x="0 6 15 24 33 40 46 51 60 69 78 87 92 99 108 114 123 128 134 144 153 161 170 176 186 194 199 207 216 225 234 239 244 253 262 267 272 277 286 295 300 308 318 327 334 343 352 357 366 376 386 395 400 410 419 429 438 447 457 466 475 484 490 499 507 512 522 532 542 552 560 569 574 579 588 597 602 608 614 624 639 644 654"
             y="0"
             sodipodi:role="line"
             id="tspan68">inheritance relationships such that the source code dependencies oppose the flow of</tspan></text>
        <text
           xml:space="preserve"
           transform="translate(2784,287)"
           style="font-variant:normal;font-weight:normal;font-size:20px;font-family:'Times New Roman';-inkscape-font-specification:TimesNewRomanPSMT;writing-mode:lr-tb;fill:#000000;fill-opacity:1;fill-rule:nonzero;stroke:none"
           id="text74"><tspan
             x="0 9 19 28 33 40 50 56 61 70 75 80 86 95 103 108 113 118 127 136 141 148 154 163 172 177 182 192 202 208 217 222 230 235 244 253 260 270 278 286 291 296 305 314 319 329 339 348 357 367 376 383 391"
             y="0"
             sodipodi:role="line"
             id="tspan72">control at just the right points across the boundary.</tspan></text>
        <text
           xml:space="preserve"
           transform="translate(2784,330)"
           style="font-variant:normal;font-weight:normal;font-size:20px;font-family:'Times New Roman';-inkscape-font-specification:TimesNewRomanPSMT;writing-mode:lr-tb;fill:#000000;fill-opacity:1;fill-rule:nonzero;stroke:none"
           id="text78"><tspan
             x="0 11 21 28 33 42 51 60 74 84 90 99 104 109 117 126 136 146 156 164 173 178 183 192 201 206 215 223 232 237 246 255 263 272 277 286 295 304 314 322 327 332 342 347 356 365 371 377 382 387 396 405 410 420 427 436 444 453 462 467 476 482 487 492 504 513 519 527 532 541 550 556 562 567 581 590 598 603 608 617 627 632 637 647"
             y="0"
             sodipodi:role="line"
             id="tspan76">For example, suppose the use case needs to call the presenter. This call must not be</tspan></text>
        <text
           xml:space="preserve"
           transform="translate(2784,353)"
           style="font-variant:normal;font-weight:normal;font-size:20px;font-family:'Times New Roman';-inkscape-font-specification:TimesNewRomanPSMT;writing-mode:lr-tb;fill:#000000;fill-opacity:1;fill-rule:nonzero;stroke:none"
           id="text82"><tspan
             x="0 10 16 23 32 41 46 51 61 70 79 88 97 105 114 119 124 133 142 147 152 167 177 186 192 202 207 217 223 233 239 248 253 262 267 272 281 290 295 309 318 328 337 346 356 365 374 383 392 397 410 419 425 434 440 445 459 469 474 483 492 506 515 520 526 535 540 549 558 563 573 582 587 596 603 608 617 623 630 639 645 654 659 668 677"
             y="0"
             sodipodi:role="line"
             id="tspan80">direct because that would violate the Dependency Rule: No name in an outer circle can</tspan></text>
        <text
           xml:space="preserve"
           transform="translate(2784,376)"
           style="font-variant:normal;font-weight:normal;font-size:20px;font-family:'Times New Roman';-inkscape-font-specification:TimesNewRomanPSMT;writing-mode:lr-tb;fill:#000000;fill-opacity:1;fill-rule:nonzero;stroke:none"
           id="text86"><tspan
             x="0 10 19 24 38 47 56 61 67 77 86 95 105 110 120 129 134 143 152 157 163 172 181 190 197 202 211 217 224 233 239 248 253 258 269 279 284 299 308 313 322 331 341 350 355 360 369 378 383 392 400 409 414 423 432 440 449 454 463 472 478 484 489 498 507 512 518 527 532 541 548 554 563 572 581 586 593 601 610 620 635 644 649 655"
             y="0"
             sodipodi:role="line"
             id="tspan84">be mentioned by an inner circle. So we have the use case call an interface (shown in</tspan></text>
        <text
           xml:space="preserve"
           transform="translate(2784,399)"
           style="font-variant:normal;font-weight:normal;font-size:20px;font-family:'Times New Roman';-inkscape-font-specification:TimesNewRomanPSMT;writing-mode:lr-tb;fill:#0000ee;fill-opacity:1;fill-rule:nonzero;stroke:none"
           id="text90"><tspan
             x="0 11 17 26 35 42 51 56 66 76 81"
             y="0"
             sodipodi:role="line"
             id="tspan88">Figure 22.1</tspan></text>
        <path
           d="m 2784,400.5 h 90 z"
           style="fill:none;stroke:#0000ee;stroke-width:1;stroke-linecap:square;stroke-linejoin:miter;stroke-miterlimit:10;stroke-dasharray:none;stroke-opacity:1"
           id="path92" />
        <text
           xml:space="preserve"
           transform="translate(2880,399)"
           style="font-variant:normal;font-weight:normal;font-size:20px;font-family:'Times New Roman';-inkscape-font-specification:TimesNewRomanPSMT;writing-mode:lr-tb;fill:#000000;fill-opacity:1;fill-rule:nonzero;stroke:none"
           id="text96"><tspan
             x="0 9 17 22 31 40 48 57 62 71 80 88 97 102 112 121 126 136 145 150 155 165 175 182 187 196 203 208 214 223 228 233 242 251 256 262 271 280 289 296 301 310 316 323 332 338 347 352 357 366 375 385 390 399 408 418 427 432 437 446 455 460 470 477 486 494 503 512 517 526 533 538 544 553 558 563 572"
             y="0"
             sodipodi:role="line"
             id="tspan94">as “use case output port”) in the inner circle, and have the presenter in the</tspan></text>
        <text
           xml:space="preserve"
           transform="translate(2784,422)"
           style="font-variant:normal;font-weight:normal;font-size:20px;font-family:'Times New Roman';-inkscape-font-specification:TimesNewRomanPSMT;writing-mode:lr-tb;fill:#000000;fill-opacity:1;fill-rule:nonzero;stroke:none"
           id="text100"><tspan
             x="0 10 19 24 33 40 45 54 60 67 76 82 91 96 102 116 126 132 141 155 164 173 178 183 189 194"
             y="0"
             sodipodi:role="line"
             id="tspan98">outer circle implement it.</tspan></text>
        <text
           xml:space="preserve"
           transform="translate(2784,465)"
           style="font-variant:normal;font-weight:normal;font-size:20px;font-family:'Times New Roman';-inkscape-font-specification:TimesNewRomanPSMT;writing-mode:lr-tb;fill:#000000;fill-opacity:1;fill-rule:nonzero;stroke:none"
           id="text104"><tspan
             x="0 12 21 30 35 43 52 66 75 80 85 94 103 112 121 127 137 146 155 160 166 174 179 188 196 205 215 220 225 235 240 249 256 266 274 282 287 296 302 308 313 318 327 336 341 351 361 370 379 389 398 405 411 420 428 433 439 448 453 458 467 476 481 490 497 506 515 521 526 535 544 549 558 565 574 582 587 592 608 617 622 627 636 645"
             y="0"
             sodipodi:role="line"
             id="tspan102">The same technique is used to cross all the boundaries in the architectures. We take</tspan></text>
        <text
           xml:space="preserve"
           transform="translate(2784,488)"
           style="font-variant:normal;font-weight:normal;font-size:20px;font-family:'Times New Roman';-inkscape-font-specification:TimesNewRomanPSMT;writing-mode:lr-tb;fill:#000000;fill-opacity:1;fill-rule:nonzero;stroke:none"
           id="text108"><tspan
             x="0 9 19 29 38 47 52 61 70 79 84 94 100 105 115 124 133 142 156 162 171 176 186 196 202 211 225 235 242 252 261 267 275 289 294 299 309 314 323 330 339 348 353 362 367 375 385 394 401 410 419 424 433 443 453 462 467 477 486 496 505 514 524 533 542 551 557 566 574 579 584 593 602 607 612 622 632 642 652 660"
             y="0"
             sodipodi:role="line"
             id="tspan106">advantage of dynamic polymorphism to create source code dependencies that oppose</tspan></text>
        <text
           xml:space="preserve"
           transform="translate(2784,511)"
           style="font-variant:normal;font-weight:normal;font-size:20px;font-family:'Times New Roman';-inkscape-font-specification:TimesNewRomanPSMT;writing-mode:lr-tb;fill:#000000;fill-opacity:1;fill-rule:nonzero;stroke:none"
           id="text112"><tspan
             x="0 5 14 23 28 34 40 50 65 70 80 86 91 100 110 119 124 131 141 147 152 160 170 175 180 189 198 203 208 223 232 237 246 255 264 269 278 288 297 303 313 320 334 339 344 354 359 364 373 382 387 401 410 420 429 438 448 457 466 475 484 489 502 511 517 526 531 536 545 555 560 574 583 588 593 602 609 614 629 638 644 653"
             y="0"
             sodipodi:role="line"
             id="tspan110">the flow of control so that we can conform to the Dependency Rule, no matter which</tspan></text>
        <text
           xml:space="preserve"
           transform="translate(2784,534)"
           style="font-variant:normal;font-weight:normal;font-size:20px;font-family:'Times New Roman';-inkscape-font-specification:TimesNewRomanPSMT;writing-mode:lr-tb;fill:#000000;fill-opacity:1;fill-rule:nonzero;stroke:none"
           id="text116"><tspan
             x="0 10 16 23 32 41 46 52 62 71 76 81 90 99 104 110 116 126 141 146 156 162 167 176 186 195 200 207 217 223 228 233 240 249 259 268 274 282"
             y="0"
             sodipodi:role="line"
             id="tspan114">direction the flow of control travels.</tspan></text>
        <text
           xml:space="preserve"
           transform="translate(2784,584)"
           style="font-variant:normal;font-weight:bold;font-size:23px;font-family:'Times New Roman';-inkscape-font-specification:TimesNewRomanPS-BoldMT;writing-mode:lr-tb;fill:#000000;fill-opacity:1;fill-rule:nonzero;stroke:none"
           id="text120"><tspan
             x="0"
             y="0"
             id="tspan118">W</tspan></text>
        <text
           xml:space="preserve"
           transform="translate(2806,584)"
           style="font-variant:normal;font-weight:bold;font-size:23px;font-family:'Times New Roman';-inkscape-font-specification:TimesNewRomanPS-BoldMT;writing-mode:lr-tb;fill:#000000;fill-opacity:1;fill-rule:nonzero;stroke:none"
           id="text124"><tspan
             x="0 18 27 44"
             y="0"
             sodipodi:role="line"
             id="tspan122">HICH</tspan></text>
        <text
           xml:space="preserve"
           transform="translate(2874,584)"
           style="font-variant:normal;font-weight:bold;font-size:23px;font-family:'Times New Roman';-inkscape-font-specification:TimesNewRomanPS-BoldMT;writing-mode:lr-tb;fill:#000000;fill-opacity:1;fill-rule:nonzero;stroke:none"
           id="text128"><tspan
             x="0"
             y="0"
             id="tspan126">D</tspan></text>
        <text
           xml:space="preserve"
           transform="translate(2891,584)"
           style="font-variant:normal;font-weight:bold;font-size:23px;font-family:'Times New Roman';-inkscape-font-specification:TimesNewRomanPS-BoldMT;writing-mode:lr-tb;fill:#000000;fill-opacity:1;fill-rule:nonzero;stroke:none"
           id="text132"><tspan
             x="0 14 27"
             y="0"
             sodipodi:role="line"
             id="tspan130">ATA</tspan></text>
        <text
           xml:space="preserve"
           transform="translate(2940,584)"
           style="font-variant:normal;font-weight:bold;font-size:23px;font-family:'Times New Roman';-inkscape-font-specification:TimesNewRomanPS-BoldMT;writing-mode:lr-tb;fill:#000000;fill-opacity:1;fill-rule:nonzero;stroke:none"
           id="text136"><tspan
             x="0"
             y="0"
             id="tspan134">C</tspan></text>
        <text
           xml:space="preserve"
           transform="translate(2957,584)"
           style="font-variant:normal;font-weight:bold;font-size:23px;font-family:'Times New Roman';-inkscape-font-specification:TimesNewRomanPS-BoldMT;writing-mode:lr-tb;fill:#000000;fill-opacity:1;fill-rule:nonzero;stroke:none"
           id="text140"><tspan
             x="0 17 35 48 61 76 89 95 110 128"
             y="0"
             sodipodi:role="line"
             id="tspan138">ROSSES THE</tspan></text>
        <text
           xml:space="preserve"
           transform="translate(3106,584)"
           style="font-variant:normal;font-weight:bold;font-size:23px;font-family:'Times New Roman';-inkscape-font-specification:TimesNewRomanPS-BoldMT;writing-mode:lr-tb;fill:#000000;fill-opacity:1;fill-rule:nonzero;stroke:none"
           id="text144"><tspan
             x="0"
             y="0"
             id="tspan142">B</tspan></text>
        <text
           xml:space="preserve"
           transform="translate(3122,584)"
           style="font-variant:normal;font-weight:bold;font-size:23px;font-family:'Times New Roman';-inkscape-font-specification:TimesNewRomanPS-BoldMT;writing-mode:lr-tb;fill:#000000;fill-opacity:1;fill-rule:nonzero;stroke:none"
           id="text148"><tspan
             x="0 18 35 52 69 85 102 111 126"
             y="0"
             sodipodi:role="line"
             id="tspan146">OUNDARIES</tspan></text>
        <text
           xml:space="preserve"
           transform="translate(2784,627)"
           style="font-variant:normal;font-weight:normal;font-size:20px;font-family:'Times New Roman';-inkscape-font-specification:TimesNewRomanPSMT;writing-mode:lr-tb;fill:#000000;fill-opacity:1;fill-rule:nonzero;stroke:none"
           id="text152"><tspan
             x="0 10 19 29 35 44 53 59 65 74 79 84 93 102 107 117 126 131 140 145 150 159 168 173 178 187 194 204 212 220 229 237 242 247 256 265 270 280 290 299 308 318 327 334 340 349 357 362 371 381 390 398 404 412 417 425 430 440 446 451 459 465 479 489 495 504 509 519 528 533 542 547 555 560 567 576 585 590 599 606 615 623 628 633 645 655"
             y="0"
             sodipodi:role="line"
             id="tspan150">Typically the data that crosses the boundaries consists of simple data structures. You</tspan></text>
        <text
           xml:space="preserve"
           transform="translate(2784,650)"
           style="font-variant:normal;font-weight:normal;font-size:20px;font-family:'Times New Roman';-inkscape-font-specification:TimesNewRomanPSMT;writing-mode:lr-tb;fill:#000000;fill-opacity:1;fill-rule:nonzero;stroke:none"
           id="text156"><tspan
             x="0 9 18 27 32 41 49 58 63 73 82 90 96 105 110 118 123 130 139 148 153 161 166 176 183 188 196 202 216 226 232 241 246 256 265 270 279 284 289 296 305 314 322 328 337 344 349 359 369 375 384 393 398 406 411 417 423 428 437 447 456 461 467 473 482 491 496 501 515 522 527 532 541 550 555 565 574 579 588 593 602 611 620 625 633 639 653 663 669"
             y="0"
             sodipodi:role="line"
             id="tspan154">can use basic structs or simple data transfer objects if you like. Or the data can simply</tspan></text>
        <text
           xml:space="preserve"
           transform="translate(2784,673)"
           style="font-variant:normal;font-weight:normal;font-size:20px;font-family:'Times New Roman';-inkscape-font-specification:TimesNewRomanPSMT;writing-mode:lr-tb;fill:#000000;fill-opacity:1;fill-rule:nonzero;stroke:none"
           id="text160"><tspan
             x="0 10 19 24 33 40 49 58 72 81 90 95 103 108 114 123 128 134 143 152 161 166 172 182 191 196 205 214 220 226 234 239 244 258 265 270 279 289 298 303 312 321 330 335 345 354 363 372 377 383 388 393 399 408 413 423 428 437 442 451 460 468 477 491 500 510 515 520 530 537 542 551 561 570 578 583 590 599 608 613 618 624 629 634 640 649 654 664 669 678"
             y="0"
             sodipodi:role="line"
             id="tspan158">be arguments in function calls. Or you can pack it into a hashmap, or construct it into an</tspan></text>
        <text
           xml:space="preserve"
           transform="translate(2784,696)"
           style="font-variant:normal;font-weight:normal;font-size:20px;font-family:'Times New Roman';-inkscape-font-specification:TimesNewRomanPSMT;writing-mode:lr-tb;fill:#000000;fill-opacity:1;fill-rule:nonzero;stroke:none"
           id="text164"><tspan
             x="0 10 20 26 35 44 49 54 59 71 80 89 94 100 114 124 134 141 146 155 164 169 174 179 188 194 203 212 217 223 231 236 241 250 259 264 269 275 283 293 299 308 313 322 332 337 342 350 356 370 380 386 395 400 410 419 424 433 438 446 451 458 467 476 481 490 497 506 514 519 528 535 544 549 559 568 576 584 593 603 608 617 626 633 643 651 659 664 669 678"
             y="0"
             sodipodi:role="line"
             id="tspan162">object. The important thing is that isolated, simple data structures are passed across the</tspan></text>
        <text
           xml:space="preserve"
           transform="translate(2784,719)"
           style="font-variant:normal;font-weight:normal;font-size:20px;font-family:'Times New Roman';-inkscape-font-specification:TimesNewRomanPSMT;writing-mode:lr-tb;fill:#000000;fill-opacity:1;fill-rule:nonzero;stroke:none"
           id="text168"><tspan
             x="0 10 20 29 38 48 57 64 70 79 87 92 97 113 122 127 137 147 156 163 168 173 188 197 206 211 216 221 231 236 245 254 263 272 277 282 291 300 310 315 325 334 342 350 355 367 376 381 387 392 401 406 416 426 432 441 450 455 463 468 478 485 490 500 509 514 523 533 542 550 559 564 571 581 596 604 609 614 630 639 644 654 664 673 680"
             y="0"
             sodipodi:role="line"
             id="tspan166">boundaries. We don’t want to cheat and pass Entity objects or database rows. We don’t</tspan></text>
        <text
           xml:space="preserve"
           transform="translate(2784,742)"
           style="font-variant:normal;font-weight:normal;font-size:20px;font-family:'Times New Roman';-inkscape-font-specification:TimesNewRomanPSMT;writing-mode:lr-tb;fill:#000000;fill-opacity:1;fill-rule:nonzero;stroke:none"
           id="text172"><tspan
             x="0 15 24 33 38 43 48 57 66 71 81 90 95 104 109 117 122 129 138 147 152 161 168 177 185 190 195 205 210 219 228 238 247 252 261 270 279 284 293 299 308 318 323 333 339 344 354 363 373 382 391 401 410 419 428 437 442 447 456 465 470 475 485 491 501 507 516 521 530 538 543 548 557 566 571 585 594 604 613 622 632 641 650 659"
             y="0"
             sodipodi:role="line"
             id="tspan170">want the data structures to have any kind of dependency that violates the Dependency</tspan></text>
        <text
           xml:space="preserve"
           transform="translate(2784,765)"
           style="font-variant:normal;font-weight:normal;font-size:20px;font-family:'Times New Roman';-inkscape-font-specification:TimesNewRomanPSMT;writing-mode:lr-tb;fill:#000000;fill-opacity:1;fill-rule:nonzero;stroke:none"
           id="text176"><tspan
             x="0 13 22 28 37"
             y="0"
             sodipodi:role="line"
             id="tspan174">Rule.</tspan></text>
        <text
           xml:space="preserve"
           transform="translate(2784,808)"
           style="font-variant:normal;font-weight:normal;font-size:20px;font-family:'Times New Roman';-inkscape-font-specification:TimesNewRomanPSMT;writing-mode:lr-tb;fill:#000000;fill-opacity:1;fill-rule:nonzero;stroke:none"
           id="text180"><tspan
             x="0 11 21 28 33 42 51 60 74 84 90 99 104 109 123 132 141 150 155 165 174 179 188 198 207 215 224 229 235 242 251 265 274 289 299 306 315 323 328 335 344 349 358 365 374 379 388 393 402 412 421 431 440 449 455 464 473 478 483 493 502 507 516 521 527 537 544 558 567 572 577 583 592 597 604 613 621 631 641 650 658 667 672 677"
             y="0"
             sodipodi:role="line"
             id="tspan178">For example, many database frameworks return a convenient data format in response to</tspan></text>
        <text
           xml:space="preserve"
           transform="translate(2784,831)"
           style="font-variant:normal;font-weight:normal;font-size:20px;font-family:'Times New Roman';-inkscape-font-specification:TimesNewRomanPSMT;writing-mode:lr-tb;fill:#000000;fill-opacity:1;fill-rule:nonzero;stroke:none"
           id="text184"><tspan
             x="0 9 14 24 33 42 49 57 62 67 83 92 97 111 117 126 135 140 145 154 163 169 175 180 185 194 200 208 213 222 227 236 243 253 268 273 281 286 293 302 311 316 325 332 341 346 355 360 376 385 390 400 410 419 426 431 436 451 460 469 474 479 484 494 499 509 518 526 534 539 544 553 562 567 572 579 589 604 609 617 622 629 638 647 652 661 668"
             y="0"
             sodipodi:role="line"
             id="tspan182">a query. We might call this a “row structure.” We don’t want to pass that row structure</tspan></text>
        <text
           xml:space="preserve"
           transform="translate(2784,854)"
           style="font-variant:normal;font-weight:normal;font-size:20px;font-family:'Times New Roman';-inkscape-font-specification:TimesNewRomanPSMT;writing-mode:lr-tb;fill:#000000;fill-opacity:1;fill-rule:nonzero;stroke:none"
           id="text188"><tspan
             x="0 6 15 30 39 46 56 61 70 79 86 96 104 112 117 126 131 141 151 160 169 179 188 195 203 208 213 227 237 243 252 261 266 274 284 289 304 314 323 329 339 344 354 360 370 376 385 390 399 404 409 418 427 432 446 455 465 474 483 493 502 511 520 529 534 547 556 562 571 576 586 595 604 613 622 630 639 644 650"
             y="0"
             sodipodi:role="line"
             id="tspan186">inward across a boundary. Doing so would violate the Dependency Rule because it</tspan></text>
        <text
           xml:space="preserve"
           transform="translate(2784,877)"
           style="font-variant:normal;font-weight:normal;font-size:20px;font-family:'Times New Roman';-inkscape-font-specification:TimesNewRomanPSMT;writing-mode:lr-tb;fill:#000000;fill-opacity:1;fill-rule:nonzero;stroke:none"
           id="text192"><tspan
             x="0 15 25 34 40 50 55 61 71 78 87 96 101 110 119 124 130 139 148 157 164 169 178 184 191 200 206 215 220 225 235 240 249 258 268 283 288 296 306 320 329 334 343 349 358 367 372 381 391 401 410 415 420 429 438 443 453 462 467 476 483 488 497 503 510 519 525 534"
             y="0"
             sodipodi:role="line"
             id="tspan190">would force an inner circle to know something about an outer circle.</tspan></text>
        <text
           xml:space="preserve"
           transform="translate(2784,920)"
           style="font-variant:normal;font-weight:normal;font-size:20px;font-family:'Times New Roman';-inkscape-font-specification:TimesNewRomanPSMT;writing-mode:lr-tb;fill:#000000;fill-opacity:1;fill-rule:nonzero;stroke:none"
           id="text196"><tspan
             x="0 12 21 30 38 43 48 63 72 81 90 95 110 119 124 134 143 151 159 164 174 183 188 197 202 211 220 227 237 245 253 258 267 272 282 292 301 310 320 329 336 344 349 354 360 365 370 376 384 389 398 404 419 428 437 445 450 456 465 470 475 484 493 498 504 514 521 535 540 545 554 563 568 573 579 587 592 606 616 624"
             y="0"
             sodipodi:role="line"
             id="tspan194">Thus, when we pass data across a boundary, it is always in the form that is most</tspan></text>
        <text
           xml:space="preserve"
           transform="translate(2784,943)"
           style="font-variant:normal;font-weight:normal;font-size:20px;font-family:'Times New Roman';-inkscape-font-specification:TimesNewRomanPSMT;writing-mode:lr-tb;fill:#000000;fill-opacity:1;fill-rule:nonzero;stroke:none"
           id="text200"><tspan
             x="0 9 19 28 38 47 56 62 71 80 85 90 96 106 113 118 123 132 141 146 152 161 170 179 186 191 200 206 213 222 228 237"
             y="0"
             sodipodi:role="line"
             id="tspan198">convenient for the inner circle.</tspan></text>
      </g>
    </g>
  </g>
</svg>
