<?xml version="1.0" encoding="UTF-8" standalone="no"?>
<!-- Created with Inkscape (http://www.inkscape.org/) -->

<svg
   version="1.1"
   id="svg2"
   width="816"
   height="1056"
   viewBox="0 0 816 1056"
   sodipodi:docname="clean_arch.pdf"
   xmlns:inkscape="http://www.inkscape.org/namespaces/inkscape"
   xmlns:sodipodi="http://sodipodi.sourceforge.net/DTD/sodipodi-0.dtd"
   xmlns="http://www.w3.org/2000/svg"
   xmlns:svg="http://www.w3.org/2000/svg">
  <defs
     id="defs6">
    <clipPath
       clipPathUnits="userSpaceOnUse"
       id="clipPath18">
      <path
         d="m 5568,0 h 696 V 1056 H 5568 V 0"
         clip-rule="evenodd"
         id="path16" />
    </clipPath>
    <clipPath
       clipPathUnits="userSpaceOnUse"
       id="clipPath28">
      <path
         d="m 5568,66 h 696 V 996 H 5568 V 66"
         clip-rule="evenodd"
         id="path26" />
    </clipPath>
  </defs>
  <sodipodi:namedview
     id="namedview4"
     pagecolor="#ffffff"
     bordercolor="#000000"
     borderopacity="0.25"
     inkscape:showpageshadow="2"
     inkscape:pageopacity="0.0"
     inkscape:pagecheckerboard="0"
     inkscape:deskcolor="#d1d1d1" />
  <g
     id="g8"
     inkscape:groupmode="layer"
     inkscape:label="clean_arch"
     transform="translate(59.999999,2.64e-5)">
    <g
       id="g10" />
    <g
       id="g12"
       transform="translate(-5568)">
      <g
         id="g14"
         clip-path="url(#clipPath18)">
        <g
           id="g20" />
      </g>
    </g>
    <g
       id="g22"
       transform="translate(-5568)">
      <g
         id="g24"
         clip-path="url(#clipPath28)">
        <text
           xml:space="preserve"
           transform="translate(5568,83)"
           style="font-variant:normal;font-weight:normal;font-size:20px;font-family:'Times New Roman';-inkscape-font-specification:TimesNewRomanPSMT;writing-mode:lr-tb;fill:#000000;fill-opacity:1;fill-rule:nonzero;stroke:none"
           id="text32"><tspan
             x="0 10 17 27 36 43 52 66 71 80 89 99 104 113 122 131 140 149 154 163 168 174 179 184 189 201 210 216 224 229 239 246 256 265 272 281 295 300 315 325 334 340 350 355 362 371 380 390 395 400 409 418 423 429 435 442 450 455 460 470 476 486 495 504 509 519 525 530 540 549 554 563 568 574 581 591 605 610 615 624 633 638 643 652 662 671"
             y="0"
             sodipodi:role="line"
             id="tspan30">program and execute it. This program would read the first block of data from the tape,</tspan></text>
        <text
           xml:space="preserve"
           transform="translate(5568,106)"
           style="font-variant:normal;font-weight:normal;font-size:20px;font-family:'Times New Roman';-inkscape-font-specification:TimesNewRomanPSMT;writing-mode:lr-tb;fill:#000000;fill-opacity:1;fill-rule:nonzero;stroke:none"
           id="text36"><tspan
             x="0 9 18 28 33 42 51 60 69 78 83 92 97 102 111 120 125 130 135 145 154 164 170 179 188 194 200 209 214 219 228 234 242 247 257 263 273 282 291 296 305 314 320 330 335 344 349 355 365 374 384 393 400 405 410 419 428 433 438 444 454 463 473 482 492 497 502 511 520 525 535 545 554 561 570 575 581 590 599 604 612 621 629 634 643 657 662 667 676 685"
             y="0"
             sodipodi:role="line"
             id="tspan34">and execute that. Typically this block held a loader that loaded the operating system that</tspan></text>
        <text
           xml:space="preserve"
           transform="translate(5568,129)"
           style="font-variant:normal;font-weight:normal;font-size:20px;font-family:'Times New Roman';-inkscape-font-specification:TimesNewRomanPSMT;writing-mode:lr-tb;fill:#000000;fill-opacity:1;fill-rule:nonzero;stroke:none"
           id="text40"><tspan
             x="0 6 12 22 31 41 46 56 65 70 75 84 93 98 105 114 122 127 132 142 148 153 158 167 176 181 186 195 205 214"
             y="0"
             sodipodi:role="line"
             id="tspan38">lived on the rest of the tape.</tspan></text>
        <text
           xml:space="preserve"
           transform="translate(5568,172)"
           style="font-variant:normal;font-weight:normal;font-size:20px;font-family:'Times New Roman';-inkscape-font-specification:TimesNewRomanPSMT;writing-mode:lr-tb;fill:#000000;fill-opacity:1;fill-rule:nonzero;stroke:none"
           id="text44"><tspan
             x="0 12 21 30 35 45 55 64 71 80 85 91 100 109 114 122 131 139 144 153 167 172 187 197 206 212 222 227 237 244 254 268 278 283 288 293 302 311 316 325 333 342 349 354 360 370 377 382 387 396 405 410 419 428 442 451 456 466 472 477 486 491 501 508 518 527 534 543 557 562 567 577 582 589 598 607 612 617 629 638 648 656"
             y="0"
             sodipodi:role="line"
             id="tspan42">The operating system would prompt the user for the name of a program to run. Those</tspan></text>
        <text
           xml:space="preserve"
           transform="translate(5568,195)"
           style="font-variant:normal;font-weight:normal;font-size:20px;font-family:'Times New Roman';-inkscape-font-specification:TimesNewRomanPSMT;writing-mode:lr-tb;fill:#000000;fill-opacity:1;fill-rule:nonzero;stroke:none"
           id="text48"><tspan
             x="0 10 17 27 36 43 52 66 74 79 94 103 110 119 124 132 137 147 154 163 173 178 188 197 202 207 216 225 230 235 244 254 263 268 273 279 288 296 301 306 315 321 326 335 342 347 352 361 370 375 385 395 404 411 420 425 431 440 449 454 462 471 479 484 493 507 512 517 533 542 547 562 572 581 587 597 602 607 616 626 635 640 646 655 660 665 674"
             y="0"
             sodipodi:role="line"
             id="tspan46">programs were stored on the tape, just after the operating system. We would type in the</tspan></text>
        <text
           xml:space="preserve"
           transform="translate(5568,218)"
           style="font-variant:normal;font-weight:normal;font-size:20px;font-family:'Times New Roman';-inkscape-font-specification:TimesNewRomanPSMT;writing-mode:lr-tb;fill:#000000;fill-opacity:1;fill-rule:nonzero;stroke:none"
           id="text52"><tspan
             x="0 9 18 32 41 46 56 62 67 72 81 90 95 105 112 122 131 138 147 161 181 187 197 204 209 218 227 236 250 260 266 275 280 285 290 299 308 313 325 339 346 356 366 376"
             y="0"
             sodipodi:role="line"
             id="tspan50">name of the program—for example, the ED-402 </tspan></text>
        <text
           xml:space="preserve"
           transform="translate(5949,218)"
           style="font-variant:normal;font-weight:normal;font-size:20px;font-family:'Times New Roman';-inkscape-font-specification:TimesNewRomanPSMT;writing-mode:lr-tb;fill:#000000;fill-opacity:1;fill-rule:nonzero;stroke:none"
           id="text56"><tspan
             x="0 12 22 28 33 43 50 70 79 88 98 103 108 117 126 131 141 151 160 167 176 181 187 196 205 210 218 227 235 240 249"
             y="0"
             sodipodi:role="line"
             id="tspan54">Editor—and the operating system</tspan></text>
        <text
           xml:space="preserve"
           transform="translate(5568,241)"
           style="font-variant:normal;font-weight:normal;font-size:20px;font-family:'Times New Roman';-inkscape-font-specification:TimesNewRomanPSMT;writing-mode:lr-tb;fill:#000000;fill-opacity:1;fill-rule:nonzero;stroke:none"
           id="text60"><tspan
             x="0 15 25 34 40 50 55 63 72 81 88 97 106 111 116 125 134 139 144 153 163 172 177 183 193 200 205 210 219 228 233 238 248 255 265 274 281 290 304 309 314 320 330 339 349 354 360 365 370 375 384 393 403 408 417 426 435 444 453 458 467 472 478 483"
             y="0"
             sodipodi:role="line"
             id="tspan58">would search the tape for that program, load it, and execute it.</tspan></text>
        <text
           xml:space="preserve"
           transform="translate(5568,287)"
           style="font-variant:normal;font-weight:normal;font-size:20px;font-family:'Times New Roman';-inkscape-font-specification:TimesNewRomanPSMT;writing-mode:lr-tb;fill:#000000;fill-opacity:1;fill-rule:nonzero;stroke:none"
           id="text64"><tspan
             x="0 12 21 30 35 44 54 63 71 81 87 96 101 116 125 133 138 147 156 161 175 186 199 205 211 216 229 241 253 258 273 279 284 293 298 307 314 323 332 341 346 356 365 375 383 393 402 412 419 427 432 437 447 457 462 471 480 489 496 505 514 519 528 535 543 548 563 569 579"
             y="0"
             sodipodi:role="line"
             id="tspan62">The console was an ASCII CRT with green phosphors, 72 characters wide</tspan></text>
        <text
           xml:space="preserve"
           transform="translate(6156,280)"
           style="font-variant:normal;font-weight:normal;font-size:15px;font-family:'Times New Roman';-inkscape-font-specification:TimesNewRomanPSMT;writing-mode:lr-tb;fill:#0000ee;fill-opacity:1;fill-rule:nonzero;stroke:none"
           id="text68"><tspan
             x="0"
             y="0"
             id="tspan66">5</tspan></text>
        <path
           d="m 6156,281.5 h 6 z"
           style="fill:none;stroke:#0000ee;stroke-width:1;stroke-linecap:square;stroke-linejoin:miter;stroke-miterlimit:10;stroke-dasharray:none;stroke-opacity:1"
           id="path70" />
        <text
           xml:space="preserve"
           transform="translate(6168,287)"
           style="font-variant:normal;font-weight:normal;font-size:20px;font-family:'Times New Roman';-inkscape-font-specification:TimesNewRomanPSMT;writing-mode:lr-tb;fill:#000000;fill-opacity:1;fill-rule:nonzero;stroke:none"
           id="text74"><tspan
             x="0 10 19 24 34 44 49 55 61 70 79 87"
             y="0"
             sodipodi:role="line"
             id="tspan72">by 24 lines.</tspan></text>
        <text
           xml:space="preserve"
           transform="translate(5568,310)"
           style="font-variant:normal;font-weight:normal;font-size:20px;font-family:'Times New Roman';-inkscape-font-specification:TimesNewRomanPSMT;writing-mode:lr-tb;fill:#000000;fill-opacity:1;fill-rule:nonzero;stroke:none"
           id="text78"><tspan
             x="0 12 21 30 35 44 53 62 69 78 87 92 101 108 116 121 136 145 152 161 166 175 181 187 192 201 211 221 230 237 246 255 263 272"
             y="0"
             sodipodi:role="line"
             id="tspan76">The characters were all uppercase.</tspan></text>
        <text
           xml:space="preserve"
           transform="translate(5568,353)"
           style="font-variant:normal;font-weight:normal;font-size:20px;font-family:'Times New Roman';-inkscape-font-specification:TimesNewRomanPSMT;writing-mode:lr-tb;fill:#000000;fill-opacity:1;fill-rule:nonzero;stroke:none"
           id="text82"><tspan
             x="0 10 20 25 34 44 50 55 60 69 74 84 91 101 110 117 126 140 145 150 159 169 178 183 198 208 217 223 233 238 244 254 263 273 278 283 292 301 306 318 332 339 349 359 369 374 386 396 402 407 417 423 428 433 442 451 461 466 471 480 489 498 503 509 518 526 535 542 547 552 557 566 575 580 585 594 604 613 618 623 632 641 646 651 660 669 675"
             y="0"
             sodipodi:role="line"
             id="tspan80">To edit a program, you would load the ED-402 Editor, and then insert the tape that held</tspan></text>
        <text
           xml:space="preserve"
           transform="translate(5568,376)"
           style="font-variant:normal;font-weight:normal;font-size:20px;font-family:'Times New Roman';-inkscape-font-specification:TimesNewRomanPSMT;writing-mode:lr-tb;fill:#000000;fill-opacity:1;fill-rule:nonzero;stroke:none"
           id="text86"><tspan
             x="0 9 19 28 35 40 48 58 67 74 83 92 97 106 116 126 135 140 145 157 167 176 181 196 206 215 221 231 236 243 252 261 271 276 286 295 304 309 314 323 333 342 347 357 363 373 382 391 396 406 412 417 422 431 440 445 450 458 468 477 484 493 502 507 516 526 536 545 550 556 565 570 580 585 599 608 622 632 639 647 652 657 666 675"
             y="0"
             sodipodi:role="line"
             id="tspan84">your source code. You would read one tape block of that source code into memory, and</tspan></text>
        <text
           xml:space="preserve"
           transform="translate(5568,399)"
           style="font-variant:normal;font-weight:normal;font-size:20px;font-family:'Times New Roman';-inkscape-font-specification:TimesNewRomanPSMT;writing-mode:lr-tb;fill:#000000;fill-opacity:1;fill-rule:nonzero;stroke:none"
           id="text90"><tspan
             x="0 6 11 16 31 41 50 56 66 71 81 90 95 105 111 119 129 135 144 153 162 172 177 187 196 201 206 215 224 229 237 246 253 262 271 280 285 290 302 311 320 325 330 339 349 358 363 373 379 389 398 407 412 426 432 441 450 455 460 469 479 485 495 500 510 520 525 531 537 546 555 563 568 578 584 589 598 608 618 627 632 637 649 659"
             y="0"
             sodipodi:role="line"
             id="tspan88">it would be displayed on the screen. The tape block might hold 50 lines of code. You</tspan></text>
        <text
           xml:space="preserve"
           transform="translate(5568,422)"
           style="font-variant:normal;font-weight:normal;font-size:20px;font-family:'Times New Roman';-inkscape-font-specification:TimesNewRomanPSMT;writing-mode:lr-tb;fill:#000000;fill-opacity:1;fill-rule:nonzero;stroke:none"
           id="text94"><tspan
             x="0 15 25 34 40 50 55 69 78 87 96 101 110 120 129 136 141 150 160 166 171 179 184 194 203 208 222 232 242 248 257 266 271 276 285 294 299 308 317 324 332 342 349 354 363 370 380 389 398 408 413 423 432 437 442 451 460 465 473 482 489 498 507 516 521 530 539 549 554 559 568 578 584 593 602 607 613 622 627"
             y="0"
             sodipodi:role="line"
             id="tspan92">would make your edits by moving the cursor around on the screen and typing in a</tspan></text>
        <text
           xml:space="preserve"
           transform="translate(5568,445)"
           style="font-variant:normal;font-weight:normal;font-size:20px;font-family:'Times New Roman';-inkscape-font-specification:TimesNewRomanPSMT;writing-mode:lr-tb;fill:#000000;fill-opacity:1;fill-rule:nonzero;stroke:none"
           id="text98"><tspan
             x="0 14 23 32 41 50 57 62 70 76 90 96 102 111 118 123 128 138"
             y="0"
             sodipodi:role="line"
             id="tspan96">manner similar to </tspan></text>
        <text
           xml:space="preserve"
           transform="translate(5711,445)"
           style="font-variant:normal;font-weight:normal;font-size:16px;font-family:'Courier New';-inkscape-font-specification:CourierNewPSMT;writing-mode:lr-tb;fill:#000000;fill-opacity:1;fill-rule:nonzero;stroke:none"
           id="text102"><tspan
             x="0 10"
             y="0"
             sodipodi:role="line"
             id="tspan100">vi</tspan></text>
        <text
           xml:space="preserve"
           transform="translate(5731,445)"
           style="font-variant:normal;font-weight:normal;font-size:20px;font-family:'Times New Roman';-inkscape-font-specification:TimesNewRomanPSMT;writing-mode:lr-tb;fill:#000000;fill-opacity:1;fill-rule:nonzero;stroke:none"
           id="text106"><tspan
             x="0 5 10 28 37 46 55 60 69 79 88 93 108 117 124 133 138 148 158 167 176 181 186 195 205 214 219 234 244 253 259 269 274 289 296 302 307 316 321 326 335 344 349 354 364 370 380 389 398 403 413 422 427 437 442 451 456 466 472 478 484 493 500 509 518"
             y="0"
             sodipodi:role="line"
             id="tspan104">. When you were done, you would write that block onto a different</tspan></text>
        <text
           xml:space="preserve"
           transform="translate(5568,468)"
           style="font-variant:normal;font-weight:normal;font-size:20px;font-family:'Times New Roman';-inkscape-font-specification:TimesNewRomanPSMT;writing-mode:lr-tb;fill:#000000;fill-opacity:1;fill-rule:nonzero;stroke:none"
           id="text110"><tspan
             x="0 5 14 24 33 38 43 52 61 71 76 83 92 101 111 116 121 130 139 144 153 162 171 176 181 191 197 207 216 225 230 236 243 253 267 272 277 286 295 300 308 318 327 334 343 352 357 362 371 381 390 395 400 412 422 431 436 445 454 464 469 474 484 493 498 508 518 524 533 542 547 552 561 567 575 580 589 598 603 609 615 620 629 639 648 653 668 677 684"
             y="0"
             sodipodi:role="line"
             id="tspan108">tape, and read the next block from the source tape. You kept on doing this until you were</tspan></text>
        <text
           xml:space="preserve"
           transform="translate(5568,491)"
           style="font-variant:normal;font-weight:normal;font-size:20px;font-family:'Times New Roman';-inkscape-font-specification:TimesNewRomanPSMT;writing-mode:lr-tb;fill:#000000;fill-opacity:1;fill-rule:nonzero;stroke:none"
           id="text114"><tspan
             x="0 10 20 29 38"
             y="0"
             sodipodi:role="line"
             id="tspan112">done.</tspan></text>
        <text
           xml:space="preserve"
           transform="translate(5568,534)"
           style="font-variant:normal;font-weight:normal;font-size:20px;font-family:'Times New Roman';-inkscape-font-specification:TimesNewRomanPSMT;writing-mode:lr-tb;fill:#000000;fill-opacity:1;fill-rule:nonzero;stroke:none"
           id="text118"><tspan
             x="0 12 21 30 37 46 51 66 75 83 88 97 107 112 120 129 136 146 152 158 164 173 182 187 197 206 215 224 229 234 244 249 259 266 275 285 291 301 310 318 323 333 339 349 358 367 375 380 385 397 407 416 421 430 440 446 451 460 470 475 484 494 503 510 515 525 532 542 551 558 567 581 586 592 601 606 615 620 628 633 640 649 655 664 673"
             y="0"
             sodipodi:role="line"
             id="tspan116">There was no scrolling back to previous blocks. You edited your program in a straight</tspan></text>
        <text
           xml:space="preserve"
           transform="translate(5568,557)"
           style="font-variant:normal;font-weight:normal;font-size:20px;font-family:'Times New Roman';-inkscape-font-specification:TimesNewRomanPSMT;writing-mode:lr-tb;fill:#000000;fill-opacity:1;fill-rule:nonzero;stroke:none"
           id="text122"><tspan
             x="0 6 12 21 30 35 40 46 53 63 77 82 92 101 110 116 125 134 140 149 158 163 168 178 183 192 201 211 216 221 235 245 251 260 269 274 284 293 302 311 316 321 331 336 341 350 359 364 374 383 392 398 407 416 422 431 440 445 451 461 468 477 486 496 501 510 520 529 534 539 549 554 560 566 575 581 589 598 603 612 622 632 641 647 656 665 670 675 684"
             y="0"
             sodipodi:role="line"
             id="tspan120">line, from beginning to end. Going back to the beginning forced you to finish copying the</tspan></text>
        <text
           xml:space="preserve"
           transform="translate(5568,580)"
           style="font-variant:normal;font-weight:normal;font-size:20px;font-family:'Times New Roman';-inkscape-font-specification:TimesNewRomanPSMT;writing-mode:lr-tb;fill:#000000;fill-opacity:1;fill-rule:nonzero;stroke:none"
           id="text126"><tspan
             x="0 8 18 27 34 43 52 57 66 76 86 95 100 110 119 124 134 139 144 153 162 167 177 186 191 201 210 215 220 225 234 244 253 258 267 276 286 291 296 305 314 323 328 336 341 350 357 362 367 376 381 390 399 414 419 428 438 444 449 455 464 473 478 486 495 503 511 517 527 536 541 551 560 565 570 579 588 593 598 603 612 622 631"
             y="0"
             sodipodi:role="line"
             id="tspan124">source code onto the output tape and then start a new editing session on that tape.</tspan></text>
        <text
           xml:space="preserve"
           transform="translate(5568,603)"
           style="font-variant:normal;font-weight:normal;font-size:20px;font-family:'Times New Roman';-inkscape-font-specification:TimesNewRomanPSMT;writing-mode:lr-tb;fill:#000000;fill-opacity:1;fill-rule:nonzero;stroke:none"
           id="text130"><tspan
             x="0 11 20 27 36 45 55 63 68 77 87 92 97 105 114 121 131 138 144 152 158 167 176 182 190 195 200 209 215 225 234 243 248 253 262 271 279 288 293 302 312 321 329 334 341 350 356 365 370 378 383 388 403 412 417 427 434 440 449 454 463 473 478 488 497 504 509 519 526 536 545 552 561 575 583 588 598 607 612 617 627 636 641 651 660 670 679 685"
             y="0"
             sodipodi:role="line"
             id="tspan128">Perhaps not surprisingly, given these constraints, we printed our programs out on paper,</tspan></text>
        <text
           xml:space="preserve"
           transform="translate(5568,626)"
           style="font-variant:normal;font-weight:normal;font-size:20px;font-family:'Times New Roman';-inkscape-font-specification:TimesNewRomanPSMT;writing-mode:lr-tb;fill:#000000;fill-opacity:1;fill-rule:nonzero;stroke:none"
           id="text134"><tspan
             x="0 14 23 30 39 48 58 63 72 78 84 89 94 103 112 117 126 136 142 147 155 160 170 179 184 193 202 211 221 226 232 241 246 253 262 272 277 283 292 301 306 311 320 329 339 344 349 358 367 376 381 390 400 406 411 420 430 435 445 454 461 466 476 483 493 502 509 518 532 540 545 555 561 571 580 589 594 604 613 618 628 634 644 653 662 667 677"
             y="0"
             sodipodi:role="line"
             id="tspan132">marked all the edits by hand in red ink, and then edited our programs block by block by</tspan></text>
        <text
           xml:space="preserve"
           transform="translate(5568,649)"
           style="font-variant:normal;font-weight:normal;font-size:20px;font-family:'Times New Roman';-inkscape-font-specification:TimesNewRomanPSMT;writing-mode:lr-tb;fill:#000000;fill-opacity:1;fill-rule:nonzero;stroke:none"
           id="text138"><tspan
             x="0 9 19 28 36 45 51 56 62 71 80 85 95 104 111 116 130 139 146 155 164 174 182 187 197 206 211 216 225 234 239 245 251 259 264 270 279 288"
             y="0"
             sodipodi:role="line"
             id="tspan136">consulting our markups on the listing.</tspan></text>
        <text
           xml:space="preserve"
           transform="translate(5568,692)"
           style="font-variant:normal;font-weight:normal;font-size:20px;font-family:'Times New Roman';-inkscape-font-specification:TimesNewRomanPSMT;writing-mode:lr-tb;fill:#000000;fill-opacity:1;fill-rule:nonzero;stroke:none"
           id="text142"><tspan
             x="0 14 23 32 41 46 51 60 69 74 84 91 101 110 117 126 140 145 160 169 177 182 191 201 207 212 221 231 236 241 256 265 270 277 286 291 300 307 316 325 335 340 345 355 360 365 374 383 388 402 413 418 427 436 446 451 457 466 476 486 495 504 514 519 524 533 542 547 556 564 572 581 595 605 611 620 626 631 636 648 657"
             y="0"
             sodipodi:role="line"
             id="tspan140">Once the program was edited, we returned to the OS and invoked the assembler. The</tspan></text>
        <text
           xml:space="preserve"
           transform="translate(5568,715)"
           style="font-variant:normal;font-weight:normal;font-size:20px;font-family:'Times New Roman';-inkscape-font-specification:TimesNewRomanPSMT;writing-mode:lr-tb;fill:#000000;fill-opacity:1;fill-rule:nonzero;stroke:none"
           id="text146"><tspan
             x="0 9 17 25 34 48 58 64 73 80 85 92 101 110 120 125 130 139 148 153 161 171 180 187 196 205 210 219 229 239 248 253 258 267 277 286 291 296 305 314 324 329 344 351 361 366 375 380 389 394 404 410 419 428 435 444 449 454 463 473 482 487 492 507 516 522 528 537 542 551 557 565 575 580 590 597 607 617 626 635 641 650 659 664"
             y="0"
             sodipodi:role="line"
             id="tspan144">assembler read the source code tape, and wrote a binary tape, while also producing a</tspan></text>
        <text
           xml:space="preserve"
           transform="translate(5568,738)"
           style="font-variant:normal;font-weight:normal;font-size:20px;font-family:'Times New Roman';-inkscape-font-specification:TimesNewRomanPSMT;writing-mode:lr-tb;fill:#000000;fill-opacity:1;fill-rule:nonzero;stroke:none"
           id="text150"><tspan
             x="0 6 12 20 25 31 40 49 54 64 73 78 88 97 104 109 119 128 133 142 147 157 164 174 184 193 202 207 215 220 226 232 241 250 255 265 272 278 287 292 301 307"
             y="0"
             sodipodi:role="line"
             id="tspan148">listing on our data products line printer.</tspan></text>
        <text
           xml:space="preserve"
           transform="translate(5568,781)"
           style="font-variant:normal;font-weight:normal;font-size:20px;font-family:'Times New Roman';-inkscape-font-specification:TimesNewRomanPSMT;writing-mode:lr-tb;fill:#000000;fill-opacity:1;fill-rule:nonzero;stroke:none"
           id="text154"><tspan
             x="0 12 21 30 35 40 49 59 68 76 81 96 105 112 121 130 137 142 147 157 167 177 194 199 206 215 221 227 236 246 252 261 266 271 279 289 294 309 318 323 332 338 353 362 371 379 384 399 406 416 421 430 435 440 455 465 470 475 484 494 503 511 516 525 530 535 540 549 558 563 571 580 594 603 608 613 619 633 642 647 652 664 673 682"
             y="0"
             sodipodi:role="line"
             id="tspan152">The tapes weren’t 100% reliable, so we always wrote two tapes at the same time. That</tspan></text>
        <text
           xml:space="preserve"
           transform="translate(5568,804)"
           style="font-variant:normal;font-weight:normal;font-size:20px;font-family:'Times New Roman';-inkscape-font-specification:TimesNewRomanPSMT;writing-mode:lr-tb;fill:#000000;fill-opacity:1;fill-rule:nonzero;stroke:none"
           id="text158"><tspan
             x="0 15 24 32 37 42 51 56 61 67 76 85 93 98 103 113 122 131 136 146 152 157 162 171 180 194 199 208 217 227 232 241 246 255 261 270 279 284 294 301 311 321 330 340 346 352 358 363 372 377 387 393 398 408 417 423 432 441 446 452 459 468 477 482 492 498 503 512 519 526 536 543 551"
             y="0"
             sodipodi:role="line"
             id="tspan156">way, at least one of them had a high probability of being free of errors.</tspan></text>
        <text
           xml:space="preserve"
           transform="translate(5568,847)"
           style="font-variant:normal;font-weight:normal;font-size:20px;font-family:'Times New Roman';-inkscape-font-specification:TimesNewRomanPSMT;writing-mode:lr-tb;fill:#000000;fill-opacity:1;fill-rule:nonzero;stroke:none"
           id="text162"><tspan
             x="0 14 23 30 35 45 52 62 71 78 87 101 106 121 130 138 143 152 162 172 179 189 198 204 218 227 232 241 247 256 261 271 281 286 296 306 316 321 327 333 342 351 359 364 374 380 385 394 404 414 423 428 433 442 451 461 466 471 481 491 500 505 514 523 532 539 545 554 559 569 579 584 598 604 613 622 627 636 644 649 654"
             y="0"
             sodipodi:role="line"
             id="tspan160">Our program was approximately 20,000 lines of code, and took nearly 30 minutes to</tspan></text>
        <text
           xml:space="preserve"
           transform="translate(5568,870)"
           style="font-variant:normal;font-weight:normal;font-size:20px;font-family:'Times New Roman';-inkscape-font-specification:TimesNewRomanPSMT;writing-mode:lr-tb;fill:#000000;fill-opacity:1;fill-rule:nonzero;stroke:none"
           id="text166"><tspan
             x="0 9 19 33 43 49 55 64 69 74 86 95 104 109 119 129 139 147 152 157 166 175 180 185 200 209 214 229 239 248 254 264 269 278 287 292 297 306 311 316 325 335 344 349 356 365 374 384 389 398 405 412 422 429 434 444 453 460 466 475 484 489 494 503 512 517 522 527 533 547 556 561 576 585 592 601 606 613 623 632 641 650 656 665 670"
             y="0"
             sodipodi:role="line"
             id="tspan164">compile. The odds that we would get a tape read error during that time were roughly 1</tspan></text>
        <text
           xml:space="preserve"
           transform="translate(5568,893)"
           style="font-variant:normal;font-weight:normal;font-size:20px;font-family:'Times New Roman';-inkscape-font-specification:TimesNewRomanPSMT;writing-mode:lr-tb;fill:#000000;fill-opacity:1;fill-rule:nonzero;stroke:none"
           id="text170"><tspan
             x="0 6 15 20 30 40 45 50 56 62 67 72 81 90 95 104 112 120 129 143 153 159 168 175 180 189 199 204 209 218 223 228 237 247 256 261 270 277 284 294 300 305 310 316 321 326 341 351 360 366 376 381 388 394 403 412 417 422 431 440"
             y="0"
             sodipodi:role="line"
             id="tspan168">in 10. If the assembler got a tape error, it would ring the </tspan></text>
        <text
           xml:space="preserve"
           transform="translate(6013,893)"
           style="font-variant:normal;font-weight:normal;font-size:20px;font-family:'Times New Roman';-inkscape-font-specification:TimesNewRomanPSMT;writing-mode:lr-tb;fill:#000000;fill-opacity:1;fill-rule:nonzero;stroke:none"
           id="text174"><tspan
             x="0 10 19 25 31 36 46 55 60 65 74 83 88 97 107 116 124 134 140 149 154 163 172 182 187 192 201 210"
             y="0"
             sodipodi:role="line"
             id="tspan172">bell on the console and then</tspan></text>
        <text
           xml:space="preserve"
           transform="translate(5568,916)"
           style="font-variant:normal;font-weight:normal;font-size:20px;font-family:'Times New Roman';-inkscape-font-specification:TimesNewRomanPSMT;writing-mode:lr-tb;fill:#000000;fill-opacity:1;fill-rule:nonzero;stroke:none"
           id="text178"><tspan
             x="0 8 13 22 29 34 39 49 56 62 71 76 82 91 100 105 114 119 127 132 139 148 157 171 176 186 192 197 206 213 220 230 237 245 250 260 269 274 279 288 297 302 312 319 325 334 339 348 354 359 364 376 386 395 400 409 419 428 434 444 449 458 467 476 483 488 493 502 508 516 521 535 544 554 564 573 582 588 597 606 611 621 630 636 642 647 656 662"
             y="0"
             sodipodi:role="line"
             id="tspan176">start printing a stream of errors on the printer. You could hear this maddening bell all</tspan></text>
        <text
           xml:space="preserve"
           transform="translate(5568,939)"
           style="font-variant:normal;font-weight:normal;font-size:20px;font-family:'Times New Roman';-inkscape-font-specification:TimesNewRomanPSMT;writing-mode:lr-tb;fill:#000000;fill-opacity:1;fill-rule:nonzero;stroke:none"
           id="text182"><tspan
             x="0 9 18 25 35 43 51 56 61 70 79 84 90 99 109 114 119 131 141 150 155 164 174 183 189 199 204 213 219 227 237 242 251 260 269 276 281 286 295 304 309 318 327 334 342 348 357 366 371 381 387 392 397 406 415 420 430 440 450 457 462 472 479 489 498 505 514 528 542 551 558 563 578 587 597 602 608 617 625 630 635 641 650 659 666 675 684"
             y="0"
             sodipodi:role="line"
             id="tspan180">across the lab. You could also hear the cursing of the poor programmer who just learned</tspan></text>
        <text
           xml:space="preserve"
           transform="translate(5568,962)"
           style="font-variant:normal;font-weight:normal;font-size:20px;font-family:'Times New Roman';-inkscape-font-specification:TimesNewRomanPSMT;writing-mode:lr-tb;fill:#000000;fill-opacity:1;fill-rule:nonzero;stroke:none"
           id="text186"><tspan
             x="0 5 14 23 28 33 38 47 56 61 71 81 88 102 108 117 126 131 140 145 154 164 178 188 194 200 209 214 223 232 241 251 260 270 275 280 290 295 303 308 317 324 329 334 344 354 363 369"
             y="0"
             sodipodi:role="line"
             id="tspan184">that the 30-minute compile needed to start over.</tspan></text>
      </g>
    </g>
  </g>
</svg>
