<?xml version="1.0" encoding="UTF-8" standalone="no"?>
<!-- Created with Inkscape (http://www.inkscape.org/) -->

<svg
   version="1.1"
   id="svg2"
   width="816"
   height="1056"
   viewBox="0 0 816 1056"
   sodipodi:docname="clean_arch.pdf"
   xmlns:inkscape="http://www.inkscape.org/namespaces/inkscape"
   xmlns:sodipodi="http://sodipodi.sourceforge.net/DTD/sodipodi-0.dtd"
   xmlns="http://www.w3.org/2000/svg"
   xmlns:svg="http://www.w3.org/2000/svg">
  <defs
     id="defs6">
    <clipPath
       clipPathUnits="userSpaceOnUse"
       id="clipPath18">
      <path
         d="m 2088,0 h 696 V 1056 H 2088 V 0"
         clip-rule="evenodd"
         id="path16" />
    </clipPath>
    <clipPath
       clipPathUnits="userSpaceOnUse"
       id="clipPath28">
      <path
         d="m 2088,66 h 696 V 996 H 2088 V 66"
         clip-rule="evenodd"
         id="path26" />
    </clipPath>
  </defs>
  <sodipodi:namedview
     id="namedview4"
     pagecolor="#ffffff"
     bordercolor="#000000"
     borderopacity="0.25"
     inkscape:showpageshadow="2"
     inkscape:pageopacity="0.0"
     inkscape:pagecheckerboard="0"
     inkscape:deskcolor="#d1d1d1" />
  <g
     id="g8"
     inkscape:groupmode="layer"
     inkscape:label="clean_arch"
     transform="translate(59.999999,2.64e-5)">
    <g
       id="g10" />
    <g
       id="g12"
       transform="translate(-2088)">
      <g
         id="g14"
         clip-path="url(#clipPath18)">
        <g
           id="g20" />
      </g>
    </g>
    <g
       id="g22"
       transform="translate(-2088)">
      <g
         id="g24"
         clip-path="url(#clipPath28)">
        <text
           xml:space="preserve"
           transform="translate(2088,83.34375)"
           style="font-variant:normal;font-weight:normal;font-size:20px;font-family:'Times New Roman';-inkscape-font-specification:TimesNewRomanPSMT;writing-mode:lr-tb;fill:#000000;fill-opacity:1;fill-rule:nonzero;stroke:none"
           id="text32"><tspan
             x="0 6 13 23 37 42 47 56 65 70 79 89 98 107 114 123 128 137 142 147 161 167 173 178 186 196 205 212 221 230 235 244 254 264 273 278 288 297 307 316 325 335 344 353 362 368 377 385 390 399 406 416 424 432 437 442 451 460 465 470 479 488 495 505 514 524 529 535 541 550 559 564 574 584 590 599 604 610 619 628 633 639 648 653 658 667"
             y="0"
             sodipodi:role="line"
             id="tspan30">from the concrete. All source code dependencies cross that curved line pointing in the</tspan></text>
        <text
           xml:space="preserve"
           transform="translate(2088,106)"
           style="font-variant:normal;font-weight:normal;font-size:20px;font-family:'Times New Roman';-inkscape-font-specification:TimesNewRomanPSMT;writing-mode:lr-tb;fill:#000000;fill-opacity:1;fill-rule:nonzero;stroke:none"
           id="text36"><tspan
             x="0 8 17 31 40 45 55 61 68 77 86 91 97 107 116 121 126 131 141 156 165 172 182 187 192 201 210 215 224 234 242 247 254 263 272 277 282 290 296 306 315"
             y="0"
             sodipodi:role="line"
             id="tspan34">same direction, toward the abstract side.</tspan></text>
        <text
           xml:space="preserve"
           transform="translate(2088,149)"
           style="font-variant:normal;font-weight:normal;font-size:20px;font-family:'Times New Roman';-inkscape-font-specification:TimesNewRomanPSMT;writing-mode:lr-tb;fill:#000000;fill-opacity:1;fill-rule:nonzero;stroke:none"
           id="text40"><tspan
             x="0 12 21 30 35 44 53 60 70 79 89 94 100 106 115 124 129 139 145 155 161 171 180 188 193 198 207 216 221 229 238 246 251 260 274 279 285 294 299 309 314 319 334 344 349 358 368 382 392 402 411 420 429 434 442 448 453 463 472 481 486 495 505 513 518 525 534 543 548 553 562 571 581 586 591 600 609 614 624 629 638 647"
             y="0"
             sodipodi:role="line"
             id="tspan38">The curved line divides the system into two components: one abstract and the other</tspan></text>
        <text
           xml:space="preserve"
           transform="translate(2088,172)"
           style="font-variant:normal;font-weight:normal;font-size:20px;font-family:'Times New Roman';-inkscape-font-specification:TimesNewRomanPSMT;writing-mode:lr-tb;fill:#000000;fill-opacity:1;fill-rule:nonzero;stroke:none"
           id="text44"><tspan
             x="0 9 19 28 37 44 53 58 67 72 77 89 98 107 112 121 131 139 144 151 160 169 174 179 188 198 212 222 232 241 250 259 264 269 278 288 297 302 311 317 326 334 339 348 354 360 365 370 379 388 393 402 408 417 426 433 439 448 458 467 473 478 488 497 505 511 520 529 537 545 550 557 566 572 581 589 594 604 610 615 620 629"
             y="0"
             sodipodi:role="line"
             id="tspan42">concrete. The abstract component contains all the high-level business rules of the</tspan></text>
        <text
           xml:space="preserve"
           transform="translate(2088,195)"
           style="font-variant:normal;font-weight:normal;font-size:20px;font-family:'Times New Roman';-inkscape-font-specification:TimesNewRomanPSMT;writing-mode:lr-tb;fill:#000000;fill-opacity:1;fill-rule:nonzero;stroke:none"
           id="text48"><tspan
             x="0 9 19 29 35 41 50 59 64 70 80 89 94 99 111 120 129 134 143 153 162 171 178 187 192 201 206 215 225 239 249 259 268 277 286 291 296 305 315 324 329 338 344 353 361 366 375 381 387 392 397 406 415 420 426 440 450 456 465 479 488 497 502 511 516 522 532 541 546 556 565 570 579 585 591 599 604 609 618 627 632 637 642 651 661 669"
             y="0"
             sodipodi:role="line"
             id="tspan46">application. The concrete component contains all the implementation details that those</tspan></text>
        <text
           xml:space="preserve"
           transform="translate(2088,218)"
           style="font-variant:normal;font-weight:normal;font-size:20px;font-family:'Times New Roman';-inkscape-font-specification:TimesNewRomanPSMT;writing-mode:lr-tb;fill:#000000;fill-opacity:1;fill-rule:nonzero;stroke:none"
           id="text52"><tspan
             x="0 10 19 27 33 42 51 59 67 72 79 88 94 103 111 116 130 139 148 154 164 173 179 188 193 202"
             y="0"
             sodipodi:role="line"
             id="tspan50">business rules manipulate.</tspan></text>
        <text
           xml:space="preserve"
           transform="translate(2088,261)"
           style="font-variant:normal;font-weight:normal;font-size:20px;font-family:'Times New Roman';-inkscape-font-specification:TimesNewRomanPSMT;writing-mode:lr-tb;fill:#000000;fill-opacity:1;fill-rule:nonzero;stroke:none"
           id="text56"><tspan
             x="0 14 24 29 38 43 48 57 66 71 76 81 90 99 104 110 116 126 141 146 156 162 167 176 186 195 200 207 217 223 228 237 244 254 262 270 279 287 292 297 306 315 320 329 338 345 355 364 374 379 385 391 400 409 414 420 429 434 439 448 457 462 472 482 492 502 510 516 521 530 535 545 551 558 567 576 581 587 597 606 611 621 627 632 637 646"
             y="0"
             sodipodi:role="line"
             id="tspan54">Note that the flow of control crosses the curved line in the opposite direction of the</tspan></text>
        <text
           xml:space="preserve"
           transform="translate(2088,284)"
           style="font-variant:normal;font-weight:normal;font-size:20px;font-family:'Times New Roman';-inkscape-font-specification:TimesNewRomanPSMT;writing-mode:lr-tb;fill:#000000;fill-opacity:1;fill-rule:nonzero;stroke:none"
           id="text60"><tspan
             x="0 8 18 27 34 43 52 57 66 76 86 95 100 110 119 129 138 147 157 166 175 184 190 199 207 212 217 229 238 247 252 260 270 279 286 295 304 309 318 328 338 347 352 362 371 381 390 399 409 418 427 436 442 451 459 464 473 480 489 494 500 509 519 528 535 540 549 559 564 573 582 591 597 606 614 619 624 629 638 647 652 658 664 674"
             y="0"
             sodipodi:role="line"
             id="tspan58">source code dependencies. The source code dependencies are inverted against the flow</tspan></text>
        <text
           xml:space="preserve"
           transform="translate(2088,307)"
           style="font-variant:normal;font-weight:normal;font-size:20px;font-family:'Times New Roman';-inkscape-font-specification:TimesNewRomanPSMT;writing-mode:lr-tb;fill:#000000;fill-opacity:1;fill-rule:nonzero;stroke:none"
           id="text64"><tspan
             x="0 10 16 21 30 40 49 54 61 71 77 97 112 121 127 136 145 150 156 164 169 184 193 202 207 222 231 236 243 252 258 267 274 279 284 294 299 304 313 319 327 332 342 349 355 364 373 379 389 395 404 409 418 426 431 445 454 464 473 482 492 501 510 519 528 533 539 548 558 567 574 582 588 598 607"
             y="0"
             sodipodi:role="line"
             id="tspan62">of control—which is why we refer to this principle as Dependency Inversion.</tspan></text>
        <text
           xml:space="preserve"
           transform="translate(2088,377)"
           style="font-variant:normal;font-weight:bold;font-size:33px;font-family:'Times New Roman';-inkscape-font-specification:TimesNewRomanPS-BoldMT;writing-mode:lr-tb;fill:#000000;fill-opacity:1;fill-rule:nonzero;stroke:none"
           id="text68"><tspan
             x="0"
             y="0"
             id="tspan66">C</tspan></text>
        <text
           xml:space="preserve"
           transform="translate(2112,377)"
           style="font-variant:normal;font-weight:bold;font-size:33px;font-family:'Times New Roman';-inkscape-font-specification:TimesNewRomanPS-BoldMT;writing-mode:lr-tb;fill:#000000;fill-opacity:1;fill-rule:nonzero;stroke:none"
           id="text72"><tspan
             x="0 26 50 74 98 120 142"
             y="0"
             sodipodi:role="line"
             id="tspan70">ONCRETE</tspan></text>
        <text
           xml:space="preserve"
           transform="translate(2284,377)"
           style="font-variant:normal;font-weight:bold;font-size:33px;font-family:'Times New Roman';-inkscape-font-specification:TimesNewRomanPS-BoldMT;writing-mode:lr-tb;fill:#000000;fill-opacity:1;fill-rule:nonzero;stroke:none"
           id="text76"><tspan
             x="0"
             y="0"
             id="tspan74">C</tspan></text>
        <text
           xml:space="preserve"
           transform="translate(2308,377)"
           style="font-variant:normal;font-weight:bold;font-size:33px;font-family:'Times New Roman';-inkscape-font-specification:TimesNewRomanPS-BoldMT;writing-mode:lr-tb;fill:#000000;fill-opacity:1;fill-rule:nonzero;stroke:none"
           id="text80"><tspan
             x="0 26 58 78 104 128 150 174 196"
             y="0"
             sodipodi:role="line"
             id="tspan78">OMPONENTS</tspan></text>
        <text
           xml:space="preserve"
           transform="translate(2088,422)"
           style="font-variant:normal;font-weight:normal;font-size:20px;font-family:'Times New Roman';-inkscape-font-specification:TimesNewRomanPSMT;writing-mode:lr-tb;fill:#000000;fill-opacity:1;fill-rule:nonzero;stroke:none"
           id="text84"><tspan
             x="0 12 21 30 35 44 54 63 72 79 88 93 102 107 116 126 140 150 160 169 178 187 192 197 203 212"
             y="0"
             sodipodi:role="line"
             id="tspan82">The concrete component in </tspan></text>
        <text
           xml:space="preserve"
           transform="translate(2305,422)"
           style="font-variant:normal;font-weight:normal;font-size:20px;font-family:'Times New Roman';-inkscape-font-specification:TimesNewRomanPSMT;writing-mode:lr-tb;fill:#0000ee;fill-opacity:1;fill-rule:nonzero;stroke:none"
           id="text88"><tspan
             x="0 11 17 26 35 42 51 56 65 75 80"
             y="0"
             sodipodi:role="line"
             id="tspan86">Figure 11.1</tspan></text>
        <path
           d="m 2305,423.5 h 89 z"
           style="fill:none;stroke:#0000ee;stroke-width:1;stroke-linecap:square;stroke-linejoin:miter;stroke-miterlimit:10;stroke-dasharray:none;stroke-opacity:1"
           id="path90" />
        <text
           xml:space="preserve"
           transform="translate(2400,422)"
           style="font-variant:normal;font-weight:normal;font-size:20px;font-family:'Times New Roman';-inkscape-font-specification:TimesNewRomanPSMT;writing-mode:lr-tb;fill:#000000;fill-opacity:1;fill-rule:nonzero;stroke:none"
           id="text94"><tspan
             x="0 9 19 28 33 42 48 57 65 70 79 84 92 98 107 116 122 131 136 146 155 165 174 183 193 202 211 220 228 233 238 246 256 261 267 272 277 287 293 303 309 318 323 332 340 345 350 359"
             y="0"
             sodipodi:role="line"
             id="tspan92">contains a single dependency, so it violates the</tspan></text>
        <text
           xml:space="preserve"
           transform="translate(2088,445)"
           style="font-variant:normal;font-weight:normal;font-size:20px;font-family:'Times New Roman';-inkscape-font-specification:TimesNewRomanPSMT;writing-mode:lr-tb;fill:#000000;fill-opacity:1;fill-rule:nonzero;stroke:none"
           id="text98"><tspan
             x="0 14 20 29 34 39 51 60 66 74 79 85 93 98 103 112 122 128 137 146 152 157 162 176 182 192 197 207 213 223 229 238 243 249 259 268 276 281 290 299 308 317 327 332 337 347 356 361 370 379 384 390 397 406 412 421 426 433 442 456 466 476 485 495 500 505 515 524 529 534 539 548 557 566 571 580 589 598 603 613 622 627 636 645 650 659 668 675 684"
             y="0"
             sodipodi:role="line"
             id="tspan96">DIP. This is typical. DIP violations cannot be entirely removed, but they can be gathered</tspan></text>
        <text
           xml:space="preserve"
           transform="translate(2088,468)"
           style="font-variant:normal;font-weight:normal;font-size:20px;font-family:'Times New Roman';-inkscape-font-specification:TimesNewRomanPSMT;writing-mode:lr-tb;fill:#000000;fill-opacity:1;fill-rule:nonzero;stroke:none"
           id="text102"><tspan
             x="0 6 15 20 30 35 44 49 57 71 80 86 92 97 106 115 129 139 148 155 160 170 176 181 190 200 209 218 225 234 239 248 253 262 272 286 296 306 315 324 333 338 346 351 360 369 379 384 393 402 412 417 422 430 439 449 458 465 474 479 488 493 499 506 516 530 535 540 549 558 563 570 579 587 592 597 607 613 618 623 632"
             y="0"
             sodipodi:role="line"
             id="tspan100">into a small number of concrete components and kept separate from the rest of the</tspan></text>
        <text
           xml:space="preserve"
           transform="translate(2088,491)"
           style="font-variant:normal;font-weight:normal;font-size:20px;font-family:'Times New Roman';-inkscape-font-specification:TimesNewRomanPSMT;writing-mode:lr-tb;fill:#000000;fill-opacity:1;fill-rule:nonzero;stroke:none"
           id="text106"><tspan
             x="0 8 17 25 30 39 53"
             y="0"
             sodipodi:role="line"
             id="tspan104">system.</tspan></text>
        <text
           xml:space="preserve"
           transform="translate(2088,534)"
           style="font-variant:normal;font-weight:normal;font-size:20px;font-family:'Times New Roman';-inkscape-font-specification:TimesNewRomanPSMT;writing-mode:lr-tb;fill:#000000;fill-opacity:1;fill-rule:nonzero;stroke:none"
           id="text110"><tspan
             x="0 17 27 35 40 45 53 62 70 75 84 98 106 111 126 132 138 144 149 158 168 177 182 191 197 206 211 220 225 230 236 245 254 262 267 272 282 291 300 305 313 322 331 340 345 354 364 373 382 389 398 403 412 417 426 436 450 460 470 479 488 497 502 522 532 538 543 552 561 566 575 584 590 596 605 615"
             y="0"
             sodipodi:role="line"
             id="tspan108">Most systems will contain at least one such concrete component—often called </tspan></text>
        <text
           xml:space="preserve"
           transform="translate(2708,534)"
           style="font-variant:normal;font-weight:normal;font-size:16px;font-family:'Courier New';-inkscape-font-specification:CourierNewPSMT;writing-mode:lr-tb;fill:#000000;fill-opacity:1;fill-rule:nonzero;stroke:none"
           id="text114"><tspan
             x="0 10 20 30"
             y="0"
             sodipodi:role="line"
             id="tspan112">main</tspan></text>
        <text
           xml:space="preserve"
           transform="translate(2088,560)"
           style="font-variant:normal;font-weight:normal;font-size:20px;font-family:'Times New Roman';-inkscape-font-specification:TimesNewRomanPSMT;writing-mode:lr-tb;fill:#000000;fill-opacity:1;fill-rule:nonzero;stroke:none"
           id="text118"><tspan
             x="0 10 19 28 37 46 54 63 68 74 79 84 93 103 112 117 126 132 141 149 154 159 168 177"
             y="0"
             sodipodi:role="line"
             id="tspan116">because it contains the </tspan></text>
        <text
           xml:space="preserve"
           transform="translate(2270,560)"
           style="font-variant:normal;font-weight:normal;font-size:16px;font-family:'Courier New';-inkscape-font-specification:CourierNewPSMT;writing-mode:lr-tb;fill:#000000;fill-opacity:1;fill-rule:nonzero;stroke:none"
           id="text122"><tspan
             x="0 10 20 30"
             y="0"
             sodipodi:role="line"
             id="tspan120">main</tspan></text>
        <text
           xml:space="preserve"
           transform="translate(2310,553)"
           style="font-variant:normal;font-weight:normal;font-size:15px;font-family:'Times New Roman';-inkscape-font-specification:TimesNewRomanPSMT;writing-mode:lr-tb;fill:#0000ee;fill-opacity:1;fill-rule:nonzero;stroke:none"
           id="text126"><tspan
             x="0"
             y="0"
             id="tspan124">1</tspan></text>
        <path
           d="m 2310,554.5 h 6 z"
           style="fill:none;stroke:#0000ee;stroke-width:1;stroke-linecap:square;stroke-linejoin:miter;stroke-miterlimit:10;stroke-dasharray:none;stroke-opacity:1"
           id="path128" />
        <text
           xml:space="preserve"
           transform="translate(2322,560)"
           style="font-variant:normal;font-weight:normal;font-size:20px;font-family:'Times New Roman';-inkscape-font-specification:TimesNewRomanPSMT;writing-mode:lr-tb;fill:#000000;fill-opacity:1;fill-rule:nonzero;stroke:none"
           id="text132"><tspan
             x="0 6 15 24 33 38 44 54 63 68 73 79 88 93 98 107 116 121 130 139 147 156 161 167 173 179 188 196 201 208 217 222 231 241 246 252 261"
             y="0"
             sodipodi:role="line"
             id="tspan130">function. In the case illustrated in </tspan></text>
        <text
           xml:space="preserve"
           transform="translate(2588,560)"
           style="font-variant:normal;font-weight:normal;font-size:20px;font-family:'Times New Roman';-inkscape-font-specification:TimesNewRomanPSMT;writing-mode:lr-tb;fill:#0000ee;fill-opacity:1;fill-rule:nonzero;stroke:none"
           id="text136"><tspan
             x="0 11 17 26 35 42 51 56 65 75 80"
             y="0"
             sodipodi:role="line"
             id="tspan134">Figure 11.1</tspan></text>
        <path
           d="m 2588,561.5 h 89 z"
           style="fill:none;stroke:#0000ee;stroke-width:1;stroke-linecap:square;stroke-linejoin:miter;stroke-miterlimit:10;stroke-dasharray:none;stroke-opacity:1"
           id="path138" />
        <text
           xml:space="preserve"
           transform="translate(2678,560)"
           style="font-variant:normal;font-weight:normal;font-size:20px;font-family:'Times New Roman';-inkscape-font-specification:TimesNewRomanPSMT;writing-mode:lr-tb;fill:#000000;fill-opacity:1;fill-rule:nonzero;stroke:none"
           id="text142"><tspan
             x="0 5 10 15 24 33"
             y="0"
             sodipodi:role="line"
             id="tspan140">, the </tspan></text>
        <text
           xml:space="preserve"
           transform="translate(2716,560)"
           style="font-variant:normal;font-weight:normal;font-size:16px;font-family:'Courier New';-inkscape-font-specification:CourierNewPSMT;writing-mode:lr-tb;fill:#000000;fill-opacity:1;fill-rule:nonzero;stroke:none"
           id="text146"><tspan
             x="0 10 20 30"
             y="0"
             sodipodi:role="line"
             id="tspan144">main</tspan></text>
        <text
           xml:space="preserve"
           transform="translate(2088,583)"
           style="font-variant:normal;font-weight:normal;font-size:20px;font-family:'Times New Roman';-inkscape-font-specification:TimesNewRomanPSMT;writing-mode:lr-tb;fill:#000000;fill-opacity:1;fill-rule:nonzero;stroke:none"
           id="text150"><tspan
             x="0 6 15 24 33 38 44 54 63 68 83 93 102 108 118 123 129 138 146 151 160 169 174 180 189 194 203 208 213 222 231"
             y="0"
             sodipodi:role="line"
             id="tspan148">function would instantiate the </tspan></text>
        <text
           xml:space="preserve"
           transform="translate(2324,583)"
           style="font-variant:normal;font-weight:normal;font-size:16px;font-family:'Courier New';-inkscape-font-specification:CourierNewPSMT;writing-mode:lr-tb;fill:#000000;fill-opacity:1;fill-rule:nonzero;stroke:none"
           id="text154"><tspan
             x="0 10 20 30 40 50 60 70 80 90 100 110 120 130 140 150 160 170"
             y="0"
             sodipodi:role="line"
             id="tspan152">ServiceFactoryImpl</tspan></text>
        <text
           xml:space="preserve"
           transform="translate(2509,583)"
           style="font-variant:normal;font-weight:normal;font-size:20px;font-family:'Times New Roman';-inkscape-font-specification:TimesNewRomanPSMT;writing-mode:lr-tb;fill:#000000;fill-opacity:1;fill-rule:nonzero;stroke:none"
           id="text158"><tspan
             x="0 9 18 28 33 43 49 58 67 76 81 86 95 104 109 114 120 129 137 142 151 160 169 178 183 189 198 203 212 217 226 232 242 252 261"
             y="0"
             sodipodi:role="line"
             id="tspan156">and place that instance in a global</tspan></text>
        <text
           xml:space="preserve"
           transform="translate(2088,606)"
           style="font-variant:normal;font-weight:normal;font-size:20px;font-family:'Times New Roman';-inkscape-font-specification:TimesNewRomanPSMT;writing-mode:lr-tb;fill:#000000;fill-opacity:1;fill-rule:nonzero;stroke:none"
           id="text162"><tspan
             x="0 10 19 26 32 41 51 57 66 71 81 87 92 97 106 116 125"
             y="0"
             sodipodi:role="line"
             id="tspan160">variable of type </tspan></text>
        <text
           xml:space="preserve"
           transform="translate(2218,606)"
           style="font-variant:normal;font-weight:normal;font-size:16px;font-family:'Courier New';-inkscape-font-specification:CourierNewPSMT;writing-mode:lr-tb;fill:#000000;fill-opacity:1;fill-rule:nonzero;stroke:none"
           id="text166"><tspan
             x="0 10 20 30 40 50 60 70 80 90 100 110 120 130"
             y="0"
             sodipodi:role="line"
             id="tspan164">ServiceFactory</tspan></text>
        <text
           xml:space="preserve"
           transform="translate(2358,606)"
           style="font-variant:normal;font-weight:normal;font-size:20px;font-family:'Times New Roman';-inkscape-font-specification:TimesNewRomanPSMT;writing-mode:lr-tb;fill:#000000;fill-opacity:1;fill-rule:nonzero;stroke:none"
           id="text170"><tspan
             x="0 5 10 22 31 40"
             y="0"
             sodipodi:role="line"
             id="tspan168">. The </tspan></text>
        <text
           xml:space="preserve"
           transform="translate(2403,606)"
           style="font-variant:normal;font-weight:normal;font-size:16px;font-family:'Courier New';-inkscape-font-specification:CourierNewPSMT;writing-mode:lr-tb;fill:#000000;fill-opacity:1;fill-rule:nonzero;stroke:none"
           id="text174"><tspan
             x="0 10 20 30 40 50 60 70 80 90 100"
             y="0"
             sodipodi:role="line"
             id="tspan172">Application</tspan></text>
        <text
           xml:space="preserve"
           transform="translate(2518,606)"
           style="font-variant:normal;font-weight:normal;font-size:20px;font-family:'Times New Roman';-inkscape-font-specification:TimesNewRomanPSMT;writing-mode:lr-tb;fill:#000000;fill-opacity:1;fill-rule:nonzero;stroke:none"
           id="text178"><tspan
             x="0 15 25 34 40 50 55 60 69 78 87 92 101 110 119 128 136 144 149 154 163 172 177 183 192 201 206 216 223"
             y="0"
             sodipodi:role="line"
             id="tspan176">would then access the factory</tspan></text>
        <text
           xml:space="preserve"
           transform="translate(2088,629)"
           style="font-variant:normal;font-weight:normal;font-size:20px;font-family:'Times New Roman';-inkscape-font-specification:TimesNewRomanPSMT;writing-mode:lr-tb;fill:#000000;fill-opacity:1;fill-rule:nonzero;stroke:none"
           id="text182"><tspan
             x="0 5 14 21 31 40 49 58 63 68 77 86 91 96 105 111 121 131 140 146 151 161 170 177 183 192 202 208 217"
             y="0"
             sodipodi:role="line"
             id="tspan180">through that global variable.</tspan></text>
        <text
           xml:space="preserve"
           transform="translate(2088,700)"
           style="font-variant:normal;font-weight:bold;font-size:33px;font-family:'Times New Roman';-inkscape-font-specification:TimesNewRomanPS-BoldMT;writing-mode:lr-tb;fill:#000000;fill-opacity:1;fill-rule:nonzero;stroke:none"
           id="text186"><tspan
             x="0"
             y="0"
             id="tspan184">C</tspan></text>
        <text
           xml:space="preserve"
           transform="translate(2112,700)"
           style="font-variant:normal;font-weight:bold;font-size:33px;font-family:'Times New Roman';-inkscape-font-specification:TimesNewRomanPS-BoldMT;writing-mode:lr-tb;fill:#000000;fill-opacity:1;fill-rule:nonzero;stroke:none"
           id="text190"><tspan
             x="0 26 50 74 96 120 138 151 177"
             y="0"
             sodipodi:role="line"
             id="tspan188">ONCLUSION</tspan></text>
        <text
           xml:space="preserve"
           transform="translate(2088,745)"
           style="font-variant:normal;font-weight:normal;font-size:20px;font-family:'Times New Roman';-inkscape-font-specification:TimesNewRomanPSMT;writing-mode:lr-tb;fill:#000000;fill-opacity:1;fill-rule:nonzero;stroke:none"
           id="text194"><tspan
             x="0 14 22 27 42 51 56 70 80 90 99 104 110 120 127 142 151 158 168 173 179 188 193 198 207 213 221 226 236 246 256 265 270 279 288 298 303 312 322 332 341 348 353 362 368 377 386 395 402 409 415 424 434 443 449 454 463 470 479 488 494 499 508 517 522 531 538 547 553 558 568 575 581 590 599 605 615 621 630 638 643 648 653 662"
             y="0"
             sodipodi:role="line"
             id="tspan192">As we move forward in this book and cover higher-level architectural principles, the</tspan></text>
        <text
           xml:space="preserve"
           transform="translate(2088,768)"
           style="font-variant:normal;font-weight:normal;font-size:20px;font-family:'Times New Roman';-inkscape-font-specification:TimesNewRomanPSMT;writing-mode:lr-tb;fill:#000000;fill-opacity:1;fill-rule:nonzero;stroke:none"
           id="text198"><tspan
             x="0 14 20 30 35 50 56 62 68 73 81 90 100 115 120 129 139 144 153 162 171 177 186 191 200 209 219 224 233 242 251 257 266 271 276 282 287 292 307 313 319 325 330 340 349 354 359 368 377 382 396 406 414 419 424 434 440 448 454 464 470 479 484 494 501 510 519 528 534 542 548 557 566 571 581 588 594 603 612 618 628 634 643 648 654 663 668 678 687"
             y="0"
             sodipodi:role="line"
             id="tspan196">DIP will show up again and again. It will be the most visible organizing principle in our</tspan></text>
        <text
           xml:space="preserve"
           transform="translate(2088,791)"
           style="font-variant:normal;font-weight:normal;font-size:20px;font-family:'Times New Roman';-inkscape-font-specification:TimesNewRomanPSMT;writing-mode:lr-tb;fill:#000000;fill-opacity:1;fill-rule:nonzero;stroke:none"
           id="text202"><tspan
             x="0 9 16 25 34 40 45 54 63 68 77 84 93 98 108 114 123 132 139 148 162 170 175 180 192 201 210 215 224 233 240 250 259 269 274 280 286 295 304 309 315 324"
             y="0"
             sodipodi:role="line"
             id="tspan200">architecture diagrams. The curved line in </tspan></text>
        <text
           xml:space="preserve"
           transform="translate(2417,791)"
           style="font-variant:normal;font-weight:normal;font-size:20px;font-family:'Times New Roman';-inkscape-font-specification:TimesNewRomanPSMT;writing-mode:lr-tb;fill:#0000ee;fill-opacity:1;fill-rule:nonzero;stroke:none"
           id="text206"><tspan
             x="0 11 17 26 35 42 51 56 65 75 80"
             y="0"
             sodipodi:role="line"
             id="tspan204">Figure 11.1</tspan></text>
        <path
           d="m 2417,792.5 h 89 z"
           style="fill:none;stroke:#0000ee;stroke-width:1;stroke-linecap:square;stroke-linejoin:miter;stroke-miterlimit:10;stroke-dasharray:none;stroke-opacity:1"
           id="path208" />
        <text
           xml:space="preserve"
           transform="translate(2512,791)"
           style="font-variant:normal;font-weight:normal;font-size:20px;font-family:'Times New Roman';-inkscape-font-specification:TimesNewRomanPSMT;writing-mode:lr-tb;fill:#000000;fill-opacity:1;fill-rule:nonzero;stroke:none"
           id="text212"><tspan
             x="0 15 21 27 33 38 48 57 66 76 90 99 104 109 118 127 132 141 148 157 166 172 177 186 195 200 209 216 225"
             y="0"
             sodipodi:role="line"
             id="tspan210">will become the architectural</tspan></text>
        <text
           xml:space="preserve"
           transform="translate(2088,814)"
           style="font-variant:normal;font-weight:normal;font-size:20px;font-family:'Times New Roman';-inkscape-font-specification:TimesNewRomanPSMT;writing-mode:lr-tb;fill:#000000;fill-opacity:1;fill-rule:nonzero;stroke:none"
           id="text216"><tspan
             x="0 10 20 29 38 48 57 64 70 79 87 92 98 107 112 118 127 132 141 148 153 162 171 180 190 195 204 211 219 224 229 241 250 259 264 279 288 297 302 307 316 325 330 340 349 359 368 377 387 396 405 414 420 429 437 442 451 458 468 476 484 489 494 503 512 517 522 531 540 547 557 566 576 581 587 593 602 611 616 622 631 636 646 655"
             y="0"
             sodipodi:role="line"
             id="tspan214">boundaries in later chapters. The way the dependencies cross that curved line in one</tspan></text>
        <text
           xml:space="preserve"
           transform="translate(2088,837)"
           style="font-variant:normal;font-weight:normal;font-size:20px;font-family:'Times New Roman';-inkscape-font-specification:TimesNewRomanPSMT;writing-mode:lr-tb;fill:#000000;fill-opacity:1;fill-rule:nonzero;stroke:none"
           id="text220"><tspan
             x="0 10 16 23 32 41 46 52 62 71 76 81 90 99 109 114 119 129 144 153 160 170 175 189 199 206 215 220 229 239 247 252 259 268 277 282 287 296 305 310 316 321 327 336 344 349 354 369 375 381 387 392 402 411 420 430 444 453 458 467 472 481 490 505 510 517 526 532 541 546 551 560 569 574 579 594 603 608 623 629 635 641 646 655 664 670"
             y="0"
             sodipodi:role="line"
             id="tspan218">direction, and toward more abstract entities, will become a new rule that we will call</tspan></text>
        <text
           xml:space="preserve"
           transform="translate(2088,860)"
           style="font-variant:normal;font-weight:normal;font-size:20px;font-family:'Times New Roman';-inkscape-font-specification:TimesNewRomanPSMT;writing-mode:lr-tb;fill:#000000;fill-opacity:1;fill-rule:nonzero;stroke:none"
           id="text224"><tspan
             x="0 5 14 23"
             y="0"
             sodipodi:role="line"
             id="tspan222">the </tspan></text>
        <text
           xml:space="preserve"
           transform="translate(2116,860)"
           style="font-variant:normal;font-weight:normal;font-size:20px;font-family:'Times New Roman';-inkscape-font-specification:TimesNewRomanPSMT;writing-mode:lr-tb;fill:#000000;fill-opacity:1;fill-rule:nonzero;stroke:none"
           id="text228"><tspan
             x="0 14 23 33 42 51 61 70 79 88 97 102 115 124 130"
             y="0"
             sodipodi:role="line"
             id="tspan226">Dependency Rule</tspan></text>
        <text
           xml:space="preserve"
           transform="translate(2255,860)"
           style="font-variant:normal;font-weight:normal;font-size:20px;font-family:'Times New Roman';-inkscape-font-specification:TimesNewRomanPSMT;writing-mode:lr-tb;fill:#000000;fill-opacity:1;fill-rule:nonzero;stroke:none"
           id="text232"><tspan
             x="0"
             y="0"
             id="tspan230">.</tspan></text>
        <text
           xml:space="preserve"
           transform="translate(2088,899)"
           style="font-variant:normal;font-weight:normal;font-size:15px;font-family:'Times New Roman';-inkscape-font-specification:TimesNewRomanPSMT;writing-mode:lr-tb;fill:#0000ee;fill-opacity:1;fill-rule:nonzero;stroke:none"
           id="text236"><tspan
             x="0"
             y="0"
             id="tspan234">1</tspan></text>
        <path
           d="m 2088,900.5 h 6 z"
           style="fill:none;stroke:#0000ee;stroke-width:1;stroke-linecap:square;stroke-linejoin:miter;stroke-miterlimit:10;stroke-dasharray:none;stroke-opacity:1"
           id="path238" />
        <text
           xml:space="preserve"
           transform="translate(2095,899)"
           style="font-variant:normal;font-weight:normal;font-size:15px;font-family:'Times New Roman';-inkscape-font-specification:TimesNewRomanPSMT;writing-mode:lr-tb;fill:#000000;fill-opacity:1;fill-rule:nonzero;stroke:none"
           id="text242"><tspan
             x="0 4 8 13 20 24 31 35 42 49 54 58 69 76 81 88 94 97 101 105 112 119 123 128 135 142 149 153 156 163 170 174 178 185 192 196 200 203 209 213 216 223 230 237 244 251 258 262 269 276 280 284 291 298 302 309 316 323 328 335 339 342 349 356 360 366 373 379 383 390 401 405 416 423 430 437 441 445 452 459 463 470 477 484 487 490 497 504 508 511 518 525 529 532 538 542 547 550 555 561 565 569 575 579 586 591 595 602 609 613 620 627"
             y="0"
             sodipodi:role="line"
             id="tspan240">. In other words, the function that is invoked by the operating system when the application is first started up.</tspan></text>
      </g>
    </g>
  </g>
</svg>
