<?xml version="1.0" encoding="UTF-8" standalone="no"?>
<!-- Created with Inkscape (http://www.inkscape.org/) -->

<svg
   version="1.1"
   id="svg2"
   width="816"
   height="1056"
   viewBox="0 0 816 1056"
   sodipodi:docname="clean_arch.pdf"
   xmlns:inkscape="http://www.inkscape.org/namespaces/inkscape"
   xmlns:sodipodi="http://sodipodi.sourceforge.net/DTD/sodipodi-0.dtd"
   xmlns="http://www.w3.org/2000/svg"
   xmlns:svg="http://www.w3.org/2000/svg">
  <defs
     id="defs6">
    <clipPath
       clipPathUnits="userSpaceOnUse"
       id="clipPath18">
      <path
         d="m 2784,0 h 696 V 1056 H 2784 V 0"
         clip-rule="evenodd"
         id="path16" />
    </clipPath>
    <clipPath
       clipPathUnits="userSpaceOnUse"
       id="clipPath28">
      <path
         d="m 2784,66 h 696 V 996 H 2784 V 66"
         clip-rule="evenodd"
         id="path26" />
    </clipPath>
  </defs>
  <sodipodi:namedview
     id="namedview4"
     pagecolor="#ffffff"
     bordercolor="#000000"
     borderopacity="0.25"
     inkscape:showpageshadow="2"
     inkscape:pageopacity="0.0"
     inkscape:pagecheckerboard="0"
     inkscape:deskcolor="#d1d1d1" />
  <g
     id="g8"
     inkscape:groupmode="layer"
     inkscape:label="clean_arch"
     transform="translate(59.999999,2.64e-5)">
    <g
       id="g10" />
    <g
       id="g12"
       transform="translate(-2784)">
      <g
         id="g14"
         clip-path="url(#clipPath18)">
        <g
           id="g20" />
      </g>
    </g>
    <g
       id="g22"
       transform="translate(-2784)">
      <g
         id="g24"
         clip-path="url(#clipPath28)">
        <text
           xml:space="preserve"
           transform="translate(2784,83.01562)"
           style="font-variant:normal;font-weight:normal;font-size:20px;font-family:'Times New Roman';-inkscape-font-specification:TimesNewRomanPSMT;writing-mode:lr-tb;fill:#000000;fill-opacity:1;fill-rule:nonzero;stroke:none"
           id="text32"><tspan
             x="0 9 19 28 34 44 49 59 68 73 87 96 105 111 121 130 136 145 150 159 169"
             y="0"
             sodipodi:role="line"
             id="tspan30">could be manipulated.</tspan></text>
        <text
           xml:space="preserve"
           transform="translate(2784,126)"
           style="font-variant:normal;font-weight:normal;font-size:20px;font-family:'Times New Roman';-inkscape-font-specification:TimesNewRomanPSMT;writing-mode:lr-tb;fill:#000000;fill-opacity:1;fill-rule:nonzero;stroke:none"
           id="text36"><tspan
             x="0 16 25 30 39 45 52 61 71 76 85 90 104 113 120 129 138 143 149 158 167 172 186 195 204 213 222 231 238 243 249 259 266 271 276 285 291 299 304 312 317 326 333 338 347 357 377 386 391 400 406 415 424 429 438 447 457 462 471 480 490 505 511 520 530 539 548 557 567 573 582 587 596 605 613 618 623 636 645 650 655 664"
             y="0"
             sodipodi:role="line"
             id="tspan34">We hired a marketing manager for this startup—a nice and knowledgeable guy. But he</tspan></text>
        <text
           xml:space="preserve"
           transform="translate(2784,149)"
           style="font-variant:normal;font-weight:normal;font-size:20px;font-family:'Times New Roman';-inkscape-font-specification:TimesNewRomanPSMT;writing-mode:lr-tb;fill:#000000;fill-opacity:1;fill-rule:nonzero;stroke:none"
           id="text40"><tspan
             x="0 6 20 34 43 53 59 68 73 82 88 97 102 107 117 123 133 138 152 161 166 171 180 189 194 199 214 223 228 237 246 256 261 266 276 281 290 299 309 318 323 332 337 344 353 359 368 373 379 389 398 407 413 418 428 437 442 451 461 470 478 487 492 498 507 512 517 526 535 540 548 557 565 570 579 593 598 603 609 614 619 634 643 651 660 667 672 677 686"
             y="0"
             sodipodi:role="line"
             id="tspan38">immediately told me that we had to have a relational database in the system. It wasn’t an</tspan></text>
        <text
           xml:space="preserve"
           transform="translate(2784,172)"
           style="font-variant:normal;font-weight:normal;font-size:20px;font-family:'Times New Roman';-inkscape-font-specification:TimesNewRomanPSMT;writing-mode:lr-tb;fill:#000000;fill-opacity:1;fill-rule:nonzero;stroke:none"
           id="text44"><tspan
             x="0 10 20 25 31 41 50 55 64 73 83 88 94 99 104 119 128 136 145 152 157 162 171 180 185 194 203 212 218 227 236 245 252 258 267 276 281 287 295 303 312 321 341 347 352 357 372 381 389 394 403 408 422 431 438 447 456 461 467 476 485 490 496 504 512 521 530"
             y="0"
             sodipodi:role="line"
             id="tspan42">option and it wasn’t an engineering issue—it was a marketing issue.</tspan></text>
        <text
           xml:space="preserve"
           transform="translate(2784,215)"
           style="font-variant:normal;font-weight:normal;font-size:20px;font-family:'Times New Roman';-inkscape-font-specification:TimesNewRomanPSMT;writing-mode:lr-tb;fill:#000000;fill-opacity:1;fill-rule:nonzero;stroke:none"
           id="text48"><tspan
             x="0 12 21 27 35 40 54 63 73 82 87 96 106 111 119 128 137 145 154 159 164 174 179 193 202 207 212 230 239 248 253 259 268 273 278 287 296 301 316 326 333 339 349 354 369 379 388 394 404 409 415 420 435 444 453 458 463 468 478 483 490 499 508 515 522 531 540 549 558 563 577 586 591 597 603 612 621 630 640 645 651 657 665 670"
             y="0"
             sodipodi:role="line"
             id="tspan46">This made no sense to me. Why in the world would I want to rearrange my linked lists</tspan></text>
        <text
           xml:space="preserve"
           transform="translate(2784,238)"
           style="font-variant:normal;font-weight:normal;font-size:20px;font-family:'Times New Roman';-inkscape-font-specification:TimesNewRomanPSMT;writing-mode:lr-tb;fill:#000000;fill-opacity:1;fill-rule:nonzero;stroke:none"
           id="text52"><tspan
             x="0 9 18 28 33 38 45 54 63 71 76 82 91 96 106 111 120 125 135 144 153 162 171 176 186 192 197 204 214 229 237 242 251 260 270 275 280 289 299 305 314 322 327 336 345 354 363 371 379 388 398 403 408 417 424 434 443 452 461 466 477 491 502 511 516 534 543 552 557 572 582 591 597 607 612"
             y="0"
             sodipodi:role="line"
             id="tspan50">and trees into a bunch of rows and tables accessed through SQL? Why would I</tspan></text>
        <text
           xml:space="preserve"
           transform="translate(2784,261)"
           style="font-variant:normal;font-weight:normal;font-size:20px;font-family:'Times New Roman';-inkscape-font-specification:TimesNewRomanPSMT;writing-mode:lr-tb;fill:#000000;fill-opacity:1;fill-rule:nonzero;stroke:none"
           id="text56"><tspan
             x="0 6 15 20 27 37 47 56 65 74 79 88 94 100 105 110 119 128 133 143 153 162 169 178 187 196 206 211 220 229 239 244 253 262 272 281 290 298 307 312 322 328 333 342 347 361 370 378 386 392 402 411 416 429 443 456 473 484 489 504 513 522 531 536 545 550 558 564 578 588 594 603 608 615 624 633 643 653"
             y="0"
             sodipodi:role="line"
             id="tspan54">introduce all the overhead and expense of a massive RDBMS when a simple random</tspan></text>
        <text
           xml:space="preserve"
           transform="translate(2784,284)"
           style="font-variant:normal;font-weight:normal;font-size:20px;font-family:'Times New Roman';-inkscape-font-specification:TimesNewRomanPSMT;writing-mode:lr-tb;fill:#000000;fill-opacity:1;fill-rule:nonzero;stroke:none"
           id="text60"><tspan
             x="0 9 18 27 36 44 52 57 63 69 75 84 89 97 106 114 119 128 142 147 162 171 179 184 198 208 215 224 229 234 243 252 261 266 274 283 289 295 301 310 316 325 334 339 348 353 364 374 379 385 390 396 406 415 424 433 438 443 452 458 472 477 482 487 497 507 512 521 526 535 544 554 559 568 577 583 589"
             y="0"
             sodipodi:role="line"
             id="tspan58">access file system was more than sufficient? So I fought him, tooth and nail.</tspan></text>
        <text
           xml:space="preserve"
           transform="translate(2784,327)"
           style="font-variant:normal;font-weight:normal;font-size:20px;font-family:'Times New Roman';-inkscape-font-specification:TimesNewRomanPSMT;writing-mode:lr-tb;fill:#000000;fill-opacity:1;fill-rule:nonzero;stroke:none"
           id="text64"><tspan
             x="0 16 25 30 39 48 58 63 72 77 86 95 102 112 127 136 143 152 157 166 175 184 190 199 208 217 224 229 238 243 248 253 262 268 276 281 290 300 314 324 333 342 351 356 371 380 390 395 400 410 420 429 434 443 453 458 463 472 481 486 499 513 526 543 554 559 568 577 586 595 600 605 610 624"
             y="0"
             sodipodi:role="line"
             id="tspan62">We had a hardware engineer at this company who took up the RDBMS chant. He</tspan></text>
        <text
           xml:space="preserve"
           transform="translate(2784,350)"
           style="font-variant:normal;font-weight:normal;font-size:20px;font-family:'Times New Roman';-inkscape-font-specification:TimesNewRomanPSMT;writing-mode:lr-tb;fill:#000000;fill-opacity:1;fill-rule:nonzero;stroke:none"
           id="text68"><tspan
             x="0 10 19 28 37 51 60 65 74 84 93 103 109 118 127 136 146 151 156 165 174 179 184 194 203 210 215 223 233 239 244 259 268 275 284 289 297 306 314 319 328 342 347 356 365 374 384 393 403 408 417 426 431 444 458 471 488 499 504 510 520 527 532 537 546 555 564 573 579 588 597 603 608 615 624 633 641 651 660 668"
             y="0"
             sodipodi:role="line"
             id="tspan66">became convinced that our software system needed an RDBMS for technical reasons.</tspan></text>
        <text
           xml:space="preserve"
           transform="translate(2784,373)"
           style="font-variant:normal;font-weight:normal;font-size:20px;font-family:'Times New Roman';-inkscape-font-specification:TimesNewRomanPSMT;writing-mode:lr-tb;fill:#000000;fill-opacity:1;fill-rule:nonzero;stroke:none"
           id="text72"><tspan
             x="0 14 23 28 37 46 52 62 67 81 90 99 104 110 119 128 136 141 151 160 169 175 184 194 199 213 222 227 237 246 255 264 269 284 290 295 304 309 314 323 332 337 346 355 364 373 382 387 393 403 412 420 425 435 441 446 451 460 469 474 483 493 507 517 526 535 543 548 553 563 570 579 594 600 609 618 623 631 636 642 651"
             y="0"
             sodipodi:role="line"
             id="tspan70">He held meetings behind my back with the executives of the company, drawing stick</tspan></text>
        <text
           xml:space="preserve"
           transform="translate(2784,396)"
           style="font-variant:normal;font-weight:normal;font-size:20px;font-family:'Times New Roman';-inkscape-font-specification:TimesNewRomanPSMT;writing-mode:lr-tb;fill:#000000;fill-opacity:1;fill-rule:nonzero;stroke:none"
           id="text76"><tspan
             x="0 6 12 21 30 37 46 54 59 69 78 83 88 97 106 111 126 135 141 146 155 165 175 184 191 201 206 216 222 227 236 241 250 260 269 277 286 291 301 310 316 325 334 343 349 358 367 372 382 391 396 405 410 420 430 436 445 450 455 464 473 483 488 497 506 511 526 536 545 551 561 566 575 583 592 597 602 611"
             y="0"
             sodipodi:role="line"
             id="tspan74">figures on the whiteboard of a house balancing on a pole, and he would ask the</tspan></text>
        <text
           xml:space="preserve"
           transform="translate(2784,419)"
           style="font-variant:normal;font-weight:normal;font-size:20px;font-family:'Times New Roman';-inkscape-font-specification:TimesNewRomanPSMT;writing-mode:lr-tb;fill:#000000;fill-opacity:1;fill-rule:nonzero;stroke:none"
           id="text80"><tspan
             x="0 9 18 27 36 45 50 56 66 75 83 88 93 102 118 128 137 143 153 158 167 177 186 191 201 210 216 222 232 237 246 251 260 270 279 287 296 301 311 320 325 334 339 349 359 365 374 383 392 397 411 417 425 430 436 450 460 466 472 481 491 496 510 519 527 535 544 553 562 567 582 591 599 604 609 618 627 632 637 646"
             y="0"
             sodipodi:role="line"
             id="tspan78">executives, “Would you build a house on a pole?” His implied message was that an</tspan></text>
        <text
           xml:space="preserve"
           transform="translate(2784,442)"
           style="font-variant:normal;font-weight:normal;font-size:20px;font-family:'Times New Roman';-inkscape-font-specification:TimesNewRomanPSMT;writing-mode:lr-tb;fill:#000000;fill-opacity:1;fill-rule:nonzero;stroke:none"
           id="text84"><tspan
             x="0 13 27 40 57 68 73 78 87 96 101 106 115 124 133 143 151 156 162 167 175 180 185 194 204 210 219 227 232 238 247 252 259 268 277 287 297 311 316 325 334 343 352 360 368 373 379 385 391 400 408 413 428 437 445 450 458 468 482 491 500 510 525 530 544 554 561 570 575 582 591 597 603 612 622 628 637 642 647 656 665"
             y="0"
             sodipodi:role="line"
             id="tspan82">RDBMS that keeps its tables in random access files was somehow more reliable than</tspan></text>
        <text
           xml:space="preserve"
           transform="translate(2784,465)"
           style="font-variant:normal;font-weight:normal;font-size:20px;font-family:'Times New Roman';-inkscape-font-specification:TimesNewRomanPSMT;writing-mode:lr-tb;fill:#000000;fill-opacity:1;fill-rule:nonzero;stroke:none"
           id="text88"><tspan
             x="0 5 14 23 28 35 44 53 63 73 87 92 101 110 119 128 136 144 149 155 161 167 176 184 189 194 203 212 217 222 237 246 251 266 275 282 291 296 305 313 319 328 337"
             y="0"
             sodipodi:role="line"
             id="tspan86">the random access files that we were using.</tspan></text>
        <text
           xml:space="preserve"
           transform="translate(2784,508)"
           style="font-variant:normal;font-weight:normal;font-size:20px;font-family:'Times New Roman';-inkscape-font-specification:TimesNewRomanPSMT;writing-mode:lr-tb;fill:#000000;fill-opacity:1;fill-rule:nonzero;stroke:none"
           id="text92"><tspan
             x="0 6 11 17 27 36 45 54 59 64 73 79 93 98 103 109 114 120 130 139 148 157 162 167 172 181 190 195 209 218 225 234 243 248 254 263 272 277 286 295 303 308 313 319 324 332 337 346 355 364 369 374 384 389 403 412 417 426 435 444 450 459 468 477 484 490 499 508 513 523 530 536 545 554 560 570 576 585 593 598 604 613 618 623 632 641 646 652 661 670"
             y="0"
             sodipodi:role="line"
             id="tspan90">I fought him. I fought the marketing guy. I stuck to my engineering principles in the face</tspan></text>
        <text
           xml:space="preserve"
           transform="translate(2784,531)"
           style="font-variant:normal;font-weight:normal;font-size:20px;font-family:'Times New Roman';-inkscape-font-specification:TimesNewRomanPSMT;writing-mode:lr-tb;fill:#000000;fill-opacity:1;fill-rule:nonzero;stroke:none"
           id="text96"><tspan
             x="0 10 16 21 27 36 45 52 61 71 77 87 93 102 107 113 122 131 141 148 157 166 175 184 189 194 200 205 211 221 230 239 248 253 258 263 272 281 291 296 302 312 321 330 339 344 349 354 363 372 382 387 393 403 412 421 430 435"
             y="0"
             sodipodi:role="line"
             id="tspan94">of incredible ignorance. I fought, and fought, and fought.</tspan></text>
        <text
           xml:space="preserve"
           transform="translate(2784,574)"
           style="font-variant:normal;font-weight:normal;font-size:20px;font-family:'Times New Roman';-inkscape-font-specification:TimesNewRomanPSMT;writing-mode:lr-tb;fill:#000000;fill-opacity:1;fill-rule:nonzero;stroke:none"
           id="text100"><tspan
             x="0 6 15 20 25 34 43 48 57 66 76 81 86 91 100 109 114 123 132 139 149 164 173 180 189 194 204 213 223 232 238 248 258 267 274 279 294 303 311 316 326 333 343 357 367 372 381 391 396 406 416 425 432 437 451 460 465 474 483 492 502 507 512 522 527 537 546 555 565 579 588 593 598 607 616 621 629 639 645 650 665 674 681"
             y="0"
             sodipodi:role="line"
             id="tspan98">In the end, the hardware developer was promoted over my head to become the software</tspan></text>
        <text
           xml:space="preserve"
           transform="translate(2784,597)"
           style="font-variant:normal;font-weight:normal;font-size:20px;font-family:'Times New Roman';-inkscape-font-specification:TimesNewRomanPSMT;writing-mode:lr-tb;fill:#000000;fill-opacity:1;fill-rule:nonzero;stroke:none"
           id="text104"><tspan
             x="0 14 23 32 41 50 59 65 70 75 81 90 95 100 109 118 123 132 141 151 156 161 166 175 184 193 198 208 217 222 227 236 241 254 268 281 298 309 314 320 329 334 344 349 354 363 372 377 382 392 402 412 419 424 432 441 449 454 463 477 482 487 501 510 520 525 530 536 545 550 555 564 573 578 587 596 606 611 616 621 630 639 648 653 668 677 684"
             y="0"
             sodipodi:role="line"
             id="tspan102">manager. In the end, they put a RDBMS into that poor system. And, in the end, they were</tspan></text>
        <text
           xml:space="preserve"
           transform="translate(2784,620)"
           style="font-variant:normal;font-weight:normal;font-size:20px;font-family:'Times New Roman';-inkscape-font-specification:TimesNewRomanPSMT;writing-mode:lr-tb;fill:#000000;fill-opacity:1;fill-rule:nonzero;stroke:none"
           id="text108"><tspan
             x="0 9 19 27 37 43 52 57 66 72 81 86 93 99 108 117 122 127 136 145 155 160 166 171 186 195 203 208 223 230 240 249 258"
             y="0"
             sodipodi:role="line"
             id="tspan106">absolutely right and I was wrong.</tspan></text>
        <text
           xml:space="preserve"
           transform="translate(2784,663)"
           style="font-variant:normal;font-weight:normal;font-size:20px;font-family:'Times New Roman';-inkscape-font-specification:TimesNewRomanPSMT;writing-mode:lr-tb;fill:#000000;fill-opacity:1;fill-rule:nonzero;stroke:none"
           id="text112"><tspan
             x="0 14 24 29 34 40 50 57 62 71 80 89 95 104 113 122 129 135 144 153 158 165 174 183 191 201 210 218 223 228 242 248 257 267 272 281 291 300 306 311 317 322 337 346 354 359 366 372 381 390 395 400 409 419 429 438 443 448 453 462 471 476 481 486 492 497 512 521 529 534 541 547 556 565 570 575 580 590 595 601 607 616 625 630 635 644 653 662 668 677 685"
             y="0"
             sodipodi:role="line"
             id="tspan110">Not for engineering reasons, mind you: I was right about that. I was right to fight against</tspan></text>
        <text
           xml:space="preserve"
           transform="translate(2784,686)"
           style="font-variant:normal;font-weight:normal;font-size:20px;font-family:'Times New Roman';-inkscape-font-specification:TimesNewRomanPSMT;writing-mode:lr-tb;fill:#000000;fill-opacity:1;fill-rule:nonzero;stroke:none"
           id="text116"><tspan
             x="0 10 19 24 29 35 44 53 58 67 76 81 94 108 121 138 149 154 160 169 174 184 189 194 203 212 217 226 233 242 251 257 262 271 280 285 294 301 310 316 321 330 340 347 356 361 371 377 382 387 396 405 410 418 427 435 440 449 463 468 473 485 494 503 508 515 524 533 541 551 560 565 571 576 591 600 608 613 628 635 645 654"
             y="0"
             sodipodi:role="line"
             id="tspan114">putting an RDBMS into the architectural core of the system. The reason I was wrong</tspan></text>
        <text
           xml:space="preserve"
           transform="translate(2784,709)"
           style="font-variant:normal;font-weight:normal;font-size:20px;font-family:'Times New Roman';-inkscape-font-specification:TimesNewRomanPSMT;writing-mode:lr-tb;fill:#000000;fill-opacity:1;fill-rule:nonzero;stroke:none"
           id="text120"><tspan
             x="0 15 24 32 37 47 56 65 74 83 91 100 105 115 124 131 136 145 154 162 167 177 191 200 207 215 220 229 238 248 257 266 271 280 290 295 304 312 317 322 332 337 346 355 365 374 379 388 393 400 409 415 424 429 435 445 454 463 469 474 484 493 498 507 517 526 534 543 548 553 565 574 583 592 597 607 613 623 632 639 644 649 658 667 677"
             y="0"
             sodipodi:role="line"
             id="tspan118">was because our customers expected us to have a relational database. They didn’t know</tspan></text>
        <text
           xml:space="preserve"
           transform="translate(2784,732)"
           style="font-variant:normal;font-weight:normal;font-size:20px;font-family:'Times New Roman';-inkscape-font-specification:TimesNewRomanPSMT;writing-mode:lr-tb;fill:#000000;fill-opacity:1;fill-rule:nonzero;stroke:none"
           id="text124"><tspan
             x="0 15 24 33 38 43 48 57 66 75 80 95 105 114 120 130 135 145 155 160 175 181 186 195 200 206 211 216 221 233 242 251 260 265 275 281 291 300 307 312 317 326 335 345 354 359 368 377 386 391 398 407 416 422 428 436 441 447 456 461 476 485 494 499 509 515 520 529 537 543 552 561 566 571 580 589 594 601 610 616 625 630 636 646 655 664"
             y="0"
             sodipodi:role="line"
             id="tspan122">what they would do with it. They didn’t have any realistic way of using the relational</tspan></text>
        <text
           xml:space="preserve"
           transform="translate(2784,755)"
           style="font-variant:normal;font-weight:normal;font-size:20px;font-family:'Times New Roman';-inkscape-font-specification:TimesNewRomanPSMT;writing-mode:lr-tb;fill:#000000;fill-opacity:1;fill-rule:nonzero;stroke:none"
           id="text128"><tspan
             x="0 10 19 24 33 38 44 53 58 68 77 84 89 97 106 114 119 128 142 147 152 165 174 179 184 190 195 200 210 216 226 235 242 247 252 266 275 280 285 294 301 307 312 326 335 342 347 356 365 373 378 388 402 411 418 426 431 437 446 452 458 467 472 481 490 500 509 518 523 532 542 547 556 565 570 583 597 610 627 638 643 648 654 659 664 673 682"
             y="0"
             sodipodi:role="line"
             id="tspan126">data in our system. But it didn’t matter: Our customers fully expected an RDBMS. It had</tspan></text>
        <text
           xml:space="preserve"
           transform="translate(2784,778)"
           style="font-variant:normal;font-weight:normal;font-size:20px;font-family:'Times New Roman';-inkscape-font-specification:TimesNewRomanPSMT;writing-mode:lr-tb;fill:#000000;fill-opacity:1;fill-rule:nonzero;stroke:none"
           id="text132"><tspan
             x="0 10 19 28 38 52 61 66 75"
             y="0"
             sodipodi:role="line"
             id="tspan130">become a </tspan></text>
        <text
           xml:space="preserve"
           transform="translate(2864,778)"
           style="font-variant:normal;font-weight:normal;font-size:20px;font-family:'Times New Roman';-inkscape-font-specification:TimesNewRomanPSMT;writing-mode:lr-tb;fill:#000000;fill-opacity:1;fill-rule:nonzero;stroke:none"
           id="text136"><tspan
             x="0 9 18 27 36 45 50 60 70 79 84 90 95 104 118 123 128 137 146 151 156 165 171 177 182 187 196 205 210 218 228 234 239 254 263 270 279 284 294 303 310 319 328 337 345 354 361 369 374 383 392 402 407 417 426 431 436 445 454 460 467 472 478 484 492 497 502 507 519 528 537 544 553 558 573 582 590 595 604"
             y="0"
             sodipodi:role="line"
             id="tspan134">check box item that all the software purchasers had on their list. There was no</tspan></text>
        <text
           xml:space="preserve"
           transform="translate(2784,801)"
           style="font-variant:normal;font-weight:normal;font-size:20px;font-family:'Times New Roman';-inkscape-font-specification:TimesNewRomanPSMT;writing-mode:lr-tb;fill:#000000;fill-opacity:1;fill-rule:nonzero;stroke:none"
           id="text140"><tspan
             x="0 9 18 27 33 42 51 60 67 73 82 91 96 103 112 117 123 133 142 151 157 166 186 193 202 207 213 223 232 241 247 253 258 267 272 281 290 300 305 314 324 329 338 344 353 362 367 372 382 387 397 407 412 427 433 438 447 452 458 463 468 473 479 484 489 504 513 521 526 535 544 549 555 562 569 578 583 589 599 608 617 623"
             y="0"
             sodipodi:role="line"
             id="tspan138">engineering rationale—rationality had nothing to do with it. It was an irrational,</tspan></text>
        <text
           xml:space="preserve"
           transform="translate(2784,824)"
           style="font-variant:normal;font-weight:normal;font-size:20px;font-family:'Times New Roman';-inkscape-font-specification:TimesNewRomanPSMT;writing-mode:lr-tb;fill:#000000;fill-opacity:1;fill-rule:nonzero;stroke:none"
           id="text144"><tspan
             x="0 9 18 23 32 39 48 57 63 68 73 82 91 101 106 115 124 129 135 142 151 157 166 171 181 190 198 207 213 222 230 238 243 252 261 270 280 285 290 300 309 314 319 325 330 335 350 359 367 372 381 391 396 402 411 419 427 432 439 448 457 463"
             y="0"
             sodipodi:role="line"
             id="tspan142">external, and entirely baseless need, but it was no less real.</tspan></text>
        <text
           xml:space="preserve"
           transform="translate(2784,867)"
           style="font-variant:normal;font-weight:normal;font-size:20px;font-family:'Times New Roman';-inkscape-font-specification:TimesNewRomanPSMT;writing-mode:lr-tb;fill:#000000;fill-opacity:1;fill-rule:nonzero;stroke:none"
           id="text148"><tspan
             x="0 18 27 36 43 52 57 67 73 83 88 93 102 111 116 121 130 139 148 158 163 172 182 196 205 210 216 223 233 247 256 261 267 272 277 287 294 300 309 315 324 333 338 347 357 362 368 375 385 399 404 409 418 427 432 441 447 456 465 471 480 485 494 500 506 515 524 529 535 545 554 559 573 582 589 598 607 612 618 627"
             y="0"
             sodipodi:role="line"
             id="tspan146">Where did that need come from? It originated from the highly effective marketing</tspan></text>
        <text
           xml:space="preserve"
           transform="translate(2784,890)"
           style="font-variant:normal;font-weight:normal;font-size:20px;font-family:'Times New Roman';-inkscape-font-specification:TimesNewRomanPSMT;writing-mode:lr-tb;fill:#000000;fill-opacity:1;fill-rule:nonzero;stroke:none"
           id="text152"><tspan
             x="0 9 18 32 42 51 57 66 75 83 88 97 111 121 127 137 146 155 165 170 180 189 194 199 208 217 222 232 241 246 255 265 274 282 291 296 306 315 324 334 344 351 359 364 373 378 383 388 397 406 411 416 422 436 445 450 455 467 476 485 494 499 508 517 527 532 546 555 564 573 582 591 601 606 611"
             y="0"
             sodipodi:role="line"
             id="tspan150">campaigns employed by the database vendors at the time. They had managed to</tspan></text>
        <text
           xml:space="preserve"
           transform="translate(2784,913)"
           style="font-variant:normal;font-weight:normal;font-size:20px;font-family:'Times New Roman';-inkscape-font-specification:TimesNewRomanPSMT;writing-mode:lr-tb;fill:#000000;fill-opacity:1;fill-rule:nonzero;stroke:none"
           id="text156"><tspan
             x="0 9 19 28 38 44 53 62 71 76 85 91 100 109 116 122 131 141 150 156 161 170 179 188 197 206 211 217 227 236 244 249 254 263 272 277 282 287 296 305 311 318 323 332 342 349 359 369 376 385 390 399 404 413 423 432 437 446 451 460 468 476 485 490 498 507 512 521 530 539 549 558 568 573 583 590 600 605 614 623 628 634 644 653 658 663 672 681"
             y="0"
             sodipodi:role="line"
             id="tspan154">convince high-level executives that their corporate “data assets” needed protection, and</tspan></text>
        <text
           xml:space="preserve"
           transform="translate(2784,936)"
           style="font-variant:normal;font-weight:normal;font-size:20px;font-family:'Times New Roman';-inkscape-font-specification:TimesNewRomanPSMT;writing-mode:lr-tb;fill:#000000;fill-opacity:1;fill-rule:nonzero;stroke:none"
           id="text160"><tspan
             x="0 5 14 23 28 33 38 47 56 61 71 80 85 94 104 113 121 130 135 143 152 160 165 174 188 196 201 206 215 224 233 238 248 254 260 269 276 285 295 300 315 324 331 340 345 350 359 368 373 379 389 398 407 413 418 432 441 450 459 467 472 482 488 493 503 510 520 530 536 546 552 561 570 575 580 589 598 603 608 618 625 635 640 649 658 663 669 679 688"
             y="0"
             sodipodi:role="line"
             id="tspan158">that the database systems they offered were the ideal means of providing that protection.</tspan></text>
        <text
           xml:space="preserve"
           transform="translate(2784,979)"
           style="font-variant:normal;font-weight:normal;font-size:20px;font-family:'Times New Roman';-inkscape-font-specification:TimesNewRomanPSMT;writing-mode:lr-tb;fill:#000000;fill-opacity:1;fill-rule:nonzero;stroke:none"
           id="text164"><tspan
             x="0 16 25 30 38 47 56 61 66 75 84 89 97 106 120 129 134 143 149 158 168 173 183 189 194 208 217 224 233 242 247 253 262 271 276 285 294 308 318 327 333 342 351 359 364 369 379 389 398 406 411 416 428 437 446 451 466 476 483 493 498 507 516 525 530 539 546 556 563 569 577 586 595 600 609 618 628 633 638 647"
             y="0"
             sodipodi:role="line"
             id="tspan162">We see the same kind of marketing campaigns today. The word “enterprise” and the</tspan></text>
      </g>
    </g>
  </g>
</svg>
