<?xml version="1.0" encoding="UTF-8" standalone="no"?>
<!-- Created with Inkscape (http://www.inkscape.org/) -->

<svg
   version="1.1"
   id="svg2"
   width="816"
   height="1056"
   viewBox="0 0 816 1056"
   sodipodi:docname="clean_arch.pdf"
   xmlns:inkscape="http://www.inkscape.org/namespaces/inkscape"
   xmlns:sodipodi="http://sodipodi.sourceforge.net/DTD/sodipodi-0.dtd"
   xmlns="http://www.w3.org/2000/svg"
   xmlns:svg="http://www.w3.org/2000/svg">
  <defs
     id="defs6">
    <clipPath
       clipPathUnits="userSpaceOnUse"
       id="clipPath18">
      <path
         d="m 21576,0 h 696 v 1056 h -696 V 0"
         clip-rule="evenodd"
         id="path16" />
    </clipPath>
    <clipPath
       clipPathUnits="userSpaceOnUse"
       id="clipPath28">
      <path
         d="m 21576,66 h 696 v 930 h -696 V 66"
         clip-rule="evenodd"
         id="path26" />
    </clipPath>
  </defs>
  <sodipodi:namedview
     id="namedview4"
     pagecolor="#ffffff"
     bordercolor="#000000"
     borderopacity="0.25"
     inkscape:showpageshadow="2"
     inkscape:pageopacity="0.0"
     inkscape:pagecheckerboard="0"
     inkscape:deskcolor="#d1d1d1" />
  <g
     id="g8"
     inkscape:groupmode="layer"
     inkscape:label="clean_arch"
     transform="translate(59.999999,2.64e-5)">
    <g
       id="g10" />
    <g
       id="g12"
       transform="translate(-21576)">
      <g
         id="g14"
         clip-path="url(#clipPath18)">
        <g
           id="g20" />
      </g>
    </g>
    <g
       id="g22"
       transform="translate(-21576)">
      <g
         id="g24"
         clip-path="url(#clipPath28)">
        <text
           xml:space="preserve"
           transform="translate(21576,83)"
           style="font-variant:normal;font-weight:normal;font-size:20px;font-family:'Times New Roman';-inkscape-font-specification:TimesNewRomanPSMT;writing-mode:lr-tb;fill:#000000;fill-opacity:1;fill-rule:nonzero;stroke:none"
           id="text32"><tspan
             x="0 15 24 31 40 45 59 68 77 86 95 101 107 116 121 130 139 144 153 160 169 179 184 189 194 203 212 221 226 241 250 257 266 271 281 287 292 301 310 315 329 335 343 351 361 370 376 382 391 401 406 416 423 428 434 448 458 465 475 485 494 501 507 516 521 527 537 544 558 567 572 577 586 596 601 606 618 627 636 645 650 665 674 681"
             y="0"
             sodipodi:role="line"
             id="tspan30">were manually entered, they were often misspelled or improperly formatted. They were</tspan></text>
        <text
           xml:space="preserve"
           transform="translate(21576,106)"
           style="font-variant:normal;font-weight:normal;font-size:20px;font-family:'Times New Roman';-inkscape-font-specification:TimesNewRomanPSMT;writing-mode:lr-tb;fill:#000000;fill-opacity:1;fill-rule:nonzero;stroke:none"
           id="text36"><tspan
             x="0 14 23 32 41 46 51 57 67 74 79 88 97 111 120 129 137 142 147 157 162 168 177 182 191 198 208 215 224 229 234 239 248 258 263 268 274 284 291 296 310 319 328 337 343 352 361 369 374 379 389 394 404 411 421 430 439 447 455"
             y="0"
             sodipodi:role="line"
             id="tspan34">meant for humans to interpret, not for machines to process.</tspan></text>
        <text
           xml:space="preserve"
           transform="translate(21576,149)"
           style="font-variant:normal;font-weight:normal;font-size:20px;font-family:'Times New Roman';-inkscape-font-specification:TimesNewRomanPSMT;writing-mode:lr-tb;fill:#000000;fill-opacity:1;fill-rule:nonzero;stroke:none"
           id="text40"><tspan
             x="0 14 23 30 35 45 52 62 72 78 87 101 106 121 130 138 143 148 158 163 173 182 191 201 211 220 225 230 239 248 256 265 270 278 287 301 307 314 320 327 336 345 352 358 368 375 389 394 402 407 414 420 429 438 446 451 456 462 471 476 485 492 502 509 518 523 528 537 546 556 561 567 573 582 587 596 605 614 619 628 635 642 652 659 667"
             y="0"
             sodipodi:role="line"
             id="tspan38">Our problem was to decode these semi-free-form strings, interpret and fix any errors,</tspan></text>
        <text
           xml:space="preserve"
           transform="translate(21576,172)"
           style="font-variant:normal;font-weight:normal;font-size:20px;font-family:'Times New Roman';-inkscape-font-specification:TimesNewRomanPSMT;writing-mode:lr-tb;fill:#000000;fill-opacity:1;fill-rule:nonzero;stroke:none"
           id="text44"><tspan
             x="0 9 18 28 33 38 47 56 65 70 75 84 91 100 105 110 119 128 142 147 153 162 167 177 182 192 202 208 217 226 231 241 250 255 265 274 279 284 292 302 307 322 331 336 345 355 364 370 380 385 392 401 410 420 425 430 439 448 462 467 472 482 487 492 501 510 515 522 531 541 550 556 563 577 586 595 600 605 614 624 629 639 648 653"
             y="0"
             sodipodi:role="line"
             id="tspan42">and then turn them into voice output so we could read them to the repairman, up on a</tspan></text>
        <text
           xml:space="preserve"
           transform="translate(21576,195)"
           style="font-variant:normal;font-weight:normal;font-size:20px;font-family:'Times New Roman';-inkscape-font-specification:TimesNewRomanPSMT;writing-mode:lr-tb;fill:#000000;fill-opacity:1;fill-rule:nonzero;stroke:none"
           id="text48"><tspan
             x="0 10 20 26 35 40 45 51 57 65 70 79 88 94 103 112 117 132 138 143 152 157 166 171 180 189 198 208 216 225 230 235 240 252 261 267 275 280 287 296 306 315 321 328 337 347 352 357 366 380 390 399 408 413 423 428 437 446 453 458 463 472 478 487 496 504 509 514 523 528 538 547 554 563 568 574 580 589 598 604 614 620 629 634 644 653 660 668 674 683"
             y="0"
             sodipodi:role="line"
             id="tspan46">pole, listening with a handset. This required, among other things, a very flexible parsing</tspan></text>
        <text
           xml:space="preserve"
           transform="translate(21576,218)"
           style="font-variant:normal;font-weight:normal;font-size:20px;font-family:'Times New Roman';-inkscape-font-specification:TimesNewRomanPSMT;writing-mode:lr-tb;fill:#000000;fill-opacity:1;fill-rule:nonzero;stroke:none"
           id="text52"><tspan
             x="0 9 18 28 33 43 52 57 66 71 78 87 97 104 113 121 130 139 144 153 158 164 174 183 188 193 202 211 220 229 235 245 254 263 268 273 285 294 303 308 313 323 332 337 346 351 358 367 377 384 393 401 410 419 424 433 438 444 454 463 468 477 486 496 501 506 516 521 531 540 545 555 564 572 580 589 599 604 609 618 625 635 644 653 662 667 672 681"
             y="0"
             sodipodi:role="line"
             id="tspan50">and data representation technique. That data representation had to be passed through the</tspan></text>
        <text
           xml:space="preserve"
           transform="translate(21576,241)"
           style="font-variant:normal;font-weight:normal;font-size:20px;font-family:'Times New Roman';-inkscape-font-specification:TimesNewRomanPSMT;writing-mode:lr-tb;fill:#000000;fill-opacity:1;fill-rule:nonzero;stroke:none"
           id="text56"><tspan
             x="0 10 24 37 50 55 60 75 84 90 99 108 113 122 132 141 147 157 162 171 180 189 199 205 214 219 229 238 244 253 258 266 271 278 284 293 302 310"
             y="0"
             sodipodi:role="line"
             id="tspan54">3DBB, which could handle only strings.</tspan></text>
        <text
           xml:space="preserve"
           transform="translate(21576,284)"
           style="font-variant:normal;font-weight:normal;font-size:20px;font-family:'Times New Roman';-inkscape-font-specification:TimesNewRomanPSMT;writing-mode:lr-tb;fill:#000000;fill-opacity:1;fill-rule:nonzero;stroke:none"
           id="text60"><tspan
             x="0 14 23 33 38 46 56 61 66 76 85 90 99 108 113 122 128 135 145 151 160 169 178 183 188 194 200 209 215 224 233 238 248 257 262 277 286 295 304 309 318 327 335 340 350 364 373 380 385 395 401 409 415 420 428 433 438 444 449 455 464 474 483 492 497 506 516 521 530 535 543 552 561 570 584 593 598 603 612 621 626 631 637 642 651 660 666 672 681"
             y="0"
             sodipodi:role="line"
             id="tspan58">And so, on an airplane, flying between customer visits, I invented a scheme that I called</tspan></text>
        <text
           xml:space="preserve"
           transform="translate(21576,307)"
           style="font-variant:normal;font-weight:normal;font-size:20px;font-family:'Times New Roman';-inkscape-font-specification:TimesNewRomanPSMT;writing-mode:lr-tb;fill:#000000;fill-opacity:1;fill-rule:nonzero;stroke:none"
           id="text64"><tspan
             x="0 11 22 36 42"
             y="0"
             sodipodi:role="line"
             id="tspan62">FLD: </tspan></text>
        <text
           xml:space="preserve"
           transform="translate(21623,307)"
           style="font-variant:normal;font-weight:normal;font-size:20px;font-family:'Times New Roman';-inkscape-font-specification:TimesNewRomanPSMT;writing-mode:lr-tb;fill:#000000;fill-opacity:1;fill-rule:nonzero;stroke:none"
           id="text68"><tspan
             x="0 11 17 26 32 42 47 58 67 77 86 92 101 111 116 130 139 144"
             y="0"
             sodipodi:role="line"
             id="tspan66">Field Labeled Data</tspan></text>
        <text
           xml:space="preserve"
           transform="translate(21776,307)"
           style="font-variant:normal;font-weight:normal;font-size:20px;font-family:'Times New Roman';-inkscape-font-specification:TimesNewRomanPSMT;writing-mode:lr-tb;fill:#000000;fill-opacity:1;fill-rule:nonzero;stroke:none"
           id="text72"><tspan
             x="0 5 10 24 34 49 58 68 77 86 94 99 114 123 128 143 153 162 168 178 183 192 201 207 213 218 223 232 238 246 251 265 282 292 297 307 314 319 327 338 352 366 371 376 388 397 406 411 417 427 434 448 457"
             y="0"
             sodipodi:role="line"
             id="tspan70">. Nowadays we would call this XML or JSON. The format</tspan></text>
        <text
           xml:space="preserve"
           transform="translate(21576,330)"
           style="font-variant:normal;font-weight:normal;font-size:20px;font-family:'Times New Roman';-inkscape-font-specification:TimesNewRomanPSMT;writing-mode:lr-tb;fill:#000000;fill-opacity:1;fill-rule:nonzero;stroke:none"
           id="text76"><tspan
             x="0 15 24 32 37 47 53 59 65 74 81 90 99 104 109 114 124 133 138 143 148 157 166 171 177 187 196 205 210 225 234 242 247 252 261 270 275 283 292 306 315 320 325 336 347 361 369 374 389 398 405 414 419 429 435 444 453 460 469 474 479 486 495 504 512 517 522 531 540 545 550 559 567 575 585 594 600 609 614 623 633 638 647 656 670 679"
             y="0"
             sodipodi:role="line"
             id="tspan74">was different, but the idea was the same. FLDs were binary trees that associated names</tspan></text>
        <text
           xml:space="preserve"
           transform="translate(21576,353)"
           style="font-variant:normal;font-weight:normal;font-size:20px;font-family:'Times New Roman';-inkscape-font-specification:TimesNewRomanPSMT;writing-mode:lr-tb;fill:#000000;fill-opacity:1;fill-rule:nonzero;stroke:none"
           id="text80"><tspan
             x="0 15 21 26 35 40 50 59 64 73 78 84 93 98 107 112 119 128 137 146 153 161 167 177 186 191 200 206 215 222 231 238 247 256 264 269 274 285 296 310 318 323 332 342 351 357 367 372 382 391 396 406 415 424 431 437 446 456 461 471 480 485 494 499 507 513 527 537 543 552 557 571 582 588 593 598 607 616 626 631 640 650 659 665"
             y="0"
             sodipodi:role="line"
             id="tspan78">with data in a recursive hierarchy. FLDs could be queried by a simple API, and could</tspan></text>
        <text
           xml:space="preserve"
           transform="translate(21576,376)"
           style="font-variant:normal;font-weight:normal;font-size:20px;font-family:'Times New Roman';-inkscape-font-specification:TimesNewRomanPSMT;writing-mode:lr-tb;fill:#000000;fill-opacity:1;fill-rule:nonzero;stroke:none"
           id="text84"><tspan
             x="0 10 19 24 29 36 45 54 62 68 77 82 91 101 106 111 121 126 135 144 154 159 165 172 182 196 201 210 215 224 234 243 253 262 271 277 286 295 300 305 313 318 325 331 340 349 354 360 370 377 391 400 405 410 415 424 433 438 443 458 467 475 480 486 496 505 514 520 525 531 541 548 553 558 567 576 581 591 605 618 631"
             y="0"
             sodipodi:role="line"
             id="tspan82">be translated to and from a convenient string format that was ideal for the 3DBB.</tspan></text>
        <text
           xml:space="preserve"
           transform="translate(21576,419)"
           style="font-variant:normal;font-weight:normal;font-size:20px;font-family:'Times New Roman';-inkscape-font-specification:TimesNewRomanPSMT;writing-mode:lr-tb;fill:#000000;fill-opacity:1;fill-rule:nonzero;stroke:none"
           id="text88"><tspan
             x="0 11 21 26 31 45 51 60 67 77 84 92 101 108 118 124 133 142 150 155 164 174 188 202 211 220 226 235 244 249 255 264 273 278 283 292 299 309 318 327 336 341 349 358 367 374 383 393 398 412 421 435 445 452 461 466 475 484 493 499 509 518 523 533 539 544 552 562 571 580 589 594 602 607 616 624 630 639 648 653 662"
             y="0"
             sodipodi:role="line"
             id="tspan86">So, micro-services communicating through shared memory analog of sockets using an</tspan></text>
        <text
           xml:space="preserve"
           transform="translate(21576,442)"
           style="font-variant:normal;font-weight:normal;font-size:20px;font-family:'Times New Roman';-inkscape-font-specification:TimesNewRomanPSMT;writing-mode:lr-tb;fill:#000000;fill-opacity:1;fill-rule:nonzero;stroke:none"
           id="text92"><tspan
             x="0 14 31 41 46 55 64 73 79 89 98 118 124 133 138 148 158 168 178"
             y="0"
             sodipodi:role="line"
             id="tspan90">XML analog—in 1985.</tspan></text>
        <text
           xml:space="preserve"
           transform="translate(21576,485)"
           style="font-variant:normal;font-weight:normal;font-size:20px;font-family:'Times New Roman';-inkscape-font-specification:TimesNewRomanPSMT;writing-mode:lr-tb;fill:#000000;fill-opacity:1;fill-rule:nonzero;stroke:none"
           id="text96"><tspan
             x="0 12 21 30 37 46 51 57 65 70 79 89 94 103 109 118 127 132 141 150 165 170 179 188 198 207 214 219 224 233 242 247 258 267 276"
             y="0"
             sodipodi:role="line"
             id="tspan94">There is nothing new under the Sun.</tspan></text>
        <text
           xml:space="preserve"
           transform="translate(21576,555)"
           style="font-variant:normal;font-weight:bold;font-size:33px;font-family:'Times New Roman';-inkscape-font-specification:TimesNewRomanPS-BoldMT;writing-mode:lr-tb;fill:#000000;fill-opacity:1;fill-rule:nonzero;stroke:none"
           id="text100"><tspan
             x="0"
             y="0"
             id="tspan98">C</tspan></text>
        <text
           xml:space="preserve"
           transform="translate(21600,555)"
           style="font-variant:normal;font-weight:bold;font-size:33px;font-family:'Times New Roman';-inkscape-font-specification:TimesNewRomanPS-BoldMT;writing-mode:lr-tb;fill:#000000;fill-opacity:1;fill-rule:nonzero;stroke:none"
           id="text104"><tspan
             x="0 22 44 67"
             y="0"
             sodipodi:role="line"
             id="tspan102">LEAR</tspan></text>
        <text
           xml:space="preserve"
           transform="translate(21699,555)"
           style="font-variant:normal;font-weight:bold;font-size:33px;font-family:'Times New Roman';-inkscape-font-specification:TimesNewRomanPS-BoldMT;writing-mode:lr-tb;fill:#000000;fill-opacity:1;fill-rule:nonzero;stroke:none"
           id="text108"><tspan
             x="0"
             y="0"
             id="tspan106">C</tspan></text>
        <text
           xml:space="preserve"
           transform="translate(21723,555)"
           style="font-variant:normal;font-weight:bold;font-size:33px;font-family:'Times New Roman';-inkscape-font-specification:TimesNewRomanPS-BoldMT;writing-mode:lr-tb;fill:#000000;fill-opacity:1;fill-rule:nonzero;stroke:none"
           id="text112"><tspan
             x="0 26 58 90 114 138 151 175 195 217 230 256 280"
             y="0"
             sodipodi:role="line"
             id="tspan110">OMMUNICATIONS</tspan></text>
        <text
           xml:space="preserve"
           transform="translate(21576,600)"
           style="font-variant:normal;font-weight:normal;font-size:20px;font-family:'Times New Roman';-inkscape-font-specification:TimesNewRomanPSMT;writing-mode:lr-tb;fill:#000000;fill-opacity:1;fill-rule:nonzero;stroke:none"
           id="text116"><tspan
             x="0 6 15 20 30 40 50 60 65 70 79 84 93 100 110 119 129 134 144 150 155 165 174 181 190 200 209 218 227 232 241 255 265 271 281 290 299 308 316 321 327 336 342 347 352 357 366 375 380 389 399 413 423 432 441 450 455 460 470 475 481 491 498 512 517 526 531 539 544 553 560 565 574 584 589 598 607 621 630 640 645 658 664 673 682"
             y="0"
             sodipodi:role="line"
             id="tspan114">In 1988, a group of Teradyne employees left the company to form a startup named Clear</tspan></text>
        <text
           xml:space="preserve"
           transform="translate(21576,623)"
           style="font-variant:normal;font-weight:normal;font-size:20px;font-family:'Times New Roman';-inkscape-font-specification:TimesNewRomanPSMT;writing-mode:lr-tb;fill:#000000;fill-opacity:1;fill-rule:nonzero;stroke:none"
           id="text120"><tspan
             x="0 13 23 37 51 60 69 75 84 93 98 104 114 123 131 136 141 147 152 158 168 174 183 192 202 207 212 221 230 244 249 258 263 269 278 293 298 312 322 331 336 345 353 358 364 373 378 387 393 398 403 417 426 433 438 452 458 466 474 480 490 499 504 519 528 536 541 546 556 561 571 580 586 592 602 607 612 621"
             y="0"
             sodipodi:role="line"
             id="tspan118">Communications. I joined them a few months later. Our mission was to build the</tspan></text>
        <text
           xml:space="preserve"
           transform="translate(21576,646)"
           style="font-variant:normal;font-weight:normal;font-size:20px;font-family:'Times New Roman';-inkscape-font-specification:TimesNewRomanPSMT;writing-mode:lr-tb;fill:#000000;fill-opacity:1;fill-rule:nonzero;stroke:none"
           id="text124"><tspan
             x="0 8 18 24 29 44 53 60 69 74 80 90 97 102 111 116 124 133 141 146 155 169 174 179 188 197 202 207 222 232 241 247 257 262 276 286 295 301 306 316 323 328 333 342 351 356 365 375 389 403 412 421 427 436 445 450 456 466 475 483 488 498 507 516 522 528 533 542 547 557 563 568 580 590 595 601 607 616 625 633 653 658 667"
             y="0"
             sodipodi:role="line"
             id="tspan122">software for a system that would monitor the communications quality of T1 lines—the</tspan></text>
        <text
           xml:space="preserve"
           transform="translate(21576,669)"
           style="font-variant:normal;font-weight:normal;font-size:20px;font-family:'Times New Roman';-inkscape-font-specification:TimesNewRomanPSMT;writing-mode:lr-tb;fill:#000000;fill-opacity:1;fill-rule:nonzero;stroke:none"
           id="text128"><tspan
             x="0 10 16 25 31 36 45 51 56 62 68 77 86 94 99 104 113 122 127 132 141 150 157 164 170 179 189 194 200 210 219 228 235 245 251 259 264 273 282 291 300 305 314 324 338 352 361 370 376 385 394 399 405 415 424 432 437 446 455 462 472 480 488 493 498 507 516 521 530 540 549 558 563 570 578 583 588 600 609 618 623 633 639 647 653 663"
             y="0"
             sodipodi:role="line"
             id="tspan126">digital lines that carried long-distance communications across the country. The vision</tspan></text>
        <text
           xml:space="preserve"
           transform="translate(21576,692)"
           style="font-variant:normal;font-weight:normal;font-size:20px;font-family:'Times New Roman';-inkscape-font-specification:TimesNewRomanPSMT;writing-mode:lr-tb;fill:#000000;fill-opacity:1;fill-rule:nonzero;stroke:none"
           id="text132"><tspan
             x="0 15 24 32 37 46 51 60 69 78 87 92 106 116 125 131 136 146 153 158 173 179 184 193 198 207 212 226 235 245 250 260 266 271 276 285 294 299 312 321 327 332 341 351 356 367 372 381 386 395 403 408 417 424 430 438 446 455 462 472 480 488 497 507 512 522 531 536 548 558 563 569 575 584 593 601 606 612 618 627 635 644 650 659"
             y="0"
             sodipodi:role="line"
             id="tspan130">was a huge monitor with a map of the United States crisscrossed by T1 lines flashing</tspan></text>
        <text
           xml:space="preserve"
           transform="translate(21576,715)"
           style="font-variant:normal;font-weight:normal;font-size:20px;font-family:'Times New Roman';-inkscape-font-specification:TimesNewRomanPSMT;writing-mode:lr-tb;fill:#000000;fill-opacity:1;fill-rule:nonzero;stroke:none"
           id="text136"><tspan
             x="0 7 16 26 31 37 43 48 53 62 71 80 85 100 109 116 125 130 140 149 158 165 174 184 190 199 208"
             y="0"
             sodipodi:role="line"
             id="tspan134">red if they were degrading.</tspan></text>
        <text
           xml:space="preserve"
           transform="translate(21576,758)"
           style="font-variant:normal;font-weight:normal;font-size:20px;font-family:'Times New Roman';-inkscape-font-specification:TimesNewRomanPSMT;writing-mode:lr-tb;fill:#000000;fill-opacity:1;fill-rule:nonzero;stroke:none"
           id="text140"><tspan
             x="0 13 22 36 45 59 69 78 84 89 94 103 110 119 129 138 144 153 162 168 173 182 190 199 206 211 217 226 231 240 247 253 262 271 280 288 293 308 317 324 333 338 348 355 364 373 383 388 397 406 421 426 432 441 446 456 466 476 486 491 496 508 517 526 531 545 555 565 571 580 585 602 611 620 626 635 640 650 658"
             y="0"
             sodipodi:role="line"
             id="tspan138">Remember, graphical user interfaces were brand new in 1988. The Apple Macintosh</tspan></text>
        <text
           xml:space="preserve"
           transform="translate(21576,781)"
           style="font-variant:normal;font-weight:normal;font-size:20px;font-family:'Times New Roman';-inkscape-font-specification:TimesNewRomanPSMT;writing-mode:lr-tb;fill:#000000;fill-opacity:1;fill-rule:nonzero;stroke:none"
           id="text144"><tspan
             x="0 15 24 32 37 47 56 62 71 76 82 88 98 107 112 121 130 139 146 154 159 169 175 185 190 195 212 218 227 237 247 262 270 275 290 299 307 312 321 326 332 342 351 360 365 375 384 393 402 407 412 421 430 439 444 449 462 471 476 481 492 501 510 515 532 538 547 554 564 572 581 589 594 603 617 625 630 645 654"
             y="0"
             sodipodi:role="line"
             id="tspan142">was only five years old. Windows was a joke back then. But Sun Microsystems was</tspan></text>
        <text
           xml:space="preserve"
           transform="translate(21576,804)"
           style="font-variant:normal;font-weight:normal;font-size:20px;font-family:'Times New Roman';-inkscape-font-specification:TimesNewRomanPSMT;writing-mode:lr-tb;fill:#000000;fill-opacity:1;fill-rule:nonzero;stroke:none"
           id="text148"><tspan
             x="0 10 19 25 31 41 47 56 65 70 81 91 100 107 116 124 129 138 143 149 159 168 176 181 186 195 204 209 214 223 232 242 247 256 263 272 282 288 298 304 313 318 332 339 356 362 371 381 391 406 414 419 433 446 452 460 465 470 481 491 496 511 520 525 540 549 558 563 568 583 589 594 603 608 619 628 637 657 666 675"
             y="0"
             sodipodi:role="line"
             id="tspan146">building Sparcstations that had credible X-Windows GUIs. So we went with Sun—and</tspan></text>
        <text
           xml:space="preserve"
           transform="translate(21576,827)"
           style="font-variant:normal;font-weight:normal;font-size:20px;font-family:'Times New Roman';-inkscape-font-specification:TimesNewRomanPSMT;writing-mode:lr-tb;fill:#000000;fill-opacity:1;fill-rule:nonzero;stroke:none"
           id="text152"><tspan
             x="0 5 14 23 30 39 45 55 62 71 76 91 97 102 111 116 129 134 143 152 162 167 180 194 200 214"
             y="0"
             sodipodi:role="line"
             id="tspan150">therefore with C and UNIX.</tspan></text>
        <text
           xml:space="preserve"
           transform="translate(21576,870)"
           style="font-variant:normal;font-weight:normal;font-size:20px;font-family:'Times New Roman';-inkscape-font-specification:TimesNewRomanPSMT;writing-mode:lr-tb;fill:#000000;fill-opacity:1;fill-rule:nonzero;stroke:none"
           id="text156"><tspan
             x="0 12 21 27 35 40 55 64 72 77 86 91 99 104 113 120 125 134 144 149 154 170 179 184 199 209 216 225 234 244 249 259 269 274 279 289 294 304 314 319 328 338 347 354 362 367 377 386 393 398 413 422 431 440 445 450 466 475 480 489 498 508 513 518 527 536 541 551 557 565 571 581 590 595 600 616 625 630 639 648 658 663 668 677"
             y="0"
             sodipodi:role="line"
             id="tspan154">This was a startup. We worked 70 to 80 hours per week. We had the vision. We had the</tspan></text>
        <text
           xml:space="preserve"
           transform="translate(21576,893)"
           style="font-variant:normal;font-weight:normal;font-size:20px;font-family:'Times New Roman';-inkscape-font-specification:TimesNewRomanPSMT;writing-mode:lr-tb;fill:#000000;fill-opacity:1;fill-rule:nonzero;stroke:none"
           id="text160"><tspan
             x="0 14 24 29 35 45 54 59 65 75 84 89 94 110 119 124 133 142 152 157 162 171 180 185 200 206 212 218 223 228 244 253 258 267 276 286 291 296 305 314 319 328 337 346 353 362 370 375 380 396 405 410 419 428 438 443 448 457 466 471 480 489 499 508 515 520 526 534 543 548 553 569 578 583 592 601 611 616 625 635 644 650 655 663"
             y="0"
             sodipodi:role="line"
             id="tspan158">motivation. We had the will. We had the energy. We had the expertise. We had equity.</tspan></text>
        <text
           xml:space="preserve"
           transform="translate(21576,916)"
           style="font-variant:normal;font-weight:normal;font-size:20px;font-family:'Times New Roman';-inkscape-font-specification:TimesNewRomanPSMT;writing-mode:lr-tb;fill:#000000;fill-opacity:1;fill-rule:nonzero;stroke:none"
           id="text164"><tspan
             x="0 16 25 30 39 48 58 63 73 80 89 98 112 120 125 135 141 146 156 165 171 180 189 194 208 214 220 226 232 242 251 260 266 273 282 290 295 300 316 325 330 345 354 361 370 375 381 390 396 402 407 417 423 428 436 445 451 456"
             y="0"
             sodipodi:role="line"
             id="tspan162">We had dreams of being millionaires. We were full of shit.</tspan></text>
        <text
           xml:space="preserve"
           transform="translate(21576,959)"
           style="font-variant:normal;font-weight:normal;font-size:20px;font-family:'Times New Roman';-inkscape-font-specification:TimesNewRomanPSMT;writing-mode:lr-tb;fill:#000000;fill-opacity:1;fill-rule:nonzero;stroke:none"
           id="text168"><tspan
             x="0 12 21 30 35 48 53 62 72 82 91 96 106 116 125 132 141 151 156 166 175 180 185 195 201 206 215 225 234 241 250 255 265 272 278 284 290 299 308 313 323 329 334 344 353 360 365 375 385 395 401 410 418 423 428 444 453 458 466 472 481 495 509 518 528 533 539 544 549 558 567 574 583 588 593 602 611 621 626 634 643 653 663 672"
             y="0"
             sodipodi:role="line"
             id="tspan166">The C code poured out of every orifice of our bodies. We slammed it here, and shoved</tspan></text>
        <text
           xml:space="preserve"
           transform="translate(21576,982)"
           style="font-variant:normal;font-weight:normal;font-size:20px;font-family:'Times New Roman';-inkscape-font-specification:TimesNewRomanPSMT;writing-mode:lr-tb;fill:#000000;fill-opacity:1;fill-rule:nonzero;stroke:none"
           id="text172"><tspan
             x="0 6 11 16 21 30 39 46 55 60 65 81 90 95 104 114 123 131 136 143 152 161 166 175 185 190 199 208 217 226 231 240 249 257 262 268 277 285 290 296 305 310 315 324 333 338 347 353 359 364 369 385 394 399 408 417 427 432 442 449 459 468 477 485 493 502 510 515 520 529 538 548 553 567 576 584 592 601 610 619 624 634 643 652 661 670 678"
             y="0"
             sodipodi:role="line"
             id="tspan170">it there. We constructed huge castles in the air. We had processes, and message queues,</tspan></text>
      </g>
    </g>
  </g>
</svg>
