<?xml version="1.0" encoding="UTF-8" standalone="no"?>
<!-- Created with Inkscape (http://www.inkscape.org/) -->

<svg
   version="1.1"
   id="svg2"
   width="816"
   height="1056"
   viewBox="0 0 816 1056"
   sodipodi:docname="clean_arch.pdf"
   xmlns:inkscape="http://www.inkscape.org/namespaces/inkscape"
   xmlns:sodipodi="http://sodipodi.sourceforge.net/DTD/sodipodi-0.dtd"
   xmlns="http://www.w3.org/2000/svg"
   xmlns:svg="http://www.w3.org/2000/svg">
  <defs
     id="defs6">
    <clipPath
       clipPathUnits="userSpaceOnUse"
       id="clipPath18">
      <path
         d="m 2784,0 h 696 V 1056 H 2784 V 0"
         clip-rule="evenodd"
         id="path16" />
    </clipPath>
    <clipPath
       clipPathUnits="userSpaceOnUse"
       id="clipPath28">
      <path
         d="m 2784,66 h 696 V 996 H 2784 V 66"
         clip-rule="evenodd"
         id="path26" />
    </clipPath>
    <clipPath
       clipPathUnits="userSpaceOnUse"
       id="clipPath44">
      <path
         d="m 2784,66 h 696 V 996 H 2784 V 66"
         clip-rule="evenodd"
         id="path42" />
    </clipPath>
  </defs>
  <sodipodi:namedview
     id="namedview4"
     pagecolor="#ffffff"
     bordercolor="#000000"
     borderopacity="0.25"
     inkscape:showpageshadow="2"
     inkscape:pageopacity="0.0"
     inkscape:pagecheckerboard="0"
     inkscape:deskcolor="#d1d1d1" />
  <g
     id="g8"
     inkscape:groupmode="layer"
     inkscape:label="clean_arch"
     transform="translate(59.999999,2.64e-5)">
    <g
       id="g10" />
    <g
       id="g12"
       transform="translate(-2784)">
      <g
         id="g14"
         clip-path="url(#clipPath18)">
        <g
           id="g20" />
      </g>
    </g>
    <g
       id="g22"
       transform="translate(-2784)">
      <g
         id="g24"
         clip-path="url(#clipPath28)">
        <g
           id="g30">
          <path
             d="m 2785,861 h 695 v 1 h -695 z"
             style="fill:#a7a9ac;fill-opacity:1;fill-rule:nonzero;stroke:none"
             id="path32" />
        </g>
        <g
           id="g34">
          <path
             d="m 2785,944 h 695 v 1 h -695 z"
             style="fill:#a7a9ac;fill-opacity:1;fill-rule:nonzero;stroke:none"
             id="path36" />
        </g>
      </g>
    </g>
    <g
       id="g38"
       transform="translate(-2784)">
      <g
         id="g40"
         clip-path="url(#clipPath44)">
        <text
           xml:space="preserve"
           transform="translate(2904,79.17188)"
           style="font-variant:normal;font-weight:normal;font-size:15px;font-family:'Courier New';-inkscape-font-specification:CourierNewPSMT;writing-mode:lr-tb;fill:#000000;fill-opacity:1;fill-rule:nonzero;stroke:none"
           id="text48"><tspan
             x="0 9 18 27 36 45 54 63 72 81 90 99 108 117 126 135"
             y="0"
             sodipodi:role="line"
             id="tspan46">/destination/ORD</tspan></text>
        <text
           xml:space="preserve"
           transform="translate(2784,128)"
           style="font-variant:normal;font-weight:normal;font-size:20px;font-family:'Times New Roman';-inkscape-font-specification:TimesNewRomanPSMT;writing-mode:lr-tb;fill:#000000;fill-opacity:1;fill-rule:nonzero;stroke:none"
           id="text52"><tspan
             x="0 13 19 28 37 44 50 58 63 68 73 82 88 96 101 115 124 133 142 150 155 160 169 178 183 188 197 203 209 214 219 228 237 242 252 258 266 276 285 290 299 308 313 321 330 337 347 353 362 371 379 384 389 395 405 412 417 426 432 438 443 448 457 466 471 481 487 493 499 508 515 524 533 538 543 552 562 576 586 595 604 610 619 627 632 637 651 660 668"
             y="0"
             sodipodi:role="line"
             id="tspan50">Clearly, this means that all the dispatch services, for all the different companies, must</tspan></text>
        <text
           xml:space="preserve"
           transform="translate(2784,151)"
           style="font-variant:normal;font-weight:normal;font-size:20px;font-family:'Times New Roman';-inkscape-font-specification:TimesNewRomanPSMT;writing-mode:lr-tb;fill:#000000;fill-opacity:1;fill-rule:nonzero;stroke:none"
           id="text56"><tspan
             x="0 9 19 28 34 44 51 65 70 75 85 90 95 104 113 118 126 135 149 158 163 176 188 199 211 216 222 231 236 245 252 258 267 276 285 290 295 307 316 325 334 339 353 362 370 375 380 385 392 401 410 415 420 425 434 443"
             y="0"
             sodipodi:role="line"
             id="tspan54">conform to the same REST interface. They must treat the </tspan></text>
        <text
           xml:space="preserve"
           transform="translate(3232,151)"
           style="font-variant:normal;font-weight:normal;font-size:16px;font-family:'Courier New';-inkscape-font-specification:CourierNewPSMT;writing-mode:lr-tb;fill:#000000;fill-opacity:1;fill-rule:nonzero;stroke:none"
           id="text60"><tspan
             x="0 10 20 30 40 50 60 70 80 90 100 110 120"
             y="0"
             sodipodi:role="line"
             id="tspan58">pickupAddress</tspan></text>
        <text
           xml:space="preserve"
           transform="translate(3362,151)"
           style="font-variant:normal;font-weight:normal;font-size:20px;font-family:'Times New Roman';-inkscape-font-specification:TimesNewRomanPSMT;writing-mode:lr-tb;fill:#000000;fill-opacity:1;fill-rule:nonzero;stroke:none"
           id="text64"><tspan
             x="0 5"
             y="0"
             sodipodi:role="line"
             id="tspan62">, </tspan></text>
        <text
           xml:space="preserve"
           transform="translate(3372,151)"
           style="font-variant:normal;font-weight:normal;font-size:16px;font-family:'Courier New';-inkscape-font-specification:CourierNewPSMT;writing-mode:lr-tb;fill:#000000;fill-opacity:1;fill-rule:nonzero;stroke:none"
           id="text68"><tspan
             x="0 10 20 30 40 50 60 70 80 90"
             y="0"
             sodipodi:role="line"
             id="tspan66">pickupTime</tspan></text>
        <text
           xml:space="preserve"
           transform="translate(3472,151)"
           style="font-variant:normal;font-weight:normal;font-size:20px;font-family:'Times New Roman';-inkscape-font-specification:TimesNewRomanPSMT;writing-mode:lr-tb;fill:#000000;fill-opacity:1;fill-rule:nonzero;stroke:none"
           id="text72"><tspan
             x="0"
             y="0"
             id="tspan70">,</tspan></text>
        <text
           xml:space="preserve"
           transform="translate(2784,174)"
           style="font-variant:normal;font-weight:normal;font-size:20px;font-family:'Times New Roman';-inkscape-font-specification:TimesNewRomanPSMT;writing-mode:lr-tb;fill:#000000;fill-opacity:1;fill-rule:nonzero;stroke:none"
           id="text76"><tspan
             x="0 9 18 28"
             y="0"
             sodipodi:role="line"
             id="tspan74">and </tspan></text>
        <text
           xml:space="preserve"
           transform="translate(2817,174)"
           style="font-variant:normal;font-weight:normal;font-size:16px;font-family:'Courier New';-inkscape-font-specification:CourierNewPSMT;writing-mode:lr-tb;fill:#000000;fill-opacity:1;fill-rule:nonzero;stroke:none"
           id="text80"><tspan
             x="0 10 20 30 40 50 60 70 80 90 100"
             y="0"
             sodipodi:role="line"
             id="tspan78">destination</tspan></text>
        <text
           xml:space="preserve"
           transform="translate(2932,174)"
           style="font-variant:normal;font-weight:normal;font-size:20px;font-family:'Times New Roman';-inkscape-font-specification:TimesNewRomanPSMT;writing-mode:lr-tb;fill:#000000;fill-opacity:1;fill-rule:nonzero;stroke:none"
           id="text84"><tspan
             x="0 6 12 21 27 37 45 50 56 66 75 84 89 95 104 113 119 125 133"
             y="0"
             sodipodi:role="line"
             id="tspan82">fields identically.</tspan></text>
        <text
           xml:space="preserve"
           transform="translate(2784,217)"
           style="font-variant:normal;font-weight:normal;font-size:20px;font-family:'Times New Roman';-inkscape-font-specification:TimesNewRomanPSMT;writing-mode:lr-tb;fill:#000000;fill-opacity:1;fill-rule:nonzero;stroke:none"
           id="text88"><tspan
             x="0 14 24 39 44 52 61 71 81 91 99 108 113 118 127 136 141 155 164 178 187 192 197 206 215 221 226 235 245 259 269 278 287 296 301 310 316 323 332 342 347 355 365 379 388 393 403 410 420 429 436 445 459 473 482 489 497 502 517 526 536 541 551 557 567 576 583 588 593 600 609 618 628 633 638 647"
             y="0"
             sodipodi:role="line"
             id="tspan86">Now suppose the Acme taxi company hired some programmers who didn’t read the</tspan></text>
        <text
           xml:space="preserve"
           transform="translate(2784,240)"
           style="font-variant:normal;font-weight:normal;font-size:20px;font-family:'Times New Roman';-inkscape-font-specification:TimesNewRomanPSMT;writing-mode:lr-tb;fill:#000000;fill-opacity:1;fill-rule:nonzero;stroke:none"
           id="text92"><tspan
             x="0 8 18 27 36 41 51 60 67 76 81 90 99 106 115 121 130 136 142 150 155 160 172 181 190 199 204 213 223 233 240 249 259 265 274 279 288 298 303 308 317 326 331 341 350 358 363 369 378 387 392 398 408 417 422 428 434 443 449 459 464 469 479 484 490 499 507 512"
             y="0"
             sodipodi:role="line"
             id="tspan90">spec very carefully. They abbreviated the destination field to just </tspan></text>
        <text
           xml:space="preserve"
           transform="translate(3301,240)"
           style="font-variant:normal;font-weight:normal;font-size:16px;font-family:'Courier New';-inkscape-font-specification:CourierNewPSMT;writing-mode:lr-tb;fill:#000000;fill-opacity:1;fill-rule:nonzero;stroke:none"
           id="text96"><tspan
             x="0 10 20 30"
             y="0"
             sodipodi:role="line"
             id="tspan94">dest</tspan></text>
        <text
           xml:space="preserve"
           transform="translate(3341,240)"
           style="font-variant:normal;font-weight:normal;font-size:20px;font-family:'Times New Roman';-inkscape-font-specification:TimesNewRomanPSMT;writing-mode:lr-tb;fill:#000000;fill-opacity:1;fill-rule:nonzero;stroke:none"
           id="text100"><tspan
             x="0 5 10 24 33 47 56 61 67 75 80 85 94"
             y="0"
             sodipodi:role="line"
             id="tspan98">. Acme is the</tspan></text>
        <text
           xml:space="preserve"
           transform="translate(2784,263)"
           style="font-variant:normal;font-weight:normal;font-size:20px;font-family:'Times New Roman';-inkscape-font-specification:TimesNewRomanPSMT;writing-mode:lr-tb;fill:#000000;fill-opacity:1;fill-rule:nonzero;stroke:none"
           id="text104"><tspan
             x="0 6 15 22 31 40 48 53 58 63 72 81 87 92 101 111 125 135 144 153 162 167 173 182 187 197 206 213 218 227 234 243 252 257 262 271 280 290 295 309 318 332 341 347 355 360 373 385 399 405 413 418 427 436 443 458 464 470 479 484 490 498 503 513 522 529 534 547 559 573 579 587 592 601 610 625 630 645 651 657 666"
             y="0"
             sodipodi:role="line"
             id="tspan102">largest taxi company in our area, and Acme’s CEO’s ex-wife is our CEO’s new wife,</tspan></text>
        <text
           xml:space="preserve"
           transform="translate(2784,286)"
           style="font-variant:normal;font-weight:normal;font-size:20px;font-family:'Times New Roman';-inkscape-font-specification:TimesNewRomanPSMT;writing-mode:lr-tb;fill:#000000;fill-opacity:1;fill-rule:nonzero;stroke:none"
           id="text108"><tspan
             x="0 9 18 28 33 53 58 74 83 89 95 100 105 114 124 133 138 147 156 161 166 171 180 189 194 204 210 219 224 233 240 249 254 259 277 286 295 300 305 320 330 339 345 355 360 369 378 388 398 407 416 421 426 436 441 446 455 464 469 478 485 494 503 509 514 523 532 537 546 553 562 567 577 583 588 598 607 614 619 627 636 644 649 658 672"
             y="0"
             sodipodi:role="line"
             id="tspan106">and … Well, you get the picture. What would happen to the architecture of our system?</tspan></text>
        <text
           xml:space="preserve"
           transform="translate(2784,329)"
           style="font-variant:normal;font-weight:normal;font-size:20px;font-family:'Times New Roman';-inkscape-font-specification:TimesNewRomanPSMT;writing-mode:lr-tb;fill:#000000;fill-opacity:1;fill-rule:nonzero;stroke:none"
           id="text112"><tspan
             x="0 14 24 34 40 50 59 67 73 81 86 91 106 115 120 135 145 154 160 170 175 184 193 202 212 217 222 232 237 246 256 266 271 280 285 293 303 312 321 327 336 342 347 356 365 373 382 387 392 404 413 422 427 437 443 451 461 470 475 484 493 498 505 514 524 533 542 550 555 560 566 576 583 588 597 606 615 620 634 643 657"
             y="0"
             sodipodi:role="line"
             id="tspan110">Obviously, we would need to add a special case. The dispatch request for any Acme</tspan></text>
        <text
           xml:space="preserve"
           transform="translate(2784,352)"
           style="font-variant:normal;font-weight:normal;font-size:20px;font-family:'Times New Roman';-inkscape-font-specification:TimesNewRomanPSMT;writing-mode:lr-tb;fill:#000000;fill-opacity:1;fill-rule:nonzero;stroke:none"
           id="text116"><tspan
             x="0 10 17 23 33 42 49 54 69 79 88 94 104 109 118 127 137 146 151 156 166 171 181 190 195 204 214 223 231 236 243 252 261 266 275 285 290 299 307 313 322 331 336 345 350 360 366 372 378 387 394 403 412 417 422 430 439 444 449 459 465 470 477 486 492 501 509 514 520 527 537 551 556 565 571 577 582 587 596 605 610 620 625 634 643"
             y="0"
             sodipodi:role="line"
             id="tspan114">driver would have to be constructed using a different set of rules from all the other</tspan></text>
        <text
           xml:space="preserve"
           transform="translate(2784,375)"
           style="font-variant:normal;font-weight:normal;font-size:20px;font-family:'Times New Roman';-inkscape-font-specification:TimesNewRomanPSMT;writing-mode:lr-tb;fill:#000000;fill-opacity:1;fill-rule:nonzero;stroke:none"
           id="text120"><tspan
             x="0 10 17 23 33 42 49 57"
             y="0"
             sodipodi:role="line"
             id="tspan118">drivers.</tspan></text>
        <text
           xml:space="preserve"
           transform="translate(2784,418)"
           style="font-variant:normal;font-weight:normal;font-size:20px;font-family:'Times New Roman';-inkscape-font-specification:TimesNewRomanPSMT;writing-mode:lr-tb;fill:#000000;fill-opacity:1;fill-rule:nonzero;stroke:none"
           id="text124"><tspan
             x="0 12 21 30 35 43 49 63 73 79 88 96 101 106 121 130 139 144 149 159 164 173 182 191 201 215 225 231 237 245 254 259 264 273 279 287 292 301 311 320 326 331 346 356 365 371 381 386 396 405 410 415 425 430 439 449 459 464 473 482"
             y="0"
             sodipodi:role="line"
             id="tspan122">The simplest way to accomplish this goal would be to add an </tspan></text>
        <text
           xml:space="preserve"
           transform="translate(3271,418)"
           style="font-variant:normal;font-weight:normal;font-size:16px;font-family:'Courier New';-inkscape-font-specification:CourierNewPSMT;writing-mode:lr-tb;fill:#000000;fill-opacity:1;fill-rule:nonzero;stroke:none"
           id="text128"><tspan
             x="0 10"
             y="0"
             sodipodi:role="line"
             id="tspan126">if</tspan></text>
        <text
           xml:space="preserve"
           transform="translate(3296,418)"
           style="font-variant:normal;font-weight:normal;font-size:20px;font-family:'Times New Roman';-inkscape-font-specification:TimesNewRomanPSMT;writing-mode:lr-tb;fill:#000000;fill-opacity:1;fill-rule:nonzero;stroke:none"
           id="text132"><tspan
             x="0 8 13 22 27 36 50 59 68 73 78 83 93 98 103 112"
             y="0"
             sodipodi:role="line"
             id="tspan130">statement to the</tspan></text>
        <text
           xml:space="preserve"
           transform="translate(2784,441)"
           style="font-variant:normal;font-weight:normal;font-size:20px;font-family:'Times New Roman';-inkscape-font-specification:TimesNewRomanPSMT;writing-mode:lr-tb;fill:#000000;fill-opacity:1;fill-rule:nonzero;stroke:none"
           id="text136"><tspan
             x="0 14 24 34 43 49 58 63 68 77 86 91 96 105 115 124 132 137 144 153 162 167 176 186 191 196 205 214 219 229 235 243 253 262 267 276 285 290 299 309 323 337 346 355 365"
             y="0"
             sodipodi:role="line"
             id="tspan134">module that constructed the dispatch command:</tspan></text>
        <text
           xml:space="preserve"
           transform="translate(2784,481)"
           style="font-variant:normal;font-weight:bold;font-size:15px;font-family:'Times New Roman';-inkscape-font-specification:TimesNewRomanPS-BoldMT;writing-mode:lr-tb;fill:#0000ee;fill-opacity:1;fill-rule:nonzero;stroke:none"
           id="text140"><tspan
             x="0 11 15 19 26 35 39 47 55 61 69 73 78 86 90 98 102 110 120 124 131 139 147 155 159 163 175 182 190"
             y="0"
             sodipodi:role="line"
             id="tspan138">Click here to view code image</tspan></text>
        <path
           d="m 2784,482.5 h 197 z"
           style="fill:none;stroke:#0000ee;stroke-width:1;stroke-linecap:square;stroke-linejoin:miter;stroke-miterlimit:10;stroke-dasharray:none;stroke-opacity:1"
           id="path142" />
        <text
           xml:space="preserve"
           transform="translate(2785,521)"
           style="font-variant:normal;font-weight:normal;font-size:15px;font-family:'Courier New';-inkscape-font-specification:CourierNewPSMT;writing-mode:lr-tb;fill:#000000;fill-opacity:1;fill-rule:nonzero;stroke:none"
           id="text146"><tspan
             x="0 9 18 27 36 45 54 63 72 81 90 99 108 117 126 135 144 153 162 171 180 189 198 207 216 225 234 243 252 261 270 279 288 297 306 315 324 333 342 351 360 369 378 387 396 405 414 423 432 441 450 459"
             y="0"
             sodipodi:role="line"
             id="tspan144">if (driver.getDispatchUri().startsWith(&quot;acme.com&quot;))…</tspan></text>
        <text
           xml:space="preserve"
           transform="translate(2784,569)"
           style="font-variant:normal;font-weight:normal;font-size:20px;font-family:'Times New Roman';-inkscape-font-specification:TimesNewRomanPSMT;writing-mode:lr-tb;fill:#000000;fill-opacity:1;fill-rule:nonzero;stroke:none"
           id="text150"><tspan
             x="0 13 22 27 32 37 47 53 58 67 77 86 93 101 110 115 120 129 139 144 153 160 169 178 184 189 198 207 212 217 232 242 249 254 263 268 277 283 291 296 306 313 318 327 336 343 348 356 365 371 376 381 396 406 415 421 431 436 445 451 457 467 482 487 495 504 513 522 527 536 541 550 560 569 577 582 589 598 607 612 618 628 637 642 647"
             y="0"
             sodipodi:role="line"
             id="tspan148">But, of course, no architect worth his or her salt would allow such a construction to</tspan></text>
        <text
           xml:space="preserve"
           transform="translate(2784,592)"
           style="font-variant:normal;font-weight:normal;font-size:20px;font-family:'Times New Roman';-inkscape-font-specification:TimesNewRomanPSMT;writing-mode:lr-tb;fill:#000000;fill-opacity:1;fill-rule:nonzero;stroke:none"
           id="text154"><tspan
             x="0 9 18 24 32 37 42 48 57 62 67 76 85 90 98 107 115 120 129 143 148 153 164 173 178 183 189 198 207 212 217 226 235 240 255 265 272 282 287 296 305 314 328 337 346 351 357 366 371 381 386 391 400 409 414 423 433 443 452 457 463 468 476 485 491 497 502 511 518 527 536 541 550 558 563 572 581 586 596 606 616 626 633 638 647 656 662 667"
             y="0"
             sodipodi:role="line"
             id="tspan152">exist in the system. Putting the word “acme” into the code itself creates an opportunity</tspan></text>
        <text
           xml:space="preserve"
           transform="translate(2784,615)"
           style="font-variant:normal;font-weight:normal;font-size:20px;font-family:'Times New Roman';-inkscape-font-specification:TimesNewRomanPSMT;writing-mode:lr-tb;fill:#000000;fill-opacity:1;fill-rule:nonzero;stroke:none"
           id="text158"><tspan
             x="0 6 16 23 28 37 43 49 54 63 69 78 88 96 101 111 117 122 131 141 148 155 161 171 177 186 191 200 209 219 224 238 247 255 260 269 276 282 292 301 309 314 323 330 337 347 354 362 367 372 381 391 396 401 406 416 421 435 444 453 458 464 474 483 488 496 505 514 523 530 536 541 550 555 565 572 581 590 599 608 617 625"
             y="0"
             sodipodi:role="line"
             id="tspan156">for all kinds of horrible and mysterious errors, not to mention security breaches.</tspan></text>
        <text
           xml:space="preserve"
           transform="translate(2784,658)"
           style="font-variant:normal;font-weight:normal;font-size:20px;font-family:'Times New Roman';-inkscape-font-specification:TimesNewRomanPSMT;writing-mode:lr-tb;fill:#000000;fill-opacity:1;fill-rule:nonzero;stroke:none"
           id="text162"><tspan
             x="0 11 21 28 33 42 51 60 74 84 90 99 104 109 124 133 142 147 152 158 164 169 183 192 206 215 220 230 239 248 257 271 280 285 294 304 313 322 327 341 351 358 367 372 380 389 398 407 416 424 432 438 447 453 458 467 476 486 491 501 511 520 529 538 543 548 553 562 571 576 587 596 603 613 619 628 633 643 652 661"
             y="0"
             sodipodi:role="line"
             id="tspan160">For example, what if Acme became even more successful and bought the Purple Taxi</tspan></text>
        <text
           xml:space="preserve"
           transform="translate(2784,681)"
           style="font-variant:normal;font-weight:normal;font-size:20px;font-family:'Times New Roman';-inkscape-font-specification:TimesNewRomanPSMT;writing-mode:lr-tb;fill:#000000;fill-opacity:1;fill-rule:nonzero;stroke:none"
           id="text166"><tspan
             x="0 9 19 33 43 52 61 69 74 79 97 106 115 120 125 131 137 142 147 156 165 170 184 193 200 209 218 228 233 242 252 266 276 285 294 303 308 322 331 337 346 351 360 366 375 384 394 399 404 413 422 427 435 444 454 463 470 479 484 493"
             y="0"
             sodipodi:role="line"
             id="tspan164">company. What if the merged company maintained the separate </tspan></text>
        <text
           xml:space="preserve"
           transform="translate(3282,681)"
           style="font-variant:normal;font-weight:normal;font-size:20px;font-family:'Times New Roman';-inkscape-font-specification:TimesNewRomanPSMT;writing-mode:lr-tb;fill:#000000;fill-opacity:1;fill-rule:nonzero;stroke:none"
           id="text170"><tspan
             x="0 10 17 26 35 45 53 58 67 76 86 91 96 105 114 119 127 136 146 155 162 171 176"
             y="0"
             sodipodi:role="line"
             id="tspan168">brands and the separate</tspan></text>
        <text
           xml:space="preserve"
           transform="translate(2784,704)"
           style="font-variant:normal;font-weight:normal;font-size:20px;font-family:'Times New Roman';-inkscape-font-specification:TimesNewRomanPSMT;writing-mode:lr-tb;fill:#000000;fill-opacity:1;fill-rule:nonzero;stroke:none"
           id="text174"><tspan
             x="0 15 24 34 42 48 53 62 70 75 80 90 99 104 109 118 127 133 139 145 154 164 169 178 184 190 195 205 211 216 221 230 239 244 254 261 267 276 282 291 300 306 311 320 330 344 354 363 372 378 387 395 400 405 413 422 430 435 444 458 466 475 480 496 506 515 521 531 536 551 560 565 574 583 593 602 607 612 622 627 636 646"
             y="0"
             sodipodi:role="line"
             id="tspan172">websites, but unified all of the original companies’ systems? Would we have to add</tspan></text>
        <text
           xml:space="preserve"
           transform="translate(2784,727)"
           style="font-variant:normal;font-weight:normal;font-size:20px;font-family:'Times New Roman';-inkscape-font-specification:TimesNewRomanPSMT;writing-mode:lr-tb;fill:#000000;fill-opacity:1;fill-rule:nonzero;stroke:none"
           id="text178"><tspan
             x="0 9 18 28 33 42 51 58 63 69 75 80 88 93 102 107 116 130 139 148 153 158 164 174 181 186 195 205 214 221 231 237 246 255"
             y="0"
             sodipodi:role="line"
             id="tspan176">another if statement for “purple”?</tspan></text>
        <text
           xml:space="preserve"
           transform="translate(2784,770)"
           style="font-variant:normal;font-weight:normal;font-size:20px;font-family:'Times New Roman';-inkscape-font-specification:TimesNewRomanPSMT;writing-mode:lr-tb;fill:#000000;fill-opacity:1;fill-rule:nonzero;stroke:none"
           id="text182"><tspan
             x="0 14 23 30 35 44 51 60 69 75 80 89 98 103 108 123 133 142 148 158 163 172 181 191 200 205 210 220 225 231 240 248 257 263 272 277 286 291 296 305 314 319 327 336 344 349 358 372 377 383 390 400 414 419 429 438 447 455 460 466 472 481 490 495 500 509 515 523 528 538 547 552 561 568 577 586 591 597 606 615 620 628 638 652"
             y="0"
             sodipodi:role="line"
             id="tspan180">Our architect would have to insulate the system from bugs like this by creating some</tspan></text>
        <text
           xml:space="preserve"
           transform="translate(2784,793)"
           style="font-variant:normal;font-weight:normal;font-size:20px;font-family:'Times New Roman';-inkscape-font-specification:TimesNewRomanPSMT;writing-mode:lr-tb;fill:#000000;fill-opacity:1;fill-rule:nonzero;stroke:none"
           id="text186"><tspan
             x="0 9 15 24 34 39 49 55 60 70 76 84 94 103 108 117 126 131 140 150 164 178 187 196 206 211 220 227 236 245 250 256 266 275 280 294 304 314 323 329 338 343 348 357 366 371 376 391 400 408 413 423 430 436 446 455 464 469 479 488 493 502 507 516 526 535 541 547 556 565 572 581 586 592 602 611 616 626 635 640 649 659 668 676"
             y="0"
             sodipodi:role="line"
             id="tspan184">kind of dispatch command creation module that was driven by a configuration database</tspan></text>
        <text
           xml:space="preserve"
           transform="translate(2784,816)"
           style="font-variant:normal;font-weight:normal;font-size:20px;font-family:'Times New Roman';-inkscape-font-specification:TimesNewRomanPSMT;writing-mode:lr-tb;fill:#000000;fill-opacity:1;fill-rule:nonzero;stroke:none"
           id="text190"><tspan
             x="0 9 18 27 36 46 51 61 70 75 80 89 98 103 113 119 127 137 146 151 160 169 174 187 200 206 211 216 228 237 246 251 260 270 279 285 291 300 309 316 325 330 336 346 355 360 370 379 384 393 398 412 418 427 436 441 446 452 462 472 481 486 494 504 518 527 532 541 547 556 565 570 576 582 591 600 605 610 619 625 633"
             y="0"
             sodipodi:role="line"
             id="tspan188">keyed by the dispatch URI. The configuration data might look something like this:</tspan></text>
        <text
           xml:space="preserve"
           transform="translate(2784,856)"
           style="font-variant:normal;font-weight:bold;font-size:15px;font-family:'Times New Roman';-inkscape-font-specification:TimesNewRomanPS-BoldMT;writing-mode:lr-tb;fill:#0000ee;fill-opacity:1;fill-rule:nonzero;stroke:none"
           id="text194"><tspan
             x="0 11 15 19 26 35 39 47 55 61 69 73 78 86 90 98 102 110 120 124 131 139 147 155 159 163 175 182 190"
             y="0"
             sodipodi:role="line"
             id="tspan192">Click here to view code image</tspan></text>
        <path
           d="m 2784,857.5 h 197 z"
           style="fill:none;stroke:#0000ee;stroke-width:1;stroke-linecap:square;stroke-linejoin:miter;stroke-miterlimit:10;stroke-dasharray:none;stroke-opacity:1"
           id="path196" />
        <text
           xml:space="preserve"
           transform="translate(2788,882)"
           style="font-variant:normal;font-weight:bold;font-size:20px;font-family:'Courier New';-inkscape-font-specification:CourierNewPS-BoldMT;writing-mode:lr-tb;fill:#000000;fill-opacity:1;fill-rule:nonzero;stroke:none"
           id="text200"><tspan
             x="0 12 24"
             y="0"
             sodipodi:role="line"
             id="tspan198">URI</tspan></text>
        <text
           xml:space="preserve"
           transform="translate(2913,882)"
           style="font-variant:normal;font-weight:bold;font-size:20px;font-family:'Courier New';-inkscape-font-specification:CourierNewPS-BoldMT;writing-mode:lr-tb;fill:#000000;fill-opacity:1;fill-rule:nonzero;stroke:none"
           id="text204"><tspan
             x="0 12 24 36 48 60 72 84 96 108 120 132 144 156 168"
             y="0"
             sodipodi:role="line"
             id="tspan202">Dispatch Format</tspan></text>
        <text
           xml:space="preserve"
           transform="translate(2788,908)"
           style="font-variant:normal;font-weight:normal;font-size:16px;font-family:'Courier New';-inkscape-font-specification:CourierNewPSMT;writing-mode:lr-tb;fill:#0000ee;fill-opacity:1;fill-rule:nonzero;stroke:none"
           id="text208"><tspan
             x="0 10 20 30 40 50 60 70"
             y="0"
             sodipodi:role="line"
             id="tspan206">Acme.com</tspan></text>
        <path
           d="m 2788,909.5 h 79 z"
           style="fill:none;stroke:#0000ee;stroke-width:1;stroke-linecap:square;stroke-linejoin:miter;stroke-miterlimit:10;stroke-dasharray:none;stroke-opacity:1"
           id="path210" />
        <text
           xml:space="preserve"
           transform="translate(2913,908)"
           style="font-variant:normal;font-weight:normal;font-size:16px;font-family:'Courier New';-inkscape-font-specification:CourierNewPSMT;writing-mode:lr-tb;fill:#000000;fill-opacity:1;fill-rule:nonzero;stroke:none"
           id="text214"><tspan
             x="0 10 20 30 40 50 60 70 80 90 100 110 120 130 140 150 160 170 180 190 200 210 220 230 240 250 260 270 280 290 300 310 320 330 340 350 360 370 380"
             y="0"
             sodipodi:role="line"
             id="tspan212">/pickupAddress/%s/pickupTime/%s/dest/%s</tspan></text>
        <text
           xml:space="preserve"
           transform="translate(2788,930)"
           style="font-variant:normal;font-weight:normal;font-size:16px;font-family:'Courier New';-inkscape-font-specification:CourierNewPSMT;writing-mode:lr-tb;fill:#000000;fill-opacity:1;fill-rule:nonzero;stroke:none"
           id="text218"><tspan
             x="0 10 20 30"
             y="0"
             sodipodi:role="line"
             id="tspan216">*.* </tspan></text>
        <text
           xml:space="preserve"
           transform="translate(2913,930)"
           style="font-variant:normal;font-weight:normal;font-size:16px;font-family:'Courier New';-inkscape-font-specification:CourierNewPSMT;writing-mode:lr-tb;fill:#000000;fill-opacity:1;fill-rule:nonzero;stroke:none"
           id="text222"><tspan
             x="0 10 20 30 40 50 60 70 80 90 100 110 120 130 140 150 160 170 180 190 200 210 220 230 240 250 260 270 280 290 300 310 320 330 340 350 360 370 380 390 400 410 420 430 440 450"
             y="0"
             sodipodi:role="line"
             id="tspan220">/pickupAddress/%s/pickupTime/%s/destination/%s</tspan></text>
        <text
           xml:space="preserve"
           transform="translate(2784,982)"
           style="font-variant:normal;font-weight:normal;font-size:20px;font-family:'Times New Roman';-inkscape-font-specification:TimesNewRomanPSMT;writing-mode:lr-tb;fill:#000000;fill-opacity:1;fill-rule:nonzero;stroke:none"
           id="text226"><tspan
             x="0 14 23 33 38 46 56 61 71 80 87 92 101 108 117 126 132 137 146 155 160 165 174 183 191 196 205 214 224 229 234 244 249 258 268 278 283 292 297 305 311 320 329 335 341 347 356 365 374 379 384 393 402 412 417 426 436 450 460 466 475 484 489 503 512 521 530 539 548 554 562 576 581 586 596 601 611 620 629 635 640 655 661 666"
             y="0"
             sodipodi:role="line"
             id="tspan224">And so our architect has had to add a significant and complex mechanism to deal with</tspan></text>
      </g>
    </g>
  </g>
</svg>
