<?xml version="1.0" encoding="UTF-8" standalone="no"?>
<!-- Created with Inkscape (http://www.inkscape.org/) -->

<svg
   version="1.1"
   id="svg2"
   width="816"
   height="1056"
   viewBox="0 0 816 1056"
   sodipodi:docname="clean_arch.pdf"
   xmlns:inkscape="http://www.inkscape.org/namespaces/inkscape"
   xmlns:sodipodi="http://sodipodi.sourceforge.net/DTD/sodipodi-0.dtd"
   xmlns="http://www.w3.org/2000/svg"
   xmlns:svg="http://www.w3.org/2000/svg">
  <defs
     id="defs6">
    <clipPath
       clipPathUnits="userSpaceOnUse"
       id="clipPath18">
      <path
         d="M 0,0 H 696 V 1056 H 0 V 0"
         clip-rule="evenodd"
         id="path16" />
    </clipPath>
    <clipPath
       clipPathUnits="userSpaceOnUse"
       id="clipPath28">
      <path
         d="M 0,66 H 696 V 996 H 0 V 66"
         clip-rule="evenodd"
         id="path26" />
    </clipPath>
    <clipPath
       clipPathUnits="userSpaceOnUse"
       id="clipPath44">
      <path
         d="M 0,66 H 696 V 996 H 0 V 66"
         clip-rule="evenodd"
         id="path42" />
    </clipPath>
  </defs>
  <sodipodi:namedview
     id="namedview4"
     pagecolor="#ffffff"
     bordercolor="#000000"
     borderopacity="0.25"
     inkscape:showpageshadow="2"
     inkscape:pageopacity="0.0"
     inkscape:pagecheckerboard="0"
     inkscape:deskcolor="#d1d1d1" />
  <g
     id="g8"
     inkscape:groupmode="layer"
     inkscape:label="clean_arch"
     transform="translate(59.999999,2.64e-5)">
    <g
       id="g10" />
    <g
       id="g12">
      <g
         id="g14"
         clip-path="url(#clipPath18)">
        <g
           id="g20" />
      </g>
    </g>
    <g
       id="g22">
      <g
         id="g24"
         clip-path="url(#clipPath28)">
        <g
           id="g30">
          <path
             d="m 0,66 h 696 v 3 H 0 Z"
             style="fill:#a7a9ac;fill-opacity:1;fill-rule:nonzero;stroke:none"
             id="path32" />
        </g>
        <g
           id="g34">
          <path
             d="m 0,186 h 696 v 3 H 0 Z"
             style="fill:#a7a9ac;fill-opacity:1;fill-rule:nonzero;stroke:none"
             id="path36" />
        </g>
      </g>
    </g>
    <g
       id="g38">
      <g
         id="g40"
         clip-path="url(#clipPath44)">
        <text
           xml:space="preserve"
           transform="translate(255.5,140.6562)"
           style="font-variant:normal;font-weight:bold;font-size:37px;font-family:'Times New Roman';-inkscape-font-specification:TimesNewRomanPS-BoldMT;writing-mode:lr-tb;fill:#000000;fill-opacity:1;fill-rule:nonzero;stroke:none"
           id="text48"><tspan
             x="0"
             y="0"
             id="tspan46">C</tspan></text>
        <text
           xml:space="preserve"
           transform="translate(282.5,140.6562)"
           style="font-variant:normal;font-weight:bold;font-size:33px;font-family:'Times New Roman';-inkscape-font-specification:TimesNewRomanPS-BoldMT;writing-mode:lr-tb;fill:#000000;fill-opacity:1;fill-rule:nonzero;stroke:none"
           id="text52"><tspan
             x="0 26 50 72 94 118 140"
             y="0"
             sodipodi:role="line"
             id="tspan50">ONTENTS</tspan></text>
        <text
           xml:space="preserve"
           transform="translate(0,281)"
           style="font-variant:normal;font-weight:bold;font-size:20px;font-family:'Times New Roman';-inkscape-font-specification:TimesNewRomanPS-BoldMT;writing-mode:lr-tb;fill:#0000ee;fill-opacity:1;fill-rule:nonzero;stroke:none"
           id="text56"><tspan
             x="0 11 21 29 39 53 63 71"
             y="0"
             sodipodi:role="line"
             id="tspan54">Foreword</tspan></text>
        <path
           d="M 0,282.5 H 80 Z"
           style="fill:none;stroke:#0000ee;stroke-width:1;stroke-linecap:square;stroke-linejoin:miter;stroke-miterlimit:10;stroke-dasharray:none;stroke-opacity:1"
           id="path58" />
        <text
           xml:space="preserve"
           transform="translate(0,309)"
           style="font-variant:normal;font-weight:bold;font-size:20px;font-family:'Times New Roman';-inkscape-font-specification:TimesNewRomanPS-BoldMT;writing-mode:lr-tb;fill:#0000ee;fill-opacity:1;fill-rule:nonzero;stroke:none"
           id="text62"><tspan
             x="0 12 20 30 37 47 56"
             y="0"
             sodipodi:role="line"
             id="tspan60">Preface</tspan></text>
        <path
           d="M 0,310.5 H 65 Z"
           style="fill:none;stroke:#0000ee;stroke-width:1;stroke-linecap:square;stroke-linejoin:miter;stroke-miterlimit:10;stroke-dasharray:none;stroke-opacity:1"
           id="path64" />
        <text
           xml:space="preserve"
           transform="translate(0,337)"
           style="font-variant:normal;font-weight:bold;font-size:20px;font-family:'Times New Roman';-inkscape-font-specification:TimesNewRomanPS-BoldMT;writing-mode:lr-tb;fill:#0000ee;fill-opacity:1;fill-rule:nonzero;stroke:none"
           id="text68"><tspan
             x="0 14 23 34 44 54 68 73 83 93 103 118 128 138 145"
             y="0"
             sodipodi:role="line"
             id="tspan66">Acknowledgments</tspan></text>
        <path
           d="M 0,338.5 H 152 Z"
           style="fill:none;stroke:#0000ee;stroke-width:1;stroke-linecap:square;stroke-linejoin:miter;stroke-miterlimit:10;stroke-dasharray:none;stroke-opacity:1"
           id="path70" />
        <text
           xml:space="preserve"
           transform="translate(0,365)"
           style="font-variant:normal;font-weight:bold;font-size:20px;font-family:'Times New Roman';-inkscape-font-specification:TimesNewRomanPS-BoldMT;writing-mode:lr-tb;fill:#0000ee;fill-opacity:1;fill-rule:nonzero;stroke:none"
           id="text74"><tspan
             x="0 14 24 34 44 51 56 63 73 83 88 102 112 119 129 139"
             y="0"
             sodipodi:role="line"
             id="tspan72">About the Author</tspan></text>
        <path
           d="M 0,366.5 H 146 Z"
           style="fill:none;stroke:#0000ee;stroke-width:1;stroke-linecap:square;stroke-linejoin:miter;stroke-miterlimit:10;stroke-dasharray:none;stroke-opacity:1"
           id="path76" />
        <text
           xml:space="preserve"
           transform="translate(0,413)"
           style="font-variant:normal;font-weight:bold;font-size:20px;font-family:'Times New Roman';-inkscape-font-specification:TimesNewRomanPS-BoldMT;writing-mode:lr-tb;fill:#0000ee;fill-opacity:1;fill-rule:nonzero;stroke:none"
           id="text80"><tspan
             x="0 10 24 37 50 55 62 107 114 124 131 139 149 159 169 178 185 190 200"
             y="0"
             sodipodi:role="line"
             id="tspan78">PART I Introduction</tspan></text>
        <path
           d="M 0,414.5 H 209 Z"
           style="fill:none;stroke:#0000ee;stroke-width:1;stroke-linecap:square;stroke-linejoin:miter;stroke-miterlimit:10;stroke-dasharray:none;stroke-opacity:1"
           id="path82" />
        <text
           xml:space="preserve"
           transform="translate(0,461)"
           style="font-variant:normal;font-weight:bold;font-size:20px;font-family:'Times New Roman';-inkscape-font-specification:TimesNewRomanPS-BoldMT;writing-mode:lr-tb;fill:#0000ee;fill-opacity:1;fill-rule:nonzero;stroke:none"
           id="text86"><tspan
             x="0 14 24 34 44 51 61 69 74 84 109 128 138 148 155 160 167 175 180 194 204 212 217 227 237 242 252 262 272 277 291 299 308 318 323 330 340 349 356 366 374 384"
             y="0"
             sodipodi:role="line"
             id="tspan84">Chapter 1 What Is Design and Architecture?</tspan></text>
        <path
           d="M 0,462.5 H 393 Z"
           style="fill:none;stroke:#0000ee;stroke-width:1;stroke-linecap:square;stroke-linejoin:miter;stroke-miterlimit:10;stroke-dasharray:none;stroke-opacity:1"
           id="path88" />
        <text
           xml:space="preserve"
           transform="translate(108,488)"
           style="font-variant:normal;font-weight:normal;font-size:20px;font-family:'Times New Roman';-inkscape-font-specification:TimesNewRomanPSMT;writing-mode:lr-tb;fill:#0000ee;fill-opacity:1;fill-rule:nonzero;stroke:none"
           id="text92"><tspan
             x="0 12 21 30 35 49 59 68 74"
             y="0"
             sodipodi:role="line"
             id="tspan90">The Goal?</tspan></text>
        <path
           d="m 108,489.5 h 82 z"
           style="fill:none;stroke:#0000ee;stroke-width:1;stroke-linecap:square;stroke-linejoin:miter;stroke-miterlimit:10;stroke-dasharray:none;stroke-opacity:1"
           id="path94" />
        <text
           xml:space="preserve"
           transform="translate(108,511)"
           style="font-variant:normal;font-weight:normal;font-size:20px;font-family:'Times New Roman';-inkscape-font-specification:TimesNewRomanPSMT;writing-mode:lr-tb;fill:#0000ee;fill-opacity:1;fill-rule:nonzero;stroke:none"
           id="text98"><tspan
             x="0 13 22 30 39 44 55 60 69 79"
             y="0"
             sodipodi:role="line"
             id="tspan96">Case Study</tspan></text>
        <path
           d="m 108,512.5 h 87 z"
           style="fill:none;stroke:#0000ee;stroke-width:1;stroke-linecap:square;stroke-linejoin:miter;stroke-miterlimit:10;stroke-dasharray:none;stroke-opacity:1"
           id="path100" />
        <text
           xml:space="preserve"
           transform="translate(108,534)"
           style="font-variant:normal;font-weight:normal;font-size:20px;font-family:'Times New Roman';-inkscape-font-specification:TimesNewRomanPSMT;writing-mode:lr-tb;fill:#0000ee;fill-opacity:1;fill-rule:nonzero;stroke:none"
           id="text104"><tspan
             x="0 13 23 32 41 47 56 64 70 80"
             y="0"
             sodipodi:role="line"
             id="tspan102">Conclusion</tspan></text>
        <path
           d="m 108,535.5 h 88 z"
           style="fill:none;stroke:#0000ee;stroke-width:1;stroke-linecap:square;stroke-linejoin:miter;stroke-miterlimit:10;stroke-dasharray:none;stroke-opacity:1"
           id="path106" />
        <text
           xml:space="preserve"
           transform="translate(0,582)"
           style="font-variant:normal;font-weight:bold;font-size:20px;font-family:'Times New Roman';-inkscape-font-specification:TimesNewRomanPS-BoldMT;writing-mode:lr-tb;fill:#0000ee;fill-opacity:1;fill-rule:nonzero;stroke:none"
           id="text110"><tspan
             x="0 14 24 34 44 51 61 69 74 84 109 122 127 138 148 153 163 168 178 185 190 201 215 225 230 242 252 257 267 277"
             y="0"
             sodipodi:role="line"
             id="tspan108">Chapter 2 A Tale of Two Values</tspan></text>
        <path
           d="M 0,583.5 H 284 Z"
           style="fill:none;stroke:#0000ee;stroke-width:1;stroke-linecap:square;stroke-linejoin:miter;stroke-miterlimit:10;stroke-dasharray:none;stroke-opacity:1"
           id="path112" />
        <text
           xml:space="preserve"
           transform="translate(108,609)"
           style="font-variant:normal;font-weight:normal;font-size:20px;font-family:'Times New Roman';-inkscape-font-specification:TimesNewRomanPSMT;writing-mode:lr-tb;fill:#0000ee;fill-opacity:1;fill-rule:nonzero;stroke:none"
           id="text116"><tspan
             x="0 13 22 31 40 50 56 66"
             y="0"
             sodipodi:role="line"
             id="tspan114">Behavior</tspan></text>
        <path
           d="m 108,610.5 h 72 z"
           style="fill:none;stroke:#0000ee;stroke-width:1;stroke-linecap:square;stroke-linejoin:miter;stroke-miterlimit:10;stroke-dasharray:none;stroke-opacity:1"
           id="path118" />
        <text
           xml:space="preserve"
           transform="translate(108,632)"
           style="font-variant:normal;font-weight:normal;font-size:20px;font-family:'Times New Roman';-inkscape-font-specification:TimesNewRomanPSMT;writing-mode:lr-tb;fill:#0000ee;fill-opacity:1;fill-rule:nonzero;stroke:none"
           id="text122"><tspan
             x="0 14 21 30 39 45 50 59 68 73 82 89"
             y="0"
             sodipodi:role="line"
             id="tspan120">Architecture</tspan></text>
        <path
           d="m 108,633.5 h 97 z"
           style="fill:none;stroke:#0000ee;stroke-width:1;stroke-linecap:square;stroke-linejoin:miter;stroke-miterlimit:10;stroke-dasharray:none;stroke-opacity:1"
           id="path124" />
        <text
           xml:space="preserve"
           transform="translate(108,655)"
           style="font-variant:normal;font-weight:normal;font-size:20px;font-family:'Times New Roman';-inkscape-font-specification:TimesNewRomanPSMT;writing-mode:lr-tb;fill:#0000ee;fill-opacity:1;fill-rule:nonzero;stroke:none"
           id="text128"><tspan
             x="0 12 21 30 35 49 56 65 74 79 88 95 100 111 120 126 135"
             y="0"
             sodipodi:role="line"
             id="tspan126">The Greater Value</tspan></text>
        <path
           d="M 108,656.5 H 251 Z"
           style="fill:none;stroke:#0000ee;stroke-width:1;stroke-linecap:square;stroke-linejoin:miter;stroke-miterlimit:10;stroke-dasharray:none;stroke-opacity:1"
           id="path130" />
        <text
           xml:space="preserve"
           transform="translate(108,679)"
           style="font-variant:normal;font-weight:normal;font-size:20px;font-family:'Times New Roman';-inkscape-font-specification:TimesNewRomanPSMT;writing-mode:lr-tb;fill:#0000ee;fill-opacity:1;fill-rule:nonzero;stroke:none"
           id="text134"><tspan
             x="0 12 18 26 35 44 53 63 78 87 95 101 109 114 131 140 145 152 158"
             y="0"
             sodipodi:role="line"
             id="tspan132">Eisenhower’s Matrix</tspan></text>
        <path
           d="M 108,680.5 H 274 Z"
           style="fill:none;stroke:#0000ee;stroke-width:1;stroke-linecap:square;stroke-linejoin:miter;stroke-miterlimit:10;stroke-dasharray:none;stroke-opacity:1"
           id="path136" />
        <text
           xml:space="preserve"
           transform="translate(108,702)"
           style="font-variant:normal;font-weight:normal;font-size:20px;font-family:'Times New Roman';-inkscape-font-specification:TimesNewRomanPSMT;writing-mode:lr-tb;fill:#0000ee;fill-opacity:1;fill-rule:nonzero;stroke:none"
           id="text140"><tspan
             x="0 11 17 26 35 40 45 51 61 68 73 78 87 96 101 115 122 131 140 146 151 160 169 174 183 190"
             y="0"
             sodipodi:role="line"
             id="tspan138">Fight for the Architecture</tspan></text>
        <path
           d="M 108,703.5 H 306 Z"
           style="fill:none;stroke:#0000ee;stroke-width:1;stroke-linecap:square;stroke-linejoin:miter;stroke-miterlimit:10;stroke-dasharray:none;stroke-opacity:1"
           id="path142" />
        <text
           xml:space="preserve"
           transform="translate(0,750)"
           style="font-variant:normal;font-weight:bold;font-size:20px;font-family:'Times New Roman';-inkscape-font-specification:TimesNewRomanPS-BoldMT;writing-mode:lr-tb;fill:#0000ee;fill-opacity:1;fill-rule:nonzero;stroke:none"
           id="text146"><tspan
             x="0 10 24 37 50 55 62 69 104 115 122 132 140 147 152 162 172 177 191 196 203 213 218 225 235 245 250 263 271 276 285 296 304 311 316 328 336 346 356 364 374 389 404 409 419 429 434 446 456 464 474 484 489 499 514"
             y="0"
             sodipodi:role="line"
             id="tspan144">PART II Starting with the Bricks: Programming Paradigms</tspan></text>
        <path
           d="M 0,751.5 H 521 Z"
           style="fill:none;stroke:#0000ee;stroke-width:1;stroke-linecap:square;stroke-linejoin:miter;stroke-miterlimit:10;stroke-dasharray:none;stroke-opacity:1"
           id="path148" />
        <text
           xml:space="preserve"
           transform="translate(0,798)"
           style="font-variant:normal;font-weight:bold;font-size:20px;font-family:'Times New Roman';-inkscape-font-specification:TimesNewRomanPS-BoldMT;writing-mode:lr-tb;fill:#0000ee;fill-opacity:1;fill-rule:nonzero;stroke:none"
           id="text152"><tspan
             x="0 14 24 34 44 51 61 69 74 84 109 121 131 139 149 159 164 174 189 194 210 220 230 238 248 253 263"
             y="0"
             sodipodi:role="line"
             id="tspan150">Chapter 3 Paradigm Overview</tspan></text>
        <path
           d="M 0,799.5 H 276 Z"
           style="fill:none;stroke:#0000ee;stroke-width:1;stroke-linecap:square;stroke-linejoin:miter;stroke-miterlimit:10;stroke-dasharray:none;stroke-opacity:1"
           id="path154" />
        <text
           xml:space="preserve"
           transform="translate(108,825)"
           style="font-variant:normal;font-weight:normal;font-size:20px;font-family:'Times New Roman';-inkscape-font-specification:TimesNewRomanPSMT;writing-mode:lr-tb;fill:#0000ee;fill-opacity:1;fill-rule:nonzero;stroke:none"
           id="text158"><tspan
             x="0 11 16 23 32 41 46 55 62 71 81 86 97 104 114 123 130 139 153 167 173 182"
             y="0"
             sodipodi:role="line"
             id="tspan156">Structured Programming</tspan></text>
        <path
           d="M 108,826.5 H 298 Z"
           style="fill:none;stroke:#0000ee;stroke-width:1;stroke-linecap:square;stroke-linejoin:miter;stroke-miterlimit:10;stroke-dasharray:none;stroke-opacity:1"
           id="path160" />
        <text
           xml:space="preserve"
           transform="translate(108,848)"
           style="font-variant:normal;font-weight:normal;font-size:20px;font-family:'Times New Roman';-inkscape-font-specification:TimesNewRomanPSMT;writing-mode:lr-tb;fill:#0000ee;fill-opacity:1;fill-rule:nonzero;stroke:none"
           id="text164"><tspan
             x="0 14 24 30 39 48 53 60 74 81 87 96 105 110 119 129 134 145 152 162 171 178 187 201 215 221 230"
             y="0"
             sodipodi:role="line"
             id="tspan162">Object-Oriented Programming</tspan></text>
        <path
           d="M 108,849.5 H 346 Z"
           style="fill:none;stroke:#0000ee;stroke-width:1;stroke-linecap:square;stroke-linejoin:miter;stroke-miterlimit:10;stroke-dasharray:none;stroke-opacity:1"
           id="path166" />
        <text
           xml:space="preserve"
           transform="translate(108,871)"
           style="font-variant:normal;font-weight:normal;font-size:20px;font-family:'Times New Roman';-inkscape-font-specification:TimesNewRomanPSMT;writing-mode:lr-tb;fill:#0000ee;fill-opacity:1;fill-rule:nonzero;stroke:none"
           id="text170"><tspan
             x="0 11 20 29 38 43 49 59 68 77 83 88 99 106 116 125 132 141 155 169 175 184"
             y="0"
             sodipodi:role="line"
             id="tspan168">Functional Programming</tspan></text>
        <path
           d="M 108,872.5 H 300 Z"
           style="fill:none;stroke:#0000ee;stroke-width:1;stroke-linecap:square;stroke-linejoin:miter;stroke-miterlimit:10;stroke-dasharray:none;stroke-opacity:1"
           id="path172" />
        <text
           xml:space="preserve"
           transform="translate(108,894)"
           style="font-variant:normal;font-weight:normal;font-size:20px;font-family:'Times New Roman';-inkscape-font-specification:TimesNewRomanPSMT;writing-mode:lr-tb;fill:#0000ee;fill-opacity:1;fill-rule:nonzero;stroke:none"
           id="text176"><tspan
             x="0 11 21 31 41 46 52 62 69 74 86 95 105 114 123 132"
             y="0"
             sodipodi:role="line"
             id="tspan174">Food for Thought</tspan></text>
        <path
           d="M 108,895.5 H 244 Z"
           style="fill:none;stroke:#0000ee;stroke-width:1;stroke-linecap:square;stroke-linejoin:miter;stroke-miterlimit:10;stroke-dasharray:none;stroke-opacity:1"
           id="path178" />
        <text
           xml:space="preserve"
           transform="translate(108,918)"
           style="font-variant:normal;font-weight:normal;font-size:20px;font-family:'Times New Roman';-inkscape-font-specification:TimesNewRomanPSMT;writing-mode:lr-tb;fill:#0000ee;fill-opacity:1;fill-rule:nonzero;stroke:none"
           id="text182"><tspan
             x="0 13 23 32 41 47 56 64 70 80"
             y="0"
             sodipodi:role="line"
             id="tspan180">Conclusion</tspan></text>
        <path
           d="m 108,919.5 h 88 z"
           style="fill:none;stroke:#0000ee;stroke-width:1;stroke-linecap:square;stroke-linejoin:miter;stroke-miterlimit:10;stroke-dasharray:none;stroke-opacity:1"
           id="path184" />
        <text
           xml:space="preserve"
           transform="translate(0,966)"
           style="font-variant:normal;font-weight:bold;font-size:20px;font-family:'Times New Roman';-inkscape-font-specification:TimesNewRomanPS-BoldMT;writing-mode:lr-tb;fill:#0000ee;fill-opacity:1;fill-rule:nonzero;stroke:none"
           id="text188"><tspan
             x="0 14 24 34 44 51 61 69 74 84 109 120 127 135 145 154 161 171 179 189 199 204 216 224 234 244 252 262 277 292 297 307"
             y="0"
             sodipodi:role="line"
             id="tspan186">Chapter 4 Structured Programming</tspan></text>
        <path
           d="M 0,967.5 H 316 Z"
           style="fill:none;stroke:#0000ee;stroke-width:1;stroke-linecap:square;stroke-linejoin:miter;stroke-miterlimit:10;stroke-dasharray:none;stroke-opacity:1"
           id="path190" />
      </g>
    </g>
  </g>
</svg>
