<?xml version="1.0" encoding="UTF-8" standalone="no"?>
<!-- Created with Inkscape (http://www.inkscape.org/) -->

<svg
   version="1.1"
   id="svg2"
   width="816"
   height="1056"
   viewBox="0 0 816 1056"
   sodipodi:docname="clean_arch.pdf"
   xmlns:inkscape="http://www.inkscape.org/namespaces/inkscape"
   xmlns:sodipodi="http://sodipodi.sourceforge.net/DTD/sodipodi-0.dtd"
   xmlns="http://www.w3.org/2000/svg"
   xmlns:svg="http://www.w3.org/2000/svg">
  <defs
     id="defs6">
    <clipPath
       clipPathUnits="userSpaceOnUse"
       id="clipPath18">
      <path
         d="m 696,0 h 696 V 1056 H 696 V 0"
         clip-rule="evenodd"
         id="path16" />
    </clipPath>
    <clipPath
       clipPathUnits="userSpaceOnUse"
       id="clipPath28">
      <path
         d="m 696,66 h 696 V 996 H 696 V 66"
         clip-rule="evenodd"
         id="path26" />
    </clipPath>
  </defs>
  <sodipodi:namedview
     id="namedview4"
     pagecolor="#ffffff"
     bordercolor="#000000"
     borderopacity="0.25"
     inkscape:showpageshadow="2"
     inkscape:pageopacity="0.0"
     inkscape:pagecheckerboard="0"
     inkscape:deskcolor="#d1d1d1" />
  <g
     id="g8"
     inkscape:groupmode="layer"
     inkscape:label="clean_arch"
     transform="translate(59.999999,2.64e-5)">
    <g
       id="g10" />
    <g
       id="g12"
       transform="translate(-696)">
      <g
         id="g14"
         clip-path="url(#clipPath18)">
        <g
           id="g20" />
      </g>
    </g>
    <g
       id="g22"
       transform="translate(-696)">
      <g
         id="g24"
         clip-path="url(#clipPath28)">
        <text
           xml:space="preserve"
           transform="translate(720,79)"
           style="font-variant:normal;font-weight:normal;font-size:15px;font-family:'Times New Roman';-inkscape-font-specification:TimesNewRomanPSMT;writing-mode:lr-tb;fill:#000000;fill-opacity:1;fill-rule:nonzero;stroke:none"
           id="text32"><tspan
             x="0 11 14 18 25 32 39 46 53 57 63 70 75 79 90 97 102 109 113 120 127 134 140 144 151 158 162 166 177 184 191 196 200 207 214 218 221 225 228 232 236 243 250 257 261 268 275 279 286 293 299 303 308 315 322 329 336 340 345 350 357 368 372 383 386 390 397 400 407 411 418 425 429 436 443 454 461 468 475 482 489 496 500 507 514 521 528 535 542 549 556 563 566 573 579 583 590"
             y="0"
             sodipodi:role="line"
             id="tspan30">Although software does not wear out, it can be destroyed from within by unmanaged dependencies on</tspan></text>
        <text
           xml:space="preserve"
           transform="translate(720,97)"
           style="font-variant:normal;font-weight:normal;font-size:15px;font-family:'Times New Roman';-inkscape-font-specification:TimesNewRomanPSMT;writing-mode:lr-tb;fill:#000000;fill-opacity:1;fill-rule:nonzero;stroke:none"
           id="text36"><tspan
             x="0 5 8 13 24 35 42 47 54 58 65 72 79 83 90 97 102 109 120 127 132 139"
             y="0"
             sodipodi:role="line"
             id="tspan34">firmware and hardware.</tspan></text>
        <text
           xml:space="preserve"
           transform="translate(696,139)"
           style="font-variant:normal;font-weight:normal;font-size:20px;font-family:'Times New Roman';-inkscape-font-specification:TimesNewRomanPSMT;writing-mode:lr-tb;fill:#000000;fill-opacity:1;fill-rule:nonzero;stroke:none"
           id="text40"><tspan
             x="0 6 11 16 22 30 35 44 54 59 64 73 82 91 101 115 129 139 148 153 159 169 176 181 190 204 214 223 233 243 252 262 267 275 285 291 296 311 320 327 336 341 346 356 361 371 380 385 395 404 413 419 428 438 443 452 457 467 477 482 491 500 505 511 520 526 532 541 546 552 562 571 580 585 591 597 603 612 617 627 636 645 650 655"
             y="0"
             sodipodi:role="line"
             id="tspan38">It is not uncommon for embedded software to be denied a potentially long life due to</tspan></text>
        <text
           xml:space="preserve"
           transform="translate(696,162)"
           style="font-variant:normal;font-weight:normal;font-size:20px;font-family:'Times New Roman';-inkscape-font-specification:TimesNewRomanPSMT;writing-mode:lr-tb;fill:#000000;fill-opacity:1;fill-rule:nonzero;stroke:none"
           id="text44"><tspan
             x="0 10 19 25 34 43 48 54 63 69 78 87 92 101 111 116 131 137 142 151 156 166 175 185 194 203 213 222 231 240 246 255 263 268 278 287 292 301 310 317 327 342 351 358 367"
             y="0"
             sodipodi:role="line"
             id="tspan42">being infected with dependencies on hardware.</tspan></text>
        <text
           xml:space="preserve"
           transform="translate(696,205)"
           style="font-variant:normal;font-weight:normal;font-size:20px;font-family:'Times New Roman';-inkscape-font-specification:TimesNewRomanPSMT;writing-mode:lr-tb;fill:#000000;fill-opacity:1;fill-rule:nonzero;stroke:none"
           id="text48"><tspan
             x="0 6 11 17 23 32 41 46 60 70 79 88 94 102 107 117 126 132 138 147 153 158 164 174 183 188 198 204 209 215 221 228 242 257 266 273 282 287 292 302 311 316 321 327 336 341 347 355 360 368 377 386 391 406 415 421 430 439 444 454 459 468 477 484 489 499 508 514 520 529 535 540 546 556 565 573 578 587 594 603 608 618 627 632 637 642 651 660 667 676 681 686"
             y="0"
             sodipodi:role="line"
             id="tspan46">I like Doug’s definition of firmware, but let’s see which other definitions are out there. I</tspan></text>
        <text
           xml:space="preserve"
           transform="translate(696,228)"
           style="font-variant:normal;font-weight:normal;font-size:20px;font-family:'Times New Roman';-inkscape-font-specification:TimesNewRomanPSMT;writing-mode:lr-tb;fill:#000000;fill-opacity:1;fill-rule:nonzero;stroke:none"
           id="text52"><tspan
             x="0 6 16 25 34 44 49 54 63 72 80 89 94 103 109 114 123 130 139 148 153 159 169 178 186"
             y="0"
             sodipodi:role="line"
             id="tspan50">found these alternatives:</tspan></text>
        <text
           xml:space="preserve"
           transform="translate(697,271)"
           style="font-variant:normal;font-weight:normal;font-size:20px;font-family:'Times New Roman';-inkscape-font-specification:TimesNewRomanPSMT;writing-mode:lr-tb;fill:#000000;fill-opacity:1;fill-rule:nonzero;stroke:none"
           id="text56"><tspan
             x="0 7 12 21 32 38 45 59 74 83 90 99 104 110 118 123 132 141 147 157 162 168 177 182 191 201 210 217 227 237 243 252 257 263 269 278 283 297 306 320 330 337 346 351 361 370 380 386 395 404 412 417 425 434 443 452 457 466 474 479 492 506 523 528 533 545 556 569 583 600 605 610 620 627 632 638 644 653 661"
             y="0"
             sodipodi:role="line"
             id="tspan54">• “Firmware is held in non-volatile memory devices such as ROM, EPROM, or flash</tspan></text>
        <text
           xml:space="preserve"
           transform="translate(709,294)"
           style="font-variant:normal;font-weight:normal;font-size:20px;font-family:'Times New Roman';-inkscape-font-specification:TimesNewRomanPSMT;writing-mode:lr-tb;fill:#000000;fill-opacity:1;fill-rule:nonzero;stroke:none"
           id="text60"><tspan
             x="0 14 23 37 47 54 62 67 76 81"
             y="0"
             sodipodi:role="line"
             id="tspan58">memory.” (</tspan></text>
        <text
           xml:space="preserve"
           transform="translate(797,294)"
           style="font-variant:normal;font-weight:normal;font-size:20px;font-family:'Times New Roman';-inkscape-font-specification:TimesNewRomanPSMT;writing-mode:lr-tb;fill:#0000ee;fill-opacity:1;fill-rule:nonzero;stroke:none"
           id="text64"><tspan
             x="0 9 14 19 29 37 43 49 55 64 73 78 93 99 108 114 124 133 143 149 158 163 173 180 189 195 210 216 225 231 237 248 254 261 275 290 299 306"
             y="0"
             sodipodi:role="line"
             id="tspan62">https://en.wikipedia.org/wiki/Firmware</tspan></text>
        <path
           d="m 797,295.5 h 314 z"
           style="fill:none;stroke:#0000ee;stroke-width:1;stroke-linecap:square;stroke-linejoin:miter;stroke-miterlimit:10;stroke-dasharray:none;stroke-opacity:1"
           id="path66" />
        <text
           xml:space="preserve"
           transform="translate(1112,294)"
           style="font-variant:normal;font-weight:normal;font-size:20px;font-family:'Times New Roman';-inkscape-font-specification:TimesNewRomanPSMT;writing-mode:lr-tb;fill:#000000;fill-opacity:1;fill-rule:nonzero;stroke:none"
           id="text70"><tspan
             x="0"
             y="0"
             id="tspan68">)</tspan></text>
        <text
           xml:space="preserve"
           transform="translate(697,322)"
           style="font-variant:normal;font-weight:normal;font-size:20px;font-family:'Times New Roman';-inkscape-font-specification:TimesNewRomanPSMT;writing-mode:lr-tb;fill:#000000;fill-opacity:1;fill-rule:nonzero;stroke:none"
           id="text74"><tspan
             x="0 7 12 21 32 38 45 59 74 83 90 99 104 110 118 123 132 137 145 155 161 166 181 190 197 206 211 221 228 238 247 254 263 277 282 292 299 304 312 321 326 331 341 347 352 358 367 375 380 387 396 405 410 416 426 435 443 448 458 465 475 484 491 500 514 528 537 547 552 562 571 576 585 590 599 608 615 625 640 649 656"
             y="0"
             sodipodi:role="line"
             id="tspan72">• “Firmware is a software program or set of instructions programmed on a hardware</tspan></text>
        <text
           xml:space="preserve"
           transform="translate(709,345)"
           style="font-variant:normal;font-weight:normal;font-size:20px;font-family:'Times New Roman';-inkscape-font-specification:TimesNewRomanPSMT;writing-mode:lr-tb;fill:#000000;fill-opacity:1;fill-rule:nonzero;stroke:none"
           id="text78"><tspan
             x="0 10 19 29 35 44 53 58 67 72"
             y="0"
             sodipodi:role="line"
             id="tspan76">device.” (</tspan></text>
        <text
           xml:space="preserve"
           transform="translate(788,345)"
           style="font-variant:normal;font-weight:normal;font-size:20px;font-family:'Times New Roman';-inkscape-font-specification:TimesNewRomanPSMT;writing-mode:lr-tb;fill:#0000ee;fill-opacity:1;fill-rule:nonzero;stroke:none"
           id="text82"><tspan
             x="0 9 14 19 29 37 43 49 55 60 69 78 87 92 101 108 122 130 135 144 154 168 174 184 193 199 205 214 220 225 231 241 250 256 262 268 275 289 304 313 320"
             y="0"
             sodipodi:role="line"
             id="tspan80">https://techterms.com/definition/firmware</tspan></text>
        <path
           d="m 788,346.5 h 328 z"
           style="fill:none;stroke:#0000ee;stroke-width:1;stroke-linecap:square;stroke-linejoin:miter;stroke-miterlimit:10;stroke-dasharray:none;stroke-opacity:1"
           id="path84" />
        <text
           xml:space="preserve"
           transform="translate(1117,345)"
           style="font-variant:normal;font-weight:normal;font-size:20px;font-family:'Times New Roman';-inkscape-font-specification:TimesNewRomanPSMT;writing-mode:lr-tb;fill:#000000;fill-opacity:1;fill-rule:nonzero;stroke:none"
           id="text88"><tspan
             x="0"
             y="0"
             id="tspan86">)</tspan></text>
        <text
           xml:space="preserve"
           transform="translate(697,374)"
           style="font-variant:normal;font-weight:normal;font-size:20px;font-family:'Times New Roman';-inkscape-font-specification:TimesNewRomanPSMT;writing-mode:lr-tb;fill:#000000;fill-opacity:1;fill-rule:nonzero;stroke:none"
           id="text92"><tspan
             x="0 7 12 21 32 38 45 59 74 83 90 99 104 110 118 123 131 141 147 152 167 176 183 192 197 202 211 220 225 230 236 244 249 258 272 282 291 301 311 320 330 335 341 350 355 364 369 379 385 394 403 412 417 427 433 438 447 456 463 473 488 497 504 513 518"
             y="0"
             sodipodi:role="line"
             id="tspan90">• “Firmware is software that is embedded in a piece of hardware.”</tspan></text>
        <text
           xml:space="preserve"
           transform="translate(709,397)"
           style="font-variant:normal;font-weight:normal;font-size:20px;font-family:'Times New Roman';-inkscape-font-specification:TimesNewRomanPSMT;writing-mode:lr-tb;fill:#000000;fill-opacity:1;fill-rule:nonzero;stroke:none"
           id="text96"><tspan
             x="0"
             y="0"
             id="tspan94">(</tspan></text>
        <text
           xml:space="preserve"
           transform="translate(716,397)"
           style="font-variant:normal;font-weight:normal;font-size:20px;font-family:'Times New Roman';-inkscape-font-specification:TimesNewRomanPSMT;writing-mode:lr-tb;fill:#0000ee;fill-opacity:1;fill-rule:nonzero;stroke:none"
           id="text100"><tspan
             x="0 9 14 19 29 37 43 49 55 70 85 99 104 110 116 122 131 146 152 159 168 173 182 192 206 212 227 236 245 250 257 263 271 278 284 290 297 311 326 335 342 351 358 368 378 388 398 408 418"
             y="0"
             sodipodi:role="line"
             id="tspan98">https://www.lifewire.com/what-is-firmware-2625881</tspan></text>
        <path
           d="m 716,398.5 h 427 z"
           style="fill:none;stroke:#0000ee;stroke-width:1;stroke-linecap:square;stroke-linejoin:miter;stroke-miterlimit:10;stroke-dasharray:none;stroke-opacity:1"
           id="path102" />
        <text
           xml:space="preserve"
           transform="translate(1144,397)"
           style="font-variant:normal;font-weight:normal;font-size:20px;font-family:'Times New Roman';-inkscape-font-specification:TimesNewRomanPSMT;writing-mode:lr-tb;fill:#000000;fill-opacity:1;fill-rule:nonzero;stroke:none"
           id="text106"><tspan
             x="0"
             y="0"
             id="tspan104">)</tspan></text>
        <text
           xml:space="preserve"
           transform="translate(697,425)"
           style="font-variant:normal;font-weight:normal;font-size:20px;font-family:'Times New Roman';-inkscape-font-specification:TimesNewRomanPSMT;writing-mode:lr-tb;fill:#000000;fill-opacity:1;fill-rule:nonzero;stroke:none"
           id="text110"><tspan
             x="0 7 12 23 29 36 50 65 74 81 90 95 101 109 114 123 134 144 150 155 170 179 186 195 200 207 217 224 234 243 250 259 273 281 286 296 303 308 318 327 332 341 348 353 358 367 376 381 386 395 404 412 417 427 436 445 454 459 474 481 487 492 497 506 515 520 530 539 544 554 559 566 575 584 594 601 611 620 626"
             y="0"
             sodipodi:role="line"
             id="tspan108">• Firmware is “Software (programs or data) that has been written onto read-only</tspan></text>
        <text
           xml:space="preserve"
           transform="translate(709,448)"
           style="font-variant:normal;font-weight:normal;font-size:20px;font-family:'Times New Roman';-inkscape-font-specification:TimesNewRomanPSMT;writing-mode:lr-tb;fill:#000000;fill-opacity:1;fill-rule:nonzero;stroke:none"
           id="text114"><tspan
             x="0 14 23 37 47 54 63 68 75 88 102 119 126 131 140 145"
             y="0"
             sodipodi:role="line"
             id="tspan112">memory (ROM).” (</tspan></text>
        <text
           xml:space="preserve"
           transform="translate(861,448)"
           style="font-variant:normal;font-weight:normal;font-size:20px;font-family:'Times New Roman';-inkscape-font-specification:TimesNewRomanPSMT;writing-mode:lr-tb;fill:#0000ee;fill-opacity:1;fill-rule:nonzero;stroke:none"
           id="text118"><tspan
             x="0 9 14 19 29 35 41 47 62 77 91 96 111 120 130 140 150 159 169 175 184 189 198 208 222 228 240 252 265 282 288 299 305 311 317 324 338 353 362 369 378 383 392 397 411"
             y="0"
             sodipodi:role="line"
             id="tspan116">http://www.webopedia.com/TERM/F/firmware.html</tspan></text>
        <path
           d="m 861,449.5 h 416 z"
           style="fill:none;stroke:#0000ee;stroke-width:1;stroke-linecap:square;stroke-linejoin:miter;stroke-miterlimit:10;stroke-dasharray:none;stroke-opacity:1"
           id="path120" />
        <text
           xml:space="preserve"
           transform="translate(1278,448)"
           style="font-variant:normal;font-weight:normal;font-size:20px;font-family:'Times New Roman';-inkscape-font-specification:TimesNewRomanPSMT;writing-mode:lr-tb;fill:#000000;fill-opacity:1;fill-rule:nonzero;stroke:none"
           id="text124"><tspan
             x="0"
             y="0"
             id="tspan122">)</tspan></text>
        <text
           xml:space="preserve"
           transform="translate(696,491)"
           style="font-variant:normal;font-weight:normal;font-size:20px;font-family:'Times New Roman';-inkscape-font-specification:TimesNewRomanPSMT;writing-mode:lr-tb;fill:#000000;fill-opacity:1;fill-rule:nonzero;stroke:none"
           id="text128"><tspan
             x="0 14 24 33 42 48 56 61 69 74 83 88 97 111 120 129 134 139 153 162 171 180 188 193 207 216 221 228 237 246 252 258 266 275 280 285 294 303 308 313 318 327 336 344 353 358 367 376 385 394 404 409 418 428 433 443 452 458 464 473 479 484 490 500 509 517 522 532 538 543 549 555 562 576 591 600 607 616 621 630 637"
             y="0"
             sodipodi:role="line"
             id="tspan126">Doug’s statement makes me realize that these accepted definitions of firmware are</tspan></text>
        <text
           xml:space="preserve"
           transform="translate(696,514)"
           style="font-variant:normal;font-weight:normal;font-size:20px;font-family:'Times New Roman';-inkscape-font-specification:TimesNewRomanPSMT;writing-mode:lr-tb;fill:#000000;fill-opacity:1;fill-rule:nonzero;stroke:none"
           id="text132"><tspan
             x="0 15 22 32 41 50 55 60 70 77 82 91 96 101 107 116 125 133 138 143 153 163 171 181 187 196 201 210 215 220 231 237 244 258 273 282 289 298 303 313 323 332 340 345 354 364 369 374 388 397 406 415 420 429 439 449 458 463 469 475 485 494 502 507 513 522 527 540 554 571 576 581 587 592 598 606 611 620 630"
             y="0"
             sodipodi:role="line"
             id="tspan130">wrong, or at least obsolete. Firmware does not mean code lives in ROM. It’s not</tspan></text>
        <text
           xml:space="preserve"
           transform="translate(696,537)"
           style="font-variant:normal;font-weight:normal;font-size:20px;font-family:'Times New Roman';-inkscape-font-specification:TimesNewRomanPSMT;writing-mode:lr-tb;fill:#000000;fill-opacity:1;fill-rule:nonzero;stroke:none"
           id="text136"><tspan
             x="0 6 12 19 33 48 57 64 73 78 88 97 106 115 124 132 141 146 156 162 167 182 191 200 207 216 221 227 232 237 243 251 256 264 269 279 286 295 305 310 315 322 331 336 345 354 360 365 370 376 381 386 392 400 405 411 417 424 438 453 462 469 478 483 493 502 511 520 529 537 546 551 561 567 572 587 596 605 610 615 621 626 631 641 650 660 669 678 688"
             y="0"
             sodipodi:role="line"
             id="tspan134">firmware because of where it is stored; rather, it is firmware because of what it depends</tspan></text>
        <text
           xml:space="preserve"
           transform="translate(696,560)"
           style="font-variant:normal;font-weight:normal;font-size:20px;font-family:'Times New Roman';-inkscape-font-specification:TimesNewRomanPSMT;writing-mode:lr-tb;fill:#000000;fill-opacity:1;fill-rule:nonzero;stroke:none"
           id="text140"><tspan
             x="0 10 19 24 33 42 52 57 66 76 91 96 105 114 121 131 136 142 147 152 158 166 171 176 186 191 200 209 218 227 236 245 250 259 267 272 281 290 297 307 322 331 338 347 352 361 371 381 387 397 406 414 419 424 438 447 454 464 479 488 495 504 509 519 529 538 546 551 560 570 580 586 596 605 610 617 627 636 645 653 662 667 676 685"
             y="0"
             sodipodi:role="line"
             id="tspan138">on and how hard it is to change as hardware evolves. Hardware does evolve (pause and</tspan></text>
        <text
           xml:space="preserve"
           transform="translate(696,583)"
           style="font-variant:normal;font-weight:normal;font-size:20px;font-family:'Times New Roman';-inkscape-font-specification:TimesNewRomanPSMT;writing-mode:lr-tb;fill:#000000;fill-opacity:1;fill-rule:nonzero;stroke:none"
           id="text144"><tspan
             x="0 6 16 26 35 40 49 54 59 68 78 87 94 99 105 115 122 127 137 146 156 165 174 179 185 195 202 207 216 226 232 242 251 260 269 278 285 290 295 303 313 318 333 342 347 355 364 374 383 389 399 404 412 417 424 433 442 447 456 463 472 477 487 496 503 508 517 531 541 550 560 570 579 589 594 603 613 623 632 637 652 658 663"
             y="0"
             sodipodi:role="line"
             id="tspan142">look at your for phone for evidence), so we should structure our embedded code with</tspan></text>
        <text
           xml:space="preserve"
           transform="translate(696,606)"
           style="font-variant:normal;font-weight:normal;font-size:20px;font-family:'Times New Roman';-inkscape-font-specification:TimesNewRomanPSMT;writing-mode:lr-tb;fill:#000000;fill-opacity:1;fill-rule:nonzero;stroke:none"
           id="text148"><tspan
             x="0 5 14 23 28 33 40 49 58 64 70 75 84 89 95 104 109 123 129 138 148"
             y="0"
             sodipodi:role="line"
             id="tspan146">that reality in mind.</tspan></text>
        <text
           xml:space="preserve"
           transform="translate(696,649)"
           style="font-variant:normal;font-weight:normal;font-size:20px;font-family:'Times New Roman';-inkscape-font-specification:TimesNewRomanPSMT;writing-mode:lr-tb;fill:#000000;fill-opacity:1;fill-rule:nonzero;stroke:none"
           id="text152"><tspan
             x="0 6 11 20 29 39 48 53 62 72 77 86 92 101 110 115 124 133 142 148 157 165 170 175 181 187 194 208 223 232 239 248 253 258 268 275 280 286 292 299 313 328 337 344 353 358 367 376 385 391 400 409 418 425 433 438 445 451 458 468 477 482 492 501 510 519 524 533 542 552 567 576 581 586 596 601 616 623 629 634 643 648 656 666 680"
             y="0"
             sodipodi:role="line"
             id="tspan150">I have nothing against firmware, or firmware engineers (I’ve been known to write some</tspan></text>
        <text
           xml:space="preserve"
           transform="translate(696,672)"
           style="font-variant:normal;font-weight:normal;font-size:20px;font-family:'Times New Roman';-inkscape-font-specification:TimesNewRomanPSMT;writing-mode:lr-tb;fill:#000000;fill-opacity:1;fill-rule:nonzero;stroke:none"
           id="text156"><tspan
             x="0 6 12 19 33 48 57 64 73 78 92 101 109 118 124 130 137 142 147 160 169 174 179 194 203 212 217 222 237 246 251 258 267 276 282 288 297 302 311 320 329 339 344 350 358 363 369 378 386 394 399 405 411 418 432 447 456 463 472 477 486 495 505 510 524 534 541 550 555 563 573 579 584 599 608 615 624"
             y="0"
             sodipodi:role="line"
             id="tspan154">firmware myself). But what we really need is less firmware and more software.</tspan></text>
        <text
           xml:space="preserve"
           transform="translate(696,695)"
           style="font-variant:normal;font-weight:normal;font-size:20px;font-family:'Times New Roman';-inkscape-font-specification:TimesNewRomanPSMT;writing-mode:lr-tb;fill:#000000;fill-opacity:1;fill-rule:nonzero;stroke:none"
           id="text160"><tspan
             x="0 14 23 28 37 46 52 58 66 71 76 82 87 96 110 115 125 131 139 148 158 168 178 184 193 198 207 217 222 227 236 245 250 255 261 267 274 288 303 312 319 328 333 342 351 360 366 375 384 393 400 408 413 428 435 441 446 455 460 468 478 483 497 506 515 524 529 535 541 548 562 577 586 593 602"
             y="0"
             sodipodi:role="line"
             id="tspan158">Actually, I am disappointed that firmware engineers write so much firmware!</tspan></text>
        <text
           xml:space="preserve"
           transform="translate(696,738)"
           style="font-variant:normal;font-weight:normal;font-size:20px;font-family:'Times New Roman';-inkscape-font-specification:TimesNewRomanPSMT;writing-mode:lr-tb;fill:#000000;fill-opacity:1;fill-rule:nonzero;stroke:none"
           id="text164"><tspan
             x="0 14 24 33 40 49 63 73 82 92 102 111 121 126 135 144 153 159 168 177 186 193 201 206 215 221 229 239 244 259 266 272 277 286 291 297 303 310 324 339 348 355 364 370 375 387 397 406 411 420 430 439 446 455 469 479 488 498 508 517 527 532 542 551 561 570 576 586 596 605 612"
             y="0"
             sodipodi:role="line"
             id="tspan162">Non-embedded engineers also write firmware! You non-embedded developers</tspan></text>
        <text
           xml:space="preserve"
           transform="translate(696,761)"
           style="font-variant:normal;font-weight:normal;font-size:20px;font-family:'Times New Roman';-inkscape-font-specification:TimesNewRomanPSMT;writing-mode:lr-tb;fill:#000000;fill-opacity:1;fill-rule:nonzero;stroke:none"
           id="text168"><tspan
             x="0 9 17 25 34 43 48 54 63 69 75 84 89 104 111 117 122 131 136 142 148 155 169 184 193 200 209 214 229 238 247 256 265 275 284 291 296 305 315 324 329 339 348 355 364 369 380 394 404 409 415 424 429 438 448 457 464 469 478 488 498 507 512 522 529 534 549 558 567 576 581 590 600 609 614 622 632 639 648 657"
             y="0"
             sodipodi:role="line"
             id="tspan166">essentially write firmware whenever you bury SQL in your code or when you spread</tspan></text>
        <text
           xml:space="preserve"
           transform="translate(696,784)"
           style="font-variant:normal;font-weight:normal;font-size:20px;font-family:'Times New Roman';-inkscape-font-specification:TimesNewRomanPSMT;writing-mode:lr-tb;fill:#000000;fill-opacity:1;fill-rule:nonzero;stroke:none"
           id="text172"><tspan
             x="0 10 16 25 30 36 46 53 67 72 82 91 101 110 119 129 138 147 156 162 171 179 184 189 198 205 215 224 233 242 252 261 266 271 280 290 299 306 311 320 330 340 349 354 359 373 382 392 399 409 415 425 430 439 449 459 464 474 483 493 502 508 518 528 537 544 552 557 572 579 585 590 599 604 610 616 623 637 652 661 668"
             y="0"
             sodipodi:role="line"
             id="tspan170">platform dependencies throughout your code. Android app developers write firmware</tspan></text>
        <text
           xml:space="preserve"
           transform="translate(696,807)"
           style="font-variant:normal;font-weight:normal;font-size:20px;font-family:'Times New Roman';-inkscape-font-specification:TimesNewRomanPSMT;writing-mode:lr-tb;fill:#000000;fill-opacity:1;fill-rule:nonzero;stroke:none"
           id="text176"><tspan
             x="0 15 24 33 42 47 52 61 70 79 84 94 104 113 120 125 130 138 147 157 166 173 182 187 196 201 206 215 224 230 237 242 252 261 269 275 284 293 301 309 314 320 330 339 345 354 359 365 372 382 396 401 406 415 424 429 443 452 462 469 479 485 495 500 514 525 531"
             y="0"
             sodipodi:role="line"
             id="tspan174">when they don’t separate their business logic from the Android API.</tspan></text>
        <text
           xml:space="preserve"
           transform="translate(696,850)"
           style="font-variant:normal;font-weight:normal;font-size:20px;font-family:'Times New Roman';-inkscape-font-specification:TimesNewRomanPSMT;writing-mode:lr-tb;fill:#000000;fill-opacity:1;fill-rule:nonzero;stroke:none"
           id="text180"><tspan
             x="0 6 13 23 32 37 47 56 65 74 79 85 94 104 114 120 130 139 149 154 160 169 174 183 188 194 204 209 214 224 230 235 244 250 256 266 273 278 286 291 306 315 324 331 340 345 350 359 368 373 379 385 394 403 408 418 427 432 447 456 465 474 479 484 493 502 507 517 524 534 544 553 562 567 572 581 591 601 610 615 622 627 636"
             y="0"
             sodipodi:role="line"
             id="tspan178">I’ve been involved in a lot of efforts where the line between the product code (the</tspan></text>
        <text
           xml:space="preserve"
           transform="translate(696,873)"
           style="font-variant:normal;font-weight:normal;font-size:20px;font-family:'Times New Roman';-inkscape-font-specification:TimesNewRomanPSMT;writing-mode:lr-tb;fill:#000000;fill-opacity:1;fill-rule:nonzero;stroke:none"
           id="text184"><tspan
             x="0 8 18 24 29 44 53 60 69 76 81 90 99 109 114 119 128 137 142 151 161 171 180 185 190 199 208 213 218 224 233 238 247 254 263 272 277 285 290 305 311 316 325 330 335 344 353 358 368 375 385 395 404 413 418 424 432 437 446 455 462 472 487 496 503 512 517 524 529 538 547 552 558 564 571 585 600 609 616 625 632 637 643 651 656 662 671 679 687"
             y="0"
             sodipodi:role="line"
             id="tspan182">software) and the code that interacts with the product’s hardware (the firmware) is fuzzy</tspan></text>
        <text
           xml:space="preserve"
           transform="translate(696,896)"
           style="font-variant:normal;font-weight:normal;font-size:20px;font-family:'Times New Roman';-inkscape-font-specification:TimesNewRomanPSMT;writing-mode:lr-tb;fill:#000000;fill-opacity:1;fill-rule:nonzero;stroke:none"
           id="text188"><tspan
             x="0 5 15 20 25 34 43 48 58 68 74 83 88 93 103 109 114 123 133 142 151 160 166 174 179 188 197 206 215 220 225 236 246 253 258 267 276 285 299 309 315 324 329 334 340 349 354 359 368 377 382 388 397 402 411 416 426 436 446 456 464 469 475 480 489 498 508 513 518 527 536 541 547 556 565 570 580 586 591 600 609 615 625 631 640"
             y="0"
             sodipodi:role="line"
             id="tspan186">to the point of nonexistence. For example, in the late 1990s I had the fun of helping</tspan></text>
        <text
           xml:space="preserve"
           transform="translate(696,919)"
           style="font-variant:normal;font-weight:normal;font-size:20px;font-family:'Times New Roman';-inkscape-font-specification:TimesNewRomanPSMT;writing-mode:lr-tb;fill:#000000;fill-opacity:1;fill-rule:nonzero;stroke:none"
           id="text192"><tspan
             x="0 7 16 26 35 43 49 58 67 72 81 86 95 105 119 133 142 151 157 166 175 180 186 196 205 213 218 226 235 245 253 262 270 275 284 298 303 308 317 326 331 336 351 360 368 373 378 385 394 403 411 417 422 428 438 447 453 462 471 476 482 489 499 513 518 523 529 543 552 559 569 575 585 591 599 605 615"
             y="0"
             sodipodi:role="line"
             id="tspan190">redesign a communications subsystem that was transitioning from time-division</tspan></text>
        <text
           xml:space="preserve"
           transform="translate(696,942)"
           style="font-variant:normal;font-weight:normal;font-size:20px;font-family:'Times New Roman';-inkscape-font-specification:TimesNewRomanPSMT;writing-mode:lr-tb;fill:#000000;fill-opacity:1;fill-rule:nonzero;stroke:none"
           id="text196"><tspan
             x="0 14 23 29 34 40 50 56 65 74 80 89 98 103 110 122 136 153 160 165 170 180 185 195 205 211 220 229 234 244 254 263 270 275 281 291 296 303 316 330 336 347 354 359 364 377 391 397 407 412 418 426 431 440 450 465 470 475 484 490 499 508 516 521 530 537 546 551 561 571 580 589 594 603 613 627 632 637 647 656"
             y="0"
             sodipodi:role="line"
             id="tspan194">multiplexing (TDM) to voice over IP (VOIP). VOIP is how things are done now, but</tspan></text>
        <text
           xml:space="preserve"
           transform="translate(696,965)"
           style="font-variant:normal;font-weight:normal;font-size:20px;font-family:'Times New Roman';-inkscape-font-specification:TimesNewRomanPSMT;writing-mode:lr-tb;fill:#000000;fill-opacity:1;fill-rule:nonzero;stroke:none"
           id="text200"><tspan
             x="0 12 26 43 48 63 72 80 85 94 104 113 121 127 137 146 153 162 172 177 182 191 200 205 213 218 227 232 241 246 256 262 267 272 281 290 295 304 311 316 321 327 334 344 358 363 368 377 386 391 401 411 421 431 439 444 453 462 472 477 487 497 507 517 525 530 535 544 553 563 568 583 592 600 605 620 626 636 645 651"
             y="0"
             sodipodi:role="line"
             id="tspan198">TDM was considered the state of the art from the 1950s and 1960s, and was widely</tspan></text>
        <text
           xml:space="preserve"
           transform="translate(696,988)"
           style="font-variant:normal;font-weight:normal;font-size:20px;font-family:'Times New Roman';-inkscape-font-specification:TimesNewRomanPSMT;writing-mode:lr-tb;fill:#000000;fill-opacity:1;fill-rule:nonzero;stroke:none"
           id="text204"><tspan
             x="0 10 19 29 35 45 54 63 73 78 84 93 98 103 112 121 126 136 146 156 166 174 179 188 197 207 212 222 232 242 252 260"
             y="0"
             sodipodi:role="line"
             id="tspan202">deployed in the 1980s and 1990s.</tspan></text>
      </g>
    </g>
  </g>
</svg>
