<?xml version="1.0" encoding="UTF-8" standalone="no"?>
<!-- Created with Inkscape (http://www.inkscape.org/) -->

<svg
   version="1.1"
   id="svg2"
   width="816"
   height="1056"
   viewBox="0 0 816 1056"
   sodipodi:docname="clean_arch.pdf"
   xmlns:inkscape="http://www.inkscape.org/namespaces/inkscape"
   xmlns:sodipodi="http://sodipodi.sourceforge.net/DTD/sodipodi-0.dtd"
   xmlns="http://www.w3.org/2000/svg"
   xmlns:svg="http://www.w3.org/2000/svg">
  <defs
     id="defs6">
    <clipPath
       clipPathUnits="userSpaceOnUse"
       id="clipPath18">
      <path
         d="m 696,0 h 696 V 1056 H 696 V 0"
         clip-rule="evenodd"
         id="path16" />
    </clipPath>
    <clipPath
       clipPathUnits="userSpaceOnUse"
       id="clipPath28">
      <path
         d="m 696,66 h 696 V 996 H 696 V 66"
         clip-rule="evenodd"
         id="path26" />
    </clipPath>
  </defs>
  <sodipodi:namedview
     id="namedview4"
     pagecolor="#ffffff"
     bordercolor="#000000"
     borderopacity="0.25"
     inkscape:showpageshadow="2"
     inkscape:pageopacity="0.0"
     inkscape:pagecheckerboard="0"
     inkscape:deskcolor="#d1d1d1" />
  <g
     id="g8"
     inkscape:groupmode="layer"
     inkscape:label="clean_arch"
     transform="translate(59.999999,2.64e-5)">
    <g
       id="g10" />
    <g
       id="g12"
       transform="translate(-696)">
      <g
         id="g14"
         clip-path="url(#clipPath18)">
        <g
           id="g20" />
      </g>
    </g>
    <g
       id="g22"
       transform="translate(-696)">
      <g
         id="g24"
         clip-path="url(#clipPath28)">
        <text
           xml:space="preserve"
           transform="translate(696,83.375)"
           style="font-variant:normal;font-weight:normal;font-size:20px;font-family:'Times New Roman';-inkscape-font-specification:TimesNewRomanPSMT;writing-mode:lr-tb;fill:#000000;fill-opacity:1;fill-rule:nonzero;stroke:none"
           id="text32"><tspan
             x="0 6 15 30 35 45 54 64 73 79 89 99 108 115 123 128 133 139 144 149 155 163 172 179 184 189 194 204 214 219 229 235 244 249 258 263 273 280 290 300 306 315 329 334 339 352 361 366 371 380 388 393 398 407 416 421 429 435 443 452 457 467 473 478 483 492 501 506 516 523 533 539 548 557 562 567 576 585 595 600 605 614"
             y="0"
             sodipodi:role="line"
             id="tspan30">few developers, it isn’t too big a problem. But as the size of the project and the</tspan></text>
        <text
           xml:space="preserve"
           transform="translate(696,106)"
           style="font-variant:normal;font-weight:normal;font-size:20px;font-family:'Times New Roman';-inkscape-font-specification:TimesNewRomanPSMT;writing-mode:lr-tb;fill:#000000;fill-opacity:1;fill-rule:nonzero;stroke:none"
           id="text36"><tspan
             x="0 10 19 29 38 44 54 64 78 87 96 101 106 111 120 129 143 148 157 164 174 188 193 198 203 212 221 226 240 250 257 266 272 281 290 298 303 312 318 323 332 339 344 353 362 371 376 385 394 399 404 414 421 430 435 440 449 454 463 469 478 487 492 506 515 522 528 536 545 550 555 561 566 571 577 585 590 599 609"
             y="0"
             sodipodi:role="line"
             id="tspan34">development team grow, the mornings after can get pretty nightmarish. It is not</tspan></text>
        <text
           xml:space="preserve"
           transform="translate(696,129)"
           style="font-variant:normal;font-weight:normal;font-size:20px;font-family:'Times New Roman';-inkscape-font-specification:TimesNewRomanPSMT;writing-mode:lr-tb;fill:#000000;fill-opacity:1;fill-rule:nonzero;stroke:none"
           id="text40"><tspan
             x="0 9 18 27 37 51 65 75 84 89 95 105 112 117 132 141 150 159 167 172 177 187 192 201 211 216 226 235 240 255 261 266 275 285 294 299 304 309 318 327 332 337 346 355 369 374 384 393 399 408 417 422 431 441 447 456 461 466 476 481 491 500 506 512 522 527 536 541 549 554 563 573 579 588 593 603 612 619 627 633 643 652 657 667"
             y="0"
             sodipodi:role="line"
             id="tspan38">uncommon for weeks to go by without the team being able to build a stable version of</tspan></text>
        <text
           xml:space="preserve"
           transform="translate(696,152)"
           style="font-variant:normal;font-weight:normal;font-size:20px;font-family:'Times New Roman';-inkscape-font-specification:TimesNewRomanPSMT;writing-mode:lr-tb;fill:#000000;fill-opacity:1;fill-rule:nonzero;stroke:none"
           id="text44"><tspan
             x="0 5 14 23 28 38 45 55 61 70 79 84 89 94 100 109 117 122 131 140 150 155 160 169 179 188 195 204 214 223 232 237 246 255 264 274 282 287 297 306 311 320 329 338 347 356 362 371 380 385 394 403 413 418 427 436 445 454 463 469 478 487 492 497 506 515 521 528 533 542 552 562 571 576 581 588 597 603 612 621 626 631 641 646 660 669 678"
             y="0"
             sodipodi:role="line"
             id="tspan42">the project. Instead, everyone keeps on changing and changing their code trying to make</tspan></text>
        <text
           xml:space="preserve"
           transform="translate(696,175)"
           style="font-variant:normal;font-weight:normal;font-size:20px;font-family:'Times New Roman';-inkscape-font-specification:TimesNewRomanPSMT;writing-mode:lr-tb;fill:#000000;fill-opacity:1;fill-rule:nonzero;stroke:none"
           id="text48"><tspan
             x="0 6 11 16 31 41 48 57 62 77 83 88 97 102 107 116 125 130 136 145 153 158 163 172 181 190 199 208 217 225 230 235 244 253 258 263 271 281 295 304 314 323 332 337 346 352 360 369 374 388 397 407 416"
             y="0"
             sodipodi:role="line"
             id="tspan46">it work with the last changes that someone else made.</tspan></text>
        <text
           xml:space="preserve"
           transform="translate(696,218)"
           style="font-variant:normal;font-weight:normal;font-size:20px;font-family:'Times New Roman';-inkscape-font-specification:TimesNewRomanPSMT;writing-mode:lr-tb;fill:#000000;fill-opacity:1;fill-rule:nonzero;stroke:none"
           id="text52"><tspan
             x="0 14 24 33 40 45 50 59 68 73 79 88 96 101 106 114 123 133 142 149 158 164 169 179 188 197 206 216 225 233 238 243 248 263 273 278 286 296 302 311 316 322 332 341 349 354 359 369 374 379 388 394 402 407 417 424 434 444 450 459 473 478 487 496 506 515 520 529 539 549 555 565 574 584 589 594 604 614 619 628 633 643"
             y="0"
             sodipodi:role="line"
             id="tspan50">Over the last several decades, two solutions to this problem have evolved, both of</tspan></text>
        <text
           xml:space="preserve"
           transform="translate(696,241)"
           style="font-variant:normal;font-weight:normal;font-size:20px;font-family:'Times New Roman';-inkscape-font-specification:TimesNewRomanPSMT;writing-mode:lr-tb;fill:#000000;fill-opacity:1;fill-rule:nonzero;stroke:none"
           id="text56"><tspan
             x="0 15 24 30 39 48 53 62 71 85 94 99 105 112 122 136 141 146 155 164 169 174 183 189 198 207 217 231 245 254 263 269 278 287 292 298 308 317 325 330 336 345 355 364 372 377 384 392 397 402 414 423 432 437 443 449 456 464 469 474 480 488 493 502 507 516 525 530 545 554 563 572 578 587 592 602 611 617 623 633 638 647 652 661 670"
             y="0"
             sodipodi:role="line"
             id="tspan54">which came from the telecommunications industry. The first is “the weekly build,” and</tspan></text>
        <text
           xml:space="preserve"
           transform="translate(696,264)"
           style="font-variant:normal;font-weight:normal;font-size:20px;font-family:'Times New Roman';-inkscape-font-specification:TimesNewRomanPSMT;writing-mode:lr-tb;fill:#000000;fill-opacity:1;fill-rule:nonzero;stroke:none"
           id="text60"><tspan
             x="0 5 14 23 28 36 45 54 64 73 83 88 94 102 107 112 121 130 135 149 158 167 176 182 188 197 202 216 225 235 244 253 263 272 281 290 296 305 313 318 329 336 342 351 360 366 376 382 391 396 403 417 431 442 449"
             y="0"
             sodipodi:role="line"
             id="tspan58">the second is the Acyclic Dependencies Principle (ADP).</tspan></text>
        <text
           xml:space="preserve"
           transform="translate(696,314)"
           style="font-variant:normal;font-weight:bold;font-size:23px;font-family:'Times New Roman';-inkscape-font-specification:TimesNewRomanPS-BoldMT;writing-mode:lr-tb;fill:#000000;fill-opacity:1;fill-rule:nonzero;stroke:none"
           id="text64"><tspan
             x="0"
             y="0"
             id="tspan62">T</tspan></text>
        <text
           xml:space="preserve"
           transform="translate(711,314)"
           style="font-variant:normal;font-weight:bold;font-size:23px;font-family:'Times New Roman';-inkscape-font-specification:TimesNewRomanPS-BoldMT;writing-mode:lr-tb;fill:#000000;fill-opacity:1;fill-rule:nonzero;stroke:none"
           id="text68"><tspan
             x="0 18"
             y="0"
             sodipodi:role="line"
             id="tspan66">HE</tspan></text>
        <text
           xml:space="preserve"
           transform="translate(750,314)"
           style="font-variant:normal;font-weight:bold;font-size:23px;font-family:'Times New Roman';-inkscape-font-specification:TimesNewRomanPS-BoldMT;writing-mode:lr-tb;fill:#000000;fill-opacity:1;fill-rule:nonzero;stroke:none"
           id="text72"><tspan
             x="0"
             y="0"
             id="tspan70">W</tspan></text>
        <text
           xml:space="preserve"
           transform="translate(772,314)"
           style="font-variant:normal;font-weight:bold;font-size:23px;font-family:'Times New Roman';-inkscape-font-specification:TimesNewRomanPS-BoldMT;writing-mode:lr-tb;fill:#000000;fill-opacity:1;fill-rule:nonzero;stroke:none"
           id="text76"><tspan
             x="0 15 30 48 61"
             y="0"
             sodipodi:role="line"
             id="tspan74">EEKLY</tspan></text>
        <text
           xml:space="preserve"
           transform="translate(854,314)"
           style="font-variant:normal;font-weight:bold;font-size:23px;font-family:'Times New Roman';-inkscape-font-specification:TimesNewRomanPS-BoldMT;writing-mode:lr-tb;fill:#000000;fill-opacity:1;fill-rule:nonzero;stroke:none"
           id="text80"><tspan
             x="0"
             y="0"
             id="tspan78">B</tspan></text>
        <text
           xml:space="preserve"
           transform="translate(870,314)"
           style="font-variant:normal;font-weight:bold;font-size:23px;font-family:'Times New Roman';-inkscape-font-specification:TimesNewRomanPS-BoldMT;writing-mode:lr-tb;fill:#000000;fill-opacity:1;fill-rule:nonzero;stroke:none"
           id="text84"><tspan
             x="0 17 26 41"
             y="0"
             sodipodi:role="line"
             id="tspan82">UILD</tspan></text>
        <text
           xml:space="preserve"
           transform="translate(696,357)"
           style="font-variant:normal;font-weight:normal;font-size:20px;font-family:'Times New Roman';-inkscape-font-specification:TimesNewRomanPSMT;writing-mode:lr-tb;fill:#000000;fill-opacity:1;fill-rule:nonzero;stroke:none"
           id="text88"><tspan
             x="0 12 21 30 35 50 59 68 77 83 92 97 107 116 122 128 138 143 152 160 169 179 184 189 199 204 214 223 228 237 247 261 275 285 294 299 305 314 319 333 342 352 358 367 381 388 396 402 410 419 429 434 444 451 461 467 476 485 490 498 503 508 514 519 524 539 549 556 565 573 578 584 590 599 608 613 618 627 633 641 647 652 666 672"
             y="0"
             sodipodi:role="line"
             id="tspan86">The weekly build used to be common in medium-sized projects. It works like this: All</tspan></text>
        <text
           xml:space="preserve"
           transform="translate(696,380)"
           style="font-variant:normal;font-weight:normal;font-size:20px;font-family:'Times New Roman';-inkscape-font-specification:TimesNewRomanPSMT;writing-mode:lr-tb;fill:#000000;fill-opacity:1;fill-rule:nonzero;stroke:none"
           id="text92"><tspan
             x="0 5 14 23 28 38 47 57 66 72 82 92 101 108 116 121 127 136 145 155 162 171 176 185 194 203 212 217 227 232 241 250 257 262 268 278 285 290 295 304 313 318 324 330 337 345 350 355 361 371 380 387 392 402 411 420 428 433 443 449 454 459 468 477 482 497 506 515 524 529 534 546 555 564 573 578 587 593 599 604 619 629 636 645 650 660"
             y="0"
             sodipodi:role="line"
             id="tspan90">the developers ignore each other for the first four days of the week. They all work on</tspan></text>
        <text
           xml:space="preserve"
           transform="translate(696,403)"
           style="font-variant:normal;font-weight:normal;font-size:20px;font-family:'Times New Roman';-inkscape-font-specification:TimesNewRomanPSMT;writing-mode:lr-tb;fill:#000000;fill-opacity:1;fill-rule:nonzero;stroke:none"
           id="text96"><tspan
             x="0 10 17 23 33 42 47 56 61 70 80 90 96 105 113 118 128 134 139 144 153 162 167 176 186 196 205 210 215 224 233 243 248 258 268 277 284 289 294 309 319 326 333 342 347 356 366 376 385 390 395 401 410 415 424 433 440 449 454 460 469 478 483 488 497 506 512 519 524 539 549 556 565 570 580 589 594 603 608 617 627 633 639 648 657 662 668 678"
             y="0"
             sodipodi:role="line"
             id="tspan94">private copies of the code, and don’t worry about integrating their work on a collective</tspan></text>
        <text
           xml:space="preserve"
           transform="translate(696,426)"
           style="font-variant:normal;font-weight:normal;font-size:20px;font-family:'Times New Roman';-inkscape-font-specification:TimesNewRomanPSMT;writing-mode:lr-tb;fill:#000000;fill-opacity:1;fill-rule:nonzero;stroke:none"
           id="text100"><tspan
             x="0 10 19 27 33 41 46 51 63 72 81 90 95 100 110 119 124 135 142 148 158 167 175 180 185 190 199 208 217 222 228 237 242 251 260 267 276 281 290 295 304 310 316 321 326 335 344 350 357 362 371 380 389 398 407 416 424 429 438 447 457 462 472 481 487 493 503 508 513 522 531 536 544 553 561 566 575 589"
             y="0"
             sodipodi:role="line"
             id="tspan98">basis. Then, on Friday, they integrate all their changes and build the system.</tspan></text>
        <text
           xml:space="preserve"
           transform="translate(696,469)"
           style="font-variant:normal;font-weight:normal;font-size:20px;font-family:'Times New Roman';-inkscape-font-specification:TimesNewRomanPSMT;writing-mode:lr-tb;fill:#000000;fill-opacity:1;fill-rule:nonzero;stroke:none"
           id="text104"><tspan
             x="0 12 21 27 35 40 49 59 69 76 86 95 104 113 118 127 136 144 149 154 163 172 177 192 202 211 221 230 237 243 252 258 263 272 282 292 301 310 315 324 333 342 347 357 363 368 377 383 389 399 414 420 429 438 443 448 457 466 471 481 490 500 509 515 525 535 544 551 559 564 569 579 584 590 596 606 615 620 626 635 640 649"
             y="0"
             sodipodi:role="line"
             id="tspan102">This approach has the wonderful advantage of allowing the developers to live in an</tspan></text>
        <text
           xml:space="preserve"
           transform="translate(696,492)"
           style="font-variant:normal;font-weight:normal;font-size:20px;font-family:'Times New Roman';-inkscape-font-specification:TimesNewRomanPSMT;writing-mode:lr-tb;fill:#000000;fill-opacity:1;fill-rule:nonzero;stroke:none"
           id="text108"><tspan
             x="0 6 14 24 30 39 44 53 63 68 83 93 100 106 116 121 127 137 144 149 155 165 174 181 186 196 205 214 222 227 237 246 251 256 266 272 277 283 289 299 308 313 318 330 339 348 353 363 369 377 386 396 406 415 424 429 438 447 456 461 466 476 482 487 496 506 515 522 530 539 544 549 555 563 568 573 582 591 596 602 611 618 627"
             y="0"
             sodipodi:role="line"
             id="tspan106">isolated world for four days out of five. The disadvantage, of course, is the large</tspan></text>
        <text
           xml:space="preserve"
           transform="translate(696,515)"
           style="font-variant:normal;font-weight:normal;font-size:20px;font-family:'Times New Roman';-inkscape-font-specification:TimesNewRomanPSMT;writing-mode:lr-tb;fill:#000000;fill-opacity:1;fill-rule:nonzero;stroke:none"
           id="text112"><tspan
             x="0 6 15 20 29 38 45 54 59 65 75 84 89 99 108 117 126 132 137 146 151 156 165 174 179 184 190 198 203 213 222 228 238 243 253 262 267 278 285 291 301 310 318"
             y="0"
             sodipodi:role="line"
             id="tspan110">integration penalty that is paid on Friday.</tspan></text>
        <text
           xml:space="preserve"
           transform="translate(696,558)"
           style="font-variant:normal;font-weight:normal;font-size:20px;font-family:'Times New Roman';-inkscape-font-specification:TimesNewRomanPSMT;writing-mode:lr-tb;fill:#000000;fill-opacity:1;fill-rule:nonzero;stroke:none"
           id="text116"><tspan
             x="0 13 22 28 38 45 50 59 68 77 82 91 97 105 110 115 124 132 137 142 151 160 165 175 182 192 198 207 216 221 226 235 242 252 267 275 280 285 291 296 301 311 320 329 339 353 362 370 375 381 390 398 406 411 417 426 435 443 449 459 465 474 479 484 494 499 505 511 520 526 534 543 548 554 563 568 577 586 593 602 607 613 622 631 636 641 650"
             y="0"
             sodipodi:role="line"
             id="tspan114">Unfortunately, as the project grows, it becomes less feasible to finish integrating the</tspan></text>
        <text
           xml:space="preserve"
           transform="translate(696,581)"
           style="font-variant:normal;font-weight:normal;font-size:20px;font-family:'Times New Roman';-inkscape-font-specification:TimesNewRomanPSMT;writing-mode:lr-tb;fill:#000000;fill-opacity:1;fill-rule:nonzero;stroke:none"
           id="text120"><tspan
             x="0 10 17 27 33 42 51 56 61 71 80 85 96 103 109 119 128 136 141 146 158 167 176 181 187 196 201 210 219 226 235 240 246 256 265 270 280 289 296 306 315 324 329 338 345 355 370 378 383 392 401 406 412 418 423 429 434 439 447 452 461 468 473 481"
             y="0"
             sodipodi:role="line"
             id="tspan118">project on Friday. The integration burden grows until it starts </tspan></text>
        <text
           xml:space="preserve"
           transform="translate(1182,581)"
           style="font-variant:normal;font-weight:normal;font-size:20px;font-family:'Times New Roman';-inkscape-font-specification:TimesNewRomanPSMT;writing-mode:lr-tb;fill:#000000;fill-opacity:1;fill-rule:nonzero;stroke:none"
           id="text124"><tspan
             x="0 5 15 20 30 40 49 56 62 68 78 93 98 104 113 118 128 133 144 153 158 167 174 184 193 201"
             y="0"
             sodipodi:role="line"
             id="tspan122">to overflow into Saturday.</tspan></text>
        <text
           xml:space="preserve"
           transform="translate(696,604)"
           style="font-variant:normal;font-weight:normal;font-size:20px;font-family:'Times New Roman';-inkscape-font-specification:TimesNewRomanPSMT;writing-mode:lr-tb;fill:#000000;fill-opacity:1;fill-rule:nonzero;stroke:none"
           id="text128"><tspan
             x="0 13 18 24 33 48 53 61 70 79 88 93 104 113 118 127 134 144 153 162 170 175 184 191 200 205 214 223 233 242 251 260 265 270 280 285 294 304 313 323 329 338 347 356 361 366 375 384 389 399 408 418 427 433 443 453 462 469 477 482 487 496 505 510 515 521 530 535 544 553 560 569 574 580 590 599 604 612 621 631 640 646"
             y="0"
             sodipodi:role="line"
             id="tspan126">A few such Saturdays are enough to convince the developers that integration should</tspan></text>
        <text
           xml:space="preserve"
           transform="translate(696,627)"
           style="font-variant:normal;font-weight:normal;font-size:20px;font-family:'Times New Roman';-inkscape-font-specification:TimesNewRomanPSMT;writing-mode:lr-tb;fill:#000000;fill-opacity:1;fill-rule:nonzero;stroke:none"
           id="text132"><tspan
             x="0 7 16 25 31 37 46 51 61 70 79 85 94 99 109 118 123 135 144 153 160 168 178 187 196 216 225 234 244 249 257 267 272 277 286 295 300 308 313 322 329 334 339 349 355 360 366 375 380 389 398 405 414 419 425 435 444 449 457 463 473 488 494 503 508 517 524 533 542 552 560 565 570 580 595 604 611 621 626 631 640"
             y="0"
             sodipodi:role="line"
             id="tspan130">really begin on Thursday—and so the start of integration slowly creeps toward the</tspan></text>
        <text
           xml:space="preserve"
           transform="translate(696,650)"
           style="font-variant:normal;font-weight:normal;font-size:20px;font-family:'Times New Roman';-inkscape-font-specification:TimesNewRomanPSMT;writing-mode:lr-tb;fill:#000000;fill-opacity:1;fill-rule:nonzero;stroke:none"
           id="text136"><tspan
             x="0 14 20 30 40 46 55 60 70 76 81 86 95 104 109 124 133 142 151"
             y="0"
             sodipodi:role="line"
             id="tspan134">middle of the week.</tspan></text>
        <text
           xml:space="preserve"
           transform="translate(696,693)"
           style="font-variant:normal;font-weight:normal;font-size:20px;font-family:'Times New Roman';-inkscape-font-specification:TimesNewRomanPSMT;writing-mode:lr-tb;fill:#000000;fill-opacity:1;fill-rule:nonzero;stroke:none"
           id="text140"><tspan
             x="0 14 22 27 32 41 50 55 65 74 79 88 93 102 111 120 126 135 140 150 156 161 171 180 190 199 205 215 225 239 248 257 262 267 277 286 293 301 310 318 323 329 338 343 352 361 368 377 382 388 398 407 412 422 431 440 447 456 465 473 482 490 495 500 505 514 523 528 537 543 549 555 564 570 579 588 597 606 611 621 627 632 637 646"
             y="0"
             sodipodi:role="line"
             id="tspan138">As the duty cycle of development versus integration decreases, the efficiency of the</tspan></text>
        <text
           xml:space="preserve"
           transform="translate(696,716)"
           style="font-variant:normal;font-weight:normal;font-size:20px;font-family:'Times New Roman';-inkscape-font-specification:TimesNewRomanPSMT;writing-mode:lr-tb;fill:#000000;fill-opacity:1;fill-rule:nonzero;stroke:none"
           id="text144"><tspan
             x="0 5 14 23 37 42 52 61 70 77 86 95 103 112 120 125 130 135 145 155 160 165 177 187 196 205 210 219 228 234 240 249 254 259 268 274 282 287 295 301 306 315 324 329 335 345 354 359 369 378 387 397 411 420 428 433 441 451 456 462 469 478 486 491 498 507 512 518 527 536 541 546 555 564 569 574 579 588 597 602 612 621 631 640 646 656 666 675 682 690"
             y="0"
             sodipodi:role="line"
             id="tspan142">team decreases, too. Eventually this situation becomes so frustrating that the developers,</tspan></text>
        <text
           xml:space="preserve"
           transform="translate(696,739)"
           style="font-variant:normal;font-weight:normal;font-size:20px;font-family:'Times New Roman';-inkscape-font-specification:TimesNewRomanPSMT;writing-mode:lr-tb;fill:#000000;fill-opacity:1;fill-rule:nonzero;stroke:none"
           id="text148"><tspan
             x="0 10 17 22 27 36 45 50 60 67 77 83 92 101 106 111 125 134 143 152 161 170 177 185 190 195 205 214 223 229 238 245 254 259 264 273 282 287 292 297 306 315 320 328 337 346 355 365 374 380 389 394 402 411 421 430 436 446 451 461 470 475 484 493 502 511 520 529 539 544 549 559 564 573 578 588 594 609 618 627 636 642"
             y="0"
             sodipodi:role="line"
             id="tspan146">or the project managers, declare that the schedule should be changed to a biweekly</tspan></text>
        <text
           xml:space="preserve"
           transform="translate(696,762)"
           style="font-variant:normal;font-weight:normal;font-size:20px;font-family:'Times New Roman';-inkscape-font-specification:TimesNewRomanPSMT;writing-mode:lr-tb;fill:#000000;fill-opacity:1;fill-rule:nonzero;stroke:none"
           id="text152"><tspan
             x="0 10 19 25 31 41 46 51 63 72 78 86 91 99 108 114 120 126 135 144 152 157 163 173 180 185 194 199 204 210 224 233 238 243 253 262 267 272 277 286 295 300 306 315 320 329 338 345 354 359 365 375 384 389 394 400 414 423 428 437 447 456 461 467 476 485 494 502 507 512 522 527 536 543 553 568 573 588 594 599 608 613 623 630 640 646 655 664"
             y="0"
             sodipodi:role="line"
             id="tspan150">build. This suffices for a time, but the integration time continues to grow with project</tspan></text>
        <text
           xml:space="preserve"
           transform="translate(696,785)"
           style="font-variant:normal;font-weight:normal;font-size:20px;font-family:'Times New Roman';-inkscape-font-specification:TimesNewRomanPSMT;writing-mode:lr-tb;fill:#000000;fill-opacity:1;fill-rule:nonzero;stroke:none"
           id="text156"><tspan
             x="0 8 14 22 31"
             y="0"
             sodipodi:role="line"
             id="tspan154">size.</tspan></text>
        <text
           xml:space="preserve"
           transform="translate(696,828)"
           style="font-variant:normal;font-weight:normal;font-size:20px;font-family:'Times New Roman';-inkscape-font-specification:TimesNewRomanPSMT;writing-mode:lr-tb;fill:#000000;fill-opacity:1;fill-rule:nonzero;stroke:none"
           id="text160"><tspan
             x="0 12 22 31 40 45 54 63 69 75 83 88 93 98 107 113 121 126 134 143 152 161 170 177 183 193 198 204 213 222 232 240 245 250 260 265 274 279 288 295 301 309 315 323 328 333 343 353 358 372 381 387 396 401 410 416 425 430 439 445 451 457 466 472 481 490 499 507 512 517 522 531 540 545 555 564 570 576 586 591 599 608 617 626 636 645 651 660 665 674 683"
             y="0"
             sodipodi:role="line"
             id="tspan158">Eventually, this scenario leads to a crisis. To maintain efficiency, the build schedule has</tspan></text>
        <text
           xml:space="preserve"
           transform="translate(696,851)"
           style="font-variant:normal;font-weight:normal;font-size:20px;font-family:'Times New Roman';-inkscape-font-specification:TimesNewRomanPSMT;writing-mode:lr-tb;fill:#000000;fill-opacity:1;fill-rule:nonzero;stroke:none"
           id="text164"><tspan
             x="0 5 15 20 30 39 44 53 63 72 77 83 92 101 110 116 122 131 136 142 151 160 169 174 183 192 201 210 220 240 250 259 264 269 275 284 293 302 307 316 325 334 340 349 358 363 368 377 386 391 401 410 416 422 432 437 445 454 463 472 482 491 497 506 511 517 526 535 542 551 560 568 577 585 590 600 607 617 623 632 641 646 651 658 664 672 681 689"
             y="0"
             sodipodi:role="line"
             id="tspan162">to be continually lengthened—but lengthening the build schedule increases project risks.</tspan></text>
        <text
           xml:space="preserve"
           transform="translate(696,874)"
           style="font-variant:normal;font-weight:normal;font-size:20px;font-family:'Times New Roman';-inkscape-font-specification:TimesNewRomanPSMT;writing-mode:lr-tb;fill:#000000;fill-opacity:1;fill-rule:nonzero;stroke:none"
           id="text168"><tspan
             x="0 6 15 20 29 38 45 54 59 65 75 84 89 98 107 117 122 127 136 144 149 155 164 173 178 188 197 206 216 230 239 244 250 259 268 275 284 293 301 307 316 325 331 340 345 354 363 370 380 389 396 401 406 416 421 431 441 446 451 460 469 479 484 489 498 507 512 517 526 535 549 554 560 570 578 587 595 600 605 614 623 628 638 647 656 665 671 677"
             y="0"
             sodipodi:role="line"
             id="tspan166">Integration and testing become increasingly harder to do, and the team loses the benefit</tspan></text>
        <text
           xml:space="preserve"
           transform="translate(696,897)"
           style="font-variant:normal;font-weight:normal;font-size:20px;font-family:'Times New Roman';-inkscape-font-specification:TimesNewRomanPSMT;writing-mode:lr-tb;fill:#000000;fill-opacity:1;fill-rule:nonzero;stroke:none"
           id="text172"><tspan
             x="0 10 16 21 28 37 47 53 63 68 74 83 92 102 112 121 130 139"
             y="0"
             sodipodi:role="line"
             id="tspan170">of rapid feedback.</tspan></text>
        <text
           xml:space="preserve"
           transform="translate(696,946)"
           style="font-variant:normal;font-weight:bold;font-size:23px;font-family:'Times New Roman';-inkscape-font-specification:TimesNewRomanPS-BoldMT;writing-mode:lr-tb;fill:#000000;fill-opacity:1;fill-rule:nonzero;stroke:none"
           id="text176"><tspan
             x="0"
             y="0"
             id="tspan174">E</tspan></text>
        <text
           xml:space="preserve"
           transform="translate(711,946)"
           style="font-variant:normal;font-weight:bold;font-size:23px;font-family:'Times New Roman';-inkscape-font-specification:TimesNewRomanPS-BoldMT;writing-mode:lr-tb;fill:#000000;fill-opacity:1;fill-rule:nonzero;stroke:none"
           id="text180"><tspan
             x="0 15 24 47 56 73 87 102 111 128"
             y="0"
             sodipodi:role="line"
             id="tspan178">LIMINATING</tspan></text>
        <text
           xml:space="preserve"
           transform="translate(863,946)"
           style="font-variant:normal;font-weight:bold;font-size:23px;font-family:'Times New Roman';-inkscape-font-specification:TimesNewRomanPS-BoldMT;writing-mode:lr-tb;fill:#000000;fill-opacity:1;fill-rule:nonzero;stroke:none"
           id="text184"><tspan
             x="0"
             y="0"
             id="tspan182">D</tspan></text>
        <text
           xml:space="preserve"
           transform="translate(880,946)"
           style="font-variant:normal;font-weight:bold;font-size:23px;font-family:'Times New Roman';-inkscape-font-specification:TimesNewRomanPS-BoldMT;writing-mode:lr-tb;fill:#000000;fill-opacity:1;fill-rule:nonzero;stroke:none"
           id="text188"><tspan
             x="0 15 30 45 62 79 94 111 128"
             y="0"
             sodipodi:role="line"
             id="tspan186">EPENDENCY</tspan></text>
        <text
           xml:space="preserve"
           transform="translate(1029,946)"
           style="font-variant:normal;font-weight:bold;font-size:23px;font-family:'Times New Roman';-inkscape-font-specification:TimesNewRomanPS-BoldMT;writing-mode:lr-tb;fill:#000000;fill-opacity:1;fill-rule:nonzero;stroke:none"
           id="text192"><tspan
             x="0"
             y="0"
             id="tspan190">C</tspan></text>
        <text
           xml:space="preserve"
           transform="translate(1046,946)"
           style="font-variant:normal;font-weight:bold;font-size:23px;font-family:'Times New Roman';-inkscape-font-specification:TimesNewRomanPS-BoldMT;writing-mode:lr-tb;fill:#000000;fill-opacity:1;fill-rule:nonzero;stroke:none"
           id="text196"><tspan
             x="0 15 32 47 62"
             y="0"
             sodipodi:role="line"
             id="tspan194">YCLES</tspan></text>
        <text
           xml:space="preserve"
           transform="translate(696,989)"
           style="font-variant:normal;font-weight:normal;font-size:20px;font-family:'Times New Roman';-inkscape-font-specification:TimesNewRomanPSMT;writing-mode:lr-tb;fill:#000000;fill-opacity:1;fill-rule:nonzero;stroke:none"
           id="text200"><tspan
             x="0 12 21 30 35 43 53 59 68 73 79 89 98 103 108 118 123 128 137 143 151 156 166 173 183 193 199 208 222 227 233 241 246 251 261 266 276 285 292 297 303 308 314 324 333 338 343 352 361 366 376 385 395 404 410 420 430 444 453 462 467 472 481 490 500 506 513 523 532 546 555 564 569 574 580 589 594 604 609 616 625 631 640 649 657 666 676 682"
             y="0"
             sodipodi:role="line"
             id="tspan198">The solution to this problem is to partition the development environment into releasable</tspan></text>
      </g>
    </g>
  </g>
</svg>
