<?xml version="1.0" encoding="UTF-8" standalone="no"?>
<!-- Created with Inkscape (http://www.inkscape.org/) -->

<svg
   version="1.1"
   id="svg2"
   width="816"
   height="1056"
   viewBox="0 0 816 1056"
   sodipodi:docname="clean_arch.pdf"
   xmlns:inkscape="http://www.inkscape.org/namespaces/inkscape"
   xmlns:sodipodi="http://sodipodi.sourceforge.net/DTD/sodipodi-0.dtd"
   xmlns="http://www.w3.org/2000/svg"
   xmlns:svg="http://www.w3.org/2000/svg">
  <defs
     id="defs6">
    <clipPath
       clipPathUnits="userSpaceOnUse"
       id="clipPath18">
      <path
         d="m 696,0 h 696 V 1056 H 696 V 0"
         clip-rule="evenodd"
         id="path16" />
    </clipPath>
    <clipPath
       clipPathUnits="userSpaceOnUse"
       id="clipPath28">
      <path
         d="m 696,66 h 696 V 996 H 696 V 66"
         clip-rule="evenodd"
         id="path26" />
    </clipPath>
  </defs>
  <sodipodi:namedview
     id="namedview4"
     pagecolor="#ffffff"
     bordercolor="#000000"
     borderopacity="0.25"
     inkscape:showpageshadow="2"
     inkscape:pageopacity="0.0"
     inkscape:pagecheckerboard="0"
     inkscape:deskcolor="#d1d1d1" />
  <g
     id="g8"
     inkscape:groupmode="layer"
     inkscape:label="clean_arch"
     transform="translate(59.999999,2.64e-5)">
    <g
       id="g10" />
    <g
       id="g12"
       transform="translate(-696)">
      <g
         id="g14"
         clip-path="url(#clipPath18)">
        <g
           id="g20" />
      </g>
    </g>
    <g
       id="g22"
       transform="translate(-696)">
      <g
         id="g24"
         clip-path="url(#clipPath28)">
        <text
           xml:space="preserve"
           transform="translate(696,83)"
           style="font-variant:normal;font-weight:normal;font-size:20px;font-family:'Times New Roman';-inkscape-font-specification:TimesNewRomanPSMT;writing-mode:lr-tb;fill:#000000;fill-opacity:1;fill-rule:nonzero;stroke:none"
           id="text32"><tspan
             x="0 10 19 27 32 40 45 50 60 69 74 79 88 97 103 110 115 125 134 141 150 155 164 173 178 187 194 203 208 213 219 229 235 241 251 266 271 276 285 294 299 313 322 332 341 350 360 369 378 387 396 401 414 423 429 438 443 448 453 462 471 480 485 494 501 510 515 525 534 541 550 555 565 574 579 588 594 600 609 619 624 633 642"
             y="0"
             sodipodi:role="line"
             id="tspan30">Tests, by their very nature, follow the Dependency Rule; they are very detailed and</tspan></text>
        <text
           xml:space="preserve"
           transform="translate(696,106)"
           style="font-variant:normal;font-weight:normal;font-size:20px;font-family:'Times New Roman';-inkscape-font-specification:TimesNewRomanPSMT;writing-mode:lr-tb;fill:#000000;fill-opacity:1;fill-rule:nonzero;stroke:none"
           id="text36"><tspan
             x="0 9 19 28 37 44 53 58 67 72 77 86 95 105 110 115 124 133 142 147 156 162 177 186 195 203 208 218 227 237 246 255 265 270 276 285 300 309 316 326 331 336 346 361 370 377 387 392 397 406 415 420 429 439 449 458 463 473 482 488 497 506 511 516 525 533 538 547 557 562 567 573 582 587 593 602 611 616 621 626 635 645 654 659 668 677"
             y="0"
             sodipodi:role="line"
             id="tspan34">concrete; and they always depend inward toward the code being tested. In fact, you can</tspan></text>
        <text
           xml:space="preserve"
           transform="translate(696,129)"
           style="font-variant:normal;font-weight:normal;font-size:20px;font-family:'Times New Roman';-inkscape-font-specification:TimesNewRomanPSMT;writing-mode:lr-tb;fill:#000000;fill-opacity:1;fill-rule:nonzero;stroke:none"
           id="text40"><tspan
             x="0 5 14 20 29 38 43 53 59 64 69 78 87 92 97 106 114 119 127 132 141 149 154 159 168 177 182 192 201 206 215 222 236 246 254 259 264 273 279 286 295 301 310 315 321 330 335 340 349 358 363 372 379 388 397 403 408 417 426 431 440 447 456 461 466 480 490 495 504 510 519 528 533 548 554 559 568 574 583 588 593 602 611 616 624 633 641 646 655"
             y="0"
             sodipodi:role="line"
             id="tspan38">think of the tests as the outermost circle in the architecture. Nothing within the system</tspan></text>
        <text
           xml:space="preserve"
           transform="translate(696,152)"
           style="font-variant:normal;font-weight:normal;font-size:20px;font-family:'Times New Roman';-inkscape-font-specification:TimesNewRomanPSMT;writing-mode:lr-tb;fill:#000000;fill-opacity:1;fill-rule:nonzero;stroke:none"
           id="text44"><tspan
             x="0 10 19 29 38 47 57 65 70 80 89 94 99 108 117 122 127 136 144 149 157 162 167 176 185 195 200 205 214 223 228 233 242 250 255 263 268 277 283 298 307 316 324 329 339 348 358 367 376 386 391 397 406 421 430 437 447 452 462 471 476 481 490 499 504 513 523 537 547 557 566 575 584 589 597 602 612 618 623 628 637"
             y="0"
             sodipodi:role="line"
             id="tspan42">depends on the tests, and the tests always depend inward on the components of the</tspan></text>
        <text
           xml:space="preserve"
           transform="translate(696,175)"
           style="font-variant:normal;font-weight:normal;font-size:20px;font-family:'Times New Roman';-inkscape-font-specification:TimesNewRomanPSMT;writing-mode:lr-tb;fill:#000000;fill-opacity:1;fill-rule:nonzero;stroke:none"
           id="text48"><tspan
             x="0 8 17 25 30 39 53"
             y="0"
             sodipodi:role="line"
             id="tspan46">system.</tspan></text>
        <text
           xml:space="preserve"
           transform="translate(696,218)"
           style="font-variant:normal;font-weight:normal;font-size:20px;font-family:'Times New Roman';-inkscape-font-specification:TimesNewRomanPSMT;writing-mode:lr-tb;fill:#000000;fill-opacity:1;fill-rule:nonzero;stroke:none"
           id="text52"><tspan
             x="0 10 19 27 32 40 45 54 61 70 75 84 90 98 108 113 119 128 138 147 157 166 175 185 194 203 208 214 223 228 238 247 257 263 273 282 291 301 307 316 321 326 332 341 346 352 361 370 375 380 385 399 409 417 422 427 437 443 448 453 462 471 476 481 487 501 510 515 520 529 538 547 552 561 568 577 582 592 601 611 617 627 636 645 655 660 666"
             y="0"
             sodipodi:role="line"
             id="tspan50">Tests are also independently deployable. In fact, most of the time they are deployed in</tspan></text>
        <text
           xml:space="preserve"
           transform="translate(696,241)"
           style="font-variant:normal;font-weight:normal;font-size:20px;font-family:'Times New Roman';-inkscape-font-specification:TimesNewRomanPSMT;writing-mode:lr-tb;fill:#000000;fill-opacity:1;fill-rule:nonzero;stroke:none"
           id="text56"><tspan
             x="0 5 14 22 27 32 40 49 57 62 71 85 93 98 103 110 119 124 133 142 149 154 159 168 177 186 191 197 206 211 221 228 238 248 257 266 271 277 287 296 301 309 318 326 331 340 354 362 367 372 383 393 398 403 412 422 431 440 445 451 460 465 473 482 490 495 504 518 526 531 546 555 564 571 580 585 591 600 610 619 629 638 647 657 666 675"
             y="0"
             sodipodi:role="line"
             id="tspan54">test systems, rather than in production systems. So, even in systems where independent</tspan></text>
        <text
           xml:space="preserve"
           transform="translate(696,264)"
           style="font-variant:normal;font-weight:normal;font-size:20px;font-family:'Times New Roman';-inkscape-font-specification:TimesNewRomanPSMT;writing-mode:lr-tb;fill:#000000;fill-opacity:1;fill-rule:nonzero;stroke:none"
           id="text60"><tspan
             x="0 10 19 29 35 45 54 68 77 86 91 96 102 110 115 124 134 139 144 154 159 168 177 184 199 205 213 222 227 236 245 254 263 271 279 288 295 303 308 313 318 327 336 341 346 355 363 368 376 381 396 402 408 414 419 427 432 438 444 450 455 465 474 479 485 494 504 513 523 532 541 551 560 569 574 580 589 594 604 613 623 629 639 648 657 667"
             y="0"
             sodipodi:role="line"
             id="tspan58">deployment is not otherwise necessary, the tests will still be independently deployed.</tspan></text>
        <text
           xml:space="preserve"
           transform="translate(696,307)"
           style="font-variant:normal;font-weight:normal;font-size:20px;font-family:'Times New Roman';-inkscape-font-specification:TimesNewRomanPSMT;writing-mode:lr-tb;fill:#000000;fill-opacity:1;fill-rule:nonzero;stroke:none"
           id="text64"><tspan
             x="0 10 19 27 32 40 45 54 61 70 75 80 89 98 103 117 127 135 140 145 151 159 169 175 184 189 198 208 213 221 230 238 243 252 266 271 280 290 304 314 324 333 342 351 356 361 366 378 387 396 405 410 419 426 435 440 449 459 464 469 478 487 496 505 513 521 530 537 546 551 557 567 574 579 587 596 604 609 618"
             y="0"
             sodipodi:role="line"
             id="tspan62">Tests are the most isolated system component. They are not necessary for system</tspan></text>
        <text
           xml:space="preserve"
           transform="translate(696,330)"
           style="font-variant:normal;font-weight:normal;font-size:20px;font-family:'Times New Roman';-inkscape-font-specification:TimesNewRomanPSMT;writing-mode:lr-tb;fill:#000000;fill-opacity:1;fill-rule:nonzero;stroke:none"
           id="text68"><tspan
             x="0 10 20 29 36 45 50 56 66 75 80 85 99 109 114 123 131 140 147 152 162 171 181 190 199 209 217 222 232 241 246 251 260 269 283 288 293 305 314 323 329 336 341 348 358 364 373 378 384 392 397 402 412 417 425 434 444 454 464 471 476 481 491 500 510 519 525 535 545 559 568 577 582 587 592 601 611"
             y="0"
             sodipodi:role="line"
             id="tspan66">operation. No user depends on them. Their role is to support development, not</tspan></text>
        <text
           xml:space="preserve"
           transform="translate(696,353)"
           style="font-variant:normal;font-weight:normal;font-size:20px;font-family:'Times New Roman';-inkscape-font-specification:TimesNewRomanPSMT;writing-mode:lr-tb;fill:#000000;fill-opacity:1;fill-rule:nonzero;stroke:none"
           id="text72"><tspan
             x="0 10 20 29 36 45 50 56 66 75 80 85 99 108 118 123 132 141 146 151 156 161 170 179 188 193 202 209 218 223 232 242 247 253 262 270 278 283 292 297 305 314 322 327 336 350 355 364 374 388 398 408 417 426 435 440 445 450 459 468 477 482 491 500 509 514 524 529 538 547 553 558 563 569 578 583 589 598 607 612 617 622 628 637 642 656 665 674"
             y="0"
             sodipodi:role="line"
             id="tspan70">operation. And yet, they are no less a system component than any other. In fact, in many</tspan></text>
        <text
           xml:space="preserve"
           transform="translate(696,376)"
           style="font-variant:normal;font-weight:normal;font-size:20px;font-family:'Times New Roman';-inkscape-font-specification:TimesNewRomanPSMT;writing-mode:lr-tb;fill:#000000;fill-opacity:1;fill-rule:nonzero;stroke:none"
           id="text76"><tspan
             x="0 15 24 33 41 46 51 60 69 78 83 90 99 109 116 125 133 142 151 156 161 166 175 184 189 203 213 223 232 238 243 248 257 266 271 276 285 291 297 302 312 317 326 335 342 347 355 364 372 377 386 400 405 414 424 438 448 458 467 476 485 490 498 503 511 520 530 539 545 555 560 566 576 582 588 598 612"
             y="0"
             sodipodi:role="line"
             id="tspan74">ways they represent the model that all other system components should follow.</tspan></text>
        <text
           xml:space="preserve"
           transform="translate(696,446)"
           style="font-variant:normal;font-weight:bold;font-size:33px;font-family:'Times New Roman';-inkscape-font-specification:TimesNewRomanPS-BoldMT;writing-mode:lr-tb;fill:#000000;fill-opacity:1;fill-rule:nonzero;stroke:none"
           id="text80"><tspan
             x="0"
             y="0"
             id="tspan78">D</tspan></text>
        <text
           xml:space="preserve"
           transform="translate(720,446)"
           style="font-variant:normal;font-weight:bold;font-size:33px;font-family:'Times New Roman';-inkscape-font-specification:TimesNewRomanPS-BoldMT;writing-mode:lr-tb;fill:#000000;fill-opacity:1;fill-rule:nonzero;stroke:none"
           id="text84"><tspan
             x="0 22 40 53 78 102 110 130 156"
             y="0"
             sodipodi:role="line"
             id="tspan82">ESIGN FOR</tspan></text>
        <text
           xml:space="preserve"
           transform="translate(908,446)"
           style="font-variant:normal;font-weight:bold;font-size:33px;font-family:'Times New Roman';-inkscape-font-specification:TimesNewRomanPS-BoldMT;writing-mode:lr-tb;fill:#000000;fill-opacity:1;fill-rule:nonzero;stroke:none"
           id="text88"><tspan
             x="0"
             y="0"
             id="tspan86">T</tspan></text>
        <text
           xml:space="preserve"
           transform="translate(930,446)"
           style="font-variant:normal;font-weight:bold;font-size:33px;font-family:'Times New Roman';-inkscape-font-specification:TimesNewRomanPS-BoldMT;writing-mode:lr-tb;fill:#000000;fill-opacity:1;fill-rule:nonzero;stroke:none"
           id="text92"><tspan
             x="0 22 40 59 82 104 117 139 152 174"
             y="0"
             sodipodi:role="line"
             id="tspan90">ESTABILITY</tspan></text>
        <text
           xml:space="preserve"
           transform="translate(696,491)"
           style="font-variant:normal;font-weight:normal;font-size:20px;font-family:'Times New Roman';-inkscape-font-specification:TimesNewRomanPSMT;writing-mode:lr-tb;fill:#000000;fill-opacity:1;fill-rule:nonzero;stroke:none"
           id="text96"><tspan
             x="0 12 21 30 35 44 53 58 65 74 88 97 102 108 116 126 132 141 146 152 162 171 176 186 192 197 202 211 220 225 230 239 247 252 260 265 270 279 289 303 313 319 328 337 347 352 367 373 378 387 392 397 406 415 420 426 435 444 449 454 459 468 477 482 487 492 501 510 519 524 533 540 549 554 563 573 578 583 592 600 609 618 624 630"
             y="0"
             sodipodi:role="line"
             id="tspan94">The extreme isolation of the tests, combined with the fact that they are not usually</tspan></text>
        <text
           xml:space="preserve"
           transform="translate(696,514)"
           style="font-variant:normal;font-weight:normal;font-size:20px;font-family:'Times New Roman';-inkscape-font-specification:TimesNewRomanPSMT;writing-mode:lr-tb;fill:#000000;fill-opacity:1;fill-rule:nonzero;stroke:none"
           id="text100"><tspan
             x="0 10 19 29 35 45 54 63 73 78 83 93 99 104 113 122 127 136 145 154 162 171 179 184 194 203 213 222 228 238 248 257 264 272 277 282 292 297 302 311 317 326 335 340 345 354 363 368 373 378 387 395 400 408 413 419 428 434 440 445 455 464 469 477 483 493 502 507 517 523 528 533 542 551 556 566 575 583 589 598 607 612 622 628 633 638 647"
             y="0"
             sodipodi:role="line"
             id="tspan98">deployed, often causes developers to think that tests fall outside of the design of the</tspan></text>
        <text
           xml:space="preserve"
           transform="translate(696,537)"
           style="font-variant:normal;font-weight:normal;font-size:20px;font-family:'Times New Roman';-inkscape-font-specification:TimesNewRomanPSMT;writing-mode:lr-tb;fill:#000000;fill-opacity:1;fill-rule:nonzero;stroke:none"
           id="text104"><tspan
             x="0 8 17 25 30 39 53 58 63 75 84 90 98 103 109 117 122 131 136 145 154 159 168 176 181 188 198 208 217 223 232 237 247 257 263 272 277 282 292 298 303 313 319 328 342 347 352 362 371 379 384 392 397 402 411 420 425 430 439 446 455 460 469 479 484 489 504 513 519 525 530 536 545 550 559 568 575 584 589 598 608 613 619 628 633 643 648 653 662"
             y="0"
             sodipodi:role="line"
             id="tspan102">system. This is a catastrophic point of view. Tests that are not well integrated into the</tspan></text>
        <text
           xml:space="preserve"
           transform="translate(696,560)"
           style="font-variant:normal;font-weight:normal;font-size:20px;font-family:'Times New Roman';-inkscape-font-specification:TimesNewRomanPSMT;writing-mode:lr-tb;fill:#000000;fill-opacity:1;fill-rule:nonzero;stroke:none"
           id="text108"><tspan
             x="0 10 19 27 33 42 51 56 66 72 77 82 91 100 105 113 122 130 135 144 158 163 168 177 186 196 201 206 216 221 231 240 245 251 258 267 276 282 288 297 302 307 316 325 335 340 345 354 363 372 377 391 400 409 418 423 428 437 446 451 459 468 476 481 490 504 509 516 522 531 537 547 552 561 570 580 585 595 601 607 613 619 628 637 643 648 653 658"
             y="0"
             sodipodi:role="line"
             id="tspan106">design of the system tend to be fragile, and they make the system rigid and difficult to</tspan></text>
        <text
           xml:space="preserve"
           transform="translate(696,583)"
           style="font-variant:normal;font-weight:normal;font-size:20px;font-family:'Times New Roman';-inkscape-font-specification:TimesNewRomanPSMT;writing-mode:lr-tb;fill:#000000;fill-opacity:1;fill-rule:nonzero;stroke:none"
           id="text112"><tspan
             x="0 9 18 27 36 45 54"
             y="0"
             sodipodi:role="line"
             id="tspan110">change.</tspan></text>
        <text
           xml:space="preserve"
           transform="translate(696,626)"
           style="font-variant:normal;font-weight:normal;font-size:20px;font-family:'Times New Roman';-inkscape-font-specification:TimesNewRomanPSMT;writing-mode:lr-tb;fill:#000000;fill-opacity:1;fill-rule:nonzero;stroke:none"
           id="text116"><tspan
             x="0 12 21 30 35 41 49 57 66 75 80 85 95 101 106 115 125 134 141 149 158 163 168 174 182 187 196 206 215 225 231 237 246 255 260 265 275 284 292 297 305 310 315 324 333 338 343 352 359 368 373 381 386 393 403 412 421 427 436 441 450 460 469 479 485 494 504 509 514 524 529 534 543 552 557 565 574 582 587 596 610 615 629 638 646"
             y="0"
             sodipodi:role="line"
             id="tspan114">The issue, of course, is coupling. Tests that are strongly coupled to the system must</tspan></text>
        <text
           xml:space="preserve"
           transform="translate(696,649)"
           style="font-variant:normal;font-weight:normal;font-size:20px;font-family:'Times New Roman';-inkscape-font-specification:TimesNewRomanPSMT;writing-mode:lr-tb;fill:#000000;fill-opacity:1;fill-rule:nonzero;stroke:none"
           id="text120"><tspan
             x="0 9 18 27 36 45 54 59 68 74 84 93 102 107 122 128 133 142 147 152 161 170 175 183 192 200 205 214 228 233 238 250 260 269 278 283 288 297 306 311 325 335 343 348 353 358 365 371 381 387 396 402 407 416 425 434 443 452 461 466 471 481 486 495 500 508 517 525 530 539 553 558 567 577 591 601 611 620 629 638 643 648 657 666"
             y="0"
             sodipodi:role="line"
             id="tspan118">change along with the system. Even the most trivial change to a system component can</tspan></text>
        <text
           xml:space="preserve"
           transform="translate(696,672)"
           style="font-variant:normal;font-weight:normal;font-size:20px;font-family:'Times New Roman';-inkscape-font-specification:TimesNewRomanPSMT;writing-mode:lr-tb;fill:#000000;fill-opacity:1;fill-rule:nonzero;stroke:none"
           id="text124"><tspan
             x="0 9 18 27 35 44 49 63 72 81 90 95 104 114 123 133 139 148 158 163 168 177 185 190 198 203 208 218 223 233 240 249 258 267 272 282 289 294 301 310 320 329 335 342 351 356 365 374 383 392 401 410 418"
             y="0"
             sodipodi:role="line"
             id="tspan122">cause many coupled tests to break or require changes.</tspan></text>
        <text
           xml:space="preserve"
           transform="translate(696,715)"
           style="font-variant:normal;font-weight:normal;font-size:20px;font-family:'Times New Roman';-inkscape-font-specification:TimesNewRomanPSMT;writing-mode:lr-tb;fill:#000000;fill-opacity:1;fill-rule:nonzero;stroke:none"
           id="text128"><tspan
             x="0 12 21 27 35 40 48 54 59 68 77 82 88 98 107 112 121 130 139 144 154 163 172 182 196 205 210 219 228 237 242 251 256 261 274 283 292 301 310 319 327 332 337 347 352 361 371 385 399 409 418 423 431 440 448 453 462 476 481 490 500 514 524 534 543 552 561 566 574 579 588 597 606 611 620 629 638 646"
             y="0"
             sodipodi:role="line"
             id="tspan126">This situation can become acute. Changes to common system components can cause</tspan></text>
        <text
           xml:space="preserve"
           transform="translate(696,738)"
           style="font-variant:normal;font-weight:normal;font-size:20px;font-family:'Times New Roman';-inkscape-font-specification:TimesNewRomanPSMT;writing-mode:lr-tb;fill:#000000;fill-opacity:1;fill-rule:nonzero;stroke:none"
           id="text132"><tspan
             x="0 9 18 27 37 44 53 63 71 76 81 91 98 103 112 122 131 140 145 150 159 169 178 186 195 204 214 222 227 232 242 248 253 258 267 275 280 288 293 298 308 313 323 330 339 348 357 362 367 379 388 394 402 407 413 421 426 435 444 454 469 478 483 492 500 505 510 519 528"
             y="0"
             sodipodi:role="line"
             id="tspan130">hundreds, or even thousands, of tests to break. This is known as the </tspan></text>
        <text
           xml:space="preserve"
           transform="translate(1229,738)"
           style="font-variant:normal;font-weight:normal;font-size:20px;font-family:'Times New Roman';-inkscape-font-specification:TimesNewRomanPSMT;writing-mode:lr-tb;fill:#000000;fill-opacity:1;fill-rule:nonzero;stroke:none"
           id="text136"><tspan
             x="0 11 18 27 36 42 48 57 62 72 81 89 94"
             y="0"
             sodipodi:role="line"
             id="tspan134">Fragile Tests</tspan></text>
        <text
           xml:space="preserve"
           transform="translate(696,761)"
           style="font-variant:normal;font-weight:normal;font-size:20px;font-family:'Times New Roman';-inkscape-font-specification:TimesNewRomanPSMT;writing-mode:lr-tb;fill:#000000;fill-opacity:1;fill-rule:nonzero;stroke:none"
           id="text140"><tspan
             x="0 11 18 28 38 44 53"
             y="0"
             sodipodi:role="line"
             id="tspan138">Problem</tspan></text>
        <text
           xml:space="preserve"
           transform="translate(763,761)"
           style="font-variant:normal;font-weight:normal;font-size:20px;font-family:'Times New Roman';-inkscape-font-specification:TimesNewRomanPSMT;writing-mode:lr-tb;fill:#000000;fill-opacity:1;fill-rule:nonzero;stroke:none"
           id="text144"><tspan
             x="0"
             y="0"
             id="tspan142">.</tspan></text>
        <text
           xml:space="preserve"
           transform="translate(696,804)"
           style="font-variant:normal;font-weight:normal;font-size:20px;font-family:'Times New Roman';-inkscape-font-specification:TimesNewRomanPSMT;writing-mode:lr-tb;fill:#000000;fill-opacity:1;fill-rule:nonzero;stroke:none"
           id="text148"><tspan
             x="0 6 11 16 22 30 35 44 54 59 64 73 82 89 99 104 109 119 124 132 141 150 155 164 174 189 194 199 208 214 222 227 236 245 254 259 268 277 287 297 306 315 320 325 331 345 354 363 369 378 387 392 397 403 413 420 425 434 443 452 466 476 482 491 496 501 510 515 523 532 538 543 552 557 567 573 578 583 592 600 605 613 618 623 632 641 646 651 660 668"
             y="0"
             sodipodi:role="line"
             id="tspan146">It is not hard to see how this can happen. Imagine, for example, a suite of tests that use</tspan></text>
        <text
           xml:space="preserve"
           transform="translate(696,827)"
           style="font-variant:normal;font-weight:normal;font-size:20px;font-family:'Times New Roman';-inkscape-font-specification:TimesNewRomanPSMT;writing-mode:lr-tb;fill:#000000;fill-opacity:1;fill-rule:nonzero;stroke:none"
           id="text152"><tspan
             x="0 5 14 23 28 42 55 61 66 71 81 86 96 105 112 118 124 133 138 148 157 165 171 180 189 197 205 210 217 226 232 241 249 254 259 270 279 288 297 302 307 316 324 329 337 342 356 365 374 379 387 392 401 408 413 418 428 437 442 447 456 465 470 476 486 495 501 510 515 523 532 539 548 557 566 571 580 589 599 604 609 618 627"
             y="0"
             sodipodi:role="line"
             id="tspan150">the GUI to verify business rules. Such tests may start on the login screen and then</tspan></text>
        <text
           xml:space="preserve"
           transform="translate(696,850)"
           style="font-variant:normal;font-weight:normal;font-size:20px;font-family:'Times New Roman';-inkscape-font-specification:TimesNewRomanPSMT;writing-mode:lr-tb;fill:#000000;fill-opacity:1;fill-rule:nonzero;stroke:none"
           id="text156"><tspan
             x="0 9 18 28 34 43 52 57 66 71 76 85 92 102 111 120 129 134 139 148 157 162 172 181 190 199 204 212 217 224 233 242 247 256 263 272 277 286 295 300 306 312 317 322 331 340 349 354 363 372 381 386 395 404 413 422 431 436 446 455 462 467 473 482 491 497 506 513 518 528 537 545 551 560 569 577 585 590 597 606 612 621 629 634 639 653 662"
             y="0"
             sodipodi:role="line"
             id="tspan154">navigate through the page structure until they can check particular business rules. Any</tspan></text>
        <text
           xml:space="preserve"
           transform="translate(696,873)"
           style="font-variant:normal;font-weight:normal;font-size:20px;font-family:'Times New Roman';-inkscape-font-specification:TimesNewRomanPSMT;writing-mode:lr-tb;fill:#000000;fill-opacity:1;fill-rule:nonzero;stroke:none"
           id="text160"><tspan
             x="0 9 18 27 36 45 54 59 64 74 79 84 93 102 107 113 123 132 138 147 152 162 171 180 189 194 199 209 216 221 226 235 244 249 258 267 277 283 292 301 306 312 322 331 336 344 349 356 365 374 379 388 395 404 409 414 423 432 441 446 455 464 473 481 490 495 504 513 518 527 536 546 553 567 577 586 594 599 608 617 631 641 650 657 662 672"
             y="0"
             sodipodi:role="line"
             id="tspan158">change to the login page, or the navigation structure, can cause an enormous number of</tspan></text>
        <text
           xml:space="preserve"
           transform="translate(696,896)"
           style="font-variant:normal;font-weight:normal;font-size:20px;font-family:'Times New Roman';-inkscape-font-specification:TimesNewRomanPSMT;writing-mode:lr-tb;fill:#000000;fill-opacity:1;fill-rule:nonzero;stroke:none"
           id="text164"><tspan
             x="0 5 14 22 27 35 40 45 55 60 70 77 86 95 104"
             y="0"
             sodipodi:role="line"
             id="tspan162">tests to break.</tspan></text>
        <text
           xml:space="preserve"
           transform="translate(696,939)"
           style="font-variant:normal;font-weight:normal;font-size:20px;font-family:'Times New Roman';-inkscape-font-specification:TimesNewRomanPSMT;writing-mode:lr-tb;fill:#000000;fill-opacity:1;fill-rule:nonzero;stroke:none"
           id="text168"><tspan
             x="0 11 18 27 36 42 48 57 62 67 76 84 89 97 102 112 118 123 132 141 146 155 164 174 183 188 193 202 211 216 226 235 242 252 261 268 276 285 290 299 305 311 320 329 334 339 349 355 360 374 383 392 398 407 416 421 426 435 444 449 457 466 474 479 488 502 507 514 520 529 535 545 550 555 573 582 591 600 605 615 624 634 643 649 659 669 678 685"
             y="0"
             sodipodi:role="line"
             id="tspan166">Fragile tests often have the perverse effect of making the system rigid. When developers</tspan></text>
        <text
           xml:space="preserve"
           transform="translate(696,962)"
           style="font-variant:normal;font-weight:normal;font-size:20px;font-family:'Times New Roman';-inkscape-font-specification:TimesNewRomanPSMT;writing-mode:lr-tb;fill:#000000;fill-opacity:1;fill-rule:nonzero;stroke:none"
           id="text172"><tspan
             x="0 7 16 25 31 37 45 54 59 64 73 82 87 92 100 106 120 130 136 145 150 159 168 177 186 195 204 212 217 222 232 237 242 251 260 265 273 282 290 295 304 318 323 332 341 350 355 364 373 382 390 399 404 418 427 435 443 449 459 468 473 478 487 495 500 505 511 520 526 532 541 548 557 565 570 575 580 589 598 607 612 626 635 644 649 656 665 673 679 687"
             y="0"
             sodipodi:role="line"
             id="tspan170">realize that simple changes to the system can cause massive test failures, they may resist</tspan></text>
        <text
           xml:space="preserve"
           transform="translate(696,985)"
           style="font-variant:normal;font-weight:normal;font-size:20px;font-family:'Times New Roman';-inkscape-font-specification:TimesNewRomanPSMT;writing-mode:lr-tb;fill:#000000;fill-opacity:1;fill-rule:nonzero;stroke:none"
           id="text176"><tspan
             x="0 14 23 32 38 47 56 61 66 75 85 93 102 107 116 125 134 143 152 161 169 174 179 190 200 207 212 221 230 239 253 263 269 278 283 288 294 308 317 326 332 341 350 355 360 369 378 383 392 402 411 421 430 437 445 454 459 465 475 484 489 499 508 513 528 537 546 555 560 565 574 583 588 598 607 617 626 632 642 652 666 675 684"
             y="0"
             sodipodi:role="line"
             id="tspan174">making those changes. For example, imagine the conversation between the development</tspan></text>
      </g>
    </g>
  </g>
</svg>
