<?xml version="1.0" encoding="UTF-8" standalone="no"?>
<!-- Created with Inkscape (http://www.inkscape.org/) -->

<svg
   version="1.1"
   id="svg2"
   width="816"
   height="1056"
   viewBox="0 0 816 1056"
   sodipodi:docname="clean_arch.pdf"
   xmlns:inkscape="http://www.inkscape.org/namespaces/inkscape"
   xmlns:sodipodi="http://sodipodi.sourceforge.net/DTD/sodipodi-0.dtd"
   xmlns="http://www.w3.org/2000/svg"
   xmlns:svg="http://www.w3.org/2000/svg">
  <defs
     id="defs6">
    <clipPath
       clipPathUnits="userSpaceOnUse"
       id="clipPath18">
      <path
         d="m 12528,0 h 696 v 1056 h -696 V 0"
         clip-rule="evenodd"
         id="path16" />
    </clipPath>
    <clipPath
       clipPathUnits="userSpaceOnUse"
       id="clipPath28">
      <path
         d="m 12528,66 h 696 v 930 h -696 V 66"
         clip-rule="evenodd"
         id="path26" />
    </clipPath>
  </defs>
  <sodipodi:namedview
     id="namedview4"
     pagecolor="#ffffff"
     bordercolor="#000000"
     borderopacity="0.25"
     inkscape:showpageshadow="2"
     inkscape:pageopacity="0.0"
     inkscape:pagecheckerboard="0"
     inkscape:deskcolor="#d1d1d1" />
  <g
     id="g8"
     inkscape:groupmode="layer"
     inkscape:label="clean_arch"
     transform="translate(59.999999,2.64e-5)">
    <g
       id="g10" />
    <g
       id="g12"
       transform="translate(-12528)">
      <g
         id="g14"
         clip-path="url(#clipPath18)">
        <g
           id="g20" />
      </g>
    </g>
    <g
       id="g22"
       transform="translate(-12528)">
      <g
         id="g24"
         clip-path="url(#clipPath28)">
        <text
           xml:space="preserve"
           transform="translate(12528,83.5)"
           style="font-variant:normal;font-weight:normal;font-size:20px;font-family:'Times New Roman';-inkscape-font-specification:TimesNewRomanPSMT;writing-mode:lr-tb;fill:#000000;fill-opacity:1;fill-rule:nonzero;stroke:none"
           id="text32"><tspan
             x="0 8 13 22 28 34 39 49 55 60 70 77 87 96 103 112 126 140 149 156 164 169 184 193 203 208 217 224 233 238 247 256 261 267 277 286 292 301 306 320 329 335 344 349 358 364 373 379 388 397 402 407 416 425 430 440 446 456 461 469 478 486 491 500 514 519 524 538 547 554 563 569 577 582 588 597 605 610 615 625 634"
             y="0"
             sodipodi:role="line"
             id="tspan30">staff of programmers who are actively maintaining the old system. Here’s just one</tspan></text>
        <text
           xml:space="preserve"
           transform="translate(12528,107)"
           style="font-variant:normal;font-weight:normal;font-size:20px;font-family:'Times New Roman';-inkscape-font-specification:TimesNewRomanPSMT;writing-mode:lr-tb;fill:#000000;fill-opacity:1;fill-rule:nonzero;stroke:none"
           id="text36"><tspan
             x="0 9 18 27 41 51 57 66 71 81 87 92 97 106 115 120 130 136 142 148 154 163 172 178 183 189 198 206 211 216 225 234 243 248 257 266 275 285 294 303 308 317 324 333 343"
             y="0"
             sodipodi:role="line"
             id="tspan34">example of the difficulties they encountered.</tspan></text>
        <text
           xml:space="preserve"
           transform="translate(12528,156)"
           style="font-variant:normal;font-weight:bold;font-size:23px;font-family:'Times New Roman';-inkscape-font-specification:TimesNewRomanPS-BoldMT;writing-mode:lr-tb;fill:#000000;fill-opacity:1;fill-rule:nonzero;stroke:none"
           id="text40"><tspan
             x="0"
             y="0"
             id="tspan38">E</tspan></text>
        <text
           xml:space="preserve"
           transform="translate(12543,156)"
           style="font-variant:normal;font-weight:bold;font-size:23px;font-family:'Times New Roman';-inkscape-font-specification:TimesNewRomanPS-BoldMT;writing-mode:lr-tb;fill:#000000;fill-opacity:1;fill-rule:nonzero;stroke:none"
           id="text44"><tspan
             x="0 17 34 52 67"
             y="0"
             sodipodi:role="line"
             id="tspan42">UROPE</tspan></text>
        <text
           xml:space="preserve"
           transform="translate(12528,199)"
           style="font-variant:normal;font-weight:normal;font-size:20px;font-family:'Times New Roman';-inkscape-font-specification:TimesNewRomanPSMT;writing-mode:lr-tb;fill:#000000;fill-opacity:1;fill-rule:nonzero;stroke:none"
           id="text48"><tspan
             x="0 14 19 24 33 43 53 62 67 72 77 86 95 100 108 117 131 140 145 150 156 170 179 184 189 198 207 212 217 222 231 240 245 256 270 283 288 303 312 320 325 335 344 350 359 368 373 380 389 399 408 416 422 431 440 449 459 464 470 479 484 497 502 507 512 521 530 535 544 554 568 578 587 596 605 610 618 623 632 639 644 653 663 668 673"
             y="0"
             sodipodi:role="line"
             id="tspan46">At about the same time that the SAC was being redesigned in C, the company started to</tspan></text>
        <text
           xml:space="preserve"
           transform="translate(12528,222)"
           style="font-variant:normal;font-weight:normal;font-size:20px;font-family:'Times New Roman';-inkscape-font-specification:TimesNewRomanPSMT;writing-mode:lr-tb;fill:#000000;fill-opacity:1;fill-rule:nonzero;stroke:none"
           id="text52"><tspan
             x="0 9 18 28 37 46 56 61 69 78 84 93 101 106 112 121 126 136 141 153 162 169 179 189 198 203 208 220 229 238 247 252 261 271 280 286 296 301 310 320 325 330 345 354 360 365 370 376 386 393 398 403 412 421 426 433 442 452 461 469 475 484 493 502 512 517 525 535 541 546 561 570 577 586 591 596 606 611 621"
             y="0"
             sodipodi:role="line"
             id="tspan50">expand sales into Europe. They could not wait for the redesigned software to be</tspan></text>
        <text
           xml:space="preserve"
           transform="translate(12528,245)"
           style="font-variant:normal;font-weight:normal;font-size:20px;font-family:'Times New Roman';-inkscape-font-specification:TimesNewRomanPSMT;writing-mode:lr-tb;fill:#000000;fill-opacity:1;fill-rule:nonzero;stroke:none"
           id="text56"><tspan
             x="0 6 12 21 27 35 44 53 63 68 73 81 91 96 106 112 117 126 136 145 152 160 169 174 179 184 193 202 211 216 226 235 245 251 261 270 279 289 294 299 308 317 322 332 338 348 353 370 380 390 400 405 413 422 430 435 444 458 466 471 477 486 491 501 506 518 527 534 544 554 563"
             y="0"
             sodipodi:role="line"
             id="tspan54">finished, so of course, they deployed the old M365 systems into Europe.</tspan></text>
        <text
           xml:space="preserve"
           transform="translate(12528,288)"
           style="font-variant:normal;font-weight:normal;font-size:20px;font-family:'Times New Roman';-inkscape-font-specification:TimesNewRomanPSMT;writing-mode:lr-tb;fill:#000000;fill-opacity:1;fill-rule:nonzero;stroke:none"
           id="text60"><tspan
             x="0 12 21 30 35 45 52 62 72 78 87 101 106 121 130 138 143 148 157 166 171 176 181 190 199 204 214 223 233 242 251 256 264 273 281 286 295 309 317 322 328 337 342 354 363 370 380 390 399 404 419 428 435 444 449 459 468 475 484 489 499 505 511 517 526 533 542 551 556 561 567 574 584 598 603 608 617 626 631 641 650 660 669"
             y="0"
             sodipodi:role="line"
             id="tspan58">The problem was that the phone systems in Europe were very different from the phone</tspan></text>
        <text
           xml:space="preserve"
           transform="translate(12528,311)"
           style="font-variant:normal;font-weight:normal;font-size:20px;font-family:'Times New Roman';-inkscape-font-specification:TimesNewRomanPSMT;writing-mode:lr-tb;fill:#000000;fill-opacity:1;fill-rule:nonzero;stroke:none"
           id="text64"><tspan
             x="0 8 17 25 30 39 53 61 66 72 81 86 91 100 109 114 127 136 142 147 156 166 171 182 187 196 201 210 218 223 228 240 249 258 263 273 280 289 298 307 313 321 330 335 341 351 360 365 375 381 386 391 400 409 414 423 430 439 445 450 455 464 473 483 488 498 504 509 514 523 532 537 547 556 563 572 581 590 599 606 615 624 630 639 647 652 667 676 683"
             y="0"
             sodipodi:role="line"
             id="tspan62">systems in the United States. The organization of the craft and of the bureaucracies were</tspan></text>
        <text
           xml:space="preserve"
           transform="translate(12528,334)"
           style="font-variant:normal;font-weight:normal;font-size:20px;font-family:'Times New Roman';-inkscape-font-specification:TimesNewRomanPSMT;writing-mode:lr-tb;fill:#000000;fill-opacity:1;fill-rule:nonzero;stroke:none"
           id="text68"><tspan
             x="0 10 16 22 28 37 44 53 62 67 72 81 89 94 109 118 124 130 135 140 151 161 166 176 185 194 199 209 215 220 230 239 246 251 261 270 278 283 288 298 305 315 324 331 340 354 368 377 384 392 397 412 421 429 434 442 451 460 465 470 475 485 490 495 504 513 518 531 540 546 551 560 570 575 589 595 604 613 623 633 647 652 657"
             y="0"
             sodipodi:role="line"
             id="tspan66">different as well. So one of our best programmers was sent to the United Kingdom to</tspan></text>
        <text
           xml:space="preserve"
           transform="translate(12528,357)"
           style="font-variant:normal;font-weight:normal;font-size:20px;font-family:'Times New Roman';-inkscape-font-specification:TimesNewRomanPSMT;writing-mode:lr-tb;fill:#000000;fill-opacity:1;fill-rule:nonzero;stroke:none"
           id="text72"><tspan
             x="0 6 15 24 34 39 48 53 58 67 76 90 95 105 111 116 129 134 148 153 158 168 177 187 196 202 212 222 231 238 246 251 256 266 271 285 295 305 311 317 326 331 336 345 354 359 370 384 397 402 410 420 426 431 446 455 462 471 476 481 491 496 506 515 524 530 535 550 556 561 570 575 584 590 596 601 606 615 624 632"
             y="0"
             sodipodi:role="line"
             id="tspan70">lead a team of U.K. developers to modify the SAC software to deal with all these</tspan></text>
        <text
           xml:space="preserve"
           transform="translate(12528,380)"
           style="font-variant:normal;font-weight:normal;font-size:20px;font-family:'Times New Roman';-inkscape-font-specification:TimesNewRomanPSMT;writing-mode:lr-tb;fill:#000000;fill-opacity:1;fill-rule:nonzero;stroke:none"
           id="text76"><tspan
             x="0 12 21 28 38 48 57 66 75 80 86 94 102 111 120 128"
             y="0"
             sodipodi:role="line"
             id="tspan74">European issues.</tspan></text>
        <text
           xml:space="preserve"
           transform="translate(12528,423)"
           style="font-variant:normal;font-weight:normal;font-size:20px;font-family:'Times New Roman';-inkscape-font-specification:TimesNewRomanPSMT;writing-mode:lr-tb;fill:#000000;fill-opacity:1;fill-rule:nonzero;stroke:none"
           id="text80"><tspan
             x="0 14 20 25 34 44 53 60 68 77 82 87 96 106 111 119 128 135 141 151 160 168 173 182 187 192 201 215 225 230 235 250 259 267 272 286 295 305 314 319 324 334 339 345 354 359 368 377 384 393 398 407 412 417 426 435 443 452 457 466 475 484 493 502 511 519 524 530 539 544 554 559 564 573 582 587 600 605 616 621 628 638 647 655 664"
             y="0"
             sodipodi:role="line"
             id="tspan78">Of course, no serious attempt was made to integrate these changes into the U.S.-based</tspan></text>
        <text
           xml:space="preserve"
           transform="translate(12528,446)"
           style="font-variant:normal;font-weight:normal;font-size:20px;font-family:'Times New Roman';-inkscape-font-specification:TimesNewRomanPSMT;writing-mode:lr-tb;fill:#000000;fill-opacity:1;fill-rule:nonzero;stroke:none"
           id="text84"><tspan
             x="0 8 18 24 29 44 53 60 69 74 79 91 100 106 114 119 134 143 151 156 162 172 181 190 195 205 214 220 230 237 246 251 260 269 274 289 299 306 315 323 328 342 351 361 370 375 381 386 391 397 406 415 423 429 439 445 454 459 464 474 479 484 491 500 509 517 531 537 542 547 553 562 569 578 587 592 601 611 621 630 635 645 654 662 671"
             y="0"
             sodipodi:role="line"
             id="tspan82">software. This was long before networks made it feasible to transmit large code bases</tspan></text>
        <text
           xml:space="preserve"
           transform="translate(12528,469)"
           style="font-variant:normal;font-weight:normal;font-size:20px;font-family:'Times New Roman';-inkscape-font-specification:TimesNewRomanPSMT;writing-mode:lr-tb;fill:#000000;fill-opacity:1;fill-rule:nonzero;stroke:none"
           id="text88"><tspan
             x="0 9 18 25 35 43 51 56 61 70 79 84 94 103 112 121 130 135 140 152 161 170 178 187 192 205 210 224 229 234 244 253 263 272 278 288 298 307 314 322 327 335 341 355 365 371 380 385 391 401 408 417 426 436 441 446 455 464 469 482 487 498 503 510 520 529 537 546 556 561 570 580 590 599 604 613 622"
             y="0"
             sodipodi:role="line"
             id="tspan86">across the ocean. These U.K. developers simply forked the U.S.-based code and</tspan></text>
        <text
           xml:space="preserve"
           transform="translate(12528,492)"
           style="font-variant:normal;font-weight:normal;font-size:20px;font-family:'Times New Roman';-inkscape-font-specification:TimesNewRomanPSMT;writing-mode:lr-tb;fill:#000000;fill-opacity:1;fill-rule:nonzero;stroke:none"
           id="text92"><tspan
             x="0 14 24 34 40 46 52 61 71 76 82 87 92 101 109 114 123 132 141 151 160 170"
             y="0"
             sodipodi:role="line"
             id="tspan90">modified it as needed.</tspan></text>
        <text
           xml:space="preserve"
           transform="translate(12528,535)"
           style="font-variant:normal;font-weight:normal;font-size:20px;font-family:'Times New Roman';-inkscape-font-specification:TimesNewRomanPSMT;writing-mode:lr-tb;fill:#000000;fill-opacity:1;fill-rule:nonzero;stroke:none"
           id="text96"><tspan
             x="0 12 21 27 35 40 45 55 61 66 75 85 94 101 109 118 123 128 137 146 155 163 172 182 187 197 203 209 215 221 230 239 245 250 256 265 273 278 283 296 305 314 322 327 342 351 358 367 372 378 388 397 406 416 421 431 440 445 455 465 470 479 484 492 498 508 517 525 530 540 546 551 556 565 574 579 593 598 604 613 622 627 633 642 647 652 661 670"
             y="0"
             sodipodi:role="line"
             id="tspan94">This, of course, caused difficulties. Bugs were found on both sides of the Atlantic that</tspan></text>
        <text
           xml:space="preserve"
           transform="translate(12528,558)"
           style="font-variant:normal;font-weight:normal;font-size:20px;font-family:'Times New Roman';-inkscape-font-specification:TimesNewRomanPSMT;writing-mode:lr-tb;fill:#000000;fill-opacity:1;fill-rule:nonzero;stroke:none"
           id="text100"><tspan
             x="0 9 18 27 37 46 56 61 68 77 87 96 102 109 114 124 133 138 143 152 161 166 176 181 190 199 206 211 219 225 235 244 249 254 267 276 281 286 291 300 309 314 328 338 348 357 363 372 380 385 394 403 413 418 427 436 445 454 463 472 482 487 495 501 510 519 525 531 537 546 555 564 569 575 583 588 593 601 611 616 622 627 632 647 656"
             y="0"
             sodipodi:role="line"
             id="tspan98">needed repair on the other side. But the modules had changed significantly, so it was</tspan></text>
        <text
           xml:space="preserve"
           transform="translate(12528,581)"
           style="font-variant:normal;font-weight:normal;font-size:20px;font-family:'Times New Roman';-inkscape-font-specification:TimesNewRomanPSMT;writing-mode:lr-tb;fill:#000000;fill-opacity:1;fill-rule:nonzero;stroke:none"
           id="text104"><tspan
             x="0 10 19 26 35 40 50 56 62 68 74 83 92 98 103 108 113 123 128 138 147 152 161 168 182 188 197 206 211 226 235 244 249 258 267 274 279 284 293 302 307 313 319 328 333 347 356 366 375 380 386 395 400 405 414 423 428 441 450 456 461 470 480 485 496 501 510 515 524 532 537 552 562 571 577 587 592 607 617 624 633 638 644 653 658 663 672"
             y="0"
             sodipodi:role="line"
             id="tspan102">very difficult to determine whether the fix made in the United States would work in the</tspan></text>
        <text
           xml:space="preserve"
           transform="translate(12528,604)"
           style="font-variant:normal;font-weight:normal;font-size:20px;font-family:'Times New Roman';-inkscape-font-specification:TimesNewRomanPSMT;writing-mode:lr-tb;fill:#000000;fill-opacity:1;fill-rule:nonzero;stroke:none"
           id="text108"><tspan
             x="0 13 22 28 33 42 52 57 71 77 86 95 105 115 129"
             y="0"
             sodipodi:role="line"
             id="tspan106">United Kingdom.</tspan></text>
        <text
           xml:space="preserve"
           transform="translate(12528,647)"
           style="font-variant:normal;font-weight:normal;font-size:20px;font-family:'Times New Roman';-inkscape-font-specification:TimesNewRomanPSMT;writing-mode:lr-tb;fill:#000000;fill-opacity:1;fill-rule:nonzero;stroke:none"
           id="text112"><tspan
             x="0 14 20 25 34 41 46 55 60 66 75 90 95 104 113 122 129 137 142 152 158 163 172 181 190 197 202 212 221 228 237 242 247 256 265 275 280 285 294 303 308 314 323 331 336 345 351 357 366 371 377 387 396 401 411 417 422 431 436 445 451 460 469 476 481 490 497 507 516 525 534 544 553 558 563 569 575 584 593 598 607 617 626 635 644 653 658 664 673"
             y="0"
             sodipodi:role="line"
             id="tspan110">After a few years of heartburn, and the installation of a high-throughput line connecting</tspan></text>
        <text
           xml:space="preserve"
           transform="translate(12528,670)"
           style="font-variant:normal;font-weight:normal;font-size:20px;font-family:'Times New Roman';-inkscape-font-specification:TimesNewRomanPSMT;writing-mode:lr-tb;fill:#000000;fill-opacity:1;fill-rule:nonzero;stroke:none"
           id="text116"><tspan
             x="0 5 14 23 28 41 46 57 62 67 76 85 95 100 113 118 132 137 142 152 158 164 170 179 188 196 201 206 215 220 228 237 244 250 260 269 277 282 291 296 301 310 324 334 339 344 359 368 376 381 395 404 414 423 428 433 443 448 454 463 468 477 486 493 502 507 516"
             y="0"
             sodipodi:role="line"
             id="tspan114">the U.S. and U.K. offices, a serious attempt was made to integrate </tspan></text>
        <text
           xml:space="preserve"
           transform="translate(13049,670)"
           style="font-variant:normal;font-weight:normal;font-size:20px;font-family:'Times New Roman';-inkscape-font-specification:TimesNewRomanPSMT;writing-mode:lr-tb;fill:#000000;fill-opacity:1;fill-rule:nonzero;stroke:none"
           id="text120"><tspan
             x="0 5 14 23 31 40 45 50 65 75 80 86 96 103 112 120 125 135 144 153"
             y="0"
             sodipodi:role="line"
             id="tspan118">these two forks back</tspan></text>
        <text
           xml:space="preserve"
           transform="translate(12528,693)"
           style="font-variant:normal;font-weight:normal;font-size:20px;font-family:'Times New Roman';-inkscape-font-specification:TimesNewRomanPSMT;writing-mode:lr-tb;fill:#000000;fill-opacity:1;fill-rule:nonzero;stroke:none"
           id="text124"><tspan
             x="0 5 15 24 33 38 47 56 63 68 77 86 95 101 110 115 120 134 143 152 158 167 176 181 186 195 204 209 219 225 231 237 246 253 262 271 280 289 297 302 311 316 330 339 344 349 358 365 370 380 386 391 400 410 419 425 431 440 449 456 465 470 476 486 495 500 505 517 526 532 540 545 554 560 566 576 583 588 593 599 608 614 620 629 639 644 649 658"
             y="0"
             sodipodi:role="line"
             id="tspan122">together again, making the differences a matter of configuration. This effort failed the</tspan></text>
        <text
           xml:space="preserve"
           transform="translate(12528,716)"
           style="font-variant:normal;font-weight:normal;font-size:20px;font-family:'Times New Roman';-inkscape-font-specification:TimesNewRomanPSMT;writing-mode:lr-tb;fill:#000000;fill-opacity:1;fill-rule:nonzero;stroke:none"
           id="text128"><tspan
             x="0 6 12 19 27 32 37 42 50 59 68 78 87 97 102 107 116 125 135 140 145 154 160 167 177 182 187 193 207 216 224 229 235 240 245 260 269 277 282 287 294 300 309 319 324 329 341 350 359 364 369 384 394 399 408 418 428 437 442 452 461 469 478 486 491 496 501 510 520 529 538 547 552 559 568 582 591 598 607 616 626 632"
             y="0"
             sodipodi:role="line"
             id="tspan126">first, second, and third times it was tried. The two code bases, though remarkably</tspan></text>
        <text
           xml:space="preserve"
           transform="translate(12528,739)"
           style="font-variant:normal;font-weight:normal;font-size:20px;font-family:'Times New Roman';-inkscape-font-specification:TimesNewRomanPSMT;writing-mode:lr-tb;fill:#000000;fill-opacity:1;fill-rule:nonzero;stroke:none"
           id="text132"><tspan
             x="0 8 14 28 34 40 49 55 60 65 80 89 96 105 110 118 123 129 135 141 146 151 161 171 176 186 192 198 204 213 220 229 238 243 248 253 263 268 275 284 290 299 304 313 322 329 338 343 352 372 381 389 399 408 417 423 432 438 444 453 458 464 473 478 483 492 501 506 513 522 532 538 548 554 563 568 577 586 595 604 613 619 628 637 642 656 665 672 681 690"
             y="0"
             sodipodi:role="line"
             id="tspan130">similar, were still too different to reintegrate—especially in the rapidly changing market</tspan></text>
        <text
           xml:space="preserve"
           transform="translate(12528,762)"
           style="font-variant:normal;font-weight:normal;font-size:20px;font-family:'Times New Roman';-inkscape-font-specification:TimesNewRomanPSMT;writing-mode:lr-tb;fill:#000000;fill-opacity:1;fill-rule:nonzero;stroke:none"
           id="text136"><tspan
             x="0 9 18 28 34 41 51 60 74 83 92 97 102 107 116 125 130 135 144 153 159 167 172 181 191 196 205 210 215 220 229 238 243 248 253 259 273 282"
             y="0"
             sodipodi:role="line"
             id="tspan134">environment that existed at that time.</tspan></text>
        <text
           xml:space="preserve"
           transform="translate(12528,805)"
           style="font-variant:normal;font-weight:normal;font-size:20px;font-family:'Times New Roman';-inkscape-font-specification:TimesNewRomanPSMT;writing-mode:lr-tb;fill:#000000;fill-opacity:1;fill-rule:nonzero;stroke:none"
           id="text140"><tspan
             x="0 17 26 35 44 59 68 74 80 89 94 99 104 113 122 127 136 147 153 162 171 178 183 193 202 211 225 230 239 244 249 256 265 271 280 289 294 299 309 314 321 330 345 352 358 363 372 377 386 396 405 412 421 426 435 441 450 459 464 470 479 484 497 502 511 520 530 535 548 562 568 582 587 592 599 608 617 623 629 637 646 656 661 666 675 684"
             y="0"
             sodipodi:role="line"
             id="tspan138">Meanwhile, the “Tiger Team,” trying to rewrite everything in C and UNIX, realized that</tspan></text>
        <text
           xml:space="preserve"
           transform="translate(12528,828)"
           style="font-variant:normal;font-weight:normal;font-size:20px;font-family:'Times New Roman';-inkscape-font-specification:TimesNewRomanPSMT;writing-mode:lr-tb;fill:#000000;fill-opacity:1;fill-rule:nonzero;stroke:none"
           id="text144"><tspan
             x="0 6 11 16 25 31 39 49 54 63 72 82 87 92 102 107 117 126 135 141 146 161 167 172 181 186 191 200 206 214 219 231 240 247 257 267 276 285 294 300 313 324 329 339 345 354 363 373 378 388 402 410 415 420 434 443 453 458 463 473 479 484 493 503 512 519 527 536 541 546 551 560 569 574 579 589 595 605 610 619 629 634 643 649 658 667 672 677"
             y="0"
             sodipodi:role="line"
             id="tspan142">it also had to deal with this European/US dichotomy. And, of course, that did nothing to</tspan></text>
        <text
           xml:space="preserve"
           transform="translate(12528,851)"
           style="font-variant:normal;font-weight:normal;font-size:20px;font-family:'Times New Roman';-inkscape-font-specification:TimesNewRomanPSMT;writing-mode:lr-tb;fill:#000000;fill-opacity:1;fill-rule:nonzero;stroke:none"
           id="text148"><tspan
             x="0 9 18 27 36 42 51 58 67 72 81 86 91 100 109 115 122 127 137 144 154 163 170 179 187 195"
             y="0"
             sodipodi:role="line"
             id="tspan146">accelerate their progress.</tspan></text>
        <text
           xml:space="preserve"
           transform="translate(12528,900)"
           style="font-variant:normal;font-weight:bold;font-size:23px;font-family:'Times New Roman';-inkscape-font-specification:TimesNewRomanPS-BoldMT;writing-mode:lr-tb;fill:#000000;fill-opacity:1;fill-rule:nonzero;stroke:none"
           id="text152"><tspan
             x="0 13 29 46 52"
             y="0"
             sodipodi:role="line"
             id="tspan150">SAC C</tspan></text>
        <text
           xml:space="preserve"
           transform="translate(12597,900)"
           style="font-variant:normal;font-weight:bold;font-size:23px;font-family:'Times New Roman';-inkscape-font-specification:TimesNewRomanPS-BoldMT;writing-mode:lr-tb;fill:#000000;fill-opacity:1;fill-rule:nonzero;stroke:none"
           id="text156"><tspan
             x="0 18 35 52 67 84 97 106 124"
             y="0"
             sodipodi:role="line"
             id="tspan154">ONCLUSION</tspan></text>
        <text
           xml:space="preserve"
           transform="translate(12528,943)"
           style="font-variant:normal;font-weight:normal;font-size:20px;font-family:'Times New Roman';-inkscape-font-specification:TimesNewRomanPSMT;writing-mode:lr-tb;fill:#000000;fill-opacity:1;fill-rule:nonzero;stroke:none"
           id="text160"><tspan
             x="0 12 21 30 37 46 51 60 67 76 81 95 104 113 122 127 137 142 151 160 167 172 180 185 195 202 208 217 225 230 236 241 250 260 269 275 285 290 295 304 310 316 321 330 340 349 354 363 373 383 392 397 402 407 416 422 430 435 443 452 460 465 474 488 493 498 508 517 522 527 533 538 544 552 557 563 572 580 585 590 595 605"
             y="0"
             sodipodi:role="line"
             id="tspan158">There are many other stories I could tell you about this system, but it’s just too</tspan></text>
        <text
           xml:space="preserve"
           transform="translate(12528,966)"
           style="font-variant:normal;font-weight:normal;font-size:20px;font-family:'Times New Roman';-inkscape-font-specification:TimesNewRomanPSMT;writing-mode:lr-tb;fill:#000000;fill-opacity:1;fill-rule:nonzero;stroke:none"
           id="text164"><tspan
             x="0 10 19 29 36 45 53 61 67 76 85 90 96 106 113 118 132 141 146 151 161 166 175 185 194 199 205 214 223 232 237 242 253 262 268 274 280 289 298 303 309 314 319 324 334 339 347 356 365 370 375 384 393 398 403 417 426 435 444 449 459 465 470 475 484 493 498 507 516 523 533 538 544 553 561 569 579 588 596 601 611 617 622 636"
             y="0"
             sodipodi:role="line"
             id="tspan162">depressing for me to continue. Suffice it to say that many of the hard lessons of my</tspan></text>
        <text
           xml:space="preserve"
           transform="translate(12528,989)"
           style="font-variant:normal;font-weight:normal;font-size:20px;font-family:'Times New Roman';-inkscape-font-specification:TimesNewRomanPSMT;writing-mode:lr-tb;fill:#000000;fill-opacity:1;fill-rule:nonzero;stroke:none"
           id="text168"><tspan
             x="0 8 18 24 29 44 53 60 69 74 80 86 92 101 106 121 130 137 146 151 157 166 175 182 191 200 210 215 230 239 245 251 260 265 271 285 299 308 315 323 332 342 347 353 362 367 372 381 390 395 404 414 421 428 434 444 450 459 464 473 481 489 498 512 522 528 537 544 549 558 568 578 587 592 602 608 613 618 627 636 641 652 666 679"
             y="0"
             sodipodi:role="line"
             id="tspan166">software life were learned while immersed in the horrible assembler code of the SAC.</tspan></text>
      </g>
    </g>
  </g>
</svg>
