<?xml version="1.0" encoding="UTF-8" standalone="no"?>
<!-- Created with Inkscape (http://www.inkscape.org/) -->

<svg
   version="1.1"
   id="svg2"
   width="816"
   height="1056"
   viewBox="0 0 816 1056"
   sodipodi:docname="clean_arch.pdf"
   xmlns:inkscape="http://www.inkscape.org/namespaces/inkscape"
   xmlns:sodipodi="http://sodipodi.sourceforge.net/DTD/sodipodi-0.dtd"
   xmlns="http://www.w3.org/2000/svg"
   xmlns:svg="http://www.w3.org/2000/svg">
  <defs
     id="defs6">
    <clipPath
       clipPathUnits="userSpaceOnUse"
       id="clipPath18">
      <path
         d="m 11136,0 h 696 v 1056 h -696 V 0"
         clip-rule="evenodd"
         id="path16" />
    </clipPath>
    <clipPath
       clipPathUnits="userSpaceOnUse"
       id="clipPath28">
      <path
         d="m 11136,66 h 696 v 930 h -696 V 66"
         clip-rule="evenodd"
         id="path26" />
    </clipPath>
  </defs>
  <sodipodi:namedview
     id="namedview4"
     pagecolor="#ffffff"
     bordercolor="#000000"
     borderopacity="0.25"
     inkscape:showpageshadow="2"
     inkscape:pageopacity="0.0"
     inkscape:pagecheckerboard="0"
     inkscape:deskcolor="#d1d1d1" />
  <g
     id="g8"
     inkscape:groupmode="layer"
     inkscape:label="clean_arch"
     transform="translate(59.999999,2.64e-5)">
    <g
       id="g10" />
    <g
       id="g12"
       transform="translate(-11136)">
      <g
         id="g14"
         clip-path="url(#clipPath18)">
        <g
           id="g20" />
      </g>
    </g>
    <g
       id="g22"
       transform="translate(-11136)">
      <g
         id="g24"
         clip-path="url(#clipPath28)">
        <text
           xml:space="preserve"
           transform="translate(11136,97)"
           style="font-variant:normal;font-weight:bold;font-size:33px;font-family:'Times New Roman';-inkscape-font-specification:TimesNewRomanPS-BoldMT;writing-mode:lr-tb;fill:#000000;fill-opacity:1;fill-rule:nonzero;stroke:none"
           id="text32"><tspan
             x="0"
             y="0"
             id="tspan30">O</tspan></text>
        <text
           xml:space="preserve"
           transform="translate(11162,97)"
           style="font-variant:normal;font-weight:bold;font-size:33px;font-family:'Times New Roman';-inkscape-font-specification:TimesNewRomanPS-BoldMT;writing-mode:lr-tb;fill:#000000;fill-opacity:1;fill-rule:nonzero;stroke:none"
           id="text36"><tspan
             x="0 22 48 70"
             y="0"
             sodipodi:role="line"
             id="tspan34">THER</tspan></text>
        <text
           xml:space="preserve"
           transform="translate(11264,97)"
           style="font-variant:normal;font-weight:bold;font-size:33px;font-family:'Times New Roman';-inkscape-font-specification:TimesNewRomanPS-BoldMT;writing-mode:lr-tb;fill:#000000;fill-opacity:1;fill-rule:nonzero;stroke:none"
           id="text40"><tspan
             x="0"
             y="0"
             id="tspan38">D</tspan></text>
        <text
           xml:space="preserve"
           transform="translate(11288,97)"
           style="font-variant:normal;font-weight:bold;font-size:33px;font-family:'Times New Roman';-inkscape-font-specification:TimesNewRomanPS-BoldMT;writing-mode:lr-tb;fill:#000000;fill-opacity:1;fill-rule:nonzero;stroke:none"
           id="text44"><tspan
             x="0 22 46 72 96 116 138 151 175"
             y="0"
             sodipodi:role="line"
             id="tspan42">ECOUPLING</tspan></text>
        <text
           xml:space="preserve"
           transform="translate(11496,97)"
           style="font-variant:normal;font-weight:bold;font-size:33px;font-family:'Times New Roman';-inkscape-font-specification:TimesNewRomanPS-BoldMT;writing-mode:lr-tb;fill:#000000;fill-opacity:1;fill-rule:nonzero;stroke:none"
           id="text48"><tspan
             x="0"
             y="0"
             id="tspan46">M</tspan></text>
        <text
           xml:space="preserve"
           transform="translate(11528,97)"
           style="font-variant:normal;font-weight:bold;font-size:33px;font-family:'Times New Roman';-inkscape-font-specification:TimesNewRomanPS-BoldMT;writing-mode:lr-tb;fill:#000000;fill-opacity:1;fill-rule:nonzero;stroke:none"
           id="text52"><tspan
             x="0 26 50 72"
             y="0"
             sodipodi:role="line"
             id="tspan50">ODES</tspan></text>
        <text
           xml:space="preserve"
           transform="translate(11136,142)"
           style="font-variant:normal;font-weight:normal;font-size:20px;font-family:'Times New Roman';-inkscape-font-specification:TimesNewRomanPSMT;writing-mode:lr-tb;fill:#000000;fill-opacity:1;fill-rule:nonzero;stroke:none"
           id="text56"><tspan
             x="0 6 15 20 29 39 49 55 60 66 76 85 90 95 105 110 115 124 133 138 148 155 165 174 181 190 204 218 224 233 242 247 253 262 271 280 289 298 307 316 321 330 340 349 356 363 372 377 386 394 400 409 418 423 428 433 442 451 458 467 472 481 488 497 502 512 518 523 532 541 546 556 561 570 579 586 591 606 615 624 632 637 642 651 660"
             y="0"
             sodipodi:role="line"
             id="tspan54">In addition to the programming language you’re using, there are often other ways that</tspan></text>
        <text
           xml:space="preserve"
           transform="translate(11136,165)"
           style="font-variant:normal;font-weight:normal;font-size:20px;font-family:'Times New Roman';-inkscape-font-specification:TimesNewRomanPSMT;writing-mode:lr-tb;fill:#000000;fill-opacity:1;fill-rule:nonzero;stroke:none"
           id="text60"><tspan
             x="0 9 19 28 33 42 51 60 65 75 84 93 103 112 122 128 137 142 151 161 170 177 182 190 200 209 216 225 234 239 248 258 268 277 282 292 301 311 320 329 339 348 357 366 372 381 389 394 399 416 422 427 436 441 449 458 468 477 482 487 496 506 515 520 529 538 548 557 562 576 586 596 605 611"
             y="0"
             sodipodi:role="line"
             id="tspan58">you can decouple your source code dependencies. With Java, you have module</tspan></text>
        <text
           xml:space="preserve"
           transform="translate(11136,188)"
           style="font-variant:normal;font-weight:normal;font-size:20px;font-family:'Times New Roman';-inkscape-font-specification:TimesNewRomanPSMT;writing-mode:lr-tb;fill:#000000;fill-opacity:1;fill-rule:nonzero;stroke:none"
           id="text64"><tspan
             x="0 6 13 22 36 45 60 70 77 86 94 99 105 111 120 129 134 148 159 173 179 184 193 202 212 217 222 231 240 245 254 263 278 283 291 300 310 319 324 334 339 353 363 373 382 388 397 402 410 419 427 432 441 455 460 465 482 488 493 502 507 521 531 541 550 556 565 570 578 587 595 600 609 623 631 636 641 656 665 674"
             y="0"
             sodipodi:role="line"
             id="tspan62">frameworks like OSGi and the new Java 9 module system. With module systems, when</tspan></text>
        <text
           xml:space="preserve"
           transform="translate(11136,211)"
           style="font-variant:normal;font-weight:normal;font-size:20px;font-family:'Times New Roman';-inkscape-font-specification:TimesNewRomanPSMT;writing-mode:lr-tb;fill:#000000;fill-opacity:1;fill-rule:nonzero;stroke:none"
           id="text68"><tspan
             x="0 9 17 26 36 41 51 58 68 78 87 94 100 108 113 118 127 137 146 151 160 169 178 183 197 206 215 224 229 238 243 253 259 267 272 278 287 296 301 307 317 326 331 341 350 355 370 379 388 397 402 407 416 426 435 443 448 453 462 471 476 481 490 497 506"
             y="0"
             sodipodi:role="line"
             id="tspan66">used properly, you can make a distinction between types that are </tspan></text>
        <text
           xml:space="preserve"
           transform="translate(11647,211)"
           style="font-variant:normal;font-weight:normal;font-size:16px;font-family:'Courier New';-inkscape-font-specification:CourierNewPSMT;writing-mode:lr-tb;fill:#000000;fill-opacity:1;fill-rule:nonzero;stroke:none"
           id="text72"><tspan
             x="0 10 20 30 40 50"
             y="0"
             sodipodi:role="line"
             id="tspan70">public</tspan></text>
        <text
           xml:space="preserve"
           transform="translate(11712,211)"
           style="font-variant:normal;font-weight:normal;font-size:20px;font-family:'Times New Roman';-inkscape-font-specification:TimesNewRomanPSMT;writing-mode:lr-tb;fill:#000000;fill-opacity:1;fill-rule:nonzero;stroke:none"
           id="text76"><tspan
             x="0 9 18 28 33 38 47 57 66 74 79 84 93 102"
             y="0"
             sodipodi:role="line"
             id="tspan74">and types that</tspan></text>
        <text
           xml:space="preserve"
           transform="translate(11136,234)"
           style="font-variant:normal;font-weight:normal;font-size:20px;font-family:'Times New Roman';-inkscape-font-specification:TimesNewRomanPSMT;writing-mode:lr-tb;fill:#000000;fill-opacity:1;fill-rule:nonzero;stroke:none"
           id="text80"><tspan
             x="0 9 16 25"
             y="0"
             sodipodi:role="line"
             id="tspan78">are </tspan></text>
        <text
           xml:space="preserve"
           transform="translate(11166,234)"
           style="font-variant:normal;font-weight:normal;font-size:20px;font-family:'Times New Roman';-inkscape-font-specification:TimesNewRomanPSMT;writing-mode:lr-tb;fill:#000000;fill-opacity:1;fill-rule:nonzero;stroke:none"
           id="text84"><tspan
             x="0 10 19 29 35 41 49 58 67"
             y="0"
             sodipodi:role="line"
             id="tspan82">published</tspan></text>
        <text
           xml:space="preserve"
           transform="translate(11243,234)"
           style="font-variant:normal;font-weight:normal;font-size:20px;font-family:'Times New Roman';-inkscape-font-specification:TimesNewRomanPSMT;writing-mode:lr-tb;fill:#000000;fill-opacity:1;fill-rule:nonzero;stroke:none"
           id="text88"><tspan
             x="0 5 10 21 31 38 43 52 61 70 84 94 100 109 114 119 128 138 147 152 161 171 180 186 196 201 210 217 226 235 240 249 254 263 272"
             y="0"
             sodipodi:role="line"
             id="tspan86">. For example, you could create an </tspan></text>
        <text
           xml:space="preserve"
           transform="translate(11520,234)"
           style="font-variant:normal;font-weight:normal;font-size:16px;font-family:'Courier New';-inkscape-font-specification:CourierNewPSMT;writing-mode:lr-tb;fill:#000000;fill-opacity:1;fill-rule:nonzero;stroke:none"
           id="text92"><tspan
             x="0 10 20 30 40 50"
             y="0"
             sodipodi:role="line"
             id="tspan90">Orders</tspan></text>
        <text
           xml:space="preserve"
           transform="translate(11585,234)"
           style="font-variant:normal;font-weight:normal;font-size:20px;font-family:'Times New Roman';-inkscape-font-specification:TimesNewRomanPSMT;writing-mode:lr-tb;fill:#000000;fill-opacity:1;fill-rule:nonzero;stroke:none"
           id="text96"><tspan
             x="0 14 24 34 43 49 58 63 78 87 96 103 112 117 126 132 138 143 153 159 164 169 178 187 192 197 206 216 225"
             y="0"
             sodipodi:role="line"
             id="tspan94">module where all of the types</tspan></text>
        <text
           xml:space="preserve"
           transform="translate(11136,257)"
           style="font-variant:normal;font-weight:normal;font-size:20px;font-family:'Times New Roman';-inkscape-font-specification:TimesNewRomanPSMT;writing-mode:lr-tb;fill:#000000;fill-opacity:1;fill-rule:nonzero;stroke:none"
           id="text100"><tspan
             x="0 9 16 25 30 44 53 60 69 78 88 93 102 110"
             y="0"
             sodipodi:role="line"
             id="tspan98">are marked as </tspan></text>
        <text
           xml:space="preserve"
           transform="translate(11251,257)"
           style="font-variant:normal;font-weight:normal;font-size:16px;font-family:'Courier New';-inkscape-font-specification:CourierNewPSMT;writing-mode:lr-tb;fill:#000000;fill-opacity:1;fill-rule:nonzero;stroke:none"
           id="text104"><tspan
             x="0 10 20 30 40 50"
             y="0"
             sodipodi:role="line"
             id="tspan102">public</tspan></text>
        <text
           xml:space="preserve"
           transform="translate(11311,257)"
           style="font-variant:normal;font-weight:normal;font-size:20px;font-family:'Times New Roman';-inkscape-font-specification:TimesNewRomanPSMT;writing-mode:lr-tb;fill:#000000;fill-opacity:1;fill-rule:nonzero;stroke:none"
           id="text108"><tspan
             x="0 5 10 20 29 34 39 49 58 68 74 80 88 97 102 112 121 127 136 141 150 155 163 177 186 192 198 203 211 220 230 238 247 252 257 267 273 278 283 292 302 310 319 324 329 338 348 357 365 370 376 386 393 398 407 416 421 430 437 446 455"
             y="0"
             sodipodi:role="line"
             id="tspan106">, but publish only a small subset of those types for external</tspan></text>
        <text
           xml:space="preserve"
           transform="translate(11136,280)"
           style="font-variant:normal;font-weight:normal;font-size:20px;font-family:'Times New Roman';-inkscape-font-specification:TimesNewRomanPSMT;writing-mode:lr-tb;fill:#000000;fill-opacity:1;fill-rule:nonzero;stroke:none"
           id="text112"><tspan
             x="0 9 19 28 36 45 59 69 74 80 90 99 104 109 115 120 126 134 139 149 158 167 176 181 190 195 201 211 220 229 234 239 245 259 268 273 282 292 306 312 321 330 335 340 350 359 364 369 375 382 396 401 410 419 424 433 442 450 456 465 473 478 484 493 498 503 512 521 526 531 536 545 554 559 567 576 586 595 600 610 615 629 639 649 658 664"
             y="0"
             sodipodi:role="line"
             id="tspan110">consumption. It’s been a long time coming, but I’m enthusiastic that the Java 9 module</tspan></text>
        <text
           xml:space="preserve"
           transform="translate(11136,303)"
           style="font-variant:normal;font-weight:normal;font-size:20px;font-family:'Times New Roman';-inkscape-font-specification:TimesNewRomanPSMT;writing-mode:lr-tb;fill:#000000;fill-opacity:1;fill-rule:nonzero;stroke:none"
           id="text116"><tspan
             x="0 8 17 25 30 39 53 58 73 79 85 91 96 105 111 121 130 135 144 152 157 166 175 185 190 199 208 215 220 225 235 245 251 256 261 271 276 286 295 301 307 317 322 332 341 346 351 360 367 372 380 390 396 401 416 425 432 441 446 451 460 469 479 484 492 502 511 518 527 532 542 551 561 571 577 586 592 600 605 611 620 625 634 641 650 658 663 668 674"
             y="0"
             sodipodi:role="line"
             id="tspan114">system will give us another tool to build better software, and spark people’s interest in</tspan></text>
        <text
           xml:space="preserve"
           transform="translate(11136,326)"
           style="font-variant:normal;font-weight:normal;font-size:20px;font-family:'Times New Roman';-inkscape-font-specification:TimesNewRomanPSMT;writing-mode:lr-tb;fill:#000000;fill-opacity:1;fill-rule:nonzero;stroke:none"
           id="text120"><tspan
             x="0 10 19 27 33 42 51 56 61 70 76 85 94 100 109 118 123 133 142 151 160 165 174 183 192 198 207"
             y="0"
             sodipodi:role="line"
             id="tspan118">design thinking once again.</tspan></text>
        <text
           xml:space="preserve"
           transform="translate(11136,369)"
           style="font-variant:normal;font-weight:normal;font-size:20px;font-family:'Times New Roman';-inkscape-font-specification:TimesNewRomanPSMT;writing-mode:lr-tb;fill:#000000;fill-opacity:1;fill-rule:nonzero;stroke:none"
           id="text124"><tspan
             x="0 14 23 33 38 47 56 63 68 78 88 93 99 109 118 123 129 137 142 147 157 162 172 181 190 200 209 219 225 234 239 248 258 267 274 279 289 298 308 317 326 336 345 354 363 369 378 386 391 400 405 410 415 424 433 438 446 456 465 472 481 490 495 504 514 524 533 538 544 553 563 572 578 583 588 598 607 612 620 630 636 642 647 652 658 667"
             y="0"
             sodipodi:role="line"
             id="tspan122">Another option is to decouple your dependencies at the source code level, by splitting</tspan></text>
        <text
           xml:space="preserve"
           transform="translate(11136,392)"
           style="font-variant:normal;font-weight:normal;font-size:20px;font-family:'Times New Roman';-inkscape-font-specification:TimesNewRomanPSMT;writing-mode:lr-tb;fill:#000000;fill-opacity:1;fill-rule:nonzero;stroke:none"
           id="text128"><tspan
             x="0 9 19 29 38 43 52 61 68 78 86 94"
             y="0"
             sodipodi:role="line"
             id="tspan126">code across </tspan></text>
        <text
           xml:space="preserve"
           transform="translate(11235,392)"
           style="font-variant:normal;font-weight:normal;font-size:20px;font-family:'Times New Roman';-inkscape-font-specification:TimesNewRomanPSMT;writing-mode:lr-tb;fill:#000000;fill-opacity:1;fill-rule:nonzero;stroke:none"
           id="text132"><tspan
             x="0 10 16 22 28 37 44 53 62 67 72 80 90 99 106 115 124 129 138 148 158 167 172 177 184 193 202"
             y="0"
             sodipodi:role="line"
             id="tspan130">different source code trees</tspan></text>
        <text
           xml:space="preserve"
           transform="translate(11445,392)"
           style="font-variant:normal;font-weight:normal;font-size:20px;font-family:'Times New Roman';-inkscape-font-specification:TimesNewRomanPSMT;writing-mode:lr-tb;fill:#000000;fill-opacity:1;fill-rule:nonzero;stroke:none"
           id="text136"><tspan
             x="0 5 10 16 22 27 42 51 56 61 70 79 88 93 98 107 116 121 131 141 148 153 161 166 175 184 194 199 208 218 227 237 242 251 258 266 271 280 289 298 312 322 328 337 342 347 362"
             y="0"
             sodipodi:role="line"
             id="tspan134">. If we take the ports and adapters example, we</tspan></text>
        <text
           xml:space="preserve"
           transform="translate(11136,415)"
           style="font-variant:normal;font-weight:normal;font-size:20px;font-family:'Times New Roman';-inkscape-font-specification:TimesNewRomanPSMT;writing-mode:lr-tb;fill:#000000;fill-opacity:1;fill-rule:nonzero;stroke:none"
           id="text140"><tspan
             x="0 9 19 28 34 44 49 58 67 77 86 91 96 105 112 121 130 135 143 153 162 169 178 187 192 201 211 221 230 235 240 247 256 265 273"
             y="0"
             sodipodi:role="line"
             id="tspan138">could have three source code trees:</tspan></text>
        <text
           xml:space="preserve"
           transform="translate(11137,458)"
           style="font-variant:normal;font-weight:normal;font-size:20px;font-family:'Times New Roman';-inkscape-font-specification:TimesNewRomanPSMT;writing-mode:lr-tb;fill:#000000;fill-opacity:1;fill-rule:nonzero;stroke:none"
           id="text144"><tspan
             x="0 7 12 24 33 42 47 55 65 74 81 90 99 104 113 123 133 142 147 153 163 170 175 180 189 198 203 213 222 230 236 245 254 262 270 275 284 293 303 308 318 328 342 351 357 366 371 378 384 389 398 403 408 413 422 432 441 448 457 462 471 477 486 495 500 505 514 523 528 533 539 547 552 558 567 577 586 596 605 614 624 633 642 647 652 662"
             y="0"
             sodipodi:role="line"
             id="tspan142">• The source code for the business and domain (i.e., everything that is independent of</tspan></text>
        <text
           xml:space="preserve"
           transform="translate(11149,481)"
           style="font-variant:normal;font-weight:normal;font-size:20px;font-family:'Times New Roman';-inkscape-font-specification:TimesNewRomanPSMT;writing-mode:lr-tb;fill:#000000;fill-opacity:1;fill-rule:nonzero;stroke:none"
           id="text148"><tspan
             x="0 5 14 23 32 41 51 57 67 76 85 90 99 108 118 123 129 136 145 159 168 183 193 200 209 214 223 232 242 248 257 266 274 281 287"
             y="0"
             sodipodi:role="line"
             id="tspan146">technology and framework choices): </tspan></text>
        <text
           xml:space="preserve"
           transform="translate(11441,481)"
           style="font-variant:normal;font-weight:normal;font-size:16px;font-family:'Courier New';-inkscape-font-specification:CourierNewPSMT;writing-mode:lr-tb;fill:#000000;fill-opacity:1;fill-rule:nonzero;stroke:none"
           id="text152"><tspan
             x="0 10 20 30 40 50 60 70 80 90 100 110 120"
             y="0"
             sodipodi:role="line"
             id="tspan150">OrdersService</tspan></text>
        <text
           xml:space="preserve"
           transform="translate(11571,481)"
           style="font-variant:normal;font-weight:normal;font-size:20px;font-family:'Times New Roman';-inkscape-font-specification:TimesNewRomanPSMT;writing-mode:lr-tb;fill:#000000;fill-opacity:1;fill-rule:nonzero;stroke:none"
           id="text156"><tspan
             x="0 5"
             y="0"
             sodipodi:role="line"
             id="tspan154">, </tspan></text>
        <text
           xml:space="preserve"
           transform="translate(11581,481)"
           style="font-variant:normal;font-weight:normal;font-size:16px;font-family:'Courier New';-inkscape-font-specification:CourierNewPSMT;writing-mode:lr-tb;fill:#000000;fill-opacity:1;fill-rule:nonzero;stroke:none"
           id="text160"><tspan
             x="0 10 20 30 40 50 60 70 80 90 100 110 120 130 140 150 160"
             y="0"
             sodipodi:role="line"
             id="tspan158">OrdersServiceImpl</tspan></text>
        <text
           xml:space="preserve"
           transform="translate(11751,481)"
           style="font-variant:normal;font-weight:normal;font-size:20px;font-family:'Times New Roman';-inkscape-font-specification:TimesNewRomanPSMT;writing-mode:lr-tb;fill:#000000;fill-opacity:1;fill-rule:nonzero;stroke:none"
           id="text164"><tspan
             x="0 5 10 19 28"
             y="0"
             sodipodi:role="line"
             id="tspan162">, and</tspan></text>
        <text
           xml:space="preserve"
           transform="translate(11149,501)"
           style="font-variant:normal;font-weight:normal;font-size:16px;font-family:'Courier New';-inkscape-font-specification:CourierNewPSMT;writing-mode:lr-tb;fill:#000000;fill-opacity:1;fill-rule:nonzero;stroke:none"
           id="text168"><tspan
             x="0 10 20 30 40 50"
             y="0"
             sodipodi:role="line"
             id="tspan166">Orders</tspan></text>
        <text
           xml:space="preserve"
           transform="translate(11137,527)"
           style="font-variant:normal;font-weight:normal;font-size:20px;font-family:'Times New Roman';-inkscape-font-specification:TimesNewRomanPSMT;writing-mode:lr-tb;fill:#000000;fill-opacity:1;fill-rule:nonzero;stroke:none"
           id="text172"><tspan
             x="0 7 12 24 33 42 47 55 65 74 81 90 99 104 113 123 133 142 147 153 163 170 175 180 189 198 203 218 227 237 243"
             y="0"
             sodipodi:role="line"
             id="tspan170">• The source code for the web: </tspan></text>
        <text
           xml:space="preserve"
           transform="translate(11385,527)"
           style="font-variant:normal;font-weight:normal;font-size:16px;font-family:'Courier New';-inkscape-font-specification:CourierNewPSMT;writing-mode:lr-tb;fill:#000000;fill-opacity:1;fill-rule:nonzero;stroke:none"
           id="text176"><tspan
             x="0 10 20 30 40 50 60 70 80 90 100 110 120 130 140 150"
             y="0"
             sodipodi:role="line"
             id="tspan174">OrdersController</tspan></text>
        <text
           xml:space="preserve"
           transform="translate(11137,556)"
           style="font-variant:normal;font-weight:normal;font-size:20px;font-family:'Times New Roman';-inkscape-font-specification:TimesNewRomanPSMT;writing-mode:lr-tb;fill:#000000;fill-opacity:1;fill-rule:nonzero;stroke:none"
           id="text180"><tspan
             x="0 7 12 24 33 42 47 55 65 74 81 90 99 104 113 123 133 142 147 153 163 170 175 180 189 198 203 213 222 227 236 241 251 260 267 275 281 289 294 303 312 321 330 336"
             y="0"
             sodipodi:role="line"
             id="tspan178">• The source code for the data persistence: </tspan></text>
        <text
           xml:space="preserve"
           transform="translate(11478,556)"
           style="font-variant:normal;font-weight:normal;font-size:16px;font-family:'Courier New';-inkscape-font-specification:CourierNewPSMT;writing-mode:lr-tb;fill:#000000;fill-opacity:1;fill-rule:nonzero;stroke:none"
           id="text184"><tspan
             x="0 10 20 30 40 50 60 70 80 90 100 110 120 130 140 150 160 170 180 190"
             y="0"
             sodipodi:role="line"
             id="tspan182">JdbcOrdersRepository</tspan></text>
        <text
           xml:space="preserve"
           transform="translate(11136,599)"
           style="font-variant:normal;font-weight:normal;font-size:20px;font-family:'Times New Roman';-inkscape-font-specification:TimesNewRomanPSMT;writing-mode:lr-tb;fill:#000000;fill-opacity:1;fill-rule:nonzero;stroke:none"
           id="text188"><tspan
             x="0 12 21 30 35 41 50 55 60 69 76 81 86 101 111 116 124 134 143 150 159 168 173 182 192 202 211 216 221 228 237 246 254 259 268 277 287 296 301 310 315 324 334 348 358 364 370 379 386 391 397 411 420 425 435 444 454 463 472 482 491 500 509 518 523 533 542 547 552 561 570 575 585 594 602 608 617 626 634 642 647 656 665"
             y="0"
             sodipodi:role="line"
             id="tspan186">The latter two source code trees have a compile-time dependency on the business and</tspan></text>
        <text
           xml:space="preserve"
           transform="translate(11136,622)"
           style="font-variant:normal;font-weight:normal;font-size:20px;font-family:'Times New Roman';-inkscape-font-specification:TimesNewRomanPSMT;writing-mode:lr-tb;fill:#000000;fill-opacity:1;fill-rule:nonzero;stroke:none"
           id="text192"><tspan
             x="0 10 20 34 43 49 58 63 72 82 92 101 106 111 126 135 141 150 159 164 170 175 183 192 198 204 209 219 229 238 246 255 262 267 272 281 290 300 315 320 329 338 347 352 361 367 376 385 390 399 409 419 428 433 438 443 452 461 466 481 490 500 505 515 522 527 532 541 550 555 565 574 579 588 593 603 612 619 627 633 641 646 655 664 673"
             y="0"
             sodipodi:role="line"
             id="tspan190">domain code, which itself doesn’t know anything about the web or the data persistence</tspan></text>
        <text
           xml:space="preserve"
           transform="translate(11136,645)"
           style="font-variant:normal;font-weight:normal;font-size:20px;font-family:'Times New Roman';-inkscape-font-specification:TimesNewRomanPSMT;writing-mode:lr-tb;fill:#000000;fill-opacity:1;fill-rule:nonzero;stroke:none"
           id="text196"><tspan
             x="0 9 19 29 38 43 48 59 66 76 90 95 104 113 118 124 138 148 154 163 177 186 195 200 209 214 220 230 239 244 254 263 270 278 288 297 306 311 317 327 336 341 346 355 365 374 379 388 397 406 411 421 431 436 441 450 456 464 469 479 488 493 502 512 521 527 533 542 551 558 564 573 582 587 595 604 614 623 630 639 644"
             y="0"
             sodipodi:role="line"
             id="tspan194">code. From an implementation perspective, you can do this by configuring separate</tspan></text>
        <text
           xml:space="preserve"
           transform="translate(11136,668)"
           style="font-variant:normal;font-weight:normal;font-size:20px;font-family:'Times New Roman';-inkscape-font-specification:TimesNewRomanPSMT;writing-mode:lr-tb;fill:#000000;fill-opacity:1;fill-rule:nonzero;stroke:none"
           id="text200"><tspan
             x="0 14 24 34 43 49 58 66 71 81 88 93 103 110 120 126 135 144 149 157 162 168 177 182 191 201 210 217 222 232 241 247 253 263 268 273 283 293 299 304 311 320 325 334 339 344 349 366 375 385 394 403 408 413 427 434 443 453 459 468 473 478 495 506 519 528 534 540 550 557 562 567 573 583 592 601 607 613 622 627 636 646"
             y="0"
             sodipodi:role="line"
             id="tspan198">modules or projects in your build tool (e.g., Maven, Gradle, MSBuild). Ideally you</tspan></text>
        <text
           xml:space="preserve"
           transform="translate(11136,691)"
           style="font-variant:normal;font-weight:normal;font-size:20px;font-family:'Times New Roman';-inkscape-font-specification:TimesNewRomanPSMT;writing-mode:lr-tb;fill:#000000;fill-opacity:1;fill-rule:nonzero;stroke:none"
           id="text204"><tspan
             x="0 15 25 34 40 50 55 62 71 81 90 99 104 109 114 123 129 137 142 152 161 166 171 180 187 196 201 206 215 224 234 240 249 258 263 272 277 285 294 304 313 320 329 334 343 348 356 366 375 382 391 400 405 414 424 434 443 448 453 460 469 478 483 489 499 506 511 520 529 538 547 552 561 570 580 585 594 604 613 620"
             y="0"
             sodipodi:role="line"
             id="tspan202">would repeat this pattern, having a separate source code tree for each and every</tspan></text>
        <text
           xml:space="preserve"
           transform="translate(11136,713.9844)"
           style="font-variant:normal;font-weight:normal;font-size:20px;font-family:'Times New Roman';-inkscape-font-specification:TimesNewRomanPSMT;writing-mode:lr-tb;fill:#000000;fill-opacity:1;fill-rule:nonzero;stroke:none"
           id="text208"><tspan
             x="0 9 19 33 43 53 62 71 80 85 90 96 105 110 119 129 138 145 150 159 169 179 185 191 200 209 214 220 230 239 244"
             y="0"
             sodipodi:role="line"
             id="tspan206">component in your application. </tspan></text>
        <text
           xml:space="preserve"
           transform="translate(11385,713.9844)"
           style="font-variant:normal;font-weight:normal;font-size:20px;font-family:'Times New Roman';-inkscape-font-specification:TimesNewRomanPSMT;writing-mode:lr-tb;fill:#000000;fill-opacity:1;fill-rule:nonzero;stroke:none"
           id="text212"><tspan
             x="0 12 21 27 35 40 46 54 59 69 78 85 94 99 113 122 131 140 145 154 163 168 174 184 193 202 208 214 222 227 233 242 247 255 265 271 280 285 291 301 310 315 320 325 334 344 353 362 371 376 381 391 400 409 418 427 435"
             y="0"
             sodipodi:role="line"
             id="tspan210">This is very much an idealistic solution, though, because</tspan></text>
        <text
           xml:space="preserve"
           transform="translate(11136,736.9844)"
           style="font-variant:normal;font-weight:normal;font-size:20px;font-family:'Times New Roman';-inkscape-font-specification:TimesNewRomanPSMT;writing-mode:lr-tb;fill:#000000;fill-opacity:1;fill-rule:nonzero;stroke:none"
           id="text216"><tspan
             x="0 5 14 23 30 39 44 53 60 69 74 81 90 99 105 112 127 137 144 150 160 165 175 184 191 197 207 214 228 237 246 255 264 269 274 283 293 307 317 323 332 341 347 352 360 365 370 379 388 398 403 417 426 432 441 446 455 464 473 482 491 500 505 511 519 527 536 545 553 558 567 575 583 593 602 608 617 622 631 641 646 661 667 672"
             y="0"
             sodipodi:role="line"
             id="tspan214">there are real-world performance, complexity, and maintenance issues associated with</tspan></text>
        <text
           xml:space="preserve"
           transform="translate(11136,760)"
           style="font-variant:normal;font-weight:normal;font-size:20px;font-family:'Times New Roman';-inkscape-font-specification:TimesNewRomanPSMT;writing-mode:lr-tb;fill:#000000;fill-opacity:1;fill-rule:nonzero;stroke:none"
           id="text220"><tspan
             x="0 10 17 26 35 44 50 59 68 73 82 92 97 106 116 125 132 137 145 155 164 171 180 189 194 203 213 223 232 237 243 252 257 262 271 277 285 290 305 314 322"
             y="0"
             sodipodi:role="line"
             id="tspan218">breaking up your source code in this way.</tspan></text>
        <text
           xml:space="preserve"
           transform="translate(11136,803)"
           style="font-variant:normal;font-weight:normal;font-size:20px;font-family:'Times New Roman';-inkscape-font-specification:TimesNewRomanPSMT;writing-mode:lr-tb;fill:#000000;fill-opacity:1;fill-rule:nonzero;stroke:none"
           id="text224"><tspan
             x="0 13 18 26 32 46 56 62 71 78 83 92 102 112 119 129 138 147 156 161 166 175 184 189 194 202 212 226 235 240 250 259 269 279 285 294 299 305 315 321 327 337 352 357 363 373 380 385 390 399 408 414 421 426 436 446 453 458 466 471 480 489 499 504 513 523 532 542 547 556 563 571 576 585 595 605 614 619 625 633 638 643 653 658 667 676 686"
             y="0"
             sodipodi:role="line"
             id="tspan222">A simpler approach that some people follow for their ports and adapters code is to have</tspan></text>
        <text
           xml:space="preserve"
           transform="translate(11136,826)"
           style="font-variant:normal;font-weight:normal;font-size:20px;font-family:'Times New Roman';-inkscape-font-specification:TimesNewRomanPSMT;writing-mode:lr-tb;fill:#000000;fill-opacity:1;fill-rule:nonzero;stroke:none"
           id="text228"><tspan
             x="0 6 15 23 28 33 38 53 63 68 76 86 95 102 111 120 125 134 144 154 163 168 173 180 189 198 206"
             y="0"
             sodipodi:role="line"
             id="tspan226">just two source code trees:</tspan></text>
        <text
           xml:space="preserve"
           transform="translate(11137,869)"
           style="font-variant:normal;font-weight:normal;font-size:20px;font-family:'Times New Roman';-inkscape-font-specification:TimesNewRomanPSMT;writing-mode:lr-tb;fill:#000000;fill-opacity:1;fill-rule:nonzero;stroke:none"
           id="text232"><tspan
             x="0 7 12 26 36 50 59 65 74 79 88 98 108 117 122 129 134 143 152 157 166 172 181 189 195 205 214 223"
             y="0"
             sodipodi:role="line"
             id="tspan230">• Domain code (the “inside”)</tspan></text>
        <text
           xml:space="preserve"
           transform="translate(11137,897)"
           style="font-variant:normal;font-weight:normal;font-size:20px;font-family:'Times New Roman';-inkscape-font-specification:TimesNewRomanPSMT;writing-mode:lr-tb;fill:#000000;fill-opacity:1;fill-rule:nonzero;stroke:none"
           id="text236"><tspan
             x="0 7 12 18 27 33 40 49 57 62 69 78 87 92 101 108 117 122 131 141 151 160 165 172 177 186 195 200 209 219 228 233 241 247 257 266 275"
             y="0"
             sodipodi:role="line"
             id="tspan234">• Infrastructure code (the “outside”)</tspan></text>
        <text
           xml:space="preserve"
           transform="translate(11136,940)"
           style="font-variant:normal;font-weight:normal;font-size:20px;font-family:'Times New Roman';-inkscape-font-specification:TimesNewRomanPSMT;writing-mode:lr-tb;fill:#000000;fill-opacity:1;fill-rule:nonzero;stroke:none"
           id="text240"><tspan
             x="0 12 21 27 35 40 54 63 73 81 86 96 105 110 119 125 134 143 149 158 163 168 178 183 188 197 206 211 221 227 236 245 252 261 275 280"
             y="0"
             sodipodi:role="line"
             id="tspan238">This maps on nicely to the diagram (</tspan></text>
        <text
           xml:space="preserve"
           transform="translate(11423,940)"
           style="font-variant:normal;font-weight:normal;font-size:20px;font-family:'Times New Roman';-inkscape-font-specification:TimesNewRomanPSMT;writing-mode:lr-tb;fill:#0000ee;fill-opacity:1;fill-rule:nonzero;stroke:none"
           id="text244"><tspan
             x="0 11 17 26 35 42 51 56 66 76 81"
             y="0"
             sodipodi:role="line"
             id="tspan242">Figure 34.9</tspan></text>
        <path
           d="m 11423,941.5 h 90 z"
           style="fill:none;stroke:#0000ee;stroke-width:1;stroke-linecap:square;stroke-linejoin:miter;stroke-miterlimit:10;stroke-dasharray:none;stroke-opacity:1"
           id="path246" />
        <text
           xml:space="preserve"
           transform="translate(11514,940)"
           style="font-variant:normal;font-weight:normal;font-size:20px;font-family:'Times New Roman';-inkscape-font-specification:TimesNewRomanPSMT;writing-mode:lr-tb;fill:#000000;fill-opacity:1;fill-rule:nonzero;stroke:none"
           id="text250"><tspan
             x="0 7 12 17 26 35 40 45 59 68 77 86 91 101 110 120 130 136 145 150 159 167 176 181 186 196 201 209 218 232 246 255 262 268 276 285 290 295 304"
             y="0"
             sodipodi:role="line"
             id="tspan248">) that many people use to summarize the</tspan></text>
        <text
           xml:space="preserve"
           transform="translate(11136,963)"
           style="font-variant:normal;font-weight:normal;font-size:20px;font-family:'Times New Roman';-inkscape-font-specification:TimesNewRomanPSMT;writing-mode:lr-tb;fill:#000000;fill-opacity:1;fill-rule:nonzero;stroke:none"
           id="text254"><tspan
             x="0 10 20 27 32 40 45 54 63 73 78 87 97 106 116 121 130 137 145 150 159 166 175 184 190 195 204 213 218 227 234 243 248 253 262 271 281 286 291 300 309 316 325 330 336 344 349 358 363 372 382 396 406 412 418 427 434 439 445 459 468 473 483 492 502 511 520 530 539 548 557 566 571 577 584 594 608 613 618 627"
             y="0"
             sodipodi:role="line"
             id="tspan252">ports and adapters architecture, and there is a compile-time dependency from the</tspan></text>
        <text
           xml:space="preserve"
           transform="translate(11136,986)"
           style="font-variant:normal;font-weight:normal;font-size:20px;font-family:'Times New Roman';-inkscape-font-specification:TimesNewRomanPSMT;writing-mode:lr-tb;fill:#000000;fill-opacity:1;fill-rule:nonzero;stroke:none"
           id="text258"><tspan
             x="0 6 15 21 28 37 45 50 57 66 75 80 89 96 105 110 115 125 130 135 144 153 158 168 178 192 201 207 216"
             y="0"
             sodipodi:role="line"
             id="tspan256">infrastructure to the domain.</tspan></text>
      </g>
    </g>
  </g>
</svg>
