<?xml version="1.0" encoding="UTF-8" standalone="no"?>
<!-- Created with Inkscape (http://www.inkscape.org/) -->

<svg
   version="1.1"
   id="svg2"
   width="816"
   height="1056"
   viewBox="0 0 816 1056"
   sodipodi:docname="clean_arch.pdf"
   xmlns:inkscape="http://www.inkscape.org/namespaces/inkscape"
   xmlns:sodipodi="http://sodipodi.sourceforge.net/DTD/sodipodi-0.dtd"
   xmlns="http://www.w3.org/2000/svg"
   xmlns:svg="http://www.w3.org/2000/svg">
  <defs
     id="defs6">
    <clipPath
       clipPathUnits="userSpaceOnUse"
       id="clipPath18">
      <path
         d="m 25056,0 h 696 v 1056 h -696 V 0"
         clip-rule="evenodd"
         id="path16" />
    </clipPath>
    <clipPath
       clipPathUnits="userSpaceOnUse"
       id="clipPath28">
      <path
         d="m 25056,66 h 696 v 930 h -696 V 66"
         clip-rule="evenodd"
         id="path26" />
    </clipPath>
  </defs>
  <sodipodi:namedview
     id="namedview4"
     pagecolor="#ffffff"
     bordercolor="#000000"
     borderopacity="0.25"
     inkscape:showpageshadow="2"
     inkscape:pageopacity="0.0"
     inkscape:pagecheckerboard="0"
     inkscape:deskcolor="#d1d1d1" />
  <g
     id="g8"
     inkscape:groupmode="layer"
     inkscape:label="clean_arch"
     transform="translate(59.999999,2.64e-5)">
    <g
       id="g10" />
    <g
       id="g12"
       transform="translate(-25056)">
      <g
         id="g14"
         clip-path="url(#clipPath18)">
        <g
           id="g20" />
      </g>
    </g>
    <g
       id="g22"
       transform="translate(-25056)">
      <g
         id="g24"
         clip-path="url(#clipPath28)">
        <text
           xml:space="preserve"
           transform="translate(25056,83.5)"
           style="font-variant:normal;font-weight:normal;font-size:20px;font-family:'Times New Roman';-inkscape-font-specification:TimesNewRomanPSMT;writing-mode:lr-tb;fill:#000000;fill-opacity:1;fill-rule:nonzero;stroke:none"
           id="text32"><tspan
             x="0 10 17 27 37 46 55 60 66 76 82 87 96 101 111 117 122 127 136 145 150 155 164 173 187"
             y="0"
             sodipodi:role="line"
             id="tspan30">productivity of the team.</tspan></text>
        <text
           xml:space="preserve"
           transform="translate(25056,126)"
           style="font-variant:normal;font-weight:normal;font-size:20px;font-family:'Times New Roman';-inkscape-font-specification:TimesNewRomanPSMT;writing-mode:lr-tb;fill:#000000;fill-opacity:1;fill-rule:nonzero;stroke:none"
           id="text36"><tspan
             x="0 6 15 25 34 43 53 58 63 72 78 83 92 99 104 118 127 136 145 150 164 173 182 189 198 207 216 223 231 236 246 252 257 272 282 289 298 303 308 314 328 342 351 360 368 377 382 390 395 402 411 420 429 435 444 452 457 462 471 480 490 495 500 515 525 530 535 544 554 560 570 575 582 591 597 606 615 623 632 640 645 650 655 664"
             y="0"
             sodipodi:role="line"
             id="tspan34">Indeed, after many man-years of work, immense struggles, and two tepid releases, the</tspan></text>
        <text
           xml:space="preserve"
           transform="translate(25056,149)"
           style="font-variant:normal;font-weight:normal;font-size:20px;font-family:'Times New Roman';-inkscape-font-specification:TimesNewRomanPSMT;writing-mode:lr-tb;fill:#000000;fill-opacity:1;fill-rule:nonzero;stroke:none"
           id="text40"><tspan
             x="0 15 24 34 40 49 54 59 69 79 85 90 105 114 122 127 135 144 151 160 170 180 189 199 204 213 222 232 237 244 253 263 269 278 287 296 306 311 326 332 337 346 351 360 365 374 383 388 397 402 408 414 419 424 430 439 444 453 463 473 479 485 494 503 508 514 524 533 538 553 560 566 571 576 585 594 599 609 618 623 632 637 645 659 668 674"
             y="0"
             sodipodi:role="line"
             id="tspan38">whole tool was scrapped and replaced with a cute little application written by a small</tspan></text>
        <text
           xml:space="preserve"
           transform="translate(25056,172)"
           style="font-variant:normal;font-weight:normal;font-size:20px;font-family:'Times New Roman';-inkscape-font-specification:TimesNewRomanPSMT;writing-mode:lr-tb;fill:#000000;fill-opacity:1;fill-rule:nonzero;stroke:none"
           id="text44"><tspan
             x="0 5 14 23 37 42 48 57 62 79 85 93 102 112 121 129 135 144"
             y="0"
             sodipodi:role="line"
             id="tspan42">team in Wisconsin.</tspan></text>
        <text
           xml:space="preserve"
           transform="translate(25056,215)"
           style="font-variant:normal;font-weight:normal;font-size:20px;font-family:'Times New Roman';-inkscape-font-specification:TimesNewRomanPSMT;writing-mode:lr-tb;fill:#000000;fill-opacity:1;fill-rule:nonzero;stroke:none"
           id="text48"><tspan
             x="0 14 23 33 38 46 56 61 67 72 78 87 96 103 112 121 131 136 141 150 159 164 169 178 185 194 203 208 213 222 229 238 247 253 258 267 276 281 290 297 306 314 319 327 337 351 360 365 371 385 394 402 407 413 422 431 441 446 451 461 466 475 482 491 500 505 510 516 525 531 537 546 553 562 570 575 580 594 601 610 619 625 630 639 648 653 662 669"
             y="0"
             sodipodi:role="line"
             id="tspan46">And so I learned that great architectures sometimes lead to great failures. Architecture</tspan></text>
        <text
           xml:space="preserve"
           transform="translate(25056,238)"
           style="font-variant:normal;font-weight:normal;font-size:20px;font-family:'Times New Roman';-inkscape-font-specification:TimesNewRomanPSMT;writing-mode:lr-tb;fill:#000000;fill-opacity:1;fill-rule:nonzero;stroke:none"
           id="text52"><tspan
             x="0 14 23 31 36 41 51 60 65 71 77 86 95 101 111 117 126 131 140 149 159 168 177 186 191 196 206 211 220 230 239 249 254 259 264 274 279 284 293 302 307 315 321 329 338 343 353 359 364 369 378 387 392 402 409 419 429 435 444 458 463 468 482 489 498 507 513 518 527 536 541 547 556 565 570 576 586 593 598 603 612"
             y="0"
             sodipodi:role="line"
             id="tspan50">must be flexible enough to adapt to the size of the problem. Architecting for the</tspan></text>
        <text
           xml:space="preserve"
           transform="translate(25056,261)"
           style="font-variant:normal;font-weight:normal;font-size:20px;font-family:'Times New Roman';-inkscape-font-specification:TimesNewRomanPSMT;writing-mode:lr-tb;fill:#000000;fill-opacity:1;fill-rule:nonzero;stroke:none"
           id="text56"><tspan
             x="0 9 18 23 32 39 49 56 62 70 79 84 89 104 113 122 131 136 145 151 157 162 171 181 190 195 202 211 220 226 232 241 246 255 264 273 283 288 294 302 307 316 321 330 339 344 353 358 364 370 375 380 386 395 400 410 419 427 436 441 451 461 466 471 481 491 497 502 507 513 521 526 535 540 547 556 565 571 581 590 595 601 611 618 623 629 638 644 650 659 666 675"
             y="0"
             sodipodi:role="line"
             id="tspan54">enterprise, when all you really need is a cute little desktop tool, is a recipe for failure.</tspan></text>
        <text
           xml:space="preserve"
           transform="translate(25056,331)"
           style="font-variant:normal;font-weight:bold;font-size:33px;font-family:'Times New Roman';-inkscape-font-specification:TimesNewRomanPS-BoldMT;writing-mode:lr-tb;fill:#000000;fill-opacity:1;fill-rule:nonzero;stroke:none"
           id="text60"><tspan
             x="0"
             y="0"
             id="tspan58">A</tspan></text>
        <text
           xml:space="preserve"
           transform="translate(25079,331)"
           style="font-variant:normal;font-weight:bold;font-size:33px;font-family:'Times New Roman';-inkscape-font-specification:TimesNewRomanPS-BoldMT;writing-mode:lr-tb;fill:#000000;fill-opacity:1;fill-rule:nonzero;stroke:none"
           id="text64"><tspan
             x="0 24 48 74 87 109 131 155 177"
             y="0"
             sodipodi:role="line"
             id="tspan62">RCHITECTS</tspan></text>
        <text
           xml:space="preserve"
           transform="translate(25282,331)"
           style="font-variant:normal;font-weight:bold;font-size:33px;font-family:'Times New Roman';-inkscape-font-specification:TimesNewRomanPS-BoldMT;writing-mode:lr-tb;fill:#000000;fill-opacity:1;fill-rule:nonzero;stroke:none"
           id="text68"><tspan
             x="0"
             y="0"
             id="tspan66">R</tspan></text>
        <text
           xml:space="preserve"
           transform="translate(25306,331)"
           style="font-variant:normal;font-weight:bold;font-size:33px;font-family:'Times New Roman';-inkscape-font-specification:TimesNewRomanPS-BoldMT;writing-mode:lr-tb;fill:#000000;fill-opacity:1;fill-rule:nonzero;stroke:none"
           id="text72"><tspan
             x="0 22 47 60 78 100 123"
             y="0"
             sodipodi:role="line"
             id="tspan70">EGISTRY</tspan></text>
        <text
           xml:space="preserve"
           transform="translate(25461,331)"
           style="font-variant:normal;font-weight:bold;font-size:33px;font-family:'Times New Roman';-inkscape-font-specification:TimesNewRomanPS-BoldMT;writing-mode:lr-tb;fill:#000000;fill-opacity:1;fill-rule:nonzero;stroke:none"
           id="text76"><tspan
             x="0"
             y="0"
             id="tspan74">E</tspan></text>
        <text
           xml:space="preserve"
           transform="translate(25483,331)"
           style="font-variant:normal;font-weight:bold;font-size:33px;font-family:'Times New Roman';-inkscape-font-specification:TimesNewRomanPS-BoldMT;writing-mode:lr-tb;fill:#000000;fill-opacity:1;fill-rule:nonzero;stroke:none"
           id="text80"><tspan
             x="0 24 47"
             y="0"
             sodipodi:role="line"
             id="tspan78">XAM</tspan></text>
        <text
           xml:space="preserve"
           transform="translate(25056,376)"
           style="font-variant:normal;font-weight:normal;font-size:20px;font-family:'Times New Roman';-inkscape-font-specification:TimesNewRomanPSMT;writing-mode:lr-tb;fill:#000000;fill-opacity:1;fill-rule:nonzero;stroke:none"
           id="text84"><tspan
             x="0 6 15 20 25 34 43 48 57 66 73 79 88 93 103 113 123 133 141 146 151 157 162 172 181 190 199 213 222 227 236 241 246 253 262 271 276 285 295 304 312 321 327 332 341 350 355 360 365 371 376 381 388 397 407 416 422 431 441 446 451 460 469 474 489 499 506 512 522 527 532 541 550 559 568 574 583 592 597 607 616 626 636 642 651 656 671 680 689"
             y="0"
             sodipodi:role="line"
             id="tspan82">In the early 1990s, I became a true consultant. I traveled the world teaching people what</tspan></text>
        <text
           xml:space="preserve"
           transform="translate(25056,399)"
           style="font-variant:normal;font-weight:normal;font-size:20px;font-family:'Times New Roman';-inkscape-font-specification:TimesNewRomanPSMT;writing-mode:lr-tb;fill:#000000;fill-opacity:1;fill-rule:nonzero;stroke:none"
           id="text88"><tspan
             x="0 5 14 20 28 33 42 51 66 71 85 99 104 109 118 124 133 142 147 162 171 179 184 189 206 215 220 229 239 248 256 265 271 276 282 291 300 305 320 329 337 342 348 358 367 376 384 393 403 408 416 421 428 438 447 456 462 471 476 486 495 500 505 514 523 528 538 547 555 561 570 579 584 593 602"
             y="0"
             sodipodi:role="line"
             id="tspan86">this new OO thing was. My consulting was focused strongly on the design and</tspan></text>
        <text
           xml:space="preserve"
           transform="translate(25056,422)"
           style="font-variant:normal;font-weight:normal;font-size:20px;font-family:'Times New Roman';-inkscape-font-specification:TimesNewRomanPSMT;writing-mode:lr-tb;fill:#000000;fill-opacity:1;fill-rule:nonzero;stroke:none"
           id="text92"><tspan
             x="0 9 16 25 34 40 45 54 63 68 77 84 93 98 108 114 119 129 139 145 154 163 168 175 185 192 198 207 216 221 230 240 245 253 262 270 275 284 298 306"
             y="0"
             sodipodi:role="line"
             id="tspan90">architecture of object-oriented systems.</tspan></text>
        <text
           xml:space="preserve"
           transform="translate(25056,465)"
           style="font-variant:normal;font-weight:normal;font-size:20px;font-family:'Times New Roman';-inkscape-font-specification:TimesNewRomanPSMT;writing-mode:lr-tb;fill:#000000;fill-opacity:1;fill-rule:nonzero;stroke:none"
           id="text96"><tspan
             x="0 14 23 32 37 47 53 58 72 81 86 92 98 105 113 118 123 132 142 151 159 168 174 179 185 194 203 208 217 223 229 238 247 252 260 265 280 289 297 302 314 324 333 342 351 356 362 372 381 390 396 401 411 420 428 433 439 448 457 462 473 482 489 499 505 514 523 528 535 547 559 570 577 582 587 593 598 603 618 627 635 640 649 658 668 677"
             y="0"
             sodipodi:role="line"
             id="tspan94">One of my first consulting clients was Educational Testing Service (ETS). It was under</tspan></text>
        <text
           xml:space="preserve"
           transform="translate(25056,488)"
           style="font-variant:normal;font-weight:normal;font-size:20px;font-family:'Times New Roman';-inkscape-font-specification:TimesNewRomanPSMT;writing-mode:lr-tb;fill:#000000;fill-opacity:1;fill-rule:nonzero;stroke:none"
           id="text100"><tspan
             x="0 9 19 28 33 40 49 58 63 68 83 89 94 103 108 113 122 131 136 150 159 164 170 180 189 198 204 209 222 232 241 250 259 265 271 276 286 292 297 311 318 327 336 342 347 356 365 370 378 383 396 405 414 420 428 433 440 449 454 467 477 486 493 503 508 515 529 542 556 569 582 589 594 599 609 614 623 633 642 652 661 670"
             y="0"
             sodipodi:role="line"
             id="tspan98">contract with the National Council of Architects Registry Board (NCARB) to conduct</tspan></text>
        <text
           xml:space="preserve"
           transform="translate(25056,511)"
           style="font-variant:normal;font-weight:normal;font-size:20px;font-family:'Times New Roman';-inkscape-font-specification:TimesNewRomanPSMT;writing-mode:lr-tb;fill:#000000;fill-opacity:1;fill-rule:nonzero;stroke:none"
           id="text104"><tspan
             x="0 5 14 23 28 35 44 53 59 67 72 79 88 93 99 109 118 123 132 141 150 164 172 177 183 193 200 205 214 223 238 243 252 259 268 277 283 288 297 306 311 316 325 334 343 353 359 369 378 383 392 400"
             y="0"
             sodipodi:role="line"
             id="tspan102">the registration exams for new architect candidates.</tspan></text>
        <text
           xml:space="preserve"
           transform="translate(25056,554)"
           style="font-variant:normal;font-weight:normal;font-size:20px;font-family:'Times New Roman';-inkscape-font-specification:TimesNewRomanPSMT;writing-mode:lr-tb;fill:#000000;fill-opacity:1;fill-rule:nonzero;stroke:none"
           id="text108"><tspan
             x="0 14 23 32 42 51 60 65 75 84 92 98 105 111 120 129 134 139 149 154 164 173 178 187 192 199 208 217 223 231 236 245 252 261 271 276 285 292 301 310 316 321 330 339 344 349 356 361 370 379 384 393 399 408 418 423 438 447 457 462 472 481 489 495 504 513 518 528 537 543 549 559 565 574 583 591 598 603 609 618 623 628 637"
             y="0"
             sodipodi:role="line"
             id="tspan106">Anyone desiring to be a registered architect (the kind who design buildings) in the</tspan></text>
        <text
           xml:space="preserve"
           transform="translate(25056,577)"
           style="font-variant:normal;font-weight:normal;font-size:20px;font-family:'Times New Roman';-inkscape-font-specification:TimesNewRomanPSMT;writing-mode:lr-tb;fill:#000000;fill-opacity:1;fill-rule:nonzero;stroke:none"
           id="text112"><tspan
             x="0 13 22 28 33 42 52 57 68 73 82 87 96 104 109 119 126 131 144 153 162 171 181 190 195 209 218 226 231 236 246 255 263 271 276 281 290 299 304 311 320 329 335 343 348 355 364 369 375 385 394 399 408 417 426 440 445 450 462 471 477 485 490 499 508 517 531"
             y="0"
             sodipodi:role="line"
             id="tspan110">United States or Canada must pass the registration exam. This exam </tspan></text>
        <text
           xml:space="preserve"
           transform="translate(25592,577)"
           style="font-variant:normal;font-weight:normal;font-size:20px;font-family:'Times New Roman';-inkscape-font-specification:TimesNewRomanPSMT;writing-mode:lr-tb;fill:#000000;fill-opacity:1;fill-rule:nonzero;stroke:none"
           id="text116"><tspan
             x="0 6 15 25 35 41 51 60 70 75 84 93 103 109 118 127 132 137 146"
             y="0"
             sodipodi:role="line"
             id="tspan114">involved having the</tspan></text>
        <text
           xml:space="preserve"
           transform="translate(25056,600)"
           style="font-variant:normal;font-weight:normal;font-size:20px;font-family:'Times New Roman';-inkscape-font-specification:TimesNewRomanPSMT;writing-mode:lr-tb;fill:#000000;fill-opacity:1;fill-rule:nonzero;stroke:none"
           id="text120"><tspan
             x="0 9 18 27 37 43 53 62 67 76 81 89 99 105 115 124 129 138 143 152 161 175 185 194 201 206 216 222 227 236 243 252 261 267 272 281 290 295 304 311 320 326 331 341 348 358 368 374 383 397 405 410 416 425 435 445 451 461 467 476 485 490 500 509 515 521 531 537 546 555 560 570 579 587 593 602 611 616 621 633 642"
             y="0"
             sodipodi:role="line"
             id="tspan118">candidate solve a number of architectural problems involving building design. The</tspan></text>
        <text
           xml:space="preserve"
           transform="translate(25056,623)"
           style="font-variant:normal;font-weight:normal;font-size:20px;font-family:'Times New Roman';-inkscape-font-specification:TimesNewRomanPSMT;writing-mode:lr-tb;fill:#000000;fill-opacity:1;fill-rule:nonzero;stroke:none"
           id="text124"><tspan
             x="0 9 18 27 37 43 53 62 67 76 81 95 101 110 119 124 129 139 148 153 162 168 178 187 196 201 210 215 223 232 237 242 252 258 263 270 279 289 298 304 311 320 334 343 352 357 365 370 376 386 393 398 407 412 422 431 441 447 453 462 467 473 479 489 496 505 512 520 525 530 540 547 552 561 566 573 582 590 595 604 613 620 629 638 643 648 653 663 670 675"
             y="0"
             sodipodi:role="line"
             id="tspan122">candidate might be given a set of requirements for a public library, or a restaurant, or a</tspan></text>
        <text
           xml:space="preserve"
           transform="translate(25056,646)"
           style="font-variant:normal;font-weight:normal;font-size:20px;font-family:'Times New Roman';-inkscape-font-specification:TimesNewRomanPSMT;writing-mode:lr-tb;fill:#000000;fill-opacity:1;fill-rule:nonzero;stroke:none"
           id="text128"><tspan
             x="0 9 18 27 34 43 52 57 62 71 80 90 95 100 109 118 127 132 141 149 158 167 177 182 187 197 202 212 219 228 243 248 253 262 271 276 285 295 305 312 322 332 339 345 354 359 368 373 382 389 398 407 413 418 427 436 441 450 457 466 472 477 487 493 502 511 518 527 541 549"
             y="0"
             sodipodi:role="line"
             id="tspan126">church, and then asked to draw the appropriate architectural diagrams.</tspan></text>
        <text
           xml:space="preserve"
           transform="translate(25056,689)"
           style="font-variant:normal;font-weight:normal;font-size:20px;font-family:'Times New Roman';-inkscape-font-specification:TimesNewRomanPSMT;writing-mode:lr-tb;fill:#000000;fill-opacity:1;fill-rule:nonzero;stroke:none"
           id="text132"><tspan
             x="0 12 21 30 35 42 51 59 68 74 79 87 92 107 117 126 132 142 147 157 166 171 180 190 196 202 211 220 225 234 244 249 258 267 277 282 290 299 309 318 328 333 342 351 356 362 368 373 381 390 399 408 413 418 424 438 447 452 461 469 474 483 488 497 504 514 523 533 538 548 554 559 567 576 585 591 601 608 613 622 629 638 647 653 658 667 676 681"
             y="0"
             sodipodi:role="line"
             id="tspan130">The results would be collected and saved until such time as a group of senior architects</tspan></text>
        <text
           xml:space="preserve"
           transform="translate(25056,712)"
           style="font-variant:normal;font-weight:normal;font-size:20px;font-family:'Times New Roman';-inkscape-font-specification:TimesNewRomanPSMT;writing-mode:lr-tb;fill:#000000;fill-opacity:1;fill-rule:nonzero;stroke:none"
           id="text136"><tspan
             x="0 9 19 28 34 44 49 59 68 73 82 91 96 105 114 121 130 140 145 150 160 169 178 183 192 201 208 213 222 230 235 241 250 257 267 274 282 287 292 297 307 312 320 329 339 346 355 360 365 374 383 388 396 405 415 429 435 443 451 457 467 476 484 489 494 506 515 524 532 541 546 555 564 569 578 587 594 600 609 618 626 631 646 655 662"
             y="0"
             sodipodi:role="line"
             id="tspan134">could be gathered together as jurors, to score the submissions. These gatherings were</tspan></text>
        <text
           xml:space="preserve"
           transform="translate(25056,735)"
           style="font-variant:normal;font-weight:normal;font-size:20px;font-family:'Times New Roman';-inkscape-font-specification:TimesNewRomanPSMT;writing-mode:lr-tb;fill:#000000;fill-opacity:1;fill-rule:nonzero;stroke:none"
           id="text140"><tspan
             x="0 10 16 25 30 35 44 53 63 72 81 89 95 105 114 119 128 138 147 156 161 169 174 183 192 202 207 222 231 238 247 252 257 266 275 280 288 298 307 314 323 332 337 347 353 358 372 381 390 399 404 413 427 437 443 452 461 467 472 481 486 495 504 514 519 529 538 544 553 561"
             y="0"
             sodipodi:role="line"
             id="tspan138">big, expensive events and were the source of much ambiguity and delay.</tspan></text>
        <text
           xml:space="preserve"
           transform="translate(25056,778)"
           style="font-variant:normal;font-weight:normal;font-size:20px;font-family:'Times New Roman';-inkscape-font-specification:TimesNewRomanPSMT;writing-mode:lr-tb;fill:#000000;fill-opacity:1;fill-rule:nonzero;stroke:none"
           id="text144"><tspan
             x="0 14 27 41 54 67 72 87 96 105 110 119 129 134 139 149 154 163 172 177 187 201 210 215 224 229 234 243 252 257 267 274 284 293 302 310 318 323 333 342 347 356 365 375 381 390 399 404 409 418 427 432 441 450 459 469 475 485 494 499 508 516 521 526 535 544 553 558 563 572 581 586 595 604 613 627 635 640 649 657 663 672 681 686"
             y="0"
             sodipodi:role="line"
             id="tspan142">NCARB wanted to automate the process by having the candidates take the exams using a</tspan></text>
        <text
           xml:space="preserve"
           transform="translate(25056,801)"
           style="font-variant:normal;font-weight:normal;font-size:20px;font-family:'Times New Roman';-inkscape-font-specification:TimesNewRomanPSMT;writing-mode:lr-tb;fill:#000000;fill-opacity:1;fill-rule:nonzero;stroke:none"
           id="text148"><tspan
             x="0 9 19 33 43 52 57 66 72 77 82 91 100 110 115 120 129 138 147 152 161 170 180 189 194 203 212 222 227 236 245 252 257 266 276 290 300 309 314 323 330 335 345 355 360 365 374 383 388 397 407 416 422 431 440 445 451 461 470 475 484 493 503 508 516 525 535 542 548 557 566 571 576 590 603 617 630 643 648 657 665 674 683"
             y="0"
             sodipodi:role="line"
             id="tspan146">computer, and then have another computer do the evaluation and scoring. NCARB asked</tspan></text>
        <text
           xml:space="preserve"
           transform="translate(25056,824)"
           style="font-variant:normal;font-weight:normal;font-size:20px;font-family:'Times New Roman';-inkscape-font-specification:TimesNewRomanPSMT;writing-mode:lr-tb;fill:#000000;fill-opacity:1;fill-rule:nonzero;stroke:none"
           id="text152"><tspan
             x="0 12 24 35 40 45 55 60 70 79 89 98 104 114 124 129 134 143 152 157 162 170 180 186 191 206 215 222 231 236 241 250 259 269 274 286 298 309 314 323 329 336 345 355 360 374 383 388 393 403 408 417 426 431 440 449 456 461 470 475 480 489 498 512 517 527 533 538 548 557 567 576 582 592 602 611 618 626 631 636"
             y="0"
             sodipodi:role="line"
             id="tspan150">ETS to develop that software, and ETS hired me to gather a team of developers to</tspan></text>
        <text
           xml:space="preserve"
           transform="translate(25056,847)"
           style="font-variant:normal;font-weight:normal;font-size:20px;font-family:'Times New Roman';-inkscape-font-specification:TimesNewRomanPSMT;writing-mode:lr-tb;fill:#000000;fill-opacity:1;fill-rule:nonzero;stroke:none"
           id="text156"><tspan
             x="0 10 17 27 37 46 55 64 69 74 83 92 97 107 114 124 134 143 152 157"
             y="0"
             sodipodi:role="line"
             id="tspan154">produce the product.</tspan></text>
        <text
           xml:space="preserve"
           transform="translate(25056,890)"
           style="font-variant:normal;font-weight:normal;font-size:20px;font-family:'Times New Roman';-inkscape-font-specification:TimesNewRomanPSMT;writing-mode:lr-tb;fill:#000000;fill-opacity:1;fill-rule:nonzero;stroke:none"
           id="text160"><tspan
             x="0 12 24 35 40 49 58 68 73 83 90 100 109 118 127 132 137 146 155 160 170 177 187 197 203 212 226 231 241 251 266 275 280 286 295 300 310 315 325 335 340 346 355 365 371 381 387 397 406 415 421 426 431 440 448 453 458 468 474 483 492 501 506 511 520 528 533 538 550 559 568 577 582 597 607 616 622 632 637 644 653 663 672 678 685"
             y="0"
             sodipodi:role="line"
             id="tspan158">ETS had broken the problem down into 18 individual test vignettes. Each would require</tspan></text>
        <text
           xml:space="preserve"
           transform="translate(25056,913)"
           style="font-variant:normal;font-weight:normal;font-size:20px;font-family:'Times New Roman';-inkscape-font-specification:TimesNewRomanPSMT;writing-mode:lr-tb;fill:#000000;fill-opacity:1;fill-rule:nonzero;stroke:none"
           id="text164"><tspan
             x="0 9 14 27 41 55 62 68 74 83 92 97 111 124 130 135 144 154 164 170 176 185 194 199 205 215 224 229 234 243 252 257 262 267 276 285 290 299 308 317 327 333 343 352 357 366 371 386 396 405 411 421 426 435 443 452 457 462 472 477 486 495 505 512 521 529 537 542 551 557 565 570 580 587 592 601 610 617 622 630 640 646 655 660 666 676 685"
             y="0"
             sodipodi:role="line"
             id="tspan162">a CAD-like GUI application that the candidate would use to express his or her solution.</tspan></text>
        <text
           xml:space="preserve"
           transform="translate(25056,936)"
           style="font-variant:normal;font-weight:normal;font-size:20px;font-family:'Times New Roman';-inkscape-font-specification:TimesNewRomanPSMT;writing-mode:lr-tb;fill:#000000;fill-opacity:1;fill-rule:nonzero;stroke:none"
           id="text168"><tspan
             x="0 13 18 26 35 45 54 61 70 75 84 89 97 106 116 123 129 138 147 152 161 171 181 187 193 202 211 216 222 232 241 246 261 271 280 286 296 301 306 315 324 333 338 344 353 358 363 372 381 386 394 404 410 419 424 430 440 449 457 462 471 480 490 495 505 512 522 532 541 550 559 564 572 581 591 598 607 615"
             y="0"
             sodipodi:role="line"
             id="tspan166">A separate scoring application would take in the solutions and produce scores.</tspan></text>
        <text
           xml:space="preserve"
           transform="translate(25056,979)"
           style="font-variant:normal;font-weight:normal;font-size:20px;font-family:'Times New Roman';-inkscape-font-specification:TimesNewRomanPSMT;writing-mode:lr-tb;fill:#000000;fill-opacity:1;fill-rule:nonzero;stroke:none"
           id="text172"><tspan
             x="0 17 26 31 41 50 57 62 71 80 86 91 96 104 110 124 129 143 152 167 176 182 189 198 203 208 217 226 236 241 247 252 259 268 277 283 289 297 306 316 321 326 335 344 349 354 359 368 377 385 394 399 409 419 424 433 443 453 459 465 474 483 488 494 504 513 521 526 535 544 554 559 569 578 586 591 596 605 619 629 638 647 652 660 665 675"
             y="0"
             sodipodi:role="line"
             id="tspan170">My partner, Jim Newkirk, and I realized that these 36 applications had vast amounts of</tspan></text>
      </g>
    </g>
  </g>
</svg>
