<?xml version="1.0" encoding="UTF-8" standalone="no"?>
<!-- Created with Inkscape (http://www.inkscape.org/) -->

<svg
   version="1.1"
   id="svg2"
   width="816"
   height="1056"
   viewBox="0 0 816 1056"
   sodipodi:docname="clean_arch.pdf"
   xmlns:inkscape="http://www.inkscape.org/namespaces/inkscape"
   xmlns:sodipodi="http://sodipodi.sourceforge.net/DTD/sodipodi-0.dtd"
   xmlns="http://www.w3.org/2000/svg"
   xmlns:svg="http://www.w3.org/2000/svg">
  <defs
     id="defs6">
    <clipPath
       clipPathUnits="userSpaceOnUse"
       id="clipPath18">
      <path
         d="m 6264,0 h 696 V 1056 H 6264 V 0"
         clip-rule="evenodd"
         id="path16" />
    </clipPath>
    <clipPath
       clipPathUnits="userSpaceOnUse"
       id="clipPath28">
      <path
         d="m 6264,66 h 696 V 996 H 6264 V 66"
         clip-rule="evenodd"
         id="path26" />
    </clipPath>
  </defs>
  <sodipodi:namedview
     id="namedview4"
     pagecolor="#ffffff"
     bordercolor="#000000"
     borderopacity="0.25"
     inkscape:showpageshadow="2"
     inkscape:pageopacity="0.0"
     inkscape:pagecheckerboard="0"
     inkscape:deskcolor="#d1d1d1" />
  <g
     id="g8"
     inkscape:groupmode="layer"
     inkscape:label="clean_arch"
     transform="translate(59.999999,2.64e-5)">
    <g
       id="g10" />
    <g
       id="g12"
       transform="translate(-6264)">
      <g
         id="g14"
         clip-path="url(#clipPath18)">
        <g
           id="g20" />
      </g>
    </g>
    <g
       id="g22"
       transform="translate(-6264)">
      <g
         id="g24"
         clip-path="url(#clipPath28)">
        <text
           xml:space="preserve"
           transform="translate(6264,82.67188)"
           style="font-variant:normal;font-weight:normal;font-size:20px;font-family:'Times New Roman';-inkscape-font-specification:TimesNewRomanPSMT;writing-mode:lr-tb;fill:#000000;fill-opacity:1;fill-rule:nonzero;stroke:none"
           id="text32"><tspan
             x="0 9 18 27 37 45 50 55 65 72 77 87 96 105 110 125 131 136 145 150 164 174 181 190 195 204 213 219 225 234 244 253 260 268 273 278 288 295 300 310 319 328 333 348 354 359 368 373 387 397 404 413 418 426 435 444 449 459 466 474 479 489 498 505 510 519 528 534 540 549 559 568 575 584 589 605 614 619 628 637 647 652 657"
             y="0"
             sodipodi:role="line"
             id="tspan30">heads, or one with more cylinders, or one with more sectors per cylinder? We had to</tspan></text>
        <text
           xml:space="preserve"
           transform="translate(6264,106)"
           style="font-variant:normal;font-weight:normal;font-size:20px;font-family:'Times New Roman';-inkscape-font-specification:TimesNewRomanPSMT;writing-mode:lr-tb;fill:#000000;fill-opacity:1;fill-rule:nonzero;stroke:none"
           id="text36"><tspan
             x="0 15 22 28 33 42 47 56 61 69 79 88 97 103 112 118 123 133 140 150 159 166 175 189 194 199 209 214 221 230 239 249 254 260 269 274 279 288 297 302 312 318 328 333 343 352 357 366 371 377 384 394 408 413 418 427 436 441 451 457 467 472 482 488 496 505 510 515 524 533 543 548 553 562 571 580 585 600 607 613 618 627 632 638 643 648 658 667 672 677 682"
             y="0"
             sodipodi:role="line"
             id="tspan34">write a special program to read in the old data from the old disk, and then write it out to</tspan></text>
        <text
           xml:space="preserve"
           transform="translate(6264,129)"
           style="font-variant:normal;font-weight:normal;font-size:20px;font-family:'Times New Roman';-inkscape-font-specification:TimesNewRomanPSMT;writing-mode:lr-tb;fill:#000000;fill-opacity:1;fill-rule:nonzero;stroke:none"
           id="text40"><tspan
             x="0 5 14 23 28 37 46 61 66 76 82 90 99 104 109 114 121 130 139 147 153 162 167 173 182 191 196 205 211 217 222 232 238 243 248 257 266 271 280 289 295 301 310 320 329 336 342 351 360 369 379 385 393 402 411 416 426 433 438 447 456 470 480 489 496 504 509 514 530 539 544 553 559 567 577 582 591 600 610 615 620 630 635 644 653 662 671 680"
             y="0"
             sodipodi:role="line"
             id="tspan38">the new disk, translating all of the cylinder/head/sector numbers. We also had to change</tspan></text>
        <text
           xml:space="preserve"
           transform="translate(6264,152)"
           style="font-variant:normal;font-weight:normal;font-size:20px;font-family:'Times New Roman';-inkscape-font-specification:TimesNewRomanPSMT;writing-mode:lr-tb;fill:#000000;fill-opacity:1;fill-rule:nonzero;stroke:none"
           id="text44"><tspan
             x="0 9 15 21 26 31 40 49 54 63 72 79 89 96 111 117 124 130 139 148 153 159 168 173 183 192 199 204 213 223 233 242 262 271 280 290 295 300 309 318 323 328 337 346 353 363 370 385 391 398 404 413 422 427 442 451 459"
             y="0"
             sodipodi:role="line"
             id="tspan42">all the hard-wiring in our code—and that hard-wiring was </tspan></text>
        <text
           xml:space="preserve"
           transform="translate(6728,152)"
           style="font-variant:normal;font-weight:normal;font-size:20px;font-family:'Times New Roman';-inkscape-font-specification:TimesNewRomanPSMT;writing-mode:lr-tb;fill:#000000;fill-opacity:1;fill-rule:nonzero;stroke:none"
           id="text48"><tspan
             x="0 9 19 28 35 44 59 68 77 84"
             y="0"
             sodipodi:role="line"
             id="tspan46">everywhere</tspan></text>
        <text
           xml:space="preserve"
           transform="translate(6821,152)"
           style="font-variant:normal;font-weight:normal;font-size:20px;font-family:'Times New Roman';-inkscape-font-specification:TimesNewRomanPSMT;writing-mode:lr-tb;fill:#000000;fill-opacity:1;fill-rule:nonzero;stroke:none"
           id="text52"><tspan
             x="0 6 11 25 31 37 42 47 56 65 70 80 89 97 103 112 121 129"
             y="0"
             sodipodi:role="line"
             id="tspan50">! All the business</tspan></text>
        <text
           xml:space="preserve"
           transform="translate(6264,175)"
           style="font-variant:normal;font-weight:normal;font-size:20px;font-family:'Times New Roman';-inkscape-font-specification:TimesNewRomanPSMT;writing-mode:lr-tb;fill:#000000;fill-opacity:1;fill-rule:nonzero;stroke:none"
           id="text56"><tspan
             x="0 7 16 22 31 39 44 53 62 71 86 91 96 105 114 119 128 137 143 149 158 168 177 184 190 199 208 217 227 233 241 250 259 264 274 281 286 294 303 312 321 335 344 349 355 364 369 379 388 393 402 408 414"
             y="0"
             sodipodi:role="line"
             id="tspan54">rules knew the cylinder/head/sector scheme in detail.</tspan></text>
        <text
           xml:space="preserve"
           transform="translate(6264,218)"
           style="font-variant:normal;font-weight:normal;font-size:20px;font-family:'Times New Roman';-inkscape-font-specification:TimesNewRomanPSMT;writing-mode:lr-tb;fill:#000000;fill-opacity:1;fill-rule:nonzero;stroke:none"
           id="text60"><tspan
             x="0 14 23 32 37 47 56 65 70 79 84 98 108 115 124 129 138 147 157 166 173 179 188 197 206 215 225 230 240 247 257 266 273 282 296 310 319 326 331 337 347 353 362 371 381 386 396 405 412 417 424 433 442 451 459 464 469 487 496 505 514 519 528 537 542 550 559 574 579 594 603 612 617 622 637 646 651 660 669"
             y="0"
             sodipodi:role="line"
             id="tspan58">One day a more experienced programmer joined our ranks. When he saw what we had</tspan></text>
        <text
           xml:space="preserve"
           transform="translate(6264,241)"
           style="font-variant:normal;font-weight:normal;font-size:20px;font-family:'Times New Roman';-inkscape-font-specification:TimesNewRomanPSMT;writing-mode:lr-tb;fill:#000000;fill-opacity:1;fill-rule:nonzero;stroke:none"
           id="text64"><tspan
             x="0 10 20 29 38 43 48 53 62 71 76 86 92 102 112 122 127 137 144 153 159 168 177 187 192 198 205 215 229 234 243 249 257 262 268 277 286 295 300 305 314 323 333 338 347 356 361 369 374 383 390 399 409 414 423 432 441 450 458 463 468 477 482 487 496 504 509 514 523 531 536 542 548 553 568 577 582 597 606 613 622 627 636 642 648 657 666 674 679 689"
             y="0"
             sodipodi:role="line"
             id="tspan62">done, the blood drained from his face, and he stared aghast at us, as if we were aliens of</tspan></text>
        <text
           xml:space="preserve"
           transform="translate(6264,264)"
           style="font-variant:normal;font-weight:normal;font-size:20px;font-family:'Times New Roman';-inkscape-font-specification:TimesNewRomanPSMT;writing-mode:lr-tb;fill:#000000;fill-opacity:1;fill-rule:nonzero;stroke:none"
           id="text68"><tspan
             x="0 8 18 32 41 46 55 61 70 80 85 90 102 111 120 129 134 143 152 157 166 175 184 189 195 204 209 218 228 238 244 252 261 271 276 285 293 298 303 313 318 327 336 345 354 363 372 377 387 396 403 408 417 427 437 444 453 461 469 475 484 493 498 506 515 524 533 547 556 561 566 576 581 590 598 607 612 619 628 634 643 648 654 664"
             y="0"
             sodipodi:role="line"
             id="tspan66">some kind. Then he gently advised us to change our addressing scheme to use relative</tspan></text>
        <text
           xml:space="preserve"
           transform="translate(6264,287)"
           style="font-variant:normal;font-weight:normal;font-size:20px;font-family:'Times New Roman';-inkscape-font-specification:TimesNewRomanPSMT;writing-mode:lr-tb;fill:#000000;fill-opacity:1;fill-rule:nonzero;stroke:none"
           id="text72"><tspan
             x="0 9 19 29 36 45 53 61 70 78"
             y="0"
             sodipodi:role="line"
             id="tspan70">addresses.</tspan></text>
        <text
           xml:space="preserve"
           transform="translate(6264,330)"
           style="font-variant:normal;font-weight:normal;font-size:20px;font-family:'Times New Roman';-inkscape-font-specification:TimesNewRomanPSMT;writing-mode:lr-tb;fill:#000000;fill-opacity:1;fill-rule:nonzero;stroke:none"
           id="text76"><tspan
             x="0 14 23 30 35 50 56 64 73 80 85 94 104 110 116 125 134 143 152 161 166 174 183 192 201 210 218 223 232 242 247 252 261 270 275 280 295 304 309 318 328 337 345 351 361 370 377 382 387 396 405 410 420 426 434 443 448 453 463 468 478 487 492 502 511 520 525 534 543 552 561 566 572 578 587 596 605 612 617 626 633 640 649 658 663 673"
             y="0"
             sodipodi:role="line"
             id="tspan74">Our wiser colleague suggested that we consider the disk to be one huge linear array of</tspan></text>
        <text
           xml:space="preserve"
           transform="translate(6264,353)"
           style="font-variant:normal;font-weight:normal;font-size:20px;font-family:'Times New Roman';-inkscape-font-specification:TimesNewRomanPSMT;writing-mode:lr-tb;fill:#000000;fill-opacity:1;fill-rule:nonzero;stroke:none"
           id="text80"><tspan
             x="0 8 17 26 31 41 48 56 61 66 75 84 93 102 107 116 126 136 143 152 160 168 177 187 193 202 207 217 226 231 240 245 253 262 272 281 290 299 304 310 319 325 330 336 345 350 359 368 377 383 388 393 405 414 423 432 437 452 461 466 475 485 494 500 510 515 530 537 543 548 557 562 571 576 582 588 593 598 604"
             y="0"
             sodipodi:role="line"
             id="tspan78">sectors, each addressable by a sequential integer. Then we could write a little</tspan></text>
        <text
           xml:space="preserve"
           transform="translate(6264,376)"
           style="font-variant:normal;font-weight:normal;font-size:20px;font-family:'Times New Roman';-inkscape-font-specification:TimesNewRomanPSMT;writing-mode:lr-tb;fill:#000000;fill-opacity:1;fill-rule:nonzero;stroke:none"
           id="text84"><tspan
             x="0 9 19 28 38 47 54 62 68 78 87 92 99 109 118 123 129 138 147 152 157 166 175 180 185 194 203 212 227 232 237 246 255 260 270 279 288 296 302 311 320 326 331 339 344 351 360 369 374 383 390 399 404 414 420 425 430 439 448 453 463 469 477 486 491 496 505 514 524 529 538 548 557 563 573 578 583 590 599 608 616 622 631 636 645 650 655 664"
             y="0"
             sodipodi:role="line"
             id="tspan82">conversion routine that knew the physical structure of the disk, and could translate the</tspan></text>
        <text
           xml:space="preserve"
           transform="translate(6264,399)"
           style="font-variant:normal;font-weight:normal;font-size:20px;font-family:'Times New Roman';-inkscape-font-specification:TimesNewRomanPSMT;writing-mode:lr-tb;fill:#000000;fill-opacity:1;fill-rule:nonzero;stroke:none"
           id="text88"><tspan
             x="0 7 16 22 31 36 42 52 61 66 75 85 95 102 111 119 127 132 137 147 152 161 166 175 184 190 196 205 215 224 231 237 246 255 264 274 280 288 297 306 311 321 328 333 342 351 365 375 384 391 396 406 415 420 425 434 443 448 454 460 468"
             y="0"
             sodipodi:role="line"
             id="tspan86">relative address to a cylinder/head/sector number on the fly.</tspan></text>
        <text
           xml:space="preserve"
           transform="translate(6264,442)"
           style="font-variant:normal;font-weight:normal;font-size:20px;font-family:'Times New Roman';-inkscape-font-specification:TimesNewRomanPSMT;writing-mode:lr-tb;fill:#000000;fill-opacity:1;fill-rule:nonzero;stroke:none"
           id="text92"><tspan
             x="0 11 21 28 33 42 51 60 65 74 80 89 94 100 110 117 122 131 139 144 149 164 173 178 183 193 203 212 217 226 232 240 245 254 264 274 280 289 298 303 308 324 333 338 347 356 365 374 383 392 402 407 412 421 430 435 444 450 459 468 475 481 490 500 509 515 520 530 540 546 552 561 570 575 585 591 596 601 610 619 624 632 641 649 654 663"
             y="0"
             sodipodi:role="line"
             id="tspan90">Fortunately for us, we took his advice. We changed the high-level policy of the system</tspan></text>
        <text
           xml:space="preserve"
           transform="translate(6264,465)"
           style="font-variant:normal;font-weight:normal;font-size:20px;font-family:'Times New Roman';-inkscape-font-specification:TimesNewRomanPSMT;writing-mode:lr-tb;fill:#000000;fill-opacity:1;fill-rule:nonzero;stroke:none"
           id="text96"><tspan
             x="0 5 15 20 30 39 44 53 62 71 81 89 94 100 109 114 123 133 143 152 157 162 167 176 185 190 200 209 218 226 232 241 250 256 261 269 274 281 290 299 304 313 320 329 334 344 350 355 360 369 378 383 393 399 407 416 421 426 438 447 456 461 466 475 481 487 497 512 521 531 536 545 553 558 563 573 578 588 597 606 616 625 635 641 650 655 660 669"
             y="0"
             sodipodi:role="line"
             id="tspan94">to be agnostic about the physical structure of the disk. That allowed us to decouple the</tspan></text>
        <text
           xml:space="preserve"
           transform="translate(6264,488)"
           style="font-variant:normal;font-weight:normal;font-size:20px;font-family:'Times New Roman';-inkscape-font-specification:TimesNewRomanPSMT;writing-mode:lr-tb;fill:#000000;fill-opacity:1;fill-rule:nonzero;stroke:none"
           id="text100"><tspan
             x="0 10 19 28 34 42 48 58 67 72 81 91 101 110 115 120 130 136 144 153 158 168 175 181 191 200 205 213 218 225 234 243 248 257 264 273 278 284 291 301 315 320 325 334 343 348 357 367 377 383 389 398 407 412 418 428 437"
             y="0"
             sodipodi:role="line"
             id="tspan98">decision about disk drive structure from the application.</tspan></text>
        <text
           xml:space="preserve"
           transform="translate(6264,558)"
           style="font-variant:normal;font-weight:bold;font-size:33px;font-family:'Times New Roman';-inkscape-font-specification:TimesNewRomanPS-BoldMT;writing-mode:lr-tb;fill:#000000;fill-opacity:1;fill-rule:nonzero;stroke:none"
           id="text104"><tspan
             x="0"
             y="0"
             id="tspan102">C</tspan></text>
        <text
           xml:space="preserve"
           transform="translate(6288,558)"
           style="font-variant:normal;font-weight:bold;font-size:33px;font-family:'Times New Roman';-inkscape-font-specification:TimesNewRomanPS-BoldMT;writing-mode:lr-tb;fill:#000000;fill-opacity:1;fill-rule:nonzero;stroke:none"
           id="text108"><tspan
             x="0 26 50 74 96 120 138 151 177"
             y="0"
             sodipodi:role="line"
             id="tspan106">ONCLUSION</tspan></text>
        <text
           xml:space="preserve"
           transform="translate(6264,603)"
           style="font-variant:normal;font-weight:normal;font-size:20px;font-family:'Times New Roman';-inkscape-font-specification:TimesNewRomanPSMT;writing-mode:lr-tb;fill:#000000;fill-opacity:1;fill-rule:nonzero;stroke:none"
           id="text112"><tspan
             x="0 12 21 30 35 40 55 65 70 78 83 93 100 106 115 123 128 134 143 148 153 162 168 176 181 190 199 208 218 223 232 239 244 253 260 269 274 283 292 301 315 325 331 340 348 353 358 364 373 378 383 392 401 406 414 428 437 443 449 454 459 469 475 480 489 494 504 511 517 526 535 541 551 557 566 571 576 585 594 599 604 613 620 629 638 644 649 658 667 672"
             y="0"
             sodipodi:role="line"
             id="tspan110">The two stories in this chapter are examples, in the small, of a principle that architects</tspan></text>
        <text
           xml:space="preserve"
           transform="translate(6264,626)"
           style="font-variant:normal;font-weight:normal;font-size:20px;font-family:'Times New Roman';-inkscape-font-specification:TimesNewRomanPSMT;writing-mode:lr-tb;fill:#000000;fill-opacity:1;fill-rule:nonzero;stroke:none"
           id="text116"><tspan
             x="0 9 23 33 39 49 58 63 69 78 83 88 97 106 111 117 126 133 142 151 156 161 175 185 195 205 210 219 226 235 244 250 255 264 273 278 286 291 300 309 316 325 331 340 346 352 361 366 374 383 393 402 409 418 423 432 437 447 456 461 470 476 482 490 495 501 508 518 532 537 547 557 563 569 578 586 591 596 605 614 624 629 634 643 652"
             y="0"
             sodipodi:role="line"
             id="tspan114">employ in the large. Good architects carefully separate details from policy, and then</tspan></text>
        <text
           xml:space="preserve"
           transform="translate(6264,649)"
           style="font-variant:normal;font-weight:normal;font-size:20px;font-family:'Times New Roman';-inkscape-font-specification:TimesNewRomanPSMT;writing-mode:lr-tb;fill:#000000;fill-opacity:1;fill-rule:nonzero;stroke:none"
           id="text120"><tspan
             x="0 10 19 28 38 47 57 63 72 77 82 91 100 105 115 125 131 137 146 155 160 166 173 183 197 202 207 216 225 230 240 249 254 263 269 275 283 288 296 306 311 316 325 335 342 352 361 370 379 385 394 399 404 413 422 427 432 437 446 455 460 470 480 486 492 501 510 515 524 533 541 546 555 565 570 579 588 598 613 619 628 638 647 656 661 671"
             y="0"
             sodipodi:role="line"
             id="tspan118">decouple the policy from the details so thoroughly that the policy has no knowledge of</tspan></text>
        <text
           xml:space="preserve"
           transform="translate(6264,672)"
           style="font-variant:normal;font-weight:normal;font-size:20px;font-family:'Times New Roman';-inkscape-font-specification:TimesNewRomanPSMT;writing-mode:lr-tb;fill:#000000;fill-opacity:1;fill-rule:nonzero;stroke:none"
           id="text124"><tspan
             x="0 5 14 23 28 38 47 52 61 67 73 81 86 95 104 114 119 129 139 148 156 161 170 180 185 190 200 209 219 228 237 247 252 262 271 276 281 290 299 304 314 323 328 337 343 349 357 362 368 377 382 391 400 409 414 429 438 446 451 456 470 480 490 500 505 514 521 530 539 545 550 559 568 573 581 586 596 605 613 619 628 637 642 647 656"
             y="0"
             sodipodi:role="line"
             id="tspan122">the details and does not depend on the details in any way. Good architects design the</tspan></text>
        <text
           xml:space="preserve"
           transform="translate(6264,695)"
           style="font-variant:normal;font-weight:normal;font-size:20px;font-family:'Times New Roman';-inkscape-font-specification:TimesNewRomanPSMT;writing-mode:lr-tb;fill:#000000;fill-opacity:1;fill-rule:nonzero;stroke:none"
           id="text128"><tspan
             x="0 10 20 26 32 41 50 55 63 73 78 83 92 101 106 111 121 130 139 145 153 159 169 178 186 191 200 210 220 229 234 239 244 253 262 267 277 286 291 300 306 312 320 325 334 343 352 357 367 376 381 391 400 406 415 424 433 443 448 457 466 476 481 491 500 506 515 522 529 538 548 553 559 569 576 581 590 598 603 609 619 628 637 642 651"
             y="0"
             sodipodi:role="line"
             id="tspan126">policy so that decisions about the details can be delayed and deferred for as long as</tspan></text>
        <text
           xml:space="preserve"
           transform="translate(6264,718)"
           style="font-variant:normal;font-weight:normal;font-size:20px;font-family:'Times New Roman';-inkscape-font-specification:TimesNewRomanPSMT;writing-mode:lr-tb;fill:#000000;fill-opacity:1;fill-rule:nonzero;stroke:none"
           id="text132"><tspan
             x="0 10 20 28 36 42 52 58 67"
             y="0"
             sodipodi:role="line"
             id="tspan130">possible.</tspan></text>
      </g>
    </g>
  </g>
</svg>
