<?xml version="1.0" encoding="UTF-8" standalone="no"?>
<!-- Created with Inkscape (http://www.inkscape.org/) -->

<svg
   version="1.1"
   id="svg2"
   width="816"
   height="1056"
   viewBox="0 0 816 1056"
   sodipodi:docname="clean_arch.pdf"
   xmlns:inkscape="http://www.inkscape.org/namespaces/inkscape"
   xmlns:sodipodi="http://sodipodi.sourceforge.net/DTD/sodipodi-0.dtd"
   xmlns="http://www.w3.org/2000/svg"
   xmlns:svg="http://www.w3.org/2000/svg">
  <defs
     id="defs6">
    <clipPath
       clipPathUnits="userSpaceOnUse"
       id="clipPath18">
      <path
         d="m 25752,0 h 696 v 1056 h -696 V 0"
         clip-rule="evenodd"
         id="path16" />
    </clipPath>
    <clipPath
       clipPathUnits="userSpaceOnUse"
       id="clipPath28">
      <path
         d="m 25752,66 h 696 v 930 h -696 V 66"
         clip-rule="evenodd"
         id="path26" />
    </clipPath>
  </defs>
  <sodipodi:namedview
     id="namedview4"
     pagecolor="#ffffff"
     bordercolor="#000000"
     borderopacity="0.25"
     inkscape:showpageshadow="2"
     inkscape:pageopacity="0.0"
     inkscape:pagecheckerboard="0"
     inkscape:deskcolor="#d1d1d1" />
  <g
     id="g8"
     inkscape:groupmode="layer"
     inkscape:label="clean_arch"
     transform="translate(59.999999,2.64e-5)">
    <g
       id="g10" />
    <g
       id="g12"
       transform="translate(-25752)">
      <g
         id="g14"
         clip-path="url(#clipPath18)">
        <g
           id="g20" />
      </g>
    </g>
    <g
       id="g22"
       transform="translate(-25752)">
      <g
         id="g24"
         clip-path="url(#clipPath28)">
        <text
           xml:space="preserve"
           transform="translate(25752,82.67188)"
           style="font-variant:normal;font-weight:normal;font-size:20px;font-family:'Times New Roman';-inkscape-font-specification:TimesNewRomanPSMT;writing-mode:lr-tb;fill:#000000;fill-opacity:1;fill-rule:nonzero;stroke:none"
           id="text32"><tspan
             x="0 8 14 28 34 40 49 56 62 67 75 80 85 97 106 115 120 130 140 145 159 172 178 183 192 202 212 220 225 234 240 246 251 260 268 277 287 292 300 306 320 326 332 341 348 353 362 371 379 384 393 400 409 417 422 431 440 450 455 469 478 487 496 505 514 520 528 542 550 555 560 572 581 590 595 605 615 620 628 637 647 654 660 669"
             y="0"
             sodipodi:role="line"
             id="tspan30">similarity. The 18 GUI apps all used similar gestures and mechanisms. The 18 scoring</tspan></text>
        <text
           xml:space="preserve"
           transform="translate(25752,106)"
           style="font-variant:normal;font-weight:normal;font-size:20px;font-family:'Times New Roman';-inkscape-font-specification:TimesNewRomanPSMT;writing-mode:lr-tb;fill:#000000;fill-opacity:1;fill-rule:nonzero;stroke:none"
           id="text36"><tspan
             x="0 9 19 29 35 41 50 59 64 70 80 89 97 102 111 117 123 128 137 145 154 164 169 174 183 192 197 205 214 228 237 242 256 265 270 279 288 302 311 316 322 331 340 346 351 356 365 374 383 392 398 408 417 426 434 439 444 458 464 474 483 492 497 502 511 520 528 537 542 550 559 568 575 584 594 599 608 614 623 637 646 655 660 668"
             y="0"
             sodipodi:role="line"
             id="tspan34">applications all used the same mathematical techniques. Given these shared elements,</tspan></text>
        <text
           xml:space="preserve"
           transform="translate(25752,129)"
           style="font-variant:normal;font-weight:normal;font-size:20px;font-family:'Times New Roman';-inkscape-font-specification:TimesNewRomanPSMT;writing-mode:lr-tb;fill:#000000;fill-opacity:1;fill-rule:nonzero;stroke:none"
           id="text40"><tspan
             x="0 8 14 28 33 42 51 61 66 72 77 92 101 108 117 122 132 141 146 155 162 176 182 191 200 210 215 220 230 235 245 254 264 273 279 289 299 304 313 318 325 334 343 351 360 370 376 385 390 396 403 412 426 435 450 460 467 476 481 487 497 504 509 518 524 530 535 545 555 560 569 579 589 595 601 610 619 624 630 640 649 657"
             y="0"
             sodipodi:role="line"
             id="tspan38">Jim and I were determined to develop a reusable framework for all 36 applications.</tspan></text>
        <text
           xml:space="preserve"
           transform="translate(25752,152)"
           style="font-variant:normal;font-weight:normal;font-size:20px;font-family:'Times New Roman';-inkscape-font-specification:TimesNewRomanPSMT;writing-mode:lr-tb;fill:#000000;fill-opacity:1;fill-rule:nonzero;stroke:none"
           id="text44"><tspan
             x="0 6 15 25 34 43 53 58 63 78 87 92 100 110 116 126 131 136 145 151 159 164 170 180 189 198 203 208 218 223 235 247 258 263 273 282 287 295 304 313 319 328 337 342 347 356 365 370 375 390 399 406 416 421 429 439 448 457 467 472 481 486 492 502 511 520 525 530 536 550 559 564 579 589 596 605 611 620 629 634 644 653 658 663 672"
             y="0"
             sodipodi:role="line"
             id="tspan42">Indeed, we sold this idea to ETS by saying that we’d spend a long time working on the</tspan></text>
        <text
           xml:space="preserve"
           transform="translate(25752,175)"
           style="font-variant:normal;font-weight:normal;font-size:20px;font-family:'Times New Roman';-inkscape-font-specification:TimesNewRomanPSMT;writing-mode:lr-tb;fill:#000000;fill-opacity:1;fill-rule:nonzero;stroke:none"
           id="text48"><tspan
             x="0 6 12 19 27 32 37 46 56 66 72 78 87 96 101 107 117 126 131 136 146 155 160 165 170 179 188 197 202 207 216 225 230 237 246 254 259 264 279 289 298 304 314 319 325 334 342 347 352 362 372 382 387 397 406 411 416 425 435 444 451 460 465 471 480 495 500 515 524 533 542 550"
             y="0"
             sodipodi:role="line"
             id="tspan46">first application, but then the rest would just pop out every few weeks.</tspan></text>
        <text
           xml:space="preserve"
           transform="translate(25752,218)"
           style="font-variant:normal;font-weight:normal;font-size:20px;font-family:'Times New Roman';-inkscape-font-specification:TimesNewRomanPSMT;writing-mode:lr-tb;fill:#000000;fill-opacity:1;fill-rule:nonzero;stroke:none"
           id="text52"><tspan
             x="0 14 19 24 29 38 44 52 57 67 77 83 92 97 102 111 121 130 135 143 152 162 171 177 187 192 202 211 216 222 231 240 249 256 266 275 281 295 301 310 319 324 334 341 346 356 365 374 383 389 398 407 412 421 431 440 447 452 461 470 479 489 494 504 513 518 523 532 538 546 551 561 571 581 590 595 600 612 621 631 639 648 653 663"
             y="0"
             sodipodi:role="line"
             id="tspan50">At this point you should be face-palming or banging your head on this book. Those of</tspan></text>
        <text
           xml:space="preserve"
           transform="translate(25752,241)"
           style="font-variant:normal;font-weight:normal;font-size:20px;font-family:'Times New Roman';-inkscape-font-specification:TimesNewRomanPSMT;writing-mode:lr-tb;fill:#000000;fill-opacity:1;fill-rule:nonzero;stroke:none"
           id="text56"><tspan
             x="0 9 19 28 33 48 57 67 72 81 88 97 102 112 118 128 133 142 151 161 170 179 188 193 207 216 225 230 237 246 260 269 283 293 302 309 314 319 328 337 342 351 358 367 376 384 393 402 407 417 424 434 448 454 462 471 476 486 492 497 511 525 530 535 551 560 565 580 589 596 605 610 619 625"
             y="0"
             sodipodi:role="line"
             id="tspan54">you who are old enough may remember the “reuse” promise of OO. We were all</tspan></text>
        <text
           xml:space="preserve"
           transform="translate(25752,264)"
           style="font-variant:normal;font-weight:normal;font-size:20px;font-family:'Times New Roman';-inkscape-font-specification:TimesNewRomanPSMT;writing-mode:lr-tb;fill:#000000;fill-opacity:1;fill-rule:nonzero;stroke:none"
           id="text60"><tspan
             x="0 9 19 28 38 44 53 62 71 81 86 91 101 110 119 128 133 138 147 156 165 170 175 180 189 198 203 208 214 220 225 234 244 253 258 264 273 281 286 291 306 313 323 328 337 342 351 361 371 381 386 395 401 410 419 428 433 443 453 459 468 477 482 489 499 506 512 521 530 535 544 554 559 572 583 594 599 608 618 628 637 642 647 656 666"
             y="0"
             sodipodi:role="line"
             id="tspan58">convinced, back then, that if you just wrote good clean object-oriented C++ code, you</tspan></text>
        <text
           xml:space="preserve"
           transform="translate(25752,287)"
           style="font-variant:normal;font-weight:normal;font-size:20px;font-family:'Times New Roman';-inkscape-font-specification:TimesNewRomanPSMT;writing-mode:lr-tb;fill:#000000;fill-opacity:1;fill-rule:nonzero;stroke:none"
           id="text64"><tspan
             x="0 15 25 34 40 50 55 61 70 78 83 88 97 106 111 120 127 136 142 148 157 162 172 179 189 199 208 217 226 231 237 247 252 260 265 274 283 293 298 304 314 319 327 332 342 348 353 360 369 378 386 395 405 411 420 425 434 444 454 463"
             y="0"
             sodipodi:role="line"
             id="tspan62">would just naturally produce lots and lots of reusable code.</tspan></text>
        <text
           xml:space="preserve"
           transform="translate(25752,330)"
           style="font-variant:normal;font-weight:normal;font-size:20px;font-family:'Times New Roman';-inkscape-font-specification:TimesNewRomanPSMT;writing-mode:lr-tb;fill:#000000;fill-opacity:1;fill-rule:nonzero;stroke:none"
           id="text68"><tspan
             x="0 11 21 26 41 50 55 63 72 77 82 91 101 111 120 125 130 135 145 150 165 172 178 183 192 197 202 211 220 225 231 237 244 252 257 262 271 281 291 297 303 312 321 326 332 342 351 371 386 395 401 410 419 424 439 448 456 461 466 475 484 489 503 513 521 526 531 540 550 564 574 580 586 595 604 609 618 628 633 643 649 654 659 668"
             y="0"
             sodipodi:role="line"
             id="tspan66">So we set about to write the first application—which was the most complicated of the</tspan></text>
        <text
           xml:space="preserve"
           transform="translate(25752,353)"
           style="font-variant:normal;font-weight:normal;font-size:20px;font-family:'Times New Roman';-inkscape-font-specification:TimesNewRomanPSMT;writing-mode:lr-tb;fill:#000000;fill-opacity:1;fill-rule:nonzero;stroke:none"
           id="text72"><tspan
             x="0 10 19 24 33 42 47 52 58 63 68 83 92 100 105 114 123 129 135 144 154 159 171 177 186 195 204 209 214 223 228 242 249 258 267 277 286"
             y="0"
             sodipodi:role="line"
             id="tspan70">batch. It was called Vignette Grande.</tspan></text>
        <text
           xml:space="preserve"
           transform="translate(25752,396)"
           style="font-variant:normal;font-weight:normal;font-size:20px;font-family:'Times New Roman';-inkscape-font-specification:TimesNewRomanPSMT;writing-mode:lr-tb;fill:#000000;fill-opacity:1;fill-rule:nonzero;stroke:none"
           id="text76"><tspan
             x="0 12 21 30 35 40 55 65 70 80 86 91 100 108 113 128 138 145 154 163 173 178 184 193 199 205 210 215 221 235 244 249 259 268 273 285 291 300 309 318 323 328 337 342 356 363 372 381 391 400 405 420 426 431 440 445 454 463 468 477 486 495 500 505 515 530 539 546 556 561 570 577 586 595 600 606 615 624 629"
             y="0"
             sodipodi:role="line"
             id="tspan74">The two of us worked full time on Vignette Grande with an eye toward creating a</tspan></text>
        <text
           xml:space="preserve"
           transform="translate(25752,419)"
           style="font-variant:normal;font-weight:normal;font-size:20px;font-family:'Times New Roman';-inkscape-font-specification:TimesNewRomanPSMT;writing-mode:lr-tb;fill:#000000;fill-opacity:1;fill-rule:nonzero;stroke:none"
           id="text80"><tspan
             x="0 7 16 25 33 42 52 58 67 72 78 85 94 108 117 132 142 149 158 163 168 174 179 184 189 199 209 218 223 232 240 245 254 259 268 277 286 292 297 302 316 321 326 331 340 349 354 363 372 382 387 397 403 408 413 422 431 436 441 450 459 468 475 480 495 504 509 518 527 537 542 552 562 567 577 587 597 602 608 614 623 632 640 645 655"
             y="0"
             sodipodi:role="line"
             id="tspan78">reusable framework. It took us a year. At the end of that year we had 45,000 lines of</tspan></text>
        <text
           xml:space="preserve"
           transform="translate(25752,442)"
           style="font-variant:normal;font-weight:normal;font-size:20px;font-family:'Times New Roman';-inkscape-font-specification:TimesNewRomanPSMT;writing-mode:lr-tb;fill:#000000;fill-opacity:1;fill-rule:nonzero;stroke:none"
           id="text84"><tspan
             x="0 6 13 22 36 45 60 70 77 86 91 100 110 120 129 134 143 152 162 167 177 187 197 207 212 218 224 233 242 250 255 265 271 276 285 295 305 311 317 326 335 340 346 356 365 370 379 389 399 408 413 418 434 443 448 458 467 473 479 489 498 505 514 524 529 534 543 549 557 562 572 579 589 599 608 617 622 627 632 642 647 659 671 682"
             y="0"
             sodipodi:role="line"
             id="tspan82">framework code and 6000 lines of application code. We delivered this product to ETS,</tspan></text>
        <text
           xml:space="preserve"
           transform="translate(25752,465)"
           style="font-variant:normal;font-weight:normal;font-size:20px;font-family:'Times New Roman';-inkscape-font-specification:TimesNewRomanPSMT;writing-mode:lr-tb;fill:#000000;fill-opacity:1;fill-rule:nonzero;stroke:none"
           id="text88"><tspan
             x="0 9 18 28 33 38 47 56 65 70 79 89 98 103 110 119 128 133 142 152 157 172 178 183 192 197 206 214 219 224 234 239 254 261 267 272 281 286 291 300 309 314 324 329 338 347 354 359 369 379 384 393 403 413 419 425 434 443 448 454 464 473 481 486 496 506 514 519 526 535 544 552 557 566"
             y="0"
             sodipodi:role="line"
             id="tspan86">and they contracted with us to write the other 17 applications post-haste.</tspan></text>
        <text
           xml:space="preserve"
           transform="translate(25752,508)"
           style="font-variant:normal;font-weight:normal;font-size:20px;font-family:'Times New Roman';-inkscape-font-specification:TimesNewRomanPSMT;writing-mode:lr-tb;fill:#000000;fill-opacity:1;fill-rule:nonzero;stroke:none"
           id="text92"><tspan
             x="0 11 21 26 34 40 54 59 68 77 87 92 98 103 110 119 128 135 144 150 155 164 174 179 188 193 198 207 216 230 235 245 251 256 261 270 277 286 295 300 310 315 324 333 340 345 355 364 374 383 389 399 409 418 425 433 438 447 456 466 471 486 495 500 510 519 528 537 546 551 556 566 571 586 596 603 612 617 627 636 641 646 655"
             y="0"
             sodipodi:role="line"
             id="tspan90">So Jim and I recruited a team of three other developers and we began to work on the</tspan></text>
        <text
           xml:space="preserve"
           transform="translate(25752,531)"
           style="font-variant:normal;font-weight:normal;font-size:20px;font-family:'Times New Roman';-inkscape-font-specification:TimesNewRomanPSMT;writing-mode:lr-tb;fill:#000000;fill-opacity:1;fill-rule:nonzero;stroke:none"
           id="text96"><tspan
             x="0 9 18 27 32 37 43 52 67 72 82 88 97 106 115 120 125 134 142"
             y="0"
             sodipodi:role="line"
             id="tspan94">next few vignettes.</tspan></text>
        <text
           xml:space="preserve"
           transform="translate(25752,574)"
           style="font-variant:normal;font-weight:normal;font-size:20px;font-family:'Times New Roman';-inkscape-font-specification:TimesNewRomanPSMT;writing-mode:lr-tb;fill:#000000;fill-opacity:1;fill-rule:nonzero;stroke:none"
           id="text100"><tspan
             x="0 13 22 27 32 40 50 64 73 78 87 93 102 111 116 131 140 149 154 159 174 181 191 200 209 214 219 235 244 249 255 265 274 283 293 298 303 312 321 326 331 336 345 354 359 366 375 384 392 401 411 417 426 431 437 444 453 467 476 491 501 508 517 522 537 546 551 560 569 579 584 593 600 609 618 623 632 642 647 662 671"
             y="0"
             sodipodi:role="line"
             id="tspan98">But something went wrong. We found that the reusable framework we had created was</tspan></text>
        <text
           xml:space="preserve"
           transform="translate(25752,597)"
           style="font-variant:normal;font-weight:normal;font-size:20px;font-family:'Times New Roman';-inkscape-font-specification:TimesNewRomanPSMT;writing-mode:lr-tb;fill:#000000;fill-opacity:1;fill-rule:nonzero;stroke:none"
           id="text104"><tspan
             x="0 9 19 24 29 39 48 55 60 66 75 84 90 99 106 112 121 126 133 142 151 159 168 178 184 193 198 203 209 214 219 229 235 245 250 259 269 274 279 285 291 296 301 316 325 331 337 342 348 357 362 372 377 382 391 400 405 414 423 438 443 452 462 472 478 484 493 502 507 513 523 532 540 545 555 564 570 579 588 593 608 615 621 626 631 640 649"
             y="0"
             sodipodi:role="line"
             id="tspan102">not particularly reusable. It did not fit well into the new applications being written.</tspan></text>
        <text
           xml:space="preserve"
           transform="translate(25752,620)"
           style="font-variant:normal;font-weight:normal;font-size:20px;font-family:'Times New Roman';-inkscape-font-specification:TimesNewRomanPSMT;writing-mode:lr-tb;fill:#000000;fill-opacity:1;fill-rule:nonzero;stroke:none"
           id="text108"><tspan
             x="0 12 21 30 37 46 51 66 75 82 91 96 104 113 123 128 134 143 148 154 161 167 176 181 187 197 206 214 219 224 233 242 247 252 258 267 275 280 285 295 301 311 320 327 332 337 352 362 369 378"
             y="0"
             sodipodi:role="line"
             id="tspan106">There were subtle frictions that just didn’t work.</tspan></text>
        <text
           xml:space="preserve"
           transform="translate(25752,663)"
           style="font-variant:normal;font-weight:normal;font-size:20px;font-family:'Times New Roman';-inkscape-font-specification:TimesNewRomanPSMT;writing-mode:lr-tb;fill:#000000;fill-opacity:1;fill-rule:nonzero;stroke:none"
           id="text112"><tspan
             x="0 12 21 27 35 40 55 64 72 77 87 96 105 115 121 130 135 145 151 159 168 178 187 194 203 212 218 227 236 241 246 256 265 270 275 290 299 304 314 323 329 335 344 354 363 373 378 393 402 407 416 425 434 449 454 469 478 487 492 497 502 512 517 527 537 542 551 561 571 580 585 590 596 601 606 611 627 636 641 656 665 674"
             y="0"
             sodipodi:role="line"
             id="tspan110">This was deeply discouraging, but we believed we knew what to do about it. We went</tspan></text>
        <text
           xml:space="preserve"
           transform="translate(25752,686)"
           style="font-variant:normal;font-weight:normal;font-size:20px;font-family:'Times New Roman';-inkscape-font-specification:TimesNewRomanPSMT;writing-mode:lr-tb;fill:#000000;fill-opacity:1;fill-rule:nonzero;stroke:none"
           id="text116"><tspan
             x="0 5 15 20 32 44 55 60 69 78 88 93 98 108 114 124 129 134 143 152 166 171 176 185 194 199 204 209 218 227 234 243 248 263 273 282 288 298 303 313 322 327 336 341 351 360 366 375 384 404 409 418 427 432 437 442 451 460 465 475 485 490 500 510 520 527 533 539 548 557 562 568 575 584 598 607 622 632 639"
             y="0"
             sodipodi:role="line"
             id="tspan114">to ETS and told them that there would be a delay—that the 45,000-line framework</tspan></text>
        <text
           xml:space="preserve"
           transform="translate(25752,709)"
           style="font-variant:normal;font-weight:normal;font-size:20px;font-family:'Times New Roman';-inkscape-font-specification:TimesNewRomanPSMT;writing-mode:lr-tb;fill:#000000;fill-opacity:1;fill-rule:nonzero;stroke:none"
           id="text120"><tspan
             x="0 9 18 27 37 46 56 61 66 76 81 91 100 105 112 121 136 143 149 154 159 168 177 182 187 197 204 209 218 223 228 234 243 252 260 265 270 277 286 295 305 311 320 328 333 342 352 357 362 378 387 392 397 407 413 423 428 433 442 451 465 470 475 484 493 498 503 509 514 519 534 544 553 559 569 574 579 588 597 606 611 620 625 640 649 655 661"
             y="0"
             sodipodi:role="line"
             id="tspan118">needed to be rewritten, or at least readjusted. We told them that it would take a while</tspan></text>
        <text
           xml:space="preserve"
           transform="translate(25752,732)"
           style="font-variant:normal;font-weight:normal;font-size:20px;font-family:'Times New Roman';-inkscape-font-specification:TimesNewRomanPSMT;writing-mode:lr-tb;fill:#000000;fill-opacity:1;fill-rule:nonzero;stroke:none"
           id="text124"><tspan
             x="0 6 16 25 34 43 50 55 60 70 75 84 93 98 103 108 117 126 131 136 146 156 165 174"
             y="0"
             sodipodi:role="line"
             id="tspan122">longer to get that done.</tspan></text>
        <text
           xml:space="preserve"
           transform="translate(25752,775)"
           style="font-variant:normal;font-weight:normal;font-size:20px;font-family:'Times New Roman';-inkscape-font-specification:TimesNewRomanPSMT;writing-mode:lr-tb;fill:#000000;fill-opacity:1;fill-rule:nonzero;stroke:none"
           id="text128"><tspan
             x="0 6 11 21 31 40 47 52 57 66 75 84 94 99 104 114 119 124 133 139 145 150 159 169 178 183 188 197 206 211 216 228 240 251 256 271 280 288 293 302 312 317 322 332 341 348 353 359 368 377 383 392 399 405 414 419 428 437 447 457 466 471 486 492 497 506 511 516 525 531 539 544 553 562 577 585"
             y="0"
             sodipodi:role="line"
             id="tspan126">I don’t need to tell you that ETS was not particularly happy with this news.</tspan></text>
        <text
           xml:space="preserve"
           transform="translate(25752,818)"
           style="font-variant:normal;font-weight:normal;font-size:20px;font-family:'Times New Roman';-inkscape-font-specification:TimesNewRomanPSMT;writing-mode:lr-tb;fill:#000000;fill-opacity:1;fill-rule:nonzero;stroke:none"
           id="text132"><tspan
             x="0 11 21 26 41 50 55 65 74 83 92 101 106 115 124 133 139 148 153 158 174 183 188 196 205 210 215 220 229 238 243 253 259 269 274 280 287 296 310 319 334 344 351 360 365 374 382 388 398 407 412 421 430 440 445 455 464 473 482 491 496 511 518 524 529 535 544 553 558 564 574 583 590 595 604 613"
             y="0"
             sodipodi:role="line"
             id="tspan130">So we began again. We set the old framework aside and began writing four new</tspan></text>
        <text
           xml:space="preserve"
           transform="translate(25752,841)"
           style="font-variant:normal;font-weight:normal;font-size:20px;font-family:'Times New Roman';-inkscape-font-specification:TimesNewRomanPSMT;writing-mode:lr-tb;fill:#000000;fill-opacity:1;fill-rule:nonzero;stroke:none"
           id="text136"><tspan
             x="0 10 16 25 34 43 48 53 62 70 75 83 89 103 112 118 123 132 141 150 160 169 177 183 191 196 201 217 226 231 246 256 265 271 281 286 296 306 313 320 330 345 350 356 366 375 384 392 397 406 415 425 430 439 449 459 468 473 479 486 496 510 515 520 529 538 543 553 559 569 574 580 587 596 610 619 634 644 651 660 665 675 684"
             y="0"
             sodipodi:role="line"
             id="tspan134">vignettes simultaneously. We would borrow ideas and code from the old framework but</tspan></text>
        <text
           xml:space="preserve"
           transform="translate(25752,864)"
           style="font-variant:normal;font-weight:normal;font-size:20px;font-family:'Times New Roman';-inkscape-font-specification:TimesNewRomanPSMT;writing-mode:lr-tb;fill:#000000;fill-opacity:1;fill-rule:nonzero;stroke:none"
           id="text140"><tspan
             x="0 7 16 31 41 48 57 62 67 76 85 99 104 112 122 127 132 141 150 155 160 165 174 183 192 197 203 209 214 219 225 234 239 249 254 263 269 275 280 286 296 305 312 317 332 338 343 352 362 371 376 381 395 405 415 421 427 433 442 451 456 462 472 481 486 491 503 512 518 526 531 540 546 552 562 569 574 579 584 594 604 613 618 627 636 646 651 660 669"
             y="0"
             sodipodi:role="line"
             id="tspan138">rework them so that they fit into all four without modification. This effort took another</tspan></text>
        <text
           xml:space="preserve"
           transform="translate(25752,887)"
           style="font-variant:normal;font-weight:normal;font-size:20px;font-family:'Times New Roman';-inkscape-font-specification:TimesNewRomanPSMT;writing-mode:lr-tb;fill:#000000;fill-opacity:1;fill-rule:nonzero;stroke:none"
           id="text144"><tspan
             x="0 9 18 27 33 38 43 49 54 59 69 76 86 96 105 114 123 133 138 147 156 166 171 180 189 196 201 211 221 226 236 246 256 263 269 275 284 293 298 304 311 320 334 343 358 368 375 384 389 394 404 410 419 427 432 438 448 457 464 469 479 485 494 503 512 517 522 531 539 544 549 558 567 572 577 592 601 608 617 622 632 641 646 651 660"
             y="0"
             sodipodi:role="line"
             id="tspan142">year. It produced another 45,000-line framework, plus four vignettes that were on the</tspan></text>
        <text
           xml:space="preserve"
           transform="translate(25752,910)"
           style="font-variant:normal;font-weight:normal;font-size:20px;font-family:'Times New Roman';-inkscape-font-specification:TimesNewRomanPSMT;writing-mode:lr-tb;fill:#000000;fill-opacity:1;fill-rule:nonzero;stroke:none"
           id="text148"><tspan
             x="0 10 17 27 36 43 48 58 64 69 79 89 99 109 114 119 129 134 144 154 164 174 179 185 191 200 209 217 222 231 240 249 258"
             y="0"
             sodipodi:role="line"
             id="tspan146">order of 3000 to 6000 lines each.</tspan></text>
        <text
           xml:space="preserve"
           transform="translate(25752,953)"
           style="font-variant:normal;font-weight:normal;font-size:20px;font-family:'Times New Roman';-inkscape-font-specification:TimesNewRomanPSMT;writing-mode:lr-tb;fill:#000000;fill-opacity:1;fill-rule:nonzero;stroke:none"
           id="text152"><tspan
             x="0 14 23 32 42 48 57 65 73 78 83 93 98 106 115 123 128 133 138 147 156 161 168 177 183 192 197 203 213 222 230 239 245 255 260 270 279 284 299 308 317 326 331 336 345 354 359 373 386 392 397 406 416 426 432 438 447 456 461 467 477 486 494 499 508 517 527 532 537 546 555 560 566 573 582 596 605 620 630 637"
             y="0"
             sodipodi:role="line"
             id="tspan150">Needless to say, the relationship between the GUI applications and the framework</tspan></text>
        <text
           xml:space="preserve"
           transform="translate(25752,976)"
           style="font-variant:normal;font-weight:normal;font-size:20px;font-family:'Times New Roman';-inkscape-font-specification:TimesNewRomanPSMT;writing-mode:lr-tb;fill:#000000;fill-opacity:1;fill-rule:nonzero;stroke:none"
           id="text156"><tspan
             x="0 6 16 22 28 38 53 62 72 77 82 91 100 105 119 128 138 147 156 166 175 184 193 202 207 220 229 235 244 249 254 266 275 284 289 299 305 314 323 332 337 342 351 359 364 379 388 395 404 409 419 425 434 443 449 458 466 471 476 486 491 496 505 514 519 525 532 541 555 564 579 589 596 605 610 615 629 635 641 646 651 660"
             y="0"
             sodipodi:role="line"
             id="tspan154">followed the Dependency Rule. The vignettes were plugins to the framework. All the</tspan></text>
      </g>
    </g>
  </g>
</svg>
