<?xml version="1.0" encoding="UTF-8" standalone="no"?>
<!-- Created with Inkscape (http://www.inkscape.org/) -->

<svg
   version="1.1"
   id="svg2"
   width="816"
   height="1056"
   viewBox="0 0 816 1056"
   sodipodi:docname="clean_arch.pdf"
   xmlns:inkscape="http://www.inkscape.org/namespaces/inkscape"
   xmlns:sodipodi="http://sodipodi.sourceforge.net/DTD/sodipodi-0.dtd"
   xmlns="http://www.w3.org/2000/svg"
   xmlns:svg="http://www.w3.org/2000/svg">
  <defs
     id="defs6">
    <clipPath
       clipPathUnits="userSpaceOnUse"
       id="clipPath18">
      <path
         d="m 20184,0 h 696 v 1056 h -696 V 0"
         clip-rule="evenodd"
         id="path16" />
    </clipPath>
    <clipPath
       clipPathUnits="userSpaceOnUse"
       id="clipPath28">
      <path
         d="m 20184,66 h 696 v 930 h -696 V 66"
         clip-rule="evenodd"
         id="path26" />
    </clipPath>
  </defs>
  <sodipodi:namedview
     id="namedview4"
     pagecolor="#ffffff"
     bordercolor="#000000"
     borderopacity="0.25"
     inkscape:showpageshadow="2"
     inkscape:pageopacity="0.0"
     inkscape:pagecheckerboard="0"
     inkscape:deskcolor="#d1d1d1" />
  <g
     id="g8"
     inkscape:groupmode="layer"
     inkscape:label="clean_arch"
     transform="translate(59.999999,2.64e-5)">
    <g
       id="g10" />
    <g
       id="g12"
       transform="translate(-20184)">
      <g
         id="g14"
         clip-path="url(#clipPath18)">
        <g
           id="g20" />
      </g>
    </g>
    <g
       id="g22"
       transform="translate(-20184)">
      <g
         id="g24"
         clip-path="url(#clipPath28)">
        <text
           xml:space="preserve"
           transform="translate(20184,83)"
           style="font-variant:normal;font-weight:normal;font-size:20px;font-family:'Times New Roman';-inkscape-font-specification:TimesNewRomanPSMT;writing-mode:lr-tb;fill:#000000;fill-opacity:1;fill-rule:nonzero;stroke:none"
           id="text32"><tspan
             x="0 14 20 25 34 41 46 53 62 72 81 90 95 104 114 119 128 133 138 147 161 171 176 184 189 199 209 218 225 230 235 250 260 265 274 283 292 299 307 312 317 327 336 343 348 361 373 387 392 401 410 420 429 434 443 453 458 467 476 486 506 515 524 530 540 547 552 561 570 579 584 593 599 608 628 638 645 655 665 675 684"
             y="0"
             sodipodi:role="line"
             id="tspan30">After repeated attempts over two years, our CEO gave up and—unfortunately—dropped</tspan></text>
        <text
           xml:space="preserve"
           transform="translate(20184,106)"
           style="font-variant:normal;font-weight:normal;font-size:20px;font-family:'Times New Roman';-inkscape-font-specification:TimesNewRomanPSMT;writing-mode:lr-tb;fill:#000000;fill-opacity:1;fill-rule:nonzero;stroke:none"
           id="text36"><tspan
             x="0 5 14 23 28 38 47 52 61 70 75 80 89 99 109 115 121 130 139 144 150 160 169 174 179 191 200 209 214 224 233 238 247 256 261 266 281 290 298 303 313 319 328 337 346 356 361 370 380 385 395 404 409 414 423 432 437 446 456 470 480 489 498 507 512 517 526 535 540 545 551 557 563 572 582 587 592 601 608 617 626 631 645 655 664 669 678"
             y="0"
             sodipodi:role="line"
             id="tspan34">the patent application. The patent was picked up by the company that filed three months</tspan></text>
        <text
           xml:space="preserve"
           transform="translate(20184,129)"
           style="font-variant:normal;font-weight:normal;font-size:20px;font-family:'Times New Roman';-inkscape-font-specification:TimesNewRomanPSMT;writing-mode:lr-tb;fill:#000000;fill-opacity:1;fill-rule:nonzero;stroke:none"
           id="text40"><tspan
             x="0 9 15 20 29 36 41 56 65 70 76 82 88 97 107 112 117 122 131 140 148 153 168 177 182 190 199 206 213 222 231 241 250 257 266 276 281 286 295 304 309 318 327 332 338 345 354 359 369 379 385 394 403 408 422 431 437 443 448 457 466 476 481 490 496 505 514 519 526 536 545 551 560 565 574 583 589 595 602 608 618 625 640 649 656 666 672 681"
             y="0"
             sodipodi:role="line"
             id="tspan38">after we filed; thus we surrendered the entire voice mail and electronic call-forwarding</tspan></text>
        <text
           xml:space="preserve"
           transform="translate(20184,152)"
           style="font-variant:normal;font-weight:normal;font-size:20px;font-family:'Times New Roman';-inkscape-font-specification:TimesNewRomanPSMT;writing-mode:lr-tb;fill:#000000;fill-opacity:1;fill-rule:nonzero;stroke:none"
           id="text44"><tspan
             x="0 14 23 30 39 48 53"
             y="0"
             sodipodi:role="line"
             id="tspan42">market.</tspan></text>
        <text
           xml:space="preserve"
           transform="translate(20184,195)"
           style="font-variant:normal;font-weight:normal;font-size:20px;font-family:'Times New Roman';-inkscape-font-specification:TimesNewRomanPSMT;writing-mode:lr-tb;fill:#000000;fill-opacity:1;fill-rule:nonzero;stroke:none"
           id="text48"><tspan
             x="0 14 23 32 41"
             y="0"
             sodipodi:role="line"
             id="tspan46">Ouch!</tspan></text>
        <text
           xml:space="preserve"
           transform="translate(20184,238)"
           style="font-variant:normal;font-weight:normal;font-size:20px;font-family:'Times New Roman';-inkscape-font-specification:TimesNewRomanPSMT;writing-mode:lr-tb;fill:#000000;fill-opacity:1;fill-rule:nonzero;stroke:none"
           id="text52"><tspan
             x="0 14 23 28 33 42 51 56 66 71 80 89 96 101 110 119 128 138 143 148 157 167 176 181 190 199 208 215 220 225 235 241 250 264 273 278 292 301 306 312 322 329 334 339 348 358 366 375 380 389 398 407 417 426 432 441 450 455 469 478 487 496 502 511 520 528 533 538 547 556 561 566 575 585 600 605 615 621 630 639 648 657 662 672 681"
             y="0"
             sodipodi:role="line"
             id="tspan50">On the other hand, you can’t blame me for those annoying machines that now plague our</tspan></text>
        <text
           xml:space="preserve"
           transform="translate(20184,261)"
           style="font-variant:normal;font-weight:normal;font-size:20px;font-family:'Times New Roman';-inkscape-font-specification:TimesNewRomanPSMT;writing-mode:lr-tb;fill:#000000;fill-opacity:1;fill-rule:nonzero;stroke:none"
           id="text56"><tspan
             x="0 9 18 24 32 37 46 55 64 73"
             y="0"
             sodipodi:role="line"
             id="tspan54">existence.</tspan></text>
        <text
           xml:space="preserve"
           transform="translate(20184,331)"
           style="font-variant:normal;font-weight:bold;font-size:33px;font-family:'Times New Roman';-inkscape-font-specification:TimesNewRomanPS-BoldMT;writing-mode:lr-tb;fill:#000000;fill-opacity:1;fill-rule:nonzero;stroke:none"
           id="text60"><tspan
             x="0"
             y="0"
             id="tspan58">C</tspan></text>
        <text
           xml:space="preserve"
           transform="translate(20208,331)"
           style="font-variant:normal;font-weight:bold;font-size:33px;font-family:'Times New Roman';-inkscape-font-specification:TimesNewRomanPS-BoldMT;writing-mode:lr-tb;fill:#000000;fill-opacity:1;fill-rule:nonzero;stroke:none"
           id="text64"><tspan
             x="0 24 47 67"
             y="0"
             sodipodi:role="line"
             id="tspan62">RAFT</tspan></text>
        <text
           xml:space="preserve"
           transform="translate(20305,331)"
           style="font-variant:normal;font-weight:bold;font-size:33px;font-family:'Times New Roman';-inkscape-font-specification:TimesNewRomanPS-BoldMT;writing-mode:lr-tb;fill:#000000;fill-opacity:1;fill-rule:nonzero;stroke:none"
           id="text68"><tspan
             x="0"
             y="0"
             id="tspan66">D</tspan></text>
        <text
           xml:space="preserve"
           transform="translate(20329,331)"
           style="font-variant:normal;font-weight:bold;font-size:33px;font-family:'Times New Roman';-inkscape-font-specification:TimesNewRomanPS-BoldMT;writing-mode:lr-tb;fill:#000000;fill-opacity:1;fill-rule:nonzero;stroke:none"
           id="text72"><tspan
             x="0 13 31 48 68 90 114"
             y="0"
             sodipodi:role="line"
             id="tspan70">ISPATCH</tspan></text>
        <text
           xml:space="preserve"
           transform="translate(20477,331)"
           style="font-variant:normal;font-weight:bold;font-size:33px;font-family:'Times New Roman';-inkscape-font-specification:TimesNewRomanPS-BoldMT;writing-mode:lr-tb;fill:#000000;fill-opacity:1;fill-rule:nonzero;stroke:none"
           id="text76"><tspan
             x="0"
             y="0"
             id="tspan74">S</tspan></text>
        <text
           xml:space="preserve"
           transform="translate(20495,331)"
           style="font-variant:normal;font-weight:bold;font-size:33px;font-family:'Times New Roman';-inkscape-font-specification:TimesNewRomanPS-BoldMT;writing-mode:lr-tb;fill:#000000;fill-opacity:1;fill-rule:nonzero;stroke:none"
           id="text80"><tspan
             x="0 24 42 64 86"
             y="0"
             sodipodi:role="line"
             id="tspan78">YSTEM</tspan></text>
        <text
           xml:space="preserve"
           transform="translate(20184,376)"
           style="font-variant:normal;font-weight:normal;font-size:20px;font-family:'Times New Roman';-inkscape-font-specification:TimesNewRomanPSMT;writing-mode:lr-tb;fill:#000000;fill-opacity:1;fill-rule:nonzero;stroke:none"
           id="text84"><tspan
             x="0 12 25 30 39 48 58 63 69 78 84 90 99 109 114 123 131 136 145 150 160 167 177 187 196 205 210 215 220 230 239 244 249 264 273 278 286 291 297 303 309 314 323 332 342 347 356 362 368 373 378 387 393 401 406 415 424 431 441 456 465 472 481 486 495 504 514 519 527 537 543 548 563 572 579 588 593 598 607 616 621 626 641"
             y="0"
             sodipodi:role="line"
             id="tspan82">ER had failed as a product, but we still had all this hardware and software that we</tspan></text>
        <text
           xml:space="preserve"
           transform="translate(20184,399)"
           style="font-variant:normal;font-weight:normal;font-size:20px;font-family:'Times New Roman';-inkscape-font-specification:TimesNewRomanPSMT;writing-mode:lr-tb;fill:#000000;fill-opacity:1;fill-rule:nonzero;stroke:none"
           id="text88"><tspan
             x="0 9 19 28 34 44 49 58 66 75 80 85 95 100 109 118 127 136 145 154 163 168 178 187 194 199 208 217 223 231 236 242 251 260 265 275 282 292 302 311 320 325 330 336 342 351 360 368 373 378 395 405 412 421 431 441 450 456 461 466 476 485 492 497 511 520 527 536 545 550 556 565 574 579 587 596 605 614 623 631 639 644 659 665 670"
             y="0"
             sodipodi:role="line"
             id="tspan86">could use to enhance our existing product lines. Moreover, our marketing success with</tspan></text>
        <text
           xml:space="preserve"
           transform="translate(20184,422)"
           style="font-variant:normal;font-weight:normal;font-size:20px;font-family:'Times New Roman';-inkscape-font-specification:TimesNewRomanPSMT;writing-mode:lr-tb;fill:#000000;fill-opacity:1;fill-rule:nonzero;stroke:none"
           id="text92"><tspan
             x="0 13 26 37 42 51 61 70 80 86 95 104 113 123 128 137 145 150 155 164 173 178 183 198 207 212 220 229 239 248 254 264 269 279 285 291 300 307 312 321 326 336 346 352 361 370 375 382 391 399 409 419 428 436 445 450 458 467 475 480 489 503 508 514 524 531 536 542 551 556 565 572 581 590 595 601 610 619 624 639 645 650"
             y="0"
             sodipodi:role="line"
             id="tspan90">VRS convinced us that we should offer a voice response system for interacting with</tspan></text>
        <text
           xml:space="preserve"
           transform="translate(20184,445)"
           style="font-variant:normal;font-weight:normal;font-size:20px;font-family:'Times New Roman';-inkscape-font-specification:TimesNewRomanPSMT;writing-mode:lr-tb;fill:#000000;fill-opacity:1;fill-rule:nonzero;stroke:none"
           id="text96"><tspan
             x="0 5 14 20 29 39 48 58 67 76 81 90 97 106 112 117 125 139 148 157 162 167 176 185 190 195 205 211 221 226 235 245 250 255 265 274 284 293 302 312 317 327 336 341 351 360 367 372 377 386 394 399 404 412 421 429 434 443 457 465"
             y="0"
             sodipodi:role="line"
             id="tspan94">telephone craftsmen that did not depend on our test systems.</tspan></text>
        <text
           xml:space="preserve"
           transform="translate(20184,488)"
           style="font-variant:normal;font-weight:normal;font-size:20px;font-family:'Times New Roman';-inkscape-font-specification:TimesNewRomanPSMT;writing-mode:lr-tb;fill:#000000;fill-opacity:1;fill-rule:nonzero;stroke:none"
           id="text100"><tspan
             x="0 12 21 30 38 43 58 67 75 80 90 100 107 116 121 134 148 159 164 169 174 183 192 197 210 217 226 232 237 242 256 262 270 280 289 294 303 312 317 328 337 345 350 359 373 378 383 396 410 421 426 441 450 458 463 472 480 488 497 506 511 517 526 532 538 547 552 564 577 582 587 597 606"
             y="0"
             sodipodi:role="line"
             id="tspan98">Thus was born CDS, the Craft Dispatch System. CDS was essentially ER, but</tspan></text>
        <text
           xml:space="preserve"
           transform="translate(20184,511)"
           style="font-variant:normal;font-weight:normal;font-size:20px;font-family:'Times New Roman';-inkscape-font-specification:TimesNewRomanPSMT;writing-mode:lr-tb;fill:#000000;fill-opacity:1;fill-rule:nonzero;stroke:none"
           id="text104"><tspan
             x="0 8 18 27 36 42 48 54 63 72 78 84 93 98 104 114 123 132 140 149 159 164 174 183 188 193 202 211 216 226 235 242 251 256 265 274 281 288 298 313 318 328 338 352 361 367 376 381 391 397 402 416 425 434 443 452 458 467 476 481 486 495 504 509 519 528 538 544 554 563 577 586 595 600 605 615"
             y="0"
             sodipodi:role="line"
             id="tspan102">specifically focused on the very narrow domain of managing the deployment of</tspan></text>
        <text
           xml:space="preserve"
           transform="translate(20184,534)"
           style="font-variant:normal;font-weight:normal;font-size:20px;font-family:'Times New Roman';-inkscape-font-specification:TimesNewRomanPSMT;writing-mode:lr-tb;fill:#000000;fill-opacity:1;fill-rule:nonzero;stroke:none"
           id="text108"><tspan
             x="0 5 14 20 29 39 48 58 67 76 81 88 97 107 116 122 129 143 152 161 166 172 181 186 191 200 209 214 220 226 235 241 251"
             y="0"
             sodipodi:role="line"
             id="tspan106">telephone repairmen in the field.</tspan></text>
        <text
           xml:space="preserve"
           transform="translate(20184,577)"
           style="font-variant:normal;font-weight:normal;font-size:20px;font-family:'Times New Roman';-inkscape-font-specification:TimesNewRomanPSMT;writing-mode:lr-tb;fill:#000000;fill-opacity:1;fill-rule:nonzero;stroke:none"
           id="text112"><tspan
             x="0 18 27 36 45 50 59 64 74 81 91 101 107 116 130 135 150 159 167 172 182 188 196 205 215 225 234 241 250 260 265 271 280 285 294 299 309 318 328 337 346 351 357 363 372 381 386 391 400 405 410 417 427 436 446 452 461 466 471 477 486 495 504 509 514 529 538 546 551 560 567 576 585 590 599 609 614 620 629 634 639 648"
             y="0"
             sodipodi:role="line"
             id="tspan110">When a problem was discovered in a phone line, a trouble ticket was created in the</tspan></text>
        <text
           xml:space="preserve"
           transform="translate(20184,600)"
           style="font-variant:normal;font-weight:normal;font-size:20px;font-family:'Times New Roman';-inkscape-font-specification:TimesNewRomanPSMT;writing-mode:lr-tb;fill:#000000;fill-opacity:1;fill-rule:nonzero;stroke:none"
           id="text116"><tspan
             x="0 8 17 24 34 40 49 58 63 72 81 90 95 104 110 115 120 131 138 148 157 167 173 182 187 192 198 207 216 225 230 238 243 258 267 274 283 288 297 306 316 321 326 332 341 346 355 364 369 378 387 392 402 416 425 430 439 449 454 462 471 479 484 493 507 512 517 535 544 553 562 567 576 581 588 597 607 616 622 629 643 652 661 666 672"
             y="0"
             sodipodi:role="line"
             id="tspan114">service center. Trouble tickets were kept in an automated system. When a repairman in</tspan></text>
        <text
           xml:space="preserve"
           transform="translate(20184,623)"
           style="font-variant:normal;font-weight:normal;font-size:20px;font-family:'Times New Roman';-inkscape-font-specification:TimesNewRomanPSMT;writing-mode:lr-tb;fill:#000000;fill-opacity:1;fill-rule:nonzero;stroke:none"
           id="text120"><tspan
             x="0 5 14 23 28 34 40 49 55 65 70 76 82 91 97 105 114 123 133 138 147 152 158 168 178 183 188 197 206 211 226 236 245 251 261 266 275 284 290 296 301 306 315 324 329 337 346 353 363 369 378 387 392 401 410 419 424 433 440 445 451 461 468 473 478 487 496 501 510 519 528 533 538 547 555 563 569 578 587 601 610 619 624 629 634 646 655"
             y="0"
             sodipodi:role="line"
             id="tspan118">the field finished a job, he would call the service center for the next assignment. The</tspan></text>
        <text
           xml:space="preserve"
           transform="translate(20184,646)"
           style="font-variant:normal;font-weight:normal;font-size:20px;font-family:'Times New Roman';-inkscape-font-specification:TimesNewRomanPSMT;writing-mode:lr-tb;fill:#000000;fill-opacity:1;fill-rule:nonzero;stroke:none"
           id="text124"><tspan
             x="0 8 17 24 34 40 49 58 63 72 81 90 95 104 111 116 126 136 145 152 161 166 176 183 188 203 213 222 228 238 243 253 262 268 274 279 288 298 303 308 317 326 331 340 349 358 363 368 373 380 390 399 409 415 424 429 434 440 449 458 467 472 477 486 495 505 510 517 526 535 545 550 556 561 566 576 582 588 593 598 608 613 618 627"
             y="0"
             sodipodi:role="line"
             id="tspan122">service center operator would pull up the next trouble ticket and read it off to the</tspan></text>
        <text
           xml:space="preserve"
           transform="translate(20184,669)"
           style="font-variant:normal;font-weight:normal;font-size:20px;font-family:'Times New Roman';-inkscape-font-specification:TimesNewRomanPSMT;writing-mode:lr-tb;fill:#000000;fill-opacity:1;fill-rule:nonzero;stroke:none"
           id="text128"><tspan
             x="0 7 16 26 35 41 48 62 71 80"
             y="0"
             sodipodi:role="line"
             id="tspan126">repairman.</tspan></text>
        <text
           xml:space="preserve"
           transform="translate(20184,712)"
           style="font-variant:normal;font-weight:normal;font-size:20px;font-family:'Times New Roman';-inkscape-font-specification:TimesNewRomanPSMT;writing-mode:lr-tb;fill:#000000;fill-opacity:1;fill-rule:nonzero;stroke:none"
           id="text132"><tspan
             x="0 16 25 30 38 47 52 57 66 76 86 95 100 105 110 120 125 134 143 148 158 172 181 186 195 200 205 214 223 228 233 243 250 260 269 278 286 294 299 304 318 327 334 339 348 358 367 373 378 393 402 410 415 421 431 438 443 448 457 466 471 478 487 497 506 512 519 533 542 551 556 562 571 576 581 590 599 604 610 616 625 631 641 646 651"
             y="0"
             sodipodi:role="line"
             id="tspan130">We set about to automate that process. Our goal was for the repairman in the field to</tspan></text>
        <text
           xml:space="preserve"
           transform="translate(20184,735)"
           style="font-variant:normal;font-weight:normal;font-size:20px;font-family:'Times New Roman';-inkscape-font-specification:TimesNewRomanPSMT;writing-mode:lr-tb;fill:#000000;fill-opacity:1;fill-rule:nonzero;stroke:none"
           id="text136"><tspan
             x="0 9 18 24 30 35 41 50 55 65 70 83 97 108 113 122 131 141 146 155 163 172 177 183 193 200 205 210 219 228 233 242 251 260 265 270 279 287 295 301 310 319 333 342 351 356 361 366 379 393 404 409 424 434 443 449 459 464 473 483 492 500 509 515 520 525 530 539 548 553 558 565 575 584 594 600 609 614 619 625 634 643 652"
             y="0"
             sodipodi:role="line"
             id="tspan134">call into CDS and ask for the next assignment. CDS would consult the trouble ticket</tspan></text>
        <text
           xml:space="preserve"
           transform="translate(20184,758)"
           style="font-variant:normal;font-weight:normal;font-size:20px;font-family:'Times New Roman';-inkscape-font-specification:TimesNewRomanPSMT;writing-mode:lr-tb;fill:#000000;fill-opacity:1;fill-rule:nonzero;stroke:none"
           id="text140"><tspan
             x="0 8 17 25 30 39 53 58 63 72 81 91 96 103 112 121 131 136 146 152 158 163 168 177 186 191 198 207 215 224 230 235 243 248 253 266 280 291 296 311 321 330 336 346 351 360 369 378 388 393 398 405 414 423 432 437 447 453 458 473 482 488 497 506 511 518 527 537 546 552 559 573 582 591 596 611 620"
             y="0"
             sodipodi:role="line"
             id="tspan138">system, and read off the results. CDS would keep track of which repairman was</tspan></text>
        <text
           xml:space="preserve"
           transform="translate(20184,781)"
           style="font-variant:normal;font-weight:normal;font-size:20px;font-family:'Times New Roman';-inkscape-font-specification:TimesNewRomanPSMT;writing-mode:lr-tb;fill:#000000;fill-opacity:1;fill-rule:nonzero;stroke:none"
           id="text144"><tspan
             x="0 9 17 25 31 40 49 58 68 73 78 88 93 108 117 123 132 141 146 151 158 168 177 187 193 202 207 212 218 227 236 245 250 255 260 269 278 288 293 308 318 327 333 343 348 354 363 369 379 386 400 405 410 419 428 433 438 445 455 464 474 480 489 494 499 505 514 523 532 537 542 550 559 567 572 581 595 600 610 616 621 626 635 644 649 657 662 671 676 685"
             y="0"
             sodipodi:role="line"
             id="tspan142">assigned to which trouble ticket, and would inform the trouble ticket system of the status</tspan></text>
        <text
           xml:space="preserve"
           transform="translate(20184,804)"
           style="font-variant:normal;font-weight:normal;font-size:20px;font-family:'Times New Roman';-inkscape-font-specification:TimesNewRomanPSMT;writing-mode:lr-tb;fill:#000000;fill-opacity:1;fill-rule:nonzero;stroke:none"
           id="text148"><tspan
             x="0 10 16 21 26 35 44 49 56 65 75 84 90 96"
             y="0"
             sodipodi:role="line"
             id="tspan146">of the repair.</tspan></text>
        <text
           xml:space="preserve"
           transform="translate(20184,847)"
           style="font-variant:normal;font-weight:normal;font-size:20px;font-family:'Times New Roman';-inkscape-font-specification:TimesNewRomanPSMT;writing-mode:lr-tb;fill:#000000;fill-opacity:1;fill-rule:nonzero;stroke:none"
           id="text152"><tspan
             x="0 12 21 30 37 46 51 66 75 82 91 96 106 115 121 126 135 140 149 154 160 169 184 189 195 204 209 218 225 234 242 247 253 262 271 276 282 291 300 305 314 321 330 338 343 353 359 364 369 378 384 392 397 405 414 422 427 436 450 455 464 473 483 489 498 507 512 517 527 532 542 552 557 572 578 583 592 597 603 612 617 626 633 642 651 656 662 671"
             y="0"
             sodipodi:role="line"
             id="tspan150">There were quite a few interesting features of this system having to do with interacting</tspan></text>
        <text
           xml:space="preserve"
           transform="translate(20184,870)"
           style="font-variant:normal;font-weight:normal;font-size:20px;font-family:'Times New Roman';-inkscape-font-specification:TimesNewRomanPSMT;writing-mode:lr-tb;fill:#000000;fill-opacity:1;fill-rule:nonzero;stroke:none"
           id="text156"><tspan
             x="0 15 21 26 35 40 45 54 63 68 73 80 90 99 109 115 124 129 134 140 149 158 167 172 177 185 194 202 207 216 230 235 240 245 254 263 268 278 284 293 302 307 312 326 335 344 353 362 371 385 394 403 408 413 421 430 438 443 452 466 471 476 485 494 504 509 518 527 536 541 550 559 564 574 588 597 602 611 621 626 631 640 648 653 659 668"
             y="0"
             sodipodi:role="line"
             id="tspan154">with the trouble ticket system, the plant management system, and any automated testing</tspan></text>
        <text
           xml:space="preserve"
           transform="translate(20184,893)"
           style="font-variant:normal;font-weight:normal;font-size:20px;font-family:'Times New Roman';-inkscape-font-specification:TimesNewRomanPSMT;writing-mode:lr-tb;fill:#000000;fill-opacity:1;fill-rule:nonzero;stroke:none"
           id="text160"><tspan
             x="0 8 17 25 30 39 53 61"
             y="0"
             sodipodi:role="line"
             id="tspan158">systems.</tspan></text>
        <text
           xml:space="preserve"
           transform="translate(20184,936)"
           style="font-variant:normal;font-weight:normal;font-size:20px;font-family:'Times New Roman';-inkscape-font-specification:TimesNewRomanPSMT;writing-mode:lr-tb;fill:#000000;fill-opacity:1;fill-rule:nonzero;stroke:none"
           id="text164"><tspan
             x="0 12 21 30 35 44 53 63 72 79 85 94 103 112 121 126 141 147 152 161 166 171 180 189 194 202 211 218 228 234 243 252 259 269 276 282 291 300 305 314 324 329 338 345 354 363 369 374 383 392 397 406 413 422 427 437 443 448 460 473 478 492 501 511 520 525 539 548 553 568 577 586 591 596 601 611 616 621 628 637 642 647 656"
             y="0"
             sodipodi:role="line"
             id="tspan162">The experience with the service-oriented architecture of ER made me want to try the</tspan></text>
        <text
           xml:space="preserve"
           transform="translate(20184,959)"
           style="font-variant:normal;font-weight:normal;font-size:20px;font-family:'Times New Roman';-inkscape-font-specification:TimesNewRomanPSMT;writing-mode:lr-tb;fill:#000000;fill-opacity:1;fill-rule:nonzero;stroke:none"
           id="text168"><tspan
             x="0 8 17 31 40 45 51 61 70 79 84 98 108 115 124 129 138 147 156 163 172 180 188 194 204 213 219 227 232 237 249 258 267 272 280 285 294 299 308 313 327 336 345 354 360 369 378 383 389 399 406 411 420 425 430 437 447 456 466 472 481 486 491 497 506 515 524 529 534 549 558 566 571 585 594 603 612 617 631 641 648"
             y="0"
             sodipodi:role="line"
             id="tspan166">same idea more aggressively. The state machine for a trouble ticket was much more</tspan></text>
        <text
           xml:space="preserve"
           transform="translate(20184,982)"
           style="font-variant:normal;font-weight:normal;font-size:20px;font-family:'Times New Roman';-inkscape-font-specification:TimesNewRomanPSMT;writing-mode:lr-tb;fill:#000000;fill-opacity:1;fill-rule:nonzero;stroke:none"
           id="text172"><tspan
             x="0 6 15 25 35 41 51 60 70 75 80 89 98 107 112 117 126 135 140 148 153 162 167 176 181 195 204 213 222 228 237 246 251 257 267 274 279 288 297 306 316 322 328 337 346 351 360 365 374 383 389 395 400 415 421 426 435 440 452 465 470 475 481 486 494 503 508 513 522 532 542 551 556 561 566 576 581 590 597 606 615 620 629 634 649 658 667"
             y="0"
             sodipodi:role="line"
             id="tspan170">involved than the state machine for handling a call with ER. I set about to create what</tspan></text>
      </g>
    </g>
  </g>
</svg>
