<?xml version="1.0" encoding="UTF-8" standalone="no"?>
<!-- Created with Inkscape (http://www.inkscape.org/) -->

<svg
   version="1.1"
   id="svg2"
   width="816"
   height="1056"
   viewBox="0 0 816 1056"
   sodipodi:docname="clean_arch.pdf"
   xmlns:inkscape="http://www.inkscape.org/namespaces/inkscape"
   xmlns:sodipodi="http://sodipodi.sourceforge.net/DTD/sodipodi-0.dtd"
   xmlns="http://www.w3.org/2000/svg"
   xmlns:svg="http://www.w3.org/2000/svg">
  <defs
     id="defs6">
    <clipPath
       clipPathUnits="userSpaceOnUse"
       id="clipPath18">
      <path
         d="m 2784,0 h 696 V 1056 H 2784 V 0"
         clip-rule="evenodd"
         id="path16" />
    </clipPath>
    <clipPath
       clipPathUnits="userSpaceOnUse"
       id="clipPath28">
      <path
         d="m 2784,66 h 696 V 996 H 2784 V 66"
         clip-rule="evenodd"
         id="path26" />
    </clipPath>
  </defs>
  <sodipodi:namedview
     id="namedview4"
     pagecolor="#ffffff"
     bordercolor="#000000"
     borderopacity="0.25"
     inkscape:showpageshadow="2"
     inkscape:pageopacity="0.0"
     inkscape:pagecheckerboard="0"
     inkscape:deskcolor="#d1d1d1" />
  <g
     id="g8"
     inkscape:groupmode="layer"
     inkscape:label="clean_arch"
     transform="translate(59.999999,2.64e-5)">
    <g
       id="g10" />
    <g
       id="g12"
       transform="translate(-2784)">
      <g
         id="g14"
         clip-path="url(#clipPath18)">
        <g
           id="g20" />
      </g>
    </g>
    <g
       id="g22"
       transform="translate(-2784)">
      <g
         id="g24"
         clip-path="url(#clipPath28)">
        <text
           xml:space="preserve"
           transform="translate(2784,82.67188)"
           style="font-variant:normal;font-weight:normal;font-size:20px;font-family:'Times New Roman';-inkscape-font-specification:TimesNewRomanPSMT;writing-mode:lr-tb;fill:#000000;fill-opacity:1;fill-rule:nonzero;stroke:none"
           id="text32"><tspan
             x="0 15 25 34 40 50 55 64 78 84 89 94 99 108 117 122 127 136 145 159 168 173 182 190 195 204 213"
             y="0"
             sodipodi:role="line"
             id="tspan30">would emit that name as an </tspan></text>
        <text
           xml:space="preserve"
           transform="translate(3002,82.67188)"
           style="font-variant:normal;font-weight:normal;font-size:20px;font-family:'Times New Roman';-inkscape-font-specification:TimesNewRomanPSMT;writing-mode:lr-tb;fill:#000000;fill-opacity:1;fill-rule:nonzero;stroke:none"
           id="text36"><tspan
             x="0 9 18 23 32 39 48 57 63 68 78 87 93 99 108 114 119 125 135"
             y="0"
             sodipodi:role="line"
             id="tspan34">external definition</tspan></text>
        <text
           xml:space="preserve"
           transform="translate(3146,82.67188)"
           style="font-variant:normal;font-weight:normal;font-size:20px;font-family:'Times New Roman';-inkscape-font-specification:TimesNewRomanPSMT;writing-mode:lr-tb;fill:#000000;fill-opacity:1;fill-rule:nonzero;stroke:none"
           id="text40"><tspan
             x="0 5 10 22 31 40 49 54 59 68 77 82 88 98 107 117 126 133 138 147 157 166 172 182"
             y="0"
             sodipodi:role="line"
             id="tspan38">. Then the loader could </tspan></text>
        <text
           xml:space="preserve"
           transform="translate(3333,82.67188)"
           style="font-variant:normal;font-weight:normal;font-size:20px;font-family:'Times New Roman';-inkscape-font-specification:TimesNewRomanPSMT;writing-mode:lr-tb;fill:#000000;fill-opacity:1;fill-rule:nonzero;stroke:none"
           id="text44"><tspan
             x="0 6 12 21"
             y="0"
             sodipodi:role="line"
             id="tspan42">link</tspan></text>
        <text
           xml:space="preserve"
           transform="translate(3368,82.67188)"
           style="font-variant:normal;font-weight:normal;font-size:20px;font-family:'Times New Roman';-inkscape-font-specification:TimesNewRomanPSMT;writing-mode:lr-tb;fill:#000000;fill-opacity:1;fill-rule:nonzero;stroke:none"
           id="text48"><tspan
             x="0 5 14 23 28 37 46 51 60 67 76 85"
             y="0"
             sodipodi:role="line"
             id="tspan46">the external</tspan></text>
        <text
           xml:space="preserve"
           transform="translate(2784,106)"
           style="font-variant:normal;font-weight:normal;font-size:20px;font-family:'Times New Roman';-inkscape-font-specification:TimesNewRomanPSMT;writing-mode:lr-tb;fill:#000000;fill-opacity:1;fill-rule:nonzero;stroke:none"
           id="text52"><tspan
             x="0 7 16 22 31 38 47 56 65 74 82 87 92 102 107 112 121 130 135 144 153 158 167 174 183 192 198 203 213 222 228 234 243 249 254 260 270 279 287 292 302 311 320 329 334 340 345 350 359 368 378 383 393 402 407 416 423 437 443 452 461 471 476 491 500 509 516 525 530 536 541 546 555 564 574 579 585 595 604 614 623 633 638 643 652 662 670"
             y="0"
             sodipodi:role="line"
             id="tspan50">references to the external definitions once it had determined where it had loaded those</tspan></text>
        <text
           xml:space="preserve"
           transform="translate(2784,129)"
           style="font-variant:normal;font-weight:normal;font-size:20px;font-family:'Times New Roman';-inkscape-font-specification:TimesNewRomanPSMT;writing-mode:lr-tb;fill:#000000;fill-opacity:1;fill-rule:nonzero;stroke:none"
           id="text56"><tspan
             x="0 10 19 25 31 40 46 51 57 67 76 84"
             y="0"
             sodipodi:role="line"
             id="tspan54">definitions.</tspan></text>
        <text
           xml:space="preserve"
           transform="translate(2784,172)"
           style="font-variant:normal;font-weight:normal;font-size:20px;font-family:'Times New Roman';-inkscape-font-specification:TimesNewRomanPSMT;writing-mode:lr-tb;fill:#000000;fill-opacity:1;fill-rule:nonzero;stroke:none"
           id="text60"><tspan
             x="0 14 23 33 38 43 52 61 66 72 78 87 96 102 111 120 125 131 141 150 160 169 176 181 196 205 213 218 228 238 245 254"
             y="0"
             sodipodi:role="line"
             id="tspan58">And the linking loader was born.</tspan></text>
        <text
           xml:space="preserve"
           transform="translate(2784,242)"
           style="font-variant:normal;font-weight:bold;font-size:33px;font-family:'Times New Roman';-inkscape-font-specification:TimesNewRomanPS-BoldMT;writing-mode:lr-tb;fill:#000000;fill-opacity:1;fill-rule:nonzero;stroke:none"
           id="text64"><tspan
             x="0"
             y="0"
             id="tspan62">L</tspan></text>
        <text
           xml:space="preserve"
           transform="translate(2806,242)"
           style="font-variant:normal;font-weight:bold;font-size:33px;font-family:'Times New Roman';-inkscape-font-specification:TimesNewRomanPS-BoldMT;writing-mode:lr-tb;fill:#000000;fill-opacity:1;fill-rule:nonzero;stroke:none"
           id="text68"><tspan
             x="0 13 37 63 85 109"
             y="0"
             sodipodi:role="line"
             id="tspan66">INKERS</tspan></text>
        <text
           xml:space="preserve"
           transform="translate(2784,287)"
           style="font-variant:normal;font-weight:normal;font-size:20px;font-family:'Times New Roman';-inkscape-font-specification:TimesNewRomanPSMT;writing-mode:lr-tb;fill:#000000;fill-opacity:1;fill-rule:nonzero;stroke:none"
           id="text72"><tspan
             x="0 12 21 30 35 41 47 56 65 71 80 89 94 100 110 119 129 138 145 150 159 165 171 181 196 205 215 220 230 237 247 256 263 272 286 300 309 316 324 329 334 344 349 359 365 375 381 391 400 405 410 419 428 434 441 446 456 463 473 482 489 498 512 520 525 534 544 549 559 568 573 583 588 596 605 615 624 631 640 645 654 660"
             y="0"
             sodipodi:role="line"
             id="tspan70">The linking loader allowed programmers to divide their programs up onto separately</tspan></text>
        <text
           xml:space="preserve"
           transform="translate(2784,310)"
           style="font-variant:normal;font-weight:normal;font-size:20px;font-family:'Times New Roman';-inkscape-font-specification:TimesNewRomanPSMT;writing-mode:lr-tb;fill:#000000;fill-opacity:1;fill-rule:nonzero;stroke:none"
           id="text76"><tspan
             x="0 9 19 33 43 49 55 64 74 80 89 94 103 112 122 127 133 143 152 162 171 181 187 196 201 209 218 227 241 250 259 264 272 277 282 294 303 309 317 322 337 347 354 363 372 382 387 402 411 417 423 428 443 452 461 470 475 482 491 497 506 511 517 527 536 542 551 556 564 578 587 593 599 604 614 621 631 640 647 656 670"
             y="0"
             sodipodi:role="line"
             id="tspan74">compilable and loadable segments. This worked well when relatively small programs</tspan></text>
        <text
           xml:space="preserve"
           transform="translate(2784,333)"
           style="font-variant:normal;font-weight:normal;font-size:20px;font-family:'Times New Roman';-inkscape-font-specification:TimesNewRomanPSMT;writing-mode:lr-tb;fill:#000000;fill-opacity:1;fill-rule:nonzero;stroke:none"
           id="text80"><tspan
             x="0 15 24 31 40 45 55 64 70 79 88 93 99 105 114 123 132 142 147 162 168 173 182 187 194 203 209 218 223 229 239 248 254 263 268 276 290 299 305 311 316 322 328 338 345 354 361 367 376 384 389 394 408 418 433 442 452 461 467 472 477 483 492 497 502 511 520 525 531 540 545 554 559 569 579 589 599 607 612 621 630 640 645 654 663 670 676"
             y="0"
             sodipodi:role="line"
             id="tspan78">were being linked with relatively small libraries. However, in the late 1960s and early</tspan></text>
        <text
           xml:space="preserve"
           transform="translate(2784,356)"
           style="font-variant:normal;font-weight:normal;font-size:20px;font-family:'Times New Roman';-inkscape-font-specification:TimesNewRomanPSMT;writing-mode:lr-tb;fill:#000000;fill-opacity:1;fill-rule:nonzero;stroke:none"
           id="text84"><tspan
             x="0 10 20 30 40 48 53 58 68 75 85 94 101 110 124 138 147 154 162 167 176 186 191 196 210 220 227 236 241 250 264 274 280 285 291 301 310 318 323 328 337 346 356 361 366 375 384 390 397 402 412 419 429 438 445 454 468 476 481 490 500 505 510 519 524 530 540 545 550 560 566 575 584 593 599"
             y="0"
             sodipodi:role="line"
             id="tspan82">1970s, programmers got more ambitious, and their programs got a lot bigger.</tspan></text>
        <text
           xml:space="preserve"
           transform="translate(2784,399)"
           style="font-variant:normal;font-weight:normal;font-size:20px;font-family:'Times New Roman';-inkscape-font-specification:TimesNewRomanPSMT;writing-mode:lr-tb;fill:#000000;fill-opacity:1;fill-rule:nonzero;stroke:none"
           id="text88"><tspan
             x="0 12 22 31 40 45 54 63 69 75 83 88 93 98 107 116 121 127 133 142 151 157 166 175 180 186 196 205 215 224 231 239 244 259 268 275 284 289 294 304 314 319 327 333 343 358 363 368 378 383 388 398 404 413 420 429 434 443 448 453 464 473 482 491 496 502 512 521 526 532 538 548 555 564 571 577 586 594 599 614 623 630 639 644 652 657 667 674 683"
             y="0"
             sodipodi:role="line"
             id="tspan86">Eventually, the linking loaders were too slow to tolerate. Function libraries were stored</tspan></text>
        <text
           xml:space="preserve"
           transform="translate(2784,422)"
           style="font-variant:normal;font-weight:normal;font-size:20px;font-family:'Times New Roman';-inkscape-font-specification:TimesNewRomanPSMT;writing-mode:lr-tb;fill:#000000;fill-opacity:1;fill-rule:nonzero;stroke:none"
           id="text92"><tspan
             x="0 10 19 24 32 38 48 63 68 78 87 97 103 112 121 129 134 142 151 160 169 174 183 188 202 211 220 229 238 243 249 258 263 268 277 287 296 301 306 318 328 337 346 351 356 365 374 379 389 395 403 412 420 425 430 440 449 458 467 472 477 486 495 504 509 514 529 538 545 554 559 569 578 584 589 598 603 611 617 627 641 646 651 664 672 678 687"
             y="0"
             sodipodi:role="line"
             id="tspan90">on slow devices such a magnetic tape. Even the disks, back then, were quite slow. Using</tspan></text>
        <text
           xml:space="preserve"
           transform="translate(2784,445)"
           style="font-variant:normal;font-weight:normal;font-size:20px;font-family:'Times New Roman';-inkscape-font-specification:TimesNewRomanPSMT;writing-mode:lr-tb;fill:#000000;fill-opacity:1;fill-rule:nonzero;stroke:none"
           id="text96"><tspan
             x="0 5 14 23 31 40 45 52 61 67 76 81 87 97 106 112 121 126 134 140 150 165 170 180 189 199 205 214 223 231 236 241 246 255 264 269 275 281 290 299 305 314 323 328 334 344 353 363 372 379 387 392 401 410 420 425 430 440 445 452 461 470 480 485 495 505 513 522 531 539 544 549 555 561 566 575 585 590 595 604 613 622 632 639 648 658 666 671 676 686"
             y="0"
             sodipodi:role="line"
             id="tspan94">these relatively slow devices, the linking loaders had to read dozens, if not hundreds, of</tspan></text>
        <text
           xml:space="preserve"
           transform="translate(2784,468)"
           style="font-variant:normal;font-weight:normal;font-size:20px;font-family:'Times New Roman';-inkscape-font-specification:TimesNewRomanPSMT;writing-mode:lr-tb;fill:#000000;fill-opacity:1;fill-rule:nonzero;stroke:none"
           id="text100"><tspan
             x="0 10 16 25 34 41 50 55 61 67 77 84 93 100 106 115 123 128 133 143 148 155 164 172 182 188 198 207 212 217 226 235 240 249 258 263 272 279 288 297 303 308 315 324 330 339 346 355 364 373 382 390 395 400 414 422 427 437 444 454 463 470 479 493 501 506 515 522 531 546 551 557 566 573 582 591 598 603 612 621 631 636 642 651 658 667 676 682"
             y="0"
             sodipodi:role="line"
             id="tspan98">binary libraries to resolve the external references. As programs grew larger and larger,</tspan></text>
        <text
           xml:space="preserve"
           transform="translate(2784,491)"
           style="font-variant:normal;font-weight:normal;font-size:20px;font-family:'Times New Roman';-inkscape-font-specification:TimesNewRomanPSMT;writing-mode:lr-tb;fill:#000000;fill-opacity:1;fill-rule:nonzero;stroke:none"
           id="text104"><tspan
             x="0 9 18 28 33 47 57 64 73 78 84 90 100 107 116 123 132 137 143 152 161 170 175 181 191 200 208 213 222 231 240 249 263 272 278 287 292 301 311 316 322 331 336 342 348 358 365 374 381 387 396 404 409 414 423 428 434 440 449 458 464 473 482 487 493 503 512 522 531 538 543 552 562 571 577 587 592 597 606 615 624 629 643 653 660"
             y="0"
             sodipodi:role="line"
             id="tspan102">and more library functions accumulated in libraries, a linking loader could take more</tspan></text>
        <text
           xml:space="preserve"
           transform="translate(2784,514)"
           style="font-variant:normal;font-weight:normal;font-size:20px;font-family:'Times New Roman';-inkscape-font-specification:TimesNewRomanPSMT;writing-mode:lr-tb;fill:#000000;fill-opacity:1;fill-rule:nonzero;stroke:none"
           id="text108"><tspan
             x="0 5 14 23 32 37 46 55 60 69 79 88 95 100 106 115 123 128 133 138 148 153 159 169 178 188 193 198 207 216 221 231 238 248 257 264 273 287"
             y="0"
             sodipodi:role="line"
             id="tspan106">than an hour just to load the program.</tspan></text>
        <text
           xml:space="preserve"
           transform="translate(2784,557)"
           style="font-variant:normal;font-weight:normal;font-size:20px;font-family:'Times New Roman';-inkscape-font-specification:TimesNewRomanPSMT;writing-mode:lr-tb;fill:#000000;fill-opacity:1;fill-rule:nonzero;stroke:none"
           id="text112"><tspan
             x="0 12 22 31 40 45 54 63 69 75 83 88 93 98 107 116 121 127 137 146 156 162 171 180 185 194 203 213 218 223 232 241 246 252 258 267 276 282 291 300 305 320 329 336 345 350 358 367 377 386 393 402 407 416 426 431 437 446 451 461 466 471 486 496 501 511 520 529 537 546 554 559 564 575 582 592 601 608 617 631 645 654 661"
             y="0"
             sodipodi:role="line"
             id="tspan110">Eventually, the loading and the linking were separated into two phases. Programmers</tspan></text>
        <text
           xml:space="preserve"
           transform="translate(2784,580)"
           style="font-variant:normal;font-weight:normal;font-size:20px;font-family:'Times New Roman';-inkscape-font-specification:TimesNewRomanPSMT;writing-mode:lr-tb;fill:#000000;fill-opacity:1;fill-rule:nonzero;stroke:none"
           id="text116"><tspan
             x="0 5 15 25 34 39 44 53 62 67 75 81 91 106 111 121 130 137 142 162 167 176 185 190 200 209 216 221 226 231 240 249 254 259 269 275 285 290 295 304 313 318 323 329 335 344 353 359 368 377 397 406 415 425 430 440 449 454 459 465 470 475 481 490 495 505 510 519 524 532 541 551 560 567 576 581 590 595 604 614 624 630 636 645 654 659 665 675"
             y="0"
             sodipodi:role="line"
             id="tspan114">took the slow part—the part that did that linking—and put it into a separate application</tspan></text>
        <text
           xml:space="preserve"
           transform="translate(2784,603)"
           style="font-variant:normal;font-weight:normal;font-size:20px;font-family:'Times New Roman';-inkscape-font-specification:TimesNewRomanPSMT;writing-mode:lr-tb;fill:#000000;fill-opacity:1;fill-rule:nonzero;stroke:none"
           id="text120"><tspan
             x="0 9 18 24 30 39 49 54 59 68 77"
             y="0"
             sodipodi:role="line"
             id="tspan118">called the </tspan></text>
        <text
           xml:space="preserve"
           transform="translate(2866,603)"
           style="font-variant:normal;font-weight:normal;font-size:20px;font-family:'Times New Roman';-inkscape-font-specification:TimesNewRomanPSMT;writing-mode:lr-tb;fill:#000000;fill-opacity:1;fill-rule:nonzero;stroke:none"
           id="text124"><tspan
             x="0 6 12 21 30 39"
             y="0"
             sodipodi:role="line"
             id="tspan122">linker</tspan></text>
        <text
           xml:space="preserve"
           transform="translate(2912,603)"
           style="font-variant:normal;font-weight:normal;font-size:20px;font-family:'Times New Roman';-inkscape-font-specification:TimesNewRomanPSMT;writing-mode:lr-tb;fill:#000000;fill-opacity:1;fill-rule:nonzero;stroke:none"
           id="text128"><tspan
             x="0 5 10 22 31 40 45 55 64 69 79 88 93 98 108 114 119 124 133 142 147 153 159 168 177 186 193 198 213 222 230 235 244 249 255 261 270 279 288 298 303 310 319 325 335 344 353 358 367 377 383 392 397 402 411 420 425 430 439 444 451 460 466 476 485 494 499 505 514"
             y="0"
             sodipodi:role="line"
             id="tspan126">. The output of the linker was a linked relocatable that a relocating</tspan></text>
        <text
           xml:space="preserve"
           transform="translate(2784,626)"
           style="font-variant:normal;font-weight:normal;font-size:20px;font-family:'Times New Roman';-inkscape-font-specification:TimesNewRomanPSMT;writing-mode:lr-tb;fill:#000000;fill-opacity:1;fill-rule:nonzero;stroke:none"
           id="text132"><tspan
             x="0 6 16 25 35 44 51 56 65 75 84 90 100 105 111 121 130 140 145 155 164 171 180 185 195 204 210 219 228 234 242 247 252 264 273 279 287"
             y="0"
             sodipodi:role="line"
             id="tspan130">loader could load very quickly. This </tspan></text>
        <text
           xml:space="preserve"
           transform="translate(3076,626)"
           style="font-variant:normal;font-weight:normal;font-size:20px;font-family:'Times New Roman';-inkscape-font-specification:TimesNewRomanPSMT;writing-mode:lr-tb;fill:#000000;fill-opacity:1;fill-rule:nonzero;stroke:none"
           id="text136"><tspan
             x="0 9 15 21 31 46 55 65 70 80 87 97 106 113 122 136 150 159 166 174 179 184 194 199 209 216 225 235 244 251 260 265 274 283 288 297 306 315 324 333 338 347 357 363"
             y="0"
             sodipodi:role="line"
             id="tspan134">allowed programmers to prepare an executable</tspan></text>
        <text
           xml:space="preserve"
           transform="translate(2784,649)"
           style="font-variant:normal;font-weight:normal;font-size:20px;font-family:'Times New Roman';-inkscape-font-specification:TimesNewRomanPSMT;writing-mode:lr-tb;fill:#000000;fill-opacity:1;fill-rule:nonzero;stroke:none"
           id="text140"><tspan
             x="0 9 17 23 32 41 46 51 60 69 74 82 88 98 113 118 124 130 139 148 157 163 168 173 183 192 197 202 207 216 225 234 239 244 253 262 271 276 285 295 304 310 320 325 331 341 350 360 365 371 376 381 391 400 406 415 424 430 438 443 448 457 462 467 476 485 494 499 504 510 524 533"
             y="0"
             sodipodi:role="line"
             id="tspan138">using the slow linker, but then they could load it quickly, at any time.</tspan></text>
        <text
           xml:space="preserve"
           transform="translate(2784,692)"
           style="font-variant:normal;font-weight:normal;font-size:20px;font-family:'Times New Roman';-inkscape-font-specification:TimesNewRomanPSMT;writing-mode:lr-tb;fill:#000000;fill-opacity:1;fill-rule:nonzero;stroke:none"
           id="text144"><tspan
             x="0 12 21 30 39 44 53 62 76 85 90 95 104 113 118 128 138 148 158 166 171 176 187 194 204 213 220 229 243 257 266 273 281 286 301 310 317 326 331 346 356 363 372 378 387 396 401 407 416 421 434 439 449 456 461 469 479 493 502 507 517 522 531 540 547 552 561 567 576 585 592 598 607 617 626"
             y="0"
             sodipodi:role="line"
             id="tspan142">Then came the 1980s. Programmers were working in C or some other high-level</tspan></text>
        <text
           xml:space="preserve"
           transform="translate(2784,715)"
           style="font-variant:normal;font-weight:normal;font-size:20px;font-family:'Times New Roman';-inkscape-font-specification:TimesNewRomanPSMT;writing-mode:lr-tb;fill:#000000;fill-opacity:1;fill-rule:nonzero;stroke:none"
           id="text148"><tspan
             x="0 6 15 24 33 42 51 60 69 74 79 93 101 106 111 120 129 135 142 147 156 170 180 186 191 197 207 216 224 229 238 245 254 268 273 278 286 296 301 311 317 327 332 337 346 355 361 368 373 383 390 400 409 416 425 439 447 452 457 468 475 485 494 501 510 524 532 537 542 551 560 565 570 579 588 602 612 621 628 637"
             y="0"
             sodipodi:role="line"
             id="tspan146">language. As their ambitions grew, so did their programs. Programs that numbered</tspan></text>
        <text
           xml:space="preserve"
           transform="translate(2784,738)"
           style="font-variant:normal;font-weight:normal;font-size:20px;font-family:'Times New Roman';-inkscape-font-specification:TimesNewRomanPSMT;writing-mode:lr-tb;fill:#000000;fill-opacity:1;fill-rule:nonzero;stroke:none"
           id="text152"><tspan
             x="0 9 18 27 37 44 53 63 71 76 86 92 97 102 111 121 130 138 147 156 166 174 179 189 195 200 206 212 221 230 238 243 253 259 264 273 283 293 302 307 322 331 338 347 352 361 371 376 381 390 399 408 416 425 434 440"
             y="0"
             sodipodi:role="line"
             id="tspan150">hundreds of thousands of lines of code were not unusual.</tspan></text>
        <text
           xml:space="preserve"
           transform="translate(2784,781)"
           style="font-variant:normal;font-weight:normal;font-size:20px;font-family:'Times New Roman';-inkscape-font-specification:TimesNewRomanPSMT;writing-mode:lr-tb;fill:#000000;fill-opacity:1;fill-rule:nonzero;stroke:none"
           id="text156"><tspan
             x="0 11 21 30 37 46 55 60 74 84 94 103 109 118 126 131 146 155 162 171 176 185 195 209 219 225 231 240 250 255 261 268 278 292"
             y="0"
             sodipodi:role="line"
             id="tspan154">Source modules were compiled from </tspan></text>
        <text
           xml:space="preserve"
           transform="translate(3081,781)"
           style="font-variant:normal;font-weight:normal;font-size:16px;font-family:'Courier New';-inkscape-font-specification:CourierNewPSMT;writing-mode:lr-tb;fill:#000000;fill-opacity:1;fill-rule:nonzero;stroke:none"
           id="text160"><tspan
             x="0 10"
             y="0"
             sodipodi:role="line"
             id="tspan158">.c</tspan></text>
        <text
           xml:space="preserve"
           transform="translate(3106,781)"
           style="font-variant:normal;font-weight:normal;font-size:20px;font-family:'Times New Roman';-inkscape-font-specification:TimesNewRomanPSMT;writing-mode:lr-tb;fill:#000000;fill-opacity:1;fill-rule:nonzero;stroke:none"
           id="text164"><tspan
             x="0 6 12 18 27 35 40 46 55 60 70"
             y="0"
             sodipodi:role="line"
             id="tspan162">files into </tspan></text>
        <text
           xml:space="preserve"
           transform="translate(3181,781)"
           style="font-variant:normal;font-weight:normal;font-size:16px;font-family:'Courier New';-inkscape-font-specification:CourierNewPSMT;writing-mode:lr-tb;fill:#000000;fill-opacity:1;fill-rule:nonzero;stroke:none"
           id="text168"><tspan
             x="0 10"
             y="0"
             sodipodi:role="line"
             id="tspan166">.o</tspan></text>
        <text
           xml:space="preserve"
           transform="translate(3206,781)"
           style="font-variant:normal;font-weight:normal;font-size:20px;font-family:'Times New Roman';-inkscape-font-specification:TimesNewRomanPSMT;writing-mode:lr-tb;fill:#000000;fill-opacity:1;fill-rule:nonzero;stroke:none"
           id="text172"><tspan
             x="0 6 12 18 27 35 40 45 54 63 73 78 83 92 101 110 115 121 130 140 145 151 160 165 175 180 185 194 203 208 214 220 229 238 247"
             y="0"
             sodipodi:role="line"
             id="tspan170">files, and then fed into the linker</tspan></text>
        <text
           xml:space="preserve"
           transform="translate(2784,804)"
           style="font-variant:normal;font-weight:normal;font-size:20px;font-family:'Times New Roman';-inkscape-font-specification:TimesNewRomanPSMT;writing-mode:lr-tb;fill:#000000;fill-opacity:1;fill-rule:nonzero;stroke:none"
           id="text176"><tspan
             x="0 5 15 20 29 36 45 54 59 68 73 82 91 100 109 118 123 132 142 148 157 162 168 174 180 189 197 202 207 216 225 230 235 244 254 263 269 279 284 294 303 308 318 327 333 342 351 357 366 371 377 387 396 406 415 425 430 435 448 458 472 482 488 494 500 509 518 523 532 541 550 559 564 570 579 589 595 605 611 621 630 639"
             y="0"
             sodipodi:role="line"
             id="tspan174">to create executable files that could be quickly loaded. Compiling each individual</tspan></text>
        <text
           xml:space="preserve"
           transform="translate(2784,827)"
           style="font-variant:normal;font-weight:normal;font-size:20px;font-family:'Times New Roman';-inkscape-font-specification:TimesNewRomanPSMT;writing-mode:lr-tb;fill:#000000;fill-opacity:1;fill-rule:nonzero;stroke:none"
           id="text180"><tspan
             x="0 14 24 34 43 49 58 63 78 87 95 100 107 116 122 131 136 142 152 161 167 176 181 187 196 204 209 214 219 229 238 243 248 257 267 281 291 297 303 309 318 327"
             y="0"
             sodipodi:role="line"
             id="tspan178">module was relatively fast, but compiling </tspan></text>
        <text
           xml:space="preserve"
           transform="translate(3116,827)"
           style="font-variant:normal;font-weight:normal;font-size:20px;font-family:'Times New Roman';-inkscape-font-specification:TimesNewRomanPSMT;writing-mode:lr-tb;fill:#000000;fill-opacity:1;fill-rule:nonzero;stroke:none"
           id="text184"><tspan
             x="0 9 15"
             y="0"
             sodipodi:role="line"
             id="tspan182">all</tspan></text>
        <text
           xml:space="preserve"
           transform="translate(3142,827)"
           style="font-variant:normal;font-weight:normal;font-size:20px;font-family:'Times New Roman';-inkscape-font-specification:TimesNewRomanPSMT;writing-mode:lr-tb;fill:#000000;fill-opacity:1;fill-rule:nonzero;stroke:none"
           id="text188"><tspan
             x="0 5 14 23 28 42 52 62 71 77 86 94 99 104 114 124 133 138 147 152 162 168 173 178 188 194 199 204 210 224 233 238 243 255 264 273 278 284 290 299 308 317"
             y="0"
             sodipodi:role="line"
             id="tspan186">the modules took a bit of time. The linker</tspan></text>
        <text
           xml:space="preserve"
           transform="translate(2784,850)"
           style="font-variant:normal;font-weight:normal;font-size:20px;font-family:'Times New Roman';-inkscape-font-specification:TimesNewRomanPSMT;writing-mode:lr-tb;fill:#000000;fill-opacity:1;fill-rule:nonzero;stroke:none"
           id="text192"><tspan
             x="0 15 25 34 40 50 55 60 69 78 87 92 97 106 115 124 129 138 148 157 166 171 185 195 202 211 216 221 227 241 250 255 260 271 280 287 296 305 312 322 331 340 350 355 364 373 383 388 397 406 415 421 430 435 444 451 461 476 485 490 495 505 510 519 528 533 542 552 561 568 573 583 590 595 609 619 626 635 640 646"
             y="0"
             sodipodi:role="line"
             id="tspan190">would then take even more time. Turnaround had again grown to an hour or more in</tspan></text>
        <text
           xml:space="preserve"
           transform="translate(2784,873)"
           style="font-variant:normal;font-weight:normal;font-size:20px;font-family:'Times New Roman';-inkscape-font-specification:TimesNewRomanPSMT;writing-mode:lr-tb;fill:#000000;fill-opacity:1;fill-rule:nonzero;stroke:none"
           id="text196"><tspan
             x="0 14 23 32 41 46 55 64 72 81 89"
             y="0"
             sodipodi:role="line"
             id="tspan194">many cases.</tspan></text>
        <text
           xml:space="preserve"
           transform="translate(2784,916)"
           style="font-variant:normal;font-weight:normal;font-size:20px;font-family:'Times New Roman';-inkscape-font-specification:TimesNewRomanPSMT;writing-mode:lr-tb;fill:#000000;fill-opacity:1;fill-rule:nonzero;stroke:none"
           id="text200"><tspan
             x="0 6 11 16 24 33 42 56 65 75 80 89 97 102 108 114 119 129 136 146 155 162 171 185 199 208 215 223 228 243 252 259 268 273 283 293 303 317 326 336 341 346 356 361 370 379 389 395 404 412 420 426 435 440 449 458 467 475 484 489 494 503 512 518 525 530 535 544 550 556 564 569 574 586 595 602 612 621 630 639 649 658 663 668 673 682"
             y="0"
             sodipodi:role="line"
             id="tspan198">It seemed as if programmers were doomed to endlessly chase their tails. Throughout the</tspan></text>
        <text
           xml:space="preserve"
           transform="translate(2784,939)"
           style="font-variant:normal;font-weight:normal;font-size:20px;font-family:'Times New Roman';-inkscape-font-specification:TimesNewRomanPSMT;writing-mode:lr-tb;fill:#000000;fill-opacity:1;fill-rule:nonzero;stroke:none"
           id="text204"><tspan
             x="0 10 20 30 40 48 53 58 68 78 88 98 106 111 116 125 134 144 149 159 169 179 189 197 202 207 216 222 228 233 238 247 256 261 270 279 288 297 306 315 323 328 342 351 361 370 375 380 390 395 403 413 422 431 441 446 455 465 470 485 495 502 511 517 523 533 548 553 568 577 584 593 598 603 612 627 636 643 648 657 667 672 682"
             y="0"
             sodipodi:role="line"
             id="tspan202">1960s, 1970s, and 1980s, all the changes made to speed up workflow were thwarted by</tspan></text>
        <text
           xml:space="preserve"
           transform="translate(2784,962)"
           style="font-variant:normal;font-weight:normal;font-size:20px;font-family:'Times New Roman';-inkscape-font-specification:TimesNewRomanPSMT;writing-mode:lr-tb;fill:#000000;fill-opacity:1;fill-rule:nonzero;stroke:none"
           id="text208"><tspan
             x="0 10 17 27 36 43 52 66 80 89 96 104 109 114 123 137 147 153 158 164 174 183 191 196 201 210 219 229 234 239 248 257 262 270 276 284 293 298 308 314 319 324 333 342 347 357 364 374 383 390 399 413 421 426 431 440 449 458 463 478 485 495 500 509 514 519 531 540 549 558 563 572 582 591 597 607 612 621 631 636 641 649 658 667"
             y="0"
             sodipodi:role="line"
             id="tspan206">programmers’ ambitions, and the size of the programs they wrote. They could not seem</tspan></text>
        <text
           xml:space="preserve"
           transform="translate(2784,985)"
           style="font-variant:normal;font-weight:normal;font-size:20px;font-family:'Times New Roman';-inkscape-font-specification:TimesNewRomanPSMT;writing-mode:lr-tb;fill:#000000;fill-opacity:1;fill-rule:nonzero;stroke:none"
           id="text212"><tspan
             x="0 5 15 20 29 37 46 55 65 74 79 85 92 102 116 121 126 135 144 149 158 168 177 184 191 197 207 216 225 230 235 244 251 260 269 276 286 295 304 314 319 324 330 344 353 361 366 371 382 392 401 411 417 426 435 440 445 451 465 474 479 486 495 509 518 524 533 542 552 557 563 572 580 585 590 595 605 614 619 624 633 643 657 667 673 679 688"
             y="0"
             sodipodi:role="line"
             id="tspan210">to escape from the hour-long turnaround times. Loading time remained fast, but compile-</tspan></text>
      </g>
    </g>
  </g>
</svg>
