<?xml version="1.0" encoding="UTF-8" standalone="no"?>
<!-- Created with Inkscape (http://www.inkscape.org/) -->

<svg
   version="1.1"
   id="svg2"
   width="816"
   height="1056"
   viewBox="0 0 816 1056"
   sodipodi:docname="clean_arch.pdf"
   xmlns:inkscape="http://www.inkscape.org/namespaces/inkscape"
   xmlns:sodipodi="http://sodipodi.sourceforge.net/DTD/sodipodi-0.dtd"
   xmlns="http://www.w3.org/2000/svg"
   xmlns:svg="http://www.w3.org/2000/svg">
  <defs
     id="defs6">
    <clipPath
       clipPathUnits="userSpaceOnUse"
       id="clipPath18">
      <path
         d="m 7656,0 h 696 V 1056 H 7656 V 0"
         clip-rule="evenodd"
         id="path16" />
    </clipPath>
    <clipPath
       clipPathUnits="userSpaceOnUse"
       id="clipPath28">
      <path
         d="m 7656,66 h 696 V 996 H 7656 V 66"
         clip-rule="evenodd"
         id="path26" />
    </clipPath>
  </defs>
  <sodipodi:namedview
     id="namedview4"
     pagecolor="#ffffff"
     bordercolor="#000000"
     borderopacity="0.25"
     inkscape:showpageshadow="2"
     inkscape:pageopacity="0.0"
     inkscape:pagecheckerboard="0"
     inkscape:deskcolor="#d1d1d1" />
  <g
     id="g8"
     inkscape:groupmode="layer"
     inkscape:label="clean_arch"
     transform="translate(59.999999,2.64e-5)">
    <g
       id="g10" />
    <g
       id="g12"
       transform="translate(-7656)">
      <g
         id="g14"
         clip-path="url(#clipPath18)">
        <g
           id="g20" />
      </g>
    </g>
    <g
       id="g22"
       transform="translate(-7656)">
      <g
         id="g24"
         clip-path="url(#clipPath28)">
        <text
           xml:space="preserve"
           transform="translate(7656,83)"
           style="font-variant:normal;font-weight:normal;font-size:20px;font-family:'Times New Roman';-inkscape-font-specification:TimesNewRomanPSMT;writing-mode:lr-tb;fill:#000000;fill-opacity:1;fill-rule:nonzero;stroke:none"
           id="text32"><tspan
             x="0 6 15 20 34 43 48 58 68 77 84 89 99 109 119 129 134 139 148 157 167 173 182 191 196 206 215 224 233 238 244 250 257 266 276 281 287 294 304 318 323 337 354 367 372 377 383 388 395 404 409 418 425 434 443 453 458 463 473 478 487 492 502 508 514 520 529 536 545 554 559 564 574 580 590 596 604 610 620 629 634 644"
             y="0"
             sodipodi:role="line"
             id="tspan30">In October 1976, having been fired from OMC, I returned to a different division of</tspan></text>
        <text
           xml:space="preserve"
           transform="translate(7656,106)"
           style="font-variant:normal;font-weight:normal;font-size:20px;font-family:'Times New Roman';-inkscape-font-specification:TimesNewRomanPSMT;writing-mode:lr-tb;fill:#000000;fill-opacity:1;fill-rule:nonzero;stroke:none"
           id="text36"><tspan
             x="0 10 19 26 35 45 54 63 72 92 101 106 116 122 132 138 146 152 162 171 176 182 187 202 212 221 227 237 242 250 255 264 273 278 293 299 304 313 318 324 334 341 346 356 366 371 380 389 398 405 413 418 423 435 444 453 458 468 475 485 495 504 513 518 523 529 534 549 559 566 575 584 594 599 609 618 623 638 647"
             y="0"
             sodipodi:role="line"
             id="tspan34">Teradyne—a division I would stay with for 12 years. The product I worked on was</tspan></text>
        <text
           xml:space="preserve"
           transform="translate(7656,129)"
           style="font-variant:normal;font-weight:normal;font-size:20px;font-family:'Times New Roman';-inkscape-font-specification:TimesNewRomanPSMT;writing-mode:lr-tb;fill:#000000;fill-opacity:1;fill-rule:nonzero;stroke:none"
           id="text40"><tspan
             x="0 9 18 32 41 51 56 66 73 85 97 108 113 118 124 129 137 142 152 161 168 178 188 196 205 210 225 234 242 247 252 262 267 272 281 289 294 299 308 318 327 334 343 348 353 362 368 377 387 396 406 415 424 429 435 441 450 459 464 470 479 484 493 498 503 512 518 527 537 546 556 565 574 579 587 596 603 613 619 628 637 642 651 658 667 676"
             y="0"
             sodipodi:role="line"
             id="tspan38">named 4-TEL. Its purpose was to test every telephone line in a telephone service area,</tspan></text>
        <text
           xml:space="preserve"
           transform="translate(7656,152)"
           style="font-variant:normal;font-weight:normal;font-size:20px;font-family:'Times New Roman';-inkscape-font-specification:TimesNewRomanPSMT;writing-mode:lr-tb;fill:#000000;fill-opacity:1;fill-rule:nonzero;stroke:none"
           id="text44"><tspan
             x="0 9 19 28 35 44 49 58 64 73 82 87 92 97 106 115 125 130 140 147 157 167 176 185 194 199 208 213 220 229 239 249 256 261 266 276 282 287 296 302 308 313 319 325 334 343 351 356 363 372 382 391 397 404 410 419 428 433 440 449 459 468 474 480 485 490 496 501 506 515 521 529 539 544 553 559 565 575 590 599 609 614 619 628 634 643 653 662 672 681"
             y="0"
             sodipodi:role="line"
             id="tspan42">every night, and produce a report of all lines requiring repair. It also allowed telephone</tspan></text>
        <text
           xml:space="preserve"
           transform="translate(7656,175)"
           style="font-variant:normal;font-weight:normal;font-size:20px;font-family:'Times New Roman';-inkscape-font-specification:TimesNewRomanPSMT;writing-mode:lr-tb;fill:#000000;fill-opacity:1;fill-rule:nonzero;stroke:none"
           id="text48"><tspan
             x="0 5 14 22 27 32 42 51 58 66 76 85 94 103 109 114 119 129 134 139 148 156 161 166 174 184 193 202 208 214 220 229 234 239 248 254 263 273 282 292 301 310 315 321 327 336 345 353 358 364 373 378 388 397 402 411 417 423"
             y="0"
             sodipodi:role="line"
             id="tspan46">test personnel to test specific telephone lines in detail.</tspan></text>
        <text
           xml:space="preserve"
           transform="translate(7656,218)"
           style="font-variant:normal;font-weight:normal;font-size:20px;font-family:'Times New Roman';-inkscape-font-specification:TimesNewRomanPSMT;writing-mode:lr-tb;fill:#000000;fill-opacity:1;fill-rule:nonzero;stroke:none"
           id="text52"><tspan
             x="0 12 21 27 35 40 48 57 65 70 79 93 98 106 111 120 127 132 141 151 156 162 167 175 180 186 192 198 207 212 227 233 238 247 252 257 266 275 280 288 297 311 320 325 334 340 349 359 364 374 380 385 394 401 410 419 425 430 439 448 453 462 469 478 483 492 500 505 510 519 528 533 544 553 561 570 577 582 593 600 606 620 625 633 642 650 655 664 678"
             y="0"
             sodipodi:role="line"
             id="tspan50">This system started its life with the same kind of architecture as the Laser Trim system.</tspan></text>
        <text
           xml:space="preserve"
           transform="translate(7656,241)"
           style="font-variant:normal;font-weight:normal;font-size:20px;font-family:'Times New Roman';-inkscape-font-specification:TimesNewRomanPSMT;writing-mode:lr-tb;fill:#000000;fill-opacity:1;fill-rule:nonzero;stroke:none"
           id="text56"><tspan
             x="0 6 11 16 31 40 48 53 62 67 81 91 100 110 116 122 127 136 142 151 156 165 175 185 191 197 206 215 220 226 236 245 250 265 272 278 283 288 297 306 311 317 326 331 340 348 356 365 379 389 395 404 409 415 424 433 442 451 460 469 478 483 498 504 509 518 528 537 542 547 556 565 574 579 587 593 602 611 617 623 629 638 647 656"
             y="0"
             sodipodi:role="line"
             id="tspan54">It was a monolithic application written in assembly language without any significant</tspan></text>
        <text
           xml:space="preserve"
           transform="translate(7656,264)"
           style="font-variant:normal;font-weight:normal;font-size:20px;font-family:'Times New Roman';-inkscape-font-specification:TimesNewRomanPSMT;writing-mode:lr-tb;fill:#000000;fill-opacity:1;fill-rule:nonzero;stroke:none"
           id="text60"><tspan
             x="0 10 20 29 38 48 57 64 70 79 87 92 97 110 119 124 129 138 143 148 153 162 171 176 181 187 201 210 215 221 226 232 242 248 257 266 276 281 286 295 304 309 318 328 342 352 361 370 378 383 388 393 402 411 416 421 436 445 453 458 467 477 487 496 501 506 511 521 526 535 544 553 562 571 580"
             y="0"
             sodipodi:role="line"
             id="tspan58">boundaries. But at the time I joined the company, that was about to change.</tspan></text>
        <text
           xml:space="preserve"
           transform="translate(7656,307)"
           style="font-variant:normal;font-weight:normal;font-size:20px;font-family:'Times New Roman';-inkscape-font-specification:TimesNewRomanPSMT;writing-mode:lr-tb;fill:#000000;fill-opacity:1;fill-rule:nonzero;stroke:none"
           id="text64"><tspan
             x="0 12 21 30 35 43 52 60 65 74 88 93 108 117 125 130 139 147 156 166 171 181 190 195 200 209 217 222 231 238 246 251 257 267 276 285 290 299 309 314 320 329 334 343 348 356 365 372 382 388 397 406 411 420 429 438 443 452 459 464 471 482 495 502 507 512 525 530 538 547 554 564 570 579 588 593 602 611 620 625 634"
             y="0"
             sodipodi:role="line"
             id="tspan62">The system was used by testers located in a service center (SC). A service center</tspan></text>
        <text
           xml:space="preserve"
           transform="translate(7656,330)"
           style="font-variant:normal;font-weight:normal;font-size:20px;font-family:'Times New Roman';-inkscape-font-specification:TimesNewRomanPSMT;writing-mode:lr-tb;fill:#000000;fill-opacity:1;fill-rule:nonzero;stroke:none"
           id="text68"><tspan
             x="0 9 19 29 38 45 54 64 69 83 92 101 110 115 124 133 142 147 154 163 169 174 184 190 196 202 211 220 228 233 240 253 267 274 279 284 293 302 311 320 325 335 341 346 361 370 376 385 394 399 408 418 427 433 443 448 457 466 475 485 491 500 505 514 522"
             y="0"
             sodipodi:role="line"
             id="tspan66">covered many central offices (CO), each of which could handle as </tspan></text>
        <text
           xml:space="preserve"
           transform="translate(8183,330)"
           style="font-variant:normal;font-weight:normal;font-size:20px;font-family:'Times New Roman';-inkscape-font-specification:TimesNewRomanPSMT;writing-mode:lr-tb;fill:#000000;fill-opacity:1;fill-rule:nonzero;stroke:none"
           id="text72"><tspan
             x="0 14 23 32 41 46 55 63 68 78 88 93 103 113"
             y="0"
             sodipodi:role="line"
             id="tspan70">many as 10,000</tspan></text>
        <text
           xml:space="preserve"
           transform="translate(7656,353)"
           style="font-variant:normal;font-weight:normal;font-size:20px;font-family:'Times New Roman';-inkscape-font-specification:TimesNewRomanPSMT;writing-mode:lr-tb;fill:#000000;fill-opacity:1;fill-rule:nonzero;stroke:none"
           id="text76"><tspan
             x="0 10 19 29 38 47 52 58 64 73 82 90 95 100 112 121 130 135 145 151 160 166 172 181 190 195 204 213 223 228 242 251 260 268 277 284 293 307 316 325 330 335 344 353 360 370 385 394 401 410 415 424 433 443 448 453 463 468 478 487 492 498 508 517 526 531 540 550 555 561 570 578 584 594 603 608 613 622 631 636 649 663 668 673 684"
             y="0"
             sodipodi:role="line"
             id="tspan74">phone lines. The dialing and measurement hardware had to be located inside the CO. So</tspan></text>
        <text
           xml:space="preserve"
           transform="translate(7656,376)"
           style="font-variant:normal;font-weight:normal;font-size:20px;font-family:'Times New Roman';-inkscape-font-specification:TimesNewRomanPSMT;writing-mode:lr-tb;fill:#000000;fill-opacity:1;fill-rule:nonzero;stroke:none"
           id="text80"><tspan
             x="0 5 14 23 28 34 42 47 62 71 80 87 96 101 106 115 124 129 146 156 166 176 181 190 200 214 224 233 238 247 254 262 267 282 291 298 307 312 322 331 336 341 346 362 371 376 385 394 400 406 415 425 430 435 444 454 462 471 476 485 495 509 519 528 533 542 549 557 562 567 576 585 590 599 608 617 622 629 638 644 649 659 665 671 677 686"
             y="0"
             sodipodi:role="line"
             id="tspan78">that’s where the M365 computers were put. We called those computers the central office</tspan></text>
        <text
           xml:space="preserve"
           transform="translate(7656,399)"
           style="font-variant:normal;font-weight:normal;font-size:20px;font-family:'Times New Roman';-inkscape-font-specification:TimesNewRomanPSMT;writing-mode:lr-tb;fill:#000000;fill-opacity:1;fill-rule:nonzero;stroke:none"
           id="text84"><tspan
             x="0 6 12 21 30 35 40 49 57 62 71 78 86 91 98 111 125 134 144 152 159 164 169 183 192 202 207 216 225 232 237 254 264 274 284 289 304 313 321 326 336 342 351 360 369 379 384 393 398 403 408 417 426 431 442 455 460 465 471 476 481 496 505 513 518 527 536 542 548 557 567 572 577 586 595 600 608 617 624 634 640 649"
             y="0"
             sodipodi:role="line"
             id="tspan82">line testers (COLTs). Another M365 was placed at the SC; it was called the service</tspan></text>
        <text
           xml:space="preserve"
           transform="translate(7656,422)"
           style="font-variant:normal;font-weight:normal;font-size:20px;font-family:'Times New Roman';-inkscape-font-specification:TimesNewRomanPSMT;writing-mode:lr-tb;fill:#000000;fill-opacity:1;fill-rule:nonzero;stroke:none"
           id="text88"><tspan
             x="0 9 16 25 34 39 48 58 72 82 91 96 105 112 117 124 135 149 162 169 174 179 191 200 209 214 225 239 252 257 266 275 285 290 298 307 317 326 333 342 348 353 367 377 387 396 410 418 423 428 437 446 451 456 462 467 472 481 491 500 506 516 521 530 538 547 552 557 567 572 582 588 597 603 608 617 627 632 637 646"
             y="0"
             sodipodi:role="line"
             id="tspan86">area computer (SAC). The SAC had several modems that it could use to dial up the</tspan></text>
        <text
           xml:space="preserve"
           transform="translate(7656,445)"
           style="font-variant:normal;font-weight:normal;font-size:20px;font-family:'Times New Roman';-inkscape-font-specification:TimesNewRomanPSMT;writing-mode:lr-tb;fill:#000000;fill-opacity:1;fill-rule:nonzero;stroke:none"
           id="text92"><tspan
             x="0 13 27 36 46 54 59 68 77 87 92 101 111 125 139 148 157 163 172 181 186 195 200 209 214 219 229 239 249 254 264 273 282 292 297 304 314 324 329 338 348 356 363"
             y="0"
             sodipodi:role="line"
             id="tspan90">COLTs and communicate at 300 baud (30 cps).</tspan></text>
        <text
           xml:space="preserve"
           transform="translate(7656,488)"
           style="font-variant:normal;font-weight:normal;font-size:20px;font-family:'Times New Roman';-inkscape-font-specification:TimesNewRomanPSMT;writing-mode:lr-tb;fill:#000000;fill-opacity:1;fill-rule:nonzero;stroke:none"
           id="text96"><tspan
             x="0 14 19 24 30 36 43 51 56 61 66 71 80 89 94 107 121 130 142 147 156 166 180 190 199 204 213 220 228 233 243 249 259 264 273 283 292 299 308 313 322 328 337 346 351 356 362 371 380 386 395 405 411 420 429 434 443 449 455 460 465 474 483 488 497 507 516 524 534 540 549 554 563 573 587 601 610 619 625 634 643 648 654 664 673"
             y="0"
             sodipodi:role="line"
             id="tspan94">At first, the COLT computers did everything, including all the console communication,</tspan></text>
        <text
           xml:space="preserve"
           transform="translate(7656,511)"
           style="font-variant:normal;font-weight:normal;font-size:20px;font-family:'Times New Roman';-inkscape-font-specification:TimesNewRomanPSMT;writing-mode:lr-tb;fill:#000000;fill-opacity:1;fill-rule:nonzero;stroke:none"
           id="text100"><tspan
             x="0 14 23 32 41 49 54 59 68 77 87 92 99 108 118 128 135 140 148 153 158 170 179 188 193 204 218 231 236 251 260 268 273 279 288 296 301 306 315 320 328 334 348 358 364 373 378 392 401 407 412 418 428 434 443 452 462 469 474 479 488 497 502 507 512 522 532 541 546 551 560 569 574 584 593 598 608 617 622 627 633 640 650 664 669 674 683"
             y="0"
             sodipodi:role="line"
             id="tspan98">menus, and reports. The SAC was just a simple multiplexor that took the output from the</tspan></text>
        <text
           xml:space="preserve"
           transform="translate(7656,534)"
           style="font-variant:normal;font-weight:normal;font-size:20px;font-family:'Times New Roman';-inkscape-font-specification:TimesNewRomanPSMT;writing-mode:lr-tb;fill:#000000;fill-opacity:1;fill-rule:nonzero;stroke:none"
           id="text104"><tspan
             x="0 13 27 36 46 54 59 68 77 87 92 102 111 116 121 127 132 137 147 156 161 170 175 183 192 199 208 217 226"
             y="0"
             sodipodi:role="line"
             id="tspan102">COLTs and put it on a screen.</tspan></text>
        <text
           xml:space="preserve"
           transform="translate(7656,577)"
           style="font-variant:normal;font-weight:normal;font-size:20px;font-family:'Times New Roman';-inkscape-font-specification:TimesNewRomanPSMT;writing-mode:lr-tb;fill:#000000;fill-opacity:1;fill-rule:nonzero;stroke:none"
           id="text108"><tspan
             x="0 12 21 30 35 45 52 62 72 78 87 101 106 121 127 132 141 146 151 160 166 174 179 187 196 201 210 220 225 240 249 257 262 267 276 285 290 295 305 315 320 329 339 347 352 358 366 371 378 387 396 402 408 417 422 430 436 446 460 465 470 482 491 500 505 510 519 527 532 541 548 556 561 571 577 587 596 603 608 613 619 625 634"
             y="0"
             sodipodi:role="line"
             id="tspan106">The problem with this setup was that 30 cps is really slow. The testers didn’t like</tspan></text>
        <text
           xml:space="preserve"
           transform="translate(7656,600)"
           style="font-variant:normal;font-weight:normal;font-size:20px;font-family:'Times New Roman';-inkscape-font-specification:TimesNewRomanPSMT;writing-mode:lr-tb;fill:#000000;fill-opacity:1;fill-rule:nonzero;stroke:none"
           id="text112"><tspan
             x="0 15 24 29 38 47 53 62 71 76 81 90 99 104 113 122 131 138 147 156 161 170 177 185 190 195 202 208 217 226 232 241 246 255 264 271 281 289 297 302 307 316 325 330 338 347 354 363 372 381 386 391 400 408 418 427 436 442 451 457 463 472 477 485 491 500 509 518 523 528 537 546 555 560 575 584 591 600 605 615 624 630"
             y="0"
             sodipodi:role="line"
             id="tspan110">watching the characters trickle across the screen, especially since they were only</tspan></text>
        <text
           xml:space="preserve"
           transform="translate(7656,623)"
           style="font-variant:normal;font-weight:normal;font-size:20px;font-family:'Times New Roman';-inkscape-font-specification:TimesNewRomanPSMT;writing-mode:lr-tb;fill:#000000;fill-opacity:1;fill-rule:nonzero;stroke:none"
           id="text116"><tspan
             x="0 6 15 20 29 36 45 53 58 67 77 82 88 97 102 111 116 122 131 146 151 160 169 178 183 193 199 204 212 217 227 233 238 248 257 262 271 276 281 295 301 309 319 324 329 335 344 349 354 363 373 381 390 395 405 414 423 431 436 441 446 455 464 469 478 488 495 504 509 523 532 546 556 563 572 577 583 592 597 602 611 620 625 642 652 662"
             y="0"
             sodipodi:role="line"
             id="tspan114">interested in a few key bits of data. Also, in those days, the core memory in the M365</tspan></text>
        <text
           xml:space="preserve"
           transform="translate(7656,646)"
           style="font-variant:normal;font-weight:normal;font-size:20px;font-family:'Times New Roman';-inkscape-font-specification:TimesNewRomanPSMT;writing-mode:lr-tb;fill:#000000;fill-opacity:1;fill-rule:nonzero;stroke:none"
           id="text120"><tspan
             x="0 15 24 32 37 46 55 65 74 83 91 97 107 116 121 126 135 144 154 159 164 173 182 187 197 204 214 223 230 239 253 258 273 282 290 295 305 311 320"
             y="0"
             sodipodi:role="line"
             id="tspan118">was expensive, and the program was big.</tspan></text>
        <text
           xml:space="preserve"
           transform="translate(7656,689)"
           style="font-variant:normal;font-weight:normal;font-size:20px;font-family:'Times New Roman';-inkscape-font-specification:TimesNewRomanPSMT;writing-mode:lr-tb;fill:#000000;fill-opacity:1;fill-rule:nonzero;stroke:none"
           id="text124"><tspan
             x="0 12 21 30 35 43 53 59 68 73 79 89 98 103 118 127 135 140 145 155 160 168 177 187 196 203 212 217 226 231 236 245 254 259 269 278 285 290 295 305 311 316 321 330 339 344 352 362 368 373 388 397 404 413 418 423 432 441 446 451 461 467 476 482 491 501 506 515 524 534 539 553 562 571 579 588 595 604 614 619 625 631 640 649"
             y="0"
             sodipodi:role="line"
             id="tspan122">The solution was to separate the part of the software that dialed and measured lines</tspan></text>
        <text
           xml:space="preserve"
           transform="translate(7656,712)"
           style="font-variant:normal;font-weight:normal;font-size:20px;font-family:'Times New Roman';-inkscape-font-specification:TimesNewRomanPSMT;writing-mode:lr-tb;fill:#000000;fill-opacity:1;fill-rule:nonzero;stroke:none"
           id="text128"><tspan
             x="0 6 13 23 37 42 47 56 65 70 80 89 96 101 106 111 120 129 134 139 148 157 166 172 181 189 198 208 213 218 227 236 241 248 257 265 274 280 285 293 298 307 316 326 331 341 348 354 363 368 377 387 392 397 406 415 420 427 436 446 456 463 468 476 481 486 498 507 516 521 527 536 541 546 555 562 567 582 592 601 607 617 622 632"
             y="0"
             sodipodi:role="line"
             id="tspan126">from the part that analyzed the results and printed the reports. The latter would be</tspan></text>
        <text
           xml:space="preserve"
           transform="translate(7656,735)"
           style="font-variant:normal;font-weight:normal;font-size:20px;font-family:'Times New Roman';-inkscape-font-specification:TimesNewRomanPSMT;writing-mode:lr-tb;fill:#000000;fill-opacity:1;fill-rule:nonzero;stroke:none"
           id="text132"><tspan
             x="0 14 24 34 43 53 58 64 73 78 88 93 98 107 116 121 132 146 159 164 169 178 187 197 202 207 216 225 230 236 246 253 267 276 283 288 303 313 322 328 338 343 350 359 373 382 388 397 402 412 421 430 436 445 455 460 466 475 480 485 494 503 508 521 535 544 554 562 567 572 584 593 599 607 612 627 637 646 652"
             y="0"
             sodipodi:role="line"
             id="tspan130">moved into the SAC, and the former would remain behind in the COLTs. This would</tspan></text>
        <text
           xml:space="preserve"
           transform="translate(7656,758)"
           style="font-variant:normal;font-weight:normal;font-size:20px;font-family:'Times New Roman';-inkscape-font-specification:TimesNewRomanPSMT;writing-mode:lr-tb;fill:#000000;fill-opacity:1;fill-rule:nonzero;stroke:none"
           id="text136"><tspan
             x="0 9 15 21 31 46 51 56 65 74 79 92 106 115 127 132 137 147 152 162 171 176 185 190 198 212 221 227 233 242 249 254 268 277 286 295 301 310 319 324 329 344 350 355 364 369 383 392 401 410 415 421 430 438 446 451 465 474 488 498 505 513 518 523 532 541 551 556 571 581 590 596 606 611 620 627 636 645 650 656"
             y="0"
             sodipodi:role="line"
             id="tspan134">allow the COLT to be a smaller machine, with much less memory, and would greatly</tspan></text>
        <text
           xml:space="preserve"
           transform="translate(7656,781)"
           style="font-variant:normal;font-weight:normal;font-size:20px;font-family:'Times New Roman';-inkscape-font-specification:TimesNewRomanPSMT;writing-mode:lr-tb;fill:#000000;fill-opacity:1;fill-rule:nonzero;stroke:none"
           id="text140"><tspan
             x="0 8 18 27 36 46 51 60 70 75 80 89 98 103 110 119 127 137 147 156 164 173 178 187 192 197 202 211 220 225 230 239 246 260 266 275 284 290 295 300 308 314 323 332 341 346 351 360 369 374 381 390 400 410 417 422 430 435 450 460 469 475 485 490 500 509 514 523 532 541 550 557 566 571 580 590 595 601 610 615 620 629 638 643 654 668 681"
             y="0"
             sodipodi:role="line"
             id="tspan138">speed up the response at the terminal, since the reports would be generated in the SAC.</tspan></text>
        <text
           xml:space="preserve"
           transform="translate(7656,824)"
           style="font-variant:normal;font-weight:normal;font-size:20px;font-family:'Times New Roman';-inkscape-font-specification:TimesNewRomanPSMT;writing-mode:lr-tb;fill:#000000;fill-opacity:1;fill-rule:nonzero;stroke:none"
           id="text144"><tspan
             x="0 12 21 30 35 42 51 59 68 74 79 84 99 108 116 121 128 137 151 160 167 176 185 195 201 210 215 223 232 241 250 259 267 275 281 290 296 301 306 317 326 333 342 351 360 365 374 384 394 403 408 417 425 430 445 454 461 470 475 485 494 501 510 515 521 530 538 543 548 555 565 574 583 592 597 602 611"
             y="0"
             sodipodi:role="line"
             id="tspan142">The result was remarkably successful. Screen updates were very fast (once the</tspan></text>
        <text
           xml:space="preserve"
           transform="translate(7656,847)"
           style="font-variant:normal;font-weight:normal;font-size:20px;font-family:'Times New Roman';-inkscape-font-specification:TimesNewRomanPSMT;writing-mode:lr-tb;fill:#000000;fill-opacity:1;fill-rule:nonzero;stroke:none"
           id="text148"><tspan
             x="0 9 19 29 36 46 56 63 69 78 83 92 97 110 124 133 145 150 159 168 178 183 193 202 211 220 225 235 241 250 256 265 275 282 287 292 301 310 320 325 330 339 348 353 367 376 390 400 407 416 421 427 437 447 452 462 469 475 484 489 494 504 510 515 520 529 538 543 556 570 579 589 597 602 610 619 626 635 644 653 658"
             y="0"
             sodipodi:role="line"
             id="tspan146">appropriate COLT had been dialed), and the memory footprint of the COLTs shrank a</tspan></text>
        <text
           xml:space="preserve"
           transform="translate(7656,870)"
           style="font-variant:normal;font-weight:normal;font-size:20px;font-family:'Times New Roman';-inkscape-font-specification:TimesNewRomanPSMT;writing-mode:lr-tb;fill:#000000;fill-opacity:1;fill-rule:nonzero;stroke:none"
           id="text152"><tspan
             x="0 6 16 21"
             y="0"
             sodipodi:role="line"
             id="tspan150">lot.</tspan></text>
        <text
           xml:space="preserve"
           transform="translate(7656,913)"
           style="font-variant:normal;font-weight:normal;font-size:20px;font-family:'Times New Roman';-inkscape-font-specification:TimesNewRomanPSMT;writing-mode:lr-tb;fill:#000000;fill-opacity:1;fill-rule:nonzero;stroke:none"
           id="text156"><tspan
             x="0 12 21 30 35 45 55 64 73 83 92 99 108 113 128 137 145 150 160 169 176 185 190 199 205 214 223 232 237 246 255 265 270 279 285 294 303 309 318 323 333 342 351 361 370 380 386 395 405 410 415 426 435 442 451 456 464 473 483 490 495 500 510 519 528 537 546 551 559 564 574 580 585 595 604 609 618 623 638 647 654"
             y="0"
             sodipodi:role="line"
             id="tspan154">The boundary was very clean and highly decoupled. Very short packets of data were</tspan></text>
        <text
           xml:space="preserve"
           transform="translate(7656,936)"
           style="font-variant:normal;font-weight:normal;font-size:20px;font-family:'Times New Roman';-inkscape-font-specification:TimesNewRomanPSMT;writing-mode:lr-tb;fill:#000000;fill-opacity:1;fill-rule:nonzero;stroke:none"
           id="text160"><tspan
             x="0 9 18 27 36 45 54 63 72 82 87 97 106 111 126 135 144 153 158 163 172 181 186 197 211 224 229 238 247 257 262 275 289 298 308 313 318 330 339 348 356 365 370 380 389 398 407 416 421 429 434 449 458 465 474 479 488 493 503 512 519 528 533 541 547 561 571 577 586 591 597 607 614 628 633 643 649 654 668 679 690"
             y="0"
             sodipodi:role="line"
             id="tspan158">exchanged between the SAC and COLT. These packets were a very simple form of DSL,</tspan></text>
        <text
           xml:space="preserve"
           transform="translate(7656,959)"
           style="font-variant:normal;font-weight:normal;font-size:20px;font-family:'Times New Roman';-inkscape-font-specification:TimesNewRomanPSMT;writing-mode:lr-tb;fill:#000000;fill-opacity:1;fill-rule:nonzero;stroke:none"
           id="text164"><tspan
             x="0 7 16 26 33 42 50 59 68 73 79 88 97 102 112 119 125 139 145 150 156 166 175 180 189 199 213 227 236 245 255 263 268 274 280 289 298 303 312 326 332 346 356 361 375 389 403 417 426 431 441 448 453 462 479 491 505 516 529 542 554 559"
             y="0"
             sodipodi:role="line"
             id="tspan162">representing primitive commands like “DIAL XXXX” or “MEASURE.”</tspan></text>
      </g>
    </g>
  </g>
</svg>
