<?xml version="1.0" encoding="UTF-8" standalone="no"?>
<!-- Created with Inkscape (http://www.inkscape.org/) -->

<svg
   version="1.1"
   id="svg2"
   width="816"
   height="1056"
   viewBox="0 0 816 1056"
   sodipodi:docname="clean_arch.pdf"
   xmlns:inkscape="http://www.inkscape.org/namespaces/inkscape"
   xmlns:sodipodi="http://sodipodi.sourceforge.net/DTD/sodipodi-0.dtd"
   xmlns="http://www.w3.org/2000/svg"
   xmlns:svg="http://www.w3.org/2000/svg">
  <defs
     id="defs6">
    <clipPath
       clipPathUnits="userSpaceOnUse"
       id="clipPath18">
      <path
         d="m 4872,0 h 696 V 1056 H 4872 V 0"
         clip-rule="evenodd"
         id="path16" />
    </clipPath>
    <clipPath
       clipPathUnits="userSpaceOnUse"
       id="clipPath28">
      <path
         d="m 4872,66 h 696 V 996 H 4872 V 66"
         clip-rule="evenodd"
         id="path26" />
    </clipPath>
  </defs>
  <sodipodi:namedview
     id="namedview4"
     pagecolor="#ffffff"
     bordercolor="#000000"
     borderopacity="0.25"
     inkscape:showpageshadow="2"
     inkscape:pageopacity="0.0"
     inkscape:pagecheckerboard="0"
     inkscape:deskcolor="#d1d1d1" />
  <g
     id="g8"
     inkscape:groupmode="layer"
     inkscape:label="clean_arch"
     transform="translate(59.999999,2.64e-5)">
    <g
       id="g10" />
    <g
       id="g12"
       transform="translate(-4872)">
      <g
         id="g14"
         clip-path="url(#clipPath18)">
        <g
           id="g20" />
      </g>
    </g>
    <g
       id="g22"
       transform="translate(-4872)">
      <g
         id="g24"
         clip-path="url(#clipPath28)">
        <text
           xml:space="preserve"
           transform="translate(4885,83)"
           style="font-variant:normal;font-weight:normal;font-size:20px;font-family:'Times New Roman';-inkscape-font-specification:TimesNewRomanPSMT;writing-mode:lr-tb;fill:#000000;fill-opacity:1;fill-rule:nonzero;stroke:none"
           id="text32"><tspan
             x="0 6 15 20 25 34 40 48 53 63 72 81 91 100 110 116 122 131 140 145 159 169 179 188 193 198 207 216 221 230 240 254 264 274 283 292 301 306 314 319 328 334 340 345 354 363 372 381 390 395 404 409 415 424 429 434 443 452 457 465 474 488 497 502 511 521 531 538 547 555 563 568 576 586 595 604 613 618 623 632 641"
             y="0"
             sodipodi:role="line"
             id="tspan30">In this decoupling mode the components all execute in the same address space, and</tspan></text>
        <text
           xml:space="preserve"
           transform="translate(4885,106)"
           style="font-variant:normal;font-weight:normal;font-size:20px;font-family:'Times New Roman';-inkscape-font-specification:TimesNewRomanPSMT;writing-mode:lr-tb;fill:#000000;fill-opacity:1;fill-rule:nonzero;stroke:none"
           id="text36"><tspan
             x="0 9 19 33 47 56 65 71 80 89 94 103 108 123 129 134 143 148 157 166 175 184 189 199 204 213 222 229 234 243 251 257 266 275 280 288 294 308 318 324 333 338 344 353 362 371 376 382 392 401 406 415 424 430 436 444 449 454 466 475 484 491 500 505 511 519 524 533 538 546 552 561 570 576 585 590 599 608 617 626 635 640 649 659 665"
             y="0"
             sodipodi:role="line"
             id="tspan34">communicate with each other using simple function calls. There is a single executable</tspan></text>
        <text
           xml:space="preserve"
           transform="translate(4885,129)"
           style="font-variant:normal;font-weight:normal;font-size:20px;font-family:'Times New Roman';-inkscape-font-specification:TimesNewRomanPSMT;writing-mode:lr-tb;fill:#000000;fill-opacity:1;fill-rule:nonzero;stroke:none"
           id="text40"><tspan
             x="0 6 16 25 35 44 54 59 65 74 79 89 94 103 113 127 137 146 151 160 167 172 186 195 209 219 226 234 239 244 255 264 274 284 290 299 304 314 320 325 334 343 348 357 366 372 378 383 388 397 403 411 416 425 430 444 454 463 473 479 485 490 499 505 514 519 527 532 539 548 557 562 571 578 587"
             y="0"
             sodipodi:role="line"
             id="tspan38">loaded into computer memory. People often call this a monolithic structure.</tspan></text>
        <text
           xml:space="preserve"
           transform="translate(4873,158)"
           style="font-variant:normal;font-weight:normal;font-size:20px;font-family:'Times New Roman';-inkscape-font-specification:TimesNewRomanPSMT;writing-mode:lr-tb;fill:#000000;fill-opacity:1;fill-rule:nonzero;stroke:none"
           id="text44"><tspan
             x="0 7"
             y="0"
             sodipodi:role="line"
             id="tspan42">• </tspan></text>
        <text
           xml:space="preserve"
           transform="translate(4885,158)"
           style="font-variant:normal;font-weight:bold;font-size:20px;font-family:'Times New Roman';-inkscape-font-specification:TimesNewRomanPS-BoldMT;writing-mode:lr-tb;fill:#000000;fill-opacity:1;fill-rule:nonzero;stroke:none"
           id="text48"><tspan
             x="0 14 24 34 39 49 59 74 84 94 101 106 111 121 131 141 146"
             y="0"
             sodipodi:role="line"
             id="tspan46">Deployment level.</tspan></text>
        <text
           xml:space="preserve"
           transform="translate(5041,158)"
           style="font-variant:normal;font-weight:normal;font-size:20px;font-family:'Times New Roman';-inkscape-font-specification:TimesNewRomanPSMT;writing-mode:lr-tb;fill:#000000;fill-opacity:1;fill-rule:nonzero;stroke:none"
           id="text52"><tspan
             x="0 16 25 30 39 48 57 62 71 81 90 95 102 112 118 123 128 137 146 151 161 170 180 189 198 208 217 226 235 241 250 258 263 273 282 287 302 311 320 329 334 344 353 363 369 379 388 397 407 413 422 427 436 445 451 456 464 469 477 486 495 504 509 518"
             y="0"
             sodipodi:role="line"
             id="tspan50">We can control the dependencies between deployable units such as</tspan></text>
        <text
           xml:space="preserve"
           transform="translate(4885,181)"
           style="font-variant:normal;font-weight:normal;font-size:20px;font-family:'Times New Roman';-inkscape-font-specification:TimesNewRomanPSMT;writing-mode:lr-tb;fill:#000000;fill-opacity:1;fill-rule:nonzero;stroke:none"
           id="text56"><tspan
             x="0 6 15 22 27 33 39 45 54 62 67 72 86 97 108 116 121 126 136 143 148 156 165 174 181 190 200 205 211 217 227 234 243 250 256 265 273 278 283 291 301 306 311 320 329 334 339 348 357 366 375 384 393 401 406 411 421 426 431 440 449 454 462 472 481 488 497 506 511 520 530 540 549 554 560 569 574 584 593 602 607 621 631 641 650 656"
             y="0"
             sodipodi:role="line"
             id="tspan54">jar files, DLLs, or shared libraries, so that changes to the source code in one module</tspan></text>
        <text
           xml:space="preserve"
           transform="translate(4885,204)"
           style="font-variant:normal;font-weight:normal;font-size:20px;font-family:'Times New Roman';-inkscape-font-specification:TimesNewRomanPSMT;writing-mode:lr-tb;fill:#000000;fill-opacity:1;fill-rule:nonzero;stroke:none"
           id="text60"><tspan
             x="0 10 20 25 34 44 49 54 60 70 77 86 95 100 110 115 124 133 140 148 153 158 168 173 183 192 197 204 213 223 232 238 244 249 254 263 272 282 287 294 303 313 322 332 338 348 357 366 376"
             y="0"
             sodipodi:role="line"
             id="tspan58">do not force others to be rebuilt and redeployed.</tspan></text>
        <text
           xml:space="preserve"
           transform="translate(4885,233)"
           style="font-variant:normal;font-weight:normal;font-size:20px;font-family:'Times New Roman';-inkscape-font-specification:TimesNewRomanPSMT;writing-mode:lr-tb;fill:#000000;fill-opacity:1;fill-rule:nonzero;stroke:none"
           id="text64"><tspan
             x="0 17 26 35 44 49 59 65 70 75 84 93 98 107 117 131 141 151 160 169 178 183 191 196 210 219 228 233 241 246 252 258 264 269 275 281 291 300 305 311 320 325 330 339 348 353 361 370 384 393 398 407 417 427 434 443 451 459 464 472 482 491 500 509 514 519 528 537 547 552 561 571 585 599 608 617 623 632 641 646"
             y="0"
             sodipodi:role="line"
             id="tspan62">Many of the components may still live in the same address space, and communicate</tspan></text>
        <text
           xml:space="preserve"
           transform="translate(4885,256)"
           style="font-variant:normal;font-weight:normal;font-size:20px;font-family:'Times New Roman';-inkscape-font-specification:TimesNewRomanPSMT;writing-mode:lr-tb;fill:#000000;fill-opacity:1;fill-rule:nonzero;stroke:none"
           id="text68"><tspan
             x="0 5 14 21 31 40 49 58 63 69 78 87 96 101 107 117 126 131 140 149 155 161 169 174 179 193 198 207 216 223 228 237 247 261 271 281 290 299 308 313 321 326 340 349 358 363 369 375 385 394 399 405 414 419 429 434 443 452 459 464 474 481 491 500 509 517 525 534 542 547 553 562 567 572 581 590 595 603 612 626"
             y="0"
             sodipodi:role="line"
             id="tspan66">through function calls. Other components may live in other processes in the same</tspan></text>
        <text
           xml:space="preserve"
           transform="translate(4885,279)"
           style="font-variant:normal;font-weight:normal;font-size:20px;font-family:'Times New Roman';-inkscape-font-specification:TimesNewRomanPSMT;writing-mode:lr-tb;fill:#000000;fill-opacity:1;fill-rule:nonzero;stroke:none"
           id="text72"><tspan
             x="0 10 17 27 36 45 53 61 71 77 82 87 96 105 115 120 129 139 153 167 176 185 191 200 209 214 223 228 233 242 249 259 268 277 286 291 297 306 311 320 327 337 344 354 363 372 380 388 393 402 412 426 440 449 458 464 473 482 487 493 503 512 520 525 530 538 548 557 566 575 580 588 593 598 608 615 620 628 637 646 653 662"
             y="0"
             sodipodi:role="line"
             id="tspan70">processor, and communicate through interprocess communications, sockets, or shared</tspan></text>
        <text
           xml:space="preserve"
           transform="translate(4885,302)"
           style="font-variant:normal;font-weight:normal;font-size:20px;font-family:'Times New Roman';-inkscape-font-specification:TimesNewRomanPSMT;writing-mode:lr-tb;fill:#000000;fill-opacity:1;fill-rule:nonzero;stroke:none"
           id="text76"><tspan
             x="0 14 23 37 47 54 62 67 72 84 93 102 107 113 127 137 147 154 159 168 177 182 187 192 201 207 216 225 230 239 248 255 264 269 275 283 288 293 302 311 316 321 326 335 344 349 359 368 377 387 396 406 412 421 431 436 445 455 469 479 489 498 507 516 521 529 534 543 550 559 564 574 583 590 595 601 606 612 622 631 640"
             y="0"
             sodipodi:role="line"
             id="tspan74">memory. The important thing here is that the decoupled components are partitioned</tspan></text>
        <text
           xml:space="preserve"
           transform="translate(4885,325)"
           style="font-variant:normal;font-weight:normal;font-size:20px;font-family:'Times New Roman';-inkscape-font-specification:TimesNewRomanPSMT;writing-mode:lr-tb;fill:#000000;fill-opacity:1;fill-rule:nonzero;stroke:none"
           id="text80"><tspan
             x="0 6 15 20 30 35 41 50 60 69 79 88 97 107 116 125 130 136 145 150 160 169 179 185 195 204 213 223 229 238 243 252 261 267 272 280 285 293 302 311 320 325 334 342 347 353 362 369 374 380 386 392 401 409 414 419 433 442 456 461 467 473 479 488 496 501 506 516 523 528 542 553 564 572"
             y="0"
             sodipodi:role="line"
             id="tspan78">into independently deployable units such as jar files, Gem files, or DLLs.</tspan></text>
        <text
           xml:space="preserve"
           transform="translate(4873,354)"
           style="font-variant:normal;font-weight:normal;font-size:20px;font-family:'Times New Roman';-inkscape-font-specification:TimesNewRomanPSMT;writing-mode:lr-tb;fill:#000000;fill-opacity:1;fill-rule:nonzero;stroke:none"
           id="text84"><tspan
             x="0 7"
             y="0"
             sodipodi:role="line"
             id="tspan82">• </tspan></text>
        <text
           xml:space="preserve"
           transform="translate(4885,354)"
           style="font-variant:normal;font-weight:bold;font-size:20px;font-family:'Times New Roman';-inkscape-font-specification:TimesNewRomanPS-BoldMT;writing-mode:lr-tb;fill:#000000;fill-opacity:1;fill-rule:nonzero;stroke:none"
           id="text88"><tspan
             x="0 11 21 29 39 44 53 63 68 73 83 93 103"
             y="0"
             sodipodi:role="line"
             id="tspan86">Service level</tspan></text>
        <text
           xml:space="preserve"
           transform="translate(4993,354)"
           style="font-variant:normal;font-weight:normal;font-size:20px;font-family:'Times New Roman';-inkscape-font-specification:TimesNewRomanPSMT;writing-mode:lr-tb;fill:#000000;fill-opacity:1;fill-rule:nonzero;stroke:none"
           id="text92"><tspan
             x="0 5 10 26 35 40 49 58 67 72 79 88 98 107 116 125 130 135 144 153 158 168 177 187 196 205 215 224 233 242 248 257 265 270 280 290 305 314 319 324 334 339 344 353 362 367 373 382 392 401 407 412 422 428 433 443 452 457 466 471 479 484 491 500 509 514 523 530 539 547"
             y="0"
             sodipodi:role="line"
             id="tspan90">. We can reduce the dependencies down to the level of data structures,</tspan></text>
        <text
           xml:space="preserve"
           transform="translate(4885,377)"
           style="font-variant:normal;font-weight:normal;font-size:20px;font-family:'Times New Roman';-inkscape-font-specification:TimesNewRomanPSMT;writing-mode:lr-tb;fill:#000000;fill-opacity:1;fill-rule:nonzero;stroke:none"
           id="text96"><tspan
             x="0 9 18 28 33 42 52 66 80 89 98 104 113 122 127 136 141 149 159 165 174 180 189 194 199 208 215 225 234 243 252 257 266 275 280 295 305 312 321 326 336 345 354 363 372 377 385 390 398 407 416 425 430 435 444 453 458 463 472 482 491 498 507 512 521 530 539 548 557 562 568 578 587 592 601 610 616 621 626 632"
             y="0"
             sodipodi:role="line"
             id="tspan94">and communicate solely through network packets such that every execution unit is</tspan></text>
        <text
           xml:space="preserve"
           transform="translate(4885,400)"
           style="font-variant:normal;font-weight:normal;font-size:20px;font-family:'Times New Roman';-inkscape-font-specification:TimesNewRomanPSMT;writing-mode:lr-tb;fill:#000000;fill-opacity:1;fill-rule:nonzero;stroke:none"
           id="text100"><tspan
             x="0 9 18 23 29 36 45 51 60 65 71 80 90 99 109 118 127 137 146 155 160 165 175 181 186 194 204 213 220 229 238 243 252 261 271 276 286 292 301 310 317 326 331 340 349 358 367 376 385 393 398 403 413 418 428 433 442 451 458 466 471 478 487 492 501 506 511 516 524 533 540 550 556 565 574 582 587 597 604 609 623 629 638 645 655"
             y="0"
             sodipodi:role="line"
             id="tspan98">entirely independent of source and binary changes to others (e.g., services or micro-</tspan></text>
        <text
           xml:space="preserve"
           transform="translate(4885,423)"
           style="font-variant:normal;font-weight:normal;font-size:20px;font-family:'Times New Roman';-inkscape-font-specification:TimesNewRomanPSMT;writing-mode:lr-tb;fill:#000000;fill-opacity:1;fill-rule:nonzero;stroke:none"
           id="text104"><tspan
             x="0 8 17 24 34 40 49 58 66 73"
             y="0"
             sodipodi:role="line"
             id="tspan102">services).</tspan></text>
        <text
           xml:space="preserve"
           transform="translate(4872,466)"
           style="font-variant:normal;font-weight:normal;font-size:20px;font-family:'Times New Roman';-inkscape-font-specification:TimesNewRomanPSMT;writing-mode:lr-tb;fill:#000000;fill-opacity:1;fill-rule:nonzero;stroke:none"
           id="text108"><tspan
             x="0 18 27 36 41 46 52 60 65 70 79 88 93 103 112 120 125 130 144 154 164 173 178 183 193 198 207 215 224"
             y="0"
             sodipodi:role="line"
             id="tspan106">What is the best mode to use?</tspan></text>
        <text
           xml:space="preserve"
           transform="translate(4872,509)"
           style="font-variant:normal;font-weight:normal;font-size:20px;font-family:'Times New Roman';-inkscape-font-specification:TimesNewRomanPSMT;writing-mode:lr-tb;fill:#000000;fill-opacity:1;fill-rule:nonzero;stroke:none"
           id="text112"><tspan
             x="0 12 21 30 35 44 53 61 76 85 92 97 103 111 116 121 130 139 144 149 155 160 166 174 179 188 197 204 214 219 224 234 239 248 257 267 282 287 302 311 317 326 335 340 354 364 374 383 388 394 402 407 417 426 434 439 444 454 463 470 476 485 494 499 504 513 522 527 536 545 552 558 567 572 582 591 600 608 617 625 630 640 646 651"
             y="0"
             sodipodi:role="line"
             id="tspan110">The answer is that it’s hard to know which mode is best during the early phases of a</tspan></text>
        <text
           xml:space="preserve"
           transform="translate(4872,532)"
           style="font-variant:normal;font-weight:normal;font-size:20px;font-family:'Times New Roman';-inkscape-font-specification:TimesNewRomanPSMT;writing-mode:lr-tb;fill:#000000;fill-opacity:1;fill-rule:nonzero;stroke:none"
           id="text116"><tspan
             x="0 10 17 27 33 42 51 56 61 66 72 81 91 100 109 119 124 129 138 146 151 156 165 174 179 189 196 206 212 221 230 235 240 254 263 268 277 284 293 301 306 311 316 325 334 339 349 359 364 370 384 393 399 404 418 428 438 447 452 466 475 484 489 498 507 516 525 534 543"
             y="0"
             sodipodi:role="line"
             id="tspan114">project. Indeed, as the project matures, the optimal mode may change.</tspan></text>
        <text
           xml:space="preserve"
           transform="translate(4872,575)"
           style="font-variant:normal;font-weight:normal;font-size:20px;font-family:'Times New Roman';-inkscape-font-specification:TimesNewRomanPSMT;writing-mode:lr-tb;fill:#000000;fill-opacity:1;fill-rule:nonzero;stroke:none"
           id="text120"><tspan
             x="0 11 21 28 33 42 51 60 74 84 90 99 104 109 115 120 126 134 139 148 158 163 168 178 184 190 196 202 211 220 226 231 236 241 251 256 262 276 285 294 300 309 318 323 328 337 346 351 356 365 370 378 387 395 400 409 423 428 433 442 451 456 461 468 477 486 494 499 508 518 532 538 548 555 560 569 579 585 594 599 609 618 623 633 642"
             y="0"
             sodipodi:role="line"
             id="tspan118">For example, it’s not difficult to imagine that a system that runs comfortably on one</tspan></text>
        <text
           xml:space="preserve"
           transform="translate(4872,598)"
           style="font-variant:normal;font-weight:normal;font-size:20px;font-family:'Times New Roman';-inkscape-font-specification:TimesNewRomanPSMT;writing-mode:lr-tb;fill:#000000;fill-opacity:1;fill-rule:nonzero;stroke:none"
           id="text124"><tspan
             x="0 8 17 24 34 43 50 55 62 68 77 86 91 96 105 115 130 135 149 155 164 173 178 183 192 199 209 224 229 234 244 249 254 263 272 277 287 297 303 312 317 322 337 346 355 362 371 376 384 394 408 417 422 432 438 443 449 454 462 467 476 486 500 510 520 529 538 547 552 560 565 575 584 593 602 607 612 617 627 632 639 648 657 662 672"
             y="0"
             sodipodi:role="line"
             id="tspan122">server right now might grow to the point where some of its components ought to run on</tspan></text>
        <text
           xml:space="preserve"
           transform="translate(4872,621)"
           style="font-variant:normal;font-weight:normal;font-size:20px;font-family:'Times New Roman';-inkscape-font-specification:TimesNewRomanPSMT;writing-mode:lr-tb;fill:#000000;fill-opacity:1;fill-rule:nonzero;stroke:none"
           id="text128"><tspan
             x="0 8 17 27 36 43 52 57 66 71 79 88 95 105 114 121 129 134 139 157 166 172 178 187 192 197 206 215 220 228 237 245 250 259 273 278 285 294 303 311 316 326 335 340 349 354 362 368 377 386 392 401 406 414 423 430 440 449 455 460 465 470 479 488 493 501 511 520 527 536 545 552 558 567 577 586 592 597 607 616 625 635 644 654 660 666 675"
             y="0"
             sodipodi:role="line"
             id="tspan126">separate servers. While the system runs on a single server, the source-level decoupling</tspan></text>
        <text
           xml:space="preserve"
           transform="translate(4872,644)"
           style="font-variant:normal;font-weight:normal;font-size:20px;font-family:'Times New Roman';-inkscape-font-specification:TimesNewRomanPSMT;writing-mode:lr-tb;fill:#000000;fill-opacity:1;fill-rule:nonzero;stroke:none"
           id="text132"><tspan
             x="0 14 20 29 38 43 48 58 67 72 80 89 95 101 107 116 122 131 140 145 150 155 166 175 180 189 195 200 205 214 224 239 248 258 267 273 278 283 289 294 299 313 319 328 337 342 347 354 363 373 382 388 395 404 409 419 428 437 447 456 466 472 478 487 496 501 507 516 521 531 536 546 555 565 571 581 590 599 609 615 624 629 638 647 653 658 666 671 676 686"
             y="0"
             sodipodi:role="line"
             id="tspan130">might be sufficient. Later, however, it might require decoupling into deployable units, or</tspan></text>
        <text
           xml:space="preserve"
           transform="translate(4872,667)"
           style="font-variant:normal;font-weight:normal;font-size:20px;font-family:'Times New Roman';-inkscape-font-specification:TimesNewRomanPSMT;writing-mode:lr-tb;fill:#000000;fill-opacity:1;fill-rule:nonzero;stroke:none"
           id="text136"><tspan
             x="0 9 19 28 37 42 50 59 66 76 82 91 100 108"
             y="0"
             sodipodi:role="line"
             id="tspan134">even services.</tspan></text>
        <text
           xml:space="preserve"
           transform="translate(4872,710)"
           style="font-variant:normal;font-weight:normal;font-size:20px;font-family:'Times New Roman';-inkscape-font-specification:TimesNewRomanPSMT;writing-mode:lr-tb;fill:#000000;fill-opacity:1;fill-rule:nonzero;stroke:none"
           id="text140"><tspan
             x="0 14 23 32 37 45 55 61 70 75 81 91 100 105 112 127 136 142 151 160 165 173 182 191 205 213 218 223 233 238 248 257 262 272 282 292 301 307 316 323 328 337 342 347 352 361 370 375 389 399 413 422 431 436 443 448 454 462 467 472 482 487 495 501 515 525 531 540 545 555 564 573 583 592 602 608 617 622 631 636 641 646 655"
             y="0"
             sodipodi:role="line"
             id="tspan138">One solution (which seems to be popular at the moment) is to simply decouple at the</tspan></text>
        <text
           xml:space="preserve"
           transform="translate(4872,733)"
           style="font-variant:normal;font-weight:normal;font-size:20px;font-family:'Times New Roman';-inkscape-font-specification:TimesNewRomanPSMT;writing-mode:lr-tb;fill:#000000;fill-opacity:1;fill-rule:nonzero;stroke:none"
           id="text144"><tspan
             x="0 8 17 24 34 40 49 58 63 69 78 88 97 103 108 118 127 132 142 151 157 166 175 181 186 191 196 209 214 224 231 241 251 257 266 280 285 300 306 311 320 325 330 339 345 353 358 367 377 387 394 404 413 422 431 436 442 450 455 460 469 478 483 488 494 499 504 510 518 523 532 541 551 560 569 577 583 593 602 607 616 625"
             y="0"
             sodipodi:role="line"
             id="tspan142">service level by default. A problem with this approach is that it is expensive and</tspan></text>
        <text
           xml:space="preserve"
           transform="translate(4872,756)"
           style="font-variant:normal;font-weight:normal;font-size:20px;font-family:'Times New Roman';-inkscape-font-specification:TimesNewRomanPSMT;writing-mode:lr-tb;fill:#000000;fill-opacity:1;fill-rule:nonzero;stroke:none"
           id="text148"><tspan
             x="0 9 18 27 37 46 53 62 71 80 88 93 102 112 121 128 136 145 152 161 168 177 183 192 201 211 216 226 235 244 254 263 273 279 285 294 303 308 313 327 337 342 356 365 370 375 384 391 396 405 415 430 435 444 458 464 473 480 490 499 504 509 518 527 532 546 552 561 568 578 585 593 602 609 619 625 634 643 651 656 665 674 679"
             y="0"
             sodipodi:role="line"
             id="tspan146">encourages coarse-grained decoupling. No matter how “micro” the micro-services get,</tspan></text>
        <text
           xml:space="preserve"
           transform="translate(4872,779)"
           style="font-variant:normal;font-weight:normal;font-size:20px;font-family:'Times New Roman';-inkscape-font-specification:TimesNewRomanPSMT;writing-mode:lr-tb;fill:#000000;fill-opacity:1;fill-rule:nonzero;stroke:none"
           id="text152"><tspan
             x="0 5 14 23 28 38 47 56 66 75 85 91 97 106 115 120 126 134 139 148 158 163 168 174 180 189 198 204 213 218 223 233 238 248 257 262 268 274 283 292 299 308 315 324 330 339 348 358 363 372 381 391 400 409 418"
             y="0"
             sodipodi:role="line"
             id="tspan150">the decoupling is not likely to be fine-grained enough.</tspan></text>
        <text
           xml:space="preserve"
           transform="translate(4872,822)"
           style="font-variant:normal;font-weight:normal;font-size:20px;font-family:'Times New Roman';-inkscape-font-specification:TimesNewRomanPSMT;writing-mode:lr-tb;fill:#000000;fill-opacity:1;fill-rule:nonzero;stroke:none"
           id="text156"><tspan
             x="0 14 23 33 38 47 56 63 68 78 85 95 105 111 120 134 139 154 160 165 174 179 187 196 203 213 219 228 237 244 250 259 269 278 284 289 299 308 317 327 336 346 352 358 367 376 381 387 395 400 405 414 423 428 433 439 444 449 455 463 468 477 486 496 505 514 522 528 538 547 552 557 567 577 582 591 596 602"
             y="0"
             sodipodi:role="line"
             id="tspan154">Another problem with service-level decoupling is that it is expensive, both in</tspan></text>
        <text
           xml:space="preserve"
           transform="translate(4872,845)"
           style="font-variant:normal;font-weight:normal;font-size:20px;font-family:'Times New Roman';-inkscape-font-specification:TimesNewRomanPSMT;writing-mode:lr-tb;fill:#000000;fill-opacity:1;fill-rule:nonzero;stroke:none"
           id="text160"><tspan
             x="0 10 19 29 38 44 54 64 78 87 96 101 106 111 117 131 140 145 154 163 173 178 184 193 198 206 215 223 228 237 251 256 263 272 280 290 299 306 315 324 332 337 342 356 365 374 380 386 395 404 409 424 430 435 444 449 457 466 473 483 489 498 507 512 522 532 541 550 560 569 576 582 591 599 604 619 628 637 644 653 658 667 677 686"
             y="0"
             sodipodi:role="line"
             id="tspan158">development time and in system resources. Dealing with service boundaries where none</tspan></text>
        <text
           xml:space="preserve"
           transform="translate(4872,868)"
           style="font-variant:normal;font-weight:normal;font-size:20px;font-family:'Times New Roman';-inkscape-font-specification:TimesNewRomanPSMT;writing-mode:lr-tb;fill:#000000;fill-opacity:1;fill-rule:nonzero;stroke:none"
           id="text164"><tspan
             x="0 9 16 25 30 39 48 57 67 76 86 91 97 105 110 119 124 139 148 156 161 170 175 185 191 196 205 211 217 227 234 239 244 249 263 272 286 296 303 311 316 321 330 339 349 354 363 372 381 387 396 404 409 414 428 437 447 452 457 466 475 483 488 493 499 504 513 522 532 547 552 557 566 575 580 585 590 599 608 613 619 628 636 641 646 651 666"
             y="0"
             sodipodi:role="line"
             id="tspan162">are needed is a waste of effort, memory, and cycles. And, yes, I know that the last two</tspan></text>
        <text
           xml:space="preserve"
           transform="translate(4872,891)"
           style="font-variant:normal;font-weight:normal;font-size:20px;font-family:'Times New Roman';-inkscape-font-specification:TimesNewRomanPSMT;writing-mode:lr-tb;fill:#000000;fill-opacity:1;fill-rule:nonzero;stroke:none"
           id="text168"><tspan
             x="0 9 16 25 30 39 48 57 66 76 96 106 115 120 125 130 139 148 153 159 165 172 180 185 190 196 204 209 218 228 233"
             y="0"
             sodipodi:role="line"
             id="tspan166">are cheap—but the first is not.</tspan></text>
        <text
           xml:space="preserve"
           transform="translate(4872,934)"
           style="font-variant:normal;font-weight:normal;font-size:20px;font-family:'Times New Roman';-inkscape-font-specification:TimesNewRomanPSMT;writing-mode:lr-tb;fill:#000000;fill-opacity:1;fill-rule:nonzero;stroke:none"
           id="text172"><tspan
             x="0 17 26 31 41 48 57 63 72 79 88 97 106 115 120 126 134 139 144 154 159 169 178 186 195 200 205 214 223 228 238 247 256 266 275 285 291 297 306 315 320 325 335 340 345 354 363 368 378 388 394 403 408 413 428 437 446 453 462 467 476 481 489 498 505 515 521 530 539"
             y="0"
             sodipodi:role="line"
             id="tspan170">My preference is to push the decoupling to the point where a service </tspan></text>
        <text
           xml:space="preserve"
           transform="translate(5416,934)"
           style="font-variant:normal;font-weight:normal;font-size:20px;font-family:'Times New Roman';-inkscape-font-specification:TimesNewRomanPSMT;writing-mode:lr-tb;fill:#000000;fill-opacity:1;fill-rule:nonzero;stroke:none"
           id="text176"><tspan
             x="0 9 19 28 34"
             y="0"
             sodipodi:role="line"
             id="tspan174">could</tspan></text>
        <text
           xml:space="preserve"
           transform="translate(5465,934)"
           style="font-variant:normal;font-weight:normal;font-size:20px;font-family:'Times New Roman';-inkscape-font-specification:TimesNewRomanPSMT;writing-mode:lr-tb;fill:#000000;fill-opacity:1;fill-rule:nonzero;stroke:none"
           id="text180"><tspan
             x="0 10 19 24 30 40 47 61 70 80"
             y="0"
             sodipodi:role="line"
             id="tspan178">be formed.</tspan></text>
        <text
           xml:space="preserve"
           transform="translate(4872,957)"
           style="font-variant:normal;font-weight:normal;font-size:20px;font-family:'Times New Roman';-inkscape-font-specification:TimesNewRomanPSMT;writing-mode:lr-tb;fill:#000000;fill-opacity:1;fill-rule:nonzero;stroke:none"
           id="text184"><tspan
             x="0 8 17 27 36 42 52 57 63 68 73 83 92 101 111 125 134 139 148 157 166 175 183 191 200 207 216 221 226 236 245 250 255 260 269 278 287 292 297 307 312 318 327 336 346 355 360 365 374 383 388 397 407 421 431 441 450 459 468 473 481 486 492 501 506 511 520 529 534 542 551 565 574 579 588 598 608 615 624 632 640 645 653 663 672 681"
             y="0"
             sodipodi:role="line"
             id="tspan182">should it become necessary; but then to leave the components in the same address space</tspan></text>
        <text
           xml:space="preserve"
           transform="translate(4872,980)"
           style="font-variant:normal;font-weight:normal;font-size:20px;font-family:'Times New Roman';-inkscape-font-specification:TimesNewRomanPSMT;writing-mode:lr-tb;fill:#000000;fill-opacity:1;fill-rule:nonzero;stroke:none"
           id="text188"><tspan
             x="0 9 17 22 28 38 47 56 61 70 78 83 93 103 111 119 125 135 141 150 155 160 172 181 187 195 200 206 215 224 234 243 251 256 261 270 279 284 294 304 309 315 325 334 339 345 355 362 367 376 381 389 398 405 415 421 430 439 444 454 464 473 482"
             y="0"
             sodipodi:role="line"
             id="tspan186">as long as possible. This leaves the option for a service open.</tspan></text>
      </g>
    </g>
  </g>
</svg>
