<?xml version="1.0" encoding="UTF-8" standalone="no"?>
<!-- Created with Inkscape (http://www.inkscape.org/) -->

<svg
   version="1.1"
   id="svg2"
   width="816"
   height="1056"
   viewBox="0 0 816 1056"
   sodipodi:docname="clean_arch.pdf"
   xmlns:inkscape="http://www.inkscape.org/namespaces/inkscape"
   xmlns:sodipodi="http://sodipodi.sourceforge.net/DTD/sodipodi-0.dtd"
   xmlns="http://www.w3.org/2000/svg"
   xmlns:svg="http://www.w3.org/2000/svg">
  <defs
     id="defs6">
    <clipPath
       clipPathUnits="userSpaceOnUse"
       id="clipPath18">
      <path
         d="m 9744,0 h 696 V 1056 H 9744 V 0"
         clip-rule="evenodd"
         id="path16" />
    </clipPath>
    <clipPath
       clipPathUnits="userSpaceOnUse"
       id="clipPath28">
      <path
         d="m 9744,66 h 696 V 996 H 9744 V 66"
         clip-rule="evenodd"
         id="path26" />
    </clipPath>
  </defs>
  <sodipodi:namedview
     id="namedview4"
     pagecolor="#ffffff"
     bordercolor="#000000"
     borderopacity="0.25"
     inkscape:showpageshadow="2"
     inkscape:pageopacity="0.0"
     inkscape:pagecheckerboard="0"
     inkscape:deskcolor="#d1d1d1" />
  <g
     id="g8"
     inkscape:groupmode="layer"
     inkscape:label="clean_arch"
     transform="translate(59.999999,2.64e-5)">
    <g
       id="g10" />
    <g
       id="g12"
       transform="translate(-9744)">
      <g
         id="g14"
         clip-path="url(#clipPath18)">
        <g
           id="g20" />
      </g>
    </g>
    <g
       id="g22"
       transform="translate(-9744)">
      <g
         id="g24"
         clip-path="url(#clipPath28)">
        <text
           xml:space="preserve"
           transform="translate(9744,83)"
           style="font-variant:normal;font-weight:normal;font-size:20px;font-family:'Times New Roman';-inkscape-font-specification:TimesNewRomanPSMT;writing-mode:lr-tb;fill:#000000;fill-opacity:1;fill-rule:nonzero;stroke:none"
           id="text32"><tspan
             x="0 9 18 28 33 38 43 52 61 68 77 83 93 100 109 114 119 128 135 144 149 155 165 174 183 189 194 199 208 215 224 233 238 246 251 257 267 274 279 285 294 302 310 315 323 328 337 347 353 362 367 376 386 400 410 420 429 438 447 452 460 465 470 480 485 495 504 514 523 532 542 547 557 566"
             y="0"
             sodipodi:role="line"
             id="tspan30">and, therefore, are ideal targets for less stable components to depend on.</tspan></text>
        <text
           xml:space="preserve"
           transform="translate(9744,126)"
           style="font-variant:normal;font-weight:normal;font-size:20px;font-family:'Times New Roman';-inkscape-font-specification:TimesNewRomanPSMT;writing-mode:lr-tb;fill:#000000;fill-opacity:1;fill-rule:nonzero;stroke:none"
           id="text36"><tspan
             x="0 18 27 36 45 50 59 67 73 82 91 96 106 115 124 133 147 153 162 171 177 183 192 197 202 211 221 230 240 245 251 260 269 278 287 296 305 314 322 327 333 339 348 357 362 375 384 394 403 408 417 426 436 441 452 461 466 475 485 494 499 504 509 518 527 535 544 549 558 568 576 581 588 597 606"
             y="0"
             sodipodi:role="line"
             id="tspan34">When using dynamically typed languages like Ruby and Python, these abstract</tspan></text>
        <text
           xml:space="preserve"
           transform="translate(9744,149)"
           style="font-variant:normal;font-weight:normal;font-size:20px;font-family:'Times New Roman';-inkscape-font-specification:TimesNewRomanPSMT;writing-mode:lr-tb;fill:#000000;fill-opacity:1;fill-rule:nonzero;stroke:none"
           id="text40"><tspan
             x="0 9 19 33 43 53 62 71 80 85 93 98 108 118 127 134 139 144 153 162 168 176 181 186 195 200 205 214 220 226 231 236 245 255 262 267 277 287 292 297 306 315 320 330 339 349 358 367 377 386 395 404 410 419 427 432 437 446 455 460 465 480 490 499 505 515"
             y="0"
             sodipodi:role="line"
             id="tspan38">components don’t exist at all, nor do the dependencies that would </tspan></text>
        <text
           xml:space="preserve"
           transform="translate(10264,149)"
           style="font-variant:normal;font-weight:normal;font-size:20px;font-family:'Times New Roman';-inkscape-font-specification:TimesNewRomanPSMT;writing-mode:lr-tb;fill:#000000;fill-opacity:1;fill-rule:nonzero;stroke:none"
           id="text44"><tspan
             x="0 9 18 28 37 42 47 56 63 72 81 86 95 105 110 115 124 133 147"
             y="0"
             sodipodi:role="line"
             id="tspan42">have targeted them.</tspan></text>
        <text
           xml:space="preserve"
           transform="translate(9744,172)"
           style="font-variant:normal;font-weight:normal;font-size:20px;font-family:'Times New Roman';-inkscape-font-specification:TimesNewRomanPSMT;writing-mode:lr-tb;fill:#000000;fill-opacity:1;fill-rule:nonzero;stroke:none"
           id="text48"><tspan
             x="0 14 23 33 42 51 61 70 79 88 97 102 110 115 122 131 140 145 154 161 170 178 183 189 198 203 208 217 226 234 243 248 254 263 272 281 290 299 308 317 325 330 339 346 355 360 374 383 392 401 406 414 420 434 444 450 459 466 471 481 490 499 508 517 525 534 539 549 558 568 577 586 596 605 614 623"
             y="0"
             sodipodi:role="line"
             id="tspan46">Dependency structures in these languages are much simpler because dependency</tspan></text>
        <text
           xml:space="preserve"
           transform="translate(9744,195)"
           style="font-variant:normal;font-weight:normal;font-size:20px;font-family:'Times New Roman';-inkscape-font-specification:TimesNewRomanPSMT;writing-mode:lr-tb;fill:#000000;fill-opacity:1;fill-rule:nonzero;stroke:none"
           id="text52"><tspan
             x="0 6 15 25 34 41 49 55 65 74 79 89 99 108 116 121 130 140 145 150 157 166 176 185 191 198 207 212 221 227 232 241 250 257 262 267 276 285 290 300 309 318 324 333 340 349 354 360 370 379 384 394 401 406 411 420 429 434 440 449 458 467 474 480 485 494 503 512 521 526 536 542 547 553 562 567 576 583 589 598 607 616 624"
             y="0"
             sodipodi:role="line"
             id="tspan50">inversion does not require either the declaration or the inheritance of interfaces.</tspan></text>
        <text
           xml:space="preserve"
           transform="translate(9744,265)"
           style="font-variant:normal;font-weight:bold;font-size:33px;font-family:'Times New Roman';-inkscape-font-specification:TimesNewRomanPS-BoldMT;writing-mode:lr-tb;fill:#000000;fill-opacity:1;fill-rule:nonzero;stroke:none"
           id="text56"><tspan
             x="0"
             y="0"
             id="tspan54">T</tspan></text>
        <text
           xml:space="preserve"
           transform="translate(9766,265)"
           style="font-variant:normal;font-weight:bold;font-size:33px;font-family:'Times New Roman';-inkscape-font-specification:TimesNewRomanPS-BoldMT;writing-mode:lr-tb;fill:#000000;fill-opacity:1;fill-rule:nonzero;stroke:none"
           id="text60"><tspan
             x="0 26"
             y="0"
             sodipodi:role="line"
             id="tspan58">HE</tspan></text>
        <text
           xml:space="preserve"
           transform="translate(9822,265)"
           style="font-variant:normal;font-weight:bold;font-size:33px;font-family:'Times New Roman';-inkscape-font-specification:TimesNewRomanPS-BoldMT;writing-mode:lr-tb;fill:#000000;fill-opacity:1;fill-rule:nonzero;stroke:none"
           id="text64"><tspan
             x="0"
             y="0"
             id="tspan62">S</tspan></text>
        <text
           xml:space="preserve"
           transform="translate(9840,265)"
           style="font-variant:normal;font-weight:bold;font-size:33px;font-family:'Times New Roman';-inkscape-font-specification:TimesNewRomanPS-BoldMT;writing-mode:lr-tb;fill:#000000;fill-opacity:1;fill-rule:nonzero;stroke:none"
           id="text68"><tspan
             x="0 19 42 64 86"
             y="0"
             sodipodi:role="line"
             id="tspan66">TABLE</tspan></text>
        <text
           xml:space="preserve"
           transform="translate(9956,265)"
           style="font-variant:normal;font-weight:bold;font-size:33px;font-family:'Times New Roman';-inkscape-font-specification:TimesNewRomanPS-BoldMT;writing-mode:lr-tb;fill:#000000;fill-opacity:1;fill-rule:nonzero;stroke:none"
           id="text72"><tspan
             x="0"
             y="0"
             id="tspan70">A</tspan></text>
        <text
           xml:space="preserve"
           transform="translate(9979,265)"
           style="font-variant:normal;font-weight:bold;font-size:33px;font-family:'Times New Roman';-inkscape-font-specification:TimesNewRomanPS-BoldMT;writing-mode:lr-tb;fill:#000000;fill-opacity:1;fill-rule:nonzero;stroke:none"
           id="text76"><tspan
             x="0 22 40 62 86 109 133 155 168 194 218"
             y="0"
             sodipodi:role="line"
             id="tspan74">BSTRACTIONS</tspan></text>
        <text
           xml:space="preserve"
           transform="translate(10223,265)"
           style="font-variant:normal;font-weight:bold;font-size:33px;font-family:'Times New Roman';-inkscape-font-specification:TimesNewRomanPS-BoldMT;writing-mode:lr-tb;fill:#000000;fill-opacity:1;fill-rule:nonzero;stroke:none"
           id="text80"><tspan
             x="0"
             y="0"
             id="tspan78">P</tspan></text>
        <text
           xml:space="preserve"
           transform="translate(10243,265)"
           style="font-variant:normal;font-weight:bold;font-size:33px;font-family:'Times New Roman';-inkscape-font-specification:TimesNewRomanPS-BoldMT;writing-mode:lr-tb;fill:#000000;fill-opacity:1;fill-rule:nonzero;stroke:none"
           id="text84"><tspan
             x="0 24 37 61 85 98 118 140"
             y="0"
             sodipodi:role="line"
             id="tspan82">RINCIPLE</tspan></text>
        <text
           xml:space="preserve"
           transform="translate(9768,297)"
           style="font-variant:normal;font-weight:normal;font-size:15px;font-family:'Times New Roman';-inkscape-font-specification:TimesNewRomanPSMT;writing-mode:lr-tb;fill:#000000;fill-opacity:1;fill-rule:nonzero;stroke:none"
           id="text88"><tspan
             x="0 10 14 21 28 39 46 53 60 67 74 78 82 88 95 102 109 112 119 123 130 137 141 148 154 158 165 172 178 182 187 194 201 205 209 216 222 226 229 233 237 240 246 250 256 260 267 274 277 284"
             y="0"
             sodipodi:role="line"
             id="tspan86">A component should be as abstract as it is stable.</tspan></text>
        <text
           xml:space="preserve"
           transform="translate(9744,345)"
           style="font-variant:normal;font-weight:bold;font-size:23px;font-family:'Times New Roman';-inkscape-font-specification:TimesNewRomanPS-BoldMT;writing-mode:lr-tb;fill:#000000;fill-opacity:1;fill-rule:nonzero;stroke:none"
           id="text92"><tspan
             x="0"
             y="0"
             id="tspan90">W</tspan></text>
        <text
           xml:space="preserve"
           transform="translate(9766,345)"
           style="font-variant:normal;font-weight:bold;font-size:23px;font-family:'Times New Roman';-inkscape-font-specification:TimesNewRomanPS-BoldMT;writing-mode:lr-tb;fill:#000000;fill-opacity:1;fill-rule:nonzero;stroke:none"
           id="text96"><tspan
             x="0 18 33 50"
             y="0"
             sodipodi:role="line"
             id="tspan94">HERE</tspan></text>
        <text
           xml:space="preserve"
           transform="translate(9837,345)"
           style="font-variant:normal;font-weight:bold;font-size:23px;font-family:'Times New Roman';-inkscape-font-specification:TimesNewRomanPS-BoldMT;writing-mode:lr-tb;fill:#000000;fill-opacity:1;fill-rule:nonzero;stroke:none"
           id="text100"><tspan
             x="0"
             y="0"
             id="tspan98">D</tspan></text>
        <text
           xml:space="preserve"
           transform="translate(9854,345)"
           style="font-variant:normal;font-weight:bold;font-size:23px;font-family:'Times New Roman';-inkscape-font-specification:TimesNewRomanPS-BoldMT;writing-mode:lr-tb;fill:#000000;fill-opacity:1;fill-rule:nonzero;stroke:none"
           id="text104"><tspan
             x="0"
             y="0"
             id="tspan102">O</tspan></text>
        <text
           xml:space="preserve"
           transform="translate(9878,345)"
           style="font-variant:normal;font-weight:bold;font-size:23px;font-family:'Times New Roman';-inkscape-font-specification:TimesNewRomanPS-BoldMT;writing-mode:lr-tb;fill:#000000;fill-opacity:1;fill-rule:nonzero;stroke:none"
           id="text108"><tspan
             x="0"
             y="0"
             id="tspan106">W</tspan></text>
        <text
           xml:space="preserve"
           transform="translate(9900,345)"
           style="font-variant:normal;font-weight:bold;font-size:23px;font-family:'Times New Roman';-inkscape-font-specification:TimesNewRomanPS-BoldMT;writing-mode:lr-tb;fill:#000000;fill-opacity:1;fill-rule:nonzero;stroke:none"
           id="text112"><tspan
             x="0"
             y="0"
             id="tspan110">E</tspan></text>
        <text
           xml:space="preserve"
           transform="translate(9921,345)"
           style="font-variant:normal;font-weight:bold;font-size:23px;font-family:'Times New Roman';-inkscape-font-specification:TimesNewRomanPS-BoldMT;writing-mode:lr-tb;fill:#000000;fill-opacity:1;fill-rule:nonzero;stroke:none"
           id="text116"><tspan
             x="0"
             y="0"
             id="tspan114">P</tspan></text>
        <text
           xml:space="preserve"
           transform="translate(9936,345)"
           style="font-variant:normal;font-weight:bold;font-size:23px;font-family:'Times New Roman';-inkscape-font-specification:TimesNewRomanPS-BoldMT;writing-mode:lr-tb;fill:#000000;fill-opacity:1;fill-rule:nonzero;stroke:none"
           id="text120"><tspan
             x="0 17 32 38 53 71"
             y="0"
             sodipodi:role="line"
             id="tspan118">UT THE</tspan></text>
        <text
           xml:space="preserve"
           transform="translate(10028,345)"
           style="font-variant:normal;font-weight:bold;font-size:23px;font-family:'Times New Roman';-inkscape-font-specification:TimesNewRomanPS-BoldMT;writing-mode:lr-tb;fill:#000000;fill-opacity:1;fill-rule:nonzero;stroke:none"
           id="text124"><tspan
             x="0"
             y="0"
             id="tspan122">H</tspan></text>
        <text
           xml:space="preserve"
           transform="translate(10046,345)"
           style="font-variant:normal;font-weight:bold;font-size:23px;font-family:'Times New Roman';-inkscape-font-specification:TimesNewRomanPS-BoldMT;writing-mode:lr-tb;fill:#000000;fill-opacity:1;fill-rule:nonzero;stroke:none"
           id="text128"><tspan
             x="0 9 27"
             y="0"
             sodipodi:role="line"
             id="tspan126">IGH</tspan></text>
        <text
           xml:space="preserve"
           transform="translate(10091,345)"
           style="font-variant:normal;font-weight:bold;font-size:23px;font-family:'Times New Roman';-inkscape-font-specification:TimesNewRomanPS-BoldMT;writing-mode:lr-tb;fill:#000000;fill-opacity:1;fill-rule:nonzero;stroke:none"
           id="text132"><tspan
             x="0 8"
             y="0"
             sodipodi:role="line"
             id="tspan130">-L</tspan></text>
        <text
           xml:space="preserve"
           transform="translate(10114,345)"
           style="font-variant:normal;font-weight:bold;font-size:23px;font-family:'Times New Roman';-inkscape-font-specification:TimesNewRomanPS-BoldMT;writing-mode:lr-tb;fill:#000000;fill-opacity:1;fill-rule:nonzero;stroke:none"
           id="text136"><tspan
             x="0 15 31 46"
             y="0"
             sodipodi:role="line"
             id="tspan134">EVEL</tspan></text>
        <text
           xml:space="preserve"
           transform="translate(10181,345)"
           style="font-variant:normal;font-weight:bold;font-size:23px;font-family:'Times New Roman';-inkscape-font-specification:TimesNewRomanPS-BoldMT;writing-mode:lr-tb;fill:#000000;fill-opacity:1;fill-rule:nonzero;stroke:none"
           id="text140"><tspan
             x="0"
             y="0"
             id="tspan138">P</tspan></text>
        <text
           xml:space="preserve"
           transform="translate(10196,345)"
           style="font-variant:normal;font-weight:bold;font-size:23px;font-family:'Times New Roman';-inkscape-font-specification:TimesNewRomanPS-BoldMT;writing-mode:lr-tb;fill:#000000;fill-opacity:1;fill-rule:nonzero;stroke:none"
           id="text144"><tspan
             x="0 18 33 42 59"
             y="0"
             sodipodi:role="line"
             id="tspan142">OLICY</tspan></text>
        <text
           xml:space="preserve"
           transform="translate(10270,345)"
           style="font-variant:normal;font-weight:bold;font-size:23px;font-family:'Times New Roman';-inkscape-font-specification:TimesNewRomanPS-BoldMT;writing-mode:lr-tb;fill:#000000;fill-opacity:1;fill-rule:nonzero;stroke:none"
           id="text148"><tspan
             x="0"
             y="0"
             id="tspan146">?</tspan></text>
        <text
           xml:space="preserve"
           transform="translate(9744,388)"
           style="font-variant:normal;font-weight:normal;font-size:20px;font-family:'Times New Roman';-inkscape-font-specification:TimesNewRomanPSMT;writing-mode:lr-tb;fill:#000000;fill-opacity:1;fill-rule:nonzero;stroke:none"
           id="text152"><tspan
             x="0 11 21 35 44 49 57 67 73 78 93 102 109 118 123 129 138 143 148 157 166 171 179 188 196 201 210 224 229 237 246 256 265 271 281 286 295 305 310 315 324 333 342 351 360 369 374 384 393 400 409 414 424 430 435 444 453 458 463 475 484 490 498 503 511 521 527 532 547 556 563 572 577 584 593 603 610 619 627 636 645 650"
             y="0"
             sodipodi:role="line"
             id="tspan150">Some software in the system should not change very often. This software represents</tspan></text>
        <text
           xml:space="preserve"
           transform="translate(9744,411)"
           style="font-variant:normal;font-weight:normal;font-size:20px;font-family:'Times New Roman';-inkscape-font-specification:TimesNewRomanPSMT;writing-mode:lr-tb;fill:#000000;fill-opacity:1;fill-rule:nonzero;stroke:none"
           id="text156"><tspan
             x="0 9 15 24 33 40 46 55 65 74 80 85 94 101 110 119 125 130 139 148 153 162 169 178 183 192 201 211 216 226 236 242 248 257 266 271 281 290 299 305 313 319 329 338 346 351 356 372 381 386 396 406 415 422 427 432 447 456 465 470 475 480 489 498 506 515 520 530 539 547 553 562 571 579 587 592 601 610"
             y="0"
             sodipodi:role="line"
             id="tspan154">high-level architecture and policy decisions. We don’t want these business and</tspan></text>
        <text
           xml:space="preserve"
           transform="translate(9744,434)"
           style="font-variant:normal;font-weight:normal;font-size:20px;font-family:'Times New Roman';-inkscape-font-specification:TimesNewRomanPSMT;writing-mode:lr-tb;fill:#000000;fill-opacity:1;fill-rule:nonzero;stroke:none"
           id="text160"><tspan
             x="0 9 16 25 34 40 45 54 63 68 77 84 93 99 104 114 123 132 138 146 152 162 171 179 184 189 199 204 214 223 228 238 248 254 263 268 274 280 289 294 299 311 320 329 337 342 347 356 365 370 378 388 394 399 414 423 430 439 444 449 458 467 472 477 486 495 504 513 523 531 540 546 555 560 569 577 582 587 596 605 610 619 625 634 643 650 656 665 675 684"
             y="0"
             sodipodi:role="line"
             id="tspan158">architectural decisions to be volatile. Thus the software that encapsulates the high-level</tspan></text>
        <text
           xml:space="preserve"
           transform="translate(9744,457)"
           style="font-variant:normal;font-weight:normal;font-size:20px;font-family:'Times New Roman';-inkscape-font-specification:TimesNewRomanPSMT;writing-mode:lr-tb;fill:#000000;fill-opacity:1;fill-rule:nonzero;stroke:none"
           id="text164"><tspan
             x="0 10 20 26 32 41 47 56 64 69 79 85 90 95 104 113 118 126 135 143 148 157 171 176 184 193 203 212 218 228 233 243 252 257 267 273 282 291 300 310 315 321 330 335 345 350 358 363 372 382 388 397 402 411 421 435 445 455 464 473 482 487 495 500"
             y="0"
             sodipodi:role="line"
             id="tspan162">policies of the system should be placed into stable components (</tspan></text>
        <text
           xml:space="preserve"
           transform="translate(10251,457)"
           style="font-variant:normal;font-weight:normal;font-size:20px;font-family:'Times New Roman';-inkscape-font-specification:TimesNewRomanPSMT;writing-mode:lr-tb;fill:#000000;fill-opacity:1;fill-rule:nonzero;stroke:none"
           id="text168"><tspan
             x="0"
             y="0"
             id="tspan166">I</tspan></text>
        <text
           xml:space="preserve"
           transform="translate(10262,457)"
           style="font-variant:normal;font-weight:normal;font-size:20px;font-family:'Times New Roman';-inkscape-font-specification:TimesNewRomanPSMT;writing-mode:lr-tb;fill:#000000;fill-opacity:1;fill-rule:nonzero;stroke:none"
           id="text172"><tspan
             x="0 11 16 26 33 38 43 56 65 73 78 87 97 103"
             y="0"
             sodipodi:role="line"
             id="tspan170">= 0). Unstable</tspan></text>
        <text
           xml:space="preserve"
           transform="translate(9744,480)"
           style="font-variant:normal;font-weight:normal;font-size:20px;font-family:'Times New Roman';-inkscape-font-specification:TimesNewRomanPSMT;writing-mode:lr-tb;fill:#000000;fill-opacity:1;fill-rule:nonzero;stroke:none"
           id="text176"><tspan
             x="0 9 19 33 43 53 62 71 80 85 93 98"
             y="0"
             sodipodi:role="line"
             id="tspan174">components (</tspan></text>
        <text
           xml:space="preserve"
           transform="translate(9849,480)"
           style="font-variant:normal;font-weight:normal;font-size:20px;font-family:'Times New Roman';-inkscape-font-specification:TimesNewRomanPSMT;writing-mode:lr-tb;fill:#000000;fill-opacity:1;fill-rule:nonzero;stroke:none"
           id="text180"><tspan
             x="0"
             y="0"
             id="tspan178">I</tspan></text>
        <text
           xml:space="preserve"
           transform="translate(9860,480)"
           style="font-variant:normal;font-weight:normal;font-size:20px;font-family:'Times New Roman';-inkscape-font-specification:TimesNewRomanPSMT;writing-mode:lr-tb;fill:#000000;fill-opacity:1;fill-rule:nonzero;stroke:none"
           id="text184"><tspan
             x="0 11 16 26 33 38 46 55 65 74 80 90 95 104 114 123 128 137 143 152 157 167 176 182 191 196 201 210 219 224 232 242 248 253 268 277 284 293 298 303 312 321 326 331 337 345 350 360 370 376 385 390 396 402 411 431 439 449 455 460 475 484 491 500 505 510 519 528 533 538 553"
             y="0"
             sodipodi:role="line"
             id="tspan182">= 1) should contain only the software that is volatile—software that we</tspan></text>
        <text
           xml:space="preserve"
           transform="translate(9744,503)"
           style="font-variant:normal;font-weight:normal;font-size:20px;font-family:'Times New Roman';-inkscape-font-specification:TimesNewRomanPSMT;writing-mode:lr-tb;fill:#000000;fill-opacity:1;fill-rule:nonzero;stroke:none"
           id="text188"><tspan
             x="0 15 24 33 38 43 48 58 63 73 82 87 96 106 112 121 126 131 141 146 156 165 171 180 189 195 204 209 218 227 237 242 251 260 268 274 280 289 294 303 312 321 330 339 348"
             y="0"
             sodipodi:role="line"
             id="tspan186">want to be able to quickly and easily change.</tspan></text>
        <text
           xml:space="preserve"
           transform="translate(9744,546)"
           style="font-variant:normal;font-weight:normal;font-size:20px;font-family:'Times New Roman';-inkscape-font-specification:TimesNewRomanPSMT;writing-mode:lr-tb;fill:#000000;fill-opacity:1;fill-rule:nonzero;stroke:none"
           id="text192"><tspan
             x="0 14 24 39 48 58 67 73 78 83 89 95 100 105 114 123 128 137 143 152 161 168 174 183 193 202 208 213 223 233 239 245 254 260 269 277 282 291 298 307 312 322 328 337 346 355 365 370 376 385 390 400 405 413 418 427 437 443 452 457 466 476 490 500 510 519 528 537 542 550 555 560 565 574 583 592 597 602 611 620 625 633 643 652 659 668"
             y="0"
             sodipodi:role="line"
             id="tspan190">However, if the high-level policies are placed into stable components, then the source</tspan></text>
        <text
           xml:space="preserve"
           transform="translate(9744,569)"
           style="font-variant:normal;font-weight:normal;font-size:20px;font-family:'Times New Roman';-inkscape-font-specification:TimesNewRomanPSMT;writing-mode:lr-tb;fill:#000000;fill-opacity:1;fill-rule:nonzero;stroke:none"
           id="text196"><tspan
             x="0 9 19 29 38 43 48 57 66 71 76 83 92 102 109 118 126 135 144 149 157 162 167 176 186 194 203 208 218 228 234 240 249 255 264 272 277 292 298 304 310 315 325 334 339 349 355 361 367 373 382 391 397 402 407 412 422 427 436 445 454 463 472 481 486 491 503 512 518 526 531 540 550 559 565 575 580 594 603 612 621 626 631 640"
             y="0"
             sodipodi:role="line"
             id="tspan194">code that represents those policies will be difficult to change. This could make the</tspan></text>
        <text
           xml:space="preserve"
           transform="translate(9744,592)"
           style="font-variant:normal;font-weight:normal;font-size:20px;font-family:'Times New Roman';-inkscape-font-specification:TimesNewRomanPSMT;writing-mode:lr-tb;fill:#000000;fill-opacity:1;fill-rule:nonzero;stroke:none"
           id="text200"><tspan
             x="0 10 20 29 36 45 51 57 62 71 78 87 96 102 107 116 125 130 139 146 155 160 166 175 181 187 196 205 211 221 227 236 241 246 260 270 285 290 299 308 317 322 331 336 345 355 369 379 389 398 407 416 421 426 431 440 449 454 459 465 473 478 492 501 510 516 530 539 545 551 560 565 573 578 587 597 603 612 617"
             y="0"
             sodipodi:role="line"
             id="tspan198">overall architecture inflexible. How can a component that is maximally stable (</tspan></text>
        <text
           xml:space="preserve"
           transform="translate(10368,592)"
           style="font-variant:normal;font-weight:normal;font-size:20px;font-family:'Times New Roman';-inkscape-font-specification:TimesNewRomanPSMT;writing-mode:lr-tb;fill:#000000;fill-opacity:1;fill-rule:nonzero;stroke:none"
           id="text204"><tspan
             x="0"
             y="0"
             id="tspan202">I</tspan></text>
        <text
           xml:space="preserve"
           transform="translate(10379,592)"
           style="font-variant:normal;font-weight:normal;font-size:20px;font-family:'Times New Roman';-inkscape-font-specification:TimesNewRomanPSMT;writing-mode:lr-tb;fill:#000000;fill-opacity:1;fill-rule:nonzero;stroke:none"
           id="text208"><tspan
             x="0 11 16 26 33 38 48"
             y="0"
             sodipodi:role="line"
             id="tspan206">= 0) be</tspan></text>
        <text
           xml:space="preserve"
           transform="translate(9744,615)"
           style="font-variant:normal;font-weight:normal;font-size:20px;font-family:'Times New Roman';-inkscape-font-specification:TimesNewRomanPSMT;writing-mode:lr-tb;fill:#000000;fill-opacity:1;fill-rule:nonzero;stroke:none"
           id="text212"><tspan
             x="0 6 12 21 30 36 46 52 61 66 75 84 94 103 112 121 126 131 141 146 161 167 172 181 189 194 203 212 222 227 236 245 254 263 272 281 290 295 307 316 325 330 339 348 356 371 380 387 392 398 406 411 417 427 436 445 455 460 466 475 480 485 494 503 508 522 535 544 549 554 566 575 581 589 594 604 611 617 626 635 641 651 657"
             y="0"
             sodipodi:role="line"
             id="tspan210">flexible enough to withstand change? The answer is found in the OCP. This principle</tspan></text>
        <text
           xml:space="preserve"
           transform="translate(9744,638)"
           style="font-variant:normal;font-weight:normal;font-size:20px;font-family:'Times New Roman';-inkscape-font-specification:TimesNewRomanPSMT;writing-mode:lr-tb;fill:#000000;fill-opacity:1;fill-rule:nonzero;stroke:none"
           id="text216"><tspan
             x="0 5 14 20 26 34 39 48 56 61 66 75 84 89 94 100 105 110 116 124 129 139 149 157 165 171 181 187 196 201 210 219 229 234 244 253 261 267 274 283 293 299 308 313 318 328 333 342 349 358 367 372 381 386 395 401 410 418 426 435 443 448 453 462 471 476 481 490 497 506 511 517 523 532 541 547 557 563 572 577 586 595 605 614 623 632 637 642 652 657 667"
             y="0"
             sodipodi:role="line"
             id="tspan214">tells us that it is possible and desirable to create classes that are flexible enough to be</tspan></text>
        <text
           xml:space="preserve"
           transform="translate(9744,661)"
           style="font-variant:normal;font-weight:normal;font-size:20px;font-family:'Times New Roman';-inkscape-font-specification:TimesNewRomanPSMT;writing-mode:lr-tb;fill:#000000;fill-opacity:1;fill-rule:nonzero;stroke:none"
           id="text220"><tspan
             x="0 9 18 23 32 41 51 60 70 75 90 96 101 110 120 129 134 139 146 155 165 174 180 187 193 202 211 216 230 240 250 256 262 268 277 286 291 297 307 316 321 326 344 353 359 368 377 382 391 397 406 416 421 431 437 442 451 457 466 474 482 491 499 504 513 523 532 538 548 555 569 574 579 589 594 599 608 614"
             y="0"
             sodipodi:role="line"
             id="tspan218">extended without requiring modification. Which kind of classes conform to this</tspan></text>
        <text
           xml:space="preserve"
           transform="translate(9744,684)"
           style="font-variant:normal;font-weight:normal;font-size:20px;font-family:'Times New Roman';-inkscape-font-specification:TimesNewRomanPSMT;writing-mode:lr-tb;fill:#000000;fill-opacity:1;fill-rule:nonzero;stroke:none"
           id="text224"><tspan
             x="0 10 17 23 32 41 47 57 63 72 81"
             y="0"
             sodipodi:role="line"
             id="tspan222">principle? </tspan></text>
        <text
           xml:space="preserve"
           transform="translate(9830,684)"
           style="font-variant:normal;font-weight:normal;font-size:20px;font-family:'Times New Roman';-inkscape-font-specification:TimesNewRomanPSMT;writing-mode:lr-tb;fill:#000000;fill-opacity:1;fill-rule:nonzero;stroke:none"
           id="text228"><tspan
             x="0 14 24 32 37 44 53 62"
             y="0"
             sodipodi:role="line"
             id="tspan226">Abstract</tspan></text>
        <text
           xml:space="preserve"
           transform="translate(9902,684)"
           style="font-variant:normal;font-weight:normal;font-size:20px;font-family:'Times New Roman';-inkscape-font-specification:TimesNewRomanPSMT;writing-mode:lr-tb;fill:#000000;fill-opacity:1;fill-rule:nonzero;stroke:none"
           id="text232"><tspan
             x="0 9 15 24 32 40 49 57"
             y="0"
             sodipodi:role="line"
             id="tspan230">classes.</tspan></text>
        <text
           xml:space="preserve"
           transform="translate(9744,734)"
           style="font-variant:normal;font-weight:bold;font-size:23px;font-family:'Times New Roman';-inkscape-font-specification:TimesNewRomanPS-BoldMT;writing-mode:lr-tb;fill:#000000;fill-opacity:1;fill-rule:nonzero;stroke:none"
           id="text236"><tspan
             x="0"
             y="0"
             id="tspan234">I</tspan></text>
        <text
           xml:space="preserve"
           transform="translate(9753,734)"
           style="font-variant:normal;font-weight:bold;font-size:23px;font-family:'Times New Roman';-inkscape-font-specification:TimesNewRomanPS-BoldMT;writing-mode:lr-tb;fill:#000000;fill-opacity:1;fill-rule:nonzero;stroke:none"
           id="text240"><tspan
             x="0 17 32 49 67 84 101 118 127 144 162 168 183 201"
             y="0"
             sodipodi:role="line"
             id="tspan238">NTRODUCING THE</tspan></text>
        <text
           xml:space="preserve"
           transform="translate(9975,734)"
           style="font-variant:normal;font-weight:bold;font-size:23px;font-family:'Times New Roman';-inkscape-font-specification:TimesNewRomanPS-BoldMT;writing-mode:lr-tb;fill:#000000;fill-opacity:1;fill-rule:nonzero;stroke:none"
           id="text244"><tspan
             x="0"
             y="0"
             id="tspan242">S</tspan></text>
        <text
           xml:space="preserve"
           transform="translate(9988,734)"
           style="font-variant:normal;font-weight:bold;font-size:23px;font-family:'Times New Roman';-inkscape-font-specification:TimesNewRomanPS-BoldMT;writing-mode:lr-tb;fill:#000000;fill-opacity:1;fill-rule:nonzero;stroke:none"
           id="text248"><tspan
             x="0 13 29 45 60"
             y="0"
             sodipodi:role="line"
             id="tspan246">TABLE</tspan></text>
        <text
           xml:space="preserve"
           transform="translate(10069,734)"
           style="font-variant:normal;font-weight:bold;font-size:23px;font-family:'Times New Roman';-inkscape-font-specification:TimesNewRomanPS-BoldMT;writing-mode:lr-tb;fill:#000000;fill-opacity:1;fill-rule:nonzero;stroke:none"
           id="text252"><tspan
             x="0"
             y="0"
             id="tspan250">A</tspan></text>
        <text
           xml:space="preserve"
           transform="translate(10085,734)"
           style="font-variant:normal;font-weight:bold;font-size:23px;font-family:'Times New Roman';-inkscape-font-specification:TimesNewRomanPS-BoldMT;writing-mode:lr-tb;fill:#000000;fill-opacity:1;fill-rule:nonzero;stroke:none"
           id="text256"><tspan
             x="0 16 29 44 61 77 94 109 118 136 153"
             y="0"
             sodipodi:role="line"
             id="tspan254">BSTRACTIONS</tspan></text>
        <text
           xml:space="preserve"
           transform="translate(10257,734)"
           style="font-variant:normal;font-weight:bold;font-size:23px;font-family:'Times New Roman';-inkscape-font-specification:TimesNewRomanPS-BoldMT;writing-mode:lr-tb;fill:#000000;fill-opacity:1;fill-rule:nonzero;stroke:none"
           id="text260"><tspan
             x="0"
             y="0"
             id="tspan258">P</tspan></text>
        <text
           xml:space="preserve"
           transform="translate(10272,734)"
           style="font-variant:normal;font-weight:bold;font-size:23px;font-family:'Times New Roman';-inkscape-font-specification:TimesNewRomanPS-BoldMT;writing-mode:lr-tb;fill:#000000;fill-opacity:1;fill-rule:nonzero;stroke:none"
           id="text264"><tspan
             x="0 17 26 43 60 69 84 99"
             y="0"
             sodipodi:role="line"
             id="tspan262">RINCIPLE</tspan></text>
        <text
           xml:space="preserve"
           transform="translate(9744,777)"
           style="font-variant:normal;font-weight:normal;font-size:20px;font-family:'Times New Roman';-inkscape-font-specification:TimesNewRomanPSMT;writing-mode:lr-tb;fill:#000000;fill-opacity:1;fill-rule:nonzero;stroke:none"
           id="text268"><tspan
             x="0 12 21 30 35 46 51 60 70 76 85 90 104 114 122 127 134 143 152 157 163 173 182 190 195 206 213 219 228 237 243 253 259 268 273 280 291 305 316 323 328 336 345 350 358 363 372 382 387 396 401 408 417 423 432 437 443 453 462 470 479 485 495 500 510 519 524 539 548 557 566 571 579 584 593 603 609 615 621 626 635 640 649 658"
             y="0"
             sodipodi:role="line"
             id="tspan266">The Stable Abstractions Principle (SAP) sets up a relationship between stability and</tspan></text>
        <text
           xml:space="preserve"
           transform="translate(9744,800)"
           style="font-variant:normal;font-weight:normal;font-size:20px;font-family:'Times New Roman';-inkscape-font-specification:TimesNewRomanPSMT;writing-mode:lr-tb;fill:#000000;fill-opacity:1;fill-rule:nonzero;stroke:none"
           id="text272"><tspan
             x="0 9 19 27 32 39 48 57 62 71 80 88 96 101 106 120 129 134 139 148 157 162 172 181 190 195 204 213 222 232 237 242 248 253 258 266 275 284 292 297 302 311 320 325 330 339 344 352 357 366 376 382 391 396 405 415 429 439 449 458 467 476 481 486 494 503 513 522 528 538 543 552 558 566 576 581 591 600 605 614 624 632 637 644 653 662 667 672 680"
             y="0"
             sodipodi:role="line"
             id="tspan270">abstractness. On the one hand, it says that a stable component should also be abstract so</tspan></text>
        <text
           xml:space="preserve"
           transform="translate(9744,823)"
           style="font-variant:normal;font-weight:normal;font-size:20px;font-family:'Times New Roman';-inkscape-font-specification:TimesNewRomanPSMT;writing-mode:lr-tb;fill:#000000;fill-opacity:1;fill-rule:nonzero;stroke:none"
           id="text276"><tspan
             x="0 5 14 23 28 33 39 44 52 57 65 70 79 89 95 101 107 112 121 126 136 146 155 163 168 177 187 192 197 207 214 223 233 242 251 256 261 267 272 277 283 290 300 314 319 329 338 344 353 362 367 376 385 390 399 408 418 427 437 442 447 461 470 475 480 489 498 503 513 518 527 536 543 548 557 566 575 585 590 595 601 606 611 619 628 637 645 650 655 664 673"
             y="0"
             sodipodi:role="line"
             id="tspan274">that its stability does not prevent it from being extended. On the other hand, it says that</tspan></text>
        <text
           xml:space="preserve"
           transform="translate(9744,846)"
           style="font-variant:normal;font-weight:normal;font-size:20px;font-family:'Times New Roman';-inkscape-font-specification:TimesNewRomanPSMT;writing-mode:lr-tb;fill:#000000;fill-opacity:1;fill-rule:nonzero;stroke:none"
           id="text280"><tspan
             x="0 9 18 23 32 41 49 54 63 73 79 88 93 102 112 126 136 146 155 164 173 178 183 191 200 210 219 225 235 240 250 259 264 273 283 292 301 308 317 322 331 336 344 350 359 368 377 382 388 393 398 404 409 417 422 428 437 445 450 459 469 475 481 487 492 501 506 515 521 527 537 552 560 565 570 579 588 593 602 612 621 630 637 646 651"
             y="0"
             sodipodi:role="line"
             id="tspan278">an unstable component should be concrete since it its instability allows the concrete</tspan></text>
        <text
           xml:space="preserve"
           transform="translate(9744,869)"
           style="font-variant:normal;font-weight:normal;font-size:20px;font-family:'Times New Roman';-inkscape-font-specification:TimesNewRomanPSMT;writing-mode:lr-tb;fill:#000000;fill-opacity:1;fill-rule:nonzero;stroke:none"
           id="text284"><tspan
             x="0 9 19 29 38 43 58 64 69 78 84 93 98 104 109 114 119 129 134 144 153 158 167 176 184 190 196 205 210 219 228 237 246 255 264 274"
             y="0"
             sodipodi:role="line"
             id="tspan282">code within it to be easily changed.</tspan></text>
        <text
           xml:space="preserve"
           transform="translate(9744,912)"
           style="font-variant:normal;font-weight:normal;font-size:20px;font-family:'Times New Roman';-inkscape-font-specification:TimesNewRomanPSMT;writing-mode:lr-tb;fill:#000000;fill-opacity:1;fill-rule:nonzero;stroke:none"
           id="text288"><tspan
             x="0 12 21 30 38 43 48 54 60 65 74 79 88 98 112 122 132 141 150 159 164 169 175 183 188 193 203 208 218 227 232 240 245 254 264 270 279 284 289 295 300 305 313 322 332 341 347 357 362 371 381 390 398 404 412 417 422 432 438 443 449 458 463 472 479 485 494 503 512 520 525 534 543 553 558 567 577 585 590 597 606 615 620 625 634 640 649 657 665 674"
             y="0"
             sodipodi:role="line"
             id="tspan286">Thus, if a component is to be stable, it should consist of interfaces and abstract classes</tspan></text>
        <text
           xml:space="preserve"
           transform="translate(9744,935)"
           style="font-variant:normal;font-weight:normal;font-size:20px;font-family:'Times New Roman';-inkscape-font-specification:TimesNewRomanPSMT;writing-mode:lr-tb;fill:#000000;fill-opacity:1;fill-rule:nonzero;stroke:none"
           id="text292"><tspan
             x="0 8 18 23 28 37 46 51 56 62 67 72 81 90 99 104 114 123 128 137 146 151 160 169 179 188 198 203 208 219 224 233 243 249 258 263 272 282 296 306 316 325 334 343 348 356 361 366 375 384 389 394 403 410 419 424 433 442 447 456 465 473 479 489 495 504 509 518 525 534 539 545 551 560 569 575 585 591 600 605 614 623 633 638 648 658 663 672 682"
             y="0"
             sodipodi:role="line"
             id="tspan290">so that it can be extended. Stable components that are extensible are flexible and do not</tspan></text>
        <text
           xml:space="preserve"
           transform="translate(9744,958)"
           style="font-variant:normal;font-weight:normal;font-size:20px;font-family:'Times New Roman';-inkscape-font-specification:TimesNewRomanPSMT;writing-mode:lr-tb;fill:#000000;fill-opacity:1;fill-rule:nonzero;stroke:none"
           id="text296"><tspan
             x="0 10 20 29 36 42 51 56 65 75 84 92 97 104 113 119 128 133 138 147 156 161 170 177 186 195 201 206 215 224 229 238 245 254"
             y="0"
             sodipodi:role="line"
             id="tspan294">overly constrain the architecture.</tspan></text>
      </g>
    </g>
  </g>
</svg>
