<?xml version="1.0" encoding="UTF-8" standalone="no"?>
<!-- Created with Inkscape (http://www.inkscape.org/) -->

<svg
   version="1.1"
   id="svg2"
   width="816"
   height="1056"
   viewBox="0 0 816 1056"
   sodipodi:docname="clean_arch.pdf"
   xmlns:inkscape="http://www.inkscape.org/namespaces/inkscape"
   xmlns:sodipodi="http://sodipodi.sourceforge.net/DTD/sodipodi-0.dtd"
   xmlns="http://www.w3.org/2000/svg"
   xmlns:svg="http://www.w3.org/2000/svg">
  <defs
     id="defs6">
    <clipPath
       clipPathUnits="userSpaceOnUse"
       id="clipPath18">
      <path
         d="m 8352,0 h 696 V 1056 H 8352 V 0"
         clip-rule="evenodd"
         id="path16" />
    </clipPath>
    <clipPath
       clipPathUnits="userSpaceOnUse"
       id="clipPath28">
      <path
         d="m 8352,66 h 696 V 996 H 8352 V 66"
         clip-rule="evenodd"
         id="path26" />
    </clipPath>
  </defs>
  <sodipodi:namedview
     id="namedview4"
     pagecolor="#ffffff"
     bordercolor="#000000"
     borderopacity="0.25"
     inkscape:showpageshadow="2"
     inkscape:pageopacity="0.0"
     inkscape:pagecheckerboard="0"
     inkscape:deskcolor="#d1d1d1" />
  <g
     id="g8"
     inkscape:groupmode="layer"
     inkscape:label="clean_arch"
     transform="translate(59.999999,2.64e-5)">
    <g
       id="g10" />
    <g
       id="g12"
       transform="translate(-8352)">
      <g
         id="g14"
         clip-path="url(#clipPath18)">
        <g
           id="g20" />
      </g>
    </g>
    <g
       id="g22"
       transform="translate(-8352)">
      <g
         id="g24"
         clip-path="url(#clipPath28)">
        <text
           xml:space="preserve"
           transform="translate(8352,83)"
           style="font-variant:normal;font-weight:normal;font-size:20px;font-family:'Times New Roman';-inkscape-font-specification:TimesNewRomanPSMT;writing-mode:lr-tb;fill:#000000;fill-opacity:1;fill-rule:nonzero;stroke:none"
           id="text32"><tspan
             x="0 12 21 30 35 52 62 72 82 87 102 111 119 124 130 140 149 159 168 178 183 189 196 206 220 225 230 239 249 258 263 268 280 289 299 307 316 321 326 335 345 354 359 369 376 382 392 401 409 414 429 438 445 454 459 468 477 487 496 505 513 519 529 538 543 552 561 571 576 591 600 607 616 625 632 637 642 652 661 668"
             y="0"
             sodipodi:role="line"
             id="tspan30">The M365 was loaded from tape. Those tape drives were expensive and weren’t very</tspan></text>
        <text
           xml:space="preserve"
           transform="translate(8352,106)"
           style="font-variant:normal;font-weight:normal;font-size:20px;font-family:'Times New Roman';-inkscape-font-specification:TimesNewRomanPSMT;writing-mode:lr-tb;fill:#000000;fill-opacity:1;fill-rule:nonzero;stroke:none"
           id="text36"><tspan
             x="0 7 16 22 28 37 47 53 62 82 91 99 109 118 127 133 142 148 154 163 168 174 183 188 193 202 211 216 222 231 241 250 258 263 270 276 285 291 296 305 314 324 330 337 347 356 370 379 388 393 398 408 414 419 428 433 438 447 453 462 472 481 491 500 509 514 523 532 541 546 553 562 568 573 583 589 595 601 610 619 624 629 643 649 657 667"
             y="0"
             sodipodi:role="line"
             id="tspan34">reliable—especially in the industrial environment of a telephone central office. Also,</tspan></text>
        <text
           xml:space="preserve"
           transform="translate(8352,129)"
           style="font-variant:normal;font-weight:normal;font-size:20px;font-family:'Times New Roman';-inkscape-font-specification:TimesNewRomanPSMT;writing-mode:lr-tb;fill:#000000;fill-opacity:1;fill-rule:nonzero;stroke:none"
           id="text40"><tspan
             x="0 5 14 23 28 45 55 65 75 80 95 104 112 117 126 135 140 149 158 168 177 186 194 200 210 219 224 238 247 256 265 271 280 289 294 301 310 316 325 330 336 346 355 360 365 375 380 385 394 403 408 415 424 432 437 442 452 458"
             y="0"
             sodipodi:role="line"
             id="tspan38">the M365 was an expensive machine relative to the rest of </tspan></text>
        <text
           xml:space="preserve"
           transform="translate(8815,129)"
           style="font-variant:normal;font-weight:normal;font-size:20px;font-family:'Times New Roman';-inkscape-font-specification:TimesNewRomanPSMT;writing-mode:lr-tb;fill:#000000;fill-opacity:1;fill-rule:nonzero;stroke:none"
           id="text44"><tspan
             x="0 5 14 23 28 37 43 52 61 66 73 83 92 98 107 115 120 135 141 146 155 161 170 175 180 189"
             y="0"
             sodipodi:role="line"
             id="tspan42">the electronics within the</tspan></text>
        <text
           xml:space="preserve"
           transform="translate(8352,152)"
           style="font-variant:normal;font-weight:normal;font-size:20px;font-family:'Times New Roman';-inkscape-font-specification:TimesNewRomanPSMT;writing-mode:lr-tb;fill:#000000;fill-opacity:1;fill-rule:nonzero;stroke:none"
           id="text48"><tspan
             x="0 13 27 36 46 51 56 67 77 82 97 106 111 120 134 144 153 160 169 178 188 193 202 212 222 231 236 245 250 260 267 277 283 292 301 306 311 316 326 331 338 347 357 363 372 381 390 395 400 409 418 423 440 450 460 470 475 490 496 501 510 515 524 529 543 549 558 565 575 584 594 608 618 627 632 641"
             y="0"
             sodipodi:role="line"
             id="tspan46">COLT. So we embarked upon a project to replace the M365 with a microcomputer</tspan></text>
        <text
           xml:space="preserve"
           transform="translate(8352,175)"
           style="font-variant:normal;font-weight:normal;font-size:20px;font-family:'Times New Roman';-inkscape-font-specification:TimesNewRomanPSMT;writing-mode:lr-tb;fill:#000000;fill-opacity:1;fill-rule:nonzero;stroke:none"
           id="text52"><tspan
             x="0 10 19 27 36 46 51 61 70 75 84 93 98 108 118 128 138 143 154 164 171 181 190 199 207 215 225 231"
             y="0"
             sodipodi:role="line"
             id="tspan50">based on an 8085 µprocessor.</tspan></text>
        <text
           xml:space="preserve"
           transform="translate(8352,218)"
           style="font-variant:normal;font-weight:normal;font-size:20px;font-family:'Times New Roman';-inkscape-font-specification:TimesNewRomanPSMT;writing-mode:lr-tb;fill:#000000;fill-opacity:1;fill-rule:nonzero;stroke:none"
           id="text56"><tspan
             x="0 12 21 30 35 44 53 68 73 82 92 106 116 125 130 139 146 151 166 175 183 188 197 207 221 231 241 249 258 268 273 283 289 294 303 308 318 325 335 344 353 361 369 379 386 391 401 411 420 427 437 442 447 456 465 470 475 484 493 499 509 514 519 528 537 542 552 562 572 582 587 592 601 606 619 633"
             y="0"
             sodipodi:role="line"
             id="tspan54">The new computer was composed of a processor board that held the 8085, a RAM</tspan></text>
        <text
           xml:space="preserve"
           transform="translate(8352,241)"
           style="font-variant:normal;font-weight:normal;font-size:20px;font-family:'Times New Roman';-inkscape-font-specification:TimesNewRomanPSMT;writing-mode:lr-tb;fill:#000000;fill-opacity:1;fill-rule:nonzero;stroke:none"
           id="text60"><tspan
             x="0 10 20 29 36 46 51 56 65 74 79 84 93 102 108 118 123 133 143 157 162 172 178 183 196 210 227 232 237 246 255 265 270 275 284 291 300 309 314 327 341 358 363 373 383 392 399 409 417 422 427 436 445 450 455 464 473 479 489 494 504 514 528 533 543 549 554 561 570 579 589 596 606 615 621"
             y="0"
             sodipodi:role="line"
             id="tspan58">board that held 32K of RAM, and three ROM boards that held 12K of read-only</tspan></text>
        <text
           xml:space="preserve"
           transform="translate(8352,264)"
           style="font-variant:normal;font-weight:normal;font-size:20px;font-family:'Times New Roman';-inkscape-font-specification:TimesNewRomanPSMT;writing-mode:lr-tb;fill:#000000;fill-opacity:1;fill-rule:nonzero;stroke:none"
           id="text64"><tspan
             x="0 14 23 37 47 54 63 68 77 87 93 102 111 120 125 130 144 150 156 161 166 175 184 192 201 206 216 226 235 242 252 260 265 271 277 282 287 293 302 307 317 322 327 336 345 350 358 367 381 390 395 404 413 422 430 438 444 452 457 466 474 479 484 493 502 507 521 530 539 547 556 563 572 586 595 604 609 614 623 632 639 649 664 673 680 689"
             y="0"
             sodipodi:role="line"
             id="tspan62">memory apiece. All these boards fit into the same chassis as the measurement hardware,</tspan></text>
        <text
           xml:space="preserve"
           transform="translate(8352,287)"
           style="font-variant:normal;font-weight:normal;font-size:20px;font-family:'Times New Roman';-inkscape-font-specification:TimesNewRomanPSMT;writing-mode:lr-tb;fill:#000000;fill-opacity:1;fill-rule:nonzero;stroke:none"
           id="text68"><tspan
             x="0 5 14 23 30 39 49 58 63 72 78 84 98 104 113 122 127 133 142 151 156 161 170 179 184 194 203 209 218 227 232 241 250 255 262 271 276 285 294 303 311 319 325 333 338 343 352 361 366 371 380 389 399 404 413 423 432 440 449 459 464 469 478 487 492 509 519 529 539"
             y="0"
             sodipodi:role="line"
             id="tspan66">thereby eliminating the bulky extra chassis that had housed the M365.</tspan></text>
        <text
           xml:space="preserve"
           transform="translate(8352,330)"
           style="font-variant:normal;font-weight:normal;font-size:20px;font-family:'Times New Roman';-inkscape-font-specification:TimesNewRomanPSMT;writing-mode:lr-tb;fill:#000000;fill-opacity:1;fill-rule:nonzero;stroke:none"
           id="text72"><tspan
             x="0 12 21 30 35 48 62 79 84 94 104 113 120 130 138 143 152 161 167 177 182 192 202 207 213 222 227 236 242 247 257 267 277 287 292 304 315 328 342 359 364 371 383 390 399 407 416 426 432 441 446 457 464 474 483 490 499 513 527 536 546 552 561 566 579 588 597 607 614 628 637 643"
             y="0"
             sodipodi:role="line"
             id="tspan70">The ROM boards held 12 Intel 2708 EPROM (Erasable Programmable Read-Only</tspan></text>
        <text
           xml:space="preserve"
           transform="translate(8352,356)"
           style="font-variant:normal;font-weight:normal;font-size:20px;font-family:'Times New Roman';-inkscape-font-specification:TimesNewRomanPSMT;writing-mode:lr-tb;fill:#000000;fill-opacity:1;fill-rule:nonzero;stroke:none"
           id="text76"><tspan
             x="0 17 26 40 50 57 66 73 78 87 96 102 112 120"
             y="0"
             sodipodi:role="line"
             id="tspan74">Memory) chips.</tspan></text>
        <text
           xml:space="preserve"
           transform="translate(8477,349)"
           style="font-variant:normal;font-weight:normal;font-size:15px;font-family:'Times New Roman';-inkscape-font-specification:TimesNewRomanPSMT;writing-mode:lr-tb;fill:#0000ee;fill-opacity:1;fill-rule:nonzero;stroke:none"
           id="text80"><tspan
             x="0"
             y="0"
             id="tspan78">6</tspan></text>
        <path
           d="m 8477,350.5 h 6 z"
           style="fill:none;stroke:#0000ee;stroke-width:1;stroke-linecap:square;stroke-linejoin:miter;stroke-miterlimit:10;stroke-dasharray:none;stroke-opacity:1"
           id="path82" />
        <text
           xml:space="preserve"
           transform="translate(8489,356)"
           style="font-variant:normal;font-weight:normal;font-size:20px;font-family:'Times New Roman';-inkscape-font-specification:TimesNewRomanPSMT;writing-mode:lr-tb;fill:#0000ee;fill-opacity:1;fill-rule:nonzero;stroke:none"
           id="text86"><tspan
             x="0 11 17 26 35 42 51 56 70 75"
             y="0"
             sodipodi:role="line"
             id="tspan84">Figure A.8</tspan></text>
        <path
           d="m 8489,357.5 h 84 z"
           style="fill:none;stroke:#0000ee;stroke-width:1;stroke-linecap:square;stroke-linejoin:miter;stroke-miterlimit:10;stroke-dasharray:none;stroke-opacity:1"
           id="path88" />
        <text
           xml:space="preserve"
           transform="translate(8579,356)"
           style="font-variant:normal;font-weight:normal;font-size:20px;font-family:'Times New Roman';-inkscape-font-specification:TimesNewRomanPSMT;writing-mode:lr-tb;fill:#000000;fill-opacity:1;fill-rule:nonzero;stroke:none"
           id="text92"><tspan
             x="0 8 17 27 42 50 55 64 73 78 87 96 105 119 129 135 144 149 159 165 170 178 187 196 205 210 219 224 233 242 248 258 263 268 284 293 298 304 314 323 333 342 352 357 362 371 381 389 398 403 412 421 427 437"
             y="0"
             sodipodi:role="line"
             id="tspan90">shows an example of such a chip. We loaded those chips</tspan></text>
        <text
           xml:space="preserve"
           transform="translate(8352,379)"
           style="font-variant:normal;font-weight:normal;font-size:20px;font-family:'Times New Roman';-inkscape-font-specification:TimesNewRomanPSMT;writing-mode:lr-tb;fill:#000000;fill-opacity:1;fill-rule:nonzero;stroke:none"
           id="text96"><tspan
             x="0 15 21 26 35 40 48 58 64 69 84 93 100 109 114 124 133 138 144 153 161 170 177 182 188 197 206 211 216 225 234 248 253 259 268 273 283 288 296 306 315 324 330 339 345 350 360 369 379 385 394 403 411 416 425 434 440 446 455 465 470 481 494 508 525 530 540 549 556 565 574 581 589 594 599 608 617 622 627 642 651 658"
             y="0"
             sodipodi:role="line"
             id="tspan94">with software by inserting them into special devices called PROM burners that were</tspan></text>
        <text
           xml:space="preserve"
           transform="translate(8352,402)"
           style="font-variant:normal;font-weight:normal;font-size:20px;font-family:'Times New Roman';-inkscape-font-specification:TimesNewRomanPSMT;writing-mode:lr-tb;fill:#000000;fill-opacity:1;fill-rule:nonzero;stroke:none"
           id="text100"><tspan
             x="0 10 17 23 33 42 51 56 66 75 80 90 99 106 111 121 130 140 149 155 165 175 189 198 207 212 217 226 235 245 251 258 268 277 291 300 309 314 319 324 336 345 354 359 368 377 383 393 401 406 415 425 434 440 450 455 465 474 479 488 495 504 512 521 531 536 546 555 560 569 578 588 598 606 612 621 630 635 640 649 658 672 677 682"
             y="0"
             sodipodi:role="line"
             id="tspan98">driven by our development environment. The chips could be erased by exposing them to</tspan></text>
        <text
           xml:space="preserve"
           transform="translate(8352,428)"
           style="font-variant:normal;font-weight:normal;font-size:20px;font-family:'Times New Roman';-inkscape-font-specification:TimesNewRomanPSMT;writing-mode:lr-tb;fill:#000000;fill-opacity:1;fill-rule:nonzero;stroke:none"
           id="text104"><tspan
             x="0 9 15 24 33 40 46 55 60 69 78 86 92 97 106 111 120 126 131 138 147 157 163 173 179 188 193 198 204 210 219 228 233"
             y="0"
             sodipodi:role="line"
             id="tspan102">high-intensity ultraviolet light.</tspan></text>
        <text
           xml:space="preserve"
           transform="translate(8590,421)"
           style="font-variant:normal;font-weight:normal;font-size:15px;font-family:'Times New Roman';-inkscape-font-specification:TimesNewRomanPSMT;writing-mode:lr-tb;fill:#0000ee;fill-opacity:1;fill-rule:nonzero;stroke:none"
           id="text108"><tspan
             x="0"
             y="0"
             id="tspan106">7</tspan></text>
        <path
           d="m 8590,422.5 h 6 z"
           style="fill:none;stroke:#0000ee;stroke-width:1;stroke-linecap:square;stroke-linejoin:miter;stroke-miterlimit:10;stroke-dasharray:none;stroke-opacity:1"
           id="path110" />
        <text
           xml:space="preserve"
           transform="translate(8352,471)"
           style="font-variant:normal;font-weight:normal;font-size:20px;font-family:'Times New Roman';-inkscape-font-specification:TimesNewRomanPSMT;writing-mode:lr-tb;fill:#000000;fill-opacity:1;fill-rule:nonzero;stroke:none"
           id="text114"><tspan
             x="0 17 26 31 41 50 60 70 79 84 97 111 116 125 134 144 149 155 160 165 172 181 190 198 204 213 218 227 237 242 247 256 265 270 287 297 307 317 322 331 339 347 356 370 380 386 395 400 406 415 424 433 442 451 460 469 474 484 491 501 510 517 526 540 545 551 561 568 573 578 587 596 601 614 628 637 649 654 660 669 674"
             y="0"
             sodipodi:role="line"
             id="tspan112">My buddy CK and I translated the M365 assembly language program for the COLT into</tspan></text>
        <text
           xml:space="preserve"
           transform="translate(8352,494)"
           style="font-variant:normal;font-weight:normal;font-size:20px;font-family:'Times New Roman';-inkscape-font-specification:TimesNewRomanPSMT;writing-mode:lr-tb;fill:#000000;fill-opacity:1;fill-rule:nonzero;stroke:none"
           id="text118"><tspan
             x="0 10 20 30 40 45 54 62 70 79 93 103 109 118 123 129 138 147 156 165 174 183 192 197 202 214 223 229 237 242 247 254 263 272 280 286 295 300 306 316 325 330 345 354 362 367 377 387 396 405 410 420 429 434 443 452 461 471 476 485 494 504 509 514 524 534 543 548 557 565 570 579 589 599 608 613 618 628 633 647 657 666 671 680 688"
             y="0"
             sodipodi:role="line"
             id="tspan116">8085 assembly language. This translation was done by hand and took us about 6 months.</tspan></text>
        <text
           xml:space="preserve"
           transform="translate(8352,517)"
           style="font-variant:normal;font-weight:normal;font-size:20px;font-family:'Times New Roman';-inkscape-font-specification:TimesNewRomanPSMT;writing-mode:lr-tb;fill:#000000;fill-opacity:1;fill-rule:nonzero;stroke:none"
           id="text122"><tspan
             x="0 12 21 30 35 44 53 63 68 75 84 92 101 107 112 117 132 141 149 154 163 173 183 190 200 209 215 229 238 243 252 258 267 272 282 292 306 311 321 327 332 342 352 362 372 377 386 396 406 415"
             y="0"
             sodipodi:role="line"
             id="tspan120">The end result was approximately 30K of 8085 code.</tspan></text>
        <text
           xml:space="preserve"
           transform="translate(8352,560)"
           style="font-variant:normal;font-weight:normal;font-size:20px;font-family:'Times New Roman';-inkscape-font-specification:TimesNewRomanPSMT;writing-mode:lr-tb;fill:#000000;fill-opacity:1;fill-rule:nonzero;stroke:none"
           id="text126"><tspan
             x="0 14 23 30 35 45 54 64 73 79 89 99 113 122 131 136 141 150 159 169 175 182 192 201 215 224 233 238 243 252 261 271 276 286 296 310 315 325 331 336 349 363 380 385 394 403 413 418 427 437 442 455 469 486 491 496 504 514 519 534 543 548 557 567 576 582 592 597 607 616 622 631 640 646"
             y="0"
             sodipodi:role="line"
             id="tspan124">Our development environment had 64K of RAM and no ROM, so we could quickly</tspan></text>
        <text
           xml:space="preserve"
           transform="translate(8352,583)"
           style="font-variant:normal;font-weight:normal;font-size:20px;font-family:'Times New Roman';-inkscape-font-specification:TimesNewRomanPSMT;writing-mode:lr-tb;fill:#000000;fill-opacity:1;fill-rule:nonzero;stroke:none"
           id="text130"><tspan
             x="0 10 20 35 44 50 60 69 79 84 94 103 110 115 124 134 148 158 164 170 179 189 194 204 210 219 228 235 241 250 258 263 269 278 283 293 298 311 325 342 347 356 365 375 380 385 394 402 407 412 417 426 435 449"
             y="0"
             sodipodi:role="line"
             id="tspan128">download our compiled binaries into RAM and test them.</tspan></text>
        <text
           xml:space="preserve"
           transform="translate(8352,626)"
           style="font-variant:normal;font-weight:normal;font-size:20px;font-family:'Times New Roman';-inkscape-font-specification:TimesNewRomanPSMT;writing-mode:lr-tb;fill:#000000;fill-opacity:1;fill-rule:nonzero;stroke:none"
           id="text134"><tspan
             x="0 14 23 32 41 46 61 70 75 84 94 99 104 109 118 127 132 142 149 159 168 175 184 198 203 218 228 235 244 250 259 268 273 278 293 302 307 315 330 336 341 350 359 368 378 383 388 398 403 412 420 426 435 444 449 454 463 472 477 489 500 513 527 544 552 557 562 578 587 592 602 611 618 627 636 646 651 661"
             y="0"
             sodipodi:role="line"
             id="tspan132">Once we got the program working, we switched to using the EPROMs. We burned 30</tspan></text>
        <text
           xml:space="preserve"
           transform="translate(8352,649)"
           style="font-variant:normal;font-weight:normal;font-size:20px;font-family:'Times New Roman';-inkscape-font-specification:TimesNewRomanPSMT;writing-mode:lr-tb;fill:#000000;fill-opacity:1;fill-rule:nonzero;stroke:none"
           id="text138"><tspan
             x="0 9 18 24 34 42 47 56 65 75 80 86 95 103 112 119 124 133 143 148 153 162 171 185 190 196 205 210 220 225 231 240 248 253 258 263 272 281 286 293 299 308 317 322 327 335 341 351 356 364 369 375 384 389 394 403 412 417 422 431 438 447 456 461 474 488 505 510 520 530 539 546 556 564 569 574 586 595 604 613 618 627 636 642 652 657 672 681"
             y="0"
             sodipodi:role="line"
             id="tspan136">chips and inserted them into just the right slots in the three ROM boards. Each chip was</tspan></text>
        <text
           xml:space="preserve"
           transform="translate(8352,672)"
           style="font-variant:normal;font-weight:normal;font-size:20px;font-family:'Times New Roman';-inkscape-font-specification:TimesNewRomanPSMT;writing-mode:lr-tb;fill:#000000;fill-opacity:1;fill-rule:nonzero;stroke:none"
           id="text142"><tspan
             x="0 6 15 25 34 40 49 59 64 72 82 87 102 111 116 125 135 144 150 160 165 170 179 185 191 196 211 220 226 235 244 249 258 267 273 283 288 303 312 321 326 331 337 346 351 361 366 381 390 396 405 414 419 427 433 443 448"
             y="0"
             sodipodi:role="line"
             id="tspan140">labeled so we could tell which chip went into which slot.</tspan></text>
        <text
           xml:space="preserve"
           transform="translate(8352,715)"
           style="font-variant:normal;font-weight:normal;font-size:20px;font-family:'Times New Roman';-inkscape-font-specification:TimesNewRomanPSMT;writing-mode:lr-tb;fill:#000000;fill-opacity:1;fill-rule:nonzero;stroke:none"
           id="text146"><tspan
             x="0 12 21 30 35 45 55 69 74 84 91 101 110 117 126 140 145 160 169 177 182 191 196 204 210 219 228 234 243 248 258 264 273 282 289 297 302 307 317 327 341 346 352 362 371 380 385 390 400 410 415 425 434 441 450 455 460 469 478 483 492 501 507 517 525 530 535 550 559 564 572 578 592 602 608 617 622 632 638 648 654 664 673"
             y="0"
             sodipodi:role="line"
             id="tspan144">The 30K program was a single binary, 30K long. To burn the chips, we simply divided</tspan></text>
        <text
           xml:space="preserve"
           transform="translate(8352,738)"
           style="font-variant:normal;font-weight:normal;font-size:20px;font-family:'Times New Roman';-inkscape-font-specification:TimesNewRomanPSMT;writing-mode:lr-tb;fill:#000000;fill-opacity:1;fill-rule:nonzero;stroke:none"
           id="text150"><tspan
             x="0 5 14 23 28 33 43 49 58 67 74 83 88 94 108 117 126 135 140 146 155 160 170 175 185 195 200 210 216 222 228 237 244 253 262 267 272 282 296 301 309 318 327 341 350 359 364 372 377 382 391 400 410 415 425 434 441 450 459 469 474 483 492 501 510 515 523 532 541 555 564 573 578 583 593 602 607 617 622 627 636"
             y="0"
             sodipodi:role="line"
             id="tspan148">that binary image into 30 different 1K segments, and burned each segment onto the</tspan></text>
        <text
           xml:space="preserve"
           transform="translate(8352,761)"
           style="font-variant:normal;font-weight:normal;font-size:20px;font-family:'Times New Roman';-inkscape-font-specification:TimesNewRomanPSMT;writing-mode:lr-tb;fill:#000000;fill-opacity:1;fill-rule:nonzero;stroke:none"
           id="text154"><tspan
             x="0 9 19 29 36 46 56 63 69 78 83 92 98 107 112 118 127 137 146 152 161 171 176 185 194 200 210"
             y="0"
             sodipodi:role="line"
             id="tspan152">appropriately labeled chip.</tspan></text>
      </g>
    </g>
  </g>
</svg>
