<?xml version="1.0" encoding="UTF-8" standalone="no"?>
<!-- Created with Inkscape (http://www.inkscape.org/) -->

<svg
   version="1.1"
   id="svg2"
   width="816"
   height="1056"
   viewBox="0 0 816 1056"
   sodipodi:docname="clean_arch.pdf"
   xmlns:inkscape="http://www.inkscape.org/namespaces/inkscape"
   xmlns:sodipodi="http://sodipodi.sourceforge.net/DTD/sodipodi-0.dtd"
   xmlns="http://www.w3.org/2000/svg"
   xmlns:svg="http://www.w3.org/2000/svg">
  <defs
     id="defs6">
    <clipPath
       clipPathUnits="userSpaceOnUse"
       id="clipPath18">
      <path
         d="m 24360,0 h 696 v 1056 h -696 V 0"
         clip-rule="evenodd"
         id="path16" />
    </clipPath>
    <clipPath
       clipPathUnits="userSpaceOnUse"
       id="clipPath28">
      <path
         d="m 24360,66 h 696 v 930 h -696 V 66"
         clip-rule="evenodd"
         id="path26" />
    </clipPath>
  </defs>
  <sodipodi:namedview
     id="namedview4"
     pagecolor="#ffffff"
     bordercolor="#000000"
     borderopacity="0.25"
     inkscape:showpageshadow="2"
     inkscape:pageopacity="0.0"
     inkscape:pagecheckerboard="0"
     inkscape:deskcolor="#d1d1d1" />
  <g
     id="g8"
     inkscape:groupmode="layer"
     inkscape:label="clean_arch"
     transform="translate(59.999999,2.64e-5)">
    <g
       id="g10" />
    <g
       id="g12"
       transform="translate(-24360)">
      <g
         id="g14"
         clip-path="url(#clipPath18)">
        <g
           id="g20" />
      </g>
    </g>
    <g
       id="g22"
       transform="translate(-24360)">
      <g
         id="g24"
         clip-path="url(#clipPath28)">
        <text
           xml:space="preserve"
           transform="translate(24360,87)"
           style="font-variant:normal;font-weight:bold;font-size:23px;font-family:'Times New Roman';-inkscape-font-specification:TimesNewRomanPS-BoldMT;writing-mode:lr-tb;fill:#000000;fill-opacity:1;fill-rule:nonzero;stroke:none"
           id="text32"><tspan
             x="0"
             y="0"
             id="tspan30">T</tspan></text>
        <text
           xml:space="preserve"
           transform="translate(24375,87)"
           style="font-variant:normal;font-weight:bold;font-size:23px;font-family:'Times New Roman';-inkscape-font-specification:TimesNewRomanPS-BoldMT;writing-mode:lr-tb;fill:#000000;fill-opacity:1;fill-rule:nonzero;stroke:none"
           id="text36"><tspan
             x="0 18"
             y="0"
             sodipodi:role="line"
             id="tspan34">HE</tspan></text>
        <text
           xml:space="preserve"
           transform="translate(24414,87)"
           style="font-variant:normal;font-weight:bold;font-size:23px;font-family:'Times New Roman';-inkscape-font-specification:TimesNewRomanPS-BoldMT;writing-mode:lr-tb;fill:#000000;fill-opacity:1;fill-rule:nonzero;stroke:none"
           id="text40"><tspan
             x="0"
             y="0"
             id="tspan38">D</tspan></text>
        <text
           xml:space="preserve"
           transform="translate(24431,87)"
           style="font-variant:normal;font-weight:bold;font-size:23px;font-family:'Times New Roman';-inkscape-font-specification:TimesNewRomanPS-BoldMT;writing-mode:lr-tb;fill:#000000;fill-opacity:1;fill-rule:nonzero;stroke:none"
           id="text44"><tspan
             x="0 15 31 45 60 75"
             y="0"
             sodipodi:role="line"
             id="tspan42">EBATES</tspan></text>
        <text
           xml:space="preserve"
           transform="translate(24525,87)"
           style="font-variant:normal;font-weight:bold;font-size:23px;font-family:'Times New Roman';-inkscape-font-specification:TimesNewRomanPS-BoldMT;writing-mode:lr-tb;fill:#000000;fill-opacity:1;fill-rule:nonzero;stroke:none"
           id="text48"><tspan
             x="0"
             y="0"
             id="tspan46">C</tspan></text>
        <text
           xml:space="preserve"
           transform="translate(24542,87)"
           style="font-variant:normal;font-weight:bold;font-size:23px;font-family:'Times New Roman';-inkscape-font-specification:TimesNewRomanPS-BoldMT;writing-mode:lr-tb;fill:#000000;fill-opacity:1;fill-rule:nonzero;stroke:none"
           id="text52"><tspan
             x="0 18 35 50 59 76 93 108"
             y="0"
             sodipodi:role="line"
             id="tspan50">ONTINUED</tspan></text>
        <text
           xml:space="preserve"
           transform="translate(24360,130)"
           style="font-variant:normal;font-weight:normal;font-size:20px;font-family:'Times New Roman';-inkscape-font-specification:TimesNewRomanPSMT;writing-mode:lr-tb;fill:#000000;fill-opacity:1;fill-rule:nonzero;stroke:none"
           id="text56"><tspan
             x="0 14 20 25 34 44 53 60 68 77 82 87 93 98 108 114 124 129 138 148 153 158 166 171 181 191 196 206 215 225 234 239 245 254 263 268 278 287 292 306 315 320 329 338 353 361 366 371 377 386 391 397 406 415 420 425 430 436 441 451 458 467 475 480 486 495 504 510 516 525 530 536 545 554 561 570 579 587 596 606 611 625"
             y="0"
             sodipodi:role="line"
             id="tspan54">Of course, I did not stop debating on Netnews. In fact, I drastically increased my</tspan></text>
        <text
           xml:space="preserve"
           transform="translate(24360,153)"
           style="font-variant:normal;font-weight:normal;font-size:20px;font-family:'Times New Roman';-inkscape-font-specification:TimesNewRomanPSMT;writing-mode:lr-tb;fill:#000000;fill-opacity:1;fill-rule:nonzero;stroke:none"
           id="text60"><tspan
             x="0 9 18 23 38 48 55 64 69 79 86 95 103 112 121 130 139 144 149 155 160 168 173 182 189 194 203 213 218 233 240 246 251 257 266 275 280 289 296 301 307 316 322 331 339 344 350 360 367"
             y="0"
             sodipodi:role="line"
             id="tspan58">network presence. I started writing articles for </tspan></text>
        <text
           xml:space="preserve"
           transform="translate(24732,153)"
           style="font-variant:normal;font-weight:normal;font-size:20px;font-family:'Times New Roman';-inkscape-font-specification:TimesNewRomanPSMT;writing-mode:lr-tb;fill:#000000;fill-opacity:1;fill-rule:nonzero;stroke:none"
           id="text64"><tspan
             x="0 13 24 35 40 53 62 72 82 89"
             y="0"
             sodipodi:role="line"
             id="tspan62">C++ Report</tspan></text>
        <text
           xml:space="preserve"
           transform="translate(24826,153)"
           style="font-variant:normal;font-weight:normal;font-size:20px;font-family:'Times New Roman';-inkscape-font-specification:TimesNewRomanPSMT;writing-mode:lr-tb;fill:#000000;fill-opacity:1;fill-rule:nonzero;stroke:none"
           id="text68"><tspan
             x="0 5 10 24 33 43 48 53 68 74 79 88 93 107 114 123 133 142 148 156 161 170 179 185 195 200 205"
             y="0"
             sodipodi:role="line"
             id="tspan66">. And, with Grady’s help, I</tspan></text>
        <text
           xml:space="preserve"
           transform="translate(24360,176)"
           style="font-variant:normal;font-weight:normal;font-size:20px;font-family:'Times New Roman';-inkscape-font-specification:TimesNewRomanPSMT;writing-mode:lr-tb;fill:#000000;fill-opacity:1;fill-rule:nonzero;stroke:none"
           id="text72"><tspan
             x="0 8 13 22 29 34 43 53 58 73 83 90 99 105 114 123 128 138 147 152 166 175 180 186 192 199 207 212 217 227 237 247 256 262"
             y="0"
             sodipodi:role="line"
             id="tspan70">started working on my first book: </tspan></text>
        <text
           xml:space="preserve"
           transform="translate(24627,176)"
           style="font-variant:normal;font-weight:normal;font-size:20px;font-family:'Times New Roman';-inkscape-font-specification:TimesNewRomanPSMT;writing-mode:lr-tb;fill:#000000;fill-opacity:1;fill-rule:nonzero;stroke:none"
           id="text76"><tspan
             x="0 14 23 31 37 46 55 61 70 79 84 98 108 114 123 132 137 144 158 165 171 180 189 194 203 213 218 231 242 253 258 272 282 292 298 304 313 322 327 333 343 352 360 365 378 386 392 401"
             y="0"
             sodipodi:role="line"
             id="tspan74">Designing Object-Oriented C++ Applications Using</tspan></text>
        <text
           xml:space="preserve"
           transform="translate(24360,199)"
           style="font-variant:normal;font-weight:normal;font-size:20px;font-family:'Times New Roman';-inkscape-font-specification:TimesNewRomanPSMT;writing-mode:lr-tb;fill:#000000;fill-opacity:1;fill-rule:nonzero;stroke:none"
           id="text80"><tspan
             x="0 5 14 23 28 41 51 61 70 79 84 101 110 115 124 134"
             y="0"
             sodipodi:role="line"
             id="tspan78">the Booch Method</tspan></text>
        <text
           xml:space="preserve"
           transform="translate(24504,199)"
           style="font-variant:normal;font-weight:normal;font-size:20px;font-family:'Times New Roman';-inkscape-font-specification:TimesNewRomanPSMT;writing-mode:lr-tb;fill:#000000;fill-opacity:1;fill-rule:nonzero;stroke:none"
           id="text84"><tspan
             x="0"
             y="0"
             id="tspan82">.</tspan></text>
        <text
           xml:space="preserve"
           transform="translate(24360,242)"
           style="font-variant:normal;font-weight:normal;font-size:20px;font-family:'Times New Roman';-inkscape-font-specification:TimesNewRomanPSMT;writing-mode:lr-tb;fill:#000000;fill-opacity:1;fill-rule:nonzero;stroke:none"
           id="text88"><tspan
             x="0 14 23 32 37 42 51 57 66 75 80 90 100 105 114 123 130 139 149 154 168 177 182 187 193 198 203 218 227 235 240 250 259 266 276 285 292 300 309 314 319 329 338 343 348 354 359 364 379 388 396 401 406 413 422 431 436 441 455 465 470 480 489 498 503 518 527 535 540 549 558 564 570 576 585 594 599 613 622 627 636 649 658 667 673"
             y="0"
             sodipodi:role="line"
             id="tspan86">One thing bothered me. It was perverse, but it was true. No one was calling me “Uncle</tspan></text>
        <text
           xml:space="preserve"
           transform="translate(24360,265)"
           style="font-variant:normal;font-weight:normal;font-size:20px;font-family:'Times New Roman';-inkscape-font-specification:TimesNewRomanPSMT;writing-mode:lr-tb;fill:#000000;fill-opacity:1;fill-rule:nonzero;stroke:none"
           id="text92"><tspan
             x="0 13 23 33 38 47 52 58 63 69 79 88 97 107 112 117 126 135 140 145 151 156 170 176 184 192 201 211 216 222 227 232 237 248 258 263 269 274 288 297 307 316 321 326 335 344 349 363 369 377 382 391 400 409 414 424 430 435 445 454 459 464 470 479 488 493 502 515 524 533 539 548 553 566 576 586 595 600 606 615 620 634 643 648 657 671 680 686"
             y="0"
             sodipodi:role="line"
             id="tspan90">Bob.” I found that I missed it. So I made the mistake of putting “Uncle Bob” in my email</tspan></text>
        <text
           xml:space="preserve"
           transform="translate(24360,288)"
           style="font-variant:normal;font-weight:normal;font-size:20px;font-family:'Times New Roman';-inkscape-font-specification:TimesNewRomanPSMT;writing-mode:lr-tb;fill:#000000;fill-opacity:1;fill-rule:nonzero;stroke:none"
           id="text96"><tspan
             x="0 9 18 28 33 47 56 61 70 79 94 102 107 115 121 130 139 148 153 162 169 178 186 191 196 210 219 229 234 239 248 257 262 271 280 294 303 308 316 321 330 339 348 353 358 370 380 389 398 403 412 421 427 433 442 447 453 458 465 474 483 489 495 503 512 522 527 532 541 550 555 560 566 571 576 591 600 608 613 622 627 637 644 653 658 663"
             y="0"
             sodipodi:role="line"
             id="tspan94">and Netnews signatures. And the name stuck. Eventually I realized that it was a pretty</tspan></text>
        <text
           xml:space="preserve"
           transform="translate(24360,311)"
           style="font-variant:normal;font-weight:normal;font-size:20px;font-family:'Times New Roman';-inkscape-font-specification:TimesNewRomanPSMT;writing-mode:lr-tb;fill:#000000;fill-opacity:1;fill-rule:nonzero;stroke:none"
           id="text100"><tspan
             x="0 9 19 29 39 44 54 61 70 79 89"
             y="0"
             sodipodi:role="line"
             id="tspan98">good brand.</tspan></text>
        <text
           xml:space="preserve"
           transform="translate(24360,361)"
           style="font-variant:normal;font-weight:bold;font-size:23px;font-family:'Times New Roman';-inkscape-font-specification:TimesNewRomanPS-BoldMT;writing-mode:lr-tb;fill:#000000;fill-opacity:1;fill-rule:nonzero;stroke:none"
           id="text104"><tspan
             x="0 6 12 18 24"
             y="0"
             sodipodi:role="line"
             id="tspan102">... B</tspan></text>
        <text
           xml:space="preserve"
           transform="translate(24400,361)"
           style="font-variant:normal;font-weight:bold;font-size:23px;font-family:'Times New Roman';-inkscape-font-specification:TimesNewRomanPS-BoldMT;writing-mode:lr-tb;fill:#000000;fill-opacity:1;fill-rule:nonzero;stroke:none"
           id="text108"><tspan
             x="0"
             y="0"
             id="tspan106">Y</tspan></text>
        <text
           xml:space="preserve"
           transform="translate(24421,361)"
           style="font-variant:normal;font-weight:bold;font-size:23px;font-family:'Times New Roman';-inkscape-font-specification:TimesNewRomanPS-BoldMT;writing-mode:lr-tb;fill:#000000;fill-opacity:1;fill-rule:nonzero;stroke:none"
           id="text112"><tspan
             x="0"
             y="0"
             id="tspan110">A</tspan></text>
        <text
           xml:space="preserve"
           transform="translate(24437,361)"
           style="font-variant:normal;font-weight:bold;font-size:23px;font-family:'Times New Roman';-inkscape-font-specification:TimesNewRomanPS-BoldMT;writing-mode:lr-tb;fill:#000000;fill-opacity:1;fill-rule:nonzero;stroke:none"
           id="text116"><tspan
             x="0 17"
             y="0"
             sodipodi:role="line"
             id="tspan114">NY</tspan></text>
        <text
           xml:space="preserve"
           transform="translate(24475,361)"
           style="font-variant:normal;font-weight:bold;font-size:23px;font-family:'Times New Roman';-inkscape-font-specification:TimesNewRomanPS-BoldMT;writing-mode:lr-tb;fill:#000000;fill-opacity:1;fill-rule:nonzero;stroke:none"
           id="text120"><tspan
             x="0"
             y="0"
             id="tspan118">O</tspan></text>
        <text
           xml:space="preserve"
           transform="translate(24493,361)"
           style="font-variant:normal;font-weight:bold;font-size:23px;font-family:'Times New Roman';-inkscape-font-specification:TimesNewRomanPS-BoldMT;writing-mode:lr-tb;fill:#000000;fill-opacity:1;fill-rule:nonzero;stroke:none"
           id="text124"><tspan
             x="0 15 33 48"
             y="0"
             sodipodi:role="line"
             id="tspan122">THER</tspan></text>
        <text
           xml:space="preserve"
           transform="translate(24564,361)"
           style="font-variant:normal;font-weight:bold;font-size:23px;font-family:'Times New Roman';-inkscape-font-specification:TimesNewRomanPS-BoldMT;writing-mode:lr-tb;fill:#000000;fill-opacity:1;fill-rule:nonzero;stroke:none"
           id="text128"><tspan
             x="0"
             y="0"
             id="tspan126">N</tspan></text>
        <text
           xml:space="preserve"
           transform="translate(24581,361)"
           style="font-variant:normal;font-weight:bold;font-size:23px;font-family:'Times New Roman';-inkscape-font-specification:TimesNewRomanPS-BoldMT;writing-mode:lr-tb;fill:#000000;fill-opacity:1;fill-rule:nonzero;stroke:none"
           id="text132"><tspan
             x="0 16 39"
             y="0"
             sodipodi:role="line"
             id="tspan130">AME</tspan></text>
        <text
           xml:space="preserve"
           transform="translate(24360,404)"
           style="font-variant:normal;font-weight:normal;font-size:20px;font-family:'Times New Roman';-inkscape-font-specification:TimesNewRomanPSMT;writing-mode:lr-tb;fill:#000000;fill-opacity:1;fill-rule:nonzero;stroke:none"
           id="text136"><tspan
             x="0 13 27 38 50 55 70 79 87 92 101 106 115 121 130 139 148 153 159 168 173 186 197 208 213 222 232 242 248 254 263 272 277 283 293 302 307 312 318 323 328 343 352 360 365 374 384 398 408 418 426 435 445 450 460 466 471 477 486 495 504 511 519 524 529 544 550 555 564 569 578 583 591 596 603 609 618 623 629"
             y="0"
             sodipodi:role="line"
             id="tspan134">ROSE was a gigantic C++ application. It was composed of layers, with a strictly</tspan></text>
        <text
           xml:space="preserve"
           transform="translate(24360,427)"
           style="font-variant:normal;font-weight:normal;font-size:20px;font-family:'Times New Roman';-inkscape-font-specification:TimesNewRomanPSMT;writing-mode:lr-tb;fill:#000000;fill-opacity:1;fill-rule:nonzero;stroke:none"
           id="text140"><tspan
             x="0 9 18 24 34 41 50 59 69 74 84 93 103 112 121 131 140 149 158 167 172 179 188 194 203 208 213 225 234 243 248 253 260 269 275 284 289 295 303 308 317 327 332 337 342 351 360 365 372 381 387 396 401 406 415 424 429 434 440 445 454 463 473 482 487 497 506 514 523 530 536 546 555 565 570 576 585 590 595 604 610 618 623 633 643 653 662"
             y="0"
             sodipodi:role="line"
             id="tspan138">enforced dependency rule. That rule is not the rule that I have described in this book.</tspan></text>
        <text
           xml:space="preserve"
           transform="translate(24360,450)"
           style="font-variant:normal;font-weight:normal;font-size:20px;font-family:'Times New Roman';-inkscape-font-specification:TimesNewRomanPSMT;writing-mode:lr-tb;fill:#000000;fill-opacity:1;fill-rule:nonzero;stroke:none"
           id="text144"><tspan
             x="0 16 25 30 40 46 56"
             y="0"
             sodipodi:role="line"
             id="tspan142">We did </tspan></text>
        <text
           xml:space="preserve"
           transform="translate(24421,450)"
           style="font-variant:normal;font-weight:normal;font-size:20px;font-family:'Times New Roman';-inkscape-font-specification:TimesNewRomanPSMT;writing-mode:lr-tb;fill:#000000;fill-opacity:1;fill-rule:nonzero;stroke:none"
           id="text148"><tspan
             x="0 9 19"
             y="0"
             sodipodi:role="line"
             id="tspan146">not</tspan></text>
        <text
           xml:space="preserve"
           transform="translate(24450,450)"
           style="font-variant:normal;font-weight:normal;font-size:20px;font-family:'Times New Roman';-inkscape-font-specification:TimesNewRomanPSMT;writing-mode:lr-tb;fill:#000000;fill-opacity:1;fill-rule:nonzero;stroke:none"
           id="text152"><tspan
             x="0 10 20 26 35 40 45 55 64 71 76 86 95 105 114 123 133 142 151 160 166 175 183 188 193 203 218 227 234 244 249 258 264 273 282 289 295 304 314 323 329 334 344 354 360 366 375 381 390 398 403 408 421 430 435 444 453 459 464 469 484 493 498 508 518 524 533 538 547 557 562 572 581"
             y="0"
             sodipodi:role="line"
             id="tspan150">point our dependencies toward high-level policies. Rather, we pointed our</tspan></text>
        <text
           xml:space="preserve"
           transform="translate(24360,473)"
           style="font-variant:normal;font-weight:normal;font-size:20px;font-family:'Times New Roman';-inkscape-font-specification:TimesNewRomanPSMT;writing-mode:lr-tb;fill:#000000;fill-opacity:1;fill-rule:nonzero;stroke:none"
           id="text156"><tspan
             x="0 10 19 29 38 47 57 66 75 84 90 99 107 112 118 127 132 137 146 155 160 174 184 191 200 205 210 217 226 236 242 247 253 263 272 281 287 292 302 308 315 324 333 338 344 354 363 368 378 384 389 395 401 411 426 431 440 450 459 464 471 481 487 492 497 509 518 527 532 546 559 565 570 580 590 596 605 610 619 629 634 643 648 653 658 667"
             y="0"
             sodipodi:role="line"
             id="tspan154">dependencies in the more traditional direction of flow control. The GUI pointed at the</tspan></text>
        <text
           xml:space="preserve"
           transform="translate(24360,496)"
           style="font-variant:normal;font-weight:normal;font-size:20px;font-family:'Times New Roman';-inkscape-font-specification:TimesNewRomanPSMT;writing-mode:lr-tb;fill:#000000;fill-opacity:1;fill-rule:nonzero;stroke:none"
           id="text160"><tspan
             x="0 7 16 26 33 42 50 59 68 73 82 87 93 103 112 117 122 137 146 152 161 170 175 185 195 201 210 215 224 234 239 248 253 258 263 272 281 286 300 309 318 324 334 343 349 358 363 369 379 388 393 400 409 415 424 432 437 442 457 466 472 481 490 495 505 515 521 530 535 544 554 559 568 573 578 583 592 601 606 616 625 630 639 649 658 666 675"
             y="0"
             sodipodi:role="line"
             id="tspan158">representation, which pointed at the manipulation rules, which pointed at the database.</tspan></text>
        <text
           xml:space="preserve"
           transform="translate(24360,519)"
           style="font-variant:normal;font-weight:normal;font-size:20px;font-family:'Times New Roman';-inkscape-font-specification:TimesNewRomanPSMT;writing-mode:lr-tb;fill:#000000;fill-opacity:1;fill-rule:nonzero;stroke:none"
           id="text164"><tspan
             x="0 6 15 20 25 34 43 48 57 66 76 81 86 92 97 102 117 126 134 139 144 153 159 167 172 178 187 193 199 208 215 224 229 234 244 249 259 265 272 281 290 295 300 310 319 326 331 341 350 360 369 378 388 397 406 415 421 430 438 443 448 458 473 482 489 499 504 514 524 530 536 545 554 559 564 573 582 587 592 601 607 617 626 636 641 646 655"
             y="0"
             sodipodi:role="line"
             id="tspan162">In the end, it was this failure to direct our dependencies toward policy that aided the</tspan></text>
        <text
           xml:space="preserve"
           transform="translate(24360,542)"
           style="font-variant:normal;font-weight:normal;font-size:20px;font-family:'Times New Roman';-inkscape-font-specification:TimesNewRomanPSMT;writing-mode:lr-tb;fill:#000000;fill-opacity:1;fill-rule:nonzero;stroke:none"
           id="text168"><tspan
             x="0 9 19 28 37 42 51 60 66 71 81 90 104 110 118 127 132 142 148 153 158 167 176 181 191 198 208 218 227 236 241"
             y="0"
             sodipodi:role="line"
             id="tspan166">eventual demise of the product.</tspan></text>
        <text
           xml:space="preserve"
           transform="translate(24360,585)"
           style="font-variant:normal;font-weight:normal;font-size:20px;font-family:'Times New Roman';-inkscape-font-specification:TimesNewRomanPSMT;writing-mode:lr-tb;fill:#000000;fill-opacity:1;fill-rule:nonzero;stroke:none"
           id="text172"><tspan
             x="0 12 21 30 35 44 51 60 69 75 80 89 98 103 112 119 128 133 143 149 154 167 181 192 204 209 224 233 241 246 254 260 274 280 286 295 302 307 312 322 327 332 341 350 355 364 371 380 389 395 400 409 418 423 432 439 448 453 463 469 474 483 488 497 507 517 527 532 541 551 565 575 581 587 596 602 607 612 624 633"
             y="0"
             sodipodi:role="line"
             id="tspan170">The architecture of ROSE was similar to the architecture of a good compiler. The</tspan></text>
        <text
           xml:space="preserve"
           transform="translate(24360,608)"
           style="font-variant:normal;font-weight:normal;font-size:20px;font-family:'Times New Roman';-inkscape-font-specification:TimesNewRomanPSMT;writing-mode:lr-tb;fill:#000000;fill-opacity:1;fill-rule:nonzero;stroke:none"
           id="text176"><tspan
             x="0 9 16 25 35 44 50 59 68 74 79 88 98 103 112 117 123 133 142 147 162 171 179 184 193 203 212 219 227 236 246 255 260 266 275 280 290 295 304 313 318 324 333 338 347 354 363 372 378 383 390 399 409 416 425 433 442 451 456 465 470 476 486 495 500 505 510 519 528 533 538 545 554 564 571 580 588 597 606 611 620 625 631 641 650 655 670 679"
             y="0"
             sodipodi:role="line"
             id="tspan174">graphical notation was “parsed” into an internal representation; that representation was</tspan></text>
        <text
           xml:space="preserve"
           transform="translate(24360,631)"
           style="font-variant:normal;font-weight:normal;font-size:20px;font-family:'Times New Roman';-inkscape-font-specification:TimesNewRomanPSMT;writing-mode:lr-tb;fill:#000000;fill-opacity:1;fill-rule:nonzero;stroke:none"
           id="text180"><tspan
             x="0 5 14 23 32 37 51 60 69 75 85 94 100 109 114 123 133 138 148 157 162 169 178 184 193 201 206 215 224 234 239 247 252 262 269 278 288 293 299 308 313 322 331 336 346 356 362 371 380 385 392 402 409 415 424 433 438 447 457 462 472 481 486 495 505 514 522 531"
             y="0"
             sodipodi:role="line"
             id="tspan178">then manipulated by rules and stored in an object-oriented database.</tspan></text>
        <text
           xml:space="preserve"
           transform="translate(24360,674)"
           style="font-variant:normal;font-weight:normal;font-size:20px;font-family:'Times New Roman';-inkscape-font-specification:TimesNewRomanPSMT;writing-mode:lr-tb;fill:#000000;fill-opacity:1;fill-rule:nonzero;stroke:none"
           id="text184"><tspan
             x="0 14 24 30 39 48 53 60 70 77 83 92 101 106 115 125 130 140 149 154 163 173 182 190 199 207 212 227 236 243 252 257 266 271 278 287 293 302 307 313 323 332 338 347 352 361 370 385 390 396 406 415 424 429 434 443 452 462 467 472 481 490 495 509 523 528 543 553 560 566 576 581 596 605 613 618 627 633 639 644 653 663 672 680"
             y="0"
             sodipodi:role="line"
             id="tspan182">Object-oriented databases were a relatively new idea, and the OO world was all abuzz</tspan></text>
        <text
           xml:space="preserve"
           transform="translate(24360,697)"
           style="font-variant:normal;font-weight:normal;font-size:20px;font-family:'Times New Roman';-inkscape-font-specification:TimesNewRomanPSMT;writing-mode:lr-tb;fill:#000000;fill-opacity:1;fill-rule:nonzero;stroke:none"
           id="text188"><tspan
             x="0 15 21 26 35 40 45 54 63 68 74 88 98 104 110 119 128 133 139 149 158 166 171 176 188 198 207 214 223 228 238 248 254 263 272 277 284 294 301 307 316 325 330 339 349 354 364 371 381 390 397 406 420 434 443 450 455 470 479 488 493 502 512 517 522 532 537 546 555 565 574 579 588 597 602 612 622 628 637 646 651"
             y="0"
             sodipodi:role="line"
             id="tspan186">with the implications. Every object-oriented programmer wanted to have an object-</tspan></text>
        <text
           xml:space="preserve"
           transform="translate(24360,720)"
           style="font-variant:normal;font-weight:normal;font-size:20px;font-family:'Times New Roman';-inkscape-font-specification:TimesNewRomanPSMT;writing-mode:lr-tb;fill:#000000;fill-opacity:1;fill-rule:nonzero;stroke:none"
           id="text192"><tspan
             x="0 10 17 23 32 41 46 55 65 70 80 89 94 103 113 122 130 139 144 150 159 164 173 179 187 192 202 209 214 223 232 239 244 252 261 269 274 283 297 302 307 319 328 337 342 348 358 367 376 381 396 405 413 418 425 434 440 449 454 460 470 479 485 494 499 507 513 527 537 543 552 557 562 571 580 590 595 605 614 623 633 639"
             y="0"
             sodipodi:role="line"
             id="tspan190">oriented database in his or her system. The idea was relatively simple, and deeply</tspan></text>
        <text
           xml:space="preserve"
           transform="translate(24360,743)"
           style="font-variant:normal;font-weight:normal;font-size:20px;font-family:'Times New Roman';-inkscape-font-specification:TimesNewRomanPSMT;writing-mode:lr-tb;fill:#000000;fill-opacity:1;fill-rule:nonzero;stroke:none"
           id="text196"><tspan
             x="0 6 16 25 34 40 46 54 59 65 74 79 84 96 105 114 119 129 138 143 152 162 171 179 188 193 201 206 216 223 232 240 245 255 265 271 280 289 294 302 307 312 321 331 336 341 346 355 365 371 380 388 393 398 410 419 428"
             y="0"
             sodipodi:role="line"
             id="tspan194">idealistic. The database stores objects, not tables. The </tspan></text>
        <text
           xml:space="preserve"
           transform="translate(24793,743)"
           style="font-variant:normal;font-weight:normal;font-size:20px;font-family:'Times New Roman';-inkscape-font-specification:TimesNewRomanPSMT;writing-mode:lr-tb;fill:#000000;fill-opacity:1;fill-rule:nonzero;stroke:none"
           id="text200"><tspan
             x="0 10 19 24 33 43 52 60 69 74 89 98 106 111 119 128 138 148 158 166 175 185 190 195 205 210 216 226 236"
             y="0"
             sodipodi:role="line"
             id="tspan198">database was supposed to look</tspan></text>
        <text
           xml:space="preserve"
           transform="translate(24360,766)"
           style="font-variant:normal;font-weight:normal;font-size:20px;font-family:'Times New Roman';-inkscape-font-specification:TimesNewRomanPSMT;writing-mode:lr-tb;fill:#000000;fill-opacity:1;fill-rule:nonzero;stroke:none"
           id="text204"><tspan
             x="0 6 12 21 30 35 48 62 79 84 89 107 116 125 134 139 148 158 167 172 181 190 199 208 216 224 233 243 248 257 266 271 281 291 297 306 315 320 325 330 336 341 346 354 360 374 384 390 399 404 413 423 433 442 451 458 467 477 482 488 497 502 516 525 539 549 556 564 569 574 580 586 591 596 605 614 619 624 634 644 650 659 668"
             y="0"
             sodipodi:role="line"
             id="tspan202">like RAM. When you accessed an object, it simply appeared in memory. If that object</tspan></text>
        <text
           xml:space="preserve"
           transform="translate(24360,789)"
           style="font-variant:normal;font-weight:normal;font-size:20px;font-family:'Times New Roman';-inkscape-font-specification:TimesNewRomanPSMT;writing-mode:lr-tb;fill:#000000;fill-opacity:1;fill-rule:nonzero;stroke:none"
           id="text208"><tspan
             x="0 10 20 26 35 40 49 59 64 69 79 84 93 102 112 117 126 135 142 147 157 167 173 182 191 196 201 206 211 220 229 234 244 249 258 267 274 279 289 299 305 314 323 328 333 348 358 367 373 383 388 397 407 417 426 435 442 447 453 462 467 481 490 504 514 521 530 535 544 552 557 565 575 585 594 599 608 616 621 630 640"
             y="0"
             sodipodi:role="line"
             id="tspan206">pointed to another object, the other object would appear in memory as soon as you</tspan></text>
        <text
           xml:space="preserve"
           transform="translate(24360,812)"
           style="font-variant:normal;font-weight:normal;font-size:20px;font-family:'Times New Roman';-inkscape-font-specification:TimesNewRomanPSMT;writing-mode:lr-tb;fill:#000000;fill-opacity:1;fill-rule:nonzero;stroke:none"
           id="text212"><tspan
             x="0 9 18 27 36 44 52 61 71 76 82 87 92 97 103 108 113 128 137 145 150 156 162 171 180 185 199 208 217 223 232"
             y="0"
             sodipodi:role="line"
             id="tspan210">accessed it. It was like magic.</tspan></text>
        <text
           xml:space="preserve"
           transform="translate(24360,855)"
           style="font-variant:normal;font-weight:normal;font-size:20px;font-family:'Times New Roman';-inkscape-font-specification:TimesNewRomanPSMT;writing-mode:lr-tb;fill:#000000;fill-opacity:1;fill-rule:nonzero;stroke:none"
           id="text216"><tspan
             x="0 12 21 30 35 40 50 59 64 73 83 92 100 109 114 129 138 146 151 161 168 178 188 197 207 213 222 227 237 246 253 258 268 274 283 292 301 309 314 319 329 336 345 354 359 365 374 383 389 394 408 414 422 427 436 445 454 459 464 480 489 494 509 518 527 532 541 551 556 561 570 579 584 598 607 616 622 631 636 641 651 660"
             y="0"
             sodipodi:role="line"
             id="tspan214">That database was probably our biggest practical mistake. We wanted the magic, but</tspan></text>
        <text
           xml:space="preserve"
           transform="translate(24360,878)"
           style="font-variant:normal;font-weight:normal;font-size:20px;font-family:'Times New Roman';-inkscape-font-specification:TimesNewRomanPSMT;writing-mode:lr-tb;fill:#000000;fill-opacity:1;fill-rule:nonzero;stroke:none"
           id="text220"><tspan
             x="0 15 24 33 38 43 58 67 72 81 91 96 101 116 125 133 138 147 152 162 168 177 182 187 195 201 211 225 230 235 241 250 255 262 271 279 285 295 304 309 314 323 332 342 351 360 368 374 384 393 398 403 412 418 425 435 442 452 461 468 473 482 487 493 500 509 523 532 547 557 564 573 578 583 592 601 606 611 625 634 644 653 658 668 677"
             y="0"
             sodipodi:role="line"
             id="tspan218">what we got was a big, slow, intrusive, expensive third-party framework that made our</tspan></text>
        <text
           xml:space="preserve"
           transform="translate(24360,901)"
           style="font-variant:normal;font-weight:normal;font-size:20px;font-family:'Times New Roman';-inkscape-font-specification:TimesNewRomanPSMT;writing-mode:lr-tb;fill:#000000;fill-opacity:1;fill-rule:nonzero;stroke:none"
           id="text224"><tspan
             x="0 6 12 22 31 39 44 53 62 68 74 79 89 98 103 109 123 133 142 152 158 167 176 181 191 200 207 212 222 229 239 248 255 264 272 280 285 295 304 309 315 324 332 337 342 351 361 371 380 385 390 399 409 418 425 434 439 445 454 464 473 479"
             y="0"
             sodipodi:role="line"
             id="tspan222">lives hell by impeding our progress on just about every level.</tspan></text>
        <text
           xml:space="preserve"
           transform="translate(24360,944)"
           style="font-variant:normal;font-weight:normal;font-size:20px;font-family:'Times New Roman';-inkscape-font-specification:TimesNewRomanPSMT;writing-mode:lr-tb;fill:#000000;fill-opacity:1;fill-rule:nonzero;stroke:none"
           id="text228"><tspan
             x="0 12 21 30 35 40 50 59 64 73 83 92 100 109 114 129 138 146 151 160 170 175 180 185 194 203 208 218 227 233 242 247 261 267 275 280 289 298 307 312 327 336 341 355 364 374 383 388 393 405 414 423 428 438 444 453 462 471 479 484 489 503 509 517 522 531 540 549 554 559 565 574 579 585 594 603 608 613 618 633 642"
             y="0"
             sodipodi:role="line"
             id="tspan226">That database was not the only mistake we made. The biggest mistake, in fact, was</tspan></text>
        <text
           xml:space="preserve"
           transform="translate(24360,967)"
           style="font-variant:normal;font-weight:normal;font-size:20px;font-family:'Times New Roman';-inkscape-font-specification:TimesNewRomanPSMT;writing-mode:lr-tb;fill:#000000;fill-opacity:1;fill-rule:nonzero;stroke:none"
           id="text232"><tspan
             x="0 10 20 29 36 43 52 59 68 77 83 88 97 106 111 120 127 136 141 146 158 167 176 183 192 197 212 221 228 237 242 256 265 274 283 288 302 312 319 328 333 339 348 357 366 373 381 386 391 400 409 418 423 429 434 443 452 462 471 476 486 495 503 512 519 525 535 544 554 559 568 577 584 593 598 603 612 621 631 636 645 654 663"
             y="0"
             sodipodi:role="line"
             id="tspan230">over-architecture. There were many more layers than I have described here, and each</tspan></text>
        <text
           xml:space="preserve"
           transform="translate(24360,990)"
           style="font-variant:normal;font-weight:normal;font-size:20px;font-family:'Times New Roman';-inkscape-font-specification:TimesNewRomanPSMT;writing-mode:lr-tb;fill:#000000;fill-opacity:1;fill-rule:nonzero;stroke:none"
           id="text236"><tspan
             x="0 9 18 28 33 39 44 52 57 67 82 91 96 106 113 122 131 141 146 156 162 167 176 186 200 214 223 232 238 247 256 261 267 277 286 294 299 309 319 328 335 344 353 362 372 377 382 394 403 409 417 422 430 439 446 456 465 475 480 485 495 500 508 514 523 532 538 544 550 559 568 577 582 588 597 602 609 618 628 637 646 655 660 665 674"
             y="0"
             sodipodi:role="line"
             id="tspan234">had its own brand of communications overhead. This served to significantly reduce the</tspan></text>
      </g>
    </g>
  </g>
</svg>
