<?xml version="1.0" encoding="UTF-8" standalone="no"?>
<!-- Created with Inkscape (http://www.inkscape.org/) -->

<svg
   version="1.1"
   id="svg2"
   width="816"
   height="1056"
   viewBox="0 0 816 1056"
   sodipodi:docname="clean_arch.pdf"
   xmlns:inkscape="http://www.inkscape.org/namespaces/inkscape"
   xmlns:sodipodi="http://sodipodi.sourceforge.net/DTD/sodipodi-0.dtd"
   xmlns="http://www.w3.org/2000/svg"
   xmlns:svg="http://www.w3.org/2000/svg">
  <defs
     id="defs6">
    <clipPath
       clipPathUnits="userSpaceOnUse"
       id="clipPath18">
      <path
         d="m 2088,0 h 696 V 1056 H 2088 V 0"
         clip-rule="evenodd"
         id="path16" />
    </clipPath>
    <clipPath
       clipPathUnits="userSpaceOnUse"
       id="clipPath28">
      <path
         d="m 2088,66 h 696 V 996 H 2088 V 66"
         clip-rule="evenodd"
         id="path26" />
    </clipPath>
  </defs>
  <sodipodi:namedview
     id="namedview4"
     pagecolor="#ffffff"
     bordercolor="#000000"
     borderopacity="0.25"
     inkscape:showpageshadow="2"
     inkscape:pageopacity="0.0"
     inkscape:pagecheckerboard="0"
     inkscape:deskcolor="#d1d1d1" />
  <g
     id="g8"
     inkscape:groupmode="layer"
     inkscape:label="clean_arch"
     transform="translate(59.999999,2.64e-5)">
    <g
       id="g10" />
    <g
       id="g12"
       transform="translate(-2088)">
      <g
         id="g14"
         clip-path="url(#clipPath18)">
        <g
           id="g20" />
      </g>
    </g>
    <g
       id="g22"
       transform="translate(-2088)">
      <g
         id="g24"
         clip-path="url(#clipPath28)">
        <text
           xml:space="preserve"
           transform="translate(2088,83.17188)"
           style="font-variant:normal;font-weight:normal;font-size:20px;font-family:'Times New Roman';-inkscape-font-specification:TimesNewRomanPSMT;writing-mode:lr-tb;fill:#000000;fill-opacity:1;fill-rule:nonzero;stroke:none"
           id="text32"><tspan
             x="0 10 17 22 31 36 41 47 56 65 73 78 83 89 103 113 122 132 141 149 169 174 183 189 197 202 211 220 229 238 246 254 263 270 279 284 293 303 313 319 328 333 339 349 358 363 368 377 386 396 401 411 418 427 437 446 455 460 468 473 478 487 496 501 511 518 528 538 547 556 561 567 577 586 591 600 610 620 629 634 640 647 657"
             y="0"
             sodipodi:role="line"
             id="tspan30">or at least impedes—this necessary evolution, and prevents the production code from</tspan></text>
        <text
           xml:space="preserve"
           transform="translate(2088,106)"
           style="font-variant:normal;font-weight:normal;font-size:20px;font-family:'Times New Roman';-inkscape-font-specification:TimesNewRomanPSMT;writing-mode:lr-tb;fill:#000000;fill-opacity:1;fill-rule:nonzero;stroke:none"
           id="text36"><tspan
             x="0 10 19 25 34 43 48 57 65 70 79 88 97 106 113 122 128 133 138 147 156 166 171 177 183 192 201 207 217 223 232 237 242 251 259 264 270 275 280 289 299 308 314 324 329 339 348"
             y="0"
             sodipodi:role="line"
             id="tspan34">being as general, and flexible, as it could be.</tspan></text>
        <text
           xml:space="preserve"
           transform="translate(2088,156)"
           style="font-variant:normal;font-weight:bold;font-size:23px;font-family:'Times New Roman';-inkscape-font-specification:TimesNewRomanPS-BoldMT;writing-mode:lr-tb;fill:#000000;fill-opacity:1;fill-rule:nonzero;stroke:none"
           id="text40"><tspan
             x="0"
             y="0"
             id="tspan38">S</tspan></text>
        <text
           xml:space="preserve"
           transform="translate(2101,156)"
           style="font-variant:normal;font-weight:bold;font-size:23px;font-family:'Times New Roman';-inkscape-font-specification:TimesNewRomanPS-BoldMT;writing-mode:lr-tb;fill:#000000;fill-opacity:1;fill-rule:nonzero;stroke:none"
           id="text44"><tspan
             x="0 15 32 49 66 75 90"
             y="0"
             sodipodi:role="line"
             id="tspan42">ECURITY</tspan></text>
        <text
           xml:space="preserve"
           transform="translate(2088,199)"
           style="font-variant:normal;font-weight:normal;font-size:20px;font-family:'Times New Roman';-inkscape-font-specification:TimesNewRomanPSMT;writing-mode:lr-tb;fill:#000000;fill-opacity:1;fill-rule:nonzero;stroke:none"
           id="text48"><tspan
             x="0 12 21 30 35 43 52 62 71 78 88 98 113 122 129 137 142 152 158 163 168 177 186 191 196 205 213 218 224 233 242 247 261 272 278 283 292 302 311 317 327 332 342 351 356 366 375 384 393 402 409 419 428 436 441 447 453 458 463 472 481 490 495 510 519 526 535 540 550 559 569 575 585 594 603 613 618 624"
             y="0"
             sodipodi:role="line"
             id="tspan46">The superpowers of the testing API could be dangerous if they were deployed in</tspan></text>
        <text
           xml:space="preserve"
           transform="translate(2088,222)"
           style="font-variant:normal;font-weight:normal;font-size:20px;font-family:'Times New Roman';-inkscape-font-specification:TimesNewRomanPSMT;writing-mode:lr-tb;fill:#000000;fill-opacity:1;fill-rule:nonzero;stroke:none"
           id="text52"><tspan
             x="0 10 17 27 37 46 55 60 66 76 85 90 98 107 115 120 129 143 151 156 161 167 173 178 183 192 198 206 211 217 225 230 239 244 253 263 272 281 290 297 306 311 316 321 330 339 348 353 358 367 376 381 386 395 403 408 414 423 432 437 451 462 468 473 478 487 496 506 511 516 525 534 539 549 558 567 576 585 592 602 611 619 624 634 643 650 655 663 668 678"
             y="0"
             sodipodi:role="line"
             id="tspan50">production systems. If this is a concern, then the testing API, and the dangerous parts of</tspan></text>
        <text
           xml:space="preserve"
           transform="translate(2088,245)"
           style="font-variant:normal;font-weight:normal;font-size:20px;font-family:'Times New Roman';-inkscape-font-specification:TimesNewRomanPSMT;writing-mode:lr-tb;fill:#000000;fill-opacity:1;fill-rule:nonzero;stroke:none"
           id="text56"><tspan
             x="0 6 11 19 24 30 44 54 60 69 83 92 101 106 115 120 126 136 145 150 155 163 172 182 191 197 207 212 222 231 236 245 254 264 269 274 280 289 294 303 308 316 325 335 344 351 360 365 374 379 384 390 399 409 418 428 437 446 456 465 474 479 485 494 499 509 518 528 534 544 553 562 572 578 587 592 601 611 625 635 645 654 663 672 677"
             y="0"
             sodipodi:role="line"
             id="tspan54">its implementation, should be kept in a separate, independently deployable component.</tspan></text>
        <text
           xml:space="preserve"
           transform="translate(2088,315)"
           style="font-variant:normal;font-weight:bold;font-size:33px;font-family:'Times New Roman';-inkscape-font-specification:TimesNewRomanPS-BoldMT;writing-mode:lr-tb;fill:#000000;fill-opacity:1;fill-rule:nonzero;stroke:none"
           id="text60"><tspan
             x="0"
             y="0"
             id="tspan58">C</tspan></text>
        <text
           xml:space="preserve"
           transform="translate(2112,315)"
           style="font-variant:normal;font-weight:bold;font-size:33px;font-family:'Times New Roman';-inkscape-font-specification:TimesNewRomanPS-BoldMT;writing-mode:lr-tb;fill:#000000;fill-opacity:1;fill-rule:nonzero;stroke:none"
           id="text64"><tspan
             x="0 26 50 74 96 120 138 151 177"
             y="0"
             sodipodi:role="line"
             id="tspan62">ONCLUSION</tspan></text>
        <text
           xml:space="preserve"
           transform="translate(2088,360)"
           style="font-variant:normal;font-weight:normal;font-size:20px;font-family:'Times New Roman';-inkscape-font-specification:TimesNewRomanPSMT;writing-mode:lr-tb;fill:#000000;fill-opacity:1;fill-rule:nonzero;stroke:none"
           id="text68"><tspan
             x="0 10 19 27 32 40 45 54 61 70 75 84 94 99 104 114 123 128 136 142 152 161 166 171 180 189 194 202 211 219 224 233 247 252 257 264 273 278 287 296 302 307 312 317 326 335 344 349 358 365 374 379 389 398 405 410 418 423 433 439 444 449 458 467 472 480 489 497 502 511 525 530 535 544 553 558 563 577 586 594 599 604 614 623 628 643 652 658"
             y="0"
             sodipodi:role="line"
             id="tspan66">Tests are not outside the system; rather, they are parts of the system that must be well</tspan></text>
        <text
           xml:space="preserve"
           transform="translate(2088,383)"
           style="font-variant:normal;font-weight:normal;font-size:20px;font-family:'Times New Roman';-inkscape-font-specification:TimesNewRomanPSMT;writing-mode:lr-tb;fill:#000000;fill-opacity:1;fill-rule:nonzero;stroke:none"
           id="text72"><tspan
             x="0 10 19 27 33 42 51 60 70 75 81 87 92 97 106 115 124 129 138 145 154 159 164 174 179 189 196 206 216 222 232 241 246 251 260 269 274 284 293 301 307 314 323 333 338 348 357 366 375 381 387 392 400 405 415 421 426 434 439 448 458 464 470 476 481 490 495 504 513 523 528 535 544 553 560 569 577 585 591 601 610 615 620 630 639 647 652 660 665 670 679 688"
             y="0"
             sodipodi:role="line"
             id="tspan70">designed if they are to provide the desired benefits of stability and regression. Tests that</tspan></text>
        <text
           xml:space="preserve"
           transform="translate(2088,406)"
           style="font-variant:normal;font-weight:normal;font-size:20px;font-family:'Times New Roman';-inkscape-font-specification:TimesNewRomanPSMT;writing-mode:lr-tb;fill:#000000;fill-opacity:1;fill-rule:nonzero;stroke:none"
           id="text76"><tspan
             x="0 9 16 25 30 39 49 54 59 69 78 86 92 101 110 119 129 134 143 151 156 166 175 182 187 192 202 208 213 218 227 236 241 249 258 266 271 280 294 299 304 313 322 332 337 342 352 357 367 376 381 387 394 403 412 418 424 433 438 447 456 466 471 481 487 493 499 505 514 523 529 534 539 544 554 559 573 582 588 597 602 611 617 626 631 636 647 656 665"
             y="0"
             sodipodi:role="line"
             id="tspan74">are not designed as part of the system tend to be fragile and difficult to maintain. Such</tspan></text>
        <text
           xml:space="preserve"
           transform="translate(2088,429)"
           style="font-variant:normal;font-weight:normal;font-size:20px;font-family:'Times New Roman';-inkscape-font-specification:TimesNewRomanPSMT;writing-mode:lr-tb;fill:#000000;fill-opacity:1;fill-rule:nonzero;stroke:none"
           id="text80"><tspan
             x="0 5 14 22 27 35 40 50 56 61 70 79 84 99 105 114 124 129 138 148 153 163 172 177 182 191 200 205 219 228 234 243 248 257 266 275 284 293 302 307 314 324 334 348 353 359 365 375 385 392 412 422 428 436 445 454 461 471 480 490 495 505 514 523 532 541 549 558 563 568 577 586 595 600 609 616 625 630 635 645"
             y="0"
             sodipodi:role="line"
             id="tspan78">tests often wind up on the maintenance room floor—discarded because they are too</tspan></text>
        <text
           xml:space="preserve"
           transform="translate(2088,452)"
           style="font-variant:normal;font-weight:normal;font-size:20px;font-family:'Times New Roman';-inkscape-font-specification:TimesNewRomanPSMT;writing-mode:lr-tb;fill:#000000;fill-opacity:1;fill-rule:nonzero;stroke:none"
           id="text84"><tspan
             x="0 10 16 22 28 34 43 52 58 63 68 73 83 88 102 111 117 126 131 140 146 155"
             y="0"
             sodipodi:role="line"
             id="tspan82">difficult to maintain.</tspan></text>
      </g>
    </g>
  </g>
</svg>
