<?xml version="1.0" encoding="UTF-8" standalone="no"?>
<!-- Created with Inkscape (http://www.inkscape.org/) -->

<svg
   version="1.1"
   id="svg2"
   width="816"
   height="1056"
   viewBox="0 0 816 1056"
   sodipodi:docname="clean_arch.pdf"
   xmlns:inkscape="http://www.inkscape.org/namespaces/inkscape"
   xmlns:sodipodi="http://sodipodi.sourceforge.net/DTD/sodipodi-0.dtd"
   xmlns="http://www.w3.org/2000/svg"
   xmlns:svg="http://www.w3.org/2000/svg">
  <defs
     id="defs6">
    <clipPath
       clipPathUnits="userSpaceOnUse"
       id="clipPath18">
      <path
         d="m 696,0 h 696 V 1056 H 696 V 0"
         clip-rule="evenodd"
         id="path16" />
    </clipPath>
    <clipPath
       clipPathUnits="userSpaceOnUse"
       id="clipPath28">
      <path
         d="m 696,66 h 696 V 996 H 696 V 66"
         clip-rule="evenodd"
         id="path26" />
    </clipPath>
  </defs>
  <sodipodi:namedview
     id="namedview4"
     pagecolor="#ffffff"
     bordercolor="#000000"
     borderopacity="0.25"
     inkscape:showpageshadow="2"
     inkscape:pageopacity="0.0"
     inkscape:pagecheckerboard="0"
     inkscape:deskcolor="#d1d1d1" />
  <g
     id="g8"
     inkscape:groupmode="layer"
     inkscape:label="clean_arch"
     transform="translate(59.999999,2.64e-5)">
    <g
       id="g10" />
    <g
       id="g12"
       transform="translate(-696)">
      <g
         id="g14"
         clip-path="url(#clipPath18)">
        <g
           id="g20" />
      </g>
    </g>
    <g
       id="g22"
       transform="translate(-696)">
      <g
         id="g24"
         clip-path="url(#clipPath28)">
        <text
           xml:space="preserve"
           transform="translate(696,83)"
           style="font-variant:normal;font-weight:normal;font-size:20px;font-family:'Times New Roman';-inkscape-font-specification:TimesNewRomanPSMT;writing-mode:lr-tb;fill:#000000;fill-opacity:1;fill-rule:nonzero;stroke:none"
           id="text32"><tspan
             x="0 12 21 30 35 41 50 58 63 68 78 87 96 105 115 124 129 138 147 155 160 168 177 186 195 200 205 214 223 228 235 241 249 258 263 273 279 284 293 298 312 321 330 339 348 357 364 370 379 384 394 400 405 419 429 439 448 454 463 468 482 491 500 509 518 527 541 550 559 564 569 574 584 594 600 608 613 618 626 635 644 653 658 667"
             y="0"
             sodipodi:role="line"
             id="tspan30">The last decade has seen the rise of a menagerie of module management tools, such as</tspan></text>
        <text
           xml:space="preserve"
           transform="translate(696,106)"
           style="font-variant:normal;font-weight:normal;font-size:20px;font-family:'Times New Roman';-inkscape-font-specification:TimesNewRomanPSMT;writing-mode:lr-tb;fill:#000000;fill-opacity:1;fill-rule:nonzero;stroke:none"
           id="text36"><tspan
             x="0 17 26 36 45 54 59 64 75 84 90 99 105 114 123 132 141 146 151 160 169 179 184 195 208 225 230 235 247 256 265 273 282 287 292 302 312 318 326 331 340 349 359 368 373 382 389 399 414 423 428 434 443 448 454 468 478 488 495 500 509 518 527 536 541 551 560 569 578 587 595 604 609 614 624 633 640 646 655"
             y="0"
             sodipodi:role="line"
             id="tspan34">Maven, Leiningen, and RVM. These tools have grown in importance because, during</tspan></text>
        <text
           xml:space="preserve"
           transform="translate(696,129)"
           style="font-variant:normal;font-weight:normal;font-size:20px;font-family:'Times New Roman';-inkscape-font-specification:TimesNewRomanPSMT;writing-mode:lr-tb;fill:#000000;fill-opacity:1;fill-rule:nonzero;stroke:none"
           id="text40"><tspan
             x="0 5 14 23 28 33 38 44 58 67 72 77 86 91 101 110 118 123 128 137 146 160 170 179 186 191 201 207 212 219 228 237 245 254 264 270 279 284 293 303 317 327 337 346 355 364 369 377 382 391 400 410 415 424 434 448 458 468 477 486 495 500 505 511 517 527 534 543 550 556 565 573 578 587 596 606 615 620 630 639 648"
             y="0"
             sodipodi:role="line"
             id="tspan38">that time, a vast number of reusable components and component libraries have been</tspan></text>
        <text
           xml:space="preserve"
           transform="translate(696,152)"
           style="font-variant:normal;font-weight:normal;font-size:20px;font-family:'Times New Roman';-inkscape-font-specification:TimesNewRomanPSMT;writing-mode:lr-tb;fill:#000000;fill-opacity:1;fill-rule:nonzero;stroke:none"
           id="text44"><tspan
             x="0 9 16 25 34 39 48 58 63 68 84 93 98 107 114 123 128 137 147 162 167 173 179 189 195 204 213 218 224 233 238 243 252 261 266 275 284 293 298 308 314 319 327 337 343 348 363 372 379 388 393 400 409 418 426 435 455 464 469 475 484 490 496 502 508 514 528 537 546 551 556 566 572 577 587 596 605 610 620 626 631 636 645"
             y="0"
             sodipodi:role="line"
             id="tspan42">created. We are now living in the age of software reuse—a fulfillment of one of the</tspan></text>
        <text
           xml:space="preserve"
           transform="translate(696,175)"
           style="font-variant:normal;font-weight:normal;font-size:20px;font-family:'Times New Roman';-inkscape-font-specification:TimesNewRomanPSMT;writing-mode:lr-tb;fill:#000000;fill-opacity:1;fill-rule:nonzero;stroke:none"
           id="text48"><tspan
             x="0 10 16 26 35 43 48 53 63 70 80 94 100 108 117 125 130 140 146 151 156 165 174 179 189 199 205 214 223 228 235 245 252 258 267 276 281 290 300 305 319 329 339 348 354"
             y="0"
             sodipodi:role="line"
             id="tspan46">oldest promises of the object-oriented model.</tspan></text>
        <text
           xml:space="preserve"
           transform="translate(696,218)"
           style="font-variant:normal;font-weight:normal;font-size:20px;font-family:'Times New Roman';-inkscape-font-specification:TimesNewRomanPSMT;writing-mode:lr-tb;fill:#000000;fill-opacity:1;fill-rule:nonzero;stroke:none"
           id="text52"><tspan
             x="0 12 21 30 35 48 57 66 74 83 89 102 111 117 126 135 143 152 157 169 179 188 194 204 213 219 228 237 246 255 260 271 278 284 293 302 308 318 324 333 338 345 358 370 381 388 393 399 407 412 421 426 436 443 449 458 467 473 483 489 498 503 508 517 526 531 536 544 553 562 576 584 589 599 609 619 625 635 644 652 657 662 671"
             y="0"
             sodipodi:role="line"
             id="tspan50">The Reuse/Release Equivalence Principle (REP) is a principle that seems obvious, at</tspan></text>
        <text
           xml:space="preserve"
           transform="translate(696,241)"
           style="font-variant:normal;font-weight:normal;font-size:20px;font-family:'Times New Roman';-inkscape-font-specification:TimesNewRomanPSMT;writing-mode:lr-tb;fill:#000000;fill-opacity:1;fill-rule:nonzero;stroke:none"
           id="text56"><tspan
             x="0 6 15 24 32 37 42 48 57 62 71 77 86 96 104 110 119 128 133 138 143 154 163 173 183 189 198 203 218 227 237 242 257 266 275 280 285 290 300 305 312 321 330 338 347 352 360 370 376 381 396 405 412 421 426 435 445 459 469 479 488 497 506 511 519 524 533 542 551 560 570 575 580 585 594 603 613 618 633 639 645 651 656 665 675 680"
             y="0"
             sodipodi:role="line"
             id="tspan54">least in hindsight. People who want to reuse software components cannot, and will not,</tspan></text>
        <text
           xml:space="preserve"
           transform="translate(696,264)"
           style="font-variant:normal;font-weight:normal;font-size:20px;font-family:'Times New Roman';-inkscape-font-specification:TimesNewRomanPSMT;writing-mode:lr-tb;fill:#000000;fill-opacity:1;fill-rule:nonzero;stroke:none"
           id="text60"><tspan
             x="0 10 20 25 33 43 48 57 66 72 81 89 97 102 107 116 126 134 143 148 157 167 181 191 201 210 219 228 233 241 246 255 262 271 276 281 288 297 306 315 324 334 339 344 353 360 370 379 388 397 402 411 416 423 432 438 447 456 464 473 478 488 495 505 514 523 531 539 544 553 562 572 577 586 593 602 607 616 622 632 641"
             y="0"
             sodipodi:role="line"
             id="tspan58">do so unless those components are tracked through a release process and are given</tspan></text>
        <text
           xml:space="preserve"
           transform="translate(696,287)"
           style="font-variant:normal;font-weight:normal;font-size:20px;font-family:'Times New Roman';-inkscape-font-specification:TimesNewRomanPSMT;writing-mode:lr-tb;fill:#000000;fill-opacity:1;fill-rule:nonzero;stroke:none"
           id="text64"><tspan
             x="0 7 16 22 31 40 48 57 62 71 80 94 104 113 120 128"
             y="0"
             sodipodi:role="line"
             id="tspan62">release numbers.</tspan></text>
        <text
           xml:space="preserve"
           transform="translate(696,330)"
           style="font-variant:normal;font-weight:normal;font-size:20px;font-family:'Times New Roman';-inkscape-font-specification:TimesNewRomanPSMT;writing-mode:lr-tb;fill:#000000;fill-opacity:1;fill-rule:nonzero;stroke:none"
           id="text68"><tspan
             x="0 12 21 27 35 40 46 54 59 68 78 83 88 96 102 116 126 132 141 146 156 165 174 183 192 200 209 214 219 234 240 245 254 264 273 278 283 290 299 305 314 323 331 340 345 354 363 377 387 396 403 411 416 421 426 435 444 451 460 465 480 490 499 505 515 520 530 539 544 553 563 568 583 592 601 606 611 621 626 635 644 652 661 668"
             y="0"
             sodipodi:role="line"
             id="tspan66">This is not simply because, without release numbers, there would be no way to ensure</tspan></text>
        <text
           xml:space="preserve"
           transform="translate(696,353)"
           style="font-variant:normal;font-weight:normal;font-size:20px;font-family:'Times New Roman';-inkscape-font-specification:TimesNewRomanPSMT;writing-mode:lr-tb;fill:#000000;fill-opacity:1;fill-rule:nonzero;stroke:none"
           id="text72"><tspan
             x="0 5 14 23 28 33 42 48 54 59 64 73 82 87 94 103 112 120 129 139 144 153 163 177 187 197 206 215 224 229 237 242 251 258 267 272 281 291 305 315 324 329 335 345 351 360 365 380 386 391 400 405 414 423 432 441 446 456 461 470 479 485 490 495 508 517 522 531 540 546 551 556 562 567 572 581 587 595 605 610 617 626 632 638 647 656 661"
             y="0"
             sodipodi:role="line"
             id="tspan70">that all the reused components are compatible with each other. Rather, it also reflects</tspan></text>
        <text
           xml:space="preserve"
           transform="translate(696,376)"
           style="font-variant:normal;font-weight:normal;font-size:20px;font-family:'Times New Roman';-inkscape-font-specification:TimesNewRomanPSMT;writing-mode:lr-tb;fill:#000000;fill-opacity:1;fill-rule:nonzero;stroke:none"
           id="text76"><tspan
             x="0 5 14 23 28 34 43 52 57 62 67 76 85 90 95 103 113 119 124 139 148 155 164 169 179 188 198 207 213 223 233 242 249 257 262 271 280 289 299 304 309 319 324 333 342 352 367 372 387 396 405 414 419 428 437 452 457 464 473 479 488 497 505 514 522 527 536 543 552 557 566 576 590 596 605 614 619 624 633 642"
             y="0"
             sodipodi:role="line"
             id="tspan74">the fact that software developers need to know when new releases are coming, and</tspan></text>
        <text
           xml:space="preserve"
           transform="translate(696,399)"
           style="font-variant:normal;font-weight:normal;font-size:20px;font-family:'Times New Roman';-inkscape-font-specification:TimesNewRomanPSMT;writing-mode:lr-tb;fill:#000000;fill-opacity:1;fill-rule:nonzero;stroke:none"
           id="text80"><tspan
             x="0 15 24 30 39 48 53 62 71 80 89 98 107 115 120 125 134 144 152 161 166 175 184 199 204 211 220 226 235 244 252 261 269 274 289 295 301 307 312 322 329 335 344 353"
             y="0"
             sodipodi:role="line"
             id="tspan78">which changes those new releases will bring.</tspan></text>
        <text
           xml:space="preserve"
           transform="translate(696,442)"
           style="font-variant:normal;font-weight:normal;font-size:20px;font-family:'Times New Roman';-inkscape-font-specification:TimesNewRomanPSMT;writing-mode:lr-tb;fill:#000000;fill-opacity:1;fill-rule:nonzero;stroke:none"
           id="text84"><tspan
             x="0 6 11 16 22 30 35 44 54 59 64 73 82 91 101 115 129 139 148 153 159 169 176 181 191 200 210 219 225 235 245 254 261 269 274 279 289 294 304 313 318 327 333 342 349 354 363 373 378 387 397 407 416 421 426 435 440 449 458 473 478 485 494 500 509 518 526 535 540 549 558 568 573 583 592 601 607 617 626 631 636 646 655 663 672"
             y="0"
             sodipodi:role="line"
             id="tspan82">It is not uncommon for developers to be alerted about a new release and decide, based</tspan></text>
        <text
           xml:space="preserve"
           transform="translate(696,465)"
           style="font-variant:normal;font-weight:normal;font-size:20px;font-family:'Times New Roman';-inkscape-font-specification:TimesNewRomanPSMT;writing-mode:lr-tb;fill:#000000;fill-opacity:1;fill-rule:nonzero;stroke:none"
           id="text88"><tspan
             x="0 10 19 24 29 38 47 52 61 70 79 88 97 106 114 119 133 142 152 161 166 172 181 186 191 200 209 214 219 226 235 241 250 259 267 276 281 286 291 301 306 315 325 334 339 345 354 363 372 377 382 392 397 406 414 423 428 433 442 451 456 466 472 482"
             y="0"
             sodipodi:role="line"
             id="tspan86">on the changes made in that release, to continue to use the old </tspan></text>
        <text
           xml:space="preserve"
           transform="translate(1183,465)"
           style="font-variant:normal;font-weight:normal;font-size:20px;font-family:'Times New Roman';-inkscape-font-specification:TimesNewRomanPSMT;writing-mode:lr-tb;fill:#000000;fill-opacity:1;fill-rule:nonzero;stroke:none"
           id="text92"><tspan
             x="0 7 16 22 31 40 48 57 62 68 77 85 90 99 108 118 123 128 140 149 158 165 174 180 190 197"
             y="0"
             sodipodi:role="line"
             id="tspan90">release instead. Therefore</tspan></text>
        <text
           xml:space="preserve"
           transform="translate(696,488)"
           style="font-variant:normal;font-weight:normal;font-size:20px;font-family:'Times New Roman';-inkscape-font-specification:TimesNewRomanPSMT;writing-mode:lr-tb;fill:#000000;fill-opacity:1;fill-rule:nonzero;stroke:none"
           id="text96"><tspan
             x="0 5 14 23 28 35 44 50 59 68 76 85 90 100 107 117 126 135 143 151 156 170 179 187 192 197 207 214 224 234 243 252 261 266 271 280 289 294 303 313 323 330 340 350 357 363 372 377 386 391 400 410 415 421 427 433 442 451 456 462 472 481 489 494 503 512 522 527 534 543 549 558 567 575"
             y="0"
             sodipodi:role="line"
             id="tspan94">the release process must produce the appropriate notifications and release</tspan></text>
        <text
           xml:space="preserve"
           transform="translate(696,511)"
           style="font-variant:normal;font-weight:normal;font-size:20px;font-family:'Times New Roman';-inkscape-font-specification:TimesNewRomanPSMT;writing-mode:lr-tb;fill:#000000;fill-opacity:1;fill-rule:nonzero;stroke:none"
           id="text100"><tspan
             x="0 10 20 29 38 52 61 70 75 84 89 95 105 114 119 127 137 142 147 156 165 170 175 184 192 201 208 216 221 230 239 248 253 267 276 285 294 299 305 314 320 330 337 351 360 370 375 385 394 403 409 417 423 433 442 450 455 464 474 484 493 498 503 518 527 536 545 550 559 568 578 583 598 607 616 621 630 639 646 651 656"
             y="0"
             sodipodi:role="line"
             id="tspan98">documentation so that users can make informed decisions about when and whether to</tspan></text>
        <text
           xml:space="preserve"
           transform="translate(696,534)"
           style="font-variant:normal;font-weight:normal;font-size:20px;font-family:'Times New Roman';-inkscape-font-specification:TimesNewRomanPSMT;writing-mode:lr-tb;fill:#000000;fill-opacity:1;fill-rule:nonzero;stroke:none"
           id="text104"><tspan
             x="0 6 15 20 29 38 45 54 59 68 73 78 87 96 101 110 119 134 139 146 155 161 170 179 187 196"
             y="0"
             sodipodi:role="line"
             id="tspan102">integrate the new release.</tspan></text>
        <text
           xml:space="preserve"
           transform="translate(696,577)"
           style="font-variant:normal;font-weight:normal;font-size:20px;font-family:'Times New Roman';-inkscape-font-specification:TimesNewRomanPSMT;writing-mode:lr-tb;fill:#000000;fill-opacity:1;fill-rule:nonzero;stroke:none"
           id="text108"><tspan
             x="0 11 18 28 42 47 56 61 69 79 85 90 105 114 121 130 135 145 154 162 168 177 186 191 200 209 219 224 233 240 249 258 264 269 278 287 292 301 308 317 322 332 342 348 357 362 367 377 383 388 398 404 413 427 432 437 442 451 457 465 470 480 487 493 502 511 517 527 533 542 547 561 570 579 588 596 601 606 615 624 629 634 639 648"
             y="0"
             sodipodi:role="line"
             id="tspan106">From a software design and architecture point of view, this principle means that the</tspan></text>
        <text
           xml:space="preserve"
           transform="translate(696,600)"
           style="font-variant:normal;font-weight:normal;font-size:20px;font-family:'Times New Roman';-inkscape-font-specification:TimesNewRomanPSMT;writing-mode:lr-tb;fill:#000000;fill-opacity:1;fill-rule:nonzero;stroke:none"
           id="text112"><tspan
             x="0 9 15 24 32 40 49 57 62 71 80 90 95 109 119 129 138 144 153 161 166 171 180 189 194 199 208 215 224 229 235 245 252 266 275 285 290 296 305 310 320 325 334 339 348 358 372 382 392 401 410 419 424 429 443 452 460 465 470 480 489 495 505 514 523 528 533 543 548 557 562 571 581 590 599 607 613 623 632 637 646 653 663 672 682"
             y="0"
             sodipodi:role="line"
             id="tspan110">classes and modules that are formed into a component must belong to a cohesive group.</tspan></text>
        <text
           xml:space="preserve"
           transform="translate(696,623)"
           style="font-variant:normal;font-weight:normal;font-size:20px;font-family:'Times New Roman';-inkscape-font-specification:TimesNewRomanPSMT;writing-mode:lr-tb;fill:#000000;fill-opacity:1;fill-rule:nonzero;stroke:none"
           id="text116"><tspan
             x="0 12 21 30 35 44 54 68 78 88 97 106 115 120 125 134 143 152 161 171 176 181 189 195 209 219 225 234 239 248 258 267 275 281 289 294 299 309 315 320 329 334 341 350 359 369 379 393 398 407 417 427 436 445 455 465 475 484 493 498 508 514 519 528 534 543 551 559 568 576 581 590 599 609 614 628 638 648 657 663 672 680"
             y="0"
             sodipodi:role="line"
             id="tspan114">The component cannot simply consist of a random hodgepodge of classes and modules;</tspan></text>
        <text
           xml:space="preserve"
           transform="translate(696,646)"
           style="font-variant:normal;font-weight:normal;font-size:20px;font-family:'Times New Roman';-inkscape-font-specification:TimesNewRomanPSMT;writing-mode:lr-tb;fill:#000000;fill-opacity:1;fill-rule:nonzero;stroke:none"
           id="text120"><tspan
             x="0 6 15 23 28 37 46 56 61 66 71 80 89 96 105 110 124 133 141 146 151 161 170 175 183 193 207 216 221 231 241 250 257 266 273 282 291 297 306 315 320 325 334 343 357 366 371 381 388 393 403 412 419 429 439 447 456 461 466 475 484 489 494 499 508 518 526 535 540 554 564 574 583 589 598 606 611 620 626 632 637 645 654 663 670 679"
             y="0"
             sodipodi:role="line"
             id="tspan118">instead, there must be some overarching theme or purpose that those modules all share.</tspan></text>
        <text
           xml:space="preserve"
           transform="translate(696,689)"
           style="font-variant:normal;font-weight:normal;font-size:20px;font-family:'Times New Roman';-inkscape-font-specification:TimesNewRomanPSMT;writing-mode:lr-tb;fill:#000000;fill-opacity:1;fill-rule:nonzero;stroke:none"
           id="text124"><tspan
             x="0 14 20 25 34 44 53 60 68 77 82 87 92 101 107 115 120 128 137 147 156 162 172 177 187 196 201 211 221 231 237 247 256 264 269 274 288 298 313 322 332 341 347 352 357 362 371 380 387 396 401 407 415 420 429 438 448 453 462 471 478 483 498 507 516 521 526 536 541 547 557 567 576 581 590 595 600 605 614 620 628 633 639 647 655 664"
             y="0"
             sodipodi:role="line"
             id="tspan122">Of course, this should be obvious. However, there is another way to look at this issue</tspan></text>
        <text
           xml:space="preserve"
           transform="translate(696,712)"
           style="font-variant:normal;font-weight:normal;font-size:20px;font-family:'Times New Roman';-inkscape-font-specification:TimesNewRomanPSMT;writing-mode:lr-tb;fill:#000000;fill-opacity:1;fill-rule:nonzero;stroke:none"
           id="text128"><tspan
             x="0 5 14 23 28 33 39 47 52 62 71 78 87 96 106 114 119 128 138 143 148 158 167 173 178 187 192 200 210 215 225 235 245 251 261 270 278 283 288 301 307 316 324 332 341 349 354 363 372 382 387 401 411 421 430 436 445 453 458 463 472 481 486 491 500 507 516 521 530 537 547 556 566 575 585 590 595 605 614 623 628 637 646 653 658 664 673 678"
             y="0"
             sodipodi:role="line"
             id="tspan126">that is perhaps not quite so obvious. Classes and modules that are grouped together into</tspan></text>
        <text
           xml:space="preserve"
           transform="translate(696,735)"
           style="font-variant:normal;font-weight:normal;font-size:20px;font-family:'Times New Roman';-inkscape-font-specification:TimesNewRomanPSMT;writing-mode:lr-tb;fill:#000000;fill-opacity:1;fill-rule:nonzero;stroke:none"
           id="text132"><tspan
             x="0 9 14 23 33 47 57 67 76 85 94 99 104 112 121 131 140 146 156 161 171 180"
             y="0"
             sodipodi:role="line"
             id="tspan130">a component should be </tspan></text>
        <text
           xml:space="preserve"
           transform="translate(881,735)"
           style="font-variant:normal;font-weight:normal;font-size:20px;font-family:'Times New Roman';-inkscape-font-specification:TimesNewRomanPSMT;writing-mode:lr-tb;fill:#000000;fill-opacity:1;fill-rule:nonzero;stroke:none"
           id="text136"><tspan
             x="0 7 16 22 31 40 48 57 67 73"
             y="0"
             sodipodi:role="line"
             id="tspan134">releasable</tspan></text>
        <text
           xml:space="preserve"
           transform="translate(968,735)"
           style="font-variant:normal;font-weight:normal;font-size:20px;font-family:'Times New Roman';-inkscape-font-specification:TimesNewRomanPSMT;writing-mode:lr-tb;fill:#000000;fill-opacity:1;fill-rule:nonzero;stroke:none"
           id="text140"><tspan
             x="0 5 15 24 33 38 47 56 62 67 72 84 93 102 107 113 122 131 136 141 146 155 164 169 174 179 188 197 206 211 219 228 237 244 253 258 263 272 281 286 294 303 317 326 331 341 350 357 365 371 381"
             y="0"
             sodipodi:role="line"
             id="tspan138">together. The fact that they share the same version</tspan></text>
        <text
           xml:space="preserve"
           transform="translate(696,758)"
           style="font-variant:normal;font-weight:normal;font-size:20px;font-family:'Times New Roman';-inkscape-font-specification:TimesNewRomanPSMT;writing-mode:lr-tb;fill:#000000;fill-opacity:1;fill-rule:nonzero;stroke:none"
           id="text144"><tspan
             x="0 9 18 32 42 51 58 63 72 81 91 96 101 110 119 124 132 141 155 164 169 176 185 191 200 209 217 226 231 236 243 252 261 270 276 285 294 299 304 313 322 332 337 346 353 362 367 373 382 391 397 406 416 425 435 440 449 458 468 477 484 489 494 503 512 517 525 534 548 557 562 569 578 584 593 602 610"
             y="0"
             sodipodi:role="line"
             id="tspan142">number and the same release tracking, and are included under the same release</tspan></text>
        <text
           xml:space="preserve"
           transform="translate(696,781)"
           style="font-variant:normal;font-weight:normal;font-size:20px;font-family:'Times New Roman';-inkscape-font-specification:TimesNewRomanPSMT;writing-mode:lr-tb;fill:#000000;fill-opacity:1;fill-rule:nonzero;stroke:none"
           id="text148"><tspan
             x="0 10 20 29 38 52 61 70 75 84 89 95 105 114 119 124 132 141 151 160 166 176 181 195 204 213 222 227 235 244 253 261 270 275 285 295 300 309 314 319 329 334 339 348 357 362 371 380 385 394 404 411 416 425 434 444 449 454 464 469 474 483 492 497 506 514 523 530 538"
             y="0"
             sodipodi:role="line"
             id="tspan146">documentation, should make sense both to the author and to the users.</tspan></text>
        <text
           xml:space="preserve"
           transform="translate(696,824)"
           style="font-variant:normal;font-weight:normal;font-size:20px;font-family:'Times New Roman';-inkscape-font-specification:TimesNewRomanPSMT;writing-mode:lr-tb;fill:#000000;fill-opacity:1;fill-rule:nonzero;stroke:none"
           id="text152"><tspan
             x="0 12 21 27 35 40 46 54 59 74 83 92 101 106 115 125 135 141 150 159 165 170 181 190 199 205 214 223 228 233 242 251 256 261 269 279 293 302 307 316 322 331 340 345 353 362 372 381 387 397 402 411 425 434 443 452 457 465 474 483 491 500 509 514 520 528 533 539 548 556 561 566 575 580 595 604 613 618 628"
             y="0"
             sodipodi:role="line"
             id="tspan150">This is weak advice: Saying that something should “make sense” is just a way of</tspan></text>
        <text
           xml:space="preserve"
           transform="translate(696,847)"
           style="font-variant:normal;font-weight:normal;font-size:20px;font-family:'Times New Roman';-inkscape-font-specification:TimesNewRomanPSMT;writing-mode:lr-tb;fill:#000000;fill-opacity:1;fill-rule:nonzero;stroke:none"
           id="text156"><tspan
             x="0 15 24 34 40 49 58 63 72 82 91 98 103 112 121 130 140 148 153 159 168 173 178 187 196 201 210 216 223 228 237 246 256 261 266 273 282 288 297 306 311 316 326 331 339 349 358 367 377 382 391 400 405 414 424 431 437 442 451 456 462 472 481 486 491 503 512 521 526 535 545 555 561 570 579 584 590 598 603 618 627 636"
             y="0"
             sodipodi:role="line"
             id="tspan154">waving your hands in the air and trying to sound authoritative. The advice is weak</tspan></text>
        <text
           xml:space="preserve"
           transform="translate(696,870)"
           style="font-variant:normal;font-weight:normal;font-size:20px;font-family:'Times New Roman';-inkscape-font-specification:TimesNewRomanPSMT;writing-mode:lr-tb;fill:#000000;fill-opacity:1;fill-rule:nonzero;stroke:none"
           id="text160"><tspan
             x="0 10 19 28 37 46 54 63 68 74 79 84 90 98 103 112 121 128 138 143 148 158 163 173 180 189 198 204 212 221 227 236 241 250 259 269 275 284 290 299 304 309 318 327 332 341 347 356 365 370 375 384 393 398 403 412 422 428 438 446 451 456 465 474 479 488 494 503 511 519 528 536 541 550 559 569 574 588 598 608 617 623 632"
             y="0"
             sodipodi:role="line"
             id="tspan158">because it is hard to precisely explain the glue that holds the classes and modules</tspan></text>
        <text
           xml:space="preserve"
           transform="translate(696,893)"
           style="font-variant:normal;font-weight:normal;font-size:20px;font-family:'Times New Roman';-inkscape-font-specification:TimesNewRomanPSMT;writing-mode:lr-tb;fill:#000000;fill-opacity:1;fill-rule:nonzero;stroke:none"
           id="text164"><tspan
             x="0 5 15 24 33 38 47 56 63 68 74 83 88 98 103 112 117 125 131 140 149 155 164 169 178 188 202 212 222 231 240 249 254 259 264 280 289 298 307 312 317 326 336 345 354 363 368 373 382 391 396 405 415 425 431 440 449 454 468 477 486 491 501 510 515 520 525 534 543 548 558 565 571 580 589 595 605 611 620 625 631 636 644 653 659 665 670 676"
             y="0"
             sodipodi:role="line"
             id="tspan162">together into a single component. Weak though the advice may be, the principle itself is</tspan></text>
        <text
           xml:space="preserve"
           transform="translate(696,916)"
           style="font-variant:normal;font-weight:normal;font-size:20px;font-family:'Times New Roman';-inkscape-font-specification:TimesNewRomanPSMT;writing-mode:lr-tb;fill:#000000;fill-opacity:1;fill-rule:nonzero;stroke:none"
           id="text168"><tspan
             x="0 6 20 30 40 47 52 61 70 75 80 85 95 104 113 122 131 139 148 153 163 169 179 185 194 199 205 215 224 232 237 246 253 262 267 276 285 293 302 307 312 322 327 337 346 351 360 369 374 394 399 408 417 426 431 441 451 460 467 472 477 486 500 509 518 527 532 540 549 558 566 575 580 589 594 600 606 611 620 630"
             y="0"
             sodipodi:role="line"
             id="tspan166">important, because violations are easy to detect—they don’t “make sense.” If you</tspan></text>
        <text
           xml:space="preserve"
           transform="translate(696,939)"
           style="font-variant:normal;font-weight:normal;font-size:20px;font-family:'Times New Roman';-inkscape-font-specification:TimesNewRomanPSMT;writing-mode:lr-tb;fill:#000000;fill-opacity:1;fill-rule:nonzero;stroke:none"
           id="text172"><tspan
             x="0 10 16 26 32 41 46 55 60 65 74 83 88 101 113 122 127 132 141 151 160 167 172 181 189 198 205 213 218 233 239 245 251 256 265 274 284 298 303 308 317 326 336 341 346 355 364 373 378 393 403 412 419 424 429 439 448 453 459 473 483 490 499 507 515 524 534 539 554 560 565 574 579 588 598 607"
             y="0"
             sodipodi:role="line"
             id="tspan170">violate the REP, your users will know, and they won’t be impressed with your</tspan></text>
        <text
           xml:space="preserve"
           transform="translate(696,962)"
           style="font-variant:normal;font-weight:normal;font-size:20px;font-family:'Times New Roman';-inkscape-font-specification:TimesNewRomanPSMT;writing-mode:lr-tb;fill:#000000;fill-opacity:1;fill-rule:nonzero;stroke:none"
           id="text176"><tspan
             x="0 9 16 25 34 40 45 54 63 68 77 84 93 99 104 112 121 127 133 139 147"
             y="0"
             sodipodi:role="line"
             id="tspan174">architectural skills.</tspan></text>
      </g>
    </g>
  </g>
</svg>
