<?xml version="1.0" encoding="UTF-8" standalone="no"?>
<!-- Created with Inkscape (http://www.inkscape.org/) -->

<svg
   version="1.1"
   id="svg2"
   width="816"
   height="1056"
   viewBox="0 0 816 1056"
   sodipodi:docname="clean_arch.pdf"
   xmlns:inkscape="http://www.inkscape.org/namespaces/inkscape"
   xmlns:sodipodi="http://sodipodi.sourceforge.net/DTD/sodipodi-0.dtd"
   xmlns="http://www.w3.org/2000/svg"
   xmlns:svg="http://www.w3.org/2000/svg">
  <defs
     id="defs6">
    <clipPath
       clipPathUnits="userSpaceOnUse"
       id="clipPath18">
      <path
         d="m 2784,0 h 696 V 1056 H 2784 V 0"
         clip-rule="evenodd"
         id="path16" />
    </clipPath>
    <clipPath
       clipPathUnits="userSpaceOnUse"
       id="clipPath28">
      <path
         d="m 2784,66 h 696 V 996 H 2784 V 66"
         clip-rule="evenodd"
         id="path26" />
    </clipPath>
  </defs>
  <sodipodi:namedview
     id="namedview4"
     pagecolor="#ffffff"
     bordercolor="#000000"
     borderopacity="0.25"
     inkscape:showpageshadow="2"
     inkscape:pageopacity="0.0"
     inkscape:pagecheckerboard="0"
     inkscape:deskcolor="#d1d1d1" />
  <g
     id="g8"
     inkscape:groupmode="layer"
     inkscape:label="clean_arch"
     transform="translate(59.999999,2.64e-5)">
    <g
       id="g10" />
    <g
       id="g12"
       transform="translate(-2784)">
      <g
         id="g14"
         clip-path="url(#clipPath18)">
        <g
           id="g20" />
      </g>
    </g>
    <g
       id="g22"
       transform="translate(-2784)">
      <g
         id="g24"
         clip-path="url(#clipPath28)">
        <text
           xml:space="preserve"
           transform="translate(2784,83)"
           style="font-variant:normal;font-weight:normal;font-size:20px;font-family:'Times New Roman';-inkscape-font-specification:TimesNewRomanPSMT;writing-mode:lr-tb;fill:#000000;fill-opacity:1;fill-rule:nonzero;stroke:none"
           id="text32"><tspan
             x="0 14 20 25 34 44 53 60 68 77 82 87 93 103 110 124 133 139 144 149 161 170 179 185 191 201 207 216 225 230 238 243 252 258 267 272 277 291 300 305 314 323 337 346 351 357 366 375 381 386 396 403 413 423 429 437 442 451 458 467 472 481 491 496 501 506 515 524 529 539 548 554 563 568 576 581 588 597 602 611 620 629 634 640 650"
             y="0"
             sodipodi:role="line"
             id="tspan30">Of course, formal, Euclidian style, mathematical proofs are not the only strategy for</tspan></text>
        <text
           xml:space="preserve"
           transform="translate(2784,106)"
           style="font-variant:normal;font-weight:normal;font-size:20px;font-family:'Times New Roman';-inkscape-font-specification:TimesNewRomanPSMT;writing-mode:lr-tb;fill:#000000;fill-opacity:1;fill-rule:nonzero;stroke:none"
           id="text36"><tspan
             x="0 10 17 27 37 43 52 61 66 74 84 98 107 112 121 127 136 145 150 159 169 176 183 192 201 206 211 216 230 239 249 254 263 272 279 284 293 299 308 317 323 332 337 345 354 363 372 381 389 397 403 412 418 423 431 436 443 452 457 466 475 484 489 495 503 508 513 522 531"
             y="0"
             sodipodi:role="line"
             id="tspan34">proving something correct. Another highly successful strategy is the </tspan></text>
        <text
           xml:space="preserve"
           transform="translate(3320,106)"
           style="font-variant:normal;font-weight:normal;font-size:20px;font-family:'Times New Roman';-inkscape-font-specification:TimesNewRomanPSMT;writing-mode:lr-tb;fill:#000000;fill-opacity:1;fill-rule:nonzero;stroke:none"
           id="text40"><tspan
             x="0 8 17 23 32 41 46 52 58 64 73 78 92 101 106 115 125"
             y="0"
             sodipodi:role="line"
             id="tspan38">scientific method</tspan></text>
        <text
           xml:space="preserve"
           transform="translate(3455,106)"
           style="font-variant:normal;font-weight:normal;font-size:20px;font-family:'Times New Roman';-inkscape-font-specification:TimesNewRomanPSMT;writing-mode:lr-tb;fill:#000000;fill-opacity:1;fill-rule:nonzero;stroke:none"
           id="text44"><tspan
             x="0"
             y="0"
             id="tspan42">.</tspan></text>
        <text
           xml:space="preserve"
           transform="translate(2784,176)"
           style="font-variant:normal;font-weight:bold;font-size:33px;font-family:'Times New Roman';-inkscape-font-specification:TimesNewRomanPS-BoldMT;writing-mode:lr-tb;fill:#000000;fill-opacity:1;fill-rule:nonzero;stroke:none"
           id="text48"><tspan
             x="0"
             y="0"
             id="tspan46">S</tspan></text>
        <text
           xml:space="preserve"
           transform="translate(2802,176)"
           style="font-variant:normal;font-weight:bold;font-size:33px;font-family:'Times New Roman';-inkscape-font-specification:TimesNewRomanPS-BoldMT;writing-mode:lr-tb;fill:#000000;fill-opacity:1;fill-rule:nonzero;stroke:none"
           id="text52"><tspan
             x="0 24 37 59 83 107 129 137 158 184 192 214 240"
             y="0"
             sodipodi:role="line"
             id="tspan50">CIENCE TO THE</tspan></text>
        <text
           xml:space="preserve"
           transform="translate(3072,176)"
           style="font-variant:normal;font-weight:bold;font-size:33px;font-family:'Times New Roman';-inkscape-font-specification:TimesNewRomanPS-BoldMT;writing-mode:lr-tb;fill:#000000;fill-opacity:1;fill-rule:nonzero;stroke:none"
           id="text56"><tspan
             x="0"
             y="0"
             id="tspan54">R</tspan></text>
        <text
           xml:space="preserve"
           transform="translate(3096,176)"
           style="font-variant:normal;font-weight:bold;font-size:33px;font-family:'Times New Roman';-inkscape-font-specification:TimesNewRomanPS-BoldMT;writing-mode:lr-tb;fill:#000000;fill-opacity:1;fill-rule:nonzero;stroke:none"
           id="text60"><tspan
             x="0 22 40 64 88"
             y="0"
             sodipodi:role="line"
             id="tspan58">ESCUE</tspan></text>
        <text
           xml:space="preserve"
           transform="translate(2784,221)"
           style="font-variant:normal;font-weight:normal;font-size:20px;font-family:'Times New Roman';-inkscape-font-specification:TimesNewRomanPSMT;writing-mode:lr-tb;fill:#000000;fill-opacity:1;fill-rule:nonzero;stroke:none"
           id="text64"><tspan
             x="0 11 20 26 35 44 53 62 67 73 81 86 92 101 110 120 129 143 152 161 166 175 181 187 196 201 211 217 223 229 238 245 254 263 268 273 279 286 296 310 315 329 338 343 352 361 375 384 389 395 404 412 417 422 428 437 442 447 456 465 470 475 483 492 498 507 516 521 527 533 539 548 553 558 567 576 586 593 599 608 616 621 630 639 649 654 660 669 684"
             y="0"
             sodipodi:role="line"
             id="tspan62">Science is fundamentally different from mathematics, in that scientific theories and laws</tspan></text>
        <text
           xml:space="preserve"
           transform="translate(2784,244)"
           style="font-variant:normal;font-weight:normal;font-size:20px;font-family:'Times New Roman';-inkscape-font-specification:TimesNewRomanPSMT;writing-mode:lr-tb;fill:#000000;fill-opacity:1;fill-rule:nonzero;stroke:none"
           id="text68"><tspan
             x="0 9 18 27 36 46 51 56 66 75 80 90 97 107 117 126 135 140 149 159 166 173 182 191 196 201 206 212 217 226 235 244 253 263 268 273 283 290 300 310 319 324 329 339 344 353 363 372 377 382 391 400 405 410 424 433 448 453 463 472 478 486 491 499 508 517 527 536 546 551 557 566 581 586 596 602 607 621 631 636 642 652 661 666"
             y="0"
             sodipodi:role="line"
             id="tspan66">cannot be proven correct. I cannot prove to you that Newton’s second law of motion, </tspan></text>
        <text
           xml:space="preserve"
           transform="translate(3455,244)"
           style="font-variant:normal;font-weight:normal;font-size:20px;font-family:'Times New Roman';-inkscape-font-specification:TimesNewRomanPSMT;writing-mode:lr-tb;fill:#000000;fill-opacity:1;fill-rule:nonzero;stroke:none"
           id="text72"><tspan
             x="0"
             y="0"
             id="tspan70">F</tspan></text>
        <text
           xml:space="preserve"
           transform="translate(2784,270)"
           style="font-variant:normal;font-weight:normal;font-size:20px;font-family:'Times New Roman';-inkscape-font-specification:TimesNewRomanPSMT;writing-mode:lr-tb;fill:#000000;fill-opacity:1;fill-rule:nonzero;stroke:none"
           id="text76"><tspan
             x="0 11"
             y="0"
             sodipodi:role="line"
             id="tspan74">= </tspan></text>
        <text
           xml:space="preserve"
           transform="translate(2800,270)"
           style="font-variant:normal;font-weight:normal;font-size:20px;font-family:'Times New Roman';-inkscape-font-specification:TimesNewRomanPSMT;writing-mode:lr-tb;fill:#000000;fill-opacity:1;fill-rule:nonzero;stroke:none"
           id="text80"><tspan
             x="0 14"
             y="0"
             sodipodi:role="line"
             id="tspan78">ma</tspan></text>
        <text
           xml:space="preserve"
           transform="translate(2823,270)"
           style="font-variant:normal;font-weight:normal;font-size:20px;font-family:'Times New Roman';-inkscape-font-specification:TimesNewRomanPSMT;writing-mode:lr-tb;fill:#000000;fill-opacity:1;fill-rule:nonzero;stroke:none"
           id="text84"><tspan
             x="0 5 10 20 27 32 38 47 62 67 77 83 88 97 104 113 123 129 134 142 147"
             y="0"
             sodipodi:role="line"
             id="tspan82">, or law of gravity, </tspan></text>
        <text
           xml:space="preserve"
           transform="translate(2975,270)"
           style="font-variant:normal;font-weight:normal;font-size:20px;font-family:'Times New Roman';-inkscape-font-specification:TimesNewRomanPSMT;writing-mode:lr-tb;fill:#000000;fill-opacity:1;fill-rule:nonzero;stroke:none"
           id="text88"><tspan
             x="0"
             y="0"
             id="tspan86">F</tspan></text>
        <text
           xml:space="preserve"
           transform="translate(2991,270)"
           style="font-variant:normal;font-weight:normal;font-size:20px;font-family:'Times New Roman';-inkscape-font-specification:TimesNewRomanPSMT;writing-mode:lr-tb;fill:#000000;fill-opacity:1;fill-rule:nonzero;stroke:none"
           id="text92"><tspan
             x="0 11"
             y="0"
             sodipodi:role="line"
             id="tspan90">= </tspan></text>
        <text
           xml:space="preserve"
           transform="translate(3007,270)"
           style="font-variant:normal;font-weight:normal;font-size:20px;font-family:'Times New Roman';-inkscape-font-specification:TimesNewRomanPSMT;writing-mode:lr-tb;fill:#000000;fill-opacity:1;fill-rule:nonzero;stroke:none"
           id="text96"><tspan
             x="0 14"
             y="0"
             sodipodi:role="line"
             id="tspan94">Gm</tspan></text>
        <text
           xml:space="preserve"
           transform="translate(3035,275)"
           style="font-variant:normal;font-weight:normal;font-size:15px;font-family:'Times New Roman';-inkscape-font-specification:TimesNewRomanPSMT;writing-mode:lr-tb;fill:#000000;fill-opacity:1;fill-rule:nonzero;stroke:none"
           id="text100"><tspan
             x="0"
             y="0"
             id="tspan98">1</tspan></text>
        <text
           xml:space="preserve"
           transform="translate(3042,270)"
           style="font-variant:normal;font-weight:normal;font-size:20px;font-family:'Times New Roman';-inkscape-font-specification:TimesNewRomanPSMT;writing-mode:lr-tb;fill:#000000;fill-opacity:1;fill-rule:nonzero;stroke:none"
           id="text104"><tspan
             x="0"
             y="0"
             id="tspan102">m</tspan></text>
        <text
           xml:space="preserve"
           transform="translate(3056,275)"
           style="font-variant:normal;font-weight:normal;font-size:15px;font-family:'Times New Roman';-inkscape-font-specification:TimesNewRomanPSMT;writing-mode:lr-tb;fill:#000000;fill-opacity:1;fill-rule:nonzero;stroke:none"
           id="text108"><tspan
             x="0"
             y="0"
             id="tspan106">2</tspan></text>
        <text
           xml:space="preserve"
           transform="translate(3063,270)"
           style="font-variant:normal;font-weight:normal;font-size:20px;font-family:'Times New Roman';-inkscape-font-specification:TimesNewRomanPSMT;writing-mode:lr-tb;fill:#000000;fill-opacity:1;fill-rule:nonzero;stroke:none"
           id="text112"><tspan
             x="0"
             y="0"
             id="tspan110">/</tspan></text>
        <text
           xml:space="preserve"
           transform="translate(3069,270)"
           style="font-variant:normal;font-weight:normal;font-size:20px;font-family:'Times New Roman';-inkscape-font-specification:TimesNewRomanPSMT;writing-mode:lr-tb;fill:#000000;fill-opacity:1;fill-rule:nonzero;stroke:none"
           id="text116"><tspan
             x="0"
             y="0"
             id="tspan114">r</tspan></text>
        <text
           xml:space="preserve"
           transform="translate(3076,263)"
           style="font-variant:normal;font-weight:normal;font-size:15px;font-family:'Times New Roman';-inkscape-font-specification:TimesNewRomanPSMT;writing-mode:lr-tb;fill:#000000;fill-opacity:1;fill-rule:nonzero;stroke:none"
           id="text120"><tspan
             x="0 7"
             y="0"
             sodipodi:role="line"
             id="tspan118">2,</tspan></text>
        <text
           xml:space="preserve"
           transform="translate(3091,270)"
           style="font-variant:normal;font-weight:normal;font-size:20px;font-family:'Times New Roman';-inkscape-font-specification:TimesNewRomanPSMT;writing-mode:lr-tb;fill:#000000;fill-opacity:1;fill-rule:nonzero;stroke:none"
           id="text124"><tspan
             x="0 9 16 25 30 39 49 56 63 72 81 86 91 96 102 107 116 125 134 139 149 158 172 182 191 199 204 211 220 225 234 239 244 253 262 270 279 284 290 299 314 322 327 332 342 347 356 366 375"
             y="0"
             sodipodi:role="line"
             id="tspan122">are correct. I can demonstrate these laws to you,</tspan></text>
        <text
           xml:space="preserve"
           transform="translate(2784,297)"
           style="font-variant:normal;font-weight:normal;font-size:20px;font-family:'Times New Roman';-inkscape-font-specification:TimesNewRomanPSMT;writing-mode:lr-tb;fill:#000000;fill-opacity:1;fill-rule:nonzero;stroke:none"
           id="text128"><tspan
             x="0 9 18 28 33 39 44 53 62 71 76 90 99 108 117 122 136 145 154 162 171 178 187 201 210 219 224 232 237 242 251 260 265 270 278 287 297 312 317 322 331 340 354 359 368 378 385 392 401 410 415 420 425 435 440 454 463 472 481 486 496 505 514 520 534 543 549 554 564 570 579 588 597 605 610 615 625 634 639 644"
             y="0"
             sodipodi:role="line"
             id="tspan126">and I can make measurements that show them correct to many decimal places, but I</tspan></text>
        <text
           xml:space="preserve"
           transform="translate(2784,320)"
           style="font-variant:normal;font-weight:normal;font-size:20px;font-family:'Times New Roman';-inkscape-font-specification:TimesNewRomanPSMT;writing-mode:lr-tb;fill:#000000;fill-opacity:1;fill-rule:nonzero;stroke:none"
           id="text132"><tspan
             x="0 9 18 27 36 46 51 56 66 73 83 93 102 107 112 121 130 144 149 155 164 169 174 183 192 197 205 214 223 231 240 245 255 261 266 275 280 294 303 308 317 326 340 349 354 360 369 378 384 389 399 406 416 426 432 437 442 456 466 471 485 494 499 504 513 520 525 534 544 559 564 578 587 596"
             y="0"
             sodipodi:role="line"
             id="tspan130">cannot prove them in the sense of a mathematical proof. No matter how many</tspan></text>
        <text
           xml:space="preserve"
           transform="translate(2784,343)"
           style="font-variant:normal;font-weight:normal;font-size:20px;font-family:'Times New Roman';-inkscape-font-specification:TimesNewRomanPSMT;writing-mode:lr-tb;fill:#000000;fill-opacity:1;fill-rule:nonzero;stroke:none"
           id="text136"><tspan
             x="0 9 18 28 37 44 50 64 73 82 87 95 100 106 111 120 130 139 149 158 167 172 177 187 194 199 208 218 233 238 252 261 270 279 284 293 307 317 323 330 336 345 354 360 365 374 384 390 400 409 418 427 436 441 447 452 461 470 475 484 493 499 504 509 514 523 532 539 548 553 559 567 572 581 587 602 611 620 628 633 638 647"
             y="0"
             sodipodi:role="line"
             id="tspan134">experiments I conduct or how much empirical evidence I gather, there is always the</tspan></text>
        <text
           xml:space="preserve"
           transform="translate(2784,366)"
           style="font-variant:normal;font-weight:normal;font-size:20px;font-family:'Times New Roman';-inkscape-font-specification:TimesNewRomanPSMT;writing-mode:lr-tb;fill:#000000;fill-opacity:1;fill-rule:nonzero;stroke:none"
           id="text140"><tspan
             x="0 9 18 27 36 45 54 59 64 73 82 87 92 100 110 124 133 138 147 156 166 175 182 188 202 211 220 225 230 245 251 257 263 268 276 285 295 310 315 320 329 338 343 348 353 362 372 380 389 394 400 409 424 432 437 447 453 458 472 482 487 493 503 512 517 526 535 545 550 559 566 575 585 591 596 605 610 619 626"
             y="0"
             sodipodi:role="line"
             id="tspan138">chance that some experiment will show that those laws of motion and gravity are</tspan></text>
        <text
           xml:space="preserve"
           transform="translate(2784,389)"
           style="font-variant:normal;font-weight:normal;font-size:20px;font-family:'Times New Roman';-inkscape-font-specification:TimesNewRomanPSMT;writing-mode:lr-tb;fill:#000000;fill-opacity:1;fill-rule:nonzero;stroke:none"
           id="text144"><tspan
             x="0 6 15 24 34 41 48 57 66 71"
             y="0"
             sodipodi:role="line"
             id="tspan142">incorrect.</tspan></text>
        <text
           xml:space="preserve"
           transform="translate(2784,432)"
           style="font-variant:normal;font-weight:normal;font-size:20px;font-family:'Times New Roman';-inkscape-font-specification:TimesNewRomanPSMT;writing-mode:lr-tb;fill:#000000;fill-opacity:1;fill-rule:nonzero;stroke:none"
           id="text148"><tspan
             x="0 12 21 30 35 40 46 54 59 64 73 82 87 96 105 110 119 126 135 140 150 156 161 169 178 184 193 202 207 213 219 225 234 239 244 253 262 272 279 285 294 302 307 316 325 335 340 346 355 370 378 384 389 401 410 419 428 433 442 449 458"
             y="0"
             sodipodi:role="line"
             id="tspan146">That is the nature of scientific theories and laws: They are </tspan></text>
        <text
           xml:space="preserve"
           transform="translate(3247,432)"
           style="font-variant:normal;font-weight:normal;font-size:20px;font-family:'Times New Roman';-inkscape-font-specification:TimesNewRomanPSMT;writing-mode:lr-tb;fill:#000000;fill-opacity:1;fill-rule:nonzero;stroke:none"
           id="text152"><tspan
             x="0 6 15 21 29 35 41 47 56 66 72"
             y="0"
             sodipodi:role="line"
             id="tspan150">falsifiable</tspan></text>
        <text
           xml:space="preserve"
           transform="translate(3333,432)"
           style="font-variant:normal;font-weight:normal;font-size:20px;font-family:'Times New Roman';-inkscape-font-specification:TimesNewRomanPSMT;writing-mode:lr-tb;fill:#000000;fill-opacity:1;fill-rule:nonzero;stroke:none"
           id="text156"><tspan
             x="0 10 19 24 29 38 48 53 58 68 75 85 95 104 114 120 129"
             y="0"
             sodipodi:role="line"
             id="tspan154">but not provable.</tspan></text>
        <text
           xml:space="preserve"
           transform="translate(2784,475)"
           style="font-variant:normal;font-weight:normal;font-size:20px;font-family:'Times New Roman';-inkscape-font-specification:TimesNewRomanPSMT;writing-mode:lr-tb;fill:#000000;fill-opacity:1;fill-rule:nonzero;stroke:none"
           id="text160"><tspan
             x="0 14 23 33 38 47 56 61 66 81 90 95 105 114 119 124 134 143 150 155 161 167 177 186 194 199 209 218 223 228 237 246 254 263 268 274 283 298 306 311 320 330 339 346 355 360 370 379 387 392 397 409 419 428 435 444 449 454 460 474 483 488 497 507 516 521 530 539 544 549 555 564 569 579 584 593 598 607 616 622 627 632 641 651 660 665 675 684"
             y="0"
             sodipodi:role="line"
             id="tspan158">And yet we bet our lives on these laws every day. Every time you get into a car, you bet</tspan></text>
        <text
           xml:space="preserve"
           transform="translate(2784,498)"
           style="font-variant:normal;font-weight:normal;font-size:20px;font-family:'Times New Roman';-inkscape-font-specification:TimesNewRomanPSMT;writing-mode:lr-tb;fill:#000000;fill-opacity:1;fill-rule:nonzero;stroke:none"
           id="text164"><tspan
             x="0 9 19 28 35 40 46 52 58 67 72 77 86 95 100"
             y="0"
             sodipodi:role="line"
             id="tspan162">your life that </tspan></text>
        <text
           xml:space="preserve"
           transform="translate(2889,498)"
           style="font-variant:normal;font-weight:normal;font-size:20px;font-family:'Times New Roman';-inkscape-font-specification:TimesNewRomanPSMT;writing-mode:lr-tb;fill:#000000;fill-opacity:1;fill-rule:nonzero;stroke:none"
           id="text168"><tspan
             x="0"
             y="0"
             id="tspan166">F</tspan></text>
        <text
           xml:space="preserve"
           transform="translate(2905,498)"
           style="font-variant:normal;font-weight:normal;font-size:20px;font-family:'Times New Roman';-inkscape-font-specification:TimesNewRomanPSMT;writing-mode:lr-tb;fill:#000000;fill-opacity:1;fill-rule:nonzero;stroke:none"
           id="text172"><tspan
             x="0 11"
             y="0"
             sodipodi:role="line"
             id="tspan170">= </tspan></text>
        <text
           xml:space="preserve"
           transform="translate(2921,498)"
           style="font-variant:normal;font-weight:normal;font-size:20px;font-family:'Times New Roman';-inkscape-font-specification:TimesNewRomanPSMT;writing-mode:lr-tb;fill:#000000;fill-opacity:1;fill-rule:nonzero;stroke:none"
           id="text176"><tspan
             x="0 14"
             y="0"
             sodipodi:role="line"
             id="tspan174">ma</tspan></text>
        <text
           xml:space="preserve"
           transform="translate(2949,498)"
           style="font-variant:normal;font-weight:normal;font-size:20px;font-family:'Times New Roman';-inkscape-font-specification:TimesNewRomanPSMT;writing-mode:lr-tb;fill:#000000;fill-opacity:1;fill-rule:nonzero;stroke:none"
           id="text180"><tspan
             x="0 6 14 19 28 33 40 49 55 61 70 80 86 95 100 110 119 127 136 143 149 159 164 170 180 189 194 204 210 215 220 229 238 243 258 267 276 281 286 295 304 309 324 334 341 347 357 362 377 387 394 403 411 416 421 433 443 452 459 468 473 478 484 498"
             y="0"
             sodipodi:role="line"
             id="tspan178">is a reliable description of the way the world works. Every time</tspan></text>
        <text
           xml:space="preserve"
           transform="translate(2784,524)"
           style="font-variant:normal;font-weight:normal;font-size:20px;font-family:'Times New Roman';-inkscape-font-specification:TimesNewRomanPSMT;writing-mode:lr-tb;fill:#000000;fill-opacity:1;fill-rule:nonzero;stroke:none"
           id="text184"><tspan
             x="0 9 19 28 33 38 47 56 65 70 79 84 92 97 106 116 121 126 135 145 154 159 169 178 183 188 197 207 216 223 228 237 246 255 261 266 275 280 289 298 308 313 321 330 336 345 350 359 364 369 378 387 392"
             y="0"
             sodipodi:role="line"
             id="tspan182">you take a step, you bet your health and safety that </tspan></text>
        <text
           xml:space="preserve"
           transform="translate(3181,524)"
           style="font-variant:normal;font-weight:normal;font-size:20px;font-family:'Times New Roman';-inkscape-font-specification:TimesNewRomanPSMT;writing-mode:lr-tb;fill:#000000;fill-opacity:1;fill-rule:nonzero;stroke:none"
           id="text188"><tspan
             x="0"
             y="0"
             id="tspan186">F</tspan></text>
        <text
           xml:space="preserve"
           transform="translate(3197,524)"
           style="font-variant:normal;font-weight:normal;font-size:20px;font-family:'Times New Roman';-inkscape-font-specification:TimesNewRomanPSMT;writing-mode:lr-tb;fill:#000000;fill-opacity:1;fill-rule:nonzero;stroke:none"
           id="text192"><tspan
             x="0 11"
             y="0"
             sodipodi:role="line"
             id="tspan190">= </tspan></text>
        <text
           xml:space="preserve"
           transform="translate(3213,524)"
           style="font-variant:normal;font-weight:normal;font-size:20px;font-family:'Times New Roman';-inkscape-font-specification:TimesNewRomanPSMT;writing-mode:lr-tb;fill:#000000;fill-opacity:1;fill-rule:nonzero;stroke:none"
           id="text196"><tspan
             x="0 14"
             y="0"
             sodipodi:role="line"
             id="tspan194">Gm</tspan></text>
        <text
           xml:space="preserve"
           transform="translate(3241,529)"
           style="font-variant:normal;font-weight:normal;font-size:15px;font-family:'Times New Roman';-inkscape-font-specification:TimesNewRomanPSMT;writing-mode:lr-tb;fill:#000000;fill-opacity:1;fill-rule:nonzero;stroke:none"
           id="text200"><tspan
             x="0"
             y="0"
             id="tspan198">1</tspan></text>
        <text
           xml:space="preserve"
           transform="translate(3248,524)"
           style="font-variant:normal;font-weight:normal;font-size:20px;font-family:'Times New Roman';-inkscape-font-specification:TimesNewRomanPSMT;writing-mode:lr-tb;fill:#000000;fill-opacity:1;fill-rule:nonzero;stroke:none"
           id="text204"><tspan
             x="0"
             y="0"
             id="tspan202">m</tspan></text>
        <text
           xml:space="preserve"
           transform="translate(3262,529)"
           style="font-variant:normal;font-weight:normal;font-size:15px;font-family:'Times New Roman';-inkscape-font-specification:TimesNewRomanPSMT;writing-mode:lr-tb;fill:#000000;fill-opacity:1;fill-rule:nonzero;stroke:none"
           id="text208"><tspan
             x="0"
             y="0"
             id="tspan206">2</tspan></text>
        <text
           xml:space="preserve"
           transform="translate(3269,524)"
           style="font-variant:normal;font-weight:normal;font-size:20px;font-family:'Times New Roman';-inkscape-font-specification:TimesNewRomanPSMT;writing-mode:lr-tb;fill:#000000;fill-opacity:1;fill-rule:nonzero;stroke:none"
           id="text212"><tspan
             x="0"
             y="0"
             id="tspan210">/</tspan></text>
        <text
           xml:space="preserve"
           transform="translate(3275,524)"
           style="font-variant:normal;font-weight:normal;font-size:20px;font-family:'Times New Roman';-inkscape-font-specification:TimesNewRomanPSMT;writing-mode:lr-tb;fill:#000000;fill-opacity:1;fill-rule:nonzero;stroke:none"
           id="text216"><tspan
             x="0"
             y="0"
             id="tspan214">r</tspan></text>
        <text
           xml:space="preserve"
           transform="translate(3282,517)"
           style="font-variant:normal;font-weight:normal;font-size:15px;font-family:'Times New Roman';-inkscape-font-specification:TimesNewRomanPSMT;writing-mode:lr-tb;fill:#000000;fill-opacity:1;fill-rule:nonzero;stroke:none"
           id="text220"><tspan
             x="0"
             y="0"
             id="tspan218">2</tspan></text>
        <text
           xml:space="preserve"
           transform="translate(3294,524)"
           style="font-variant:normal;font-weight:normal;font-size:20px;font-family:'Times New Roman';-inkscape-font-specification:TimesNewRomanPSMT;writing-mode:lr-tb;fill:#000000;fill-opacity:1;fill-rule:nonzero;stroke:none"
           id="text224"><tspan
             x="0 6 14 19 28 38 45 52 61 70 75"
             y="0"
             sodipodi:role="line"
             id="tspan222">is correct.</tspan></text>
        <text
           xml:space="preserve"
           transform="translate(2784,571)"
           style="font-variant:normal;font-weight:normal;font-size:20px;font-family:'Times New Roman';-inkscape-font-specification:TimesNewRomanPSMT;writing-mode:lr-tb;fill:#000000;fill-opacity:1;fill-rule:nonzero;stroke:none"
           id="text228"><tspan
             x="0 11 20 26 35 44 53 62 67 77 87 96 104 109 118 128 133 138 153 163 170 179 184 194 203 208 218 225 235 245 251 260 269 274 282 287 296 301 310 324 333 342 347 355 360 365 372 381 390 395 400 410 419 424 429 436 445 450 459 468 475 480 490 499"
             y="0"
             sodipodi:role="line"
             id="tspan226">Science does not work by proving statements true, but rather by </tspan></text>
        <text
           xml:space="preserve"
           transform="translate(3288,571)"
           style="font-variant:normal;font-weight:normal;font-size:20px;font-family:'Times New Roman';-inkscape-font-specification:TimesNewRomanPSMT;writing-mode:lr-tb;fill:#000000;fill-opacity:1;fill-rule:nonzero;stroke:none"
           id="text232"><tspan
             x="0 10 17 27 37 43 52 61 66 74 79 88 93 102 116 125 134 139"
             y="0"
             sodipodi:role="line"
             id="tspan230">proving statements</tspan></text>
        <text
           xml:space="preserve"
           transform="translate(2784,594)"
           style="font-variant:normal;font-weight:normal;font-size:20px;font-family:'Times New Roman';-inkscape-font-specification:TimesNewRomanPSMT;writing-mode:lr-tb;fill:#000000;fill-opacity:1;fill-rule:nonzero;stroke:none"
           id="text236"><tspan
             x="0 6 15 21 29"
             y="0"
             sodipodi:role="line"
             id="tspan234">false</tspan></text>
        <text
           xml:space="preserve"
           transform="translate(2822,594)"
           style="font-variant:normal;font-weight:normal;font-size:20px;font-family:'Times New Roman';-inkscape-font-specification:TimesNewRomanPSMT;writing-mode:lr-tb;fill:#000000;fill-opacity:1;fill-rule:nonzero;stroke:none"
           id="text240"><tspan
             x="0 5 10 22 31 41 49 58 63 71 76 85 90 99 113 122 131 136 144 149 154 163 172 177 182 197 206 211 220 229 238 247 257 262 267 277 284 294 304 313 318 324 333 339 347 356 361 366 375 381 386 395 402 407 421 430 439 448 453 462 468 474 484 491 496 501 506 521 530 535 545 554 563 577 582 587 597 602 612 621 626 631 638 647"
             y="0"
             sodipodi:role="line"
             id="tspan238">. Those statements that we cannot prove false, after much effort, we deem to be true</tspan></text>
        <text
           xml:space="preserve"
           transform="translate(2784,617)"
           style="font-variant:normal;font-weight:normal;font-size:20px;font-family:'Times New Roman';-inkscape-font-specification:TimesNewRomanPSMT;writing-mode:lr-tb;fill:#000000;fill-opacity:1;fill-rule:nonzero;stroke:none"
           id="text244"><tspan
             x="0 9 18 28 37 46 55 60 66 76 83 88 98 107 114 119 129 138 145 155 165 173 182 190"
             y="0"
             sodipodi:role="line"
             id="tspan242">enough for our purposes.</tspan></text>
        <text
           xml:space="preserve"
           transform="translate(2784,660)"
           style="font-variant:normal;font-weight:normal;font-size:20px;font-family:'Times New Roman';-inkscape-font-specification:TimesNewRomanPSMT;writing-mode:lr-tb;fill:#000000;fill-opacity:1;fill-rule:nonzero;stroke:none"
           id="text248"><tspan
             x="0 14 20 25 34 44 53 60 68 77 82 87 96 106 111 116 125 131 137 142 150 155 164 169 178 192 201 210 215 223 228 237 244 253 258 268 275 285 295 304 314 320 329 334 339 351 360 369 374 382 387 396 401 410 424 433 442 447 452 461 473 482 488 496 501 507 515 520 529 534 540 546 555 564 569 575 583 588 597 606 612 617 626 635 642 647 652 659 668"
             y="0"
             sodipodi:role="line"
             id="tspan246">Of course, not all statements are provable. The statement “This is a lie” is neither true</tspan></text>
        <text
           xml:space="preserve"
           transform="translate(2784,683)"
           style="font-variant:normal;font-weight:normal;font-size:20px;font-family:'Times New Roman';-inkscape-font-specification:TimesNewRomanPSMT;writing-mode:lr-tb;fill:#000000;fill-opacity:1;fill-rule:nonzero;stroke:none"
           id="text252"><tspan
             x="0 9 19 26 31 37 46 52 60 69 74 79 85 90 95 101 109 114 124 133 142 147 157 163 168 173 182 191 196 204 210 224 234 240 249 257 262 267 276 285 294 308 318 324 333 341 346 356 362 367 376 381 389 394 403 408 417 431 440 449 454 459 464 473 482 487 492 498 506 511 520 530 535 540 550 557 567 577 586 596 602 611"
             y="0"
             sodipodi:role="line"
             id="tspan250">nor false. It is one of the simplest examples of a statement that is not provable.</tspan></text>
        <text
           xml:space="preserve"
           transform="translate(2784,726)"
           style="font-variant:normal;font-weight:normal;font-size:20px;font-family:'Times New Roman';-inkscape-font-specification:TimesNewRomanPSMT;writing-mode:lr-tb;fill:#000000;fill-opacity:1;fill-rule:nonzero;stroke:none"
           id="text256"><tspan
             x="0 13 19 24 30 44 53 58 67 73 81 86 91 106 115 120 129 138 147 152 160 169 178 183 188 197 206 211 216 230 239 244 253 262 276 285 290 296 305 313 318 324 332 337 342 351 360 365 375 381 389 398 404 414 420 426 435 444 449 459 465 470 480 487 497 507 513 522 531 536 546 553 563 573 582 592 598 607 612 620 625 634 639 648 662 671 680 685"
             y="0"
             sodipodi:role="line"
             id="tspan254">Ultimately, we can say that mathematics is the discipline of proving provable statements</tspan></text>
        <text
           xml:space="preserve"
           transform="translate(2784,749)"
           style="font-variant:normal;font-weight:normal;font-size:20px;font-family:'Times New Roman';-inkscape-font-specification:TimesNewRomanPSMT;writing-mode:lr-tb;fill:#000000;fill-opacity:1;fill-rule:nonzero;stroke:none"
           id="text260"><tspan
             x="0 5 12 21 30 35 40 51 60 66 75 84 93 102 107 112 118 127 132 141 151 160 165 172 181 189 194 199 204 210 218 223 228 237 246 251 261 267 275 284 290 300 306 312 321 330 335 345 351 356 366 373 383 393 399 408 417 422 432 439 449 459 468 478 484 493 498 506 511 520 525 534 548 557 566 571 579 584 590 599 605 613 622"
             y="0"
             sodipodi:role="line"
             id="tspan258">true. Science, in contrast, is the discipline of proving provable statements false.</tspan></text>
        <text
           xml:space="preserve"
           transform="translate(2784,820)"
           style="font-variant:normal;font-weight:bold;font-size:33px;font-family:'Times New Roman';-inkscape-font-specification:TimesNewRomanPS-BoldMT;writing-mode:lr-tb;fill:#000000;fill-opacity:1;fill-rule:nonzero;stroke:none"
           id="text264"><tspan
             x="0"
             y="0"
             id="tspan262">T</tspan></text>
        <text
           xml:space="preserve"
           transform="translate(2806,820)"
           style="font-variant:normal;font-weight:bold;font-size:33px;font-family:'Times New Roman';-inkscape-font-specification:TimesNewRomanPS-BoldMT;writing-mode:lr-tb;fill:#000000;fill-opacity:1;fill-rule:nonzero;stroke:none"
           id="text268"><tspan
             x="0 22 40 62"
             y="0"
             sodipodi:role="line"
             id="tspan266">ESTS</tspan></text>
        <text
           xml:space="preserve"
           transform="translate(2784,865)"
           style="font-variant:normal;font-weight:normal;font-size:20px;font-family:'Times New Roman';-inkscape-font-specification:TimesNewRomanPSMT;writing-mode:lr-tb;fill:#000000;fill-opacity:1;fill-rule:nonzero;stroke:none"
           id="text272"><tspan
             x="0 14 20 26 35 43 48 55 64 69 79 88 97 106 111 119 128 134 144 149 154 163 173 182 190 195 201 210 219 224 232 241 251 266 274 279 284 293 302 307 317 324 333 341 350 359 368 377 382 387 396 406 411 416 421 430 439 444 453 463 471 480 489 498 507 512 517 527 533 538 548 557 566 574 579 588 593 599 608 613 623 628 637 646"
             y="0"
             sodipodi:role="line"
             id="tspan270">Dijkstra once said, “Testing shows the presence, not the absence, of bugs.” In other</tspan></text>
        <text
           xml:space="preserve"
           transform="translate(2784,888)"
           style="font-variant:normal;font-weight:normal;font-size:20px;font-family:'Times New Roman';-inkscape-font-specification:TimesNewRomanPSMT;writing-mode:lr-tb;fill:#000000;fill-opacity:1;fill-rule:nonzero;stroke:none"
           id="text276"><tspan
             x="0 15 25 32 42 50 55 60 69 74 84 91 101 110 117 126 140 145 154 163 172 177 187 196 201 211 218 228 238 247 256 261 267 276 285 295 302 309 318 327 332 337 347 356 361 370 375 380 389 397 402 407 412 422 431 436 441 447 452 457 466 475 484 493 503 508 513 523 532 537 547 554 564 574 583 592 597 606 616 623 630 639 648 653 658 663 677 683"
             y="0"
             sodipodi:role="line"
             id="tspan274">words, a program can be proven incorrect by a test, but it cannot be proven correct. All</tspan></text>
        <text
           xml:space="preserve"
           transform="translate(2784,911)"
           style="font-variant:normal;font-weight:normal;font-size:20px;font-family:'Times New Roman';-inkscape-font-specification:TimesNewRomanPSMT;writing-mode:lr-tb;fill:#000000;fill-opacity:1;fill-rule:nonzero;stroke:none"
           id="text280"><tspan
             x="0 5 14 23 28 33 38 47 55 60 68 73 82 91 100 105 115 125 130 135 144 150 155 164 171 176 184 193 199 205 211 220 226 235 244 249 254 259 268 276 281 287 296 305 310 319 325 331 341 348 353 358 363 369 377 382 391 397 403 413 428 433 442 450 455 460 470 475 485 494 503 517 522 531 536 546 553 563 572 579 588 602 607 612 622 627 637"
             y="0"
             sodipodi:role="line"
             id="tspan278">that tests can do, after sufficient testing effort, is allow us to deem a program to be</tspan></text>
        <text
           xml:space="preserve"
           transform="translate(2784,934)"
           style="font-variant:normal;font-weight:normal;font-size:20px;font-family:'Times New Roman';-inkscape-font-specification:TimesNewRomanPSMT;writing-mode:lr-tb;fill:#000000;fill-opacity:1;fill-rule:nonzero;stroke:none"
           id="text284"><tspan
             x="0 9 19 26 33 42 51 56 61 70 79 89 98 107 116 121 127 137 144 149 159 168 175 180 190 199 206 216 226 234 243 251"
             y="0"
             sodipodi:role="line"
             id="tspan282">correct enough for our purposes.</tspan></text>
        <text
           xml:space="preserve"
           transform="translate(2784,977)"
           style="font-variant:normal;font-weight:normal;font-size:20px;font-family:'Times New Roman';-inkscape-font-specification:TimesNewRomanPSMT;writing-mode:lr-tb;fill:#000000;fill-opacity:1;fill-rule:nonzero;stroke:none"
           id="text288"><tspan
             x="0 12 21 30 35 41 55 65 71 77 86 95 100 106 116 125 133 138 148 154 159 164 173 179 187 192 198 207 216 221 226 235 242 251 256 264 269 278 287 296 302 311 320 325 330 341 351 357 362 377 386 393 402 407 417 426 436 445 451 461 471 485 494 503 508 513 519 527 532 541 551 556 561 570 575 589 598 603 612 621 635 644 649 655 664 673"
             y="0"
             sodipodi:role="line"
             id="tspan286">The implications of this fact are stunning. Software development is not a mathematical</tspan></text>
      </g>
    </g>
  </g>
</svg>
