<?xml version="1.0" encoding="UTF-8" standalone="no"?>
<!-- Created with Inkscape (http://www.inkscape.org/) -->

<svg
   version="1.1"
   id="svg2"
   width="816"
   height="1056"
   viewBox="0 0 816 1056"
   sodipodi:docname="clean_arch.pdf"
   xmlns:inkscape="http://www.inkscape.org/namespaces/inkscape"
   xmlns:sodipodi="http://sodipodi.sourceforge.net/DTD/sodipodi-0.dtd"
   xmlns="http://www.w3.org/2000/svg"
   xmlns:svg="http://www.w3.org/2000/svg">
  <defs
     id="defs6">
    <clipPath
       clipPathUnits="userSpaceOnUse"
       id="clipPath18">
      <path
         d="m 4872,0 h 696 V 1056 H 4872 V 0"
         clip-rule="evenodd"
         id="path16" />
    </clipPath>
    <clipPath
       clipPathUnits="userSpaceOnUse"
       id="clipPath28">
      <path
         d="m 4872,66 h 696 V 996 H 4872 V 66"
         clip-rule="evenodd"
         id="path26" />
    </clipPath>
  </defs>
  <sodipodi:namedview
     id="namedview4"
     pagecolor="#ffffff"
     bordercolor="#000000"
     borderopacity="0.25"
     inkscape:showpageshadow="2"
     inkscape:pageopacity="0.0"
     inkscape:pagecheckerboard="0"
     inkscape:deskcolor="#d1d1d1" />
  <g
     id="g8"
     inkscape:groupmode="layer"
     inkscape:label="clean_arch"
     transform="translate(59.999999,2.64e-5)">
    <g
       id="g10" />
    <g
       id="g12"
       transform="translate(-4872)">
      <g
         id="g14"
         clip-path="url(#clipPath18)">
        <g
           id="g20" />
      </g>
    </g>
    <g
       id="g22"
       transform="translate(-4872)">
      <g
         id="g24"
         clip-path="url(#clipPath28)">
        <text
           xml:space="preserve"
           transform="translate(4872,82.67188)"
           style="font-variant:normal;font-weight:normal;font-size:20px;font-family:'Times New Roman';-inkscape-font-specification:TimesNewRomanPSMT;writing-mode:lr-tb;fill:#000000;fill-opacity:1;fill-rule:nonzero;stroke:none"
           id="text32"><tspan
             x="0 9 19 34 39 44 54 59 69 76 85 94 103 109 117 126 131 140 150 160 169 174 179 190 200 205 211 218 232 237 246 256 262 271 280 285 290 300 305 315 322 331 339 348 357 362 367 376 385 395 400 409 418 425 430 440 450 455 461 471 480 485 494 503 510 519 524 529 544 553 559 568 577 582 588 593 602 611 617"
             y="0"
             sodipodi:role="line"
             id="tspan30">how to organize code. So I’m going to present another option here, which I call</tspan></text>
        <text
           xml:space="preserve"
           transform="translate(4872,106)"
           style="font-variant:normal;font-weight:normal;font-size:20px;font-family:'Times New Roman';-inkscape-font-specification:TimesNewRomanPSMT;writing-mode:lr-tb;fill:#000000;fill-opacity:1;fill-rule:nonzero;stroke:none"
           id="text36"><tspan
             x="0 9 19 28 37 46 55 64 73 78 88 97 102 111 121 135 145 155 164 173 182 187 192 201 206 216 226 231 240 246 256 265 270 279 289 298 303 311 321 335 344 349 359 368 377 386 395 402 412 421 430 440 445 450 456 463 473 482 487 495 505 514 523 528 533 547 557 565 570 575 585 591 596 610 619 624 633 642 649 658 667"
             y="0"
             sodipodi:role="line"
             id="tspan34">“package by component.” To give you some background, I’ve spent most of my career</tspan></text>
        <text
           xml:space="preserve"
           transform="translate(4872,129)"
           style="font-variant:normal;font-weight:normal;font-size:20px;font-family:'Times New Roman';-inkscape-font-specification:TimesNewRomanPSMT;writing-mode:lr-tb;fill:#000000;fill-opacity:1;fill-rule:nonzero;stroke:none"
           id="text40"><tspan
             x="0 10 19 25 31 41 47 56 65 70 79 88 93 102 109 119 126 132 140 149 154 162 172 178 183 198 207 214 223 228 233 243 250 256 270 279 286 292 298 307 312 318 327 332 340 349 359 368 373 378 387 396 403 413 421 429 434 443 448 457 466 480 490 499 506 511 521 527 532 542 548 554 560 569 576 585 594 599 604 614 623 631 637 646 655 663"
             y="0"
             sodipodi:role="line"
             id="tspan38">building enterprise software, primarily in Java, across a number of different business</tspan></text>
        <text
           xml:space="preserve"
           transform="translate(4872,152)"
           style="font-variant:normal;font-weight:normal;font-size:20px;font-family:'Times New Roman';-inkscape-font-specification:TimesNewRomanPSMT;writing-mode:lr-tb;fill:#000000;fill-opacity:1;fill-rule:nonzero;stroke:none"
           id="text44"><tspan
             x="0 10 20 34 43 49 58 66 71 76 88 97 107 115 124 129 137 147 153 158 173 182 189 198 203 211 220 228 233 242 256 264 269 278 287 297 306 311 321 330 337 343 352 362 367 373 387 401 410 419 427 436 442 450 455 460 465 475 485 490 495 508 513 519 528 535 544 553 558 567 576 590 600 609 616 621 630 639 649"
             y="0"
             sodipodi:role="line"
             id="tspan42">domains. Those software systems have varied immensely, too. A large number have</tspan></text>
        <text
           xml:space="preserve"
           transform="translate(4872,177.6719)"
           style="font-variant:normal;font-weight:normal;font-size:20px;font-family:'Times New Roman';-inkscape-font-specification:TimesNewRomanPSMT;writing-mode:lr-tb;fill:#000000;fill-opacity:1;fill-rule:nonzero;stroke:none"
           id="text48"><tspan
             x="0 10 19 28 37 42 57 66 76 83 93 102 110 119 129 134 139 149 158 163 168 178 183 192 201 208 216 221 230 239 249 258 263 273 282 291 300 305 314 320 326 335 344 349 359 367 376 383 393 402"
             y="0"
             sodipodi:role="line"
             id="tspan46">been web-based, but others have been client–server</tspan></text>
        <text
           xml:space="preserve"
           transform="translate(5281,170.6719)"
           style="font-variant:normal;font-weight:normal;font-size:15px;font-family:'Times New Roman';-inkscape-font-specification:TimesNewRomanPSMT;writing-mode:lr-tb;fill:#0000ee;fill-opacity:1;fill-rule:nonzero;stroke:none"
           id="text52"><tspan
             x="0"
             y="0"
             id="tspan50">4</tspan></text>
        <path
           d="m 5281,172.5 h 6 z"
           style="fill:none;stroke:#0000ee;stroke-width:1;stroke-linecap:square;stroke-linejoin:miter;stroke-miterlimit:10;stroke-dasharray:none;stroke-opacity:1"
           id="path54" />
        <text
           xml:space="preserve"
           transform="translate(5288,177.6719)"
           style="font-variant:normal;font-weight:normal;font-size:20px;font-family:'Times New Roman';-inkscape-font-specification:TimesNewRomanPSMT;writing-mode:lr-tb;fill:#000000;fill-opacity:1;fill-rule:nonzero;stroke:none"
           id="text58"><tspan
             x="0 5 10 20 26 34 39 46 52 62 71 76 85 95 100 105 119 128 136 144 153 162 171 178 188 197 205 214 224 229 234 244"
             y="0"
             sodipodi:role="line"
             id="tspan56">, distributed, message-based, or</tspan></text>
        <text
           xml:space="preserve"
           transform="translate(4872,201)"
           style="font-variant:normal;font-weight:normal;font-size:20px;font-family:'Times New Roman';-inkscape-font-specification:TimesNewRomanPSMT;writing-mode:lr-tb;fill:#000000;fill-opacity:1;fill-rule:nonzero;stroke:none"
           id="text62"><tspan
             x="0 8 18 32 41 46 55 61 70 79 84 93 99 107 116 121 126 140 146 151 160 170 179 188 197 202 207 216 225 230 235 244 253 262 271 281 287 297 306 312 321 329 334 344 350 356 362 371 378 387 397 402 407 412 421 430 435 444 454 468 482 492 501 506 511 520 529 543 552 557 572 581 589 594 599 608 617 622 627 632 641"
             y="0"
             sodipodi:role="line"
             id="tspan60">something else. Although the technologies differed, the common theme was that the</tspan></text>
        <text
           xml:space="preserve"
           transform="translate(4872,224)"
           style="font-variant:normal;font-weight:normal;font-size:20px;font-family:'Times New Roman';-inkscape-font-specification:TimesNewRomanPSMT;writing-mode:lr-tb;fill:#000000;fill-opacity:1;fill-rule:nonzero;stroke:none"
           id="text66"><tspan
             x="0 9 16 25 34 40 45 54 63 68 77 84 93 98 104 114 121 126 140 150 158 163 168 178 184 189 194 203 212 220 229 234 242 252 258 263 278 287 294 303 308 316 325 333 338 347 361 369 374 389 398 406 411 421 430 438 447 457 462 472 481 486 495 500 505 512 521 531 537 542 548 558 567 576 582 587 593 602 611 620 627 636"
             y="0"
             sodipodi:role="line"
             id="tspan64">architecture for most of these software systems was based on a traditional layered</tspan></text>
        <text
           xml:space="preserve"
           transform="translate(4872,247)"
           style="font-variant:normal;font-weight:normal;font-size:20px;font-family:'Times New Roman';-inkscape-font-specification:TimesNewRomanPSMT;writing-mode:lr-tb;fill:#000000;fill-opacity:1;fill-rule:nonzero;stroke:none"
           id="text70"><tspan
             x="0 9 16 25 34 40 45 54 63 68 77 84 93"
             y="0"
             sodipodi:role="line"
             id="tspan68">architecture.</tspan></text>
        <text
           xml:space="preserve"
           transform="translate(4872,290)"
           style="font-variant:normal;font-weight:normal;font-size:20px;font-family:'Times New Roman';-inkscape-font-specification:TimesNewRomanPSMT;writing-mode:lr-tb;fill:#000000;fill-opacity:1;fill-rule:nonzero;stroke:none"
           id="text74"><tspan
             x="0 6 13 23 32 37 46 52 59 68 77 87 96 101 115 124 133 138 144 154 163 172 182 187 196 201 210 220 229 239 245 254 259 269 275 280 287 296 305 313 323 332 340 345 360 369 378 383 389 398 407 416 423 432 442 447 456 463 472 481 487 492 501 510 515 524 531 540 548 553 561 570 580 589 595 605 610 620"
             y="0"
             sodipodi:role="line"
             id="tspan72">I’ve already mentioned a couple of reasons why layered architectures should be</tspan></text>
        <text
           xml:space="preserve"
           transform="translate(4872,313)"
           style="font-variant:normal;font-weight:normal;font-size:20px;font-family:'Times New Roman';-inkscape-font-specification:TimesNewRomanPSMT;writing-mode:lr-tb;fill:#000000;fill-opacity:1;fill-rule:nonzero;stroke:none"
           id="text78"><tspan
             x="0 9 19 28 36 42 52 61 68 77 87 92 102 111 121 126 131 141 150 155 160 165 174 183 188 194 202 207 216 226 231 236 241 250 259 264 279 288 298 304 313 318 326 331 341 348 356 361 366 378 387 396 401 411 420 427 437 447 455 464 469 479 485 490 499 504 510 519 528 537 544 553 563 568 577 584 593 602 608 613 622 631 636 645 652 661 666 672"
             y="0"
             sodipodi:role="line"
             id="tspan76">considered bad, but that’s not the whole story. The purpose of a layered architecture is</tspan></text>
        <text
           xml:space="preserve"
           transform="translate(4872,336)"
           style="font-variant:normal;font-weight:normal;font-size:20px;font-family:'Times New Roman';-inkscape-font-specification:TimesNewRomanPSMT;writing-mode:lr-tb;fill:#000000;fill-opacity:1;fill-rule:nonzero;stroke:none"
           id="text82"><tspan
             x="0 5 15 20 28 37 47 56 63 72 77 86 91 100 110 120 129 134 139 148 157 162 167 176 185 193 198 203 212 221 226 234 243 257 266 271 279 289 296 301 306 316 322 327 333 342 351 360 365 371 381 390 395 400 416 425 435 440 448 453 462 468 474 479 485 493 498 506 515 525 534 541 550 555 564 574 579 585 592 602 616 621 631 640 648 654 663 672 680"
             y="0"
             sodipodi:role="line"
             id="tspan80">to separate code that has the same sort of function. Web stuff is separated from business</tspan></text>
        <text
           xml:space="preserve"
           transform="translate(4872,359)"
           style="font-variant:normal;font-weight:normal;font-size:20px;font-family:'Times New Roman';-inkscape-font-specification:TimesNewRomanPSMT;writing-mode:lr-tb;fill:#000000;fill-opacity:1;fill-rule:nonzero;stroke:none"
           id="text86"><tspan
             x="0 6 16 25 31 40 45 50 65 74 80 89 98 103 109 117 122 128 137 142 147 156 163 172 177 185 194 204 213 220 229 234 243 253 258 264 271 281 295 300 310 319 324 333 338 347 356 365 374 382 390 395 400 414 422 427 442 451 456 464 473 488 493 499 506 516 530 535 540 549 558 563 576 593 603 608 617 623 632 640"
             y="0"
             sodipodi:role="line"
             id="tspan84">logic, which is in turn separated from data access. As we saw from the UML class</tspan></text>
        <text
           xml:space="preserve"
           transform="translate(4872,382)"
           style="font-variant:normal;font-weight:normal;font-size:20px;font-family:'Times New Roman';-inkscape-font-specification:TimesNewRomanPSMT;writing-mode:lr-tb;fill:#000000;fill-opacity:1;fill-rule:nonzero;stroke:none"
           id="text90"><tspan
             x="0 10 16 25 34 41 50 64 69 74 80 87 97 111 116 125 134 139 145 159 169 175 184 198 207 216 221 230 235 241 251 260 265 275 284 291 299 309 318 327 332 338 348 357 362 367 376 381 387 396 405 414 421 426 431 440 450 456 465 474 480 486 495 500 509 519 528 537 542 551 559 564 569 579 584 593 598 606 615 625"
             y="0"
             sodipodi:role="line"
             id="tspan88">diagram, from an implementation perspective, a layer typically equates to a Java</tspan></text>
        <text
           xml:space="preserve"
           transform="translate(4872,405)"
           style="font-variant:normal;font-weight:normal;font-size:20px;font-family:'Times New Roman';-inkscape-font-specification:TimesNewRomanPSMT;writing-mode:lr-tb;fill:#000000;fill-opacity:1;fill-rule:nonzero;stroke:none"
           id="text94"><tspan
             x="0 10 19 28 37 46 55 64 69 74 85 92 102 116 121 130 135 144 154 164 173 178 187 196 205 214 222 230 236 246 252 258 264 269 278 283 293 302 309 317 327 336 345 350 356 366 375 380 385 391 401 408 413 418 427 436"
             y="0"
             sodipodi:role="line"
             id="tspan92">package. From a code accessibility perspective, for the </tspan></text>
        <text
           xml:space="preserve"
           transform="translate(5313,405)"
           style="font-variant:normal;font-weight:normal;font-size:16px;font-family:'Courier New';-inkscape-font-specification:CourierNewPSMT;writing-mode:lr-tb;fill:#000000;fill-opacity:1;fill-rule:nonzero;stroke:none"
           id="text98"><tspan
             x="0 10 20 30 40 50 60 70 80 90 100 110 120 130 140 150"
             y="0"
             sodipodi:role="line"
             id="tspan96">OrdersController</tspan></text>
        <text
           xml:space="preserve"
           transform="translate(5478,405)"
           style="font-variant:normal;font-weight:normal;font-size:20px;font-family:'Times New Roman';-inkscape-font-specification:TimesNewRomanPSMT;writing-mode:lr-tb;fill:#000000;fill-opacity:1;fill-rule:nonzero;stroke:none"
           id="text102"><tspan
             x="0 5 15 20 30 39 44 53 63 69"
             y="0"
             sodipodi:role="line"
             id="tspan100">to be able</tspan></text>
        <text
           xml:space="preserve"
           transform="translate(4872,428)"
           style="font-variant:normal;font-weight:normal;font-size:20px;font-family:'Times New Roman';-inkscape-font-specification:TimesNewRomanPSMT;writing-mode:lr-tb;fill:#000000;fill-opacity:1;fill-rule:nonzero;stroke:none"
           id="text106"><tspan
             x="0 5 15 20 29 38 48 57 62 71 76 86 95 105 114 123 133 142 151 160 169 174 184 193 198 203 212 221"
             y="0"
             sodipodi:role="line"
             id="tspan104">to have a dependency on the </tspan></text>
        <text
           xml:space="preserve"
           transform="translate(5098,428)"
           style="font-variant:normal;font-weight:normal;font-size:16px;font-family:'Courier New';-inkscape-font-specification:CourierNewPSMT;writing-mode:lr-tb;fill:#000000;fill-opacity:1;fill-rule:nonzero;stroke:none"
           id="text110"><tspan
             x="0 10 20 30 40 50 60 70 80 90 100 110 120"
             y="0"
             sodipodi:role="line"
             id="tspan108">OrdersService</tspan></text>
        <text
           xml:space="preserve"
           transform="translate(5233,428)"
           style="font-variant:normal;font-weight:normal;font-size:20px;font-family:'Times New Roman';-inkscape-font-specification:TimesNewRomanPSMT;writing-mode:lr-tb;fill:#000000;fill-opacity:1;fill-rule:nonzero;stroke:none"
           id="text114"><tspan
             x="0 6 15 20 29 36 42 51 60 69 74 79 84 93 102"
             y="0"
             sodipodi:role="line"
             id="tspan112">interface, the </tspan></text>
        <text
           xml:space="preserve"
           transform="translate(5340,428)"
           style="font-variant:normal;font-weight:normal;font-size:16px;font-family:'Courier New';-inkscape-font-specification:CourierNewPSMT;writing-mode:lr-tb;fill:#000000;fill-opacity:1;fill-rule:nonzero;stroke:none"
           id="text118"><tspan
             x="0 10 20 30 40 50 60 70 80 90 100 110 120"
             y="0"
             sodipodi:role="line"
             id="tspan116">OrdersService</tspan></text>
        <text
           xml:space="preserve"
           transform="translate(5475,428)"
           style="font-variant:normal;font-weight:normal;font-size:20px;font-family:'Times New Roman';-inkscape-font-specification:TimesNewRomanPSMT;writing-mode:lr-tb;fill:#000000;fill-opacity:1;fill-rule:nonzero;stroke:none"
           id="text122"><tspan
             x="0 6 15 20 29 36 42 51 60"
             y="0"
             sodipodi:role="line"
             id="tspan120">interface</tspan></text>
        <text
           xml:space="preserve"
           transform="translate(4872,451)"
           style="font-variant:normal;font-weight:normal;font-size:20px;font-family:'Times New Roman';-inkscape-font-specification:TimesNewRomanPSMT;writing-mode:lr-tb;fill:#000000;fill-opacity:1;fill-rule:nonzero;stroke:none"
           id="text126"><tspan
             x="0 9 18 27 37 45 50 55 65 70 80 89 94 108 117 124 133 142 152 157 166 174"
             y="0"
             sodipodi:role="line"
             id="tspan124">needs to be marked as </tspan></text>
        <text
           xml:space="preserve"
           transform="translate(5051,451)"
           style="font-variant:normal;font-weight:normal;font-size:16px;font-family:'Courier New';-inkscape-font-specification:CourierNewPSMT;writing-mode:lr-tb;fill:#000000;fill-opacity:1;fill-rule:nonzero;stroke:none"
           id="text130"><tspan
             x="0 10 20 30 40 50"
             y="0"
             sodipodi:role="line"
             id="tspan128">public</tspan></text>
        <text
           xml:space="preserve"
           transform="translate(5111,451)"
           style="font-variant:normal;font-weight:normal;font-size:20px;font-family:'Times New Roman';-inkscape-font-specification:TimesNewRomanPSMT;writing-mode:lr-tb;fill:#000000;fill-opacity:1;fill-rule:nonzero;stroke:none"
           id="text134"><tspan
             x="0 5 10 20 29 38 47 56 64 73 78 83 92 101 110 115 124 131 140 145 151 160 165 175 181 187 193 202 209 218 227 232 237 247 256 265 274 283 292 301 309 314 319 330 336 345 354 369 375 383 392 397 402 407 416"
             y="0"
             sodipodi:role="line"
             id="tspan132">, because they are in different packages. Likewise, the</tspan></text>
        <text
           xml:space="preserve"
           transform="translate(4872,474)"
           style="font-variant:normal;font-weight:normal;font-size:16px;font-family:'Courier New';-inkscape-font-specification:CourierNewPSMT;writing-mode:lr-tb;fill:#000000;fill-opacity:1;fill-rule:nonzero;stroke:none"
           id="text138"><tspan
             x="0 10 20 30 40 50 60 70 80 90 100 110 120 130 140 150"
             y="0"
             sodipodi:role="line"
             id="tspan136">OrdersRepository</tspan></text>
        <text
           xml:space="preserve"
           transform="translate(5037,474)"
           style="font-variant:normal;font-weight:normal;font-size:20px;font-family:'Times New Roman';-inkscape-font-specification:TimesNewRomanPSMT;writing-mode:lr-tb;fill:#000000;fill-opacity:1;fill-rule:nonzero;stroke:none"
           id="text142"><tspan
             x="0 6 15 20 29 36 42 51 60 69 74 83 92 101 111 119 124 129 139 144 154 163 168 182 191 198 207 216 226 231 240 248"
             y="0"
             sodipodi:role="line"
             id="tspan140">interface needs to be marked as </tspan></text>
        <text
           xml:space="preserve"
           transform="translate(5290,474)"
           style="font-variant:normal;font-weight:normal;font-size:16px;font-family:'Courier New';-inkscape-font-specification:CourierNewPSMT;writing-mode:lr-tb;fill:#000000;fill-opacity:1;fill-rule:nonzero;stroke:none"
           id="text146"><tspan
             x="0 10 20 30 40 50"
             y="0"
             sodipodi:role="line"
             id="tspan144">public</tspan></text>
        <text
           xml:space="preserve"
           transform="translate(5355,474)"
           style="font-variant:normal;font-weight:normal;font-size:20px;font-family:'Times New Roman';-inkscape-font-specification:TimesNewRomanPSMT;writing-mode:lr-tb;fill:#000000;fill-opacity:1;fill-rule:nonzero;stroke:none"
           id="text150"><tspan
             x="0 8 18 23 28 37 46 51 56 62 67 72 81 90 99 104 114 123 128 136 145 154"
             y="0"
             sodipodi:role="line"
             id="tspan148">so that it can be seen</tspan></text>
        <text
           xml:space="preserve"
           transform="translate(4872,497)"
           style="font-variant:normal;font-weight:normal;font-size:20px;font-family:'Times New Roman';-inkscape-font-specification:TimesNewRomanPSMT;writing-mode:lr-tb;fill:#000000;fill-opacity:1;fill-rule:nonzero;stroke:none"
           id="text154"><tspan
             x="0 10 19 24 32 38 48 57 62 72 78 83 88 97 106 111 118 127 137 147 155 161 166 176 183 192 197 207 216 225 234 243 252 261 266 271 281 290 295 300 309 318"
             y="0"
             sodipodi:role="line"
             id="tspan152">outside of the repository package, by the </tspan></text>
        <text
           xml:space="preserve"
           transform="translate(5195,497)"
           style="font-variant:normal;font-weight:normal;font-size:16px;font-family:'Courier New';-inkscape-font-specification:CourierNewPSMT;writing-mode:lr-tb;fill:#000000;fill-opacity:1;fill-rule:nonzero;stroke:none"
           id="text158"><tspan
             x="0 10 20 30 40 50 60 70 80 90 100 110 120 130 140 150 160"
             y="0"
             sodipodi:role="line"
             id="tspan156">OrdersServiceImpl</tspan></text>
        <text
           xml:space="preserve"
           transform="translate(5370,497)"
           style="font-variant:normal;font-weight:normal;font-size:20px;font-family:'Times New Roman';-inkscape-font-specification:TimesNewRomanPSMT;writing-mode:lr-tb;fill:#000000;fill-opacity:1;fill-rule:nonzero;stroke:none"
           id="text162"><tspan
             x="0 9 15 24 32 40"
             y="0"
             sodipodi:role="line"
             id="tspan160">class.</tspan></text>
        <text
           xml:space="preserve"
           transform="translate(4872,540)"
           style="font-variant:normal;font-weight:normal;font-size:20px;font-family:'Times New Roman';-inkscape-font-specification:TimesNewRomanPSMT;writing-mode:lr-tb;fill:#000000;fill-opacity:1;fill-rule:nonzero;stroke:none"
           id="text166"><tspan
             x="0 6 15 20 29 34 42 47 54 60 69 74 79 85 94 103 112 119 128 138 143 152 159 168 177 183 188 197 206 211 220 227 236 241 246 251 260 269 274 284 293 303 312 321 331 340 349 358 367 372 381 388 395 405 420 428 433 441 450 460 469 475 485 490 499 505 520 529 538 546 551 561 571 577 586 591 596 606 616 631 640 655 664 671 681"
             y="0"
             sodipodi:role="line"
             id="tspan164">In a strict layered architecture, the dependency arrows should always point downward,</tspan></text>
        <text
           xml:space="preserve"
           transform="translate(4872,563)"
           style="font-variant:normal;font-weight:normal;font-size:20px;font-family:'Times New Roman';-inkscape-font-specification:TimesNewRomanPSMT;writing-mode:lr-tb;fill:#000000;fill-opacity:1;fill-rule:nonzero;stroke:none"
           id="text170"><tspan
             x="0 15 21 26 35 40 46 55 64 73 80 88 93 103 112 122 131 140 150 156 165 174 179 189 198 204 213 218 228 237 242 247 256 265 270 279 288 297 302 307 316 326 332 341 350 359 368 373 378 384 394 409 418 425 430 436 445 454 463 469 474 479 491 500 506 514 519 528 538 552 561 569 574 584 593 602 611 616 621"
             y="0"
             sodipodi:role="line"
             id="tspan168">with layers depending only on the next adjacent lower layer. This comes back to</tspan></text>
        <text
           xml:space="preserve"
           transform="translate(4872,586)"
           style="font-variant:normal;font-weight:normal;font-size:20px;font-family:'Times New Roman';-inkscape-font-specification:TimesNewRomanPSMT;writing-mode:lr-tb;fill:#000000;fill-opacity:1;fill-rule:nonzero;stroke:none"
           id="text174"><tspan
             x="0 9 16 25 34 39 45 54 63 68 77 82 91 97 106 115 120 125 134 140 149 158 167 172 177 186 195 204 213 219 225 234 239 249 258 268 277 286 296 305 314 323 332 337 346 353 362 372 381 386 391 406 415 421 430 439 444 450 458 463 472 481 490 496 505 515 524 534 539 549 558 563 569 578 583 590 600 610 619 628 634 643"
             y="0"
             sodipodi:role="line"
             id="tspan172">creating a nice, clean, acyclic dependency graph, which is achieved by introducing</tspan></text>
        <text
           xml:space="preserve"
           transform="translate(4872,609)"
           style="font-variant:normal;font-weight:normal;font-size:20px;font-family:'Times New Roman';-inkscape-font-specification:TimesNewRomanPSMT;writing-mode:lr-tb;fill:#000000;fill-opacity:1;fill-rule:nonzero;stroke:none"
           id="text178"><tspan
             x="0 8 18 32 41 46 53 62 68 77 85 90 99 109 119 128 133 138 147 157 172 177 186 192 201 215 224 233 238 246 251 257 266 271 280 285 294 304 314 323 328 338 347 355 364 369 377 386 396 405 411 421 426 436 445 455 464 473 483 488 498 507 512 521 530 539 548 553 563 568 577 586 592 597 602 614 623 632 637 647 653"
             y="0"
             sodipodi:role="line"
             id="tspan176">some rules about how elements in a code base should depend on each other. The big</tspan></text>
        <text
           xml:space="preserve"
           transform="translate(4872,632)"
           style="font-variant:normal;font-weight:normal;font-size:20px;font-family:'Times New Roman';-inkscape-font-specification:TimesNewRomanPSMT;writing-mode:lr-tb;fill:#000000;fill-opacity:1;fill-rule:nonzero;stroke:none"
           id="text182"><tspan
             x="0 10 17 27 37 43 52 66 71 80 89 96 105 110 116 124 129 134 143 152 157 162 177 186 191 200 209 218 223 232 241 250 259 264 269 279 288 293 299 308 313 320 330 340 349 358 364 373 382 387 395 405 419 428 433 442 451 461 470 478 484 491 500 510 516 525 530 540 549 559 568 577 587 596 605 614 620 629 637 642 647 656 665"
             y="0"
             sodipodi:role="line"
             id="tspan180">problem here is that we can cheat by introducing some undesirable dependencies, yet</tspan></text>
        <text
           xml:space="preserve"
           transform="translate(4872,655)"
           style="font-variant:normal;font-weight:normal;font-size:20px;font-family:'Times New Roman';-inkscape-font-specification:TimesNewRomanPSMT;writing-mode:lr-tb;fill:#000000;fill-opacity:1;fill-rule:nonzero;stroke:none"
           id="text186"><tspan
             x="0 8 13 19 25 31 36 45 52 61 70 75 84 89 98 103 112 118 127 136 141 146 155 164 173 182 188 194 203 208 218 227 237 246 255 265 274 283 292 301 306 315 322 331 341 350"
             y="0"
             sodipodi:role="line"
             id="tspan184">still create a nice, acyclic dependency graph.</tspan></text>
        <text
           xml:space="preserve"
           transform="translate(4872,698)"
           style="font-variant:normal;font-weight:normal;font-size:20px;font-family:'Times New Roman';-inkscape-font-specification:TimesNewRomanPSMT;writing-mode:lr-tb;fill:#000000;fill-opacity:1;fill-rule:nonzero;stroke:none"
           id="text190"><tspan
             x="0 11 20 30 40 50 58 67 72 77 86 95 100 105 114 124 133 138 147 153 160 169 174 182 192 206 215 225 234 243 248 257 266 281 286 301 310 320 325 331 341 347 356 364 369 378 388 397 404 409 414 423 432 446 451 456 465 474 484 489 498 508 517 522 531 537 547 556 561 566 575 584 589 598 607 622 631 641 655 664"
             y="0"
             sodipodi:role="line"
             id="tspan188">Suppose that you hire someone new who joins your team, and you give the newcomer</tspan></text>
        <text
           xml:space="preserve"
           transform="translate(4872,721)"
           style="font-variant:normal;font-weight:normal;font-size:20px;font-family:'Times New Roman';-inkscape-font-specification:TimesNewRomanPSMT;writing-mode:lr-tb;fill:#000000;fill-opacity:1;fill-rule:nonzero;stroke:none"
           id="text194"><tspan
             x="0 9 18 28 33 42 51 58"
             y="0"
             sodipodi:role="line"
             id="tspan192">another </tspan></text>
        <text
           xml:space="preserve"
           transform="translate(4935,721)"
           style="font-variant:normal;font-weight:normal;font-size:16px;font-family:'Courier New';-inkscape-font-specification:CourierNewPSMT;writing-mode:lr-tb;fill:#000000;fill-opacity:1;fill-rule:nonzero;stroke:none"
           id="text198"><tspan
             x="0 10 20 30 40 50"
             y="0"
             sodipodi:role="line"
             id="tspan196">orders</tspan></text>
        <text
           xml:space="preserve"
           transform="translate(4995,721)"
           style="font-variant:normal;font-weight:normal;font-size:20px;font-family:'Times New Roman';-inkscape-font-specification:TimesNewRomanPSMT;writing-mode:lr-tb;fill:#000000;fill-opacity:1;fill-rule:nonzero;stroke:none"
           id="text202"><tspan
             x="0 7 14 23 29 38 43 52 62 67 76 84 93 98 107 116 124 133 138 143 153 158 164 178 188 194 203 217 226 235 240 245 250 261 267 276 285 294 299 304 313 322 327 337 346 353 361 371 380 385 391 399 404 413 422 436 441 446 455 464 469 484 493 502 507 515 520 525"
             y="0"
             sodipodi:role="line"
             id="tspan200">-related use case to implement. Since the person is new, he wants to</tspan></text>
        <text
           xml:space="preserve"
           transform="translate(4872,744)"
           style="font-variant:normal;font-weight:normal;font-size:20px;font-family:'Times New Roman';-inkscape-font-specification:TimesNewRomanPSMT;writing-mode:lr-tb;fill:#000000;fill-opacity:1;fill-rule:nonzero;stroke:none"
           id="text206"><tspan
             x="0 14 23 32 41 46 55 60 70 76 85 90 96 110 120 127 136 144 152 158 168 177 182 191 200 210 215 224 233 238 243 248 257 263 271 276 285 293 302 307 316 325 333 342 347 353 367 377 383 392 406 415 424 429 438 448 453 462 470 475 485 494 500 509 518 524 533 538 547 555 560 570 580 588 596 602 612 618 627 632 637 651 657 662 671"
             y="0"
             sodipodi:role="line"
             id="tspan204">make a big impression and get this use case implemented as quickly as possible. After</tspan></text>
        <text
           xml:space="preserve"
           transform="translate(4872,767)"
           style="font-variant:normal;font-weight:normal;font-size:20px;font-family:'Times New Roman';-inkscape-font-specification:TimesNewRomanPSMT;writing-mode:lr-tb;fill:#000000;fill-opacity:1;fill-rule:nonzero;stroke:none"
           id="text210"><tspan
             x="0 8 14 19 24 30 39 48 53 63 73 88 97 102 117 123 128 137 142 151 156 165 174 184 189 199 205 210 219 229 235 241 250 259 264 270 280 287 292 301 306 312 321 336 341 355 361 370 379 384 393 401 406 411 416 425 434 439 448 457 472 481 491 505 514 521 526 536 542 550 559 569 579 588 595 603 608 617 626 631 640 649 655 663 668 674 683"
             y="0"
             sodipodi:role="line"
             id="tspan208">sitting down with a cup of coffee for a few minutes, the newcomer discovers an existing</tspan></text>
        <text
           xml:space="preserve"
           transform="translate(4872,790)"
           style="font-variant:normal;font-weight:normal;font-size:16px;font-family:'Courier New';-inkscape-font-specification:CourierNewPSMT;writing-mode:lr-tb;fill:#000000;fill-opacity:1;fill-rule:nonzero;stroke:none"
           id="text214"><tspan
             x="0 10 20 30 40 50 60 70 80 90 100 110 120 130 140 150"
             y="0"
             sodipodi:role="line"
             id="tspan212">OrdersController</tspan></text>
        <text
           xml:space="preserve"
           transform="translate(5037,790)"
           style="font-variant:normal;font-weight:normal;font-size:20px;font-family:'Times New Roman';-inkscape-font-specification:TimesNewRomanPSMT;writing-mode:lr-tb;fill:#000000;fill-opacity:1;fill-rule:nonzero;stroke:none"
           id="text218"><tspan
             x="0 9 15 24 32 40 45 50 58 68 73 82 91 96 106 115 124 130 140 149 157 162 167 176 185 190 196 204 209 224 233 242 249 258 263 268 277 286 291 300 310 320 329 334 340 350 357 362 367 376 385 390 399 408 423"
             y="0"
             sodipodi:role="line"
             id="tspan216">class, so he decides that’s where the code for the new </tspan></text>
        <text
           xml:space="preserve"
           transform="translate(5465,790)"
           style="font-variant:normal;font-weight:normal;font-size:16px;font-family:'Courier New';-inkscape-font-specification:CourierNewPSMT;writing-mode:lr-tb;fill:#000000;fill-opacity:1;fill-rule:nonzero;stroke:none"
           id="text222"><tspan
             x="0 10 20 30 40 50"
             y="0"
             sodipodi:role="line"
             id="tspan220">orders</tspan></text>
        <text
           xml:space="preserve"
           transform="translate(5525,790)"
           style="font-variant:normal;font-weight:normal;font-size:20px;font-family:'Times New Roman';-inkscape-font-specification:TimesNewRomanPSMT;writing-mode:lr-tb;fill:#000000;fill-opacity:1;fill-rule:nonzero;stroke:none"
           id="text226"><tspan
             x="0"
             y="0"
             id="tspan224">-</tspan></text>
        <text
           xml:space="preserve"
           transform="translate(4872,813)"
           style="font-variant:normal;font-weight:normal;font-size:20px;font-family:'Times New Roman';-inkscape-font-specification:TimesNewRomanPSMT;writing-mode:lr-tb;fill:#000000;fill-opacity:1;fill-rule:nonzero;stroke:none"
           id="text230"><tspan
             x="0 7 16 22 31 36 45 55 60 75 84 94 99 109 118 127 136 141 149 158 168 177 183 193 198 207 217 222 227 240 249 254 259 265 270 275 284 293 302 312 320 325 333 343 357 366"
             y="0"
             sodipodi:role="line"
             id="tspan228">related web page should go. But it needs some </tspan></text>
        <text
           xml:space="preserve"
           transform="translate(5243,813)"
           style="font-variant:normal;font-weight:normal;font-size:16px;font-family:'Courier New';-inkscape-font-specification:CourierNewPSMT;writing-mode:lr-tb;fill:#000000;fill-opacity:1;fill-rule:nonzero;stroke:none"
           id="text234"><tspan
             x="0 10 20 30 40 50"
             y="0"
             sodipodi:role="line"
             id="tspan232">orders</tspan></text>
        <text
           xml:space="preserve"
           transform="translate(5308,813)"
           style="font-variant:normal;font-weight:normal;font-size:20px;font-family:'Times New Roman';-inkscape-font-specification:TimesNewRomanPSMT;writing-mode:lr-tb;fill:#000000;fill-opacity:1;fill-rule:nonzero;stroke:none"
           id="text238"><tspan
             x="0 10 19 24 33 38 44 51 61 75 80 85 94 103 108 118 127 132 141 151 160 168 177 182 187 199 208"
             y="0"
             sodipodi:role="line"
             id="tspan236">data from the database. The</tspan></text>
        <text
           xml:space="preserve"
           transform="translate(4872,836)"
           style="font-variant:normal;font-weight:normal;font-size:20px;font-family:'Times New Roman';-inkscape-font-specification:TimesNewRomanPSMT;writing-mode:lr-tb;fill:#000000;fill-opacity:1;fill-rule:nonzero;stroke:none"
           id="text242"><tspan
             x="0 9 18 33 42 52 66 75 82 87 96 105 113 118 127 136 141 150 160 166 176 185 194 203 212 218 223 232 246 255 260 265 270 279 288 295 304 310 318 323 332 341"
             y="0"
             sodipodi:role="line"
             id="tspan240">newcomer has an epiphany: “Oh, there’s an </tspan></text>
        <text
           xml:space="preserve"
           transform="translate(5218,836)"
           style="font-variant:normal;font-weight:normal;font-size:16px;font-family:'Courier New';-inkscape-font-specification:CourierNewPSMT;writing-mode:lr-tb;fill:#000000;fill-opacity:1;fill-rule:nonzero;stroke:none"
           id="text246"><tspan
             x="0 10 20 30 40 50 60 70 80 90 100 110 120 130 140 150"
             y="0"
             sodipodi:role="line"
             id="tspan244">OrdersRepository</tspan></text>
        <text
           xml:space="preserve"
           transform="translate(5383,836)"
           style="font-variant:normal;font-weight:normal;font-size:20px;font-family:'Times New Roman';-inkscape-font-specification:TimesNewRomanPSMT;writing-mode:lr-tb;fill:#000000;fill-opacity:1;fill-rule:nonzero;stroke:none"
           id="text250"><tspan
             x="0 6 15 20 29 36 42 51 60 69 74 83 89 96 105 114 124 133 138 148 157 163 169 174"
             y="0"
             sodipodi:role="line"
             id="tspan248">interface already built,</tspan></text>
        <text
           xml:space="preserve"
           transform="translate(4872,859)"
           style="font-variant:normal;font-weight:normal;font-size:20px;font-family:'Times New Roman';-inkscape-font-specification:TimesNewRomanPSMT;writing-mode:lr-tb;fill:#000000;fill-opacity:1;fill-rule:nonzero;stroke:none"
           id="text254"><tspan
             x="0 5 15 25 30 35 41 46 55 64 73 78 86 92 106 116 122 131 136 146 155 165 174 183 193 202 211 220 229 236 242 251 257 266 275 280 285 290 299 308 313 319 333 343 349 358 372 381 390 395 404 409 415 425 434 439 445 454 459 469 474 488 497 502 511 521 530 535 542 552 558 564 573 579 584 589 600 609 616 622 631 640 645 651"
             y="0"
             sodipodi:role="line"
             id="tspan252">too. I can simply dependency-inject the implementation into my controller. Perfect!”</tspan></text>
        <text
           xml:space="preserve"
           transform="translate(4872,882)"
           style="font-variant:normal;font-weight:normal;font-size:20px;font-family:'Times New Roman';-inkscape-font-specification:TimesNewRomanPSMT;writing-mode:lr-tb;fill:#000000;fill-opacity:1;fill-rule:nonzero;stroke:none"
           id="text258"><tspan
             x="0 14 20 25 34 41 46 55 60 66 75 90 95 109 119 126 135 140 154 160 169 178 183 192 200 205 215 221 226 235 244 253 262 268 277 286 291 296 301 310 319 324 339 348 358 363 373 382 391 400 405 411 419 424 439 449 456 465 471 480 489 494 499 512 521 526 531 536 545 554 559 566 575 583 592 598 603 609 618 627 632 645 662"
             y="0"
             sodipodi:role="line"
             id="tspan256">After a few more minutes of hacking, the web page is working. But the resulting UML</tspan></text>
        <text
           xml:space="preserve"
           transform="translate(4872,905)"
           style="font-variant:normal;font-weight:normal;font-size:20px;font-family:'Times New Roman';-inkscape-font-specification:TimesNewRomanPSMT;writing-mode:lr-tb;fill:#000000;fill-opacity:1;fill-rule:nonzero;stroke:none"
           id="text262"><tspan
             x="0 10 16 25 34 41 50 64 69 75 85 95 104 112 117 123 129 138 147"
             y="0"
             sodipodi:role="line"
             id="tspan260">diagram looks like </tspan></text>
        <text
           xml:space="preserve"
           transform="translate(5024,905)"
           style="font-variant:normal;font-weight:normal;font-size:20px;font-family:'Times New Roman';-inkscape-font-specification:TimesNewRomanPSMT;writing-mode:lr-tb;fill:#0000ee;fill-opacity:1;fill-rule:nonzero;stroke:none"
           id="text266"><tspan
             x="0 11 17 26 35 42 51 56 66 76 81"
             y="0"
             sodipodi:role="line"
             id="tspan264">Figure 34.5</tspan></text>
        <path
           d="m 5024,906.5 h 90 z"
           style="fill:none;stroke:#0000ee;stroke-width:1;stroke-linecap:square;stroke-linejoin:miter;stroke-miterlimit:10;stroke-dasharray:none;stroke-opacity:1"
           id="path268" />
        <text
           xml:space="preserve"
           transform="translate(5115,905)"
           style="font-variant:normal;font-weight:normal;font-size:20px;font-family:'Times New Roman';-inkscape-font-specification:TimesNewRomanPSMT;writing-mode:lr-tb;fill:#000000;fill-opacity:1;fill-rule:nonzero;stroke:none"
           id="text272"><tspan
             x="0"
             y="0"
             id="tspan270">.</tspan></text>
        <text
           xml:space="preserve"
           transform="translate(4872,948)"
           style="font-variant:normal;font-weight:normal;font-size:20px;font-family:'Times New Roman';-inkscape-font-specification:TimesNewRomanPSMT;writing-mode:lr-tb;fill:#000000;fill-opacity:1;fill-rule:nonzero;stroke:none"
           id="text276"><tspan
             x="0 12 21 30 35 45 54 64 73 82 92 101 110 119 128 133 142 149 156 166 181 189 194 202 207 213 219 225 230 240 250 256 265 270 275 285 295 310 319 334 343 350 360 365 370 380 389 394 399 404 413 422"
             y="0"
             sodipodi:role="line"
             id="tspan274">The dependency arrows still point downward, but the </tspan></text>
        <text
           xml:space="preserve"
           transform="translate(5299,948)"
           style="font-variant:normal;font-weight:normal;font-size:16px;font-family:'Courier New';-inkscape-font-specification:CourierNewPSMT;writing-mode:lr-tb;fill:#000000;fill-opacity:1;fill-rule:nonzero;stroke:none"
           id="text280"><tspan
             x="0 10 20 30 40 50 60 70 80 90 100 110 120 130 140 150"
             y="0"
             sodipodi:role="line"
             id="tspan278">OrdersController</tspan></text>
        <text
           xml:space="preserve"
           transform="translate(5464,948)"
           style="font-variant:normal;font-weight:normal;font-size:20px;font-family:'Times New Roman';-inkscape-font-specification:TimesNewRomanPSMT;writing-mode:lr-tb;fill:#000000;fill-opacity:1;fill-rule:nonzero;stroke:none"
           id="text284"><tspan
             x="0 6 14 19 28 38"
             y="0"
             sodipodi:role="line"
             id="tspan282">is now</tspan></text>
        <text
           xml:space="preserve"
           transform="translate(4872,971)"
           style="font-variant:normal;font-weight:normal;font-size:20px;font-family:'Times New Roman';-inkscape-font-specification:TimesNewRomanPSMT;writing-mode:lr-tb;fill:#000000;fill-opacity:1;fill-rule:nonzero;stroke:none"
           id="text288"><tspan
             x="0 9 19 29 35 40 46 56 65 74 80 86 95 100 110 119 129 138 146 154 160 169 178 183 188 197 206"
             y="0"
             sodipodi:role="line"
             id="tspan286">additionally bypassing the </tspan></text>
        <text
           xml:space="preserve"
           transform="translate(5083,971)"
           style="font-variant:normal;font-weight:normal;font-size:16px;font-family:'Courier New';-inkscape-font-specification:CourierNewPSMT;writing-mode:lr-tb;fill:#000000;fill-opacity:1;fill-rule:nonzero;stroke:none"
           id="text292"><tspan
             x="0 10 20 30 40 50 60 70 80 90 100 110 120"
             y="0"
             sodipodi:role="line"
             id="tspan290">OrdersService</tspan></text>
        <text
           xml:space="preserve"
           transform="translate(5218,971)"
           style="font-variant:normal;font-weight:normal;font-size:20px;font-family:'Times New Roman';-inkscape-font-specification:TimesNewRomanPSMT;writing-mode:lr-tb;fill:#000000;fill-opacity:1;fill-rule:nonzero;stroke:none"
           id="text296"><tspan
             x="0 6 16 23 28 36 46 60 69 74 83 91 100 105 114 123 131 140 148 153 158 170 179 185 193 198 208 215 224 233 242 248 256 265 270 276 286 295 300 306"
             y="0"
             sodipodi:role="line"
             id="tspan294">for some use cases. This organization is</tspan></text>
      </g>
    </g>
  </g>
</svg>
