<?xml version="1.0" encoding="UTF-8" standalone="no"?>
<!-- Created with Inkscape (http://www.inkscape.org/) -->

<svg
   version="1.1"
   id="svg2"
   width="816"
   height="1056"
   viewBox="0 0 816 1056"
   sodipodi:docname="clean_arch.pdf"
   xmlns:inkscape="http://www.inkscape.org/namespaces/inkscape"
   xmlns:sodipodi="http://sodipodi.sourceforge.net/DTD/sodipodi-0.dtd"
   xmlns="http://www.w3.org/2000/svg"
   xmlns:svg="http://www.w3.org/2000/svg">
  <defs
     id="defs6">
    <clipPath
       clipPathUnits="userSpaceOnUse"
       id="clipPath18">
      <path
         d="m 1392,0 h 696 V 1056 H 1392 V 0"
         clip-rule="evenodd"
         id="path16" />
    </clipPath>
    <clipPath
       clipPathUnits="userSpaceOnUse"
       id="clipPath28">
      <path
         d="m 1392,66 h 696 V 996 H 1392 V 66"
         clip-rule="evenodd"
         id="path26" />
    </clipPath>
  </defs>
  <sodipodi:namedview
     id="namedview4"
     pagecolor="#ffffff"
     bordercolor="#000000"
     borderopacity="0.25"
     inkscape:showpageshadow="2"
     inkscape:pageopacity="0.0"
     inkscape:pagecheckerboard="0"
     inkscape:deskcolor="#d1d1d1" />
  <g
     id="g8"
     inkscape:groupmode="layer"
     inkscape:label="clean_arch"
     transform="translate(59.999999,2.64e-5)">
    <g
       id="g10" />
    <g
       id="g12"
       transform="translate(-1392)">
      <g
         id="g14"
         clip-path="url(#clipPath18)">
        <g
           id="g20" />
      </g>
    </g>
    <g
       id="g22"
       transform="translate(-1392)">
      <g
         id="g24"
         clip-path="url(#clipPath28)">
        <text
           xml:space="preserve"
           transform="translate(1392,83)"
           style="font-variant:normal;font-weight:normal;font-size:20px;font-family:'Times New Roman';-inkscape-font-specification:TimesNewRomanPSMT;writing-mode:lr-tb;fill:#000000;fill-opacity:1;fill-rule:nonzero;stroke:none"
           id="text32"><tspan
             x="0 12 21 30 35 50 59 68 77 86 95 103 111 116 126 132 137 142 151 157 165 170 180 187 193 202 211 217 227 233 242 247 253 261 266 280 290 297 306 311 316 325 334 343 348 357 367 381 391 400 409 417 426 431 440 450 455 461 471 478 483 493 502 507 512 521 530 535 543 548 555 564 573 582 587 596 601 611 617 622 627 636 645 650 659 668 677"
             y="0"
             sodipodi:role="line"
             id="tspan30">The weakness of this principle is more than compensated for by the strength of the next</tspan></text>
        <text
           xml:space="preserve"
           transform="translate(1392,106)"
           style="font-variant:normal;font-weight:normal;font-size:20px;font-family:'Times New Roman';-inkscape-font-specification:TimesNewRomanPSMT;writing-mode:lr-tb;fill:#000000;fill-opacity:1;fill-rule:nonzero;stroke:none"
           id="text36"><tspan
             x="0 5 20 30 35 45 52 58 67 76 82 92 98 107 115 120 125 131 140 150 159 168 178 183 188 193 202 211 216 229 242 252 257 266 275 285 290 295 304 313 318 331 344 354 359 367 372 379 389 398 407 413 422 427 437 446 452 458 467 476 481 486 495 504 509 514 523 529 537 542 552 559 565 574 583 589 599 605 614 619 624 634 643 648 653 659 668 673"
             y="0"
             sodipodi:role="line"
             id="tspan34">two principles. Indeed, the CCP and the CRP strongly define the this principle, but in a</tspan></text>
        <text
           xml:space="preserve"
           transform="translate(1392,129)"
           style="font-variant:normal;font-weight:normal;font-size:20px;font-family:'Times New Roman';-inkscape-font-specification:TimesNewRomanPSMT;writing-mode:lr-tb;fill:#000000;fill-opacity:1;fill-rule:nonzero;stroke:none"
           id="text40"><tspan
             x="0 9 18 27 36 41 47 57 66 71 79 88 97 105 114"
             y="0"
             sodipodi:role="line"
             id="tspan38">negative sense.</tspan></text>
        <text
           xml:space="preserve"
           transform="translate(1392,199)"
           style="font-variant:normal;font-weight:bold;font-size:33px;font-family:'Times New Roman';-inkscape-font-specification:TimesNewRomanPS-BoldMT;writing-mode:lr-tb;fill:#000000;fill-opacity:1;fill-rule:nonzero;stroke:none"
           id="text44"><tspan
             x="0"
             y="0"
             id="tspan42">T</tspan></text>
        <text
           xml:space="preserve"
           transform="translate(1414,199)"
           style="font-variant:normal;font-weight:bold;font-size:33px;font-family:'Times New Roman';-inkscape-font-specification:TimesNewRomanPS-BoldMT;writing-mode:lr-tb;fill:#000000;fill-opacity:1;fill-rule:nonzero;stroke:none"
           id="text48"><tspan
             x="0 26"
             y="0"
             sodipodi:role="line"
             id="tspan46">HE</tspan></text>
        <text
           xml:space="preserve"
           transform="translate(1470,199)"
           style="font-variant:normal;font-weight:bold;font-size:33px;font-family:'Times New Roman';-inkscape-font-specification:TimesNewRomanPS-BoldMT;writing-mode:lr-tb;fill:#000000;fill-opacity:1;fill-rule:nonzero;stroke:none"
           id="text52"><tspan
             x="0"
             y="0"
             id="tspan50">C</tspan></text>
        <text
           xml:space="preserve"
           transform="translate(1494,199)"
           style="font-variant:normal;font-weight:bold;font-size:33px;font-family:'Times New Roman';-inkscape-font-specification:TimesNewRomanPS-BoldMT;writing-mode:lr-tb;fill:#000000;fill-opacity:1;fill-rule:nonzero;stroke:none"
           id="text56"><tspan
             x="0 26 58 90 116"
             y="0"
             sodipodi:role="line"
             id="tspan54">OMMON</tspan></text>
        <text
           xml:space="preserve"
           transform="translate(1642,199)"
           style="font-variant:normal;font-weight:bold;font-size:33px;font-family:'Times New Roman';-inkscape-font-specification:TimesNewRomanPS-BoldMT;writing-mode:lr-tb;fill:#000000;fill-opacity:1;fill-rule:nonzero;stroke:none"
           id="text60"><tspan
             x="0"
             y="0"
             id="tspan58">C</tspan></text>
        <text
           xml:space="preserve"
           transform="translate(1666,199)"
           style="font-variant:normal;font-weight:bold;font-size:33px;font-family:'Times New Roman';-inkscape-font-specification:TimesNewRomanPS-BoldMT;writing-mode:lr-tb;fill:#000000;fill-opacity:1;fill-rule:nonzero;stroke:none"
           id="text64"><tspan
             x="0 22 48 66 90 114"
             y="0"
             sodipodi:role="line"
             id="tspan62">LOSURE</tspan></text>
        <text
           xml:space="preserve"
           transform="translate(1810,199)"
           style="font-variant:normal;font-weight:bold;font-size:33px;font-family:'Times New Roman';-inkscape-font-specification:TimesNewRomanPS-BoldMT;writing-mode:lr-tb;fill:#000000;fill-opacity:1;fill-rule:nonzero;stroke:none"
           id="text68"><tspan
             x="0"
             y="0"
             id="tspan66">P</tspan></text>
        <text
           xml:space="preserve"
           transform="translate(1830,199)"
           style="font-variant:normal;font-weight:bold;font-size:33px;font-family:'Times New Roman';-inkscape-font-specification:TimesNewRomanPS-BoldMT;writing-mode:lr-tb;fill:#000000;fill-opacity:1;fill-rule:nonzero;stroke:none"
           id="text72"><tspan
             x="0 24 37 61 85 98 118 140"
             y="0"
             sodipodi:role="line"
             id="tspan70">RINCIPLE</tspan></text>
        <text
           xml:space="preserve"
           transform="translate(1416,231)"
           style="font-variant:normal;font-weight:normal;font-size:15px;font-family:'Times New Roman';-inkscape-font-specification:TimesNewRomanPSMT;writing-mode:lr-tb;fill:#000000;fill-opacity:1;fill-rule:nonzero;stroke:none"
           id="text76"><tspan
             x="0 10 17 21 28 35 40 44 47 54 58 65 69 76 83 94 101 108 115 122 129 133 139 143 147 154 161 167 174 178 185 188 195 201 207 214 220 224 228 235 242 246 250 257 264 271 278 285 292 296 301 308 313 317 321 328 335 339 345 352 363 370 374 379 386 393 399 406 413 419 423 430 437 444 448 455 459 463 467 474 481 485 491 498 509 516 520 524 527 538 545 551 555 559 567 574 581 588 593 600 604 611 615 618 625 629"
             y="0"
             sodipodi:role="line"
             id="tspan74">Gather into components those classes that change for the same reasons and at the same times. Separate into</tspan></text>
        <text
           xml:space="preserve"
           transform="translate(1416,249)"
           style="font-variant:normal;font-weight:normal;font-size:15px;font-family:'Times New Roman';-inkscape-font-specification:TimesNewRomanPSMT;writing-mode:lr-tb;fill:#000000;fill-opacity:1;fill-rule:nonzero;stroke:none"
           id="text80"><tspan
             x="0 7 10 15 20 27 32 39 46 50 54 61 68 79 86 93 100 107 114 118 124 128 132 139 146 152 159 163 170 173 180 186 192 199 205 209 213 220 227 231 235 242 249 256 263 270 277 281 288 292 296 303 306 311 316 323 328 335 342 346 350 354 357 368 375 381 385 392 399 406 410 415 422 427 431 438 441 446 451 458 463 470 477 481 485 490 497 504 510 517 524"
             y="0"
             sodipodi:role="line"
             id="tspan78">different components those classes that change at different times and for different reasons</tspan></text>
        <text
           xml:space="preserve"
           transform="translate(1946,249)"
           style="font-variant:normal;font-weight:normal;font-size:15px;font-family:'Times New Roman';-inkscape-font-specification:TimesNewRomanPSMT;writing-mode:lr-tb;fill:#000000;fill-opacity:1;fill-rule:nonzero;stroke:none"
           id="text84"><tspan
             x="0"
             y="0"
             id="tspan82">.</tspan></text>
        <text
           xml:space="preserve"
           transform="translate(1392,291)"
           style="font-variant:normal;font-weight:normal;font-size:20px;font-family:'Times New Roman';-inkscape-font-specification:TimesNewRomanPSMT;writing-mode:lr-tb;fill:#000000;fill-opacity:1;fill-rule:nonzero;stroke:none"
           id="text88"><tspan
             x="0 12 21 27 35 40 46 54 59 64 73 82 87 98 104 113 122 128 137 142 155 164 172 182 192 201 209 215 225 231 237 243 248 257 262 273 280 286 295 304 310 320 326 335 340 347 356 364 369 378 383 392 402 407 413 423 430 435 444 454 468 478 488 497 506 515 520 528 533 538 546 555 563 568 573 582 590 595 600 609 618 623 634 647"
             y="0"
             sodipodi:role="line"
             id="tspan86">This is the Single Responsibility Principle restated for components. Just as the SRP</tspan></text>
        <text
           xml:space="preserve"
           transform="translate(1392,314)"
           style="font-variant:normal;font-weight:normal;font-size:20px;font-family:'Times New Roman';-inkscape-font-specification:TimesNewRomanPSMT;writing-mode:lr-tb;fill:#000000;fill-opacity:1;fill-rule:nonzero;stroke:none"
           id="text92"><tspan
             x="0 8 17 26 34 39 44 53 62 67 72 81"
             y="0"
             sodipodi:role="line"
             id="tspan90">says that a </tspan></text>
        <text
           xml:space="preserve"
           transform="translate(1478,314)"
           style="font-variant:normal;font-weight:normal;font-size:20px;font-family:'Times New Roman';-inkscape-font-specification:TimesNewRomanPSMT;writing-mode:lr-tb;fill:#000000;fill-opacity:1;fill-rule:nonzero;stroke:none"
           id="text96"><tspan
             x="0 9 15 24 32"
             y="0"
             sodipodi:role="line"
             id="tspan94">class</tspan></text>
        <text
           xml:space="preserve"
           transform="translate(1523,314)"
           style="font-variant:normal;font-weight:normal;font-size:20px;font-family:'Times New Roman';-inkscape-font-specification:TimesNewRomanPSMT;writing-mode:lr-tb;fill:#000000;fill-opacity:1;fill-rule:nonzero;stroke:none"
           id="text100"><tspan
             x="0 8 17 27 36 42 52 57 66 76 81 86 95 105 114 119 128 134 143 148 162 171 177 182 188 198 204 213 221 226 233 242 251 259 269 278 286 291 296 306 311 320 329 338 347 356 365 370 375 383 393 398 403 412 421 426 439 449 463 477 487 496 501 514 520 530 538 547 554"
             y="0"
             sodipodi:role="line"
             id="tspan98">should not contain multiples reasons to change, so the Common Closure</tspan></text>
        <text
           xml:space="preserve"
           transform="translate(1392,337)"
           style="font-variant:normal;font-weight:normal;font-size:20px;font-family:'Times New Roman';-inkscape-font-specification:TimesNewRomanPSMT;writing-mode:lr-tb;fill:#000000;fill-opacity:1;fill-rule:nonzero;stroke:none"
           id="text104"><tspan
             x="0 11 18 24 33 42 48 58 64 73 78 85 98 111 122 129 134 142 151 160 168 173 178 187 196 201 206 215"
             y="0"
             sodipodi:role="line"
             id="tspan102">Principle (CCP) says that a </tspan></text>
        <text
           xml:space="preserve"
           transform="translate(1612,337)"
           style="font-variant:normal;font-weight:normal;font-size:20px;font-family:'Times New Roman';-inkscape-font-specification:TimesNewRomanPSMT;writing-mode:lr-tb;fill:#000000;fill-opacity:1;fill-rule:nonzero;stroke:none"
           id="text108"><tspan
             x="0 9 19 33 43 53 62 71 80"
             y="0"
             sodipodi:role="line"
             id="tspan106">component</tspan></text>
        <text
           xml:space="preserve"
           transform="translate(1702,337)"
           style="font-variant:normal;font-weight:normal;font-size:20px;font-family:'Times New Roman';-inkscape-font-specification:TimesNewRomanPSMT;writing-mode:lr-tb;fill:#000000;fill-opacity:1;fill-rule:nonzero;stroke:none"
           id="text112"><tspan
             x="0 8 17 27 36 42 52 57 66 76 81 86 95 104 114 123 128 142 151 157 162 168 178 184 193 198 205 214 223 231 241 250 258 263 268 278 283 292 301 310 319 328 337"
             y="0"
             sodipodi:role="line"
             id="tspan110">should not have multiple reasons to change.</tspan></text>
        <text
           xml:space="preserve"
           transform="translate(1392,380)"
           style="font-variant:normal;font-weight:normal;font-size:20px;font-family:'Times New Roman';-inkscape-font-specification:TimesNewRomanPSMT;writing-mode:lr-tb;fill:#000000;fill-opacity:1;fill-rule:nonzero;stroke:none"
           id="text116"><tspan
             x="0 11 21 28 33 47 57 65 70 75 84 94 104 110 116 125 134 139 145 155 164 172 177 182 196 205 211 220 225 234 240 249 258 268 274 280 286 291 300 305 311 319 324 338 348 355 364 369 375 389 399 409 416 421 430 439 444 449 454 463 472 481 486 493 502 511 519 528 538 544 550 556 561 569 574 579 585 591 596 601 610 619 624 633 643 653 662 667 673"
             y="0"
             sodipodi:role="line"
             id="tspan114">For most applications, maintainability is more important than reusability. If the code in</tspan></text>
        <text
           xml:space="preserve"
           transform="translate(1392,403)"
           style="font-variant:normal;font-weight:normal;font-size:20px;font-family:'Times New Roman';-inkscape-font-specification:TimesNewRomanPSMT;writing-mode:lr-tb;fill:#000000;fill-opacity:1;fill-rule:nonzero;stroke:none"
           id="text120"><tspan
             x="0 9 18 23 32 42 52 58 64 73 82 87 93 103 112 117 131 140 148 153 158 167 176 185 194 203 212 217 222 231 241 250 255 270 280 289 295 305 310 317 326 331 340 349 356 361 366 375 384 389 394 403 409 415 420 430 436 441 446 455 464 469 478 487 496 505 514 523 531 536 546 555 564 573 580 585 591 600 605 615 624"
             y="0"
             sodipodi:role="line"
             id="tspan118">an application must change, you would rather that all of the changes occur in one</tspan></text>
        <text
           xml:space="preserve"
           transform="translate(1392,429)"
           style="font-variant:normal;font-weight:normal;font-size:20px;font-family:'Times New Roman';-inkscape-font-specification:TimesNewRomanPSMT;writing-mode:lr-tb;fill:#000000;fill-opacity:1;fill-rule:nonzero;stroke:none"
           id="text124"><tspan
             x="0 9 19 33 43 53 62 71 80 85 90 95 102 111 116 125 134 141 146 151 160 169 178 183 193 202 208 217 226 231 241 247 255 260 267 273 283 292 297 306 316 321 330 339 346 356 364 372 377 391 400 409 418 423 432 442 456 466 476 485 494 503 508 516"
             y="0"
             sodipodi:role="line"
             id="tspan122">component, rather than being distributed across many components.</tspan></text>
        <text
           xml:space="preserve"
           transform="translate(1913,422)"
           style="font-variant:normal;font-weight:normal;font-size:15px;font-family:'Times New Roman';-inkscape-font-specification:TimesNewRomanPSMT;writing-mode:lr-tb;fill:#0000ee;fill-opacity:1;fill-rule:nonzero;stroke:none"
           id="text128"><tspan
             x="0"
             y="0"
             id="tspan126">1</tspan></text>
        <path
           d="m 1913,423.5 h 6 z"
           style="fill:none;stroke:#0000ee;stroke-width:1;stroke-linecap:square;stroke-linejoin:miter;stroke-miterlimit:10;stroke-dasharray:none;stroke-opacity:1"
           id="path130" />
        <text
           xml:space="preserve"
           transform="translate(1925,429)"
           style="font-variant:normal;font-weight:normal;font-size:20px;font-family:'Times New Roman';-inkscape-font-specification:TimesNewRomanPSMT;writing-mode:lr-tb;fill:#000000;fill-opacity:1;fill-rule:nonzero;stroke:none"
           id="text134"><tspan
             x="0 6 12 17 26 35 44 53 62 71 79 84 93 100"
             y="0"
             sodipodi:role="line"
             id="tspan132">If changes are</tspan></text>
        <text
           xml:space="preserve"
           transform="translate(1392,452)"
           style="font-variant:normal;font-weight:normal;font-size:20px;font-family:'Times New Roman';-inkscape-font-specification:TimesNewRomanPSMT;writing-mode:lr-tb;fill:#000000;fill-opacity:1;fill-rule:nonzero;stroke:none"
           id="text138"><tspan
             x="0 9 19 28 34 40 49 58 68 73 78 88 93 102 107 115 121 130 139 145 154 159 168 178 192 202 212 221 230 239 244 249 254 259 268 277 286 291 306 315 320 329 338 347 357 362 367 377 382 389 398 408 417 427 433 443 452 457 467 476 482 491 496 501 510 519 524 534 543 552 557 566 575 584 593 602 611"
             y="0"
             sodipodi:role="line"
             id="tspan136">confined to a single component, then we need to redeploy only the one changed</tspan></text>
        <text
           xml:space="preserve"
           transform="translate(1392,475)"
           style="font-variant:normal;font-weight:normal;font-size:20px;font-family:'Times New Roman';-inkscape-font-specification:TimesNewRomanPSMT;writing-mode:lr-tb;fill:#000000;fill-opacity:1;fill-rule:nonzero;stroke:none"
           id="text142"><tspan
             x="0 9 19 33 43 53 62 71 80 85 90 95 109 114 123 132 139 144 153 163 177 187 197 206 215 224 229 237 242 247 256 265 270 275 285 295 304 311 316 321 331 340 350 359 368 378 383 393 402 407 412 421 430 435 444 453 462 471 480 489 499 504 513 523 537 547 557 566 575 584 589 594 604 614 619 628 638 643 648 657 666 675"
             y="0"
             sodipodi:role="line"
             id="tspan140">component. Other components that don’t depend on the changed component do not need</tspan></text>
        <text
           xml:space="preserve"
           transform="translate(1392,498)"
           style="font-variant:normal;font-weight:normal;font-size:20px;font-family:'Times New Roman';-inkscape-font-specification:TimesNewRomanPSMT;writing-mode:lr-tb;fill:#000000;fill-opacity:1;fill-rule:nonzero;stroke:none"
           id="text146"><tspan
             x="0 5 15 20 30 39 44 51 60 70 79 85 91 101 110 115 124 134 139 149 156 161 168 177 187 196 206 212 222 231 240 250"
             y="0"
             sodipodi:role="line"
             id="tspan144">to be revalidated or redeployed.</tspan></text>
        <text
           xml:space="preserve"
           transform="translate(1392,541)"
           style="font-variant:normal;font-weight:normal;font-size:20px;font-family:'Times New Roman';-inkscape-font-specification:TimesNewRomanPSMT;writing-mode:lr-tb;fill:#000000;fill-opacity:1;fill-rule:nonzero;stroke:none"
           id="text150"><tspan
             x="0 12 21 30 35 48 61 71 76 86 93 103 117 127 132 140 145 154 162 167 172 182 187 196 205 210 219 228 235 240 245 255 264 273 278 287 296 303 308 314 323 328 338 347 356 361 371 377 386 395 404 409 418 424 430 435 440 449 458 463 472 478 487 495 503 512 520 525 530 539 548 553 558 567 574 583 588 594 600 609 618 624 633 638 643"
             y="0"
             sodipodi:role="line"
             id="tspan148">The CCP prompts us to gather together in one place all the classes that are likely to</tspan></text>
        <text
           xml:space="preserve"
           transform="translate(1392,564)"
           style="font-variant:normal;font-weight:normal;font-size:20px;font-family:'Times New Roman';-inkscape-font-specification:TimesNewRomanPSMT;writing-mode:lr-tb;fill:#000000;fill-opacity:1;fill-rule:nonzero;stroke:none"
           id="text154"><tspan
             x="0 9 18 27 36 45 54 59 65 75 82 87 92 101 110 115 123 132 146 155 160 167 176 185 193 203 212 220 225 230 236 242 247 252 267 277 282 291 297 306 314 322 331 339 344 353 360 369 374 382 392 397 402 408 417 426 431 437 446 451 461 471 480 489 499 504 509 518 524 529 538 547 554 559 569 578 587 595 601 610 619 625 631 640 645 655"
             y="0"
             sodipodi:role="line"
             id="tspan152">change for the same reasons. If two classes are so tightly bound, either physically or</tspan></text>
        <text
           xml:space="preserve"
           transform="translate(1392,587)"
           style="font-variant:normal;font-weight:normal;font-size:20px;font-family:'Times New Roman';-inkscape-font-specification:TimesNewRomanPSMT;writing-mode:lr-tb;fill:#000000;fill-opacity:1;fill-rule:nonzero;stroke:none"
           id="text158"><tspan
             x="0 9 19 28 37 46 56 61 70 79 85 91 99 104 109 114 123 132 137 142 147 156 165 174 179 188 194 209 218 227 235 240 249 258 267 276 285 294 299 304 314 323 332 337 346 355 361 366 371 376 385 394 403 408 413 422 431 440 445 455 464 470 480 489 498 503 509 518 523 528 537 546 551 559 568 582 591 596 605 615 629 639 649 658 667 676 681"
             y="0"
             sodipodi:role="line"
             id="tspan156">conceptually, that they always change together, then they belong in the same component.</tspan></text>
        <text
           xml:space="preserve"
           transform="translate(1392,610)"
           style="font-variant:normal;font-weight:normal;font-size:20px;font-family:'Times New Roman';-inkscape-font-specification:TimesNewRomanPSMT;writing-mode:lr-tb;fill:#000000;fill-opacity:1;fill-rule:nonzero;stroke:none"
           id="text162"><tspan
             x="0 12 21 27 35 40 54 60 69 75 89 95 103 112 120 125 130 139 148 153 168 178 185 194 200 210 219 229 234 241 250 256 265 270 279 289 294 299 309 314 321 330 336 345 354 362 368 377 386 391 396 403 412 422 431 437 443 453 462 467 473 482 491 496 501 510 519 529 534 541 550 560 569 579 585 595 604 610 619 628 633 638 647"
             y="0"
             sodipodi:role="line"
             id="tspan160">This minimizes the workload related to releasing, revalidating, and redeploying the</tspan></text>
        <text
           xml:space="preserve"
           transform="translate(1392,633)"
           style="font-variant:normal;font-weight:normal;font-size:20px;font-family:'Times New Roman';-inkscape-font-specification:TimesNewRomanPSMT;writing-mode:lr-tb;fill:#000000;fill-opacity:1;fill-rule:nonzero;stroke:none"
           id="text166"><tspan
             x="0 8 18 24 29 44 53 60 69"
             y="0"
             sodipodi:role="line"
             id="tspan164">software.</tspan></text>
        <text
           xml:space="preserve"
           transform="translate(1392,676)"
           style="font-variant:normal;font-weight:normal;font-size:20px;font-family:'Times New Roman';-inkscape-font-specification:TimesNewRomanPSMT;writing-mode:lr-tb;fill:#000000;fill-opacity:1;fill-rule:nonzero;stroke:none"
           id="text170"><tspan
             x="0 12 21 27 35 40 50 57 63 72 81 87 97 103 112 117 123 131 136 145 151 161 169 178 184 193 198 207 215 223 233 242 248 257 262 271 281 286 301 307 312 321 326 331 340 349 354 368 378 387 396 401 414 420 430 438 447 457 462 473 480 486 495 504 510 520 526 535 540 547 561 574 585 592 597 602 608 617 627 636 645 655 660 665 671 676 681 687"
             y="0"
             sodipodi:role="line"
             id="tspan168">This principle is closely associated with the Open Closed Principle (OCP). Indeed, it is</tspan></text>
        <text
           xml:space="preserve"
           transform="translate(1392,699)"
           style="font-variant:normal;font-weight:normal;font-size:20px;font-family:'Times New Roman';-inkscape-font-specification:TimesNewRomanPSMT;writing-mode:lr-tb;fill:#000000;fill-opacity:1;fill-rule:nonzero;stroke:none"
           id="text174"><tspan
             x="0 9 18 24 34 42 51 58 67 76 81 87 96 101 106 115 124 129 143 156 166 171 179 188 197 205 214 219 229 235 240 245 254 263 268 283 293 300 310 315 320 329 338 343 348 353 362 371 376 389 402 412 417 426 436 446 453 462 470 478 487 495 500 505 517 526 535 540 554 567 577 582 590 595 604 609 618 626 631 636 645 654"
             y="0"
             sodipodi:role="line"
             id="tspan172">“closure” in the OCP sense of the word that the CCP addresses. The OCP states that</tspan></text>
        <text
           xml:space="preserve"
           transform="translate(1392,722)"
           style="font-variant:normal;font-weight:normal;font-size:20px;font-family:'Times New Roman';-inkscape-font-specification:TimesNewRomanPSMT;writing-mode:lr-tb;fill:#000000;fill-opacity:1;fill-rule:nonzero;stroke:none"
           id="text178"><tspan
             x="0 9 15 24 32 40 49 57 62 70 79 89 98 104 114 119 129 138 143 152 158 168 176 185 195 200 206 216 223 228 242 252 262 268 274 280 289 298 303 309 319 328 333 343 352 357 362 372 382 391 400 405 411 421 428 433 442 451 456 465 474 482 488 498 507 512 517 530 539 548 557 566 574 583 588 598 608 618"
             y="0"
             sodipodi:role="line"
             id="tspan176">classes should be closed for modification but open for extension. Because 100%</tspan></text>
        <text
           xml:space="preserve"
           transform="translate(1392,745)"
           style="font-variant:normal;font-weight:normal;font-size:20px;font-family:'Times New Roman';-inkscape-font-specification:TimesNewRomanPSMT;writing-mode:lr-tb;fill:#000000;fill-opacity:1;fill-rule:nonzero;stroke:none"
           id="text182"><tspan
             x="0 9 15 25 33 42 49 58 63 69 77 82 91 101 106 111 120 125 130 139 145 154 163 173 179 188 193 198 207 213 223 231 240 247 256 261 275 284 292 297 302 312 321 326 334 339 346 355 360 369 378 384 393 398 403 419 428 433 443 452 460 466 475 484 489 499 508 515 520 529 535 544 552 560 569 577 582 590 599 608 617 622 627 636 645 650 655 660 669 678"
             y="0"
             sodipodi:role="line"
             id="tspan180">closure is not attainable, closure must be strategic. We design our classes such that they</tspan></text>
        <text
           xml:space="preserve"
           transform="translate(1392,768)"
           style="font-variant:normal;font-weight:normal;font-size:20px;font-family:'Times New Roman';-inkscape-font-specification:TimesNewRomanPSMT;writing-mode:lr-tb;fill:#000000;fill-opacity:1;fill-rule:nonzero;stroke:none"
           id="text186"><tspan
             x="0 9 16 25 30 39 45 55 63 72 82 87 92 102 107 112 121 130 135 149 159 167 172 177 186 196 210 224 234 243 248 257 263 272 282 290 295 305 311 316 325 334 343 352 361 370 378 383 388 397 406 411 416 431 440 445 454 463 473 482 491 496 501 511 518 523 532 541 551 560 565 574 583 593 602 609 615 624 633 642 651 661"
             y="0"
             sodipodi:role="line"
             id="tspan184">are closed to the most common kinds of changes that we expect or have experienced.</tspan></text>
        <text
           xml:space="preserve"
           transform="translate(1392,811)"
           style="font-variant:normal;font-weight:normal;font-size:20px;font-family:'Times New Roman';-inkscape-font-specification:TimesNewRomanPSMT;writing-mode:lr-tb;fill:#000000;fill-opacity:1;fill-rule:nonzero;stroke:none"
           id="text190"><tspan
             x="0 12 21 30 35 48 61 71 76 85 99 109 115 121 127 133 142 150 155 160 169 175 183 188 194 203 211 219 229 238 243 253 262 267 276 285 290 299 308 315 321 330 339 344 349 359 368 377 382 391 400 407 412 418 427 432 442 447 452 461 470 475 483 492 506 515 520 529 539 553 563 573 582 591 600 605 610 615 624 634 642"
             y="0"
             sodipodi:role="line"
             id="tspan188">The CCP amplifies this lesson by gathering together into the same component those</tspan></text>
        <text
           xml:space="preserve"
           transform="translate(1392,834)"
           style="font-variant:normal;font-weight:normal;font-size:20px;font-family:'Times New Roman';-inkscape-font-specification:TimesNewRomanPSMT;writing-mode:lr-tb;fill:#000000;fill-opacity:1;fill-rule:nonzero;stroke:none"
           id="text194"><tspan
             x="0 9 15 24 32 40 49 57 62 67 76 85 90 95 104 111 120 125 134 140 150 158 167 177 182 187 197 202 207 216 225 230 238 247 261 270 275 280 289 299 308 316 321 331 337 342 351 360 369 378 387 396 404 409 414 426 435 444 452 457 462 477 486 495 504 509 518 523 532 541 550 559 568 577 582 588"
             y="0"
             sodipodi:role="line"
             id="tspan192">classes that are closed to the same types of changes. Thus, when a change in</tspan></text>
        <text
           xml:space="preserve"
           transform="translate(1392,857)"
           style="font-variant:normal;font-weight:normal;font-size:20px;font-family:'Times New Roman';-inkscape-font-specification:TimesNewRomanPSMT;writing-mode:lr-tb;fill:#000000;fill-opacity:1;fill-rule:nonzero;stroke:none"
           id="text198"><tspan
             x="0 7 16 26 35 41 48 57 71 80 89 94 102 107 116 126 140 149 157 162 171 177 187 196 205 210 215 220 229 238 243 248 257 266 275 284 293 302 307 316 325 333 338 347 352 361 371 381 391 396 405 414 423 432 441 450 455 465 471 476 486 495 501 510 519 524 531 540 548 553 560 566 575 580 589 599 604 609 619 624"
             y="0"
             sodipodi:role="line"
             id="tspan196">requirements comes along, that change has a good chance of being restricted to a</tspan></text>
        <text
           xml:space="preserve"
           transform="translate(1392,880)"
           style="font-variant:normal;font-weight:normal;font-size:20px;font-family:'Times New Roman';-inkscape-font-specification:TimesNewRomanPSMT;writing-mode:lr-tb;fill:#000000;fill-opacity:1;fill-rule:nonzero;stroke:none"
           id="text202"><tspan
             x="0 14 20 29 35 49 58 64 69 78 87 101 111 120 127 132 142 148 153 162 172 186 196 206 215 224 233 238 246"
             y="0"
             sodipodi:role="line"
             id="tspan200">minimal number of components.</tspan></text>
        <text
           xml:space="preserve"
           transform="translate(1392,929)"
           style="font-variant:normal;font-weight:bold;font-size:23px;font-family:'Times New Roman';-inkscape-font-specification:TimesNewRomanPS-BoldMT;writing-mode:lr-tb;fill:#000000;fill-opacity:1;fill-rule:nonzero;stroke:none"
           id="text206"><tspan
             x="0"
             y="0"
             id="tspan204">S</tspan></text>
        <text
           xml:space="preserve"
           transform="translate(1405,929)"
           style="font-variant:normal;font-weight:bold;font-size:23px;font-family:'Times New Roman';-inkscape-font-specification:TimesNewRomanPS-BoldMT;writing-mode:lr-tb;fill:#000000;fill-opacity:1;fill-rule:nonzero;stroke:none"
           id="text210"><tspan
             x="0 9 32 41 56 72 89 98 113 127 133 155 164 179"
             y="0"
             sodipodi:role="line"
             id="tspan208">IMILARITY WITH</tspan></text>
        <text
           xml:space="preserve"
           transform="translate(1608,929)"
           style="font-variant:normal;font-weight:bold;font-size:23px;font-family:'Times New Roman';-inkscape-font-specification:TimesNewRomanPS-BoldMT;writing-mode:lr-tb;fill:#000000;fill-opacity:1;fill-rule:nonzero;stroke:none"
           id="text214"><tspan
             x="0 13 30"
             y="0"
             sodipodi:role="line"
             id="tspan212">SRP</tspan></text>
        <text
           xml:space="preserve"
           transform="translate(1392,972)"
           style="font-variant:normal;font-weight:normal;font-size:20px;font-family:'Times New Roman';-inkscape-font-specification:TimesNewRomanPSMT;writing-mode:lr-tb;fill:#000000;fill-opacity:1;fill-rule:nonzero;stroke:none"
           id="text218"><tspan
             x="0 14 22 27 35 40 49 54 63 73 78 87 96 103 109 115 124 130 135 140 145 154 163 168 181 194 204 209 215 223 228 233 242 251 256 265 275 289 299 309 318 327 336 341 346 352 362 369 383 388 398 404 409 414 423 432 437 448 461 470 475 480 492 501 510 515 526 539 549 554 559 568 574 580 588 593 602 610 615 620"
             y="0"
             sodipodi:role="line"
             id="tspan216">As stated earlier, the CCP is the component form of the SRP. The SRP tells us to</tspan></text>
      </g>
    </g>
  </g>
</svg>
