<?xml version="1.0" encoding="UTF-8" standalone="no"?>
<!-- Created with Inkscape (http://www.inkscape.org/) -->

<svg
   version="1.1"
   id="svg2"
   width="816"
   height="1056"
   viewBox="0 0 816 1056"
   sodipodi:docname="clean_arch.pdf"
   xmlns:inkscape="http://www.inkscape.org/namespaces/inkscape"
   xmlns:sodipodi="http://sodipodi.sourceforge.net/DTD/sodipodi-0.dtd"
   xmlns="http://www.w3.org/2000/svg"
   xmlns:svg="http://www.w3.org/2000/svg">
  <defs
     id="defs6">
    <clipPath
       clipPathUnits="userSpaceOnUse"
       id="clipPath18">
      <path
         d="m 3480,0 h 696 V 1056 H 3480 V 0"
         clip-rule="evenodd"
         id="path16" />
    </clipPath>
    <clipPath
       clipPathUnits="userSpaceOnUse"
       id="clipPath28">
      <path
         d="m 3480,66 h 696 V 996 H 3480 V 66"
         clip-rule="evenodd"
         id="path26" />
    </clipPath>
  </defs>
  <sodipodi:namedview
     id="namedview4"
     pagecolor="#ffffff"
     bordercolor="#000000"
     borderopacity="0.25"
     inkscape:showpageshadow="2"
     inkscape:pageopacity="0.0"
     inkscape:pagecheckerboard="0"
     inkscape:deskcolor="#d1d1d1" />
  <g
     id="g8"
     inkscape:groupmode="layer"
     inkscape:label="clean_arch"
     transform="translate(59.999999,2.64e-5)">
    <g
       id="g10" />
    <g
       id="g12"
       transform="translate(-3480)">
      <g
         id="g14"
         clip-path="url(#clipPath18)">
        <g
           id="g20" />
      </g>
    </g>
    <g
       id="g22"
       transform="translate(-3480)">
      <g
         id="g24"
         clip-path="url(#clipPath28)">
        <text
           xml:space="preserve"
           transform="translate(3480,83)"
           style="font-variant:normal;font-weight:normal;font-size:20px;font-family:'Times New Roman';-inkscape-font-specification:TimesNewRomanPSMT;writing-mode:lr-tb;fill:#000000;fill-opacity:1;fill-rule:nonzero;stroke:none"
           id="text32"><tspan
             x="0 10 19 24 29 38 45 50 58 68 74 83 88 94 104 113 118 123 135 144 149 154 160 165 170 180 186 196 201 210 220 225 230 240 247 256 266 275 284 289 294 299 309 316 321 330 340 349 358 363 369 383 393 402 412 421 426 431 445 455 465 471 480 489 494 500 509 514 519 528 537 542 552 559 565 574 580 589 598 604 609 619 625 632 641 650 655 661 671"
             y="0"
             sodipodi:role="line"
             id="tspan30">better solution. Yet it did not prevent, or even impede, moving in the original direction</tspan></text>
        <text
           xml:space="preserve"
           transform="translate(3480,106)"
           style="font-variant:normal;font-weight:normal;font-size:20px;font-family:'Times New Roman';-inkscape-font-specification:TimesNewRomanPSMT;writing-mode:lr-tb;fill:#000000;fill-opacity:1;fill-rule:nonzero;stroke:none"
           id="text36"><tspan
             x="0 7 24 33 44 58 69 76 81 96 105 114 123 128 136 146 160 169 179 188 197 202 217 226 235 240 249 259 264 270 275"
             y="0"
             sodipodi:role="line"
             id="tspan34">(MySQL) when someone wanted it.</tspan></text>
        <text
           xml:space="preserve"
           transform="translate(3480,149)"
           style="font-variant:normal;font-weight:normal;font-size:20px;font-family:'Times New Roman';-inkscape-font-specification:TimesNewRomanPSMT;writing-mode:lr-tb;fill:#000000;fill-opacity:1;fill-rule:nonzero;stroke:none"
           id="text40"><tspan
             x="0 12 21 30 35 41 50 59 64 69 74 83 92 97 102 117 126 131 141 147 157 162 171 181 186 191 200 209 219 228 233 242 247 257 266 271 280 290 299 307 316 321 328 337 346 355 361 370 379 384 390 400 407 412 422 432 437 451 461 470 475 484 492 497 507 513 518 528 537 547 556 562 572 582 596 605 614 619 624 638 647 656 665"
             y="0"
             sodipodi:role="line"
             id="tspan38">The fact that we did not have a database running for 18 months of development meant</tspan></text>
        <text
           xml:space="preserve"
           transform="translate(3480,172)"
           style="font-variant:normal;font-weight:normal;font-size:20px;font-family:'Times New Roman';-inkscape-font-specification:TimesNewRomanPSMT;writing-mode:lr-tb;fill:#000000;fill-opacity:1;fill-rule:nonzero;stroke:none"
           id="text44"><tspan
             x="0 5 14 23 28 33 38 44 54 61 66 76 86 91 105 115 124 129 138 146 151 156 171 180 185 195 201 211 216 225 235 240 245 254 263 273 282 287 295 304 313 322 336 345 350 356 364 372 381 390 398 403 408 418 427 436 443 452 457 463 471 479 488 497 505 510 515 525 534 539 548 558 567 575 584 589 597 606 613 623 632"
             y="0"
             sodipodi:role="line"
             id="tspan42">that, for 18 months, we did not have schema issues, query issues, database server</tspan></text>
        <text
           xml:space="preserve"
           transform="translate(3480,195)"
           style="font-variant:normal;font-weight:normal;font-size:20px;font-family:'Times New Roman';-inkscape-font-specification:TimesNewRomanPSMT;writing-mode:lr-tb;fill:#000000;fill-opacity:1;fill-rule:nonzero;stroke:none"
           id="text48"><tspan
             x="0 6 14 22 31 40 48 53 58 68 77 85 93 108 118 125 135 140 146 154 162 171 180 188 193 198 207 217 226 235 244 253 258 264 274 283 288 293 299 313 322 327 333 341 349 358 367 375 380 385 394 403 413 418 427 433 439 444 449 458 467 472 482 487 496 505 512 517 526 535 543 548 557 562 568 576 584 593 602 610 615 620 629 638 643 648 655 664 670 678"
             y="0"
             sodipodi:role="line"
             id="tspan46">issues, password issues, connection time issues, and all the other nasty issues that raise</tspan></text>
        <text
           xml:space="preserve"
           transform="translate(3480,218)"
           style="font-variant:normal;font-weight:normal;font-size:20px;font-family:'Times New Roman';-inkscape-font-specification:TimesNewRomanPSMT;writing-mode:lr-tb;fill:#000000;fill-opacity:1;fill-rule:nonzero;stroke:none"
           id="text52"><tspan
             x="0 5 14 23 29 36 41 50 59 65 74 79 88 97 106 116 124 129 144 153 162 171 176 185 195 204 209 215 221 228 237 242 251 261 266 275 280 290 299 304 313 323 332 340 349 354 359 365 370 375 384 390 398 408 413 427 436 445 454 459 464 469 478 487 492 497 506 512 518 523 533 542 549 554 559 568 576 581 589 594 601 610 619 624 630 639 647 652"
             y="0"
             sodipodi:role="line"
             id="tspan50">their ugly heads when you fire up a database. It also meant that all our tests ran fast,</tspan></text>
        <text
           xml:space="preserve"
           transform="translate(3480,241)"
           style="font-variant:normal;font-weight:normal;font-size:20px;font-family:'Times New Roman';-inkscape-font-specification:TimesNewRomanPSMT;writing-mode:lr-tb;fill:#000000;fill-opacity:1;fill-rule:nonzero;stroke:none"
           id="text56"><tspan
             x="0 10 19 28 37 46 54 63 68 73 82 91 98 107 112 127 136 144 149 158 168 173 183 192 197 206 216 225 233 242 247 252 262 267 275 281 291 306 311 316 325 334 348 353 363 373 388 397"
             y="0"
             sodipodi:role="line"
             id="tspan54">because there was no database to slow them down.</tspan></text>
        <text
           xml:space="preserve"
           transform="translate(3480,284)"
           style="font-variant:normal;font-weight:normal;font-size:20px;font-family:'Times New Roman';-inkscape-font-specification:TimesNewRomanPSMT;writing-mode:lr-tb;fill:#000000;fill-opacity:1;fill-rule:nonzero;stroke:none"
           id="text60"><tspan
             x="0 6 15 20 28 37 47 54 59 64 69 79 86 95 110 116 125 134 139 144 153 162 167 177 187 196 205 215 224 231 240 245 251 257 266 275 283 288 297 306 312 322 331 341 346 355 363 368 378 387 393 402 411 416 425 434 444 449 459 468 474 483 490 495 505 514 523 529 537 543 553 562 570 575 580 589 598 608 613 619"
             y="0"
             sodipodi:role="line"
             id="tspan58">In short, drawing the boundary lines helped us delay and defer decisions, and it</tspan></text>
        <text
           xml:space="preserve"
           transform="translate(3480,307)"
           style="font-variant:normal;font-weight:normal;font-size:20px;font-family:'Times New Roman';-inkscape-font-specification:TimesNewRomanPSMT;writing-mode:lr-tb;fill:#000000;fill-opacity:1;fill-rule:nonzero;stroke:none"
           id="text64"><tspan
             x="0 9 15 20 26 40 49 54 63 69 78 83 91 100 110 119 129 134 143 151 156 165 174 179 188 197 207 214 228 238 247 255 260 269 283 293 302 311 316 321 331 337 342 347 353 367 376 381 390 399 409 414 423 432 441 451 460 469 478 487 495 500 505 519 528 538 543 548 557 566 571 577 585 590 605 614 623 628 633 642 647 656 666 676"
             y="0"
             sodipodi:role="line"
             id="tspan62">ultimately saved us an enormous amount of time and headaches. And that’s what a good</tspan></text>
        <text
           xml:space="preserve"
           transform="translate(3480,330)"
           style="font-variant:normal;font-weight:normal;font-size:20px;font-family:'Times New Roman';-inkscape-font-specification:TimesNewRomanPSMT;writing-mode:lr-tb;fill:#000000;fill-opacity:1;fill-rule:nonzero;stroke:none"
           id="text68"><tspan
             x="0 9 16 25 34 40 45 54 63 68 77 84 93 98 106 115 125 134 140 150 155 165 175"
             y="0"
             sodipodi:role="line"
             id="tspan66">architecture should do.</tspan></text>
        <text
           xml:space="preserve"
           transform="translate(3480,400)"
           style="font-variant:normal;font-weight:bold;font-size:33px;font-family:'Times New Roman';-inkscape-font-specification:TimesNewRomanPS-BoldMT;writing-mode:lr-tb;fill:#000000;fill-opacity:1;fill-rule:nonzero;stroke:none"
           id="text72"><tspan
             x="0"
             y="0"
             id="tspan70">W</tspan></text>
        <text
           xml:space="preserve"
           transform="translate(3512,400)"
           style="font-variant:normal;font-weight:bold;font-size:33px;font-family:'Times New Roman';-inkscape-font-specification:TimesNewRomanPS-BoldMT;writing-mode:lr-tb;fill:#000000;fill-opacity:1;fill-rule:nonzero;stroke:none"
           id="text76"><tspan
             x="0 26 39 63"
             y="0"
             sodipodi:role="line"
             id="tspan74">HICH</tspan></text>
        <text
           xml:space="preserve"
           transform="translate(3609,400)"
           style="font-variant:normal;font-weight:bold;font-size:33px;font-family:'Times New Roman';-inkscape-font-specification:TimesNewRomanPS-BoldMT;writing-mode:lr-tb;fill:#000000;fill-opacity:1;fill-rule:nonzero;stroke:none"
           id="text80"><tspan
             x="0"
             y="0"
             id="tspan78">L</tspan></text>
        <text
           xml:space="preserve"
           transform="translate(3631,400)"
           style="font-variant:normal;font-weight:bold;font-size:33px;font-family:'Times New Roman';-inkscape-font-specification:TimesNewRomanPS-BoldMT;writing-mode:lr-tb;fill:#000000;fill-opacity:1;fill-rule:nonzero;stroke:none"
           id="text84"><tspan
             x="0 13 37 59"
             y="0"
             sodipodi:role="line"
             id="tspan82">INES</tspan></text>
        <text
           xml:space="preserve"
           transform="translate(3716,400)"
           style="font-variant:normal;font-weight:bold;font-size:33px;font-family:'Times New Roman';-inkscape-font-specification:TimesNewRomanPS-BoldMT;writing-mode:lr-tb;fill:#000000;fill-opacity:1;fill-rule:nonzero;stroke:none"
           id="text88"><tspan
             x="0"
             y="0"
             id="tspan86">D</tspan></text>
        <text
           xml:space="preserve"
           transform="translate(3740,400)"
           style="font-variant:normal;font-weight:bold;font-size:33px;font-family:'Times New Roman';-inkscape-font-specification:TimesNewRomanPS-BoldMT;writing-mode:lr-tb;fill:#000000;fill-opacity:1;fill-rule:nonzero;stroke:none"
           id="text92"><tspan
             x="0"
             y="0"
             id="tspan90">O</tspan></text>
        <text
           xml:space="preserve"
           transform="translate(3774,400)"
           style="font-variant:normal;font-weight:bold;font-size:33px;font-family:'Times New Roman';-inkscape-font-specification:TimesNewRomanPS-BoldMT;writing-mode:lr-tb;fill:#000000;fill-opacity:1;fill-rule:nonzero;stroke:none"
           id="text96"><tspan
             x="0"
             y="0"
             id="tspan94">Y</tspan></text>
        <text
           xml:space="preserve"
           transform="translate(3798,400)"
           style="font-variant:normal;font-weight:bold;font-size:33px;font-family:'Times New Roman';-inkscape-font-specification:TimesNewRomanPS-BoldMT;writing-mode:lr-tb;fill:#000000;fill-opacity:1;fill-rule:nonzero;stroke:none"
           id="text100"><tspan
             x="0 26"
             y="0"
             sodipodi:role="line"
             id="tspan98">OU</tspan></text>
        <text
           xml:space="preserve"
           transform="translate(3856,400)"
           style="font-variant:normal;font-weight:bold;font-size:33px;font-family:'Times New Roman';-inkscape-font-specification:TimesNewRomanPS-BoldMT;writing-mode:lr-tb;fill:#000000;fill-opacity:1;fill-rule:nonzero;stroke:none"
           id="text104"><tspan
             x="0"
             y="0"
             id="tspan102">D</tspan></text>
        <text
           xml:space="preserve"
           transform="translate(3880,400)"
           style="font-variant:normal;font-weight:bold;font-size:33px;font-family:'Times New Roman';-inkscape-font-specification:TimesNewRomanPS-BoldMT;writing-mode:lr-tb;fill:#000000;fill-opacity:1;fill-rule:nonzero;stroke:none"
           id="text108"><tspan
             x="0 24 43 72 80 88 111 135"
             y="0"
             sodipodi:role="line"
             id="tspan106">RAW, AND</tspan></text>
        <text
           xml:space="preserve"
           transform="translate(4047,400)"
           style="font-variant:normal;font-weight:bold;font-size:33px;font-family:'Times New Roman';-inkscape-font-specification:TimesNewRomanPS-BoldMT;writing-mode:lr-tb;fill:#000000;fill-opacity:1;fill-rule:nonzero;stroke:none"
           id="text112"><tspan
             x="0"
             y="0"
             id="tspan110">W</tspan></text>
        <text
           xml:space="preserve"
           transform="translate(4079,400)"
           style="font-variant:normal;font-weight:bold;font-size:33px;font-family:'Times New Roman';-inkscape-font-specification:TimesNewRomanPS-BoldMT;writing-mode:lr-tb;fill:#000000;fill-opacity:1;fill-rule:nonzero;stroke:none"
           id="text116"><tspan
             x="0 26 48"
             y="0"
             sodipodi:role="line"
             id="tspan114">HEN</tspan></text>
        <text
           xml:space="preserve"
           transform="translate(3480,439)"
           style="font-variant:normal;font-weight:bold;font-size:33px;font-family:'Times New Roman';-inkscape-font-specification:TimesNewRomanPS-BoldMT;writing-mode:lr-tb;fill:#000000;fill-opacity:1;fill-rule:nonzero;stroke:none"
           id="text120"><tspan
             x="0"
             y="0"
             id="tspan118">D</tspan></text>
        <text
           xml:space="preserve"
           transform="translate(3504,439)"
           style="font-variant:normal;font-weight:bold;font-size:33px;font-family:'Times New Roman';-inkscape-font-specification:TimesNewRomanPS-BoldMT;writing-mode:lr-tb;fill:#000000;fill-opacity:1;fill-rule:nonzero;stroke:none"
           id="text124"><tspan
             x="0"
             y="0"
             id="tspan122">O</tspan></text>
        <text
           xml:space="preserve"
           transform="translate(3538,439)"
           style="font-variant:normal;font-weight:bold;font-size:33px;font-family:'Times New Roman';-inkscape-font-specification:TimesNewRomanPS-BoldMT;writing-mode:lr-tb;fill:#000000;fill-opacity:1;fill-rule:nonzero;stroke:none"
           id="text128"><tspan
             x="0"
             y="0"
             id="tspan126">Y</tspan></text>
        <text
           xml:space="preserve"
           transform="translate(3562,439)"
           style="font-variant:normal;font-weight:bold;font-size:33px;font-family:'Times New Roman';-inkscape-font-specification:TimesNewRomanPS-BoldMT;writing-mode:lr-tb;fill:#000000;fill-opacity:1;fill-rule:nonzero;stroke:none"
           id="text132"><tspan
             x="0 26"
             y="0"
             sodipodi:role="line"
             id="tspan130">OU</tspan></text>
        <text
           xml:space="preserve"
           transform="translate(3620,439)"
           style="font-variant:normal;font-weight:bold;font-size:33px;font-family:'Times New Roman';-inkscape-font-specification:TimesNewRomanPS-BoldMT;writing-mode:lr-tb;fill:#000000;fill-opacity:1;fill-rule:nonzero;stroke:none"
           id="text136"><tspan
             x="0"
             y="0"
             id="tspan134">D</tspan></text>
        <text
           xml:space="preserve"
           transform="translate(3644,439)"
           style="font-variant:normal;font-weight:bold;font-size:33px;font-family:'Times New Roman';-inkscape-font-specification:TimesNewRomanPS-BoldMT;writing-mode:lr-tb;fill:#000000;fill-opacity:1;fill-rule:nonzero;stroke:none"
           id="text140"><tspan
             x="0 24 43"
             y="0"
             sodipodi:role="line"
             id="tspan138">RAW</tspan></text>
        <text
           xml:space="preserve"
           transform="translate(3727,439)"
           style="font-variant:normal;font-weight:bold;font-size:33px;font-family:'Times New Roman';-inkscape-font-specification:TimesNewRomanPS-BoldMT;writing-mode:lr-tb;fill:#000000;fill-opacity:1;fill-rule:nonzero;stroke:none"
           id="text144"><tspan
             x="0"
             y="0"
             id="tspan142">T</tspan></text>
        <text
           xml:space="preserve"
           transform="translate(3749,439)"
           style="font-variant:normal;font-weight:bold;font-size:33px;font-family:'Times New Roman';-inkscape-font-specification:TimesNewRomanPS-BoldMT;writing-mode:lr-tb;fill:#000000;fill-opacity:1;fill-rule:nonzero;stroke:none"
           id="text148"><tspan
             x="0 26 48"
             y="0"
             sodipodi:role="line"
             id="tspan146">HEM</tspan></text>
        <text
           xml:space="preserve"
           transform="translate(3829,439)"
           style="font-variant:normal;font-weight:bold;font-size:33px;font-family:'Times New Roman';-inkscape-font-specification:TimesNewRomanPS-BoldMT;writing-mode:lr-tb;fill:#000000;fill-opacity:1;fill-rule:nonzero;stroke:none"
           id="text152"><tspan
             x="0"
             y="0"
             id="tspan150">?</tspan></text>
        <text
           xml:space="preserve"
           transform="translate(3480,484)"
           style="font-variant:normal;font-weight:normal;font-size:20px;font-family:'Times New Roman';-inkscape-font-specification:TimesNewRomanPSMT;writing-mode:lr-tb;fill:#000000;fill-opacity:1;fill-rule:nonzero;stroke:none"
           id="text156"><tspan
             x="0 12 22 31 36 46 53 62 77 82 88 94 103 112 120 125 135 144 149 164 173 182 191 196 201 210 216 225 234 242 247 252 261 270 275 280 294 303 308 313 322 329 334 343 352 362 367 372 381 387 396 405 413 418 423 432 441 446 451 461 471 480 487 492 497 502 514 523 532 537 551 564 570 575 585 595 604 612 621 628 633 638 652 661 666 671 680"
             y="0"
             sodipodi:role="line"
             id="tspan154">You draw lines between things that matter and things that don’t. The GUI doesn’t matter</tspan></text>
        <text
           xml:space="preserve"
           transform="translate(3480,507)"
           style="font-variant:normal;font-weight:normal;font-size:20px;font-family:'Times New Roman';-inkscape-font-specification:TimesNewRomanPSMT;writing-mode:lr-tb;fill:#000000;fill-opacity:1;fill-rule:nonzero;stroke:none"
           id="text160"><tspan
             x="0 5 15 20 25 34 43 48 58 67 75 81 90 99 107 115 120 127 136 142 151 159 164 169 177 187 192 197 206 215 222 231 236 244 253 263 272 278 288 293 303 312 317 326 331 337 343 352 361 366 376 385 390 405 414 423 432 437 442 451 460 474 479 484 496 505 514 519 529 538 543 552 562 571 579 588 593 603 613 622 630 639 646"
             y="0"
             sodipodi:role="line"
             id="tspan158">to the business rules, so there should be a line between them. The database doesn’t</tspan></text>
        <text
           xml:space="preserve"
           transform="translate(3480,530)"
           style="font-variant:normal;font-weight:normal;font-size:20px;font-family:'Times New Roman';-inkscape-font-specification:TimesNewRomanPSMT;writing-mode:lr-tb;fill:#000000;fill-opacity:1;fill-rule:nonzero;stroke:none"
           id="text164"><tspan
             x="0 14 23 28 33 42 49 54 59 69 74 79 88 97 102 116 129 135 140 145 153 163 168 173 182 191 198 207 212 220 229 239 248 254 264 269 279 288 293 302 307 313 319 328 337 342 352 361 366 381 390 399 408"
             y="0"
             sodipodi:role="line"
             id="tspan162">matter to the GUI, so there should be a line between </tspan></text>
        <text
           xml:space="preserve"
           transform="translate(3893,530)"
           style="font-variant:normal;font-weight:normal;font-size:20px;font-family:'Times New Roman';-inkscape-font-specification:TimesNewRomanPSMT;writing-mode:lr-tb;fill:#000000;fill-opacity:1;fill-rule:nonzero;stroke:none"
           id="text168"><tspan
             x="0 5 14 23 37 42 47 59 68 77 82 92 101 106 115 125 134 142 151 156 166 176 185 193 202 209 214 219 233 242 247 252 261"
             y="0"
             sodipodi:role="line"
             id="tspan166">them. The database doesn’t matter</tspan></text>
        <text
           xml:space="preserve"
           transform="translate(3480,553)"
           style="font-variant:normal;font-weight:normal;font-size:20px;font-family:'Times New Roman';-inkscape-font-specification:TimesNewRomanPSMT;writing-mode:lr-tb;fill:#000000;fill-opacity:1;fill-rule:nonzero;stroke:none"
           id="text172"><tspan
             x="0 5 15 20 25 34 43 48 58 67 75 81 90 99 107 115 120 127 136 142 151 159 164 169 177 187 192 197 206 215 222 231 236 244 253 263 272 278 288 293 303 312 317 326 331 337 343 352 361 366 376 385 390 405 414 423 432 437 442 451 460 474"
             y="0"
             sodipodi:role="line"
             id="tspan170">to the business rules, so there should be a line between them.</tspan></text>
        <text
           xml:space="preserve"
           transform="translate(3480,596)"
           style="font-variant:normal;font-weight:normal;font-size:20px;font-family:'Times New Roman';-inkscape-font-specification:TimesNewRomanPSMT;writing-mode:lr-tb;fill:#000000;fill-opacity:1;fill-rule:nonzero;stroke:none"
           id="text176"><tspan
             x="0 11 21 35 44 49 59 65 70 79 89 98 103 117 126 135 140 149 158 168 177 182 189 198 204 213 222 227 236 246 251 261 270 279 284 294 301 306 320 330 337 346 351 361 367 372 377 386 396 404 413 418 426 431 440 445 454 468 477 486 491 499 504 509 518 526 536 545 554 560 569 575 581 590 595 600 609 618 623 633 642 649"
             y="0"
             sodipodi:role="line"
             id="tspan174">Some of you may have rejected one or more of those statements, especially the part</tspan></text>
        <text
           xml:space="preserve"
           transform="translate(3480,619)"
           style="font-variant:normal;font-weight:normal;font-size:20px;font-family:'Times New Roman';-inkscape-font-specification:TimesNewRomanPSMT;writing-mode:lr-tb;fill:#000000;fill-opacity:1;fill-rule:nonzero;stroke:none"
           id="text180"><tspan
             x="0 9 19 29 38 43 48 53 62 71 76 86 95 103 109 118 127 135 143 148 155 164 170 179 187 192 201 211 216 221 230 239 246 252 261 270 275 284 294 304 313 318 323 328 337 346 351 361 370 375 384 394 403 411 420 425 430 447 456 465 474 479 489 495 500 509 517 522 531 540 550 559 564 574 583 592 601 606 611 620 629 638 647 652 657 662"
             y="0"
             sodipodi:role="line"
             id="tspan178">about the business rules not caring about the database. Many of us have been taught to</tspan></text>
        <text
           xml:space="preserve"
           transform="translate(3480,642)"
           style="font-variant:normal;font-weight:normal;font-size:20px;font-family:'Times New Roman';-inkscape-font-specification:TimesNewRomanPSMT;writing-mode:lr-tb;fill:#000000;fill-opacity:1;fill-rule:nonzero;stroke:none"
           id="text184"><tspan
             x="0 10 19 25 31 40 50 59 64 69 78 87 92 97 102 111 120 125 135 144 149 158 168 177 185 194 199 205 213 218 224 233 242 251 256 263 269 278 287 297 303 312 317 326 336 345 354 363 372 377 386 396 401 406 416 421 426 435 444 449 459 468 476 482 491 500 508 516 521 528 537 543 552 560 565 570 581 591 605 614 619 629 635 640 649"
             y="0"
             sodipodi:role="line"
             id="tspan182">believe that the database is inextricably connected to the business rules. Some of us</tspan></text>
        <text
           xml:space="preserve"
           transform="translate(3480,665)"
           style="font-variant:normal;font-weight:normal;font-size:20px;font-family:'Times New Roman';-inkscape-font-specification:TimesNewRomanPSMT;writing-mode:lr-tb;fill:#000000;fill-opacity:1;fill-rule:nonzero;stroke:none"
           id="text188"><tspan
             x="0 9 18 28 37 42 51 61 70 79 84 94 103 112 121 126 135 145 154 164 170 179 188 197 207 212 217 226 235 240 245 250 259 268 273 283 292 297 306 316 325 333 342 347 353 361 366 371 380 389 394 403 417 427 437 447 453 467 476 485 490 495 505 511 516 521 530 539 544 554 563 571 577 586 595 603 611 616 623 632 638 647 655"
             y="0"
             sodipodi:role="line"
             id="tspan186">have even been convinced that the database is the embodiment of the business rules.</tspan></text>
        <text
           xml:space="preserve"
           transform="translate(3480,708)"
           style="font-variant:normal;font-weight:normal;font-size:20px;font-family:'Times New Roman';-inkscape-font-specification:TimesNewRomanPSMT;writing-mode:lr-tb;fill:#000000;fill-opacity:1;fill-rule:nonzero;stroke:none"
           id="text192"><tspan
             x="0 13 22 27 32 37 46 54 59 74 83 88 96 105 114 120 126 131 139 148 157 162 168 177 182 191 200 210 215 224 233 240 245 254 263 272 282 287 296 302 307 312 317 326 332 340 345 351 361 370 379 384 390 398 403 417 423 431 440 449 455 465 474 484 489 494 506 515 524 529 539 548 553 562 572 581 589 598 603 609 617 622 631 636 641 651 661"
             y="0"
             sodipodi:role="line"
             id="tspan190">But, as we shall see in another chapter, this idea is misguided. The database is a tool</tspan></text>
        <text
           xml:space="preserve"
           transform="translate(3480,731)"
           style="font-variant:normal;font-weight:normal;font-size:20px;font-family:'Times New Roman';-inkscape-font-specification:TimesNewRomanPSMT;writing-mode:lr-tb;fill:#000000;fill-opacity:1;fill-rule:nonzero;stroke:none"
           id="text196"><tspan
             x="0 5 14 23 28 33 38 47 56 61 71 80 88 94 103 112 120 128 133 140 149 155 164 172 177 186 195 204 209 218 226 235"
             y="0"
             sodipodi:role="line"
             id="tspan194">that the business rules can use </tspan></text>
        <text
           xml:space="preserve"
           transform="translate(3720,731)"
           style="font-variant:normal;font-weight:normal;font-size:20px;font-family:'Times New Roman';-inkscape-font-specification:TimesNewRomanPSMT;writing-mode:lr-tb;fill:#000000;fill-opacity:1;fill-rule:nonzero;stroke:none"
           id="text200"><tspan
             x="0 6 15 25 31 38 47 56 61 67"
             y="0"
             sodipodi:role="line"
             id="tspan198">indirectly</tspan></text>
        <text
           xml:space="preserve"
           transform="translate(3796,731)"
           style="font-variant:normal;font-weight:normal;font-size:20px;font-family:'Times New Roman';-inkscape-font-specification:TimesNewRomanPSMT;writing-mode:lr-tb;fill:#000000;fill-opacity:1;fill-rule:nonzero;stroke:none"
           id="text204"><tspan
             x="0 5 10 22 31 40 45 55 64 72 78 87 96 104 112 117 124 133 139 148 156 161 171 181 190 197 202 207 216 225 234 244 249 254 264 269 278 287 297 312 317 326 336 346 355"
             y="0"
             sodipodi:role="line"
             id="tspan202">. The business rules don’t need to know about</tspan></text>
        <text
           xml:space="preserve"
           transform="translate(3480,754)"
           style="font-variant:normal;font-weight:normal;font-size:20px;font-family:'Times New Roman';-inkscape-font-specification:TimesNewRomanPSMT;writing-mode:lr-tb;fill:#000000;fill-opacity:1;fill-rule:nonzero;stroke:none"
           id="text208"><tspan
             x="0 5 14 23 28 36 45 54 63 77 86 91 96 106 113 118 123 132 141 146 156 165 174 181 190 195 201 210 219 228 237 246 255 264 269 274 284 291 296 305 314 323 328 338 344 349 354 363 372 377 387 392 401 410 417 422 432 441 446 455 461 467 475 480 489 499 509 518 523 528 533 542 551 556 566 575 580 589 599 608 616 625 630 635 649 655 661 666 671 680"
             y="0"
             sodipodi:role="line"
             id="tspan206">the schema, or the query language, or any of the other details about the database. All the</tspan></text>
        <text
           xml:space="preserve"
           transform="translate(3480,777)"
           style="font-variant:normal;font-weight:normal;font-size:20px;font-family:'Times New Roman';-inkscape-font-specification:TimesNewRomanPSMT;writing-mode:lr-tb;fill:#000000;fill-opacity:1;fill-rule:nonzero;stroke:none"
           id="text212"><tspan
             x="0 10 19 27 33 42 51 59 67 72 79 88 94 103 111 116 125 134 143 153 158 163 173 178 187 196 206 221 226 232 240 245 250 259 268 273 278 283 292 301 308 317 322 328 336 341 350 355 363 372 377 382 392 398 403 409 418 427 436 441 447 457 466 474 479 484 493 502 507 512 521 530 539 544 554 563 568 577 585 594 604 609 614 624 629 635 644 649 658 667 672 682"
             y="0"
             sodipodi:role="line"
             id="tspan210">business rules need to know is that there is a set of functions that can be used to fetch or</tspan></text>
        <text
           xml:space="preserve"
           transform="translate(3480,800)"
           style="font-variant:normal;font-weight:normal;font-size:20px;font-family:'Times New Roman';-inkscape-font-specification:TimesNewRomanPSMT;writing-mode:lr-tb;fill:#000000;fill-opacity:1;fill-rule:nonzero;stroke:none"
           id="text216"><tspan
             x="0 8 17 27 36 41 51 60 65 74 79 84 96 105 111 119 124 133 139 145 155 170 178 183 192 200 205 210 220 225 235 244 249 254 259 268 277 282 292 301 306 315 325 334 342 351 356 366 375 384 390 399 409 414 423 432 437 443 452 457 466 473 479 488 497 506"
             y="0"
             sodipodi:role="line"
             id="tspan214">save data. This allows us to put the database behind an interface.</tspan></text>
        <text
           xml:space="preserve"
           transform="translate(3480,843)"
           style="font-variant:normal;font-weight:normal;font-size:20px;font-family:'Times New Roman';-inkscape-font-specification:TimesNewRomanPSMT;writing-mode:lr-tb;fill:#000000;fill-opacity:1;fill-rule:nonzero;stroke:none"
           id="text220"><tspan
             x="0 12 22 31 36 45 54 63 68 76 85 94 99 104 113 119 127 132 141 147 156 165 172 178 187 192 198 207"
             y="0"
             sodipodi:role="line"
             id="tspan218">You can see this clearly in </tspan></text>
        <text
           xml:space="preserve"
           transform="translate(3692,843)"
           style="font-variant:normal;font-weight:normal;font-size:20px;font-family:'Times New Roman';-inkscape-font-specification:TimesNewRomanPSMT;writing-mode:lr-tb;fill:#0000ee;fill-opacity:1;fill-rule:nonzero;stroke:none"
           id="text224"><tspan
             x="0 11 17 26 35 42 51 56 66 76 81"
             y="0"
             sodipodi:role="line"
             id="tspan222">Figure 17.1</tspan></text>
        <path
           d="m 3692,844.5 h 90 z"
           style="fill:none;stroke:#0000ee;stroke-width:1;stroke-linecap:square;stroke-linejoin:miter;stroke-miterlimit:10;stroke-dasharray:none;stroke-opacity:1"
           id="path226" />
        <text
           xml:space="preserve"
           transform="translate(3783,843)"
           style="font-variant:normal;font-weight:normal;font-size:20px;font-family:'Times New Roman';-inkscape-font-specification:TimesNewRomanPSMT;writing-mode:lr-tb;fill:#000000;fill-opacity:1;fill-rule:nonzero;stroke:none"
           id="text230"><tspan
             x="0 5 10 22 31 40"
             y="0"
             sodipodi:role="line"
             id="tspan228">. The </tspan></text>
        <text
           xml:space="preserve"
           transform="translate(3828,843)"
           style="font-variant:normal;font-weight:normal;font-size:16px;font-family:'Courier New';-inkscape-font-specification:CourierNewPSMT;writing-mode:lr-tb;fill:#000000;fill-opacity:1;fill-rule:nonzero;stroke:none"
           id="text234"><tspan
             x="0 10 20 30 40 50 60 70 80 90 100 110 120"
             y="0"
             sodipodi:role="line"
             id="tspan232">BusinessRules</tspan></text>
        <text
           xml:space="preserve"
           transform="translate(3963,843)"
           style="font-variant:normal;font-weight:normal;font-size:20px;font-family:'Times New Roman';-inkscape-font-specification:TimesNewRomanPSMT;writing-mode:lr-tb;fill:#000000;fill-opacity:1;fill-rule:nonzero;stroke:none"
           id="text238"><tspan
             x="0 9 17 26 31 36 45"
             y="0"
             sodipodi:role="line"
             id="tspan236">use the</tspan></text>
        <text
           xml:space="preserve"
           transform="translate(3480,866)"
           style="font-variant:normal;font-weight:normal;font-size:16px;font-family:'Courier New';-inkscape-font-specification:CourierNewPSMT;writing-mode:lr-tb;fill:#000000;fill-opacity:1;fill-rule:nonzero;stroke:none"
           id="text242"><tspan
             x="0 10 20 30 40 50 60 70 80 90 100 110 120 130 140 150 160"
             y="0"
             sodipodi:role="line"
             id="tspan240">DatabaseInterface</tspan></text>
        <text
           xml:space="preserve"
           transform="translate(3655,866)"
           style="font-variant:normal;font-weight:normal;font-size:20px;font-family:'Times New Roman';-inkscape-font-specification:TimesNewRomanPSMT;writing-mode:lr-tb;fill:#000000;fill-opacity:1;fill-rule:nonzero;stroke:none"
           id="text246"><tspan
             x="0 5 15 20 26 36 45 55 60 69 78 88 93 101 110 120 129 134 144 153 158 167 172 177 189 198 207"
             y="0"
             sodipodi:role="line"
             id="tspan244">to load and save data. The </tspan></text>
        <text
           xml:space="preserve"
           transform="translate(3867,866)"
           style="font-variant:normal;font-weight:normal;font-size:16px;font-family:'Courier New';-inkscape-font-specification:CourierNewPSMT;writing-mode:lr-tb;fill:#000000;fill-opacity:1;fill-rule:nonzero;stroke:none"
           id="text250"><tspan
             x="0 10 20 30 40 50 60 70 80 90 100 110 120 130"
             y="0"
             sodipodi:role="line"
             id="tspan248">DatabaseAccess</tspan></text>
        <text
           xml:space="preserve"
           transform="translate(4012,866)"
           style="font-variant:normal;font-weight:normal;font-size:20px;font-family:'Times New Roman';-inkscape-font-specification:TimesNewRomanPSMT;writing-mode:lr-tb;fill:#000000;fill-opacity:1;fill-rule:nonzero;stroke:none"
           id="text254"><tspan
             x="0 6 20 30 36 45 59 68 77 82 90 95 100 109"
             y="0"
             sodipodi:role="line"
             id="tspan252">implements the</tspan></text>
        <text
           xml:space="preserve"
           transform="translate(3480,889)"
           style="font-variant:normal;font-weight:normal;font-size:20px;font-family:'Times New Roman';-inkscape-font-specification:TimesNewRomanPSMT;writing-mode:lr-tb;fill:#000000;fill-opacity:1;fill-rule:nonzero;stroke:none"
           id="text258"><tspan
             x="0 6 15 20 29 36 42 51 60 69 74 83 92 102 107 117 123 130 139 148 153 161 166 171 180 189 194 204 214 223 230 239 244 250 260 269 274 284 290 295 300 309 318 323 332 341 346 355 364 370"
             y="0"
             sodipodi:role="line"
             id="tspan256">interface and directs the operation of the actual </tspan></text>
        <text
           xml:space="preserve"
           transform="translate(3855,889)"
           style="font-variant:normal;font-weight:normal;font-size:16px;font-family:'Courier New';-inkscape-font-specification:CourierNewPSMT;writing-mode:lr-tb;fill:#000000;fill-opacity:1;fill-rule:nonzero;stroke:none"
           id="text262"><tspan
             x="0 10 20 30 40 50 60 70"
             y="0"
             sodipodi:role="line"
             id="tspan260">Database</tspan></text>
        <text
           xml:space="preserve"
           transform="translate(3935,889)"
           style="font-variant:normal;font-weight:normal;font-size:20px;font-family:'Times New Roman';-inkscape-font-specification:TimesNewRomanPSMT;writing-mode:lr-tb;fill:#000000;fill-opacity:1;fill-rule:nonzero;stroke:none"
           id="text266"><tspan
             x="0"
             y="0"
             id="tspan264">.</tspan></text>
      </g>
    </g>
  </g>
</svg>
