<?xml version="1.0" encoding="UTF-8" standalone="no"?>
<!-- Created with Inkscape (http://www.inkscape.org/) -->

<svg
   version="1.1"
   id="svg2"
   width="816"
   height="1056"
   viewBox="0 0 816 1056"
   sodipodi:docname="clean_arch.pdf"
   xmlns:inkscape="http://www.inkscape.org/namespaces/inkscape"
   xmlns:sodipodi="http://sodipodi.sourceforge.net/DTD/sodipodi-0.dtd"
   xmlns="http://www.w3.org/2000/svg"
   xmlns:svg="http://www.w3.org/2000/svg">
  <defs
     id="defs6">
    <clipPath
       clipPathUnits="userSpaceOnUse"
       id="clipPath18">
      <path
         d="m 1392,0 h 696 V 1056 H 1392 V 0"
         clip-rule="evenodd"
         id="path16" />
    </clipPath>
    <clipPath
       clipPathUnits="userSpaceOnUse"
       id="clipPath28">
      <path
         d="m 1392,66 h 696 V 996 H 1392 V 66"
         clip-rule="evenodd"
         id="path26" />
    </clipPath>
  </defs>
  <sodipodi:namedview
     id="namedview4"
     pagecolor="#ffffff"
     bordercolor="#000000"
     borderopacity="0.25"
     inkscape:showpageshadow="2"
     inkscape:pageopacity="0.0"
     inkscape:pagecheckerboard="0"
     inkscape:deskcolor="#d1d1d1" />
  <g
     id="g8"
     inkscape:groupmode="layer"
     inkscape:label="clean_arch"
     transform="translate(59.999999,2.64e-5)">
    <g
       id="g10" />
    <g
       id="g12"
       transform="translate(-1392)">
      <g
         id="g14"
         clip-path="url(#clipPath18)">
        <g
           id="g20" />
      </g>
    </g>
    <g
       id="g22"
       transform="translate(-1392)">
      <g
         id="g24"
         clip-path="url(#clipPath28)">
        <text
           xml:space="preserve"
           transform="translate(1392,83)"
           style="font-variant:normal;font-weight:normal;font-size:20px;font-family:'Times New Roman';-inkscape-font-specification:TimesNewRomanPSMT;writing-mode:lr-tb;fill:#000000;fill-opacity:1;fill-rule:nonzero;stroke:none"
           id="text32"><tspan
             x="0 14 20 25 34 44 53 60 68 77 82 87 97 106 113 119 128 137 142 152 161 171 180 186 196 206 220 229 238 243 248 253 262 271 276 286 293 303 312 319 328 342 356 365 372 380 385 395 401 411 416 425 435 440 445 454 463 473 482 487 496 501 509 518 525 535 544 551 556 562 571 578 592 597 602 608 617 627 636 645 655"
             y="0"
             sodipodi:role="line"
             id="tspan30">Of course, during development the programmers did not have a server farm. Indeed,</tspan></text>
        <text
           xml:space="preserve"
           transform="translate(1392,106)"
           style="font-variant:normal;font-weight:normal;font-size:20px;font-family:'Times New Roman';-inkscape-font-specification:TimesNewRomanPSMT;writing-mode:lr-tb;fill:#000000;fill-opacity:1;fill-rule:nonzero;stroke:none"
           id="text36"><tspan
             x="0 5 14 23 32 37 45 51 65 75 81 90 95 102 111 120 125 134 140 146 151 156 165 172 181 190 195 204 213 222 231 240 245 254 264 270 279 287 292 298 307 312 317 326 333 342 351 356 366 372 378 384 393 400 409 418 423 428 438 445 455 464 473 481 489 498 506 511 521 530 535 544 549 557 563 572 581 587 596 601 615 624 633 642 648 657 666"
             y="0"
             sodipodi:role="line"
             id="tspan34">they simply ran all three executables in three different processes on a single machine.</tspan></text>
        <text
           xml:space="preserve"
           transform="translate(1392,129)"
           style="font-variant:normal;font-weight:normal;font-size:20px;font-family:'Times New Roman';-inkscape-font-specification:TimesNewRomanPSMT;writing-mode:lr-tb;fill:#000000;fill-opacity:1;fill-rule:nonzero;stroke:none"
           id="text40"><tspan
             x="0 12 21 30 39 44 54 63 73 82 88 98 108 117 127 132 137 146 152 160 165 180 189 198 203 209 219 226 231 239 248 258 267 274 283 289 294 303 312 321 328 336 341 346 359 368 373 378 383 392 401 410 415 430 439 446 455 460 469 479 488 498 504 513 522 531 541 546 551 560 569 574 579 584 593 602 608"
             y="0"
             sodipodi:role="line"
             id="tspan38">They developed this way for several years. But they were convinced that their</tspan></text>
        <text
           xml:space="preserve"
           transform="translate(1392,152)"
           style="font-variant:normal;font-weight:normal;font-size:20px;font-family:'Times New Roman';-inkscape-font-specification:TimesNewRomanPSMT;writing-mode:lr-tb;fill:#000000;fill-opacity:1;fill-rule:nonzero;stroke:none"
           id="text44"><tspan
             x="0 9 16 25 34 40 45 54 63 68 77 84 93 98 113 122 130 135 142 148 157 166 171 176 181 195 204 214 219 227 237 242 247 256 266 275 284 289 294 303 313 322 331 340 345 350 359 368 377 382 397 406 413 422 427 436 445 454 463 472 477 483 492 501 506 512 521 526 535 540 548 554 563 572 578 587 592 606 615 624 633 639 648 657"
             y="0"
             sodipodi:role="line"
             id="tspan42">architecture was right. And so, even though they were executing in a single machine,</tspan></text>
        <text
           xml:space="preserve"
           transform="translate(1392,175)"
           style="font-variant:normal;font-weight:normal;font-size:20px;font-family:'Times New Roman';-inkscape-font-specification:TimesNewRomanPSMT;writing-mode:lr-tb;fill:#000000;fill-opacity:1;fill-rule:nonzero;stroke:none"
           id="text48"><tspan
             x="0 5 14 23 32 37 46 56 65 70 76 85 94 103 113 118 127 133 139 144 149 158 167 172 182 192 198 207 216 221 226 232 241 249 254 263 272 277 283 292 297 303 313 322 330 335 340 349 355 361 366 371 380 389 394 402 411 418 424 433 439 445 453 462 467 473 483 492 500 505 510 519 525 531 536 541 550 559 564 578 587 594 602 611 620 626 632 641 650 655 664 673"
             y="0"
             sodipodi:role="line"
             id="tspan46">they continued all the object instantiations, all the serializations, all the marshaling and</tspan></text>
        <text
           xml:space="preserve"
           transform="translate(1392,198)"
           style="font-variant:normal;font-weight:normal;font-size:20px;font-family:'Times New Roman';-inkscape-font-specification:TimesNewRomanPSMT;writing-mode:lr-tb;fill:#000000;fill-opacity:1;fill-rule:nonzero;stroke:none"
           id="text52"><tspan
             x="0 10 19 26 40 49 56 64 73 82 88 94 103 112 117 122 131 137 143 148 153 162 171 176 186 195 201 207 217 223 232 241 246 255 264 274 279 289 298 305 313 319 328 337 342 352 358 363 377 386 394 402 411 420 429 437 442 447 456 462 468 473 478 487 496 501 509 519 528 537 546 551 556 565 575 589 603 612 621 627 636 645 650 656 666 675 683"
             y="0"
             sodipodi:role="line"
             id="tspan50">de-marshaling, all the building and parsing of messages, all the socket communications,</tspan></text>
        <text
           xml:space="preserve"
           transform="translate(1392,221)"
           style="font-variant:normal;font-weight:normal;font-size:20px;font-family:'Times New Roman';-inkscape-font-specification:TimesNewRomanPSMT;writing-mode:lr-tb;fill:#000000;fill-opacity:1;fill-rule:nonzero;stroke:none"
           id="text56"><tspan
             x="0 9 18 28 33 42 48 54 59 64 73 82 87 96 105 110 117 126 131 139 144 153 159 165 170 176 185 190 199 204 212 218 227 236 242 251 256 270 279 288 297 303 312 321"
             y="0"
             sodipodi:role="line"
             id="tspan54">and all the extra stuff in a single machine.</tspan></text>
        <text
           xml:space="preserve"
           transform="translate(1392,264)"
           style="font-variant:normal;font-weight:normal;font-size:20px;font-family:'Times New Roman';-inkscape-font-specification:TimesNewRomanPSMT;writing-mode:lr-tb;fill:#000000;fill-opacity:1;fill-rule:nonzero;stroke:none"
           id="text60"><tspan
             x="0 12 21 30 35 41 48 58 67 76 81 87 95 100 105 114 123 128 133 142 152 166 176 185 194 203 208 218 223 232 241 251 260 267 272 280 290 296 306 311 320 325 333 342 350 355 364 378 383 388 397 406 411 416 423 432 442 451 457 464 473 483 488 497 502 510 519 526 536 545 552 557 563 572 579 593 598 603 615 625 634 641"
             y="0"
             sodipodi:role="line"
             id="tspan58">The irony is that company P never sold a system that required a server farm. Every</tspan></text>
        <text
           xml:space="preserve"
           transform="translate(1392,287)"
           style="font-variant:normal;font-weight:normal;font-size:20px;font-family:'Times New Roman';-inkscape-font-specification:TimesNewRomanPSMT;writing-mode:lr-tb;fill:#000000;fill-opacity:1;fill-rule:nonzero;stroke:none"
           id="text64"><tspan
             x="0 8 17 25 30 39 53 58 63 72 81 90 95 104 114 123 130 135 145 154 164 170 180 189 198 208 213 228 237 245 250 259 264 272 278 287 296 302 311 316 324 333 340 350 359 365 370 375 389 398 408 413 419 428 433 438 447 456 461 466 474 480 489 498 504 513 518 526 535 542 552 561 568 573 582 588 594 599 604 613 620 629"
             y="0"
             sodipodi:role="line"
             id="tspan62">system they ever deployed was a single server. And in that single server all three</tspan></text>
        <text
           xml:space="preserve"
           transform="translate(1392,310)"
           style="font-variant:normal;font-weight:normal;font-size:20px;font-family:'Times New Roman';-inkscape-font-specification:TimesNewRomanPSMT;writing-mode:lr-tb;fill:#000000;fill-opacity:1;fill-rule:nonzero;stroke:none"
           id="text68"><tspan
             x="0 9 18 27 36 45 50 59 69 75 84 92 97 106 116 125 130 136 145 154 163 173 178 187 193 199 204 209 218 227 232 242 252 258 267 276 281 286 292 301 309 314 323 332 337 343 352 357 363 373 382 390 395 400 409 415 421 426 431 440 449 454 462 471 478 484 493 499 505 513 522 527 533 543 552 560 565 570 579 585 591 596 601 610"
             y="0"
             sodipodi:role="line"
             id="tspan66">executables continued all the object instantiations, all the serializations, all the</tspan></text>
        <text
           xml:space="preserve"
           transform="translate(1392,333)"
           style="font-variant:normal;font-weight:normal;font-size:20px;font-family:'Times New Roman';-inkscape-font-specification:TimesNewRomanPSMT;writing-mode:lr-tb;fill:#000000;fill-opacity:1;fill-rule:nonzero;stroke:none"
           id="text72"><tspan
             x="0 14 23 30 38 47 56 62 68 77 86 91 100 109 119 124 134 143 150 164 173 180 188 197 206 212 218 227 236 241 246 255 261 267 272 277 286 295 300 310 319 325 331 341 347 356 365 370 379 388 398 403 413 422 429 437 443 452 461 466 476 482 487 501 510 518 526 535 544 553 561 566 571 580 586 592 597 602 611 620 625 633 643 652 661 670"
             y="0"
             sodipodi:role="line"
             id="tspan70">marshaling and de-marshaling, all the building and parsing of messages, all the socket</tspan></text>
        <text
           xml:space="preserve"
           transform="translate(1392,356)"
           style="font-variant:normal;font-weight:normal;font-size:20px;font-family:'Times New Roman';-inkscape-font-specification:TimesNewRomanPSMT;writing-mode:lr-tb;fill:#000000;fill-opacity:1;fill-rule:nonzero;stroke:none"
           id="text76"><tspan
             x="0 9 19 33 47 56 65 71 80 89 94 100 110 119 127 132 137 146 155 165 170 179 185 191 196 201 210 219 224 233 242 247 254 263 268 276 281 290 296 302 307 312 318 327 332 341 350 355 361 370 376 386 395 400 406 416 425 430 440 446 451 460 465 473 482 489 499 508 515 520 526 535 542 556 561 566 575 584 589 594 603 612 622 631"
             y="0"
             sodipodi:role="line"
             id="tspan74">communications, and all the extra stuff, in anticipation of a server farm that never</tspan></text>
        <text
           xml:space="preserve"
           transform="translate(1392,379)"
           style="font-variant:normal;font-weight:normal;font-size:20px;font-family:'Times New Roman';-inkscape-font-specification:TimesNewRomanPSMT;writing-mode:lr-tb;fill:#000000;fill-opacity:1;fill-rule:nonzero;stroke:none"
           id="text80"><tspan
             x="0 9 18 24 32 37 46 56 61 66 75 84 94 99 108 117 127 136 143 148 163 173 182 188 198"
             y="0"
             sodipodi:role="line"
             id="tspan78">existed, and never would.</tspan></text>
        <text
           xml:space="preserve"
           transform="translate(1392,422)"
           style="font-variant:normal;font-weight:normal;font-size:20px;font-family:'Times New Roman';-inkscape-font-specification:TimesNewRomanPSMT;writing-mode:lr-tb;fill:#000000;fill-opacity:1;fill-rule:nonzero;stroke:none"
           id="text84"><tspan
             x="0 12 21 30 35 40 47 56 65 74 84 93 98 104 112 117 122 131 140 145 150 155 164 173 178 187 194 203 212 218 223 232 241 246 254 259 264 274 283 288 302 311 320 326 335 344 349 358 363 373 380 389 403 412 417 426 433 442 447 457 466 475 481 489 495 505 514 519 524 538 547 553 558 564 574 580 586 595 605 610 615 624"
             y="0"
             sodipodi:role="line"
             id="tspan82">The tragedy is that the architects, by making a premature decision, multiplied the</tspan></text>
        <text
           xml:space="preserve"
           transform="translate(1392,445)"
           style="font-variant:normal;font-weight:normal;font-size:20px;font-family:'Times New Roman';-inkscape-font-specification:TimesNewRomanPSMT;writing-mode:lr-tb;fill:#000000;fill-opacity:1;fill-rule:nonzero;stroke:none"
           id="text88"><tspan
             x="0 10 19 29 38 44 54 64 78 87 96 101 106 115 121 127 137 144 149 154 163 172 182 189 203 213 222 230 236 244"
             y="0"
             sodipodi:role="line"
             id="tspan86">development effort enormously.</tspan></text>
        <text
           xml:space="preserve"
           transform="translate(1392,488)"
           style="font-variant:normal;font-weight:normal;font-size:20px;font-family:'Times New Roman';-inkscape-font-specification:TimesNewRomanPSMT;writing-mode:lr-tb;fill:#000000;fill-opacity:1;fill-rule:nonzero;stroke:none"
           id="text92"><tspan
             x="0 12 21 30 35 43 48 58 65 74 79 89 95 100 110 115 121 129 134 143 153 158 163 169 177 187 193 202 207 216 226 231 236 242 249 259 268 273 281 290 299 308 313 319 324 329 343 352 361 370 375 380 386 400 409 417 422 431 440 450 455 461 470 475 489 498 507 516 521 531 537 546 555 564 572 577 582 588 597 607 616 625 635 640 645 655 660 666 674 679"
             y="0"
             sodipodi:role="line"
             id="tspan90">The story of P is not isolated. I’ve seen it many times and in many places. Indeed, P is a</tspan></text>
        <text
           xml:space="preserve"
           transform="translate(1392,511)"
           style="font-variant:normal;font-weight:normal;font-size:20px;font-family:'Times New Roman';-inkscape-font-specification:TimesNewRomanPSMT;writing-mode:lr-tb;fill:#000000;fill-opacity:1;fill-rule:nonzero;stroke:none"
           id="text96"><tspan
             x="0 8 17 27 36 43 53 63 71 77 82 88 98 107 112 122 128 133 142 148 154 159 164 173 183 191 200 205 215 221 230 239 248 256"
             y="0"
             sodipodi:role="line"
             id="tspan94">superposition of all those places.</tspan></text>
        <text
           xml:space="preserve"
           transform="translate(1392,554)"
           style="font-variant:normal;font-weight:normal;font-size:20px;font-family:'Times New Roman';-inkscape-font-specification:TimesNewRomanPSMT;writing-mode:lr-tb;fill:#000000;fill-opacity:1;fill-rule:nonzero;stroke:none"
           id="text100"><tspan
             x="0 13 22 27 32 37 46 55 62 71 76 85 92 101 106 121 131 138 146 155 160 166 175 180 189 197 202 207 216 225 234 239 248"
             y="0"
             sodipodi:role="line"
             id="tspan98">But there are worse fates than P.</tspan></text>
        <text
           xml:space="preserve"
           transform="translate(1392,597)"
           style="font-variant:normal;font-weight:normal;font-size:20px;font-family:'Times New Roman';-inkscape-font-specification:TimesNewRomanPSMT;writing-mode:lr-tb;fill:#000000;fill-opacity:1;fill-rule:nonzero;stroke:none"
           id="text104"><tspan
             x="0 13 23 32 40 46 56 65 72 77 93 98 103 112 117 123 133 142 151 157 162 172 181 189 195 204 213 221 229 234 239 248 257 262 267 281 290 299 308 317 326 334 339 345 351 360 369 374 382 387 397 403 408 417 427 441 451 460 469 478 483 492 501 508 516 521 526 538 547 556 565 570 577 586 595 604 613 618 624 633 638 647 653 660 669"
             y="0"
             sodipodi:role="line"
             id="tspan102">Consider W, a local business that manages fleets of company cars. They recently hired</tspan></text>
        <text
           xml:space="preserve"
           transform="translate(1392,620)"
           style="font-variant:normal;font-weight:normal;font-size:20px;font-family:'Times New Roman';-inkscape-font-specification:TimesNewRomanPSMT;writing-mode:lr-tb;fill:#000000;fill-opacity:1;fill-rule:nonzero;stroke:none"
           id="text108"><tspan
             x="0 9 18 23 32 46 53 62 71 77 82 91 100 105 114 119 124 134 139 148 157 162 167 172 181 190 196 203 208 215 224 233 240 245 254 263 268 276 286 292 297 312 321 328 337 342 351 357 363 373 380 385 390 399 408 418 427 434 439 448 458 467 472 479 489 495 500 505 519 528 538 543 548 554 563 568 573 587 596 601 606 615 621 627 632 641 651 660"
             y="0"
             sodipodi:role="line"
             id="tspan106">an “Architect” to get their rag-tag software effort under control. And, let me tell you,</tspan></text>
        <text
           xml:space="preserve"
           transform="translate(1392,643)"
           style="font-variant:normal;font-weight:normal;font-size:20px;font-family:'Times New Roman';-inkscape-font-specification:TimesNewRomanPSMT;writing-mode:lr-tb;fill:#000000;fill-opacity:1;fill-rule:nonzero;stroke:none"
           id="text112"><tspan
             x="0 9 19 28 33 40 50 56 61 76 85 93 98 103 112 118 126 131 140 149 158 164 172 177 191 197 207 217 223 232 237 246 255 269 278 283 288 302 311 316 326 335 341 350 359 365 374 379 386 395 404 410 416 424 433 443 448 453 462 471 476 481 496 505 514 519 524 529 538 544 552 557 563 569 574 579 585 594 599 609 619 628 635 644 649 655 665"
             y="0"
             sodipodi:role="line"
             id="tspan110">control was this guy’s middle name. He quickly realized that what this little operation</tspan></text>
        <text
           xml:space="preserve"
           transform="translate(1392,667)"
           style="font-variant:normal;font-weight:normal;font-size:20px;font-family:'Times New Roman';-inkscape-font-specification:TimesNewRomanPSMT;writing-mode:lr-tb;fill:#000000;fill-opacity:1;fill-rule:nonzero;stroke:none"
           id="text116"><tspan
             x="0 9 18 27 37 46 56 61 76 85 93 98 107 112 118 127 133 139 146 156 162 172 187 196 201"
             y="0"
             sodipodi:role="line"
             id="tspan114">needed was a full-blown, </tspan></text>
        <text
           xml:space="preserve"
           transform="translate(1598,667)"
           style="font-variant:normal;font-weight:normal;font-size:20px;font-family:'Times New Roman';-inkscape-font-specification:TimesNewRomanPSMT;writing-mode:lr-tb;fill:#000000;fill-opacity:1;fill-rule:nonzero;stroke:none"
           id="text120"><tspan
             x="0 9 18 23 32 39 49 56 62 70 79 86 94 103 112 118"
             y="0"
             sodipodi:role="line"
             id="tspan118">enterprise-scale</tspan></text>
        <text
           xml:space="preserve"
           transform="translate(1725,667)"
           style="font-variant:normal;font-weight:normal;font-size:20px;font-family:'Times New Roman';-inkscape-font-specification:TimesNewRomanPSMT;writing-mode:lr-tb;fill:#000000;fill-opacity:1;fill-rule:nonzero;stroke:none"
           id="text124"><tspan
             x="0 5"
             y="0"
             sodipodi:role="line"
             id="tspan122">, </tspan></text>
        <text
           xml:space="preserve"
           transform="translate(1735,667)"
           style="font-variant:normal;font-weight:bold;font-size:20px;font-family:'Times New Roman';-inkscape-font-specification:TimesNewRomanPS-BoldMT;writing-mode:lr-tb;fill:#000000;fill-opacity:1;fill-rule:nonzero;stroke:none"
           id="text128"><tspan
             x="0 8 18 26 36 41 50 60 67 77 85 90 100 110 117 127"
             y="0"
             sodipodi:role="line"
             id="tspan126">service-oriented</tspan></text>
        <text
           xml:space="preserve"
           transform="translate(1877,667)"
           style="font-variant:normal;font-weight:bold;font-size:20px;font-family:'Times New Roman';-inkscape-font-specification:TimesNewRomanPS-BoldMT;writing-mode:lr-tb;fill:#000000;fill-opacity:1;fill-rule:nonzero;stroke:none"
           id="text132"><tspan
             x="0 10 24 38 52 67 74 87 100 114 127 141 155 168 173"
             y="0"
             sodipodi:role="line"
             id="tspan130">“ARCHITECTURE.”</tspan></text>
        <text
           xml:space="preserve"
           transform="translate(2065,667)"
           style="font-variant:normal;font-weight:normal;font-size:20px;font-family:'Times New Roman';-inkscape-font-specification:TimesNewRomanPSMT;writing-mode:lr-tb;fill:#000000;fill-opacity:1;fill-rule:nonzero;stroke:none"
           id="text136"><tspan
             x="0 14"
             y="0"
             sodipodi:role="line"
             id="tspan134">He</tspan></text>
        <text
           xml:space="preserve"
           transform="translate(1392,690)"
           style="font-variant:normal;font-weight:normal;font-size:20px;font-family:'Times New Roman';-inkscape-font-specification:TimesNewRomanPSMT;writing-mode:lr-tb;fill:#000000;fill-opacity:1;fill-rule:nonzero;stroke:none"
           id="text140"><tspan
             x="0 9 16 25 34 39 48 58 63 72 77 86 95 104 113 118 128 138 152 161 167 176 181 195 205 215 224 230 235 245 251 256 265 271 277 282 287 296 305 310 320 326 332 338 347 354 363 372 377 382 391 401 411 417 426 435 440 448 457 462 468 477 482 487 496 505 510 520 529 537 543 552 561 569 577 582 587 597 606 614 620 629 638 647 657 662"
             y="0"
             sodipodi:role="line"
             id="tspan138">created a huge domain model of all the different “objects” in the business, designed a</tspan></text>
        <text
           xml:space="preserve"
           transform="translate(1392,713)"
           style="font-variant:normal;font-weight:normal;font-size:20px;font-family:'Times New Roman';-inkscape-font-specification:TimesNewRomanPSMT;writing-mode:lr-tb;fill:#000000;fill-opacity:1;fill-rule:nonzero;stroke:none"
           id="text144"><tspan
             x="0 8 17 23 28 37 42 52 58 63 71 80 87 97 103 112 121 129 134 139 149 154 168 177 186 195 204 213 218 223 232 241 249 258 263 273 283 297 306 312 321 326 336 346 352 361 370 375 383 388 393 402 411 421 426 436 445 450 455 464 470 476 481 486 495 504 509 519 528 538 547 553 563 573 582 589 597 602 612 621 626 635 640 650 659 664 673 678 683"
             y="0"
             sodipodi:role="line"
             id="tspan142">suite of services to manage these domain objects, and put all the developers on a path to</tspan></text>
        <text
           xml:space="preserve"
           transform="translate(1392,736)"
           style="font-variant:normal;font-weight:normal;font-size:20px;font-family:'Times New Roman';-inkscape-font-specification:TimesNewRomanPSMT;writing-mode:lr-tb;fill:#000000;fill-opacity:1;fill-rule:nonzero;stroke:none"
           id="text148"><tspan
             x="0 14 23 29"
             y="0"
             sodipodi:role="line"
             id="tspan146">Hell</tspan></text>
        <text
           xml:space="preserve"
           transform="translate(1427,736)"
           style="font-variant:normal;font-weight:normal;font-size:20px;font-family:'Times New Roman';-inkscape-font-specification:TimesNewRomanPSMT;writing-mode:lr-tb;fill:#000000;fill-opacity:1;fill-rule:nonzero;stroke:none"
           id="text152"><tspan
             x="0 5 10 24 32 37 46 51 59 65 79 89 95 104 109 118 127 136 150 160 166 175 180 185 193 202 212 222 232 240 249 254 263 273 282 287 302 311 320 325 334 344 349 354 364 369 378 388 398 403 408 417 426 431 440 449 463 472 477 482 491 501 511 518 527 535 543 548 553 562 571 581 586 596 605 615 624"
             y="0"
             sodipodi:role="line"
             id="tspan150">. As a simple example, suppose you wanted to add the name, address, and phone</tspan></text>
        <text
           xml:space="preserve"
           transform="translate(1392,759)"
           style="font-variant:normal;font-weight:normal;font-size:20px;font-family:'Times New Roman';-inkscape-font-specification:TimesNewRomanPSMT;writing-mode:lr-tb;fill:#000000;fill-opacity:1;fill-rule:nonzero;stroke:none"
           id="text156"><tspan
             x="0 9 18 32 42 51 58 63 73 79 84 93 98 107 117 126 131 140 149 154 159 169 178 185 193 203 212 217 222 232 237 246 251 259 268 274 283 291 296 303 312 321 331 338 348 353 358 370 380 389 394 403 412 422 427 432 442 447 456 466 471 476 486 491 496 505 514"
             y="0"
             sodipodi:role="line"
             id="tspan154">number of a contact person to a sales record. You had to go to the </tspan></text>
        <text
           xml:space="preserve"
           transform="translate(1911,759)"
           style="font-variant:normal;font-weight:normal;font-size:16px;font-family:'Courier New';-inkscape-font-specification:CourierNewPSMT;writing-mode:lr-tb;fill:#000000;fill-opacity:1;fill-rule:nonzero;stroke:none"
           id="text160"><tspan
             x="0 10 20 30 40 50 60 70 80 90 100 110 120 130 140"
             y="0"
             sodipodi:role="line"
             id="tspan158">ServiceRegistry</tspan></text>
        <text
           xml:space="preserve"
           transform="translate(1392,782)"
           style="font-variant:normal;font-weight:normal;font-size:20px;font-family:'Times New Roman';-inkscape-font-specification:TimesNewRomanPSMT;writing-mode:lr-tb;fill:#000000;fill-opacity:1;fill-rule:nonzero;stroke:none"
           id="text164"><tspan
             x="0 9 18 28 33 42 50 59 64 70 80 87 92 97 106 115 120 128 137 144 154 160 169 178 183 189 203 208 218 224 229 234 243 252"
             y="0"
             sodipodi:role="line"
             id="tspan162">and ask for the service ID of the </tspan></text>
        <text
           xml:space="preserve"
           transform="translate(1649,782)"
           style="font-variant:normal;font-weight:normal;font-size:16px;font-family:'Courier New';-inkscape-font-specification:CourierNewPSMT;writing-mode:lr-tb;fill:#000000;fill-opacity:1;fill-rule:nonzero;stroke:none"
           id="text168"><tspan
             x="0 10 20 30 40 50 60 70 80 90 100 110 120 130"
             y="0"
             sodipodi:role="line"
             id="tspan166">ContactService</tspan></text>
        <text
           xml:space="preserve"
           transform="translate(1789,782)"
           style="font-variant:normal;font-weight:normal;font-size:20px;font-family:'Times New Roman';-inkscape-font-specification:TimesNewRomanPSMT;writing-mode:lr-tb;fill:#000000;fill-opacity:1;fill-rule:nonzero;stroke:none"
           id="text172"><tspan
             x="0 5 10 22 31 40 49 54 63 73 82 87 96 105 115 120 125 135 140 148 157 166 176 181"
             y="0"
             sodipodi:role="line"
             id="tspan170">. Then you had to send a</tspan></text>
        <text
           xml:space="preserve"
           transform="translate(1392,805)"
           style="font-variant:normal;font-weight:normal;font-size:16px;font-family:'Courier New';-inkscape-font-specification:CourierNewPSMT;writing-mode:lr-tb;fill:#000000;fill-opacity:1;fill-rule:nonzero;stroke:none"
           id="text176"><tspan
             x="0 10 20 30 40 50 60 70 80 90 100 110 120"
             y="0"
             sodipodi:role="line"
             id="tspan174">CreateContact</tspan></text>
        <text
           xml:space="preserve"
           transform="translate(1527,805)"
           style="font-variant:normal;font-weight:normal;font-size:20px;font-family:'Times New Roman';-inkscape-font-specification:TimesNewRomanPSMT;writing-mode:lr-tb;fill:#000000;fill-opacity:1;fill-rule:nonzero;stroke:none"
           id="text180"><tspan
             x="0 14 23 31 39 48 57 66 71 76 86 91 96 105 114"
             y="0"
             sodipodi:role="line"
             id="tspan178">message to the </tspan></text>
        <text
           xml:space="preserve"
           transform="translate(1646,805)"
           style="font-variant:normal;font-weight:normal;font-size:16px;font-family:'Courier New';-inkscape-font-specification:CourierNewPSMT;writing-mode:lr-tb;fill:#000000;fill-opacity:1;fill-rule:nonzero;stroke:none"
           id="text184"><tspan
             x="0 10 20 30 40 50 60 70 80 90 100 110 120 130"
             y="0"
             sodipodi:role="line"
             id="tspan182">ContactService</tspan></text>
        <text
           xml:space="preserve"
           transform="translate(1786,805)"
           style="font-variant:normal;font-weight:normal;font-size:20px;font-family:'Times New Roman';-inkscape-font-specification:TimesNewRomanPSMT;writing-mode:lr-tb;fill:#000000;fill-opacity:1;fill-rule:nonzero;stroke:none"
           id="text188"><tspan
             x="0 5 10 24 30 35 44 54 63 70 78 87 92 97 102 111 117 125 130 144 153 161 169 178 187 196 201 210 219 229 234 244 254 262 271 280"
             y="0"
             sodipodi:role="line"
             id="tspan186">. Of course, this message had dozens</tspan></text>
        <text
           xml:space="preserve"
           transform="translate(1392,828)"
           style="font-variant:normal;font-weight:normal;font-size:20px;font-family:'Times New Roman';-inkscape-font-specification:TimesNewRomanPSMT;writing-mode:lr-tb;fill:#000000;fill-opacity:1;fill-rule:nonzero;stroke:none"
           id="text192"><tspan
             x="0 10 16 21 27 33 42 48 58 66 71 76 85 94 99 104 113 119 125 130 139 148 158 163 168 178 183 192 201 211 220 225 235 244 250 256 266 271 281 290 295 304 309 315 324 329 334 343 352 366 386 396 405 410 419 424 429 439 444 459 468 474 483 492 497 502 511 520 525 535 542 552 561 568 577 591 605 614 621 626 635 644 654 659 668"
             y="0"
             sodipodi:role="line"
             id="tspan190">of fields that all had to have valid data in them—data to which the programmer had no</tspan></text>
        <text
           xml:space="preserve"
           transform="translate(1392,851)"
           style="font-variant:normal;font-weight:normal;font-size:20px;font-family:'Times New Roman';-inkscape-font-specification:TimesNewRomanPSMT;writing-mode:lr-tb;fill:#000000;fill-opacity:1;fill-rule:nonzero;stroke:none"
           id="text196"><tspan
             x="0 9 18 27 36 44 52 57 62 70 76 85 94 103 108 117 123 129 134 139 148 157 162 172 179 189 198 205 214 228 242 251 258 263 272 281 291 296 311 320 328 333 342 347 356 365 379 388 393 398 407 417 427 434 443 451 459 464 469 478 487 497 502 512 521 531 540 549 554 563 572 586 596 605 611 616 621 635 641 646 655"
             y="0"
             sodipodi:role="line"
             id="tspan194">access, since all the programmer had was a name, address, and phone number. After</tspan></text>
        <text
           xml:space="preserve"
           transform="translate(1392,874)"
           style="font-variant:normal;font-weight:normal;font-size:20px;font-family:'Times New Roman';-inkscape-font-specification:TimesNewRomanPSMT;writing-mode:lr-tb;fill:#000000;fill-opacity:1;fill-rule:nonzero;stroke:none"
           id="text200"><tspan
             x="0 6 15 24 30 39 48 53 58 67 76 81 91 100 105 114 119 124 129 138 147 152 162 169 179 188 195 204 218 232 241 248 253 262 271 281 286 291 301 306 312 321 335 340 345 354 363 368 374 388 393 403 409 414 419 428 437 442 451 460 475 481 490 495 504 511 520 529 534 543 553 558 567 577 586 591 600 609 614 619 625 634 639 649 654 659 668"
             y="0"
             sodipodi:role="line"
             id="tspan198">faking the data, the programmer had to jam the ID of the newly created contact into the</tspan></text>
        <text
           xml:space="preserve"
           transform="translate(1392,897)"
           style="font-variant:normal;font-weight:normal;font-size:20px;font-family:'Times New Roman';-inkscape-font-specification:TimesNewRomanPSMT;writing-mode:lr-tb;fill:#000000;fill-opacity:1;fill-rule:nonzero;stroke:none"
           id="text204"><tspan
             x="0 8 17 23 32 40 45 52 61 70 80 87 97 102 111 120 130 135 143 152 161 171 176 181 190 199"
             y="0"
             sodipodi:role="line"
             id="tspan202">sales record and send the </tspan></text>
        <text
           xml:space="preserve"
           transform="translate(1596,897)"
           style="font-variant:normal;font-weight:normal;font-size:16px;font-family:'Courier New';-inkscape-font-specification:CourierNewPSMT;writing-mode:lr-tb;fill:#000000;fill-opacity:1;fill-rule:nonzero;stroke:none"
           id="text208"><tspan
             x="0 10 20 30 40 50 60 70 80 90 100 110 120"
             y="0"
             sodipodi:role="line"
             id="tspan206">UpdateContact</tspan></text>
        <text
           xml:space="preserve"
           transform="translate(1731,897)"
           style="font-variant:normal;font-weight:normal;font-size:20px;font-family:'Times New Roman';-inkscape-font-specification:TimesNewRomanPSMT;writing-mode:lr-tb;fill:#000000;fill-opacity:1;fill-rule:nonzero;stroke:none"
           id="text212"><tspan
             x="0 14 23 31 39 48 57 66 71 76 86 91 96 105 114"
             y="0"
             sodipodi:role="line"
             id="tspan210">message to the </tspan></text>
        <text
           xml:space="preserve"
           transform="translate(1850,897)"
           style="font-variant:normal;font-weight:normal;font-size:16px;font-family:'Courier New';-inkscape-font-specification:CourierNewPSMT;writing-mode:lr-tb;fill:#000000;fill-opacity:1;fill-rule:nonzero;stroke:none"
           id="text216"><tspan
             x="0 10 20 30 40 50 60 70 80 90 100 110 120 130 140 150 160"
             y="0"
             sodipodi:role="line"
             id="tspan214">SaleRecordService</tspan></text>
        <text
           xml:space="preserve"
           transform="translate(2020,897)"
           style="font-variant:normal;font-weight:normal;font-size:20px;font-family:'Times New Roman';-inkscape-font-specification:TimesNewRomanPSMT;writing-mode:lr-tb;fill:#000000;fill-opacity:1;fill-rule:nonzero;stroke:none"
           id="text220"><tspan
             x="0"
             y="0"
             id="tspan218">.</tspan></text>
        <text
           xml:space="preserve"
           transform="translate(1392,940)"
           style="font-variant:normal;font-weight:normal;font-size:20px;font-family:'Times New Roman';-inkscape-font-specification:TimesNewRomanPSMT;writing-mode:lr-tb;fill:#000000;fill-opacity:1;fill-rule:nonzero;stroke:none"
           id="text224"><tspan
             x="0 14 20 25 34 44 53 60 68 77 82 87 92 102 107 112 121 129 134 139 148 157 166 171 180 186 195 204 209 218 228 237 242 251 260 270 275 280 290 295 301 307 314 323 328 337 347 352 361 367 373 378 383 392 401 406 415 424 433 442 450 458 467 474 483 488 496 505 512 522 528 537 546 554 559 564 574 583 592 597 607 616 621 631 640 649 654 659 668 677"
             y="0"
             sodipodi:role="line"
             id="tspan222">Of course, to test anything you had to fire up all the necessary services, one by one, and</tspan></text>
        <text
           xml:space="preserve"
           transform="translate(1392,963)"
           style="font-variant:normal;font-weight:normal;font-size:20px;font-family:'Times New Roman';-inkscape-font-specification:TimesNewRomanPSMT;writing-mode:lr-tb;fill:#000000;fill-opacity:1;fill-rule:nonzero;stroke:none"
           id="text228"><tspan
             x="0 6 12 19 28 33 42 52 57 62 71 80 85 99 108 116 124 133 142 151 156 166 175 183 188 193 202 211 221 226 231 240 249 254 267 278 287 293 298 306 315 322 332 341 347 352 357 366 375 385 390 410 415 429 438 448 453 458 467 476 485 490 495 500 509 518 525 534 539 554 563 570 579 584 589 598"
             y="0"
             sodipodi:role="line"
             id="tspan226">fire up the message bus, and the BPel server, and … And then, there were the</tspan></text>
        <text
           xml:space="preserve"
           transform="translate(1392,986)"
           style="font-variant:normal;font-weight:normal;font-size:20px;font-family:'Times New Roman';-inkscape-font-specification:TimesNewRomanPSMT;writing-mode:lr-tb;fill:#000000;fill-opacity:1;fill-rule:nonzero;stroke:none"
           id="text232"><tspan
             x="0 10 17 27 37 46 55 64 69 75 85 94 99 109 118 124 133 142 150 155 164 172 177 182 191 200 208 217 222 236 245 253 261 270 279 288 296 301 311 321 330 339 348 357 367 372 378 385 395 409 414 422 431 438 448 454 463 472 477 482 492 497 505 514 521 531 537 546 555 560 565 574 583 593 598 613 622 628 633 642 652 657 663"
             y="0"
             sodipodi:role="line"
             id="tspan230">propagation delays as these messages bounced from service to service, and waited in</tspan></text>
      </g>
    </g>
  </g>
</svg>
