<?xml version="1.0" encoding="UTF-8" standalone="no"?>
<!-- Created with Inkscape (http://www.inkscape.org/) -->

<svg
   version="1.1"
   id="svg2"
   width="816"
   height="1056"
   viewBox="0 0 816 1056"
   sodipodi:docname="clean_arch.pdf"
   xmlns:inkscape="http://www.inkscape.org/namespaces/inkscape"
   xmlns:sodipodi="http://sodipodi.sourceforge.net/DTD/sodipodi-0.dtd"
   xmlns="http://www.w3.org/2000/svg"
   xmlns:svg="http://www.w3.org/2000/svg">
  <defs
     id="defs6">
    <clipPath
       clipPathUnits="userSpaceOnUse"
       id="clipPath18">
      <path
         d="M 0,0 H 696 V 1056 H 0 V 0"
         clip-rule="evenodd"
         id="path16" />
    </clipPath>
    <clipPath
       clipPathUnits="userSpaceOnUse"
       id="clipPath28">
      <path
         d="M 0,66 H 696 V 996 H 0 V 66"
         clip-rule="evenodd"
         id="path26" />
    </clipPath>
  </defs>
  <sodipodi:namedview
     id="namedview4"
     pagecolor="#ffffff"
     bordercolor="#000000"
     borderopacity="0.25"
     inkscape:showpageshadow="2"
     inkscape:pageopacity="0.0"
     inkscape:pagecheckerboard="0"
     inkscape:deskcolor="#d1d1d1" />
  <g
     id="g8"
     inkscape:groupmode="layer"
     inkscape:label="clean_arch"
     transform="translate(59.999999,2.64e-5)">
    <g
       id="g10" />
    <g
       id="g12">
      <g
         id="g14"
         clip-path="url(#clipPath18)">
        <g
           id="g20" />
      </g>
    </g>
    <g
       id="g22">
      <g
         id="g24"
         clip-path="url(#clipPath28)">
        <text
           xml:space="preserve"
           transform="translate(0,92)"
           style="font-variant:normal;font-weight:bold;font-size:28px;font-family:'Times New Roman';-inkscape-font-specification:TimesNewRomanPS-BoldMT;writing-mode:lr-tb;fill:#000000;fill-opacity:1;fill-rule:nonzero;stroke:none"
           id="text32"><tspan
             x="0 20 36 50 66 75 82 100 116 124 135 142 161 170 190 204 218"
             y="0"
             sodipodi:role="line"
             id="tspan30">About This E-Book</tspan></text>
        <text
           xml:space="preserve"
           transform="translate(0,140)"
           style="font-variant:normal;font-weight:normal;font-size:20px;font-family:'Times New Roman';-inkscape-font-specification:TimesNewRomanPSMT;writing-mode:lr-tb;fill:#000000;fill-opacity:1;fill-rule:nonzero;stroke:none"
           id="text36"><tspan
             x="0 12 23 36 49 54 60 68 73 82 91 96 106 116 125 134 139 144 150 159 169 178 186 191 198 207 214 222 227 236 245 255 264 271 281 286 292 302 309 323 332 337 342 348 358 365 370 379 386 396 406 416 425 433 438 443 457 467 482 491 501 510 516 521 526 534 543 553 563 573 580 585 590 596 606 613 618 630 641 654"
             y="0"
             sodipodi:role="line"
             id="tspan34">EPUB is an open, industry-standard format for e-books. However, support for EPUB</tspan></text>
        <text
           xml:space="preserve"
           transform="translate(0,163)"
           style="font-variant:normal;font-weight:normal;font-size:20px;font-family:'Times New Roman';-inkscape-font-specification:TimesNewRomanPSMT;writing-mode:lr-tb;fill:#000000;fill-opacity:1;fill-rule:nonzero;stroke:none"
           id="text40"><tspan
             x="0 9 18 28 33 39 44 52 57 71 80 89 98 103 109 118 127 132 141 148 157 165 170 180 189 196 202 211 219 224 233 242 249 259 267 275 280 287 296 305 315 321 330 339 344 354 363 373 379 388 397 405 410 419 428 438 443 452 462 472 478 484 493 502 507 513 523 532 540 545 550 563 571 580 585 594 604 613 620 625 635 644 654 660 669"
             y="0"
             sodipodi:role="line"
             id="tspan38">and its many features varies across reading devices and applications. Use your device</tspan></text>
        <text
           xml:space="preserve"
           transform="translate(0,186)"
           style="font-variant:normal;font-weight:normal;font-size:20px;font-family:'Times New Roman';-inkscape-font-specification:TimesNewRomanPSMT;writing-mode:lr-tb;fill:#000000;fill-opacity:1;fill-rule:nonzero;stroke:none"
           id="text44"><tspan
             x="0 10 17 22 31 41 51 56 64 73 78 83 89 98 107 115 120 125 135 140 149 158 166 171 181 195 201 209 218 223 228 237 246 251 261 268 277 285 294 303 308 317 322 328 338 347 352 357 367 372 381 391 400 407 412 418 424 433 439 448 457 462 467 478 487 492 497 503 512 521 529 534 539 548 557 562 567 576 586 595 600 609 618"
             y="0"
             sodipodi:role="line"
             id="tspan42">or app settings to customize the presentation to your liking. Settings that you can</tspan></text>
        <text
           xml:space="preserve"
           transform="translate(0,209)"
           style="font-variant:normal;font-weight:normal;font-size:20px;font-family:'Times New Roman';-inkscape-font-specification:TimesNewRomanPSMT;writing-mode:lr-tb;fill:#000000;fill-opacity:1;fill-rule:nonzero;stroke:none"
           id="text48"><tspan
             x="0 9 18 26 31 41 55 61 69 78 83 93 99 104 113 122 127 133 142 151 157 166 176 185 190 196 206 215 220 225 230 236 246 255 260 265 273 279 287 296 301 306 314 320 329 338 344 353 358 368 375 380 390 400 409 419 425 434 439 448 458 464 473 487 496 501 506 512 521 530 540 548 557 566 576 585 590 600 607 612 622 632 639 644 651 660 666"
             y="0"
             sodipodi:role="line"
             id="tspan46">customize often include font, font size, single or double column, landscape or portrait</tspan></text>
        <text
           xml:space="preserve"
           transform="translate(0,232)"
           style="font-variant:normal;font-weight:normal;font-size:20px;font-family:'Times New Roman';-inkscape-font-specification:TimesNewRomanPSMT;writing-mode:lr-tb;fill:#000000;fill-opacity:1;fill-rule:nonzero;stroke:none"
           id="text52"><tspan
             x="0 14 24 34 43 48 53 62 71 81 86 92 98 107 116 123 132 140 145 150 159 168 173 178 187 197 206 211 220 229 238 243 252 258 264 273 282 287 297 304 309 314 323 333 338 343 353 358 367 376 382 391 398 407 416 421 426 437 447 454 459 468 478 488 494 499 505 515 524 533 539 544 550 559 565 575 582 596 605 610 616 626 635 640 649 659 669 678"
             y="0"
             sodipodi:role="line"
             id="tspan50">mode, and figures that you can click or tap to enlarge. For additional information about</tspan></text>
        <text
           xml:space="preserve"
           transform="translate(0,255)"
           style="font-variant:normal;font-weight:normal;font-size:20px;font-family:'Times New Roman';-inkscape-font-specification:TimesNewRomanPSMT;writing-mode:lr-tb;fill:#000000;fill-opacity:1;fill-rule:nonzero;stroke:none"
           id="text56"><tspan
             x="0 5 14 23 28 36 45 50 55 61 70 79 87 92 101 110 120 125 131 140 149 154 163 170 179 187 192 202 211 216 225 235 244 251 256 263 272 281 291 297 306 315 320 330 339 349 355 364 373 378 388 395 400 409 419 429 434 439 449 455 463 469 474 479 484 493 502 507 517 526 536 542 551 560 565 579 588 597 606 612 621 630 635 644 651 660 668 674"
             y="0"
             sodipodi:role="line"
             id="tspan54">the settings and features on your reading device or app, visit the device manufacturer’s</tspan></text>
        <text
           xml:space="preserve"
           transform="translate(0,278)"
           style="font-variant:normal;font-weight:normal;font-size:20px;font-family:'Times New Roman';-inkscape-font-specification:TimesNewRomanPSMT;writing-mode:lr-tb;fill:#000000;fill-opacity:1;fill-rule:nonzero;stroke:none"
           id="text60"><tspan
             x="0 16 25 35 40 48 54 59 68"
             y="0"
             sodipodi:role="line"
             id="tspan58">Web site.</tspan></text>
        <text
           xml:space="preserve"
           transform="translate(0,321)"
           style="font-variant:normal;font-weight:normal;font-size:20px;font-family:'Times New Roman';-inkscape-font-specification:TimesNewRomanPSMT;writing-mode:lr-tb;fill:#000000;fill-opacity:1;fill-rule:nonzero;stroke:none"
           id="text64"><tspan
             x="0 17 26 35 44 49 54 60 65 71 80 88 93 99 108 117 123 132 142 151 156 166 173 183 192 199 208 222 236 242 251 260 265 274 284 294 303 308 318 325 330 339 349 358 364 370 379 388 395 404 409 415 425 434 439 448 457 466 480 490 496 505 513 518 523 533 543 548 558 568 573 579 593 599 607 616 621 626 635"
             y="0"
             sodipodi:role="line"
             id="tspan62">Many titles include programming code or configuration examples. To optimize the</tspan></text>
        <text
           xml:space="preserve"
           transform="translate(0,344)"
           style="font-variant:normal;font-weight:normal;font-size:20px;font-family:'Times New Roman';-inkscape-font-specification:TimesNewRomanPSMT;writing-mode:lr-tb;fill:#000000;fill-opacity:1;fill-rule:nonzero;stroke:none"
           id="text68"><tspan
             x="0 10 17 26 34 43 52 57 66 71 77 87 96 101 111 117 122 127 136 145 153 162 167 176 182 191 205 214 223 228 236 241 246 256 262 271 286 291 296 305 314 319 328 335 345 355 365 374 379 385 394 399 407 413 422 431 437 446 453 462 472 478 487 501 510 515 520 526 535 544 554 562 571 580 590 599 604 618 628 638 647 652 661 670"
             y="0"
             sodipodi:role="line"
             id="tspan66">presentation of these elements, view the e-book in single-column, landscape mode and</tspan></text>
        <text
           xml:space="preserve"
           transform="translate(0,367)"
           style="font-variant:normal;font-weight:normal;font-size:20px;font-family:'Times New Roman';-inkscape-font-specification:TimesNewRomanPSMT;writing-mode:lr-tb;fill:#000000;fill-opacity:1;fill-rule:nonzero;stroke:none"
           id="text72"><tspan
             x="0 9 19 25 34 42 47 52 57 66 75 80 86 96 105 110 115 123 129 137 146 151 156 166 171 176 185 194 199 207 221 230 236 242 251 259 264 269 277 286 291 296 302 311 320 325 330 336 345 350 359 369 379 385 390 396 406 415 420 425 435 440 450 457 466 474 483 492 497 503 512 521 526 535 545 555 564 569 578 587"
             y="0"
             sodipodi:role="line"
             id="tspan70">adjust the font size to the smallest setting. In addition to presenting code and</tspan></text>
        <text
           xml:space="preserve"
           transform="translate(0,390)"
           style="font-variant:normal;font-weight:normal;font-size:20px;font-family:'Times New Roman';-inkscape-font-specification:TimesNewRomanPSMT;writing-mode:lr-tb;fill:#000000;fill-opacity:1;fill-rule:nonzero;stroke:none"
           id="text76"><tspan
             x="0 9 19 28 34 40 49 58 65 74 79 85 95 104 112 117 123 132 137 142 151 160 165 172 181 187 193 203 218 227 237 243 252 257 262 271 280 285 290 296 306 313 327 336 341 346 351 366 375 380 389 398 408 417 422 428 437 446 452 461 471 480 490 495 501 515 524 533 542 550 555 565 571 576 581 590 599 604 613 623 633 642 647 652 661 670"
             y="0"
             sodipodi:role="line"
             id="tspan74">configurations in the reflowable text format, we have included images of the code that</tspan></text>
        <text
           xml:space="preserve"
           transform="translate(0,413)"
           style="font-variant:normal;font-weight:normal;font-size:20px;font-family:'Times New Roman';-inkscape-font-specification:TimesNewRomanPSMT;writing-mode:lr-tb;fill:#000000;fill-opacity:1;fill-rule:nonzero;stroke:none"
           id="text80"><tspan
             x="0 14 20 34 40 49 54 59 68 77 82 92 99 108 116 125 134 139 148 153 159 169 178 183 189 199 208 217 227 232 238 247 252 257 266 275 280 290 297 303 312 317 322 332 342 352 361 366 371 376 385 394 401 410 416 426 433 442 447 452 467 476 485 492 501 506 511 520 529 534 541 550 556 562 572 587 596 606 612 621 626 632 642 649 663 672"
             y="0"
             sodipodi:role="line"
             id="tspan78">mimic the presentation found in the print book; therefore, where the reflowable format</tspan></text>
        <text
           xml:space="preserve"
           transform="translate(0,436)"
           style="font-variant:normal;font-weight:normal;font-size:20px;font-family:'Times New Roman';-inkscape-font-specification:TimesNewRomanPSMT;writing-mode:lr-tb;fill:#000000;fill-opacity:1;fill-rule:nonzero;stroke:none"
           id="text84"><tspan
             x="0 14 23 32 37 46 56 70 80 87 97 111 117 125 134 139 144 153 162 167 177 184 193 201 210 219 224 233 238 244 254 263 268 278 284 289 294 303 312 317 326 336 346 355 360 366 372 380 385 391 400 409 414 419 428 438 447 452 467 473 479 485 490 498 507 516 521 530 535 544 557 563 569 578 587 592 601 610 617 626 631 636 646 651 661 667 676"
             y="0"
             sodipodi:role="line"
             id="tspan82">may compromise the presentation of the code listing, you will see a “Click here to view</tspan></text>
        <text
           xml:space="preserve"
           transform="translate(0,459)"
           style="font-variant:normal;font-weight:normal;font-size:20px;font-family:'Times New Roman';-inkscape-font-specification:TimesNewRomanPSMT;writing-mode:lr-tb;fill:#000000;fill-opacity:1;fill-rule:nonzero;stroke:none"
           id="text88"><tspan
             x="0 9 19 29 38 43 49 63 72 81 90 99 104 110 116 125 134 139 144 157 163 169 178 187 192 197 206 215 220 226 232 241 250 255 260 270 275 285 291 300 315 320 325 334 343 348 358 365 371 380 385 392 398 404 414 423 429 435 440 449 454 463 473 483 492 497 503 517 526 535 544 549 554 564 574 579 586 595 600 609 616 625 630 635 645 650 655 664"
             y="0"
             sodipodi:role="line"
             id="tspan86">code image” link. Click the link to view the print-fidelity code image. To return to the</tspan></text>
        <text
           xml:space="preserve"
           transform="translate(0,482)"
           style="font-variant:normal;font-weight:normal;font-size:20px;font-family:'Times New Roman';-inkscape-font-specification:TimesNewRomanPSMT;writing-mode:lr-tb;fill:#000000;fill-opacity:1;fill-rule:nonzero;stroke:none"
           id="text92"><tspan
             x="0 10 17 26 36 42 52 61 69 74 84 93 102 111 116 126 132 141 156 165 175 180 185 194 200 206 215 224 229 234 243 252 257 270 279 288 297 302 312 321 326 331 341 350 355 365 374 379 388 398 407 414 419 429 438 448 454 463 472 477 487 494 499 508 518 528"
             y="0"
             sodipodi:role="line"
             id="tspan90">previous page viewed, click the Back button on your device or app.</tspan></text>
      </g>
    </g>
  </g>
</svg>
