<?xml version="1.0" encoding="UTF-8" standalone="no"?>
<!-- Created with Inkscape (http://www.inkscape.org/) -->

<svg
   version="1.1"
   id="svg2"
   width="816"
   height="1056"
   viewBox="0 0 816 1056"
   sodipodi:docname="mPfXAkCxXywqXh4n.pdf"
   xmlns:inkscape="http://www.inkscape.org/namespaces/inkscape"
   xmlns:sodipodi="http://sodipodi.sourceforge.net/DTD/sodipodi-0.dtd"
   xmlns="http://www.w3.org/2000/svg"
   xmlns:svg="http://www.w3.org/2000/svg">
  <defs
     id="defs6">
    <clipPath
       clipPathUnits="userSpaceOnUse"
       id="clipPath18">
      <path
         d="m 696,0 h 696 V 1056 H 696 V 0"
         clip-rule="evenodd"
         id="path16" />
    </clipPath>
    <clipPath
       clipPathUnits="userSpaceOnUse"
       id="clipPath28">
      <path
         d="m 696,66 h 696 V 996 H 696 V 66"
         clip-rule="evenodd"
         id="path26" />
    </clipPath>
  </defs>
  <sodipodi:namedview
     id="namedview4"
     pagecolor="#ffffff"
     bordercolor="#000000"
     borderopacity="0.25"
     inkscape:showpageshadow="2"
     inkscape:pageopacity="0.0"
     inkscape:pagecheckerboard="0"
     inkscape:deskcolor="#d1d1d1" />
  <g
     id="g8"
     inkscape:groupmode="layer"
     inkscape:label="mPfXAkCxXywqXh4n"
     transform="translate(59.999999,2.64e-5)">
    <g
       id="g10" />
    <g
       id="g12"
       transform="translate(-696)">
      <g
         id="g14"
         clip-path="url(#clipPath18)">
        <g
           id="g20" />
      </g>
    </g>
    <g
       id="g22"
       transform="translate(-696)">
      <g
         id="g24"
         clip-path="url(#clipPath28)">
        <text
           xml:space="preserve"
           transform="translate(696,83)"
           style="font-variant:normal;font-weight:normal;font-size:20px;font-family:'Times New Roman';-inkscape-font-specification:TimesNewRomanPSMT;writing-mode:lr-tb;fill:#000000;fill-opacity:1;fill-rule:nonzero;stroke:none"
           id="text32"><tspan
             x="0 13 22 27 32 42 51 60 68 74 83 92 98 103 111 120 129 135 144 149 155 163 168 176 186 200 209 214 223 229 238 247 252 261 270 284 293 302 310 315 324 333 343 352 359 367 372 381 390 400 405 414 423 433 438 444 454 464 473 478 484 494 501 506 512 521 526 531 540 549 554 569 579 586 592 602 607 612 626 632 637 646 656 665 674"
             y="0"
             sodipodi:role="line"
             id="tspan30">But physical scale is something humans understand and look for in the world. Although</tspan></text>
        <text
           xml:space="preserve"
           transform="translate(696,106)"
           style="font-variant:normal;font-weight:normal;font-size:20px;font-family:'Times New Roman';-inkscape-font-specification:TimesNewRomanPSMT;writing-mode:lr-tb;fill:#000000;fill-opacity:1;fill-rule:nonzero;stroke:none"
           id="text36"><tspan
             x="0 9 19 29 38 47 53 59 68 77 82 91 100 110 115 125 131 139 148 157 163 169 178 183 193 203 213 219 229 238 246 251 256 261 270 279 284 294 304 313 322 330 335 345 354 359 368 373 384 394 409 418 425 436 446 452 461 466 471 481 487 496 505 512 521 535 540 549 556 565 570 579 589 594 599 608 613 621 631 637 642 657 666 673"
             y="0"
             sodipodi:role="line"
             id="tspan34">appealing and visually obvious, the boxes on a PowerPoint diagram are not a software</tspan></text>
        <text
           xml:space="preserve"
           transform="translate(696,129)"
           style="font-variant:normal;font-weight:normal;font-size:20px;font-family:'Times New Roman';-inkscape-font-specification:TimesNewRomanPSMT;writing-mode:lr-tb;fill:#000000;fill-opacity:1;fill-rule:nonzero;stroke:none"
           id="text40"><tspan
             x="0 8 17 25 30 39 53 59 67 72 81 88 97 106 112 117 126 135 140 149 156 165 170 175 187 196 205 212 221 227 235 240 249 259 264 274 284 293 303 308 313 318 327 336 345 350 357 366 376 383 392 400 409 418 423 428 437 442 452 461 468 473 479 488 497 503 512 519 524 534 540 549 564 569 579 585 590 599"
             y="0"
             sodipodi:role="line"
             id="tspan38">system’s architecture. There’s no doubt they represent a particular view of an</tspan></text>
        <text
           xml:space="preserve"
           transform="translate(696,152)"
           style="font-variant:normal;font-weight:normal;font-size:20px;font-family:'Times New Roman';-inkscape-font-specification:TimesNewRomanPSMT;writing-mode:lr-tb;fill:#000000;fill-opacity:1;fill-rule:nonzero;stroke:none"
           id="text44"><tspan
             x="0 9 16 25 34 40 45 54 63 68 77 84 93 98 103 113 122 127 132 137 147 152 166 172 180 185 194 203 212 217 227 237 246 255 263 268 274 284 291"
             y="0"
             sodipodi:role="line"
             id="tspan42">architecture, but to mistake boxes for </tspan></text>
        <text
           xml:space="preserve"
           transform="translate(992,152)"
           style="font-variant:normal;font-weight:normal;font-size:20px;font-family:'Times New Roman';-inkscape-font-specification:TimesNewRomanPSMT;writing-mode:lr-tb;fill:#000000;fill-opacity:1;fill-rule:nonzero;stroke:none"
           id="text48"><tspan
             x="0 5 14"
             y="0"
             sodipodi:role="line"
             id="tspan46">the</tspan></text>
        <text
           xml:space="preserve"
           transform="translate(1020,152)"
           style="font-variant:normal;font-weight:normal;font-size:20px;font-family:'Times New Roman';-inkscape-font-specification:TimesNewRomanPSMT;writing-mode:lr-tb;fill:#000000;fill-opacity:1;fill-rule:nonzero;stroke:none"
           id="text52"><tspan
             x="0 10 16 25 30 40 46 55 60 69 76 85 105 111 121 128"
             y="0"
             sodipodi:role="line"
             id="tspan50">big picture—for </tspan></text>
        <text
           xml:space="preserve"
           transform="translate(1153,152)"
           style="font-variant:normal;font-weight:normal;font-size:20px;font-family:'Times New Roman';-inkscape-font-specification:TimesNewRomanPSMT;writing-mode:lr-tb;fill:#000000;fill-opacity:1;fill-rule:nonzero;stroke:none"
           id="text56"><tspan
             x="0 5 14"
             y="0"
             sodipodi:role="line"
             id="tspan54">the</tspan></text>
        <text
           xml:space="preserve"
           transform="translate(1181,152)"
           style="font-variant:normal;font-weight:normal;font-size:20px;font-family:'Times New Roman';-inkscape-font-specification:TimesNewRomanPSMT;writing-mode:lr-tb;fill:#000000;fill-opacity:1;fill-rule:nonzero;stroke:none"
           id="text60"><tspan
             x="0 9 16 25 34 40 45 54 63 68 77 84 93 113 119 127 132 137 147 152 166 172 180"
             y="0"
             sodipodi:role="line"
             id="tspan58">architecture—is to miss</tspan></text>
        <text
           xml:space="preserve"
           transform="translate(696,175)"
           style="font-variant:normal;font-weight:normal;font-size:20px;font-family:'Times New Roman';-inkscape-font-specification:TimesNewRomanPSMT;writing-mode:lr-tb;fill:#000000;fill-opacity:1;fill-rule:nonzero;stroke:none"
           id="text64"><tspan
             x="0 5 14 23 28 38 44 53 58 68 74 83 88 97 104 113 118 127 136 146 151 156 165 174 179 188 195 204 213 219 224 233 242 247 256 263 272 278 283 294 304 310 315 330 339 346 355 360 369 376 385 394 400 405 414 423 428 437 444 453 458 468 478 487 495 504 511 516 521 527 537 547 556 561 567 573 582 591 596 605 614 623 628 637 643 652 661 666 671"
             y="0"
             sodipodi:role="line"
             id="tspan62">the big picture and the architecture: Software architecture doesn’t look like anything. A</tspan></text>
        <text
           xml:space="preserve"
           transform="translate(696,198)"
           style="font-variant:normal;font-weight:normal;font-size:20px;font-family:'Times New Roman';-inkscape-font-specification:TimesNewRomanPSMT;writing-mode:lr-tb;fill:#000000;fill-opacity:1;fill-rule:nonzero;stroke:none"
           id="text68"><tspan
             x="0 10 19 26 31 37 46 55 61 70 77 82 92 98 106 115 124 130 136 144 153 158 164 174 183 188 194 202 207 216 221 230 239 249 255 264 273 278 283 292 302 307 312 321 326 335 341 351 360 369 374 379 385 390 395 401 409 414 423 428 437 446 456 462 471 480 485 491 501 510 519 529 538 548 553 563 572 577 586 591 597 606 613 618 627 636 643 648 656 665 670 675 685"
             y="0"
             sodipodi:role="line"
             id="tspan66">particular visualization is a choice, not a given. It is a choice founded on a further set of</tspan></text>
        <text
           xml:space="preserve"
           transform="translate(696,221)"
           style="font-variant:normal;font-weight:normal;font-size:20px;font-family:'Times New Roman';-inkscape-font-specification:TimesNewRomanPSMT;writing-mode:lr-tb;fill:#000000;fill-opacity:1;fill-rule:nonzero;stroke:none"
           id="text72"><tspan
             x="0 9 18 28 34 43 52 60 66 71 86 95 104 109 114 119 129 134 140 149 158 164 173 183 192 197 202 217 226 235 240 245 250 260 265 274 283 292 298 307 317 326 331 336 351 360 369 374 379 384 394 399 408 422 432 441 450 458 464 472 481 486 496 505 510 518 527 536 546 555 560 570 577 582 591 601 607 617 624 629 634 649 658 667 672 677 682"
             y="0"
             sodipodi:role="line"
             id="tspan70">choices: what to include; what to exclude; what to emphasize by shape or color; what to</tspan></text>
        <text
           xml:space="preserve"
           transform="translate(696,244)"
           style="font-variant:normal;font-weight:normal;font-size:20px;font-family:'Times New Roman';-inkscape-font-specification:TimesNewRomanPSMT;writing-mode:lr-tb;fill:#000000;fill-opacity:1;fill-rule:nonzero;stroke:none"
           id="text76"><tspan
             x="0 10 19 26 35 49 59 68 77 85 91 99 108 113 118 127 134 144 153 162 171 176 185 194 200 206 216 223 237 243 248 257 262 272 279 284 294 308 314 322 330 336 346 355 360 365 377 386 395 402 411 416 422 430 435 444 454 459 468 474 483 492 497 506 515 520 529 536 545 551 556 566 573 578 584 593 598 605 611 620 628 634 643 648 657 667 677 686"
             y="0"
             sodipodi:role="line"
             id="tspan74">de-emphasize through uniformity or omission. There is nothing natural or intrinsic about</tspan></text>
        <text
           xml:space="preserve"
           transform="translate(696,267)"
           style="font-variant:normal;font-weight:normal;font-size:20px;font-family:'Times New Roman';-inkscape-font-specification:TimesNewRomanPSMT;writing-mode:lr-tb;fill:#000000;fill-opacity:1;fill-rule:nonzero;stroke:none"
           id="text80"><tspan
             x="0 10 19 28 33 43 49 58 73 78 88 98 107 114 119 128 137 147 152 161 170 176"
             y="0"
             sodipodi:role="line"
             id="tspan78">one view over another.</tspan></text>
        <text
           xml:space="preserve"
           transform="translate(696,310)"
           style="font-variant:normal;font-weight:normal;font-size:20px;font-family:'Times New Roman';-inkscape-font-specification:TimesNewRomanPSMT;writing-mode:lr-tb;fill:#000000;fill-opacity:1;fill-rule:nonzero;stroke:none"
           id="text84"><tspan
             x="0 14 20 25 34 44 53 62 71 76 82 87 92 106 112 121 130 135 140 149 159 164 169 183 192 201 210 215 223 232 241 249 258 263 268 278 283 288 297 303 312 317 326 336 346 355 360 365 375 384 393 401 407 416 424 429 438 447 457 462 472 481 490 498 504 513 522 528 533 541 550 559 565 574 579 585 594 599 607 617 623 628 643 652 659"
             y="0"
             sodipodi:role="line"
             id="tspan82">Although it might not make sense to talk about physics and physical scale in software</tspan></text>
        <text
           xml:space="preserve"
           transform="translate(696,333)"
           style="font-variant:normal;font-weight:normal;font-size:20px;font-family:'Times New Roman';-inkscape-font-specification:TimesNewRomanPSMT;writing-mode:lr-tb;fill:#000000;fill-opacity:1;fill-rule:nonzero;stroke:none"
           id="text88"><tspan
             x="0 9 16 25 34 40 45 54 63 68 77 84 93 98 103 118 127 132 142 152 157 166 176 186 193 202 211 217 226 231 240 245 254 263 273 278 287 296 303 312 317 326 336 346 355 360 365 374 383 390 395 404 410 419 424 434 443 452 460 466 475 484 490 495 504 514 523 531 536 543 552 558 567 572 580 585 590 601 608 618 627 636 644 652 662"
             y="0"
             sodipodi:role="line"
             id="tspan86">architecture, we do appreciate and care about certain physical constraints. Processor</tspan></text>
        <text
           xml:space="preserve"
           transform="translate(696,356)"
           style="font-variant:normal;font-weight:normal;font-size:20px;font-family:'Times New Roman';-inkscape-font-specification:TimesNewRomanPSMT;writing-mode:lr-tb;fill:#000000;fill-opacity:1;fill-rule:nonzero;stroke:none"
           id="text92"><tspan
             x="0 8 18 27 36 46 51 60 69 79 84 93 102 107 122 132 139 148 153 163 172 181 191 206 212 222 227 236 241 250 259 268 273 283 292 298 304 314 323 330 335 344 349 358 367 374 382 391 396 406 415 422 432 438 447 452 457 467 476 481 490 495 503 512 520 525 534 548 554 562 567 577 586 593 599 609 616 630 639 648 657 666"
             y="0"
             sodipodi:role="line"
             id="tspan90">speed and network bandwidth can deliver a harsh verdict on a system’s performance.</tspan></text>
        <text
           xml:space="preserve"
           transform="translate(696,379)"
           style="font-variant:normal;font-weight:normal;font-size:20px;font-family:'Times New Roman';-inkscape-font-specification:TimesNewRomanPSMT;writing-mode:lr-tb;fill:#000000;fill-opacity:1;fill-rule:nonzero;stroke:none"
           id="text96"><tspan
             x="0 17 26 40 50 57 66 71 80 89 99 104 112 117 127 134 143 152 161 166 175 184 193 198 204 210 224 230 235 240 245 254 263 268 277 291 301 307 312 318 328 337 345 350 360 366 371 380 389 398 403 412 422 432 441 446 456 465 473 482 487 492 503 513 519 524 539 548 555 564 569 583 592 601 606 616 625 630 638 647 656"
             y="0"
             sodipodi:role="line"
             id="tspan94">Memory and storage can limit the ambitions of any code base. Software may be such</tspan></text>
        <text
           xml:space="preserve"
           transform="translate(696,402)"
           style="font-variant:normal;font-weight:normal;font-size:20px;font-family:'Times New Roman';-inkscape-font-specification:TimesNewRomanPSMT;writing-mode:lr-tb;fill:#000000;fill-opacity:1;fill-rule:nonzero;stroke:none"
           id="text100"><tspan
             x="0 8 13 22 28 34 39 48 56 61 71 78 87 96 110 118 123 132 139 148 153 167 176 186 195 200 210 219 224 229 239 248 253 258 264 269 274 281 290 299 307 312 318 327 332 337 346 355 360 370 379 388 396 402 411 420 426 431 446 456 463 469 479"
             y="0"
             sodipodi:role="line"
             id="tspan98">stuff as dreams are made on, but it runs in the physical world.</tspan></text>
        <text
           xml:space="preserve"
           transform="translate(720,432)"
           style="font-variant:normal;font-weight:normal;font-size:15px;font-family:'Times New Roman';-inkscape-font-specification:TimesNewRomanPSMT;writing-mode:lr-tb;fill:#000000;fill-opacity:1;fill-rule:nonzero;stroke:none"
           id="text104"><tspan
             x="0 9 16 19 25 29 32 38 42 46 53 60 64 75 82 89 95 99 104 111 117 120 124 131 135 138 145 149 152 159 166 173 176 180 183 190 197 203 206 210 214 221 228 232 236 240 247 254 258 269 272 275 278 282 285 291 295 298 305 310 313 320 323 327 334 337 341 348 355 362 366 370 377 384 388 395 402 409 416 423 427 430 437 444 448 455 462 469 474 477 484 491 498 502 506 510 517 524 528 532 536 543 550 554 561 568 574 577 582 589 593 596"
             y="0"
             sodipodi:role="line"
             id="tspan102">This is the monstrosity in love, lady, that the will is infinite, and the execution confined; that the desire is</tspan></text>
        <text
           xml:space="preserve"
           transform="translate(720,450)"
           style="font-variant:normal;font-weight:normal;font-size:15px;font-family:'Times New Roman';-inkscape-font-specification:TimesNewRomanPSMT;writing-mode:lr-tb;fill:#000000;fill-opacity:1;fill-rule:nonzero;stroke:none"
           id="text108"><tspan
             x="0 7 14 21 28 35 38 45 51 57 60 64 71 78 85 89 93 100 107 111 118 125 129 133 140 144 150 153 160 167 174 178 182 189 193 196 199 210 213 217"
             y="0"
             sodipodi:role="line"
             id="tspan106">boundless, and the act a slave to limit.</tspan></text>
        <text
           xml:space="preserve"
           transform="translate(1255,469)"
           style="font-variant:normal;font-weight:normal;font-size:15px;font-family:'Times New Roman';-inkscape-font-specification:TimesNewRomanPSMT;writing-mode:lr-tb;fill:#000000;fill-opacity:1;fill-rule:nonzero;stroke:none"
           id="text112"><tspan
             x="0 15 28 31 34 37 40 47 58 62 70 77 84 91 98 104 111 118 125 130"
             y="0"
             sodipodi:role="line"
             id="tspan110">—William Shakespeare</tspan></text>
        <text
           xml:space="preserve"
           transform="translate(696,511)"
           style="font-variant:normal;font-weight:normal;font-size:20px;font-family:'Times New Roman';-inkscape-font-specification:TimesNewRomanPSMT;writing-mode:lr-tb;fill:#000000;fill-opacity:1;fill-rule:nonzero;stroke:none"
           id="text116"><tspan
             x="0 12 21 30 35 45 54 63 71 77 86 95 101 106 121 131 138 144 154 159 165 173 178 193 202 211 218 227 232 247 256 261 270 279 289 294 304 313 320 325 334 344 358 368 377 386 392 401 409 414 423 432 442 447 457 466 473 478 487 496 506 515 525 539 545 554 562 567 573 579 589 598 603 608 620 629 635 643 648 657 663 673 682"
             y="0"
             sodipodi:role="line"
             id="tspan114">The physical world is where we and our companies and our economies live. This gives</tspan></text>
        <text
           xml:space="preserve"
           transform="translate(696,534)"
           style="font-variant:normal;font-weight:normal;font-size:20px;font-family:'Times New Roman';-inkscape-font-specification:TimesNewRomanPSMT;writing-mode:lr-tb;fill:#000000;fill-opacity:1;fill-rule:nonzero;stroke:none"
           id="text120"><tspan
             x="0 9 17 22 31 40 50 55 64 73 80 85 94 103 109 115 125 132 141 146 152 162 171 176 191 200 205 214 223 232 237 246 255 265 274 281 289 294 303 312 322 327 335 345 351 356 371 380 387 396 401 410 417 426 435 441 446 455 464 469 478 485 494 499 509 517 522 527 537 542 551 560 567 572 578 587 595 603 608 618 627 636 644 650 659 668"
             y="0"
             sodipodi:role="line"
             id="tspan118">us another calibration we can understand software architecture by, other less physical</tspan></text>
        <text
           xml:space="preserve"
           transform="translate(696,557)"
           style="font-variant:normal;font-weight:normal;font-size:20px;font-family:'Times New Roman';-inkscape-font-specification:TimesNewRomanPSMT;writing-mode:lr-tb;fill:#000000;fill-opacity:1;fill-rule:nonzero;stroke:none"
           id="text124"><tspan
             x="0 6 16 23 32 41 49 54 63 72 82 87 97 106 115 124 129 135 140 146 155 163 168 173 182 189 199 208 217 226 231 246 255 261 270 279 284 299 308 313 322 331 340 345 350 359 365 374 379 388 397 407 412 419 428 437 445 455 464"
             y="0"
             sodipodi:role="line"
             id="tspan122">forces and quantities through which we can talk and reason.</tspan></text>
        <text
           xml:space="preserve"
           transform="translate(720,587)"
           style="font-variant:normal;font-weight:normal;font-size:15px;font-family:'Times New Roman';-inkscape-font-specification:TimesNewRomanPSMT;writing-mode:lr-tb;fill:#000000;fill-opacity:1;fill-rule:nonzero;stroke:none"
           id="text128"><tspan
             x="0 11 16 23 30 33 37 44 51 55 62 67 74 78 83 90 97 102 109 115 122 129 133 139 143 147 154 161 165 171 174 181 188 191 196 199 206 213 220 224 228 235 242 248 251 258 265 269 276 283 290 293 299 302 309 316 322 326 330 337 344 348 352 358 365 372 379 386 390 397 401 407 414 420 424 431 442 445 449 460 467 474 479 486 490 496 499 506 513 516 521 524 531 538 545 549 553 556 562 566 577 584 591 597 604 609 616"
             y="0"
             sodipodi:role="line"
             id="tspan126">Architecture represents the significant design decisions that shape a system, where significant is measured</tspan></text>
        <text
           xml:space="preserve"
           transform="translate(720,605)"
           style="font-variant:normal;font-weight:normal;font-size:15px;font-family:'Times New Roman';-inkscape-font-specification:TimesNewRomanPSMT;writing-mode:lr-tb;fill:#000000;fill-opacity:1;fill-rule:nonzero;stroke:none"
           id="text132"><tspan
             x="0 7 14 18 25 32 38 42 46 53 58 62 69 76 83 90 97 104"
             y="0"
             sodipodi:role="line"
             id="tspan130">by cost of change.</tspan></text>
        <text
           xml:space="preserve"
           transform="translate(1299,624)"
           style="font-variant:normal;font-weight:normal;font-size:15px;font-family:'Times New Roman';-inkscape-font-specification:TimesNewRomanPSMT;writing-mode:lr-tb;fill:#000000;fill-opacity:1;fill-rule:nonzero;stroke:none"
           id="text136"><tspan
             x="0 15 25 30 37 44 51 55 65 72 79 86"
             y="0"
             sodipodi:role="line"
             id="tspan134">—Grady Booch</tspan></text>
        <text
           xml:space="preserve"
           transform="translate(696,666)"
           style="font-variant:normal;font-weight:normal;font-size:20px;font-family:'Times New Roman';-inkscape-font-specification:TimesNewRomanPSMT;writing-mode:lr-tb;fill:#000000;fill-opacity:1;fill-rule:nonzero;stroke:none"
           id="text140"><tspan
             x="0 11 17 31 40 45 50 64 74 83 92 100 105 110 119 128 138 143 152 158 164 174 181 186 191 200 206 216 225 230 239 247 252 261 266 274 283 292 300 309 314 324 330 335 343 352 361 367 376 381 386 396 401 409 419 426 431 436 446 455 460 475 484 493 502 507 512 521 530 535 541 550 557 566 575 580 589 598 608 613 618 627 636 641 649 663 672 678 684"
             y="0"
             sodipodi:role="line"
             id="tspan138">Time, money, and effort give us a sense of scale to sort between the large and the small,</tspan></text>
        <text
           xml:space="preserve"
           transform="translate(696,689)"
           style="font-variant:normal;font-weight:normal;font-size:20px;font-family:'Times New Roman';-inkscape-font-specification:TimesNewRomanPSMT;writing-mode:lr-tb;fill:#000000;fill-opacity:1;fill-rule:nonzero;stroke:none"
           id="text144"><tspan
             x="0 5 15 20 30 36 44 49 55 64 73 82 88 96 105 110 115 124 133 138 147 154 163 172 178 183 192 201 206 215 222 231 237 242 250 255 264 270 276 281 287 294 304 318 323 328 337 346 351 358 367 375 380 385 390 402 411 417 425 430 444 453 462 470 479 486 495 500 509 515 523 533 538 543 552 558 564 572 577 586 594 599 608 618 633 638 653 662 667 676 685"
             y="0"
             sodipodi:role="line"
             id="tspan142">to distinguish the architectural stuff from the rest. This measure also tells us how we can</tspan></text>
        <text
           xml:space="preserve"
           transform="translate(696,712)"
           style="font-variant:normal;font-weight:normal;font-size:20px;font-family:'Times New Roman';-inkscape-font-specification:TimesNewRomanPSMT;writing-mode:lr-tb;fill:#000000;fill-opacity:1;fill-rule:nonzero;stroke:none"
           id="text148"><tspan
             x="0 10 19 24 33 40 54 60 69 78 83 98 107 116 121 130 139 146 151 160 169 174 183 190 199 208 214 219 228 237 242 251 258 267 272 278 286 291 300 310 320 330 335 345 352 357 366 376 381 387 392 406 416 421 426 436 445 451 460 465 475 485 494 502 507 516 521 530 540 550 560 565 574 581 590 599 605 610 619 628 633 642 649"
             y="0"
             sodipodi:role="line"
             id="tspan146">determine whether an architecture is good or not: Not only does a good architecture</tspan></text>
        <text
           xml:space="preserve"
           transform="translate(696,735)"
           style="font-variant:normal;font-weight:normal;font-size:20px;font-family:'Times New Roman';-inkscape-font-specification:TimesNewRomanPSMT;writing-mode:lr-tb;fill:#000000;fill-opacity:1;fill-rule:nonzero;stroke:none"
           id="text152"><tspan
             x="0 14 23 32 37 42 47 56 65 70 79 88 97 107 115 120 130 136 141 147 152 160 165 174 182 191 198 206 211 216 226 235 245 254 260 270 280 289 296 304 309 314 323 332 342 347 357 372 381 390 397 405 410 419 424 429 438 443 452 458 468 477 486 491 501 511 517 526 531 536 542 551 556 561 567 581 590 595 600 610 619 624 629 635 640 645 654 660 668"
             y="0"
             sodipodi:role="line"
             id="tspan150">meet the needs of its users, developers, and owners at a given point in time, but it also</tspan></text>
        <text
           xml:space="preserve"
           transform="translate(696,758)"
           style="font-variant:normal;font-weight:normal;font-size:20px;font-family:'Times New Roman';-inkscape-font-specification:TimesNewRomanPSMT;writing-mode:lr-tb;fill:#000000;fill-opacity:1;fill-rule:nonzero;stroke:none"
           id="text156"><tspan
             x="0 14 23 32 37 45 50 55 64 73 87 92 102 112 121 128 133 138 144 158 167"
             y="0"
             sodipodi:role="line"
             id="tspan154">meets them over time.</tspan></text>
        <text
           xml:space="preserve"
           transform="translate(720,788)"
           style="font-variant:normal;font-weight:normal;font-size:15px;font-family:'Times New Roman';-inkscape-font-specification:TimesNewRomanPSMT;writing-mode:lr-tb;fill:#000000;fill-opacity:1;fill-rule:nonzero;stroke:none"
           id="text160"><tspan
             x="0 5 10 14 21 28 35 39 43 50 53 60 67 71 78 85 92 99 103 110 115 122 129 132 136 143 150 154 161 166 173 177 180 186 190 197 204 211 218 225 231 234 241 248 251 255 259 264 271 275 282 289 296 300 307 312 319 326 329 333 340 347 351 358 363 370"
             y="0"
             sodipodi:role="line"
             id="tspan158">If you think good architecture is expensive, try bad architecture.</tspan></text>
        <text
           xml:space="preserve"
           transform="translate(1200,807)"
           style="font-variant:normal;font-weight:normal;font-size:15px;font-family:'Times New Roman';-inkscape-font-specification:TimesNewRomanPSMT;writing-mode:lr-tb;fill:#000000;fill-opacity:1;fill-rule:nonzero;stroke:none"
           id="text164"><tspan
             x="0 15 25 30 33 40 47 51 59 66 73 77 84 88 95 102 109 113 119 126 132 139 146 153 157 166 173 180 187"
             y="0"
             sodipodi:role="line"
             id="tspan162">—Brian Foote and Joseph Yoder</tspan></text>
        <text
           xml:space="preserve"
           transform="translate(696,849)"
           style="font-variant:normal;font-weight:normal;font-size:20px;font-family:'Times New Roman';-inkscape-font-specification:TimesNewRomanPSMT;writing-mode:lr-tb;fill:#000000;fill-opacity:1;fill-rule:nonzero;stroke:none"
           id="text168"><tspan
             x="0 12 21 30 35 44 50 59 69 77 82 92 98 103 112 121 130 139 148 157 165 170 179 184 192 201 209 214 223 237 243 251 256 266 275 285 294 300 310 320 334 343 352 357 362 367 376 386 392 401 410 416 422 431 436 445 454 464 473 480 486 495 504 513 522 530 535 543 552 562 571 577 587 592 601 611 616 621 631 640 645 650 659"
             y="0"
             sodipodi:role="line"
             id="tspan166">The kinds of changes a system’s development typically experiences should not be the</tspan></text>
        <text
           xml:space="preserve"
           transform="translate(696,872)"
           style="font-variant:normal;font-weight:normal;font-size:20px;font-family:'Times New Roman';-inkscape-font-specification:TimesNewRomanPSMT;writing-mode:lr-tb;fill:#000000;fill-opacity:1;fill-rule:nonzero;stroke:none"
           id="text172"><tspan
             x="0 9 18 27 36 45 54 62 67 72 81 90 95 100 109 116 125 130 139 149 157 162 168 176 181 186 191 200 209 214 219 228 235 244 249 258 267 274 284 289 294 304 309 323 332 341 350 355 360 365 374 383 388 393 398 407 416 425 430 444 453 462 471 480 489 499 504 514 521 531 537 546 555 560 568 573 583 589 594 599 608 617 623 630 635 645 660"
             y="0"
             sodipodi:role="line"
             id="tspan170">changes that are costly, that are hard to make, that take managed projects of their own</tspan></text>
        <text
           xml:space="preserve"
           transform="translate(696,895)"
           style="font-variant:normal;font-weight:normal;font-size:20px;font-family:'Times New Roman';-inkscape-font-specification:TimesNewRomanPSMT;writing-mode:lr-tb;fill:#000000;fill-opacity:1;fill-rule:nonzero;stroke:none"
           id="text176"><tspan
             x="0 7 16 21 30 39 46 51 56 65 74 83 88 98 107 113 122 131 136 142 152 158 168 177 187 192 198 207 212 222 227 232 241 250 255 265 274 280 286 295 300 309 318 328 333 348 357 366 375 381 390 395 401 407 417 432 437 447 453 458 473 483 490 499"
             y="0"
             sodipodi:role="line"
             id="tspan174">rather than being folded into the daily and weekly flow of work.</tspan></text>
        <text
           xml:space="preserve"
           transform="translate(696,938)"
           style="font-variant:normal;font-weight:normal;font-size:20px;font-family:'Times New Roman';-inkscape-font-specification:TimesNewRomanPSMT;writing-mode:lr-tb;fill:#000000;fill-opacity:1;fill-rule:nonzero;stroke:none"
           id="text180"><tspan
             x="0 12 21 30 35 40 50 60 66 75 80 85 91 100 109 119 127 132 141 149 154 159 169 174 183 188 197 207 212 219 227 237 244 252 266 275 281 287 292 302 311 320 328 334 343 351 358 365 374 380 389 394 403 413 418 428 435 445 455 461 470 484 490 495 500 506 520 529 534 539 546 555 565 574 580 585 590 604 614 629 634 644 654 659 674"
             y="0"
             sodipodi:role="line"
             id="tspan178">That point leads us to a not-so-small physics-related problem: time travel. How do we</tspan></text>
        <text
           xml:space="preserve"
           transform="translate(696,961)"
           style="font-variant:normal;font-weight:normal;font-size:20px;font-family:'Times New Roman';-inkscape-font-specification:TimesNewRomanPSMT;writing-mode:lr-tb;fill:#000000;fill-opacity:1;fill-rule:nonzero;stroke:none"
           id="text184"><tspan
             x="0 9 18 28 43 48 63 72 81 86 91 96 105 115 123 132 137 142 151 161 167 176 185 191 196 205 214 223 232 241 250 258 263 278 284 290 296 301 311 320 325 333 343 348 353 362 371 376 381 396 405 410 419 428 437 442 450 459 468 478 487 492 497 506 516 524 533 538 546 552 561 570 576 582 588 597 606 615"
             y="0"
             sodipodi:role="line"
             id="tspan182">know what those typical changes will be so that we can shape those significant</tspan></text>
        <text
           xml:space="preserve"
           transform="translate(696,984)"
           style="font-variant:normal;font-weight:normal;font-size:20px;font-family:'Times New Roman';-inkscape-font-specification:TimesNewRomanPSMT;writing-mode:lr-tb;fill:#000000;fill-opacity:1;fill-rule:nonzero;stroke:none"
           id="text188"><tspan
             x="0 10 19 28 34 42 48 58 67 75 80 89 96 106 115 124 134 139 144 153 162 176 185 190 204 214 229 234 244 254 259 274 283 288 295 304 314 323 332 341 346 352 361 366 375 382 391 396 406 415 425 434 440 450 460 474 483 492 497 502 511 517 523 533 540 545 550 559 568 578 583 592 602 610 615 620 635 641 646 655 665 674"
             y="0"
             sodipodi:role="line"
             id="tspan186">decisions around them? How do we reduce future development effort and cost without</tspan></text>
      </g>
    </g>
  </g>
</svg>
