<?xml version="1.0" encoding="UTF-8" standalone="no"?>
<!-- Created with Inkscape (http://www.inkscape.org/) -->

<svg
   version="1.1"
   id="svg2"
   width="816"
   height="1056"
   viewBox="0 0 816 1056"
   sodipodi:docname="mPfXAkCxXywqXh4n.pdf"
   xmlns:inkscape="http://www.inkscape.org/namespaces/inkscape"
   xmlns:sodipodi="http://sodipodi.sourceforge.net/DTD/sodipodi-0.dtd"
   xmlns="http://www.w3.org/2000/svg"
   xmlns:svg="http://www.w3.org/2000/svg">
  <defs
     id="defs6">
    <clipPath
       clipPathUnits="userSpaceOnUse"
       id="clipPath18">
      <path
         d="m 4872,0 h 696 V 1056 H 4872 V 0"
         clip-rule="evenodd"
         id="path16" />
    </clipPath>
    <clipPath
       clipPathUnits="userSpaceOnUse"
       id="clipPath28">
      <path
         d="m 4872,66 h 696 V 996 H 4872 V 66"
         clip-rule="evenodd"
         id="path26" />
    </clipPath>
  </defs>
  <sodipodi:namedview
     id="namedview4"
     pagecolor="#ffffff"
     bordercolor="#000000"
     borderopacity="0.25"
     inkscape:showpageshadow="2"
     inkscape:pageopacity="0.0"
     inkscape:pagecheckerboard="0"
     inkscape:deskcolor="#d1d1d1" />
  <g
     id="g8"
     inkscape:groupmode="layer"
     inkscape:label="mPfXAkCxXywqXh4n"
     transform="translate(59.999999,2.64e-5)">
    <g
       id="g10" />
    <g
       id="g12"
       transform="translate(-4872)">
      <g
         id="g14"
         clip-path="url(#clipPath18)">
        <g
           id="g20" />
      </g>
    </g>
    <g
       id="g22"
       transform="translate(-4872)">
      <g
         id="g24"
         clip-path="url(#clipPath28)">
        <text
           xml:space="preserve"
           transform="translate(4872,83)"
           style="font-variant:normal;font-weight:normal;font-size:20px;font-family:'Times New Roman';-inkscape-font-specification:TimesNewRomanPSMT;writing-mode:lr-tb;fill:#000000;fill-opacity:1;fill-rule:nonzero;stroke:none"
           id="text32"><tspan
             x="0 12 21 30 35 43 48 58 65 74 79 85 90 98 107 113 119 124 130 136 142 151 159 164 171 180 185 194 202 207 212 221 230 235 241 251 261 267 273 281 290 299 308 316 324 329 339 345 350 360 370 379 386 395 405 414 420 426 436 445 454 463 472 477 482 494 503 512 517 531 540 547 556 561 566 574 584 589 598 608 617 623 629 639 648 657 662 667 673"
             y="0"
             sodipodi:role="line"
             id="tspan30">The story itself illustrates the foolishness of overconfidence. The Hare, so confident in</tspan></text>
        <text
           xml:space="preserve"
           transform="translate(4872,106)"
           style="font-variant:normal;font-weight:normal;font-size:20px;font-family:'Times New Roman';-inkscape-font-specification:TimesNewRomanPSMT;writing-mode:lr-tb;fill:#000000;fill-opacity:1;fill-rule:nonzero;stroke:none"
           id="text36"><tspan
             x="0 6 11 19 24 30 39 44 51 57 66 74 80 89 94 102 112 121 130 140 145 150 160 170 179 187 192 201 211 216 221 226 235 244 253 258 263 272 281 286 293 302 311 320 325 333 342 349 355 365 374 382 388 396 401 406 415 424 434 439 447 457 462 471 480 490 498 503 518 527 533 539 548 553 558 567 576 581 591 601 608 613 623 629 637"
             y="0"
             sodipodi:role="line"
             id="tspan34">its intrinsic speed, does not take the race seriously, and so naps while the Tortoise</tspan></text>
        <text
           xml:space="preserve"
           transform="translate(4872,129)"
           style="font-variant:normal;font-weight:normal;font-size:20px;font-family:'Times New Roman';-inkscape-font-specification:TimesNewRomanPSMT;writing-mode:lr-tb;fill:#000000;fill-opacity:1;fill-rule:nonzero;stroke:none"
           id="text40"><tspan
             x="0 9 16 26 34 42 51 59 64 69 78 87 92 98 104 113 119 127 136 141 147 153 162 171"
             y="0"
             sodipodi:role="line"
             id="tspan38">crosses the finish line.</tspan></text>
        <text
           xml:space="preserve"
           transform="translate(4872,172)"
           style="font-variant:normal;font-weight:normal;font-size:20px;font-family:'Times New Roman';-inkscape-font-specification:TimesNewRomanPSMT;writing-mode:lr-tb;fill:#000000;fill-opacity:1;fill-rule:nonzero;stroke:none"
           id="text44"><tspan
             x="0 17 27 37 46 53 62 67 77 86 96 105 111 121 131 140 147 155 160 169 176 185 190 196 205 210 219 224 232 238 252 258 264 273 280 285 292 301 310 319 324 329 338 347 357 362 371 380 389 395 405 411 416 421 430 435 443 449 463 469 475 484 491 496 506 516 525 532 541 551 560 566 572 582 591 600 609 618 623 628 642 651 656 661 666 675 684"
             y="0"
             sodipodi:role="line"
             id="tspan42">Modern developers are in a similar race, and exhibit a similar overconfidence. Oh, they</tspan></text>
        <text
           xml:space="preserve"
           transform="translate(4872,195)"
           style="font-variant:normal;font-weight:normal;font-size:20px;font-family:'Times New Roman';-inkscape-font-specification:TimesNewRomanPSMT;writing-mode:lr-tb;fill:#000000;fill-opacity:1;fill-rule:nonzero;stroke:none"
           id="text48"><tspan
             x="0 10 20 29 36 41 46 54 60 69 78 88 108 114 123 130 135 141 148 158 172 177 183 188 193 198 215 225 233 238 243 257 267 277 286 293 302 307 317 326 336 345 351 361 371 380 387 395 400 415 425 432 441 446 451 460 469 475 482 487 497 506 511 516 524 529 539 545 551 556 561 574 583 588 593 602 607 617 626 633 638 643 653"
             y="0"
             sodipodi:role="line"
             id="tspan46">don’t sleep—far from it. Most modern developers work their butts off. But a part of</tspan></text>
        <text
           xml:space="preserve"
           transform="translate(4872,218)"
           style="font-variant:normal;font-weight:normal;font-size:20px;font-family:'Times New Roman';-inkscape-font-specification:TimesNewRomanPSMT;writing-mode:lr-tb;fill:#000000;fill-opacity:1;fill-rule:nonzero;stroke:none"
           id="text52"><tspan
             x="0 5 14 23 29 36 41 51 58 67 73 82"
             y="0"
             sodipodi:role="line"
             id="tspan50">their brain </tspan></text>
        <text
           xml:space="preserve"
           transform="translate(4959,218)"
           style="font-variant:normal;font-weight:normal;font-size:20px;font-family:'Times New Roman';-inkscape-font-specification:TimesNewRomanPSMT;writing-mode:lr-tb;fill:#000000;fill-opacity:1;fill-rule:nonzero;stroke:none"
           id="text56"><tspan
             x="0 10 20 29"
             y="0"
             sodipodi:role="line"
             id="tspan54">does</tspan></text>
        <text
           xml:space="preserve"
           transform="translate(5001,218)"
           style="font-variant:normal;font-weight:normal;font-size:20px;font-family:'Times New Roman';-inkscape-font-specification:TimesNewRomanPSMT;writing-mode:lr-tb;fill:#000000;fill-opacity:1;fill-rule:nonzero;stroke:none"
           id="text60"><tspan
             x="0 8 14 23 32 42 62 67 76 85 90 100 109 116 121 126 131 140 149 154 159 168 177 187 202 210 215 220 229 238 243 248 257 267 277 287 292 297 306 312 321 330 339 344 349 364 373 379 385 392 402 411 419 425 434 443 452 462 467 476 486 496"
             y="0"
             sodipodi:role="line"
             id="tspan58">sleep—the part that knows that good, clean, well-designed code</tspan></text>
        <text
           xml:space="preserve"
           transform="translate(4872,241)"
           style="font-variant:normal;font-weight:normal;font-size:20px;font-family:'Times New Roman';-inkscape-font-specification:TimesNewRomanPSMT;writing-mode:lr-tb;fill:#000000;fill-opacity:1;fill-rule:nonzero;stroke:none"
           id="text64"><tspan
             x="0 14 23 28 33 42 49"
             y="0"
             sodipodi:role="line"
             id="tspan62">matters</tspan></text>
        <text
           xml:space="preserve"
           transform="translate(4929,241)"
           style="font-variant:normal;font-weight:normal;font-size:20px;font-family:'Times New Roman';-inkscape-font-specification:TimesNewRomanPSMT;writing-mode:lr-tb;fill:#000000;fill-opacity:1;fill-rule:nonzero;stroke:none"
           id="text68"><tspan
             x="0"
             y="0"
             id="tspan66">.</tspan></text>
        <text
           xml:space="preserve"
           transform="translate(4872,284)"
           style="font-variant:normal;font-weight:normal;font-size:20px;font-family:'Times New Roman';-inkscape-font-specification:TimesNewRomanPSMT;writing-mode:lr-tb;fill:#000000;fill-opacity:1;fill-rule:nonzero;stroke:none"
           id="text72"><tspan
             x="0 12 21 30 38 47 52 62 71 81 90 96 106 116 125 132 140 145 155 164 173 178 184 193 198 208 213 222 227 233 242 256 262 268 274 283 290 295 301 307 316 322 327 336 352 361 366 375 384 393 398 407 413 422 431 440 445 451 456 461 470 480 485 491 500 505 514 521 526 531 546 555 560 566 575 583 588 593 602 611 621 630 635 640 650 655 664 673"
             y="0"
             sodipodi:role="line"
             id="tspan70">These developers buy into a familiar lie: “We can clean it up later; we just have to get</tspan></text>
        <text
           xml:space="preserve"
           transform="translate(4872,307)"
           style="font-variant:normal;font-weight:normal;font-size:20px;font-family:'Times New Roman';-inkscape-font-specification:TimesNewRomanPSMT;writing-mode:lr-tb;fill:#000000;fill-opacity:1;fill-rule:nonzero;stroke:none"
           id="text76"><tspan
             x="0 5 15 20 34 43 50 59 68 73 78 84 90 97 105 110 116 125 130 144 150 155 164 174 183 190 198 207 212 217 222 231 237 246 255 263 268 277 286 296 305 312 317 327 337 342 351 360 365 370 379 385 394 403 412 421 431 436 445 455 460 466 475 480 489 495 500 505 515 524 533 542 551 559 568 573 587 596 603 612 621"
             y="0"
             sodipodi:role="line"
             id="tspan74">to market first!” Of course, things never do get cleaned up later, because market</tspan></text>
        <text
           xml:space="preserve"
           transform="translate(4872,330)"
           style="font-variant:normal;font-weight:normal;font-size:20px;font-family:'Times New Roman';-inkscape-font-specification:TimesNewRomanPSMT;writing-mode:lr-tb;fill:#000000;fill-opacity:1;fill-rule:nonzero;stroke:none"
           id="text80"><tspan
             x="0 10 17 26 34 42 51 58 67 75 80 89 98 108 117 124 129 138 148 157 162 171 176 181 195 204 209 214 220 229 238 243 248 258 263 277 286 293 302 311 316 321 327 333 340 348 353 358 366 372 386 396 402 411 416 430 439 448 457 465 470 475 484 493 498 503 512 522 531 538 548 557 562 571 581 596 601 610 620 625 630 639 644 653 663 670 680"
             y="0"
             sodipodi:role="line"
             id="tspan78">pressures never abate. Getting to market first simply means that you’ve now got a horde</tspan></text>
        <text
           xml:space="preserve"
           transform="translate(4872,353)"
           style="font-variant:normal;font-weight:normal;font-size:20px;font-family:'Times New Roman';-inkscape-font-specification:TimesNewRomanPSMT;writing-mode:lr-tb;fill:#000000;fill-opacity:1;fill-rule:nonzero;stroke:none"
           id="text84"><tspan
             x="0 10 16 21 30 40 54 64 73 78 84 89 99 106 114 119 129 138 143 152 162 171 178 183 188 197 203 209 214 219 228 237 247 252 261 271 280 285 294 303 313 322 327 332 342 347 355 360 369 378 383 392 401 410 419 429 434 444 450 455 460 469 478 492 497 507 516 521 528 537 546 555 561 570 579 584 593 601 606 612 621 629 634 639 648 656 661 670 680"
             y="0"
             sodipodi:role="line"
             id="tspan82">of competitors on your tail, and you have to stay ahead of them by running as fast as you</tspan></text>
        <text
           xml:space="preserve"
           transform="translate(4872,376)"
           style="font-variant:normal;font-weight:normal;font-size:20px;font-family:'Times New Roman';-inkscape-font-specification:TimesNewRomanPSMT;writing-mode:lr-tb;fill:#000000;fill-opacity:1;fill-rule:nonzero;stroke:none"
           id="text88"><tspan
             x="0 9 18 27"
             y="0"
             sodipodi:role="line"
             id="tspan86">can.</tspan></text>
        <text
           xml:space="preserve"
           transform="translate(4872,419)"
           style="font-variant:normal;font-weight:normal;font-size:20px;font-family:'Times New Roman';-inkscape-font-specification:TimesNewRomanPSMT;writing-mode:lr-tb;fill:#000000;fill-opacity:1;fill-rule:nonzero;stroke:none"
           id="text92"><tspan
             x="0 14 23 33 38 46 56 61 66 75 84 89 99 108 118 127 133 143 153 162 169 177 182 191 200 210 219 226 231 239 254 260 265 274 283 288 302 312 322 331 339 344 349 361 370 379 388 393 402 411 420 427 432 437 446 456 461 471 480 489 498 503 512 521 531 536 545 551 560 569 578 583 588 597 603 612 621 629 634 643"
             y="0"
             sodipodi:role="line"
             id="tspan90">And so the developers never switch modes. They can’t go back and clean things up</tspan></text>
        <text
           xml:space="preserve"
           transform="translate(4872,442)"
           style="font-variant:normal;font-weight:normal;font-size:20px;font-family:'Times New Roman';-inkscape-font-specification:TimesNewRomanPSMT;writing-mode:lr-tb;fill:#000000;fill-opacity:1;fill-rule:nonzero;stroke:none"
           id="text96"><tspan
             x="0 10 19 28 37 46 54 63 68 73 82 91 100 107 117 126 131 140 150 155 160 165 175 180 189 198 203 208 213 222 231 236 245 254 263 268 273 279 288 297 302 311 318 327 332 342 352 361 370 375 380 389 398 408 413 418 427 436 441 450 459 468 473 478 483 492 501 511 516 521 530 539 544 553 562 571 576 581 586 595 604 614 619 624 633 642 647 656 665 674 679"
             y="0"
             sodipodi:role="line"
             id="tspan94">because they’ve got to get the next feature done, and the next, and the next, and the next.</tspan></text>
        <text
           xml:space="preserve"
           transform="translate(4872,465)"
           style="font-variant:normal;font-weight:normal;font-size:20px;font-family:'Times New Roman';-inkscape-font-specification:TimesNewRomanPSMT;writing-mode:lr-tb;fill:#000000;fill-opacity:1;fill-rule:nonzero;stroke:none"
           id="text100"><tspan
             x="0 14 23 33 38 46 56 61 66 75 84 89 103 112 120 128 133 143 152 158 164 174 182 187 192 201 210 220 225 235 242 252 262 271 280 285 291 301 307 312 321 326 335 345 354 359 365 374 383 392 400 405 411 416 424 429 438 446 455 469 479 484 494 499 505 514 519 528 538 548 555 565 574 583 592 597 602 612 627 636 643"
             y="0"
             sodipodi:role="line"
             id="tspan98">And so the mess builds, and productivity continues its asymptotic approach toward</tspan></text>
        <text
           xml:space="preserve"
           transform="translate(4872,488)"
           style="font-variant:normal;font-weight:normal;font-size:20px;font-family:'Times New Roman';-inkscape-font-specification:TimesNewRomanPSMT;writing-mode:lr-tb;fill:#000000;fill-opacity:1;fill-rule:nonzero;stroke:none"
           id="text104"><tspan
             x="0 8 17 24 34"
             y="0"
             sodipodi:role="line"
             id="tspan102">zero.</tspan></text>
        <text
           xml:space="preserve"
           transform="translate(4872,531)"
           style="font-variant:normal;font-weight:normal;font-size:20px;font-family:'Times New Roman';-inkscape-font-specification:TimesNewRomanPSMT;writing-mode:lr-tb;fill:#000000;fill-opacity:1;fill-rule:nonzero;stroke:none"
           id="text108"><tspan
             x="0 8 17 25 30 35 44 52 57 62 71 80 85 99 108 115 124 129 144 153 161 166 176 186 195 202 211 221 230 236 242 252 261 270 275 280 286 295 300 306 311 319 324 332 342 351 360 370 375 380 388 398 403 408 417 426 431 441 450 460 469 475 485 495 504 511 519 524 533 540 549 554 564 574 583 590 599 609 618 624 630 640 649 658 663 668 674"
             y="0"
             sodipodi:role="line"
             id="tspan106">Just as the Hare was overconfident in its speed, so the developers are overconfident in</tspan></text>
        <text
           xml:space="preserve"
           transform="translate(4872,554)"
           style="font-variant:normal;font-weight:normal;font-size:20px;font-family:'Times New Roman';-inkscape-font-specification:TimesNewRomanPSMT;writing-mode:lr-tb;fill:#000000;fill-opacity:1;fill-rule:nonzero;stroke:none"
           id="text112"><tspan
             x="0 5 14 23 29 36 41 50 60 66 72 78 83 92 97 102 112 117 124 133 147 156 162 171 176 186 193 203 213 222 231 236 242 252 261 266 271 284 293 298 303 308 317 326 331 340 347 356 365 375 381 390 399 404 418 427 435 443 448 458 464 469 478 488 498 507 512 517 526 535 540 545 553 562 572 580 585 590 599 608 614"
             y="0"
             sodipodi:role="line"
             id="tspan110">their ability to remain productive. But the creeping mess of code that saps their</tspan></text>
        <text
           xml:space="preserve"
           transform="translate(4872,577)"
           style="font-variant:normal;font-weight:normal;font-size:20px;font-family:'Times New Roman';-inkscape-font-specification:TimesNewRomanPSMT;writing-mode:lr-tb;fill:#000000;fill-opacity:1;fill-rule:nonzero;stroke:none"
           id="text116"><tspan
             x="0 10 17 27 37 46 55 60 66 76 82 87 96 101 110 119 129 138 145 150 158 164 173 182 192 200 205 214 223 233 238 247 256 266 275 282 287 294 303 309 318 327 332 340 345 350 356 362 367 376 382 392 401 410 415 421 426 434 439 454 463 471 476 481 487 492 497 512 518 524 530 535 542 551 561 570 579 588 593 603 610 620 630 639 648 653 659 669 675 680"
             y="0"
             sodipodi:role="line"
             id="tspan114">productivity never sleeps and never relents. If given its way, it will reduce productivity</tspan></text>
        <text
           xml:space="preserve"
           transform="translate(4872,600)"
           style="font-variant:normal;font-weight:normal;font-size:20px;font-family:'Times New Roman';-inkscape-font-specification:TimesNewRomanPSMT;writing-mode:lr-tb;fill:#000000;fill-opacity:1;fill-rule:nonzero;stroke:none"
           id="text120"><tspan
             x="0 5 15 20 28 37 44 54 59 65 74 79 88 93 107 116 121 126 135 142 147 157 163 168 182 192 201 206 215 223"
             y="0"
             sodipodi:role="line"
             id="tspan118">to zero in a matter of months.</tspan></text>
        <text
           xml:space="preserve"
           transform="translate(4872,643)"
           style="font-variant:normal;font-weight:normal;font-size:20px;font-family:'Times New Roman';-inkscape-font-specification:TimesNewRomanPSMT;writing-mode:lr-tb;fill:#000000;fill-opacity:1;fill-rule:nonzero;stroke:none"
           id="text124"><tspan
             x="0 12 21 30 35 45 51 60 69 78 85 90 96 102 111 116 121 130 139 144 149 159 168 178 187 193 203 213 222 229 237 242 252 261 270 275 281 290 295 305 310 316 324 329 334 343 352 357 366 376 381 387 397 406 411 416 425 434 439 444 459 466 472 477 483 492 501 506 520 529 537 545 554 559 568 578 588 597 602 616 625 634 643 651 656 661 670 679"
             y="0"
             sodipodi:role="line"
             id="tspan122">The bigger lie that developers buy into is the notion that writing messy code makes them</tspan></text>
        <text
           xml:space="preserve"
           transform="translate(4872,666)"
           style="font-variant:normal;font-weight:normal;font-size:20px;font-family:'Times New Roman';-inkscape-font-specification:TimesNewRomanPSMT;writing-mode:lr-tb;fill:#000000;fill-opacity:1;fill-rule:nonzero;stroke:none"
           id="text128"><tspan
             x="0 9 19 24 30 39 47 52 57 63 72 77 82 91 100 105 113 122 132 139 144 149 154 163 170 184 189 194 203 212 222 227 233 242 250 255 260 268 274 284 299 307 312 317 326 335 349 354 364 374 389 398 403 409 418 423 428 437 446 451 457 467 476 485 490 495 504 511 525 530 535 549 558 568 577 583 593 603 612 619 627 632 647 656"
             y="0"
             sodipodi:role="line"
             id="tspan126">go fast in the short term, and just slows them down in the long term. Developers who</tspan></text>
        <text
           xml:space="preserve"
           transform="translate(4872,689)"
           style="font-variant:normal;font-weight:normal;font-size:20px;font-family:'Times New Roman';-inkscape-font-specification:TimesNewRomanPSMT;writing-mode:lr-tb;fill:#000000;fill-opacity:1;fill-rule:nonzero;stroke:none"
           id="text132"><tspan
             x="0 9 18 27 36 46 51 56 61 70 76 84 89 95 101 110 115 124 133 142 148 158 164 169 174 179 188 197 202 211 220 227 236 242 250 255 265 275 284 291 300 310 319 325 331 341 350 359 368 377 382 388 397 402 407 416 425 431 438 443 452 462 468 474 480 485 494 499 504 514 519 527 542 548 553 562 571 576 590 600 610 619 627 632 638 645 655"
             y="0"
             sodipodi:role="line"
             id="tspan130">accept this lie exhibit the hare’s overconfidence in their ability to switch modes from</tspan></text>
        <text
           xml:space="preserve"
           transform="translate(4872,712)"
           style="font-variant:normal;font-weight:normal;font-size:20px;font-family:'Times New Roman';-inkscape-font-specification:TimesNewRomanPSMT;writing-mode:lr-tb;fill:#000000;fill-opacity:1;fill-rule:nonzero;stroke:none"
           id="text136"><tspan
             x="0 14 23 32 38 47 56 61 75 84 92 100 109 117 122 127 137 142 151 157 166 175 184 190 199 208 213 222 232 237 251 260 268 276 285 293 298 306 316 330 339 344 350 364 373 378 384 393 398 403 412 421 426 432 441 446 455 462 471 476 481 491 500 505 510 515 524 533 542 547 556 562 570 580 585 599 608 617 626 631"
             y="0"
             sodipodi:role="line"
             id="tspan134">making messes to cleaning up messes sometime in the future, but they also make a</tspan></text>
        <text
           xml:space="preserve"
           transform="translate(4872,735)"
           style="font-variant:normal;font-weight:normal;font-size:20px;font-family:'Times New Roman';-inkscape-font-specification:TimesNewRomanPSMT;writing-mode:lr-tb;fill:#000000;fill-opacity:1;fill-rule:nonzero;stroke:none"
           id="text140"><tspan
             x="0 8 14 28 38 44 53 58 67 74 81 91 98 103 113 119 124 130 139 148 153 158 163 175 184 193 198 204 213 222 227 232 238 246 251 256 265 274 279"
             y="0"
             sodipodi:role="line"
             id="tspan138">simple error of fact. The fact is that </tspan></text>
        <text
           xml:space="preserve"
           transform="translate(5156,735)"
           style="font-variant:normal;font-weight:normal;font-size:20px;font-family:'Times New Roman';-inkscape-font-specification:TimesNewRomanPSMT;writing-mode:lr-tb;fill:#000000;fill-opacity:1;fill-rule:nonzero;stroke:none"
           id="text144"><tspan
             x="0 14 23 32 38 47 56 61 75 84 92 100 109 117 122 128 136 141 150 156 171 180 189 197 202 210 216 226 241 250 257 262 267 276 285 294 299 307 312 321 330 336 345 354 359 368 374 383 392"
             y="0"
             sodipodi:role="line"
             id="tspan142">making messes is always slower than staying clean</tspan></text>
        <text
           xml:space="preserve"
           transform="translate(5557,735)"
           style="font-variant:normal;font-weight:normal;font-size:20px;font-family:'Times New Roman';-inkscape-font-specification:TimesNewRomanPSMT;writing-mode:lr-tb;fill:#000000;fill-opacity:1;fill-rule:nonzero;stroke:none"
           id="text148"><tspan
             x="0"
             y="0"
             id="tspan146">,</tspan></text>
        <text
           xml:space="preserve"
           transform="translate(4872,758)"
           style="font-variant:normal;font-weight:normal;font-size:20px;font-family:'Times New Roman';-inkscape-font-specification:TimesNewRomanPSMT;writing-mode:lr-tb;fill:#000000;fill-opacity:1;fill-rule:nonzero;stroke:none"
           id="text152"><tspan
             x="0 9 19 24 38 47 52 57 66 73 78 93 102 108 117 126 131 136 142 156 165 170 178 187 196 202 211 216 225 235 244 249 258 265 274 279 288 296 302 311 320"
             y="0"
             sodipodi:role="line"
             id="tspan150">no matter which time scale you are using.</tspan></text>
        <text
           xml:space="preserve"
           transform="translate(4872,801)"
           style="font-variant:normal;font-weight:normal;font-size:20px;font-family:'Times New Roman';-inkscape-font-specification:TimesNewRomanPSMT;writing-mode:lr-tb;fill:#000000;fill-opacity:1;fill-rule:nonzero;stroke:none"
           id="text156"><tspan
             x="0 13 23 32 40 46 56 65 72 77 82 91 100 105 112 121 129 138 144 149 157 162 172 178 183 192 197 204 213 227 236 243 252 261 271 277 286 291 300 309 319 328 335 341 355 364 373 378 383 393 402 409 415 425 432 446 455 465 470 480 489 494 502 511 519 529 538 543 557 567 574 588 597 606 611 621 630 640 646 655 660 669"
             y="0"
             sodipodi:role="line"
             id="tspan154">Consider the results of a remarkable experiment performed by Jason Gorman depicted</tspan></text>
        <text
           xml:space="preserve"
           transform="translate(4872,824)"
           style="font-variant:normal;font-weight:normal;font-size:20px;font-family:'Times New Roman';-inkscape-font-specification:TimesNewRomanPSMT;writing-mode:lr-tb;fill:#000000;fill-opacity:1;fill-rule:nonzero;stroke:none"
           id="text160"><tspan
             x="0 6 15"
             y="0"
             sodipodi:role="line"
             id="tspan158">in </tspan></text>
        <text
           xml:space="preserve"
           transform="translate(4892,824)"
           style="font-variant:normal;font-weight:normal;font-size:20px;font-family:'Times New Roman';-inkscape-font-specification:TimesNewRomanPSMT;writing-mode:lr-tb;fill:#0000ee;fill-opacity:1;fill-rule:nonzero;stroke:none"
           id="text164"><tspan
             x="0 11 17 26 35 42 51 56 66 71"
             y="0"
             sodipodi:role="line"
             id="tspan162">Figure 1.6</tspan></text>
        <path
           d="m 4892,825.5 h 80 z"
           style="fill:none;stroke:#0000ee;stroke-width:1;stroke-linecap:square;stroke-linejoin:miter;stroke-miterlimit:10;stroke-dasharray:none;stroke-opacity:1"
           id="path166" />
        <text
           xml:space="preserve"
           transform="translate(4973,824)"
           style="font-variant:normal;font-weight:normal;font-size:20px;font-family:'Times New Roman';-inkscape-font-specification:TimesNewRomanPSMT;writing-mode:lr-tb;fill:#000000;fill-opacity:1;fill-rule:nonzero;stroke:none"
           id="text170"><tspan
             x="0 5 10 18 27 35 45 54 59 68 78 87 97 106 115 120 129 139 144 149 158 164 172 177 182 191 199 204 209 219 229 238 245 250 259 264 274 283 290 296 306 316 321 331 337 342 350 356 365 370 380 389 398 406 411 416 428 437 446 455 460 470 479 488 493 502"
             y="0"
             sodipodi:role="line"
             id="tspan168">. Jason conducted this test over a period of six days. Each day he</tspan></text>
        <text
           xml:space="preserve"
           transform="translate(4872,847)"
           style="font-variant:normal;font-weight:normal;font-size:20px;font-family:'Times New Roman';-inkscape-font-specification:TimesNewRomanPSMT;writing-mode:lr-tb;fill:#000000;fill-opacity:1;fill-rule:nonzero;stroke:none"
           id="text174"><tspan
             x="0 9 19 33 43 49 58 63 72 82 87 96 101 109 115 129 139 145 154 159 169 176 186 195 202 211 225 230 235 245 250 259 269 278 288 297 304 309 314 320 329 334 343 352 361 368 376 381 387 396 401 411 416 429 439 453 462 471 476 485 494 508 517 524 533 539 547 552 557 571 580 585 594 603 612 627 632 641 647"
             y="0"
             sodipodi:role="line"
             id="tspan172">completed a simple program to convert integers into Roman numerals. He knew his</tspan></text>
        <text
           xml:space="preserve"
           transform="translate(4872,870)"
           style="font-variant:normal;font-weight:normal;font-size:20px;font-family:'Times New Roman';-inkscape-font-specification:TimesNewRomanPSMT;writing-mode:lr-tb;fill:#000000;fill-opacity:1;fill-rule:nonzero;stroke:none"
           id="text178"><tspan
             x="0 15 25 32 41 46 61 70 78 83 92 102 116 126 132 141 146 155 160 175 184 193 202 207 216 222 230 235 245 252 261 271 280 286 292 301 310 320 325 333 342 347 352 362 368 373 382 391 400 409 419 424 433 442 451 460 465 470 479 487 492 500 505 515 524 532 540 549 559 564 569 581 590 599 608 613 623 632 641 646 651 660"
             y="0"
             sodipodi:role="line"
             id="tspan176">work was complete when his predefined set of acceptance tests passed. Each day the</tspan></text>
        <text
           xml:space="preserve"
           transform="translate(4872,893)"
           style="font-variant:normal;font-weight:normal;font-size:20px;font-family:'Times New Roman';-inkscape-font-specification:TimesNewRomanPSMT;writing-mode:lr-tb;fill:#000000;fill-opacity:1;fill-rule:nonzero;stroke:none"
           id="text182"><tspan
             x="0 5 14 22 31 36 41 51 61 70 75 84 89 95 101 106 111 117 126 131 137 146 154 162 167 172 181 190 199 204 214 224 229 243 249 258 267 272 281 289 294 299 307 316 324 334 343 348 357 365 374 384 389 398 403 418 427 433 439 446 455 464 474 489 498 503 512 518 527 536 545 551 557 566 575 583 591 596 606 612 620 629 635 645 651 657 666"
             y="0"
             sodipodi:role="line"
             id="tspan180">task took a little less than 30 minutes. Jason used a well-known cleanliness discipline</tspan></text>
        <text
           xml:space="preserve"
           transform="translate(4872,916)"
           style="font-variant:normal;font-weight:normal;font-size:20px;font-family:'Times New Roman';-inkscape-font-specification:TimesNewRomanPSMT;writing-mode:lr-tb;fill:#000000;fill-opacity:1;fill-rule:nonzero;stroke:none"
           id="text186"><tspan
             x="0 9 18 32 41 51 56 61 70 78 83 90 100 107 113 123 132 141 146 156 165 175 184 190 200 210 224 233 242 247 252 259 271 285 299 306 311 321 330 335 340 349 358 363 369 375 382 390 395 400 405 410 419 425 432 442 447 452 461 470 480 485 491 497 503 508 517 522 532 541 550 558 563 568 582 591 596 601 610 619 624 634 639 648 657"
             y="0"
             sodipodi:role="line"
             id="tspan184">named test-driven development (TDD) on the first, third, and fifth days. On the other</tspan></text>
        <text
           xml:space="preserve"
           transform="translate(4872,939)"
           style="font-variant:normal;font-weight:normal;font-size:20px;font-family:'Times New Roman';-inkscape-font-specification:TimesNewRomanPSMT;writing-mode:lr-tb;fill:#000000;fill-opacity:1;fill-rule:nonzero;stroke:none"
           id="text190"><tspan
             x="0 5 14 21 30 39 44 54 63 72 80 85 90 99 108 113 128 135 145 150 159 164 169 178 187 192 201 211 221 230 235 250 256 261 270 280 289 294 299 304 313 322 327 332 342 348 356 365 371 381 387 393 402 411"
             y="0"
             sodipodi:role="line"
             id="tspan188">three days, he wrote the code without that discipline.</tspan></text>
      </g>
    </g>
  </g>
</svg>
