<?xml version="1.0" encoding="UTF-8" standalone="no"?>
<!-- Created with Inkscape (http://www.inkscape.org/) -->

<svg
   version="1.1"
   id="svg2"
   width="816"
   height="1056"
   viewBox="0 0 816 1056"
   sodipodi:docname="mPfXAkCxXywqXh4n.pdf"
   xmlns:inkscape="http://www.inkscape.org/namespaces/inkscape"
   xmlns:sodipodi="http://sodipodi.sourceforge.net/DTD/sodipodi-0.dtd"
   xmlns="http://www.w3.org/2000/svg"
   xmlns:svg="http://www.w3.org/2000/svg">
  <defs
     id="defs6">
    <clipPath
       clipPathUnits="userSpaceOnUse"
       id="clipPath18">
      <path
         d="M 0,0 H 696 V 1056 H 0 V 0"
         clip-rule="evenodd"
         id="path16" />
    </clipPath>
    <clipPath
       clipPathUnits="userSpaceOnUse"
       id="clipPath28">
      <path
         d="M 0,66 H 696 V 996 H 0 V 66"
         clip-rule="evenodd"
         id="path26" />
    </clipPath>
  </defs>
  <sodipodi:namedview
     id="namedview4"
     pagecolor="#ffffff"
     bordercolor="#000000"
     borderopacity="0.25"
     inkscape:showpageshadow="2"
     inkscape:pageopacity="0.0"
     inkscape:pagecheckerboard="0"
     inkscape:deskcolor="#d1d1d1" />
  <g
     id="g8"
     inkscape:groupmode="layer"
     inkscape:label="mPfXAkCxXywqXh4n"
     transform="translate(59.999999,2.64e-5)">
    <g
       id="g10" />
    <g
       id="g12">
      <g
         id="g14"
         clip-path="url(#clipPath18)">
        <g
           id="g20" />
      </g>
    </g>
    <g
       id="g22">
      <g
         id="g24"
         clip-path="url(#clipPath28)">
        <text
           xml:space="preserve"
           transform="translate(0,83)"
           style="font-variant:normal;font-weight:normal;font-size:20px;font-family:'Times New Roman';-inkscape-font-specification:TimesNewRomanPSMT;writing-mode:lr-tb;fill:#000000;fill-opacity:1;fill-rule:nonzero;stroke:none"
           id="text32"><tspan
             x="0 17 26 35 44 49 59 65 70 75 84 93 98 108 117 125 131 140 149 158 163 169 179 188 196 201 210 218 227 237 242 252 261 266 280 289 298 307 313 322 331 336 345 352 361 368 376 381 390 399 409 414 422 431 437 443 452 459 467 472 477 487 492 502 508 516 521 527 536 545 554 560 568 577 582 587 596 605 611 618 623 633 640 650 660 669 678 683"
             y="0"
             sodipodi:role="line"
             id="tspan30">Many of the designations used by manufacturers and sellers to distinguish their products</tspan></text>
        <text
           xml:space="preserve"
           transform="translate(0,106)"
           style="font-variant:normal;font-weight:normal;font-size:20px;font-family:'Times New Roman';-inkscape-font-specification:TimesNewRomanPSMT;writing-mode:lr-tb;fill:#000000;fill-opacity:1;fill-rule:nonzero;stroke:none"
           id="text36"><tspan
             x="0 9 16 25 30 39 45 54 60 74 83 93 98 107 115 120 125 132 141 151 160 174 183 190 199 207 212 217 235 244 253 260 269 274 279 288 298 306 315 320 330 339 347 353 362 371 380 385 391 401 410 418 423 432 442 452 461 470 477 482 488 497 502 507 516 522 530 535 545 555 565 574 579 584 593 602 612 617 622 631"
             y="0"
             sodipodi:role="line"
             id="tspan34">are claimed as trademarks. Where those designations appear in this book, and the</tspan></text>
        <text
           xml:space="preserve"
           transform="translate(0,129)"
           style="font-variant:normal;font-weight:normal;font-size:20px;font-family:'Times New Roman';-inkscape-font-specification:TimesNewRomanPSMT;writing-mode:lr-tb;fill:#000000;fill-opacity:1;fill-rule:nonzero;stroke:none"
           id="text40"><tspan
             x="0 10 19 29 35 41 49 58 67 74 79 94 103 111 116 125 140 149 156 165 170 180 186 191 200 205 210 217 226 236 245 259 268 275 284 289 298 304 313 319 333 338 343 348 357 366 371 381 390 398 404 413 422 431 436 442 452 461 469 474 483 492 502 511 516 526 535 544 553 558 568 575 581 590 595 604 614 619 634 640 645"
             y="0"
             sodipodi:role="line"
             id="tspan38">publisher was aware of a trademark claim, the designations have been printed with</tspan></text>
        <text
           xml:space="preserve"
           transform="translate(0,152)"
           style="font-variant:normal;font-weight:normal;font-size:20px;font-family:'Times New Roman';-inkscape-font-specification:TimesNewRomanPSMT;writing-mode:lr-tb;fill:#000000;fill-opacity:1;fill-rule:nonzero;stroke:none"
           id="text44"><tspan
             x="0 6 15 21 26 32 41 47 52 61 70 80 86 91 100 106 111 117 126 131 136 145 152 160 165 175 182 187 193 202 207 216 222 228 233 242 251 261 267 272 281 287 295"
             y="0"
             sodipodi:role="line"
             id="tspan42">initial capital letters or in all capitals.</tspan></text>
        <text
           xml:space="preserve"
           transform="translate(0,195)"
           style="font-variant:normal;font-weight:normal;font-size:20px;font-family:'Times New Roman';-inkscape-font-specification:TimesNewRomanPSMT;writing-mode:lr-tb;fill:#000000;fill-opacity:1;fill-rule:nonzero;stroke:none"
           id="text48"><tspan
             x="0 12 21 30 35 44 53 58 67 77 84 89 98 107 117 122 132 141 151 157 163 171 180 189 196 201 210 219 229 238 243 248 257 266 275 284 289 298 307 314 323 328 334 343 348 353 362 371 376 386 393 402 412 421 428 437 442 448 458 467 472 482 488 493 498 507 513 521 526 536 546 556 565 570 575 585 594 599 604 618 627 636 645 650 659"
             y="0"
             sodipodi:role="line"
             id="tspan46">The author and publisher have taken care in the preparation of this book, but make no</tspan></text>
        <text
           xml:space="preserve"
           transform="translate(0,218)"
           style="font-variant:normal;font-weight:normal;font-size:20px;font-family:'Times New Roman';-inkscape-font-specification:TimesNewRomanPSMT;writing-mode:lr-tb;fill:#000000;fill-opacity:1;fill-rule:nonzero;stroke:none"
           id="text52"><tspan
             x="0 9 18 28 35 44 52 60 69 79 84 94 101 106 112 126 136 142 148 157 167 172 187 196 203 210 219 228 233 242 247 257 263 268 277 286 295 300 309 315 324 334 339 348 357 367 372 381 389 397 406 420 429 434 443 453 458 465 474 482 492 502 511 519 525 535 541 547 553 558 567 572 578 588 595 600 609 616 623 633 640 648 653 663"
             y="0"
             sodipodi:role="line"
             id="tspan50">expressed or implied warranty of any kind and assume no responsibility for errors or</tspan></text>
        <text
           xml:space="preserve"
           transform="translate(0,241)"
           style="font-variant:normal;font-weight:normal;font-size:20px;font-family:'Times New Roman';-inkscape-font-specification:TimesNewRomanPSMT;writing-mode:lr-tb;fill:#000000;fill-opacity:1;fill-rule:nonzero;stroke:none"
           id="text56"><tspan
             x="0 10 24 30 38 46 52 62 71 79 84 89 103 113 118 124 130 139 149 155 161 167 172 181 186 192 200 205 214 222 230 239 253 262 272 277 283 293 300 305 311 320 329 335 345 354 363 368 377 383 388 398 405 410 419 429 438 446 455 465 474 483 492 497 503 512 518 523 533 542 556 565 574 583 591 596 602"
             y="0"
             sodipodi:role="line"
             id="tspan54">omissions. No liability is assumed for incidental or consequential damages in</tspan></text>
        <text
           xml:space="preserve"
           transform="translate(0,264)"
           style="font-variant:normal;font-weight:normal;font-size:20px;font-family:'Times New Roman';-inkscape-font-specification:TimesNewRomanPSMT;writing-mode:lr-tb;fill:#000000;fill-opacity:1;fill-rule:nonzero;stroke:none"
           id="text60"><tspan
             x="0 9 19 28 37 46 55 60 66 76 85 90 105 111 116 125 130 140 147 152 161 168 174 182 188 197 206 211 221 230 235 240 250 256 261 266 275 284 289 298 306 315 320 330 336 341 346 355 364 369 375 384 390 400 407 421 430 435 441 451 460 465 475 482 487 497 504 514 523 530 539 553 561 566 575 585 594 599 608 614 623 632"
             y="0"
             sodipodi:role="line"
             id="tspan58">connection with or arising out of the use of the information or programs contained</tspan></text>
        <text
           xml:space="preserve"
           transform="translate(0,287)"
           style="font-variant:normal;font-weight:normal;font-size:20px;font-family:'Times New Roman';-inkscape-font-specification:TimesNewRomanPSMT;writing-mode:lr-tb;fill:#000000;fill-opacity:1;fill-rule:nonzero;stroke:none"
           id="text64"><tspan
             x="0 9 18 25 34 40 49"
             y="0"
             sodipodi:role="line"
             id="tspan62">herein.</tspan></text>
        <text
           xml:space="preserve"
           transform="translate(0,326)"
           style="font-variant:normal;font-weight:normal;font-size:20px;font-family:'Times New Roman';-inkscape-font-specification:TimesNewRomanPSMT;writing-mode:lr-tb;fill:#000000;fill-opacity:1;fill-rule:nonzero;stroke:none"
           id="text68"><tspan
             x="0 11 21 28 33 39 48 54 64 71 85 94 99 105 115 124 129 138 148 158 167 172 177 187 196 205 211 220 229 234 239 248 254 262 267 272 278 283 289 298 303 309 318 323 333 342 348 357 362 372 381 390 399 404 410 415 421 430 438 443 448 458 465 470 476 486 493 498 506 516 525 534 540 549 555 560 568 577 583 592"
             y="0"
             sodipodi:role="line"
             id="tspan66">For information about buying this title in bulk quantities, or for special sales</tspan></text>
        <text
           xml:space="preserve"
           transform="translate(0,349)"
           style="font-variant:normal;font-weight:normal;font-size:20px;font-family:'Times New Roman';-inkscape-font-specification:TimesNewRomanPSMT;writing-mode:lr-tb;fill:#000000;fill-opacity:1;fill-rule:nonzero;stroke:none"
           id="text72"><tspan
             x="0 10 20 30 40 47 52 61 70 76 81 87 96 104 109 116 131 140 146 155 164 169 183 192 201 206 212 221 230 236 245 255 264 269 278 284 293 302 307 314 324 333 339 348 353 363 372 379 387 393 403 412 420 425 430 439 448 456 461 471 485 490 499 509 519 528 535 540 550 559 567 573 582 591 599 604 609 618 627"
             y="0"
             sodipodi:role="line"
             id="tspan70">opportunities (which may include electronic versions; custom cover designs; and</tspan></text>
        <text
           xml:space="preserve"
           transform="translate(0,372)"
           style="font-variant:normal;font-weight:normal;font-size:20px;font-family:'Times New Roman';-inkscape-font-specification:TimesNewRomanPSMT;writing-mode:lr-tb;fill:#000000;fill-opacity:1;fill-rule:nonzero;stroke:none"
           id="text76"><tspan
             x="0 9 19 28 33 42 51 56 61 71 80 87 92 98 107 116 122 131 138 143 148 158 163 172 182 191 198 203 213 222 230 236 245 254 262 270 275 280 285 292 301 307 316 322 331 340 345 354 364 373 379 387 392 397 411 420 427 436 445 450 456 465 474 479 485 495 504 513 521 526 531 541 548 553 563 570 579 588 598 604 613"
             y="0"
             sodipodi:role="line"
             id="tspan74">content particular to your business, training goals, marketing focus, or branding</tspan></text>
        <text
           xml:space="preserve"
           transform="translate(0,395)"
           style="font-variant:normal;font-weight:normal;font-size:20px;font-family:'Times New Roman';-inkscape-font-specification:TimesNewRomanPSMT;writing-mode:lr-tb;fill:#000000;fill-opacity:1;fill-rule:nonzero;stroke:none"
           id="text80"><tspan
             x="0 6 15 20 29 36 45 53 58 66 73 78 83 93 99 108 117 125 134 139 148 158 167 172 181 190 195 200 210 219 226 231 240 250 257 267 277 284 293 298 307 312 320 329 335 344 352 357 367 376 386 395 402 407 421 430 439 444 449 458 463"
             y="0"
             sodipodi:role="line"
             id="tspan78">interests), please contact our corporate sales department at </tspan></text>
        <text
           xml:space="preserve"
           transform="translate(468,395)"
           style="font-variant:normal;font-weight:normal;font-size:20px;font-family:'Times New Roman';-inkscape-font-specification:TimesNewRomanPSMT;writing-mode:lr-tb;fill:#0000ee;fill-opacity:1;fill-rule:nonzero;stroke:none"
           id="text84"><tspan
             x="0 9 19 26 36 44 53 59 68 76 94 104 113 122 129 137 147 156 165 175 180 189 199"
             y="0"
             sodipodi:role="line"
             id="tspan82">corpsales@pearsoned.com</tspan></text>
        <path
           d="M 468,396.5 H 680 Z"
           style="fill:none;stroke:#0000ee;stroke-width:1;stroke-linecap:square;stroke-linejoin:miter;stroke-miterlimit:10;stroke-dasharray:none;stroke-opacity:1"
           id="path86" />
        <text
           xml:space="preserve"
           transform="translate(0,418)"
           style="font-variant:normal;font-weight:normal;font-size:20px;font-family:'Times New Roman';-inkscape-font-specification:TimesNewRomanPSMT;writing-mode:lr-tb;fill:#000000;fill-opacity:1;fill-rule:nonzero;stroke:none"
           id="text90"><tspan
             x="0 10 17 22 29 39 49 59 66 71 81 91 101 108 118 128 138 148"
             y="0"
             sodipodi:role="line"
             id="tspan88">or (800) 382-3419.</tspan></text>
        <text
           xml:space="preserve"
           transform="translate(0,457)"
           style="font-variant:normal;font-weight:normal;font-size:20px;font-family:'Times New Roman';-inkscape-font-specification:TimesNewRomanPSMT;writing-mode:lr-tb;fill:#000000;fill-opacity:1;fill-rule:nonzero;stroke:none"
           id="text94"><tspan
             x="0 11 21 28 33 42 52 62 71 78 87 101 110 119 124 129 137 146 152 161 169 174 180 189 199 208 214 221 227 236 244 249 254 264 270 279 288 296 305 310 319 329 338 343 352 361 366"
             y="0"
             sodipodi:role="line"
             id="tspan92">For government sales inquiries, please contact </tspan></text>
        <text
           xml:space="preserve"
           transform="translate(371,457)"
           style="font-variant:normal;font-weight:normal;font-size:20px;font-family:'Times New Roman';-inkscape-font-specification:TimesNewRomanPSMT;writing-mode:lr-tb;fill:#0000ee;fill-opacity:1;fill-rule:nonzero;stroke:none"
           id="text98"><tspan
             x="0 9 19 29 38 45 54 68 77 86 91 99 108 114 123 131 149 159 168 177 184 192 202 211 220 230 235 244 254"
             y="0"
             sodipodi:role="line"
             id="tspan96">governmentsales@pearsoned.com</tspan></text>
        <path
           d="M 371,458.5 H 638 Z"
           style="fill:none;stroke:#0000ee;stroke-width:1;stroke-linecap:square;stroke-linejoin:miter;stroke-miterlimit:10;stroke-dasharray:none;stroke-opacity:1"
           id="path100" />
        <text
           xml:space="preserve"
           transform="translate(639,457)"
           style="font-variant:normal;font-weight:normal;font-size:20px;font-family:'Times New Roman';-inkscape-font-specification:TimesNewRomanPSMT;writing-mode:lr-tb;fill:#000000;fill-opacity:1;fill-rule:nonzero;stroke:none"
           id="text104"><tspan
             x="0"
             y="0"
             id="tspan102">.</tspan></text>
        <text
           xml:space="preserve"
           transform="translate(0,496)"
           style="font-variant:normal;font-weight:normal;font-size:20px;font-family:'Times New Roman';-inkscape-font-specification:TimesNewRomanPSMT;writing-mode:lr-tb;fill:#000000;fill-opacity:1;fill-rule:nonzero;stroke:none"
           id="text108"><tspan
             x="0 11 21 28 33 43 52 61 69 74 80 90 99 107 112 121 131 141 150 155 160 168 177 183 192 200 205 215 224 229 237 243 253 262 267 272 281 290 295 308 313 324 329 334 339 349 355 364 373 381 390 395 404 414 423 428 437 446 451"
             y="0"
             sodipodi:role="line"
             id="tspan106">For questions about sales outside the U.S., please contact </tspan></text>
        <text
           xml:space="preserve"
           transform="translate(456,496)"
           style="font-variant:normal;font-weight:normal;font-size:20px;font-family:'Times New Roman';-inkscape-font-specification:TimesNewRomanPSMT;writing-mode:lr-tb;fill:#0000ee;fill-opacity:1;fill-rule:nonzero;stroke:none"
           id="text112"><tspan
             x="0 6 15 20 26 35 43 61 71 80 89 96 104 114 123 128 137 147"
             y="0"
             sodipodi:role="line"
             id="tspan110">intlcs@pearson.com</tspan></text>
        <path
           d="M 456,497.5 H 616 Z"
           style="fill:none;stroke:#0000ee;stroke-width:1;stroke-linecap:square;stroke-linejoin:miter;stroke-miterlimit:10;stroke-dasharray:none;stroke-opacity:1"
           id="path114" />
        <text
           xml:space="preserve"
           transform="translate(617,496)"
           style="font-variant:normal;font-weight:normal;font-size:20px;font-family:'Times New Roman';-inkscape-font-specification:TimesNewRomanPSMT;writing-mode:lr-tb;fill:#000000;fill-opacity:1;fill-rule:nonzero;stroke:none"
           id="text118"><tspan
             x="0"
             y="0"
             id="tspan116">.</tspan></text>
        <text
           xml:space="preserve"
           transform="translate(0,535)"
           style="font-variant:normal;font-weight:normal;font-size:20px;font-family:'Times New Roman';-inkscape-font-specification:TimesNewRomanPSMT;writing-mode:lr-tb;fill:#000000;fill-opacity:1;fill-rule:nonzero;stroke:none"
           id="text122"><tspan
             x="0 12 18 26 32 37 42 51 59 64 74 83 88 93 102 111 116 132 141 151 157"
             y="0"
             sodipodi:role="line"
             id="tspan120">Visit us on the Web: </tspan></text>
        <text
           xml:space="preserve"
           transform="translate(162,535)"
           style="font-variant:normal;font-weight:normal;font-size:20px;font-family:'Times New Roman';-inkscape-font-specification:TimesNewRomanPSMT;writing-mode:lr-tb;fill:#0000ee;fill-opacity:1;fill-rule:nonzero;stroke:none"
           id="text126"><tspan
             x="0 6 15 21 31 38 52 58 63 68 77 87"
             y="0"
             sodipodi:role="line"
             id="tspan124">informit.com</tspan></text>
        <path
           d="M 162,536.5 H 262 Z"
           style="fill:none;stroke:#0000ee;stroke-width:1;stroke-linecap:square;stroke-linejoin:miter;stroke-miterlimit:10;stroke-dasharray:none;stroke-opacity:1"
           id="path128" />
        <text
           xml:space="preserve"
           transform="translate(0,574)"
           style="font-variant:normal;font-weight:normal;font-size:20px;font-family:'Times New Roman';-inkscape-font-specification:TimesNewRomanPSMT;writing-mode:lr-tb;fill:#000000;fill-opacity:1;fill-rule:nonzero;stroke:none"
           id="text132"><tspan
             x="0 11 17 27 34 43 50 59 64 74 80 85 98 108 117 126 133 142 150 158 163 176 186 195 200 207 217 223 228 242 251 265 275 284 291 297 302 312 322 332 342 352 362 372 382 392"
             y="0"
             sodipodi:role="line"
             id="tspan130">Library of Congress Control Number: 2017945537</tspan></text>
        <text
           xml:space="preserve"
           transform="translate(0,613)"
           style="font-variant:normal;font-weight:normal;font-size:20px;font-family:'Times New Roman';-inkscape-font-specification:TimesNewRomanPSMT;writing-mode:lr-tb;fill:#000000;fill-opacity:1;fill-rule:nonzero;stroke:none"
           id="text136"><tspan
             x="0 13 23 33 42 49 55 64 73 78 83 98 103 113 123 133 143 148 159 168 177 184 192 202 211 216 228 238 247 256 265 270 276 286 295 300 305 311 320 329"
             y="0"
             sodipodi:role="line"
             id="tspan134">Copyright © 2018 Pearson Education, Inc.</tspan></text>
        <text
           xml:space="preserve"
           transform="translate(0,652)"
           style="font-variant:normal;font-weight:normal;font-size:20px;font-family:'Times New Roman';-inkscape-font-specification:TimesNewRomanPSMT;writing-mode:lr-tb;fill:#000000;fill-opacity:1;fill-rule:nonzero;stroke:none"
           id="text140"><tspan
             x="0 14 20 26 31 38 44 53 62 67 75 80 87 96 104 113 120 130 139 149 154 159 170 177 183 192 197 206 216 221 227 236 241 246 255 264 269 282 291 297 302 311 321 326 337 342 351 356 365 373 378 388 394 399 413 427 436 443 449 458 467 472 477 489 498 504 512 517 527 536 546 552 558 567 576 581 587 597 606 611 617"
             y="0"
             sodipodi:role="line"
             id="tspan138">All rights reserved. Printed in the United States of America. This publication is</tspan></text>
        <text
           xml:space="preserve"
           transform="translate(0,675)"
           style="font-variant:normal;font-weight:normal;font-size:20px;font-family:'Times New Roman';-inkscape-font-specification:TimesNewRomanPSMT;writing-mode:lr-tb;fill:#000000;fill-opacity:1;fill-rule:nonzero;stroke:none"
           id="text144"><tspan
             x="0 10 17 27 32 41 50 55 64 74 79 89 98 103 112 122 132 141 148 154 163 172 177 182 187 196 205 215 220 230 239 246 260 266 274 282 288 298 307 312 326 335 343 348 353 363 372 377 387 397 402 411 417 426 435 445 450 456 463 473 487 492 497 506 515 520 530 539 549 555 561 569 578 587 594 599 609 616 622 632 639 644 649 659 664 673 682"
             y="0"
             sodipodi:role="line"
             id="tspan142">protected by copyright, and permission must be obtained from the publisher prior to any</tspan></text>
        <text
           xml:space="preserve"
           transform="translate(0,698)"
           style="font-variant:normal;font-weight:normal;font-size:20px;font-family:'Times New Roman';-inkscape-font-specification:TimesNewRomanPSMT;writing-mode:lr-tb;fill:#000000;fill-opacity:1;fill-rule:nonzero;stroke:none"
           id="text148"><tspan
             x="0 10 17 27 36 42 52 58 63 72 82 87 94 103 113 120 130 140 149 158 163 169 179 188 193 198 206 211 221 228 237 246 255 260 266 275 280 289 294 301 310 315 322 328 337 347 356 362 367 375 384 392 397 406 420 425 430 440 447 452 457 464 473 482 490 504 510 518 526 532 542 551 556 562 571 576 585 594 603 608 614 624 631 645 650 660 667 672 682"
             y="0"
             sodipodi:role="line"
             id="tspan146">prohibited reproduction, storage in a retrieval system, or transmission in any form or by</tspan></text>
        <text
           xml:space="preserve"
           transform="translate(0,721)"
           style="font-variant:normal;font-weight:normal;font-size:20px;font-family:'Times New Roman';-inkscape-font-specification:TimesNewRomanPSMT;writing-mode:lr-tb;fill:#000000;fill-opacity:1;fill-rule:nonzero;stroke:none"
           id="text152"><tspan
             x="0 9 18 27 32 46 55 64 73 81 86 91 100 106 115 124 129 136 146 155 161 170 175 180 194 203 212 221 230 239 245 254 263 269 274 279 289 298 308 313 323 332 342 352 361 367 376 385 390 395 402 411 420 430 437 447 453 462 471 476 481 491 498 503 509 515 524 533 548 554 562 571 576 581 592 602"
             y="0"
             sodipodi:role="line"
             id="tspan150">any means, electronic, mechanical, photocopying, recording, or likewise. For</tspan></text>
        <text
           xml:space="preserve"
           transform="translate(0,744)"
           style="font-variant:normal;font-weight:normal;font-size:20px;font-family:'Times New Roman';-inkscape-font-specification:TimesNewRomanPSMT;writing-mode:lr-tb;fill:#000000;fill-opacity:1;fill-rule:nonzero;stroke:none"
           id="text156"><tspan
             x="0 6 15 21 31 38 52 61 66 72 82 91 96 103 112 121 130 137 147 153 162 171 176 186 195 202 216 222 230 238 244 254 263 271 276 281 288 297 307 316 325 333 338 343 349 359 366 380 388 393 402 411 421 426 431 440 449 454 463 473 483 490 500 510 517 523 532 537 546 551 560 570 579 584 593 602 607 615 620 635 641 646 655 661"
             y="0"
             sodipodi:role="line"
             id="tspan154">information regarding permissions, request forms and the appropriate contacts within</tspan></text>
        <text
           xml:space="preserve"
           transform="translate(0,767)"
           style="font-variant:normal;font-weight:normal;font-size:20px;font-family:'Times New Roman';-inkscape-font-specification:TimesNewRomanPSMT;writing-mode:lr-tb;fill:#000000;fill-opacity:1;fill-rule:nonzero;stroke:none"
           id="text160"><tspan
             x="0 5 14 23 28 39 48 57 64 72 82 91 96 108 118 127 136 145 150 156 166 175 180 194 200 210 220 229 235 240 253 259 268 277 282 290 295 310 315 326 335 342 356 362 370 378 384 394 403 411 416 430 439 449 458 465 470 484 493 502 507 512 517 527 533 542 551 559 568 573 583 589 597 603"
             y="0"
             sodipodi:role="line"
             id="tspan158">the Pearson Education Global Rights &amp; Permissions Department, please visit</tspan></text>
        <text
           xml:space="preserve"
           transform="translate(0,790)"
           style="font-variant:normal;font-weight:normal;font-size:20px;font-family:'Times New Roman';-inkscape-font-specification:TimesNewRomanPSMT;writing-mode:lr-tb;fill:#0000ee;fill-opacity:1;fill-rule:nonzero;stroke:none"
           id="text164"><tspan
             x="0 15 30 44 49 59 68 77 84 92 102 111 120 130 135 144 154 168 174 184 193 200 214 220 228 236 242 252 261 269"
             y="0"
             sodipodi:role="line"
             id="tspan162">www.pearsoned.com/permissions/</tspan></text>
        <path
           d="M 0,791.5 H 274 Z"
           style="fill:none;stroke:#0000ee;stroke-width:1;stroke-linecap:square;stroke-linejoin:miter;stroke-miterlimit:10;stroke-dasharray:none;stroke-opacity:1"
           id="path166" />
        <text
           xml:space="preserve"
           transform="translate(275,790)"
           style="font-variant:normal;font-weight:normal;font-size:20px;font-family:'Times New Roman';-inkscape-font-specification:TimesNewRomanPSMT;writing-mode:lr-tb;fill:#000000;fill-opacity:1;fill-rule:nonzero;stroke:none"
           id="text170"><tspan
             x="0"
             y="0"
             id="tspan168">.</tspan></text>
        <text
           xml:space="preserve"
           transform="translate(0,829)"
           style="font-variant:normal;font-weight:normal;font-size:20px;font-family:'Times New Roman';-inkscape-font-specification:TimesNewRomanPSMT;writing-mode:lr-tb;fill:#000000;fill-opacity:1;fill-rule:nonzero;stroke:none"
           id="text174"><tspan
             x="0 6 17 30 44 51 61 71 77 82 92 102 112 119 129 136 146 156 163 173 183 193 203 213 223 230"
             y="0"
             sodipodi:role="line"
             id="tspan172">ISBN-13: 978-0-13-449416-6</tspan></text>
        <text
           xml:space="preserve"
           transform="translate(0,852)"
           style="font-variant:normal;font-weight:normal;font-size:20px;font-family:'Times New Roman';-inkscape-font-specification:TimesNewRomanPSMT;writing-mode:lr-tb;fill:#000000;fill-opacity:1;fill-rule:nonzero;stroke:none"
           id="text178"><tspan
             x="0 6 17 30 44 51 61 71 77 82 92 99 109 119 126 136 146 156 166 176 186 193"
             y="0"
             sodipodi:role="line"
             id="tspan176">ISBN-10: 0-13-449416-4</tspan></text>
        <text
           xml:space="preserve"
           transform="translate(0,891)"
           style="font-variant:normal;font-weight:normal;font-size:20px;font-family:'Times New Roman';-inkscape-font-specification:TimesNewRomanPSMT;writing-mode:lr-tb;fill:#000000;fill-opacity:1;fill-rule:nonzero;stroke:none"
           id="text182"><tspan
             x="0 10 15 25"
             y="0"
             sodipodi:role="line"
             id="tspan180">1 17</tspan></text>
      </g>
    </g>
  </g>
</svg>
